<?xml version="1.0" standalone="no"?>
<!DOCTYPE svg PUBLIC "-//W3C//DTD SVG 1.1//EN" "http://www.w3.org/Graphics/SVG/1.1/DTD/svg11.dtd" >
<svg xmlns="http://www.w3.org/2000/svg" xmlns:xlink="http://www.w3.org/1999/xlink" version="1.1">
<metadata>
Created by FontForge 20170731 at Fri Jun 11 01:39:26 2021
 By Aleksey,,,
Copyright (c) 2013 by Andriy Konstantynov. All rights reserved.
</metadata>
<defs>
<font id="RistrettoPro-Regular" horiz-adv-x="657" >
  <font-face 
    font-family="Ristretto Pro"
    font-weight="400"
    font-stretch="normal"
    units-per-em="2048"
    panose-1="2 11 0 8 3 2 0 2 0 4"
    ascent="1536"
    descent="-512"
    x-height="1024"
    cap-height="1434"
    bbox="-94 -469 2157 1868"
    underline-thickness="102"
    underline-position="-307"
    unicode-range="U+0020-F739"
  />
<missing-glyph horiz-adv-x="317" 
 />
    <glyph glyph-name="afii10056_afii10056" unicode="&#x407;&#x407;" horiz-adv-x="626" 
d="M96 0v1434h117v-1434h-117zM-41 1536v190h102v-190h-102zM262 1536v190h103v-190h-103zM414 0v1434h116v-1434h-116zM567 1536v190h103v-190h-103z" />
    <glyph glyph-name="quoteright_afii10056" unicode="&#x2019;&#x407;" horiz-adv-x="509" 
d="M35 1286q6 15 15.5 40.5t25.5 91.5t16 118v190h113v-190q0 -52 -18 -114.5t-36 -99.5l-18 -36h-98zM295 0v1434h117v-1434h-117zM451 1536v190h100v-190h-100z" />
    <glyph glyph-name="quoteright_afii10104" unicode="&#x2019;&#x457;" horiz-adv-x="493" 
d="M35 1044q6 15 15.5 40t25.5 91t16 117v193h113v-193q0 -51 -18 -113t-36 -99l-18 -36h-98zM281 0v1024h116v-1024h-116zM436 1210v191h101v-191h-101z" />
    <glyph glyph-name="afii10104_afii10104" unicode="&#x457;&#x457;" horiz-adv-x="626" 
d="M96 0v1024h117v-1024h-117zM-41 1210v191h102v-191h-102zM264 1210v191h101v-191h-101zM414 0v1024h116v-1024h-116zM567 1210v191h103v-191h-103z" />
    <glyph glyph-name=".notdef" horiz-adv-x="317" 
 />
    <glyph glyph-name=".null" horiz-adv-x="0" 
 />
    <glyph glyph-name="nonmarkingreturn" horiz-adv-x="682" 
 />
    <glyph glyph-name="space" unicode=" " horiz-adv-x="317" 
 />
    <glyph glyph-name="exclam" unicode="!" horiz-adv-x="309" 
d="M96 377v1057h117v-1057h-117zM96 0v190h117v-190h-117z" />
    <glyph glyph-name="quotedbl" unicode="&#x22;" horiz-adv-x="503" 
d="M92 1126v359h94v-359h-94zM315 1126v359h95v-359h-95z" />
    <glyph glyph-name="numbersign" unicode="#" horiz-adv-x="743" 
d="M164 0v307h-88v99h88v622h-88v98h88v308h117v-308h196v308h117v-308h86v-98h-86v-622h86v-99h-86v-307h-117v307h-196v-307h-117zM281 406h196v622h-196v-622z" />
    <glyph glyph-name="dollar" unicode="$" 
d="M276 -205v203q-86 11 -141 71.5t-55 155.5v185h117v-185q0 -62 37.5 -98.5t93.5 -36.5q57 0 95 36t38 99v230q0 46 -21 79.5t-54.5 54t-73.5 38.5t-80.5 39t-74 49t-54.5 76t-21 112v205q0 94 54 153.5t140 71.5v203h103v-203q87 -12 141.5 -71.5t54.5 -153.5v-186h-116
v186q0 61 -37.5 97t-93.5 36t-92.5 -36t-36.5 -97v-205q0 -47 21 -81t54.5 -54.5t73.5 -38t80.5 -39t74 -49t54.5 -75t21 -111.5v-230q0 -95 -55.5 -155.5t-143.5 -71.5v-203h-103z" />
    <glyph glyph-name="percent" unicode="%" horiz-adv-x="1026" 
d="M182 0l568 1434h94l-568 -1434h-94zM92 997v256q0 87 53 138t134 51t135.5 -51t54.5 -138v-256q0 -87 -54.5 -136.5t-135.5 -49.5t-134 49.5t-53 136.5zM176 1253v-256q0 -51 29 -79.5t74 -28.5t75.5 29t30.5 79v256q0 51 -30.5 81t-75.5 30q-44 0 -73.5 -30t-29.5 -81z
M557 178v256q0 87 53 138t135 51q80 0 134.5 -51.5t54.5 -137.5v-256q0 -87 -55 -136.5t-134 -49.5q-82 0 -135 49.5t-53 136.5zM641 434v-256q0 -51 29.5 -79.5t74.5 -28.5q44 0 75.5 29t31.5 79v256q0 50 -31.5 80.5t-75.5 30.5t-74 -30t-30 -81z" />
    <glyph glyph-name="ampersand" unicode="&#x26;" 
d="M328 754h133v84h117v-613q0 -109 -71.5 -171t-178.5 -62t-177.5 62t-70.5 171v273q0 73 33.5 126.5t91.5 80.5q-125 58 -125 208v242q0 109 70.5 172.5t177.5 63.5t178.5 -63.5t71.5 -172.5v-131h-117v131q0 63 -38 100t-95 37q-56 0 -93.5 -37t-37.5 -100v-266
q0 -62 37.5 -98.5t93.5 -36.5zM328 655q-56 0 -93.5 -37t-37.5 -100v-293q0 -62 37.5 -98.5t93.5 -36.5q57 0 95 36t38 99v430h-133z" />
    <glyph glyph-name="quotesingle" unicode="'" horiz-adv-x="278" 
d="M92 1126v359h94v-359h-94z" />
    <glyph glyph-name="parenleft" unicode="(" horiz-adv-x="395" 
d="M328 1446q-56 0 -93.5 -37t-37.5 -100v-1289q0 -62 37.5 -98.5t93.5 -36.5h20v-98h-20q-107 0 -177.5 62t-70.5 171v1289q0 109 70.5 172t177.5 63h20v-98h-20z" />
    <glyph glyph-name="parenright" unicode=")" horiz-adv-x="395" 
d="M68 -115q56 0 93.5 37.5t37.5 100.5v1288q0 62 -37.5 98.5t-93.5 36.5h-21v98h21q107 0 177 -62t70 -171v-1288q0 -109 -70.5 -172.5t-176.5 -63.5h-21v98h21z" />
    <glyph glyph-name="asterisk" unicode="*" horiz-adv-x="692" 
d="M63 1122v99h195l-98 172l86 49l98 -174l98 174l86 -49l-100 -172h201v-99h-201l98 -170l-84 -49l-98 170l-98 -170l-84 49l98 170h-197z" />
    <glyph glyph-name="plus" unicode="+" horiz-adv-x="692" 
d="M63 588v98h232v244h98v-244h236v-98h-236v-244h-98v244h-232z" />
    <glyph glyph-name="comma" unicode="," horiz-adv-x="299" 
d="M133 -250h-98q6 15 15.5 40.5t25.5 91.5t16 118v190h113v-190q0 -52 -18 -114.5t-36 -99.5z" />
    <glyph glyph-name="hyphen" unicode="-" horiz-adv-x="442" 
d="M63 514v96h318v-96h-318z" />
    <glyph glyph-name="period" unicode="." horiz-adv-x="299" 
d="M92 0v190h113v-190h-113z" />
    <glyph glyph-name="slash" unicode="/" horiz-adv-x="606" 
d="M63 -205l363 1733h117l-363 -1733h-117z" />
    <glyph glyph-name="zero" unicode="0" 
d="M328 1391q107 0 178.5 -63.5t71.5 -172.5v-930q0 -109 -71.5 -171t-178.5 -62t-177.5 62t-70.5 171v930q0 109 70.5 172.5t177.5 63.5zM197 1155v-930q0 -62 37.5 -98.5t93.5 -36.5q57 0 95 36t38 99v930q0 63 -38 100t-95 37q-56 0 -93.5 -37t-37.5 -100z" />
    <glyph glyph-name="one" unicode="1" horiz-adv-x="450" 
d="M47 1155v113l191 114h116v-1382h-116v1270z" />
    <glyph glyph-name="two" unicode="2" horiz-adv-x="649" 
d="M82 0v260q0 63 20.5 117t53 93t72 74.5t79.5 68.5t72.5 67t53 77.5t20.5 92.5v305q0 63 -38.5 100t-95.5 37q-54 0 -90 -34.5t-36 -94.5v-151h-117v151q0 105 69.5 166.5t173.5 61.5q107 0 178.5 -63.5t71.5 -172.5v-305q0 -63 -20.5 -117t-53 -93t-72 -74t-79 -68
t-72 -67t-53 -77.5t-20.5 -93.5v-162h370v-98h-487z" />
    <glyph glyph-name="three" unicode="3" horiz-adv-x="649" 
d="M324 90q57 0 95 37t38 100v310q0 63 -38 99t-95 36h-101v98h96q58 0 96 36t38 99v250q0 63 -38.5 100t-95.5 37q-54 0 -90 -34.5t-36 -94.5v-151h-117v151q0 105 69.5 166.5t173.5 61.5q107 0 178.5 -63.5t71.5 -172.5v-221q0 -77 -38 -132t-103 -79q67 -24 106 -79.5
t39 -135.5v-281q0 -109 -71 -172t-178 -63q-104 0 -174 62t-70 167v150h117v-150q0 -60 36.5 -95.5t90.5 -35.5z" />
    <glyph glyph-name="four" unicode="4" horiz-adv-x="645" 
d="M47 274v99l320 1009h178v-1009h53v-99h-53v-274h-113v274h-385zM156 373h276v878h-4z" />
    <glyph glyph-name="five" unicode="5" 
d="M197 643h-117v739h487v-98h-370v-512q76 115 211 115q72 0 121 -47.5t49 -128.5v-486q0 -109 -71.5 -171t-178.5 -62t-177.5 62t-70.5 171v146h117v-146q0 -62 37.5 -98.5t93.5 -36.5q57 0 95 36t38 99v459q0 48 -29 76t-72 28q-66 0 -114.5 -45.5t-48.5 -99.5z" />
    <glyph glyph-name="six" unicode="6" 
d="M330 1292q-57 0 -95 -37t-38 -100v-434q76 115 211 115q72 0 121 -48t49 -129v-434q0 -109 -71.5 -171t-178.5 -62t-177.5 62t-70.5 171v930q0 109 71.5 172.5t178.5 63.5q103 0 173 -62.5t70 -167.5v-149h-116v149q0 60 -36.5 95.5t-90.5 35.5zM197 565v-340
q0 -62 37.5 -98.5t93.5 -36.5q57 0 95 36t38 99v408q0 48 -29 76t-72 28q-69 0 -116 -47t-47 -125z" />
    <glyph glyph-name="seven" unicode="7" horiz-adv-x="614" 
d="M63 1284v98h488v-63l-272 -1319h-121l268 1284h-363z" />
    <glyph glyph-name="eight" unicode="8" 
d="M328 1391q107 0 178.5 -63.5t71.5 -172.5v-242q0 -74 -34 -127.5t-93 -80.5q59 -27 93 -80.5t34 -126.5v-273q0 -109 -71.5 -171t-178.5 -62t-177.5 62t-70.5 171v273q0 73 33.5 126.5t91.5 80.5q-125 58 -125 208v242q0 109 70.5 172.5t177.5 63.5zM197 1155v-266
q0 -62 37.5 -98.5t93.5 -36.5q57 0 95 36t38 99v266q0 63 -38 100t-95 37q-56 0 -93.5 -37t-37.5 -100zM197 518v-293q0 -62 37.5 -98.5t93.5 -36.5q57 0 95 36t38 99v293q0 63 -38 100t-95 37q-56 0 -93.5 -37t-37.5 -100z" />
    <glyph glyph-name="nine" unicode="9" 
d="M326 90q57 0 96 38t39 101v430q-35 -54 -90 -83t-119 -29q-73 0 -122.5 46.5t-49.5 127.5v436q0 109 71.5 171.5t178.5 62.5t177.5 -62.5t70.5 -171.5v-928q0 -109 -72 -173t-180 -64q-105 0 -175.5 62t-70.5 169v148h117v-148q0 -61 36.5 -97t92.5 -36zM461 815v342
q0 63 -37 99t-94 36t-95 -36t-38 -99v-409q0 -48 28.5 -75.5t71.5 -27.5q71 0 117.5 46t46.5 124z" />
    <glyph glyph-name="colon" unicode=":" horiz-adv-x="299" 
d="M92 0v190h113v-190h-113zM92 831v193h113v-193h-113z" />
    <glyph glyph-name="semicolon" unicode=";" horiz-adv-x="299" 
d="M133 -250h-98q6 15 15.5 40.5t25.5 91.5t16 118v190h113v-190q0 -52 -18 -114.5t-36 -99.5zM92 831v193h113v-193h-113z" />
    <glyph glyph-name="less" unicode="&#x3c;" horiz-adv-x="837" 
d="M92 690l653 213v-121l-546 -166v-4l546 -168v-120l-653 213v153z" />
    <glyph glyph-name="equal" unicode="=" horiz-adv-x="692" 
d="M63 721v98h566v-98h-566zM63 410v98h566v-98h-566z" />
    <glyph glyph-name="greater" unicode="&#x3e;" horiz-adv-x="837" 
d="M745 539l-653 -213v120l547 166v4l-547 168v121l653 -213v-153z" />
    <glyph glyph-name="question" unicode="?" horiz-adv-x="649" 
d="M260 377v172q0 60 10.5 104t27.5 70t37.5 46t41.5 38.5t38 40.5t27.5 58.5t10.5 86.5v213q0 63 -38.5 100t-95.5 37q-54 0 -90 -34.5t-36 -94.5v-151h-117v151q0 105 69.5 166.5t173.5 61.5q107 0 178.5 -63.5t71.5 -172.5v-213q0 -69 -14 -118.5t-35.5 -74t-46.5 -48.5
t-46.5 -44.5t-35.5 -61t-14 -97.5v-172h-117zM260 0v190h117v-190h-117z" />
    <glyph glyph-name="at" unicode="@" horiz-adv-x="1447" 
d="M721 -319v-99q-131 0 -245 42t-200 119.5t-135 196.5t-49 265v612q0 145 49.5 264.5t135 197.5t199.5 120.5t245 42.5t246 -42.5t202 -120.5t137 -197.5t50 -264.5v-817h-500v106q-37 -55 -91.5 -84.5t-119.5 -29.5q-72 0 -121 47t-49 129v631q0 109 71.5 171t178.5 62
q70 0 132 -19t89 -38l27 -19v-858h266v719q0 159 -70.5 280.5t-187 183.5t-260.5 62q-142 0 -257.5 -62t-185 -183t-69.5 -281v-612q0 -121 40 -221t110 -166t163 -101.5t199 -35.5zM856 895q-51 39 -131 39q-57 0 -95 -36t-38 -99v-604q0 -49 28.5 -77t71.5 -28
q70 0 117 46.5t47 123.5v635z" />
    <glyph glyph-name="A" unicode="A" horiz-adv-x="645" 
d="M33 0l213 1434h153l213 -1434h-118l-56 385h-233l-53 -385h-119zM213 483h219l-106 809h-4z" />
    <glyph glyph-name="B" unicode="B" horiz-adv-x="661" 
d="M96 0v1434h236q107 0 178.5 -63.5t71.5 -172.5v-244q0 -77 -38.5 -132t-103.5 -79q67 -24 106.5 -80t39.5 -135v-292q0 -109 -71.5 -172.5t-178.5 -63.5h-240zM336 692h-123v-594h123q57 0 95 37.5t38 100.5v321q0 63 -38 99t-95 36zM213 791h119q57 0 95 36t38 99v272
q0 63 -38 100t-95 37h-119v-544z" />
    <glyph glyph-name="C" unicode="C" horiz-adv-x="645" 
d="M197 1212v-993q0 -60 35.5 -94.5t89.5 -34.5t90.5 34.5t36.5 94.5v191h116v-191q0 -105 -69.5 -166t-173.5 -61t-173 61t-69 166v993q0 106 69.5 168t172.5 62t173 -62.5t70 -167.5v-188h-116v188q0 60 -36.5 95.5t-90.5 35.5t-89.5 -35.5t-35.5 -95.5z" />
    <glyph glyph-name="D" unicode="D" horiz-adv-x="667" 
d="M96 0v1434h242q107 0 178.5 -63.5t71.5 -172.5v-965q0 -109 -71.5 -171t-178.5 -62h-242zM213 98h125q57 0 95 36t38 99v965q0 63 -38 100t-95 37h-125v-1237z" />
    <glyph glyph-name="E" unicode="E" horiz-adv-x="630" 
d="M96 0v1434h455v-99h-338v-551h297v-98h-297v-588h338v-98h-455z" />
    <glyph glyph-name="F" unicode="F" horiz-adv-x="630" 
d="M96 0v1434h455v-99h-338v-551h297v-98h-297v-686h-117z" />
    <glyph glyph-name="G" unicode="G" horiz-adv-x="645" 
d="M324 670v98h241v-549q0 -105 -69.5 -166t-173.5 -61t-173 61t-69 166v993q0 106 69.5 168t172.5 62t173 -62.5t70 -167.5v-188h-116v188q0 60 -36.5 95.5t-90.5 35.5t-89.5 -35.5t-35.5 -95.5v-993q0 -60 35.5 -94.5t89.5 -34.5t90.5 34.5t36.5 94.5v451h-125z" />
    <glyph glyph-name="H" unicode="H" horiz-adv-x="692" 
d="M96 0v1434h117v-650h266v650h117v-1434h-117v686h-266v-686h-117z" />
    <glyph glyph-name="I" unicode="I" horiz-adv-x="309" 
d="M96 0v1434h117v-1434h-117z" />
    <glyph glyph-name="J" unicode="J" horiz-adv-x="645" 
d="M80 410h117v-189q0 -60 36.5 -95.5t90.5 -35.5t89.5 35.5t35.5 95.5v1213h116v-1213q0 -106 -69 -167.5t-172 -61.5q-104 0 -174 62t-70 167v189z" />
    <glyph glyph-name="K" unicode="K" horiz-adv-x="655" 
d="M96 0v1434h117v-650h76l203 650h120l-231 -699l240 -735h-123l-207 686h-78v-686h-117z" />
    <glyph glyph-name="L" unicode="L" horiz-adv-x="585" 
d="M96 0v1434h117v-1336h328v-98h-445z" />
    <glyph glyph-name="M" unicode="M" horiz-adv-x="968" 
d="M96 0v1434h174l209 -1256h4l215 1256h172v-1434h-112v1227h-4l-203 -1227h-135l-203 1227h-4v-1227h-113z" />
    <glyph glyph-name="N" unicode="N" horiz-adv-x="694" 
d="M96 0v1434h107l278 -1080h4v1080h113v-1434h-106l-279 1079h-4v-1079h-113z" />
    <glyph glyph-name="O" unicode="O" 
d="M328 1442q107 0 178.5 -63.5t71.5 -172.5v-981q0 -109 -71.5 -171t-178.5 -62t-177.5 62t-70.5 171v981q0 109 70.5 172.5t177.5 63.5zM197 1206v-981q0 -62 37.5 -98.5t93.5 -36.5q57 0 95 36t38 99v981q0 63 -38 100t-95 37q-56 0 -93.5 -37t-37.5 -100z" />
    <glyph glyph-name="P" unicode="P" horiz-adv-x="661" 
d="M96 0v1434h236q107 0 178.5 -63.5t71.5 -172.5v-377q0 -109 -71.5 -171t-178.5 -62h-119v-588h-117zM213 686h119q57 0 95 36t38 99v377q0 63 -38 100t-95 37h-119v-649z" />
    <glyph glyph-name="Q" unicode="Q" 
d="M270 -31v31q-86 14 -138 72.5t-52 152.5v981q0 109 70.5 172.5t177.5 63.5t178.5 -63.5t71.5 -172.5v-981q0 -93 -53 -152t-138 -73v-31q0 -62 37.5 -98.5t93.5 -36.5h60v-98h-60q-107 0 -177.5 62t-70.5 171zM197 1206v-981q0 -62 37.5 -98.5t93.5 -36.5q57 0 95 36
t38 99v981q0 63 -38 100t-95 37q-56 0 -93.5 -37t-37.5 -100z" />
    <glyph glyph-name="R" unicode="R" horiz-adv-x="661" 
d="M500 0l-170 625h-117v-625h-117v1434h236q107 0 178.5 -63.5t71.5 -172.5v-340q0 -82 -41.5 -135.5t-110.5 -73.5l191 -649h-121zM213 723h119q57 0 95 36t38 99v340q0 63 -38 100t-95 37h-119v-612z" />
    <glyph glyph-name="S" unicode="S" 
d="M80 410h117v-185q0 -62 37.5 -98.5t93.5 -36.5q57 0 95 36t38 99v281q0 46 -21 79.5t-54.5 54t-73.5 38.5t-80.5 39t-74 49t-54.5 76t-21 112v256q0 107 70.5 169.5t175.5 62.5q106 0 176.5 -62.5t70.5 -169.5v-186h-116v186q0 61 -37.5 97t-93.5 36t-92.5 -36t-36.5 -97
v-256q0 -47 21 -81t54.5 -54.5t73.5 -38.5t80.5 -39t74 -48.5t54.5 -75t21 -111.5v-281q0 -109 -71.5 -171t-178.5 -62t-177.5 62t-70.5 171v185z" />
    <glyph glyph-name="T" unicode="T" horiz-adv-x="587" 
d="M39 1335v99h510v-99h-197v-1335h-116v1335h-197z" />
    <glyph glyph-name="U" unicode="U" 
d="M80 1434h117v-1209q0 -62 37.5 -98.5t93.5 -36.5q57 0 95 36t38 99v1209h117v-1209q0 -109 -71.5 -171t-178.5 -62t-177.5 62t-70.5 171v1209z" />
    <glyph glyph-name="V" unicode="V" horiz-adv-x="645" 
d="M246 0l-213 1434h119l167 -1293h5l170 1293h118l-213 -1434h-153z" />
    <glyph glyph-name="W" unicode="W" horiz-adv-x="1093" 
d="M244 0l-211 1434h121l161 -1297h4l150 1297h154l147 -1297h4l162 1297h121l-209 -1434h-158l-143 1286h-4l-144 -1286h-155z" />
    <glyph glyph-name="X" unicode="X" horiz-adv-x="645" 
d="M29 0l204 737l-198 697h121l166 -641h4l163 641h121l-198 -699l204 -735h-120l-170 682h-4l-172 -682h-121z" />
    <glyph glyph-name="Y" unicode="Y" horiz-adv-x="645" 
d="M262 0v477l-229 957h117l169 -764h5l172 764h116l-233 -957v-477h-117z" />
    <glyph glyph-name="Z" unicode="Z" horiz-adv-x="647" 
d="M80 0v63l362 1272h-362v99h487v-64l-360 -1272h360v-98h-487z" />
    <glyph glyph-name="bracketleft" unicode="[" horiz-adv-x="395" 
d="M80 -207v1743h268v-98h-151v-1544h151v-101h-268z" />
    <glyph glyph-name="backslash" unicode="\" horiz-adv-x="606" 
d="M426 -205l-363 1733h117l363 -1733h-117z" />
    <glyph glyph-name="bracketright" unicode="]" horiz-adv-x="395" 
d="M47 -207v96h152v1547h-152v100h268v-1743h-268z" />
    <glyph glyph-name="asciicircum" unicode="^" horiz-adv-x="684" 
d="M129 1100l-70 69l326 275l326 -275l-70 -69l-256 221z" />
    <glyph glyph-name="underscore" unicode="_" 
d="M-4 -150v99h666v-99h-666z" />
    <glyph glyph-name="grave" unicode="`" horiz-adv-x="548" 
d="M365 1155l-252 211l69 70l252 -209z" />
    <glyph glyph-name="a" unicode="a" 
d="M461 0v106q-34 -55 -93.5 -84.5t-123.5 -29.5q-70 0 -117 45.5t-47 124.5v184q0 106 63 163.5t166 70.5l152 18v201q0 63 -37 99t-94 36t-95 -36t-38 -99v-101h-117v101q0 109 71.5 171t178.5 62t177.5 -62t70.5 -171v-799h-117zM461 500l-131 -17q-60 -8 -96.5 -42
t-36.5 -95v-158q0 -46 27 -72t67 -26q67 0 118.5 47t51.5 123v240z" />
    <glyph glyph-name="b" unicode="b" horiz-adv-x="671" 
d="M92 68v1417h117v-567q37 55 91.5 84.5t119.5 29.5q74 0 123 -47t49 -129v-631q0 -109 -71.5 -171t-180.5 -62q-70 0 -132 19t-89 38zM209 129q51 -39 131 -39q58 0 96.5 36.5t38.5 98.5v604q0 48 -29 76.5t-71 28.5q-71 0 -118.5 -46.5t-47.5 -123.5v-635z" />
    <glyph glyph-name="c" unicode="c" horiz-adv-x="645" 
d="M197 803v-584q0 -60 35.5 -94.5t89.5 -34.5t90.5 34.5t36.5 94.5v107h116v-107q0 -105 -69.5 -166t-173.5 -61t-173 61t-69 166v584q0 105 69.5 167t172.5 62q104 0 173.5 -62t69.5 -167v-105h-116v105q0 60 -36.5 95.5t-90.5 35.5t-89.5 -35.5t-35.5 -95.5z" />
    <glyph glyph-name="d" unicode="d" horiz-adv-x="673" 
d="M461 0v106q-35 -55 -90 -84.5t-119 -29.5q-74 0 -123 47t-49 129v631q0 109 65 171t164 62q88 0 152 -35v488h117v-1485h-117zM461 895q-51 39 -131 39q-57 0 -95 -36t-38 -99v-604q0 -49 28.5 -77t71.5 -28q71 0 117.5 46t46.5 124v635z" />
    <glyph glyph-name="e" unicode="e" 
d="M578 475h-381v-250q0 -62 37.5 -98.5t93.5 -36.5q57 0 95 36t38 99v101h117v-101q0 -109 -71.5 -171t-178.5 -62t-177.5 62t-70.5 171v572q0 109 70.5 172t177.5 63t178.5 -63t71.5 -172v-322zM197 797v-224h264v224q0 67 -37 102t-96 35q-57 0 -94 -35t-37 -102z" />
    <glyph glyph-name="f" unicode="f" horiz-adv-x="477" 
d="M96 0v1257q0 110 69 173t173 63q46 0 100 -12v-101q-45 15 -88 15q-60 0 -98.5 -37.5t-38.5 -100.5v-233h225v-98h-225v-926h-117z" />
    <glyph glyph-name="g" unicode="g" 
d="M80 -164h117v-69q0 -63 38 -100.5t95 -37.5t94 37.5t37 100.5v339q-35 -55 -90 -84.5t-119 -29.5q-74 0 -123 47t-49 129v631q0 109 71.5 171t178.5 62q70 0 132 -19t89 -38l27 -19v-1189q0 -109 -70.5 -172.5t-177.5 -63.5t-178.5 63.5t-71.5 172.5v69zM461 895
q-51 39 -131 39q-57 0 -95 -36t-38 -99v-604q0 -49 28.5 -77t71.5 -28q71 0 117.5 46t46.5 124v635z" />
    <glyph glyph-name="h" unicode="h" horiz-adv-x="673" 
d="M96 0v1485h117v-567q37 55 91.5 84.5t119.5 29.5q74 0 123 -47t49 -129v-856h-117v829q0 48 -29 76.5t-71 28.5q-71 0 -118.5 -46.5t-47.5 -123.5v-764h-117z" />
    <glyph glyph-name="i" unicode="i" horiz-adv-x="309" 
d="M96 0v1024h117v-1024h-117zM96 1241v193h117v-193h-117z" />
    <glyph glyph-name="j" unicode="j" horiz-adv-x="309" 
d="M-94 -455v99q35 -15 78 -15q48 0 80 30t32 81v1284h117v-1284q0 -97 -62.5 -153t-156.5 -56q-55 0 -88 14zM96 1241v193h117v-193h-117z" />
    <glyph glyph-name="k" unicode="k" horiz-adv-x="655" 
d="M96 0v1485h117v-914h96l183 453h122l-219 -500l226 -524h-123l-189 477h-96v-477h-117z" />
    <glyph glyph-name="l" unicode="l" horiz-adv-x="309" 
d="M96 0v1485h117v-1485h-117z" />
    <glyph glyph-name="m" unicode="m" horiz-adv-x="1056" 
d="M213 764v-764h-117v1024h117v-106q37 55 91.5 84.5t119.5 29.5q63 0 108 -31.5t58 -87.5q38 58 94.5 88.5t120.5 30.5q74 0 123 -47t49 -129v-856h-117v829q0 48 -28.5 76.5t-71.5 28.5q-69 0 -116.5 -47t-47.5 -121v-766h-117v829q0 48 -29 76.5t-71 28.5
q-71 0 -118.5 -46.5t-47.5 -123.5z" />
    <glyph glyph-name="n" unicode="n" horiz-adv-x="673" 
d="M213 764v-764h-117v1024h117v-106q37 55 91.5 84.5t119.5 29.5q74 0 123 -47t49 -129v-856h-117v829q0 48 -29 76.5t-71 28.5q-71 0 -118.5 -46.5t-47.5 -123.5z" />
    <glyph glyph-name="o" unicode="o" 
d="M328 1032q107 0 178.5 -63t71.5 -172v-572q0 -109 -71.5 -171t-178.5 -62t-177.5 62t-70.5 171v572q0 109 70.5 172t177.5 63zM197 797v-572q0 -62 37.5 -98.5t93.5 -36.5q57 0 95 36t38 99v572q0 63 -38 100t-95 37q-56 0 -93.5 -37t-37.5 -100z" />
    <glyph glyph-name="p" unicode="p" horiz-adv-x="673" 
d="M96 -410v1434h117v-106q37 55 91.5 84.5t119.5 29.5q74 0 123 -47t49 -129v-631q0 -109 -65.5 -171t-163.5 -62q-90 0 -154 35v-437h-117zM213 129q51 -39 131 -39q58 0 96.5 36.5t38.5 98.5v604q0 48 -29 76.5t-71 28.5q-71 0 -118.5 -46.5t-47.5 -123.5v-635z" />
    <glyph glyph-name="q" unicode="q" 
d="M461 -410v516q-35 -55 -90 -84.5t-119 -29.5q-74 0 -123 47t-49 129v631q0 109 71.5 171t178.5 62q70 0 132 -19t89 -38l27 -19v-1366h-117zM461 895q-51 39 -131 39q-57 0 -95 -36t-38 -99v-604q0 -49 28.5 -77t71.5 -28q71 0 117.5 46t46.5 124v635z" />
    <glyph glyph-name="r" unicode="r" horiz-adv-x="591" 
d="M96 0v1024h117v-150q71 158 205 158q54 0 89.5 -34.5t35.5 -94.5v-205h-117v170q0 30 -17 48t-44 18q-70 0 -111 -68.5t-41 -167.5v-698h-117z" />
    <glyph glyph-name="s" unicode="s" horiz-adv-x="645" 
d="M80 326h117v-107q0 -60 35.5 -94.5t89.5 -34.5t90.5 34.5t36.5 94.5v123q0 55 -38 87t-91.5 49t-107.5 37.5t-92 69.5t-38 128v94q0 105 68 165t172 60t172.5 -60t68.5 -165v-109h-117v109q0 59 -35.5 93t-88.5 34t-88 -34t-35 -93v-94q0 -41 20 -68.5t52.5 -43t71.5 -28
t78 -28.5t71.5 -38.5t52.5 -64.5t20 -100v-123q0 -105 -69.5 -166t-173.5 -61t-173 61t-69 166v107z" />
    <glyph glyph-name="t" unicode="t" horiz-adv-x="483" 
d="M438 104v-100q-54 -12 -100 -12q-104 0 -173 62.5t-69 172.5v1043h117v-246h225v-98h-225v-699q0 -63 38.5 -100t98.5 -37q46 0 88 14z" />
    <glyph glyph-name="u" unicode="u" horiz-adv-x="673" 
d="M461 0v106q-35 -55 -90 -84.5t-119 -29.5q-74 0 -123 47t-49 129v856h117v-829q0 -49 28.5 -77t71.5 -28q71 0 117.5 46t46.5 124v764h117v-1024h-117z" />
    <glyph glyph-name="v" unicode="v" horiz-adv-x="645" 
d="M246 0l-213 1024h121l165 -915h5l168 915h120l-213 -1024h-153z" />
    <glyph glyph-name="w" unicode="w" horiz-adv-x="1042" 
d="M229 0l-196 1024h121l151 -913h4l135 913h150l137 -913h4l150 913h121l-197 -1024h-154l-133 903h-4l-135 -903h-154z" />
    <glyph glyph-name="x" unicode="x" 
d="M35 0l219 524l-213 500h123l162 -428h4l164 428h122l-210 -500l217 -524h-123l-170 457h-4l-168 -457h-123z" />
    <glyph glyph-name="y" unicode="y" horiz-adv-x="671" 
d="M80 -164h117v-69q0 -63 38 -100.5t95 -37.5t94 37.5t37 100.5v339q-35 -55 -90 -84.5t-119 -29.5q-74 0 -123 47t-49 129v856h117v-829q0 -49 28.5 -77t71.5 -28q71 0 117.5 46t46.5 124v764h117v-1257q0 -109 -70.5 -172.5t-177.5 -63.5t-178.5 63.5t-71.5 172.5v69z
" />
    <glyph glyph-name="z" unicode="z" horiz-adv-x="647" 
d="M80 0v63l358 863h-358v98h487v-63l-354 -863h354v-98h-487z" />
    <glyph glyph-name="braceleft" unicode="{" horiz-adv-x="518" 
d="M471 -213h-20q-104 0 -176 62.5t-72 168.5v465q0 61 -38 98t-95 37h-21v103h21q57 0 95 37t38 100v451q0 109 70.5 172t177.5 63h20v-98h-20q-57 0 -94.5 -37t-37.5 -100v-451q0 -126 -102 -190q46 -26 74 -73.5t28 -111.5v-465q0 -61 38 -97t94 -36h20v-98z" />
    <glyph glyph-name="bar" unicode="|" horiz-adv-x="309" 
d="M96 -205v1741h117v-1741h-117z" />
    <glyph glyph-name="braceright" unicode="}" horiz-adv-x="518" 
d="M49 -213v98h21q57 0 95 37.5t38 100.5v450q0 129 102 191q-102 55 -102 184v465q-1 62 -38.5 97.5t-94.5 35.5h-21v98h21q106 0 177.5 -62t71.5 -169v-465q0 -62 37.5 -98.5t94.5 -36.5h20v-103h-20q-57 0 -94.5 -37t-37.5 -100v-450q0 -109 -70.5 -172.5t-178.5 -63.5
h-21z" />
    <glyph glyph-name="asciitilde" unicode="~" horiz-adv-x="778" 
d="M80 483q0 85 54 135t136 50q40 0 69 -12t46.5 -29t33 -33.5t37.5 -28.5t50 -12q42 0 72 27.5t30 76.5h90q0 -85 -54.5 -134.5t-135.5 -49.5q-38 0 -67.5 12t-47.5 28.5t-34.5 33.5t-37.5 29t-47 12q-45 0 -74.5 -28t-29.5 -77h-90z" />
    <glyph glyph-name="exclamdown" unicode="&#xa1;" horiz-adv-x="309" 
d="M96 -410v1057h117v-1057h-117zM96 831v193h117v-193h-117z" />
    <glyph glyph-name="cent" unicode="&#xa2;" horiz-adv-x="645" 
d="M262 -205v205q-81 12 -131.5 70t-50.5 149v584q0 91 50.5 149t131.5 72v205h117v-205q83 -14 134.5 -72t51.5 -149v-105h-116v105q0 60 -36.5 95.5t-90.5 35.5t-89.5 -35.5t-35.5 -95.5v-584q0 -60 35.5 -94.5t89.5 -34.5t90.5 34.5t36.5 94.5v107h116v-107
q0 -91 -52 -149t-134 -70v-205h-117z" />
    <glyph glyph-name="sterling" unicode="&#xa3;" horiz-adv-x="698" 
d="M49 625v98h84v489q0 106 69.5 168t172.5 62q105 0 174 -62t69 -168v-188h-116v188q0 60 -36.5 95.5t-90.5 35.5q-53 0 -89 -35.5t-36 -95.5v-489h368v-98h-368v-527h368v-98h-569v98h84v527h-84z" />
    <glyph glyph-name="currency" unicode="&#xa4;" 
d="M328 827q51 0 106 -20l60 166h122l-92 -230q54 -64 54 -151v-162q0 -84 -50 -147l95 -232h-123l-60 166q-50 -20 -112 -20q-64 0 -111 20l-59 -166h-123l92 234q-47 56 -47 145v162q0 93 53 156l-92 225h123l59 -164q49 18 105 18zM197 592v-162q0 -62 37.5 -98.5
t93.5 -36.5q57 0 95 36t38 99v162q0 63 -38 100t-95 37q-56 0 -93.5 -37t-37.5 -100z" />
    <glyph glyph-name="yen" unicode="&#xa5;" horiz-adv-x="645" 
d="M74 485v99h162l-203 850h117l169 -764h5l172 764h116l-209 -850h168v-99h-190l-2 -8v-141h192v-98h-192v-238h-117v238h-188v98h188v141l-2 8h-186z" />
    <glyph glyph-name="brokenbar" unicode="&#xa6;" horiz-adv-x="309" 
d="M96 -205v768h117v-768h-117zM96 768v768h117v-768h-117z" />
    <glyph glyph-name="section" unicode="&#xa7;" 
d="M578 266q0 -73 -35 -123q35 -61 35 -139v-240q0 -109 -71.5 -171t-178.5 -62t-177.5 62t-70.5 171v185h117v-185q0 -62 37.5 -98.5t93.5 -36.5q57 0 95 36t38 99v240q0 46 -21 80t-54.5 54.5t-73.5 38t-80.5 39t-74 49.5t-54.5 76t-21 112v256q0 76 43 135
q-43 59 -43 151v215q0 107 70.5 169.5t175.5 62.5q106 0 176.5 -62.5t70.5 -169.5v-186h-116v186q0 61 -37.5 97t-93.5 36t-92.5 -36t-36.5 -97v-215q0 -47 21 -81t54.5 -54.5t73.5 -38t80.5 -39t74 -49t54.5 -75t21 -111.5v-281zM461 547q0 40 -14.5 69.5t-43.5 50.5
t-56.5 35t-70 33t-67.5 33q-10 -27 -10 -59v-256q0 -41 15 -71.5t44 -52t58 -36.5t71 -34.5t68 -35.5q6 18 6 43v281z" />
    <glyph glyph-name="dieresis" unicode="&#xa8;" horiz-adv-x="622" 
d="M106 1210v191h103v-191h-103zM397 1210v191h103v-191h-103z" />
    <glyph glyph-name="copyright" unicode="&#xa9;" horiz-adv-x="1447" 
d="M721 1442q175 0 318.5 -65t230 -192.5t86.5 -295.5v-346q0 -127 -50 -232t-137 -174.5t-202 -107t-246 -37.5t-245.5 37.5t-199.5 107t-134.5 174.5t-49.5 232v346q0 168 85 295.5t227 192.5t317 65zM209 889v-346q0 -138 69.5 -242t185 -157.5t257.5 -53.5
q144 0 260.5 53.5t187 157.5t70.5 242v346q0 136 -70.5 240.5t-187.5 159t-260 54.5q-218 0 -365 -125t-147 -329zM592 889v-346q0 -62 37.5 -98.5t93.5 -36.5t94.5 36.5t38.5 98.5v71h117v-71q0 -109 -71.5 -171.5t-178.5 -62.5t-177.5 62.5t-70.5 171.5v346
q0 110 70.5 172.5t177.5 62.5t178.5 -62.5t71.5 -172.5v-70h-117v70q0 62 -38.5 99.5t-94.5 37.5t-93.5 -37t-37.5 -100z" />
    <glyph glyph-name="ordfeminine" unicode="&#xaa;" horiz-adv-x="368" 
d="M242 922v49q-38 -53 -105 -53q-35 0 -57.5 22t-22.5 61v97q0 52 31.5 80.5t81.5 35.5l72 9v98q0 27 -17 43t-41 16t-40.5 -16t-16.5 -43v-53h-70v53q0 55 36 87t91 32t92 -32t37 -87v-399h-71zM242 1163l-58 -6q-57 -11 -57 -59v-80q0 -19 12.5 -31t28.5 -12
q29 0 51.5 21t22.5 53v114z" />
    <glyph glyph-name="guillemotleft" unicode="&#xab;" horiz-adv-x="616" 
d="M330 870l-148 -358l148 -358h-123l-144 358l144 358h123zM565 870l-145 -358l145 -358h-121l-143 358l143 358h121z" />
    <glyph glyph-name="logicalnot" unicode="&#xac;" horiz-adv-x="692" 
d="M63 616v97h566v-316h-117v219h-449z" />
    <glyph glyph-name="uni00AD" unicode="&#xad;" horiz-adv-x="442" 
d="M63 514v96h318v-96h-318z" />
    <glyph glyph-name="registered" unicode="&#xae;" horiz-adv-x="1447" 
d="M721 1442q175 0 318.5 -65t230 -192.5t86.5 -295.5v-346q0 -127 -50 -232t-137 -174.5t-202 -107t-246 -37.5t-245.5 37.5t-199.5 107t-134.5 174.5t-49.5 232v346q0 168 85 295.5t227 192.5t317 65zM209 889v-346q0 -138 69.5 -242t185 -157.5t257.5 -53.5
q144 0 260.5 53.5t187 157.5t70.5 242v346q0 136 -70.5 240.5t-187.5 159t-260 54.5q-218 0 -365 -125t-147 -329zM885 342l-154 285h-127v-285h-117v752h248q105 0 171.5 -55.5t66.5 -153.5v-49q0 -71 -36 -118.5t-103 -66.5l163 -309h-112zM604 725h131q56 0 88.5 29.5
t32.5 81.5v49q0 52 -32.5 81t-88.5 29h-131v-270z" />
    <glyph glyph-name="macron" unicode="&#xaf;" horiz-adv-x="309" 
d="M-43 1233v98h393v-98h-393z" />
    <glyph glyph-name="degree" unicode="&#xb0;" horiz-adv-x="561" 
d="M92 1202v51q0 87 53 138t134 51t135.5 -51t54.5 -138v-51q0 -87 -54.5 -136.5t-135.5 -49.5t-134 49.5t-53 136.5zM176 1253v-51q0 -51 29 -79.5t74 -28.5t75.5 29t30.5 79v51q0 51 -30.5 81t-75.5 30q-44 0 -73.5 -30t-29.5 -81z" />
    <glyph glyph-name="plusminus" unicode="&#xb1;" horiz-adv-x="692" 
d="M63 588v98h232v244h98v-244h236v-98h-236v-244h-98v244h-232zM63 176v98h566v-98h-566z" />
    <glyph glyph-name="twosuperior" unicode="&#xb2;" horiz-adv-x="327" 
d="M51 819v123q0 36 16.5 66.5t39.5 51.5t46 40.5t39.5 42.5t16.5 49v137q0 21 -14 35t-35 14q-19 0 -31 -13t-12 -34v-67h-68v67q0 48 31.5 75.5t79.5 27.5q49 0 82.5 -28.5t33.5 -76.5v-137q0 -36 -16 -66.5t-39.5 -51.5t-46.5 -40.5t-39 -42.5t-16 -49v-68h157v-55h-225z
" />
    <glyph glyph-name="threesuperior" unicode="&#xb3;" horiz-adv-x="325" 
d="M164 870q19 0 32 13.5t13 36.5v139q0 23 -13 36t-32 13h-47v55h43q21 0 35 13t14 36v117q0 21 -14 35t-35 14q-19 0 -31 -13t-12 -34v-67h-68v67q0 48 31.5 75.5t79.5 27.5q49 0 82.5 -28.5t33.5 -76.5v-100q0 -69 -61 -92q61 -23 61 -95v-122q0 -48 -32.5 -76.5
t-79.5 -28.5q-48 0 -80.5 27.5t-32.5 75.5v67h68v-67q0 -21 13 -34.5t32 -13.5z" />
    <glyph glyph-name="acute" unicode="&#xb4;" horiz-adv-x="548" 
d="M182 1155l-69 72l252 211l69 -70z" />
    <glyph glyph-name="mu" unicode="&#xb5;" horiz-adv-x="673" 
d="M80 -307v1331h117v-829q0 -49 28.5 -77t71.5 -28q71 0 117.5 46t46.5 124v764h117v-1024h-117v94q-53 -96 -166 -96q-65 0 -98 39v-344h-117z" />
    <glyph glyph-name="paragraph" unicode="&#xb6;" horiz-adv-x="911" 
d="M565 1434v-1639h-116v793h-119q-107 0 -178.5 62t-71.5 171v377q0 109 71.5 172.5t178.5 63.5h235zM815 1434v-1639h-117v1639h117z" />
    <glyph glyph-name="periodcentered" unicode="&#xb7;" horiz-adv-x="299" 
d="M92 442v191h113v-191h-113z" />
    <glyph glyph-name="cedilla" unicode="&#xb8;" horiz-adv-x="274" 
d="M92 -274v284h90v-284h-90z" />
    <glyph glyph-name="onesuperior" unicode="&#xb9;" horiz-adv-x="243" 
d="M37 1315v63l82 52h67v-611h-67v547z" />
    <glyph glyph-name="ordmasculine" unicode="&#xba;" horiz-adv-x="368" 
d="M184 1440q54 0 91.5 -32.5t37.5 -86.5v-287q0 -54 -37 -85t-92 -31q-56 0 -91.5 31t-35.5 85v287q0 54 36 86.5t91 32.5zM127 1321v-287q0 -27 16.5 -43t40.5 -16t41 16t17 43v287q0 27 -17 43t-41 16t-40.5 -16t-16.5 -43z" />
    <glyph glyph-name="guillemotright" unicode="&#xbb;" horiz-adv-x="616" 
d="M49 154l148 358l-148 358h123l143 -358l-143 -358h-123zM287 154l147 358l-147 358h123l143 -358l-143 -358h-123z" />
    <glyph glyph-name="onequarter" unicode="&#xbc;" horiz-adv-x="1026" 
d="M182 0l568 1434h94l-568 -1434h-94zM698 119v55l125 436h105v-436h20v-55h-20v-119h-68v119h-162zM92 1315v63l80 52h68v-611h-68v547zM760 174h100v365z" />
    <glyph glyph-name="onehalf" unicode="&#xbd;" horiz-adv-x="1026" 
d="M182 0l568 1434h94l-568 -1434h-94zM92 1315v63l80 52h68v-611h-68v547zM694 0v123q0 36 16 66.5t39 51.5t46 40.5t39 42.5t16 49v137q0 22 -13.5 35.5t-33.5 13.5q-19 0 -32 -13t-13 -34v-68h-68v68q0 48 32.5 75t80.5 27q49 0 82 -28t33 -76v-137q0 -36 -16 -66.5
t-39 -51.5t-46 -40.5t-39 -42.5t-16 -49v-68h156v-55h-224z" />
    <glyph glyph-name="threequarters" unicode="&#xbe;" horiz-adv-x="1026" 
d="M182 0l568 1434h94l-568 -1434h-94zM698 119v55l125 436h105v-436h20v-55h-20v-119h-68v119h-162zM217 870q19 0 33 14t14 36v139q0 22 -13.5 35.5t-33.5 13.5h-47v55h45q20 0 33.5 13.5t13.5 35.5v117q0 21 -14 35t-33 14t-32 -13t-13 -34v-67h-68v67q0 48 32.5 75.5
t80.5 27.5t81.5 -28.5t33.5 -76.5v-100q0 -33 -17 -57t-45 -35q29 -11 46.5 -36t17.5 -59v-122q0 -48 -33 -76.5t-82 -28.5q-48 0 -80.5 27.5t-32.5 75.5v67h68v-67q0 -21 13 -34.5t32 -13.5zM760 174h100v365z" />
    <glyph glyph-name="questiondown" unicode="&#xbf;" horiz-adv-x="649" 
d="M268 655h117v-172q0 -82 -20 -135t-48 -79.5t-56 -50.5t-48 -67.5t-20 -111.5v-219q0 -63 38 -100t95 -37q54 0 90.5 34.5t36.5 94.5v188h116v-188q0 -106 -69 -167t-174 -61q-107 0 -178.5 63.5t-71.5 172.5v219q0 82 20 135t48 79.5t56 50.5t48 67.5t20 111.5v172z
M268 840v192h117v-192h-117z" />
    <glyph glyph-name="Agrave" unicode="&#xc0;" horiz-adv-x="645" 
d="M33 0l213 1434h153l213 -1434h-118l-56 385h-233l-53 -385h-119zM213 483h219l-106 809h-4zM414 1565l-252 211l69 69l252 -209z" />
    <glyph glyph-name="Aacute" unicode="&#xc1;" horiz-adv-x="645" 
d="M33 0l213 1434h153l213 -1434h-118l-56 385h-233l-53 -385h-119zM213 483h219l-106 809h-4zM231 1565l-69 71l252 211l69 -69z" />
    <glyph glyph-name="Acircumflex" unicode="&#xc2;" horiz-adv-x="645" 
d="M33 0l213 1434h153l213 -1434h-118l-56 385h-233l-53 -385h-119zM213 483h219l-106 809h-4zM152 1569l-68 69l238 189l237 -189l-67 -69l-170 135z" />
    <glyph glyph-name="Atilde" unicode="&#xc3;" horiz-adv-x="645" 
d="M33 0l213 1434h153l213 -1434h-118l-56 385h-233l-53 -385h-119zM213 483h219l-106 809h-4zM76 1585q0 72 42 114t107 42q37 0 65 -13.5t42 -29.5t36 -29.5t48 -13.5q32 0 54 20.5t22 55.5h77q0 -71 -42.5 -113.5t-106.5 -42.5q-37 0 -65 13.5t-43 29.5t-36.5 29.5
t-46.5 13.5q-32 0 -53.5 -20.5t-21.5 -55.5h-78z" />
    <glyph glyph-name="Adieresis" unicode="&#xc4;" horiz-adv-x="645" 
d="M33 0l213 1434h153l213 -1434h-118l-56 385h-233l-53 -385h-119zM213 483h219l-106 809h-4zM125 1620v190h102v-190h-102zM416 1620v190h102v-190h-102z" />
    <glyph glyph-name="Aring" unicode="&#xc5;" horiz-adv-x="645" 
d="M33 0l213 1434h153l213 -1434h-118l-56 385h-233l-53 -385h-119zM213 483h219l-106 809h-4zM322 1868q71 0 119 -45.5t48 -122.5q0 -79 -47.5 -122.5t-119.5 -43.5t-119 43.5t-47 120.5q0 79 47 124.5t119 45.5zM233 1698q0 -41 26 -66.5t63 -25.5q38 0 64 25t26 67
q0 44 -26 70t-64 26q-37 0 -63 -26t-26 -70z" />
    <glyph glyph-name="AE" unicode="&#xc6;" horiz-adv-x="876" 
d="M797 0h-402v385h-172l-76 -385h-114l280 1434h484v-99h-285v-551h244v-98h-244v-588h285v-98zM238 483h157v822h-4z" />
    <glyph glyph-name="Ccedilla" unicode="&#xc7;" horiz-adv-x="645" 
d="M276 -274v270q-87 11 -141.5 70t-54.5 153v993q0 106 69.5 168t172.5 62t173 -62.5t70 -167.5v-188h-116v188q0 60 -36.5 95.5t-90.5 35.5t-89.5 -35.5t-35.5 -95.5v-993q0 -60 35.5 -94.5t89.5 -34.5t90.5 34.5t36.5 94.5v191h116v-191q0 -94 -55.5 -153t-142.5 -70
v-270h-91z" />
    <glyph glyph-name="Egrave" unicode="&#xc8;" horiz-adv-x="630" 
d="M96 0v1434h455v-99h-338v-551h297v-98h-297v-588h338v-98h-455zM406 1565l-252 211l69 69l252 -209z" />
    <glyph glyph-name="Eacute" unicode="&#xc9;" horiz-adv-x="630" 
d="M96 0v1434h455v-99h-338v-551h297v-98h-297v-588h338v-98h-455zM225 1565l-69 71l252 211l69 -69z" />
    <glyph glyph-name="Ecircumflex" unicode="&#xca;" horiz-adv-x="630" 
d="M96 0v1434h455v-99h-338v-551h297v-98h-297v-588h338v-98h-455zM145 1569l-67 69l237 189l238 -189l-68 -69l-170 135z" />
    <glyph glyph-name="Edieresis" unicode="&#xcb;" horiz-adv-x="630" 
d="M96 0v1434h455v-99h-338v-551h297v-98h-297v-588h338v-98h-455zM119 1620v190h102v-190h-102zM410 1620v190h102v-190h-102z" />
    <glyph glyph-name="Igrave" unicode="&#xcc;" horiz-adv-x="309" 
d="M96 0v1434h117v-1434h-117zM246 1565l-252 211l69 69l252 -209z" />
    <glyph glyph-name="Iacute" unicode="&#xcd;" horiz-adv-x="309" 
d="M96 0v1434h117v-1434h-117zM63 1565l-69 71l252 211l69 -69z" />
    <glyph glyph-name="Icircumflex" unicode="&#xce;" horiz-adv-x="309" 
d="M96 0v1434h117v-1434h-117zM-16 1569l-68 69l238 189l237 -189l-67 -69l-170 135z" />
    <glyph glyph-name="Idieresis" unicode="&#xcf;" horiz-adv-x="309" 
d="M96 0v1434h117v-1434h-117zM-41 1620v190h102v-190h-102zM250 1620v190h102v-190h-102z" />
    <glyph glyph-name="Eth" unicode="&#xd0;" horiz-adv-x="667" 
d="M43 686v98h53v650h242q107 0 178.5 -63.5t71.5 -172.5v-965q0 -109 -71.5 -171t-178.5 -62h-242v686h-53zM213 98h125q57 0 95 36t38 99v965q0 63 -38 100t-95 37h-125v-551h137v-98h-137v-588z" />
    <glyph glyph-name="Ntilde" unicode="&#xd1;" horiz-adv-x="694" 
d="M96 0v1434h107l278 -1080h4v1080h113v-1434h-106l-279 1079h-4v-1079h-113zM100 1585q0 72 42.5 114t107.5 42q37 0 65 -13.5t41.5 -29.5t35.5 -29.5t48 -13.5q32 0 54 20.5t22 55.5h78q0 -71 -43 -113.5t-107 -42.5q-37 0 -65 13.5t-42.5 29.5t-36 29.5t-46.5 13.5
q-32 0 -54 -20.5t-22 -55.5h-78z" />
    <glyph glyph-name="Ograve" unicode="&#xd2;" 
d="M328 1442q107 0 178.5 -63.5t71.5 -172.5v-981q0 -109 -71.5 -171t-178.5 -62t-177.5 62t-70.5 171v981q0 109 70.5 172.5t177.5 63.5zM197 1206v-981q0 -62 37.5 -98.5t93.5 -36.5q57 0 95 36t38 99v981q0 63 -38 100t-95 37q-56 0 -93.5 -37t-37.5 -100zM420 1565
l-252 211l70 69l251 -209z" />
    <glyph glyph-name="Oacute" unicode="&#xd3;" 
d="M328 1442q107 0 178.5 -63.5t71.5 -172.5v-981q0 -109 -71.5 -171t-178.5 -62t-177.5 62t-70.5 171v981q0 109 70.5 172.5t177.5 63.5zM197 1206v-981q0 -62 37.5 -98.5t93.5 -36.5q57 0 95 36t38 99v981q0 63 -38 100t-95 37q-56 0 -93.5 -37t-37.5 -100zM238 1565
l-70 71l252 211l69 -69z" />
    <glyph glyph-name="Ocircumflex" unicode="&#xd4;" 
d="M328 1442q107 0 178.5 -63.5t71.5 -172.5v-981q0 -109 -71.5 -171t-178.5 -62t-177.5 62t-70.5 171v981q0 109 70.5 172.5t177.5 63.5zM197 1206v-981q0 -62 37.5 -98.5t93.5 -36.5q57 0 95 36t38 99v981q0 63 -38 100t-95 37q-56 0 -93.5 -37t-37.5 -100zM160 1569
l-68 69l238 189l237 -189l-67 -69l-170 135z" />
    <glyph glyph-name="Otilde" unicode="&#xd5;" 
d="M328 1442q107 0 178.5 -63.5t71.5 -172.5v-981q0 -109 -71.5 -171t-178.5 -62t-177.5 62t-70.5 171v981q0 109 70.5 172.5t177.5 63.5zM197 1206v-981q0 -62 37.5 -98.5t93.5 -36.5q57 0 95 36t38 99v981q0 63 -38 100t-95 37q-56 0 -93.5 -37t-37.5 -100zM82 1585
q0 72 42 114t107 42q37 0 65 -13.5t42 -29.5t36 -29.5t48 -13.5q32 0 54 20.5t22 55.5h77q0 -71 -42.5 -113.5t-106.5 -42.5q-37 0 -65 13.5t-42.5 29.5t-36 29.5t-46.5 13.5q-32 0 -54 -20.5t-22 -55.5h-78z" />
    <glyph glyph-name="Odieresis" unicode="&#xd6;" 
d="M328 1442q107 0 178.5 -63.5t71.5 -172.5v-981q0 -109 -71.5 -171t-178.5 -62t-177.5 62t-70.5 171v981q0 109 70.5 172.5t177.5 63.5zM197 1206v-981q0 -62 37.5 -98.5t93.5 -36.5q57 0 95 36t38 99v981q0 63 -38 100t-95 37q-56 0 -93.5 -37t-37.5 -100zM133 1620v190
h103v-190h-103zM424 1620v190h102v-190h-102z" />
    <glyph glyph-name="multiply" unicode="&#xd7;" horiz-adv-x="692" 
d="M59 854l70 70l215 -217l219 217l68 -68l-217 -219l219 -219l-70 -68l-219 217l-217 -217l-70 70l219 217z" />
    <glyph glyph-name="Oslash" unicode="&#xd8;" 
d="M63 0l37 119q-20 44 -20 106v981q0 109 70.5 172.5t177.5 63.5q104 0 176 -62l16 54h76l-41 -125q23 -48 23 -103v-981q0 -109 -71.5 -171t-178.5 -62q-106 0 -174 59l-17 -51h-74zM197 1206v-788l260 819q-9 50 -44.5 78t-84.5 28q-56 0 -93.5 -37t-37.5 -100zM328 90
q57 0 95 36t38 99v785l-262 -815q9 -50 44.5 -77.5t84.5 -27.5z" />
    <glyph glyph-name="Ugrave" unicode="&#xd9;" 
d="M80 1434h117v-1209q0 -62 37.5 -98.5t93.5 -36.5q57 0 95 36t38 99v1209h117v-1209q0 -109 -71.5 -171t-178.5 -62t-177.5 62t-70.5 171v1209zM420 1565l-252 211l70 69l251 -209z" />
    <glyph glyph-name="Uacute" unicode="&#xda;" 
d="M80 1434h117v-1209q0 -62 37.5 -98.5t93.5 -36.5q57 0 95 36t38 99v1209h117v-1209q0 -109 -71.5 -171t-178.5 -62t-177.5 62t-70.5 171v1209zM238 1565l-70 71l252 211l69 -69z" />
    <glyph glyph-name="Ucircumflex" unicode="&#xdb;" 
d="M80 1434h117v-1209q0 -62 37.5 -98.5t93.5 -36.5q57 0 95 36t38 99v1209h117v-1209q0 -109 -71.5 -171t-178.5 -62t-177.5 62t-70.5 171v1209zM160 1569l-68 69l238 189l237 -189l-67 -69l-170 135z" />
    <glyph glyph-name="Udieresis" unicode="&#xdc;" 
d="M80 1434h117v-1209q0 -62 37.5 -98.5t93.5 -36.5q57 0 95 36t38 99v1209h117v-1209q0 -109 -71.5 -171t-178.5 -62t-177.5 62t-70.5 171v1209zM133 1620v190h103v-190h-103zM424 1620v190h102v-190h-102z" />
    <glyph glyph-name="Yacute" unicode="&#xdd;" horiz-adv-x="645" 
d="M262 0v477l-229 957h117l169 -764h5l172 764h116l-233 -957v-477h-117zM231 1565l-69 71l252 211l69 -69z" />
    <glyph glyph-name="Thorn" unicode="&#xde;" horiz-adv-x="628" 
d="M96 0v1434h117v-250h86q107 0 178.5 -62.5t71.5 -171.5v-465q0 -109 -71.5 -172t-178.5 -63h-86v-250h-117zM213 348h86q57 0 95 37t38 100v465q0 63 -38 99t-95 36h-86v-737z" />
    <glyph glyph-name="germandbls" unicode="&#xdf;" horiz-adv-x="866" 
d="M301 326h117v-107q0 -60 35.5 -94.5t89.5 -34.5t90.5 34.5t36.5 94.5v123q0 55 -38 87t-92 49t-107.5 37.5t-91.5 69.5t-38 128v102q0 48 17.5 81t42 51.5t49 36.5t42 49.5t17.5 78.5v143q0 64 -39.5 102t-97.5 38q-59 0 -98 -38t-39 -102v-1255h-117v1255
q0 111 72.5 174.5t181.5 63.5q110 0 183 -63t73 -175v-159q0 -43 -12.5 -76t-31.5 -50.5t-41 -35.5t-41 -32.5t-31.5 -41t-12.5 -61.5v-86q0 -41 20 -68.5t52.5 -43t71.5 -28t78 -28.5t71.5 -38.5t52.5 -64.5t20 -100v-123q0 -105 -69.5 -166t-173.5 -61q-105 0 -173.5 60.5
t-68.5 166.5v107z" />
    <glyph glyph-name="agrave" unicode="&#xe0;" 
d="M461 0v106q-34 -55 -93.5 -84.5t-123.5 -29.5q-70 0 -117 45.5t-47 124.5v184q0 106 63 163.5t166 70.5l152 18v201q0 63 -37 99t-94 36t-95 -36t-38 -99v-101h-117v101q0 109 71.5 171t178.5 62t177.5 -62t70.5 -171v-799h-117zM461 500l-131 -17q-60 -8 -96.5 -42
t-36.5 -95v-158q0 -46 27 -72t67 -26q67 0 118.5 47t51.5 123v240zM420 1155l-252 211l70 70l251 -209z" />
    <glyph glyph-name="aacute" unicode="&#xe1;" 
d="M461 0v106q-34 -55 -93.5 -84.5t-123.5 -29.5q-70 0 -117 45.5t-47 124.5v184q0 106 63 163.5t166 70.5l152 18v201q0 63 -37 99t-94 36t-95 -36t-38 -99v-101h-117v101q0 109 71.5 171t178.5 62t177.5 -62t70.5 -171v-799h-117zM461 500l-131 -17q-60 -8 -96.5 -42
t-36.5 -95v-158q0 -46 27 -72t67 -26q67 0 118.5 47t51.5 123v240zM238 1155l-70 72l252 211l69 -70z" />
    <glyph glyph-name="acircumflex" unicode="&#xe2;" 
d="M461 0v106q-34 -55 -93.5 -84.5t-123.5 -29.5q-70 0 -117 45.5t-47 124.5v184q0 106 63 163.5t166 70.5l152 18v201q0 63 -37 99t-94 36t-95 -36t-38 -99v-101h-117v101q0 109 71.5 171t178.5 62t177.5 -62t70.5 -171v-799h-117zM461 500l-131 -17q-60 -8 -96.5 -42
t-36.5 -95v-158q0 -46 27 -72t67 -26q67 0 118.5 47t51.5 123v240zM160 1159l-68 70l238 188l237 -188l-67 -70l-170 135z" />
    <glyph glyph-name="atilde" unicode="&#xe3;" 
d="M461 0v106q-34 -55 -93.5 -84.5t-123.5 -29.5q-70 0 -117 45.5t-47 124.5v184q0 106 63 163.5t166 70.5l152 18v201q0 63 -37 99t-94 36t-95 -36t-38 -99v-101h-117v101q0 109 71.5 171t178.5 62t177.5 -62t70.5 -171v-799h-117zM461 500l-131 -17q-60 -8 -96.5 -42
t-36.5 -95v-158q0 -46 27 -72t67 -26q67 0 118.5 47t51.5 123v240zM82 1176q0 72 42 113.5t107 41.5q37 0 65 -13.5t42 -29.5t36 -29.5t48 -13.5q32 0 54 20.5t22 55.5h77q0 -71 -42.5 -113.5t-106.5 -42.5q-37 0 -65 13.5t-42.5 29.5t-36 29.5t-46.5 13.5q-32 0 -54 -20
t-22 -55h-78z" />
    <glyph glyph-name="adieresis" unicode="&#xe4;" 
d="M461 0v106q-34 -55 -93.5 -84.5t-123.5 -29.5q-70 0 -117 45.5t-47 124.5v184q0 106 63 163.5t166 70.5l152 18v201q0 63 -37 99t-94 36t-95 -36t-38 -99v-101h-117v101q0 109 71.5 171t178.5 62t177.5 -62t70.5 -171v-799h-117zM461 500l-131 -17q-60 -8 -96.5 -42
t-36.5 -95v-158q0 -46 27 -72t67 -26q67 0 118.5 47t51.5 123v240zM133 1210v191h103v-191h-103zM424 1210v191h102v-191h-102z" />
    <glyph glyph-name="aring" unicode="&#xe5;" 
d="M461 0v106q-34 -55 -93.5 -84.5t-123.5 -29.5q-70 0 -117 45.5t-47 124.5v184q0 106 63 163.5t166 70.5l152 18v201q0 63 -37 99t-94 36t-95 -36t-38 -99v-101h-117v101q0 109 71.5 171t178.5 62t177.5 -62t70.5 -171v-799h-117zM461 500l-131 -17q-60 -8 -96.5 -42
t-36.5 -95v-158q0 -46 27 -72t67 -26q67 0 118.5 47t51.5 123v240zM328 1458q72 0 120 -45.5t48 -122.5q0 -79 -48 -122.5t-120 -43.5t-119 43.5t-47 120.5q0 79 47 124.5t119 45.5zM240 1288q0 -41 25.5 -66.5t62.5 -25.5q38 0 64 25t26 67q0 44 -26 70t-64 26
q-37 0 -62.5 -26t-25.5 -70z" />
    <glyph glyph-name="ae" unicode="&#xe6;" horiz-adv-x="1040" 
d="M961 481h-383v-256q0 -63 38 -99t95 -36q56 0 94.5 36.5t38.5 98.5v101h117v-101q0 -109 -71.5 -171t-178.5 -62q-78 0 -138.5 35t-87.5 98q-85 -133 -241 -133q-70 0 -117 45.5t-47 124.5v157q0 110 64.5 174t164.5 72l152 13v221q0 63 -37 99t-94 36t-95 -36t-38 -99
v-101h-117v101q0 109 71.5 171t178.5 62q63 0 113.5 -28t76.5 -80q26 52 77 80t114 28q107 0 178.5 -63t71.5 -172v-316zM461 260v217l-131 -10q-57 -5 -95 -45t-38 -103v-131q0 -46 27 -72t67 -26q67 0 118.5 47t51.5 123zM578 797v-217h266v217q0 67 -37.5 102t-95.5 35
q-59 0 -96 -35t-37 -102z" />
    <glyph glyph-name="ccedilla" unicode="&#xe7;" horiz-adv-x="645" 
d="M276 -274v270q-87 11 -141.5 70t-54.5 153v584q0 105 69.5 167t172.5 62q104 0 173.5 -62t69.5 -167v-105h-116v105q0 60 -36.5 95.5t-90.5 35.5t-89.5 -35.5t-35.5 -95.5v-584q0 -60 35.5 -94.5t89.5 -34.5t90.5 34.5t36.5 94.5v107h116v-107q0 -94 -55.5 -153
t-142.5 -70v-270h-91z" />
    <glyph glyph-name="egrave" unicode="&#xe8;" 
d="M578 475h-381v-250q0 -62 37.5 -98.5t93.5 -36.5q57 0 95 36t38 99v101h117v-101q0 -109 -71.5 -171t-178.5 -62t-177.5 62t-70.5 171v572q0 109 70.5 172t177.5 63t178.5 -63t71.5 -172v-322zM197 797v-224h264v224q0 67 -37 102t-96 35q-57 0 -94 -35t-37 -102z
M420 1155l-252 211l70 70l251 -209z" />
    <glyph glyph-name="eacute" unicode="&#xe9;" 
d="M578 475h-381v-250q0 -62 37.5 -98.5t93.5 -36.5q57 0 95 36t38 99v101h117v-101q0 -109 -71.5 -171t-178.5 -62t-177.5 62t-70.5 171v572q0 109 70.5 172t177.5 63t178.5 -63t71.5 -172v-322zM197 797v-224h264v224q0 67 -37 102t-96 35q-57 0 -94 -35t-37 -102z
M238 1155l-70 72l252 211l69 -70z" />
    <glyph glyph-name="ecircumflex" unicode="&#xea;" 
d="M578 475h-381v-250q0 -62 37.5 -98.5t93.5 -36.5q57 0 95 36t38 99v101h117v-101q0 -109 -71.5 -171t-178.5 -62t-177.5 62t-70.5 171v572q0 109 70.5 172t177.5 63t178.5 -63t71.5 -172v-322zM197 797v-224h264v224q0 67 -37 102t-96 35q-57 0 -94 -35t-37 -102z
M160 1159l-68 70l238 188l237 -188l-67 -70l-170 135z" />
    <glyph glyph-name="edieresis" unicode="&#xeb;" 
d="M578 475h-381v-250q0 -62 37.5 -98.5t93.5 -36.5q57 0 95 36t38 99v101h117v-101q0 -109 -71.5 -171t-178.5 -62t-177.5 62t-70.5 171v572q0 109 70.5 172t177.5 63t178.5 -63t71.5 -172v-322zM197 797v-224h264v224q0 67 -37 102t-96 35q-57 0 -94 -35t-37 -102z
M133 1210v191h103v-191h-103zM424 1210v191h102v-191h-102z" />
    <glyph glyph-name="igrave" unicode="&#xec;" horiz-adv-x="309" 
d="M246 1155l-252 211l69 70l252 -209zM96 0v1024h117v-1024h-117z" />
    <glyph glyph-name="iacute" unicode="&#xed;" horiz-adv-x="309" 
d="M63 1155l-69 72l252 211l69 -70zM96 0v1024h117v-1024h-117z" />
    <glyph glyph-name="icircumflex" unicode="&#xee;" horiz-adv-x="309" 
d="M96 0v1024h117v-1024h-117zM-16 1159l-68 70l238 188l237 -188l-67 -70l-170 135z" />
    <glyph glyph-name="idieresis" unicode="&#xef;" horiz-adv-x="309" 
d="M-41 1210v191h102v-191h-102zM250 1210v191h102v-191h-102zM96 0v1024h117v-1024h-117z" />
    <glyph glyph-name="eth" unicode="&#xf0;" 
d="M279 1165l-62 62l105 104q-39 33 -85.5 61t-72.5 40l-27 12l49 49q101 -28 201 -96l98 98l62 -61l-92 -93q123 -119 123 -266v-850q0 -109 -70.5 -171t-177.5 -62t-178.5 62t-71.5 171v631q0 82 49 129t123 47q64 0 119 -29.5t90 -84.5v157q0 103 -78 195zM461 225v539
q0 78 -46.5 124t-117.5 46q-43 0 -71.5 -28.5t-28.5 -76.5v-604q0 -63 38 -99t95 -36t94 36t37 99z" />
    <glyph glyph-name="ntilde" unicode="&#xf1;" horiz-adv-x="673" 
d="M213 764v-764h-117v1024h117v-106q37 55 91.5 84.5t119.5 29.5q74 0 123 -47t49 -129v-856h-117v829q0 48 -29 76.5t-71 28.5q-71 0 -118.5 -46.5t-47.5 -123.5zM90 1176q0 72 42.5 113.5t107.5 41.5q37 0 65 -13.5t41.5 -29.5t35.5 -29.5t48 -13.5q32 0 54 20.5t22 55.5
h78q0 -71 -43 -113.5t-107 -42.5q-37 0 -65 13.5t-42.5 29.5t-36 29.5t-46.5 13.5q-32 0 -54 -20t-22 -55h-78z" />
    <glyph glyph-name="ograve" unicode="&#xf2;" 
d="M328 1032q107 0 178.5 -63t71.5 -172v-572q0 -109 -71.5 -171t-178.5 -62t-177.5 62t-70.5 171v572q0 109 70.5 172t177.5 63zM197 797v-572q0 -62 37.5 -98.5t93.5 -36.5q57 0 95 36t38 99v572q0 63 -38 100t-95 37q-56 0 -93.5 -37t-37.5 -100zM420 1155l-252 211
l70 70l251 -209z" />
    <glyph glyph-name="oacute" unicode="&#xf3;" 
d="M328 1032q107 0 178.5 -63t71.5 -172v-572q0 -109 -71.5 -171t-178.5 -62t-177.5 62t-70.5 171v572q0 109 70.5 172t177.5 63zM197 797v-572q0 -62 37.5 -98.5t93.5 -36.5q57 0 95 36t38 99v572q0 63 -38 100t-95 37q-56 0 -93.5 -37t-37.5 -100zM238 1155l-70 72
l252 211l69 -70z" />
    <glyph glyph-name="ocircumflex" unicode="&#xf4;" 
d="M328 1032q107 0 178.5 -63t71.5 -172v-572q0 -109 -71.5 -171t-178.5 -62t-177.5 62t-70.5 171v572q0 109 70.5 172t177.5 63zM197 797v-572q0 -62 37.5 -98.5t93.5 -36.5q57 0 95 36t38 99v572q0 63 -38 100t-95 37q-56 0 -93.5 -37t-37.5 -100zM160 1159l-68 70
l238 188l237 -188l-67 -70l-170 135z" />
    <glyph glyph-name="otilde" unicode="&#xf5;" 
d="M328 1032q107 0 178.5 -63t71.5 -172v-572q0 -109 -71.5 -171t-178.5 -62t-177.5 62t-70.5 171v572q0 109 70.5 172t177.5 63zM197 797v-572q0 -62 37.5 -98.5t93.5 -36.5q57 0 95 36t38 99v572q0 63 -38 100t-95 37q-56 0 -93.5 -37t-37.5 -100zM82 1176q0 72 42 113.5
t107 41.5q37 0 65 -13.5t42 -29.5t36 -29.5t48 -13.5q32 0 54 20.5t22 55.5h77q0 -71 -42.5 -113.5t-106.5 -42.5q-37 0 -65 13.5t-42.5 29.5t-36 29.5t-46.5 13.5q-32 0 -54 -20t-22 -55h-78z" />
    <glyph glyph-name="odieresis" unicode="&#xf6;" 
d="M328 1032q107 0 178.5 -63t71.5 -172v-572q0 -109 -71.5 -171t-178.5 -62t-177.5 62t-70.5 171v572q0 109 70.5 172t177.5 63zM197 797v-572q0 -62 37.5 -98.5t93.5 -36.5q57 0 95 36t38 99v572q0 63 -38 100t-95 37q-56 0 -93.5 -37t-37.5 -100zM133 1210v191h103v-191
h-103zM424 1210v191h102v-191h-102z" />
    <glyph glyph-name="divide" unicode="&#xf7;" horiz-adv-x="692" 
d="M63 514v96h566v-96h-566zM289 166v190h112v-190h-112zM289 768v190h112v-190h-112z" />
    <glyph glyph-name="oslash" unicode="&#xf8;" 
d="M63 0l46 104q-29 53 -29 121v572q0 109 70.5 172t177.5 63q101 0 170 -57l22 49h76l-49 -109q31 -51 31 -118v-572q0 -109 -71.5 -171t-178.5 -62q-103 0 -170 55l-21 -47h-74zM197 797v-498l249 561q-15 35 -47 54.5t-71 19.5q-56 0 -93.5 -37t-37.5 -100zM328 90
q57 0 95 36t38 99v496l-252 -561q36 -70 119 -70z" />
    <glyph glyph-name="ugrave" unicode="&#xf9;" horiz-adv-x="673" 
d="M461 0v106q-35 -55 -90 -84.5t-119 -29.5q-74 0 -123 47t-49 129v856h117v-829q0 -49 28.5 -77t71.5 -28q71 0 117.5 46t46.5 124v764h117v-1024h-117zM428 1155l-252 211l70 70l252 -209z" />
    <glyph glyph-name="uacute" unicode="&#xfa;" horiz-adv-x="673" 
d="M461 0v106q-35 -55 -90 -84.5t-119 -29.5q-74 0 -123 47t-49 129v856h117v-829q0 -49 28.5 -77t71.5 -28q71 0 117.5 46t46.5 124v764h117v-1024h-117zM246 1155l-70 72l252 211l70 -70z" />
    <glyph glyph-name="ucircumflex" unicode="&#xfb;" horiz-adv-x="673" 
d="M461 0v106q-35 -55 -90 -84.5t-119 -29.5q-74 0 -123 47t-49 129v856h117v-829q0 -49 28.5 -77t71.5 -28q71 0 117.5 46t46.5 124v764h117v-1024h-117zM166 1159l-68 70l238 188l237 -188l-67 -70l-170 135z" />
    <glyph glyph-name="udieresis" unicode="&#xfc;" horiz-adv-x="673" 
d="M461 0v106q-35 -55 -90 -84.5t-119 -29.5q-74 0 -123 47t-49 129v856h117v-829q0 -49 28.5 -77t71.5 -28q71 0 117.5 46t46.5 124v764h117v-1024h-117zM139 1210v191h103v-191h-103zM430 1210v191h102v-191h-102z" />
    <glyph glyph-name="yacute" unicode="&#xfd;" horiz-adv-x="671" 
d="M80 -164h117v-69q0 -63 38 -100.5t95 -37.5t94 37.5t37 100.5v339q-35 -55 -90 -84.5t-119 -29.5q-74 0 -123 47t-49 129v856h117v-829q0 -49 28.5 -77t71.5 -28q71 0 117.5 46t46.5 124v764h117v-1257q0 -109 -70.5 -172.5t-177.5 -63.5t-178.5 63.5t-71.5 172.5v69z
M244 1155l-70 72l252 211l70 -70z" />
    <glyph glyph-name="thorn" unicode="&#xfe;" horiz-adv-x="673" 
d="M96 -410v1895h117v-567q37 55 91.5 84.5t119.5 29.5q74 0 123 -47t49 -129v-631q0 -109 -65.5 -171t-163.5 -62q-90 0 -154 35v-437h-117zM213 129q51 -39 131 -39q58 0 96.5 36.5t38.5 98.5v604q0 48 -29 76.5t-71 28.5q-71 0 -118.5 -46.5t-47.5 -123.5v-635z" />
    <glyph glyph-name="ydieresis" unicode="&#xff;" horiz-adv-x="671" 
d="M80 -164h117v-69q0 -63 38 -100.5t95 -37.5t94 37.5t37 100.5v339q-35 -55 -90 -84.5t-119 -29.5q-74 0 -123 47t-49 129v856h117v-829q0 -49 28.5 -77t71.5 -28q71 0 117.5 46t46.5 124v764h117v-1257q0 -109 -70.5 -172.5t-177.5 -63.5t-178.5 63.5t-71.5 172.5v69z
M139 1210v191h103v-191h-103zM430 1210v191h102v-191h-102z" />
    <glyph glyph-name="Amacron" unicode="&#x100;" horiz-adv-x="645" 
d="M33 0l213 1434h153l213 -1434h-118l-56 385h-233l-53 -385h-119zM213 483h219l-106 809h-4zM125 1642v99h393v-99h-393z" />
    <glyph glyph-name="amacron" unicode="&#x101;" 
d="M461 0v106q-34 -55 -93.5 -84.5t-123.5 -29.5q-70 0 -117 45.5t-47 124.5v184q0 106 63 163.5t166 70.5l152 18v201q0 63 -37 99t-94 36t-95 -36t-38 -99v-101h-117v101q0 109 71.5 171t178.5 62t177.5 -62t70.5 -171v-799h-117zM461 500l-131 -17q-60 -8 -96.5 -42
t-36.5 -95v-158q0 -46 27 -72t67 -26q67 0 118.5 47t51.5 123v240zM131 1233v98h393v-98h-393z" />
    <glyph glyph-name="Abreve" unicode="&#x102;" horiz-adv-x="645" 
d="M33 0l213 1434h153l213 -1434h-118l-56 385h-233l-53 -385h-119zM213 483h219l-106 809h-4zM129 1747h86q0 -52 30.5 -82.5t76.5 -30.5q47 0 78.5 30.5t31.5 82.5h84q0 -86 -55.5 -137t-138.5 -51q-82 0 -137.5 50.5t-55.5 137.5z" />
    <glyph glyph-name="abreve" unicode="&#x103;" 
d="M461 0v106q-34 -55 -93.5 -84.5t-123.5 -29.5q-70 0 -117 45.5t-47 124.5v184q0 106 63 163.5t166 70.5l152 18v201q0 63 -37 99t-94 36t-95 -36t-38 -99v-101h-117v101q0 109 71.5 171t178.5 62t177.5 -62t70.5 -171v-799h-117zM461 500l-131 -17q-60 -8 -96.5 -42
t-36.5 -95v-158q0 -46 27 -72t67 -26q67 0 118.5 47t51.5 123v240zM135 1337h86q0 -52 30.5 -82t76.5 -30q48 0 79 30t31 82h84q0 -86 -55.5 -137t-138.5 -51q-82 0 -137.5 50.5t-55.5 137.5z" />
    <glyph glyph-name="Aogonek" unicode="&#x104;" horiz-adv-x="645" 
d="M494 -70v70l-56 385h-233l-53 -385h-119l213 1434h153l213 -1434h-32v-70q0 -52 30 -86t82 -34v-74q-91 0 -144.5 55.5t-53.5 138.5zM213 483h219l-106 809h-4z" />
    <glyph glyph-name="aogonek" unicode="&#x105;" 
d="M461 -70v176q-34 -55 -93.5 -84.5t-123.5 -29.5q-70 0 -117 45.5t-47 124.5v184q0 106 63 163.5t166 70.5l152 18v201q0 63 -37 99t-94 36t-95 -36t-38 -99v-101h-117v101q0 109 71.5 171t178.5 62t177.5 -62t70.5 -171v-799h-31v-70q0 -52 30 -86t82 -34v-74
q-91 0 -144.5 55.5t-53.5 138.5zM461 500l-131 -17q-60 -8 -96.5 -42t-36.5 -95v-158q0 -46 27 -72t67 -26q67 0 118.5 47t51.5 123v240z" />
    <glyph glyph-name="Cacute" unicode="&#x106;" horiz-adv-x="645" 
d="M197 1212v-993q0 -60 35.5 -94.5t89.5 -34.5t90.5 34.5t36.5 94.5v191h116v-191q0 -105 -69.5 -166t-173.5 -61t-173 61t-69 166v993q0 106 69.5 168t172.5 62t173 -62.5t70 -167.5v-188h-116v188q0 60 -36.5 95.5t-90.5 35.5t-89.5 -35.5t-35.5 -95.5zM231 1565l-69 71
l252 211l69 -69z" />
    <glyph glyph-name="cacute" unicode="&#x107;" horiz-adv-x="645" 
d="M197 803v-584q0 -60 35.5 -94.5t89.5 -34.5t90.5 34.5t36.5 94.5v107h116v-107q0 -105 -69.5 -166t-173.5 -61t-173 61t-69 166v584q0 105 69.5 167t172.5 62q104 0 173.5 -62t69.5 -167v-105h-116v105q0 60 -36.5 95.5t-90.5 35.5t-89.5 -35.5t-35.5 -95.5zM231 1155
l-69 72l252 211l69 -70z" />
    <glyph glyph-name="Ccircumflex" unicode="&#x108;" horiz-adv-x="645" 
d="M197 1212v-993q0 -60 35.5 -94.5t89.5 -34.5t90.5 34.5t36.5 94.5v191h116v-191q0 -105 -69.5 -166t-173.5 -61t-173 61t-69 166v993q0 106 69.5 168t172.5 62t173 -62.5t70 -167.5v-188h-116v188q0 60 -36.5 95.5t-90.5 35.5t-89.5 -35.5t-35.5 -95.5zM152 1569l-68 69
l238 189l237 -189l-67 -69l-170 135z" />
    <glyph glyph-name="ccircumflex" unicode="&#x109;" horiz-adv-x="645" 
d="M197 803v-584q0 -60 35.5 -94.5t89.5 -34.5t90.5 34.5t36.5 94.5v107h116v-107q0 -105 -69.5 -166t-173.5 -61t-173 61t-69 166v584q0 105 69.5 167t172.5 62q104 0 173.5 -62t69.5 -167v-105h-116v105q0 60 -36.5 95.5t-90.5 35.5t-89.5 -35.5t-35.5 -95.5zM152 1159
l-68 70l238 188l237 -188l-67 -70l-170 135z" />
    <glyph glyph-name="Cdotaccent" unicode="&#x10a;" horiz-adv-x="645" 
d="M197 1212v-993q0 -60 35.5 -94.5t89.5 -34.5t90.5 34.5t36.5 94.5v191h116v-191q0 -105 -69.5 -166t-173.5 -61t-173 61t-69 166v993q0 106 69.5 168t172.5 62t173 -62.5t70 -167.5v-188h-116v188q0 60 -36.5 95.5t-90.5 35.5t-89.5 -35.5t-35.5 -95.5zM262 1651v192h117
v-192h-117z" />
    <glyph glyph-name="cdotaccent" unicode="&#x10b;" horiz-adv-x="645" 
d="M197 803v-584q0 -60 35.5 -94.5t89.5 -34.5t90.5 34.5t36.5 94.5v107h116v-107q0 -105 -69.5 -166t-173.5 -61t-173 61t-69 166v584q0 105 69.5 167t172.5 62q104 0 173.5 -62t69.5 -167v-105h-116v105q0 60 -36.5 95.5t-90.5 35.5t-89.5 -35.5t-35.5 -95.5zM262 1241
v193h117v-193h-117z" />
    <glyph glyph-name="Ccaron" unicode="&#x10c;" horiz-adv-x="645" 
d="M197 1212v-993q0 -60 35.5 -94.5t89.5 -34.5t90.5 34.5t36.5 94.5v191h116v-191q0 -105 -69.5 -166t-173.5 -61t-173 61t-69 166v993q0 106 69.5 168t172.5 62t173 -62.5t70 -167.5v-188h-116v188q0 60 -36.5 95.5t-90.5 35.5t-89.5 -35.5t-35.5 -95.5zM322 1569
l-238 188l68 68l170 -135l170 135l67 -68z" />
    <glyph glyph-name="ccaron" unicode="&#x10d;" horiz-adv-x="645" 
d="M197 803v-584q0 -60 35.5 -94.5t89.5 -34.5t90.5 34.5t36.5 94.5v107h116v-107q0 -105 -69.5 -166t-173.5 -61t-173 61t-69 166v584q0 105 69.5 167t172.5 62q104 0 173.5 -62t69.5 -167v-105h-116v105q0 60 -36.5 95.5t-90.5 35.5t-89.5 -35.5t-35.5 -95.5zM322 1159
l-238 189l68 67l170 -135l170 135l67 -67z" />
    <glyph glyph-name="Dcaron" unicode="&#x10e;" horiz-adv-x="667" 
d="M96 0v1434h242q107 0 178.5 -63.5t71.5 -172.5v-965q0 -109 -71.5 -171t-178.5 -62h-242zM213 98h125q57 0 95 36t38 99v965q0 63 -38 100t-95 37h-125v-1237zM334 1569l-238 188l68 68l170 -135l170 135l67 -68z" />
    <glyph glyph-name="dcaron" unicode="&#x10f;" horiz-adv-x="942" 
d="M461 0v106q-35 -55 -90 -84.5t-119 -29.5q-74 0 -123 47t-49 129v631q0 109 65 171t164 62q88 0 152 -35v488h117v-1485h-117zM461 895q-51 39 -131 39q-57 0 -95 -36t-38 -99v-604q0 -49 28.5 -77t71.5 -28q71 0 117.5 46t46.5 124v635zM776 1044h-98q6 15 15.5 40
t25.5 91t16 117v193h113v-193q0 -51 -18 -113t-36 -99z" />
    <glyph glyph-name="Dcroat" unicode="&#x110;" horiz-adv-x="667" 
d="M43 686v98h53v650h242q107 0 178.5 -63.5t71.5 -172.5v-965q0 -109 -71.5 -171t-178.5 -62h-242v686h-53zM213 98h125q57 0 95 36t38 99v965q0 63 -38 100t-95 37h-125v-551h137v-98h-137v-588z" />
    <glyph glyph-name="dcroat" unicode="&#x111;" horiz-adv-x="673" 
d="M170 1221v98h291v166h117v-166h55v-98h-55v-1221h-117v106q-35 -55 -90 -84.5t-119 -29.5q-74 0 -123 47t-49 129v631q0 109 65 171t164 62q88 0 152 -35v224h-291zM461 895q-51 39 -131 39q-57 0 -95 -36t-38 -99v-604q0 -49 28.5 -77t71.5 -28q71 0 117.5 46t46.5 124
v635z" />
    <glyph glyph-name="Emacron" unicode="&#x112;" horiz-adv-x="630" 
d="M96 0v1434h455v-99h-338v-551h297v-98h-297v-588h338v-98h-455zM117 1642v99h393v-99h-393z" />
    <glyph glyph-name="emacron" unicode="&#x113;" 
d="M578 475h-381v-250q0 -62 37.5 -98.5t93.5 -36.5q57 0 95 36t38 99v101h117v-101q0 -109 -71.5 -171t-178.5 -62t-177.5 62t-70.5 171v572q0 109 70.5 172t177.5 63t178.5 -63t71.5 -172v-322zM197 797v-224h264v224q0 67 -37 102t-96 35q-57 0 -94 -35t-37 -102z
M131 1233v98h393v-98h-393z" />
    <glyph glyph-name="Ebreve" unicode="&#x114;" horiz-adv-x="630" 
d="M96 0v1434h455v-99h-338v-551h297v-98h-297v-588h338v-98h-455zM121 1747h86q0 -52 30 -82.5t76 -30.5q48 0 79.5 30.5t31.5 82.5h84q0 -86 -56 -137t-139 -51q-82 0 -137 50.5t-55 137.5z" />
    <glyph glyph-name="ebreve" unicode="&#x115;" 
d="M578 475h-381v-250q0 -62 37.5 -98.5t93.5 -36.5q57 0 95 36t38 99v101h117v-101q0 -109 -71.5 -171t-178.5 -62t-177.5 62t-70.5 171v572q0 109 70.5 172t177.5 63t178.5 -63t71.5 -172v-322zM197 797v-224h264v224q0 67 -37 102t-96 35q-57 0 -94 -35t-37 -102z
M135 1337h86q0 -52 30.5 -82t76.5 -30q48 0 79 30t31 82h84q0 -86 -55.5 -137t-138.5 -51q-82 0 -137.5 50.5t-55.5 137.5z" />
    <glyph glyph-name="Edotaccent" unicode="&#x116;" horiz-adv-x="630" 
d="M96 0v1434h455v-99h-338v-551h297v-98h-297v-588h338v-98h-455zM256 1651v192h117v-192h-117z" />
    <glyph glyph-name="edotaccent" unicode="&#x117;" 
d="M578 475h-381v-250q0 -62 37.5 -98.5t93.5 -36.5q57 0 95 36t38 99v101h117v-101q0 -109 -71.5 -171t-178.5 -62t-177.5 62t-70.5 171v572q0 109 70.5 172t177.5 63t178.5 -63t71.5 -172v-322zM197 797v-224h264v224q0 67 -37 102t-96 35q-57 0 -94 -35t-37 -102z
M268 1241v193h117v-193h-117z" />
    <glyph glyph-name="Eogonek" unicode="&#x118;" horiz-adv-x="630" 
d="M96 0v1434h455v-99h-338v-551h297v-98h-297v-588h338v-98h-113v-70q0 -51 30.5 -85.5t82.5 -34.5v-74q-91 0 -145 56t-54 138v70h-256z" />
    <glyph glyph-name="eogonek" unicode="&#x119;" 
d="M313 -70v62q-102 5 -167.5 66.5t-65.5 166.5v572q0 109 70.5 172t177.5 63t178.5 -63t71.5 -172v-322h-381v-250q0 -62 37.5 -98.5t93.5 -36.5q57 0 95 36t38 99v101h117v-101q0 -89 -49.5 -147t-129.5 -78v-70q0 -51 30.5 -85.5t82.5 -34.5v-74q-91 0 -145 56t-54 138z
M197 797v-224h264v224q0 67 -37 102t-96 35q-57 0 -94 -35t-37 -102z" />
    <glyph glyph-name="Ecaron" unicode="&#x11a;" horiz-adv-x="630" 
d="M96 0v1434h455v-99h-338v-551h297v-98h-297v-588h338v-98h-455zM315 1569l-237 188l67 68l170 -135l170 135l68 -68z" />
    <glyph glyph-name="ecaron" unicode="&#x11b;" 
d="M578 475h-381v-250q0 -62 37.5 -98.5t93.5 -36.5q57 0 95 36t38 99v101h117v-101q0 -109 -71.5 -171t-178.5 -62t-177.5 62t-70.5 171v572q0 109 70.5 172t177.5 63t178.5 -63t71.5 -172v-322zM197 797v-224h264v224q0 67 -37 102t-96 35q-57 0 -94 -35t-37 -102z
M330 1159l-238 189l68 67l170 -135l170 135l67 -67z" />
    <glyph glyph-name="Gcircumflex" unicode="&#x11c;" horiz-adv-x="645" 
d="M324 670v98h241v-549q0 -105 -69.5 -166t-173.5 -61t-173 61t-69 166v993q0 106 69.5 168t172.5 62t173 -62.5t70 -167.5v-188h-116v188q0 60 -36.5 95.5t-90.5 35.5t-89.5 -35.5t-35.5 -95.5v-993q0 -60 35.5 -94.5t89.5 -34.5t90.5 34.5t36.5 94.5v451h-125zM152 1569
l-68 69l238 189l237 -189l-67 -69l-170 135z" />
    <glyph glyph-name="gcircumflex" unicode="&#x11d;" 
d="M80 -164h117v-69q0 -63 38 -100.5t95 -37.5t94 37.5t37 100.5v339q-35 -55 -90 -84.5t-119 -29.5q-74 0 -123 47t-49 129v631q0 109 71.5 171t178.5 62q70 0 132 -19t89 -38l27 -19v-1189q0 -109 -70.5 -172.5t-177.5 -63.5t-178.5 63.5t-71.5 172.5v69zM461 895
q-51 39 -131 39q-57 0 -95 -36t-38 -99v-604q0 -49 28.5 -77t71.5 -28q71 0 117.5 46t46.5 124v635zM160 1159l-68 70l238 188l237 -188l-67 -70l-170 135z" />
    <glyph glyph-name="Gbreve" unicode="&#x11e;" horiz-adv-x="645" 
d="M324 670v98h241v-549q0 -105 -69.5 -166t-173.5 -61t-173 61t-69 166v993q0 106 69.5 168t172.5 62t173 -62.5t70 -167.5v-188h-116v188q0 60 -36.5 95.5t-90.5 35.5t-89.5 -35.5t-35.5 -95.5v-993q0 -60 35.5 -94.5t89.5 -34.5t90.5 34.5t36.5 94.5v451h-125zM129 1747
h86q0 -52 30.5 -82.5t76.5 -30.5q47 0 78.5 30.5t31.5 82.5h84q0 -86 -55.5 -137t-138.5 -51q-82 0 -137.5 50.5t-55.5 137.5z" />
    <glyph glyph-name="gbreve" unicode="&#x11f;" 
d="M80 -164h117v-69q0 -63 38 -100.5t95 -37.5t94 37.5t37 100.5v339q-35 -55 -90 -84.5t-119 -29.5q-74 0 -123 47t-49 129v631q0 109 71.5 171t178.5 62q70 0 132 -19t89 -38l27 -19v-1189q0 -109 -70.5 -172.5t-177.5 -63.5t-178.5 63.5t-71.5 172.5v69zM461 895
q-51 39 -131 39q-57 0 -95 -36t-38 -99v-604q0 -49 28.5 -77t71.5 -28q71 0 117.5 46t46.5 124v635zM135 1337h86q0 -52 30.5 -82t76.5 -30q48 0 79 30t31 82h84q0 -86 -55.5 -137t-138.5 -51q-82 0 -137.5 50.5t-55.5 137.5z" />
    <glyph glyph-name="Gdotaccent" unicode="&#x120;" horiz-adv-x="645" 
d="M324 670v98h241v-549q0 -105 -69.5 -166t-173.5 -61t-173 61t-69 166v993q0 106 69.5 168t172.5 62t173 -62.5t70 -167.5v-188h-116v188q0 60 -36.5 95.5t-90.5 35.5t-89.5 -35.5t-35.5 -95.5v-993q0 -60 35.5 -94.5t89.5 -34.5t90.5 34.5t36.5 94.5v451h-125zM262 1651
v192h117v-192h-117z" />
    <glyph glyph-name="gdotaccent" unicode="&#x121;" 
d="M80 -164h117v-69q0 -63 38 -100.5t95 -37.5t94 37.5t37 100.5v339q-35 -55 -90 -84.5t-119 -29.5q-74 0 -123 47t-49 129v631q0 109 71.5 171t178.5 62q70 0 132 -19t89 -38l27 -19v-1189q0 -109 -70.5 -172.5t-177.5 -63.5t-178.5 63.5t-71.5 172.5v69zM461 895
q-51 39 -131 39q-57 0 -95 -36t-38 -99v-604q0 -49 28.5 -77t71.5 -28q71 0 117.5 46t46.5 124v635zM268 1241v193h117v-193h-117z" />
    <glyph glyph-name="Gcommaaccent" unicode="&#x122;" horiz-adv-x="645" 
d="M324 670v98h241v-549q0 -105 -69.5 -166t-173.5 -61t-173 61t-69 166v993q0 106 69.5 168t172.5 62t173 -62.5t70 -167.5v-188h-116v188q0 60 -36.5 95.5t-90.5 35.5t-89.5 -35.5t-35.5 -95.5v-993q0 -60 35.5 -94.5t89.5 -34.5t90.5 34.5t36.5 94.5v451h-125zM391 -205
q0 -79 -53 -209h-86q41 126 41 209v144h98v-144z" />
    <glyph glyph-name="gcommaaccent" unicode="&#x123;" 
d="M80 -164h117v-69q0 -63 38 -100.5t95 -37.5t94 37.5t37 100.5v339q-35 -55 -90 -84.5t-119 -29.5q-74 0 -123 47t-49 129v631q0 109 71.5 171t178.5 62q70 0 132 -19t89 -38l27 -19v-1189q0 -109 -70.5 -172.5t-177.5 -63.5t-178.5 63.5t-71.5 172.5v69zM461 895
q-51 39 -131 39q-57 0 -95 -36t-38 -99v-604q0 -49 28.5 -77t71.5 -28q71 0 117.5 46t46.5 124v635zM342 1624h96q-6 -15 -15.5 -40.5t-25.5 -91.5t-16 -118v-190h-113v190q0 52 18.5 114.5t37.5 99.5z" />
    <glyph glyph-name="Hcircumflex" unicode="&#x124;" horiz-adv-x="692" 
d="M96 0v1434h117v-650h266v650h117v-1434h-117v686h-266v-686h-117zM174 1569l-68 69l238 189l238 -189l-68 -69l-170 135z" />
    <glyph glyph-name="hcircumflex" unicode="&#x125;" horiz-adv-x="673" 
d="M96 0v1485h117v-567q37 55 91.5 84.5t119.5 29.5q74 0 123 -47t49 -129v-856h-117v829q0 48 -29 76.5t-71 28.5q-71 0 -118.5 -46.5t-47.5 -123.5v-764h-117zM193 1518l-68 69l237 189l238 -189l-68 -69l-170 135z" />
    <glyph glyph-name="Hbar" unicode="&#x126;" horiz-adv-x="692" 
d="M43 1042v99h53v293h117v-293h266v293h117v-293h53v-99h-53v-1042h-117v686h-266v-686h-117v1042h-53zM213 784h266v258h-266v-258z" />
    <glyph glyph-name="hbar" unicode="&#x127;" horiz-adv-x="718" 
d="M47 1200v98h94v187h117v-187h264v-98h-264v-282q37 55 91.5 84.5t119.5 29.5q72 0 121 -47t49 -129v-856h-117v829q0 48 -28.5 76.5t-71.5 28.5q-70 0 -117 -46.5t-47 -123.5v-764h-117v1200h-94z" />
    <glyph glyph-name="Itilde" unicode="&#x128;" horiz-adv-x="309" 
d="M96 0v1434h117v-1434h-117zM-92 1585q0 72 42 114t107 42q37 0 65 -13.5t42 -29.5t36 -29.5t48 -13.5q32 0 54 20.5t22 55.5h77q0 -71 -42.5 -113.5t-106.5 -42.5q-37 0 -65 13.5t-43 29.5t-36.5 29.5t-46.5 13.5q-32 0 -53.5 -20.5t-21.5 -55.5h-78z" />
    <glyph glyph-name="itilde" unicode="&#x129;" horiz-adv-x="309" 
d="M-92 1176q0 72 42 113.5t107 41.5q37 0 65 -13.5t42 -29.5t36 -29.5t48 -13.5q32 0 54 20.5t22 55.5h77q0 -71 -42.5 -113.5t-106.5 -42.5q-37 0 -65 13.5t-43 29.5t-36.5 29.5t-46.5 13.5q-32 0 -53.5 -20t-21.5 -55h-78zM96 0v1024h117v-1024h-117z" />
    <glyph glyph-name="Imacron" unicode="&#x12a;" horiz-adv-x="309" 
d="M96 0v1434h117v-1434h-117zM-43 1642v99h393v-99h-393z" />
    <glyph glyph-name="imacron" unicode="&#x12b;" horiz-adv-x="309" 
d="M-43 1233v98h393v-98h-393zM96 0v1024h117v-1024h-117z" />
    <glyph glyph-name="Ibreve" unicode="&#x12c;" horiz-adv-x="309" 
d="M96 0v1434h117v-1434h-117zM-39 1747h86q0 -52 30.5 -82.5t76.5 -30.5q47 0 78.5 30.5t31.5 82.5h84q0 -86 -55.5 -137t-138.5 -51q-82 0 -137.5 50.5t-55.5 137.5z" />
    <glyph glyph-name="ibreve" unicode="&#x12d;" horiz-adv-x="309" 
d="M-39 1337h86q0 -52 30.5 -82t76.5 -30q48 0 79 30t31 82h84q0 -86 -55.5 -137t-138.5 -51q-82 0 -137.5 50.5t-55.5 137.5zM96 0v1024h117v-1024h-117z" />
    <glyph glyph-name="Iogonek" unicode="&#x12e;" horiz-adv-x="309" 
d="M96 -70v1504h117v-1434h-31v-70q0 -51 30.5 -85.5t82.5 -34.5v-74q-91 0 -145 56t-54 138z" />
    <glyph glyph-name="iogonek" unicode="&#x12f;" horiz-adv-x="309" 
d="M96 0v1024h117v-1024h-117zM96 1241v193h117v-193h-117zM96 -70v70h86v-70q0 -51 30.5 -85.5t82.5 -34.5v-74q-91 0 -145 56t-54 138z" />
    <glyph glyph-name="Idotaccent" unicode="&#x130;" horiz-adv-x="309" 
d="M96 0v1434h117v-1434h-117zM96 1651v192h117v-192h-117z" />
    <glyph glyph-name="dotlessi" unicode="&#x131;" horiz-adv-x="309" 
d="M96 0v1024h117v-1024h-117z" />
    <glyph glyph-name="IJ" unicode="&#x132;" horiz-adv-x="661" 
d="M96 410h117v-189q0 -60 36.5 -95.5t90.5 -35.5t89.5 35.5t35.5 95.5v1213h117v-1213q0 -105 -69.5 -167t-172.5 -62q-104 0 -174 62t-70 167v189zM96 563v871h117v-871h-117z" />
    <glyph glyph-name="ij" unicode="&#x133;" horiz-adv-x="626" 
d="M96 0v1024h117v-1024h-117zM96 1241v193h117v-193h-117zM223 -455v99q35 -15 78 -15q48 0 80.5 30t32.5 81v1284h116v-1284q0 -97 -62.5 -153t-156.5 -56q-55 0 -88 14zM414 1241v193h116v-193h-116z" />
    <glyph glyph-name="Jcircumflex" unicode="&#x134;" horiz-adv-x="645" 
d="M80 410h117v-189q0 -60 36.5 -95.5t90.5 -35.5t89.5 35.5t35.5 95.5v1213h116v-1213q0 -106 -69 -167.5t-172 -61.5q-104 0 -174 62t-70 167v189zM338 1569l-68 69l238 189l237 -189l-67 -69l-170 135z" />
    <glyph glyph-name="jcircumflex" unicode="&#x135;" horiz-adv-x="309" 
d="M-94 -455v99q35 -15 78 -15q48 0 80 30t32 81v1284h117v-1284q0 -97 -62.5 -153t-156.5 -56q-55 0 -88 14zM-16 1159l-68 70l238 188l237 -188l-67 -70l-170 135z" />
    <glyph glyph-name="Kcommaaccent" unicode="&#x136;" horiz-adv-x="655" 
d="M96 0v1434h117v-650h76l203 650h120l-231 -699l240 -735h-123l-207 686h-78v-686h-117zM397 -205q0 -79 -53 -209h-86q41 126 41 209v144h98v-144z" />
    <glyph glyph-name="kcommaaccent" unicode="&#x137;" horiz-adv-x="655" 
d="M96 0v1485h117v-914h96l183 453h122l-219 -500l226 -524h-123l-189 477h-96v-477h-117zM397 -205q0 -79 -53 -209h-86q41 126 41 209v144h98v-144z" />
    <glyph glyph-name="Lacute" unicode="&#x139;" horiz-adv-x="585" 
d="M96 0v1434h117v-1336h328v-98h-445zM203 1565l-70 71l252 211l70 -69z" />
    <glyph glyph-name="lacute" unicode="&#x13a;" horiz-adv-x="309" 
d="M96 0v1485h117v-1485h-117zM63 1513l-69 72l252 211l69 -70z" />
    <glyph glyph-name="Lcommaaccent" unicode="&#x13b;" horiz-adv-x="585" 
d="M96 0v1434h117v-1336h328v-98h-445zM362 -205q0 -79 -53 -209h-86q41 126 41 209v144h98v-144z" />
    <glyph glyph-name="lcommaaccent" unicode="&#x13c;" horiz-adv-x="309" 
d="M96 0v1485h117v-1485h-117zM205 -205q0 -79 -53 -209h-86q40 122 40 209v144h99v-144z" />
    <glyph glyph-name="Lcaron" unicode="&#x13d;" horiz-adv-x="585" 
d="M96 0v1434h117v-1336h328v-98h-445zM154 1569l-238 188l68 68l170 -135l170 135l67 -68z" />
    <glyph glyph-name="lcaron" unicode="&#x13e;" horiz-adv-x="575" 
d="M96 0v1485h117v-1485h-117zM412 1044h-99l16 40t26 91t16 117v193h112v-193q0 -51 -17.5 -113t-35.5 -99z" />
    <glyph glyph-name="Ldot" unicode="&#x13f;" horiz-adv-x="585" 
d="M96 0v1434h117v-1336h328v-98h-445zM438 455v180h107v-180h-107z" />
    <glyph glyph-name="ldot" unicode="&#x140;" horiz-adv-x="561" 
d="M96 0v1485h117v-1485h-117zM354 442v191h113v-191h-113z" />
    <glyph glyph-name="Lslash" unicode="&#x141;" horiz-adv-x="585" 
d="M47 432v123l49 49v830h117v-713l178 178v-123l-178 -178v-500h328v-98h-445v481z" />
    <glyph glyph-name="lslash" unicode="&#x142;" horiz-adv-x="444" 
d="M49 432v123l115 113v817h117v-701l114 115v-123l-114 -114v-662h-117v545z" />
    <glyph glyph-name="Nacute" unicode="&#x143;" horiz-adv-x="694" 
d="M96 0v1434h107l278 -1080h4v1080h113v-1434h-106l-279 1079h-4v-1079h-113zM256 1565l-70 71l252 211l70 -69z" />
    <glyph glyph-name="nacute" unicode="&#x144;" horiz-adv-x="673" 
d="M213 764v-764h-117v1024h117v-106q37 55 91.5 84.5t119.5 29.5q74 0 123 -47t49 -129v-856h-117v829q0 48 -29 76.5t-71 28.5q-71 0 -118.5 -46.5t-47.5 -123.5zM246 1155l-70 72l252 211l70 -70z" />
    <glyph glyph-name="Ncommaaccent" unicode="&#x145;" horiz-adv-x="694" 
d="M96 0v1434h107l278 -1080h4v1080h113v-1434h-106l-279 1079h-4v-1079h-113zM416 -205q0 -77 -54 -209h-86q41 126 41 209v144h99v-144z" />
    <glyph glyph-name="ncommaaccent" unicode="&#x146;" horiz-adv-x="673" 
d="M213 764v-764h-117v1024h117v-106q37 55 91.5 84.5t119.5 29.5q74 0 123 -47t49 -129v-856h-117v829q0 48 -29 76.5t-71 28.5q-71 0 -118.5 -46.5t-47.5 -123.5zM406 -205q0 -77 -54 -209h-86q41 126 41 209v144h99v-144z" />
    <glyph glyph-name="Ncaron" unicode="&#x147;" horiz-adv-x="694" 
d="M96 0v1434h107l278 -1080h4v1080h113v-1434h-106l-279 1079h-4v-1079h-113zM346 1569l-237 188l67 68l170 -135l170 135l68 -68z" />
    <glyph glyph-name="ncaron" unicode="&#x148;" horiz-adv-x="673" 
d="M213 764v-764h-117v1024h117v-106q37 55 91.5 84.5t119.5 29.5q74 0 123 -47t49 -129v-856h-117v829q0 48 -29 76.5t-71 28.5q-71 0 -118.5 -46.5t-47.5 -123.5zM336 1159l-238 189l68 67l170 -135l170 135l67 -67z" />
    <glyph glyph-name="Eng" unicode="&#x14a;" horiz-adv-x="694" 
d="M485 -266v291l-272 1054h-4v-1079h-113v1434h107l278 -1080h4v1080h113v-1700q0 -94 -60 -148.5t-151 -54.5q-93 0 -155 54.5t-62 148.5v106h117v-106q0 -48 29 -76.5t71 -28.5t70 28.5t28 76.5z" />
    <glyph glyph-name="eng" unicode="&#x14b;" 
d="M461 -266v1095q0 48 -29 76.5t-72 28.5q-70 0 -116.5 -46.5t-46.5 -123.5v-764h-117v1024h117v-106q37 55 91.5 84.5t119.5 29.5q72 0 121 -47t49 -129v-1122q0 -94 -61 -148.5t-152 -54.5q-94 0 -156 54.5t-62 148.5v106h117v-106q0 -48 29 -76.5t72 -28.5
q41 0 68.5 28.5t27.5 76.5z" />
    <glyph glyph-name="Omacron" unicode="&#x14c;" 
d="M328 1442q107 0 178.5 -63.5t71.5 -172.5v-981q0 -109 -71.5 -171t-178.5 -62t-177.5 62t-70.5 171v981q0 109 70.5 172.5t177.5 63.5zM197 1206v-981q0 -62 37.5 -98.5t93.5 -36.5q57 0 95 36t38 99v981q0 63 -38 100t-95 37q-56 0 -93.5 -37t-37.5 -100zM131 1642v99
h393v-99h-393z" />
    <glyph glyph-name="omacron" unicode="&#x14d;" 
d="M328 1032q107 0 178.5 -63t71.5 -172v-572q0 -109 -71.5 -171t-178.5 -62t-177.5 62t-70.5 171v572q0 109 70.5 172t177.5 63zM197 797v-572q0 -62 37.5 -98.5t93.5 -36.5q57 0 95 36t38 99v572q0 63 -38 100t-95 37q-56 0 -93.5 -37t-37.5 -100zM131 1233v98h393v-98
h-393z" />
    <glyph glyph-name="Obreve" unicode="&#x14e;" 
d="M328 1442q107 0 178.5 -63.5t71.5 -172.5v-981q0 -109 -71.5 -171t-178.5 -62t-177.5 62t-70.5 171v981q0 109 70.5 172.5t177.5 63.5zM197 1206v-981q0 -62 37.5 -98.5t93.5 -36.5q57 0 95 36t38 99v981q0 63 -38 100t-95 37q-56 0 -93.5 -37t-37.5 -100zM135 1747h86
q0 -52 30.5 -82.5t76.5 -30.5q47 0 78.5 30.5t31.5 82.5h84q0 -86 -55.5 -137t-138.5 -51q-82 0 -137.5 50.5t-55.5 137.5z" />
    <glyph glyph-name="obreve" unicode="&#x14f;" 
d="M328 1032q107 0 178.5 -63t71.5 -172v-572q0 -109 -71.5 -171t-178.5 -62t-177.5 62t-70.5 171v572q0 109 70.5 172t177.5 63zM197 797v-572q0 -62 37.5 -98.5t93.5 -36.5q57 0 95 36t38 99v572q0 63 -38 100t-95 37q-56 0 -93.5 -37t-37.5 -100zM135 1337h86
q0 -52 30.5 -82t76.5 -30q48 0 79 30t31 82h84q0 -86 -55.5 -137t-138.5 -51q-82 0 -137.5 50.5t-55.5 137.5z" />
    <glyph glyph-name="Ohungarumlaut" unicode="&#x150;" 
d="M328 1442q107 0 178.5 -63.5t71.5 -172.5v-981q0 -109 -71.5 -171t-178.5 -62t-177.5 62t-70.5 171v981q0 109 70.5 172.5t177.5 63.5zM197 1206v-981q0 -62 37.5 -98.5t93.5 -36.5q57 0 95 36t38 99v981q0 63 -38 100t-95 37q-56 0 -93.5 -37t-37.5 -100zM106 1552
l-69 70l235 238l70 -70zM383 1552l-70 70l236 238l69 -70z" />
    <glyph glyph-name="ohungarumlaut" unicode="&#x151;" 
d="M328 1032q107 0 178.5 -63t71.5 -172v-572q0 -109 -71.5 -171t-178.5 -62t-177.5 62t-70.5 171v572q0 109 70.5 172t177.5 63zM197 797v-572q0 -62 37.5 -98.5t93.5 -36.5q57 0 95 36t38 99v572q0 63 -38 100t-95 37q-56 0 -93.5 -37t-37.5 -100zM106 1143l-69 69
l235 238l70 -70zM383 1143l-70 69l236 238l69 -70z" />
    <glyph glyph-name="OE" unicode="&#x152;" horiz-adv-x="921" 
d="M438 0v31q-58 -39 -127 -39q-94 0 -156.5 62t-62.5 171v981q0 109 62.5 172.5t156.5 63.5q69 0 127 -39v31h404v-99h-287v-551h246v-98h-246v-588h287v-98h-404zM340 90q61 0 98 37v1176q-37 40 -98 40q-56 0 -93.5 -37t-37.5 -100v-981q0 -62 37.5 -98.5t93.5 -36.5z
" />
    <glyph glyph-name="oe" unicode="&#x153;" horiz-adv-x="921" 
d="M961 475h-383v-250q0 -63 38 -99t95 -36q56 0 94.5 36.5t38.5 98.5v101h117v-101q0 -109 -71.5 -171t-178.5 -62q-65 0 -116.5 27.5t-74.5 78.5q-24 -51 -76 -78.5t-116 -27.5q-107 0 -177.5 62t-70.5 171v572q0 109 70.5 172t177.5 63q63 0 115.5 -28.5t76.5 -79.5
q23 51 75.5 79.5t115.5 28.5q107 0 178.5 -63t71.5 -172v-322zM197 797v-572q0 -62 37.5 -98.5t93.5 -36.5q57 0 95 36t38 99v572q0 63 -38 100t-95 37q-56 0 -93.5 -37t-37.5 -100zM578 797v-224h266v224q0 67 -37.5 102t-95.5 35q-59 0 -96 -35t-37 -102z" />
    <glyph glyph-name="Racute" unicode="&#x154;" horiz-adv-x="661" 
d="M500 0l-170 625h-117v-625h-117v1434h236q107 0 178.5 -63.5t71.5 -172.5v-340q0 -82 -41.5 -135.5t-110.5 -73.5l191 -649h-121zM213 723h119q57 0 95 36t38 99v340q0 63 -38 100t-95 37h-119v-612zM240 1565l-70 71l252 211l70 -69z" />
    <glyph glyph-name="racute" unicode="&#x155;" horiz-adv-x="591" 
d="M96 0v1024h117v-150q71 158 205 158q54 0 89.5 -34.5t35.5 -94.5v-205h-117v170q0 30 -17 48t-44 18q-70 0 -111 -68.5t-41 -167.5v-698h-117zM211 1155l-70 72l252 211l70 -70z" />
    <glyph glyph-name="Rcommaaccent" unicode="&#x156;" horiz-adv-x="661" 
d="M500 0l-170 625h-117v-625h-117v1434h236q107 0 178.5 -63.5t71.5 -172.5v-340q0 -82 -41.5 -135.5t-110.5 -73.5l191 -649h-121zM213 723h119q57 0 95 36t38 99v340q0 63 -38 100t-95 37h-119v-612zM399 -205q0 -79 -53 -209h-86q41 126 41 209v144h98v-144z" />
    <glyph glyph-name="rcommaaccent" unicode="&#x157;" horiz-adv-x="591" 
d="M96 0v1024h117v-150q71 158 205 158q54 0 89.5 -34.5t35.5 -94.5v-205h-117v170q0 30 -17 48t-44 18q-70 0 -111 -68.5t-41 -167.5v-698h-117zM205 -205q0 -79 -53 -209h-86q40 122 40 209v144h99v-144z" />
    <glyph glyph-name="Rcaron" unicode="&#x158;" horiz-adv-x="661" 
d="M500 0l-170 625h-117v-625h-117v1434h236q107 0 178.5 -63.5t71.5 -172.5v-340q0 -82 -41.5 -135.5t-110.5 -73.5l191 -649h-121zM213 723h119q57 0 95 36t38 99v340q0 63 -38 100t-95 37h-119v-612zM332 1569l-238 188l68 68l170 -135l170 135l67 -68z" />
    <glyph glyph-name="rcaron" unicode="&#x159;" horiz-adv-x="591" 
d="M96 0v1024h117v-150q71 158 205 158q54 0 89.5 -34.5t35.5 -94.5v-205h-117v170q0 30 -17 48t-44 18q-70 0 -111 -68.5t-41 -167.5v-698h-117zM301 1159l-238 189l68 67l170 -135l170 135l68 -67z" />
    <glyph glyph-name="Sacute" unicode="&#x15a;" 
d="M80 410h117v-185q0 -62 37.5 -98.5t93.5 -36.5q57 0 95 36t38 99v281q0 46 -21 79.5t-54.5 54t-73.5 38.5t-80.5 39t-74 49t-54.5 76t-21 112v256q0 107 70.5 169.5t175.5 62.5q106 0 176.5 -62.5t70.5 -169.5v-186h-116v186q0 61 -37.5 97t-93.5 36t-92.5 -36t-36.5 -97
v-256q0 -47 21 -81t54.5 -54.5t73.5 -38.5t80.5 -39t74 -48.5t54.5 -75t21 -111.5v-281q0 -109 -71.5 -171t-178.5 -62t-177.5 62t-70.5 171v185zM238 1565l-70 71l252 211l69 -69z" />
    <glyph glyph-name="sacute" unicode="&#x15b;" horiz-adv-x="645" 
d="M80 326h117v-107q0 -60 35.5 -94.5t89.5 -34.5t90.5 34.5t36.5 94.5v123q0 55 -38 87t-91.5 49t-107.5 37.5t-92 69.5t-38 128v94q0 105 68 165t172 60t172.5 -60t68.5 -165v-109h-117v109q0 59 -35.5 93t-88.5 34t-88 -34t-35 -93v-94q0 -41 20 -68.5t52.5 -43t71.5 -28
t78 -28.5t71.5 -38.5t52.5 -64.5t20 -100v-123q0 -105 -69.5 -166t-173.5 -61t-173 61t-69 166v107zM231 1155l-69 72l252 211l69 -70z" />
    <glyph glyph-name="Scircumflex" unicode="&#x15c;" 
d="M80 410h117v-185q0 -62 37.5 -98.5t93.5 -36.5q57 0 95 36t38 99v281q0 46 -21 79.5t-54.5 54t-73.5 38.5t-80.5 39t-74 49t-54.5 76t-21 112v256q0 107 70.5 169.5t175.5 62.5q106 0 176.5 -62.5t70.5 -169.5v-186h-116v186q0 61 -37.5 97t-93.5 36t-92.5 -36t-36.5 -97
v-256q0 -47 21 -81t54.5 -54.5t73.5 -38.5t80.5 -39t74 -48.5t54.5 -75t21 -111.5v-281q0 -109 -71.5 -171t-178.5 -62t-177.5 62t-70.5 171v185zM160 1569l-68 69l238 189l237 -189l-67 -69l-170 135z" />
    <glyph glyph-name="scircumflex" unicode="&#x15d;" horiz-adv-x="645" 
d="M80 326h117v-107q0 -60 35.5 -94.5t89.5 -34.5t90.5 34.5t36.5 94.5v123q0 55 -38 87t-91.5 49t-107.5 37.5t-92 69.5t-38 128v94q0 105 68 165t172 60t172.5 -60t68.5 -165v-109h-117v109q0 59 -35.5 93t-88.5 34t-88 -34t-35 -93v-94q0 -41 20 -68.5t52.5 -43t71.5 -28
t78 -28.5t71.5 -38.5t52.5 -64.5t20 -100v-123q0 -105 -69.5 -166t-173.5 -61t-173 61t-69 166v107zM152 1159l-68 70l238 188l237 -188l-67 -70l-170 135z" />
    <glyph glyph-name="Scedilla" unicode="&#x15e;" 
d="M283 -274v270q-91 11 -147 71.5t-56 157.5v185h117v-185q0 -62 37.5 -98.5t93.5 -36.5q57 0 95 36t38 99v281q0 46 -21 79.5t-54.5 54t-73.5 38.5t-80.5 39t-74 49t-54.5 76t-21 112v256q0 107 70.5 169.5t175.5 62.5q106 0 176.5 -62.5t70.5 -169.5v-186h-116v186
q0 61 -37.5 97t-93.5 36t-92.5 -36t-36.5 -97v-256q0 -47 21 -81t54.5 -54.5t73.5 -38.5t80.5 -39t74 -48.5t54.5 -75t21 -111.5v-281q0 -97 -57.5 -157.5t-147.5 -71.5v-270h-90z" />
    <glyph glyph-name="scedilla" unicode="&#x15f;" horiz-adv-x="645" 
d="M276 -274v270q-87 11 -141.5 70t-54.5 153v107h117v-107q0 -60 35.5 -94.5t89.5 -34.5t90.5 34.5t36.5 94.5v123q0 55 -38 87t-91.5 49t-107.5 37.5t-92 69.5t-38 128v94q0 105 68 165t172 60t172.5 -60t68.5 -165v-109h-117v109q0 59 -35.5 93t-88.5 34t-88 -34t-35 -93
v-94q0 -41 20 -68.5t52.5 -43t71.5 -28t78 -28.5t71.5 -38.5t52.5 -64.5t20 -100v-123q0 -94 -55.5 -153t-142.5 -70v-270h-91z" />
    <glyph glyph-name="Scaron" unicode="&#x160;" 
d="M80 410h117v-185q0 -62 37.5 -98.5t93.5 -36.5q57 0 95 36t38 99v281q0 46 -21 79.5t-54.5 54t-73.5 38.5t-80.5 39t-74 49t-54.5 76t-21 112v256q0 107 70.5 169.5t175.5 62.5q106 0 176.5 -62.5t70.5 -169.5v-186h-116v186q0 61 -37.5 97t-93.5 36t-92.5 -36t-36.5 -97
v-256q0 -47 21 -81t54.5 -54.5t73.5 -38.5t80.5 -39t74 -48.5t54.5 -75t21 -111.5v-281q0 -109 -71.5 -171t-178.5 -62t-177.5 62t-70.5 171v185zM330 1569l-238 188l68 68l170 -135l170 135l67 -68z" />
    <glyph glyph-name="scaron" unicode="&#x161;" horiz-adv-x="645" 
d="M80 326h117v-107q0 -60 35.5 -94.5t89.5 -34.5t90.5 34.5t36.5 94.5v123q0 55 -38 87t-91.5 49t-107.5 37.5t-92 69.5t-38 128v94q0 105 68 165t172 60t172.5 -60t68.5 -165v-109h-117v109q0 59 -35.5 93t-88.5 34t-88 -34t-35 -93v-94q0 -41 20 -68.5t52.5 -43t71.5 -28
t78 -28.5t71.5 -38.5t52.5 -64.5t20 -100v-123q0 -105 -69.5 -166t-173.5 -61t-173 61t-69 166v107zM322 1159l-238 189l68 67l170 -135l170 135l67 -67z" />
    <glyph glyph-name="Tcommaaccent" unicode="&#x162;" horiz-adv-x="587" 
d="M39 1335v99h510v-99h-197v-1335h-116v1335h-197zM344 -205q0 -79 -53 -209h-86q41 126 41 209v144h98v-144z" />
    <glyph glyph-name="tcommaaccent" unicode="&#x163;" horiz-adv-x="483" 
d="M438 104v-100q-54 -12 -100 -12q-104 0 -173 62.5t-69 172.5v1043h117v-246h225v-98h-225v-699q0 -63 38.5 -100t98.5 -37q46 0 88 14zM311 -205q0 -79 -53 -209h-86q41 126 41 209v144h98v-144z" />
    <glyph glyph-name="Tcaron" unicode="&#x164;" horiz-adv-x="587" 
d="M39 1335v99h510v-99h-197v-1335h-116v1335h-197zM295 1569l-238 188l68 68l170 -135l170 135l67 -68z" />
    <glyph glyph-name="tcaron" unicode="&#x165;" horiz-adv-x="763" 
d="M438 104v-100q-54 -12 -100 -12q-104 0 -173 62.5t-69 172.5v1043h117v-246h225v-98h-225v-699q0 -63 38.5 -100t98.5 -37q46 0 88 14zM598 836h-98q6 15 15.5 40t25.5 90.5t16 116.5v193h113v-193q0 -51 -18 -113t-36 -98z" />
    <glyph glyph-name="Tbar" unicode="&#x166;" horiz-adv-x="587" 
d="M39 834v98h197v403h-197v99h510v-99h-197v-403h197v-98h-197v-834h-116v834h-197z" />
    <glyph glyph-name="tbar" unicode="&#x167;" horiz-adv-x="483" 
d="M438 104v-100q-54 -12 -100 -12q-104 0 -173 62.5t-69 172.5v1043h117v-246h225v-98h-225v-238h225v-98h-225v-363q0 -63 38.5 -100t98.5 -37q46 0 88 14z" />
    <glyph glyph-name="Utilde" unicode="&#x168;" 
d="M80 1434h117v-1209q0 -62 37.5 -98.5t93.5 -36.5q57 0 95 36t38 99v1209h117v-1209q0 -109 -71.5 -171t-178.5 -62t-177.5 62t-70.5 171v1209zM82 1585q0 72 42 114t107 42q37 0 65 -13.5t42 -29.5t36 -29.5t48 -13.5q32 0 54 20.5t22 55.5h77q0 -71 -42.5 -113.5
t-106.5 -42.5q-37 0 -65 13.5t-42.5 29.5t-36 29.5t-46.5 13.5q-32 0 -54 -20.5t-22 -55.5h-78z" />
    <glyph glyph-name="utilde" unicode="&#x169;" horiz-adv-x="673" 
d="M461 0v106q-35 -55 -90 -84.5t-119 -29.5q-74 0 -123 47t-49 129v856h117v-829q0 -49 28.5 -77t71.5 -28q71 0 117.5 46t46.5 124v764h117v-1024h-117zM90 1176q0 72 42.5 113.5t107.5 41.5q37 0 65 -13.5t41.5 -29.5t35.5 -29.5t48 -13.5q32 0 54 20.5t22 55.5h78
q0 -71 -43 -113.5t-107 -42.5q-37 0 -65 13.5t-42.5 29.5t-36 29.5t-46.5 13.5q-32 0 -54 -20t-22 -55h-78z" />
    <glyph glyph-name="Umacron" unicode="&#x16a;" 
d="M80 1434h117v-1209q0 -62 37.5 -98.5t93.5 -36.5q57 0 95 36t38 99v1209h117v-1209q0 -109 -71.5 -171t-178.5 -62t-177.5 62t-70.5 171v1209zM131 1642v99h393v-99h-393z" />
    <glyph glyph-name="umacron" unicode="&#x16b;" horiz-adv-x="673" 
d="M461 0v106q-35 -55 -90 -84.5t-119 -29.5q-74 0 -123 47t-49 129v856h117v-829q0 -49 28.5 -77t71.5 -28q71 0 117.5 46t46.5 124v764h117v-1024h-117zM139 1233v98h393v-98h-393z" />
    <glyph glyph-name="Ubreve" unicode="&#x16c;" 
d="M80 1434h117v-1209q0 -62 37.5 -98.5t93.5 -36.5q57 0 95 36t38 99v1209h117v-1209q0 -109 -71.5 -171t-178.5 -62t-177.5 62t-70.5 171v1209zM135 1747h86q0 -52 30.5 -82.5t76.5 -30.5q47 0 78.5 30.5t31.5 82.5h84q0 -86 -55.5 -137t-138.5 -51q-82 0 -137.5 50.5
t-55.5 137.5z" />
    <glyph glyph-name="ubreve" unicode="&#x16d;" horiz-adv-x="673" 
d="M461 0v106q-35 -55 -90 -84.5t-119 -29.5q-74 0 -123 47t-49 129v856h117v-829q0 -49 28.5 -77t71.5 -28q71 0 117.5 46t46.5 124v764h117v-1024h-117zM143 1337h86q0 -52 30.5 -82t76.5 -30q48 0 79 30t31 82h84q0 -86 -55.5 -137t-138.5 -51q-82 0 -137.5 50.5
t-55.5 137.5z" />
    <glyph glyph-name="Uring" unicode="&#x16e;" 
d="M80 1434h117v-1209q0 -62 37.5 -98.5t93.5 -36.5q57 0 95 36t38 99v1209h117v-1209q0 -109 -71.5 -171t-178.5 -62t-177.5 62t-70.5 171v1209zM328 1868q72 0 120 -45.5t48 -122.5q0 -79 -48 -122.5t-120 -43.5t-119 43.5t-47 120.5q0 79 47 124.5t119 45.5zM240 1698
q0 -41 25.5 -66.5t62.5 -25.5q38 0 64 25t26 67q0 44 -26 70t-64 26q-37 0 -62.5 -26t-25.5 -70z" />
    <glyph glyph-name="uring" unicode="&#x16f;" horiz-adv-x="673" 
d="M461 0v106q-35 -55 -90 -84.5t-119 -29.5q-74 0 -123 47t-49 129v856h117v-829q0 -49 28.5 -77t71.5 -28q71 0 117.5 46t46.5 124v764h117v-1024h-117zM336 1458q72 0 120 -45.5t48 -122.5q0 -79 -48 -122.5t-120 -43.5t-119 43.5t-47 120.5q0 79 47 124.5t119 45.5z
M248 1288q0 -41 25.5 -66.5t62.5 -25.5q38 0 64 25t26 67q0 44 -26 70t-64 26q-37 0 -62.5 -26t-25.5 -70z" />
    <glyph glyph-name="Uhungarumlaut" unicode="&#x170;" 
d="M80 1434h117v-1209q0 -62 37.5 -98.5t93.5 -36.5q57 0 95 36t38 99v1209h117v-1209q0 -109 -71.5 -171t-178.5 -62t-177.5 62t-70.5 171v1209zM106 1552l-69 70l235 238l70 -70zM383 1552l-70 70l236 238l69 -70z" />
    <glyph glyph-name="uhungarumlaut" unicode="&#x171;" horiz-adv-x="673" 
d="M461 0v106q-35 -55 -90 -84.5t-119 -29.5q-74 0 -123 47t-49 129v856h117v-829q0 -49 28.5 -77t71.5 -28q71 0 117.5 46t46.5 124v764h117v-1024h-117zM115 1143l-70 69l236 238l69 -70zM391 1143l-69 69l235 238l70 -70z" />
    <glyph glyph-name="Uogonek" unicode="&#x172;" 
d="M313 -70v62q-102 5 -167.5 66.5t-65.5 166.5v1209h117v-1209q0 -62 37.5 -98.5t93.5 -36.5q57 0 95 36t38 99v1209h117v-1209q0 -89 -49.5 -147t-129.5 -78v-70q0 -51 30.5 -85.5t82.5 -34.5v-74q-91 0 -145 56t-54 138z" />
    <glyph glyph-name="uogonek" unicode="&#x173;" horiz-adv-x="673" 
d="M461 0v106q-35 -55 -90 -84.5t-119 -29.5q-74 0 -123 47t-49 129v856h117v-829q0 -49 28.5 -77t71.5 -28q71 0 117.5 46t46.5 124v764h117v-1024h-117zM461 -70v70h86v-70q0 -52 30 -86t82 -34v-74q-91 0 -144.5 55.5t-53.5 138.5z" />
    <glyph glyph-name="Wcircumflex" unicode="&#x174;" horiz-adv-x="1093" 
d="M244 0l-211 1434h121l161 -1297h4l150 1297h154l147 -1297h4l162 1297h121l-209 -1434h-158l-143 1286h-4l-144 -1286h-155zM377 1569l-68 69l238 189l237 -189l-67 -69l-170 135z" />
    <glyph glyph-name="wcircumflex" unicode="&#x175;" horiz-adv-x="1042" 
d="M229 0l-196 1024h121l151 -913h4l135 913h150l137 -913h4l150 913h121l-197 -1024h-154l-133 903h-4l-135 -903h-154zM350 1159l-67 70l237 188l238 -188l-68 -70l-170 135z" />
    <glyph glyph-name="Ycircumflex" unicode="&#x176;" horiz-adv-x="645" 
d="M262 0v477l-229 957h117l169 -764h5l172 764h116l-233 -957v-477h-117zM152 1569l-68 69l238 189l237 -189l-67 -69l-170 135z" />
    <glyph glyph-name="ycircumflex" unicode="&#x177;" horiz-adv-x="671" 
d="M80 -164h117v-69q0 -63 38 -100.5t95 -37.5t94 37.5t37 100.5v339q-35 -55 -90 -84.5t-119 -29.5q-74 0 -123 47t-49 129v856h117v-829q0 -49 28.5 -77t71.5 -28q71 0 117.5 46t46.5 124v764h117v-1257q0 -109 -70.5 -172.5t-177.5 -63.5t-178.5 63.5t-71.5 172.5v69z
M164 1159l-68 70l238 188l237 -188l-67 -70l-170 135z" />
    <glyph glyph-name="Ydieresis" unicode="&#x178;" horiz-adv-x="645" 
d="M262 0v477l-229 957h117l169 -764h5l172 764h116l-233 -957v-477h-117zM125 1620v190h102v-190h-102zM416 1620v190h102v-190h-102z" />
    <glyph glyph-name="Zacute" unicode="&#x179;" horiz-adv-x="647" 
d="M80 0v63l362 1272h-362v99h487v-64l-360 -1272h360v-98h-487zM233 1565l-69 71l252 211l69 -69z" />
    <glyph glyph-name="zacute" unicode="&#x17a;" horiz-adv-x="647" 
d="M80 0v63l358 863h-358v98h487v-63l-354 -863h354v-98h-487zM233 1155l-69 72l252 211l69 -70z" />
    <glyph glyph-name="Zdotaccent" unicode="&#x17b;" horiz-adv-x="647" 
d="M80 0v63l362 1272h-362v99h487v-64l-360 -1272h360v-98h-487zM264 1651v192h117v-192h-117z" />
    <glyph glyph-name="zdotaccent" unicode="&#x17c;" horiz-adv-x="647" 
d="M80 0v63l358 863h-358v98h487v-63l-354 -863h354v-98h-487zM264 1241v193h117v-193h-117z" />
    <glyph glyph-name="Zcaron" unicode="&#x17d;" horiz-adv-x="647" 
d="M80 0v63l362 1272h-362v99h487v-64l-360 -1272h360v-98h-487zM324 1569l-238 188l68 68l170 -135l170 135l67 -68z" />
    <glyph glyph-name="zcaron" unicode="&#x17e;" horiz-adv-x="647" 
d="M80 0v63l358 863h-358v98h487v-63l-354 -863h354v-98h-487zM324 1159l-238 189l68 67l170 -135l170 135l67 -67z" />
    <glyph glyph-name="longs" unicode="&#x17f;" horiz-adv-x="561" 
d="M80 0v1292q0 94 61 147.5t154 53.5t155 -53.5t62 -147.5v-71h-117v71q0 46 -29.5 74.5t-70.5 28.5q-42 0 -70 -28.5t-28 -74.5v-1292h-117z" />
    <glyph glyph-name="uni018F" unicode="&#x18f;" horiz-adv-x="645" 
d="M80 219v549h369v444q0 60 -35.5 95.5t-89.5 35.5t-90.5 -35.5t-36.5 -95.5v-188h-117v188q0 105 70 167.5t174 62.5q103 0 172 -62t69 -168v-993q0 -105 -68.5 -166t-172.5 -61t-174 61t-70 166zM324 90q54 0 89.5 34.5t35.5 94.5v451h-252v-451q0 -60 36.5 -94.5
t90.5 -34.5z" />
    <glyph glyph-name="florin" unicode="&#x192;" horiz-adv-x="477" 
d="M-94 -455v99q35 -15 78 -15q48 0 80 30t32 81v1517q0 110 69 173t173 63q46 0 100 -12v-101q-45 15 -88 15q-60 0 -98.5 -37.5t-38.5 -100.5v-233h225v-98h-225v-1186q0 -97 -62.5 -153t-156.5 -56q-55 0 -88 14z" />
    <glyph glyph-name="uni01DD" unicode="&#x1dd;" 
d="M80 573h381v226q0 63 -37 99t-94 36t-95 -36t-38 -99v-90h-117v90q0 109 71.5 171t178.5 62t177.5 -62t70.5 -171v-572q0 -109 -70.5 -172t-177.5 -63t-178.5 63t-71.5 172v346zM461 227v248h-264v-248q0 -67 37 -102t96 -35t95 34.5t36 102.5z" />
    <glyph glyph-name="AEacute" unicode="&#x1fc;" horiz-adv-x="876" 
d="M797 0h-402v385h-172l-76 -385h-114l280 1434h484v-99h-285v-551h244v-98h-244v-588h285v-98zM238 483h157v822h-4zM346 1565l-70 71l252 211l70 -69z" />
    <glyph glyph-name="aeacute" unicode="&#x1fd;" horiz-adv-x="1040" 
d="M961 481h-383v-256q0 -63 38 -99t95 -36q56 0 94.5 36.5t38.5 98.5v101h117v-101q0 -109 -71.5 -171t-178.5 -62q-78 0 -138.5 35t-87.5 98q-85 -133 -241 -133q-70 0 -117 45.5t-47 124.5v157q0 110 64.5 174t164.5 72l152 13v221q0 63 -37 99t-94 36t-95 -36t-38 -99
v-101h-117v101q0 109 71.5 171t178.5 62q63 0 113.5 -28t76.5 -80q26 52 77 80t114 28q107 0 178.5 -63t71.5 -172v-316zM461 260v217l-131 -10q-57 -5 -95 -45t-38 -103v-131q0 -46 27 -72t67 -26q67 0 118.5 47t51.5 123zM578 797v-217h266v217q0 67 -37.5 102t-95.5 35
q-59 0 -96 -35t-37 -102zM428 1155l-70 72l252 211l70 -70z" />
    <glyph glyph-name="Oslashacute" unicode="&#x1fe;" 
d="M63 0l37 119q-20 44 -20 106v981q0 109 70.5 172.5t177.5 63.5q104 0 176 -62l16 54h76l-41 -125q23 -48 23 -103v-981q0 -109 -71.5 -171t-178.5 -62q-106 0 -174 59l-17 -51h-74zM197 1206v-788l260 819q-9 50 -44.5 78t-84.5 28q-56 0 -93.5 -37t-37.5 -100zM328 90
q57 0 95 36t38 99v785l-262 -815q9 -50 44.5 -77.5t84.5 -27.5zM238 1565l-70 71l252 211l69 -69z" />
    <glyph glyph-name="oslashacute" unicode="&#x1ff;" 
d="M63 0l46 104q-29 53 -29 121v572q0 109 70.5 172t177.5 63q101 0 170 -57l22 49h76l-49 -109q31 -51 31 -118v-572q0 -109 -71.5 -171t-178.5 -62q-103 0 -170 55l-21 -47h-74zM197 797v-498l249 561q-15 35 -47 54.5t-71 19.5q-56 0 -93.5 -37t-37.5 -100zM328 90
q57 0 95 36t38 99v496l-252 -561q36 -70 119 -70zM238 1155l-70 72l252 211l69 -70z" />
    <glyph glyph-name="Scommaaccent" unicode="&#x218;" 
d="M80 410h117v-185q0 -62 37.5 -98.5t93.5 -36.5q57 0 95 36t38 99v281q0 46 -21 79.5t-54.5 54t-73.5 38.5t-80.5 39t-74 49t-54.5 76t-21 112v256q0 107 70.5 169.5t175.5 62.5q106 0 176.5 -62.5t70.5 -169.5v-186h-116v186q0 61 -37.5 97t-93.5 36t-92.5 -36t-36.5 -97
v-256q0 -47 21 -81t54.5 -54.5t73.5 -38.5t80.5 -39t74 -48.5t54.5 -75t21 -111.5v-281q0 -109 -71.5 -171t-178.5 -62t-177.5 62t-70.5 171v185zM379 -205q0 -79 -53 -209h-86q41 126 41 209v144h98v-144z" />
    <glyph glyph-name="scommaaccent" unicode="&#x219;" horiz-adv-x="645" 
d="M80 326h117v-107q0 -60 35.5 -94.5t89.5 -34.5t90.5 34.5t36.5 94.5v123q0 55 -38 87t-91.5 49t-107.5 37.5t-92 69.5t-38 128v94q0 105 68 165t172 60t172.5 -60t68.5 -165v-109h-117v109q0 59 -35.5 93t-88.5 34t-88 -34t-35 -93v-94q0 -41 20 -68.5t52.5 -43t71.5 -28
t78 -28.5t71.5 -38.5t52.5 -64.5t20 -100v-123q0 -105 -69.5 -166t-173.5 -61t-173 61t-69 166v107zM375 -205q0 -79 -53 -209h-86q40 123 40 209v144h99v-144z" />
    <glyph glyph-name="uni021A" unicode="&#x21a;" horiz-adv-x="587" 
d="M39 1335v99h510v-99h-197v-1335h-116v1335h-197zM344 -205q0 -79 -53 -209h-86q41 126 41 209v144h98v-144z" />
    <glyph glyph-name="uni021B" unicode="&#x21b;" horiz-adv-x="483" 
d="M438 104v-100q-54 -12 -100 -12q-104 0 -173 62.5t-69 172.5v1043h117v-246h225v-98h-225v-699q0 -63 38.5 -100t98.5 -37q46 0 88 14zM311 -205q0 -79 -53 -209h-86q41 126 41 209v144h98v-144z" />
    <glyph glyph-name="dotlessj" unicode="&#x237;" horiz-adv-x="309" 
d="M-94 -455v99q35 -15 78 -15q48 0 80 30t32 81v1284h117v-1284q0 -97 -62.5 -153t-156.5 -56q-55 0 -88 14z" />
    <glyph glyph-name="circumflex" unicode="&#x2c6;" horiz-adv-x="548" 
d="M104 1159l-67 70l237 188l238 -188l-68 -70l-170 135z" />
    <glyph glyph-name="caron" unicode="&#x2c7;" horiz-adv-x="548" 
d="M274 1159l-237 189l67 67l170 -135l170 135l68 -67z" />
    <glyph glyph-name="breve" unicode="&#x2d8;" 
d="M135 1337h86q0 -52 30.5 -82t76.5 -30q48 0 79 30t31 82h84q0 -86 -55.5 -137t-138.5 -51q-82 0 -137.5 50.5t-55.5 137.5z" />
    <glyph glyph-name="dotaccent" unicode="&#x2d9;" horiz-adv-x="301" 
d="M92 1241v193h117v-193h-117z" />
    <glyph glyph-name="ring" unicode="&#x2da;" 
d="M328 1458q72 0 120 -45.5t48 -122.5q0 -79 -48 -122.5t-120 -43.5t-119 43.5t-47 120.5q0 79 47 124.5t119 45.5zM240 1288q0 -41 25.5 -66.5t62.5 -25.5q38 0 64 25t26 67q0 44 -26 70t-64 26q-37 0 -62.5 -26t-25.5 -70z" />
    <glyph glyph-name="ogonek" unicode="&#x2db;" horiz-adv-x="288" 
d="M92 -70v70h86v-70q0 -51 30.5 -85.5t82.5 -34.5v-74q-91 0 -145 56t-54 138z" />
    <glyph glyph-name="tilde" unicode="&#x2dc;" 
d="M82 1176q0 72 42 113.5t107 41.5q37 0 65 -13.5t42 -29.5t36 -29.5t48 -13.5q32 0 54 20.5t22 55.5h77q0 -71 -42.5 -113.5t-106.5 -42.5q-37 0 -65 13.5t-42.5 29.5t-36 29.5t-46.5 13.5q-32 0 -54 -20t-22 -55h-78z" />
    <glyph glyph-name="hungarumlaut" unicode="&#x2dd;" horiz-adv-x="548" 
d="M53 1143l-69 69l235 238l70 -70zM330 1143l-70 69l236 238l69 -70z" />
    <glyph glyph-name="uni0400" unicode="&#x400;" horiz-adv-x="630" 
d="M406 1565l-252 211l69 69l252 -209zM96 0v1434h455v-99h-338v-551h297v-98h-297v-588h338v-98h-455z" />
    <glyph glyph-name="afii10023" unicode="&#x401;" horiz-adv-x="630" 
d="M123 1536v190h102v-190h-102zM414 1536v190h102v-190h-102zM96 0v1434h455v-99h-338v-551h297v-98h-297v-588h338v-98h-455z" />
    <glyph glyph-name="afii10051" unicode="&#x402;" horiz-adv-x="815" 
d="M618 -266v942q0 48 -29 76t-71 28q-71 0 -118.5 -46.5t-47.5 -123.5v-610h-116v1335h-197v99h510v-99h-197v-571q76 115 211 115q73 0 122.5 -47.5t49.5 -129.5v-968q0 -94 -61.5 -148.5t-153.5 -54.5q-94 0 -155.5 54.5t-61.5 148.5v106h117v-106q0 -48 28.5 -76.5
t71.5 -28.5q41 0 69.5 28.5t28.5 76.5z" />
    <glyph glyph-name="afii10052" unicode="&#x403;" horiz-adv-x="579" 
d="M199 1565l-70 71l252 211l70 -69zM96 0v1434h436v-99h-319v-1335h-117z" />
    <glyph glyph-name="afii10053" unicode="&#x404;" 
d="M502 680h-305v-455q0 -62 37.5 -98.5t93.5 -36.5q57 0 95 36t38 99v185h117v-185q0 -109 -71.5 -171t-178.5 -62t-177.5 62t-70.5 171v981q0 109 70.5 172.5t177.5 63.5t178.5 -63.5t71.5 -172.5v-182h-117v182q0 67 -37 102t-96 35q-57 0 -94 -35t-37 -102v-428h305v-98
z" />
    <glyph glyph-name="afii10054" unicode="&#x405;" 
d="M80 410h117v-185q0 -62 37.5 -98.5t93.5 -36.5q57 0 95 36t38 99v281q0 46 -21 79.5t-54.5 54t-73.5 38.5t-80.5 39t-74 49t-54.5 76t-21 112v256q0 107 70.5 169.5t175.5 62.5q106 0 176.5 -62.5t70.5 -169.5v-186h-116v186q0 61 -37.5 97t-93.5 36t-92.5 -36t-36.5 -97
v-256q0 -47 21 -81t54.5 -54.5t73.5 -38.5t80.5 -39t74 -48.5t54.5 -75t21 -111.5v-281q0 -109 -71.5 -171t-178.5 -62t-177.5 62t-70.5 171v185z" />
    <glyph glyph-name="afii10055" unicode="&#x406;" horiz-adv-x="309" 
d="M96 0v1434h117v-1434h-117z" />
    <glyph glyph-name="afii10056" unicode="&#x407;" horiz-adv-x="309" 
d="M-41 1554v191h102v-191h-102zM250 1554v191h102v-191h-102zM96 0v1434h117v-1434h-117z" />
    <glyph glyph-name="afii10057" unicode="&#x408;" horiz-adv-x="645" 
d="M80 410h117v-189q0 -60 36.5 -95.5t90.5 -35.5t89.5 35.5t35.5 95.5v1213h116v-1213q0 -106 -69 -167.5t-172 -61.5q-104 0 -174 62t-70 167v189z" />
    <glyph glyph-name="afii10058" unicode="&#x409;" horiz-adv-x="1060" 
d="M47 -8v98q46 0 76.5 45.5t30.5 122.5v1176h458v-650h119q107 0 178.5 -62t71.5 -171v-315q0 -109 -71.5 -172.5t-178.5 -63.5h-235v1335h-226v-1077q0 -123 -63.5 -194.5t-159.5 -71.5zM612 98h119q57 0 95 37.5t38 100.5v315q0 63 -38 99t-95 36h-119v-588z" />
    <glyph glyph-name="afii10059" unicode="&#x40a;" horiz-adv-x="1044" 
d="M96 0v1434h117v-650h266v650h117v-650h117q109 0 180.5 -62t71.5 -171v-315q0 -109 -72 -172.5t-180 -63.5h-234v686h-266v-686h-117zM596 98h117q57 0 96 37.5t39 100.5v315q0 62 -38.5 98.5t-96.5 36.5h-117v-588z" />
    <glyph glyph-name="afii10060" unicode="&#x40b;" horiz-adv-x="815" 
d="M352 610v-610h-116v1335h-197v99h510v-99h-197v-571q76 115 211 115q73 0 122.5 -47.5t49.5 -129.5v-702h-117v676q0 48 -29 76t-71 28q-71 0 -118.5 -46.5t-47.5 -123.5z" />
    <glyph glyph-name="afii10061" unicode="&#x40c;" horiz-adv-x="655" 
d="M236 1565l-70 71l252 211l69 -69zM96 0v1434h117v-650h76l203 650h120l-231 -699l240 -735h-123l-207 686h-78v-686h-117z" />
    <glyph glyph-name="uni040D" unicode="&#x40d;" horiz-adv-x="694" 
d="M438 1565l-252 211l70 69l252 -209zM96 0v1434h113v-1045h4l272 942v103h113v-1434h-113v1044h-2l-274 -942v-102h-113z" />
    <glyph glyph-name="afii10062" unicode="&#x40e;" horiz-adv-x="645" 
d="M129 1747h86q0 -52 30.5 -82.5t76.5 -30.5q47 0 78.5 30.5t31.5 82.5h84q0 -86 -55.5 -137t-138.5 -51q-82 0 -137.5 50.5t-55.5 137.5zM74 0v98h57q77 0 100 95l50 217h-35l-213 1024h121l165 -916h5l168 916h120l-264 -1244q-19 -92 -74 -141t-143 -49h-57z" />
    <glyph glyph-name="afii10145" unicode="&#x40f;" horiz-adv-x="692" 
d="M96 0v1434h117v-1336h266v1336h117v-1434h-190v-256h-117v256h-193z" />
    <glyph glyph-name="afii10017" unicode="&#x410;" horiz-adv-x="645" 
d="M33 0l213 1434h153l213 -1434h-118l-56 385h-233l-53 -385h-119zM322 1292l-109 -809h219l-106 809h-4z" />
    <glyph glyph-name="afii10018" unicode="&#x411;" horiz-adv-x="661" 
d="M96 0v1434h461v-99h-344v-481h119q107 0 178.5 -62t71.5 -171v-385q0 -109 -71.5 -172.5t-178.5 -63.5h-236zM332 756h-119v-658h119q57 0 95 37.5t38 100.5v385q0 63 -38 99t-95 36z" />
    <glyph glyph-name="afii10019" unicode="&#x412;" horiz-adv-x="661" 
d="M96 0v1434h236q107 0 178.5 -63.5t71.5 -172.5v-244q0 -77 -38.5 -132t-103.5 -79q67 -24 106.5 -80t39.5 -135v-292q0 -109 -71.5 -172.5t-178.5 -63.5h-240zM336 692h-123v-594h123q57 0 95 37.5t38 100.5v321q0 63 -38 99t-95 36zM213 791h119q57 0 95 36t38 99v272
q0 63 -38 100t-95 37h-119v-544z" />
    <glyph glyph-name="afii10020" unicode="&#x413;" horiz-adv-x="579" 
d="M96 0v1434h436v-99h-319v-1335h-117z" />
    <glyph glyph-name="afii10021" unicode="&#x414;" horiz-adv-x="780" 
d="M47 -256v354h21q46 0 77 45.5t31 122.5v1168h459v-1336h98v-354h-117v256h-452v-256h-117zM293 266q0 -109 -53 -168h278v1237h-225v-1069z" />
    <glyph glyph-name="afii10022" unicode="&#x415;" horiz-adv-x="630" 
d="M96 0v1434h455v-99h-338v-551h297v-98h-297v-588h338v-98h-455z" />
    <glyph glyph-name="afii10024" unicode="&#x416;" horiz-adv-x="1003" 
d="M37 0l239 735l-233 699h123l201 -650h77v650h117v-650h76l203 650h121l-234 -699l240 -735h-121l-209 686h-76v-686h-117v686h-77l-209 -686h-121z" />
    <glyph glyph-name="afii10025" unicode="&#x417;" horiz-adv-x="649" 
d="M324 90q57 0 95 37t38 100v330q0 63 -38 99t-95 36h-105v99h100q58 0 96 36t38 99v280q0 63 -38.5 100t-95.5 37q-54 0 -90 -34.5t-36 -94.5v-190h-117v190q0 105 69.5 166.5t173.5 61.5q107 0 178.5 -63.5t71.5 -172.5v-252q0 -77 -38 -132t-103 -79q67 -24 106 -79.5
t39 -135.5v-301q0 -109 -71 -172t-178 -63q-104 0 -174 62t-70 167v189h117v-189q0 -60 36.5 -95.5t90.5 -35.5z" />
    <glyph glyph-name="afii10026" unicode="&#x418;" horiz-adv-x="694" 
d="M96 0v1434h113v-1045h4l272 942v103h113v-1434h-113v1044h-2l-274 -942v-102h-113z" />
    <glyph glyph-name="afii10027" unicode="&#x419;" horiz-adv-x="694" 
d="M154 1747h86q0 -52 30 -82.5t76 -30.5q48 0 79.5 30.5t31.5 82.5h84q0 -86 -56 -137t-139 -51q-82 0 -137 50.5t-55 137.5zM96 0v1434h113v-1045h4l272 942v103h113v-1434h-113v1044h-2l-274 -942v-102h-113z" />
    <glyph glyph-name="afii10028" unicode="&#x41a;" horiz-adv-x="655" 
d="M96 0v1434h117v-650h76l203 650h120l-231 -699l240 -735h-123l-207 686h-78v-686h-117z" />
    <glyph glyph-name="afii10029" unicode="&#x41b;" horiz-adv-x="708" 
d="M154 258v1176h458v-1434h-116v1335h-226v-1077q0 -123 -63.5 -194.5t-159.5 -71.5v98q46 0 76.5 45.5t30.5 122.5z" />
    <glyph glyph-name="afii10030" unicode="&#x41c;" horiz-adv-x="968" 
d="M96 0v1434h174l209 -1256h4l215 1256h172v-1434h-112v1227h-4l-203 -1227h-135l-203 1227h-4v-1227h-113z" />
    <glyph glyph-name="afii10031" unicode="&#x41d;" horiz-adv-x="692" 
d="M96 0v1434h117v-650h266v650h117v-1434h-117v686h-266v-686h-117z" />
    <glyph glyph-name="afii10032" unicode="&#x41e;" 
d="M328 1442q107 0 178.5 -63.5t71.5 -172.5v-981q0 -109 -71.5 -171t-178.5 -62t-177.5 62t-70.5 171v981q0 109 70.5 172.5t177.5 63.5zM197 1206v-981q0 -62 37.5 -98.5t93.5 -36.5q57 0 95 36t38 99v981q0 63 -38 100t-95 37q-56 0 -93.5 -37t-37.5 -100z" />
    <glyph glyph-name="afii10033" unicode="&#x41f;" horiz-adv-x="692" 
d="M96 0v1434h500v-1434h-117v1335h-266v-1335h-117z" />
    <glyph glyph-name="afii10034" unicode="&#x420;" horiz-adv-x="661" 
d="M96 0v1434h236q107 0 178.5 -63.5t71.5 -172.5v-377q0 -109 -71.5 -171t-178.5 -62h-119v-588h-117zM213 686h119q57 0 95 36t38 99v377q0 63 -38 100t-95 37h-119v-649z" />
    <glyph glyph-name="afii10035" unicode="&#x421;" horiz-adv-x="645" 
d="M197 1212v-993q0 -60 35.5 -94.5t89.5 -34.5t90.5 34.5t36.5 94.5v191h116v-191q0 -105 -69.5 -166t-173.5 -61t-173 61t-69 166v993q0 106 69.5 168t172.5 62t173 -62.5t70 -167.5v-188h-116v188q0 60 -36.5 95.5t-90.5 35.5t-89.5 -35.5t-35.5 -95.5z" />
    <glyph glyph-name="afii10036" unicode="&#x422;" horiz-adv-x="587" 
d="M39 1335v99h510v-99h-197v-1335h-116v1335h-197z" />
    <glyph glyph-name="afii10037" unicode="&#x423;" horiz-adv-x="645" 
d="M74 0v98h57q77 0 100 95l50 217h-35l-213 1024h121l165 -916h5l168 916h120l-264 -1244q-19 -92 -74 -141t-143 -49h-57z" />
    <glyph glyph-name="afii10038" unicode="&#x424;" horiz-adv-x="950" 
d="M532 1434v-168h89q107 0 178 -62.5t71 -171.5v-629q0 -109 -71 -172t-178 -63h-89v-168h-116v168h-86q-107 0 -178.5 63t-71.5 172v629q0 109 71.5 171.5t178.5 62.5h86v168h116zM416 1167h-86q-57 0 -95 -37t-38 -98v-629q0 -63 38 -100t95 -37h86v901zM621 1167h-89
v-901h89q56 0 94.5 37.5t38.5 99.5v629q0 61 -38.5 98t-94.5 37z" />
    <glyph glyph-name="afii10039" unicode="&#x425;" horiz-adv-x="645" 
d="M29 0l204 737l-198 697h121l166 -641h4l163 641h121l-198 -699l204 -735h-120l-170 682h-4l-172 -682h-121z" />
    <glyph glyph-name="afii10040" unicode="&#x426;" horiz-adv-x="739" 
d="M578 -256v256h-482v1434h117v-1336h266v1336h117v-1336h98v-354h-116z" />
    <glyph glyph-name="afii10041" unicode="&#x427;" horiz-adv-x="673" 
d="M461 856v578h117v-1434h-117v700q-35 -53 -90 -82.5t-119 -29.5q-73 0 -122.5 46.5t-49.5 127.5v672h117v-646q0 -48 28.5 -75t71.5 -27q71 0 117.5 46t46.5 124z" />
    <glyph glyph-name="afii10042" unicode="&#x428;" horiz-adv-x="1046" 
d="M96 0v1434h117v-1336h252v1336h117v-1336h252v1336h116v-1434h-854z" />
    <glyph glyph-name="afii10043" unicode="&#x429;" horiz-adv-x="1095" 
d="M96 0v1434h117v-1336h252v1336h117v-1336h252v1336h116v-1336h101v-354h-117v256h-838z" />
    <glyph glyph-name="afii10044" unicode="&#x42a;" horiz-adv-x="800" 
d="M236 0v1335h-189v99h305v-580h119q107 0 178.5 -62t71.5 -171v-385q0 -109 -71.5 -172.5t-178.5 -63.5h-235zM352 98h119q57 0 95 37.5t38 100.5v385q0 63 -38 99t-95 36h-119v-658z" />
    <glyph glyph-name="afii10045" unicode="&#x42b;" horiz-adv-x="915" 
d="M96 0v1434h117v-580h119q107 0 178.5 -62t71.5 -171v-385q0 -109 -71.5 -172.5t-178.5 -63.5h-236zM332 756h-119v-658h119q57 0 95 37.5t38 100.5v385q0 63 -38 99t-95 36zM702 0v1434h117v-1434h-117z" />
    <glyph glyph-name="afii10046" unicode="&#x42c;" horiz-adv-x="661" 
d="M96 0v1434h117v-580h119q107 0 178.5 -62t71.5 -171v-385q0 -109 -71.5 -172.5t-178.5 -63.5h-236zM332 756h-119v-658h119q57 0 95 37.5t38 100.5v385q0 63 -38 99t-95 36z" />
    <glyph glyph-name="afii10047" unicode="&#x42d;" 
d="M461 680h-258v98h258v428q0 68 -36 102.5t-95 34.5t-96 -35t-37 -102v-182h-117v182q0 109 71.5 172.5t178.5 63.5t177.5 -63.5t70.5 -172.5v-981q0 -109 -70.5 -171t-177.5 -62t-178.5 62t-71.5 171v185h117v-185q0 -63 38 -99t95 -36t94 36t37 99v455z" />
    <glyph glyph-name="afii10048" unicode="&#x42e;" horiz-adv-x="940" 
d="M96 0v1434h117v-656h149v428q0 109 70.5 172.5t177.5 63.5t178.5 -63.5t71.5 -172.5v-981q0 -109 -71.5 -171t-178.5 -62t-177.5 62t-70.5 171v455h-149v-680h-117zM479 1206v-981q0 -62 37.5 -98.5t93.5 -36.5q57 0 95 36t38 99v981q0 63 -38 100t-95 37
q-56 0 -93.5 -37t-37.5 -100z" />
    <glyph glyph-name="afii10049" unicode="&#x42f;" horiz-adv-x="661" 
d="M332 625l-170 -625h-121l190 649q-69 20 -110 73.5t-41 135.5v340q0 109 71.5 172.5t178.5 63.5h235v-1434h-116v625h-117zM330 723h119v612h-119q-57 0 -95 -37t-38 -100v-340q0 -63 38 -99t95 -36z" />
    <glyph glyph-name="afii10065" unicode="&#x430;" 
d="M461 0v106q-34 -55 -93.5 -84.5t-123.5 -29.5q-70 0 -117 45.5t-47 124.5v184q0 107 63 165t166 69l152 18v201q0 63 -37 99t-94 36t-95 -36t-38 -99v-101h-117v101q0 109 71.5 171t178.5 62t177.5 -62t70.5 -171v-799h-117zM461 260v240l-131 -17q-60 -8 -96.5 -42
t-36.5 -95v-158q0 -46 27 -72t67 -26q67 0 118.5 47t51.5 123z" />
    <glyph glyph-name="afii10066" unicode="&#x431;" 
d="M197 1075v-157q37 55 91.5 84.5t119.5 29.5q72 0 121 -47t49 -129v-631q0 -109 -71.5 -171t-178.5 -62t-177.5 62t-70.5 171v850q0 62 20 108.5t52 73.5t70.5 46.5t77 35t70.5 33t52 46t20 67.5h95q0 -55 -19 -95t-48.5 -63t-66 -41t-73 -34.5t-66 -36.5t-48.5 -55.5
t-19 -84.5zM197 764v-539q0 -62 37.5 -98.5t93.5 -36.5q57 0 95 36t38 99v604q0 48 -29 76.5t-72 28.5q-70 0 -116.5 -46.5t-46.5 -123.5z" />
    <glyph glyph-name="afii10067" unicode="&#x432;" horiz-adv-x="661" 
d="M96 0v1024h236q102 0 169.5 -59.5t67.5 -163.5v-64q0 -74 -35 -124.5t-94 -73.5q67 -24 106.5 -80t39.5 -135v-88q0 -109 -71.5 -172.5t-178.5 -63.5h-240zM336 487h-123v-389h123q57 0 95 37.5t38 100.5v116q0 63 -38 99t-95 36zM213 586h119q53 0 87 33t34 90v92
q0 58 -34 91.5t-87 33.5h-119v-340z" />
    <glyph glyph-name="afii10068" unicode="&#x433;" horiz-adv-x="559" 
d="M96 0v1024h418v-98h-301v-926h-117z" />
    <glyph glyph-name="afii10069" unicode="&#x434;" horiz-adv-x="780" 
d="M47 -256v354h21q46 0 77 45.5t31 122.5v758h459v-926h98v-354h-117v256h-452v-256h-117zM293 266q0 -109 -53 -168h278v828h-225v-660z" />
    <glyph glyph-name="afii10070" unicode="&#x435;" 
d="M578 475h-381v-250q0 -62 37.5 -98.5t93.5 -36.5q57 0 95 36t38 99v101h117v-101q0 -109 -71.5 -171t-178.5 -62t-177.5 62t-70.5 171v572q0 109 70.5 172t177.5 63t178.5 -63t71.5 -172v-322zM197 797v-224h264v224q0 67 -37 102t-96 35q-57 0 -94 -35t-37 -102z" />
    <glyph glyph-name="afii10072" unicode="&#x436;" horiz-adv-x="1001" 
d="M35 0l225 524l-219 500h123l182 -453h96v453h117v-453h96l181 453h122l-217 -500l226 -524h-123l-189 477h-96v-477h-117v477h-96l-188 -477h-123z" />
    <glyph glyph-name="afii10073" unicode="&#x437;" horiz-adv-x="649" 
d="M324 90q57 0 95 37t38 100v119q0 63 -38 99t-95 36h-101v99h96q58 0 96 36t38 99v82q0 63 -38.5 100t-95.5 37q-54 0 -90 -34.5t-36 -94.5v-107h-117v107q0 105 69.5 166t173.5 61q107 0 178.5 -63t71.5 -172v-54q0 -79 -38 -133t-103 -78q67 -26 106 -81t39 -134v-90
q0 -109 -71 -172t-178 -63q-104 0 -174 62t-70 167v105h117v-105q0 -60 36.5 -95.5t90.5 -35.5z" />
    <glyph glyph-name="afii10074" unicode="&#x438;" horiz-adv-x="694" 
d="M96 0v1024h113v-721h4l272 672v49h113v-1024h-113v721h-2l-274 -672v-49h-113z" />
    <glyph glyph-name="afii10075" unicode="&#x439;" horiz-adv-x="694" 
d="M154 1337h86q0 -52 30 -82t76 -30q48 0 79.5 30t31.5 82h84q0 -86 -56 -137t-139 -51q-82 0 -137 50.5t-55 137.5zM96 0v1024h113v-721h4l272 672v49h113v-1024h-113v721h-2l-274 -672v-49h-113z" />
    <glyph glyph-name="afii10076" unicode="&#x43a;" horiz-adv-x="655" 
d="M96 0v1024h117v-453h96l183 453h122l-219 -500l226 -524h-123l-189 477h-96v-477h-117z" />
    <glyph glyph-name="afii10077" unicode="&#x43b;" horiz-adv-x="708" 
d="M154 258v766h458v-1024h-116v926h-226v-668q0 -123 -63.5 -194.5t-159.5 -71.5v98q46 0 76.5 45.5t30.5 122.5z" />
    <glyph glyph-name="afii10078" unicode="&#x43c;" horiz-adv-x="952" 
d="M96 0v1024h172l205 -874h4l205 874h174v-1024h-108v881h-5l-200 -881h-133l-201 881h-4v-881h-109z" />
    <glyph glyph-name="afii10079" unicode="&#x43d;" horiz-adv-x="692" 
d="M96 0v1024h117v-451h266v451h117v-1024h-117v475h-266v-475h-117z" />
    <glyph glyph-name="afii10080" unicode="&#x43e;" 
d="M328 1032q107 0 178.5 -63t71.5 -172v-572q0 -109 -71.5 -171t-178.5 -62t-177.5 62t-70.5 171v572q0 109 70.5 172t177.5 63zM197 797v-572q0 -62 37.5 -98.5t93.5 -36.5q57 0 95 36t38 99v572q0 63 -38 100t-95 37q-56 0 -93.5 -37t-37.5 -100z" />
    <glyph glyph-name="afii10081" unicode="&#x43f;" horiz-adv-x="692" 
d="M96 0v1024h500v-1024h-117v926h-266v-926h-117z" />
    <glyph glyph-name="afii10082" unicode="&#x440;" horiz-adv-x="673" 
d="M96 -410v1434h117v-106q37 55 91.5 84.5t119.5 29.5q74 0 123 -47t49 -129v-631q0 -109 -65.5 -171t-163.5 -62q-90 0 -154 35v-437h-117zM213 129q51 -39 131 -39q58 0 96.5 36.5t38.5 98.5v604q0 48 -29 76.5t-71 28.5q-71 0 -118.5 -46.5t-47.5 -123.5v-635z" />
    <glyph glyph-name="afii10083" unicode="&#x441;" horiz-adv-x="645" 
d="M197 803v-584q0 -60 35.5 -94.5t89.5 -34.5t90.5 34.5t36.5 94.5v107h116v-107q0 -105 -69.5 -166t-173.5 -61t-173 61t-69 166v584q0 105 69.5 167t172.5 62q104 0 173.5 -62t69.5 -167v-105h-116v105q0 60 -36.5 95.5t-90.5 35.5t-89.5 -35.5t-35.5 -95.5z" />
    <glyph glyph-name="afii10084" unicode="&#x442;" horiz-adv-x="587" 
d="M39 926v98h510v-98h-197v-926h-116v926h-197z" />
    <glyph glyph-name="afii10085" unicode="&#x443;" horiz-adv-x="645" 
d="M74 -410v99h57q78 0 100 94l50 217h-35l-213 1024h121l165 -915h5l168 915h120l-264 -1243q-19 -92 -74 -141.5t-143 -49.5h-57z" />
    <glyph glyph-name="afii10086" unicode="&#x444;" horiz-adv-x="950" 
d="M532 1485v-461h89q107 0 178 -62t71 -171v-555q0 -109 -71 -172.5t-178 -63.5h-89v-410h-116v410h-86q-107 0 -178.5 63.5t-71.5 172.5v555q0 109 71.5 171t178.5 62h86v461h116zM416 926h-86q-57 0 -95 -36t-38 -99v-555q0 -63 38 -100.5t95 -37.5h86v828zM621 926h-89
v-828h89q56 0 94.5 37.5t38.5 100.5v555q0 62 -38.5 98.5t-94.5 36.5z" />
    <glyph glyph-name="afii10087" unicode="&#x445;" 
d="M35 0l219 524l-213 500h123l162 -428h4l164 428h122l-210 -500l217 -524h-123l-170 457h-4l-168 -457h-123z" />
    <glyph glyph-name="afii10088" unicode="&#x446;" horiz-adv-x="739" 
d="M578 -256v256h-482v1024h117v-926h266v926h117v-926h98v-354h-116z" />
    <glyph glyph-name="afii10089" unicode="&#x447;" horiz-adv-x="673" 
d="M461 651v373h117v-1024h-117v496q-35 -54 -90.5 -83.5t-118.5 -29.5q-73 0 -122.5 46.5t-49.5 127.5v467h117v-440q0 -48 28.5 -75.5t71.5 -27.5q71 0 117.5 46t46.5 124z" />
    <glyph glyph-name="afii10090" unicode="&#x448;" horiz-adv-x="1046" 
d="M96 0v1024h117v-926h252v926h117v-926h252v926h116v-1024h-854z" />
    <glyph glyph-name="afii10091" unicode="&#x449;" horiz-adv-x="1095" 
d="M96 0v1024h117v-926h252v926h117v-926h252v926h116v-926h101v-354h-117v256h-838z" />
    <glyph glyph-name="afii10092" unicode="&#x44a;" horiz-adv-x="796" 
d="M231 0v926h-184v98h301v-395h119q107 0 178.5 -62.5t71.5 -171.5v-159q0 -109 -71.5 -172.5t-178.5 -63.5h-236zM348 98h119q56 0 94.5 37.5t38.5 100.5v159q0 62 -38.5 98.5t-94.5 36.5h-119v-432z" />
    <glyph glyph-name="afii10093" unicode="&#x44b;" horiz-adv-x="915" 
d="M96 0v1024h117v-395h119q107 0 178.5 -62.5t71.5 -171.5v-159q0 -109 -71.5 -172.5t-178.5 -63.5h-236zM332 530h-119v-432h119q57 0 95 37.5t38 100.5v159q0 63 -38 99t-95 36zM702 0v1024h117v-1024h-117z" />
    <glyph glyph-name="afii10094" unicode="&#x44c;" horiz-adv-x="661" 
d="M96 0v1024h117v-395h119q107 0 178.5 -62.5t71.5 -171.5v-159q0 -109 -71.5 -172.5t-178.5 -63.5h-236zM332 530h-119v-432h119q57 0 95 37.5t38 100.5v159q0 63 -38 99t-95 36z" />
    <glyph glyph-name="afii10095" unicode="&#x44d;" 
d="M461 475h-246v98h246v224q0 68 -36 102.5t-95 34.5t-96 -35t-37 -102v-99h-117v99q0 109 71.5 172t178.5 63t177.5 -63t70.5 -172v-572q0 -109 -70.5 -171t-177.5 -62t-178.5 62t-71.5 171v101h117v-101q0 -63 38 -99t95 -36t94 36t37 99v250z" />
    <glyph glyph-name="afii10096" unicode="&#x44e;" horiz-adv-x="940" 
d="M96 0v1024h117v-451h149v224q0 109 70.5 172t177.5 63t178.5 -63t71.5 -172v-572q0 -109 -71.5 -171t-178.5 -62t-177.5 62t-70.5 171v250h-149v-475h-117zM479 225q0 -62 37.5 -98.5t93.5 -36.5q57 0 95 36t38 99v572q0 63 -38 100t-95 37q-56 0 -93.5 -37t-37.5 -100
v-572z" />
    <glyph glyph-name="afii10097" unicode="&#x44f;" horiz-adv-x="661" 
d="M61 0l177 434q-72 19 -115 75t-43 140v139q0 109 71.5 172.5t178.5 63.5h235v-1024h-116v416h-115l-154 -416h-119zM330 514h119v412h-119q-57 0 -95 -37.5t-38 -100.5v-139q0 -63 38 -99t95 -36z" />
    <glyph glyph-name="uni0450" unicode="&#x450;" 
d="M420 1155l-252 211l70 70l251 -209zM578 475h-381v-250q0 -62 37.5 -98.5t93.5 -36.5q57 0 95 36t38 99v101h117v-101q0 -109 -71.5 -171t-178.5 -62t-177.5 62t-70.5 171v572q0 109 70.5 172t177.5 63t178.5 -63t71.5 -172v-322zM197 797v-224h264v224q0 67 -37 102
t-96 35q-57 0 -94 -35t-37 -102z" />
    <glyph glyph-name="afii10071" unicode="&#x451;" 
d="M133 1210v191h103v-191h-103zM424 1210v191h102v-191h-102zM578 475h-381v-250q0 -62 37.5 -98.5t93.5 -36.5q57 0 95 36t38 99v101h117v-101q0 -109 -71.5 -171t-178.5 -62t-177.5 62t-70.5 171v572q0 109 70.5 172t177.5 63t178.5 -63t71.5 -172v-322zM197 797v-224
h264v224q0 67 -37 102t-96 35q-57 0 -94 -35t-37 -102z" />
    <glyph glyph-name="afii10099" unicode="&#x452;" horiz-adv-x="718" 
d="M522 -266v1095q0 48 -28.5 76.5t-71.5 28.5q-70 0 -117 -46.5t-47 -123.5v-764h-117v1200h-94v98h94v187h117v-187h264v-98h-264v-282q37 55 91.5 84.5t119.5 29.5q72 0 121 -47t49 -129v-1122q0 -94 -61 -148.5t-152 -54.5q-94 0 -155.5 54.5t-61.5 148.5v106h117v-106
q0 -48 28.5 -76.5t71.5 -28.5q41 0 68.5 28.5t27.5 76.5z" />
    <glyph glyph-name="afii10100" unicode="&#x453;" horiz-adv-x="559" 
d="M188 1155l-69 72l252 211l69 -70zM96 0v1024h418v-98h-301v-926h-117z" />
    <glyph glyph-name="afii10101" unicode="&#x454;" 
d="M477 475h-280v-250q0 -62 37.5 -98.5t93.5 -36.5q57 0 95 36t38 99v101h117v-101q0 -109 -71.5 -171t-178.5 -62t-177.5 62t-70.5 171v572q0 109 70.5 172t177.5 63t178.5 -63t71.5 -172v-99h-117v99q0 67 -37 102t-96 35q-57 0 -94 -35t-37 -102v-224h280v-98z" />
    <glyph glyph-name="afii10102" unicode="&#x455;" horiz-adv-x="645" 
d="M80 326h117v-107q0 -60 35.5 -94.5t89.5 -34.5t90.5 34.5t36.5 94.5v123q0 55 -38 87t-91.5 49t-107.5 37.5t-92 69.5t-38 128v94q0 105 68 165t172 60t172.5 -60t68.5 -165v-109h-117v109q0 59 -35.5 93t-88.5 34t-88 -34t-35 -93v-94q0 -41 20 -68.5t52.5 -43t71.5 -28
t78 -28.5t71.5 -38.5t52.5 -64.5t20 -100v-123q0 -105 -69.5 -166t-173.5 -61t-173 61t-69 166v107z" />
    <glyph glyph-name="afii10103" unicode="&#x456;" horiz-adv-x="309" 
d="M96 0v1024h117v-1024h-117zM96 1241v193h117v-193h-117z" />
    <glyph glyph-name="afii10104" unicode="&#x457;" horiz-adv-x="309" 
d="M-41 1210v191h102v-191h-102zM250 1210v191h102v-191h-102zM96 0v1024h117v-1024h-117z" />
    <glyph glyph-name="afii10105" unicode="&#x458;" horiz-adv-x="309" 
d="M-94 -455v99q35 -15 78 -15q48 0 80 30t32 81v1284h117v-1284q0 -97 -62.5 -153t-156.5 -56q-55 0 -88 14zM96 1241v193h117v-193h-117z" />
    <glyph glyph-name="afii10106" unicode="&#x459;" horiz-adv-x="1060" 
d="M47 -8v98q46 0 76.5 45.5t30.5 122.5v766h458v-440h119q107 0 178.5 -62.5t71.5 -171.5v-114q0 -109 -71.5 -172.5t-178.5 -63.5h-235v926h-226v-668q0 -123 -63.5 -194.5t-159.5 -71.5zM612 98h119q57 0 95 37.5t38 100.5v114q0 63 -38 99t-95 36h-119v-387z" />
    <glyph glyph-name="afii10107" unicode="&#x45a;" horiz-adv-x="1044" 
d="M96 0v1024h117v-440h266v440h117v-440h117q108 0 180 -62.5t72 -171.5v-114q0 -109 -72 -172.5t-180 -63.5h-234v485h-266v-485h-117zM596 98h117q57 0 96 37.5t39 100.5v114q0 62 -38.5 98.5t-96.5 36.5h-117v-387z" />
    <glyph glyph-name="afii10108" unicode="&#x45b;" horiz-adv-x="718" 
d="M47 1200v98h94v187h117v-187h264v-98h-264v-282q37 55 91.5 84.5t119.5 29.5q72 0 121 -47t49 -129v-856h-117v829q0 48 -28.5 76.5t-71.5 28.5q-70 0 -117 -46.5t-47 -123.5v-764h-117v1200h-94z" />
    <glyph glyph-name="afii10109" unicode="&#x45c;" horiz-adv-x="655" 
d="M236 1155l-70 72l252 211l69 -70zM96 0v1024h117v-453h96l183 453h122l-219 -500l226 -524h-123l-189 477h-96v-477h-117z" />
    <glyph glyph-name="uni045D" unicode="&#x45d;" horiz-adv-x="694" 
d="M438 1155l-252 211l70 70l252 -209zM96 0v1024h113v-721h4l272 672v49h113v-1024h-113v721h-2l-274 -672v-49h-113z" />
    <glyph glyph-name="afii10110" unicode="&#x45e;" horiz-adv-x="645" 
d="M129 1337h86q0 -52 30.5 -82t76.5 -30q48 0 79 30t31 82h84q0 -86 -55.5 -137t-138.5 -51q-82 0 -137.5 50.5t-55.5 137.5zM74 -410v99h57q78 0 100 94l50 217h-35l-213 1024h121l165 -915h5l168 915h120l-264 -1243q-19 -92 -74 -141.5t-143 -49.5h-57z" />
    <glyph glyph-name="afii10193" unicode="&#x45f;" horiz-adv-x="692" 
d="M96 0v1024h117v-926h266v926h117v-1024h-190v-256h-117v256h-193z" />
    <glyph glyph-name="afii10050" unicode="&#x490;" horiz-adv-x="577" 
d="M96 0v1434h338v204h98v-303h-319v-1335h-117z" />
    <glyph glyph-name="afii10098" unicode="&#x491;" horiz-adv-x="559" 
d="M96 0v1024h320v205h98v-303h-301v-926h-117z" />
    <glyph glyph-name="uni04D8" unicode="&#x4d8;" horiz-adv-x="645" 
d="M80 219v549h369v444q0 60 -35.5 95.5t-89.5 35.5t-90.5 -35.5t-36.5 -95.5v-188h-117v188q0 105 70 167.5t174 62.5q103 0 172 -62t69 -168v-993q0 -105 -68.5 -166t-172.5 -61t-174 61t-70 166zM324 90q54 0 89.5 34.5t35.5 94.5v451h-252v-451q0 -60 36.5 -94.5
t90.5 -34.5z" />
    <glyph glyph-name="afii10846" unicode="&#x4d9;" 
d="M80 573h381v226q0 63 -37 99t-94 36t-95 -36t-38 -99v-90h-117v90q0 109 71.5 171t178.5 62t177.5 -62t70.5 -171v-572q0 -109 -70.5 -172t-177.5 -63t-178.5 63t-71.5 172v346zM461 227v248h-264v-248q0 -67 37 -102t96 -35t95 34.5t36 102.5z" />
    <glyph glyph-name="Wgrave" unicode="&#x1e80;" horiz-adv-x="1093" 
d="M244 0l-211 1434h121l161 -1297h4l150 1297h154l147 -1297h4l162 1297h121l-209 -1434h-158l-143 1286h-4l-144 -1286h-155zM637 1565l-252 211l70 69l252 -209z" />
    <glyph glyph-name="wgrave" unicode="&#x1e81;" horiz-adv-x="1042" 
d="M229 0l-196 1024h121l151 -913h4l135 913h150l137 -913h4l150 913h121l-197 -1024h-154l-133 903h-4l-135 -903h-154zM610 1155l-252 211l70 70l252 -209z" />
    <glyph glyph-name="Wacute" unicode="&#x1e82;" horiz-adv-x="1093" 
d="M244 0l-211 1434h121l161 -1297h4l150 1297h154l147 -1297h4l162 1297h121l-209 -1434h-158l-143 1286h-4l-144 -1286h-155zM455 1565l-70 71l252 211l70 -69z" />
    <glyph glyph-name="wacute" unicode="&#x1e83;" horiz-adv-x="1042" 
d="M229 0l-196 1024h121l151 -913h4l135 913h150l137 -913h4l150 913h121l-197 -1024h-154l-133 903h-4l-135 -903h-154zM430 1155l-70 72l252 211l70 -70z" />
    <glyph glyph-name="Wdieresis" unicode="&#x1e84;" horiz-adv-x="1093" 
d="M244 0l-211 1434h121l161 -1297h4l150 1297h154l147 -1297h4l162 1297h121l-209 -1434h-158l-143 1286h-4l-144 -1286h-155zM348 1620v190h103v-190h-103zM639 1620v190h102v-190h-102z" />
    <glyph glyph-name="wdieresis" unicode="&#x1e85;" horiz-adv-x="1042" 
d="M229 0l-196 1024h121l151 -913h4l135 913h150l137 -913h4l150 913h121l-197 -1024h-154l-133 903h-4l-135 -903h-154zM324 1210v191h102v-191h-102zM614 1210v191h103v-191h-103z" />
    <glyph glyph-name="Ygrave" unicode="&#x1ef2;" horiz-adv-x="645" 
d="M262 0v477l-229 957h117l169 -764h5l172 764h116l-233 -957v-477h-117zM414 1565l-252 211l69 69l252 -209z" />
    <glyph glyph-name="ygrave" unicode="&#x1ef3;" horiz-adv-x="671" 
d="M80 -164h117v-69q0 -63 38 -100.5t95 -37.5t94 37.5t37 100.5v339q-35 -55 -90 -84.5t-119 -29.5q-74 0 -123 47t-49 129v856h117v-829q0 -49 28.5 -77t71.5 -28q71 0 117.5 46t46.5 124v764h117v-1257q0 -109 -70.5 -172.5t-177.5 -63.5t-178.5 63.5t-71.5 172.5v69z
M426 1155l-252 211l70 70l252 -209z" />
    <glyph glyph-name="figuredash" unicode="&#x2012;" horiz-adv-x="624" 
d="M63 588v98h498v-98h-498z" />
    <glyph glyph-name="endash" unicode="&#x2013;" horiz-adv-x="692" 
d="M63 514v96h566v-96h-566z" />
    <glyph glyph-name="emdash" unicode="&#x2014;" horiz-adv-x="1073" 
d="M63 514v96h947v-96h-947z" />
    <glyph glyph-name="quoteleft" unicode="&#x2018;" horiz-adv-x="299" 
d="M166 1485h96q-6 -15 -15.5 -40.5t-25.5 -91.5t-16 -118v-191h-113v191q0 52 18.5 114.5t37.5 98.5z" />
    <glyph glyph-name="quoteright" unicode="&#x2019;" horiz-adv-x="299" 
d="M133 1044h-98q6 15 15.5 40t25.5 91t16 117v193h113v-193q0 -51 -18 -113t-36 -99z" />
    <glyph glyph-name="quotesinglbase" unicode="&#x201a;" horiz-adv-x="299" 
d="M133 -250h-98q6 15 15.5 40.5t25.5 91.5t16 118v190h113v-190q0 -52 -18 -114.5t-36 -99.5z" />
    <glyph glyph-name="quotedblleft" unicode="&#x201c;" horiz-adv-x="507" 
d="M166 1485h96q-6 -15 -15.5 -40.5t-25.5 -91.5t-16 -118v-191h-113v191q0 52 18.5 114.5t37.5 98.5zM389 1485h98q-7 -15 -16.5 -40.5t-26 -91.5t-16.5 -118v-191h-113v191q0 52 18.5 114.5t36.5 98.5z" />
    <glyph glyph-name="quotedblright" unicode="&#x201d;" horiz-adv-x="507" 
d="M133 1044h-98q6 15 15.5 40t25.5 91t16 117v193h113v-193q0 -51 -18 -113t-36 -99zM356 1044h-98q6 15 15.5 40t25.5 91t16 117v193h113v-193q0 -51 -18 -113t-36 -99z" />
    <glyph glyph-name="quotedblbase" unicode="&#x201e;" horiz-adv-x="507" 
d="M133 -250h-98q6 15 15.5 40.5t25.5 91.5t16 118v190h113v-190q0 -52 -18 -114.5t-36 -99.5zM356 -250h-98q6 15 15.5 40.5t25.5 91.5t16 118v190h113v-190q0 -52 -18 -114.5t-36 -99.5z" />
    <glyph glyph-name="dagger" unicode="&#x2020;" horiz-adv-x="587" 
d="M39 961v98h197v375h116v-375h197v-98h-197v-961h-116v961h-197z" />
    <glyph glyph-name="daggerdbl" unicode="&#x2021;" horiz-adv-x="587" 
d="M549 473v-98h-197v-375h-116v375h-197v98h197v488h-197v98h197v375h116v-375h197v-98h-197v-488h197z" />
    <glyph glyph-name="bullet" unicode="&#x2022;" horiz-adv-x="534" 
d="M84 436v357h369v-357h-369z" />
    <glyph glyph-name="ellipsis" unicode="&#x2026;" horiz-adv-x="784" 
d="M92 0v190h113v-190h-113zM336 0v190h113v-190h-113zM578 0v190h112v-190h-112z" />
    <glyph glyph-name="perthousand" unicode="&#x2030;" horiz-adv-x="1492" 
d="M182 0l568 1434h94l-568 -1434h-94zM92 997v256q0 87 53 138t134 51t135.5 -51t54.5 -138v-256q0 -87 -54.5 -136.5t-135.5 -49.5t-134 49.5t-53 136.5zM176 1253v-256q0 -51 29 -79.5t74 -28.5t75.5 29t30.5 79v256q0 51 -30.5 81t-75.5 30q-44 0 -73.5 -30t-29.5 -81z
M557 178v256q0 87 53 138t135 51q80 0 134.5 -51.5t54.5 -137.5v-256q0 -87 -55 -136.5t-134 -49.5q-82 0 -135 49.5t-53 136.5zM641 434v-256q0 -51 29.5 -79.5t74.5 -28.5q44 0 75.5 29t31.5 79v256q0 50 -31.5 80.5t-75.5 30.5t-74 -30t-30 -81zM1024 178v256
q0 87 53 138t135 51q80 0 134.5 -51.5t54.5 -137.5v-256q0 -87 -55 -136.5t-134 -49.5q-82 0 -135 49.5t-53 136.5zM1108 434v-256q0 -51 29.5 -79.5t74.5 -28.5q44 0 74.5 29t30.5 79v256q0 50 -31 80.5t-74 30.5q-44 0 -74 -30t-30 -81z" />
    <glyph glyph-name="guilsinglleft" unicode="&#x2039;" horiz-adv-x="378" 
d="M330 870l-148 -358l148 -358h-123l-144 358l144 358h123z" />
    <glyph glyph-name="guilsinglright" unicode="&#x203a;" horiz-adv-x="378" 
d="M49 154l148 358l-148 358h123l143 -358l-143 -358h-123z" />
    <glyph glyph-name="fraction" unicode="&#x2044;" horiz-adv-x="813" 
d="M63 0l568 1434h119l-568 -1434h-119z" />
    <glyph glyph-name="Euro" unicode="&#x20ac;" horiz-adv-x="698" 
d="M49 801v96h84v315q0 106 69.5 168t172.5 62q105 0 174 -62t69 -168v-188h-116v188q0 60 -36.5 95.5t-90.5 35.5q-53 0 -89 -35.5t-36 -95.5v-315h368v-96h-368v-152h368v-96h-368v-334q0 -59 36 -94t89 -35q54 0 90.5 34.5t36.5 94.5v191h116v-191q0 -105 -69 -166
t-174 -61q-104 0 -173 61t-69 166v334h-84v96h84v152h-84z" />
    <glyph glyph-name="uni20B4" unicode="&#x20b4;" 
d="M70 795v96h352q37 60 37 133v186q0 61 -36.5 97t-92.5 36t-93.5 -36t-37.5 -97v-186h-117v186q0 107 71.5 169.5t176.5 62.5q106 0 175.5 -62.5t69.5 -169.5v-186q0 -72 -28 -133h41v-96h-107q-22 -25 -48.5 -49.5t-60.5 -54.5t-50 -44h266v-98h-352q-39 -64 -39 -139
v-185q0 -63 38 -99t95 -36t94 36t37 99v185h117v-185q0 -109 -70.5 -171t-177.5 -62t-178.5 62t-71.5 171v185q0 68 31 139h-41v98h112q28 30 86 81t74 67h-272z" />
    <glyph glyph-name="afii61352" unicode="&#x2116;" horiz-adv-x="1169" 
d="M96 0v1434h107l278 -1076h4v1076h113v-1434h-106l-279 1075h-4v-1075h-113zM702 1098v155q0 87 53 138t134 51q79 0 133.5 -51.5t54.5 -137.5v-155q0 -86 -54 -135.5t-134 -49.5q-81 0 -134 49.5t-53 135.5zM784 1253v-155q0 -50 30 -78.5t75 -28.5t75.5 28.5t30.5 78.5
v155q0 51 -30.5 81t-75.5 30q-44 0 -74.5 -30t-30.5 -81z" />
    <glyph glyph-name="trademark" unicode="&#x2122;" horiz-adv-x="589" 
d="M39 1397v57h260v-57h-94v-475h-72v475h-94zM346 922v532h105l96 -442h2l94 442h105v-532h-66v448h-2l-92 -448h-80l-92 448h-2v-448h-68z" />
    <glyph glyph-name="arrowleft" unicode="&#x2190;" horiz-adv-x="2271" 
d="M840 -8l-725 725l725 725l82 -84l-584 -582h1765v-117h-1765l584 -583z" />
    <glyph glyph-name="arrowup" unicode="&#x2191;" horiz-adv-x="1679" 
d="M780 -444v1765l-583 -584l-82 82l725 725l725 -725l-84 -82l-584 584v-1765h-117z" />
    <glyph glyph-name="arrowright" unicode="&#x2192;" horiz-adv-x="2271" 
d="M168 659v117h1767l-583 582l80 84l725 -725l-725 -725l-82 84l585 583h-1767z" />
    <glyph glyph-name="arrowdown" unicode="&#x2193;" horiz-adv-x="1679" 
d="M840 -453l-725 725l82 82l583 -585v1767h117v-1767l584 585l84 -82z" />
    <glyph glyph-name="uni2196" unicode="&#x2196;" horiz-adv-x="1730" 
d="M168 410v1024h1024v-117h-825l1249 -1247l-82 -84l-1249 1249v-825h-117z" />
    <glyph glyph-name="uni2197" unicode="&#x2197;" horiz-adv-x="1730" 
d="M539 1317v117h1024v-1024h-117v825l-1249 -1249l-82 84l1249 1247h-825z" />
    <glyph glyph-name="uni2198" unicode="&#x2198;" horiz-adv-x="1730" 
d="M539 0v117h825l-1249 1247l82 84l1249 -1249v825h117v-1024h-1024z" />
    <glyph glyph-name="uni2199" unicode="&#x2199;" horiz-adv-x="1730" 
d="M168 0v1024h117v-825l1249 1249l82 -84l-1249 -1247h825v-117h-1024z" />
    <glyph glyph-name="minus" unicode="&#x2212;" horiz-adv-x="692" 
d="M63 588v98h566v-98h-566z" />
    <glyph glyph-name="commaaccent" unicode="&#xf6c3;" horiz-adv-x="274" 
d="M190 -205q0 -79 -53 -209h-86q41 126 41 209v144h98v-144z" />
    <glyph glyph-name="dollaroldstyle" unicode="&#xf724;" horiz-adv-x="645" 
d="M262 -205v205q-81 14 -131.5 71t-50.5 148v107h117v-107q0 -60 35.5 -94.5t89.5 -34.5t90.5 34.5t36.5 94.5v123q0 55 -38 87t-91.5 49t-107.5 37.5t-92 69.5t-38 128v94q0 89 49.5 145t130.5 70v207h117v-205q81 -14 132.5 -71t51.5 -146v-109h-117v109q0 59 -35.5 93
t-88.5 34t-88 -34t-35 -93v-94q0 -41 20 -68.5t52.5 -43t71.5 -28t78 -28.5t71.5 -38.5t52.5 -64.5t20 -100v-123q0 -91 -52.5 -148.5t-133.5 -70.5v-205h-117z" />
    <glyph glyph-name="zerooldstyle" unicode="&#xf730;" 
d="M328 1032q107 0 178.5 -63t71.5 -172v-572q0 -109 -71.5 -171t-178.5 -62t-177.5 62t-70.5 171v572q0 109 70.5 172t177.5 63zM197 797v-572q0 -62 37.5 -98.5t93.5 -36.5q57 0 95 36t38 99v572q0 63 -38 100t-95 37q-56 0 -93.5 -37t-37.5 -100z" />
    <glyph glyph-name="oneoldstyle" unicode="&#xf731;" horiz-adv-x="450" 
d="M47 797v112l191 115h116v-1024h-116v911z" />
    <glyph glyph-name="twooldstyle" unicode="&#xf732;" horiz-adv-x="649" 
d="M82 0v178q0 62 20.5 110t53 78t72 55t79.5 47t72.5 47t53 63t20.5 88v131q0 63 -38.5 100t-95.5 37q-54 0 -90 -34.5t-36 -94.5v-107h-117v107q0 105 69.5 166t173.5 61q107 0 178.5 -63t71.5 -172v-131q0 -63 -20.5 -111t-53 -78.5t-72 -55t-79 -46.5t-72 -47t-53 -63
t-20.5 -87v-80h370v-98h-487z" />
    <glyph glyph-name="threeoldstyle" unicode="&#xf733;" horiz-adv-x="649" 
d="M324 -236q57 0 95 37.5t38 100.5v309q0 63 -38 99t-95 36h-101v98h96q57 0 95.5 36.5t38.5 99.5v217q0 63 -38.5 100t-95.5 37q-54 0 -90 -34.5t-36 -94.5v-107h-117v107q0 105 69.5 166t173.5 61q107 0 178.5 -63t71.5 -172v-189q0 -79 -38 -133t-103 -78
q67 -26 106 -81t39 -134v-280q0 -109 -71 -172.5t-178 -63.5q-104 0 -174 61.5t-70 168.5v104h117v-104q0 -61 36.5 -96.5t90.5 -35.5z" />
    <glyph glyph-name="fouroldstyle" unicode="&#xf734;" horiz-adv-x="645" 
d="M47 0v98l320 926h178v-926h53v-98h-53v-307h-113v307h-385zM156 98h276v795h-4z" />
    <glyph glyph-name="fiveoldstyle" unicode="&#xf735;" 
d="M197 301h-117v723h487v-98h-370v-496q76 115 211 115q72 0 121 -47t49 -129v-469q0 -109 -71.5 -171.5t-178.5 -62.5t-177.5 62.5t-70.5 171.5v100h117v-100q0 -63 37.5 -99.5t93.5 -36.5q57 0 95 36.5t38 99.5v442q0 48 -29 76t-72 28q-66 0 -114.5 -45.5t-48.5 -99.5z
" />
    <glyph glyph-name="sixoldstyle" unicode="&#xf736;" 
d="M330 1292q-57 0 -95 -37t-38 -100v-434q76 115 211 115q72 0 121 -48t49 -129v-434q0 -109 -71.5 -171t-178.5 -62t-177.5 62t-70.5 171v930q0 109 71.5 172.5t178.5 63.5q103 0 173 -62.5t70 -167.5v-104h-116v104q0 60 -36.5 95.5t-90.5 35.5zM197 565v-340
q0 -62 37.5 -98.5t93.5 -36.5q57 0 95 36t38 99v408q0 48 -29 76t-72 28q-69 0 -116 -47t-47 -125z" />
    <glyph glyph-name="sevenoldstyle" unicode="&#xf737;" horiz-adv-x="614" 
d="M63 926v98h488v-63l-272 -1268h-121l268 1233h-363z" />
    <glyph glyph-name="eightoldstyle" unicode="&#xf738;" 
d="M328 1391q107 0 178.5 -63.5t71.5 -172.5v-242q0 -74 -34 -127.5t-93 -80.5q59 -27 93 -80.5t34 -126.5v-273q0 -109 -71.5 -171t-178.5 -62t-177.5 62t-70.5 171v273q0 73 33.5 126.5t91.5 80.5q-125 58 -125 208v242q0 109 70.5 172.5t177.5 63.5zM197 1155v-266
q0 -62 37.5 -98.5t93.5 -36.5q57 0 95 36t38 99v266q0 63 -38 100t-95 37q-56 0 -93.5 -37t-37.5 -100zM197 518v-293q0 -62 37.5 -98.5t93.5 -36.5q57 0 95 36t38 99v293q0 63 -38 100t-95 37q-56 0 -93.5 -37t-37.5 -100z" />
    <glyph glyph-name="nineoldstyle" unicode="&#xf739;" 
d="M326 -236q57 0 96 38t39 102v397q-35 -55 -90 -84t-119 -29q-73 0 -122.5 46.5t-49.5 127.5v437q0 109 71.5 171t178.5 62t177.5 -62t70.5 -171v-895q0 -110 -72 -174t-180 -64q-105 0 -175.5 62.5t-70.5 169.5v102h117v-102q0 -61 36.5 -97.5t92.5 -36.5zM461 457v342
q0 63 -37 99t-94 36t-95 -36t-38 -99v-410q0 -48 28.5 -75t71.5 -27q71 0 117.5 46t46.5 124z" />
    <glyph glyph-name="afii10019.smcp" horiz-adv-x="661" 
d="M96 0v1065h236q107 0 178.5 -63.5t71.5 -172.5v-59q0 -77 -38.5 -132t-103.5 -79q67 -24 106.5 -80t39.5 -135v-108q0 -109 -71.5 -172.5t-178.5 -63.5h-240zM336 508h-123v-410h123q57 0 95 37.5t38 100.5v137q0 63 -38 99t-95 36zM213 606h119q57 0 95 36t38 99v88
q0 63 -38 100.5t-95 37.5h-119v-361z" />
    <glyph glyph-name="afii10020.smcp" horiz-adv-x="579" 
d="M96 0v1065h436v-98h-319v-967h-117z" />
    <glyph glyph-name="afii10021.smcp" horiz-adv-x="780" 
d="M47 -256v354h21q46 0 77 45.5t31 122.5v799h459v-967h98v-354h-117v256h-452v-256h-117zM293 266q0 -109 -53 -168h278v869h-225v-701z" />
    <glyph glyph-name="afii10022.smcp" horiz-adv-x="630" 
d="M96 0v1065h455v-98h-338v-367h297v-98h-297v-404h338v-98h-455z" />
    <glyph glyph-name="afii10023.smcp" horiz-adv-x="630" 
d="M131 1210v191h102v-191h-102zM422 1210v191h102v-191h-102zM96 0v1065h455v-98h-338v-367h297v-98h-297v-404h338v-98h-455z" />
    <glyph glyph-name="afii10024.smcp" horiz-adv-x="1001" 
d="M35 0l225 545l-219 520h123l182 -473h96v473h117v-473h96l181 473h122l-217 -520l226 -545h-123l-189 498h-96v-498h-117v498h-96l-188 -498h-123z" />
    <glyph glyph-name="afii10025.smcp" horiz-adv-x="649" 
d="M324 90q57 0 95 37t38 100v146q0 63 -38 99t-95 36h-105v98h100q58 0 96 36t38 99v97q0 63 -38.5 100t-95.5 37q-54 0 -90 -34.5t-36 -94.5v-107h-117v107q0 105 69.5 166t173.5 61q107 0 178.5 -63t71.5 -172v-68q0 -77 -38 -132t-103 -79q67 -24 106 -79.5t39 -135.5
v-117q0 -109 -71 -172t-178 -63q-104 0 -174 62t-70 167v105h117v-105q0 -60 36.5 -95.5t90.5 -35.5z" />
    <glyph glyph-name="afii10026.smcp" horiz-adv-x="694" 
d="M96 0v1065h113v-756h4l272 707v49h113v-1065h-113v756h-2l-274 -707v-49h-113z" />
    <glyph glyph-name="afii10027.smcp" horiz-adv-x="694" 
d="M156 1337h86q0 -52 30 -82t76 -30q48 0 79.5 30t31.5 82h84q0 -86 -56 -137t-139 -51q-82 0 -137 50.5t-55 137.5zM96 0v1065h113v-756h4l272 707v49h113v-1065h-113v756h-2l-274 -707v-49h-113z" />
    <glyph glyph-name="afii10028.smcp" horiz-adv-x="655" 
d="M96 0v1065h117v-473h96l183 473h122l-219 -520l226 -545h-123l-189 498h-96v-498h-117z" />
    <glyph glyph-name="afii10029.smcp" horiz-adv-x="708" 
d="M154 258v807h458v-1065h-116v967h-226v-709q0 -123 -63.5 -194.5t-159.5 -71.5v98q46 0 76.5 45.5t30.5 122.5z" />
    <glyph glyph-name="afii10030.smcp" horiz-adv-x="952" 
d="M96 0v1065h172l205 -915h4l205 915h174v-1065h-108v922h-5l-200 -922h-133l-201 922h-4v-922h-109z" />
    <glyph glyph-name="afii10031.smcp" horiz-adv-x="692" 
d="M96 0v1065h117v-465h266v465h117v-1065h-117v502h-266v-502h-117z" />
    <glyph glyph-name="afii10032.smcp" 
d="M328 1073q107 0 178.5 -63t71.5 -172v-613q0 -109 -71.5 -171t-178.5 -62t-177.5 62t-70.5 171v613q0 109 70.5 172t177.5 63zM197 838v-613q0 -62 37.5 -98.5t93.5 -36.5q57 0 95 36t38 99v613q0 63 -38 100t-95 37q-56 0 -93.5 -37t-37.5 -100z" />
    <glyph glyph-name="afii10033.smcp" horiz-adv-x="692" 
d="M96 0v1065h500v-1065h-117v967h-266v-967h-117z" />
    <glyph glyph-name="afii10034.smcp" horiz-adv-x="661" 
d="M96 0v1065h236q107 0 178.5 -63.5t71.5 -172.5v-192q0 -109 -71.5 -171.5t-178.5 -62.5h-119v-403h-117zM213 502h119q57 0 95 36t38 99v192q0 63 -38 100.5t-95 37.5h-119v-465z" />
    <glyph glyph-name="afii10018.smcp" horiz-adv-x="661" 
d="M96 0v1065h461v-98h-344v-297h119q107 0 178.5 -62.5t71.5 -171.5v-200q0 -109 -71.5 -172.5t-178.5 -63.5h-236zM332 571h-119v-473h119q57 0 95 37.5t38 100.5v200q0 63 -38 99t-95 36z" />
    <glyph glyph-name="afii10036.smcp" horiz-adv-x="587" 
d="M39 967v98h510v-98h-197v-967h-116v967h-197z" />
    <glyph glyph-name="afii10037.smcp" horiz-adv-x="608" 
d="M86 0v98h57q78 0 101 95l18 75h-35l-194 797h121l147 -688h4l152 688h118l-213 -875q-46 -190 -219 -190h-57z" />
    <glyph glyph-name="afii10038.smcp" horiz-adv-x="950" 
d="M532 1065v-168h89q107 0 178 -62t71 -171v-261q0 -109 -71 -172t-178 -63h-89v-168h-116v168h-86q-107 0 -178.5 63t-71.5 172v261q0 109 71.5 171t178.5 62h86v168h116zM416 799h-86q-57 0 -95 -37t-38 -98v-261q0 -63 38 -100t95 -37h86v533zM621 799h-89v-533h89
q56 0 94.5 37.5t38.5 99.5v261q0 61 -38.5 98t-94.5 37z" />
    <glyph glyph-name="afii10039.smcp" 
d="M35 0l219 545l-213 520h123l162 -449h4l164 449h122l-210 -520l217 -545h-123l-170 477h-4l-168 -477h-123z" />
    <glyph glyph-name="afii10040.smcp" horiz-adv-x="739" 
d="M578 -256v256h-482v1065h117v-967h266v967h117v-967h98v-354h-116z" />
    <glyph glyph-name="afii10041.smcp" horiz-adv-x="673" 
d="M461 672v393h117v-1065h-117v516q-35 -54 -90.5 -83.5t-118.5 -29.5q-73 0 -122.5 47t-49.5 128v487h117v-461q0 -48 28.5 -75t71.5 -27q71 0 117.5 46t46.5 124z" />
    <glyph glyph-name="afii10042.smcp" horiz-adv-x="1046" 
d="M96 0v1065h117v-967h252v967h117v-967h252v967h116v-1065h-854z" />
    <glyph glyph-name="afii10043.smcp" horiz-adv-x="1095" 
d="M96 0v1065h117v-967h252v967h117v-967h252v967h116v-967h101v-354h-117v256h-838z" />
    <glyph glyph-name="afii10044.smcp" horiz-adv-x="800" 
d="M236 0v967h-189v98h305v-395h119q107 0 178.5 -62.5t71.5 -171.5v-200q0 -109 -71.5 -172.5t-178.5 -63.5h-235zM352 98h119q57 0 95 37.5t38 100.5v200q0 63 -38 99t-95 36h-119v-473z" />
    <glyph glyph-name="afii10045.smcp" horiz-adv-x="915" 
d="M96 0v1065h117v-395h119q107 0 178.5 -62.5t71.5 -171.5v-200q0 -109 -71.5 -172.5t-178.5 -63.5h-236zM332 571h-119v-473h119q57 0 95 37.5t38 100.5v200q0 63 -38 99t-95 36zM702 0v1065h117v-1065h-117z" />
    <glyph glyph-name="afii10046.smcp" horiz-adv-x="661" 
d="M96 0v1065h117v-395h119q107 0 178.5 -62.5t71.5 -171.5v-200q0 -109 -71.5 -172.5t-178.5 -63.5h-236zM332 571h-119v-473h119q57 0 95 37.5t38 100.5v200q0 63 -38 99t-95 36z" />
    <glyph glyph-name="afii10047.smcp" 
d="M461 496h-258v98h258v244q0 68 -36 102.5t-95 34.5t-96 -35t-37 -102v-99h-117v99q0 109 71.5 172t178.5 63t177.5 -63t70.5 -172v-613q0 -109 -70.5 -171t-177.5 -62t-178.5 62t-71.5 171v101h117v-101q0 -63 38 -99t95 -36t94 36t37 99v271z" />
    <glyph glyph-name="afii10048.smcp" horiz-adv-x="940" 
d="M96 0v1065h117v-471h149v244q0 109 70.5 172t177.5 63t178.5 -63t71.5 -172v-613q0 -109 -71.5 -171t-178.5 -62t-177.5 62t-70.5 171v271h-149v-496h-117zM479 838v-613q0 -62 37.5 -98.5t93.5 -36.5q57 0 95 36t38 99v613q0 63 -38 100t-95 37q-56 0 -93.5 -37
t-37.5 -100z" />
    <glyph glyph-name="afii10049.smcp" horiz-adv-x="661" 
d="M61 0l177 455q-72 19 -115 75t-43 140v159q0 109 71.5 172.5t178.5 63.5h235v-1065h-116v436h-115l-154 -436h-119zM330 535h119v432h-119q-57 0 -95 -37.5t-38 -100.5v-159q0 -63 38 -99t95 -36z" />
    <glyph glyph-name="afii10050.smcp" horiz-adv-x="577" 
d="M96 0v1065h338v205h98v-303h-319v-967h-117z" />
    <glyph glyph-name="afii10051.smcp" horiz-adv-x="815" 
d="M618 -266v758q0 48 -29 76t-71 28q-71 0 -118.5 -46.5t-47.5 -123.5v-426h-116v967h-197v98h510v-98h-197v-387q37 55 91.5 84.5t119.5 29.5q74 0 123 -47t49 -129v-784q0 -94 -61.5 -148.5t-153.5 -54.5q-94 0 -155.5 54.5t-61.5 148.5v106h117v-106q0 -48 28.5 -76.5
t71.5 -28.5q41 0 69.5 28.5t28.5 76.5z" />
    <glyph glyph-name="afii10052.smcp" horiz-adv-x="579" 
d="M225 1155l-69 72l252 211l69 -70zM96 0v1065h436v-98h-319v-967h-117z" />
    <glyph glyph-name="afii10017.smcp" horiz-adv-x="645" 
d="M399 1065l213 -1065h-120l-56 299h-231l-53 -299h-121l213 1065h155zM322 956l-105 -559h209l-100 559h-4z" />
    <glyph glyph-name="six.fitted.smcp" 
d="M330 975q-57 0 -95 -37t-38 -100v-310q76 115 211 115q72 0 121 -47t49 -129v-242q0 -109 -71.5 -171t-178.5 -62t-177.5 62t-70.5 171v613q0 109 71.5 172t178.5 63q104 0 173.5 -62t69.5 -167v-105h-116v105q0 60 -36.5 95.5t-90.5 35.5zM197 375v-150
q0 -62 37.5 -98.5t93.5 -36.5q57 0 95 36t38 99v215q0 48 -29 76.5t-72 28.5q-70 0 -116.5 -46.5t-46.5 -123.5z" />
    <glyph glyph-name="IJ.smcp" horiz-adv-x="661" 
d="M96 344h117v-123q0 -60 36.5 -95.5t90.5 -35.5t89.5 35.5t35.5 95.5v844h117v-844q0 -105 -69.5 -167t-172.5 -62q-104 0 -174 62t-70 167v123zM96 492v573h117v-573h-117z" />
    <glyph glyph-name="J.smcp" horiz-adv-x="645" 
d="M80 344h117v-123q0 -60 36.5 -95.5t90.5 -35.5t89.5 35.5t35.5 95.5v844h116v-844q0 -106 -69 -167.5t-172 -61.5q-104 0 -174 62t-70 167v123z" />
    <glyph glyph-name="K.smcp" horiz-adv-x="655" 
d="M96 0v1065h117v-473h96l183 473h122l-219 -520l226 -545h-123l-189 498h-96v-498h-117z" />
    <glyph glyph-name="L.smcp" horiz-adv-x="585" 
d="M96 0v1065h117v-967h328v-98h-445z" />
    <glyph glyph-name="afii10035.smcp" horiz-adv-x="645" 
d="M197 844v-625q0 -60 35.5 -94.5t89.5 -34.5t90.5 34.5t36.5 94.5v107h116v-107q0 -105 -69.5 -166t-173.5 -61t-173 61t-69 166v625q0 105 69.5 167t172.5 62q104 0 173.5 -62t69.5 -167v-105h-116v105q0 60 -36.5 95.5t-90.5 35.5t-89.5 -35.5t-35.5 -95.5z" />
    <glyph glyph-name="afii10062.smcp" horiz-adv-x="608" 
d="M111 1337h86q0 -52 30 -82t76 -30q48 0 79.5 30t31.5 82h84q0 -86 -56 -137t-139 -51q-82 0 -137 50.5t-55 137.5zM86 0v98h57q78 0 101 95l18 75h-35l-194 797h121l147 -688h4l152 688h118l-213 -875q-46 -190 -219 -190h-57z" />
    <glyph glyph-name="afii10145.smcp" horiz-adv-x="692" 
d="M96 0v1065h117v-967h266v967h117v-1065h-190v-256h-117v256h-193z" />
    <glyph glyph-name="uni0400.smcp" horiz-adv-x="630" 
d="M414 1155l-252 211l69 70l252 -209zM96 0v1065h455v-98h-338v-367h297v-98h-297v-404h338v-98h-455z" />
    <glyph glyph-name="uni040D.smcp" horiz-adv-x="694" 
d="M442 1155l-252 211l70 70l252 -209zM96 0v1065h113v-756h4l272 707v49h113v-1065h-113v756h-2l-274 -707v-49h-113z" />
    <glyph glyph-name="uni04D8.smcp" horiz-adv-x="645" 
d="M80 219v365h369v260q0 60 -35.5 95.5t-89.5 35.5t-90.5 -35.5t-36.5 -95.5v-105h-117v105q0 105 70 167t174 62q103 0 172 -61.5t69 -167.5v-625q0 -105 -68.5 -166t-172.5 -61t-174 61t-70 166zM324 90q54 0 89.5 34.5t35.5 94.5v266h-252v-266q0 -60 36.5 -94.5
t90.5 -34.5z" />
    <glyph glyph-name="quoteright_afii10056.smcp" horiz-adv-x="491" 
d="M35 1044q6 15 15.5 40t25.5 91t16 117v193h113v-193q0 -51 -18 -113t-36 -99l-18 -36h-98zM279 0v1065h116v-1065h-116zM434 1210v191h103v-191h-103z" />
    <glyph glyph-name="afii10056_afii10056.smcp" horiz-adv-x="626" 
d="M96 0v1065h117v-1065h-117zM-41 1210v191h102v-191h-102zM264 1210v191h101v-191h-101zM414 0v1065h116v-1065h-116zM569 1210v191h103v-191h-103z" />
    <glyph glyph-name="five.fitted.smcp" 
d="M197 492h-117v573h487v-98h-370v-346q37 55 91.5 84.5t119.5 29.5q72 0 121 -47t49 -129v-334q0 -109 -71.5 -171t-178.5 -62t-177.5 62t-70.5 171v101h117v-101q0 -62 37.5 -98.5t93.5 -36.5q57 0 95 36t38 99v307q0 48 -29 76.5t-72 28.5q-66 0 -114.5 -45.5
t-48.5 -99.5z" />
    <glyph glyph-name="four.fitted.smcp" 
d="M47 201v98l332 766h180v-766h53v-98h-53v-201h-113v201h-399zM156 299h290v635h-4z" />
    <glyph glyph-name="three.fitted.smcp" 
d="M326 90q57 0 96 37t39 100v135q0 63 -38.5 99.5t-96.5 36.5h-101v98h97q56 0 95.5 41.5t39.5 105.5v95q0 63 -39 100t-96 37q-54 0 -90.5 -34.5t-36.5 -94.5v-107h-117v107q0 105 70 166t174 61q108 0 179.5 -63t71.5 -172v-78q0 -77 -39 -132t-104 -79q67 -24 107.5 -80
t40.5 -135v-107q0 -109 -72.5 -172t-179.5 -63q-104 0 -174 62t-70 167v105h117v-105q0 -60 36.5 -95.5t90.5 -35.5z" />
    <glyph glyph-name="two.fitted.smcp" 
d="M84 0v199q0 62 20.5 110t53.5 78t72.5 54.5t79.5 46.5t73 47t53.5 63t20.5 88v152q0 63 -38 100t-95 37q-54 0 -90.5 -34.5t-36.5 -94.5v-107h-117v107q0 105 70 166t174 61q107 0 178 -63t71 -172v-152q0 -63 -20.5 -111t-53.5 -78.5t-72.5 -55t-79 -46.5t-72.5 -46.5
t-53.5 -62.5t-20.5 -87v-101h372v-98h-489z" />
    <glyph glyph-name="M.smcp" horiz-adv-x="952" 
d="M96 0v1065h172l205 -915h4l205 915h174v-1065h-108v922h-5l-200 -922h-133l-201 922h-4v-922h-109z" />
    <glyph glyph-name="zero.fitted.smcp" 
d="M328 1073q107 0 178.5 -63t71.5 -172v-613q0 -109 -71.5 -171t-178.5 -62t-177.5 62t-70.5 171v613q0 109 70.5 172t177.5 63zM197 838v-613q0 -62 37.5 -98.5t93.5 -36.5q57 0 95 36t38 99v613q0 63 -38 100t-95 37q-56 0 -93.5 -37t-37.5 -100z" />
    <glyph glyph-name="nine.smcp" 
d="M326 90q57 0 96 38t39 101v308q-35 -55 -90 -84t-119 -29q-73 0 -122.5 46.5t-49.5 127.5v242q0 109 71.5 171t178.5 62t177.5 -62t70.5 -171v-611q0 -109 -72 -173t-180 -64q-105 0 -175.5 62t-70.5 169v103h117v-103q0 -61 36.5 -97t92.5 -36zM461 692v148q0 63 -37 99
t-94 36t-95 -36t-38 -99v-215q0 -48 28.5 -75.5t71.5 -27.5q71 0 117.5 46t46.5 124z" />
    <glyph glyph-name="eight.smcp" 
d="M328 1073q107 0 178.5 -63t71.5 -172v-82q0 -75 -34 -128t-93 -79q59 -29 93 -82.5t34 -126.5v-115q0 -109 -71.5 -171t-178.5 -62t-177.5 62t-70.5 171v115q0 73 33 126.5t92 82.5q-58 25 -91.5 78.5t-33.5 128.5v82q0 109 70.5 172t177.5 63zM197 838v-107
q0 -62 37.5 -98.5t93.5 -36.5q57 0 95 36t38 99v107q0 63 -38 100t-95 37q-56 0 -93.5 -37t-37.5 -100zM197 360v-135q0 -62 37.5 -98.5t93.5 -36.5q57 0 95 36t38 99v135q0 63 -38 100.5t-95 37.5q-56 0 -93.5 -37.5t-37.5 -100.5z" />
    <glyph glyph-name="seven.smcp" horiz-adv-x="614" 
d="M63 967v98h488v-64l-272 -1001h-117l264 967h-363z" />
    <glyph glyph-name="six.smcp" 
d="M330 975q-57 0 -95 -37t-38 -100v-310q76 115 211 115q72 0 121 -47t49 -129v-242q0 -109 -71.5 -171t-178.5 -62t-177.5 62t-70.5 171v613q0 109 71.5 172t178.5 63q104 0 173.5 -62t69.5 -167v-105h-116v105q0 60 -36.5 95.5t-90.5 35.5zM197 375v-150
q0 -62 37.5 -98.5t93.5 -36.5q57 0 95 36t38 99v215q0 48 -29 76.5t-72 28.5q-70 0 -116.5 -46.5t-46.5 -123.5z" />
    <glyph glyph-name="five.smcp" 
d="M197 492h-117v573h487v-98h-370v-346q37 55 91.5 84.5t119.5 29.5q72 0 121 -47t49 -129v-334q0 -109 -71.5 -171t-178.5 -62t-177.5 62t-70.5 171v101h117v-101q0 -62 37.5 -98.5t93.5 -36.5q57 0 95 36t38 99v307q0 48 -29 76.5t-72 28.5q-66 0 -114.5 -45.5
t-48.5 -99.5z" />
    <glyph glyph-name="four.smcp" horiz-adv-x="645" 
d="M47 201v98l320 766h178v-766h53v-98h-53v-201h-113v201h-385zM156 299h276v635h-4z" />
    <glyph glyph-name="three.smcp" horiz-adv-x="649" 
d="M324 90q57 0 95 37t38 100v135q0 63 -38 99.5t-95 36.5h-101v98h96q58 0 96 36t38 99v107q0 63 -38.5 100t-95.5 37q-54 0 -90 -34.5t-36 -94.5v-107h-117v107q0 105 69.5 166t173.5 61q107 0 178.5 -63t71.5 -172v-78q0 -77 -38 -132t-103 -79q67 -24 106 -79.5
t39 -135.5v-107q0 -109 -71 -172t-178 -63q-104 0 -174 62t-70 167v105h117v-105q0 -60 36.5 -95.5t90.5 -35.5z" />
    <glyph glyph-name="two.smcp" horiz-adv-x="649" 
d="M82 0v199q0 62 20.5 110t53 78t72 54.5t79.5 46.5t72.5 47t53 63t20.5 88v152q0 63 -38.5 100t-95.5 37q-54 0 -90 -34.5t-36 -94.5v-107h-117v107q0 105 69.5 166t173.5 61q107 0 178.5 -63t71.5 -172v-152q0 -63 -20.5 -111t-53 -78.5t-72 -55t-79 -46.5t-72 -46.5
t-53 -62.5t-20.5 -87v-101h370v-98h-487z" />
    <glyph glyph-name="one.smcp" horiz-adv-x="450" 
d="M47 838v112l191 115h116v-1065h-116v952z" />
    <glyph glyph-name="zero.smcp" 
d="M328 1073q107 0 178.5 -63t71.5 -172v-613q0 -109 -71.5 -171t-178.5 -62t-177.5 62t-70.5 171v613q0 109 70.5 172t177.5 63zM197 838v-613q0 -62 37.5 -98.5t93.5 -36.5q57 0 95 36t38 99v613q0 63 -38 100t-95 37q-56 0 -93.5 -37t-37.5 -100z" />
    <glyph glyph-name="N.smcp" horiz-adv-x="694" 
d="M96 0v1065h103l282 -782h4v782h113v-1065h-102l-283 782h-4v-782h-113z" />
    <glyph glyph-name="afii10061.smcp" horiz-adv-x="655" 
d="M244 1155l-70 72l252 211l70 -70zM96 0v1065h117v-473h96l183 473h122l-219 -520l226 -545h-123l-189 498h-96v-498h-117z" />
    <glyph glyph-name="afii10060.smcp" horiz-adv-x="815" 
d="M352 426v-426h-116v967h-197v98h510v-98h-197v-387q37 55 91.5 84.5t119.5 29.5q74 0 123 -47t49 -129v-518h-117v492q0 48 -29 76t-71 28q-71 0 -118.5 -46.5t-47.5 -123.5z" />
    <glyph glyph-name="afii10059.smcp" horiz-adv-x="1044" 
d="M96 0v1065h117v-465h266v465h117v-465h117q109 0 180.5 -62t71.5 -171v-131q0 -109 -72 -172.5t-180 -63.5h-234v502h-266v-502h-117zM596 98h117q57 0 96 37.5t39 100.5v131q0 62 -38.5 98.5t-96.5 36.5h-117v-404z" />
    <glyph glyph-name="afii10058.smcp" horiz-adv-x="1060" 
d="M47 -8v98q46 0 76.5 45.5t30.5 122.5v807h458v-465h119q107 0 178.5 -62t71.5 -171v-131q0 -109 -71.5 -172.5t-178.5 -63.5h-235v967h-226v-709q0 -123 -63.5 -194.5t-159.5 -71.5zM612 98h119q57 0 95 37.5t38 100.5v131q0 63 -38 99t-95 36h-119v-404z" />
    <glyph glyph-name="afii10057.smcp" horiz-adv-x="645" 
d="M80 344h117v-123q0 -60 36.5 -95.5t90.5 -35.5t89.5 35.5t35.5 95.5v844h116v-844q0 -106 -69 -167.5t-172 -61.5q-104 0 -174 62t-70 167v123z" />
    <glyph glyph-name="afii10056.smcp" horiz-adv-x="309" 
d="M-39 1210v191h102v-191h-102zM252 1210v191h102v-191h-102zM96 0v1065h117v-1065h-117z" />
    <glyph glyph-name="afii10055.smcp" horiz-adv-x="309" 
d="M96 0v1065h117v-1065h-117z" />
    <glyph glyph-name="afii10054.smcp" horiz-adv-x="645" 
d="M80 326h117v-107q0 -60 35.5 -94.5t89.5 -34.5t90.5 34.5t36.5 94.5v143q0 55 -38 87t-91.5 49t-107.5 37.5t-92 69.5t-38 128v115q0 105 68 165t172 60t172.5 -60t68.5 -165v-109h-117v109q0 59 -35.5 93t-88.5 34t-88 -34t-35 -93v-115q0 -41 20 -68.5t52.5 -43
t71.5 -28t78 -28.5t71.5 -38.5t52.5 -64.5t20 -100v-143q0 -105 -69.5 -166t-173.5 -61t-173 61t-69 166v107z" />
    <glyph glyph-name="afii10053.smcp" 
d="M502 496h-305v-271q0 -62 37.5 -98.5t93.5 -36.5q57 0 95 36t38 99v101h117v-101q0 -109 -71.5 -171t-178.5 -62t-177.5 62t-70.5 171v613q0 109 70.5 172t177.5 63t178.5 -63t71.5 -172v-99h-117v99q0 67 -37 102t-96 35q-57 0 -94 -35t-37 -102v-244h305v-98z" />
    <glyph glyph-name="Lslash.smcp" horiz-adv-x="585" 
d="M47 279v122l49 50v614h117v-498l178 178v-122l-178 -179v-346h328v-98h-445v328z" />
    <glyph glyph-name="Q.smcp" 
d="M270 -31v31q-86 14 -138 72.5t-52 152.5v613q0 109 70.5 172t177.5 63t178.5 -63t71.5 -172v-613q0 -93 -53 -152t-138 -73v-31q0 -62 37.5 -98.5t93.5 -36.5h60v-98h-60q-107 0 -177.5 62t-70.5 171zM197 838v-613q0 -62 37.5 -98.5t93.5 -36.5q57 0 95 36t38 99v613
q0 63 -38 100t-95 37q-56 0 -93.5 -37t-37.5 -100z" />
    <glyph glyph-name="P.smcp" horiz-adv-x="661" 
d="M96 0v1065h236q107 0 178.5 -63.5t71.5 -172.5v-192q0 -109 -71.5 -171.5t-178.5 -62.5h-119v-403h-117zM213 502h119q57 0 95 36t38 99v192q0 63 -38 100.5t-95 37.5h-119v-465z" />
    <glyph glyph-name="R.smcp" horiz-adv-x="661" 
d="M494 0l-164 440h-117v-440h-117v1065h236q107 0 178.5 -63.5t71.5 -172.5v-155q0 -82 -41.5 -135.5t-110.5 -73.5l184 -465h-120zM213 539h119q57 0 95 36t38 99v155q0 63 -38 100.5t-95 37.5h-119v-428z" />
    <glyph glyph-name="S.smcp" horiz-adv-x="645" 
d="M80 326h117v-107q0 -60 35.5 -94.5t89.5 -34.5t90.5 34.5t36.5 94.5v143q0 55 -38 87t-91.5 49t-107.5 37.5t-92 69.5t-38 128v115q0 105 68 165t172 60t172.5 -60t68.5 -165v-109h-117v109q0 59 -35.5 93t-88.5 34t-88 -34t-35 -93v-115q0 -41 20 -68.5t52.5 -43
t71.5 -28t78 -28.5t71.5 -38.5t52.5 -64.5t20 -100v-143q0 -105 -69.5 -166t-173.5 -61t-173 61t-69 166v107z" />
    <glyph glyph-name="O.smcp" 
d="M328 1073q107 0 178.5 -63t71.5 -172v-613q0 -109 -71.5 -171t-178.5 -62t-177.5 62t-70.5 171v613q0 109 70.5 172t177.5 63zM197 838v-613q0 -62 37.5 -98.5t93.5 -36.5q57 0 95 36t38 99v613q0 63 -38 100t-95 37q-56 0 -93.5 -37t-37.5 -100z" />
    <glyph glyph-name="Eng.smcp" horiz-adv-x="694" 
d="M485 -266v289l-272 759h-4v-782h-113v1065h103l282 -782h4v782h113v-1331q0 -94 -60 -148.5t-151 -54.5q-93 0 -155 54.5t-62 148.5v106h117v-106q0 -48 29 -76.5t71 -28.5t70 28.5t28 76.5z" />
    <glyph glyph-name="nine.fitted" 
d="M326 90q57 0 96 38t39 101v430q-35 -54 -90 -83t-119 -29q-73 0 -122.5 46.5t-49.5 127.5v436q0 109 71.5 171.5t178.5 62.5t177.5 -62.5t70.5 -171.5v-928q0 -109 -72 -173t-180 -64q-105 0 -175.5 62t-70.5 169v148h117v-148q0 -61 36.5 -97t92.5 -36zM461 815v342
q0 63 -37 99t-94 36t-95 -36t-38 -99v-409q0 -48 28.5 -75.5t71.5 -27.5q71 0 117.5 46t46.5 124z" />
    <glyph glyph-name="eight.fitted" 
d="M328 1391q107 0 178.5 -63.5t71.5 -172.5v-242q0 -74 -34 -127.5t-93 -80.5q59 -27 93 -80.5t34 -126.5v-273q0 -109 -71.5 -171t-178.5 -62t-177.5 62t-70.5 171v273q0 73 33.5 126.5t91.5 80.5q-125 58 -125 208v242q0 109 70.5 172.5t177.5 63.5zM197 1155v-266
q0 -62 37.5 -98.5t93.5 -36.5q57 0 95 36t38 99v266q0 63 -38 100t-95 37q-56 0 -93.5 -37t-37.5 -100zM197 518v-293q0 -62 37.5 -98.5t93.5 -36.5q57 0 95 36t38 99v293q0 63 -38 100t-95 37q-56 0 -93.5 -37t-37.5 -100z" />
    <glyph glyph-name="seven.fitted" 
d="M63 1284v98h533v-63l-305 -1319h-121l301 1284h-408z" />
    <glyph glyph-name="six.fitted" 
d="M330 1292q-57 0 -95 -37t-38 -100v-434q76 115 211 115q72 0 121 -48t49 -129v-434q0 -109 -71.5 -171t-178.5 -62t-177.5 62t-70.5 171v930q0 109 71.5 172.5t178.5 63.5q103 0 173 -62.5t70 -167.5v-149h-116v149q0 60 -36.5 95.5t-90.5 35.5zM197 565v-340
q0 -62 37.5 -98.5t93.5 -36.5q57 0 95 36t38 99v408q0 48 -29 76t-72 28q-69 0 -116 -47t-47 -125z" />
    <glyph glyph-name="five.fitted" 
d="M197 643h-117v739h487v-98h-370v-512q76 115 211 115q72 0 121 -47.5t49 -128.5v-486q0 -109 -71.5 -171t-178.5 -62t-177.5 62t-70.5 171v146h117v-146q0 -62 37.5 -98.5t93.5 -36.5q57 0 95 36t38 99v459q0 48 -29 76t-72 28q-66 0 -114.5 -45.5t-48.5 -99.5z" />
    <glyph glyph-name="four.fitted" 
d="M47 274v99l332 1009h180v-1009h53v-99h-53v-274h-113v274h-399zM156 373h290v878h-4z" />
    <glyph glyph-name="three.fitted" 
d="M326 90q57 0 96 37t39 100v310q0 62 -38.5 98.5t-96.5 36.5h-101v98h97q58 0 96.5 36.5t38.5 98.5v250q0 63 -39 100t-96 37q-54 0 -90.5 -34.5t-36.5 -94.5v-151h-117v151q0 105 70 166.5t174 61.5q108 0 179.5 -63.5t71.5 -172.5v-221q0 -77 -39 -132t-104 -79
q67 -24 107.5 -80t40.5 -135v-281q0 -109 -72.5 -172t-179.5 -63q-104 0 -174 62t-70 167v150h117v-150q0 -60 36.5 -95.5t90.5 -35.5z" />
    <glyph glyph-name="zero.taboldstyle" 
d="M328 1032q107 0 178.5 -63t71.5 -172v-572q0 -109 -71.5 -171t-178.5 -62t-177.5 62t-70.5 171v572q0 109 70.5 172t177.5 63zM197 797v-572q0 -62 37.5 -98.5t93.5 -36.5q57 0 95 36t38 99v572q0 63 -38 100t-95 37q-56 0 -93.5 -37t-37.5 -100z" />
    <glyph glyph-name="one.taboldstyle" 
d="M68 0v98h204v813l-190 -114v112l190 115h117v-926h203v-98h-524z" />
    <glyph glyph-name="T.smcp" horiz-adv-x="587" 
d="M39 967v98h510v-98h-197v-967h-116v967h-197z" />
    <glyph glyph-name="Tbar.smcp" horiz-adv-x="587" 
d="M39 600v98h197v269h-197v98h510v-98h-197v-269h197v-98h-197v-600h-116v600h-197z" />
    <glyph glyph-name="two.taboldstyle" 
d="M84 0v178q0 62 20.5 110t53.5 78t72.5 55t79.5 47t73 47t53.5 63t20.5 88v131q0 63 -38 100t-95 37q-54 0 -90.5 -34.5t-36.5 -94.5v-107h-117v107q0 105 70 166t174 61q107 0 178 -63t71 -172v-131q0 -63 -20.5 -111t-53.5 -78.5t-72.5 -55t-79 -46.5t-72.5 -47
t-53.5 -63t-20.5 -87v-80h372v-98h-489z" />
    <glyph glyph-name="three.taboldstyle" 
d="M328 -236q57 0 95 37.5t38 100.5v309q0 63 -38 99t-95 36h-101v98h97q57 0 95 36.5t38 99.5v217q0 63 -38 100t-95 37q-54 0 -90.5 -34.5t-36.5 -94.5v-107h-117v107q0 105 70 166t174 61q107 0 178 -63t71 -172v-189q0 -79 -38 -133t-103 -78q67 -26 106.5 -81
t39.5 -134v-280q0 -109 -71.5 -172.5t-178.5 -63.5q-104 0 -174 61.5t-70 168.5v104h117v-104q0 -61 36.5 -96.5t90.5 -35.5z" />
    <glyph glyph-name="four.taboldstyle" 
d="M47 0v98l332 926h180v-926h53v-98h-53v-307h-113v307h-399zM156 98h290v795h-4z" />
    <glyph glyph-name="five.taboldstyle" 
d="M197 301h-117v723h487v-98h-370v-496q76 115 211 115q72 0 121 -47t49 -129v-469q0 -109 -71.5 -171.5t-178.5 -62.5t-177.5 62.5t-70.5 171.5v100h117v-100q0 -63 37.5 -99.5t93.5 -36.5q57 0 95 36.5t38 99.5v442q0 48 -29 76t-72 28q-66 0 -114.5 -45.5t-48.5 -99.5z
" />
    <glyph glyph-name="six.taboldstyle" 
d="M330 1292q-57 0 -95 -37t-38 -100v-434q76 115 211 115q72 0 121 -48t49 -129v-434q0 -109 -71.5 -171t-178.5 -62t-177.5 62t-70.5 171v930q0 109 71.5 172.5t178.5 63.5q103 0 173 -62.5t70 -167.5v-104h-116v104q0 60 -36.5 95.5t-90.5 35.5zM197 565v-340
q0 -62 37.5 -98.5t93.5 -36.5q57 0 95 36t38 99v408q0 48 -29 76t-72 28q-69 0 -116 -47t-47 -125z" />
    <glyph glyph-name="seven.taboldstyle" 
d="M63 926v98h533v-63l-315 -1268h-119l309 1233h-408z" />
    <glyph glyph-name="I.smcp" horiz-adv-x="309" 
d="M96 0v1065h117v-1065h-117z" />
    <glyph glyph-name="Aacute.smcp" horiz-adv-x="645" 
d="M231 1155l-69 72l252 211l69 -70zM399 1065l213 -1065h-120l-56 299h-231l-53 -299h-121l213 1065h155zM322 956l-105 -559h209l-100 559h-4z" />
    <glyph glyph-name="Abreve.smcp" horiz-adv-x="645" 
d="M129 1337h86q0 -52 30.5 -82t76.5 -30q48 0 79 30t31 82h84q0 -86 -55.5 -137t-138.5 -51q-82 0 -137.5 50.5t-55.5 137.5zM399 1065l213 -1065h-120l-56 299h-231l-53 -299h-121l213 1065h155zM322 956l-105 -559h209l-100 559h-4z" />
    <glyph glyph-name="Acircumflex.smcp" horiz-adv-x="645" 
d="M399 1065l213 -1065h-120l-56 299h-231l-53 -299h-121l213 1065h155zM322 956l-105 -559h209l-100 559h-4zM152 1159l-68 70l238 188l237 -188l-67 -70l-170 135z" />
    <glyph glyph-name="Agrave.smcp" horiz-adv-x="645" 
d="M414 1155l-252 211l69 70l252 -209zM399 1065l213 -1065h-120l-56 299h-231l-53 -299h-121l213 1065h155zM322 956l-105 -559h209l-100 559h-4z" />
    <glyph glyph-name="Adieresis.smcp" horiz-adv-x="645" 
d="M399 1065l213 -1065h-120l-56 299h-231l-53 -299h-121l213 1065h155zM322 956l-105 -559h209l-100 559h-4zM127 1210v191h102v-191h-102zM418 1210v191h102v-191h-102z" />
    <glyph glyph-name="Amacron.smcp" horiz-adv-x="645" 
d="M399 1065l213 -1065h-120l-56 299h-231l-53 -299h-121l213 1065h155zM322 956l-105 -559h209l-100 559h-4zM127 1233v98h393v-98h-393z" />
    <glyph glyph-name="Aogonek.smcp" horiz-adv-x="645" 
d="M492 -70v70l-56 299h-231l-53 -299h-121l213 1065h155l213 -1065h-34v-70q0 -52 30 -86t82 -34v-74q-91 0 -144.5 55.5t-53.5 138.5zM322 956l-105 -559h209l-100 559h-4z" />
    <glyph glyph-name="Aring.smcp" horiz-adv-x="645" 
d="M322 1458q71 0 119 -45.5t48 -122.5q0 -79 -47.5 -122.5t-119.5 -43.5t-119 43.5t-47 120.5q0 79 47 124.5t119 45.5zM233 1288q0 -41 26 -66.5t63 -25.5q38 0 64 25t26 67q0 44 -26 70t-64 26q-37 0 -63 -26t-26 -70zM399 1065l213 -1065h-120l-56 299h-231l-53 -299
h-121l213 1065h155zM322 956l-105 -559h209l-100 559h-4z" />
    <glyph glyph-name="Atilde.smcp" horiz-adv-x="645" 
d="M76 1176q0 72 42 113.5t107 41.5q37 0 65 -13.5t42 -29.5t36 -29.5t48 -13.5q32 0 54 20.5t22 55.5h77q0 -71 -42.5 -113.5t-106.5 -42.5q-37 0 -65 13.5t-43 29.5t-36.5 29.5t-46.5 13.5q-32 0 -53.5 -20t-21.5 -55h-78zM399 1065l213 -1065h-120l-56 299h-231l-53 -299
h-121l213 1065h155zM322 956l-105 -559h209l-100 559h-4z" />
    <glyph glyph-name="AEacute.smcp" horiz-adv-x="806" 
d="M346 1155l-70 72l252 211l70 -70zM326 0v299h-121l-53 -299h-121l213 1065h483v-98h-285v-367h244v-98h-244v-404h285v-98h-401zM322 956l-105 -559h109v559h-4z" />
    <glyph glyph-name="Cacute.smcp" horiz-adv-x="645" 
d="M231 1155l-69 72l252 211l69 -70zM197 844v-625q0 -60 35.5 -94.5t89.5 -34.5t90.5 34.5t36.5 94.5v107h116v-107q0 -105 -69.5 -166t-173.5 -61t-173 61t-69 166v625q0 105 69.5 167t172.5 62q104 0 173.5 -62t69.5 -167v-105h-116v105q0 60 -36.5 95.5t-90.5 35.5
t-89.5 -35.5t-35.5 -95.5z" />
    <glyph glyph-name="Ccaron.smcp" horiz-adv-x="645" 
d="M322 1159l-238 189l68 67l170 -135l170 135l67 -67zM197 844v-625q0 -60 35.5 -94.5t89.5 -34.5t90.5 34.5t36.5 94.5v107h116v-107q0 -105 -69.5 -166t-173.5 -61t-173 61t-69 166v625q0 105 69.5 167t172.5 62q104 0 173.5 -62t69.5 -167v-105h-116v105
q0 60 -36.5 95.5t-90.5 35.5t-89.5 -35.5t-35.5 -95.5z" />
    <glyph glyph-name="Ccedilla.smcp" horiz-adv-x="645" 
d="M276 -274v270q-87 11 -141.5 70t-54.5 153v625q0 105 69.5 167t172.5 62q104 0 173.5 -62t69.5 -167v-105h-116v105q0 60 -36.5 95.5t-90.5 35.5t-89.5 -35.5t-35.5 -95.5v-625q0 -60 35.5 -94.5t89.5 -34.5t90.5 34.5t36.5 94.5v107h116v-107q0 -94 -55.5 -153
t-142.5 -70v-270h-91z" />
    <glyph glyph-name="Ccircumflex.smcp" horiz-adv-x="645" 
d="M197 844v-625q0 -60 35.5 -94.5t89.5 -34.5t90.5 34.5t36.5 94.5v107h116v-107q0 -105 -69.5 -166t-173.5 -61t-173 61t-69 166v625q0 105 69.5 167t172.5 62q104 0 173.5 -62t69.5 -167v-105h-116v105q0 60 -36.5 95.5t-90.5 35.5t-89.5 -35.5t-35.5 -95.5zM150 1159
l-68 70l237 188l238 -188l-68 -70l-170 135z" />
    <glyph glyph-name="Cdotaccent.smcp" horiz-adv-x="645" 
d="M197 844v-625q0 -60 35.5 -94.5t89.5 -34.5t90.5 34.5t36.5 94.5v107h116v-107q0 -105 -69.5 -166t-173.5 -61t-173 61t-69 166v625q0 105 69.5 167t172.5 62q104 0 173.5 -62t69.5 -167v-105h-116v105q0 60 -36.5 95.5t-90.5 35.5t-89.5 -35.5t-35.5 -95.5zM262 1241
v193h117v-193h-117z" />
    <glyph glyph-name="Dcaron.smcp" horiz-adv-x="667" 
d="M332 1159l-238 189l68 67l170 -135l170 135l67 -67zM96 0v1065h242q107 0 178.5 -63.5t71.5 -172.5v-596q0 -109 -71.5 -171t-178.5 -62h-242zM213 98h125q57 0 95 36t38 99v596q0 63 -38 100.5t-95 37.5h-125v-869z" />
    <glyph glyph-name="Eacute.smcp" horiz-adv-x="630" 
d="M231 1155l-69 72l252 211l69 -70zM96 0v1065h455v-98h-338v-367h297v-98h-297v-404h338v-98h-455z" />
    <glyph glyph-name="Ebreve.smcp" horiz-adv-x="630" 
d="M129 1337h86q0 -52 30.5 -82t76.5 -30q48 0 79 30t31 82h84q0 -86 -55.5 -137t-138.5 -51q-82 0 -137.5 50.5t-55.5 137.5zM96 0v1065h455v-98h-338v-367h297v-98h-297v-404h338v-98h-455z" />
    <glyph glyph-name="Ecaron.smcp" horiz-adv-x="630" 
d="M324 1159l-238 189l68 67l170 -135l170 135l67 -67zM96 0v1065h455v-98h-338v-367h297v-98h-297v-404h338v-98h-455z" />
    <glyph glyph-name="Ecircumflex.smcp" horiz-adv-x="630" 
d="M96 0v1065h455v-98h-338v-367h297v-98h-297v-404h338v-98h-455zM154 1159l-68 70l238 188l237 -188l-67 -70l-170 135z" />
    <glyph glyph-name="Edieresis.smcp" horiz-adv-x="630" 
d="M96 0v1065h455v-98h-338v-367h297v-98h-297v-404h338v-98h-455zM127 1210v191h102v-191h-102zM418 1210v191h102v-191h-102z" />
    <glyph glyph-name="Edotaccent.smcp" horiz-adv-x="630" 
d="M96 0v1065h455v-98h-338v-367h297v-98h-297v-404h338v-98h-455zM268 1241v193h117v-193h-117z" />
    <glyph glyph-name="Egrave.smcp" horiz-adv-x="630" 
d="M414 1155l-252 211l69 70l252 -209zM96 0v1065h455v-98h-338v-367h297v-98h-297v-404h338v-98h-455z" />
    <glyph glyph-name="Emacron.smcp" horiz-adv-x="630" 
d="M96 0v1065h455v-98h-338v-367h297v-98h-297v-404h338v-98h-455zM131 1233v98h393v-98h-393z" />
    <glyph glyph-name="Eogonek.smcp" horiz-adv-x="630" 
d="M96 0v1065h455v-98h-338v-367h297v-98h-297v-404h338v-98h-113v-70q0 -51 30.5 -85.5t82.5 -34.5v-74q-91 0 -145 56t-54 138v70h-256z" />
    <glyph glyph-name="Gbreve.smcp" horiz-adv-x="645" 
d="M129 1337h86q0 -52 30.5 -82t76.5 -30q48 0 79 30t31 82h84q0 -86 -55.5 -137t-138.5 -51q-82 0 -137.5 50.5t-55.5 137.5zM324 485v99h241v-365q0 -105 -69.5 -166t-173.5 -61t-173 61t-69 166v625q0 105 69.5 167t172.5 62q104 0 173.5 -62t69.5 -167v-105h-116v105
q0 60 -36.5 95.5t-90.5 35.5t-89.5 -35.5t-35.5 -95.5v-625q0 -60 35.5 -94.5t89.5 -34.5t90.5 34.5t36.5 94.5v266h-125z" />
    <glyph glyph-name="Gcircumflex.smcp" horiz-adv-x="645" 
d="M324 485v99h241v-365q0 -105 -69.5 -166t-173.5 -61t-173 61t-69 166v625q0 105 69.5 167t172.5 62q104 0 173.5 -62t69.5 -167v-105h-116v105q0 60 -36.5 95.5t-90.5 35.5t-89.5 -35.5t-35.5 -95.5v-625q0 -60 35.5 -94.5t89.5 -34.5t90.5 34.5t36.5 94.5v266h-125z
M152 1159l-68 70l238 188l237 -188l-67 -70l-170 135z" />
    <glyph glyph-name="seven.fitted.smcp" 
d="M63 967v98h533v-64l-305 -1001h-117l297 967h-408z" />
    <glyph glyph-name="eight.fitted.smcp" 
d="M328 1073q107 0 178.5 -63t71.5 -172v-82q0 -75 -34 -128t-93 -79q59 -29 93 -82.5t34 -126.5v-115q0 -109 -71.5 -171t-178.5 -62t-177.5 62t-70.5 171v115q0 73 33 126.5t92 82.5q-58 25 -91.5 78.5t-33.5 128.5v82q0 109 70.5 172t177.5 63zM197 838v-107
q0 -62 37.5 -98.5t93.5 -36.5q57 0 95 36t38 99v107q0 63 -38 100t-95 37q-56 0 -93.5 -37t-37.5 -100zM197 360v-135q0 -62 37.5 -98.5t93.5 -36.5q57 0 95 36t38 99v135q0 63 -38 100.5t-95 37.5q-56 0 -93.5 -37.5t-37.5 -100.5z" />
    <glyph glyph-name="nine.fitted.smcp" 
d="M326 90q57 0 96 38t39 101v308q-35 -55 -90 -84t-119 -29q-73 0 -122.5 46.5t-49.5 127.5v242q0 109 71.5 171t178.5 62t177.5 -62t70.5 -171v-611q0 -109 -72 -173t-180 -64q-105 0 -175.5 62t-70.5 169v103h117v-103q0 -61 36.5 -97t92.5 -36zM461 692v148q0 63 -37 99
t-94 36t-95 -36t-38 -99v-215q0 -48 28.5 -75.5t71.5 -27.5q71 0 117.5 46t46.5 124z" />
    <glyph glyph-name="two.fitted" 
d="M84 0v260q0 63 20.5 117t54 93t73.5 74.5t79.5 68.5t73 67t54 77.5t20.5 92.5v305q0 63 -38 100t-95 37q-54 0 -90.5 -34.5t-36.5 -94.5v-151h-117v151q0 105 70 166.5t174 61.5q107 0 178 -63.5t71 -172.5v-305q0 -63 -20.5 -117t-53.5 -93t-73 -74t-80 -68t-73 -67
t-53.5 -77.5t-20.5 -93.5v-162h374v-98h-491z" />
    <glyph glyph-name="one.fitted" 
d="M68 0v98h204v1172l-190 -115v113l190 114h117v-1284h203v-98h-524z" />
    <glyph glyph-name="zero.fitted" 
d="M328 1391q107 0 178.5 -63.5t71.5 -172.5v-930q0 -109 -71.5 -171t-178.5 -62t-177.5 62t-70.5 171v930q0 109 70.5 172.5t177.5 63.5zM197 1155v-930q0 -62 37.5 -98.5t93.5 -36.5q57 0 95 36t38 99v930q0 63 -38 100t-95 37q-56 0 -93.5 -37t-37.5 -100z" />
    <glyph glyph-name="uni018F.smcp" horiz-adv-x="645" 
d="M80 219v365h369v260q0 60 -35.5 95.5t-89.5 35.5t-90.5 -35.5t-36.5 -95.5v-105h-117v105q0 105 70 167t174 62q103 0 172 -61.5t69 -167.5v-625q0 -105 -68.5 -166t-172.5 -61t-174 61t-70 166zM324 90q54 0 89.5 34.5t35.5 94.5v266h-252v-266q0 -60 36.5 -94.5
t90.5 -34.5z" />
    <glyph glyph-name="Z.smcp" horiz-adv-x="647" 
d="M80 0v63l358 904h-358v98h487v-64l-354 -903h354v-98h-487z" />
    <glyph glyph-name="Y.smcp" horiz-adv-x="645" 
d="M262 0v356l-229 709h117l169 -535h5l172 535h116l-233 -709v-356h-117z" />
    <glyph glyph-name="X.smcp" 
d="M35 0l219 545l-213 520h123l162 -449h4l164 449h122l-210 -520l217 -545h-123l-170 477h-4l-168 -477h-123z" />
    <glyph glyph-name="W.smcp" horiz-adv-x="1042" 
d="M229 0l-196 1065h121l151 -954h4l135 954h150l137 -954h4l150 954h121l-197 -1065h-154l-133 944h-4l-135 -944h-154z" />
    <glyph glyph-name="V.smcp" horiz-adv-x="645" 
d="M246 0l-213 1065h121l165 -956h5l168 956h120l-213 -1065h-153z" />
    <glyph glyph-name="one.fitted.smcp" 
d="M68 0v98h204v854l-190 -114v112l190 115h117v-967h203v-98h-524z" />
    <glyph glyph-name="Kcommaaccent.smcp" horiz-adv-x="655" 
d="M96 0v1065h117v-473h96l183 473h122l-219 -520l226 -545h-123l-189 498h-96v-498h-117zM395 -205q0 -79 -53 -209h-86q41 126 41 209v144h98v-144z" />
    <glyph glyph-name="Lacute.smcp" horiz-adv-x="585" 
d="M236 1155l-70 72l252 211l69 -70zM96 0v1065h117v-967h328v-98h-445z" />
    <glyph glyph-name="Lcaron.smcp" horiz-adv-x="585" 
d="M328 1159l-238 189l68 67l170 -135l170 135l67 -67zM96 0v1065h117v-967h328v-98h-445z" />
    <glyph glyph-name="Lcommaaccent.smcp" horiz-adv-x="585" 
d="M96 0v1065h117v-967h328v-98h-445zM379 -205q0 -79 -53 -209h-86q41 126 41 209v144h98v-144z" />
    <glyph glyph-name="Ldot.smcp" horiz-adv-x="585" 
d="M96 0v1065h117v-967h328v-98h-445zM442 459v176h105v-176h-105z" />
    <glyph glyph-name="Nacute.smcp" horiz-adv-x="694" 
d="M258 1155l-70 72l252 211l70 -70zM96 0v1065h103l282 -782h4v782h113v-1065h-102l-283 782h-4v-782h-113z" />
    <glyph glyph-name="Ncaron.smcp" horiz-adv-x="694" 
d="M350 1159l-237 189l67 67l170 -135l170 135l68 -67zM96 0v1065h103l282 -782h4v782h113v-1065h-102l-283 782h-4v-782h-113z" />
    <glyph glyph-name="Ncommaaccent.smcp" horiz-adv-x="694" 
d="M96 0v1065h103l282 -782h4v782h113v-1065h-102l-283 782h-4v-782h-113zM406 -205q0 -77 -54 -209h-86q41 126 41 209v144h99v-144z" />
    <glyph glyph-name="Ntilde.smcp" horiz-adv-x="694" 
d="M100 1176q0 72 42.5 113.5t107.5 41.5q37 0 65 -13.5t41.5 -29.5t35.5 -29.5t48 -13.5q32 0 54 20.5t22 55.5h78q0 -71 -43 -113.5t-107 -42.5q-37 0 -65 13.5t-42.5 29.5t-36 29.5t-46.5 13.5q-32 0 -54 -20t-22 -55h-78zM96 0v1065h103l282 -782h4v782h113v-1065h-102
l-283 782h-4v-782h-113z" />
    <glyph glyph-name="Oacute.smcp" 
d="M238 1155l-70 72l252 211l69 -70zM328 1073q107 0 178.5 -63t71.5 -172v-613q0 -109 -71.5 -171t-178.5 -62t-177.5 62t-70.5 171v613q0 109 70.5 172t177.5 63zM197 838v-613q0 -62 37.5 -98.5t93.5 -36.5q57 0 95 36t38 99v613q0 63 -38 100t-95 37q-56 0 -93.5 -37
t-37.5 -100z" />
    <glyph glyph-name="Obreve.smcp" 
d="M135 1337h86q0 -52 30.5 -82t76.5 -30q48 0 79 30t31 82h84q0 -86 -55.5 -137t-138.5 -51q-82 0 -137.5 50.5t-55.5 137.5zM328 1073q107 0 178.5 -63t71.5 -172v-613q0 -109 -71.5 -171t-178.5 -62t-177.5 62t-70.5 171v613q0 109 70.5 172t177.5 63zM197 838v-613
q0 -62 37.5 -98.5t93.5 -36.5q57 0 95 36t38 99v613q0 63 -38 100t-95 37q-56 0 -93.5 -37t-37.5 -100z" />
    <glyph glyph-name="Ocircumflex.smcp" 
d="M328 1073q107 0 178.5 -63t71.5 -172v-613q0 -109 -71.5 -171t-178.5 -62t-177.5 62t-70.5 171v613q0 109 70.5 172t177.5 63zM197 838v-613q0 -62 37.5 -98.5t93.5 -36.5q57 0 95 36t38 99v613q0 63 -38 100t-95 37q-56 0 -93.5 -37t-37.5 -100zM160 1159l-68 70
l238 188l237 -188l-67 -70l-170 135z" />
    <glyph glyph-name="Odieresis.smcp" 
d="M328 1073q107 0 178.5 -63t71.5 -172v-613q0 -109 -71.5 -171t-178.5 -62t-177.5 62t-70.5 171v613q0 109 70.5 172t177.5 63zM197 838v-613q0 -62 37.5 -98.5t93.5 -36.5q57 0 95 36t38 99v613q0 63 -38 100t-95 37q-56 0 -93.5 -37t-37.5 -100zM133 1210v191h103v-191
h-103zM424 1210v191h102v-191h-102z" />
    <glyph glyph-name="Ograve.smcp" 
d="M420 1155l-252 211l70 70l251 -209zM328 1073q107 0 178.5 -63t71.5 -172v-613q0 -109 -71.5 -171t-178.5 -62t-177.5 62t-70.5 171v613q0 109 70.5 172t177.5 63zM197 838v-613q0 -62 37.5 -98.5t93.5 -36.5q57 0 95 36t38 99v613q0 63 -38 100t-95 37q-56 0 -93.5 -37
t-37.5 -100z" />
    <glyph glyph-name="Ohungarumlaut.smcp" 
d="M328 1073q107 0 178.5 -63t71.5 -172v-613q0 -109 -71.5 -171t-178.5 -62t-177.5 62t-70.5 171v613q0 109 70.5 172t177.5 63zM197 838v-613q0 -62 37.5 -98.5t93.5 -36.5q57 0 95 36t38 99v613q0 63 -38 100t-95 37q-56 0 -93.5 -37t-37.5 -100zM106 1143l-69 69
l235 238l70 -70zM383 1143l-70 69l236 238l69 -70z" />
    <glyph glyph-name="Omacron.smcp" 
d="M328 1073q107 0 178.5 -63t71.5 -172v-613q0 -109 -71.5 -171t-178.5 -62t-177.5 62t-70.5 171v613q0 109 70.5 172t177.5 63zM197 838v-613q0 -62 37.5 -98.5t93.5 -36.5q57 0 95 36t38 99v613q0 63 -38 100t-95 37q-56 0 -93.5 -37t-37.5 -100zM131 1233v98h393v-98
h-393z" />
    <glyph glyph-name="Otilde.smcp" 
d="M82 1176q0 72 42 113.5t107 41.5q37 0 65 -13.5t42 -29.5t36 -29.5t48 -13.5q32 0 54 20.5t22 55.5h77q0 -71 -42.5 -113.5t-106.5 -42.5q-37 0 -65 13.5t-42.5 29.5t-36 29.5t-46.5 13.5q-32 0 -54 -20t-22 -55h-78zM328 1073q107 0 178.5 -63t71.5 -172v-613
q0 -109 -71.5 -171t-178.5 -62t-177.5 62t-70.5 171v613q0 109 70.5 172t177.5 63zM197 838v-613q0 -62 37.5 -98.5t93.5 -36.5q57 0 95 36t38 99v613q0 63 -38 100t-95 37q-56 0 -93.5 -37t-37.5 -100z" />
    <glyph glyph-name="Racute.smcp" horiz-adv-x="661" 
d="M240 1155l-70 72l252 211l70 -70zM494 0l-164 440h-117v-440h-117v1065h236q107 0 178.5 -63.5t71.5 -172.5v-155q0 -82 -41.5 -135.5t-110.5 -73.5l184 -465h-120zM213 539h119q57 0 95 36t38 99v155q0 63 -38 100.5t-95 37.5h-119v-428z" />
    <glyph glyph-name="Rcaron.smcp" horiz-adv-x="661" 
d="M332 1159l-238 189l68 67l170 -135l170 135l67 -67zM494 0l-164 440h-117v-440h-117v1065h236q107 0 178.5 -63.5t71.5 -172.5v-155q0 -82 -41.5 -135.5t-110.5 -73.5l184 -465h-120zM213 539h119q57 0 95 36t38 99v155q0 63 -38 100.5t-95 37.5h-119v-428z" />
    <glyph glyph-name="Rcommaaccent.smcp" horiz-adv-x="661" 
d="M494 0l-164 440h-117v-440h-117v1065h236q107 0 178.5 -63.5t71.5 -172.5v-155q0 -82 -41.5 -135.5t-110.5 -73.5l184 -465h-120zM213 539h119q57 0 95 36t38 99v155q0 63 -38 100.5t-95 37.5h-119v-428zM377 -205q0 -79 -53 -209h-86q41 126 41 209v144h98v-144z" />
    <glyph glyph-name="Sacute.smcp" horiz-adv-x="645" 
d="M231 1155l-69 72l252 211l69 -70zM80 326h117v-107q0 -60 35.5 -94.5t89.5 -34.5t90.5 34.5t36.5 94.5v143q0 55 -38 87t-91.5 49t-107.5 37.5t-92 69.5t-38 128v115q0 105 68 165t172 60t172.5 -60t68.5 -165v-109h-117v109q0 59 -35.5 93t-88.5 34t-88 -34t-35 -93
v-115q0 -41 20 -68.5t52.5 -43t71.5 -28t78 -28.5t71.5 -38.5t52.5 -64.5t20 -100v-143q0 -105 -69.5 -166t-173.5 -61t-173 61t-69 166v107z" />
    <glyph glyph-name="Scaron.smcp" horiz-adv-x="645" 
d="M322 1159l-238 189l68 67l170 -135l170 135l67 -67zM80 326h117v-107q0 -60 35.5 -94.5t89.5 -34.5t90.5 34.5t36.5 94.5v143q0 55 -38 87t-91.5 49t-107.5 37.5t-92 69.5t-38 128v115q0 105 68 165t172 60t172.5 -60t68.5 -165v-109h-117v109q0 59 -35.5 93t-88.5 34
t-88 -34t-35 -93v-115q0 -41 20 -68.5t52.5 -43t71.5 -28t78 -28.5t71.5 -38.5t52.5 -64.5t20 -100v-143q0 -105 -69.5 -166t-173.5 -61t-173 61t-69 166v107z" />
    <glyph glyph-name="Scedilla.smcp" horiz-adv-x="645" 
d="M279 -274v270q-88 11 -143.5 70t-55.5 153v107h117v-107q0 -60 35.5 -94.5t89.5 -34.5t90.5 34.5t36.5 94.5v143q0 55 -38 87t-91.5 49t-107.5 37.5t-92 69.5t-38 128v115q0 105 68 165t172 60t172.5 -60t68.5 -165v-109h-117v109q0 59 -35.5 93t-88.5 34t-88 -34
t-35 -93v-115q0 -41 20 -68.5t52.5 -43t71.5 -28t78 -28.5t71.5 -38.5t52.5 -64.5t20 -100v-143q0 -93 -54.5 -151.5t-141.5 -71.5v-270h-90z" />
    <glyph glyph-name="Scircumflex.smcp" horiz-adv-x="645" 
d="M80 326h117v-107q0 -60 35.5 -94.5t89.5 -34.5t90.5 34.5t36.5 94.5v143q0 55 -38 87t-91.5 49t-107.5 37.5t-92 69.5t-38 128v115q0 105 68 165t172 60t172.5 -60t68.5 -165v-109h-117v109q0 59 -35.5 93t-88.5 34t-88 -34t-35 -93v-115q0 -41 20 -68.5t52.5 -43
t71.5 -28t78 -28.5t71.5 -38.5t52.5 -64.5t20 -100v-143q0 -105 -69.5 -166t-173.5 -61t-173 61t-69 166v107zM152 1159l-68 70l238 188l237 -188l-67 -70l-170 135z" />
    <glyph glyph-name="Scommaaccent.smcp" horiz-adv-x="645" 
d="M80 326h117v-107q0 -60 35.5 -94.5t89.5 -34.5t90.5 34.5t36.5 94.5v143q0 55 -38 87t-91.5 49t-107.5 37.5t-92 69.5t-38 128v115q0 105 68 165t172 60t172.5 -60t68.5 -165v-109h-117v109q0 59 -35.5 93t-88.5 34t-88 -34t-35 -93v-115q0 -41 20 -68.5t52.5 -43
t71.5 -28t78 -28.5t71.5 -38.5t52.5 -64.5t20 -100v-143q0 -105 -69.5 -166t-173.5 -61t-173 61t-69 166v107zM371 -205q0 -77 -54 -209h-86q41 126 41 209v144h99v-144z" />
    <glyph glyph-name="Tcaron.smcp" horiz-adv-x="587" 
d="M293 1159l-238 189l68 67l170 -135l170 135l67 -67zM39 967v98h510v-98h-197v-967h-116v967h-197z" />
    <glyph glyph-name="Tcommaaccent.smcp" horiz-adv-x="587" 
d="M39 967v98h510v-98h-197v-967h-116v967h-197zM344 -205q0 -79 -53 -209h-86q41 126 41 209v144h98v-144z" />
    <glyph glyph-name="uni021A.smcp" horiz-adv-x="587" 
d="M39 967v98h510v-98h-197v-967h-116v967h-197zM344 -205q0 -79 -53 -209h-86q41 126 41 209v144h98v-144z" />
    <glyph glyph-name="Uacute.smcp" 
d="M238 1155l-70 72l252 211l69 -70zM80 1065h117v-840q0 -62 37.5 -98.5t93.5 -36.5q57 0 95 36t38 99v840h117v-840q0 -109 -71.5 -171t-178.5 -62t-177.5 62t-70.5 171v840z" />
    <glyph glyph-name="Ubreve.smcp" 
d="M135 1337h86q0 -52 30.5 -82t76.5 -30q48 0 79 30t31 82h84q0 -86 -55.5 -137t-138.5 -51q-82 0 -137.5 50.5t-55.5 137.5zM80 1065h117v-840q0 -62 37.5 -98.5t93.5 -36.5q57 0 95 36t38 99v840h117v-840q0 -109 -71.5 -171t-178.5 -62t-177.5 62t-70.5 171v840z" />
    <glyph glyph-name="Ucircumflex.smcp" 
d="M80 1065h117v-840q0 -62 37.5 -98.5t93.5 -36.5q57 0 95 36t38 99v840h117v-840q0 -109 -71.5 -171t-178.5 -62t-177.5 62t-70.5 171v840zM160 1159l-68 70l238 188l237 -188l-67 -70l-170 135z" />
    <glyph glyph-name="Udieresis.smcp" 
d="M80 1065h117v-840q0 -62 37.5 -98.5t93.5 -36.5q57 0 95 36t38 99v840h117v-840q0 -109 -71.5 -171t-178.5 -62t-177.5 62t-70.5 171v840zM131 1210v191h102v-191h-102zM422 1210v191h102v-191h-102z" />
    <glyph glyph-name="Ugrave.smcp" 
d="M418 1155l-252 211l70 70l251 -209zM80 1065h117v-840q0 -62 37.5 -98.5t93.5 -36.5q57 0 95 36t38 99v840h117v-840q0 -109 -71.5 -171t-178.5 -62t-177.5 62t-70.5 171v840z" />
    <glyph glyph-name="Uhungarumlaut.smcp" 
d="M80 1065h117v-840q0 -62 37.5 -98.5t93.5 -36.5q57 0 95 36t38 99v840h117v-840q0 -109 -71.5 -171t-178.5 -62t-177.5 62t-70.5 171v840zM106 1143l-69 69l235 238l70 -70zM383 1143l-70 69l236 238l69 -70z" />
    <glyph glyph-name="Umacron.smcp" 
d="M80 1065h117v-840q0 -62 37.5 -98.5t93.5 -36.5q57 0 95 36t38 99v840h117v-840q0 -109 -71.5 -171t-178.5 -62t-177.5 62t-70.5 171v840zM131 1233v98h393v-98h-393z" />
    <glyph glyph-name="Uogonek.smcp" 
d="M311 -70v62q-101 5 -166 67t-65 166v840h117v-840q0 -62 37.5 -98.5t93.5 -36.5q57 0 95 36t38 99v840h117v-840q0 -89 -50.5 -148t-130.5 -77v-70q0 -51 30.5 -85.5t82.5 -34.5v-74q-91 0 -145 56t-54 138z" />
    <glyph glyph-name="Uring.smcp" 
d="M326 1458q72 0 120 -45.5t48 -122.5q0 -79 -48 -122.5t-120 -43.5t-119 43.5t-47 120.5q0 79 47 124.5t119 45.5zM238 1288q0 -41 25.5 -66.5t62.5 -25.5q38 0 64 25t26 67q0 44 -26 70t-64 26q-37 0 -62.5 -26t-25.5 -70zM80 1065h117v-840q0 -62 37.5 -98.5t93.5 -36.5
q57 0 95 36t38 99v840h117v-840q0 -109 -71.5 -171t-178.5 -62t-177.5 62t-70.5 171v840z" />
    <glyph glyph-name="Utilde.smcp" 
d="M82 1176q0 72 42 113.5t107 41.5q37 0 65 -13.5t42 -29.5t36 -29.5t48 -13.5q32 0 54 20.5t22 55.5h77q0 -71 -42.5 -113.5t-106.5 -42.5q-37 0 -65 13.5t-42.5 29.5t-36 29.5t-46.5 13.5q-32 0 -54 -20t-22 -55h-78zM80 1065h117v-840q0 -62 37.5 -98.5t93.5 -36.5
q57 0 95 36t38 99v840h117v-840q0 -109 -71.5 -171t-178.5 -62t-177.5 62t-70.5 171v840z" />
    <glyph glyph-name="Wacute.smcp" horiz-adv-x="1042" 
d="M430 1155l-70 72l252 211l70 -70zM229 0l-196 1065h121l151 -954h4l135 954h150l137 -954h4l150 954h121l-197 -1065h-154l-133 944h-4l-135 -944h-154z" />
    <glyph glyph-name="Wcircumflex.smcp" horiz-adv-x="1042" 
d="M229 0l-196 1065h121l151 -954h4l135 954h150l137 -954h4l150 954h121l-197 -1065h-154l-133 944h-4l-135 -944h-154zM350 1159l-67 70l237 188l238 -188l-68 -70l-170 135z" />
    <glyph glyph-name="Wdieresis.smcp" horiz-adv-x="1042" 
d="M229 0l-196 1065h121l151 -954h4l135 954h150l137 -954h4l150 954h121l-197 -1065h-154l-133 944h-4l-135 -944h-154zM324 1210v191h102v-191h-102zM614 1210v191h103v-191h-103z" />
    <glyph glyph-name="Wgrave.smcp" horiz-adv-x="1042" 
d="M612 1155l-252 211l70 70l252 -209zM229 0l-196 1065h121l151 -954h4l135 954h150l137 -954h4l150 954h121l-197 -1065h-154l-133 944h-4l-135 -944h-154z" />
    <glyph glyph-name="Yacute.smcp" horiz-adv-x="645" 
d="M231 1155l-69 72l252 211l69 -70zM262 0v356l-229 709h117l169 -535h5l172 535h116l-233 -709v-356h-117z" />
    <glyph glyph-name="Ycircumflex.smcp" horiz-adv-x="645" 
d="M262 0v356l-229 709h117l169 -535h5l172 535h116l-233 -709v-356h-117zM152 1159l-68 70l238 188l237 -188l-67 -70l-170 135z" />
    <glyph glyph-name="Ydieresis.smcp" horiz-adv-x="645" 
d="M262 0v356l-229 709h117l169 -535h5l172 535h116l-233 -709v-356h-117zM125 1210v191h102v-191h-102zM416 1210v191h102v-191h-102z" />
    <glyph glyph-name="Ygrave.smcp" horiz-adv-x="645" 
d="M414 1155l-252 211l69 70l252 -209zM262 0v356l-229 709h117l169 -535h5l172 535h116l-233 -709v-356h-117z" />
    <glyph glyph-name="Zacute.smcp" horiz-adv-x="647" 
d="M231 1155l-69 72l252 211l69 -70zM80 0v63l358 904h-358v98h487v-64l-354 -903h354v-98h-487z" />
    <glyph glyph-name="Zcaron.smcp" horiz-adv-x="647" 
d="M326 1159l-238 189l68 67l170 -135l170 135l67 -67zM80 0v63l358 904h-358v98h487v-64l-354 -903h354v-98h-487z" />
    <glyph glyph-name="Zdotaccent.smcp" horiz-adv-x="647" 
d="M80 0v63l358 904h-358v98h487v-64l-354 -903h354v-98h-487zM266 1241v193h117v-193h-117z" />
    <glyph glyph-name="exclam.smcp" horiz-adv-x="309" 
d="M96 319v746h117v-746h-117zM96 0v190h117v-190h-117z" />
    <glyph glyph-name="slash.smcp" horiz-adv-x="464" 
d="M63 0l222 1065h116l-221 -1065h-117z" />
    <glyph glyph-name="backslash.smcp" horiz-adv-x="464" 
d="M285 0l-222 1065h117l221 -1065h-116z" />
    <glyph glyph-name="parenleft.smcp" horiz-adv-x="395" 
d="M328 1116q-56 0 -93.5 -37.5t-37.5 -101.5v-957q0 -62 37.5 -98.5t93.5 -36.5h20v-98h-20q-107 0 -177.5 62t-70.5 171v957q0 110 70.5 172.5t177.5 62.5h20v-96h-20z" />
    <glyph glyph-name="parenright.smcp" horiz-adv-x="395" 
d="M68 -115q56 0 93.5 37.5t37.5 100.5v956q0 63 -37.5 100t-93.5 37h-21v96h21q107 0 177 -61.5t70 -171.5v-956q0 -109 -70.5 -172.5t-176.5 -63.5h-21v98h21z" />
    <glyph glyph-name="bracketleft.smcp" horiz-adv-x="395" 
d="M80 -207v1411h268v-96h-151v-1214h151v-101h-268z" />
    <glyph glyph-name="bracketright.smcp" horiz-adv-x="395" 
d="M47 -207v96h152v1215h-152v100h268v-1411h-268z" />
    <glyph glyph-name="braceleft.smcp" horiz-adv-x="518" 
d="M471 -213h-20q-104 0 -176 62.5t-72 168.5v299q0 63 -38 99.5t-95 36.5h-21v102h21q57 0 95 37t38 100v285q0 110 70.5 172.5t177.5 62.5h20v-96h-20q-57 0 -94.5 -37.5t-37.5 -101.5v-285q0 -127 -102 -188q102 -61 102 -187v-299q0 -61 38 -97t94 -36h20v-98z" />
    <glyph glyph-name="braceright.smcp" horiz-adv-x="518" 
d="M49 -213v98h21q57 0 95 37.5t38 100.5v286q0 130 102 189q-102 59 -102 186v299q-1 62 -38.5 97.5t-94.5 35.5h-21v96h21q105 0 177 -62t72 -167v-299q0 -63 37.5 -100t94.5 -37h20v-101h-20q-57 0 -94.5 -37t-37.5 -100v-286q0 -109 -70.5 -172.5t-178.5 -63.5h-21z" />
    <glyph glyph-name="exclamdown.smcp" horiz-adv-x="309" 
d="M96 -205v934h117v-934h-117zM96 872v193h117v-193h-117z" />
    <glyph glyph-name="questiondown.smcp" horiz-adv-x="649" 
d="M268 737h117v-123q0 -82 -20 -135t-48 -79.5t-56 -50.5t-48 -67.5t-20 -111.5v-147q0 -63 38 -100.5t95 -37.5q54 0 90.5 34.5t36.5 94.5v136h116v-136q0 -105 -69 -166t-174 -61q-107 0 -178.5 63.5t-71.5 172.5v147q0 82 20 135t48 79.5t56 50.5t48 67.5t20 111.5v123z
M268 881v192h117v-192h-117z" />
    <glyph glyph-name="question.smcp" horiz-adv-x="649" 
d="M260 319v58q0 52 10.5 91t27.5 62.5t37.5 42.5t41.5 35.5t38 36.5t27.5 51.5t10.5 73.5v68q0 63 -38.5 100t-95.5 37q-54 0 -90 -34.5t-36 -94.5v-74h-117v74q0 105 69.5 166t173.5 61q107 0 178.5 -63t71.5 -172v-68q0 -71 -20 -119t-48 -72.5t-56 -47t-48 -60
t-20 -94.5v-58h-117zM260 0v190h117v-190h-117z" />
    <glyph glyph-name="bar.smcp" horiz-adv-x="309" 
d="M96 -205v1346h117v-1346h-117z" />
    <glyph glyph-name="brokenbar.smcp" horiz-adv-x="309" 
d="M96 -205v584h117v-584h-117zM96 557v584h117v-584h-117z" />
    <glyph glyph-name="percent.smcp" horiz-adv-x="1175" 
d="M332 0l422 1065h92l-422 -1065h-92zM92 629v256q0 87 53 137.5t134 50.5t135.5 -51t54.5 -137v-256q0 -87 -55 -137t-135 -50q-81 0 -134 50t-53 137zM176 885v-256q0 -51 29.5 -80t73.5 -29q45 0 75.5 29t30.5 80v256q0 51 -30.5 80.5t-75.5 29.5q-44 0 -73.5 -29.5
t-29.5 -80.5zM707 178v256q0 87 53 138t133 51q79 0 133.5 -51.5t54.5 -137.5v-256q0 -87 -54 -136.5t-134 -49.5q-81 0 -133.5 49.5t-52.5 136.5zM788 434v-256q0 -51 30 -79.5t75 -28.5t75.5 29t30.5 79v256q0 51 -30.5 81t-75.5 30q-44 0 -74.5 -30t-30.5 -81z" />
    <glyph glyph-name="perthousand.smcp" horiz-adv-x="1642" 
d="M332 0l420 1065h94l-422 -1065h-92zM92 629v256q0 87 53 137.5t134 50.5t135.5 -51t54.5 -137v-256q0 -87 -55 -137t-135 -50q-81 0 -134 50t-53 137zM176 885v-256q0 -51 29.5 -80t73.5 -29q45 0 75.5 29t30.5 80v256q0 51 -30.5 80.5t-75.5 29.5q-44 0 -73.5 -29.5
t-29.5 -80.5zM707 178v256q0 87 53 138t133 51q79 0 133.5 -51.5t54.5 -137.5v-256q0 -87 -54 -136.5t-134 -49.5q-81 0 -133.5 49.5t-52.5 136.5zM788 434v-256q0 -51 30 -79.5t75 -28.5t75.5 29t30.5 79v256q0 51 -30.5 81t-75.5 30q-44 0 -74.5 -30t-30.5 -81zM1174 178
v256q0 87 53 138t133 51q79 0 133.5 -51.5t54.5 -137.5v-256q0 -87 -54 -136.5t-134 -49.5q-81 0 -133.5 49.5t-52.5 136.5zM1255 434v-256q0 -51 30 -79.5t75 -28.5t75.5 29t30.5 79v256q0 51 -30.5 81t-75.5 30q-44 0 -74.5 -30t-30.5 -81z" />
    <glyph glyph-name="dagger.smcp" horiz-adv-x="587" 
d="M39 686v98h197v281h116v-281h197v-98h-197v-686h-116v686h-197z" />
    <glyph glyph-name="daggerdbl.smcp" horiz-adv-x="587" 
d="M549 371v-99h-197v-272h-116v272h-197v99h197v323h-197v99h197v272h116v-272h197v-99h-197v-323h197z" />
    <glyph glyph-name="section.smcp" 
d="M578 143q0 -73 -35 -123q35 -61 35 -139v-117q0 -109 -71.5 -171t-178.5 -62t-177.5 62t-70.5 171v101h117v-101q0 -62 37.5 -98.5t93.5 -36.5q57 0 95 36t38 99v117q0 46 -21 80t-54.5 54.5t-73.5 38t-80.5 39t-74 49.5t-54.5 76t-21 112v133q0 76 43 135
q-43 59 -43 152v92q0 107 70.5 169t175.5 62q106 0 176.5 -62t70.5 -169v-103h-116v103q0 61 -37.5 97t-93.5 36t-92.5 -36t-36.5 -97v-92q0 -47 21 -81t54.5 -54.5t73.5 -38.5t80.5 -39t74 -49t54.5 -75.5t21 -111.5v-158zM461 301q0 40 -14.5 69.5t-43.5 50.5t-56.5 35
t-70 33t-67.5 33q-10 -27 -10 -59v-133q0 -41 15 -71.5t44 -52t58 -36.5t71 -34.5t68 -35.5q6 18 6 43v158z" />
    <glyph glyph-name="paragraph.smcp" horiz-adv-x="911" 
d="M565 1065v-1270h-116v608h-119q-107 0 -178.5 62.5t-71.5 171.5v192q0 109 71.5 172.5t178.5 63.5h235zM815 1065v-1270h-117v1270h117z" />
    <glyph glyph-name="afii61352.smcp" horiz-adv-x="1169" 
d="M96 0v1065h103l282 -778h4v778h113v-1065h-102l-283 778h-4v-778h-113zM702 729v156q0 87 53 137.5t134 50.5q80 0 134 -51t54 -137v-156q0 -86 -54 -135t-134 -49q-81 0 -134 49t-53 135zM784 885v-156q0 -50 30 -78t75 -28t75.5 28t30.5 78v156q0 51 -30.5 80.5
t-75.5 29.5t-75 -29.5t-30 -80.5z" />
    <glyph glyph-name="Euro.smcp" horiz-adv-x="698" 
d="M49 596v90h84v158q0 105 69.5 167t172.5 62q105 0 174 -61.5t69 -167.5v-72h-116v72q0 60 -36.5 95.5t-90.5 35.5q-53 0 -89 -35.5t-36 -95.5v-158h368v-90h-368v-117h368v-90h-368v-170q0 -59 36 -94t89 -35q54 0 90.5 34.5t36.5 94.5v74h116v-74q0 -105 -69 -166
t-174 -61q-104 0 -173 61t-69 166v170h-84v90h84v117h-84z" />
    <glyph glyph-name="sterling.smcp" horiz-adv-x="698" 
d="M49 436v99h84v309q0 105 69.5 167t172.5 62q105 0 174 -61.5t69 -167.5v-105h-116v105q0 60 -36.5 95.5t-90.5 35.5q-53 0 -89 -35.5t-36 -95.5v-309h368v-99h-368v-338h368v-98h-569v98h84v338h-84z" />
    <glyph glyph-name="yen.smcp" horiz-adv-x="645" 
d="M74 315v99h170l-211 651h117l169 -535h5l172 535h116l-215 -651h174v-99h-192v-98h192v-98h-192v-119h-117v119h-188v98h188v98h-188z" />
    <glyph glyph-name="numbersign.smcp" horiz-adv-x="743" 
d="M164 0v276h-88v99h88v315h-88v98h88v277h117v-277h196v277h117v-277h86v-98h-86v-315h86v-99h-86v-276h-117v276h-196v-276h-117zM281 375h196v315h-196v-315z" />
    <glyph glyph-name="Hbar.smcp" horiz-adv-x="692" 
d="M43 795v98h53v172h117v-172h266v172h117v-172h53v-98h-53v-795h-117v502h-266v-502h-117v795h-53zM213 600h266v195h-266v-195z" />
    <glyph glyph-name="ampersand.smcp" 
d="M328 569h133v72h117v-416q0 -109 -71.5 -171t-178.5 -62t-177.5 62t-70.5 171v88q0 73 33.5 126.5t91.5 80.5q-59 27 -92 80.5t-33 128.5v57q0 109 70.5 172.5t177.5 63.5t178.5 -63.5t71.5 -172.5v-55h-117v55q0 63 -38 100.5t-95 37.5q-56 0 -93.5 -37.5t-37.5 -100.5
v-81q0 -63 37.5 -99.5t93.5 -36.5zM328 471q-56 0 -93.5 -37t-37.5 -100v-109q0 -62 37.5 -98.5t93.5 -36.5q57 0 95 36t38 99v246h-133z" />
    <glyph glyph-name="H.smcp" horiz-adv-x="692" 
d="M96 0v1065h117v-465h266v465h117v-1065h-117v502h-266v-502h-117z" />
    <glyph glyph-name="G.smcp" horiz-adv-x="645" 
d="M324 485v99h241v-365q0 -105 -69.5 -166t-173.5 -61t-173 61t-69 166v625q0 105 69.5 167t172.5 62q104 0 173.5 -62t69.5 -167v-105h-116v105q0 60 -36.5 95.5t-90.5 35.5t-89.5 -35.5t-35.5 -95.5v-625q0 -60 35.5 -94.5t89.5 -34.5t90.5 34.5t36.5 94.5v266h-125z" />
    <glyph glyph-name="F.smcp" horiz-adv-x="630" 
d="M96 0v1065h455v-98h-338v-367h297v-98h-297v-502h-117z" />
    <glyph glyph-name="OE.smcp" horiz-adv-x="921" 
d="M438 0v31q-58 -39 -127 -39q-94 0 -156.5 62t-62.5 171v613q0 109 62.5 172t156.5 63q69 0 127 -39v31h404v-98h-287v-367h246v-98h-246v-404h287v-98h-404zM340 90q61 0 98 37v807q-38 41 -98 41q-56 0 -93.5 -37t-37.5 -100v-613q0 -62 37.5 -98.5t93.5 -36.5z" />
    <glyph glyph-name="Oslash.smcp" 
d="M63 0l46 106q-29 53 -29 119v613q0 109 70.5 172t177.5 63q101 0 170 -57l22 49h76l-47 -109q29 -53 29 -118v-613q0 -109 -71.5 -171t-178.5 -62q-106 0 -170 55l-21 -47h-74zM328 90q57 0 95 36t38 99v527l-254 -588q15 -35 48 -54.5t73 -19.5zM197 838v-527l252 588
q-17 35 -49 55.5t-72 20.5q-56 0 -93.5 -37t-37.5 -100z" />
    <glyph glyph-name="Oslashacute.smcp" 
d="M63 0l46 106q-29 53 -29 119v613q0 109 70.5 172t177.5 63q101 0 170 -57l22 49h76l-47 -109q29 -53 29 -118v-613q0 -109 -71.5 -171t-178.5 -62q-106 0 -170 55l-21 -47h-74zM328 90q57 0 95 36t38 99v527l-254 -588q15 -35 48 -54.5t73 -19.5zM197 838v-527l252 588
q-17 35 -49 55.5t-72 20.5q-56 0 -93.5 -37t-37.5 -100zM238 1155l-70 72l252 211l69 -70z" />
    <glyph glyph-name="zero.slash" 
d="M63 0l39 119q-22 49 -22 106v930q0 109 70.5 172.5t177.5 63.5q106 0 174 -62l18 53h76l-41 -122q23 -51 23 -105v-930q0 -109 -71.5 -171t-178.5 -62q-106 0 -174 59l-17 -51h-74zM197 1155v-752l260 787q-10 48 -46 75t-83 27q-56 0 -93.5 -37t-37.5 -100zM328 90
q57 0 95 36t38 99v750l-260 -787q10 -46 45 -72t82 -26z" />
    <glyph glyph-name="zero.fitted.slash" 
d="M63 0l39 119q-22 49 -22 106v930q0 109 70.5 172.5t177.5 63.5q106 0 174 -62l18 53h76l-41 -122q23 -51 23 -105v-930q0 -109 -71.5 -171t-178.5 -62q-106 0 -174 59l-17 -51h-74zM197 1155v-752l260 787q-10 48 -46 75t-83 27q-56 0 -93.5 -37t-37.5 -100zM328 90
q57 0 95 36t38 99v750l-260 -787q10 -46 45 -72t82 -26z" />
    <glyph glyph-name="zerooldstyle.slash" 
d="M63 0l46 104q-29 53 -29 121v572q0 109 70.5 172t177.5 63q101 0 170 -57l22 49h76l-49 -109q31 -51 31 -118v-572q0 -109 -71.5 -171t-178.5 -62q-103 0 -170 55l-21 -47h-74zM197 797v-498l249 561q-15 35 -47 54.5t-71 19.5q-56 0 -93.5 -37t-37.5 -100zM328 90
q57 0 95 36t38 99v496l-252 -561q36 -70 119 -70z" />
    <glyph glyph-name="zero.taboldstyle.slash" 
d="M63 0l46 104q-29 53 -29 121v572q0 109 70.5 172t177.5 63q101 0 170 -57l22 49h76l-49 -109q31 -51 31 -118v-572q0 -109 -71.5 -171t-178.5 -62q-103 0 -170 55l-21 -47h-74zM197 797v-498l249 561q-15 35 -47 54.5t-71 19.5q-56 0 -93.5 -37t-37.5 -100zM328 90
q57 0 95 36t38 99v496l-252 -561q36 -70 119 -70z" />
    <glyph glyph-name="zero.slash.smcp" 
d="M63 0l46 106q-29 53 -29 119v613q0 109 70.5 172t177.5 63q101 0 170 -57l22 49h76l-47 -109q29 -53 29 -118v-613q0 -109 -71.5 -171t-178.5 -62q-106 0 -170 55l-21 -47h-74zM328 90q57 0 95 36t38 99v527l-254 -588q15 -35 48 -54.5t73 -19.5zM197 838v-527l252 588
q-17 35 -49 55.5t-72 20.5q-56 0 -93.5 -37t-37.5 -100z" />
    <glyph glyph-name="zero.fitted.slash.smcp" 
d="M63 0l46 106q-29 53 -29 119v613q0 109 70.5 172t177.5 63q101 0 170 -57l22 49h76l-47 -109q29 -53 29 -118v-613q0 -109 -71.5 -171t-178.5 -62q-106 0 -170 55l-21 -47h-74zM328 90q57 0 95 36t38 99v527l-254 -588q15 -35 48 -54.5t73 -19.5zM197 838v-527l252 588
q-17 35 -49 55.5t-72 20.5q-56 0 -93.5 -37t-37.5 -100z" />
    <glyph glyph-name="Jcircumflex.smcp" horiz-adv-x="645" 
d="M80 344h117v-123q0 -60 36.5 -95.5t90.5 -35.5t89.5 35.5t35.5 95.5v844h116v-844q0 -106 -69 -167.5t-172 -61.5q-104 0 -174 62t-70 167v123zM338 1159l-68 70l238 188l237 -188l-67 -70l-170 135z" />
    <glyph glyph-name="Itilde.smcp" horiz-adv-x="309" 
d="M-90 1176q0 72 42 113.5t107 41.5q37 0 65 -13.5t42 -29.5t36 -29.5t48 -13.5q32 0 54 20.5t22 55.5h77q0 -71 -42.5 -113.5t-106.5 -42.5q-37 0 -65 13.5t-43 29.5t-36.5 29.5t-46.5 13.5q-32 0 -53.5 -20t-21.5 -55h-78zM96 0v1065h117v-1065h-117z" />
    <glyph glyph-name="uni20B4.smcp" horiz-adv-x="645" 
d="M70 596v74h342q34 46 34 94v84q0 60 -34.5 93.5t-87.5 33.5t-89 -34t-36 -93v-90h-117v90q0 105 69 165t173 60q102 0 170.5 -60t68.5 -165v-84q0 -44 -22 -94h34v-74h-90q-24 -22 -52.5 -42.5t-70.5 -48t-55 -36.5h268v-74h-350q-28 -39 -28 -86v-90q0 -60 36.5 -94.5
t90.5 -34.5t89.5 34.5t35.5 94.5v88h116v-88q0 -105 -68.5 -166t-172.5 -61q-105 0 -174.5 61t-69.5 166v90q0 45 18 86h-28v74h80q22 22 51.5 43.5t67.5 46t57 37.5h-256z" />
    <glyph glyph-name="E.smcp" horiz-adv-x="630" 
d="M96 0v1065h455v-98h-338v-367h297v-98h-297v-404h338v-98h-455z" />
    <glyph glyph-name="Thorn.smcp" horiz-adv-x="628" 
d="M96 0v1065h117v-156h86q107 0 178.5 -61.5t71.5 -169.5v-289q0 -109 -71.5 -171t-178.5 -62h-86v-156h-117zM213 252h86q57 0 95 37t38 100v289q0 61 -38 98t-95 37h-86v-561z" />
    <glyph glyph-name="germandbls.smcp" horiz-adv-x="745" 
d="M301 307h117v-88q0 -60 35.5 -94.5t89.5 -34.5t90.5 34.5t36.5 94.5v53q0 28 -27 48.5t-68 31.5t-88.5 26.5t-88.5 33.5t-68 54t-27 85v53q0 34 17.5 57.5t42 36t49 24.5t42 31t17.5 46v37q0 64 -39.5 101.5t-97.5 37.5q-59 0 -98 -37.5t-39 -101.5v-836h-117v836
q0 111 72.5 174t181.5 63q110 0 183 -63t73 -174v-52q0 -33 -17.5 -57.5t-42.5 -38t-50 -26t-42.5 -31t-17.5 -43.5v-37q0 -29 27 -49.5t68 -31.5t88 -27t88 -33.5t68 -53t27 -84.5v-53q0 -105 -69.5 -166t-173.5 -61q-105 0 -173.5 60.5t-68.5 166.5v88z" />
    <glyph glyph-name="Eth.smcp" horiz-adv-x="667" 
d="M43 502v98h53v465h242q107 0 178.5 -63.5t71.5 -172.5v-596q0 -109 -71.5 -171t-178.5 -62h-242v502h-53zM213 98h125q57 0 95 36t38 99v596q0 63 -38 100.5t-95 37.5h-125v-367h137v-98h-137v-404z" />
    <glyph glyph-name="Dcroat.smcp" horiz-adv-x="667" 
d="M43 502v98h53v465h242q107 0 178.5 -63.5t71.5 -172.5v-596q0 -109 -71.5 -171t-178.5 -62h-242v502h-53zM213 98h125q57 0 95 36t38 99v596q0 63 -38 100.5t-95 37.5h-125v-367h137v-98h-137v-404z" />
    <glyph glyph-name="Iogonek.smcp" horiz-adv-x="309" 
d="M96 -70v1135h117v-1065h-31v-70q0 -51 30.5 -85.5t82.5 -34.5v-74q-91 0 -145 56t-54 138z" />
    <glyph glyph-name="at.smcp" horiz-adv-x="1447" 
d="M721 -319v-99q-131 0 -245 42t-200 119.5t-135 196.5t-49 265v244q0 145 49.5 264.5t135 197t199.5 120t245 42.5q176 0 318.5 -72t229.5 -215.5t87 -336.5v-449h-500v106q-37 -55 -91.5 -84.5t-119.5 -29.5q-72 0 -121 47t-49 129v262q0 109 71.5 171.5t178.5 62.5
q70 0 132 -19t89 -38l27 -19v-490h266v351q0 159 -70.5 280.5t-187 183.5t-260.5 62q-142 0 -257.5 -62t-185 -183t-69.5 -281v-244q0 -121 40 -221t110 -166t163 -101.5t199 -35.5zM856 526q-51 39 -131 39q-57 0 -95 -36t-38 -99v-235q0 -49 28.5 -77t71.5 -28
q70 0 117 46.5t47 123.5v266z" />
    <glyph glyph-name="D.smcp" horiz-adv-x="667" 
d="M96 0v1065h242q107 0 178.5 -63.5t71.5 -172.5v-596q0 -109 -71.5 -171t-178.5 -62h-242zM213 98h125q57 0 95 36t38 99v596q0 63 -38 100.5t-95 37.5h-125v-869z" />
    <glyph glyph-name="Imacron.smcp" horiz-adv-x="309" 
d="M96 0v1065h117v-1065h-117zM-41 1233v98h393v-98h-393z" />
    <glyph glyph-name="Igrave.smcp" horiz-adv-x="309" 
d="M246 1155l-252 211l69 70l252 -209zM96 0v1065h117v-1065h-117z" />
    <glyph glyph-name="Idotaccent.smcp" horiz-adv-x="309" 
d="M96 0v1065h117v-1065h-117zM96 1241v193h117v-193h-117z" />
    <glyph glyph-name="Idieresis.smcp" horiz-adv-x="309" 
d="M96 0v1065h117v-1065h-117zM-39 1210v191h102v-191h-102zM252 1210v191h102v-191h-102z" />
    <glyph glyph-name="Icircumflex.smcp" horiz-adv-x="309" 
d="M96 0v1065h117v-1065h-117zM-16 1159l-68 70l238 188l237 -188l-67 -70l-170 135z" />
    <glyph glyph-name="Ibreve.smcp" horiz-adv-x="309" 
d="M-37 1337h86q0 -52 30.5 -82t76.5 -30q48 0 79 30t31 82h84q0 -86 -55.5 -137t-138.5 -51q-82 0 -137.5 50.5t-55.5 137.5zM96 0v1065h117v-1065h-117z" />
    <glyph glyph-name="Iacute.smcp" horiz-adv-x="309" 
d="M63 1155l-69 72l252 211l69 -70zM96 0v1065h117v-1065h-117z" />
    <glyph glyph-name="zero.sup" 
d="M328 1391q107 0 178.5 -63.5t71.5 -172.5v-930q0 -109 -71.5 -171t-178.5 -62t-177.5 62t-70.5 171v930q0 109 70.5 172.5t177.5 63.5zM197 1155v-930q0 -62 37.5 -98.5t93.5 -36.5q57 0 95 36t38 99v930q0 63 -38 100t-95 37q-56 0 -93.5 -37t-37.5 -100z" />
    <glyph glyph-name="one.sup" horiz-adv-x="243" 
d="M37 1315v63l82 52h67v-611h-67v547z" />
    <glyph glyph-name="two.sup" horiz-adv-x="327" 
d="M51 819v123q0 36 16.5 66.5t39.5 51.5t46 40.5t39.5 42.5t16.5 49v137q0 21 -14 35t-35 14q-19 0 -31 -13t-12 -34v-67h-68v67q0 48 31.5 75.5t79.5 27.5q49 0 82.5 -28.5t33.5 -76.5v-137q0 -36 -16 -66.5t-39.5 -51.5t-46.5 -40.5t-39 -42.5t-16 -49v-68h157v-55h-225z
" />
    <glyph glyph-name="three.sup" horiz-adv-x="325" 
d="M164 870q19 0 32 13.5t13 36.5v139q0 23 -13 36t-32 13h-47v55h43q21 0 35 13t14 36v117q0 21 -14 35t-35 14q-19 0 -31 -13t-12 -34v-67h-68v67q0 48 31.5 75.5t79.5 27.5q49 0 82.5 -28.5t33.5 -76.5v-100q0 -69 -61 -92q61 -23 61 -95v-122q0 -48 -32.5 -76.5
t-79.5 -28.5q-48 0 -80.5 27.5t-32.5 75.5v67h68v-67q0 -21 13 -34.5t32 -13.5z" />
    <glyph glyph-name="four.sup" horiz-adv-x="325" 
d="M37 938v55l125 437h104v-437h23v-55h-23v-119h-65v119h-164zM100 993h101v365h-2z" />
    <glyph glyph-name="five.sup" horiz-adv-x="329" 
d="M119 1104h-68v326h223v-58h-155v-205q31 45 86 45q32 0 53 -20t21 -55v-217q0 -49 -33 -77t-82 -28t-81 28t-32 77v65h68v-65q0 -23 13 -36.5t32 -13.5q21 0 34 13.5t13 36.5v200q0 37 -35 37q-23 0 -40 -16t-17 -37z" />
    <glyph glyph-name="six.sup" horiz-adv-x="329" 
d="M166 1378q-20 0 -33.5 -13.5t-13.5 -35.5v-184q31 45 86 45q32 0 53 -20t21 -56v-194q0 -49 -33 -77t-82 -28t-81 28t-32 77v409q0 48 33 76.5t82 28.5q47 0 78.5 -28.5t31.5 -74.5v-67h-67v67q0 21 -12 34t-31 13zM119 1073v-153q0 -23 13 -36.5t32 -13.5q21 0 34 13.5
t13 36.5v178q0 37 -35 37q-24 0 -40.5 -17t-16.5 -45z" />
    <glyph glyph-name="seven.sup" horiz-adv-x="313" 
d="M45 1372v58h223v-33l-118 -578h-70l115 553h-150z" />
    <glyph glyph-name="eight.sup" horiz-adv-x="329" 
d="M164 1434q49 0 82 -28.5t33 -76.5v-106q0 -66 -56 -93q56 -27 56 -90v-120q0 -49 -33 -77t-82 -28t-81 28t-32 77v120q0 63 53 90q-53 27 -53 93v106q0 48 32 76.5t81 28.5zM119 1329v-123q0 -23 13 -36t32 -13q21 0 34 13t13 36v123q0 22 -13.5 35.5t-33.5 13.5
q-19 0 -32 -14t-13 -35zM119 1053v-133q0 -23 13 -36.5t32 -13.5q21 0 34 13.5t13 36.5v133q0 24 -13 37.5t-34 13.5q-20 0 -32.5 -13.5t-12.5 -37.5z" />
    <glyph glyph-name="nine.sup" horiz-adv-x="329" 
d="M164 870q21 0 34 14t13 38v182q-37 -47 -86 -47q-32 0 -53 21t-21 57v194q0 48 33 76.5t82 28.5t81 -28.5t32 -76.5v-407q0 -49 -33 -78t-82 -29q-48 0 -80.5 28.5t-32.5 74.5v67h68v-67q0 -22 12.5 -35t32.5 -13zM211 1174v155q0 23 -13 36t-32 13q-21 0 -34 -13
t-13 -36v-178q0 -18 10 -27.5t25 -9.5q25 0 41 16.5t16 43.5z" />
    <glyph glyph-name="comma.sup" horiz-adv-x="174" 
d="M84 709h-53q24 57 24 110v92h64v-92q0 -24 -8.5 -51.5t-17.5 -43.5z" />
    <glyph glyph-name="period.sup" horiz-adv-x="174" 
d="M55 819v92h64v-92h-64z" />
    <glyph glyph-name="parenleft.sup" horiz-adv-x="210" 
d="M164 1446q-19 0 -32 -13t-13 -36v-570q0 -21 13 -34t32 -13h10v-55h-10q-49 0 -81 27t-32 75v570q0 48 32 76t81 28h10v-55h-10z" />
    <glyph glyph-name="parenright.sup" horiz-adv-x="210" 
d="M45 780q21 0 34 13t13 36v568q0 23 -13 36t-34 13h-8v55h8q49 0 82 -28t33 -76v-568q0 -48 -33 -76t-82 -28h-8v55h8z" />
    <glyph glyph-name="hyphen.sup" horiz-adv-x="235" 
d="M45 1042v56h145v-56h-145z" />
    <glyph glyph-name="zero.slash.sup" horiz-adv-x="331" 
d="M45 819l16 49q-10 18 -10 52v409q0 48 32 76.5t81 28.5q45 0 76 -25l8 21h39l-19 -56q11 -22 11 -45v-409q0 -49 -33 -77t-82 -28q-50 0 -76 23l-6 -19h-37zM119 1329v-289l92 279v10q0 22 -13.5 35.5t-33.5 13.5q-19 0 -32 -14t-13 -35zM164 870q21 0 34 13.5t13 36.5
v282l-92 -274v-8q0 -23 13 -36.5t32 -13.5z" />
    <glyph glyph-name="C.smcp" horiz-adv-x="645" 
d="M197 844v-625q0 -60 35.5 -94.5t89.5 -34.5t90.5 34.5t36.5 94.5v107h116v-107q0 -105 -69.5 -166t-173.5 -61t-173 61t-69 166v625q0 105 69.5 167t172.5 62q104 0 173.5 -62t69.5 -167v-105h-116v105q0 60 -36.5 95.5t-90.5 35.5t-89.5 -35.5t-35.5 -95.5z" />
    <glyph glyph-name="B.smcp" horiz-adv-x="661" 
d="M96 0v1065h236q107 0 178.5 -63.5t71.5 -172.5v-59q0 -77 -38.5 -132t-103.5 -79q67 -24 106.5 -80t39.5 -135v-108q0 -109 -71.5 -172.5t-178.5 -63.5h-240zM336 508h-123v-410h123q57 0 95 37.5t38 100.5v137q0 63 -38 99t-95 36zM213 606h119q57 0 95 36t38 99v88
q0 63 -38 100.5t-95 37.5h-119v-361z" />
    <glyph glyph-name="AE.smcp" horiz-adv-x="806" 
d="M326 0v299h-121l-53 -299h-121l213 1065h483v-98h-285v-367h244v-98h-244v-404h285v-98h-401zM322 956l-105 -559h109v559h-4z" />
    <glyph glyph-name="zero.sub" horiz-adv-x="329" 
d="M164 512q49 0 82 -28t33 -76v-410q0 -49 -32.5 -76.5t-82.5 -27.5q-49 0 -81 27.5t-32 76.5v410q0 48 32 76t81 28zM119 408v-410q0 -23 13 -36t32 -13q21 0 34 13t13 36v410q0 22 -13.5 35.5t-33.5 13.5q-19 0 -32 -14t-13 -35z" />
    <glyph glyph-name="one.sub" horiz-adv-x="243" 
d="M37 393v64l82 51h67v-610h-67v546z" />
    <glyph glyph-name="two.sub" horiz-adv-x="327" 
d="M51 -102v122q0 36 16.5 66.5t39.5 51.5t46 40.5t39.5 42.5t16.5 49v138q0 21 -14 35t-35 14q-19 0 -31 -13t-12 -34v-68h-68v68q0 48 31.5 75t79.5 27q49 0 82.5 -28t33.5 -76v-138q0 -36 -16 -66.5t-39.5 -51.5t-46.5 -40.5t-39 -42.5t-16 -49v-67h157v-55h-225z" />
    <glyph glyph-name="three.sub" horiz-adv-x="325" 
d="M164 -51q19 0 32 13t13 36v139q0 23 -13 36t-32 13h-47v56h43q21 0 35 13t14 36v117q0 21 -14 35t-35 14q-19 0 -31 -13t-12 -34v-68h-68v68q0 48 31.5 75t79.5 27q49 0 82.5 -28t33.5 -76v-101q0 -69 -61 -92q61 -23 61 -94v-123q0 -48 -32 -76t-80 -28t-80.5 27
t-32.5 75v67h68v-67q0 -21 13 -34t32 -13z" />
    <glyph glyph-name="four.sub" horiz-adv-x="325" 
d="M37 16v56l125 436h104v-436h23v-56h-23v-118h-65v118h-164zM100 72h101v364h-2z" />
    <glyph glyph-name="five.sub" horiz-adv-x="329" 
d="M119 182h-68v326h223v-57h-155v-205q31 45 86 45q32 0 53 -20t21 -56v-217q0 -49 -32.5 -76.5t-82.5 -27.5q-49 0 -81 27.5t-32 76.5v65h68v-65q0 -23 13 -36t32 -13q21 0 34 13t13 36v201q0 37 -35 37q-23 0 -40 -16.5t-17 -37.5z" />
    <glyph glyph-name="six.sub" horiz-adv-x="329" 
d="M166 457q-20 0 -33.5 -13.5t-13.5 -35.5v-185q31 45 86 45q32 0 53 -20t21 -55v-195q0 -49 -32.5 -76.5t-82.5 -27.5q-49 0 -81 27.5t-32 76.5v410q0 48 33 76t82 28q47 0 78.5 -28t31.5 -74v-68h-67v68q0 21 -12 34t-31 13zM119 152v-154q0 -23 13 -36t32 -13
q21 0 34 13t13 36v178q0 37 -35 37q-24 0 -40.5 -16.5t-16.5 -44.5z" />
    <glyph glyph-name="seven.sub" horiz-adv-x="313" 
d="M45 451v57h223v-33l-118 -577h-70l115 553h-150z" />
    <glyph glyph-name="eight.sub" horiz-adv-x="329" 
d="M164 512q49 0 82 -28t33 -76v-107q0 -65 -56 -92q56 -27 56 -90v-121q0 -49 -32.5 -76.5t-82.5 -27.5q-49 0 -81 27.5t-32 76.5v121q0 63 53 90q-53 27 -53 92v107q0 48 32 76t81 28zM119 408v-123q0 -23 13 -36t32 -13q21 0 34 13t13 36v123q0 22 -13.5 35.5t-33.5 13.5
q-19 0 -32 -14t-13 -35zM119 131v-133q0 -23 13 -36t32 -13q21 0 34 13t13 36v133q0 24 -13 37.5t-34 13.5q-20 0 -32.5 -13.5t-12.5 -37.5z" />
    <glyph glyph-name="nine.sub" horiz-adv-x="329" 
d="M164 -51q21 0 34 13.5t13 37.5v182q-37 -47 -86 -47q-32 0 -53 21t-21 57v195q0 48 33 76t82 28t81 -28t32 -76v-408q0 -49 -33 -77.5t-82 -28.5q-48 0 -80.5 28t-32.5 74v67h68v-67q0 -22 12.5 -34.5t32.5 -12.5zM211 252v156q0 23 -13 36t-32 13q-21 0 -34 -13t-13 -36
v-179q0 -18 10 -27t25 -9q25 0 41 16t16 43z" />
    <glyph glyph-name="comma.sub" horiz-adv-x="174" 
d="M84 -213h-53q24 58 24 111v92h64v-92q0 -24 -8.5 -51.5t-17.5 -43.5z" />
    <glyph glyph-name="period.sub" horiz-adv-x="174" 
d="M55 -102v92h64v-92h-64z" />
    <glyph glyph-name="parenleft.sub" horiz-adv-x="210" 
d="M164 524q-19 0 -32 -13t-13 -36v-569q0 -21 13 -34t32 -13h10v-56h-10q-49 0 -81 27.5t-32 75.5v569q0 48 32 76.5t81 28.5h10v-56h-10z" />
    <glyph glyph-name="parenright.sub" horiz-adv-x="210" 
d="M45 -141q21 0 34 13t13 36v567q0 23 -13 36t-34 13h-8v56h8q49 0 82 -28.5t33 -76.5v-567q0 -48 -33 -76.5t-82 -28.5h-8v56h8z" />
    <glyph glyph-name="hyphen.sub" horiz-adv-x="235" 
d="M45 121v55h145v-55h-145z" />
    <glyph glyph-name="zero.slash.sub" horiz-adv-x="331" 
d="M45 -102l16 51q-10 17 -10 49v410q0 48 32 76t81 28q45 0 76 -25l8 21h39l-19 -55q11 -22 11 -45v-410q0 -49 -32.5 -76.5t-82.5 -27.5q-48 0 -76 22l-6 -18h-37zM119 408v-289l92 278v11q0 22 -13.5 35.5t-33.5 13.5q-19 0 -32 -14t-13 -35zM164 -51q21 0 34 13t13 36
v283l-92 -275v-8q0 -23 13 -36t32 -13z" />
    <glyph glyph-name="A.smcp" horiz-adv-x="645" 
d="M399 1065l213 -1065h-120l-56 299h-231l-53 -299h-121l213 1065h155zM322 956l-105 -559h209l-100 559h-4z" />
    <glyph glyph-name="eight.taboldstyle" 
d="M328 1391q107 0 178.5 -63.5t71.5 -172.5v-242q0 -74 -34 -127.5t-93 -80.5q59 -27 93 -80.5t34 -126.5v-273q0 -109 -71.5 -171t-178.5 -62t-177.5 62t-70.5 171v273q0 73 33.5 126.5t91.5 80.5q-125 58 -125 208v242q0 109 70.5 172.5t177.5 63.5zM197 1155v-266
q0 -62 37.5 -98.5t93.5 -36.5q57 0 95 36t38 99v266q0 63 -38 100t-95 37q-56 0 -93.5 -37t-37.5 -100zM197 518v-293q0 -62 37.5 -98.5t93.5 -36.5q57 0 95 36t38 99v293q0 63 -38 100t-95 37q-56 0 -93.5 -37t-37.5 -100z" />
    <glyph glyph-name="Hcircumflex.smcp" horiz-adv-x="692" 
d="M96 0v1065h117v-465h266v465h117v-1065h-117v502h-266v-502h-117zM176 1159l-67 70l237 188l238 -188l-68 -70l-170 135z" />
    <glyph glyph-name="nine.taboldstyle" 
d="M326 -236q57 0 96 38t39 102v397q-35 -55 -90 -84t-119 -29q-73 0 -122.5 46.5t-49.5 127.5v437q0 109 71.5 171t178.5 62t177.5 -62t70.5 -171v-895q0 -110 -72 -174t-180 -64q-105 0 -175.5 62.5t-70.5 169.5v102h117v-102q0 -61 36.5 -97.5t92.5 -36.5zM461 457v342
q0 63 -37 99t-94 36t-95 -36t-38 -99v-410q0 -48 28.5 -75t71.5 -27q71 0 117.5 46t46.5 124z" />
    <glyph glyph-name="Gdotaccent.smcp" horiz-adv-x="645" 
d="M324 485v99h241v-365q0 -105 -69.5 -166t-173.5 -61t-173 61t-69 166v625q0 105 69.5 167t172.5 62q104 0 173.5 -62t69.5 -167v-105h-116v105q0 60 -36.5 95.5t-90.5 35.5t-89.5 -35.5t-35.5 -95.5v-625q0 -60 35.5 -94.5t89.5 -34.5t90.5 34.5t36.5 94.5v266h-125z
M262 1241v193h117v-193h-117z" />
    <glyph glyph-name="Gcommaaccent.smcp" horiz-adv-x="645" 
d="M324 485v99h241v-365q0 -105 -69.5 -166t-173.5 -61t-173 61t-69 166v625q0 105 69.5 167t172.5 62q104 0 173.5 -62t69.5 -167v-105h-116v105q0 60 -36.5 95.5t-90.5 35.5t-89.5 -35.5t-35.5 -95.5v-625q0 -60 35.5 -94.5t89.5 -34.5t90.5 34.5t36.5 94.5v266h-125z
M373 -205q0 -77 -54 -209h-86q41 126 41 209v144h99v-144z" />
    <glyph glyph-name="U.smcp" 
d="M80 1065h117v-840q0 -62 37.5 -98.5t93.5 -36.5q57 0 95 36t38 99v840h117v-840q0 -109 -71.5 -171t-178.5 -62t-177.5 62t-70.5 171v840z" />
    </font>
</defs>
</svg>
