<?xml version="1.0" standalone="no"?>
<!DOCTYPE svg PUBLIC "-//W3C//DTD SVG 1.1//EN" "http://www.w3.org/Graphics/SVG/1.1/DTD/svg11.dtd" >
<svg xmlns="http://www.w3.org/2000/svg" xmlns:xlink="http://www.w3.org/1999/xlink" version="1.1">
<metadata>
Created by FontForge 20170731 at Sat May 29 03:00:12 2021
 By Aleksey,,,
Copyright (C) 2016 Hoefler &#38; Co. http://www.typography.com
</metadata>
<defs>
<font id="OperatorMonoSSm-LightItalic" horiz-adv-x="1280" >
  <font-face 
    font-family="Operator Mono SSm Light"
    font-weight="300"
    font-style="italic"
    font-stretch="normal"
    units-per-em="2048"
    panose-1="2 0 0 9 0 0 0 0 0 0"
    ascent="1638"
    descent="-410"
    x-height="1102"
    cap-height="1409"
    bbox="-141 -852 1618 2558"
    underline-thickness="116"
    underline-position="-290"
    slope="-11"
    unicode-range="U+0020-E10D"
  />
<missing-glyph horiz-adv-x="1126" 
d="M16 -410l-30 2048h1106l30 -2048h-1106zM143 1536l408 -799l385 799h-793zM985 1384l-369 -770l392 -770zM123 -156l369 770l-392 770zM555 492l-383 -799h793z" />
    <glyph glyph-name=".notdef" horiz-adv-x="1126" 
d="M16 -410l-30 2048h1106l30 -2048h-1106zM143 1536l408 -799l385 799h-793zM985 1384l-369 -770l392 -770zM123 -156l369 770l-392 770zM555 492l-383 -799h793z" />
    <glyph glyph-name=".null" horiz-adv-x="0" 
 />
    <glyph glyph-name="nonmarkingreturn" horiz-adv-x="682" 
 />
    <glyph glyph-name="space" unicode=" " 
 />
    <glyph glyph-name="exclam" unicode="!" 
d="M670 518h-95q28 141 85.5 531t74.5 487h189q-24 -101 -123.5 -489.5t-130.5 -528.5zM616 0h-213l48 225h211z" />
    <glyph glyph-name="quotedbl" unicode="&#x22;" 
d="M977 877h-100l110 639h182l-6 -76zM494 877h-101l111 639h184l-8 -76z" />
    <glyph glyph-name="numbersign" unicode="#" 
d="M469 516l307 49l88 357l-307 -50zM332 -27l-111 -12l105 410l-236 -37l29 127l237 37l90 356l-235 -37l27 127l241 39l107 418l108 12l-104 -414l307 50l102 409l111 15l-102 -406l237 37l-26 -127l-244 -39l-88 -356l239 39l-28 -127l-244 -39l-106 -424l-109 -13
l104 420l-307 -49z" />
    <glyph glyph-name="dollar" unicode="$" 
d="M467 1087q0 -57 50 -121.5t145 -152.5l124 418q-162 8 -240.5 -34t-78.5 -110zM897 328q0 57 -52 123t-151 155l-131 -432q165 -4 249.5 40.5t84.5 113.5zM1034 330q0 -54 -28.5 -102t-85.5 -88.5t-156 -64.5t-227 -24l-66 -241l-129 2l74 245q-163 14 -314 49l33 138
q188 -49 328 -64l151 496q-67 60 -107.5 100t-87 95.5t-69 106.5t-22.5 101q0 56 27.5 105t83.5 88.5t151.5 60.5t220.5 17l76 247h133l-84 -256q119 -15 260 -49l-27 -133q-168 48 -284 62l-146 -480q55 -50 87.5 -80.5t77.5 -79t69.5 -85t42.5 -81t18 -85.5z" />
    <glyph glyph-name="percent" unicode="%" 
d="M692 1219q0 -165 -79.5 -283.5t-192.5 -118.5q-80 0 -128 58t-48 163q0 164 78.5 282t191.5 118q80 0 129 -57t49 -162zM233 -12l-86 71l1022 1362l88 -71zM571 1217q0 108 -71 108q-56 0 -97 -88.5t-41 -198.5q0 -106 72 -106q37 0 69 42t50 107.5t18 135.5zM713 188
q0 108 35.5 200.5t98.5 147t138 54.5q79 0 127.5 -58t48.5 -161q0 -165 -79.5 -283.5t-192.5 -118.5q-80 0 -128 57.5t-48 161.5zM831 190q0 -106 72 -106q56 0 96.5 87.5t40.5 197.5q0 106 -71 106q-56 0 -97 -87.5t-41 -197.5z" />
    <glyph glyph-name="ampersand" unicode="&#x26;" 
d="M1085 -43q-163 160 -272 309q-133 -140 -261.5 -214.5t-236.5 -74.5q-120 0 -186 70.5t-66 194.5q0 315 490 745q2 112 40.5 222.5t94 177.5t105.5 67q46 0 72 -26.5t26 -77.5q0 -83 -55 -188t-152 -206q18 -246 160 -479q109 147 219 363l125 -45q-127 -229 -279 -418
q117 -159 287 -320zM356 109q80 0 182 64t212 187q-156 250 -189 490q-167 -167 -261.5 -311.5t-94.5 -268.5q0 -76 40 -118.5t111 -42.5z" />
    <glyph glyph-name="quotesingle" unicode="'" 
d="M737 877h-100l111 639h188l-8 -76z" />
    <glyph glyph-name="parenleft" unicode="(" 
d="M1149 1624l78 -104q-219 -138 -373 -269t-246.5 -257.5t-134 -248t-41.5 -253.5q0 -197 109.5 -409.5t345.5 -457.5l-111 -84q-251 270 -367 502.5t-116 448.5q0 287 202.5 559.5t653.5 572.5z" />
    <glyph glyph-name="parenright" unicode=")" 
d="M117 -483l-78 102q290 183 468 357.5t252.5 334.5t74.5 336q0 198 -109 409t-346 457l113 84q250 -267 365.5 -500t115.5 -448q0 -288 -202.5 -560t-653.5 -572z" />
    <glyph glyph-name="asterisk" unicode="*" 
d="M844 633l-162 319l-305 -184l-55 70l253 249l-276 238l51 74l316 -168l143 334l88 -25l-57 -354l358 -33l2 -86l-356 -53l84 -348z" />
    <glyph glyph-name="plus" unicode="+" 
d="M1137 598h-422l-86 -436h-131l86 436h-424l24 123h422l86 436h131l-86 -436h426z" />
    <glyph glyph-name="comma" unicode="," 
d="M283 -383q140 145 180.5 279.5t13.5 339.5l215 6q-7 -209 -87.5 -359t-262.5 -301z" />
    <glyph glyph-name="hyphen" unicode="-" 
d="M991 723l-24 -125h-672l24 125h672z" />
    <glyph glyph-name="period" unicode="." 
d="M649 0h-215l47 236h215z" />
    <glyph glyph-name="slash" unicode="/" 
d="M1284 1622l115 -55l-1389 -1975l-129 35z" />
    <glyph glyph-name="zero" unicode="0" 
d="M160 496q0 243 82 458.5t229 348.5t322 133q179 0 283 -133t104 -385q0 -183 -49 -355t-132 -302t-201.5 -209t-250.5 -79q-179 0 -283 134t-104 389zM766 1311q-124 0 -227.5 -105.5t-163.5 -272t-70 -355.5l729 380q-10 175 -79 264t-189 89zM573 98q124 0 228.5 106.5
t164 274t68.5 357.5l-729 -379q9 -177 79 -268t189 -91z" />
    <glyph glyph-name="one" unicode="1" 
d="M1014 0h-873l25 125h389l199 1030l-367 -20l16 106l377 45l33 174l143 10l-260 -1345h353z" />
    <glyph glyph-name="two" unicode="2" 
d="M1006 0h-891v117q136 93 227.5 158.5t193 141.5t166 133t127 121.5t96.5 119t55 113t21 116.5q0 340 -630 242l20 137q370 59 563 -33t193 -311q0 -94 -37.5 -185t-101.5 -173.5t-174.5 -179.5t-229.5 -184.5t-293 -205.5h719z" />
    <glyph glyph-name="three" unicode="3" 
d="M1081 383q0 -47 -14 -91t-46 -88.5t-82.5 -80.5t-124 -66.5t-171 -46.5t-222.5 -20.5t-280 10.5l19 139q133 -15 244.5 -17t191 5.5t141 24.5t100 39.5t63.5 51t34.5 57t9.5 60.5q0 51 -28.5 97t-92 91t-174.5 87.5t-266 79.5l10 71l645 496h-657l25 127h811l-15 -123
l-641 -495q520 -136 520 -408z" />
    <glyph glyph-name="four" unicode="4" 
d="M1110 309h-162l-61 -309h-133l59 309h-672l6 97q150 251 251.5 478t195.5 539l154 -8q-100 -314 -204.5 -529t-254.5 -448h551l96 500l137 12l-100 -512h176z" />
    <glyph glyph-name="five" unicode="5" 
d="M1075 438q0 -61 -21.5 -119t-68.5 -113.5t-120.5 -98t-177.5 -73t-241 -39t-309 4.5l19 139q180 -20 312.5 -10t222.5 34t145 66t78.5 87t23.5 96q0 246 -619 354l156 643h737l-36 -127h-598l-103 -422q600 -121 600 -422z" />
    <glyph glyph-name="six" unicode="6" 
d="M596 -23q-187 0 -302.5 119.5t-115.5 349.5q0 113 28 223.5t94.5 226t167 216t255.5 191.5t350 155l35 -133q-142 -42 -259.5 -99.5t-199.5 -120t-144.5 -135t-99.5 -141.5t-59 -143q84 75 175 117.5t172.5 50t156 -14t128.5 -69t86 -122.5t32 -167q0 -145 -67.5 -261
t-181.5 -179.5t-251 -63.5zM625 98q151 0 243.5 103t92.5 258q0 109 -56 182.5t-144 95.5t-206 -17t-231 -142q-7 -58 -7 -97q0 -198 86 -290.5t222 -92.5z" />
    <glyph glyph-name="seven" unicode="7" 
d="M414 -8l-148 14q360 674 832 1266v8h-748l29 129h903l-25 -117q-474 -603 -843 -1300z" />
    <glyph glyph-name="eight" unicode="8" 
d="M1026 330q0 -147 -138.5 -252t-344.5 -105q-179 0 -290.5 83t-111.5 218q0 53 17 100.5t60.5 105t125 125t205.5 149.5q-100 96 -154.5 178t-54.5 166q0 107 84.5 190.5t247 122t399.5 -1.5l-39 -141q-148 34 -259 35t-173 -25.5t-91.5 -65.5t-29.5 -90q0 -64 49 -133
t142 -160q174 109 495 283l49 -90q-301 -162 -469 -266q66 -63 105 -104t85.5 -99.5t68.5 -113.5t22 -109zM578 94q135 0 224 65t89 158q0 35 -16.5 74t-36.5 69.5t-62.5 75t-69.5 70t-81 74.5q-107 -70 -177 -126.5t-105 -101t-47.5 -78t-12.5 -69.5q0 -97 83.5 -154
t211.5 -57z" />
    <glyph glyph-name="nine" unicode="9" 
d="M264 -43l-33 133q177 52 314.5 126.5t225.5 160t141.5 172t80.5 180.5q-83 -75 -174 -117.5t-172.5 -50.5t-156 13.5t-128.5 69t-86 122.5t-32 168q0 145 67 261t181 179.5t251 63.5q186 0 302 -119.5t116 -349.5q0 -114 -28.5 -225t-95 -226.5t-167.5 -216t-256 -191
t-350 -153.5zM379 954q0 -87 35.5 -153t99 -98.5t142.5 -34t174 42t186 127.5q6 50 6 94q0 198 -85.5 290.5t-221.5 92.5q-151 0 -243.5 -103t-92.5 -258z" />
    <glyph glyph-name="colon" unicode=":" 
d="M801 760h-215l47 235h215zM641 0h-215l47 236h217z" />
    <glyph glyph-name="semicolon" unicode=";" 
d="M801 760h-215l47 235h215zM276 -383q140 145 181 278t16 338l213 7q-7 -207 -88 -358t-264 -300z" />
    <glyph glyph-name="less" unicode="&#x3c;" 
d="M1110 1348l66 -111l-803 -565l-4 -21l585 -592l-98 -98l-633 651l23 125z" />
    <glyph glyph-name="equal" unicode="=" 
d="M1171 981l-24 -121h-893l22 121h895zM1073 475l-24 -123h-893l24 123h893z" />
    <glyph glyph-name="greater" unicode="&#x3e;" 
d="M229 -39l-65 111l803 565l4 20l-586 594l98 97l633 -650l-22 -125z" />
    <glyph glyph-name="question" unicode="?" 
d="M338 1399l29 143q416 -45 616.5 -141t200.5 -256q0 -143 -158 -289t-520 -330l-45 80q310 159 435.5 272t125.5 218q0 126 -162.5 192.5t-521.5 110.5zM506 0h-211l47 223h211z" />
    <glyph glyph-name="at" unicode="@" 
d="M932 -319q-795 -180 -795 589q0 191 40.5 380t116 349t175.5 284t227 194.5t262 70.5q196 0 267 -142.5t14 -416.5l-96 -469q-35 -177 -62 -375l-125 2l13 119q-64 -60 -134 -96.5t-128 -36.5q-75 0 -121.5 73t-46.5 214q0 122 34 241t93.5 213t148 152.5t189.5 58.5
q56 0 122 -14q28 182 -20 272.5t-178 90.5q-128 0 -251 -98.5t-213 -257.5t-145 -370t-55 -427q0 -126 22.5 -220t73 -162t129.5 -101.5t194.5 -33.5t264.5 37zM768 258q43 0 102.5 30.5t112.5 76.5l117 577q-95 31 -152 31q-70 0 -136 -81t-105 -204.5t-39 -245.5
q0 -93 28 -138.5t72 -45.5z" />
    <glyph glyph-name="A" unicode="A" 
d="M928 -6q-5 61 -41 459h-506q-87 -178 -215 -453h-150q295 629 699 1415h211q92 -784 149 -1409zM788 1284q-202 -405 -352 -717h441q-35 360 -72 717h-17z" />
    <glyph glyph-name="B" unicode="B" 
d="M1116 422q0 -64 -22.5 -123t-71 -115t-125 -97.5t-185 -69.5t-250.5 -32t-321 15l273 1405q204 27 350 18t239.5 -52t138 -105.5t44.5 -143.5q0 -135 -103.5 -240t-285.5 -155q144 -27 231.5 -109t87.5 -196zM1042 1087q0 120 -127 178.5t-374 30.5l-107 -544
q305 13 456.5 106t151.5 229zM973 408q0 129 -137.5 198t-419.5 51l-103 -536q137 -14 244.5 -4.5t186 34.5t129.5 65.5t75.5 88.5t24.5 103z" />
    <glyph glyph-name="C" unicode="C" 
d="M874 1440q182 0 251.5 -126t56.5 -388l-142 -2q2 81 -1 136.5t-14.5 105.5t-33.5 79t-58.5 45.5t-88.5 16.5q-108 0 -207 -68t-167.5 -177.5t-109.5 -249.5t-41 -282q0 -306 189.5 -393t544.5 51l-15 -139q-407 -146 -636.5 -24.5t-229.5 477.5q0 179 55 350t147.5 300.5
t224 208.5t275.5 79z" />
    <glyph glyph-name="D" unicode="D" 
d="M1194 868q0 -158 -40.5 -298.5t-126.5 -258t-210 -196.5t-301.5 -111t-390.5 -4l272 1405q384 67 590.5 -70t206.5 -467zM1047 852q0 253 -134 362.5t-391 79.5l-227 -1177q148 -13 272.5 19.5t212 99.5t148.5 163.5t90 210.5t29 242z" />
    <glyph glyph-name="E" unicode="E" 
d="M1014 129l-33 -129h-821l272 1409h828l-27 -127h-678l-98 -512h575l-22 -113h-576l-102 -528h682z" />
    <glyph glyph-name="F" unicode="F" 
d="M1030 625h-600l-121 -625h-145l272 1409h852l-22 -129h-709l-104 -539h600z" />
    <glyph glyph-name="G" unicode="G" 
d="M922 -248l-136 -4l60 264q-314 -95 -495 35.5t-181 450.5q0 144 34.5 285t98.5 258.5t147 207.5t187 140.5t213 50.5q178 0 249 -123.5t60 -390.5h-139q5 200 -34 290.5t-159 90.5q-106 0 -202 -69t-162.5 -179.5t-106 -251.5t-39.5 -283q0 -278 144.5 -374.5t415.5 -2.5
l88 396l141 6z" />
    <glyph glyph-name="H" unicode="H" 
d="M834 0l127 655h-568l-127 -655h-149l272 1409h150l-123 -635h567l123 635h149l-272 -1409h-149z" />
    <glyph glyph-name="I" unicode="I" 
d="M621 119h350l-29 -119h-836l25 119h342l225 1171h-348l23 119h837l-22 -119h-340z" />
    <glyph glyph-name="J" unicode="J" 
d="M803 111q-74 -74 -231 -106.5t-455 -31.5l24 138q269 -3 382 11t163 64q34 34 58.5 115.5t68.5 306.5l133 682h-477l25 119h622l-149 -780q-52 -272 -84.5 -371.5t-79.5 -146.5z" />
    <glyph glyph-name="K" unicode="K" 
d="M936 -12l-449 723l678 698h164l-672 -700l439 -699zM416 1409h149l-274 -1409h-150z" />
    <glyph glyph-name="L" unicode="L" 
d="M1024 0h-860l274 1409h148l-246 -1280h713z" />
    <glyph glyph-name="M" unicode="M" 
d="M555 1415l72 -997h4l467 991h194l-272 -1409h-146l238 1184h-8l-459 -957h-110l-70 957h-6l-223 -1184h-138l273 1405z" />
    <glyph glyph-name="N" unicode="N" 
d="M836 0l-344 1186h-11l-225 -1186h-139l272 1407l170 6l328 -1163h12l221 1159h140l-275 -1409h-149z" />
    <glyph glyph-name="O" unicode="O" 
d="M1210 911q0 -140 -31 -277.5t-89.5 -256t-137.5 -210t-181.5 -144t-213.5 -52.5q-182 0 -288.5 136t-106.5 391q0 140 31 277.5t89.5 256t137.5 210t181.5 144t213.5 52.5q182 0 288.5 -136t106.5 -391zM313 508q0 -199 71 -302.5t196 -103.5q135 0 247 118t172 300
t60 381q0 200 -70.5 303t-195.5 103q-102 0 -193 -69.5t-153 -182t-98 -256t-36 -291.5z" />
    <glyph glyph-name="P" unicode="P" 
d="M293 0h-148l273 1405q220 26 376.5 11.5t255.5 -68.5t145 -130t46 -174q0 -238 -225 -389t-631 -186zM1094 1022q0 147 -136.5 220t-412.5 44l-133 -676q328 3 505 113.5t177 298.5z" />
    <glyph glyph-name="Q" unicode="Q" 
d="M965 -301l-631 283l35 104q310 127 505 367t195 501q0 171 -77.5 265t-221.5 94q-161 0 -277 -133t-147.5 -362t53.5 -537l-127 -48q-57 160 -73.5 316.5t4.5 288t74 244.5t130.5 191t179 122.5t214.5 44.5q202 0 311 -129t109 -344q0 -142 -52.5 -280.5t-145 -257
t-216.5 -217.5t-270 -171l493 -219z" />
    <glyph glyph-name="R" unicode="R" 
d="M961 -12l-406 641l2 6q260 115 372.5 213.5t112.5 222.5q0 128 -129 186t-381 31l-247 -1288h-148l271 1405q213 25 361.5 15t242 -56t136 -111.5t42.5 -152.5q0 -151 -112.5 -268t-340.5 -226l385 -594z" />
    <glyph glyph-name="S" unicode="S" 
d="M1167 1053l-135 -27q-22 148 -91 215.5t-193 67.5q-123 0 -206 -77.5t-83 -182.5q0 -56 32.5 -111t85 -100.5t115.5 -92t126 -93.5t115.5 -96t85 -109.5t32.5 -124.5q0 -71 -32.5 -132t-108 -110.5t-185 -75t-276 -19.5t-369.5 50l33 147q144 -36 264 -53.5t204.5 -15
t147.5 17t100 42t54.5 60.5t17.5 72q0 50 -32.5 100.5t-85 94.5t-115.5 89.5t-126 94t-115.5 99.5t-85 114.5t-32.5 130.5q0 79 36 153t98.5 130.5t152 90.5t190.5 34q327 0 381 -383z" />
    <glyph glyph-name="T" unicode="T" 
d="M856 1280l-248 -1280h-149l248 1280h-451l23 129h1054l-24 -129h-453z" />
    <glyph glyph-name="U" unicode="U" 
d="M569 -33q-220 0 -318.5 132.5t-49.5 381.5l180 928h147l-178 -917q-76 -392 238 -392q272 0 338 351l186 958h150l-187 -956q-47 -239 -177.5 -362.5t-328.5 -123.5z" />
    <glyph glyph-name="V" unicode="V" 
d="M637 0h-213q-100 772 -150 1403l146 12q35 -443 127 -1280h18q380 739 631 1274h150q-292 -617 -709 -1409z" />
    <glyph glyph-name="W" unicode="W" 
d="M766 0l-59 776l-361 -776h-166q23 500 158 1409h145q-42 -274 -96.5 -684t-64.5 -539h8l372 809h97l59 -809h8q38 128 142 536.5t170 686.5h143q-202 -843 -389 -1409h-166z" />
    <glyph glyph-name="X" unicode="X" 
d="M911 -6l-256 610l-469 -604h-161l569 713l-297 690l149 14l256 -610l472 602h163l-571 -713l297 -690z" />
    <glyph glyph-name="Y" unicode="Y" 
d="M608 0h-149l92 481l-289 926l154 6l239 -795l539 791h162l-658 -944z" />
    <glyph glyph-name="Z" unicode="Z" 
d="M1001 0h-927l20 127l981 1155l-739 -4l24 131h906l-23 -127l-977 -1155l760 4z" />
    <glyph glyph-name="bracketleft" unicode="[" 
d="M162 -406l385 1979h698l-26 -119h-555l-338 -1741h557l-25 -119h-696z" />
    <glyph glyph-name="backslash" unicode="\" 
d="M391 1620l635 -1997l-121 -37l-633 1995z" />
    <glyph glyph-name="bracketright" unicode="]" 
d="M1114 1575l-387 -1978h-696l24 118h557l338 1743h-557l23 117h698z" />
    <glyph glyph-name="asciicircum" unicode="^" 
d="M1016 371l-314 551l-481 -555l-92 79l580 668l34 4l394 -672z" />
    <glyph glyph-name="underscore" unicode="_" 
d="M1065 -115l-23 -114h-1097l20 114h1100z" />
    <glyph glyph-name="grave" unicode="`" 
d="M866 1313l-41 -62q-106 64 -241 169.5t-224 195.5l109 115q78 -101 192 -222t205 -196z" />
    <glyph glyph-name="a" unicode="a" 
d="M442 113q75 0 182.5 65.5t198.5 159.5q48 232 125 629q-127 34 -225 34q-119 0 -221 -91.5t-160.5 -240t-58.5 -313.5q0 -122 43.5 -182.5t115.5 -60.5zM1178 80q-117 -69 -197 -90.5t-121 3t-54 80.5t-1 146q-105 -105 -221 -173.5t-207 -68.5q-107 0 -172.5 90
t-65.5 259q0 155 50 300t136.5 255t211.5 176.5t266 66.5q140 0 307 -45l-158 -798q-12 -65 -14 -106t19.5 -57t68.5 -7.5t133 43.5z" />
    <glyph glyph-name="b" unicode="b" 
d="M473 -23q-126 0 -323 54l303 1554l141 12l-137 -706q106 104 220.5 171.5t207.5 67.5q112 0 182 -95.5t70 -274.5q0 -152 -49.5 -294.5t-136 -250.5t-211.5 -173t-267 -65zM551 100q121 0 224 89t161.5 233.5t58.5 306.5q0 131 -49 199.5t-123 68.5q-81 0 -190 -68.5
t-201 -166.5l-121 -623q133 -39 240 -39z" />
    <glyph glyph-name="c" unicode="c" 
d="M1126 768l-131 -2q-3 131 -47 184.5t-141 53.5q-127 0 -237.5 -81t-175 -216.5t-64.5 -288.5q0 -234 175 -295t525 63l23 -80q-277 -135 -469.5 -129.5t-295 117t-102.5 301.5q0 141 54 275.5t142.5 235t210 161.5t249.5 61q153 0 221.5 -86t62.5 -274z" />
    <glyph glyph-name="d" unicode="d" 
d="M451 113q79 0 182.5 60t189.5 151l125 643q-137 41 -231 41q-119 0 -220 -90t-158.5 -234.5t-57.5 -304.5q0 -129 48 -197.5t122 -68.5zM1186 80q-116 -68 -196.5 -90t-123 1t-56.5 77t-3 141q-102 -102 -215.5 -167t-204.5 -65q-110 0 -179 95.5t-69 273.5q0 152 49 294
t133.5 250t207.5 173t262 65q84 0 186 -18l92 475l145 12l-258 -1308q-12 -68 -14 -111t20 -60t69.5 -8.5t133.5 44.5z" />
    <glyph glyph-name="e" unicode="e" 
d="M1071 123q-170 -87 -317.5 -122.5t-253.5 -20t-182 69.5t-113 141t-37 200q0 130 50 262t135.5 238t210 172.5t261.5 66.5q142 0 225 -69.5t83 -188.5q0 -191 -214.5 -307t-611.5 -145v-10q0 -235 182 -289.5t560 82.5zM793 1008q-95 0 -179.5 -43t-144.5 -114t-100 -160
t-54 -183q208 16 357.5 57.5t235 113.5t85.5 169q0 73 -53.5 116.5t-146.5 43.5z" />
    <glyph glyph-name="f" unicode="f" 
d="M922 -10q0 -114 -56.5 -206t-145.5 -141t-190 -49q-71 0 -130.5 30.5t-106.5 90.5t-73.5 159.5t-26.5 229.5q0 240 75 494l-78 37l19 84h98q84 239 210 438t280 322t299 123q71 0 119.5 -29t65.5 -82.5t5.5 -122.5t-64.5 -155.5t-141 -174.5l-59 37q94 106 125.5 195
t2 136.5t-102.5 47.5q-104 0 -220 -101t-215.5 -267t-169.5 -367l688 -2l-20 -119l-621 8q218 -159 325.5 -317t107.5 -299zM582 -287q97 0 164 68t67 180q0 137 -103 287.5t-319 304.5q-61 -230 -61 -440q0 -207 71 -303.5t181 -96.5z" />
    <glyph glyph-name="g" unicode="g" 
d="M483 182q91 0 186.5 73.5t176.5 207.5q34 244 127 477q-136 68 -244 68q-121 0 -222.5 -85t-157.5 -217t-56 -274q0 -121 53 -185.5t137 -64.5zM967 -203q-114 -229 -842 -184l16 143q225 -21 374 -12.5t219 26t97 44.5t28.5 89t-11 188.5t-12.5 221.5
q-89 -120 -195.5 -192t-216.5 -72q-123 0 -197.5 91t-74.5 259q0 140 48.5 272.5t132 233.5t203.5 162t255 61q114 0 243 -55q31 55 53 55q31 0 64 -17t33 -38q0 -53 -64.5 -234.5t-146.5 -346.5q-6 -71 -6 -127q0 -115 12 -248.5t12 -202.5t-24 -117z" />
    <glyph glyph-name="h" unicode="h" 
d="M1180 78q-94 -59 -168.5 -83.5t-120 -15.5t-69 41.5t-23.5 85.5q0 88 76.5 372.5t76.5 379.5q0 137 -121 137q-82 0 -190 -68t-225 -198l-142 -729h-141l307 1585l144 12l-144 -739q123 133 244.5 201.5t228.5 68.5q99 0 146 -56.5t47 -149.5q0 -95 -39.5 -255.5
t-79 -304t-39.5 -198.5q0 -36 15 -49.5t60.5 -5t131.5 44.5z" />
    <glyph glyph-name="i" unicode="i" 
d="M829 1298l-145 -8l70 301l164 6zM1079 96q-160 -64 -283 -93.5t-203 -23.5t-125.5 42.5t-52.5 103.5t17 160l180 688l-415 -66l-9 80l467 119l129 -4l-209 -797q-14 -55 -15 -91.5t14 -63t48.5 -36t92.5 -7t142.5 20t201.5 50.5z" />
    <glyph glyph-name="j" unicode="j" 
d="M961 1298l-148 -8l76 303l164 9zM29 -395l8 141q204 -5 314.5 -0.5t148 14t61.5 33.5q25 25 34.5 83.5t13 159t10.5 224t38 318t86 401.5l-432 -49l-14 78l489 98l129 -2q-59 -200 -96 -391t-49.5 -322t-21 -250t-13 -196t-22 -137.5t-51.5 -94.5q-60 -60 -188.5 -82.5
t-444.5 -25.5z" />
    <glyph glyph-name="k" unicode="k" 
d="M958 -12l-438 467q140 68 241.5 133t156.5 120t79.5 100t24.5 85q0 49 -31 75.5t-86 26.5q-91 0 -216 -71.5t-259 -208.5l-137 -715h-141l307 1585l143 12l-145 -751q133 137 268.5 209.5t247.5 72.5q95 0 149 -49.5t54 -132.5q0 -116 -116.5 -240t-365.5 -249l428 -445z
" />
    <glyph glyph-name="l" unicode="l" 
d="M1051 147q-313 -192 -507 -160.5t-227 292.5q-22 -15 -61 -40t-47 -30l-43 70q39 21 145 96v12q0 178 43 361t116.5 333.5t163.5 270t190.5 186t191.5 66.5q97 0 151 -60.5t54 -167.5q0 -102 -43 -215.5t-131.5 -241.5t-238.5 -270.5t-351 -286.5q7 -116 45 -179.5
t110.5 -75t171.5 18t236 101.5zM969 1460q-76 0 -164 -84t-162.5 -218.5t-127 -320t-58.5 -370.5q168 128 292.5 253t195.5 232.5t104.5 198t33.5 168.5q0 68 -30.5 104.5t-83.5 36.5z" />
    <glyph glyph-name="m" unicode="m" 
d="M1214 47q-157 -79 -229 -68t-72 103q0 76 79 405t79 420q0 86 -59 86q-42 0 -103 -38.5t-127 -112.5l-166 -842h-122l157 799q21 91 10.5 142.5t-59.5 51.5q-41 0 -100 -38t-125 -109q-28 -150 -164 -846h-137q135 682 203 1098l133 10q-2 -18 -10 -72t-11 -80
q148 170 275 170q65 0 98 -47t29 -137q163 184 294 184q63 0 97.5 -40.5t34.5 -116.5q0 -93 -40.5 -275t-81 -345.5t-40.5 -213.5q0 -24 11 -33t40 -4t82 27z" />
    <glyph glyph-name="n" unicode="n" 
d="M1180 78q-94 -59 -168.5 -83.5t-120 -15.5t-69 41.5t-23.5 85.5q0 88 76.5 371t76.5 379q0 139 -121 139q-81 0 -187 -62t-224 -181q-9 -53 -146 -752h-141q13 69 45.5 235t42.5 217t31.5 166t32 174t24.5 143t27 165l139 10q-1 -5 -15 -99t-22 -143q123 127 245.5 193.5
t229.5 66.5q99 0 146 -56.5t47 -149.5q0 -95 -39.5 -255.5t-79 -304t-39.5 -198.5q0 -36 15 -49.5t60.5 -5t131.5 44.5z" />
    <glyph glyph-name="o" unicode="o" 
d="M1133 682q0 -146 -46.5 -277.5t-125.5 -225.5t-188 -149t-230 -55q-184 0 -291 116.5t-107 330.5q0 193 78 355.5t214 257.5t298 95q183 0 290.5 -116.5t107.5 -331.5zM291 444q0 -165 72.5 -256.5t205.5 -91.5q120 0 216.5 76.5t149 205t52.5 281.5q0 165 -72.5 258
t-205.5 93q-121 0 -217.5 -78.5t-148.5 -207.5t-52 -280z" />
    <glyph glyph-name="p" unicode="p" 
d="M549 98q122 0 225.5 89.5t161 234t57.5 305.5q0 131 -48 199.5t-124 68.5q-81 0 -191.5 -68t-199.5 -165q-45 -242 -119 -625q144 -39 238 -39zM209 -389l-139 -10q217 1127 278 1499l137 10q-6 -32 -36 -229q105 108 223 178.5t213 70.5q111 0 181.5 -96t70.5 -274
q0 -121 -31.5 -237.5t-90.5 -214.5t-139 -172.5t-184 -116.5t-217 -42q-79 0 -190 19q-12 -64 -38.5 -195.5t-37.5 -189.5z" />
    <glyph glyph-name="q" unicode="q" 
d="M1145 -305q-126 -66 -211.5 -89.5t-131.5 -5.5t-59 74.5t5 149.5l71 375q-103 -98 -214.5 -160t-203.5 -62q-115 0 -187.5 95.5t-72.5 273.5q0 122 31.5 238.5t91.5 214t140.5 172t185 116t219.5 41.5q151 0 324 -55l-240 -1210q-7 -36 -9 -57.5t-0.5 -41t12 -27.5
t27 -12t46 1.5t66.5 16t91 28.5zM461 111q82 0 187.5 59t195.5 149l125 652q-130 37 -242 37q-122 0 -225 -89.5t-160 -234t-57 -305.5q0 -131 49 -199.5t127 -68.5z" />
    <glyph glyph-name="r" unicode="r" 
d="M1167 61q-334 -146 -424 -22q-121 168 174 873q7 18 15 36q-216 -69 -397 -69q-56 -120 -149.5 -255.5t-199.5 -252.5l-61 53q221 271 303 465q-98 26 -98 94q0 64 63 130.5t131 66.5q35 0 54.5 -22t19.5 -64q0 -40 -16 -99q232 24 471 127l67 -43q-248 -610 -266 -817
q-13 -141 71 -161q66 -16 228 40z" />
    <glyph glyph-name="s" unicode="s" 
d="M1055 281q0 -45 -14.5 -84t-49.5 -77.5t-92 -65t-142 -47.5t-201 -25t-267 4l6 135q153 -16 261.5 -13.5t178 12.5t109 34t54.5 51t15 63q0 46 -32 107t-74 114t-95 128t-83 135q-147 -138 -404 -301l-39 69q158 114 251 192t153 148q-10 45 -10 80q0 93 67 177.5
t141 84.5q70 0 82 -60q18 -86 -92 -231l-37 -45q16 -51 55.5 -114t82 -120.5t83 -117t67 -120.5t26.5 -113z" />
    <glyph glyph-name="t" unicode="t" 
d="M1051 117q-120 -60 -221.5 -95t-176.5 -43.5t-132 4.5t-91.5 45.5t-51.5 83t-16 114.5t19 141l139 620h-211l31 113h145l164 315l111 6l-72 -321h438l-20 -113h-444l-138 -612q-25 -101 -15 -166t63 -91.5t166 -8t294 85.5z" />
    <glyph glyph-name="u" unicode="u" 
d="M1190 80q-95 -55 -165.5 -79t-113.5 -17.5t-66.5 38.5t-25 90t11.5 136q-122 -137 -226.5 -205t-203.5 -68q-129 0 -179.5 104.5t-2.5 313.5l86 377l-90 55l160 277l145 8l-160 -702q-68 -297 109 -297q80 0 173 66t216 204l143 723h138l-160 -823q-20 -87 -13.5 -131
t52.5 -43.5t153 47.5z" />
    <glyph glyph-name="v" unicode="v" 
d="M563 135q221 377 541 969h149q-350 -642 -632 -1112h-191q-127 618 -197 1108l144 8q75 -517 170 -973h16z" />
    <glyph glyph-name="w" unicode="w" 
d="M770 0l-102 635l-342 -635h-144q18 499 99 1102h143q-58 -419 -109 -909h7l340 638h94l96 -641h10q140 495 238 912h151q-141 -525 -348 -1102h-133z" />
    <glyph glyph-name="x" unicode="x" 
d="M870 -4l-260 469l-432 -465h-158l521 553l-303 545l153 10l262 -467l434 463h158l-520 -551l303 -547z" />
    <glyph glyph-name="y" unicode="y" 
d="M956 -203q-115 -228 -811 -186l21 147q218 -21 361 -13.5t208.5 24.5t91.5 43q18 18 27 48t11.5 82t1.5 99t-4 136t-3 155q-104 -121 -228 -198t-239 -77q-411 0 -20 1045l139 4q-80 -221 -124 -386.5t-55 -265.5t4.5 -161t46.5 -83t79 -22q81 0 191 73t210 192
q11 142 52.5 303t88 264.5t74.5 103.5q36 0 68.5 -14.5t32.5 -36.5q0 -62 -59.5 -255.5t-133.5 -348.5q-4 -29 -4 -92q0 -76 3.5 -188.5t4 -169t-7.5 -120t-27 -102.5z" />
    <glyph glyph-name="z" unicode="z" 
d="M979 0h-891l23 123l886 858l-710 -4l35 127h864l-23 -121l-889 -860l740 4z" />
    <glyph glyph-name="braceleft" unicode="{" 
d="M854 -467q-314 139 -444.5 237.5t-130.5 204.5q0 55 28 105t68.5 88t81 72.5t68.5 71t28 71.5q0 127 -317 160l20 106q109 6 187.5 22.5t120.5 40.5t60.5 50t18.5 57q0 32 -24 77.5t-53 86t-53 95.5t-24 102q0 278 750 456l25 -127q-337 -68 -489 -143t-152 -166
q0 -35 24 -84.5t52.5 -91t52.5 -92t24 -88.5q0 -75 -73 -143.5t-220 -102.5q209 -61 209 -190q0 -46 -28 -90t-67.5 -80t-79 -71.5t-67.5 -77.5t-28 -85q0 -81 115 -162t381 -194z" />
    <glyph glyph-name="bar" unicode="|" 
d="M770 1595l133 4l-389 -2009h-135z" />
    <glyph glyph-name="braceright" unicode="}" 
d="M37 -465l-27 127q337 68 489 143t152 166q0 35 -24 84.5t-52.5 91.5t-52.5 92.5t-24 88.5q0 75 73 144t220 103q-209 58 -209 189q0 46 28 90t67.5 80t79 71.5t67.5 77.5t28 84q0 81 -114.5 162t-381.5 197l64 112q315 -139 446 -238t131 -204q0 -55 -28.5 -105t-69 -88
t-81 -72.5t-69 -71t-28.5 -71.5q0 -126 317 -159l-20 -105q-387 -23 -387 -172q0 -32 24 -77.5t52.5 -85.5t52.5 -95t24 -102q0 -279 -747 -457z" />
    <glyph glyph-name="asciitilde" unicode="~" 
d="M866 457q-39 0 -76 19t-66.5 49t-57.5 66.5t-53.5 73t-50 66.5t-51 49t-52.5 19q-111 0 -252 -324l-96 41q182 414 370 414q53 0 102.5 -35t86.5 -85.5t71 -101t70.5 -85.5t71.5 -35q58 0 124 87.5t130 235.5l96 -41q-91 -207 -181 -310t-186 -103z" />
    <glyph glyph-name="asciitilde" unicode="&#x223c;" 
d="M866 457q-39 0 -76 19t-66.5 49t-57.5 66.5t-53.5 73t-50 66.5t-51 49t-52.5 19q-111 0 -252 -324l-96 41q182 414 370 414q53 0 102.5 -35t86.5 -85.5t71 -101t70.5 -85.5t71.5 -35q58 0 124 87.5t130 235.5l96 -41q-91 -207 -181 -310t-186 -103z" />
    <glyph glyph-name="uni00A0" unicode="&#xa0;" 
 />
    <glyph glyph-name="exclamdown" unicode="&#xa1;" 
d="M698 1409h213l-47 -225h-213zM645 893h96q-28 -139 -85 -525t-76 -495h-189q26 109 124.5 495t129.5 525z" />
    <glyph glyph-name="cent" unicode="&#xa2;" 
d="M344 580q0 -216 254 -308l154 668q-218 -32 -313 -127t-95 -233zM971 76q-154 6 -295 35l-66 -306h-133l80 336q-177 60 -262.5 166t-85.5 246q0 88 31 168t95 152t175.5 125.5t259.5 78.5l72 332h133l-74 -317q114 9 252 0l-25 -142q-138 8 -264 2l-162 -710
q138 -27 295 -35z" />
    <glyph glyph-name="sterling" unicode="&#xa3;" 
d="M1124 295q-26 -71 -53.5 -124t-57 -89t-61.5 -58.5t-67.5 -32t-75.5 -10.5t-85 6.5t-95.5 19.5t-107.5 27q-112 30 -175 44q-101 -107 -231 -107q-92 0 -116 53q-21 48 25 100q65 73 201 84q30 2 62 1q58 159 84 387h-185l21 115h176q14 124 36.5 220t67.5 185
q70 138 187.5 232t259.5 94q292 0 283 -420l-142 -6q0 160 -44.5 225.5t-129.5 65.5q-88 0 -163.5 -61.5t-125.5 -160.5q-61 -124 -90 -374h449l-21 -115h-440q-11 -92 -19.5 -147t-27 -128.5t-43.5 -127.5q54 -11 147 -35q67 -16 98.5 -23t82.5 -14.5t76.5 -2.5t62.5 16
t61.5 37t52 65.5t52.5 95.5z" />
    <glyph glyph-name="yen" unicode="&#xa5;" 
d="M1051 272h-396l-51 -272h-143l53 272h-403l20 115h406l36 180l-20 56h-375l23 114h311l-236 670l148 6l248 -717l512 713h155l-497 -672h301l-23 -114h-364l-47 -66l-33 -170h401z" />
    <glyph glyph-name="section" unicode="&#xa7;" 
d="M317 573q0 -29 17 -57.5t42 -50t68 -47t78 -43t90 -43.5l7 -3.5t6 -2.5q185 44 268.5 92t83.5 110q0 25 -14.5 49t-34 43t-57 43t-65 38.5t-78 41t-77.5 41.5q-144 -26 -239 -79.5t-95 -131.5zM944 25q0 -47 -22.5 -89t-66.5 -79t-118 -61t-169.5 -34t-228 1.5
t-286.5 46.5l33 141q111 -29 206.5 -46.5t167 -23t129.5 -1.5t96 16t64 30t37 39.5t11 46.5q0 39 -34 76t-88 68t-119.5 62t-131.5 65.5t-120 71.5t-88 86.5t-34 105.5q0 115 102 188.5t273 108.5q-162 111 -162 246q0 89 56 167.5t158 128t225 50.5q153 1 233.5 -84.5
t101.5 -257.5l-131 -25q-17 127 -75 185.5t-166 58.5q-109 0 -182.5 -59t-73.5 -142q0 -49 31.5 -93.5t82 -80t111 -69.5t121.5 -68t111.5 -70t82 -82.5t31.5 -97.5q0 -94 -93.5 -161.5t-287.5 -119.5q102 -57 157.5 -114.5t55.5 -130.5z" />
    <glyph glyph-name="dieresis" unicode="&#xa8;" 
d="M938 1298l-145 -4l71 299l164 4zM457 1292l-148 -2l74 297l162 4z" />
    <glyph glyph-name="copyright" unicode="&#xa9;" 
d="M115 582q0 178 49.5 331t133 257.5t195.5 163.5t236 59q204 0 333.5 -152t129.5 -412q0 -237 -81.5 -424t-220 -288t-306.5 -101q-206 0 -337.5 153t-131.5 413zM209 600q0 -228 110.5 -363t280.5 -135q138 0 252 92t180 255t66 362q0 229 -108 362.5t-277 133.5
q-102 0 -194.5 -54t-160.5 -147t-108.5 -225t-40.5 -281zM735 1102q90 0 127 -68.5t29 -204.5l-94 -2q2 90 -15 133.5t-65 43.5q-62 0 -114.5 -58t-81.5 -147.5t-29 -184.5q0 -287 323 -161l-14 -99q-198 -74 -306 -9.5t-108 249.5q0 130 45.5 247t126.5 189t176 72z" />
    <glyph glyph-name="ordfeminine" unicode="&#xaa;" 
d="M539 672q64 0 149.5 47.5t155.5 116.5q61 313 92 460q-98 25 -172 25q-99 0 -182 -65t-129.5 -171t-46.5 -225q0 -89 38 -138.5t95 -49.5zM1126 629q-89 -47 -152 -61.5t-97.5 3t-47.5 57.5t-6 103q-82 -75 -174 -123.5t-164 -48.5q-91 0 -146.5 71.5t-55.5 200.5
q0 152 67.5 287t191 219t273.5 84q134 0 262 -32l-119 -590q-12 -55 -13 -83t14 -45t51.5 -12t101.5 29zM221 383h817l-20 -107h-817z" />
    <glyph glyph-name="guillemotleft" unicode="&#xab;" 
d="M432 -25l-301 504l35 152l489 504l95 -91l-504 -497l307 -494zM958 -25l-294 508l36 152l492 498l94 -93l-508 -491l301 -500z" />
    <glyph glyph-name="registered" unicode="&#xae;" 
d="M762 1526q213 0 338 -126.5t125 -346.5q0 -263 -152 -431.5t-387 -168.5q-213 0 -338 126.5t-125 346.5q0 263 152 431.5t387 168.5zM760 1448q-194 0 -322.5 -140.5t-128.5 -369.5q0 -191 104 -298.5t275 -107.5q194 0 322.5 139.5t128.5 368.5q0 191 -104 299.5
t-275 108.5zM825 731l-172 238q201 63 201 143q0 37 -41 57.5t-137 10.5l-84 -445h-90l100 514q127 20 202 4t105.5 -47t30.5 -78q0 -106 -172 -180l158 -207z" />
    <glyph glyph-name="macron" unicode="&#xaf;" 
d="M1018 1509l-25 -123h-733l25 123h733z" />
    <glyph glyph-name="degree" unicode="&#xb0;" 
d="M788 1526q154 0 250.5 -99t96.5 -262q0 -127 -61 -228t-158.5 -154.5t-208.5 -53.5q-151 0 -246.5 98.5t-95.5 259.5q0 191 127 315t296 124zM725 842q123 0 207 87.5t84 225.5q0 113 -66 186.5t-176 73.5q-122 0 -206.5 -89t-84.5 -226q0 -114 65.5 -186t176.5 -72z" />
    <glyph glyph-name="plusminus" unicode="&#xb1;" 
d="M1030 158h-932l25 118h397l80 406h-405l24 119h404l82 422h131l-82 -422h407l-26 -119h-404l-80 -406h402z" />
    <glyph glyph-name="two.sup" unicode="&#xb2;" 
d="M981 758h-635l-2 96q129 79 210 132t163.5 113.5t127.5 107t73 96.5t28 98q0 202 -440 139l16 109q270 40 410.5 -20.5t140.5 -201.5q0 -71 -34.5 -137.5t-111 -137t-168 -135.5t-235.5 -155h480z" />
    <glyph glyph-name="three.sup" unicode="&#xb3;" 
d="M1030 1008q0 -45 -20.5 -85t-67.5 -77.5t-124 -60t-190 -33t-266 5.5l17 110q128 -14 220.5 -11t153 13t96 31t50 43t14.5 49q0 133 -391 209l8 55l435 295h-451l21 103h579l-12 -103l-430 -292q358 -79 358 -252z" />
    <glyph glyph-name="acute" unicode="&#xb4;" 
d="M395 1331q111 71 248.5 181.5t230.5 203.5l107 -117q-187 -151 -551 -333z" />
    <glyph glyph-name="mu" unicode="&#xb5;" 
d="M207 -389l-144 -10l291 1499l146 12l-142 -725q-55 -276 111 -276q80 0 173 66t216 204l143 723h138l-160 -823q-20 -87 -13.5 -131t52.5 -43.5t153 47.5l19 -74q-120 -69 -199.5 -89t-119 6t-49 90.5t11.5 166.5q-117 -140 -217.5 -208.5t-198.5 -68.5q-94 0 -137 58z
" />
    <glyph glyph-name="paragraph" unicode="&#xb6;" 
d="M915 358l181 918q-111 11 -215 2l-172 -881q91 -27 206 -39zM336 805q0 -120 69 -215.5t201 -155.5l160 830q-209 -43 -319.5 -167.5t-110.5 -291.5zM584 -246l-129 -16l110 563q-179 69 -274.5 192t-95.5 285q0 116 46.5 219.5t137 186.5t216 140t293.5 81t359 8
l-311 -1599l-131 -17l86 436q-115 9 -209 33z" />
    <glyph glyph-name="periodcentered" unicode="&#xb7;" 
d="M735 582h-223l47 233h221z" />
    <glyph glyph-name="cedilla" unicode="&#xb8;" 
d="M330 -330l-80 27q138 330 325 330q118 0 186.5 -106t55.5 -312l-131 -4q10 160 -25 236.5t-102 76.5q-59 0 -115 -63t-114 -185z" />
    <glyph glyph-name="one.sup" unicode="&#xb9;" 
d="M1010 758h-660l21 102h286l113 580l-285 -21l15 90l293 37l26 140l119 10l-166 -836h262z" />
    <glyph glyph-name="ordmasculine" unicode="&#xba;" 
d="M1122 1079q0 -138 -62.5 -257.5t-172.5 -191t-240 -71.5q-147 0 -233 92.5t-86 253.5q0 138 62.5 257.5t172.5 191t240 71.5q146 0 232.5 -93t86.5 -253zM451 922q0 -121 59.5 -192t161.5 -71q143 0 235 117t92 287q0 121 -60 191.5t-163 70.5q-142 0 -233.5 -117
t-91.5 -286zM223 383h760l-18 -107h-760z" />
    <glyph glyph-name="guillemotright" unicode="&#xbb;" 
d="M670 -27l-95 93l500 495l-305 496l121 76l301 -504l-35 -152zM131 -23l-92 93l508 489l-303 500l121 74l297 -508l-37 -152z" />
    <glyph glyph-name="onequarter" unicode="&#xbc;" 
d="M1051 967h-660l21 102h286l113 580l-285 -21l15 90l293 37l26 139l119 11l-166 -836h262zM158 643l20 98h983l-20 -98h-983zM844 -285h-115l-37 -192h-110l36 192h-466l8 80q98 160 163.5 301t127.5 334l127 -6q-65 -198 -134 -334.5t-165 -273.5h360l59 305l113 10
l-61 -315h124z" />
    <glyph glyph-name="onehalf" unicode="&#xbd;" 
d="M1051 967h-660l21 102h286l113 580l-285 -21l15 90l293 37l26 139l119 11l-166 -836h262zM158 643l20 98h983l-20 -98h-983zM764 -477h-635l-2 96q129 79 210 132t163.5 113.5t127.5 107t73 96.5t28 98q0 202 -440 139l16 109q270 40 410.5 -20.5t140.5 -200.5
q0 -71 -34.5 -137.5t-111 -137.5t-168 -136t-235.5 -155h479z" />
    <glyph glyph-name="threequarters" unicode="&#xbe;" 
d="M1071 1217q0 -45 -20.5 -85t-67.5 -77.5t-124 -60t-190 -33t-266 5.5l17 110q128 -14 220.5 -11t153 13t96 31t50 43t14.5 49q0 133 -391 209l8 55l435 295h-451l20 103h580l-12 -103l-430 -293q358 -79 358 -251zM158 643l20 98h983l-20 -98h-983zM844 -285h-115
l-37 -192h-110l36 192h-466l8 80q98 160 163.5 301t127.5 334l127 -6q-65 -198 -134 -334.5t-165 -273.5h360l59 305l113 10l-61 -315h124z" />
    <glyph glyph-name="questiondown" unicode="&#xbf;" 
d="M831 1409h213l-49 -223h-211zM999 10l-28 -143q-416 45 -615.5 141t-199.5 256q0 145 156.5 290t518.5 329l46 -80q-311 -160 -436.5 -272.5t-125.5 -217.5q0 -126 162.5 -192.5t521.5 -110.5z" />
    <glyph glyph-name="Agrave" unicode="&#xc0;" 
d="M1100 1624l-41 -61q-106 65 -241 169.5t-224 194.5l108 115q77 -101 192 -221.5t206 -196.5zM928 -6q-5 61 -41 459h-506q-87 -178 -215 -453h-150q295 629 699 1415h211q92 -784 149 -1409zM788 1284q-202 -405 -352 -717h441q-35 360 -72 717h-17z" />
    <glyph glyph-name="Aacute" unicode="&#xc1;" 
d="M596 1642q110 70 247.5 181t231.5 205l107 -117q-191 -154 -551 -334zM928 -6q-5 61 -41 459h-506q-87 -178 -215 -453h-150q295 629 699 1415h211q92 -784 149 -1409zM788 1284q-202 -405 -352 -717h441q-35 360 -72 717h-17z" />
    <glyph glyph-name="Acircumflex" unicode="&#xc2;" 
d="M1151 1579l-236 274l-366 -264l-66 78l457 334h6l305 -342zM928 -6q-5 61 -41 459h-506q-87 -178 -215 -453h-150q295 629 699 1415h211q92 -784 149 -1409zM788 1284q-202 -405 -352 -717h441q-35 360 -72 717h-17z" />
    <glyph glyph-name="Atilde" unicode="&#xc3;" 
d="M1055 1714q47 0 99 60t126 180l78 -43q-89 -153 -169.5 -231t-162.5 -78q-43 0 -79.5 25t-63 61t-50.5 72.5t-51.5 61.5t-56.5 25q-48 0 -101.5 -58t-123.5 -171l-76 45q174 297 332 297q43 0 79.5 -25.5t62.5 -61.5t49.5 -72t51 -61.5t56.5 -25.5zM928 -6q-5 61 -41 459
h-506q-87 -178 -215 -453h-150q295 629 699 1415h211q92 -784 149 -1409zM788 1284q-202 -405 -352 -717h441q-35 360 -72 717h-17z" />
    <glyph glyph-name="Adieresis" unicode="&#xc4;" 
d="M1153 1610l-145 -4l71 299l164 4zM672 1604l-148 -2l74 296l162 5zM928 -6q-5 61 -41 459h-506q-87 -178 -215 -453h-150q295 629 699 1415h211q92 -784 149 -1409zM788 1284q-202 -405 -352 -717h441q-35 360 -72 717h-17z" />
    <glyph glyph-name="Aring" unicode="&#xc5;" 
d="M903 2025q124 0 203.5 -63.5t79.5 -159.5q0 -107 -89.5 -179.5t-224.5 -72.5q-123 0 -201.5 64t-78.5 160q0 105 88.5 178t222.5 73zM893 1931q-81 0 -134.5 -42.5t-53.5 -104.5q0 -61 50.5 -101.5t129.5 -40.5q82 0 136 44t54 106q0 59 -51.5 99t-130.5 40zM928 -6
q-5 61 -41 459h-506q-87 -178 -215 -453h-150q295 629 699 1415h211q92 -784 149 -1409zM788 1284q-202 -405 -352 -717h441q-35 360 -72 717h-17z" />
    <glyph glyph-name="AE" unicode="&#xc6;" 
d="M803 1284q-66 -128 -195 -373.5t-190 -363.5h260l143 737h-18zM571 0l84 434h-295q-18 -35 -100.5 -192.5l-126.5 -241.5h-153q512 960 759 1409h633l-24 -125h-390l-100 -514h330l-23 -111h-327l-105 -532h395l-34 -127h-523z" />
    <glyph glyph-name="Ccedilla" unicode="&#xc7;" 
d="M801 -406l-131 -4q10 160 -25 237t-102 77q-112 0 -230 -248l-80 27q107 255 240 311q-147 46 -224 175.5t-77 332.5q0 179 55 350t147.5 300.5t224 208.5t275.5 79q182 0 251.5 -126t56.5 -388l-142 -2q2 81 -1 136.5t-14.5 105.5t-33.5 79t-58.5 45.5t-88.5 16.5
q-108 0 -207 -68t-167.5 -177.5t-109.5 -249.5t-41 -282q0 -306 189.5 -393t544.5 51l-15 -139q-198 -72 -350 -78q130 -98 113 -377z" />
    <glyph glyph-name="Egrave" unicode="&#xc8;" 
d="M1128 1618l-41 -62q-105 64 -240 169t-224 196l108 115q78 -101 192 -222t205 -196zM1014 129l-33 -129h-821l272 1409h828l-27 -127h-678l-98 -512h575l-22 -113h-576l-102 -528h682z" />
    <glyph glyph-name="Eacute" unicode="&#xc9;" 
d="M625 1636q111 71 248.5 181.5t230.5 203.5l106 -116q-191 -154 -551 -334zM1014 129l-33 -129h-821l272 1409h828l-27 -127h-678l-98 -512h575l-22 -113h-576l-102 -528h682z" />
    <glyph glyph-name="Ecircumflex" unicode="&#xca;" 
d="M1180 1573l-236 274l-366 -264l-66 78l457 334h6l305 -342zM1014 129l-33 -129h-821l272 1409h828l-27 -127h-678l-98 -512h575l-22 -113h-576l-102 -528h682z" />
    <glyph glyph-name="Edieresis" unicode="&#xcb;" 
d="M1182 1604l-146 -5l72 299l164 5zM700 1597l-147 -2l74 297l161 4zM1014 129l-33 -129h-821l272 1409h828l-27 -127h-678l-98 -512h575l-22 -113h-576l-102 -528h682z" />
    <glyph glyph-name="Igrave" unicode="&#xcc;" 
d="M1077 1618l-41 -62q-106 64 -241 169.5t-224 195.5l109 115q78 -101 192 -222t205 -196zM621 119h350l-29 -119h-836l25 119h342l225 1171h-348l23 119h837l-22 -119h-340z" />
    <glyph glyph-name="Iacute" unicode="&#xcd;" 
d="M573 1636q111 71 249 181.5t231 203.5l106 -116q-191 -154 -551 -334zM621 119h350l-29 -119h-836l25 119h342l225 1171h-348l23 119h837l-22 -119h-340z" />
    <glyph glyph-name="Icircumflex" unicode="&#xce;" 
d="M1130 1573l-235 274l-367 -264l-65 78l457 334h6l305 -342zM621 119h350l-29 -119h-836l25 119h342l225 1171h-348l23 119h837l-22 -119h-340z" />
    <glyph glyph-name="Idieresis" unicode="&#xcf;" 
d="M1133 1604l-146 -5l72 299l164 5zM651 1597l-147 -2l74 297l161 4zM621 119h350l-29 -119h-836l25 119h342l225 1171h-348l23 119h837l-22 -119h-340z" />
    <glyph glyph-name="Eth" unicode="&#xd0;" 
d="M1194 868q0 -158 -40.5 -298.5t-126.5 -258t-210 -196.5t-301.5 -111t-390.5 -4l129 662h-172l22 108h170l123 635q384 67 590.5 -70t206.5 -467zM719 662h-320l-104 -545q148 -13 272.5 19.5t212 99.5t148.5 163.5t90 210.5t29 242q0 253 -134 362.5t-391 79.5
l-102 -524h325z" />
    <glyph glyph-name="Ntilde" unicode="&#xd1;" 
d="M1061 1712q47 0 99 60t126 180l78 -43q-89 -153 -169.5 -231.5t-162.5 -78.5q-43 0 -79.5 25.5t-63 61.5t-50.5 72t-51.5 61.5t-56.5 25.5q-48 0 -101.5 -58t-123.5 -171l-76 45q174 297 332 297q43 0 79.5 -25.5t62.5 -61.5t49.5 -72t51 -61.5t56.5 -25.5zM836 0
l-344 1186h-11l-225 -1186h-139l272 1407l170 6l328 -1163h12l221 1159h140l-275 -1409h-149z" />
    <glyph glyph-name="Ograve" unicode="&#xd2;" 
d="M1110 1649l-41 -62q-106 64 -241 169.5t-224 195.5l109 114q77 -101 191.5 -221t205.5 -196zM1210 911q0 -140 -31 -277.5t-89.5 -256t-137.5 -210t-181.5 -144t-213.5 -52.5q-182 0 -288.5 136t-106.5 391q0 140 31 277.5t89.5 256t137.5 210t181.5 144t213.5 52.5
q182 0 288.5 -136t106.5 -391zM313 508q0 -199 71 -302.5t196 -103.5q135 0 247 118t172 300t60 381q0 200 -70.5 303t-195.5 103q-102 0 -193 -69.5t-153 -182t-98 -256t-36 -291.5z" />
    <glyph glyph-name="Oacute" unicode="&#xd3;" 
d="M606 1667q111 71 248.5 181.5t230.5 203.5l107 -117q-187 -151 -551 -333zM1210 911q0 -140 -31 -277.5t-89.5 -256t-137.5 -210t-181.5 -144t-213.5 -52.5q-182 0 -288.5 136t-106.5 391q0 140 31 277.5t89.5 256t137.5 210t181.5 144t213.5 52.5q182 0 288.5 -136
t106.5 -391zM313 508q0 -199 71 -302.5t196 -103.5q135 0 247 118t172 300t60 381q0 200 -70.5 303t-195.5 103q-102 0 -193 -69.5t-153 -182t-98 -256t-36 -291.5z" />
    <glyph glyph-name="Ocircumflex" unicode="&#xd4;" 
d="M1161 1604l-235 274l-367 -264l-65 78l456 333h6l306 -342zM1210 911q0 -140 -31 -277.5t-89.5 -256t-137.5 -210t-181.5 -144t-213.5 -52.5q-182 0 -288.5 136t-106.5 391q0 140 31 277.5t89.5 256t137.5 210t181.5 144t213.5 52.5q182 0 288.5 -136t106.5 -391z
M313 508q0 -199 71 -302.5t196 -103.5q135 0 247 118t172 300t60 381q0 200 -70.5 303t-195.5 103q-102 0 -193 -69.5t-153 -182t-98 -256t-36 -291.5z" />
    <glyph glyph-name="Otilde" unicode="&#xd5;" 
d="M1065 1739q47 0 99 60t126 179l78 -43q-89 -153 -169.5 -231t-162.5 -78q-43 0 -79.5 25.5t-63 61.5t-50.5 72t-51.5 61.5t-56.5 25.5q-47 0 -101 -58.5t-124 -171.5l-76 46q174 297 332 297q43 0 79.5 -25.5t62.5 -61.5t49.5 -72t51 -61.5t56.5 -25.5zM1210 911
q0 -140 -31 -277.5t-89.5 -256t-137.5 -210t-181.5 -144t-213.5 -52.5q-182 0 -288.5 136t-106.5 391q0 140 31 277.5t89.5 256t137.5 210t181.5 144t213.5 52.5q182 0 288.5 -136t106.5 -391zM313 508q0 -199 71 -302.5t196 -103.5q135 0 247 118t172 300t60 381
q0 200 -70.5 303t-195.5 103q-102 0 -193 -69.5t-153 -182t-98 -256t-36 -291.5z" />
    <glyph glyph-name="Odieresis" unicode="&#xd6;" 
d="M1163 1634l-145 -4l72 299l163 4zM682 1628l-147 -2l73 297l162 4zM1210 911q0 -140 -31 -277.5t-89.5 -256t-137.5 -210t-181.5 -144t-213.5 -52.5q-182 0 -288.5 136t-106.5 391q0 140 31 277.5t89.5 256t137.5 210t181.5 144t213.5 52.5q182 0 288.5 -136t106.5 -391z
M313 508q0 -199 71 -302.5t196 -103.5q135 0 247 118t172 300t60 381q0 200 -70.5 303t-195.5 103q-102 0 -193 -69.5t-153 -182t-98 -256t-36 -291.5z" />
    <glyph glyph-name="multiply" unicode="&#xd7;" 
d="M928 217l-279 346l-397 -330l-82 101l397 332l-280 348l104 88l283 -350l397 331l78 -102l-395 -330l280 -348z" />
    <glyph glyph-name="Oslash" unicode="&#xd8;" 
d="M315 524q0 -110 23 -200l651 870q-71 117 -205 117q-100 0 -189 -68t-149.5 -179t-95.5 -252.5t-35 -287.5zM588 98q132 0 241.5 115.5t168.5 296t59 377.5q0 116 -25 205l-653 -873q71 -121 209 -121zM563 -31q-169 0 -274 117l-123 -162l-90 62l149 198
q-61 131 -61 330q0 173 49 340t132.5 297t205.5 209.5t258 79.5q169 0 274 -117l125 162l88 -62l-151 -196q63 -129 63 -332q0 -172 -48 -339t-131.5 -297t-205.5 -210t-260 -80z" />
    <glyph glyph-name="Ugrave" unicode="&#xd9;" 
d="M1102 1618l-41 -62q-106 64 -241 169.5t-224 195.5l109 115q78 -101 192 -222t205 -196zM569 -33q-220 0 -318.5 132.5t-49.5 381.5l180 928h147l-178 -917q-76 -392 238 -392q272 0 338 351l186 958h150l-187 -956q-47 -239 -177.5 -362.5t-328.5 -123.5z" />
    <glyph glyph-name="Uacute" unicode="&#xda;" 
d="M598 1636q111 71 248.5 181.5t230.5 203.5l107 -116q-191 -154 -551 -334zM569 -33q-220 0 -318.5 132.5t-49.5 381.5l180 928h147l-178 -917q-76 -392 238 -392q272 0 338 351l186 958h150l-187 -956q-47 -239 -177.5 -362.5t-328.5 -123.5z" />
    <glyph glyph-name="Ucircumflex" unicode="&#xdb;" 
d="M1153 1573l-235 274l-367 -264l-66 78l457 334h6l305 -342zM569 -33q-220 0 -318.5 132.5t-49.5 381.5l180 928h147l-178 -917q-76 -392 238 -392q272 0 338 351l186 958h150l-187 -956q-47 -239 -177.5 -362.5t-328.5 -123.5z" />
    <glyph glyph-name="Udieresis" unicode="&#xdc;" 
d="M1155 1604l-145 -5l71 299l164 5zM674 1597l-148 -2l74 297l162 4zM569 -33q-220 0 -318.5 132.5t-49.5 381.5l180 928h147l-178 -917q-76 -392 238 -392q272 0 338 351l186 958h150l-187 -956q-47 -239 -177.5 -362.5t-328.5 -123.5z" />
    <glyph glyph-name="Yacute" unicode="&#xdd;" 
d="M586 1640q111 71 248.5 181.5t230.5 203.5l106 -116q-192 -155 -550 -334zM608 0h-149l92 481l-289 926l154 6l239 -795l539 791h162l-658 -944z" />
    <glyph glyph-name="Thorn" unicode="&#xde;" 
d="M293 0h-148l275 1409h149l-45 -225q174 10 305 -14t209.5 -76t117 -123t38.5 -160q0 -239 -224.5 -389.5t-629.5 -185.5zM1049 788q0 145 -137.5 219t-411.5 46l-133 -676q327 1 504.5 111.5t177.5 299.5z" />
    <glyph glyph-name="germandbls" unicode="&#xdf;" 
d="M471 -14l18 137q494 -55 494 158q0 173 -358 456q211 196 298 318.5t87 232.5q0 79 -47.5 128.5t-135.5 49.5q-125 0 -212.5 -104t-127.5 -299l-204 -1063h-144l207 1053q47 251 187 393.5t335 142.5q140 0 213.5 -75.5t73.5 -194.5q0 -122 -88 -256t-268 -295
q327 -268 327 -465q0 -58 -21.5 -108t-70.5 -93.5t-123 -72t-186.5 -41t-253.5 -2.5z" />
    <glyph glyph-name="agrave" unicode="&#xe0;" 
d="M1077 1333l-41 -61q-106 65 -241 169.5t-224 194.5l109 115q78 -101 192 -222t205 -196zM442 113q75 0 182.5 65.5t198.5 159.5q48 232 125 629q-127 34 -225 34q-119 0 -221 -91.5t-160.5 -240t-58.5 -313.5q0 -122 43.5 -182.5t115.5 -60.5zM1178 80
q-117 -69 -197 -90.5t-121 3t-54 80.5t-1 146q-105 -105 -221 -173.5t-207 -68.5q-107 0 -172.5 90t-65.5 259q0 155 50 300t136.5 255t211.5 176.5t266 66.5q140 0 307 -45l-158 -798q-12 -65 -14 -106t19.5 -57t68.5 -7.5t133 43.5z" />
    <glyph glyph-name="aacute" unicode="&#xe1;" 
d="M573 1352q111 71 249 181.5t231 203.5l106 -117q-191 -154 -551 -334zM442 113q75 0 182.5 65.5t198.5 159.5q48 232 125 629q-127 34 -225 34q-119 0 -221 -91.5t-160.5 -240t-58.5 -313.5q0 -122 43.5 -182.5t115.5 -60.5zM1178 80q-117 -69 -197 -90.5t-121 3
t-54 80.5t-1 146q-105 -105 -221 -173.5t-207 -68.5q-107 0 -172.5 90t-65.5 259q0 155 50 300t136.5 255t211.5 176.5t266 66.5q140 0 307 -45l-158 -798q-12 -65 -14 -106t19.5 -57t68.5 -7.5t133 43.5z" />
    <glyph glyph-name="acircumflex" unicode="&#xe2;" 
d="M1128 1288l-235 275l-367 -265l-65 78l457 334h6l305 -342zM442 113q75 0 182.5 65.5t198.5 159.5q48 232 125 629q-127 34 -225 34q-119 0 -221 -91.5t-160.5 -240t-58.5 -313.5q0 -122 43.5 -182.5t115.5 -60.5zM1178 80q-117 -69 -197 -90.5t-121 3t-54 80.5t-1 146
q-105 -105 -221 -173.5t-207 -68.5q-107 0 -172.5 90t-65.5 259q0 155 50 300t136.5 255t211.5 176.5t266 66.5q140 0 307 -45l-158 -798q-12 -65 -14 -106t19.5 -57t68.5 -7.5t133 43.5z" />
    <glyph glyph-name="atilde" unicode="&#xe3;" 
d="M1032 1423q47 0 99 60t126 180l78 -43q-89 -153 -169 -231t-162 -78q-43 0 -80 25t-63 61.5t-50.5 72.5t-52 61t-56.5 25q-48 0 -101.5 -58t-123.5 -171l-76 45q174 297 332 297q43 0 79.5 -25.5t62.5 -61.5t49.5 -72t51 -61.5t56.5 -25.5zM442 113q75 0 182.5 65.5
t198.5 159.5q48 232 125 629q-127 34 -225 34q-119 0 -221 -91.5t-160.5 -240t-58.5 -313.5q0 -122 43.5 -182.5t115.5 -60.5zM1178 80q-117 -69 -197 -90.5t-121 3t-54 80.5t-1 146q-105 -105 -221 -173.5t-207 -68.5q-107 0 -172.5 90t-65.5 259q0 155 50 300t136.5 255
t211.5 176.5t266 66.5q140 0 307 -45l-158 -798q-12 -65 -14 -106t19.5 -57t68.5 -7.5t133 43.5z" />
    <glyph glyph-name="adieresis" unicode="&#xe4;" 
d="M1130 1319l-145 -4l72 299l164 4zM649 1313l-147 -2l73 297l162 4zM442 113q75 0 182.5 65.5t198.5 159.5q48 232 125 629q-127 34 -225 34q-119 0 -221 -91.5t-160.5 -240t-58.5 -313.5q0 -122 43.5 -182.5t115.5 -60.5zM1178 80q-117 -69 -197 -90.5t-121 3t-54 80.5
t-1 146q-105 -105 -221 -173.5t-207 -68.5q-107 0 -172.5 90t-65.5 259q0 155 50 300t136.5 255t211.5 176.5t266 66.5q140 0 307 -45l-158 -798q-12 -65 -14 -106t19.5 -57t68.5 -7.5t133 43.5z" />
    <glyph glyph-name="aring" unicode="&#xe5;" 
d="M881 1735q123 0 202.5 -64t79.5 -160q0 -107 -89 -179t-224 -72q-123 0 -202 63.5t-79 159.5q0 105 89 178.5t223 73.5zM870 1640q-81 0 -134.5 -42.5t-53.5 -104.5q0 -61 50.5 -101t129.5 -40q82 0 136.5 43.5t54.5 105.5q0 59 -52 99t-131 40zM442 113q75 0 182.5 65.5
t198.5 159.5q48 232 125 629q-127 34 -225 34q-119 0 -221 -91.5t-160.5 -240t-58.5 -313.5q0 -122 43.5 -182.5t115.5 -60.5zM1178 80q-117 -69 -197 -90.5t-121 3t-54 80.5t-1 146q-105 -105 -221 -173.5t-207 -68.5q-107 0 -172.5 90t-65.5 259q0 155 50 300t136.5 255
t211.5 176.5t266 66.5q140 0 307 -45l-158 -798q-12 -65 -14 -106t19.5 -57t68.5 -7.5t133 43.5z" />
    <glyph glyph-name="ae" unicode="&#xe6;" 
d="M1174 127q-130 -87 -234.5 -121.5t-174.5 -17.5t-113 70.5t-60 140.5q-168 -215 -320 -215q-80 0 -124 73.5t-44 216.5q0 208 68 402t188.5 318t260.5 124q118 0 237 -84q99 90 213 90q94 0 145.5 -57t51.5 -156q0 -180 -145 -317.5t-402 -171.5q-4 -58 -4 -84
q0 -123 40.5 -179.5t139 -47.5t260.5 94zM1034 1004q-67 0 -130.5 -73.5t-107 -184t-65.5 -236.5q184 28 293 137.5t109 237.5q0 56 -26 87.5t-73 31.5zM332 115q97 0 250 209q1 165 50 326t132 278q-90 73 -180 73q-91 0 -170 -107.5t-122.5 -268t-43.5 -322.5
q0 -188 84 -188z" />
    <glyph glyph-name="ccedilla" unicode="&#xe7;" 
d="M797 -414l-131 -4q10 160 -25 237t-102 77q-112 0 -230 -248l-80 26q110 261 246 316q-139 30 -214 137.5t-75 267.5q0 141 54 275.5t142.5 235t210 161.5t249.5 61q153 0 221.5 -86t62.5 -274l-131 -2q-3 131 -47 184.5t-141 53.5q-127 0 -237.5 -81t-175 -216.5
t-64.5 -288.5q0 -234 175 -295t525 63l23 -80q-210 -106 -396 -126q73 -39 111.5 -138.5t28.5 -255.5z" />
    <glyph glyph-name="egrave" unicode="&#xe8;" 
d="M1063 1339l-41 -61q-106 65 -241 169.5t-224 194.5l109 115q78 -101 192 -222t205 -196zM1071 123q-170 -87 -317.5 -122.5t-253.5 -20t-182 69.5t-113 141t-37 200q0 130 50 262t135.5 238t210 172.5t261.5 66.5q142 0 225 -69.5t83 -188.5q0 -191 -214.5 -307
t-611.5 -145v-10q0 -235 182 -289.5t560 82.5zM793 1008q-95 0 -179.5 -43t-144.5 -114t-100 -160t-54 -183q208 16 357.5 57.5t235 113.5t85.5 169q0 73 -53.5 116.5t-146.5 43.5z" />
    <glyph glyph-name="eacute" unicode="&#xe9;" 
d="M559 1358q111 71 248.5 181.5t230.5 203.5l107 -117q-191 -154 -551 -334zM1071 123q-170 -87 -317.5 -122.5t-253.5 -20t-182 69.5t-113 141t-37 200q0 130 50 262t135.5 238t210 172.5t261.5 66.5q142 0 225 -69.5t83 -188.5q0 -191 -214.5 -307t-611.5 -145v-10
q0 -235 182 -289.5t560 82.5zM793 1008q-95 0 -179.5 -43t-144.5 -114t-100 -160t-54 -183q208 16 357.5 57.5t235 113.5t85.5 169q0 73 -53.5 116.5t-146.5 43.5z" />
    <glyph glyph-name="ecircumflex" unicode="&#xea;" 
d="M1116 1294l-235 275l-367 -264l-65 77l456 334h6l306 -342zM1071 123q-170 -87 -317.5 -122.5t-253.5 -20t-182 69.5t-113 141t-37 200q0 130 50 262t135.5 238t210 172.5t261.5 66.5q142 0 225 -69.5t83 -188.5q0 -191 -214.5 -307t-611.5 -145v-10q0 -235 182 -289.5
t560 82.5zM793 1008q-95 0 -179.5 -43t-144.5 -114t-100 -160t-54 -183q208 16 357.5 57.5t235 113.5t85.5 169q0 73 -53.5 116.5t-146.5 43.5z" />
    <glyph glyph-name="edieresis" unicode="&#xeb;" 
d="M1118 1325l-145 -4l71 299l164 4zM637 1319l-148 -2l74 297l162 4zM1071 123q-170 -87 -317.5 -122.5t-253.5 -20t-182 69.5t-113 141t-37 200q0 130 50 262t135.5 238t210 172.5t261.5 66.5q142 0 225 -69.5t83 -188.5q0 -191 -214.5 -307t-611.5 -145v-10
q0 -235 182 -289.5t560 82.5zM793 1008q-95 0 -179.5 -43t-144.5 -114t-100 -160t-54 -183q208 16 357.5 57.5t235 113.5t85.5 169q0 73 -53.5 116.5t-146.5 43.5z" />
    <glyph glyph-name="igrave" unicode="&#xec;" 
d="M999 1315l-41 -62q-105 64 -240 169t-224 196l108 115q78 -101 192 -222t205 -196zM1079 96q-160 -64 -283 -93.5t-203 -23.5t-125.5 42.5t-52.5 103.5t17 160l180 688l-415 -66l-9 80l467 119l129 -4l-209 -797q-14 -55 -15 -91.5t14 -63t48.5 -36t92.5 -7t142.5 20
t201.5 50.5z" />
    <glyph glyph-name="iacute" unicode="&#xed;" 
d="M496 1333q111 71 248.5 181.5t230.5 203.5l106 -116q-191 -154 -551 -334zM1079 96q-160 -64 -283 -93.5t-203 -23.5t-125.5 42.5t-52.5 103.5t17 160l180 688l-415 -66l-9 80l467 119l129 -4l-209 -797q-14 -55 -15 -91.5t14 -63t48.5 -36t92.5 -7t142.5 20t201.5 50.5z
" />
    <glyph glyph-name="icircumflex" unicode="&#xee;" 
d="M1051 1270l-236 274l-366 -264l-66 78l457 334h6l305 -342zM1079 96q-160 -64 -283 -93.5t-203 -23.5t-125.5 42.5t-52.5 103.5t17 160l180 688l-415 -66l-9 80l467 119l129 -4l-209 -797q-14 -55 -15 -91.5t14 -63t48.5 -36t92.5 -7t142.5 20t201.5 50.5z" />
    <glyph glyph-name="idieresis" unicode="&#xef;" 
d="M1053 1300l-146 -4l72 299l164 4zM571 1294l-147 -2l74 297l161 4zM1079 96q-160 -64 -283 -93.5t-203 -23.5t-125.5 42.5t-52.5 103.5t17 160l180 688l-415 -66l-9 80l467 119l129 -4l-209 -797q-14 -55 -15 -91.5t14 -63t48.5 -36t92.5 -7t142.5 20t201.5 50.5z" />
    <glyph glyph-name="eth" unicode="&#xf0;" 
d="M569 -25q-191 0 -306.5 122t-115.5 319q0 167 74 309.5t209 228.5t301 86q114 0 213 -30q-51 136 -151 256l-349 -97l-28 93l305 86q-83 89 -205 182l109 86q144 -113 243 -227l271 75l22 -96l-225 -61q209 -279 209 -605q0 -332 -160 -529.5t-416 -197.5zM600 94
q183 0 293.5 164t110.5 420q0 90 -15 176q-160 68 -299 68q-111 0 -203.5 -66.5t-143 -174.5t-50.5 -232q0 -159 84.5 -257t222.5 -98z" />
    <glyph glyph-name="ntilde" unicode="&#xf1;" 
d="M975 1427q47 0 99 60t126 180l78 -43q-89 -153 -169.5 -231t-162.5 -78q-43 0 -79.5 25.5t-63 61.5t-50.5 72t-51.5 61.5t-56.5 25.5q-47 0 -101 -58.5t-124 -171.5l-76 45q174 297 332 297q43 0 79.5 -25.5t62.5 -61.5t49.5 -72t51 -61.5t56.5 -25.5zM1180 78
q-94 -59 -168.5 -83.5t-120 -15.5t-69 41.5t-23.5 85.5q0 88 76.5 371t76.5 379q0 139 -121 139q-81 0 -187 -62t-224 -181q-9 -53 -146 -752h-141q13 69 45.5 235t42.5 217t31.5 166t32 174t24.5 143t27 165l139 10q-1 -5 -15 -99t-22 -143q123 127 245.5 193.5t229.5 66.5
q99 0 146 -56.5t47 -149.5q0 -95 -39.5 -255.5t-79 -304t-39.5 -198.5q0 -36 15 -49.5t60.5 -5t131.5 44.5z" />
    <glyph glyph-name="ograve" unicode="&#xf2;" 
d="M1032 1339l-41 -61q-106 65 -241 169.5t-224 194.5l109 115q78 -101 192 -222t205 -196zM1133 682q0 -146 -46.5 -277.5t-125.5 -225.5t-188 -149t-230 -55q-184 0 -291 116.5t-107 330.5q0 193 78 355.5t214 257.5t298 95q183 0 290.5 -116.5t107.5 -331.5zM291 444
q0 -165 72.5 -256.5t205.5 -91.5q120 0 216.5 76.5t149 205t52.5 281.5q0 165 -72.5 258t-205.5 93q-121 0 -217.5 -78.5t-148.5 -207.5t-52 -280z" />
    <glyph glyph-name="oacute" unicode="&#xf3;" 
d="M528 1358q111 71 249 181.5t231 203.5l106 -117q-191 -154 -551 -334zM1133 682q0 -146 -46.5 -277.5t-125.5 -225.5t-188 -149t-230 -55q-184 0 -291 116.5t-107 330.5q0 193 78 355.5t214 257.5t298 95q183 0 290.5 -116.5t107.5 -331.5zM291 444q0 -165 72.5 -256.5
t205.5 -91.5q120 0 216.5 76.5t149 205t52.5 281.5q0 165 -72.5 258t-205.5 93q-121 0 -217.5 -78.5t-148.5 -207.5t-52 -280z" />
    <glyph glyph-name="ocircumflex" unicode="&#xf4;" 
d="M1083 1294l-235 275l-367 -264l-65 77l456 334h7l305 -342zM1133 682q0 -146 -46.5 -277.5t-125.5 -225.5t-188 -149t-230 -55q-184 0 -291 116.5t-107 330.5q0 193 78 355.5t214 257.5t298 95q183 0 290.5 -116.5t107.5 -331.5zM291 444q0 -165 72.5 -256.5t205.5 -91.5
q120 0 216.5 76.5t149 205t52.5 281.5q0 165 -72.5 258t-205.5 93q-121 0 -217.5 -78.5t-148.5 -207.5t-52 -280z" />
    <glyph glyph-name="otilde" unicode="&#xf5;" 
d="M987 1430q47 0 99 60t126 179l78 -43q-89 -153 -169.5 -231t-162.5 -78q-43 0 -79.5 25.5t-63 61.5t-50.5 72t-51.5 61.5t-56.5 25.5q-47 0 -101 -58.5t-124 -171.5l-76 45q174 297 332 297q43 0 79.5 -25t62.5 -61.5t49.5 -72.5t51 -61t56.5 -25zM1133 682
q0 -146 -46.5 -277.5t-125.5 -225.5t-188 -149t-230 -55q-184 0 -291 116.5t-107 330.5q0 193 78 355.5t214 257.5t298 95q183 0 290.5 -116.5t107.5 -331.5zM291 444q0 -165 72.5 -256.5t205.5 -91.5q120 0 216.5 76.5t149 205t52.5 281.5q0 165 -72.5 258t-205.5 93
q-121 0 -217.5 -78.5t-148.5 -207.5t-52 -280z" />
    <glyph glyph-name="odieresis" unicode="&#xf6;" 
d="M1085 1325l-145 -4l72 299l164 4zM604 1319l-147 -2l73 297l162 4zM1133 682q0 -146 -46.5 -277.5t-125.5 -225.5t-188 -149t-230 -55q-184 0 -291 116.5t-107 330.5q0 193 78 355.5t214 257.5t298 95q183 0 290.5 -116.5t107.5 -331.5zM291 444q0 -165 72.5 -256.5
t205.5 -91.5q120 0 216.5 76.5t149 205t52.5 281.5q0 165 -72.5 258t-205.5 93q-121 0 -217.5 -78.5t-148.5 -207.5t-52 -280z" />
    <glyph glyph-name="divide" unicode="&#xf7;" 
d="M807 975h-176l39 190h174zM1163 721l-26 -123h-977l24 123h979zM653 156h-176l37 190h174z" />
    <glyph glyph-name="oslash" unicode="&#xf8;" 
d="M289 444q0 -108 30 -184l590 666q-75 84 -200 84q-121 0 -218 -78t-149.5 -207t-52.5 -281zM569 96q120 0 217 76.5t150 205t53 281.5q0 101 -28 177l-586 -662q72 -78 194 -78zM543 -25q-157 0 -262 88l-125 -137l-86 64l141 157q-66 107 -66 275q0 193 78 355.5
t214 257.5t298 95q164 0 269 -94l122 138l86 -66l-141 -158q62 -111 62 -268q0 -146 -46.5 -277.5t-125.5 -225.5t-188 -149t-230 -55z" />
    <glyph glyph-name="ugrave" unicode="&#xf9;" 
d="M1057 1319l-41 -62q-106 64 -241 169.5t-224 195.5l108 115q77 -101 192 -221.5t206 -196.5zM1190 80q-95 -55 -165.5 -79t-113.5 -17.5t-66.5 38.5t-25 90t11.5 136q-122 -137 -226.5 -205t-203.5 -68q-129 0 -179.5 104.5t-2.5 313.5l86 377l-90 55l160 277l145 8
l-160 -702q-68 -297 109 -297q80 0 173 66t216 204l143 723h138l-160 -823q-20 -87 -13.5 -131t52.5 -43.5t153 47.5z" />
    <glyph glyph-name="uacute" unicode="&#xfa;" 
d="M553 1337q111 71 248.5 181.5t230.5 203.5l107 -116q-191 -154 -551 -334zM1190 80q-95 -55 -165.5 -79t-113.5 -17.5t-66.5 38.5t-25 90t11.5 136q-122 -137 -226.5 -205t-203.5 -68q-129 0 -179.5 104.5t-2.5 313.5l86 377l-90 55l160 277l145 8l-160 -702
q-68 -297 109 -297q80 0 173 66t216 204l143 723h138l-160 -823q-20 -87 -13.5 -131t52.5 -43.5t153 47.5z" />
    <glyph glyph-name="ucircumflex" unicode="&#xfb;" 
d="M1108 1274l-236 274l-366 -264l-66 78l457 334h6l305 -342zM1190 80q-95 -55 -165.5 -79t-113.5 -17.5t-66.5 38.5t-25 90t11.5 136q-122 -137 -226.5 -205t-203.5 -68q-129 0 -179.5 104.5t-2.5 313.5l86 377l-90 55l160 277l145 8l-160 -702q-68 -297 109 -297
q80 0 173 66t216 204l143 723h138l-160 -823q-20 -87 -13.5 -131t52.5 -43.5t153 47.5z" />
    <glyph glyph-name="udieresis" unicode="&#xfc;" 
d="M1112 1305l-145 -5l71 299l164 5zM631 1298l-148 -2l74 297l162 4zM1190 80q-95 -55 -165.5 -79t-113.5 -17.5t-66.5 38.5t-25 90t11.5 136q-122 -137 -226.5 -205t-203.5 -68q-129 0 -179.5 104.5t-2.5 313.5l86 377l-90 55l160 277l145 8l-160 -702q-68 -297 109 -297
q80 0 173 66t216 204l143 723h138l-160 -823q-20 -87 -13.5 -131t52.5 -43.5t153 47.5z" />
    <glyph glyph-name="yacute" unicode="&#xfd;" 
d="M547 1352q111 71 248.5 181.5t230.5 203.5l107 -117q-191 -154 -551 -334zM956 -203q-115 -228 -811 -186l21 147q218 -21 361 -13.5t208.5 24.5t91.5 43q18 18 27 48t11.5 82t1.5 99t-4 136t-3 155q-104 -121 -228 -198t-239 -77q-411 0 -20 1045l139 4
q-80 -221 -124 -386.5t-55 -265.5t4.5 -161t46.5 -83t79 -22q81 0 191 73t210 192q11 142 52.5 303t88 264.5t74.5 103.5q36 0 68.5 -14.5t32.5 -36.5q0 -62 -59.5 -255.5t-133.5 -348.5q-4 -29 -4 -92q0 -76 3.5 -188.5t4 -169t-7.5 -120t-27 -102.5z" />
    <glyph glyph-name="thorn" unicode="&#xfe;" 
d="M549 98q122 0 225.5 89.5t161 234t57.5 305.5q0 131 -48 199.5t-124 68.5q-80 0 -188 -66t-197 -161l-125 -631q144 -39 238 -39zM209 -389l-139 -10l385 1984l143 12l-137 -704q103 103 217.5 170t206.5 67q111 0 181.5 -96t70.5 -274q0 -121 -31.5 -237.5t-90.5 -214.5
t-139 -172.5t-184 -116.5t-217 -42q-79 0 -190 19z" />
    <glyph glyph-name="ydieresis" unicode="&#xff;" 
d="M1106 1319l-145 -4l71 299l164 4zM625 1313l-148 -2l74 297l162 4zM956 -203q-115 -228 -811 -186l21 147q218 -21 361 -13.5t208.5 24.5t91.5 43q18 18 27 48t11.5 82t1.5 99t-4 136t-3 155q-104 -121 -228 -198t-239 -77q-411 0 -20 1045l139 4q-80 -221 -124 -386.5
t-55 -265.5t4.5 -161t46.5 -83t79 -22q81 0 191 73t210 192q11 142 52.5 303t88 264.5t74.5 103.5q36 0 68.5 -14.5t32.5 -36.5q0 -62 -59.5 -255.5t-133.5 -348.5q-4 -29 -4 -92q0 -76 3.5 -188.5t4 -169t-7.5 -120t-27 -102.5z" />
    <glyph glyph-name="Amacron" unicode="&#x100;" 
d="M1266 1821l-25 -123h-733l24 123h734zM928 -6q-5 61 -41 459h-506q-87 -178 -215 -453h-150q295 629 699 1415h211q92 -784 149 -1409zM788 1284q-202 -405 -352 -717h441q-35 360 -72 717h-17z" />
    <glyph glyph-name="amacron" unicode="&#x101;" 
d="M1243 1530l-24 -123h-734l25 123h733zM442 113q75 0 182.5 65.5t198.5 159.5q48 232 125 629q-127 34 -225 34q-119 0 -221 -91.5t-160.5 -240t-58.5 -313.5q0 -122 43.5 -182.5t115.5 -60.5zM1178 80q-117 -69 -197 -90.5t-121 3t-54 80.5t-1 146q-105 -105 -221 -173.5
t-207 -68.5q-107 0 -172.5 90t-65.5 259q0 155 50 300t136.5 255t211.5 176.5t266 66.5q140 0 307 -45l-158 -798q-12 -65 -14 -106t19.5 -57t68.5 -7.5t133 43.5z" />
    <glyph glyph-name="Abreve" unicode="&#x102;" 
d="M1245 1974l84 -55q-247 -324 -469 -324q-113 0 -199.5 81.5t-150.5 250.5l113 55q60 -145 121 -206.5t147 -61.5t167 63t187 197zM928 -6q-5 61 -41 459h-506q-87 -178 -215 -453h-150q295 629 699 1415h211q92 -784 149 -1409zM788 1284q-202 -405 -352 -717h441
q-35 360 -72 717h-17z" />
    <glyph glyph-name="abreve" unicode="&#x103;" 
d="M1221 1683l84 -55q-246 -323 -469 -323q-226 0 -351 331l113 56q60 -146 121 -207.5t147 -61.5t167.5 63t187.5 197zM442 113q75 0 182.5 65.5t198.5 159.5q48 232 125 629q-127 34 -225 34q-119 0 -221 -91.5t-160.5 -240t-58.5 -313.5q0 -122 43.5 -182.5t115.5 -60.5z
M1178 80q-117 -69 -197 -90.5t-121 3t-54 80.5t-1 146q-105 -105 -221 -173.5t-207 -68.5q-107 0 -172.5 90t-65.5 259q0 155 50 300t136.5 255t211.5 176.5t266 66.5q140 0 307 -45l-158 -798q-12 -65 -14 -106t19.5 -57t68.5 -7.5t133 43.5z" />
    <glyph glyph-name="Aogonek" unicode="&#x104;" 
d="M1008 -379q-94 -49 -175.5 -72t-139 -20.5t-98.5 21.5t-61 51t-20 73q-2 84 99.5 175t312.5 178q-20 232 -39 426h-506q-87 -178 -215 -453h-150q295 629 699 1415h211q92 -784 149 -1409h-2q-217 -76 -320.5 -151t-103.5 -142q0 -23 11.5 -40.5t38 -27t65 -9.5t96 14
t127.5 41zM788 1284q-202 -405 -352 -717h441q-35 360 -72 717h-17z" />
    <glyph glyph-name="aogonek" unicode="&#x105;" 
d="M1098 -379q-115 -59 -212 -79.5t-156.5 -5.5t-92.5 51t-33 87q0 162 281 330q-56 12 -74 64.5t-6 150.5q-105 -105 -221 -173.5t-207 -68.5q-107 0 -172.5 90t-65.5 259q0 155 50 300t136.5 255t211.5 176.5t266 66.5q140 0 307 -45l-158 -798q-12 -65 -14 -106t19.5 -57
t68.5 -7.5t133 43.5l19 -74q-231 -110 -334 -198t-103 -167q0 -24 11.5 -41.5t38 -27t65 -8.5t96 15t127.5 42zM442 113q75 0 182.5 65.5t198.5 159.5q48 232 125 629q-127 34 -225 34q-119 0 -221 -91.5t-160.5 -240t-58.5 -313.5q0 -122 43.5 -182.5t115.5 -60.5z" />
    <glyph glyph-name="Cacute" unicode="&#x106;" 
d="M604 1667q111 71 248.5 181.5t230.5 203.5l107 -117q-187 -151 -551 -333zM874 1440q182 0 251.5 -126t56.5 -388l-142 -2q2 81 -1 136.5t-14.5 105.5t-33.5 79t-58.5 45.5t-88.5 16.5q-108 0 -207 -68t-167.5 -177.5t-109.5 -249.5t-41 -282q0 -306 189.5 -393t544.5 51
l-15 -139q-407 -146 -636.5 -24.5t-229.5 477.5q0 179 55 350t147.5 300.5t224 208.5t275.5 79z" />
    <glyph glyph-name="cacute" unicode="&#x107;" 
d="M569 1356q111 71 249 181.5t231 203.5l106 -117q-191 -154 -551 -334zM1126 768l-131 -2q-3 131 -47 184.5t-141 53.5q-127 0 -237.5 -81t-175 -216.5t-64.5 -288.5q0 -234 175 -295t525 63l23 -80q-277 -135 -469.5 -129.5t-295 117t-102.5 301.5q0 141 54 275.5
t142.5 235t210 161.5t249.5 61q153 0 221.5 -86t62.5 -274z" />
    <glyph glyph-name="Cdotaccent" unicode="&#x10a;" 
d="M922 1630l-148 -2l72 297l166 4zM874 1440q182 0 251.5 -126t56.5 -388l-142 -2q2 81 -1 136.5t-14.5 105.5t-33.5 79t-58.5 45.5t-88.5 16.5q-108 0 -207 -68t-167.5 -177.5t-109.5 -249.5t-41 -282q0 -306 189.5 -393t544.5 51l-15 -139q-407 -146 -636.5 -24.5
t-229.5 477.5q0 179 55 350t147.5 300.5t224 208.5t275.5 79z" />
    <glyph glyph-name="cdotaccent" unicode="&#x10b;" 
d="M889 1319l-148 -2l72 297l166 4zM1126 768l-131 -2q-3 131 -47 184.5t-141 53.5q-127 0 -237.5 -81t-175 -216.5t-64.5 -288.5q0 -234 175 -295t525 63l23 -80q-277 -135 -469.5 -129.5t-295 117t-102.5 301.5q0 141 54 275.5t142.5 235t210 161.5t249.5 61
q153 0 221.5 -86t62.5 -274z" />
    <glyph glyph-name="Ccaron" unicode="&#x10c;" 
d="M852 1597h-6l-307 342l100 80l235 -274l365 264l70 -78zM874 1440q182 0 251.5 -126t56.5 -388l-142 -2q2 81 -1 136.5t-14.5 105.5t-33.5 79t-58.5 45.5t-88.5 16.5q-108 0 -207 -68t-167.5 -177.5t-109.5 -249.5t-41 -282q0 -306 189.5 -393t544.5 51l-15 -139
q-407 -146 -636.5 -24.5t-229.5 477.5q0 179 55 350t147.5 300.5t224 208.5t275.5 79z" />
    <glyph glyph-name="ccaron" unicode="&#x10d;" 
d="M819 1286h-6l-307 342l100 80l236 -274l364 264l70 -78zM1126 768l-131 -2q-3 131 -47 184.5t-141 53.5q-127 0 -237.5 -81t-175 -216.5t-64.5 -288.5q0 -234 175 -295t525 63l23 -80q-277 -135 -469.5 -129.5t-295 117t-102.5 301.5q0 141 54 275.5t142.5 235t210 161.5
t249.5 61q153 0 221.5 -86t62.5 -274z" />
    <glyph glyph-name="Dcaron" unicode="&#x10e;" 
d="M874 1585h-6l-307 342l101 80l235 -274l365 264l69 -78zM1194 868q0 -158 -40.5 -298.5t-126.5 -258t-210 -196.5t-301.5 -111t-390.5 -4l272 1405q384 67 590.5 -70t206.5 -467zM1047 852q0 253 -134 362.5t-391 79.5l-227 -1177q148 -13 272.5 19.5t212 99.5
t148.5 163.5t90 210.5t29 242z" />
    <glyph glyph-name="dcaron" unicode="&#x10f;" 
d="M1442 1815l174 8q-7 -304 -236 -572l-63 31q92 142 114 261.5t11 271.5zM451 113q79 0 182.5 60t189.5 151l125 643q-137 41 -231 41q-119 0 -220 -90t-158.5 -234.5t-57.5 -304.5q0 -129 48 -197.5t122 -68.5zM1186 80q-116 -68 -196.5 -90t-123 1t-56.5 77t-3 141
q-102 -102 -215.5 -167t-204.5 -65q-110 0 -179 95.5t-69 273.5q0 152 49 294t133.5 250t207.5 173t262 65q84 0 186 -18l92 475l145 12l-258 -1308q-12 -68 -14 -111t20 -60t69.5 -8.5t133.5 44.5z" />
    <glyph glyph-name="Dcroat" unicode="&#x110;" 
d="M1194 868q0 -158 -40.5 -298.5t-126.5 -258t-210 -196.5t-301.5 -111t-390.5 -4l129 662h-172l22 108h170l123 635q384 67 590.5 -70t206.5 -467zM719 662h-320l-104 -545q148 -13 272.5 19.5t212 99.5t148.5 163.5t90 210.5t29 242q0 253 -134 362.5t-391 79.5
l-102 -524h325z" />
    <glyph glyph-name="dcroat" unicode="&#x111;" 
d="M451 113q79 0 182.5 60t189.5 151l125 643q-137 41 -231 41q-119 0 -220 -90t-158.5 -234.5t-57.5 -304.5q0 -129 48 -197.5t122 -68.5zM1186 80q-116 -68 -196.5 -90t-123 1t-56.5 77t-3 141q-102 -102 -215.5 -167t-204.5 -65q-110 0 -179 95.5t-69 273.5q0 152 49 294
t133.5 250t207.5 173t262 65q84 0 186 -18l41 215h-318l21 98h317l31 162l145 12l-34 -174h163l-18 -98h-164l-205 -1036q-12 -68 -14 -111t20 -60t69.5 -8.5t133.5 44.5z" />
    <glyph glyph-name="Emacron" unicode="&#x112;" 
d="M1294 1815l-24 -123h-733l24 123h733zM1014 129l-33 -129h-821l272 1409h828l-27 -127h-678l-98 -512h575l-22 -113h-576l-102 -528h682z" />
    <glyph glyph-name="emacron" unicode="&#x113;" 
d="M1229 1536l-25 -123h-733l25 123h733zM1071 123q-170 -87 -317.5 -122.5t-253.5 -20t-182 69.5t-113 141t-37 200q0 130 50 262t135.5 238t210 172.5t261.5 66.5q142 0 225 -69.5t83 -188.5q0 -191 -214.5 -307t-611.5 -145v-10q0 -235 182 -289.5t560 82.5zM793 1008
q-95 0 -179.5 -43t-144.5 -114t-100 -160t-54 -183q208 16 357.5 57.5t235 113.5t85.5 169q0 73 -53.5 116.5t-146.5 43.5z" />
    <glyph glyph-name="Ebreve" unicode="&#x114;" 
d="M1274 1968l84 -55q-247 -324 -469 -324q-113 0 -199.5 81.5t-150.5 250.5l112 55q60 -145 121.5 -206.5t147.5 -61.5t167 63t187 197zM1014 129l-33 -129h-821l272 1409h828l-27 -127h-678l-98 -512h575l-22 -113h-576l-102 -528h682z" />
    <glyph glyph-name="ebreve" unicode="&#x115;" 
d="M1208 1690l84 -56q-246 -323 -469 -323q-225 0 -350 331l113 56q60 -145 121 -206.5t147 -61.5t167 63t187 197zM1071 123q-170 -87 -317.5 -122.5t-253.5 -20t-182 69.5t-113 141t-37 200q0 130 50 262t135.5 238t210 172.5t261.5 66.5q142 0 225 -69.5t83 -188.5
q0 -191 -214.5 -307t-611.5 -145v-10q0 -235 182 -289.5t560 82.5zM793 1008q-95 0 -179.5 -43t-144.5 -114t-100 -160t-54 -183q208 16 357.5 57.5t235 113.5t85.5 169q0 73 -53.5 116.5t-146.5 43.5z" />
    <glyph glyph-name="Edotaccent" unicode="&#x116;" 
d="M942 1599l-147 -2l71 297l166 4zM1014 129l-33 -129h-821l272 1409h828l-27 -127h-678l-98 -512h575l-22 -113h-576l-102 -528h682z" />
    <glyph glyph-name="edotaccent" unicode="&#x117;" 
d="M879 1321l-148 -2l72 297l166 4zM1071 123q-170 -87 -317.5 -122.5t-253.5 -20t-182 69.5t-113 141t-37 200q0 130 50 262t135.5 238t210 172.5t261.5 66.5q142 0 225 -69.5t83 -188.5q0 -191 -214.5 -307t-611.5 -145v-10q0 -235 182 -289.5t560 82.5zM793 1008
q-95 0 -179.5 -43t-144.5 -114t-100 -160t-54 -183q208 16 357.5 57.5t235 113.5t85.5 169q0 73 -53.5 116.5t-146.5 43.5z" />
    <glyph glyph-name="Eogonek" unicode="&#x118;" 
d="M913 -381q-115 -60 -212 -81t-156.5 -5.5t-92 52t-32.5 87.5q0 79 88.5 162.5t271.5 165.5h-620l272 1409h828l-27 -127h-678l-98 -512h575l-22 -113h-576l-102 -528h682l-33 -129q-218 -77 -322 -150t-104 -137q0 -23 11.5 -40.5t38 -27.5t65 -10t96 13.5t127.5 40.5z
" />
    <glyph glyph-name="eogonek" unicode="&#x119;" 
d="M905 -379q-116 -60 -213 -81t-157 -5.5t-92.5 52t-32.5 87.5q0 159 245 310q-232 -31 -359.5 82t-127.5 325q0 130 50 262t135.5 238t210 172.5t261.5 66.5q142 0 225 -69.5t83 -188.5q0 -191 -214.5 -307t-611.5 -145v-10q0 -235 182 -289.5t560 82.5l22 -80
q-257 -111 -390.5 -217t-133.5 -193q0 -23 11.5 -40.5t38 -27t65 -9.5t96 14t127.5 41zM793 1008q-95 0 -179.5 -43t-144.5 -114t-100 -160t-54 -183q208 16 357.5 57.5t235 113.5t85.5 169q0 73 -53.5 116.5t-146.5 43.5z" />
    <glyph glyph-name="Ecaron" unicode="&#x11a;" 
d="M872 1567h-6l-307 342l100 80l236 -275l365 264l69 -77zM1014 129l-33 -129h-821l272 1409h828l-27 -127h-678l-98 -512h575l-22 -113h-576l-102 -528h682z" />
    <glyph glyph-name="ecaron" unicode="&#x11b;" 
d="M809 1288h-6l-307 342l100 80l235 -274l365 264l70 -78zM1071 123q-170 -87 -317.5 -122.5t-253.5 -20t-182 69.5t-113 141t-37 200q0 130 50 262t135.5 238t210 172.5t261.5 66.5q142 0 225 -69.5t83 -188.5q0 -191 -214.5 -307t-611.5 -145v-10q0 -235 182 -289.5
t560 82.5zM793 1008q-95 0 -179.5 -43t-144.5 -114t-100 -160t-54 -183q208 16 357.5 57.5t235 113.5t85.5 169q0 73 -53.5 116.5t-146.5 43.5z" />
    <glyph glyph-name="Gbreve" unicode="&#x11e;" 
d="M1237 1999l84 -55q-247 -324 -469 -324q-113 0 -199.5 81.5t-150.5 250.5l112 55q60 -145 121.5 -206.5t147.5 -61.5t167 63t187 197zM922 -248l-136 -4l60 264q-314 -95 -495 35.5t-181 450.5q0 144 34.5 285t98.5 258.5t147 207.5t187 140.5t213 50.5q178 0 249 -123.5
t60 -390.5h-139q5 200 -34 290.5t-159 90.5q-106 0 -202 -69t-162.5 -179.5t-106 -251.5t-39.5 -283q0 -278 144.5 -374.5t415.5 -2.5l88 396l141 6z" />
    <glyph glyph-name="gbreve" unicode="&#x11f;" 
d="M1194 1690l84 -56q-246 -323 -469 -323q-225 0 -350 331l112 56q60 -145 121.5 -206.5t147.5 -61.5t167 63t187 197zM483 182q91 0 186.5 73.5t176.5 207.5q34 244 127 477q-136 68 -244 68q-121 0 -222.5 -85t-157.5 -217t-56 -274q0 -121 53 -185.5t137 -64.5z
M967 -203q-114 -229 -842 -184l16 143q225 -21 374 -12.5t219 26t97 44.5t28.5 89t-11 188.5t-12.5 221.5q-89 -120 -195.5 -192t-216.5 -72q-123 0 -197.5 91t-74.5 259q0 140 48.5 272.5t132 233.5t203.5 162t255 61q114 0 243 -55q31 55 53 55q31 0 64 -17t33 -38
q0 -53 -64.5 -234.5t-146.5 -346.5q-6 -71 -6 -127q0 -115 12 -248.5t12 -202.5t-24 -117z" />
    <glyph glyph-name="Gdotaccent" unicode="&#x120;" 
d="M905 1630l-147 -2l71 297l166 4zM922 -248l-136 -4l60 264q-314 -95 -495 35.5t-181 450.5q0 144 34.5 285t98.5 258.5t147 207.5t187 140.5t213 50.5q178 0 249 -123.5t60 -390.5h-139q5 200 -34 290.5t-159 90.5q-106 0 -202 -69t-162.5 -179.5t-106 -251.5t-39.5 -283
q0 -278 144.5 -374.5t415.5 -2.5l88 396l141 6z" />
    <glyph glyph-name="gdotaccent" unicode="&#x121;" 
d="M864 1321l-147 -2l71 297l166 4zM483 182q91 0 186.5 73.5t176.5 207.5q34 244 127 477q-136 68 -244 68q-121 0 -222.5 -85t-157.5 -217t-56 -274q0 -121 53 -185.5t137 -64.5zM967 -203q-114 -229 -842 -184l16 143q225 -21 374 -12.5t219 26t97 44.5t28.5 89
t-11 188.5t-12.5 221.5q-89 -120 -195.5 -192t-216.5 -72q-123 0 -197.5 91t-74.5 259q0 140 48.5 272.5t132 233.5t203.5 162t255 61q114 0 243 -55q31 55 53 55q31 0 64 -17t33 -38q0 -53 -64.5 -234.5t-146.5 -346.5q-6 -71 -6 -127q0 -115 12 -248.5t12 -202.5t-24 -117
z" />
    <glyph glyph-name="Gcommaaccent" unicode="&#x122;" 
d="M922 -248l-136 -4l60 264q-314 -95 -495 35.5t-181 450.5q0 144 34.5 285t98.5 258.5t147 207.5t187 140.5t213 50.5q178 0 249 -123.5t60 -390.5h-139q5 200 -34 290.5t-159 90.5q-106 0 -202 -69t-162.5 -179.5t-106 -251.5t-39.5 -283q0 -278 144.5 -374.5t415.5 -2.5
l88 396l141 6zM268 -821q54 77 80 152.5t25 139.5t-13 132l191 6q0 -115 -56 -233.5t-169 -227.5z" />
    <glyph glyph-name="gcommaaccent" unicode="&#x123;" 
d="M971 1726q-54 -77 -80 -152.5t-25 -139t13 -131.5l-191 -7q0 115 56 233.5t169 227.5zM483 182q91 0 186.5 73.5t176.5 207.5q34 244 127 477q-136 68 -244 68q-121 0 -222.5 -85t-157.5 -217t-56 -274q0 -121 53 -185.5t137 -64.5zM967 -203q-114 -229 -842 -184l16 143
q225 -21 374 -12.5t219 26t97 44.5t28.5 89t-11 188.5t-12.5 221.5q-89 -120 -195.5 -192t-216.5 -72q-123 0 -197.5 91t-74.5 259q0 140 48.5 272.5t132 233.5t203.5 162t255 61q114 0 243 -55q31 55 53 55q31 0 64 -17t33 -38q0 -53 -64.5 -234.5t-146.5 -346.5
q-6 -71 -6 -127q0 -115 12 -248.5t12 -202.5t-24 -117z" />
    <glyph glyph-name="Hbar" unicode="&#x126;" 
d="M977 745l53 277h-567l-53 -277h567zM834 0l120 629h-567l-121 -629h-149l196 1018h-170l21 108h170l55 283h150l-56 -287h568l55 287h149l-55 -283h168l-20 -108h-168l-197 -1018h-149z" />
    <glyph glyph-name="hbar" unicode="&#x127;" 
d="M1180 78q-94 -59 -168.5 -83.5t-120 -15.5t-69 41.5t-23.5 85.5q0 73 38.5 221.5t76.5 299t38 229.5q0 137 -121 137q-82 0 -190 -68t-225 -198l-142 -727h-141l256 1325h-168l21 98h168l30 162l144 12l-33 -174h313l-18 -98h-316l-90 -467q123 132 244.5 200t228.5 68
q99 0 146 -56t47 -150q0 -95 -39.5 -255.5t-79 -303.5t-39.5 -197q0 -36 15 -49.5t60.5 -5t131.5 44.5z" />
    <glyph glyph-name="Imacron" unicode="&#x12a;" 
d="M1243 1815l-24 -123h-734l25 123h733zM621 119h350l-29 -119h-836l25 119h342l225 1171h-348l23 119h837l-22 -119h-340z" />
    <glyph glyph-name="imacron" unicode="&#x12b;" 
d="M1165 1511l-24 -122h-733l24 122h733zM1079 96q-160 -64 -283 -93.5t-203 -23.5t-125.5 42.5t-52.5 103.5t17 160l180 688l-415 -66l-9 80l467 119l129 -4l-209 -797q-14 -55 -15 -91.5t14 -63t48.5 -36t92.5 -7t142.5 20t201.5 50.5z" />
    <glyph glyph-name="Ibreve" unicode="&#x12c;" 
d="M1223 1968l84 -55q-247 -324 -469 -324q-225 0 -351 332l113 55q60 -145 121 -206.5t147 -61.5t167.5 63t187.5 197zM621 119h350l-29 -119h-836l25 119h342l225 1171h-348l23 119h837l-22 -119h-340z" />
    <glyph glyph-name="ibreve" unicode="&#x12d;" 
d="M1145 1665l84 -55q-247 -324 -469 -324q-113 0 -199.5 81.5t-150.5 250.5l112 55q60 -145 121.5 -206.5t147.5 -61.5t167 63t187 197zM1079 96q-160 -64 -283 -93.5t-203 -23.5t-125.5 42.5t-52.5 103.5t17 160l180 688l-415 -66l-9 80l467 119l129 -4l-209 -797
q-14 -55 -15 -91.5t14 -63t48.5 -36t92.5 -7t142.5 20t201.5 50.5z" />
    <glyph glyph-name="Iogonek" unicode="&#x12e;" 
d="M709 -379q-94 -49 -175.5 -72t-139 -20.5t-98.5 21.5t-61 51t-20 73q0 165 242 326h-351l25 119h342l225 1171h-348l23 119h837l-22 -119h-340l-227 -1171h350l-29 -119h-332q-260 -150 -260 -287q0 -23 11.5 -40.5t38 -27t65 -9.5t96 14t127.5 41z" />
    <glyph glyph-name="iogonek" unicode="&#x12f;" 
d="M829 1298l-145 -8l70 301l164 6zM868 -379q-116 -60 -213 -81t-157 -5.5t-92.5 52t-32.5 87.5q0 162 264 303q-151 -7 -199 71.5t-6 236.5l180 688l-415 -66l-9 80l467 119l129 -4l-209 -797q-14 -55 -15 -91.5t14 -63t48.5 -36t92.5 -7t142.5 20t201.5 50.5l20 -82
q-170 -64 -286.5 -121t-176 -104t-83 -83.5t-23.5 -74.5q0 -23 11.5 -40.5t38 -27t65 -9.5t96 14t127.5 41z" />
    <glyph glyph-name="Idotaccent" unicode="&#x130;" 
d="M891 1599l-148 -2l72 297l166 4zM621 119h350l-29 -119h-836l25 119h342l225 1171h-348l23 119h837l-22 -119h-340z" />
    <glyph glyph-name="dotlessi" unicode="&#x131;" 
d="M1079 96q-160 -64 -283 -93.5t-203 -23.5t-125.5 42.5t-52.5 103.5t17 160l180 688l-415 -66l-9 80l467 119l129 -4l-209 -797q-14 -55 -15 -91.5t14 -63t48.5 -36t92.5 -7t142.5 20t201.5 50.5z" />
    <glyph glyph-name="Kcommaaccent" unicode="&#x136;" 
d="M936 -12l-449 723l678 698h164l-672 -700l439 -699zM416 1409h149l-274 -1409h-150zM397 -600q54 77 80 152.5t25 139.5t-13 132l191 6q0 -115 -56 -233.5t-169 -227.5z" />
    <glyph glyph-name="kcommaaccent" unicode="&#x137;" 
d="M958 -12l-438 467q140 68 241.5 133t156.5 120t79.5 100t24.5 85q0 49 -31 75.5t-86 26.5q-91 0 -216 -71.5t-259 -208.5l-137 -715h-141l307 1585l143 12l-145 -751q133 137 268.5 209.5t247.5 72.5q95 0 149 -49.5t54 -132.5q0 -116 -116.5 -240t-365.5 -249l428 -445z
M379 -600q54 77 80 152.5t25 139.5t-13 132l191 6q0 -114 -56.5 -233t-169.5 -228z" />
    <glyph glyph-name="Lacute" unicode="&#x139;" 
d="M645 1636q111 71 248.5 181.5t230.5 203.5l107 -116q-191 -154 -551 -334zM1024 0h-860l274 1409h148l-246 -1280h713z" />
    <glyph glyph-name="lacute" unicode="&#x13a;" 
d="M883 1827q111 71 248.5 181.5t230.5 203.5l106 -117q-192 -155 -550 -334zM1051 147q-313 -192 -507 -160.5t-227 292.5q-22 -15 -61 -40t-47 -30l-43 70q39 21 145 96v12q0 178 43 361t116.5 333.5t163.5 270t190.5 186t191.5 66.5q97 0 151 -60.5t54 -167.5
q0 -102 -43 -215.5t-131.5 -241.5t-238.5 -270.5t-351 -286.5q7 -116 45 -179.5t110.5 -75t171.5 18t236 101.5zM969 1460q-76 0 -164 -84t-162.5 -218.5t-127 -320t-58.5 -370.5q168 128 292.5 253t195.5 232.5t104.5 198t33.5 168.5q0 68 -30.5 104.5t-83.5 36.5z" />
    <glyph glyph-name="Lcommaaccent" unicode="&#x13b;" 
d="M1024 0h-860l274 1409h148l-246 -1280h713zM377 -588q54 77 80 152.5t25 139.5t-13 132l190 6q0 -114 -56 -232.5t-169 -227.5z" />
    <glyph glyph-name="lcommaaccent" unicode="&#x13c;" 
d="M1051 147q-313 -192 -507 -160.5t-227 292.5q-22 -15 -61 -40t-47 -30l-43 70q39 21 145 96v12q0 178 43 361t116.5 333.5t163.5 270t190.5 186t191.5 66.5q97 0 151 -60.5t54 -167.5q0 -102 -43 -215.5t-131.5 -241.5t-238.5 -270.5t-351 -286.5q7 -116 45 -179.5
t110.5 -75t171.5 18t236 101.5zM969 1460q-76 0 -164 -84t-162.5 -218.5t-127 -320t-58.5 -370.5q168 128 292.5 253t195.5 232.5t104.5 198t33.5 168.5q0 68 -30.5 104.5t-83.5 36.5zM432 -606q54 77 80 152.5t25 139.5t-13 132l191 6q0 -114 -56.5 -233t-169.5 -228z" />
    <glyph glyph-name="Lcaron" unicode="&#x13d;" 
d="M1106 1581l174 8q-3 -146 -57.5 -286t-178.5 -285l-63 31q92 142 114 261t11 271zM1024 0h-860l274 1409h148l-246 -1280h713z" />
    <glyph glyph-name="lcaron" unicode="&#x13e;" 
d="M1444 1815l174 8q-7 -304 -236 -572l-63 31q92 142 114 261.5t11 271.5zM1051 147q-313 -192 -507 -160.5t-227 292.5q-22 -15 -61 -40t-47 -30l-43 70q39 21 145 96v12q0 178 43 361t116.5 333.5t163.5 270t190.5 186t191.5 66.5q97 0 151 -60.5t54 -167.5
q0 -102 -43 -215.5t-131.5 -241.5t-238.5 -270.5t-351 -286.5q7 -116 45 -179.5t110.5 -75t171.5 18t236 101.5zM969 1460q-76 0 -164 -84t-162.5 -218.5t-127 -320t-58.5 -370.5q168 128 292.5 253t195.5 232.5t104.5 198t33.5 168.5q0 68 -30.5 104.5t-83.5 36.5z" />
    <glyph glyph-name="Ldot" unicode="&#x13f;" 
d="M1024 0h-860l274 1409h148l-246 -1280h713zM1071 610h-186l53 224h186z" />
    <glyph glyph-name="ldot" unicode="&#x140;" 
d="M1051 147q-313 -192 -507 -160.5t-227 292.5q-22 -15 -61 -40t-47 -30l-43 70q39 21 145 96v12q0 178 43 361t116.5 333.5t163.5 270t190.5 186t191.5 66.5q97 0 151 -60.5t54 -167.5q0 -102 -43 -215.5t-131.5 -241.5t-238.5 -270.5t-351 -286.5q7 -116 45 -179.5
t110.5 -75t171.5 18t236 101.5zM969 1460q-76 0 -164 -84t-162.5 -218.5t-127 -320t-58.5 -370.5q168 128 292.5 253t195.5 232.5t104.5 198t33.5 168.5q0 68 -30.5 104.5t-83.5 36.5zM1339 606h-182l51 223h181z" />
    <glyph glyph-name="Lslash" unicode="&#x141;" 
d="M1051 0h-861l136 690l-185 -86l-4 105l211 100l117 600h147l-100 -522l377 178l6 -107l-406 -190l-122 -639h712z" />
    <glyph glyph-name="lslash" unicode="&#x142;" 
d="M362 1638q0 115 159.5 188.5t418 76t586.5 -83.5l-47 -117q-121 35 -240 57t-218 29.5t-187.5 5.5t-155.5 -14t-116 -29.5t-74 -40t-25 -47.5q0 -28 28.5 -59t94.5 -80l-76 -94q-148 104 -148 208zM1051 147q-313 -192 -507 -160.5t-227 292.5q-22 -15 -61 -40t-47 -30
l-43 70q39 21 145 96v12q0 178 43 361t116.5 333.5t163.5 270t190.5 186t191.5 66.5q97 0 151 -60.5t54 -167.5q0 -102 -43 -215.5t-131.5 -241.5t-238.5 -270.5t-351 -286.5q7 -116 45 -179.5t110.5 -75t171.5 18t236 101.5zM969 1460q-76 0 -164 -84t-162.5 -218.5
t-127 -320t-58.5 -370.5q168 128 292.5 253t195.5 232.5t104.5 198t33.5 168.5q0 68 -30.5 104.5t-83.5 36.5z" />
    <glyph glyph-name="Nacute" unicode="&#x143;" 
d="M602 1640q111 71 248.5 181.5t230.5 203.5l107 -116q-191 -154 -551 -334zM836 0l-344 1186h-11l-225 -1186h-139l272 1407l170 6l328 -1163h12l221 1159h140l-275 -1409h-149z" />
    <glyph glyph-name="nacute" unicode="&#x144;" 
d="M516 1356q111 71 248.5 181.5t230.5 203.5l107 -117q-191 -154 -551 -334zM1180 78q-94 -59 -168.5 -83.5t-120 -15.5t-69 41.5t-23.5 85.5q0 88 76.5 371t76.5 379q0 139 -121 139q-81 0 -187 -62t-224 -181q-9 -53 -146 -752h-141q13 69 45.5 235t42.5 217t31.5 166
t32 174t24.5 143t27 165l139 10q-1 -5 -15 -99t-22 -143q123 127 245.5 193.5t229.5 66.5q99 0 146 -56.5t47 -149.5q0 -95 -39.5 -255.5t-79 -304t-39.5 -198.5q0 -36 15 -49.5t60.5 -5t131.5 44.5z" />
    <glyph glyph-name="Ncommaaccent" unicode="&#x145;" 
d="M836 0l-344 1186h-11l-225 -1186h-139l272 1407l170 6l328 -1163h12l221 1159h140l-275 -1409h-149zM334 -588q54 77 80 152.5t25 139.5t-13 132l190 6q0 -114 -56 -232.5t-169 -227.5z" />
    <glyph glyph-name="ncommaaccent" unicode="&#x146;" 
d="M1180 78q-94 -59 -168.5 -83.5t-120 -15.5t-69 41.5t-23.5 85.5q0 88 76.5 371t76.5 379q0 139 -121 139q-81 0 -187 -62t-224 -181q-9 -53 -146 -752h-141q13 69 45.5 235t42.5 217t31.5 166t32 174t24.5 143t27 165l139 10q-1 -5 -15 -99t-22 -143q123 127 245.5 193.5
t229.5 66.5q99 0 146 -56.5t47 -149.5q0 -95 -39.5 -255.5t-79 -304t-39.5 -198.5q0 -36 15 -49.5t60.5 -5t131.5 44.5zM326 -610q54 77 80 152.5t25 139.5t-13 132l190 6q0 -115 -56 -233.5t-169 -227.5z" />
    <glyph glyph-name="Ncaron" unicode="&#x147;" 
d="M850 1571h-6l-307 342l100 80l235 -275l365 264l70 -77zM836 0l-344 1186h-11l-225 -1186h-139l272 1407l170 6l328 -1163h12l221 1159h140l-275 -1409h-149z" />
    <glyph glyph-name="ncaron" unicode="&#x148;" 
d="M764 1286h-6l-307 342l100 80l235 -274l365 264l70 -78zM1180 78q-94 -59 -168.5 -83.5t-120 -15.5t-69 41.5t-23.5 85.5q0 88 76.5 371t76.5 379q0 139 -121 139q-81 0 -187 -62t-224 -181q-9 -53 -146 -752h-141q13 69 45.5 235t42.5 217t31.5 166t32 174t24.5 143
t27 165l139 10q-1 -5 -15 -99t-22 -143q123 127 245.5 193.5t229.5 66.5q99 0 146 -56.5t47 -149.5q0 -95 -39.5 -255.5t-79 -304t-39.5 -198.5q0 -36 15 -49.5t60.5 -5t131.5 44.5z" />
    <glyph glyph-name="Omacron" unicode="&#x14c;" 
d="M1276 1845l-25 -123h-733l25 123h733zM1210 911q0 -140 -31 -277.5t-89.5 -256t-137.5 -210t-181.5 -144t-213.5 -52.5q-182 0 -288.5 136t-106.5 391q0 140 31 277.5t89.5 256t137.5 210t181.5 144t213.5 52.5q182 0 288.5 -136t106.5 -391zM313 508q0 -199 71 -302.5
t196 -103.5q135 0 247 118t172 300t60 381q0 200 -70.5 303t-195.5 103q-102 0 -193 -69.5t-153 -182t-98 -256t-36 -291.5z" />
    <glyph glyph-name="omacron" unicode="&#x14d;" 
d="M1198 1536l-24 -123h-734l25 123h733zM1133 682q0 -146 -46.5 -277.5t-125.5 -225.5t-188 -149t-230 -55q-184 0 -291 116.5t-107 330.5q0 193 78 355.5t214 257.5t298 95q183 0 290.5 -116.5t107.5 -331.5zM291 444q0 -165 72.5 -256.5t205.5 -91.5q120 0 216.5 76.5
t149 205t52.5 281.5q0 165 -72.5 258t-205.5 93q-121 0 -217.5 -78.5t-148.5 -207.5t-52 -280z" />
    <glyph glyph-name="Obreve" unicode="&#x14e;" 
d="M1255 1999l84 -55q-247 -324 -469 -324q-113 0 -199.5 81.5t-150.5 250.5l113 55q60 -145 121 -206.5t147 -61.5t167 63t187 197zM1210 911q0 -140 -31 -277.5t-89.5 -256t-137.5 -210t-181.5 -144t-213.5 -52.5q-182 0 -288.5 136t-106.5 391q0 140 31 277.5t89.5 256
t137.5 210t181.5 144t213.5 52.5q182 0 288.5 -136t106.5 -391zM313 508q0 -199 71 -302.5t196 -103.5q135 0 247 118t172 300t60 381q0 200 -70.5 303t-195.5 103q-102 0 -193 -69.5t-153 -182t-98 -256t-36 -291.5z" />
    <glyph glyph-name="obreve" unicode="&#x14f;" 
d="M1178 1690l84 -56q-246 -323 -469 -323q-226 0 -351 331l113 56q60 -145 121 -206.5t147 -61.5t167.5 63t187.5 197zM1133 682q0 -146 -46.5 -277.5t-125.5 -225.5t-188 -149t-230 -55q-184 0 -291 116.5t-107 330.5q0 193 78 355.5t214 257.5t298 95q183 0 290.5 -116.5
t107.5 -331.5zM291 444q0 -165 72.5 -256.5t205.5 -91.5q120 0 216.5 76.5t149 205t52.5 281.5q0 165 -72.5 258t-205.5 93q-121 0 -217.5 -78.5t-148.5 -207.5t-52 -280z" />
    <glyph glyph-name="Ohungarumlaut" unicode="&#x150;" 
d="M590 1604l-64 51q79 88 168.5 212.5t147.5 223.5l145 -78q-72 -91 -184 -206t-213 -203zM1063 1604l-66 51q79 86 165 205.5t147 222.5l147 -72q-70 -92 -180.5 -206t-212.5 -201zM1210 911q0 -140 -31 -277.5t-89.5 -256t-137.5 -210t-181.5 -144t-213.5 -52.5
q-182 0 -288.5 136t-106.5 391q0 140 31 277.5t89.5 256t137.5 210t181.5 144t213.5 52.5q182 0 288.5 -136t106.5 -391zM313 508q0 -199 71 -302.5t196 -103.5q135 0 247 118t172 300t60 381q0 200 -70.5 303t-195.5 103q-102 0 -193 -69.5t-153 -182t-98 -256t-36 -291.5z
" />
    <glyph glyph-name="ohungarumlaut" unicode="&#x151;" 
d="M514 1294l-63 52q78 87 167.5 211.5t147.5 224.5l145 -78q-72 -91 -184 -207t-213 -203zM987 1294l-65 52q79 86 164.5 205t146.5 223l147 -72q-70 -92 -181 -207t-212 -201zM1133 682q0 -146 -46.5 -277.5t-125.5 -225.5t-188 -149t-230 -55q-184 0 -291 116.5
t-107 330.5q0 193 78 355.5t214 257.5t298 95q183 0 290.5 -116.5t107.5 -331.5zM291 444q0 -165 72.5 -256.5t205.5 -91.5q120 0 216.5 76.5t149 205t52.5 281.5q0 165 -72.5 258t-205.5 93q-121 0 -217.5 -78.5t-148.5 -207.5t-52 -280z" />
    <glyph glyph-name="OE" unicode="&#x152;" 
d="M293 471q0 -183 76 -262t223 -82l225 1157q-87 -2 -161.5 -36t-127 -88.5t-94.5 -127.5t-68 -148t-43 -154t-23.5 -142.5t-6.5 -116.5zM1122 127l-37 -127h-464q-111 0 -193 21.5t-147.5 72.5t-99.5 144t-34 227q0 71 9.5 149.5t34 172t61.5 179.5t98 168t137.5 142
t185 96.5t236.5 36.5h455l-25 -125h-385l-98 -514h322l-21 -111h-321l-105 -532h391z" />
    <glyph glyph-name="oe" unicode="&#x153;" 
d="M666 772q0 112 -31 173t-90 61q-75 0 -146 -109.5t-112 -263t-41 -289.5q0 -119 35 -182.5t96 -63.5q76 0 144.5 110t106.5 265t38 299zM1053 999q-65 0 -124.5 -72t-99.5 -181t-59 -234q170 29 272.5 129t102.5 233q0 60 -24.5 92.5t-67.5 32.5zM1186 131
q-122 -92 -220 -128t-163 -17.5t-104.5 75t-53.5 148.5q-64 -107 -142.5 -168t-164.5 -61q-110 0 -171 91t-61 271q0 188 61 368t170 297t234 117q87 0 140.5 -63t70.5 -180q65 113 145 178t169 65q86 0 135 -59.5t49 -165.5q0 -186 -137.5 -315t-384.5 -162q-2 -25 -2 -74
q0 -90 22 -145t69 -78t125 -4t187 80z" />
    <glyph glyph-name="Racute" unicode="&#x154;" 
d="M569 1651q111 71 249 181.5t231 203.5l106 -117q-191 -154 -551 -334zM961 -12l-406 641l2 6q260 115 372.5 213.5t112.5 222.5q0 128 -129 186t-381 31l-247 -1288h-148l271 1405q213 25 361.5 15t242 -56t136 -111.5t42.5 -152.5q0 -151 -112.5 -268t-340.5 -226
l385 -594z" />
    <glyph glyph-name="racute" unicode="&#x155;" 
d="M614 1376q111 71 249 181.5t231 203.5l106 -116q-191 -154 -551 -334zM1167 61q-334 -146 -424 -22q-121 168 174 873q7 18 15 36q-216 -69 -397 -69q-56 -120 -149.5 -255.5t-199.5 -252.5l-61 53q221 271 303 465q-98 26 -98 94q0 64 63 130.5t131 66.5q35 0 54.5 -22
t19.5 -64q0 -40 -16 -99q232 24 471 127l67 -43q-248 -610 -266 -817q-13 -141 71 -161q66 -16 228 40z" />
    <glyph glyph-name="Rcommaaccent" unicode="&#x156;" 
d="M961 -12l-406 641l2 6q260 115 372.5 213.5t112.5 222.5q0 128 -129 186t-381 31l-247 -1288h-148l271 1405q213 25 361.5 15t242 -56t136 -111.5t42.5 -152.5q0 -151 -112.5 -268t-340.5 -226l385 -594zM358 -600q54 77 80.5 152.5t25.5 139.5t-13 132l190 6
q0 -115 -56 -233.5t-169 -227.5z" />
    <glyph glyph-name="rcommaaccent" unicode="&#x157;" 
d="M1167 61q-334 -146 -424 -22q-121 168 174 873q7 18 15 36q-216 -69 -397 -69q-56 -120 -149.5 -255.5t-199.5 -252.5l-61 53q221 271 303 465q-98 26 -98 94q0 64 63 130.5t131 66.5q35 0 54.5 -22t19.5 -64q0 -40 -16 -99q232 24 471 127l67 -43q-248 -610 -266 -817
q-13 -141 71 -161q66 -16 228 40zM287 -555q54 77 80 152.5t25 139.5t-13 132l190 6q0 -115 -56 -233.5t-169 -227.5z" />
    <glyph glyph-name="Rcaron" unicode="&#x158;" 
d="M817 1581h-6l-307 342l100 80l236 -274l364 264l70 -78zM961 -12l-406 641l2 6q260 115 372.5 213.5t112.5 222.5q0 128 -129 186t-381 31l-247 -1288h-148l271 1405q213 25 361.5 15t242 -56t136 -111.5t42.5 -152.5q0 -151 -112.5 -268t-340.5 -226l385 -594z" />
    <glyph glyph-name="rcaron" unicode="&#x159;" 
d="M848 1307h-6l-307 342l100 80l235 -275l365 264l70 -78zM1167 61q-334 -146 -424 -22q-121 168 174 873q7 18 15 36q-216 -69 -397 -69q-56 -120 -149.5 -255.5t-199.5 -252.5l-61 53q221 271 303 465q-98 26 -98 94q0 64 63 130.5t131 66.5q35 0 54.5 -22t19.5 -64
q0 -40 -16 -99q232 24 471 127l67 -43q-248 -610 -266 -817q-13 -141 71 -161q66 -16 228 40z" />
    <glyph glyph-name="Sacute" unicode="&#x15a;" 
d="M594 1663q111 71 248.5 181.5t230.5 203.5l107 -117q-191 -154 -551 -334zM1167 1053l-135 -27q-22 148 -91 215.5t-193 67.5q-123 0 -206 -77.5t-83 -182.5q0 -56 32.5 -111t85 -100.5t115.5 -92t126 -93.5t115.5 -96t85 -109.5t32.5 -124.5q0 -71 -32.5 -132
t-108 -110.5t-185 -75t-276 -19.5t-369.5 50l33 147q144 -36 264 -53.5t204.5 -15t147.5 17t100 42t54.5 60.5t17.5 72q0 50 -32.5 100.5t-85 94.5t-115.5 89.5t-126 94t-115.5 99.5t-85 114.5t-32.5 130.5q0 79 36 153t98.5 130.5t152 90.5t190.5 34q327 0 381 -383z" />
    <glyph glyph-name="sacute" unicode="&#x15b;" 
d="M555 1430q111 71 248.5 181.5t230.5 203.5l107 -117q-191 -154 -551 -334zM1055 281q0 -45 -14.5 -84t-49.5 -77.5t-92 -65t-142 -47.5t-201 -25t-267 4l6 135q153 -16 261.5 -13.5t178 12.5t109 34t54.5 51t15 63q0 46 -32 107t-74 114t-95 128t-83 135
q-147 -138 -404 -301l-39 69q158 114 251 192t153 148q-10 45 -10 80q0 93 67 177.5t141 84.5q70 0 82 -60q18 -86 -92 -231l-37 -45q16 -51 55.5 -114t82 -120.5t83 -117t67 -120.5t26.5 -113z" />
    <glyph glyph-name="Scedilla" unicode="&#x15e;" 
d="M608 -414q10 160 -25 237t-102 77q-59 0 -115 -63t-114 -185l-80 26q103 248 234 310q-160 10 -326 47l33 147q144 -36 264 -53.5t204.5 -15t147.5 17t100 42t54.5 60.5t17.5 72q0 50 -32.5 100.5t-85 94.5t-115.5 89.5t-126 94t-115.5 99.5t-85 114.5t-32.5 130.5
q0 79 36 153t98.5 130.5t152 90.5t190.5 34q327 0 381 -383l-135 -27q-22 148 -91 215.5t-193 67.5q-123 0 -206 -77.5t-83 -182.5q0 -56 32.5 -111t85 -100.5t115.5 -92t126 -93.5t115.5 -96t85 -109.5t32.5 -124.5q0 -130 -114 -224t-343 -112q76 -37 115.5 -137
t29.5 -259z" />
    <glyph glyph-name="scedilla" unicode="&#x15f;" 
d="M655 -416q10 160 -25 237t-102 77q-59 0 -115 -63t-114 -185l-80 26q102 241 223 304q-70 0 -153 6l6 135q153 -16 261.5 -13.5t178 12.5t109 34t54.5 51t15 63q0 46 -32 107t-74 114t-95 128t-83 135q-147 -138 -404 -301l-39 69q158 114 251 192t153 148q-10 45 -10 80
q0 93 67 177.5t141 84.5q70 0 82 -60q18 -86 -92 -231l-37 -45q16 -51 55.5 -114t82 -120.5t83 -117t67 -120.5t26.5 -113q0 -53 -21 -98t-67 -85.5t-130.5 -69t-201.5 -40.5q79 -35 120 -135.5t31 -264.5z" />
    <glyph glyph-name="Scaron" unicode="&#x160;" 
d="M844 1593h-6l-308 342l101 80l235 -274l365 264l69 -78zM1167 1053l-135 -27q-22 148 -91 215.5t-193 67.5q-123 0 -206 -77.5t-83 -182.5q0 -56 32.5 -111t85 -100.5t115.5 -92t126 -93.5t115.5 -96t85 -109.5t32.5 -124.5q0 -71 -32.5 -132t-108 -110.5t-185 -75
t-276 -19.5t-369.5 50l33 147q144 -36 264 -53.5t204.5 -15t147.5 17t100 42t54.5 60.5t17.5 72q0 50 -32.5 100.5t-85 94.5t-115.5 89.5t-126 94t-115.5 99.5t-85 114.5t-32.5 130.5q0 79 36 153t98.5 130.5t152 90.5t190.5 34q327 0 381 -383z" />
    <glyph glyph-name="scaron" unicode="&#x161;" 
d="M803 1360h-6l-308 342l101 80l235 -275l365 265l70 -78zM1055 281q0 -45 -14.5 -84t-49.5 -77.5t-92 -65t-142 -47.5t-201 -25t-267 4l6 135q153 -16 261.5 -13.5t178 12.5t109 34t54.5 51t15 63q0 46 -32 107t-74 114t-95 128t-83 135q-147 -138 -404 -301l-39 69
q158 114 251 192t153 148q-10 45 -10 80q0 93 67 177.5t141 84.5q70 0 82 -60q18 -86 -92 -231l-37 -45q16 -51 55.5 -114t82 -120.5t83 -117t67 -120.5t26.5 -113z" />
    <glyph glyph-name="Tcommaaccent" unicode="&#x162;" 
d="M856 1280l-248 -1280h-149l248 1280h-451l23 129h1054l-24 -129h-453zM313 -588q54 77 80.5 152.5t25.5 139.5t-13 132l190 6q0 -114 -56 -232.5t-169 -227.5z" />
    <glyph glyph-name="Tcommaaccent" unicode="&#x21a;" 
d="M856 1280l-248 -1280h-149l248 1280h-451l23 129h1054l-24 -129h-453zM313 -588q54 77 80.5 152.5t25.5 139.5t-13 132l190 6q0 -114 -56 -232.5t-169 -227.5z" />
    <glyph glyph-name="tcommaaccent" unicode="&#x163;" 
d="M1051 117q-120 -60 -221.5 -95t-176.5 -43.5t-132 4.5t-91.5 45.5t-51.5 83t-16 114.5t19 141l139 620h-211l31 113h145l164 315l111 6l-72 -321h438l-20 -113h-444l-138 -612q-25 -101 -15 -166t63 -91.5t166 -8t294 85.5zM348 -612q54 77 80 152.5t25 139.5t-13 132
l191 6q0 -115 -56 -233.5t-169 -227.5z" />
    <glyph glyph-name="tcommaaccent" unicode="&#x21b;" 
d="M1051 117q-120 -60 -221.5 -95t-176.5 -43.5t-132 4.5t-91.5 45.5t-51.5 83t-16 114.5t19 141l139 620h-211l31 113h145l164 315l111 6l-72 -321h438l-20 -113h-444l-138 -612q-25 -101 -15 -166t63 -91.5t166 -8t294 85.5zM348 -612q54 77 80 152.5t25 139.5t-13 132
l191 6q0 -115 -56 -233.5t-169 -227.5z" />
    <glyph glyph-name="Tcaron" unicode="&#x164;" 
d="M829 1567h-6l-307 342l100 80l236 -275l365 264l69 -77zM856 1280l-248 -1280h-149l248 1280h-451l23 129h1054l-24 -129h-453z" />
    <glyph glyph-name="tcaron" unicode="&#x165;" 
d="M1020 1882l174 8q-3 -146 -57.5 -286t-178.5 -285l-63 31q92 142 114 261t11 271zM1051 117q-120 -60 -221.5 -95t-176.5 -43.5t-132 4.5t-91.5 45.5t-51.5 83t-16 114.5t19 141l139 620h-211l31 113h145l164 315l111 6l-72 -321h438l-20 -113h-444l-138 -612
q-25 -101 -15 -166t63 -91.5t166 -8t294 85.5z" />
    <glyph glyph-name="Umacron" unicode="&#x16a;" 
d="M1268 1815l-25 -123h-733l25 123h733zM569 -33q-220 0 -318.5 132.5t-49.5 381.5l180 928h147l-178 -917q-76 -392 238 -392q272 0 338 351l186 958h150l-187 -956q-47 -239 -177.5 -362.5t-328.5 -123.5z" />
    <glyph glyph-name="umacron" unicode="&#x16b;" 
d="M1223 1516l-25 -123h-733l24 123h734zM1190 80q-95 -55 -165.5 -79t-113.5 -17.5t-66.5 38.5t-25 90t11.5 136q-122 -137 -226.5 -205t-203.5 -68q-129 0 -179.5 104.5t-2.5 313.5l86 377l-90 55l160 277l145 8l-160 -702q-68 -297 109 -297q80 0 173 66t216 204l143 723
h138l-160 -823q-20 -87 -13.5 -131t52.5 -43.5t153 47.5z" />
    <glyph glyph-name="Ubreve" unicode="&#x16c;" 
d="M1247 1968l84 -55q-247 -324 -469 -324q-113 0 -199.5 81.5t-150.5 250.5l113 55q60 -145 121 -206.5t147 -61.5t167 63t187 197zM569 -33q-220 0 -318.5 132.5t-49.5 381.5l180 928h147l-178 -917q-76 -392 238 -392q272 0 338 351l186 958h150l-187 -956
q-47 -239 -177.5 -362.5t-328.5 -123.5z" />
    <glyph glyph-name="ubreve" unicode="&#x16d;" 
d="M1202 1669l84 -55q-247 -324 -469 -324q-113 0 -199.5 81.5t-150.5 250.5l113 55q60 -145 121 -206.5t147 -61.5t167 63t187 197zM1190 80q-95 -55 -165.5 -79t-113.5 -17.5t-66.5 38.5t-25 90t11.5 136q-122 -137 -226.5 -205t-203.5 -68q-129 0 -179.5 104.5
t-2.5 313.5l86 377l-90 55l160 277l145 8l-160 -702q-68 -297 109 -297q80 0 173 66t216 204l143 723h138l-160 -823q-20 -87 -13.5 -131t52.5 -43.5t153 47.5z" />
    <glyph glyph-name="Uring" unicode="&#x16e;" 
d="M907 2019q124 0 203.5 -63.5t79.5 -159.5q0 -107 -89 -179.5t-224 -72.5q-123 0 -202 63.5t-79 159.5q0 105 88.5 178.5t222.5 73.5zM897 1925q-81 0 -134.5 -42.5t-53.5 -104.5q0 -61 50.5 -101.5t129.5 -40.5q82 0 136 44t54 106q0 59 -51.5 99t-130.5 40zM569 -33
q-220 0 -318.5 132.5t-49.5 381.5l180 928h147l-178 -917q-76 -392 238 -392q272 0 338 351l186 958h150l-187 -956q-47 -239 -177.5 -362.5t-328.5 -123.5z" />
    <glyph glyph-name="uring" unicode="&#x16f;" 
d="M862 1720q124 0 203.5 -63.5t79.5 -159.5q0 -107 -89.5 -179.5t-224.5 -72.5q-123 0 -201.5 63.5t-78.5 159.5q0 105 88.5 178.5t222.5 73.5zM852 1626q-81 0 -134.5 -42.5t-53.5 -104.5q0 -61 50.5 -101.5t129.5 -40.5q82 0 136 44t54 106q0 59 -51.5 99t-130.5 40z
M1190 80q-95 -55 -165.5 -79t-113.5 -17.5t-66.5 38.5t-25 90t11.5 136q-122 -137 -226.5 -205t-203.5 -68q-129 0 -179.5 104.5t-2.5 313.5l86 377l-90 55l160 277l145 8l-160 -702q-68 -297 109 -297q80 0 173 66t216 204l143 723h138l-160 -823q-20 -87 -13.5 -131
t52.5 -43.5t153 47.5z" />
    <glyph glyph-name="Uhungarumlaut" unicode="&#x170;" 
d="M584 1573l-64 51q79 88 168.5 212.5t147.5 223.5l145 -78q-72 -91 -184 -206t-213 -203zM1057 1573l-66 51q79 86 165 205.5t147 222.5l147 -72q-70 -92 -180.5 -206t-212.5 -201zM569 -33q-220 0 -318.5 132.5t-49.5 381.5l180 928h147l-178 -917q-76 -392 238 -392
q272 0 338 351l186 958h150l-187 -956q-47 -239 -177.5 -362.5t-328.5 -123.5z" />
    <glyph glyph-name="uhungarumlaut" unicode="&#x171;" 
d="M539 1274l-64 51q79 88 168.5 212.5t147.5 223.5l145 -78q-72 -91 -184 -206t-213 -203zM1012 1274l-66 51q79 86 164.5 205t146.5 223l148 -72q-70 -92 -180.5 -206t-212.5 -201zM1190 80q-95 -55 -165.5 -79t-113.5 -17.5t-66.5 38.5t-25 90t11.5 136
q-122 -137 -226.5 -205t-203.5 -68q-129 0 -179.5 104.5t-2.5 313.5l86 377l-90 55l160 277l145 8l-160 -702q-68 -297 109 -297q80 0 173 66t216 204l143 723h138l-160 -823q-20 -87 -13.5 -131t52.5 -43.5t153 47.5z" />
    <glyph glyph-name="Uogonek" unicode="&#x172;" 
d="M764 -379q-94 -48 -176 -71.5t-139.5 -21t-99 21.5t-61.5 51t-20 73q0 146 279 293q-209 8 -301 139.5t-45 374.5l180 928h147l-178 -917q-76 -392 238 -392q272 0 338 351l186 958h150l-187 -956q-65 -330 -299 -445q-200 -97 -285 -164.5t-85 -130.5q0 -23 11.5 -40.5
t37.5 -27t64.5 -9.5t96 14t127.5 41z" />
    <glyph glyph-name="uogonek" unicode="&#x173;" 
d="M1135 -379q-94 -49 -175.5 -72t-139 -20.5t-98.5 21.5t-61 51t-20 73q0 164 258 324q-107 26 -68 250q-242 -273 -430 -273q-129 0 -179.5 104.5t-2.5 313.5l86 377l-90 55l160 277l145 8l-160 -702q-68 -297 109 -297q80 0 173 66t216 204l143 723h138l-160 -823
q-20 -87 -13.5 -131t52.5 -43.5t153 47.5l19 -74q-217 -103 -315.5 -196t-98.5 -171q0 -23 11.5 -40.5t38 -27t65 -9.5t96 14t127.5 41z" />
    <glyph glyph-name="Wcircumflex" unicode="&#x174;" 
d="M1159 1573l-235 274l-367 -264l-65 78l456 334h6l306 -342zM766 0l-59 776l-361 -776h-166q23 500 158 1409h145q-42 -274 -96.5 -684t-64.5 -539h8l372 809h97l59 -809h8q38 128 142 536.5t170 686.5h143q-202 -843 -389 -1409h-166z" />
    <glyph glyph-name="wcircumflex" unicode="&#x175;" 
d="M1098 1268l-236 274l-366 -264l-66 78l457 334h6l305 -342zM770 0l-102 635l-342 -635h-144q18 499 99 1102h143q-58 -419 -109 -909h7l340 638h94l96 -641h10q140 495 238 912h151q-141 -525 -348 -1102h-133z" />
    <glyph glyph-name="Ycircumflex" unicode="&#x176;" 
d="M1141 1577l-236 274l-366 -264l-66 78l457 334h6l305 -342zM608 0h-149l92 481l-289 926l154 6l239 -795l539 791h162l-658 -944z" />
    <glyph glyph-name="ycircumflex" unicode="&#x177;" 
d="M1104 1288l-236 275l-366 -265l-66 78l457 334h6l305 -342zM956 -203q-115 -228 -811 -186l21 147q218 -21 361 -13.5t208.5 24.5t91.5 43q18 18 27 48t11.5 82t1.5 99t-4 136t-3 155q-104 -121 -228 -198t-239 -77q-411 0 -20 1045l139 4q-80 -221 -124 -386.5
t-55 -265.5t4.5 -161t46.5 -83t79 -22q81 0 191 73t210 192q11 142 52.5 303t88 264.5t74.5 103.5q36 0 68.5 -14.5t32.5 -36.5q0 -62 -59.5 -255.5t-133.5 -348.5q-4 -29 -4 -92q0 -76 3.5 -188.5t4 -169t-7.5 -120t-27 -102.5z" />
    <glyph glyph-name="Ydieresis" unicode="&#x178;" 
d="M1145 1608l-146 -4l72 299l164 4zM664 1602l-148 -3l74 297l162 5zM608 0h-149l92 481l-289 926l154 6l239 -795l539 791h162l-658 -944z" />
    <glyph glyph-name="Zacute" unicode="&#x179;" 
d="M586 1636q111 71 248.5 181.5t230.5 203.5l106 -116q-192 -155 -550 -334zM1001 0h-927l20 127l981 1155l-739 -4l24 131h906l-23 -127l-977 -1155l760 4z" />
    <glyph glyph-name="zacute" unicode="&#x17a;" 
d="M530 1331q111 71 249 181.5t231 203.5l106 -117q-187 -151 -551 -333zM979 0h-891l23 123l886 858l-710 -4l35 127h864l-23 -121l-889 -860l740 4z" />
    <glyph glyph-name="Zdotaccent" unicode="&#x17b;" 
d="M905 1599l-147 -2l71 297l166 4zM1001 0h-927l20 127l981 1155l-739 -4l24 131h906l-23 -127l-977 -1155l760 4z" />
    <glyph glyph-name="zdotaccent" unicode="&#x17c;" 
d="M848 1294l-148 -2l72 297l166 4zM979 0h-891l23 123l886 858l-710 -4l35 127h864l-23 -121l-889 -860l740 4z" />
    <glyph glyph-name="Zcaron" unicode="&#x17d;" 
d="M836 1567h-7l-307 342l101 80l235 -275l365 264l69 -77zM1001 0h-927l20 127l981 1155l-739 -4l24 131h906l-23 -127l-977 -1155l760 4z" />
    <glyph glyph-name="zcaron" unicode="&#x17e;" 
d="M778 1262h-6l-307 342l100 79l236 -274l364 264l70 -78zM979 0h-891l23 123l886 858l-710 -4l35 127h864l-23 -121l-889 -860l740 4z" />
    <glyph glyph-name="Aringacute" unicode="&#x1fa;" 
d="M739 2173q111 71 249 181.5t231 203.5l106 -117q-191 -154 -551 -334zM903 2025q124 0 203.5 -63.5t79.5 -159.5q0 -107 -89.5 -179.5t-224.5 -72.5q-123 0 -201.5 64t-78.5 160q0 105 88.5 178t222.5 73zM893 1931q-81 0 -134.5 -42.5t-53.5 -104.5q0 -61 50.5 -101.5
t129.5 -40.5q82 0 136 44t54 106q0 59 -51.5 99t-130.5 40zM928 -6q-5 61 -41 459h-506q-87 -178 -215 -453h-150q295 629 699 1415h211q92 -784 149 -1409zM788 1284q-202 -405 -352 -717h441q-35 360 -72 717h-17z" />
    <glyph glyph-name="aringacute" unicode="&#x1fb;" 
d="M717 1892q111 71 248.5 181.5t230.5 203.5l107 -116q-191 -154 -551 -334zM881 1735q123 0 202.5 -64t79.5 -160q0 -107 -89 -179t-224 -72q-123 0 -202 63.5t-79 159.5q0 105 89 178.5t223 73.5zM870 1640q-81 0 -134.5 -42.5t-53.5 -104.5q0 -61 50.5 -101t129.5 -40
q82 0 136.5 43.5t54.5 105.5q0 59 -52 99t-131 40zM442 113q75 0 182.5 65.5t198.5 159.5q48 232 125 629q-127 34 -225 34q-119 0 -221 -91.5t-160.5 -240t-58.5 -313.5q0 -122 43.5 -182.5t115.5 -60.5zM1178 80q-117 -69 -197 -90.5t-121 3t-54 80.5t-1 146
q-105 -105 -221 -173.5t-207 -68.5q-107 0 -172.5 90t-65.5 259q0 155 50 300t136.5 255t211.5 176.5t266 66.5q140 0 307 -45l-158 -798q-12 -65 -14 -106t19.5 -57t68.5 -7.5t133 43.5z" />
    <glyph glyph-name="AEacute" unicode="&#x1fc;" 
d="M827 1636q111 71 249 181.5t231 203.5l106 -116q-191 -154 -551 -334zM803 1284q-66 -128 -195 -373.5t-190 -363.5h260l143 737h-18zM571 0l84 434h-295q-18 -35 -100.5 -192.5l-126.5 -241.5h-153q512 960 759 1409h633l-24 -125h-390l-100 -514h330l-23 -111h-327
l-105 -532h395l-34 -127h-523z" />
    <glyph glyph-name="aeacute" unicode="&#x1fd;" 
d="M590 1335q111 71 248.5 181.5t230.5 203.5l107 -116q-191 -154 -551 -334zM1174 127q-130 -87 -234.5 -121.5t-174.5 -17.5t-113 70.5t-60 140.5q-168 -215 -320 -215q-80 0 -124 73.5t-44 216.5q0 208 68 402t188.5 318t260.5 124q118 0 237 -84q99 90 213 90
q94 0 145.5 -57t51.5 -156q0 -180 -145 -317.5t-402 -171.5q-4 -58 -4 -84q0 -123 40.5 -179.5t139 -47.5t260.5 94zM1034 1004q-67 0 -130.5 -73.5t-107 -184t-65.5 -236.5q184 28 293 137.5t109 237.5q0 56 -26 87.5t-73 31.5zM332 115q97 0 250 209q1 165 50 326t132 278
q-90 73 -180 73q-91 0 -170 -107.5t-122.5 -268t-43.5 -322.5q0 -188 84 -188z" />
    <glyph glyph-name="Oslashacute" unicode="&#x1fe;" 
d="M606 1667q111 71 248.5 181.5t230.5 203.5l107 -117q-187 -151 -551 -333zM315 524q0 -110 23 -200l651 870q-71 117 -205 117q-100 0 -189 -68t-149.5 -179t-95.5 -252.5t-35 -287.5zM588 98q132 0 241.5 115.5t168.5 296t59 377.5q0 116 -25 205l-653 -873
q71 -121 209 -121zM563 -31q-169 0 -274 117l-123 -162l-90 62l149 198q-61 131 -61 330q0 173 49 340t132.5 297t205.5 209.5t258 79.5q169 0 274 -117l125 162l88 -62l-151 -196q63 -129 63 -332q0 -172 -48 -339t-131.5 -297t-205.5 -210t-260 -80z" />
    <glyph glyph-name="oslashacute" unicode="&#x1ff;" 
d="M528 1358q111 71 249 181.5t231 203.5l106 -117q-191 -154 -551 -334zM289 444q0 -108 30 -184l590 666q-75 84 -200 84q-121 0 -218 -78t-149.5 -207t-52.5 -281zM569 96q120 0 217 76.5t150 205t53 281.5q0 101 -28 177l-586 -662q72 -78 194 -78zM543 -25
q-157 0 -262 88l-125 -137l-86 64l141 157q-66 107 -66 275q0 193 78 355.5t214 257.5t298 95q164 0 269 -94l122 138l86 -66l-141 -158q62 -111 62 -268q0 -146 -46.5 -277.5t-125.5 -225.5t-188 -149t-230 -55z" />
    <glyph glyph-name="Scommaaccent" unicode="&#x218;" 
d="M1167 1053l-135 -27q-22 148 -91 215.5t-193 67.5q-123 0 -206 -77.5t-83 -182.5q0 -56 32.5 -111t85 -100.5t115.5 -92t126 -93.5t115.5 -96t85 -109.5t32.5 -124.5q0 -71 -32.5 -132t-108 -110.5t-185 -75t-276 -19.5t-369.5 50l33 147q144 -36 264 -53.5t204.5 -15
t147.5 17t100 42t54.5 60.5t17.5 72q0 50 -32.5 100.5t-85 94.5t-115.5 89.5t-126 94t-115.5 99.5t-85 114.5t-32.5 130.5q0 79 36 153t98.5 130.5t152 90.5t190.5 34q327 0 381 -383zM281 -604q54 77 80 152.5t25 139.5t-13 132l190 6q0 -115 -56 -233.5t-169 -227.5z" />
    <glyph glyph-name="scommaaccent" unicode="&#x219;" 
d="M1055 281q0 -45 -14.5 -84t-49.5 -77.5t-92 -65t-142 -47.5t-201 -25t-267 4l6 135q153 -16 261.5 -13.5t178 12.5t109 34t54.5 51t15 63q0 46 -32 107t-74 114t-95 128t-83 135q-147 -138 -404 -301l-39 69q158 114 251 192t153 148q-10 45 -10 80q0 93 67 177.5
t141 84.5q70 0 82 -60q18 -86 -92 -231l-37 -45q16 -51 55.5 -114t82 -120.5t83 -117t67 -120.5t26.5 -113zM305 -608q54 77 80 152.5t25 139.5t-13 132l191 6q0 -114 -56.5 -233t-169.5 -228z" />
    <glyph glyph-name="schwa" unicode="&#x259;" 
d="M453 -27q-142 0 -225 69.5t-83 188.5q0 191 215 307.5t611 145.5v10q0 235 -182 290t-560 -81l-22 78q171 87 318.5 122.5t253.5 20.5t181.5 -69t112.5 -141.5t37 -200.5q0 -104 -31.5 -210.5t-91 -200.5t-139 -168t-182.5 -117.5t-213 -43.5zM485 96q95 0 179.5 43
t144.5 114t100 160t54 183q-208 -16 -357.5 -57.5t-235 -113.5t-85.5 -169q0 -73 53.5 -116.5t146.5 -43.5z" />
    <glyph glyph-name="circumflex" unicode="&#x2c6;" 
d="M918 1268l-236 274l-367 -264l-65 78l457 334h6l305 -342z" />
    <glyph glyph-name="caron" unicode="&#x2c7;" 
d="M618 1262h-6l-307 342l101 79l235 -274l365 264l69 -78z" />
    <glyph glyph-name="breve" unicode="&#x2d8;" 
d="M991 1663l84 -55q-247 -324 -469 -324q-113 0 -199.5 81.5t-150.5 250.5l113 55q60 -145 121 -206.5t147 -61.5t167 63t187 197z" />
    <glyph glyph-name="dotaccent" unicode="&#x2d9;" 
d="M678 1294l-148 -2l72 297l166 4z" />
    <glyph glyph-name="ring" unicode="&#x2da;" 
d="M829 1714q124 0 203.5 -63.5t79.5 -159.5q0 -107 -89 -179.5t-224 -72.5q-123 0 -202 63.5t-79 159.5q0 105 88.5 178.5t222.5 73.5zM819 1620q-81 0 -134.5 -42.5t-53.5 -104.5q0 -61 50.5 -101.5t129.5 -40.5q82 0 136 44t54 106q0 59 -51.5 99t-130.5 40z" />
    <glyph glyph-name="ogonek" unicode="&#x2db;" 
d="M874 63l48 -61q-218 -77 -322 -150t-104 -137q0 -23 11.5 -40.5t38 -27.5t65 -10t96 13.5t127.5 40.5l20 -70q-93 -48 -174.5 -71.5t-139 -21t-99 21.5t-61.5 51t-20 73q0 94 125 193.5t389 195.5z" />
    <glyph glyph-name="tilde" unicode="&#x2dc;" 
d="M811 1403q47 0 99 60t126 179l78 -43q-89 -153 -169.5 -231t-162.5 -78q-43 0 -79.5 25.5t-63 61.5t-50.5 72t-51.5 61.5t-56.5 25.5q-48 0 -101.5 -58t-123.5 -171l-76 45q174 297 332 297q43 0 79.5 -25.5t62.5 -61.5t49.5 -72t51 -61.5t56.5 -25.5z" />
    <glyph glyph-name="hungarumlaut" unicode="&#x2dd;" 
d="M375 1268l-64 51q79 88 168.5 212.5t147.5 223.5l145 -78q-72 -91 -184 -206t-213 -203zM848 1268l-66 51q79 86 165 205.5t147 222.5l147 -72q-70 -92 -180.5 -206t-212.5 -201z" />
    <glyph glyph-name="commaaccent" unicode="&#x326;" 
d="M446 -588q54 77 80.5 152.5t25.5 139.5t-13 132l190 6q0 -114 -56 -232.5t-169 -227.5z" />
    <glyph glyph-name="Wgrave" unicode="&#x1e80;" 
d="M1108 1618l-41 -62q-106 64 -241 169.5t-224 195.5l109 115q78 -101 192 -222t205 -196zM766 0l-59 776l-361 -776h-166q23 500 158 1409h145q-42 -274 -96.5 -684t-64.5 -539h8l372 809h97l59 -809h8q38 128 142 536.5t170 686.5h143q-202 -843 -389 -1409h-166z" />
    <glyph glyph-name="wgrave" unicode="&#x1e81;" 
d="M1047 1313l-41 -62q-106 64 -241 169.5t-224 195.5l108 115q77 -101 192 -221.5t206 -196.5zM770 0l-102 635l-342 -635h-144q18 499 99 1102h143q-58 -419 -109 -909h7l340 638h94l96 -641h10q140 495 238 912h151q-141 -525 -348 -1102h-133z" />
    <glyph glyph-name="Wacute" unicode="&#x1e82;" 
d="M604 1636q111 71 248.5 181.5t230.5 203.5l107 -116q-191 -154 -551 -334zM766 0l-59 776l-361 -776h-166q23 500 158 1409h145q-42 -274 -96.5 -684t-64.5 -539h8l372 809h97l59 -809h8q38 128 142 536.5t170 686.5h143q-202 -843 -389 -1409h-166z" />
    <glyph glyph-name="wacute" unicode="&#x1e83;" 
d="M543 1331q111 71 248.5 181.5t230.5 203.5l106 -117q-189 -152 -550 -333zM770 0l-102 635l-342 -635h-144q18 499 99 1102h143q-58 -419 -109 -909h7l340 638h94l96 -641h10q140 495 238 912h151q-141 -525 -348 -1102h-133z" />
    <glyph glyph-name="Wdieresis" unicode="&#x1e84;" 
d="M1163 1604l-145 -5l72 299l163 5zM682 1597l-147 -2l73 297l162 4zM766 0l-59 776l-361 -776h-166q23 500 158 1409h145q-42 -274 -96.5 -684t-64.5 -539h8l372 809h97l59 -809h8q38 128 142 536.5t170 686.5h143q-202 -843 -389 -1409h-166z" />
    <glyph glyph-name="wdieresis" unicode="&#x1e85;" 
d="M1100 1298l-146 -4l72 299l164 4zM618 1292l-147 -2l74 297l162 4zM770 0l-102 635l-342 -635h-144q18 499 99 1102h143q-58 -419 -109 -909h7l340 638h94l96 -641h10q140 495 238 912h151q-141 -525 -348 -1102h-133z" />
    <glyph glyph-name="Ygrave" unicode="&#x1ef2;" 
d="M1090 1622l-41 -61q-106 65 -241 169.5t-224 194.5l108 115q77 -101 192 -221.5t206 -196.5zM608 0h-149l92 481l-289 926l154 6l239 -795l539 791h162l-658 -944z" />
    <glyph glyph-name="ygrave" unicode="&#x1ef3;" 
d="M1053 1333l-41 -61q-106 65 -241 169.5t-224 194.5l108 115q77 -101 192 -221.5t206 -196.5zM956 -203q-115 -228 -811 -186l21 147q218 -21 361 -13.5t208.5 24.5t91.5 43q18 18 27 48t11.5 82t1.5 99t-4 136t-3 155q-104 -121 -228 -198t-239 -77q-411 0 -20 1045
l139 4q-80 -221 -124 -386.5t-55 -265.5t4.5 -161t46.5 -83t79 -22q81 0 191 73t210 192q11 142 52.5 303t88 264.5t74.5 103.5q36 0 68.5 -14.5t32.5 -36.5q0 -62 -59.5 -255.5t-133.5 -348.5q-4 -29 -4 -92q0 -76 3.5 -188.5t4 -169t-7.5 -120t-27 -102.5z" />
    <glyph glyph-name="endash" unicode="&#x2013;" 
d="M1124 717l-22 -115h-909l22 115h909z" />
    <glyph glyph-name="emdash" unicode="&#x2014;" 
d="M1200 717l-22 -115h-1004l21 115h1005z" />
    <glyph glyph-name="quoteleft" unicode="&#x2018;" 
d="M989 1526q-141 -146 -181.5 -279.5t-12.5 -337.5l-215 -6q7 208 88 360t262 300z" />
    <glyph glyph-name="quoteright" unicode="&#x2019;" 
d="M526 885q140 145 181 279t14 339l213 6q-7 -208 -88 -359t-262 -300z" />
    <glyph glyph-name="quotesinglbase" unicode="&#x201a;" 
d="M287 -383q140 146 181 280.5t13 338.5l215 6q-9 -210 -89 -361t-261 -301z" />
    <glyph glyph-name="quotedblleft" unicode="&#x201c;" 
d="M1229 1526q-139 -145 -179.5 -278.5t-13.5 -336.5l-213 -8q7 209 87.5 360t260.5 300zM758 1526q-141 -146 -182.5 -279.5t-14.5 -337.5l-211 -6q7 208 88 360t262 300z" />
    <glyph glyph-name="quotedblright" unicode="&#x201d;" 
d="M295 885q138 146 178.5 279.5t13.5 336.5l211 8q-7 -210 -86.5 -360t-259.5 -299zM766 885q141 146 182 280t13 338l213 6q-7 -208 -88.5 -359t-262.5 -300z" />
    <glyph glyph-name="quotedblbase" unicode="&#x201e;" 
d="M51 -383q139 146 180 279.5t13 336.5l213 9q-7 -209 -87 -360t-259 -302zM522 -383q140 146 182 280.5t15 338.5l213 6q-7 -209 -88 -360.5t-264 -301.5z" />
    <glyph glyph-name="dagger" unicode="&#x2020;" 
d="M614 279l-96 -39l-20 16l164 838l-363 36l23 119l362 -39l74 371l139 -14l-74 -371l363 -39l-23 -115l-364 37z" />
    <glyph glyph-name="daggerdbl" unicode="&#x2021;" 
d="M592 164l-98 -39l-17 16l96 500l-366 37l22 117l369 -39l66 338l-365 36l23 119l364 -39l72 371l139 -14l-74 -371l363 -39l-23 -115l-364 37l-76 -336l371 -38l-23 -115l-375 39z" />
    <glyph glyph-name="bullet" unicode="&#x2022;" 
d="M911 707q0 -128 -83.5 -213.5t-194.5 -85.5q-99 0 -164.5 68t-65.5 173q0 128 82.5 212.5t192.5 84.5q103 0 168 -66.5t65 -172.5z" />
    <glyph glyph-name="ellipsis" unicode="&#x2026;" 
d="M281 0h-197l51 240h197zM1112 0h-197l52 240h196zM696 0h-196l51 240h197z" />
    <glyph glyph-name="guilsinglleft" unicode="&#x2039;" 
d="M735 -37l-440 520l39 152l643 506l82 -111l-635 -483l418 -486z" />
    <glyph glyph-name="guilsinglright" unicode="&#x203a;" 
d="M287 -33l-82 109l635 483l-418 488l106 98l441 -522l-39 -152z" />
    <glyph glyph-name="fraction" unicode="&#x2044;" 
d="M45 -365l-115 64l1321 2011l111 -63z" />
    <glyph glyph-name="zero.sup" unicode="&#x2070;" 
d="M385 1087q0 153 57.5 288t160 217.5t224.5 82.5q133 0 211 -93t78 -261q0 -153 -58 -287.5t-161 -216.5t-225 -82q-132 0 -209.5 92.5t-77.5 259.5zM997 1311q0 126 -49.5 194t-138.5 68q-88 0 -159 -69t-108.5 -176.5t-37.5 -227.5q0 -127 49 -194.5t137 -67.5
t159.5 68.5t109.5 176t38 228.5z" />
    <glyph glyph-name="four.sup" unicode="&#x2074;" 
d="M1061 950h-115l-37 -192h-110l37 192h-467l8 80q98 160 163.5 301t127.5 334l127 -6q-65 -198 -134 -334.5t-165 -273.5h360l59 305l113 10l-61 -315h125z" />
    <glyph glyph-name="five.sup" unicode="&#x2075;" 
d="M1032 1038q0 -49 -22 -93t-70.5 -84.5t-126 -66t-189 -37.5t-259.5 1l14 110q156 -11 259.5 -4.5t164.5 33.5t86.5 58t25.5 69q0 145 -436 209l105 422h534l-31 -103h-419l-60 -243q424 -72 424 -271z" />
    <glyph glyph-name="six.sup" unicode="&#x2076;" 
d="M713 737q-138 0 -227 82t-89 236q0 94 33 181.5t103 172t194.5 155.5t292.5 117l27 -100q-121 -30 -214.5 -74t-153 -95.5t-95.5 -103.5t-54 -110q70 55 147 81t143.5 19.5t121 -35t86 -83.5t31.5 -125q0 -141 -99 -229.5t-247 -88.5zM731 834q99 0 158 57t59 147
q0 65 -38.5 110t-98.5 60.5t-140.5 -5.5t-156.5 -81q-2 -16 -2 -47q0 -124 62 -182.5t157 -58.5z" />
    <glyph glyph-name="seven.sup" unicode="&#x2077;" 
d="M582 750l-129 14q259 439 563 782v6h-520l22 105h647l-20 -98q-314 -370 -563 -809z" />
    <glyph glyph-name="eight.sup" unicode="&#x2078;" 
d="M1010 973q0 -100 -97.5 -169t-246.5 -69q-130 0 -211.5 56t-81.5 145q0 70 58 138t220 163q-70 62 -108.5 113.5t-38.5 105.5q0 70 59.5 125t177 80.5t291.5 -2.5l-39 -115q-140 34 -223.5 26.5t-118.5 -34.5t-35 -70q0 -38 34 -79t98 -95q142 76 342 172l38 -69
q-181 -86 -313 -158q44 -37 72 -63t60 -61.5t47.5 -70.5t15.5 -69zM688 831q92 0 150.5 38.5t58.5 95.5q0 25 -13 50.5t-45.5 58t-53 51t-70.5 59.5q-133 -79 -179.5 -127.5t-46.5 -91.5q0 -62 56 -98t143 -36z" />
    <glyph glyph-name="nine.sup" unicode="&#x2079;" 
d="M477 733l-26 103q232 57 355 157.5t161 223.5q-70 -55 -147 -80.5t-143.5 -19t-121 35t-86 83.5t-31.5 126q0 139 99 227t247 88q138 0 227 -81.5t89 -235.5q0 -74 -19.5 -144.5t-66 -142.5t-117 -133t-178 -115.5t-242.5 -91.5zM549 1378q0 -66 38.5 -111.5t98.5 -61
t140.5 5.5t156.5 81q2 16 2 49q0 122 -62 181t-157 59q-99 0 -158 -57.5t-59 -145.5z" />
    <glyph glyph-name="zero.inf" unicode="&#x2080;" 
d="M197 -12q0 153 57.5 288t160 217t224.5 82q133 0 211 -93t78 -261q0 -153 -58.5 -287.5t-161.5 -216.5t-225 -82q-132 0 -209 93t-77 260zM809 211q0 126 -49.5 194t-138.5 68q-88 0 -159 -69t-109 -176.5t-38 -227.5q0 -127 49.5 -194.5t137.5 -67.5t159.5 68.5
t109.5 176t38 228.5z" />
    <glyph glyph-name="one.inf" unicode="&#x2081;" 
d="M821 -342h-659l20 102h287l113 580l-285 -21l14 91l293 36l27 140l119 10l-166 -836h262z" />
    <glyph glyph-name="two.inf" unicode="&#x2082;" 
d="M793 -342h-635l-2 96q129 79 210 132t163.5 113.5t127.5 107t73 96.5t28 98q0 203 -441 139l17 109q270 40 410.5 -20.5t140.5 -200.5q0 -71 -34.5 -137.5t-111 -137.5t-168 -136t-235.5 -155h479z" />
    <glyph glyph-name="three.inf" unicode="&#x2083;" 
d="M842 -92q0 -45 -20.5 -85t-67.5 -77.5t-124 -60t-190 -33t-266 5.5l16 111q128 -14 220.5 -11.5t153.5 13t96.5 31.5t50 43.5t14.5 48.5q0 132 -391 208l8 56l434 295h-450l20 102h580l-13 -102l-430 -293q359 -80 359 -252z" />
    <glyph glyph-name="four.inf" unicode="&#x2084;" 
d="M872 -150h-114l-37 -192h-111l37 192h-467l8 80q98 160 163.5 301t127.5 334l127 -6q-65 -198 -134 -334.5t-165 -273.5h361l59 305l113 10l-62 -315h125z" />
    <glyph glyph-name="five.inf" unicode="&#x2085;" 
d="M844 -61q0 -49 -22 -93t-71 -84.5t-126.5 -66.5t-189 -38t-259.5 1l14 111q156 -11 259.5 -4.5t165 33t87 57.5t25.5 69q0 145 -436 209l104 422h535l-31 -102h-420l-59 -244q424 -72 424 -270z" />
    <glyph glyph-name="six.inf" unicode="&#x2086;" 
d="M524 -362q-138 0 -226.5 81.5t-88.5 235.5q0 74 19.5 144.5t66 142.5t116.5 133t177.5 115.5t242.5 91.5l27 -101q-121 -30 -214.5 -74t-153 -95.5t-95 -103.5t-53.5 -110q70 55 146.5 81t143.5 19.5t121 -35t85.5 -83.5t31.5 -125q0 -141 -99 -229t-247 -88zM543 -266
q99 0 158 57.5t59 147.5q0 65 -38.5 110t-98.5 60.5t-140.5 -5.5t-156.5 -81q-2 -16 -2 -48q0 -124 62 -182.5t157 -58.5z" />
    <glyph glyph-name="seven.inf" unicode="&#x2087;" 
d="M393 -350l-129 14q259 439 563 782v7h-520l23 104h647l-21 -98q-314 -370 -563 -809z" />
    <glyph glyph-name="eight.inf" unicode="&#x2088;" 
d="M821 -127q0 -100 -97.5 -169t-246.5 -69q-130 0 -211.5 56t-81.5 145q0 70 58.5 137.5t220.5 163.5q-71 62 -109.5 114t-38.5 105q0 70 60 125t177.5 80.5t291.5 -2.5l-39 -115q-140 34 -223.5 26.5t-118.5 -34t-35 -69.5q0 -38 34 -79t97 -95q142 76 342 172l39 -70
q-181 -86 -313 -158q44 -37 72 -63t59.5 -61.5t47 -70.5t15.5 -69zM500 -268q92 0 150.5 38.5t58.5 94.5q0 17 -5.5 34t-22.5 38t-27 33.5t-40 39t-40.5 35t-47.5 39.5q-133 -79 -179 -127.5t-46 -91.5q0 -62 56 -97.5t143 -35.5z" />
    <glyph glyph-name="nine.inf" unicode="&#x2089;" 
d="M289 -367l-27 103q232 57 355 157.5t161 223.5q-70 -55 -146.5 -80.5t-143.5 -19t-121 35t-85.5 83.5t-31.5 126q0 139 99 227.5t247 88.5q138 0 226.5 -82t88.5 -236q0 -74 -19.5 -144.5t-66 -142.5t-116.5 -133t-177.5 -115.5t-242.5 -91.5zM360 279q0 -66 39 -111.5
t99 -61t140.5 5.5t156.5 81q2 16 2 49q0 122 -62 180.5t-157 58.5q-99 0 -158.5 -57t-59.5 -145z" />
    <glyph glyph-name="colonmonetary" unicode="&#x20a1;" 
d="M731 229l268 971q-103 -17 -200 -43l-240 -866q64 -32 172 -62zM322 643q0 -193 151 -303l217 782q-368 -142 -368 -479zM614 -168l76 270q-95 22 -168 56l-90 -326h-113l107 375q-238 144 -238 416q0 100 29.5 190t90.5 173t164.5 152.5t242.5 118.5l88 318h110
l-77 -283q88 24 194 39l66 244h112l-63 -229q79 9 168 12l-13 -133q-92 -3 -198 -13l-279 -1003q106 -20 209 -31l-51 -125q-98 9 -188 27l-66 -248h-113z" />
    <glyph glyph-name="naira" unicode="&#x20a6;" 
d="M469 1169l-35 -182h96l-49 182h-12zM780 518l148 2l69 365l-313 -2zM344 516l313 2l-98 365h-145zM858 227h14l37 189h-100zM797 0l-113 414l-360 -2l-78 -412h-119l78 408l-166 -2l22 118l168 2l66 342l-168 -2l25 119h165l82 422l146 6l112 -426l361 2l80 420h116
l-81 -420l165 4l-22 -121h-166l-68 -342h166l-22 -118l-166 -2l-80 -410h-143z" />
    <glyph glyph-name="rupee" unicode="&#x20a8;" 
d="M512 -12l-125 641v6q149 144 215 259t66 228q0 184 -183 178l-258 -1300h-125l273 1409q213 30 316.5 -39t103.5 -221q0 -134 -68 -255t-215 -269l131 -613zM1190 274q0 -333 -457 -290l2 133q85 -13 145 -13t94 10t53 33t24.5 48t5.5 63q0 55 -17 120t-48 155t-44 135
q-73 -85 -170 -172l-43 51q127 143 187 233q-7 54 -7 88q0 127 61 230.5t132 103.5q55 0 68 -62q20 -97 -75 -262q-21 -36 -46 -73q13 -63 48.5 -166.5t61 -196.5t25.5 -168z" />
    <glyph glyph-name="Euro" unicode="&#x20ac;" 
d="M1075 74q-258 -117 -437.5 -100.5t-276.5 139t-107 333.5h-176l24 117h152q6 123 41 242h-150l25 115h164q91 231 254.5 375.5t355.5 144.5q159 0 232 -97t79 -296l-137 -19q-5 146 -49 216.5t-156 70.5q-139 0 -256 -113t-188 -291h518l-26 -106h-529q-36 -122 -39 -240
h522l-26 -106h-496q17 -261 182.5 -332t481.5 39z" />
    <glyph glyph-name="peso" unicode="&#x20b1;" 
d="M1028 981q-2 76 -32.5 136.5t-90 105t-158 63t-225.5 6.5l-59 -311h565zM383 571q263 -3 426 77.5t205 225.5h-572zM1294 864h-147q-55 -181 -260.5 -293t-530.5 -141l-84 -430h-139l166 864h-180l24 121h181l79 420q204 24 348.5 4t236.5 -82t134.5 -145.5t42.5 -188.5
v-8h154z" />
    <glyph glyph-name="rupeeindia" unicode="&#x20b9;" 
d="M1006 47l-123 -78q-90 84 -138 127.5t-113.5 99.5t-109.5 85t-102.5 62.5t-116.5 55.5t-129 43l45 111q266 21 413 100.5t183 198.5h-557l21 113h544q-15 123 -134 210.5t-353 110.5l31 123h923l-35 -127h-565q124 -46 194 -130.5t79 -186.5h227l-21 -113h-215
q-34 -137 -183.5 -235t-379.5 -130q133 -42 264.5 -138.5t350.5 -301.5z" />
    <glyph glyph-name="ruble" unicode="&#x20bd;" 
d="M1106 1042q0 139 -120.5 206t-371.5 46l-108 -557q301 2 450.5 75t149.5 230zM920 287h-500l-55 -287h-146l55 287h-204l20 114h207l43 220h-205l23 116h204l130 668q202 21 345.5 7.5t234.5 -63t133 -120.5t42 -166q0 -198 -191.5 -308.5t-570.5 -129.5l-45 -228h512z
" />
    <glyph glyph-name="numero" unicode="&#x2116;" 
d="M1184 1417q81 0 126.5 -69.5t45.5 -206.5q0 -162 -48.5 -306.5t-129.5 -230.5t-170 -86q-80 0 -125 70.5t-45 208.5q0 161 48 304.5t128.5 229.5t169.5 86zM465 0l-72 1090h-4l-205 -1090h-123l277 1409h127l74 -1028h4l192 1028l123 -2l-274 -1409zM956 809
q0 -81 21.5 -127.5t56.5 -46.5q47 0 95 76t78 191.5t30 225.5q0 81 -22 126.5t-58 45.5q-47 0 -94.5 -75.5t-77 -190.5t-29.5 -225zM1186 283h-445l23 112h444z" />
    <glyph glyph-name="published" unicode="&#x2117;" 
d="M115 578q0 179 49.5 333t133 258.5t195.5 164t236 59.5q205 0 335 -150.5t130 -406.5q0 -144 -32 -273.5t-89.5 -228t-134 -171t-169 -110t-191.5 -37.5q-204 0 -333.5 151.5t-129.5 410.5zM209 596q0 -227 108 -360.5t275 -133.5q137 0 253 92t185.5 257.5t69.5 367.5
q0 224 -108.5 356t-278.5 132q-102 0 -194.5 -54t-160.5 -147t-108.5 -226.5t-40.5 -283.5zM496 328h-101l144 751q208 29 306.5 -27t98.5 -169q0 -120 -107 -198.5t-292 -100.5zM846 864q0 66 -55 103t-164 28l-62 -313q136 1 208.5 49t72.5 133z" />
    <glyph glyph-name="servicemark" unicode="&#x2120;" 
d="M911 786l-37 494h-6l-116 -612h-99l144 739l139 4l39 -485h6l219 483h139l-143 -741h-102l120 612h-8l-225 -494h-70zM651 1227l-94 -17q-15 125 -92 125q-43 0 -71.5 -30.5t-28.5 -81.5q0 -38 21 -76t51 -71.5t60 -67.5t51 -77t21 -87q0 -50 -23 -89t-73.5 -66t-131 -27
t-196.5 28l17 101q307 -95 307 45q0 34 -21 69.5t-50.5 68t-59.5 67t-51 79t-21 90.5q0 90 62 151.5t155 61.5q147 0 168 -196z" />
    <glyph glyph-name="trademark" unicode="&#x2122;" 
d="M410 1315h-168l18 94h430l-18 -94h-162l-125 -643h-100zM911 786l-37 494h-6l-116 -612h-99l144 739l139 4l39 -485h6l219 483h139l-143 -741h-102l120 612h-8l-225 -494h-70z" />
    <glyph glyph-name="Omega" unicode="&#x2126;" 
d="M432 10l-4 -10h-401l22 119h256q-84 306 -84 543q0 354 144 564t401 210q188 0 291.5 -117t103.5 -322q0 -375 -319 -878h239l-22 -119h-397l-3 10q359 605 359 957q0 162 -72 249t-203 87q-183 0 -286 -183.5t-103 -496.5q0 -274 78 -613z" />
    <glyph glyph-name="onethird" unicode="&#x2153;" 
d="M1051 967h-660l21 102h286l113 580l-285 -21l15 90l293 37l26 139l119 11l-166 -836h262zM158 643l20 98h983l-20 -98h-983zM813 -227q0 -45 -20.5 -85t-67.5 -77.5t-124 -60t-190 -33t-266 5.5l17 110q128 -14 220.5 -11t153 13t96 31t50 43t14.5 49q0 133 -391 209
l8 56l435 294h-451l20 103h580l-12 -103l-430 -292q358 -79 358 -252z" />
    <glyph glyph-name="twothirds" unicode="&#x2154;" 
d="M1022 967h-635l-2 96q129 79 210 132t163.5 113.5t127.5 107t73 96.5t28 98q0 202 -440 139l16 109q270 40 410.5 -20.5t140.5 -201.5q0 -71 -34.5 -137.5t-111 -137t-168 -135.5t-235.5 -155h479zM158 643l20 98h983l-20 -98h-983zM813 -227q0 -45 -20.5 -85
t-67.5 -77.5t-124 -60t-190 -33t-266 5.5l17 110q128 -14 220.5 -11t153 13t96 31t50 43t14.5 49q0 133 -391 209l8 56l435 294h-451l20 103h580l-12 -103l-430 -292q358 -79 358 -252z" />
    <glyph glyph-name="onefifth" unicode="&#x2155;" 
d="M1051 967h-660l21 102h286l113 580l-285 -21l15 90l293 37l26 139l119 11l-166 -836h262zM158 643l20 98h983l-20 -98h-983zM815 -197q0 -49 -22 -93t-71 -84.5t-126.5 -66t-189 -37.5t-259.5 1l15 110q156 -11 259 -4.5t165 33.5t87 58t25 69q0 145 -436 209l105 422
h534l-31 -103h-419l-60 -243q424 -72 424 -271z" />
    <glyph glyph-name="twofifths" unicode="&#x2156;" 
d="M1022 967h-635l-2 96q129 79 210 132t163.5 113.5t127.5 107t73 96.5t28 98q0 202 -440 139l16 109q270 40 410.5 -20.5t140.5 -201.5q0 -71 -34.5 -137.5t-111 -137t-168 -135.5t-235.5 -155h479zM158 643l20 98h983l-20 -98h-983zM815 -197q0 -49 -22 -93t-71 -84.5
t-126.5 -66t-189 -37.5t-259.5 1l15 110q156 -11 259 -4.5t165 33.5t87 58t25 69q0 145 -436 209l105 422h534l-31 -103h-419l-60 -243q424 -72 424 -271z" />
    <glyph glyph-name="threefifths" unicode="&#x2157;" 
d="M1071 1217q0 -45 -20.5 -85t-67.5 -77.5t-124 -60t-190 -33t-266 5.5l17 110q128 -14 220.5 -11t153 13t96 31t50 43t14.5 49q0 133 -391 209l8 55l435 295h-451l20 103h580l-12 -103l-430 -293q358 -79 358 -251zM158 643l20 98h983l-20 -98h-983zM815 -197
q0 -49 -22 -93t-71 -84.5t-126.5 -66t-189 -37.5t-259.5 1l15 110q156 -11 259 -4.5t165 33.5t87 58t25 69q0 145 -436 209l105 422h534l-31 -103h-419l-60 -243q424 -72 424 -271z" />
    <glyph glyph-name="fourfifths" unicode="&#x2158;" 
d="M1102 1159h-115l-37 -192h-110l37 192h-467l8 80q98 160 163.5 301t127.5 334l127 -6q-65 -198 -134 -334.5t-165 -273.5h360l59 305l113 10l-61 -315h125zM158 643l20 98h983l-20 -98h-983zM815 -197q0 -49 -22 -93t-71 -84.5t-126.5 -66t-189 -37.5t-259.5 1l15 110
q156 -11 259 -4.5t165 33.5t87 58t25 69q0 145 -436 209l105 422h534l-31 -103h-419l-60 -243q424 -72 424 -271z" />
    <glyph glyph-name="onesixth" unicode="&#x2159;" 
d="M1051 967h-660l21 102h286l113 580l-285 -21l15 90l293 37l26 139l119 11l-166 -836h262zM158 643l20 98h983l-20 -98h-983zM496 -498q-138 0 -227 82t-89 236q0 94 33 181.5t103 172t194.5 155.5t292.5 117l26 -100q-121 -30 -214.5 -74t-153 -95.5t-95 -103.5
t-53.5 -110q70 55 147 81t143.5 19.5t121 -35t86 -83.5t31.5 -125q0 -141 -99 -229.5t-247 -88.5zM514 -401q99 0 158 57t59 147q0 65 -38.5 110t-98.5 60.5t-140.5 -5.5t-156.5 -81q-2 -16 -2 -47q0 -124 62 -182.5t157 -58.5z" />
    <glyph glyph-name="fivesixths" unicode="&#x215a;" 
d="M1073 1247q0 -49 -22 -93t-70.5 -84.5t-126 -66t-189 -37.5t-259.5 1l14 110q156 -11 259 -4.5t165 33.5t87 58t25 69q0 145 -436 209l105 422h534l-31 -103h-419l-60 -243q424 -72 424 -271zM158 643l20 98h983l-20 -98h-983zM496 -498q-138 0 -227 82t-89 236
q0 94 33 181.5t103 172t194.5 155.5t292.5 117l26 -100q-121 -30 -214.5 -74t-153 -95.5t-95 -103.5t-53.5 -110q70 55 147 81t143.5 19.5t121 -35t86 -83.5t31.5 -125q0 -141 -99 -229.5t-247 -88.5zM514 -401q99 0 158 57t59 147q0 65 -38.5 110t-98.5 60.5t-140.5 -5.5
t-156.5 -81q-2 -16 -2 -47q0 -124 62 -182.5t157 -58.5z" />
    <glyph glyph-name="oneeighth" unicode="&#x215b;" 
d="M1051 967h-660l21 102h286l113 580l-285 -21l15 90l293 37l26 139l119 11l-166 -836h262zM158 643l20 98h983l-20 -98h-983zM793 -262q0 -100 -97.5 -169t-246.5 -69q-130 0 -211.5 56t-81.5 145q0 70 58 138t220 163q-70 62 -108.5 113.5t-38.5 105.5q0 70 59.5 125
t177 80.5t291.5 -2.5l-39 -115q-140 34 -223.5 26.5t-118.5 -34.5t-35 -70q0 -38 34 -79t97 -95q142 76 342 172l39 -69q-181 -86 -313 -158q44 -37 72 -63t60 -61.5t47.5 -70.5t15.5 -69zM471 -403q92 0 150.5 38.5t58.5 94.5q0 25 -13 50.5t-45.5 58t-53 51t-70.5 59.5
q-133 -79 -179.5 -127.5t-46.5 -91.5q0 -62 56 -97.5t143 -35.5z" />
    <glyph glyph-name="threeeighths" unicode="&#x215c;" 
d="M1071 1217q0 -45 -20.5 -85t-67.5 -77.5t-124 -60t-190 -33t-266 5.5l17 110q128 -14 220.5 -11t153 13t96 31t50 43t14.5 49q0 133 -391 209l8 55l435 295h-451l20 103h580l-12 -103l-430 -293q358 -79 358 -251zM158 643l20 98h983l-20 -98h-983zM793 -262
q0 -100 -97.5 -169t-246.5 -69q-130 0 -211.5 56t-81.5 145q0 70 58 138t220 163q-70 62 -108.5 113.5t-38.5 105.5q0 70 59.5 125t177 80.5t291.5 -2.5l-39 -115q-140 34 -223.5 26.5t-118.5 -34.5t-35 -70q0 -38 34 -79t97 -95q142 76 342 172l39 -69q-181 -86 -313 -158
q44 -37 72 -63t60 -61.5t47.5 -70.5t15.5 -69zM471 -403q92 0 150.5 38.5t58.5 94.5q0 25 -13 50.5t-45.5 58t-53 51t-70.5 59.5q-133 -79 -179.5 -127.5t-46.5 -91.5q0 -62 56 -97.5t143 -35.5z" />
    <glyph glyph-name="fiveeighths" unicode="&#x215d;" 
d="M1073 1247q0 -49 -22 -93t-70.5 -84.5t-126 -66t-189 -37.5t-259.5 1l14 110q156 -11 259 -4.5t165 33.5t87 58t25 69q0 145 -436 209l105 422h534l-31 -103h-419l-60 -243q424 -72 424 -271zM158 643l20 98h983l-20 -98h-983zM793 -262q0 -100 -97.5 -169t-246.5 -69
q-130 0 -211.5 56t-81.5 145q0 70 58 138t220 163q-70 62 -108.5 113.5t-38.5 105.5q0 70 59.5 125t177 80.5t291.5 -2.5l-39 -115q-140 34 -223.5 26.5t-118.5 -34.5t-35 -70q0 -38 34 -79t97 -95q142 76 342 172l39 -69q-181 -86 -313 -158q44 -37 72 -63t60 -61.5
t47.5 -70.5t15.5 -69zM471 -403q92 0 150.5 38.5t58.5 94.5q0 25 -13 50.5t-45.5 58t-53 51t-70.5 59.5q-133 -79 -179.5 -127.5t-46.5 -91.5q0 -62 56 -97.5t143 -35.5z" />
    <glyph glyph-name="seveneighths" unicode="&#x215e;" 
d="M623 958l-129 15q259 439 563 782v6h-520l22 105h647l-20 -99q-314 -370 -563 -809zM158 643l20 98h983l-20 -98h-983zM793 -262q0 -100 -97.5 -169t-246.5 -69q-130 0 -211.5 56t-81.5 145q0 70 58 138t220 163q-70 62 -108.5 113.5t-38.5 105.5q0 70 59.5 125t177 80.5
t291.5 -2.5l-39 -115q-140 34 -223.5 26.5t-118.5 -34.5t-35 -70q0 -38 34 -79t97 -95q142 76 342 172l39 -69q-181 -86 -313 -158q44 -37 72 -63t60 -61.5t47.5 -70.5t15.5 -69zM471 -403q92 0 150.5 38.5t58.5 94.5q0 25 -13 50.5t-45.5 58t-53 51t-70.5 59.5
q-133 -79 -179.5 -127.5t-46.5 -91.5q0 -62 56 -97.5t143 -35.5z" />
    <glyph glyph-name="minus" unicode="&#x2212;" 
d="M1120 721l-26 -123h-891l24 123h893z" />
    <glyph glyph-name="approxequal" unicode="&#x2248;" 
d="M879 709q-50 0 -94.5 26.5t-77 64.5t-62.5 76t-63.5 64.5t-67.5 26.5q-50 0 -106 -64t-134 -190l-81 47q101 176 180 254t170 78q49 0 93 -27t76 -65t61 -76.5t61 -65.5t63 -27q51 0 104 60.5t132 185.5l81 -45q-102 -176 -175 -249.5t-160 -73.5zM786 233
q-50 0 -94.5 27t-77.5 65.5t-63 76.5t-63 65t-66 27q-49 0 -104.5 -63.5t-135.5 -190.5l-80 45q99 173 179.5 252t169.5 79q50 0 94 -27t76 -65t61 -76t61 -65t64 -27q50 0 104 62.5t129 185.5l82 -47q-103 -177 -175.5 -250.5t-160.5 -73.5z" />
    <glyph glyph-name="notequal" unicode="&#x2260;" 
d="M1049 352h-500l-187 -329l-104 36l166 293h-268l24 123h312l217 385h-455l22 121h500l187 330l106 -37l-166 -293h268l-24 -121h-311l-218 -385h455z" />
    <glyph glyph-name="lessequal" unicode="&#x2264;" 
d="M414 797l-4 -19l606 -370l-70 -107l-698 428l26 121l852 479l43 -112zM1010 166l-21 -123h-893l23 123h891z" />
    <glyph glyph-name="greaterequal" unicode="&#x2265;" 
d="M965 799l-586 428l76 104l667 -493l-22 -117l-860 -428l-35 117l756 372zM1010 166l-21 -123h-893l23 123h891z" />
    <glyph glyph-name="hcoslug" unicode="&#xe10b;" 
d="M1100 1434v-1639h-922v1639h922zM485 606q0 20 11 32.5t30 12.5q20 0 32.5 -16t12.5 -43q0 -34 -28 -76q-22 21 -31.5 31.5t-18 26t-8.5 32.5zM586 475q32 20 63 51q25 -28 23.5 -55.5t-25.5 -67.5q-40 51 -61 72zM506 285q-34 0 -57 24.5t-23 59.5q0 36 25 61
q54 -50 114 -127q-24 -18 -59 -18zM692 354q33 44 72 66q19 -39 65 -39q32 0 54 23.5t22 58.5q0 36 -21.5 58t-54.5 22q-53 0 -92 -58q-6 58 -75 58q14 20 14 51q0 44 -40 79.5t-106 35.5q-75 0 -121.5 -39.5t-46.5 -91.5q0 -33 11 -56.5t37 -50.5q-125 -41 -125 -139
q0 -61 48.5 -102.5t117.5 -41.5q95 0 159 70q38 -39 67.5 -54.5t63.5 -15.5q51 0 86.5 40t36.5 106l-10 2q-27 -45 -66 -45q-41 0 -96 63zM545 139l-19 -2v-14h-10v-10h10v-31q0 -21 19 -21q16 0 22 21l-8 2q-3 -10 -8 -10q-6 0 -6 8v31h20v10h-20v16zM373 94q0 -15 9.5 -24
t23.5 -9q13 0 22.5 9.5t9.5 23.5q0 13 -9 22t-23 9t-23.5 -9t-9.5 -22zM418 94q0 -24 -12 -24q-13 0 -13 24q0 23 13 23q12 0 12 -23zM688 92q0 -20 -10 -20q-12 0 -12 20q0 21 12 21q10 0 10 -21zM442 74v-11h33v11h-6v22q0 17 12 17q8 0 8 -13v-26h-6v-11h35v11h-10v28
q0 23 -19 23q-13 0 -20 -14v12h-27v-10h9v-39h-9zM297 74v-11h47v11h-14v24h6q6 0 7 -2t3 -10h10v35h-10q-6 -11 -10 -12h-6v28h16q9 0 12.5 -4t6.5 -16h10v30h-78v-10h12v-63h-12zM569 84v-21h11l2 7q9 -9 20 -9q21 0 21 19q0 13 -18.5 19.5t-18.5 9.5q0 6 8 6t16 -11h11
v21h-11l-2 -8q-5 8 -16 8q-10 0 -16.5 -6t-6.5 -13q0 -14 18.5 -19t18.5 -11t-8 -6t-18 14h-11zM647 141v-80h8l7 13q6 -13 22 -13q12 0 18.5 10.5t6.5 22.5q0 13 -7 22t-18 9q-14 0 -18 -14v41h-29v-11h10zM727 49q4 3 1.5 8.5t-9.5 5.5q-10 0 -10 -10q0 -14 18 -14
q17 0 27 24l20 50h8v10h-26v-10h8l-12 -31l-15 31h8v10h-36v-10h6q18 -38 24 -52q0 -12 -12 -12zM819 0h-28v-12h10q-5 -10 -10 -15q-3 3 -10 11t-9 10q16 10 16 20q0 8 -5.5 13.5t-14.5 5.5q-12 0 -19.5 -7.5t-7.5 -15.5q0 -9 11 -20q-21 -7 -21 -23q0 -20 25 -20
q16 0 26 10q10 -10 19 -10q14 0 18 18l-6 2q-3 -8 -6 -8q-2 0 -10 8q7 7 14 21h8v12zM557 8v8q0 17 8 17l6 -2q-2 -2 -2 -6q0 -9 11 -9v-8h-23zM827 -10q0 -43 43 -43q34 0 37 35h-12q-4 -25 -21 -25q-24 0 -24 35t20 35q15 0 23 -25h12v33h-12v-8q-10 10 -25 10
q-18 0 -29.5 -12.5t-11.5 -34.5zM768 -2q-10 10 -10 16q0 9 8 9q10 0 10 -11q0 -10 -8 -14zM629 -25h39q4 35 -29 35q-13 0 -22 -9t-9 -24q0 -14 9 -22t24 -8q23 0 27 22h-11q-3 -12 -14 -12q-14 0 -14 18zM485 -25h39q4 35 -28 35q-12 0 -21.5 -9t-9.5 -24q0 -14 9 -22
t24 -8q22 0 26 22h-10q-3 -12 -14 -12q-15 0 -15 18zM395 -20q0 -15 9.5 -24t23.5 -9t23.5 9.5t9.5 23.5q0 13 -9.5 21.5t-23.5 8.5t-23.5 -8.5t-9.5 -21.5zM911 -20q0 -15 9.5 -24t23.5 -9t23.5 9.5t9.5 23.5q0 13 -9.5 21.5t-23.5 8.5t-23.5 -8.5t-9.5 -21.5zM629 -16
q0 18 10 18t10 -18h-20zM485 -16q0 18 11 18q10 0 10 -18h-21zM440 -20q0 -25 -12 -25t-12 25q0 22 12 22t12 -22zM956 -20q0 -25 -12 -25t-12 25q0 22 12 22t12 -22zM530 -41v-10h35v10h-8v39h23v-39h-9v-10h35v10h-8v80l-16 -4q-8 4 -17 4q-10 0 -18 -7.5t-8 -21.5v-2h-11
v-10h11v-39h-9zM672 -41v-10h39v10h-13v25q4 14 11 14v-2q0 -8 10 -8t10 10q0 12 -12 12q-13 0 -19 -14v12h-26v-10h8v-39h-8zM297 -41v-10h43v10h-10v29h32v-29h-10v-10h43v10h-12v64h12v10h-43v-10h10v-25h-32v25h10v10h-43v-10h12v-64h-12zM776 -37q-6 -6 -12 -6
q-14 0 -14 14q0 9 6 15q5 -4 12 -13t8 -10zM1004 -41q0 12 -13 12q-12 0 -12 -12t12 -12q13 0 13 12z" />
    <glyph glyph-name="check.1" unicode="&#xe10c;" 
d="M1323 1450q-479 -698 -805 -1495h-127l-186 817l133 41l139 -670h8q286 747 699 1377z" />
    <glyph glyph-name="check.2" unicode="&#xe10d;" 
d="M713 -10l-160 510l-369 -502l-90 45l414 580l-160 477l139 39l123 -396l539 781l133 -72l-625 -840l197 -602z" />
    <glyph glyph-name="zero.alt" 
d="M160 498q0 181 49 352t132 300t202 207.5t250 78.5q179 0 283 -133.5t104 -387.5q0 -243 -82 -459t-229 -349.5t-322 -133.5q-179 0 -283 134.5t-104 390.5zM301 512q0 -203 71.5 -307.5t198.5 -104.5q132 0 241 117t167.5 298.5t58.5 381.5q0 203 -71 307.5t-199 104.5
q-131 0 -240 -117t-168 -299t-59 -381z" />
    <glyph glyph-name="colon.alt" 
d="M844 967h-215l47 235h215zM682 207h-215l47 235h217z" />
    <glyph glyph-name="guillemotleft.cap" 
d="M463 129l-301 504l35 151l489 504l94 -90l-504 -498l308 -493zM989 129l-295 508l37 151l492 498l94 -92l-508 -492l301 -499z" />
    <glyph glyph-name="guillemotright.cap" 
d="M700 127l-94 92l500 496l-305 495l121 76l301 -504l-35 -151zM162 131l-92 92l508 490l-304 499l121 74l297 -508l-37 -151z" />
    <glyph glyph-name="guilsinglleft.cap" 
d="M766 117l-440 520l39 151l643 506l82 -110l-635 -484l417 -485z" />
    <glyph glyph-name="guilsinglright.cap" 
d="M317 121l-81 108l634 484l-417 487l106 98l440 -522l-38 -151z" />
    <glyph glyph-name="parenleft.cap" 
d="M1171 1735l78 -105q-290 -183 -467.5 -357t-252 -334t-74.5 -337q0 -197 109 -409t345 -457l-110 -84q-252 270 -368 502.5t-116 447.5q0 287 202.5 560t653.5 573z" />
    <glyph glyph-name="parenright.cap" 
d="M139 -373l-78 103q290 183 468 357.5t252.5 334.5t74.5 336q0 198 -109 409t-346 457l113 84q250 -267 365.5 -500t115.5 -448q0 -289 -202.5 -561t-653.5 -572z" />
    <glyph glyph-name="bracketleft.cap" 
d="M184 -295l385 1978h699l-27 -118h-555l-338 -1741h557l-24 -119h-697z" />
    <glyph glyph-name="bracketright.cap" 
d="M1137 1686l-387 -1979h-697l25 119h557l338 1743h-557l22 117h699z" />
    <glyph glyph-name="braceleft.cap" 
d="M877 -356q-314 139 -445 237.5t-131 204.5q0 55 28 105t68.5 88t81 72.5t68.5 71t28 71.5q0 126 -317 159l21 107q109 6 187.5 22.5t120.5 40.5t60.5 50t18.5 57q0 32 -24 77.5t-53 85.5t-53 95t-24 102q0 279 750 457l24 -127q-337 -68 -489 -143t-152 -166
q0 -35 24 -84.5t53 -91.5t53 -92.5t24 -88.5q0 -74 -73 -142.5t-220 -102.5q209 -61 209 -191q0 -46 -28 -90t-67.5 -79.5t-79.5 -71t-68 -77.5t-28 -85q0 -82 115 -163t381 -194z" />
    <glyph glyph-name="braceright.cap" 
d="M59 -354l-26 127q337 68 489 143t152 166q0 35 -24 84.5t-53 91t-53 92t-24 88.5q0 75 73.5 144.5t219.5 103.5q-209 58 -209 188q0 46 28 90t67.5 80.5t79 72t67.5 77.5t28 84q0 81 -114 161.5t-381 196.5l63 113q315 -139 446.5 -238t131.5 -204q0 -55 -28.5 -105
t-69 -88t-81.5 -72.5t-69.5 -71t-28.5 -71.5q0 -127 318 -160l-21 -104q-387 -23 -387 -172q0 -32 24 -77.5t53 -86t53 -95.5t24 -102q0 -278 -748 -456z" />
    <glyph glyph-name="registered.alt" 
d="M115 578q0 179 49.5 333t133 258.5t195.5 164t236 59.5q205 0 335 -151.5t130 -407.5q0 -182 -49 -337t-132.5 -259.5t-196 -163t-238.5 -58.5q-204 0 -333.5 151.5t-129.5 410.5zM209 596q0 -227 108 -360.5t275 -133.5q105 0 198.5 53t161.5 146t108 226.5t40 287.5
q0 225 -109 358.5t-278 133.5q-102 0 -194.5 -54t-160.5 -147t-108.5 -226.5t-40.5 -283.5zM764 332l-184 352q125 58 181 107t56 110q0 55 -51.5 82.5t-147.5 20.5l-129 -668h-102l145 749q195 28 291.5 -19.5t96.5 -143.5q0 -80 -54 -141.5t-161 -118.5l174 -318z" />
    <glyph glyph-name="asterisk.alt" 
d="M803 1251l-70 17l47 307l140 -39zM633 1247l-51 -55l-242 192l102 103zM897 1104l-23 74l287 110l39 -137zM553 1094l20 -74l-286 -111l-39 138zM817 950l51 56l240 -193l-100 -102zM645 944l70 -16l-43 -305l-140 36z" />
    <glyph glyph-name="bullet.alt" 
d="M842 446h-449l92 457h447z" />
    <glyph glyph-name="R_p" 
d="M471 -12l-121 641v6q148 145 213.5 259.5t65.5 227.5q0 93 -44 137t-136 41l-259 -1300h-124l272 1409q213 30 316.5 -39t103.5 -221q0 -135 -69 -256.5t-216 -267.5l129 -613zM893 109q62 0 125 122t101 294t38 319q0 160 -70 160q-51 0 -131 -80q-64 -345 -151 -793
q58 -22 88 -22zM705 -387l-127 -12q221 1132 282 1499l121 8l-14 -94q109 116 190 116q125 0 125 -256q0 -152 -32.5 -309.5t-87.5 -285.5t-135 -209.5t-167 -81.5q-36 0 -80 12q-28 -140 -75 -387z" />
    <glyph glyph-name="f.lig" 
d="M922 20q0 -156 -118 -259t-274 -103q-148 0 -241.5 120.5t-93.5 366.5q0 217 69 453l-74 37l19 84h94q62 175 151.5 334t193 281.5t221 195t227.5 72.5q71 0 119.5 -29t65.5 -82.5t5.5 -122.5t-64.5 -155.5t-141 -174.5l-59 37q94 106 125.5 195t2 136.5t-102.5 47.5
q-106 0 -223 -102.5t-216 -268t-168 -364.5l690 -2l-20 -119l-618 8q217 -152 323.5 -302t106.5 -284zM582 -223q98 0 165.5 61t67.5 164q0 125 -103.5 265.5t-320.5 287.5q-55 -212 -55 -397q0 -105 19.5 -181t54 -118.5t77.5 -62t95 -19.5z" />
    <glyph glyph-name="l.ultra" 
d="M1036 147q-344 -209 -542.5 -147.5t-198.5 387.5q0 178 43.5 360.5t116.5 333t163 270t190.5 186.5t190.5 67q98 0 151.5 -60t53.5 -168q0 -102 -43 -217.5t-131.5 -246t-237.5 -277.5t-348 -295q13 -137 81.5 -191t185.5 -33.5t293 111.5zM952 1460q-77 0 -166.5 -86.5
t-164.5 -224.5t-126 -328t-55 -379q168 132 292.5 261.5t195.5 240t105 203.5t34 172q0 68 -31 104.5t-84 36.5z" />
    <glyph glyph-name="fraction.afrc" 
d="M158 643l20 98h983l-20 -98h-983z" />
    <glyph glyph-name="zero.num" 
d="M426 1296q0 153 57.5 288t160 217.5t224.5 82.5q133 0 211 -93t78 -261q0 -153 -58 -287.5t-161 -216.5t-225 -82q-132 0 -209.5 92.5t-77.5 259.5zM1038 1520q0 126 -49.5 194t-138.5 68q-88 0 -159 -69t-108.5 -176.5t-37.5 -227.5q0 -127 49 -194.5t137 -67.5
t159.5 68.5t109.5 176t38 228.5z" />
    <glyph glyph-name="one.num" 
d="M1051 967h-660l21 102h286l113 580l-285 -21l15 90l293 37l26 139l119 11l-166 -836h262z" />
    <glyph glyph-name="two.num" 
d="M1022 967h-635l-2 96q129 79 210 132t163.5 113.5t127.5 107t73 96.5t28 98q0 202 -440 139l16 109q270 40 410.5 -20.5t140.5 -201.5q0 -71 -34.5 -137.5t-111 -137t-168 -135.5t-235.5 -155h479z" />
    <glyph glyph-name="three.num" 
d="M1071 1217q0 -45 -20.5 -85t-67.5 -77.5t-124 -60t-190 -33t-266 5.5l17 110q128 -14 220.5 -11t153 13t96 31t50 43t14.5 49q0 133 -391 209l8 55l435 295h-451l20 103h580l-12 -103l-430 -293q358 -79 358 -251z" />
    <glyph glyph-name="four.num" 
d="M1102 1159h-115l-37 -192h-110l37 192h-467l8 80q98 160 163.5 301t127.5 334l127 -6q-65 -198 -134 -334.5t-165 -273.5h360l59 305l113 10l-61 -315h125z" />
    <glyph glyph-name="five.num" 
d="M1073 1247q0 -49 -22 -93t-70.5 -84.5t-126 -66t-189 -37.5t-259.5 1l14 110q156 -11 259 -4.5t165 33.5t87 58t25 69q0 145 -436 209l105 422h534l-31 -103h-419l-60 -243q424 -72 424 -271z" />
    <glyph glyph-name="six.num" 
d="M754 946q-138 0 -227 82t-89 236q0 94 33 181.5t103 172t194.5 155.5t292.5 117l26 -100q-121 -30 -214.5 -74t-153 -95.5t-95 -103.5t-53.5 -110q70 55 147 81t143.5 19.5t121 -35t86 -83.5t31.5 -125q0 -141 -99 -229.5t-247 -88.5zM772 1042q99 0 158 57.5t59 147.5
q0 65 -38.5 110t-98.5 60.5t-140.5 -5.5t-156.5 -81q-2 -16 -2 -47q0 -124 62 -183t157 -59z" />
    <glyph glyph-name="seven.num" 
d="M623 958l-129 15q259 439 563 782v6h-520l22 105h647l-20 -99q-314 -370 -563 -809z" />
    <glyph glyph-name="eight.num" 
d="M1051 1182q0 -100 -97.5 -169t-246.5 -69q-130 0 -211.5 56t-81.5 145q0 70 58 138t220 163q-70 62 -108.5 113.5t-38.5 105.5q0 70 59.5 125t177 80.5t291.5 -2.5l-39 -115q-140 34 -223.5 26.5t-118.5 -34.5t-35 -70q0 -38 34 -79t97 -95q142 76 342 172l39 -69
q-181 -86 -313 -158q44 -37 72 -63t60 -61.5t47.5 -70.5t15.5 -69zM729 1040q92 0 150.5 38.5t58.5 95.5q0 25 -13 50.5t-45.5 58t-53 51t-70.5 59.5q-133 -79 -179.5 -127.5t-46.5 -91.5q0 -62 56 -98t143 -36z" />
    <glyph glyph-name="nine.num" 
d="M518 942l-26 102q232 57 355 157.5t161 223.5q-70 -55 -147 -80.5t-143.5 -19t-121 35.5t-86 84t-31.5 126q0 139 99 227t247 88q138 0 227 -81.5t89 -235.5q0 -74 -19.5 -144.5t-66 -142.5t-117 -133t-178 -115.5t-242.5 -91.5zM590 1587q0 -66 38.5 -111.5t98.5 -61
t140.5 5.5t156.5 81q2 16 2 49q0 122 -62 181t-157 59q-99 0 -158 -57.5t-59 -145.5z" />
    <glyph glyph-name="zero.den" 
d="M168 -147q0 153 57.5 288t160 217t224.5 82q133 0 211 -93t78 -261q0 -153 -58 -287.5t-161 -216.5t-225 -82q-132 0 -209.5 93t-77.5 260zM780 76q0 126 -49.5 194t-138.5 68q-88 0 -159 -69t-108.5 -176.5t-37.5 -227.5q0 -127 49 -194.5t137 -67.5t159.5 68.5
t109.5 176t38 228.5z" />
    <glyph glyph-name="one.den" 
d="M793 -477h-660l21 102h286l113 580l-285 -21l15 90l292 37l27 140l119 10l-166 -836h262z" />
    <glyph glyph-name="two.den" 
d="M764 -477h-635l-2 96q129 79 210 132t163.5 113.5t127.5 107t73 96.5t28 98q0 202 -440 139l16 109q270 40 410.5 -20.5t140.5 -200.5q0 -71 -34.5 -137.5t-111 -137.5t-168 -136t-235.5 -155h479z" />
    <glyph glyph-name="three.den" 
d="M813 -227q0 -45 -20.5 -85t-67.5 -77.5t-124 -60t-190 -33t-266 5.5l17 110q128 -14 220.5 -11t153 13t96 31t50 43t14.5 49q0 133 -391 209l8 56l435 294h-451l20 103h580l-12 -103l-430 -292q358 -79 358 -252z" />
    <glyph glyph-name="four.den" 
d="M844 -285h-115l-37 -192h-110l36 192h-466l8 80q98 160 163.5 301t127.5 334l127 -6q-65 -198 -134 -334.5t-165 -273.5h360l59 305l113 10l-61 -315h124z" />
    <glyph glyph-name="five.den" 
d="M815 -197q0 -49 -22 -93t-71 -84.5t-126.5 -66t-189 -37.5t-259.5 1l15 110q156 -11 259 -4.5t165 33.5t87 58t25 69q0 145 -436 209l105 422h534l-31 -103h-419l-60 -243q424 -72 424 -271z" />
    <glyph glyph-name="six.den" 
d="M496 -498q-138 0 -227 82t-89 236q0 94 33 181.5t103 172t194.5 155.5t292.5 117l26 -100q-121 -30 -214.5 -74t-153 -95.5t-95 -103.5t-53.5 -110q70 55 147 81t143.5 19.5t121 -35t86 -83.5t31.5 -125q0 -141 -99 -229.5t-247 -88.5zM514 -401q99 0 158 57t59 147
q0 65 -38.5 110t-98.5 60.5t-140.5 -5.5t-156.5 -81q-2 -16 -2 -47q0 -124 62 -182.5t157 -58.5z" />
    <glyph glyph-name="seven.den" 
d="M365 -485l-129 14q259 439 563 782v6h-520l22 105h647l-20 -98q-314 -370 -563 -809z" />
    <glyph glyph-name="eight.den" 
d="M793 -262q0 -100 -97.5 -169t-246.5 -69q-130 0 -211.5 56t-81.5 145q0 70 58 138t220 163q-70 62 -108.5 113.5t-38.5 105.5q0 70 59.5 125t177 80.5t291.5 -2.5l-39 -115q-140 34 -223.5 26.5t-118.5 -34.5t-35 -70q0 -38 34 -79t97 -95q142 76 342 172l39 -69
q-181 -86 -313 -158q44 -37 72 -63t60 -61.5t47.5 -70.5t15.5 -69zM471 -403q92 0 150.5 38.5t58.5 94.5q0 25 -13 50.5t-45.5 58t-53 51t-70.5 59.5q-133 -79 -179.5 -127.5t-46.5 -91.5q0 -62 56 -97.5t143 -35.5z" />
    <glyph glyph-name="nine.den" 
d="M260 -502l-27 103q232 57 355.5 157.5t161.5 223.5q-70 -55 -147 -80.5t-143.5 -19t-121 35t-86 83.5t-31.5 126q0 139 99 227t247 88q138 0 227 -81.5t89 -235.5q0 -74 -19.5 -144.5t-66 -142.5t-117 -133t-178 -115.5t-242.5 -91.5zM332 143q0 -66 38.5 -111.5
t98.5 -61t140.5 5.5t156.5 81q2 16 2 49q0 122 -62 181t-157 59q-99 0 -158 -57.5t-59 -145.5z" />
    <glyph glyph-name="zero.small" 
d="M250 330q0 153 57.5 288t160 217.5t224.5 82.5q132 0 210.5 -93.5t78.5 -261.5q0 -153 -58 -287.5t-161 -216.5t-225 -82q-132 0 -209.5 93t-77.5 260zM862 553q0 126 -49.5 194t-138.5 68q-88 0 -159 -69t-108.5 -176.5t-37.5 -227.5q0 -127 49 -194.5t137 -67.5
t159.5 68.5t109.5 176t38 228.5z" />
    <glyph glyph-name="one.small" 
d="M874 0h-659l21 102h286l113 580l-285 -20l15 90l292 36l27 140l119 10l-166 -836h262z" />
    <glyph glyph-name="two.small" 
d="M846 0h-635l-2 96q129 79 210 132t163.5 113.5t127.5 107t73 96.5t28 98q0 202 -440 139l16 109q270 40 410.5 -20.5t140.5 -200.5q0 -71 -34.5 -137.5t-111 -137.5t-168 -136t-235.5 -155h479z" />
    <glyph glyph-name="three.small" 
d="M895 250q0 -45 -20.5 -85t-67.5 -77.5t-124 -60t-190 -33t-266 5.5l17 111q128 -14 220.5 -11t153 13t96 31t50 43t14.5 49q0 132 -391 208l8 56l434 295h-450l20 102h580l-12 -102l-430 -293q358 -79 358 -252z" />
    <glyph glyph-name="four.small" 
d="M926 193h-115l-37 -193h-110l36 193h-467l9 79q97 159 162.5 300t127.5 335l127 -6q-65 -198 -134 -334.5t-165 -273.5h361l59 305l113 10l-62 -315h125z" />
    <glyph glyph-name="five.small" 
d="M897 281q0 -49 -22 -93t-71 -84.5t-126.5 -66.5t-189 -38t-259.5 1l15 111q156 -11 259 -4.5t165 33t87 57.5t25 69q0 145 -436 209l105 422h534l-31 -102h-420l-59 -244q424 -72 424 -270z" />
    <glyph glyph-name="six.small" 
d="M578 -20q-138 0 -227 81.5t-89 235.5q0 74 19.5 144.5t66 142.5t117 133t178 115.5t242.5 91.5l26 -101q-121 -30 -214.5 -74t-153 -95.5t-95 -103.5t-53.5 -110q70 55 147 81t143.5 19.5t121 -35t86 -83.5t31.5 -125q0 -141 -99 -229t-247 -88zM596 76q99 0 158 57.5
t59 147.5q0 65 -38.5 110t-98.5 60.5t-140.5 -5.5t-156.5 -81q-2 -16 -2 -48q0 -124 62 -182.5t157 -58.5z" />
    <glyph glyph-name="seven.small" 
d="M446 -8l-129 14q257 435 564 782v7h-521l23 104h647l-20 -98q-317 -373 -564 -809z" />
    <glyph glyph-name="eight.small" 
d="M874 215q0 -100 -97.5 -169t-246.5 -69q-130 0 -211 56t-81 145q0 70 58 138t220 163q-70 62 -108.5 113.5t-38.5 105.5q0 70 59.5 125t177 80.5t291.5 -2.5l-39 -115q-140 34 -223.5 26.5t-118.5 -34t-35 -69.5q0 -38 34 -79t97 -95q142 76 342 172l39 -70
q-181 -86 -313 -158q44 -37 72 -63t59.5 -61.5t47 -70.5t15.5 -69zM553 74q92 0 150.5 38.5t58.5 94.5q0 25 -13 50.5t-45.5 58t-53 51t-70.5 59.5q-133 -79 -179.5 -127.5t-46.5 -91.5q0 -62 56 -97.5t143 -35.5z" />
    <glyph glyph-name="nine.small" 
d="M342 -25l-27 103q232 57 355 157.5t161 223.5q-70 -55 -146.5 -80.5t-143.5 -19t-121 35t-85.5 83.5t-31.5 126q0 139 99 227.5t247 88.5q138 0 227 -82t89 -236q0 -74 -19.5 -144.5t-66 -142.5t-117 -133t-178 -115.5t-242.5 -91.5zM414 621q0 -66 38.5 -111.5t98.5 -61
t140.5 5.5t156.5 81q2 16 2 49q0 122 -62 180.5t-157 58.5q-99 0 -158 -57t-59 -145z" />
    <glyph glyph-name="caron.alt" 
d="M655 1815l174 8q-7 -306 -235 -572l-64 31q92 142 114 261.5t11 271.5z" />
    <glyph glyph-name="commaaccent.rot" 
d="M811 1700q-54 -77 -80 -152.5t-25 -139.5t13 -132l-191 -6q0 114 56.5 233t169.5 228z" />
    <glyph glyph-name="acute.cap" 
d="M395 1331q111 71 248.5 181.5t230.5 203.5l107 -117q-187 -151 -551 -333z" />
    <glyph glyph-name="hungarumlaut.cap" 
d="M375 1268l-64 51q79 88 168.5 212.5t147.5 223.5l145 -78q-72 -91 -184 -206t-213 -203zM848 1268l-66 51q79 86 165 205.5t147 222.5l147 -72q-70 -92 -180.5 -206t-212.5 -201z" />
    <glyph glyph-name="grave.cap" 
d="M866 1313l-41 -62q-106 64 -241 169.5t-224 195.5l109 115q78 -101 192 -222t205 -196z" />
    <glyph glyph-name="circumflex.cap" 
d="M918 1268l-236 274l-367 -264l-65 78l457 334h6l305 -342z" />
    <glyph glyph-name="caron.cap" 
d="M618 1262h-6l-307 342l101 79l235 -274l365 264l69 -78z" />
    <glyph glyph-name="breve.cap" 
d="M991 1663l84 -55q-247 -324 -469 -324q-113 0 -199.5 81.5t-150.5 250.5l113 55q60 -145 121 -206.5t147 -61.5t167 63t187 197z" />
    <glyph glyph-name="tilde.cap" 
d="M811 1403q47 0 99 60t126 179l78 -43q-89 -153 -169.5 -231t-162.5 -78q-43 0 -79.5 25.5t-63 61.5t-50.5 72t-51.5 61.5t-56.5 25.5q-48 0 -101.5 -58t-123.5 -171l-76 45q174 297 332 297q43 0 79.5 -25.5t62.5 -61.5t49.5 -72t51 -61.5t56.5 -25.5z" />
    <glyph glyph-name="macron.cap" 
d="M1018 1509l-25 -123h-733l25 123h733z" />
    <glyph glyph-name="dieresis.cap" 
d="M938 1298l-145 -4l71 299l164 4zM457 1292l-148 -2l74 297l162 4z" />
    <glyph glyph-name="dotaccent.cap" 
d="M678 1294l-148 -2l72 297l166 4z" />
    <glyph glyph-name="ring.cap" 
d="M829 1714q124 0 203.5 -63.5t79.5 -159.5q0 -107 -89 -179.5t-224 -72.5q-123 0 -202 63.5t-79 159.5q0 105 88.5 178.5t222.5 73.5zM819 1620q-81 0 -134.5 -42.5t-53.5 -104.5q0 -61 50.5 -101.5t129.5 -40.5q82 0 136 44t54 106q0 59 -51.5 99t-130.5 40z" />
    <glyph glyph-name="caron.alt.cap" 
d="M655 1815l174 8q-7 -306 -235 -572l-64 31q92 142 114 261.5t11 271.5z" />
    <glyph glyph-name="cedilla.cap" 
d="M330 -330l-80 27q138 330 325 330q118 0 186.5 -106t55.5 -312l-131 -4q10 160 -25 236.5t-102 76.5q-59 0 -115 -63t-114 -185z" />
    <glyph glyph-name="commaaccent.cap" 
d="M446 -588q54 77 80.5 152.5t25.5 139.5t-13 132l190 6q0 -114 -56 -232.5t-169 -227.5z" />
    <glyph glyph-name="ogonek.cap" 
d="M874 63l48 -61q-218 -77 -322 -150t-104 -137q0 -23 11.5 -40.5t38 -27.5t65 -10t96 13.5t127.5 40.5l20 -70q-93 -48 -174.5 -71.5t-139 -21t-99 21.5t-61.5 51t-20 73q0 94 125 193.5t389 195.5z" />
    <glyph glyph-name="underscore.alt" 
d="M1176 -115l-23 -114h-1294l22 114h1295z" />
    </font>
</defs>
</svg>
