<?xml version="1.0" standalone="no"?>
<!DOCTYPE svg PUBLIC "-//W3C//DTD SVG 1.1//EN" "http://www.w3.org/Graphics/SVG/1.1/DTD/svg11.dtd" >
<svg xmlns="http://www.w3.org/2000/svg" xmlns:xlink="http://www.w3.org/1999/xlink" version="1.1">
<metadata>
Created by FontForge 20170731 at Sat May 29 02:10:48 2021
 By Aleksey,,,
</metadata>
<defs>
<font id="OperatorMonoLig-Light" horiz-adv-x="1126" >
  <font-face 
    font-family="Operator Mono Lig"
    font-weight="300"
    font-stretch="normal"
    units-per-em="2048"
    panose-1="2 0 0 9 0 0 0 0 0 0"
    ascent="1638"
    descent="-410"
    x-height="991"
    cap-height="1270"
    bbox="-3195 -582 1247.48 2335"
    underline-thickness="100"
    underline-position="-302"
    unicode-range="U+0021-E10D"
  />
<missing-glyph 
d="M10 -410v2048h1106v-2048h-1106zM168 1536l395 -799l395 799h-790zM1006 1384l-381 -770l381 -770v1540zM121 -156l381 770l-381 770v-1540zM563 492l-395 -799h790z" />
    <glyph glyph-name=".notdef" 
d="M10 -410v2048h1106v-2048h-1106zM168 1536l395 -799l395 799h-790zM1006 1384l-381 -770l381 -770v1540zM121 -156l381 770l-381 770v-1540zM563 492l-395 -799h790z" />
    <glyph glyph-name=".notdef" 
d="M10 -410v2048h1106v-2048h-1106zM168 1536l395 -799l395 799h-790zM1006 1384l-381 -770l381 -770v1540zM121 -156l381 770l-381 770v-1540zM563 492l-395 -799h790z" />
    <glyph glyph-name=".null" horiz-adv-x="0" 
 />
    <glyph glyph-name="nonmarkingreturn" horiz-adv-x="682" 
 />
    <glyph glyph-name="glyph3" 
d="M10 -410v2048h1106v-2048h-1106zM168 1536l395 -799l395 799h-790zM1006 1384l-381 -770l381 -770v1540zM121 -156l381 770l-381 770v-1540zM563 492l-395 -799h790z" />
    <glyph glyph-name="NUL" horiz-adv-x="0" 
 />
    <glyph glyph-name="A" unicode="A" 
d="M911 -6q-59 212 -120 420h-461q-58 -206 -117 -414h-125q187 657 385 1274h180q198 -615 385 -1268zM553 1161q-132 -434 -195 -649h404q-106 363 -195 649h-14z" />
    <glyph glyph-name="B" unicode="B" 
d="M1004 352q1 -93 -38.5 -164t-111 -114.5t-171.5 -67.5t-220 -23.5t-256 17.5v1270q234 26 401.5 9t260 -92.5t92.5 -207.5q0 -126 -73.5 -206t-197.5 -114q146 -23 229.5 -98.5t84.5 -208.5zM334 1171v-483q271 -6 387.5 57t116.5 205q0 97 -63.5 153.5t-175.5 70
t-265 -2.5zM334 100q543 -71 543 244q0 152 -128.5 203.5t-414.5 40.5v-488z" />
    <glyph glyph-name="C" unicode="C" 
d="M975 104l-12 -110q-158 -10 -284 5.5t-215 54t-152.5 93t-100.5 129.5t-53.5 156.5t-16.5 179.5q0 108 25 201t84.5 177.5t151 146t232 101t320.5 46.5l9 -123q-121 -3 -219 -18.5t-169.5 -40.5t-124.5 -62t-87 -79t-54.5 -96.5t-28.5 -110t-8 -123.5q0 -109 19.5 -191
t67.5 -151t127 -110.5t201.5 -61.5t287.5 -13z" />
    <glyph glyph-name="D" unicode="D" 
d="M1016 662q0 -380 -213.5 -554t-614.5 -110v1274q178 28 314.5 16.5t233.5 -54t159.5 -123.5t91.5 -191t29 -258zM887 637q0 313 -136 441.5t-438 90.5v-1067q286 -42 430 96t144 439z" />
    <glyph glyph-name="E" unicode="E" 
d="M989 111l-12 -111h-752v1270h756v-111h-627v-467h547v-98h-547v-483h635z" />
    <glyph glyph-name="F" unicode="F" 
d="M920 571h-551v-571h-127v1270h764v-111h-637v-487h551v-101z" />
    <glyph glyph-name="G" unicode="G" 
d="M965 12q-151 -30 -272 -30.5t-215.5 30.5t-162.5 84t-112 131t-65 171t-21 204q0 112 24 206.5t81.5 181t147.5 148t229.5 100.5t318.5 46l8 -123q-165 -3 -287 -31.5t-196.5 -74.5t-119.5 -115.5t-61 -143t-16 -169.5q0 -139 30 -240.5t98 -175t186 -103.5t286 -14
q-2 167 -6 543h123q0 -543 2 -625z" />
    <glyph glyph-name="H" unicode="H" 
d="M821 0v594h-516v-594h-129v1270h129v-576h516v576h129v-1270h-129z" />
    <glyph glyph-name="I" unicode="I" 
d="M625 1167v-1065h338l-11 -102h-782v102h328v1065h-328v103h782v-103h-327z" />
    <glyph glyph-name="J" unicode="J" 
d="M270 1270h580v-871q0 -92 -20.5 -159.5t-67 -120.5t-122.5 -84.5t-187.5 -46.5t-262.5 -11v119q75 -5 137.5 -3t112.5 4t89 12t68.5 21t51 31t35.5 41.5t22 53t11.5 66t3.5 79.5v764h-451v105z" />
    <glyph glyph-name="K" unicode="K" 
d="M909 -10l-432 600h-145v-590h-127v1270h127v-578h151l400 578h137l-434 -623l463 -639z" />
    <glyph glyph-name="L" unicode="L" 
d="M1006 0h-760v1270h127v-1159h645z" />
    <glyph glyph-name="M" unicode="M" 
d="M813 1270h166v-1270h-123l4 1075h-8l-236 -874h-106l-242 874h-8l4 -1075h-119v1270h168q209 -760 248 -905h8z" />
    <glyph glyph-name="N" unicode="N" 
d="M817 0l-514 1077h-10l4 -1077h-121v1270h152l497 -1053h9l-5 1053h121v-1270h-133z" />
    <glyph glyph-name="O" unicode="O" 
d="M545 -31q-210 0 -327.5 168t-117.5 475q0 327 130 507.5t354 180.5q210 0 325.5 -167.5t116.5 -475.5q1 -326 -128 -507t-353 -181zM559 1192q-160 0 -245 -142.5t-85 -410.5q0 -274 86 -417.5t252 -143.5q159 0 244.5 142.5t85.5 410.5q0 273 -87 417t-251 144z" />
    <glyph glyph-name="P" unicode="P" 
d="M344 0h-127v1266q385 62 592 -42.5t207 -338.5q0 -216 -177 -327.5t-495 -127.5v-430zM889 862q0 177 -138 259.5t-407 43.5v-616q268 -15 406.5 59.5t138.5 253.5z" />
    <glyph glyph-name="Q" unicode="Q" 
d="M920 -262l-451 166l25 67q-187 20 -290.5 186.5t-103.5 454.5q0 327 130 507.5t354 180.5q210 0 325.5 -167.5t116.5 -475.5q1 -297 -106.5 -474.5t-298.5 -207.5v-2l337 -129zM559 1192q-160 0 -245 -142.5t-85 -410.5q0 -274 86 -417.5t252 -143.5q159 0 244.5 142.5
t85.5 410.5q0 273 -87 417t-251 144z" />
    <glyph glyph-name="R" unicode="R" 
d="M907 -20l-276 509l-299 -8v-481h-127v1266q166 29 291.5 24.5t213 -29.5t142 -75t79.5 -113t25 -143q0 -223 -221 -379l307 -547zM332 1167v-587l315 6q182 124 182 319q0 155 -122.5 228t-374.5 34z" />
    <glyph glyph-name="S" unicode="S" 
d="M182 111q182 -14 308 -3.5t205 44.5t114 77t35 95q0 51 -36.5 98t-94.5 85t-128.5 76t-141 77.5t-128.5 82t-94.5 97t-36.5 114.5q0 55 23.5 104.5t77.5 94.5t134.5 75.5t202.5 44.5t273 5l8 -119q-590 37 -590 -182q0 -48 36.5 -93.5t94.5 -83t128.5 -76t141 -79
t128.5 -84t94.5 -99.5t36.5 -118q0 -58 -27 -112.5t-88.5 -104t-151 -83.5t-225.5 -50t-301 -6z" />
    <glyph glyph-name="T" unicode="T" 
d="M629 1159v-1159h-129v1159h-414l10 111h942v-111h-409z" />
    <glyph glyph-name="U" unicode="U" 
d="M553 -31q-182 0 -283.5 111.5t-101.5 320.5v869h127v-854q0 -168 71 -251t201 -83q133 0 197.5 73.5t64.5 231.5v883h129v-867q0 -208 -106.5 -321t-298.5 -113z" />
    <glyph glyph-name="V" unicode="V" 
d="M657 -4h-186q-211 664 -379 1268l129 12q144 -538 336 -1163h18q182 592 336 1157h123q-167 -604 -377 -1274z" />
    <glyph glyph-name="W" unicode="W" 
d="M760 0l-197 713l-192 -713h-150q-60 468 -100 1270h127q10 -244 33 -614t36 -500h9q44 157 112.5 417t85.5 324h84q52 -197 203 -741h6q13 123 36 490.5t34 623.5h121q-38 -765 -103 -1270h-145z" />
    <glyph glyph-name="X" unicode="X" 
d="M895 -6l-334 551l-328 -545h-135l389 633l-389 631l138 12l337 -553l324 547h137l-389 -635l387 -629z" />
    <glyph glyph-name="Y" unicode="Y" 
d="M629 0h-129v422l-414 846l137 4l346 -725l340 723h133l-413 -844v-426z" />
    <glyph glyph-name="Z" unicode="Z" 
d="M979 0h-836v111l703 1048l-692 -4l10 115h815v-111l-698 -1048l708 4z" />
    <glyph glyph-name="a" unicode="a" 
d="M500 78q84 0 168 34.5t151 90.5q-4 140 -4 260q-545 56 -545 -203q0 -86 62.5 -134t167.5 -48zM838 -4q-1 16 -6.5 65.5t-6.5 65.5q-164 -152 -370 -152q-137 0 -222.5 69t-85.5 187q0 80 41 145t121.5 110.5t209.5 65t294 7.5q-5 97 -34.5 158t-102.5 100.5t-181.5 57
t-285.5 24.5l14 111q214 -8 347.5 -35.5t218 -89t117 -154t32.5 -237.5q0 -202 12 -492z" />
    <glyph glyph-name="b" unicode="b" 
d="M485 -23q-151 0 -284 50v1403l125 10v-541q142 115 301 115q164 0 270.5 -130t106.5 -345q0 -127 -43.5 -234t-115.5 -178t-165.5 -110.5t-194.5 -39.5zM528 86q155 0 254 112t99 310q0 189 -83 295t-216 106q-137 0 -256 -94v-692q107 -37 202 -37z" />
    <glyph glyph-name="c" unicode="c" 
d="M174 481q0 84 23.5 156.5t79 139.5t140.5 115.5t215.5 79.5t295.5 36l8 -119q-153 -2 -266 -22.5t-184 -54t-114 -83.5t-59 -105t-16 -126q0 -105 30.5 -179t103.5 -128.5t202.5 -77.5t318.5 -15l-16 -106q-173 -10 -306 9.5t-218.5 61t-139.5 107t-76 141.5t-22 170z
" />
    <glyph glyph-name="d" unicode="d" 
d="M549 82q129 0 254 98q-6 285 -6 697q-92 30 -179 30q-161 0 -265.5 -113.5t-104.5 -314.5q0 -191 82.5 -294t218.5 -103zM817 -4l-8 106q-138 -127 -305 -127q-166 0 -273.5 128t-107.5 343q0 132 45 241t121.5 179.5t176 109t210.5 38.5q56 0 121 -10v426l125 10v-457
q0 -658 14 -979z" />
    <glyph glyph-name="e" unicode="e" 
d="M922 -23q-224 4 -376.5 37.5t-240 99.5t-124 154.5t-36.5 214.5q0 148 61.5 270.5t167.5 192.5t232 70q197 0 296 -148t71 -387l-705 -16q6 -133 67 -210.5t205.5 -119.5t397.5 -49zM582 911q-137 0 -221 -96.5t-93 -267.5l590 16q3 160 -68 254t-208 94z" />
    <glyph glyph-name="f" unicode="f" 
d="M967 94l-11 -94h-784v94h287v791h-299l12 96h287q1 104 29.5 181.5t94 138.5t179.5 96t278 43l11 -121q-124 -6 -205 -19.5t-135 -35t-81 -60t-37.5 -85.5t-10.5 -122v-16h405v-96h-405v-791h385z" />
    <glyph glyph-name="g" unicode="g" 
d="M262 -350l-12 114q127 10 213.5 22.5t151 35t101.5 50t59 74t29 98t7 130.5q-135 -104 -303 -104q-167 0 -274 114.5t-107 309.5q0 118 43 217.5t115.5 164.5t167 101.5t198.5 36.5q135 0 281 -47q4 -110 4 -762q0 -103 -18.5 -182t-64.5 -147.5t-122.5 -114
t-193.5 -74.5t-275 -37zM553 172q129 0 258 88v612q-103 35 -203 35q-155 0 -255.5 -102t-100.5 -281q0 -170 83 -261t218 -91z" />
    <glyph glyph-name="h" unicode="h" 
d="M602 907q-138 0 -283 -96v-811h-122v1430l122 10v-547q161 121 328 121q144 0 223.5 -83.5t79.5 -260.5v-670h-123v631q0 147 -57 211.5t-168 64.5z" />
    <glyph glyph-name="i" unicode="i" 
d="M655 1161h-125l11 271h131zM1047 0h-895v96h389v793l-385 16l10 86h500v-895h391z" />
    <glyph glyph-name="j" unicode="j" 
d="M741 1161h-123l7 271h129zM756 82q0 -148 -59.5 -238.5t-206.5 -141t-402 -60.5l4 118q143 6 235.5 18.5t155 32.5t93.5 55.5t43 79.5t12 113v830l-453 16l8 86h570v-909z" />
    <glyph glyph-name="k" unicode="k" 
d="M907 -10l-389 469l-170 -4v-455h-123v1430l123 10v-891l174 4q178 186 369 444l127 -10q-193 -260 -389 -475l411 -502z" />
    <glyph glyph-name="l" unicode="l" 
d="M954 0h-782v96h334v1229l-313 14l12 88h426v-1331h336z" />
    <glyph glyph-name="m" unicode="m" 
d="M412 907q-85 0 -172 -90q10 -297 10 -817h-121q0 640 -12 987l110 8l9 -96q104 115 221 115q115 0 155 -105q109 105 224 105q84 0 130 -54.5t46 -164.5v-795h-121v745q0 89 -24 125.5t-85 36.5q-79 0 -157 -69q2 -12 2 -41v-797h-109v750q0 86 -23.5 121.5t-82.5 35.5z
" />
    <glyph glyph-name="n" unicode="n" 
d="M602 907q-142 0 -291 -100q11 -323 11 -807h-125q0 640 -15 987l115 8l10 -112q166 131 340 131q144 0 223.5 -83.5t79.5 -260.5v-670h-123v631q0 147 -57 211.5t-168 64.5z" />
    <glyph glyph-name="o" unicode="o" 
d="M547 -29q-187 0 -305.5 138t-118.5 372q0 118 37 219.5t99.5 170.5t146 108t176.5 39q188 0 305 -136.5t117 -369.5q0 -119 -36.5 -221.5t-99 -172t-145.5 -108.5t-176 -39zM565 76q141 0 228.5 109t87.5 302q0 200 -88 313t-232 113q-140 0 -226.5 -108t-86.5 -299
q0 -202 87.5 -316t229.5 -114z" />
    <glyph glyph-name="p" unicode="p" 
d="M522 84q154 0 256.5 113.5t102.5 310.5q0 188 -83.5 294.5t-215.5 106.5q-140 0 -263 -98q9 -422 11 -692q95 -35 192 -35zM330 -338l-125 -10v346q0 664 -12 989l114 8l8 -104q149 123 312 123q164 0 270.5 -130t106.5 -345q0 -128 -43 -236t-116.5 -179t-169.5 -110
t-202 -39q-69 0 -143 15v-328z" />
    <glyph glyph-name="q" unicode="q" 
d="M803 -346v444q-138 -123 -301 -123q-166 0 -272.5 128t-106.5 343q0 130 45 239t121 180t173 110t202 39q133 0 264 -51v-1299zM547 82q131 0 256 102v686q-98 37 -187 37q-161 0 -264.5 -113.5t-103.5 -316.5q0 -190 82 -292.5t217 -102.5z" />
    <glyph glyph-name="r" unicode="r" 
d="M885 0h-748v96h281q-14 743 -15 793l-262 14l11 88h364q7 -93 10 -166q80 77 201 131t274 70l7 -131q-301 -22 -478 -152q1 -71 4.5 -290t4.5 -357h358z" />
    <glyph glyph-name="s" unicode="s" 
d="M887 997l6 -112q-163 12 -267.5 8.5t-165 -27.5t-83.5 -51.5t-23 -62.5q0 -38 31.5 -71.5t82.5 -60.5t112 -54t122 -56.5t112 -62.5t82.5 -78t31.5 -97q0 -49 -21.5 -92t-74.5 -82.5t-132.5 -65.5t-205 -37t-283.5 -1l6 112q172 -11 285 -5.5t179.5 31.5t93 56.5
t26.5 69.5q0 55 -59 101t-143.5 81.5t-169 73t-143.5 93t-59 124.5q0 46 21 87.5t68 80.5t123.5 63.5t187.5 36.5t260 -2z" />
    <glyph glyph-name="t" unicode="t" 
d="M940 -18q-210 -1 -332 32t-175.5 103.5t-53.5 191.5v584h-209l16 98h193v281l123 12v-293h428v-98h-428v-563q0 -71 20 -114.5t73.5 -72t136.5 -40t218 -13.5z" />
    <glyph glyph-name="u" unicode="u" 
d="M829 -2l-10 113q-168 -136 -338 -136q-141 0 -220 84.5t-79 262.5v665l125 10v-637q0 -148 55 -212t164 -64q142 0 289 102q-8 232 -8 805h123q0 -661 14 -987z" />
    <glyph glyph-name="v" unicode="v" 
d="M573 113q174 413 330 878h127q-159 -460 -385 -999h-162q-199 471 -381 997l125 6q161 -473 332 -882h14z" />
    <glyph glyph-name="w" unicode="w" 
d="M774 0l-211 598l-211 -598h-114q-64 391 -105 991h125q30 -495 61 -823h9q21 56 198 571h82q5 -15 99.5 -282t103.5 -293h6q33 385 60 827h118q-38 -559 -102 -991h-119z" />
    <glyph glyph-name="x" unicode="x" 
d="M881 -4l-324 426l-321 -422h-132l381 492l-381 495l136 10l331 -428l318 422h135l-379 -493l373 -492z" />
    <glyph glyph-name="y" unicode="y" 
d="M143 -365l-12 119q134 21 204 49t110 74t81 139h-2q-173 372 -424 973l127 6q171 -426 357 -833h14q42 100 99.5 255.5t122.5 338t85 235.5h119q-169 -473 -346 -901q-50 -125 -91.5 -198.5t-103 -129t-140 -83t-200.5 -44.5z" />
    <glyph glyph-name="z" unicode="z" 
d="M979 0h-821v106l671 777h-663l10 108h795v-104l-672 -778l690 2z" />
    <glyph glyph-name="Aacute" unicode="&#xc1;" 
d="M367 1477q88 64 198.5 171t179.5 193l107 -98q-78 -77 -207.5 -169.5t-238.5 -154.5zM911 -6q-59 212 -120 420h-461q-58 -206 -117 -414h-125q187 657 385 1274h180q198 -615 385 -1268zM553 1161q-132 -434 -195 -649h404q-106 363 -195 649h-14z" />
    <glyph glyph-name="aacute" unicode="&#xe1;" 
d="M369 1202q88 64 199 171.5t180 193.5l106 -99q-78 -77 -207 -168.5t-239 -154.5zM500 78q84 0 168 34.5t151 90.5q-4 140 -4 260q-545 56 -545 -203q0 -86 62.5 -134t167.5 -48zM838 -4q-1 16 -6.5 65.5t-6.5 65.5q-164 -152 -370 -152q-137 0 -222.5 69t-85.5 187
q0 80 41 145t121.5 110.5t209.5 65t294 7.5q-5 97 -34.5 158t-102.5 100.5t-181.5 57t-285.5 24.5l14 111q214 -8 347.5 -35.5t218 -89t117 -154t32.5 -237.5q0 -202 12 -492z" />
    <glyph glyph-name="Abreve" unicode="&#x102;" 
d="M555 1436q-101 0 -190.5 72t-176.5 221l91 53q80 -133 144.5 -188.5t141.5 -55.5q80 0 147.5 56.5t151.5 179.5l76 -41q-184 -297 -385 -297zM911 -6q-59 212 -120 420h-461q-58 -206 -117 -414h-125q187 657 385 1274h180q198 -615 385 -1268zM553 1161
q-132 -434 -195 -649h404q-106 363 -195 649h-14z" />
    <glyph glyph-name="abreve" unicode="&#x103;" 
d="M557 1161q-101 0 -190.5 72t-176.5 221l91 53q80 -133 144.5 -188t141.5 -55q80 0 147.5 56.5t151.5 178.5l76 -41q-184 -297 -385 -297zM500 78q84 0 168 34.5t151 90.5q-4 140 -4 260q-545 56 -545 -203q0 -86 62.5 -134t167.5 -48zM838 -4q-1 16 -6.5 65.5t-6.5 65.5
q-164 -152 -370 -152q-137 0 -222.5 69t-85.5 187q0 80 41 145t121.5 110.5t209.5 65t294 7.5q-5 97 -34.5 158t-102.5 100.5t-181.5 57t-285.5 24.5l14 111q214 -8 347.5 -35.5t218 -89t117 -154t32.5 -237.5q0 -202 12 -492z" />
    <glyph glyph-name="Acircumflex" unicode="&#xc2;" 
d="M836 1425l-281 248l-283 -246l-65 62l352 313h6l348 -301zM911 -6q-59 212 -120 420h-461q-58 -206 -117 -414h-125q187 657 385 1274h180q198 -615 385 -1268zM553 1161q-132 -434 -195 -649h404q-106 363 -195 649h-14z" />
    <glyph glyph-name="acircumflex" unicode="&#xe2;" 
d="M838 1151l-281 248l-283 -246l-65 61l352 314h6l348 -301zM500 78q84 0 168 34.5t151 90.5q-4 140 -4 260q-545 56 -545 -203q0 -86 62.5 -134t167.5 -48zM838 -4q-1 16 -6.5 65.5t-6.5 65.5q-164 -152 -370 -152q-137 0 -222.5 69t-85.5 187q0 80 41 145t121.5 110.5
t209.5 65t294 7.5q-5 97 -34.5 158t-102.5 100.5t-181.5 57t-285.5 24.5l14 111q214 -8 347.5 -35.5t218 -89t117 -154t32.5 -237.5q0 -202 12 -492z" />
    <glyph glyph-name="Adieresis" unicode="&#xc4;" 
d="M850 1440h-125v270h129zM403 1440h-124l-3 270h132zM911 -6q-59 212 -120 420h-461q-58 -206 -117 -414h-125q187 657 385 1274h180q198 -615 385 -1268zM553 1161q-132 -434 -195 -649h404q-106 363 -195 649h-14z" />
    <glyph glyph-name="adieresis" unicode="&#xe4;" 
d="M852 1165h-125v271h129zM406 1165h-125l-2 271h131zM500 78q84 0 168 34.5t151 90.5q-4 140 -4 260q-545 56 -545 -203q0 -86 62.5 -134t167.5 -48zM838 -4q-1 16 -6.5 65.5t-6.5 65.5q-164 -152 -370 -152q-137 0 -222.5 69t-85.5 187q0 80 41 145t121.5 110.5t209.5 65
t294 7.5q-5 97 -34.5 158t-102.5 100.5t-181.5 57t-285.5 24.5l14 111q214 -8 347.5 -35.5t218 -89t117 -154t32.5 -237.5q0 -202 12 -492z" />
    <glyph glyph-name="Agrave" unicode="&#xc0;" 
d="M752 1460l-41 -55q-102 60 -231 151.5t-214 165.5l103 107q74 -86 187 -196t196 -173zM911 -6q-59 212 -120 420h-461q-58 -206 -117 -414h-125q187 657 385 1274h180q198 -615 385 -1268zM553 1161q-132 -434 -195 -649h404q-106 363 -195 649h-14z" />
    <glyph glyph-name="agrave" unicode="&#xe0;" 
d="M754 1186l-41 -56q-101 59 -230.5 151.5t-214.5 166.5l103 106q74 -86 187 -195t196 -173zM500 78q84 0 168 34.5t151 90.5q-4 140 -4 260q-545 56 -545 -203q0 -86 62.5 -134t167.5 -48zM838 -4q-1 16 -6.5 65.5t-6.5 65.5q-164 -152 -370 -152q-137 0 -222.5 69
t-85.5 187q0 80 41 145t121.5 110.5t209.5 65t294 7.5q-5 97 -34.5 158t-102.5 100.5t-181.5 57t-285.5 24.5l14 111q214 -8 347.5 -35.5t218 -89t117 -154t32.5 -237.5q0 -202 12 -492z" />
    <glyph glyph-name="Amacron" unicode="&#x100;" 
d="M895 1636v-108h-668v108h668zM911 -6q-59 212 -120 420h-461q-58 -206 -117 -414h-125q187 657 385 1274h180q198 -615 385 -1268zM553 1161q-132 -434 -195 -649h404q-106 363 -195 649h-14z" />
    <glyph glyph-name="amacron" unicode="&#x101;" 
d="M897 1362v-109h-668v109h668zM500 78q84 0 168 34.5t151 90.5q-4 140 -4 260q-545 56 -545 -203q0 -86 62.5 -134t167.5 -48zM838 -4q-1 16 -6.5 65.5t-6.5 65.5q-164 -152 -370 -152q-137 0 -222.5 69t-85.5 187q0 80 41 145t121.5 110.5t209.5 65t294 7.5
q-5 97 -34.5 158t-102.5 100.5t-181.5 57t-285.5 24.5l14 111q214 -8 347.5 -35.5t218 -89t117 -154t32.5 -237.5q0 -202 12 -492z" />
    <glyph glyph-name="Aogonek" unicode="&#x104;" 
d="M993 -424q-187 18 -268.5 62t-81.5 116q0 60 60.5 122t201.5 136q-55 202 -114 402h-461q-58 -206 -117 -414h-125q187 657 385 1274h180q198 -615 385 -1268q-155 -77 -217.5 -130t-62.5 -93q0 -39 58.5 -64.5t191.5 -40.5zM553 1161q-132 -434 -195 -649h404
q-106 363 -195 649h-14z" />
    <glyph glyph-name="aogonek" unicode="&#x105;" 
d="M905 -426q-187 18 -269.5 62t-82.5 116q0 61 65.5 124.5t217.5 143.5q-10 102 -15 164q-75 -90 -173 -149.5t-212 -59.5q-129 0 -209 69t-80 187q0 80 41 145t121.5 110.5t209.5 65t294 7.5q-5 97 -34.5 158t-102.5 100.5t-181.5 57t-285.5 24.5l14 111
q214 -8 347.5 -35.5t218 -89t117 -154t32.5 -237.5q0 -202 12 -492q-282 -135 -282 -221q0 -39 59 -64.5t191 -40.5zM483 78q87 0 176.5 51.5t157.5 132.5q-2 59 -2 201q-545 56 -545 -203q0 -86 58 -134t155 -48z" />
    <glyph glyph-name="Aring" unicode="&#xc5;" 
d="M559 1823q116 0 191 -61t75 -150q0 -95 -73 -156t-193 -61q-117 0 -192.5 60.5t-75.5 148.5q0 96 74 157.5t194 61.5zM559 1739q-78 0 -124 -36.5t-46 -94.5t46.5 -94.5t123.5 -36.5q78 0 124 36.5t46 94.5q0 57 -47 94t-123 37zM911 -6q-59 212 -120 420h-461
q-58 -206 -117 -414h-125q187 657 385 1274h180q198 -615 385 -1268zM553 1161q-132 -434 -195 -649h404q-106 363 -195 649h-14z" />
    <glyph glyph-name="aring" unicode="&#xe5;" 
d="M561 1548q116 0 191 -61t75 -150q0 -95 -73 -156t-193 -61q-117 0 -192.5 60.5t-75.5 148.5q0 96 74 157.5t194 61.5zM561 1464q-78 0 -124 -36.5t-46 -94.5t46.5 -94.5t123.5 -36.5q78 0 124 36.5t46 94.5q0 57 -47 94t-123 37zM500 78q84 0 168 34.5t151 90.5
q-4 140 -4 260q-545 56 -545 -203q0 -86 62.5 -134t167.5 -48zM838 -4q-1 16 -6.5 65.5t-6.5 65.5q-164 -152 -370 -152q-137 0 -222.5 69t-85.5 187q0 80 41 145t121.5 110.5t209.5 65t294 7.5q-5 97 -34.5 158t-102.5 100.5t-181.5 57t-285.5 24.5l14 111
q214 -8 347.5 -35.5t218 -89t117 -154t32.5 -237.5q0 -202 12 -492z" />
    <glyph glyph-name="Aringacute" unicode="&#x1fa;" 
d="M367 1970q87 64 198 171t180 194l107 -99q-78 -77 -207 -168.5t-239 -154.5zM559 1823q116 0 191 -61t75 -150q0 -95 -73 -156t-193 -61q-117 0 -192.5 60.5t-75.5 148.5q0 96 74 157.5t194 61.5zM559 1739q-78 0 -124 -36.5t-46 -94.5t46.5 -94.5t123.5 -36.5
q78 0 124 36.5t46 94.5q0 57 -47 94t-123 37zM911 -6q-59 212 -120 420h-461q-58 -206 -117 -414h-125q187 657 385 1274h180q198 -615 385 -1268zM553 1161q-132 -434 -195 -649h404q-106 363 -195 649h-14z" />
    <glyph glyph-name="aringacute" unicode="&#x1fb;" 
d="M369 1702q88 65 199 171.5t180 192.5l106 -98q-78 -77 -207 -168.5t-239 -154.5zM561 1548q116 0 191 -61t75 -150q0 -95 -73 -156t-193 -61q-117 0 -192.5 60.5t-75.5 148.5q0 96 74 157.5t194 61.5zM561 1464q-78 0 -124 -36.5t-46 -94.5t46.5 -94.5t123.5 -36.5
q78 0 124 36.5t46 94.5q0 57 -47 94t-123 37zM500 78q84 0 168 34.5t151 90.5q-4 140 -4 260q-545 56 -545 -203q0 -86 62.5 -134t167.5 -48zM838 -4q-1 16 -6.5 65.5t-6.5 65.5q-164 -152 -370 -152q-137 0 -222.5 69t-85.5 187q0 80 41 145t121.5 110.5t209.5 65t294 7.5
q-5 97 -34.5 158t-102.5 100.5t-181.5 57t-285.5 24.5l14 111q214 -8 347.5 -35.5t218 -89t117 -154t32.5 -237.5q0 -202 12 -492z" />
    <glyph glyph-name="Atilde" unicode="&#xc3;" 
d="M719 1438q-36 0 -72 23t-64.5 56t-55.5 66.5t-55.5 56.5t-53.5 23q-82 0 -170 -207l-76 31q118 280 260 280q36 0 72 -23t64 -56.5t55 -66.5t55 -56t53 -23q79 0 170 209l76 -33q-55 -134 -121 -207t-137 -73zM911 -6q-59 212 -120 420h-461q-58 -206 -117 -414h-125
q187 657 385 1274h180q198 -615 385 -1268zM553 1161q-132 -434 -195 -649h404q-106 363 -195 649h-14z" />
    <glyph glyph-name="atilde" unicode="&#xe3;" 
d="M721 1163q-44 0 -89 35.5t-76 77.5t-68.5 77.5t-67.5 35.5q-82 0 -170 -207l-76 30q118 281 260 281q36 0 72 -23t64 -56.5t55 -66.5t55 -56t53 -23q79 0 170 209l76 -33q-55 -134 -121 -207.5t-137 -73.5zM500 78q84 0 168 34.5t151 90.5q-4 140 -4 260
q-545 56 -545 -203q0 -86 62.5 -134t167.5 -48zM838 -4q-1 16 -6.5 65.5t-6.5 65.5q-164 -152 -370 -152q-137 0 -222.5 69t-85.5 187q0 80 41 145t121.5 110.5t209.5 65t294 7.5q-5 97 -34.5 158t-102.5 100.5t-181.5 57t-285.5 24.5l14 111q214 -8 347.5 -35.5t218 -89
t117 -154t32.5 -237.5q0 -202 12 -492z" />
    <glyph glyph-name="Cacute" unicode="&#x106;" 
d="M446 1477q88 65 199 171.5t180 192.5l107 -98q-78 -77 -207.5 -169t-239.5 -155zM975 104l-12 -110q-158 -10 -284 5.5t-215 54t-152.5 93t-100.5 129.5t-53.5 156.5t-16.5 179.5q0 108 25 201t84.5 177.5t151 146t232 101t320.5 46.5l9 -123q-121 -3 -219 -18.5
t-169.5 -40.5t-124.5 -62t-87 -79t-54.5 -96.5t-28.5 -110t-8 -123.5q0 -109 19.5 -191t67.5 -151t127 -110.5t201.5 -61.5t287.5 -13z" />
    <glyph glyph-name="cacute" unicode="&#x107;" 
d="M428 1198q88 64 199 171.5t180 193.5l106 -99q-78 -77 -207 -168.5t-239 -154.5zM174 481q0 84 23.5 156.5t79 139.5t140.5 115.5t215.5 79.5t295.5 36l8 -119q-153 -2 -266 -22.5t-184 -54t-114 -83.5t-59 -105t-16 -126q0 -105 30.5 -179t103.5 -128.5t202.5 -77.5
t318.5 -15l-16 -106q-173 -10 -306 9.5t-218.5 61t-139.5 107t-76 141.5t-22 170z" />
    <glyph glyph-name="Ccaron" unicode="&#x10c;" 
d="M655 1415h-4l-350 297l80 78l281 -248l280 246l66 -64zM975 104l-12 -110q-158 -10 -284 5.5t-215 54t-152.5 93t-100.5 129.5t-53.5 156.5t-16.5 179.5q0 108 25 201t84.5 177.5t151 146t232 101t320.5 46.5l9 -123q-121 -3 -219 -18.5t-169.5 -40.5t-124.5 -62t-87 -79
t-54.5 -96.5t-28.5 -110t-8 -123.5q0 -109 19.5 -191t67.5 -151t127 -110.5t201.5 -61.5t287.5 -13z" />
    <glyph glyph-name="ccaron" unicode="&#x10d;" 
d="M637 1137h-4l-350 297l79 77l281 -247l281 245l65 -63zM174 481q0 84 23.5 156.5t79 139.5t140.5 115.5t215.5 79.5t295.5 36l8 -119q-153 -2 -266 -22.5t-184 -54t-114 -83.5t-59 -105t-16 -126q0 -105 30.5 -179t103.5 -128.5t202.5 -77.5t318.5 -15l-16 -106
q-173 -10 -306 9.5t-218.5 61t-139.5 107t-76 141.5t-22 170z" />
    <glyph glyph-name="Ccedilla" unicode="&#xc7;" 
d="M784 -227q0 -73 -89 -124.5t-261 -76.5l-10 102q134 22 192 47t58 62q0 76 -199 203l29 53q-363 122 -363 573q0 108 25 201t84.5 177.5t151 146t232 101t320.5 46.5l9 -123q-121 -3 -219 -18.5t-169.5 -40.5t-124.5 -62t-87 -79t-54.5 -96.5t-28.5 -110t-8 -123.5
q0 -109 19.5 -191t67.5 -151t127 -110.5t201.5 -61.5t287.5 -13l-12 -110q-227 -15 -388 24q209 -133 209 -245z" />
    <glyph glyph-name="ccedilla" unicode="&#xe7;" 
d="M809 -238q0 -73 -89 -124t-261 -76l-10 102q134 22 191.5 47t57.5 62q0 76 -198 202l24 48q-188 50 -269 167.5t-81 290.5q0 84 23.5 156.5t79 139.5t140.5 115.5t215.5 79.5t295.5 36l8 -119q-153 -2 -266 -22.5t-184 -54t-114 -83.5t-59 -105t-16 -126
q0 -105 30.5 -179t103.5 -128.5t202.5 -77.5t318.5 -15l-16 -106q-186 -11 -332 14q205 -133 205 -244z" />
    <glyph glyph-name="Cdotaccent" unicode="&#x10a;" 
d="M702 1440h-127l7 270h131zM975 104l-12 -110q-158 -10 -284 5.5t-215 54t-152.5 93t-100.5 129.5t-53.5 156.5t-16.5 179.5q0 108 25 201t84.5 177.5t151 146t232 101t320.5 46.5l9 -123q-121 -3 -219 -18.5t-169.5 -40.5t-124.5 -62t-87 -79t-54.5 -96.5t-28.5 -110
t-8 -123.5q0 -109 19.5 -191t67.5 -151t127 -110.5t201.5 -61.5t287.5 -13z" />
    <glyph glyph-name="cdotaccent" unicode="&#x10b;" 
d="M686 1161h-127l6 271h131zM174 481q0 84 23.5 156.5t79 139.5t140.5 115.5t215.5 79.5t295.5 36l8 -119q-153 -2 -266 -22.5t-184 -54t-114 -83.5t-59 -105t-16 -126q0 -105 30.5 -179t103.5 -128.5t202.5 -77.5t318.5 -15l-16 -106q-173 -10 -306 9.5t-218.5 61
t-139.5 107t-76 141.5t-22 170z" />
    <glyph glyph-name="Dcaron" unicode="&#x10e;" 
d="M559 1427h-4l-350 297l80 78l280 -248l281 246l65 -63zM1016 662q0 -380 -213.5 -554t-614.5 -110v1274q178 28 314.5 16.5t233.5 -54t159.5 -123.5t91.5 -191t29 -258zM887 637q0 313 -136 441.5t-438 90.5v-1067q286 -42 430 96t144 439z" />
    <glyph glyph-name="dcaron" unicode="&#x10f;" 
d="M1059 1155q44 89 57 177t4 154.5t-35 151.5l150 4q53 -257 -119 -509zM549 82q129 0 254 98q-6 285 -6 697q-92 30 -179 30q-161 0 -265.5 -113.5t-104.5 -314.5q0 -191 82.5 -294t218.5 -103zM817 -4l-8 106q-138 -127 -305 -127q-166 0 -273.5 128t-107.5 343
q0 132 45 241t121.5 179.5t176 109t210.5 38.5q56 0 121 -10v426l125 10v-457q0 -658 14 -979z" />
    <glyph glyph-name="Dcroat" unicode="&#x110;" 
d="M1016 662q0 -380 -213.5 -554t-614.5 -110v600h-153v94h153v580q178 28 314.5 16.5t233.5 -54t159.5 -123.5t91.5 -191t29 -258zM313 102q286 -42 430 96t144 439q0 313 -136 441.5t-438 90.5v-477h299l-6 -94h-293v-496z" />
    <glyph glyph-name="dcroat" unicode="&#x111;" 
d="M549 82q129 0 254 98q-6 285 -6 697q-95 28 -179 28q-161 0 -265.5 -113t-104.5 -313q0 -191 82.5 -294t218.5 -103zM817 -4l-8 106q-138 -127 -305 -127q-166 0 -273.5 128t-107.5 343q0 131 45 239.5t121.5 179t176 109t210.5 38.5q50 0 121 -11v195h-283v86h283v145
l125 11v-156h151v-88h-151v-211q0 -658 14 -979z" />
    <glyph glyph-name="Eacute" unicode="&#xc9;" 
d="M416 1477q88 65 199 171.5t180 192.5l106 -98q-78 -77 -207.5 -169.5t-238.5 -154.5zM989 111l-12 -111h-752v1270h756v-111h-627v-467h547v-98h-547v-483h635z" />
    <glyph glyph-name="eacute" unicode="&#xe9;" 
d="M389 1212q88 64 199 171.5t180 193.5l106 -98q-78 -77 -207.5 -169.5t-238.5 -154.5zM922 -23q-224 4 -376.5 37.5t-240 99.5t-124 154.5t-36.5 214.5q0 148 61.5 270.5t167.5 192.5t232 70q197 0 296 -148t71 -387l-705 -16q6 -133 67 -210.5t205.5 -119.5t397.5 -49z
M582 911q-137 0 -221 -96.5t-93 -267.5l590 16q3 160 -68 254t-208 94z" />
    <glyph glyph-name="Ebreve" unicode="&#x114;" 
d="M604 1436q-101 0 -190 72t-176 221l90 53q80 -133 144.5 -188.5t141.5 -55.5q80 0 147.5 56.5t151.5 179.5l76 -41q-184 -297 -385 -297zM989 111l-12 -111h-752v1270h756v-111h-627v-467h547v-98h-547v-483h635z" />
    <glyph glyph-name="ebreve" unicode="&#x115;" 
d="M580 1171q-101 0 -190.5 72t-176.5 221l90 54q80 -133 145 -188.5t142 -55.5q80 0 147.5 56.5t151.5 178.5l76 -41q-184 -297 -385 -297zM922 -23q-224 4 -376.5 37.5t-240 99.5t-124 154.5t-36.5 214.5q0 148 61.5 270.5t167.5 192.5t232 70q197 0 296 -148t71 -387
l-705 -16q6 -133 67 -210.5t205.5 -119.5t397.5 -49zM582 911q-137 0 -221 -96.5t-93 -267.5l590 16q3 160 -68 254t-208 94z" />
    <glyph glyph-name="Ecaron" unicode="&#x11a;" 
d="M623 1415h-5l-350 297l80 78l281 -248l280 246l66 -64zM989 111l-12 -111h-752v1270h756v-111h-627v-467h547v-98h-547v-483h635z" />
    <glyph glyph-name="ecaron" unicode="&#x11b;" 
d="M596 1151h-4l-350 297l80 78l280 -248l281 246l65 -64zM922 -23q-224 4 -376.5 37.5t-240 99.5t-124 154.5t-36.5 214.5q0 148 61.5 270.5t167.5 192.5t232 70q197 0 296 -148t71 -387l-705 -16q6 -133 67 -210.5t205.5 -119.5t397.5 -49zM582 911q-137 0 -221 -96.5
t-93 -267.5l590 16q3 160 -68 254t-208 94z" />
    <glyph glyph-name="Ecircumflex" unicode="&#xca;" 
d="M885 1425l-281 248l-282 -246l-66 62l352 313h6l349 -301zM989 111l-12 -111h-752v1270h756v-111h-627v-467h547v-98h-547v-483h635z" />
    <glyph glyph-name="ecircumflex" unicode="&#xea;" 
d="M860 1161l-280 248l-283 -246l-66 62l353 313h6l348 -301zM922 -23q-224 4 -376.5 37.5t-240 99.5t-124 154.5t-36.5 214.5q0 148 61.5 270.5t167.5 192.5t232 70q197 0 296 -148t71 -387l-705 -16q6 -133 67 -210.5t205.5 -119.5t397.5 -49zM582 911q-137 0 -221 -96.5
t-93 -267.5l590 16q3 160 -68 254t-208 94z" />
    <glyph glyph-name="Edieresis" unicode="&#xcb;" 
d="M899 1440h-125v270h129zM453 1440h-125l-2 270h131zM989 111l-12 -111h-752v1270h756v-111h-627v-467h547v-98h-547v-483h635z" />
    <glyph glyph-name="edieresis" unicode="&#xeb;" 
d="M872 1176h-124v270h129zM426 1176h-125l-2 270h131zM922 -23q-224 4 -376.5 37.5t-240 99.5t-124 154.5t-36.5 214.5q0 148 61.5 270.5t167.5 192.5t232 70q197 0 296 -148t71 -387l-705 -16q6 -133 67 -210.5t205.5 -119.5t397.5 -49zM582 911q-137 0 -221 -96.5
t-93 -267.5l590 16q3 160 -68 254t-208 94z" />
    <glyph glyph-name="Edotaccent" unicode="&#x116;" 
d="M672 1440h-127l6 270h131zM989 111l-12 -111h-752v1270h756v-111h-627v-467h547v-98h-547v-483h635z" />
    <glyph glyph-name="edotaccent" unicode="&#x117;" 
d="M645 1176h-127l6 270h131zM922 -23q-224 4 -376.5 37.5t-240 99.5t-124 154.5t-36.5 214.5q0 148 61.5 270.5t167.5 192.5t232 70q197 0 296 -148t71 -387l-705 -16q6 -133 67 -210.5t205.5 -119.5t397.5 -49zM582 911q-137 0 -221 -96.5t-93 -267.5l590 16
q3 160 -68 254t-208 94z" />
    <glyph glyph-name="Egrave" unicode="&#xc8;" 
d="M801 1460l-41 -55q-102 60 -231 151.5t-214 165.5l103 107q74 -86 187 -196t196 -173zM989 111l-12 -111h-752v1270h756v-111h-627v-467h547v-98h-547v-483h635z" />
    <glyph glyph-name="egrave" unicode="&#xe8;" 
d="M774 1196l-41 -55q-101 59 -230 151t-214 166l102 107q74 -86 187 -196t196 -173zM922 -23q-224 4 -376.5 37.5t-240 99.5t-124 154.5t-36.5 214.5q0 148 61.5 270.5t167.5 192.5t232 70q197 0 296 -148t71 -387l-705 -16q6 -133 67 -210.5t205.5 -119.5t397.5 -49z
M582 911q-137 0 -221 -96.5t-93 -267.5l590 16q3 160 -68 254t-208 94z" />
    <glyph glyph-name="Emacron" unicode="&#x112;" 
d="M944 1636v-108h-668v108h668zM989 111l-12 -111h-752v1270h756v-111h-627v-467h547v-98h-547v-483h635z" />
    <glyph glyph-name="emacron" unicode="&#x113;" 
d="M918 1372v-108h-668v108h668zM922 -23q-224 4 -376.5 37.5t-240 99.5t-124 154.5t-36.5 214.5q0 148 61.5 270.5t167.5 192.5t232 70q197 0 296 -148t71 -387l-705 -16q6 -133 67 -210.5t205.5 -119.5t397.5 -49zM582 911q-137 0 -221 -96.5t-93 -267.5l590 16
q3 160 -68 254t-208 94z" />
    <glyph glyph-name="Eogonek" unicode="&#x118;" 
d="M946 -326l-12 -104q-189 18 -270.5 62.5t-81.5 117.5q0 58 57.5 117.5t191.5 132.5h-606v1270h756v-111h-627v-467h547v-98h-547v-483h635l-12 -111q-155 -75 -218 -128t-63 -95q0 -39 58.5 -63.5t191.5 -39.5z" />
    <glyph glyph-name="eogonek" unicode="&#x119;" 
d="M877 -428q-353 34 -353 178q0 120 262 242q-180 7 -305 41.5t-198.5 98.5t-105.5 149t-32 202q0 148 61.5 270.5t167.5 192.5t232 70q197 0 296 -148t71 -387l-705 -16q6 -133 67 -210.5t205.5 -119.5t397.5 -49l-16 -104q-283 -118 -283 -201q0 -79 250 -107zM582 911
q-137 0 -221 -96.5t-93 -267.5l590 16q3 160 -68 254t-208 94z" />
    <glyph glyph-name="Gbreve" unicode="&#x11e;" 
d="M590 1436q-101 0 -190.5 72t-176.5 221l90 53q80 -133 145 -188.5t142 -55.5q80 0 147.5 56.5t151.5 179.5l76 -41q-184 -297 -385 -297zM965 12q-151 -30 -272 -30.5t-215.5 30.5t-162.5 84t-112 131t-65 171t-21 204q0 112 24 206.5t81.5 181t147.5 148t229.5 100.5
t318.5 46l8 -123q-165 -3 -287 -31.5t-196.5 -74.5t-119.5 -115.5t-61 -143t-16 -169.5q0 -139 30 -240.5t98 -175t186 -103.5t286 -14q-2 167 -6 543h123q0 -543 2 -625z" />
    <glyph glyph-name="gbreve" unicode="&#x11f;" 
d="M582 1169q-101 0 -190.5 72t-176.5 221l90 54q80 -133 145 -188.5t142 -55.5q80 0 147.5 56.5t151.5 178.5l76 -41q-184 -297 -385 -297zM262 -350l-12 114q127 10 213.5 22.5t151 35t101.5 50t59 74t29 98t7 130.5q-135 -104 -303 -104q-167 0 -274 114.5t-107 309.5
q0 118 43 217.5t115.5 164.5t167 101.5t198.5 36.5q135 0 281 -47q4 -110 4 -762q0 -103 -18.5 -182t-64.5 -147.5t-122.5 -114t-193.5 -74.5t-275 -37zM553 172q129 0 258 88v612q-103 35 -203 35q-155 0 -255.5 -102t-100.5 -281q0 -170 83 -261t218 -91z" />
    <glyph glyph-name="Gcommaaccent" unicode="&#x122;" 
d="M965 12q-151 -30 -272 -30.5t-215.5 30.5t-162.5 84t-112 131t-65 171t-21 204q0 112 24 206.5t81.5 181t147.5 148t229.5 100.5t318.5 46l8 -123q-165 -3 -287 -31.5t-196.5 -74.5t-119.5 -115.5t-61 -143t-16 -169.5q0 -139 30 -240.5t98 -175t186 -103.5t286 -14
q-2 167 -6 543h123q0 -543 2 -625zM494 -555q37 70 48 140t1.5 127t-35.5 122q6 0 79.5 3t80.5 3q20 -100 -7 -208.5t-106 -206.5z" />
    <glyph glyph-name="gcommaaccent" unicode="&#x123;" 
d="M680 1563q-37 -70 -48 -140.5t-1.5 -127.5t35.5 -121l-162 -7q-20 100 7 209t107 207zM262 -350l-12 114q127 10 213.5 22.5t151 35t101.5 50t59 74t29 98t7 130.5q-135 -104 -303 -104q-167 0 -274 114.5t-107 309.5q0 118 43 217.5t115.5 164.5t167 101.5t198.5 36.5
q135 0 281 -47q4 -110 4 -762q0 -103 -18.5 -182t-64.5 -147.5t-122.5 -114t-193.5 -74.5t-275 -37zM553 172q129 0 258 88v612q-103 35 -203 35q-155 0 -255.5 -102t-100.5 -281q0 -170 83 -261t218 -91z" />
    <glyph glyph-name="Gdotaccent" unicode="&#x120;" 
d="M657 1440h-127l7 270h131zM965 12q-151 -30 -272 -30.5t-215.5 30.5t-162.5 84t-112 131t-65 171t-21 204q0 112 24 206.5t81.5 181t147.5 148t229.5 100.5t318.5 46l8 -123q-165 -3 -287 -31.5t-196.5 -74.5t-119.5 -115.5t-61 -143t-16 -169.5q0 -139 30 -240.5
t98 -175t186 -103.5t286 -14q-2 167 -6 543h123q0 -543 2 -625z" />
    <glyph glyph-name="gdotaccent" unicode="&#x121;" 
d="M647 1174h-127l6 270h131zM262 -350l-12 114q127 10 213.5 22.5t151 35t101.5 50t59 74t29 98t7 130.5q-135 -104 -303 -104q-167 0 -274 114.5t-107 309.5q0 118 43 217.5t115.5 164.5t167 101.5t198.5 36.5q135 0 281 -47q4 -110 4 -762q0 -103 -18.5 -182
t-64.5 -147.5t-122.5 -114t-193.5 -74.5t-275 -37zM553 172q129 0 258 88v612q-103 35 -203 35q-155 0 -255.5 -102t-100.5 -281q0 -170 83 -261t218 -91z" />
    <glyph glyph-name="Hbar" unicode="&#x126;" 
d="M821 670v252h-516v-252h516zM821 0v569h-516v-569h-129v920h-153v94h153v256h129v-260h516v260h129v-256h154v-94h-154v-920h-129z" />
    <glyph glyph-name="hbar" unicode="&#x127;" 
d="M602 907q-138 0 -283 -96v-811h-124v1194h-152v88h152v148l124 10v-158h283v-86h-283v-305q161 121 328 121q144 0 223.5 -83.5t79.5 -258.5v-670h-123v631q0 147 -57 211.5t-168 64.5z" />
    <glyph glyph-name="Iacute" unicode="&#xcd;" 
d="M371 1477q88 65 199 171.5t180 192.5l106 -98q-78 -77 -207.5 -169.5t-238.5 -154.5zM625 1167v-1065h338l-11 -102h-782v102h328v1065h-328v103h782v-103h-327z" />
    <glyph glyph-name="iacute" unicode="&#xed;" 
d="M410 1198q87 64 198 171t180 194l107 -99q-78 -77 -207 -168.5t-239 -154.5zM1047 0h-895v96h389v793l-385 16l10 86h500v-895h391z" />
    <glyph glyph-name="Ibreve" unicode="&#x12c;" 
d="M559 1436q-101 0 -190 72t-176 221l90 53q80 -133 144.5 -188.5t141.5 -55.5q80 0 147.5 56.5t151.5 179.5l76 -41q-184 -297 -385 -297zM625 1167v-1065h338l-11 -102h-782v102h328v1065h-328v103h782v-103h-327z" />
    <glyph glyph-name="ibreve" unicode="&#x12d;" 
d="M598 1157q-101 0 -190.5 72t-176.5 221l91 53q80 -133 144.5 -188t141.5 -55q80 0 147.5 56.5t151.5 178.5l76 -41q-184 -297 -385 -297zM1047 0h-895v96h389v793l-385 16l10 86h500v-895h391z" />
    <glyph glyph-name="Icircumflex" unicode="&#xce;" 
d="M840 1425l-281 248l-283 -246l-65 62l352 313h6l349 -301zM625 1167v-1065h338l-11 -102h-782v102h328v1065h-328v103h782v-103h-327z" />
    <glyph glyph-name="icircumflex" unicode="&#xee;" 
d="M879 1147l-281 248l-283 -246l-65 61l352 314h6l348 -301zM1047 0h-895v96h389v793l-385 16l10 86h500v-895h391z" />
    <glyph glyph-name="Idieresis" unicode="&#xcf;" 
d="M854 1440h-125v270h129zM408 1440h-125l-2 270h131zM625 1167v-1065h338l-11 -102h-782v102h328v1065h-328v103h782v-103h-327z" />
    <glyph glyph-name="idieresis" unicode="&#xef;" 
d="M893 1161h-125v271h129zM446 1161h-124l-3 271h132zM1047 0h-895v96h389v793l-385 16l10 86h500v-895h391z" />
    <glyph glyph-name="Idotaccent" unicode="&#x130;" 
d="M627 1440h-127l6 270h131zM625 1167v-1065h338l-11 -102h-782v102h328v1065h-328v103h782v-103h-327z" />
    <glyph glyph-name="dotlessi" unicode="&#x131;" 
d="M1047 0h-895v96h389v793l-385 16l10 86h500v-895h391z" />
    <glyph glyph-name="Igrave" unicode="&#xcc;" 
d="M756 1460l-41 -55q-102 60 -231 151.5t-214 165.5l103 107q74 -86 187 -196t196 -173zM625 1167v-1065h338l-11 -102h-782v102h328v1065h-328v103h782v-103h-327z" />
    <glyph glyph-name="igrave" unicode="&#xec;" 
d="M795 1182l-41 -56q-101 59 -230.5 151.5t-214.5 166.5l103 106q74 -86 187 -195t196 -173zM1047 0h-895v96h389v793l-385 16l10 86h500v-895h391z" />
    <glyph glyph-name="Imacron" unicode="&#x12a;" 
d="M899 1636v-108h-668v108h668zM625 1167v-1065h338l-11 -102h-782v102h328v1065h-328v103h782v-103h-327z" />
    <glyph glyph-name="imacron" unicode="&#x12b;" 
d="M938 1358v-109h-668v109h668zM1047 0h-895v96h389v793l-385 16l10 86h500v-895h391z" />
    <glyph glyph-name="Iogonek" unicode="&#x12e;" 
d="M702 -326l-14 -102q-188 18 -270 64t-82 124q0 54 40.5 110.5t133.5 129.5h-340v102h328v1065h-328v103h782v-103h-327v-1065h338l-11 -102h-331q-92 -75 -130 -125t-38 -88q0 -44 58 -71t191 -42z" />
    <glyph glyph-name="iogonek" unicode="&#x12f;" 
d="M655 1161h-125l11 271h131zM731 -326l-12 -104q-189 18 -270.5 64t-81.5 122q0 57 42 114t138 130h-395v96h389v793l-385 16l10 86h500v-895h391l-10 -96h-388q-98 -77 -138 -127t-40 -88q0 -43 58.5 -69.5t191.5 -41.5z" />
    <glyph glyph-name="Kcommaaccent" unicode="&#x136;" 
d="M909 -10l-432 600h-145v-590h-127v1270h127v-578h151l400 578h137l-434 -623l463 -639zM461 -547q37 70 48 140t1.5 127t-35.5 122q6 0 79.5 3t80.5 3q20 -100 -7 -208.5t-106 -206.5z" />
    <glyph glyph-name="kcommaaccent" unicode="&#x137;" 
d="M907 -10l-389 469l-170 -4v-455h-123v1430l123 10v-891l174 4q178 186 369 444l127 -10q-193 -260 -389 -475l411 -502zM502 -547q37 70 48 140t1.5 127t-35.5 122q6 0 79.5 3t80.5 3q20 -100 -7 -208.5t-106 -206.5z" />
    <glyph glyph-name="Lacute" unicode="&#x139;" 
d="M432 1477q88 65 199 171.5t180 192.5l107 -98q-78 -77 -207.5 -169t-239.5 -155zM1006 0h-760v1270h127v-1159h645z" />
    <glyph glyph-name="lacute" unicode="&#x13a;" 
d="M375 1632q88 64 199 171.5t180 193.5l106 -99q-78 -77 -207 -168.5t-239 -154.5zM954 0h-782v96h334v1229l-313 14l12 88h426v-1331h336z" />
    <glyph glyph-name="Lcaron" unicode="&#x13d;" 
d="M778 944q44 89 57 176.5t4 154.5t-34 152l149 5q53 -259 -118 -510zM1006 0h-760v1270h127v-1159h645z" />
    <glyph glyph-name="lcaron" unicode="&#x13e;" 
d="M903 1155q44 89 57 176.5t4 154.5t-34 152l149 4q53 -258 -118 -509zM954 0h-782v96h334v1229l-313 14l12 88h426v-1331h336z" />
    <glyph glyph-name="Lcommaaccent" unicode="&#x13b;" 
d="M1006 0h-760v1270h127v-1159h645zM526 -537q37 70 48 140.5t2 127.5t-35 122q6 0 79 3t80 3q20 -100 -6.5 -209t-105.5 -207z" />
    <glyph glyph-name="lcommaaccent" unicode="&#x13c;" 
d="M954 0h-782v96h334v1229l-313 14l12 88h426v-1331h336zM467 -537q37 70 48 140.5t1.5 127.5t-35.5 122q6 0 79.5 3t80.5 3q20 -100 -7 -209t-106 -207z" />
    <glyph glyph-name="Ldot" unicode="&#x13f;" 
d="M1006 0h-760v1270h127v-1159h645zM948 551h-162l9 197h163z" />
    <glyph glyph-name="ldot" unicode="&#x140;" 
d="M954 0h-782v96h334v1229l-313 14l12 88h426v-1331h336zM1206 551h-162l11 197h162z" />
    <glyph glyph-name="Lslash" unicode="&#x141;" 
d="M1006 0h-760v627l-154 -80l-22 90l176 92v541h127v-475l313 163l23 -92l-336 -174v-581h645z" />
    <glyph glyph-name="lslash" unicode="&#x142;" 
d="M954 0h-782v96h334v566l-248 -130l-22 89l270 143v561l-313 14l12 88h426v-598l237 125l23 -90l-260 -137v-631h336z" />
    <glyph glyph-name="Nacute" unicode="&#x143;" 
d="M365 1477q88 64 198.5 171t179.5 193l107 -98q-78 -77 -207.5 -169t-239.5 -155zM817 0l-514 1077h-10l4 -1077h-121v1270h152l497 -1053h9l-5 1053h121v-1270h-133z" />
    <glyph glyph-name="nacute" unicode="&#x144;" 
d="M371 1221q88 65 199 171.5t180 192.5l106 -98q-78 -77 -207.5 -169.5t-238.5 -154.5zM602 907q-142 0 -291 -100q11 -323 11 -807h-125q0 640 -15 987l115 8l10 -112q166 131 340 131q144 0 223.5 -83.5t79.5 -260.5v-670h-123v631q0 147 -57 211.5t-168 64.5z" />
    <glyph glyph-name="Ncaron" unicode="&#x147;" 
d="M571 1415h-4l-350 297l80 78l281 -248l280 246l66 -64zM817 0l-514 1077h-10l4 -1077h-121v1270h152l497 -1053h9l-5 1053h121v-1270h-133z" />
    <glyph glyph-name="ncaron" unicode="&#x148;" 
d="M578 1159h-5l-350 297l80 78l281 -248l280 246l66 -64zM602 907q-142 0 -291 -100q11 -323 11 -807h-125q0 640 -15 987l115 8l10 -112q166 131 340 131q144 0 223.5 -83.5t79.5 -260.5v-670h-123v631q0 147 -57 211.5t-168 64.5z" />
    <glyph glyph-name="Ncommaaccent" unicode="&#x145;" 
d="M817 0l-514 1077h-10l4 -1077h-121v1270h152l497 -1053h9l-5 1053h121v-1270h-133zM457 -537q37 70 48 140.5t1.5 127.5t-35.5 122q6 0 79.5 3t80.5 3q20 -100 -7 -209t-106 -207z" />
    <glyph glyph-name="ncommaaccent" unicode="&#x146;" 
d="M602 907q-142 0 -291 -100q11 -323 11 -807h-125q0 640 -15 987l115 8l10 -112q166 131 340 131q144 0 223.5 -83.5t79.5 -260.5v-670h-123v631q0 147 -57 211.5t-168 64.5zM496 -537q37 70 48 140.5t1.5 127.5t-35.5 122q6 0 79.5 3t80.5 3q20 -100 -7 -209t-106 -207z
" />
    <glyph glyph-name="Ntilde" unicode="&#xd1;" 
d="M717 1438q-36 0 -72 23t-64.5 56t-55.5 66.5t-55.5 56.5t-53.5 23q-82 0 -170 -207l-76 31q118 280 260 280q36 0 72 -23t64 -56.5t55 -66.5t55 -56t53 -23q79 0 170 209l76 -33q-55 -134 -121 -207t-137 -73zM817 0l-514 1077h-10l4 -1077h-121v1270h152l497 -1053h9
l-5 1053h121v-1270h-133z" />
    <glyph glyph-name="ntilde" unicode="&#xf1;" 
d="M725 1182q-36 0 -72 23t-64.5 56t-55.5 66.5t-55.5 56.5t-53.5 23q-82 0 -170 -207l-76 31q118 280 260 280q36 0 72 -23t64 -56.5t55 -66.5t55 -56t53 -23q79 0 170 209l76 -33q-55 -134 -121 -207t-137 -73zM602 907q-142 0 -291 -100q11 -323 11 -807h-125
q0 640 -15 987l115 8l10 -112q166 131 340 131q144 0 223.5 -83.5t79.5 -260.5v-670h-123v631q0 147 -57 211.5t-168 64.5z" />
    <glyph glyph-name="Oacute" unicode="&#xd3;" 
d="M373 1491q88 65 199 171.5t180 192.5l106 -98q-78 -77 -207 -168.5t-239 -154.5zM545 -31q-210 0 -327.5 168t-117.5 475q0 327 130 507.5t354 180.5q210 0 325.5 -167.5t116.5 -475.5q1 -326 -128 -507t-353 -181zM559 1192q-160 0 -245 -142.5t-85 -410.5
q0 -274 86 -417.5t252 -143.5q159 0 244.5 142.5t85.5 410.5q0 273 -87 417t-251 144z" />
    <glyph glyph-name="oacute" unicode="&#xf3;" 
d="M369 1206q88 64 199 171.5t180 193.5l106 -98q-78 -77 -207.5 -169.5t-238.5 -154.5zM547 -29q-187 0 -305.5 138t-118.5 372q0 118 37 219.5t99.5 170.5t146 108t176.5 39q188 0 305 -136.5t117 -369.5q0 -119 -36.5 -221.5t-99 -172t-145.5 -108.5t-176 -39zM565 76
q141 0 228.5 109t87.5 302q0 200 -88 313t-232 113q-140 0 -226.5 -108t-86.5 -299q0 -202 87.5 -316t229.5 -114z" />
    <glyph glyph-name="Obreve" unicode="&#x14e;" 
d="M563 1450q-101 0 -190 72t-176 221l90 53q80 -133 144.5 -188.5t141.5 -55.5q80 0 147.5 56.5t151.5 179.5l76 -41q-184 -297 -385 -297zM545 -31q-210 0 -327.5 168t-117.5 475q0 327 130 507.5t354 180.5q210 0 325.5 -167.5t116.5 -475.5q1 -326 -128 -507t-353 -181z
M559 1192q-160 0 -245 -142.5t-85 -410.5q0 -274 86 -417.5t252 -143.5q159 0 244.5 142.5t85.5 410.5q0 273 -87 417t-251 144z" />
    <glyph glyph-name="obreve" unicode="&#x14f;" 
d="M557 1165q-101 0 -190.5 72t-176.5 221l91 53q80 -133 144.5 -188t141.5 -55q80 0 147.5 56.5t151.5 178.5l76 -41q-184 -297 -385 -297zM547 -29q-187 0 -305.5 138t-118.5 372q0 118 37 219.5t99.5 170.5t146 108t176.5 39q188 0 305 -136.5t117 -369.5
q0 -119 -36.5 -221.5t-99 -172t-145.5 -108.5t-176 -39zM565 76q141 0 228.5 109t87.5 302q0 200 -88 313t-232 113q-140 0 -226.5 -108t-86.5 -299q0 -202 87.5 -316t229.5 -114z" />
    <glyph glyph-name="Ocircumflex" unicode="&#xd4;" 
d="M844 1440l-281 248l-282 -246l-66 61l352 314h6l349 -301zM545 -31q-210 0 -327.5 168t-117.5 475q0 327 130 507.5t354 180.5q210 0 325.5 -167.5t116.5 -475.5q1 -326 -128 -507t-353 -181zM559 1192q-160 0 -245 -142.5t-85 -410.5q0 -274 86 -417.5t252 -143.5
q159 0 244.5 142.5t85.5 410.5q0 273 -87 417t-251 144z" />
    <glyph glyph-name="ocircumflex" unicode="&#xf4;" 
d="M838 1155l-281 248l-283 -246l-65 62l352 313h6l348 -301zM547 -29q-187 0 -305.5 138t-118.5 372q0 118 37 219.5t99.5 170.5t146 108t176.5 39q188 0 305 -136.5t117 -369.5q0 -119 -36.5 -221.5t-99 -172t-145.5 -108.5t-176 -39zM565 76q141 0 228.5 109t87.5 302
q0 200 -88 313t-232 113q-140 0 -226.5 -108t-86.5 -299q0 -202 87.5 -316t229.5 -114z" />
    <glyph glyph-name="Odieresis" unicode="&#xd6;" 
d="M858 1454h-125v270h129zM412 1454h-125l-2 270h131zM545 -31q-210 0 -327.5 168t-117.5 475q0 327 130 507.5t354 180.5q210 0 325.5 -167.5t116.5 -475.5q1 -326 -128 -507t-353 -181zM559 1192q-160 0 -245 -142.5t-85 -410.5q0 -274 86 -417.5t252 -143.5
q159 0 244.5 142.5t85.5 410.5q0 273 -87 417t-251 144z" />
    <glyph glyph-name="odieresis" unicode="&#xf6;" 
d="M852 1169h-125v271h129zM406 1169h-125l-2 271h131zM547 -29q-187 0 -305.5 138t-118.5 372q0 118 37 219.5t99.5 170.5t146 108t176.5 39q188 0 305 -136.5t117 -369.5q0 -119 -36.5 -221.5t-99 -172t-145.5 -108.5t-176 -39zM565 76q141 0 228.5 109t87.5 302
q0 200 -88 313t-232 113q-140 0 -226.5 -108t-86.5 -299q0 -202 87.5 -316t229.5 -114z" />
    <glyph glyph-name="Ograve" unicode="&#xd2;" 
d="M758 1475l-41 -56q-101 59 -230.5 151.5t-214.5 166.5l103 106q74 -86 187 -195t196 -173zM545 -31q-210 0 -327.5 168t-117.5 475q0 327 130 507.5t354 180.5q210 0 325.5 -167.5t116.5 -475.5q1 -326 -128 -507t-353 -181zM559 1192q-160 0 -245 -142.5t-85 -410.5
q0 -274 86 -417.5t252 -143.5q159 0 244.5 142.5t85.5 410.5q0 273 -87 417t-251 144z" />
    <glyph glyph-name="ograve" unicode="&#xf2;" 
d="M754 1190l-41 -55q-102 60 -231 151.5t-214 165.5l103 107q74 -86 187 -196t196 -173zM547 -29q-187 0 -305.5 138t-118.5 372q0 118 37 219.5t99.5 170.5t146 108t176.5 39q188 0 305 -136.5t117 -369.5q0 -119 -36.5 -221.5t-99 -172t-145.5 -108.5t-176 -39zM565 76
q141 0 228.5 109t87.5 302q0 200 -88 313t-232 113q-140 0 -226.5 -108t-86.5 -299q0 -202 87.5 -316t229.5 -114z" />
    <glyph glyph-name="Ohungarumlaut" unicode="&#x150;" 
d="M281 1477q57 81 119.5 196.5t101.5 208.5l131 -65q-48 -81 -131 -189t-160 -192zM705 1475q58 84 119 196.5t98 202.5l137 -57q-56 -90 -138.5 -197.5t-156.5 -183.5zM545 -31q-210 0 -327.5 168t-117.5 475q0 327 130 507.5t354 180.5q210 0 325.5 -167.5t116.5 -475.5
q1 -326 -128 -507t-353 -181zM559 1192q-160 0 -245 -142.5t-85 -410.5q0 -274 86 -417.5t252 -143.5q159 0 244.5 142.5t85.5 410.5q0 273 -87 417t-251 144z" />
    <glyph glyph-name="ohungarumlaut" unicode="&#x151;" 
d="M276 1192q58 82 121 197.5t101 207.5l131 -65q-48 -81 -131 -189t-160 -192zM700 1190q58 84 119.5 196.5t98.5 202.5l137 -57q-56 -90 -138.5 -197.5t-156.5 -183.5zM547 -29q-187 0 -305.5 138t-118.5 372q0 118 37 219.5t99.5 170.5t146 108t176.5 39
q188 0 305 -136.5t117 -369.5q0 -119 -36.5 -221.5t-99 -172t-145.5 -108.5t-176 -39zM565 76q141 0 228.5 109t87.5 302q0 200 -88 313t-232 113q-140 0 -226.5 -108t-86.5 -299q0 -202 87.5 -316t229.5 -114z" />
    <glyph glyph-name="Omacron" unicode="&#x14c;" 
d="M903 1651v-109h-667v109h667zM545 -31q-210 0 -327.5 168t-117.5 475q0 327 130 507.5t354 180.5q210 0 325.5 -167.5t116.5 -475.5q1 -326 -128 -507t-353 -181zM559 1192q-160 0 -245 -142.5t-85 -410.5q0 -274 86 -417.5t252 -143.5q159 0 244.5 142.5t85.5 410.5
q0 273 -87 417t-251 144z" />
    <glyph glyph-name="omacron" unicode="&#x14d;" 
d="M897 1366v-109h-668v109h668zM547 -29q-187 0 -305.5 138t-118.5 372q0 118 37 219.5t99.5 170.5t146 108t176.5 39q188 0 305 -136.5t117 -369.5q0 -119 -36.5 -221.5t-99 -172t-145.5 -108.5t-176 -39zM565 76q141 0 228.5 109t87.5 302q0 200 -88 313t-232 113
q-140 0 -226.5 -108t-86.5 -299q0 -202 87.5 -316t229.5 -114z" />
    <glyph glyph-name="Oslash" unicode="&#xd8;" 
d="M229 639q0 -243 70 -389l475 850q-83 92 -215 92q-160 0 -245 -142t-85 -411zM567 78q159 0 244.5 142t85.5 411q0 244 -70 387l-475 -848q80 -92 215 -92zM545 -31q-149 0 -252 86l-66 -118l-84 45l82 145q-125 166 -125 485q0 327 130 507.5t354 180.5q146 0 254 -88
l65 121l84 -45l-84 -147q120 -166 123 -484q1 -326 -128 -507t-353 -181z" />
    <glyph glyph-name="oslash" unicode="&#xf8;" 
d="M248 506q0 -179 71 -293l437 629q-80 71 -195 71q-140 0 -226.5 -108t-86.5 -299zM565 76q141 0 229.5 109.5t88.5 301.5q0 174 -72 289l-434 -631q78 -69 188 -69zM547 -29q-131 0 -238 74l-76 -108l-77 51l86 123q-119 138 -119 370q0 118 37 219.5t99.5 170.5t146 108
t176.5 39q134 0 239 -76l76 111l78 -54l-86 -120q115 -137 115 -367q0 -119 -36.5 -221.5t-99 -172t-145.5 -108.5t-176 -39z" />
    <glyph glyph-name="Oslashacute" unicode="&#x1fe;" 
d="M369 1491q88 65 199 171.5t180 192.5l106 -98q-78 -77 -207 -168.5t-239 -154.5zM229 639q0 -243 70 -389l475 850q-83 92 -215 92q-160 0 -245 -142t-85 -411zM567 78q159 0 244.5 142t85.5 411q0 244 -70 387l-475 -848q80 -92 215 -92zM545 -31q-149 0 -252 86
l-66 -118l-84 45l82 145q-125 166 -125 485q0 327 130 507.5t354 180.5q146 0 254 -88l65 121l84 -45l-84 -147q120 -166 123 -484q1 -326 -128 -507t-353 -181z" />
    <glyph glyph-name="oslashacute" unicode="&#x1ff;" 
d="M369 1206q88 64 199 171.5t180 193.5l106 -98q-78 -77 -207.5 -169.5t-238.5 -154.5zM248 506q0 -179 71 -293l437 629q-80 71 -195 71q-140 0 -226.5 -108t-86.5 -299zM565 76q141 0 229.5 109.5t88.5 301.5q0 174 -72 289l-434 -631q78 -69 188 -69zM547 -29
q-131 0 -238 74l-76 -108l-77 51l86 123q-119 138 -119 370q0 118 37 219.5t99.5 170.5t146 108t176.5 39q134 0 239 -76l76 111l78 -54l-86 -120q115 -137 115 -367q0 -119 -36.5 -221.5t-99 -172t-145.5 -108.5t-176 -39z" />
    <glyph glyph-name="Otilde" unicode="&#xd5;" 
d="M727 1452q-36 0 -72 23t-64.5 56t-55.5 66.5t-55.5 56.5t-53.5 23q-82 0 -170 -207l-76 31q118 281 260 281q36 0 72 -23.5t64 -56.5t55 -66t55 -56.5t53 -23.5q79 0 170 209l76 -32q-55 -134 -121 -207.5t-137 -73.5zM545 -31q-210 0 -327.5 168t-117.5 475
q0 327 130 507.5t354 180.5q210 0 325.5 -167.5t116.5 -475.5q1 -326 -128 -507t-353 -181zM559 1192q-160 0 -245 -142.5t-85 -410.5q0 -274 86 -417.5t252 -143.5q159 0 244.5 142.5t85.5 410.5q0 273 -87 417t-251 144z" />
    <glyph glyph-name="otilde" unicode="&#xf5;" 
d="M721 1167q-44 0 -89 35.5t-76 77.5t-68.5 77.5t-67.5 35.5q-82 0 -170 -207l-76 31q118 280 260 280q36 0 72 -23t64 -56.5t55 -66.5t55 -56t53 -23q79 0 170 209l76 -33q-55 -134 -121 -207.5t-137 -73.5zM547 -29q-187 0 -305.5 138t-118.5 372q0 118 37 219.5
t99.5 170.5t146 108t176.5 39q188 0 305 -136.5t117 -369.5q0 -119 -36.5 -221.5t-99 -172t-145.5 -108.5t-176 -39zM565 76q141 0 228.5 109t87.5 302q0 200 -88 313t-232 113q-140 0 -226.5 -108t-86.5 -299q0 -202 87.5 -316t229.5 -114z" />
    <glyph glyph-name="Racute" unicode="&#x154;" 
d="M350 1495q88 64 199 171.5t180 193.5l107 -99q-78 -76 -207 -168t-240 -155zM907 -20l-276 509l-299 -8v-481h-127v1266q166 29 291.5 24.5t213 -29.5t142 -75t79.5 -113t25 -143q0 -223 -221 -379l307 -547zM332 1167v-587l315 6q182 124 182 319q0 155 -122.5 228
t-374.5 34z" />
    <glyph glyph-name="racute" unicode="&#x155;" 
d="M416 1214q88 64 199 171.5t180 193.5l106 -98q-78 -77 -207.5 -169.5t-238.5 -154.5zM885 0h-748v96h281q-14 743 -15 793l-262 14l11 88h364q7 -93 10 -166q80 77 201 131t274 70l7 -131q-301 -22 -478 -152q1 -71 4.5 -290t4.5 -357h358z" />
    <glyph glyph-name="Rcaron" unicode="&#x158;" 
d="M557 1434h-4l-350 297l80 77l280 -247l281 245l65 -63zM907 -20l-276 509l-299 -8v-481h-127v1266q166 29 291.5 24.5t213 -29.5t142 -75t79.5 -113t25 -143q0 -223 -221 -379l307 -547zM332 1167v-587l315 6q182 124 182 319q0 155 -122.5 228t-374.5 34z" />
    <glyph glyph-name="rcaron" unicode="&#x159;" 
d="M623 1153h-5l-350 297l80 78l281 -248l280 246l66 -64zM885 0h-748v96h281q-14 743 -15 793l-262 14l11 88h364q7 -93 10 -166q80 77 201 131t274 70l7 -131q-301 -22 -478 -152q1 -71 4.5 -290t4.5 -357h358z" />
    <glyph glyph-name="Rcommaaccent" unicode="&#x156;" 
d="M907 -20l-276 509l-299 -8v-481h-127v1266q166 29 291.5 24.5t213 -29.5t142 -75t79.5 -113t25 -143q0 -223 -221 -379l307 -547zM332 1167v-587l315 6q182 124 182 319q0 155 -122.5 228t-374.5 34zM514 -557q37 70 48 140t1.5 127t-35.5 122q6 0 79.5 3t80.5 3
q20 -100 -7 -209t-106 -207z" />
    <glyph glyph-name="rcommaaccent" unicode="&#x157;" 
d="M885 0h-748v96h281q-14 743 -15 793l-262 14l11 88h364q7 -93 10 -166q80 77 201 131t274 70l7 -131q-301 -22 -478 -152q1 -71 4.5 -290t4.5 -357h358zM426 -537q37 70 48 140.5t1.5 127.5t-35.5 122q6 0 79.5 3t80.5 3q20 -100 -7 -209t-106 -207z" />
    <glyph glyph-name="Sacute" unicode="&#x15a;" 
d="M410 1481q88 64 198.5 171t179.5 193l107 -98q-78 -77 -207.5 -169.5t-238.5 -154.5zM182 111q182 -14 308 -3.5t205 44.5t114 77t35 95q0 51 -36.5 98t-94.5 85t-128.5 76t-141 77.5t-128.5 82t-94.5 97t-36.5 114.5q0 55 23.5 104.5t77.5 94.5t134.5 75.5t202.5 44.5
t273 5l8 -119q-590 37 -590 -182q0 -48 36.5 -93.5t94.5 -83t128.5 -76t141 -79t128.5 -84t94.5 -99.5t36.5 -118q0 -58 -27 -112.5t-88.5 -104t-151 -83.5t-225.5 -50t-301 -6z" />
    <glyph glyph-name="sacute" unicode="&#x15b;" 
d="M373 1202q88 64 199 171.5t180 193.5l106 -99q-78 -77 -207 -168.5t-239 -154.5zM887 997l6 -112q-163 12 -267.5 8.5t-165 -27.5t-83.5 -51.5t-23 -62.5q0 -38 31.5 -71.5t82.5 -60.5t112 -54t122 -56.5t112 -62.5t82.5 -78t31.5 -97q0 -49 -21.5 -92t-74.5 -82.5
t-132.5 -65.5t-205 -37t-283.5 -1l6 112q172 -11 285 -5.5t179.5 31.5t93 56.5t26.5 69.5q0 55 -59 101t-143.5 81.5t-169 73t-143.5 93t-59 124.5q0 46 21 87.5t68 80.5t123.5 63.5t187.5 36.5t260 -2z" />
    <glyph glyph-name="Scaron" unicode="&#x160;" 
d="M618 1419h-4l-350 297l80 78l281 -248l280 246l66 -63zM182 111q182 -14 308 -3.5t205 44.5t114 77t35 95q0 51 -36.5 98t-94.5 85t-128.5 76t-141 77.5t-128.5 82t-94.5 97t-36.5 114.5q0 55 23.5 104.5t77.5 94.5t134.5 75.5t202.5 44.5t273 5l8 -119
q-590 37 -590 -182q0 -48 36.5 -93.5t94.5 -83t128.5 -76t141 -79t128.5 -84t94.5 -99.5t36.5 -118q0 -58 -27 -112.5t-88.5 -104t-151 -83.5t-225.5 -50t-301 -6z" />
    <glyph glyph-name="scaron" unicode="&#x161;" 
d="M582 1141h-4l-351 297l80 78l281 -248l280 245l66 -63zM887 997l6 -112q-163 12 -267.5 8.5t-165 -27.5t-83.5 -51.5t-23 -62.5q0 -38 31.5 -71.5t82.5 -60.5t112 -54t122 -56.5t112 -62.5t82.5 -78t31.5 -97q0 -49 -21.5 -92t-74.5 -82.5t-132.5 -65.5t-205 -37
t-283.5 -1l6 112q172 -11 285 -5.5t179.5 31.5t93 56.5t26.5 69.5q0 55 -59 101t-143.5 81.5t-169 73t-143.5 93t-59 124.5q0 46 21 87.5t68 80.5t123.5 63.5t187.5 36.5t260 -2z" />
    <glyph glyph-name="Scedilla" unicode="&#x15e;" 
d="M375 -451l-10 103q134 22 191.5 46.5t57.5 61.5q0 77 -198 203l14 25q-138 -7 -250 0l2 123q182 -14 308 -3.5t205 44.5t114 77t35 95q0 51 -36.5 98t-94.5 85t-128.5 76t-141 77.5t-128.5 82t-94.5 97t-36.5 114.5q0 55 23.5 104.5t77.5 94.5t134.5 75.5t202.5 44.5
t273 5l8 -119q-590 37 -590 -182q0 -48 36.5 -93.5t94.5 -83t128.5 -76t141 -79t128.5 -84t94.5 -99.5t36.5 -118q0 -120 -115 -217t-346 -129q213 -132 213 -248q0 -73 -89 -124.5t-261 -76.5z" />
    <glyph glyph-name="scedilla" unicode="&#x15f;" 
d="M389 -449l-10 103q134 22 192 46.5t58 61.5q0 76 -199 203l14 27q-112 -6 -233 2l6 112q172 -11 285 -5.5t179.5 31.5t93 56.5t26.5 69.5q0 55 -59 101t-143.5 81.5t-169 73t-143.5 93t-59 124.5q0 46 21 87.5t68 80.5t123.5 63.5t187.5 36.5t260 -2l6 -112
q-163 12 -267.5 8.5t-165 -27.5t-83.5 -51.5t-23 -62.5q0 -38 31.5 -71.5t82.5 -60.5t112 -54t122 -56.5t112 -62.5t82.5 -78t31.5 -97q0 -99 -96 -174t-304 -100q211 -133 211 -246q0 -73 -89 -124.5t-261 -76.5z" />
    <glyph glyph-name="Scommaaccent" unicode="&#x218;" 
d="M182 111q182 -14 308 -3.5t205 44.5t114 77t35 95q0 51 -36.5 98t-94.5 85t-128.5 76t-141 77.5t-128.5 82t-94.5 97t-36.5 114.5q0 55 23.5 104.5t77.5 94.5t134.5 75.5t202.5 44.5t273 5l8 -119q-590 37 -590 -182q0 -48 36.5 -93.5t94.5 -83t128.5 -76t141 -79
t128.5 -84t94.5 -99.5t36.5 -118q0 -58 -27 -112.5t-88.5 -104t-151 -83.5t-225.5 -50t-301 -6zM463 -561q37 70 48 140t1.5 127t-35.5 122q6 0 79.5 3t80.5 3q20 -100 -7 -209t-106 -207z" />
    <glyph glyph-name="scommaaccent" unicode="&#x219;" 
d="M887 997l6 -112q-163 12 -267.5 8.5t-165 -27.5t-83.5 -51.5t-23 -62.5q0 -38 31.5 -71.5t82.5 -60.5t112 -54t122 -56.5t112 -62.5t82.5 -78t31.5 -97q0 -49 -21.5 -92t-74.5 -82.5t-132.5 -65.5t-205 -37t-283.5 -1l6 112q172 -11 285 -5.5t179.5 31.5t93 56.5
t26.5 69.5q0 55 -59 101t-143.5 81.5t-169 73t-143.5 93t-59 124.5q0 46 21 87.5t68 80.5t123.5 63.5t187.5 36.5t260 -2zM446 -559q37 70 48 140t2 127t-35 122q6 0 79.5 3t80.5 3q20 -100 -7 -209t-106 -207z" />
    <glyph glyph-name="Tcaron" unicode="&#x164;" 
d="M571 1415h-4l-350 297l80 78l281 -248l280 246l66 -64zM629 1159v-1159h-129v1159h-414l10 111h942v-111h-409z" />
    <glyph glyph-name="tcaron" unicode="&#x165;" 
d="M727 1210q44 89 57 177t4 155t-34 152l149 4q53 -258 -119 -510zM940 -18q-210 -1 -332 32t-175.5 103.5t-53.5 191.5v584h-209l16 98h193v281l123 12v-293h428v-98h-428v-563q0 -71 20 -114.5t73.5 -72t136.5 -40t218 -13.5z" />
    <glyph glyph-name="Tcommaaccent" unicode="&#x162;" 
d="M629 1159v-1159h-129v1159h-414l10 111h942v-111h-409zM457 -537q37 70 48 140.5t1.5 127.5t-35.5 122q6 0 79.5 3t80.5 3q20 -100 -7 -209t-106 -207z" />
    <glyph glyph-name="tcommaaccent" unicode="&#x163;" 
d="M940 -18q-210 -1 -332 32t-175.5 103.5t-53.5 191.5v584h-209l16 98h193v281l123 12v-293h428v-98h-428v-563q0 -71 20 -114.5t73.5 -72t136.5 -40t218 -13.5zM535 -555q37 70 48 140t1.5 127t-35.5 122q6 0 79.5 3t80.5 3q20 -100 -7 -208.5t-106 -206.5z" />
    <glyph glyph-name="Uacute" unicode="&#xda;" 
d="M367 1477q88 64 198.5 171t179.5 193l107 -98q-78 -77 -207.5 -169.5t-238.5 -154.5zM553 -31q-182 0 -283.5 111.5t-101.5 320.5v869h127v-854q0 -168 71 -251t201 -83q133 0 197.5 73.5t64.5 231.5v883h129v-867q0 -208 -106.5 -321t-298.5 -113z" />
    <glyph glyph-name="uacute" unicode="&#xfa;" 
d="M373 1202q88 64 199 171.5t180 193.5l106 -99q-78 -77 -207 -168.5t-239 -154.5zM829 -2l-10 113q-168 -136 -338 -136q-141 0 -220 84.5t-79 262.5v665l125 10v-637q0 -148 55 -212t164 -64q142 0 289 102q-8 232 -8 805h123q0 -661 14 -987z" />
    <glyph glyph-name="Ubreve" unicode="&#x16c;" 
d="M557 1436q-101 0 -190.5 72t-176.5 221l91 53q80 -133 144.5 -188.5t141.5 -55.5q80 0 147.5 56.5t151.5 179.5l76 -41q-184 -297 -385 -297zM553 -31q-182 0 -283.5 111.5t-101.5 320.5v869h127v-854q0 -168 71 -251t201 -83q133 0 197.5 73.5t64.5 231.5v883h129v-867
q0 -208 -106.5 -321t-298.5 -113z" />
    <glyph glyph-name="ubreve" unicode="&#x16d;" 
d="M561 1161q-101 0 -190 72t-176 221l90 53q80 -133 144.5 -188t141.5 -55q80 0 147.5 56.5t151.5 178.5l76 -41q-184 -297 -385 -297zM829 -2l-10 113q-168 -136 -338 -136q-141 0 -220 84.5t-79 262.5v665l125 10v-637q0 -148 55 -212t164 -64q142 0 289 102
q-8 232 -8 805h123q0 -661 14 -987z" />
    <glyph glyph-name="Ucircumflex" unicode="&#xdb;" 
d="M838 1425l-281 248l-283 -246l-65 62l352 313h6l348 -301zM553 -31q-182 0 -283.5 111.5t-101.5 320.5v869h127v-854q0 -168 71 -251t201 -83q133 0 197.5 73.5t64.5 231.5v883h129v-867q0 -208 -106.5 -321t-298.5 -113z" />
    <glyph glyph-name="ucircumflex" unicode="&#xfb;" 
d="M842 1151l-281 248l-282 -246l-66 61l352 314h6l349 -301zM829 -2l-10 113q-168 -136 -338 -136q-141 0 -220 84.5t-79 262.5v665l125 10v-637q0 -148 55 -212t164 -64q142 0 289 102q-8 232 -8 805h123q0 -661 14 -987z" />
    <glyph glyph-name="Udieresis" unicode="&#xdc;" 
d="M852 1440h-125v270h129zM406 1440h-125l-2 270h131zM553 -31q-182 0 -283.5 111.5t-101.5 320.5v869h127v-854q0 -168 71 -251t201 -83q133 0 197.5 73.5t64.5 231.5v883h129v-867q0 -208 -106.5 -321t-298.5 -113z" />
    <glyph glyph-name="udieresis" unicode="&#xfc;" 
d="M856 1165h-125v271h129zM410 1165h-125l-2 271h131zM829 -2l-10 113q-168 -136 -338 -136q-141 0 -220 84.5t-79 262.5v665l125 10v-637q0 -148 55 -212t164 -64q142 0 289 102q-8 232 -8 805h123q0 -661 14 -987z" />
    <glyph glyph-name="Ugrave" unicode="&#xd9;" 
d="M754 1460l-41 -55q-102 60 -231 151.5t-214 165.5l103 107q74 -86 187 -196t196 -173zM553 -31q-182 0 -283.5 111.5t-101.5 320.5v869h127v-854q0 -168 71 -251t201 -83q133 0 197.5 73.5t64.5 231.5v883h129v-867q0 -208 -106.5 -321t-298.5 -113z" />
    <glyph glyph-name="ugrave" unicode="&#xf9;" 
d="M758 1186l-41 -56q-101 59 -230.5 151.5t-214.5 166.5l103 106q74 -86 187 -195t196 -173zM829 -2l-10 113q-168 -136 -338 -136q-141 0 -220 84.5t-79 262.5v665l125 10v-637q0 -148 55 -212t164 -64q142 0 289 102q-8 232 -8 805h123q0 -661 14 -987z" />
    <glyph glyph-name="Uhungarumlaut" unicode="&#x170;" 
d="M274 1462q58 81 120.5 197.5t101.5 208.5l131 -66q-48 -81 -131 -189t-160 -192zM698 1460q58 83 119 196t98 204l138 -58q-56 -90 -138.5 -197.5t-156.5 -183.5zM553 -31q-182 0 -283.5 111.5t-101.5 320.5v869h127v-854q0 -168 71 -251t201 -83q133 0 197.5 73.5
t64.5 231.5v883h129v-867q0 -208 -106.5 -321t-298.5 -113z" />
    <glyph glyph-name="uhungarumlaut" unicode="&#x171;" 
d="M281 1188q57 81 119.5 196.5t101.5 208.5l131 -65q-48 -81 -131 -189t-160 -192zM705 1186q58 84 119 196.5t98 202.5l137 -57q-56 -90 -138.5 -197.5t-156.5 -183.5zM829 -2l-10 113q-168 -136 -338 -136q-141 0 -220 84.5t-79 262.5v665l125 10v-637q0 -148 55 -212
t164 -64q142 0 289 102q-8 232 -8 805h123q0 -661 14 -987z" />
    <glyph glyph-name="Umacron" unicode="&#x16a;" 
d="M897 1636v-108h-668v108h668zM553 -31q-182 0 -283.5 111.5t-101.5 320.5v869h127v-854q0 -168 71 -251t201 -83q133 0 197.5 73.5t64.5 231.5v883h129v-867q0 -208 -106.5 -321t-298.5 -113z" />
    <glyph glyph-name="umacron" unicode="&#x16b;" 
d="M901 1362v-109h-668v109h668zM829 -2l-10 113q-168 -136 -338 -136q-141 0 -220 84.5t-79 262.5v665l125 10v-637q0 -148 55 -212t164 -64q142 0 289 102q-8 232 -8 805h123q0 -661 14 -987z" />
    <glyph glyph-name="Uogonek" unicode="&#x172;" 
d="M743 -430q-189 18 -270.5 62.5t-81.5 117.5q0 54 38.5 105t129.5 112q-189 5 -290 117t-101 317v869h127v-854q0 -168 71 -251t201 -83q133 0 197.5 73.5t64.5 231.5v883h129v-867q0 -142 -47.5 -232t-160.5 -159q-136 -84 -190 -137.5t-54 -95.5q0 -39 59 -64.5
t191 -40.5z" />
    <glyph glyph-name="uogonek" unicode="&#x173;" 
d="M899 -424q-189 18 -270.5 62t-81.5 116q0 62 64 124t216 142l-8 144q-165 -189 -346 -189q-138 0 -214.5 84.5t-76.5 262.5v665l125 10v-637q0 -148 53.5 -212t157.5 -64q145 0 295 160q-6 255 -6 747h123q0 -661 14 -987q-282 -135 -282 -221q0 -39 58.5 -64.5
t190.5 -40.5z" />
    <glyph glyph-name="Uring" unicode="&#x16e;" 
d="M561 1823q116 0 191 -61t75 -150q0 -95 -73 -156t-193 -61q-117 0 -192.5 60.5t-75.5 148.5q0 96 74 157.5t194 61.5zM561 1739q-78 0 -124 -36.5t-46 -94.5t46.5 -94.5t123.5 -36.5q78 0 124 36.5t46 94.5q0 57 -47 94t-123 37zM553 -31q-182 0 -283.5 111.5
t-101.5 320.5v869h127v-854q0 -168 71 -251t201 -83q133 0 197.5 73.5t64.5 231.5v883h129v-867q0 -208 -106.5 -321t-298.5 -113z" />
    <glyph glyph-name="uring" unicode="&#x16f;" 
d="M567 1548q116 0 191.5 -61t75.5 -150q0 -95 -73.5 -156t-193.5 -61q-117 0 -192.5 60.5t-75.5 148.5q0 96 74 157.5t194 61.5zM567 1464q-78 0 -124 -36.5t-46 -94.5t46.5 -94.5t123.5 -36.5q78 0 124 36.5t46 94.5q0 57 -47 94t-123 37zM829 -2l-10 113
q-168 -136 -338 -136q-141 0 -220 84.5t-79 262.5v665l125 10v-637q0 -148 55 -212t164 -64q142 0 289 102q-8 232 -8 805h123q0 -661 14 -987z" />
    <glyph glyph-name="Wacute" unicode="&#x1e82;" 
d="M377 1477q88 65 199 171.5t180 192.5l106 -98q-78 -77 -207.5 -169.5t-238.5 -154.5zM760 0l-197 713l-192 -713h-150q-60 468 -100 1270h127q10 -244 33 -614t36 -500h9q44 157 112.5 417t85.5 324h84q52 -197 203 -741h6q13 123 36 490.5t34 623.5h121
q-38 -765 -103 -1270h-145z" />
    <glyph glyph-name="wacute" unicode="&#x1e83;" 
d="M369 1198q88 64 199 171.5t180 193.5l106 -99q-78 -77 -207 -168.5t-239 -154.5zM774 0l-211 598l-211 -598h-114q-64 391 -105 991h125q30 -495 61 -823h9q21 56 198 571h82q5 -15 99.5 -282t103.5 -293h6q33 385 60 827h118q-38 -559 -102 -991h-119z" />
    <glyph glyph-name="Wcircumflex" unicode="&#x174;" 
d="M846 1425l-281 248l-282 -246l-66 62l352 313h6l349 -301zM760 0l-197 713l-192 -713h-150q-60 468 -100 1270h127q10 -244 33 -614t36 -500h9q44 157 112.5 417t85.5 324h84q52 -197 203 -741h6q13 123 36 490.5t34 623.5h121q-38 -765 -103 -1270h-145z" />
    <glyph glyph-name="wcircumflex" unicode="&#x175;" 
d="M840 1147l-281 248l-283 -246l-65 61l352 314h6l349 -301zM774 0l-211 598l-211 -598h-114q-64 391 -105 991h125q30 -495 61 -823h9q21 56 198 571h82q5 -15 99.5 -282t103.5 -293h6q33 385 60 827h118q-38 -559 -102 -991h-119z" />
    <glyph glyph-name="Wdieresis" unicode="&#x1e84;" 
d="M860 1440h-125v270h129zM414 1440h-125l-2 270h131zM760 0l-197 713l-192 -713h-150q-60 468 -100 1270h127q10 -244 33 -614t36 -500h9q44 157 112.5 417t85.5 324h84q52 -197 203 -741h6q13 123 36 490.5t34 623.5h121q-38 -765 -103 -1270h-145z" />
    <glyph glyph-name="wdieresis" unicode="&#x1e85;" 
d="M852 1161h-125v271h129zM406 1161h-125l-2 271h131zM774 0l-211 598l-211 -598h-114q-64 391 -105 991h125q30 -495 61 -823h9q21 56 198 571h82q5 -15 99.5 -282t103.5 -293h6q33 385 60 827h118q-38 -559 -102 -991h-119z" />
    <glyph glyph-name="Wgrave" unicode="&#x1e80;" 
d="M762 1460l-41 -55q-102 60 -231 151.5t-214 165.5l103 107q74 -86 187 -196t196 -173zM760 0l-197 713l-192 -713h-150q-60 468 -100 1270h127q10 -244 33 -614t36 -500h9q44 157 112.5 417t85.5 324h84q52 -197 203 -741h6q13 123 36 490.5t34 623.5h121
q-38 -765 -103 -1270h-145z" />
    <glyph glyph-name="wgrave" unicode="&#x1e81;" 
d="M754 1182l-41 -56q-101 59 -230.5 151.5t-214.5 166.5l103 106q74 -86 187 -195t196 -173zM774 0l-211 598l-211 -598h-114q-64 391 -105 991h125q30 -495 61 -823h9q21 56 198 571h82q5 -15 99.5 -282t103.5 -293h6q33 385 60 827h118q-38 -559 -102 -991h-119z" />
    <glyph glyph-name="Yacute" unicode="&#xdd;" 
d="M375 1479q88 65 199 171.5t180 192.5l106 -98q-78 -77 -207.5 -169.5t-238.5 -154.5zM629 0h-129v422l-414 846l137 4l346 -725l340 723h133l-413 -844v-426z" />
    <glyph glyph-name="yacute" unicode="&#xfd;" 
d="M383 1202q88 64 199 171.5t180 193.5l106 -99q-78 -77 -207 -168.5t-239 -154.5zM143 -365l-12 119q134 21 204 49t110 74t81 139h-2q-173 372 -424 973l127 6q171 -426 357 -833h14q42 100 99.5 255.5t122.5 338t85 235.5h119q-169 -473 -346 -901
q-50 -125 -91.5 -198.5t-103 -129t-140 -83t-200.5 -44.5z" />
    <glyph glyph-name="Ycircumflex" unicode="&#x176;" 
d="M844 1427l-281 248l-282 -245l-66 61l352 313h6l349 -301zM629 0h-129v422l-414 846l137 4l346 -725l340 723h133l-413 -844v-426z" />
    <glyph glyph-name="ycircumflex" unicode="&#x177;" 
d="M852 1151l-281 248l-282 -246l-66 61l352 314h7l348 -301zM143 -365l-12 119q134 21 204 49t110 74t81 139h-2q-173 372 -424 973l127 6q171 -426 357 -833h14q42 100 99.5 255.5t122.5 338t85 235.5h119q-169 -473 -346 -901q-50 -125 -91.5 -198.5t-103 -129t-140 -83
t-200.5 -44.5z" />
    <glyph glyph-name="Ydieresis" unicode="&#x178;" 
d="M858 1442h-125v270h129zM412 1442h-125l-2 270h131zM629 0h-129v422l-414 846l137 4l346 -725l340 723h133l-413 -844v-426z" />
    <glyph glyph-name="ydieresis" unicode="&#xff;" 
d="M866 1165h-125v271h129zM420 1165h-125l-2 271h131zM143 -365l-12 119q134 21 204 49t110 74t81 139h-2q-173 372 -424 973l127 6q171 -426 357 -833h14q42 100 99.5 255.5t122.5 338t85 235.5h119q-169 -473 -346 -901q-50 -125 -91.5 -198.5t-103 -129t-140 -83
t-200.5 -44.5z" />
    <glyph glyph-name="Ygrave" unicode="&#x1ef2;" 
d="M760 1462l-41 -55q-102 60 -231 151.5t-214 165.5l103 107q74 -86 187 -196t196 -173zM629 0h-129v422l-414 846l137 4l346 -725l340 723h133l-413 -844v-426z" />
    <glyph glyph-name="ygrave" unicode="&#x1ef3;" 
d="M768 1186l-41 -56q-100 59 -229 151t-215 167l102 106q74 -86 187 -195t196 -173zM143 -365l-12 119q134 21 204 49t110 74t81 139h-2q-173 372 -424 973l127 6q171 -426 357 -833h14q42 100 99.5 255.5t122.5 338t85 235.5h119q-169 -473 -346 -901
q-50 -125 -91.5 -198.5t-103 -129t-140 -83t-200.5 -44.5z" />
    <glyph glyph-name="Zacute" unicode="&#x179;" 
d="M391 1477q88 65 199 171.5t180 192.5l107 -98q-78 -77 -207.5 -169t-239.5 -155zM979 0h-836v111l703 1048l-692 -4l10 115h815v-111l-698 -1048l708 4z" />
    <glyph glyph-name="zacute" unicode="&#x17a;" 
d="M395 1198q88 64 199 171.5t180 193.5l107 -99q-78 -76 -207 -168t-240 -155zM979 0h-821v106l671 777h-663l10 108h795v-104l-672 -778l690 2z" />
    <glyph glyph-name="Zcaron" unicode="&#x17d;" 
d="M598 1415h-4l-350 297l80 78l280 -248l281 246l65 -64zM979 0h-836v111l703 1048l-692 -4l10 115h815v-111l-698 -1048l708 4z" />
    <glyph glyph-name="zcaron" unicode="&#x17e;" 
d="M602 1137h-4l-350 297l80 77l280 -247l281 245l65 -63zM979 0h-821v106l671 777h-663l10 108h795v-104l-672 -778l690 2z" />
    <glyph glyph-name="Zdotaccent" unicode="&#x17b;" 
d="M647 1440h-127l6 270h131zM979 0h-836v111l703 1048l-692 -4l10 115h815v-111l-698 -1048l708 4z" />
    <glyph glyph-name="zdotaccent" unicode="&#x17c;" 
d="M651 1161h-127l6 271h132zM979 0h-821v106l671 777h-663l10 108h795v-104l-672 -778l690 2z" />
    <glyph glyph-name="AE" unicode="&#xc6;" 
d="M530 1159q-87 -254 -223 -665h236v665h-13zM543 0v395h-269q-57 -169 -129 -395h-129q209 630 437 1270h577v-111h-371v-467h320v-98h-320v-483h379l-12 -111h-483z" />
    <glyph glyph-name="ae" unicode="&#xe6;" 
d="M1008 -12q-178 4 -284.5 45t-160.5 121q-46 -72 -116 -119t-156 -47q-94 0 -152.5 64t-58.5 179q0 148 106.5 229t307.5 87q-2 101 -18.5 162t-61 100.5t-111 56.5t-180.5 25l10 108q186 -11 281.5 -52.5t134.5 -137.5q78 195 246 195q133 0 196.5 -140t46.5 -389
l-432 -10q1 -99 18.5 -164t63.5 -112t126 -69t204 -24zM774 897q-159 0 -168 -352l318 8q3 173 -33 258.5t-117 85.5zM334 92q110 0 192 133q-32 87 -32 234q-147 -2 -220 -49t-73 -150q0 -84 36 -126t97 -42z" />
    <glyph glyph-name="AEacute" unicode="&#x1fc;" 
d="M457 1477q88 65 199 171.5t180 192.5l106 -98q-78 -77 -207.5 -169.5t-238.5 -154.5zM530 1159q-87 -254 -223 -665h236v665h-13zM543 0v395h-269q-57 -169 -129 -395h-129q209 630 437 1270h577v-111h-371v-467h320v-98h-320v-483h379l-12 -111h-483z" />
    <glyph glyph-name="aeacute" unicode="&#x1fd;" 
d="M367 1198q87 64 198 171t180 194l107 -99q-78 -77 -207 -168.5t-239 -154.5zM1008 -12q-178 4 -284.5 45t-160.5 121q-46 -72 -116 -119t-156 -47q-94 0 -152.5 64t-58.5 179q0 148 106.5 229t307.5 87q-2 101 -18.5 162t-61 100.5t-111 56.5t-180.5 25l10 108
q186 -11 281.5 -52.5t134.5 -137.5q78 195 246 195q133 0 196.5 -140t46.5 -389l-432 -10q1 -99 18.5 -164t63.5 -112t126 -69t204 -24zM774 897q-159 0 -168 -352l318 8q3 173 -33 258.5t-117 85.5zM334 92q110 0 192 133q-32 87 -32 234q-147 -2 -220 -49t-73 -150
q0 -84 36 -126t97 -42z" />
    <glyph glyph-name="OE" unicode="&#x152;" 
d="M213 633q0 -274 84 -397t266 -123v1044q-179 -3 -264.5 -130t-85.5 -394zM1034 111l-8 -111h-422q-266 0 -393 149.5t-127 460.5q0 321 130 490.5t394 169.5h420v-111h-348v-467h299v-98h-299v-483h354z" />
    <glyph glyph-name="oe" unicode="&#x153;" 
d="M793 903q-66 0 -106 -89t-44 -263q175 5 289 8q3 175 -27.5 259.5t-111.5 84.5zM377 90q76 0 117 102t41 295q0 197 -47.5 304.5t-125.5 107.5q-77 0 -120 -97t-43 -296q0 -214 44 -315t134 -101zM1014 -12q-175 4 -276 58t-148 157q-34 -105 -96 -161t-146 -56
q-129 0 -200.5 123.5t-71.5 365.5q0 253 80 391t217 138q153 0 217 -187q73 187 227 187q257 0 225 -525l-399 -8q2 -102 20 -168t62 -113.5t117 -70t186 -27.5z" />
    <glyph glyph-name="Eth" unicode="&#xd0;" 
d="M1016 662q0 -380 -213.5 -554t-614.5 -110v600h-153v94h153v580q178 28 314.5 16.5t233.5 -54t159.5 -123.5t91.5 -191t29 -258zM313 102q286 -42 430 96t144 439q0 313 -136 441.5t-438 90.5v-477h299l-6 -94h-293v-496z" />
    <glyph glyph-name="eth" unicode="&#xf0;" 
d="M543 -25q-179 0 -298.5 128.5t-119.5 342.5q0 78 18.5 147.5t52 122.5t79.5 96.5t101 70.5t117.5 44.5t128 17t132.5 -10.5q-74 115 -189 221l-272 -147l-35 77l238 129q-92 77 -213 148l75 82q126 -75 244 -172l242 131l33 -78l-209 -113q327 -309 327 -710
q0 -126 -36 -227.5t-98.5 -166t-143.5 -99t-174 -34.5zM559 80q145 0 231.5 109t86.5 305q0 157 -56 305q-186 63 -314 33t-194.5 -128t-66.5 -243q0 -171 87 -276t226 -105z" />
    <glyph glyph-name="Thorn" unicode="&#xde;" 
d="M346 0h-129v1270h129v-211q323 33 499.5 -71.5t176.5 -317.5q0 -109 -47.5 -191.5t-137.5 -136.5t-212 -83.5t-279 -37.5v-221zM895 647q0 173 -142 253.5t-407 43.5v-604q270 -12 409.5 61t139.5 246z" />
    <glyph glyph-name="thorn" unicode="&#xfe;" 
d="M522 86q155 0 257 112.5t102 309.5q0 189 -83 295t-216 106q-132 0 -256 -92v-698q88 -33 196 -33zM326 -336l-123 -12v1778l123 10v-543q141 117 301 117q164 0 270.5 -130t106.5 -345q0 -128 -43.5 -236t-116 -178.5t-167 -110t-196.5 -39.5q-68 0 -155 17v-328z" />
    <glyph glyph-name="schwa" unicode="&#x259;" 
d="M522 -25q-197 0 -296.5 148.5t-71.5 386.5l704 18q-6 132 -67 209.5t-204.5 119t-396.5 48.5l15 111q180 -3 313.5 -26t221.5 -63.5t142 -103.5t76.5 -139t22.5 -176q0 -147 -61.5 -269.5t-167 -193t-230.5 -70.5zM545 82q137 0 220.5 95.5t90.5 266.5l-588 -14
q-3 -161 68 -254.5t209 -93.5z" />
    <glyph glyph-name="germandbls" unicode="&#xdf;" 
d="M662 725q0 -31 21 -61t54.5 -56.5t74 -54t81 -58t74 -63t54.5 -75.5t21 -89q0 -47 -16 -89.5t-54 -81t-94.5 -65t-144 -38.5t-196.5 -4l6 116q101 -12 173 -5t118 31t67 56t21 70q0 45 -39.5 88t-96 80t-112.5 77t-95.5 94t-39.5 114q0 43 23 88.5t56.5 85t66.5 79.5
t56 88t23 95q0 77 -51 130.5t-146 53.5q-126 0 -190 -91t-64 -263v-977h-123v948q0 221 106.5 356.5t297.5 135.5q74 0 132 -23.5t92.5 -62.5t52.5 -85.5t18 -97.5q0 -64 -23.5 -122t-56.5 -100t-66.5 -79.5t-57 -74.5t-23.5 -70z" />
    <glyph glyph-name="zero" unicode="0" 
d="M551 -25q-204 0 -316 170t-112 471q0 309 123 493.5t332 184.5q204 0 316 -170t112 -471q0 -202 -56 -356t-159 -238t-240 -84zM246 639q0 -45 4 -119l614 320q-28 168 -103 258t-194 90q-156 0 -238.5 -143.5t-82.5 -405.5zM563 82q156 0 237 143t81 406q0 40 -4 110
l-613 -319q28 -163 104 -251.5t195 -88.5z" />
    <glyph glyph-name="zero.alt" 
d="M551 -25q-204 0 -316 170t-112 471q0 309 123 493.5t332 184.5q204 0 316 -170t112 -471q0 -202 -56 -356t-159 -238t-240 -84zM567 1188q-156 0 -238.5 -143.5t-82.5 -405.5t81.5 -409.5t235.5 -147.5q156 0 237 143t81 406q0 262 -80.5 409.5t-233.5 147.5z" />
    <glyph glyph-name="one" unicode="1" 
d="M981 0h-782v109h354v940l-332 -21l-2 90l334 43v146l123 10v-1208h317z" />
    <glyph glyph-name="two" unicode="2" 
d="M981 0h-809l-10 102q143 120 232.5 199t178 167.5t135.5 154.5t76 135.5t29 136.5q0 65 -28.5 112.5t-96 85t-189.5 56.5t-298 20l10 117q165 2 292 -16t208 -49.5t132.5 -79.5t72 -101t20.5 -118q0 -77 -28 -153.5t-75 -147.5t-130.5 -157t-172 -165t-221.5 -188h672
v-111z" />
    <glyph glyph-name="three" unicode="3" 
d="M201 -23l-11 117q658 34 658 262q0 217 -553 279v61l514 463h-606v111h731l10 -109l-502 -452q277 -42 401 -131t124 -211q0 -165 -186 -268t-580 -122z" />
    <glyph glyph-name="four" unicode="4" 
d="M1028 279h-149v-279h-117v279h-582q-3 176 35 451t107 556l135 -10q-164 -705 -178 -887h483v461l117 12v-473h161z" />
    <glyph glyph-name="five" unicode="5" 
d="M956 416q0 -174 -188.5 -291t-566.5 -148l-8 117q346 33 496.5 111t150.5 207q0 223 -619 264l41 594h656l-13 -111h-538l-27 -393q616 -56 616 -350z" />
    <glyph glyph-name="six" unicode="6" 
d="M563 -20q-185 0 -297 127.5t-112 361.5q0 546 612 846l53 -111q-248 -109 -375 -253t-159 -330q70 67 151 105t157 45t147.5 -14t124 -66.5t84.5 -118.5t32 -164q0 -128 -58.5 -227t-153 -150t-206.5 -51zM575 86q122 0 204.5 83.5t82.5 221.5q0 113 -54.5 185.5
t-138 91.5t-190 -16t-203.5 -124q-2 -14 -2 -45q0 -193 82.5 -295t218.5 -102z" />
    <glyph glyph-name="seven" unicode="7" 
d="M453 -8l-129 14q204 594 542 1143l-6 6h-684l8 115h805v-107q-331 -563 -536 -1171z" />
    <glyph glyph-name="eight" unicode="8" 
d="M541 -25q-169 0 -276 82.5t-107 216.5q0 224 299 369q-62 36 -105.5 67t-86 72.5t-64 89.5t-21.5 103q0 127 109 223t291 96q159 0 263.5 -80t104.5 -210q0 -113 -74.5 -196.5t-216.5 -152.5q57 -31 95 -54.5t83.5 -58t72 -67.5t45 -76t18.5 -90q0 -142 -119.5 -238
t-310.5 -96zM301 993q0 -48 21.5 -89.5t67 -79.5t86 -64t108.5 -64q243 118 243 283q0 95 -69.5 154t-192.5 59q-124 0 -194 -58.5t-70 -140.5zM561 78q129 0 208 60t79 153q0 29 -10.5 56.5t-23 48.5t-42 47t-48 41t-61.5 41.5t-63 37.5t-70 39q-121 -58 -185 -133.5
t-64 -163.5q0 -102 74 -164.5t206 -62.5z" />
    <glyph glyph-name="nine" unicode="9" 
d="M360 -45l-55 111q252 111 380.5 254.5t160.5 330.5q-70 -67 -151 -105t-157 -45.5t-147.5 13.5t-124 66t-84.5 118t-32 164q0 128 58 227t152 150t205 51q185 0 297.5 -128t112.5 -361q0 -546 -615 -846zM266 879q0 -113 55 -186t139.5 -92t191.5 16.5t204 125.5v43
q0 193 -83 295.5t-220 102.5q-122 0 -204.5 -83.5t-82.5 -221.5z" />
    <glyph glyph-name="period" unicode="." 
d="M657 0h-198l8 205h201z" />
    <glyph glyph-name="comma" unicode="," 
d="M403 -375q108 123 119 263.5t-69 314.5l188 12q98 -350 -174 -612z" />
    <glyph glyph-name="colon" unicode=":" 
d="M670 686h-197l2 207h199zM651 0h-196l6 205h201z" />
    <glyph glyph-name="colon.alt" 
d="M670 877h-197l2 204h199zM664 188h-197l2 205h197z" />
    <glyph glyph-name="semicolon" unicode=";" 
d="M672 686h-197l2 207h199zM416 -375q109 123 120 264t-69 312l188 12q98 -349 -176 -610z" />
    <glyph glyph-name="ellipsis" unicode="&#x2026;" 
d="M1022 0h-180l10 207h180zM647 0h-180l10 207h180zM272 0h-180l10 207h181z" />
    <glyph glyph-name="periodcentered" unicode="&#xb7;" 
d="M662 528h-197l4 203h199z" />
    <glyph glyph-name="ampersand" unicode="&#x26;" 
d="M1047 55l-99 -82q-132 161 -205 244q-160 -242 -372 -242q-132 0 -207.5 81t-75.5 204q0 225 274 399q-67 86 -98 153t-31 132q0 68 29 128t92 112t178 81.5t271 26.5l8 -118q-130 6 -223.5 -9.5t-143 -48.5t-71 -72t-21.5 -88q0 -81 89 -202q55 -74 262 -307
q25 -28 42 -48q89 193 140 428l112 -14q-77 -298 -186 -487q124 -138 236 -271zM395 82q74 0 147 52.5t138 156.5q-229 263 -266 307q-101 -70 -153 -151t-52 -160q0 -92 48 -148.5t138 -56.5z" />
    <glyph glyph-name="exclam" unicode="!" 
d="M612 463h-82q0 133 -11 478t-13 443h158q-4 -83 -26.5 -434t-25.5 -487zM653 0h-190l4 197h192z" />
    <glyph glyph-name="exclamdown" unicode="&#xa1;" 
d="M473 1270h191l-2 -197h-193zM514 807h82q0 -139 13 -499t14 -421h-160q4 75 26 429t25 491z" />
    <glyph glyph-name="question" unicode="?" 
d="M178 1272l12 117q223 -13 381 -43.5t246 -75t127 -95.5t39 -114q0 -52 -32 -104t-80 -93t-105.5 -89.5t-108 -93t-87.5 -103.5t-44 -121l-86 2q4 59 28.5 114t61.5 98.5t80.5 84t86.5 76t78 68t57 67t22 67.5q0 44 -31.5 80t-105 68t-209.5 55t-330 35zM561 0h-184l2 197
h186z" />
    <glyph glyph-name="questiondown" unicode="&#xbf;" 
d="M567 1270h185l-7 -197h-184zM950 -2l-14 -117q-223 13 -381 43.5t-246 75t-127 95.5t-39 114q0 45 24 89.5t62.5 82t85 76t94.5 78.5t89 81.5t69.5 92.5t34.5 104l86 -2q-4 -59 -29 -114t-62 -98.5t-81 -84t-87 -76t-78 -68t-57 -67t-22 -67.5q0 -35 18.5 -64.5t66 -57.5
t122.5 -50t194.5 -39t276.5 -27z" />
    <glyph glyph-name="quotedblleft" unicode="&#x201c;" 
d="M920 1389q-103 -124 -112 -266t69 -312l-183 -16q-96 358 162 616zM498 1389q-103 -124 -114.5 -266.5t62.5 -313.5l-178 -14q-92 358 166 616z" />
    <glyph glyph-name="quotedblright" unicode="&#x201d;" 
d="M233 768q103 125 113.5 265.5t-67.5 312.5l182 16q95 -358 -164 -617zM657 768q102 125 113 266t-63 312l180 16q92 -359 -166 -617z" />
    <glyph glyph-name="quoteleft" unicode="&#x2018;" 
d="M713 1389q-105 -126 -117 -265.5t66 -312.5l-183 -16q-100 351 168 616z" />
    <glyph glyph-name="quoteright" unicode="&#x2019;" 
d="M444 768q105 124 117 265t-65 313l180 16q101 -353 -166 -617z" />
    <glyph glyph-name="quotedblbase" unicode="&#x201e;" 
d="M227 -377q104 124 113.5 266.5t-68.5 313.5l187 12q93 -354 -170 -614zM651 -375q105 122 115.5 264.5t-66.5 313.5l187 12q89 -358 -174 -612z" />
    <glyph glyph-name="quotesinglbase" unicode="&#x201a;" 
d="M436 -375q108 123 119 264.5t-70 313.5l187 12q100 -346 -172 -612z" />
    <glyph glyph-name="guillemotleft" unicode="&#xab;" 
d="M457 -31l-353 465l7 129l350 457l94 -78l-356 -440l354 -461zM936 -31l-352 465l8 129l350 457l92 -78l-356 -442l354 -459z" />
    <glyph glyph-name="guillemotleft.cap" 
d="M457 106l-353 465l7 129l350 457l94 -78l-356 -440l354 -461zM936 106l-352 465l8 129l350 457l92 -78l-356 -442l354 -459z" />
    <glyph glyph-name="guillemotright" unicode="&#xbb;" 
d="M666 -31l-93 78l357 442l-355 459l97 72l352 -465l-6 -127zM186 -31l-92 78l357 442l-357 459l96 72l355 -465l-8 -127z" />
    <glyph glyph-name="guillemotright.cap" 
d="M666 106l-93 78l357 443l-355 458l97 72l352 -465l-6 -127zM186 106l-92 78l357 443l-357 458l96 72l355 -465l-8 -127z" />
    <glyph glyph-name="guilsinglleft" unicode="&#x2039;" 
d="M776 -31l-510 465l8 129l512 461l82 -88l-501 -438l493 -443z" />
    <glyph glyph-name="guilsinglleft.cap" 
d="M776 106l-510 465l8 129l512 461l82 -88l-501 -438l493 -442z" />
    <glyph glyph-name="guilsinglright" unicode="&#x203a;" 
d="M342 -31l-82 86l502 439l-494 444l84 86l510 -465l-8 -129z" />
    <glyph glyph-name="guilsinglright.cap" 
d="M342 106l-82 87l502 438l-494 444l84 86l510 -465l-8 -129z" />
    <glyph glyph-name="hyphen" unicode="-" 
d="M889 647l-6 -106h-637v106h643z" />
    <glyph glyph-name="endash" unicode="&#x2013;" 
d="M979 641l-10 -96h-811v96h821z" />
    <glyph glyph-name="emdash" unicode="&#x2014;" 
d="M1020 641l-10 -96h-895v96h905z" />
    <glyph glyph-name="underscore" unicode="_" 
d="M1055 -102v-103h-985v103h985z" />
    <glyph glyph-name="slash" unicode="/" 
d="M993 1468l105 -49l-955 -1790l-110 39z" />
    <glyph glyph-name="backslash" unicode="\" 
d="M133 1466l963 -1798l-115 -33l-954 1784z" />
    <glyph glyph-name="bar" unicode="|" 
d="M510 1434l115 10v-1815h-115v1805z" />
    <glyph glyph-name="parenleft" unicode="(" 
d="M868 1479l86 -82q-313 -241 -452.5 -452t-139.5 -419q0 -205 137.5 -414.5t446.5 -449.5l-86 -82q-325 261 -472.5 490.5t-147.5 451.5q0 227 149.5 461t478.5 496z" />
    <glyph glyph-name="parenleft.cap" 
d="M868 1575l86 -82q-314 -241 -453 -451.5t-139 -418.5q0 -206 138 -415.5t446 -449.5l-86 -82q-325 261 -472.5 490.5t-147.5 451.5q0 227 149.5 461t478.5 496z" />
    <glyph glyph-name="parenright" unicode=")" 
d="M258 -418l-86 82q313 241 452.5 452t139.5 419q0 204 -138 413t-446 447l86 86q325 -262 473 -491t148 -451q0 -227 -150 -461t-479 -496z" />
    <glyph glyph-name="parenright.cap" 
d="M258 -322l-86 82q313 241 452.5 452t139.5 419q0 204 -138 413t-446 447l86 86q325 -262 473 -491t148 -451q0 -227 -150 -461t-479 -496z" />
    <glyph glyph-name="bracketleft" unicode="[" 
d="M293 -365v1782h657v-104h-538v-1575h544l-12 -103h-651z" />
    <glyph glyph-name="bracketleft.cap" 
d="M293 -266v1782h657v-105h-538v-1575h544l-12 -102h-651z" />
    <glyph glyph-name="bracketright" unicode="]" 
d="M182 -260h537v1573h-537v106h654v-1784h-656z" />
    <glyph glyph-name="bracketright.cap" 
d="M182 -162h537v1573h-537v107h654v-1784h-656z" />
    <glyph glyph-name="braceleft" unicode="{" 
d="M944 -424q-348 112 -483 196t-135 195q0 44 20 87.5t48 77t56 64.5t48 62.5t20 58.5q0 65 -84.5 110t-253.5 54l2 92q346 29 346 142q0 27 -21.5 58t-52 61.5t-61.5 63.5t-52.5 74t-21.5 83q0 108 149 213t484 211l39 -109q-289 -83 -420 -154t-131 -145q0 -31 20.5 -66
t50 -66.5t59.5 -63.5t50.5 -68t20.5 -68q0 -61 -59 -115.5t-181 -86.5q119 -29 176.5 -84t57.5 -119q0 -42 -28.5 -88.5t-62.5 -81.5t-62.5 -81.5t-28.5 -88.5q0 -84 121.5 -153.5t412.5 -159.5z" />
    <glyph glyph-name="braceleft.cap" 
d="M944 -326q-347 112 -482.5 196.5t-135.5 195.5q0 44 20 87.5t48 77t56 64.5t48 62.5t20 58.5q0 65 -84.5 110t-253.5 54l2 92q346 29 346 141q0 27 -21.5 58t-52 61.5t-61.5 63.5t-52.5 74t-21.5 83q0 108 149 213t484 211l39 -109q-289 -83 -420 -154t-131 -145
q0 -38 31.5 -83t69 -81t69 -82t31.5 -85q0 -61 -59 -116t-181 -87q119 -29 176.5 -84t57.5 -119q0 -42 -28.5 -88.5t-62.5 -81.5t-62.5 -81.5t-28.5 -88.5q0 -84 121.5 -153.5t412.5 -159.5z" />
    <glyph glyph-name="braceright" unicode="}" 
d="M180 -422l-41 109q287 83 419 155t132 144q0 38 -31.5 83.5t-69 81t-69 81t-31.5 83.5q0 62 60.5 117.5t185.5 87.5q-123 29 -182 83.5t-59 119.5q0 42 29 88.5t63 81.5t63 81.5t29 88.5q0 84 -122 153t-413 158l43 107q348 -112 482.5 -196t134.5 -195q0 -44 -20 -87.5
t-48.5 -77t-56.5 -65t-48 -63t-20 -58.5q0 -65 84.5 -110t255.5 -54l-4 -92q-346 -26 -346 -141q0 -27 21.5 -58t52 -61.5t61.5 -63.5t52.5 -74.5t21.5 -84.5q0 -107 -148 -211.5t-481 -210.5z" />
    <glyph glyph-name="braceright.cap" 
d="M180 -326l-41 109q287 83 419 155t132 144q0 38 -31.5 83.5t-69 81.5t-69 81.5t-31.5 83.5q0 62 60 117t186 87q-123 29 -182 83.5t-59 119.5q0 42 29 88.5t63 81.5t63 81.5t29 88.5q0 84 -122 153t-413 158l43 107q348 -112 482.5 -196t134.5 -195q0 -44 -20 -87.5
t-48.5 -77t-56.5 -64.5t-48 -62.5t-20 -58.5q0 -65 84.5 -110t255.5 -54l-4 -92q-346 -26 -346 -142q0 -27 21.5 -58t52 -61.5t61.5 -63.5t52.5 -74.5t21.5 -84.5q0 -107 -148 -211.5t-481 -210.5z" />
    <glyph glyph-name="at" unicode="@" 
d="M913 -311q-179 -23 -316.5 4t-227 94.5t-146.5 177.5t-80.5 242t-23.5 299q0 267 69 470t190 311t275 108q334 0 334 -480q0 -427 10 -765l-104 -13q0 3 -3.5 36.5t-4.5 51.5q-46 -53 -92 -78.5t-107 -25.5q-105 0 -171 105t-66 282q0 239 114.5 362.5t308.5 106.5
q-8 158 -64.5 236.5t-168.5 78.5q-183 0 -297.5 -202.5t-114.5 -569.5q0 -156 18.5 -273.5t65 -215.5t123.5 -155.5t197 -80.5t282 -4v-102zM723 223q77 0 151 78v563q-168 38 -239.5 -50t-71.5 -282q0 -151 41 -230t119 -79z" />
    <glyph glyph-name="copyright" unicode="&#xa9;" 
d="M1032 643q0 -290 -131 -459.5t-332 -169.5q-208 0 -341.5 164.5t-133.5 448.5q0 277 141.5 452.5t346.5 175.5q199 0 324.5 -165t125.5 -447zM176 633q0 -250 112.5 -396.5t286.5 -146.5q164 0 269.5 147t105.5 400q0 247 -104 395t-268 148q-173 0 -287.5 -151.5
t-114.5 -395.5zM717 373l-10 -90q-94 -7 -162 16t-106.5 71.5t-56 113t-17.5 149.5q0 73 18 134.5t56.5 112t105 82.5t157.5 39l11 -98q-80 -3 -131.5 -22t-77 -56t-34.5 -79t-9 -105q0 -144 55.5 -209.5t200.5 -58.5z" />
    <glyph glyph-name="published" unicode="&#x2117;" 
d="M1034 643q0 -143 -40 -263t-107 -199.5t-155.5 -123t-186.5 -43.5q-204 0 -328.5 162.5t-124.5 444.5t132 458t333 176q99 0 185.5 -41t151.5 -117t102.5 -193t37.5 -261zM174 625q0 -245 104.5 -390t268.5 -145q82 0 155 37t129 105.5t88.5 173t32.5 231.5
q0 125 -32 229t-86.5 172t-126.5 105t-152 37q-168 0 -274.5 -153t-106.5 -402zM508 285h-88v680q348 49 348 -224q0 -122 -69 -184.5t-189 -73.5q-2 -111 -2 -198zM680 731q0 177 -170 156v-318q170 -20 170 162z" />
    <glyph glyph-name="registered.alt" 
d="M1034 643q0 -143 -40 -263t-107 -199.5t-155.5 -123t-186.5 -43.5q-203 0 -328 163t-125 444q0 282 132 458t333 176q99 0 185.5 -41t151.5 -117t102.5 -193t37.5 -261zM174 625q0 -245 104.5 -390t268.5 -145q82 0 155 37t129 105.5t88.5 173t32.5 231.5q0 125 -32 229
t-86.5 172t-126.5 105t-152 37q-168 0 -274.5 -153t-106.5 -402zM676 276l-90 263l-92 -7v-245h-91v682q177 31 259.5 -21t82.5 -164q0 -116 -88 -204l117 -291zM494 895v-285l102 2q59 62 59 156q0 73 -42 106.5t-119 20.5z" />
    <glyph glyph-name="registered" unicode="&#xae;" 
d="M1044 905q0 -217 -138 -355t-345 -138q-218 0 -347.5 125t-129.5 342q0 219 134.5 355.5t350.5 139.5q207 3 341 -125.5t134 -343.5zM969 899q0 192 -110.5 299t-291.5 107q-179 0 -293 -115t-114 -305t111 -299t288 -109t293.5 114t116.5 308zM702 659l-102 168l-113 -4
v-161h-79v462q169 24 261.5 -13t92.5 -116q0 -78 -98 -139l120 -182zM487 1065v-180l134 2q63 43 63 96q0 46 -52 67.5t-145 14.5z" />
    <glyph glyph-name="servicemark" unicode="&#x2120;" 
d="M743 709l-122 452h-7l2 -559h-84v668h121l121 -439h4l115 439h121v-668h-86l2 559h-6l-119 -452h-62zM82 680q131 -3 190.5 25.5t59.5 72.5q0 30 -26 60t-63 57t-74 56t-63 67.5t-26 79.5q0 35 17.5 67t52 59t94.5 42t137 12l4 -82q-217 3 -217 -86q0 -30 26 -61
t63 -58.5t74 -56.5t63 -68t26 -82q0 -78 -84 -132t-254 -54v82z" />
    <glyph glyph-name="trademark" unicode="&#x2122;" 
d="M287 1190v-584h-88v584h-154l6 80h381v-80h-145zM743 709l-122 452h-7l2 -559h-84v668h121l121 -439h4l115 439h121v-668h-86l2 559h-6l-119 -452h-62z" />
    <glyph glyph-name="asterisk" unicode="*" 
d="M754 606l-195 252l-235 -213l-60 51l182 260l-282 160l33 74l305 -94l65 317l82 -6l6 -324l322 35l18 -74l-307 -106l133 -291z" />
    <glyph glyph-name="asterisk.alt" 
d="M616 1139l-59 8l4 274l125 -20zM467 1112l-39 -51l-235 145l79 97zM715 1020l-21 59l240 131l45 -118zM414 967l22 -60l-239 -129l-45 115zM664 877l41 49l231 -146l-78 -96zM512 850l61 -10l-6 -275l-125 19z" />
    <glyph glyph-name="dagger" unicode="&#x2020;" 
d="M598 248l-76 -43l-18 14l2 764l-367 6l6 101l361 -7v340l125 -2l-4 -340l374 -6l-6 -100l-370 6z" />
    <glyph glyph-name="daggerdbl" unicode="&#x2021;" 
d="M600 143l-76 -41l-20 13v458l-377 7l4 100l373 -6l2 311l-367 6l6 99l361 -7v340l125 -2l-4 -340l374 -6l-6 -98l-370 6l-9 -311l373 -6l-6 -99l-371 6z" />
    <glyph glyph-name="bullet" unicode="&#x2022;" 
d="M809 612q0 -108 -70.5 -174.5t-175.5 -66.5q-106 0 -176 67.5t-70 171.5q0 107 71 173.5t177 66.5t175 -67.5t69 -170.5z" />
    <glyph glyph-name="bullet.alt" 
d="M758 403h-396l5 408h395z" />
    <glyph glyph-name="asciicircum" unicode="^" 
d="M915 336l-358 502l-346 -502l-88 65l418 600l30 7l439 -605z" />
    <glyph glyph-name="asciitilde" unicode="~" 
d="M766 410q-39 0 -80.5 23t-75 58t-69.5 75.5t-65.5 75.5t-62 58t-59.5 23q-50 0 -92.5 -75.5t-89.5 -217.5l-90 35q61 187 128 281t152 94q46 0 95 -32.5t89 -78.5t78 -92t76.5 -78.5t69.5 -32.5q27 0 51.5 21t47.5 64.5t42 90.5t43 117l90 -35q-63 -192 -127.5 -283
t-150.5 -91z" />
    <glyph glyph-name="dollar" unicode="$" 
d="M332 963q0 -57 57.5 -111.5t165.5 -122.5l68 379q-151 -3 -221 -42t-70 -103zM827 330q0 59 -57 112.5t-166 122.5l-74 -407q149 7 223 54.5t74 117.5zM483 -178h-112l41 223q-110 0 -248 18l22 119q140 -23 258 -26l82 456q-73 43 -119.5 74t-98.5 75t-77.5 90t-25.5 95
q0 107 106.5 183.5t321.5 87.5l41 229h112l-45 -227q103 -3 207 -17l-12 -119q-142 20 -227 25l-78 -426q73 -44 120 -76t99 -77t78 -93t26 -98q0 -108 -109 -189.5t-323 -99.5z" />
    <glyph glyph-name="sterling" unicode="&#xa3;" 
d="M967 111v-111h-838v104l158 2l47 472h-193l11 100h192q12 113 29.5 193.5t48.5 150.5t75 115.5t111 81t155 55t208 29.5l8 -127q-108 -7 -179 -18.5t-127.5 -36.5t-88.5 -56.5t-56.5 -90.5t-36.5 -124.5t-24 -171.5h385l-8 -100h-387l-51 -472z" />
    <glyph glyph-name="Euro" unicode="&#x20ac;" 
d="M993 66l-18 -107q-307 37 -471 150.5t-215 304.5h-156v98h137q-6 56 -6 117q0 57 6 110h-137v99h154q29 120 103 209t214.5 157.5t351.5 108.5l23 -121q-190 -29 -309.5 -77t-182.5 -116t-88 -168h478l-7 -92h-485q-4 -66 -4 -102q0 -71 8 -123h481l-6 -90h-456
q45 -147 181.5 -233t403.5 -125z" />
    <glyph glyph-name="yen" unicode="&#xa5;" 
d="M983 246h-358l2 -246h-127l2 246h-365l2 96h363l2 188l-17 29h-348v98h293l-342 611l135 4l344 -633l334 631h127l-336 -613h291v-98h-346l-16 -31l2 -186h360z" />
    <glyph glyph-name="cent" unicode="&#xa2;" 
d="M283 547q0 -111 63.5 -189t206.5 -122l80 622q-99 -14 -169.5 -44t-109 -72.5t-55 -89.5t-16.5 -105zM903 76q-160 6 -270 26l-33 -276h-111l39 301q-362 100 -362 405q0 77 23.5 142.5t75.5 125.5t146.5 104t225.5 65l37 301h110l-39 -289q110 7 218 4l-15 -117
q-125 6 -223 0l-82 -655q120 -25 272 -31z" />
    <glyph glyph-name="colonmonetary" unicode="&#x20a1;" 
d="M688 193l80 892q-106 -16 -176 -38l-72 -805q78 -32 168 -49zM254 633q0 -123 44.5 -209.5t141.5 -144.5l66 737q-133 -59 -192.5 -154.5t-59.5 -228.5zM651 -152l21 234q-80 16 -162 43l-25 -277h-98l31 316q-275 133 -275 450q0 360 359 512l24 293h99l-23 -258
q103 28 170 37l19 221h94l-19 -207q113 10 150 11l8 -115q-93 -3 -176 -12l-80 -918q69 -11 213 -22l-23 -109q-106 6 -194 21l-19 -220h-94z" />
    <glyph glyph-name="naira" unicode="&#x20a6;" 
d="M309 1079v-217h107l-97 217h-10zM580 489l-123 279h-148v-279h271zM831 489v279h-272l123 -279h149zM797 0l-174 395h-314v-395h-106v387h-150v102h150v277h-150v102h150v402h135l180 -408h313l-2 408h105v-402h147v-102h-147v-277h147v-102h-147v-387h-137zM823 172h11
v223h-109z" />
    <glyph glyph-name="peso" unicode="&#x20b1;" 
d="M338 881h496q-14 164 -142.5 243.5t-353.5 46.5v-290zM338 506q458 -19 496 282h-496v-282zM1092 780h-146q-30 -182 -188.5 -278.5t-419.5 -110.5v-391h-119v780h-166v105h166v381q236 43 397 5.5t245.5 -136.5t90.5 -250h140v-105z" />
    <glyph glyph-name="R_p" 
d="M459 -6l-144 500l-110 -7v-487h-111v1266q430 100 430 -336q0 -246 -114 -377l157 -543zM205 1176v-598l131 6q78 121 78 325q0 155 -49 221.5t-160 45.5zM827 80q74 0 106 99t32 321q0 209 -27.5 310t-87.5 101q-53 0 -111 -69q6 -279 6 -742q34 -20 82 -20zM745 -336
l-108 -12v346q0 700 -8 987l100 8l4 -73q76 92 162 92q176 0 176 -463q0 -296 -68 -434t-200 -138q-31 0 -58 9v-322z" />
    <glyph glyph-name="rupee" unicode="&#x20a8;" 
d="M530 -6l-147 502l-109 -7v-489h-114v1266q97 24 170.5 18.5t124.5 -30.5t82.5 -73t46 -109.5t14.5 -141.5q0 -235 -119 -375l162 -545zM274 1174v-592l132 6q79 124 79 323q0 153 -50 218.5t-161 44.5zM1038 1001l2 -106q-241 29 -241 -139q0 -49 27 -96.5t65 -88.5
t76 -84.5t65 -102.5t27 -124q0 -56 -19 -105t-59.5 -91t-115 -62.5t-175.5 -11.5v108q139 -16 198.5 28t59.5 124q0 51 -27 100.5t-65 91.5t-76 85.5t-65 101t-27 121.5q0 51 19 98t58.5 86.5t110 58t162.5 8.5z" />
    <glyph glyph-name="rupeeindia" unicode="&#x20b9;" 
d="M971 39l-103 -66q-133 110 -204 165.5t-158 113t-162.5 90.5t-173.5 61l25 95q435 40 477 276h-496v94h496q-20 116 -142.5 194.5t-357.5 102.5l8 105h826l-7 -107h-481q122 -41 194.5 -118.5t84.5 -176.5h200v-94h-202q-24 -120 -140.5 -207.5t-306.5 -120.5
q127 -39 259.5 -128t363.5 -279z" />
    <glyph glyph-name="ruble" unicode="&#x20bd;" 
d="M897 930q0 141 -129.5 204t-366.5 35v-510q263 3 379.5 62t116.5 209zM854 260h-453v-260h-125v260h-186v98h186v203h-186v98h186v607q358 52 552 -32.5t194 -289.5q0 -188 -156.5 -279t-464.5 -102v-207h463z" />
    <glyph glyph-name="numbersign" unicode="#" 
d="M688 481l31 312h-281l-30 -312h280zM639 0l37 375h-281l-37 -375h-94l37 375h-211l12 106h211l31 312h-213l12 106h211l37 371h94l-36 -371h280l37 371h94l-37 -371h213l-10 -106h-213l-31 -312h213l-10 -106h-215l-37 -375h-94z" />
    <glyph glyph-name="numero" unicode="&#x2116;" 
d="M844 471q-91 0 -146 98.5t-55 288.5q0 196 65 308t164 112q91 0 145 -99t54 -288q0 -198 -64 -309t-163 -111zM453 0l-252 999h-4l6 -999h-107v1270h121l242 -946h4l-4 946l104 -2v-1270zM862 569q47 0 76 80.5t29 218.5q0 143 -32.5 226.5t-80.5 83.5q-47 0 -75.5 -79
t-28.5 -218q0 -145 31.5 -228.5t80.5 -83.5zM1055 260h-398v96h398v-96z" />
    <glyph glyph-name="paragraph" unicode="&#xb6;" 
d="M838 326v841q-110 0 -199 -12v-807q98 -19 199 -22zM225 743q0 -126 82.5 -221.5t233.5 -146.5v755q-155 -46 -235.5 -148.5t-80.5 -238.5zM639 -221l-111 -15v494q-201 56 -312.5 177.5t-111.5 287.5q0 252 227.5 410t618.5 157v-1458l-112 -14v403q-108 0 -199 15v-457
z" />
    <glyph glyph-name="section" unicode="&#xa7;" 
d="M256 571q0 -35 23.5 -64.5t70.5 -56t91.5 -45.5t115 -47t111.5 -47q90 36 145 83.5t55 99.5q0 34 -23 63.5t-71 56t-91 45.5t-115 47t-111 46q-89 -36 -145 -83.5t-56 -97.5zM895 84q0 -46 -22.5 -89.5t-76 -85t-132 -71.5t-200 -46t-271.5 -11l8 110q128 -5 228.5 4
t163 26.5t104 43t57.5 52t16 55.5q0 36 -34.5 69t-90 59t-122.5 52t-133.5 55.5t-122 62t-90 78t-34.5 97.5q0 75 63 140t165 110q-142 81 -142 184q0 47 22.5 91t74.5 85.5t129 71.5t195.5 46t264.5 11l7 -113q-107 4 -195.5 -1t-149 -18t-104.5 -30t-69 -39t-36.5 -44
t-11.5 -46q0 -37 34.5 -69.5t90 -59t122 -52.5t133.5 -55t122.5 -61t90 -77t34.5 -97q0 -75 -63.5 -141t-167.5 -111q143 -80 143 -186z" />
    <glyph glyph-name="ordfeminine" unicode="&#xaa;" 
d="M508 590q133 0 252 92q-4 98 -4 186q-414 45 -414 -151q0 -63 45 -95t121 -32zM774 518q-4 41 -10 94q-124 -108 -281 -108q-110 0 -178.5 51t-68.5 141q0 128 133.5 200.5t384.5 55.5q-10 128 -106 174.5t-353 57.5l10 96q165 -6 268.5 -26.5t169.5 -66t91.5 -114
t25.5 -176.5q0 -106 10 -371zM229 342h662v-90h-662v90z" />
    <glyph glyph-name="ordmasculine" unicode="&#xba;" 
d="M209 885q0 176 106 287.5t260 111.5q152 0 248.5 -102t96.5 -277q0 -178 -107 -289.5t-264 -111.5q-151 0 -245.5 102t-94.5 279zM563 594q116 0 183 77t67 218q0 148 -67 227.5t-185 79.5q-114 0 -180 -77.5t-66 -217.5q0 -149 66.5 -228t181.5 -79zM899 252h-668v90
h668v-90z" />
    <glyph glyph-name="degree" unicode="&#xb0;" 
d="M909 1024q0 -162 -106 -264.5t-252 -102.5q-144 0 -239 96.5t-95 254.5q0 162 106 264t252 102q144 0 239 -95.5t95 -254.5zM803 1026q3 107 -64.5 179.5t-173.5 72.5q-104 0 -172 -72.5t-69 -191.5q-3 -111 64 -185.5t173 -74.5q103 0 172 75t70 197z" />
    <glyph glyph-name="percent" unicode="%" 
d="M305 1298q83 0 133.5 -73.5t50.5 -200.5q0 -132 -56.5 -211.5t-143.5 -79.5q-86 0 -137.5 73t-51.5 200q0 133 57 212.5t148 79.5zM897 1290l88 -49l-754 -1274l-90 53zM297 1198q-43 0 -67.5 -48.5t-24.5 -135.5q0 -88 23.5 -136.5t64.5 -48.5q44 0 69 49t25 138
t-23.5 135.5t-66.5 46.5zM823 -25q-84 0 -135 73.5t-51 201.5q0 133 57 213t146 80q84 0 135 -73.5t51 -201.5q0 -133 -57.5 -213t-145.5 -80zM829 74q43 0 68 49t25 137t-23 135t-65 47q-45 0 -70 -48.5t-25 -135.5q0 -88 23.5 -136t66.5 -48z" />
    <glyph glyph-name="quotedbl" unicode="&#x22;" 
d="M811 768h-80l-10 596h160l6 -70zM377 768h-82l-10 596h159l9 -70z" />
    <glyph glyph-name="quotesingle" unicode="'" 
d="M604 743h-86l-8 621h174l8 -74z" />
    <glyph glyph-name="plus" unicode="+" 
d="M993 541h-372v-396h-113v396h-377v106h377v393h113v-393h374z" />
    <glyph glyph-name="minus" unicode="&#x2212;" 
d="M958 647l-2 -106h-788v106h790z" />
    <glyph glyph-name="divide" unicode="&#xf7;" 
d="M637 879h-152l2 165h152zM995 647l-2 -106h-862v106h864zM637 141h-152l2 168h152z" />
    <glyph glyph-name="equal" unicode="=" 
d="M958 883l-2 -107h-788v107h790zM958 426l-2 -107h-788v107h790z" />
    <glyph glyph-name="multiply" unicode="&#xd7;" 
d="M870 201l-309 313l-301 -305l-76 74l301 307l-309 315l78 80l309 -315l303 309l76 -78l-303 -307l311 -315z" />
    <glyph glyph-name="less" unicode="&#x3c;" 
d="M856 1219l74 -89l-627 -528v-16l637 -541l-74 -86l-682 580v108z" />
    <glyph glyph-name="greater" unicode="&#x3e;" 
d="M258 -41l-72 86l639 541v16l-626 528l73 89l670 -570v-110z" />
    <glyph glyph-name="plusminus" unicode="&#xb1;" 
d="M973 145h-821v107h356v360h-363v107h363v379h113v-379h360l-2 -107h-358v-360h354z" />
    <glyph glyph-name="notequal" unicode="&#x2260;" 
d="M956 319h-442l-111 -296l-96 30l99 266h-238v107h276l131 350h-407v107h446l109 295l96 -33l-96 -262h235l-2 -107h-274l-129 -350h405z" />
    <glyph glyph-name="lessequal" unicode="&#x2264;" 
d="M309 717v-17l615 -340l-43 -98l-699 387l2 107l684 440l54 -94zM965 147v-106h-801v106h801z" />
    <glyph glyph-name="greaterequal" unicode="&#x2265;" 
d="M817 717l-612 385l53 94l684 -440l4 -107l-698 -387l-45 98l614 340v17zM164 147h801v-106h-801v106z" />
    <glyph glyph-name="approxequal" unicode="&#x2248;" 
d="M745 637q-45 0 -89.5 24.5t-79.5 59.5t-68 69.5t-67 59t-64 24.5q-32 0 -64 -33t-55.5 -77.5t-56.5 -120.5l-80 33q59 156 121 229.5t143 73.5q45 0 89 -24.5t79 -59t67.5 -69t65.5 -59t62 -24.5q46 0 85 57t85 167l81 -33q-59 -156 -117 -226.5t-137 -70.5zM745 211
q-45 0 -89.5 24.5t-79.5 59.5t-68 70t-67 59.5t-64 24.5q-47 0 -86.5 -58.5t-87.5 -173.5l-82 33q59 156 121 229.5t143 73.5q45 0 89 -24.5t79 -59.5t67.5 -70t65.5 -59.5t62 -24.5q46 0 84.5 56t87.5 170l79 -33q-59 -156 -117 -226.5t-137 -70.5z" />
    <glyph glyph-name="mu" unicode="&#xb5;" 
d="M305 -336l-123 -12v1335l125 10v-653q0 -137 55.5 -198.5t163.5 -61.5q145 0 289 100q-8 232 -8 807h123q0 -661 14 -987l-115 -6l-8 111q-155 -132 -319 -132q-137 0 -205 80z" />
    <glyph glyph-name="Omega" unicode="&#x2126;" 
d="M457 10l-4 -10h-359v102h228q-168 374 -168 670q0 241 109.5 382.5t307.5 141.5q194 0 300 -140t104 -380q0 -290 -168 -674h227v-102h-360l-2 10q180 424 180 748q0 201 -74.5 311.5t-214.5 110.5t-215.5 -110.5t-75.5 -309.5q0 -312 185 -750z" />
    <glyph glyph-name="onehalf" unicode="&#xbd;" 
d="M883 870h-600v91h266v528l-254 -19l-2 76l256 35v125l102 8v-753h240zM127 580v88h872v-88h-872zM866 -430h-592l-10 86q103 73 167.5 120.5t128.5 101t98.5 93t55.5 81.5t21 81q0 40 -21 69.5t-70.5 52.5t-137 35.5t-213.5 14.5l8 90q537 5 537 -235q0 -59 -27 -116
t-87 -119t-134 -121.5t-189 -141.5h465v-92z" />
    <glyph glyph-name="onethird" unicode="&#x2153;" 
d="M883 870h-600v91h266v528l-254 -19l-2 76l256 35v125l102 8v-753h240zM127 580v88h872v-88h-872zM295 -451l-8 97q473 16 473 149q0 122 -393 164l2 53l348 273v4l-420 -2v92h539l8 -86l-355 -273q371 -52 371 -221q0 -51 -31 -93t-96 -76.5t-176.5 -55.5t-261.5 -25z
" />
    <glyph glyph-name="twothirds" unicode="&#x2154;" 
d="M866 870h-592l-10 86q257 181 364 283t107 195q0 40 -21 69.5t-70.5 52.5t-137 35.5t-213.5 14.5l8 90q537 5 537 -236q0 -59 -27 -115.5t-87 -118.5t-134 -121.5t-189 -141.5h465v-93zM127 580v88h872v-88h-872zM295 -451l-8 97q473 16 473 149q0 122 -393 164l2 53
l348 273v4l-420 -2v92h539l8 -86l-355 -273q371 -52 371 -221q0 -51 -31 -93t-96 -76.5t-176.5 -55.5t-261.5 -25z" />
    <glyph glyph-name="onequarter" unicode="&#xbc;" 
d="M883 870h-600v91h266v528l-254 -19l-2 76l256 35v125l102 8v-753h240zM127 580v88h872v-88h-872zM907 -258l-112 2l2 -174h-99l2 176l-421 -4q-2 116 25.5 292.5t76.5 358.5l113 -8q-34 -115 -78.5 -304.5t-48.5 -248.5h333l-2 281l99 8l-2 -289h120z" />
    <glyph glyph-name="threequarters" unicode="&#xbe;" 
d="M295 850l-8 96q473 16 473 150q0 122 -393 164l2 53l348 272v4l-420 -2v92h539l8 -86l-355 -272q371 -52 371 -221q0 -51 -31 -93t-96 -76.5t-176.5 -55.5t-261.5 -25zM127 580v88h872v-88h-872zM907 -258l-112 2l2 -174h-99l2 176l-421 -4q-2 116 25.5 292.5t76.5 358.5
l113 -8q-34 -115 -78.5 -304.5t-48.5 -248.5h333l-2 281l99 8l-2 -289h120z" />
    <glyph glyph-name="onefifth" unicode="&#x2155;" 
d="M883 870h-600v91h266v528l-254 -19l-2 76l256 35v125l102 8v-753h240zM127 580v88h872v-88h-872zM854 -168q0 -113 -138.5 -187.5t-418.5 -95.5l-8 97q248 20 357.5 65.5t109.5 118.5q0 130 -447 156l31 393h487l-8 -92h-395l-16 -226q446 -35 446 -229z" />
    <glyph glyph-name="twofifths" unicode="&#x2156;" 
d="M866 870h-592l-10 86q257 181 364 283t107 195q0 40 -21 69.5t-70.5 52.5t-137 35.5t-213.5 14.5l8 90q537 5 537 -236q0 -59 -27 -115.5t-87 -118.5t-134 -121.5t-189 -141.5h465v-93zM127 580v88h872v-88h-872zM854 -168q0 -113 -138.5 -187.5t-418.5 -95.5l-8 97
q248 20 357.5 65.5t109.5 118.5q0 130 -447 156l31 393h487l-8 -92h-395l-16 -226q446 -35 446 -229z" />
    <glyph glyph-name="threefifths" unicode="&#x2157;" 
d="M295 850l-8 96q473 16 473 150q0 122 -393 164l2 53l348 272v4l-420 -2v92h539l8 -86l-355 -272q371 -52 371 -221q0 -51 -31 -93t-96 -76.5t-176.5 -55.5t-261.5 -25zM127 580v88h872v-88h-872zM854 -168q0 -113 -138.5 -187.5t-418.5 -95.5l-8 97q248 20 357.5 65.5
t109.5 118.5q0 130 -447 156l31 393h487l-8 -92h-395l-16 -226q446 -35 446 -229z" />
    <glyph glyph-name="fourfifths" unicode="&#x2158;" 
d="M907 1042l-112 2l2 -174h-99l2 177l-421 -5q-2 116 25.5 293t76.5 359l113 -8q-34 -115 -78.5 -304.5t-48.5 -248.5h333l-2 280l99 8l-2 -288h120zM127 580v88h872v-88h-872zM854 -168q0 -113 -138.5 -187.5t-418.5 -95.5l-8 97q248 20 357.5 65.5t109.5 118.5
q0 130 -447 156l31 393h487l-8 -92h-395l-16 -226q446 -35 446 -229z" />
    <glyph glyph-name="onesixth" unicode="&#x2159;" 
d="M883 870h-600v91h266v528l-254 -19l-2 76l256 35v125l102 8v-753h240zM127 580v88h872v-88h-872zM563 -449q-137 0 -220 84.5t-83 237.5q0 174 114 310.5t343 226.5l37 -88q-187 -73 -278.5 -159.5t-110.5 -203.5q59 53 129.5 80t135.5 23.5t119.5 -29t87.5 -79
t33 -124.5q0 -123 -89.5 -201t-217.5 -78zM575 -360q83 0 140 49t57 131q0 66 -38.5 108t-97.5 53.5t-134.5 -9.5t-143.5 -74v-11q0 -122 59 -184.5t158 -62.5z" />
    <glyph glyph-name="fivesixths" unicode="&#x215a;" 
d="M854 1133q0 -113 -138.5 -187.5t-418.5 -95.5l-8 96q248 20 357.5 65.5t109.5 118.5q0 130 -447 156l31 393h487l-8 -92h-395l-16 -225q446 -35 446 -229zM127 580v88h872v-88h-872zM563 -449q-137 0 -220 84.5t-83 237.5q0 174 114 310.5t343 226.5l37 -88
q-187 -73 -278.5 -159.5t-110.5 -203.5q59 53 129.5 80t135.5 23.5t119.5 -29t87.5 -79t33 -124.5q0 -123 -89.5 -201t-217.5 -78zM575 -360q83 0 140 49t57 131q0 66 -38.5 108t-97.5 53.5t-134.5 -9.5t-143.5 -74v-11q0 -122 59 -184.5t158 -62.5z" />
    <glyph glyph-name="oneeighth" unicode="&#x215b;" 
d="M883 870h-600v91h266v528l-254 -19l-2 76l256 35v125l102 8v-753h240zM127 580v88h872v-88h-872zM547 -451q-129 0 -207 54.5t-78 142.5q0 143 213 229q-92 47 -144 96t-52 115q0 81 80.5 145t215.5 64q119 0 197 -53t78 -139q0 -130 -203 -219q103 -50 160 -99.5
t57 -117.5q0 -90 -87.5 -154t-229.5 -64zM383 197q0 -53 50.5 -93.5t146.5 -87.5q170 72 170 170q0 57 -49.5 92t-135.5 35q-85 0 -133.5 -33.5t-48.5 -82.5zM559 -369q90 0 144.5 36.5t54.5 90.5q0 23 -13 44.5t-29.5 38t-50 37t-56 32t-66.5 33.5q-178 -68 -178 -174
q0 -60 52 -99t142 -39z" />
    <glyph glyph-name="threeeighths" unicode="&#x215c;" 
d="M295 850l-8 96q473 16 473 150q0 122 -393 164l2 53l348 272v4l-420 -2v92h539l8 -86l-355 -272q371 -52 371 -221q0 -51 -31 -93t-96 -76.5t-176.5 -55.5t-261.5 -25zM127 580v88h872v-88h-872zM547 -451q-129 0 -207 54.5t-78 142.5q0 143 213 229q-92 47 -144 96
t-52 115q0 81 80.5 145t215.5 64q119 0 197 -53t78 -139q0 -130 -203 -219q103 -50 160 -99.5t57 -117.5q0 -90 -87.5 -154t-229.5 -64zM383 197q0 -53 50.5 -93.5t146.5 -87.5q170 72 170 170q0 57 -49.5 92t-135.5 35q-85 0 -133.5 -33.5t-48.5 -82.5zM559 -369
q90 0 144.5 36.5t54.5 90.5q0 23 -13 44.5t-29.5 38t-50 37t-56 32t-66.5 33.5q-178 -68 -178 -174q0 -60 52 -99t142 -39z" />
    <glyph glyph-name="fiveeighths" unicode="&#x215d;" 
d="M854 1133q0 -113 -138.5 -187.5t-418.5 -95.5l-8 96q248 20 357.5 65.5t109.5 118.5q0 130 -447 156l31 393h487l-8 -92h-395l-16 -225q446 -35 446 -229zM127 580v88h872v-88h-872zM547 -451q-129 0 -207 54.5t-78 142.5q0 143 213 229q-92 47 -144 96t-52 115
q0 81 80.5 145t215.5 64q119 0 197 -53t78 -139q0 -130 -203 -219q103 -50 160 -99.5t57 -117.5q0 -90 -87.5 -154t-229.5 -64zM383 197q0 -53 50.5 -93.5t146.5 -87.5q170 72 170 170q0 57 -49.5 92t-135.5 35q-85 0 -133.5 -33.5t-48.5 -82.5zM559 -369q90 0 144.5 36.5
t54.5 90.5q0 23 -13 44.5t-29.5 38t-50 37t-56 32t-66.5 33.5q-178 -68 -178 -174q0 -60 52 -99t142 -39z" />
    <glyph glyph-name="seveneighths" unicode="&#x215e;" 
d="M492 858l-107 12q138 360 385 711l-2 6h-492l9 92h592v-88q-246 -365 -385 -733zM127 580v88h872v-88h-872zM547 -451q-129 0 -207 54.5t-78 142.5q0 143 213 229q-92 47 -144 96t-52 115q0 81 80.5 145t215.5 64q119 0 197 -53t78 -139q0 -130 -203 -219
q103 -50 160 -99.5t57 -117.5q0 -90 -87.5 -154t-229.5 -64zM383 197q0 -53 50.5 -93.5t146.5 -87.5q170 72 170 170q0 57 -49.5 92t-135.5 35q-85 0 -133.5 -33.5t-48.5 -82.5zM559 -369q90 0 144.5 36.5t54.5 90.5q0 23 -13 44.5t-29.5 38t-50 37t-56 32t-66.5 33.5
q-178 -68 -178 -174q0 -60 52 -99t142 -39z" />
    <glyph glyph-name="zero.sup" unicode="&#x2070;" 
d="M551 645q-150 0 -232.5 109.5t-82.5 302.5q0 195 91.5 314.5t245.5 119.5q150 0 234 -109.5t84 -300.5q0 -196 -93 -316t-247 -120zM563 1403q-111 0 -167 -86t-56 -244q0 -160 57.5 -249t165.5 -89q111 0 167 85.5t56 242.5q0 161 -57.5 250.5t-165.5 89.5z" />
    <glyph glyph-name="one.sup" unicode="&#xb9;" 
d="M883 666h-600v90h266v528l-254 -18l-2 75l256 35v125l102 8v-753h240z" />
    <glyph glyph-name="two.sup" unicode="&#xb2;" 
d="M866 666h-592l-10 86q103 73 167.5 120.5t128.5 101t98.5 93t55.5 81.5t21 81q0 40 -21 69.5t-70.5 52.5t-137 35.5t-213.5 14.5l8 90q537 5 537 -236q0 -59 -27 -115.5t-87 -118.5t-134 -121.5t-189 -141.5h465v-92z" />
    <glyph glyph-name="three.sup" unicode="&#xb3;" 
d="M295 645l-8 96q473 16 473 150q0 122 -393 164l2 53l348 272v4l-420 -2v93h539l8 -86l-355 -273q371 -52 371 -221q0 -51 -31 -93t-96 -76.5t-176.5 -55.5t-261.5 -25z" />
    <glyph glyph-name="four.sup" unicode="&#x2074;" 
d="M907 838l-112 2l2 -174h-99l2 176l-421 -4q-2 116 25.5 292.5t76.5 358.5l113 -8q-34 -115 -78.5 -304.5t-48.5 -248.5h333l-2 280l99 9l-2 -289h120z" />
    <glyph glyph-name="five.sup" unicode="&#x2075;" 
d="M854 928q0 -113 -138.5 -187.5t-418.5 -95.5l-8 96q168 13 273 39t149.5 62t44.5 84q0 129 -447 155l31 394h487l-8 -93h-395l-16 -225q446 -35 446 -229z" />
    <glyph glyph-name="six.sup" unicode="&#x2076;" 
d="M563 647q-137 0 -220 84.5t-83 237.5q0 174 114 310t343 226l37 -88q-187 -73 -278.5 -159t-110.5 -203q59 53 129.5 80t135.5 23.5t119.5 -29t87.5 -79t33 -124.5q0 -123 -89.5 -201t-217.5 -78zM575 735q83 0 140 49t57 131q0 66 -38.5 108t-97.5 53.5t-134.5 -9.5
t-143.5 -74v-10q0 -122 59 -185t158 -63z" />
    <glyph glyph-name="seven.sup" unicode="&#x2077;" 
d="M492 653l-107 13q138 357 385 710l-2 6h-492l9 93h592v-89q-246 -365 -385 -733z" />
    <glyph glyph-name="eight.sup" unicode="&#x2078;" 
d="M547 645q-129 0 -207 54.5t-78 142.5q0 143 213 229q-92 47 -144 96t-52 115q0 81 80.5 145t215.5 64q119 0 197 -53.5t78 -139.5q0 -130 -203 -219q103 -50 160 -99.5t57 -117.5q0 -90 -87.5 -153.5t-229.5 -63.5zM383 1292q0 -28 15 -53t46 -48t60 -39.5t76 -39.5
q170 72 170 170q0 57 -49.5 92t-135.5 35q-85 0 -133.5 -34t-48.5 -83zM559 727q90 0 144.5 36.5t54.5 90.5q0 23 -13 44.5t-29 37.5t-50.5 36.5t-56 32t-66.5 33.5q-178 -68 -178 -174q0 -60 52 -98.5t142 -38.5z" />
    <glyph glyph-name="nine.sup" unicode="&#x2079;" 
d="M410 631l-39 90q186 69 277 154.5t112 201.5q-74 -64 -164 -87t-164.5 -5t-125 77.5t-50.5 147.5q0 123 89.5 201t217.5 78q138 0 221.5 -84t83.5 -238q0 -354 -458 -536zM354 1219q0 -87 63.5 -131.5t160.5 -30.5t188 84v14q0 121 -58 184.5t-155 63.5q-82 0 -140.5 -51
t-58.5 -133z" />
    <glyph glyph-name="zero.inf" unicode="&#x2080;" 
d="M551 -328q-150 0 -232.5 109.5t-82.5 302.5q0 195 91.5 314.5t245.5 119.5q150 0 234 -109t84 -300q0 -196 -93 -316.5t-247 -120.5zM563 430q-111 0 -167 -86t-56 -244q0 -160 57.5 -249t165.5 -89q111 0 167 85.5t56 242.5q0 161 -57.5 250.5t-165.5 89.5z" />
    <glyph glyph-name="one.inf" unicode="&#x2081;" 
d="M883 -307h-600v90h266v528l-254 -18l-2 76l256 34v125l102 9v-754h240z" />
    <glyph glyph-name="two.inf" unicode="&#x2082;" 
d="M866 -307h-592l-10 86q103 73 167.5 120.5t128.5 101t98.5 93t55.5 81.5t21 81q0 40 -21 69.5t-70.5 52.5t-137 35.5t-213.5 14.5l8 90q537 5 537 -235q0 -59 -27 -116t-87 -119t-134 -121.5t-189 -141.5h465v-92z" />
    <glyph glyph-name="three.inf" unicode="&#x2083;" 
d="M295 -328l-8 97q473 16 473 149q0 122 -393 164l2 53l348 273v4l-420 -2v92h539l8 -86l-355 -273q371 -52 371 -221q0 -51 -31 -93t-96 -76.5t-176.5 -55.5t-261.5 -25z" />
    <glyph glyph-name="four.inf" unicode="&#x2084;" 
d="M907 -135l-112 2l2 -174h-99l2 176l-421 -4q-2 116 25.5 292.5t76.5 358.5l113 -8q-34 -115 -78.5 -304.5t-48.5 -248.5h333l-2 281l99 8l-2 -289h120z" />
    <glyph glyph-name="five.inf" unicode="&#x2085;" 
d="M854 -45q0 -113 -138.5 -187.5t-418.5 -95.5l-8 97q248 20 357.5 65.5t109.5 118.5q0 130 -447 156l31 393h487l-8 -92h-395l-16 -226q446 -35 446 -229z" />
    <glyph glyph-name="six.inf" unicode="&#x2086;" 
d="M563 -326q-137 0 -220 84.5t-83 237.5q0 174 114 310t343 226l37 -88q-187 -73 -278.5 -159t-110.5 -203q59 53 129.5 80t135.5 23.5t119.5 -29t87.5 -79t33 -124.5q0 -123 -89.5 -201t-217.5 -78zM575 -238q83 0 140 49.5t57 131.5q0 66 -38.5 108t-97.5 53t-134.5 -10
t-143.5 -74v-10q0 -122 59 -185t158 -63z" />
    <glyph glyph-name="seven.inf" unicode="&#x2087;" 
d="M492 -319l-107 12q138 357 385 710l-2 7h-492l9 92h592v-88q-246 -365 -385 -733z" />
    <glyph glyph-name="eight.inf" unicode="&#x2088;" 
d="M547 -328q-129 0 -207 54.5t-78 142.5q0 143 213 229q-92 47 -144 96t-52 115q0 81 80.5 145t215.5 64q119 0 197 -53t78 -139q0 -131 -203 -220q103 -50 160 -99.5t57 -117.5q0 -90 -87.5 -153.5t-229.5 -63.5zM383 319q0 -28 15 -53t46 -48t60 -39.5t76 -39.5
q170 72 170 170q0 57 -49.5 92t-135.5 35q-85 0 -133.5 -34t-48.5 -83zM559 -246q90 0 144.5 36.5t54.5 90.5q0 23 -13 44.5t-29.5 38t-50 37t-56 32t-66.5 33.5q-178 -68 -178 -175q0 -60 52 -98.5t142 -38.5z" />
    <glyph glyph-name="nine.inf" unicode="&#x2089;" 
d="M410 -342l-39 90q186 69 277 154.5t112 201.5q-59 -51 -130 -77t-135.5 -22t-119 29.5t-87 79t-32.5 124.5q0 123 89.5 200.5t217.5 77.5q138 0 221.5 -83.5t83.5 -237.5q0 -174 -114.5 -310t-343.5 -227zM354 246q0 -87 63.5 -131.5t160.5 -30.5t188 84v14
q0 121 -58 184.5t-155 63.5q-82 0 -140.5 -51t-58.5 -133z" />
    <glyph glyph-name="check.1" unicode="&#xe10c;" 
d="M1030 1348q-279 -635 -459 -1393l-110 -10l-301 712l108 50l240 -588h6q150 693 387 1274z" />
    <glyph glyph-name="check.2" unicode="&#xe10d;" 
d="M745 -10l-229 463l-244 -476l-82 33l263 535l-230 430l115 43l184 -365l346 744l125 -49l-407 -791l280 -539z" />
    <glyph glyph-name="hcoslug" unicode="&#xe10b;" 
d="M1024 1434v-1639h-922v1639h922zM410 606q0 20 11 32.5t30 12.5q20 0 32.5 -16t12.5 -43q0 -32 -29 -76q-31 29 -44 47.5t-13 42.5zM510 475q32 20 63 51q25 -28 23.5 -55.5t-25.5 -67.5q-40 51 -61 72zM430 285q-34 0 -57 24.5t-23 59.5q0 36 25 61q54 -50 114 -127
q-24 -18 -59 -18zM616 354q33 44 72 66q19 -39 66 -39q32 0 53.5 23.5t21.5 58.5q0 36 -21 58t-54 22q-53 0 -92 -58q-6 58 -76 58q14 20 14 51q0 44 -39.5 79.5t-105.5 35.5q-75 0 -121.5 -39.5t-46.5 -91.5q0 -33 10.5 -56.5t36.5 -50.5q-125 -41 -125 -139
q0 -61 48.5 -102.5t117.5 -41.5q96 0 160 70q38 -39 67.5 -54.5t63.5 -15.5q51 0 86 40t36 106l-10 2q-27 -45 -65 -45q-42 0 -97 63zM469 139l-18 -2v-14h-11v-10h11v-31q0 -21 18 -21q17 0 23 21l-9 2q-3 -10 -8 -10q-6 0 -6 8v31h20v10h-20v16zM297 94q0 -15 9.5 -24
t23.5 -9q13 0 22.5 9.5t9.5 23.5q0 13 -9 22t-23 9t-23.5 -9t-9.5 -22zM342 94q0 -24 -12 -24q-13 0 -13 24q0 23 13 23q12 0 12 -23zM612 92q0 -20 -10 -20q-12 0 -12 20q0 21 12 21q10 0 10 -21zM367 74v-11h32v11h-6v22q0 7 4 12t9 5q8 0 8 -13v-26h-6v-11h34v11h-10v28
q0 23 -18 23q-14 0 -21 -14v12h-26v-10h8v-39h-8zM221 74v-11h47v11h-14v24h6q6 0 7 -2t3 -10h11v35h-11q-6 -11 -10 -12h-6v28h16q9 0 12.5 -4t6.5 -16h10v30h-78v-10h12v-63h-12zM494 84v-21h10l2 7q9 -9 20 -9q21 0 21 19q0 13 -18.5 19.5t-18.5 9.5q0 6 8 6q9 0 17 -11
h10v21h-10l-3 -8q-5 8 -16 8q-10 0 -16 -6t-6 -13q0 -14 18 -19t18 -11t-8 -6t-18 14h-10zM571 141v-80h9l6 13q6 -13 22 -13q12 0 18.5 10.5t6.5 22.5q0 13 -7 22t-18 9q-14 0 -18 -14v41h-29v-11h10zM651 49q4 3 1.5 8.5t-9.5 5.5q-10 0 -10 -10q0 -14 18 -14q17 0 27 24
l20 50h9v10h-27v-10h8l-12 -31l-14 31h8v10h-37v-10h6q19 -38 25 -52q0 -12 -13 -12zM743 0h-28v-12h10q-5 -10 -10 -15q-3 3 -10 11t-9 10q17 10 17 20q0 8 -6 13.5t-15 5.5q-12 0 -19 -7t-7 -16q0 -10 10 -20q-21 -7 -21 -23q0 -20 25 -20q17 0 27 10q10 -10 18 -10
q14 0 18 18l-6 2q-3 -8 -6 -8q-2 0 -10 8q7 7 14 21h8v12zM481 8v8q0 17 8 17l7 -2q-2 -2 -2 -6q0 -9 10 -9v-8h-23zM752 -10q0 -43 43 -43q33 0 36 35h-12q-4 -25 -20 -25q-25 0 -25 35t21 35q14 0 22 -25h12v33h-12v-8q-10 10 -24 10q-18 0 -29.5 -12.5t-11.5 -34.5z
M692 -2q-10 10 -10 16q0 9 8 9q10 0 10 -11q0 -10 -8 -14zM553 -25h39q4 35 -29 35q-13 0 -22 -9t-9 -24q0 -14 9 -22t24 -8q23 0 27 22h-10q-3 -12 -15 -12q-14 0 -14 18zM410 -25h39q3 35 -29 35q-12 0 -21.5 -9t-9.5 -24q0 -14 9 -22t24 -8q23 0 27 22h-11
q-3 -12 -14 -12q-14 0 -14 18zM319 -20q0 -15 9.5 -24t23.5 -9t23.5 9.5t9.5 23.5q0 13 -9.5 21.5t-23.5 8.5t-23.5 -8.5t-9.5 -21.5zM836 -20q0 -15 9 -24t23 -9t23.5 9.5t9.5 23.5q0 13 -9.5 21.5t-23.5 8.5t-23 -8.5t-9 -21.5zM553 -16q0 18 10 18t10 -18h-20zM410 -16
q0 18 10 18t10 -18h-20zM365 -20q0 -25 -13 -25q-12 0 -12 25q0 22 12 22q13 0 13 -22zM881 -20q0 -25 -13 -25q-12 0 -12 25q0 22 12 22q13 0 13 -22zM455 -41v-10h34v10h-8v39h23v-39h-8v-10h34v10h-8v80l-16 -4q-8 4 -17 4q-10 0 -18 -7.5t-8 -21.5v-2h-10v-10h10v-39h-8
zM596 -41v-10h39v10h-12v25q1 5 4.5 9.5t5.5 4.5v-2q0 -8 10 -8t10 10q0 12 -12 12t-18 -14v12h-27v-10h8v-39h-8zM221 -41v-10h43v10h-10v29h33v-29h-11v-10h43v10h-12v64h12v10h-43v-10h11v-25h-33v25h10v10h-43v-10h12v-64h-12zM700 -37q-6 -6 -12 -6q-14 0 -14 14
q0 9 6 15q4 -4 11 -13t9 -10zM928 -41q0 12 -13 12q-12 0 -12 -12t12 -12q13 0 13 12z" />
    <glyph glyph-name="fraction" unicode="&#x2044;" 
d="M190 -328l-104 45l834 1823l106 -47z" />
    <glyph glyph-name="fraction.afrc" 
d="M127 580v88h872v-88h-872z" />
    <glyph glyph-name="zero.num" 
d="M551 850q-150 0 -232.5 109.5t-82.5 302.5q0 195 91.5 314.5t245.5 119.5q150 0 234 -109.5t84 -300.5q0 -196 -93 -316t-247 -120zM563 1608q-111 0 -167 -86t-56 -244q0 -160 57.5 -249t165.5 -89q111 0 167 85.5t56 242.5q0 161 -57.5 250.5t-165.5 89.5z" />
    <glyph glyph-name="one.num" 
d="M883 870h-600v91h266v528l-254 -19l-2 76l256 35v125l102 8v-753h240z" />
    <glyph glyph-name="two.num" 
d="M866 870h-592l-10 86q257 181 364 283t107 195q0 40 -21 69.5t-70.5 52.5t-137 35.5t-213.5 14.5l8 90q537 5 537 -236q0 -59 -27 -115.5t-87 -118.5t-134 -121.5t-189 -141.5h465v-93z" />
    <glyph glyph-name="three.num" 
d="M295 850l-8 96q473 16 473 150q0 122 -393 164l2 53l348 272v4l-420 -2v92h539l8 -86l-355 -272q371 -52 371 -221q0 -51 -31 -93t-96 -76.5t-176.5 -55.5t-261.5 -25z" />
    <glyph glyph-name="four.num" 
d="M907 1042l-112 2l2 -174h-99l2 177l-421 -5q-2 116 25.5 293t76.5 359l113 -8q-34 -115 -78.5 -304.5t-48.5 -248.5h333l-2 280l99 8l-2 -288h120z" />
    <glyph glyph-name="five.num" 
d="M854 1133q0 -113 -138.5 -187.5t-418.5 -95.5l-8 96q248 20 357.5 65.5t109.5 118.5q0 130 -447 156l31 393h487l-8 -92h-395l-16 -225q446 -35 446 -229z" />
    <glyph glyph-name="six.num" 
d="M563 852q-137 0 -220 84.5t-83 237.5q0 174 114 310t343 226l37 -88q-187 -73 -278.5 -159t-110.5 -203q73 66 163.5 90t165 6t125.5 -78t51 -148q0 -123 -89.5 -200.5t-217.5 -77.5zM575 940q83 0 140 49t57 131q0 66 -38.5 108t-97.5 53.5t-134.5 -9.5t-143.5 -74v-10
q0 -122 59 -185t158 -63z" />
    <glyph glyph-name="seven.num" 
d="M492 858l-107 12q138 360 385 711l-2 6h-492l9 92h592v-88q-246 -365 -385 -733z" />
    <glyph glyph-name="eight.num" 
d="M547 850q-129 0 -207 54.5t-78 142.5q0 143 213 229q-92 47 -144 96t-52 115q0 81 80.5 145t215.5 64q119 0 197 -53.5t78 -139.5q0 -130 -203 -219q103 -50 160 -99.5t57 -117.5q0 -90 -87.5 -153.5t-229.5 -63.5zM383 1497q0 -28 15 -53t46 -48t60 -39.5t76 -39.5
q170 72 170 170q0 57 -49.5 92t-135.5 35q-85 0 -133.5 -34t-48.5 -83zM559 932q90 0 144.5 36.5t54.5 90.5q0 23 -13 44.5t-29 37.5t-50.5 36.5t-56 32t-66.5 33.5q-178 -68 -178 -174q0 -60 52 -98.5t142 -38.5z" />
    <glyph glyph-name="nine.num" 
d="M410 836l-39 90q186 69 277 154.5t112 201.5q-74 -64 -164 -87t-164.5 -5t-125 77.5t-50.5 147.5q0 123 89.5 201t217.5 78q138 0 221.5 -84t83.5 -238q0 -354 -458 -536zM354 1423q0 -87 63.5 -131t160.5 -30t188 84v14q0 121 -58 184.5t-155 63.5q-82 0 -140.5 -51.5
t-58.5 -133.5z" />
    <glyph glyph-name="zero.den" 
d="M551 -451q-150 0 -232.5 109.5t-82.5 302.5q0 195 91.5 314.5t245.5 119.5q150 0 234 -109t84 -300q0 -196 -93 -316.5t-247 -120.5zM563 307q-111 0 -167 -86t-56 -244q0 -160 57.5 -248.5t165.5 -88.5q111 0 167 85t56 242q0 161 -57.5 250.5t-165.5 89.5z" />
    <glyph glyph-name="one.den" 
d="M883 -430h-600v90h266v528l-254 -18l-2 76l256 35v125l102 8v-754h240z" />
    <glyph glyph-name="two.den" 
d="M866 -430h-592l-10 86q103 73 167.5 120.5t128.5 101t98.5 93t55.5 81.5t21 81q0 40 -21 69.5t-70.5 52.5t-137 35.5t-213.5 14.5l8 90q537 5 537 -235q0 -59 -27 -116t-87 -119t-134 -121.5t-189 -141.5h465v-92z" />
    <glyph glyph-name="three.den" 
d="M295 -451l-8 97q473 16 473 149q0 122 -393 164l2 53l348 273v4l-420 -2v92h539l8 -86l-355 -273q371 -52 371 -221q0 -51 -31 -93t-96 -76.5t-176.5 -55.5t-261.5 -25z" />
    <glyph glyph-name="four.den" 
d="M907 -258l-112 2l2 -174h-99l2 176l-421 -4q-2 116 25.5 292.5t76.5 358.5l113 -8q-34 -115 -78.5 -304.5t-48.5 -248.5h333l-2 281l99 8l-2 -289h120z" />
    <glyph glyph-name="five.den" 
d="M854 -168q0 -113 -138.5 -187.5t-418.5 -95.5l-8 97q248 20 357.5 65.5t109.5 118.5q0 130 -447 156l31 393h487l-8 -92h-395l-16 -226q446 -35 446 -229z" />
    <glyph glyph-name="six.den" 
d="M563 -449q-137 0 -220 84.5t-83 237.5q0 174 114 310.5t343 226.5l37 -88q-187 -73 -278.5 -159.5t-110.5 -203.5q59 53 129.5 80t135.5 23.5t119.5 -29t87.5 -79t33 -124.5q0 -123 -89.5 -201t-217.5 -78zM575 -360q83 0 140 49t57 131q0 66 -38.5 108t-97.5 53.5
t-134.5 -9.5t-143.5 -74v-11q0 -122 59 -184.5t158 -62.5z" />
    <glyph glyph-name="seven.den" 
d="M492 -442l-107 12q138 360 385 711l-2 6h-492l9 92h592v-88q-246 -365 -385 -733z" />
    <glyph glyph-name="eight.den" 
d="M547 -451q-129 0 -207 54.5t-78 142.5q0 143 213 229q-92 47 -144 96t-52 115q0 81 80.5 145t215.5 64q119 0 197 -53t78 -139q0 -130 -203 -219q103 -50 160 -99.5t57 -117.5q0 -90 -87.5 -154t-229.5 -64zM383 197q0 -53 50.5 -93.5t146.5 -87.5q170 72 170 170
q0 57 -49.5 92t-135.5 35q-85 0 -133.5 -33.5t-48.5 -82.5zM559 -369q90 0 144.5 36.5t54.5 90.5q0 23 -13 44.5t-29.5 38t-50 37t-56 32t-66.5 33.5q-178 -68 -178 -174q0 -60 52 -99t142 -39z" />
    <glyph glyph-name="nine.den" 
d="M410 -465l-39 90q186 69 277 155t112 202q-74 -64 -164 -87t-164.5 -5t-125 77.5t-50.5 147.5q0 123 89.5 200.5t217.5 77.5q138 0 221.5 -83.5t83.5 -237.5q0 -174 -114.5 -310t-343.5 -227zM354 123q0 -87 63.5 -131.5t160.5 -30.5t188 84v14q0 121 -58 184.5
t-155 63.5q-82 0 -140.5 -51t-58.5 -133z" />
    <glyph glyph-name="zero.small" 
d="M551 -20q-150 0 -232.5 109t-82.5 302q0 195 91.5 314.5t245.5 119.5q150 0 234 -109t84 -300q0 -196 -93 -316t-247 -120zM563 737q-111 0 -167 -85.5t-56 -243.5q0 -160 57.5 -249t165.5 -89q111 0 167 85t56 242q0 161 -57.5 250.5t-165.5 89.5z" />
    <glyph glyph-name="one.small" 
d="M883 0h-600v90h266v528l-254 -18l-2 76l256 35v125l102 8v-754h240z" />
    <glyph glyph-name="two.small" 
d="M866 0h-592l-10 86q103 73 167.5 120.5t128.5 101t98.5 93t55.5 81.5t21 81q0 40 -21 69.5t-70.5 52.5t-137 35.5t-213.5 14.5l8 90q537 5 537 -235q0 -59 -27 -116t-87 -119t-134 -121.5t-189 -141.5h465v-92z" />
    <glyph glyph-name="three.small" 
d="M295 -20l-8 96q473 16 473 149q0 122 -393 164l2 53l348 273v4l-420 -2v92h539l8 -86l-355 -272q371 -52 371 -222q0 -106 -136 -173t-429 -76z" />
    <glyph glyph-name="four.small" 
d="M907 172l-112 2l2 -174h-99l2 176l-421 -4q-2 116 25.5 292.5t76.5 358.5l113 -8q-34 -115 -78.5 -304.5t-48.5 -248.5h333l-2 281l99 8l-2 -289h120z" />
    <glyph glyph-name="five.small" 
d="M854 262q0 -113 -138.5 -187t-418.5 -95l-8 96q248 20 357.5 65.5t109.5 118.5q0 130 -447 156l31 393h487l-8 -92h-395l-16 -225q446 -35 446 -230z" />
    <glyph glyph-name="six.small" 
d="M563 -18q-137 0 -220 84t-83 237q0 174 114 310.5t343 226.5l37 -88q-187 -73 -278.5 -159.5t-110.5 -203.5q59 53 129.5 80t135.5 23.5t119.5 -29t87.5 -79t33 -124.5q0 -123 -89.5 -200.5t-217.5 -77.5zM575 70q83 0 140 49t57 131q0 66 -38.5 108t-97.5 53.5
t-134.5 -9.5t-143.5 -74v-11q0 -122 59 -184.5t158 -62.5z" />
    <glyph glyph-name="seven.small" 
d="M492 -12l-107 12q138 360 385 711l-2 6h-492l9 92h592v-88q-246 -365 -385 -733z" />
    <glyph glyph-name="eight.small" 
d="M547 -20q-129 0 -207 54t-78 142q0 144 213 230q-93 47 -144.5 95.5t-51.5 114.5q0 81 80.5 145t215.5 64q119 0 197 -53t78 -139q0 -130 -203 -219q103 -50 160 -99.5t57 -117.5q0 -90 -87.5 -153.5t-229.5 -63.5zM383 627q0 -53 50.5 -93.5t146.5 -87.5q170 72 170 170
q0 57 -49.5 92t-135.5 35q-85 0 -133.5 -33.5t-48.5 -82.5zM559 61q90 0 144.5 36.5t54.5 90.5q0 23 -13 44.5t-29.5 38t-50 37t-56 32t-66.5 33.5q-178 -68 -178 -174q0 -60 52 -99t142 -39z" />
    <glyph glyph-name="nine.small" 
d="M410 -35l-39 90q186 69 277 155t112 202q-74 -64 -164 -87t-164.5 -5t-125 77.5t-50.5 147.5q0 123 89.5 200.5t217.5 77.5q138 0 221.5 -83.5t83.5 -237.5q0 -174 -114.5 -310t-343.5 -227zM354 553q0 -87 63.5 -131.5t160.5 -30.5t188 84v14q0 121 -58 184.5t-155 63.5
q-82 0 -140.5 -51t-58.5 -133z" />
    <glyph glyph-name="acute" unicode="&#xb4;" 
d="M358 1198q88 64 199 171.5t180 193.5l107 -99q-78 -76 -207 -168t-240 -155z" />
    <glyph glyph-name="hungarumlaut" unicode="&#x2dd;" 
d="M268 1184q57 81 119.5 196.5t101.5 208.5l132 -65q-48 -81 -131 -189t-160 -192zM692 1182q58 84 119 196.5t98 202.5l138 -57q-56 -90 -138.5 -197.5t-156.5 -183.5z" />
    <glyph glyph-name="caron.alt" 
d="M428 1155q44 89 57 176.5t4 154.5t-34 152l149 4q53 -257 -119 -509z" />
    <glyph glyph-name="grave" unicode="`" 
d="M778 1182l-41 -56q-100 59 -229 151t-215 167l102 106q74 -86 187 -195t196 -173z" />
    <glyph glyph-name="circumflex" unicode="&#x2c6;" 
d="M838 1147l-281 248l-283 -246l-65 61l352 314h6l348 -301z" />
    <glyph glyph-name="caron" unicode="&#x2c7;" 
d="M563 1137h-4l-350 297l80 77l280 -247l281 245l65 -63z" />
    <glyph glyph-name="breve" unicode="&#x2d8;" 
d="M555 1157q-101 0 -190.5 72t-176.5 221l91 53q80 -133 144.5 -188t141.5 -55q80 0 147.5 56.5t151.5 178.5l76 -41q-184 -297 -385 -297z" />
    <glyph glyph-name="tilde" unicode="&#x2dc;" 
d="M709 1159q-36 0 -72 23t-64.5 56.5t-55.5 66.5t-55.5 56t-53.5 23q-83 0 -170 -206l-76 30q118 281 260 281q36 0 72 -23t64 -56.5t55 -66.5t55 -56t53 -23q79 0 170 209l76 -33q-55 -134 -121 -207.5t-137 -73.5z" />
    <glyph glyph-name="macron" unicode="&#xaf;" 
d="M897 1358v-109h-668v109h668z" />
    <glyph glyph-name="dieresis" unicode="&#xa8;" 
d="M852 1161h-125v271h129zM406 1161h-125l-2 271h131z" />
    <glyph glyph-name="dotaccent" unicode="&#x2d9;" 
d="M621 1161h-127l6 271h131z" />
    <glyph glyph-name="ring" unicode="&#x2da;" 
d="M582 1544q116 0 191 -61t75 -150q0 -95 -73 -156t-193 -61q-117 0 -193 60.5t-76 148.5q0 96 74.5 157.5t194.5 61.5zM582 1460q-78 0 -124 -36.5t-46 -94.5t46.5 -94.5t123.5 -36.5q78 0 124 36.5t46 94.5q0 57 -47 94t-123 37z" />
    <glyph glyph-name="commaaccent.rot" 
d="M662 1550q-37 -70 -48 -140.5t-1.5 -128t34.5 -120.5l-162 -6q-20 99 7.5 208.5t107.5 207.5z" />
    <glyph glyph-name="commaaccent" unicode="&#x326;" 
d="M449 -537q37 70 48 140.5t1.5 127.5t-35.5 122q6 0 79.5 3t80.5 3q20 -100 -7 -209t-106 -207z" />
    <glyph glyph-name="cedilla" unicode="&#xb8;" 
d="M481 -12l37 69q273 -153 273 -282q0 -73 -89.5 -124.5t-261.5 -76.5l-10 102q134 22 192 47t58 62q0 76 -199 203z" />
    <glyph glyph-name="ogonek" unicode="&#x2db;" 
d="M729 55l37 -55q-155 -75 -218 -128t-63 -95q0 -39 58.5 -63.5t191.5 -39.5l-12 -104q-189 18 -270.5 62.5t-81.5 117.5q0 68 81.5 139.5t276.5 165.5z" />
    <glyph glyph-name="underscore.alt" 
d="M1147 -102v-103h-1167v103h1167z" />
    <glyph glyph-name="less_exclam_hyphen_hyphen.liga" 
d="M-1640 463h-82q0 132 -11.5 476.5t-13.5 444.5h158q-4 -78 -26 -431t-25 -490zM-2523 1219l74 -89l-574 -483h922l-6 -106h-916l584 -496l-74 -86l-682 580v108zM-1255 541v106h2144l-6 -106h-2138zM-1599 0h-191l4 197h193z" />
    <glyph glyph-name="equal_equal_equal.liga" 
d="M958 1169l-2 -122h-3041v122h3043zM958 664l-2 -123h-3041v123h3043zM958 158l-2 -125h-3041v125h3043z" />
    <glyph glyph-name="equal_equal_greater.liga" 
d="M199 1130l73 89l670 -570v-110l-684 -580l-72 86l324 274h-2595v107h2722l188 160v16l-207 174h-2703v107h2579z" />
    <glyph glyph-name="equal_less_less.liga" 
d="M315 1130l-626 -528v-16l637 -541l-74 -86l-424 360h-1913v107h1788l-133 113v108l151 129h-1806v107h1931l396 336zM303 602v-16l637 -541l-74 -86l-682 580v108l672 572l74 -89z" />
    <glyph glyph-name="exclam_equal_equal.liga" 
d="M958 664l-2 -123h-1445l-203 -383h1650l-2 -125h-1716l-215 -404l-110 39l194 365h-1194v125h1262l202 383h-1464v123h1530l205 383h-1735v122h1800l160 299l105 -49l-134 -250h1112l-2 -122h-1175l-205 -383h1382z" />
    <glyph glyph-name="greater_equal_greater.liga" 
d="M199 1130l73 89l670 -570v-110l-684 -580l-72 86l324 274h-2079l-426 -360l-71 86l639 541v16l-627 528l74 89l395 -336h2079zM637 426l188 160v16l-207 174h-2078l149 -127v-110l-133 -113h2081z" />
    <glyph glyph-name="greater_greater_equal.liga" 
d="M-1980 1219l669 -570v-110l-684 -580l-71 86l639 541v16l-627 528zM-696 649v-110l-133 -113h1787l-2 -107h-1910l-426 -360l-72 86l639 541v16l-627 528l74 89l395 -336h1929l-2 -107h-1802z" />
    <glyph glyph-name="hyphen_hyphen_greater.liga" 
d="M199 1130l73 89l670 -570v-110l-684 -580l-72 86l586 496h-2779v106h2779z" />
    <glyph glyph-name="less_equal_equal.liga" 
d="M-1950 602v-16l189 -160h2719l-2 -107h-2592l323 -274l-73 -86l-682 580v108l671 572l74 -89l-295 -247h2576l-2 -107h-2699z" />
    <glyph glyph-name="less_equal_greater.liga" 
d="M199 1130l73 89l670 -570v-110l-684 -580l-72 86l324 274h-2146l323 -274l-73 -86l-682 580v108l671 572l74 -89l-295 -247h2112zM637 426l188 160v16l-207 174h-2361l-207 -174v-16l189 -160h2398z" />
    <glyph glyph-name="less_equal_less.liga" 
d="M940 45l-74 -86l-424 360h-2078l323 -274l-73 -86l-682 580v108l671 572l74 -89l-295 -247h2079l395 336l74 -89l-627 -528v-16zM-1950 586l189 -160h2078l-133 113v108l152 129h-2079l-207 -174v-16z" />
    <glyph glyph-name="less_hyphen_greater.liga" 
d="M272 1219l670 -570v-110l-684 -580l-72 86l586 496h-2668l583 -496l-73 -86l-682 580v108l671 572l74 -89l-573 -483h2668l-573 483z" />
    <glyph glyph-name="less_hyphen_hyphen.liga" 
d="M-1896 647h2785l-6 -106h-2779l583 -496l-73 -86l-682 580v108l671 572l74 -89z" />
    <glyph glyph-name="ampersand_ampersand.liga" 
d="M606 326q124 -138 236 -271l-99 -82q-148 180 -204 244q-81 -122 -177 -182t-196 -60q-67 0 -133 27q-105 48 -213 215q-81 -122 -177 -182t-196 -60q-132 0 -207.5 81t-75.5 204q0 224 275 399q-67 86 -98 153t-31 132q0 54 17 102.5t59 95.5t105 80.5t162.5 52.5
t225.5 17l8 -118q-130 6 -223 -9.5t-142.5 -48.5t-71 -72t-21.5 -88q0 -81 89 -202q55 -74 262 -307q25 -28 42 -48q87 189 139 428l98 -12q-30 65 -30 129q0 54 17 102.5t59 95.5t105 80.5t162.5 52.5t225.5 17l8 -118q-130 6 -223.5 -9.5t-143 -48.5t-71 -72t-21.5 -88
q0 -78 67.5 -171.5t264.5 -315.5q40 -46 62 -70q87 189 139 428l113 -14q-76 -295 -187 -487zM158 659q-60 75 -88 136q-49 -174 -95 -291q67 82 183 155zM-528 82q73 0 146 52.5t138 156.5q-229 263 -266 307q-101 -70 -153 -151t-52 -160q0 -92 48.5 -148.5t138.5 -56.5z
M190 82q74 0 147 52.5t138 156.5q-229 263 -266 307q-101 -70 -153 -151t-52 -160q0 -92 48 -148.5t138 -56.5zM-113 315z" />
    <glyph glyph-name="bar_bar.liga" 
d="M-463 1434l115 10v-1815h-115v1805zM326 1434l114 10v-1815h-114v1805z" />
    <glyph glyph-name="bar_greater.liga" 
d="M-494 1573l115 10l1075 -934v-110l-1075 -910h-115v1944zM-379 -223l959 809v16l-959 830v-1655z" />
    <glyph glyph-name="colon_equal.liga" 
d="M-395 727h-197l2 207h199zM713 883l-2 -107h-871v107h873zM-395 268h-197l2 207h199zM713 426l-2 -107h-871v107h873z" />
    <glyph glyph-name="equal_equal.liga" 
d="M958 883l-2 -107h-1914v107h1916zM958 426l-2 -107h-1914v107h1916z" />
    <glyph glyph-name="equal_greater.liga" 
d="M199 1130l73 89l670 -570v-110l-684 -580l-72 86l324 274h-1468v107h1595l188 160v16l-207 174h-1576v107h1452z" />
    <glyph glyph-name="exclam_equal.liga" 
d="M956 776h-821l-188 -350h1011l-2 -107h-1065l-368 -690l-111 39l348 651h-718v107h774l188 350h-962v107h1017l314 585l104 -49l-287 -536h768z" />
    <glyph glyph-name="greater_equal.liga" 
d="M569 586l-1253 -541l51 -86l1383 580v110l-1368 570l-52 -89l1239 -528v-16zM-633 -389l1383 579v115l-1434 -608z" />
    <glyph glyph-name="hyphen_greater.liga" 
d="M199 1130l73 89l670 -570v-110l-684 -580l-72 86l586 496h-1653v106h1653z" />
    <glyph glyph-name="hyphen_hyphen.liga" 
d="M-141 647l-6 -106h-637v106h643zM754 647l-6 -106h-637v106h643z" />
    <glyph glyph-name="less_bar.liga" 
d="M-637 649l1075 934l115 -10v-1944h-115l-1075 910v110zM-520 602v-16l958 -809v1655z" />
    <glyph glyph-name="less_equal.liga" 
d="M637 -41l51 86l-1253 541v16l1239 528l-51 89l-1368 -570v-110zM-745 305v-115l1382 -579l51 86z" />
    <glyph glyph-name="less_hyphen.liga" 
d="M-770 647h1659l-6 -106h-1653l584 -496l-74 -86l-682 580v108l672 572l73 -89z" />
    <glyph glyph-name="less_slash.liga" horiz-adv-x="1075" 
d="M-207 61l752 1407l104 -49l-954 -1790l-111 39l156 291l-682 580v108l672 572l73 -89l-626 -528v-16z" />
    <glyph glyph-name="plus_plus.liga" 
d="M481 1040v-393h375l-2 -106h-373v-396h-112v396h-746v-396h-112v396h-377v106h377v393h112v-393h746v393h112z" />
    <glyph glyph-name="question_question.liga" 
d="M-889 1272l12 117q223 -13 381 -43.5t246 -75t127 -95.5t39 -114q0 -52 -32 -104t-80 -93t-105.5 -89.5t-108 -93t-87.5 -103.5t-44 -121l-86 2q4 59 28.5 114t61.5 98.5t80.5 84t86.5 76t78 68t57 67t22 67.5q0 44 -31.5 80t-105 68t-209.5 55t-330 35zM-29 1272l13 117
q179 -11 317 -33t227 -52t145.5 -69.5t79.5 -81.5t23 -92q0 -52 -32 -104t-80 -93t-105.5 -89.5t-108 -93t-87.5 -103.5t-44 -121l-86 2q4 59 28.5 114t61.5 98.5t80.5 84t86.5 76t78 68t57 67t22 67.5q0 44 -31.5 80t-105 68t-209.5 55t-330 35zM-506 0h-184l2 197h186z
M354 0h-184l2 197h186z" />
    <glyph glyph-name="slash_greater.liga" 
d="M270 1217l2 2l670 -570v-110l-684 -580l-72 86l639 541v16l-608 514l-792 -1487l-111 39l960 1800l105 -49z" />
    <glyph glyph-name="underscore_underscore.liga" 
d="M1151 -102v-103h-2284v103h2284z" />
    <glyph glyph-name="ampersand.spacer" horiz-adv-x="1228" 
 />
    <glyph glyph-name="bar.spacer" horiz-adv-x="1228" 
 />
    <glyph glyph-name="colon.spacer" horiz-adv-x="1228" 
 />
    <glyph glyph-name="equal.spacer" horiz-adv-x="1228" 
 />
    <glyph glyph-name="exclam.spacer" horiz-adv-x="1228" 
 />
    <glyph glyph-name="greater.spacer" horiz-adv-x="1228" 
 />
    <glyph glyph-name="hyphen.spacer" horiz-adv-x="1228" 
 />
    <glyph glyph-name="less.spacer" horiz-adv-x="1228" 
 />
    <glyph glyph-name="plus.spacer" horiz-adv-x="1228" 
 />
    <glyph glyph-name="question.spacer" horiz-adv-x="1228" 
 />
    <glyph glyph-name="slash.spacer" horiz-adv-x="1228" 
 />
    <glyph glyph-name="underscore.spacer" horiz-adv-x="1228" 
 />
    <glyph glyph-name="uniE0A0" unicode="&#xe0a0;" 
d="M877 1180q92 0 154.5 -63t62.5 -154q0 -58 -29.5 -107.5t-79.5 -79.5v-28q0 -106 -62 -207t-163 -163.5t-207 -62.5q-104 0 -166 -69q57 -64 57 -150q0 -89 -63 -153t-152 -64q-92 0 -154.5 63.5t-62.5 153.5q0 61 29.5 110.5t79.5 76.5v710q-50 27 -79.5 76.5
t-29.5 110.5q0 90 62.5 153.5t154.5 63.5q89 0 152 -64t63 -153q0 -60 -30 -110t-78 -77v-514q90 49 217 49q82 0 149.5 67.5t67.5 149.5v31q-48 28 -78 78t-30 107q0 92 62.5 155.5t152.5 63.5zM229 1288q-45 0 -76.5 -31.5t-31.5 -76.5q0 -46 31.5 -78.5t76.5 -32.5
q43 0 75 33t32 78q0 44 -32 76t-75 32zM877 854q45 0 76.5 32t31.5 75q0 46 -31 77t-77 31q-43 0 -75 -31.5t-32 -76.5q0 -43 32 -75t75 -32zM229 -12q43 0 75 31.5t32 76.5q0 44 -32 76.5t-75 32.5q-45 0 -76.5 -32t-31.5 -77q0 -46 31 -77t77 -31z" />
    <glyph glyph-name="uniE0B0" unicode="&#xe0b0;" 
d="M-37 1831l1284 -1190l-1288 -1061z" />
    <glyph glyph-name="uniE0B2" unicode="&#xe0b2;" 
d="M1247 -420l-1288 1061l1284 1190z" />
  </font>
</defs>
</svg>
