<?xml version="1.0" standalone="no"?>
<!DOCTYPE svg PUBLIC "-//W3C//DTD SVG 1.1//EN" "http://www.w3.org/Graphics/SVG/1.1/DTD/svg11.dtd" >
<svg xmlns="http://www.w3.org/2000/svg" xmlns:xlink="http://www.w3.org/1999/xlink" version="1.1">
<metadata>
Created by FontForge 20170731 at Sat May 29 02:57:51 2021
 By Aleksey,,,
Copyright (C) 2016 Hoefler &#38; Co. http://www.typography.com
</metadata>
<defs>
<font id="OperatorSSm-XLightItalic" horiz-adv-x="1277" >
  <font-face 
    font-family="Operator SSm XLight"
    font-weight="275"
    font-style="italic"
    font-stretch="normal"
    units-per-em="2048"
    panose-1="2 0 0 0 0 0 0 0 0 0"
    ascent="1638"
    descent="-410"
    x-height="1092"
    cap-height="1409"
    bbox="-287 -803 2304 2574"
    underline-thickness="81"
    underline-position="-236"
    slope="-11"
    unicode-range="U+0020-E10D"
  />
<missing-glyph horiz-adv-x="1024" 
d="M0 -410v2048h1024v-2048h-1024zM145 1536l367 -799l367 799h-734zM922 1384l-353 -770l353 -770v1540zM102 -156l353 770l-353 770v-1540zM512 492l-367 -799h734z" />
    <glyph glyph-name=".notdef" horiz-adv-x="1024" 
d="M0 -410v2048h1024v-2048h-1024zM145 1536l367 -799l367 799h-734zM922 1384l-353 -770l353 -770v1540zM102 -156l353 770l-353 770v-1540zM512 492l-367 -799h734z" />
    <glyph glyph-name=".null" horiz-adv-x="0" 
 />
    <glyph glyph-name="nonmarkingreturn" horiz-adv-x="682" 
 />
    <glyph glyph-name="space" unicode=" " horiz-adv-x="628" 
 />
    <glyph glyph-name="exclam" unicode="!" horiz-adv-x="737" 
d="M391 502h-67q37 183 101 575.5t75 456.5h135q-31 -135 -118 -497.5t-126 -534.5zM332 0h-162l39 186h162z" />
    <glyph glyph-name="quotedbl" unicode="&#x22;" horiz-adv-x="1294" 
d="M971 885h-68l109 624h143l-4 -67zM492 885h-68l108 624h144l-6 -67z" />
    <glyph glyph-name="numbersign" unicode="#" 
d="M451 502l331 51l105 387l-334 -51zM309 -29l-84 -10l115 434l-248 -39l23 95l250 38l102 388l-248 -39l21 96l254 39l114 434l84 10l-114 -432l333 51l115 430l84 11l-115 -428l248 36l-20 -94l-252 -39l-103 -387l252 39l-24 -94l-254 -39l-117 -442l-84 -11l117 441
l-334 -51z" />
    <glyph glyph-name="dollar" unicode="$" horiz-adv-x="1288" 
d="M449 1104q0 -67 56.5 -142.5t162.5 -173.5l145 480q-186 14 -275 -35t-89 -129zM926 311q0 67 -59.5 142.5t-170.5 177.5l-149 -498q188 -6 283.5 46.5t95.5 131.5zM1024 319q0 -53 -29 -101.5t-86.5 -88.5t-157 -62.5t-227.5 -21.5l-67 -246l-97 4l74 246
q-158 13 -330 53l25 103q184 -50 338 -66l166 549q-66 61 -106 101.5t-86.5 96.5t-68.5 107t-22 99q0 55 27.5 103.5t83 87.5t152 59t221.5 14l77 252h99l-82 -260q126 -12 276 -52l-20 -100q-163 46 -289 64l-164 -531q69 -63 109.5 -103.5t89 -97.5t71.5 -108.5t23 -100.5
z" />
    <glyph glyph-name="percent" unicode="%" horiz-adv-x="1837" 
d="M643 1438q99 0 165 -66.5t66 -181.5q0 -142 -92 -242t-213 -100q-99 0 -165 66.5t-66 181.5q0 142 92 242t213 100zM283 -10l-56 57l1393 1372l53 -57zM635 1362q-88 0 -152.5 -73t-64.5 -179q0 -84 45.5 -135t114.5 -51q88 0 152.5 73t64.5 179q0 84 -45.5 135
t-114.5 51zM1257 -31q-99 0 -165 67.5t-66 182.5q0 141 92.5 241.5t214.5 100.5q97 0 163.5 -67.5t66.5 -180.5q0 -142 -92.5 -243t-213.5 -101zM1323 485q-86 0 -150.5 -73.5t-64.5 -178.5q0 -84 45.5 -135t114.5 -51q86 0 150.5 73.5t64.5 178.5q0 84 -45.5 135t-114.5 51
z" />
    <glyph glyph-name="ampersand" unicode="&#x26;" horiz-adv-x="1357" 
d="M1196 -41q-205 173 -328 334q-146 -153 -286.5 -234.5t-257.5 -81.5q-122 0 -189 66.5t-67 187.5q0 74 30 155.5t77.5 155.5t121 158.5t145.5 154.5t166 155q5 110 41 216.5t85 170t93 63.5q33 0 53.5 -25t20.5 -71q0 -80 -55 -183.5t-150 -203.5q12 -284 189 -539
q132 163 250 387l96 -32q-133 -237 -295 -426q120 -151 334 -330zM350 74q97 0 219.5 73.5t247.5 212.5q-184 266 -207 547q-98 -93 -168 -168.5t-137 -163t-102 -170.5t-35 -157q0 -83 48.5 -128.5t133.5 -45.5z" />
    <glyph glyph-name="quotesingle" unicode="'" horiz-adv-x="704" 
d="M451 885h-68l109 624h143l-6 -67z" />
    <glyph glyph-name="parenleft" unicode="(" horiz-adv-x="985" 
d="M999 1618l56 -78q-407 -274 -584.5 -531t-177.5 -532q0 -398 414 -870l-80 -62q-434 507 -434 928q0 294 191.5 571t614.5 574z" />
    <glyph glyph-name="parenright" unicode=")" horiz-adv-x="985" 
d="M-6 -485l-55 77q407 274 584 531t177 532q0 400 -413 871l80 61q432 -505 432 -928q0 -294 -191 -570.5t-614 -573.5z" />
    <glyph glyph-name="asterisk" unicode="*" horiz-adv-x="1163" 
d="M803 674l-160 325l-305 -190l-39 47l260 250l-280 233l36 54l316 -174l139 340l64 -19l-66 -356l362 -29l3 -61l-361 -47l88 -351z" />
    <glyph glyph-name="plus" unicode="+" 
d="M1133 608h-437l-88 -448h-94l88 448h-436l18 88h434l89 449h94l-88 -449h438z" />
    <glyph glyph-name="comma" unicode="," horiz-adv-x="665" 
d="M10 -393q134 137 173.5 260.5t15.5 320.5l159 5q-12 -197 -81 -336.5t-224 -278.5z" />
    <glyph glyph-name="hyphen" unicode="-" horiz-adv-x="927" 
d="M782 698l-14 -90h-608l16 90h606z" />
    <glyph glyph-name="period" unicode="." horiz-adv-x="655" 
d="M326 0h-164l39 190h161z" />
    <glyph glyph-name="slash" unicode="/" horiz-adv-x="972" 
d="M1114 1606l82 -35l-1307 -1968l-90 22z" />
    <glyph glyph-name="zero" unicode="0" 
d="M158 492q0 182 48.5 353.5t131 301.5t201 208.5t249.5 78.5q180 0 285 -132t105 -384q0 -181 -49 -352.5t-132 -302t-202 -209.5t-250 -79q-178 0 -282.5 132.5t-104.5 384.5zM262 510q0 -219 80 -330.5t225 -111.5q143 0 261 120.5t181.5 310t63.5 400.5q0 220 -80 332
t-225 112q-143 0 -261 -121t-181.5 -311t-63.5 -401z" />
    <glyph glyph-name="one" unicode="1" 
d="M1016 0h-877l19 90h409l213 1104l-387 -27l13 78l395 51l33 172l104 9l-268 -1387h368z" />
    <glyph glyph-name="two" unicode="2" 
d="M1006 0h-897l-3 88q143 96 241.5 165t204.5 147.5t174.5 138.5t134 127.5t102 125t58 119.5t21.5 123q0 84 -35.5 143.5t-114.5 98.5t-205.5 43.5t-307.5 -21.5l16 101q369 59 559.5 -33t190.5 -309q0 -69 -20.5 -136.5t-56 -129.5t-97 -130.5t-128.5 -130t-166 -137.5
t-195.5 -143.5t-229.5 -157.5h772z" />
    <glyph glyph-name="three" unicode="3" 
d="M1079 377q0 -55 -18.5 -105t-62 -100.5t-114.5 -87t-175.5 -63.5t-246 -31t-325.5 10l13 102q143 -15 262 -16t203.5 8.5t150 29.5t105.5 45.5t65.5 57.5t35 63.5t9.5 67.5q0 54 -29 102t-95 96t-184.5 92.5t-285.5 82.5l10 55l686 531h-696l19 92h815l-11 -90l-686 -533
q555 -134 555 -409z" />
    <glyph glyph-name="four" unicode="4" 
d="M1116 326h-176l-63 -326h-99l64 326h-701l6 69q157 255 262.5 483.5t202.5 544.5l111 -6q-100 -319 -207 -536.5t-266 -464.5h608l103 524l100 10l-105 -534h191z" />
    <glyph glyph-name="five" unicode="5" 
d="M1069 424q0 -72 -31.5 -138t-100 -127.5t-178 -101t-265 -58t-361.5 0.5l14 102q189 -21 329.5 -9.5t235 38.5t152.5 73.5t82.5 96t24.5 105.5q0 266 -649 376l157 627h729l-26 -92h-629l-119 -463q635 -123 635 -430z" />
    <glyph glyph-name="six" unicode="6" 
d="M596 -20q-185 0 -302.5 117.5t-117.5 344.5q0 112 27.5 221.5t94 226t167 218t257.5 194.5t355 158l25 -98q-152 -47 -277 -110t-211.5 -131t-152 -146.5t-102.5 -153.5t-58 -155q85 80 179.5 127t180.5 57t165.5 -10.5t137 -68t92 -124t34.5 -170.5q0 -143 -66 -257.5
t-179 -177t-249 -62.5zM616 70q169 0 272 111t103 280q0 79 -29 142.5t-79 102.5t-119.5 53.5t-146 2.5t-163.5 -58.5t-169 -123.5q-9 -56 -9 -109q0 -106 27 -185t74.5 -125t107 -68.5t131.5 -22.5z" />
    <glyph glyph-name="seven" unicode="7" 
d="M387 -8l-108 12q398 730 872 1305l-2 8h-791l21 92h903l-16 -82q-504 -629 -879 -1335z" />
    <glyph glyph-name="eight" unicode="8" 
d="M1022 322q0 -143 -136 -245t-337 -102q-176 0 -289 81.5t-113 213.5q0 53 17.5 100t62.5 105.5t130.5 128t215.5 154.5q-107 104 -165 187.5t-58 168.5q0 105 83 187t243.5 118t396.5 -10l-29 -100q-164 34 -277.5 34t-183.5 -33t-101 -78.5t-31 -101.5
q0 -70 54.5 -145.5t156.5 -171.5q211 131 518 297l41 -72q-326 -175 -500 -280q52 -49 75 -71.5t67 -67.5t65 -74.5t47 -70t36.5 -78t10.5 -74.5zM575 66q151 0 250 70.5t99 174.5q0 58 -46 129.5t-90.5 116t-139.5 131.5q-10 9 -15 14q-120 -77 -198 -138t-117 -109.5
t-52.5 -84.5t-13.5 -77q0 -105 90.5 -166t232.5 -61z" />
    <glyph glyph-name="nine" unicode="9" 
d="M256 -45l-27 98q188 58 333.5 139t238 174.5t147.5 187t82 194.5q-86 -80 -180.5 -126t-180 -56.5t-164 10.5t-136 68.5t-91.5 123.5t-34 170q0 143 66 258t178 177.5t247 62.5q90 0 165.5 -28.5t133.5 -84t90.5 -145t32.5 -205.5q0 -112 -27.5 -221.5t-94 -226
t-167 -218.5t-257.5 -194.5t-355 -157.5zM342 954q0 -79 29 -142.5t78.5 -102.5t119 -54t146 -2.5t163.5 59.5t169 124q8 49 8 108q0 106 -27 184.5t-74.5 124.5t-107 68t-131.5 22q-168 0 -270.5 -110t-102.5 -279z" />
    <glyph glyph-name="colon" unicode=":" horiz-adv-x="655" 
d="M479 901h-162l37 191h162zM305 0h-162l37 190h162z" />
    <glyph glyph-name="semicolon" unicode=";" horiz-adv-x="655" 
d="M487 901h-161l36 191h162zM0 -393q132 136 171 260t15 321l162 5q-14 -197 -83 -336.5t-222 -278.5z" />
    <glyph glyph-name="less" unicode="&#x3c;" 
d="M926 156l-699 442l23 115l870 434l33 -86l-817 -399l-2 -19l639 -399z" />
    <glyph glyph-name="equal" unicode="=" 
d="M1157 958l-18 -88h-875l17 88h876zM1059 451l-19 -86h-874l16 86h877z" />
    <glyph glyph-name="greater" unicode="&#x3e;" 
d="M197 162l-33 86l819 401l2 17l-639 399l47 88l699 -442l-23 -115z" />
    <glyph glyph-name="question" unicode="?" horiz-adv-x="1161" 
d="M336 1440l18 100q380 -45 561 -139t181 -252q0 -143 -146 -287.5t-483 -331.5l-35 60q302 170 426.5 291.5t124.5 232.5q0 135 -155.5 208t-491.5 118zM440 0h-161l38 186h162z" />
    <glyph glyph-name="at" unicode="@" horiz-adv-x="1683" 
d="M1243 -303q-162 -38 -300.5 -47.5t-247 7t-195 56.5t-147 101t-100.5 142t-58.5 176.5t-18.5 207.5q0 186 49 366t140.5 330t213 265.5t275 180t317.5 64.5q249 0 343 -140t38 -409l-100 -485q-24 -111 -57 -367l-92 2l26 203q-93 -94 -202.5 -157.5t-194.5 -63.5
q-97 0 -156 81t-59 228q0 126 43 243.5t116 205.5t177.5 141t220.5 53q80 0 196 -22q33 202 -46 301.5t-281 99.5q-142 0 -276 -58.5t-240.5 -164t-187 -243t-124 -304.5t-43.5 -340q0 -146 31.5 -257t104 -193.5t185 -123.5t280 -40t382.5 51zM967 221q80 0 187.5 64
t191.5 153l106 525q-137 30 -221 30q-114 0 -210 -74t-151 -197t-55 -265q0 -114 43 -175t109 -61z" />
    <glyph glyph-name="A" unicode="A" horiz-adv-x="1339" 
d="M1012 -4q-8 71 -18 152t-22.5 179.5t-19.5 153.5h-577q-35 -68 -118.5 -230.5t-127.5 -250.5h-109q376 738 748 1417h156q119 -781 190 -1413zM821 1321q-165 -304 -403 -758h524q-60 460 -104 758h-17z" />
    <glyph glyph-name="B" unicode="B" horiz-adv-x="1261" 
d="M1090 418q0 -76 -31.5 -144.5t-101 -130.5t-179.5 -100t-267 -53.5t-364 10.5l273 1407q194 25 333 15.5t229 -52t132.5 -104t42.5 -140.5q0 -141 -112.5 -249t-305.5 -152q156 -24 253.5 -107t97.5 -200zM1057 1104q0 122 -141 189t-408 36l-111 -584q168 6 298 38
t207.5 82t116 110.5t38.5 128.5zM985 401q0 63 -35 115t-105.5 91t-188.5 56.5t-273 8.5l-113 -586q188 -18 323.5 0t222.5 67.5t128 112t41 135.5z" />
    <glyph glyph-name="C" unicode="C" horiz-adv-x="1339" 
d="M905 1440q95 0 159.5 -32t100 -98t48.5 -155t8 -213l-101 -2q1 85 -3.5 142.5t-18.5 111.5t-39.5 85.5t-68.5 50t-105 18.5q-128 0 -241.5 -72t-191 -189t-122.5 -265.5t-45 -301.5q0 -216 98.5 -331.5t278.5 -122.5t434 86l-11 -101q-205 -73 -374 -79t-286 51.5
t-181 178.5t-64 296q0 180 57 351.5t152.5 301.5t231.5 209.5t284 79.5z" />
    <glyph glyph-name="D" unicode="D" horiz-adv-x="1402" 
d="M1286 864q0 -131 -30.5 -251t-92.5 -225t-156 -186t-220.5 -135t-286.5 -71.5t-353 4.5l273 1407q267 42 460 -3.5t299.5 -182.5t106.5 -357zM1182 852q0 275 -176 393t-498 82l-242 -1243q185 -15 338.5 17.5t259 102t178.5 171t106.5 221.5t33.5 256z" />
    <glyph glyph-name="E" unicode="E" horiz-adv-x="1198" 
d="M950 94l-24 -94h-779l273 1409h784l-18 -92h-680l-109 -559h582l-16 -84h-580l-113 -580h680z" />
    <glyph glyph-name="F" unicode="F" horiz-adv-x="1169" 
d="M963 645h-586l-125 -645h-105l273 1409h792l-16 -92h-690l-115 -590h588z" />
    <glyph glyph-name="G" unicode="G" horiz-adv-x="1398" 
d="M1006 -250l-97 -4l64 279q-180 -58 -326.5 -51.5t-250 66t-160 177t-56.5 281.5q0 144 36.5 284t104 257.5t157 208t203 141.5t234.5 51q187 0 262.5 -120t67.5 -378l-100 -2q1 83 -4.5 142t-21 112.5t-43 85t-72.5 50t-109 18.5q-172 0 -314.5 -122.5t-219 -311.5
t-76.5 -394q0 -202 86.5 -318t244 -134.5t377.5 51.5l97 420l104 4z" />
    <glyph glyph-name="H" unicode="H" horiz-adv-x="1476" 
d="M1014 0l131 674h-762l-131 -674h-105l273 1409h104l-125 -651h762l125 651h107l-275 -1409h-104z" />
    <glyph glyph-name="I" unicode="I" horiz-adv-x="1101" 
d="M514 86h326l-19 -86h-747l16 86h318l241 1239h-325l16 84h745l-16 -84h-315z" />
    <glyph glyph-name="J" unicode="J" horiz-adv-x="1034" 
d="M45 -27l16 101q237 -2 347.5 13.5t160.5 64.5q36 37 61.5 123.5t69.5 320.5l142 729h-441l19 84h543l-154 -795q-54 -280 -84.5 -374.5t-77.5 -141.5q-66 -66 -207.5 -95.5t-394.5 -29.5z" />
    <glyph glyph-name="K" unicode="K" horiz-adv-x="1273" 
d="M967 -8l-471 719l700 698h119l-697 -702l463 -701zM420 1409h104l-272 -1409h-105z" />
    <glyph glyph-name="L" unicode="L" horiz-adv-x="1155" 
d="M936 0h-789l273 1409h104l-254 -1315h688z" />
    <glyph glyph-name="M" unicode="M" horiz-adv-x="1652" 
d="M578 1413l188 -1130h4l629 1126h168l-273 -1409h-104l256 1292h-10l-639 -1145h-107l-190 1145h-11l-243 -1292h-99l273 1405z" />
    <glyph glyph-name="N" unicode="N" horiz-adv-x="1490" 
d="M1008 0l-504 1280h-12l-244 -1280h-101l273 1407l141 4l492 -1249h12l240 1247h100l-272 -1409h-125z" />
    <glyph glyph-name="O" unicode="O" horiz-adv-x="1492" 
d="M899 1440q210 0 342.5 -152t132.5 -409q0 -185 -58 -354t-154.5 -290.5t-229.5 -193.5t-277 -72q-213 0 -344 153t-131 410q0 185 57.5 353t154 289.5t229.5 193.5t278 72zM672 61q124 0 235 63.5t190.5 171t126 255.5t46.5 311q0 223 -108.5 354.5t-280.5 131.5
q-165 0 -302.5 -107.5t-215.5 -291t-78 -400.5q0 -223 107.5 -355.5t279.5 -132.5z" />
    <glyph glyph-name="P" unicode="P" horiz-adv-x="1222" 
d="M252 0h-105l273 1405q207 24 353.5 10.5t239.5 -65.5t136 -126t43 -171q0 -234 -222 -380.5t-622 -180.5zM1087 1036q0 76 -33 134t-101 97.5t-180.5 53.5t-262.5 0l-141 -725q345 9 531.5 125t186.5 315z" />
    <glyph glyph-name="Q" unicode="Q" horiz-adv-x="1411" 
d="M1085 -287l-688 279l25 69q232 89 411 228t280 313t101 354q0 184 -102 289t-285 105q-98 0 -185.5 -37t-155 -103t-111 -163.5t-58.5 -213.5t7 -258.5t82 -291.5l-89 -39q-73 155 -98 309.5t-5.5 284t75.5 242.5t140.5 191.5t195 123.5t233.5 45q217 0 339 -129.5
t122 -339.5q0 -189 -100 -370.5t-271 -325.5t-393 -244l569 -226z" />
    <glyph glyph-name="R" unicode="R" horiz-adv-x="1292" 
d="M1010 -10l-457 639l4 4q142 62 235.5 113t161 106t97.5 113t30 127q0 135 -144.5 197t-428.5 34l-256 -1323h-105l273 1407q204 23 349.5 12.5t238 -55t135.5 -108.5t43 -148q0 -152 -121.5 -268t-376.5 -230l434 -602z" />
    <glyph glyph-name="S" unicode="S" horiz-adv-x="1183" 
d="M1083 1061l-98 -21q-17 155 -84 230.5t-188 75.5q-126 0 -212.5 -87.5t-86.5 -205.5q0 -58 30.5 -115.5t79.5 -106t107.5 -96.5t117.5 -97t108 -98.5t79.5 -108.5t30.5 -120q0 -70 -30.5 -130t-100 -107.5t-171 -71.5t-254.5 -17t-339 52l24 106q139 -38 255.5 -55
t198.5 -12.5t144 22t98.5 49t54 68.5t17.5 80q0 53 -30.5 106t-79.5 99t-107.5 92.5t-117.5 96t-108 101t-79.5 115.5t-30.5 131q0 76 33.5 149t90 128t138.5 89t172 34q296 0 338 -375z" />
    <glyph glyph-name="T" unicode="T" horiz-adv-x="1210" 
d="M811 1317l-256 -1317h-104l254 1317h-453l18 92h1008l-16 -92h-451z" />
    <glyph glyph-name="U" unicode="U" horiz-adv-x="1431" 
d="M346 586q-100 -525 303 -525q172 0 281 105t153 336l177 907h104l-178 -913q-52 -269 -195 -397t-354 -128q-70 0 -130 13.5t-113.5 43.5t-90 78t-60 117t-22.5 160.5t21 208.5l159 817h105z" />
    <glyph glyph-name="V" unicode="V" horiz-adv-x="1286" 
d="M610 0h-155q-109 752 -174 1405l102 8q65 -626 158 -1317h16q402 739 682 1313h107q-275 -561 -736 -1409z" />
    <glyph glyph-name="W" unicode="W" horiz-adv-x="1595" 
d="M1010 0l-152 856l-485 -856h-135q3 213 36.5 594.5t90.5 814.5h102q-45 -350 -85 -741t-44 -547h10l494 878h84l155 -878h11q56 153 167 540t205 748h103q-110 -426 -227 -808t-199 -601h-131z" />
    <glyph glyph-name="X" unicode="X" horiz-adv-x="1329" 
d="M985 -6l-301 633l-528 -627h-121l606 711l-332 692l107 14l303 -635l526 627h123l-606 -711l330 -692z" />
    <glyph glyph-name="Y" unicode="Y" 
d="M586 0h-109l94 479l-305 928l107 6l272 -842l590 838h115l-674 -940z" />
    <glyph glyph-name="Z" unicode="Z" horiz-adv-x="1267" 
d="M993 0h-923l14 90l1042 1229l-786 -4l18 94h902l-17 -90l-1038 -1229l807 4z" />
    <glyph glyph-name="bracketleft" unicode="[" horiz-adv-x="991" 
d="M59 -406l385 1975h627l-18 -86h-529l-348 -1800h526l-16 -89h-627z" />
    <glyph glyph-name="backslash" unicode="\" horiz-adv-x="972" 
d="M272 1606l553 -1987l-86 -22l-551 1982z" />
    <glyph glyph-name="bracketright" unicode="]" horiz-adv-x="991" 
d="M948 1571l-385 -1972h-626l18 86h528l351 1800h-529l17 86h626z" />
    <glyph glyph-name="asciicircum" unicode="^" 
d="M1030 385l-319 580l-510 -586l-70 61l582 664l30 4l377 -666z" />
    <glyph glyph-name="underscore" unicode="_" horiz-adv-x="1019" 
d="M887 -115l-17 -82h-1005l16 82h1006z" />
    <glyph glyph-name="grave" unicode="`" horiz-adv-x="1173" 
d="M788 1292l-32 -47q-95 74 -208.5 183.5t-185.5 201.5l89 84q67 -103 163.5 -224.5t173.5 -197.5z" />
    <glyph glyph-name="a" unicode="a" horiz-adv-x="1249" 
d="M412 74q86 0 203.5 74.5t213.5 179.5l129 661q-134 35 -235 35q-132 0 -244.5 -94.5t-176.5 -250.5t-64 -333q0 -131 48.5 -201.5t125.5 -70.5zM1157 72q-112 -65 -188.5 -83.5t-113.5 7t-49 83.5t5 146q-106 -106 -225.5 -175.5t-212.5 -69.5q-106 0 -172 89.5
t-66 254.5q0 154 50 298.5t135.5 253t206.5 173.5t255 65q117 0 295 -45l-157 -799q-22 -98 -14.5 -147.5t60.5 -48.5t175 55z" />
    <glyph glyph-name="b" unicode="b" horiz-adv-x="1239" 
d="M461 -20q-123 0 -303 47l301 1560l104 8l-141 -725q102 106 220.5 176t211.5 70q110 0 178 -94t68 -270q0 -151 -49 -292t-132.5 -246.5t-203.5 -169.5t-254 -64zM520 68q132 0 243 92.5t173.5 245.5t62.5 327q0 140 -51.5 214.5t-130.5 74.5q-88 0 -206 -77t-210 -183
l-129 -656q146 -38 248 -38z" />
    <glyph glyph-name="c" unicode="c" horiz-adv-x="1085" 
d="M989 778l-96 -2q1 135 -39.5 191.5t-132.5 56.5q-93 0 -181 -52t-152 -137.5t-103 -202.5t-39 -241q0 -116 42.5 -192.5t123 -108.5t203.5 -13.5t278 89.5l18 -62q-244 -130 -414 -126.5t-261 110t-91 289.5q0 188 84 359.5t223 275.5t291 104q133 0 194 -82.5t52 -255.5
z" />
    <glyph glyph-name="d" unicode="d" horiz-adv-x="1267" 
d="M430 74q88 0 203.5 68t206.5 167l131 680q-147 39 -250 39q-131 0 -242 -93t-174 -246.5t-63 -326.5q0 -141 52 -214.5t136 -73.5zM1176 72q-110 -64 -186.5 -83.5t-116 5t-52 78.5t-0.5 139q-99 -101 -217 -166t-213 -65q-112 0 -181 94t-69 270q0 151 49 292.5
t132.5 247t203.5 169t254 63.5q94 0 211 -24l96 495l105 8l-258 -1316q-11 -56 -14.5 -91t0.5 -63.5t18.5 -39.5t43 -11.5t70.5 13.5t103 42z" />
    <glyph glyph-name="e" unicode="e" horiz-adv-x="1118" 
d="M940 119q-151 -84 -281 -118t-223.5 -20t-160.5 65t-99.5 134t-32.5 191q0 132 46.5 265.5t125 239.5t192 173t236.5 67q126 0 197.5 -65.5t71.5 -176.5q0 -190 -202 -308t-566 -148v-37q0 -116 42.5 -190.5t126 -104t213.5 -7t298 98.5zM723 1026q-121 0 -224 -78.5
t-165 -199t-82 -259.5q199 17 345 62.5t230 123.5t84 181q0 79 -49.5 124.5t-138.5 45.5z" />
    <glyph glyph-name="f" unicode="f" horiz-adv-x="1140" 
d="M807 -23q0 -169 -99.5 -277t-238.5 -108q-131 0 -214 122.5t-83 363.5q0 243 86 538l-63 41l12 52h80q82 239 201 439.5t262 325.5t274 125q64 0 108 -28t59 -80t3 -119t-62.5 -151.5t-134.5 -169.5l-39 34q96 114 128.5 211t3 149t-106.5 52q-101 0 -215.5 -109.5
t-213.5 -287.5t-169 -391l643 -2l-14 -84l-608 6q401 -332 401 -652zM506 -319q94 0 157.5 75t63.5 199q0 295 -383 620q-72 -266 -72 -487q0 -205 65.5 -306t168.5 -101z" />
    <glyph glyph-name="g" unicode="g" horiz-adv-x="1236" 
d="M455 139q99 0 203 87.5t190 244.5q41 254 133 487q-136 68 -254 68q-131 0 -240.5 -88.5t-170 -229t-60.5 -294.5q0 -132 55 -203.5t144 -71.5zM930 -225q-107 -209 -805 -162l10 106q231 -22 381 -12.5t217 28t92 44.5q30 30 33 91t-8.5 198.5t-11.5 240.5v29
q-88 -134 -195.5 -214.5t-222.5 -80.5q-120 0 -193 90.5t-73 255.5q0 190 80.5 356t225.5 267.5t320 101.5q117 0 246 -57q28 57 45 57q24 0 48 -14t24 -31q0 -42 -64 -224t-139 -353q-8 -71 -8 -148q0 -119 10.5 -255.5t10 -202.5t-22.5 -111z" />
    <glyph glyph-name="h" unicode="h" horiz-adv-x="1339" 
d="M1229 70q-92 -55 -163.5 -77t-114.5 -11.5t-65 41.5t-22 81q0 73 40.5 225.5t81 309t40.5 238.5q0 145 -141 145q-99 0 -229 -77t-265 -226l-139 -719h-100l307 1587l104 8l-151 -772q135 143 271 218t251 75q100 0 150.5 -56t50.5 -147q0 -94 -41 -258t-82 -312.5
t-41 -205.5q0 -40 18 -55t71 -5t148 52z" />
    <glyph glyph-name="i" unicode="i" horiz-adv-x="811" 
d="M612 1292l-102 -6l70 293l116 6zM745 78q-110 -59 -199.5 -83.5t-149 -15t-95.5 47.5t-40.5 104.5t15.5 155.5l175 710l-289 -61l-12 59l331 101l88 -6l-190 -787q-45 -182 33.5 -221t314.5 55z" />
    <glyph glyph-name="j" unicode="j" horiz-adv-x="765" 
d="M659 1292l-102 -6l76 297l117 4zM-88 -395l6 104q207 -4 278 5.5t107 45.5q28 28 37.5 90.5t13 168t10.5 235t39 330t89 413.5l-297 -57l-13 59l344 97l90 -4q-67 -233 -105.5 -454.5t-47.5 -364t-15 -262t-22 -193.5t-55 -113q-52 -54 -155.5 -76t-303.5 -24z" />
    <glyph glyph-name="k" unicode="k" horiz-adv-x="1212" 
d="M938 -8l-444 465q272 131 392 248t120 204q0 52 -31.5 81.5t-85.5 29.5q-96 0 -228 -76.5t-270 -226.5l-139 -717h-100l307 1587l104 8l-151 -774q132 142 270 218.5t246 76.5q86 0 136 -47t50 -123q0 -111 -119 -238.5t-370 -252.5l432 -447z" />
    <glyph glyph-name="l" unicode="l" horiz-adv-x="1032" 
d="M877 152q-190 -128 -329.5 -159.5t-222 39t-94.5 244.5q-21 -15 -58.5 -41t-41.5 -28l-35 55q7 5 58 42.5t75 55.5q2 148 33 303t80.5 290t116 256.5t138 207.5t147 136.5t141.5 50.5q84 0 129 -56.5t45 -156.5q0 -215 -177 -484t-552 -565q2 -99 24.5 -160.5t64.5 -88.5
t106 -20.5t143 40.5t182 96zM852 1501q-74 0 -162.5 -94t-164 -241t-130 -345.5t-63.5 -390.5q170 138 295 273.5t195 253t103 216.5t33 185q0 68 -29 105.5t-77 37.5z" />
    <glyph glyph-name="m" unicode="m" horiz-adv-x="1896" 
d="M1784 70q-92 -55 -163.5 -77t-114 -11.5t-64 41.5t-21.5 81q0 73 40.5 225.5t81 309.5t40.5 240q0 72 -30 107.5t-95 35.5q-87 0 -199 -75t-237 -222l-143 -725h-101l150 750q28 145 4.5 208.5t-107.5 63.5q-88 0 -199 -75.5t-233 -223.5q-55 -303 -141 -723h-100
q130 651 202 1090l99 6q-6 -37 -21 -133t-22 -136q123 143 239.5 216t216.5 73q210 0 168 -293q124 144 246 218.5t225 74.5q92 0 138.5 -55t46.5 -143q0 -96 -40.5 -261t-81 -314t-40.5 -206q0 -40 17.5 -55t70 -5t147.5 52z" />
    <glyph glyph-name="n" unicode="n" horiz-adv-x="1341" 
d="M1229 70q-92 -55 -163.5 -77t-114.5 -11.5t-65 41.5t-22 81q0 73 40.5 225.5t81 308t40.5 236.5q0 148 -141 148q-99 0 -228 -76.5t-264 -224.5q-52 -284 -141 -721h-100q130 651 202 1090l99 6q-6 -35 -21 -133.5t-22 -141.5q135 145 271 220t253 75q100 0 150.5 -56
t50.5 -147q0 -94 -41 -258t-82 -312.5t-41 -205.5q0 -40 18 -55t71 -5t148 52z" />
    <glyph glyph-name="o" unicode="o" horiz-adv-x="1230" 
d="M145 416q0 143 45.5 273t122 223.5t181.5 148.5t219 55q171 0 271.5 -116.5t100.5 -323.5q0 -190 -77 -351.5t-207.5 -254.5t-282.5 -93q-172 0 -272.5 116t-100.5 323zM983 655q0 174 -79.5 273.5t-213.5 99.5q-126 0 -228 -80.5t-158 -215.5t-56 -296q0 -173 79 -271.5
t214 -98.5q126 0 228 78.5t158 213t56 297.5z" />
    <glyph glyph-name="p" unicode="p" horiz-adv-x="1239" 
d="M518 66q132 0 243 92.5t173.5 246t62.5 328.5q0 141 -51 215t-131 74q-87 0 -204 -74t-210 -178q-9 -47 -32.5 -169.5t-47.5 -250.5t-47 -246q140 -38 244 -38zM176 -391l-100 -8q21 111 75 388t69.5 358.5t47 250t50 273.5t36.5 219l99 6q-7 -39 -37 -230
q105 108 223.5 179t212.5 71q110 0 179 -94.5t69 -269.5q0 -153 -49 -294.5t-133 -246.5t-203.5 -168t-253.5 -63q-88 0 -207 22q-14 -69 -78 -393z" />
    <glyph glyph-name="q" unicode="q" horiz-adv-x="1239" 
d="M1102 -313q-151 -81 -238.5 -90.5t-115.5 46t-5 175.5l76 391q-99 -100 -215.5 -164.5t-210.5 -64.5q-113 0 -182.5 94t-69.5 270q0 152 49 293.5t132.5 247t203.5 168.5t254 63q128 0 307 -51l-239 -1225q-9 -45 -11.5 -71t3 -47t20.5 -27t45 -3.5t72 15.5t106 37z
M430 74q88 0 203 66.5t205 164.5l133 684q-127 39 -250 39q-131 0 -242 -93t-174 -246.5t-63 -326.5q0 -142 52 -215t136 -73z" />
    <glyph glyph-name="r" unicode="r" horiz-adv-x="1196" 
d="M1100 57q-290 -128 -378 -29q-119 134 96 722q40 110 91 235q-253 -87 -420 -84q-53 -122 -142 -261t-185 -255l-47 41q216 279 293 487q-72 22 -72 82q0 59 51 123t105 64q27 0 42 -18.5t15 -51.5q0 -46 -27 -129q219 17 473 129l47 -37q-253 -641 -261 -853
q-6 -139 85 -152q68 -10 217 47z" />
    <glyph glyph-name="s" unicode="s" horiz-adv-x="1064" 
d="M903 262q0 -44 -13 -81.5t-44.5 -73.5t-82.5 -61t-127 -44t-179 -21t-238 7l4 98q144 -19 246 -16t167 14.5t102 38.5t51 56.5t14 68.5q0 52 -31 119.5t-70.5 126t-86.5 139t-70 145.5q-147 -156 -379 -325l-37 49q156 127 244.5 211.5t146.5 163.5q-4 36 -4 53
q0 59 27 122t68 104.5t79 41.5q52 0 58 -56q8 -89 -105 -246l-18 -24q12 -55 45 -121.5t71.5 -127.5t75.5 -122.5t61.5 -124t24.5 -114.5z" />
    <glyph glyph-name="t" unicode="t" horiz-adv-x="956" 
d="M848 117q-109 -59 -199.5 -93.5t-157.5 -43t-117 3.5t-79.5 43.5t-43.5 80t-11 110.5t20 138l146 652h-197l22 82h138l147 313l80 6l-72 -319h408l-17 -82h-409l-146 -646q-26 -108 -18 -178t57 -97t155 -5.5t277 96.5z" />
    <glyph glyph-name="u" unicode="u" horiz-adv-x="1359" 
d="M924 264l2 8q-139 -149 -254.5 -222t-225.5 -73q-134 0 -188 104t-6 314l139 600l-239 -53l-13 59l287 95l90 -6l-162 -689q-30 -119 -18.5 -192t49 -105t100.5 -32q94 0 203 73t258 230l141 717h101l-162 -822q-22 -98 -14.5 -147.5t60.5 -48.5t175 55l17 -57
q-118 -64 -195.5 -81t-115 10.5t-44.5 94t15 168.5z" />
    <glyph glyph-name="v" unicode="v" horiz-adv-x="1132" 
d="M489 88q291 514 543 1004h111q-309 -580 -611 -1102h-141q-106 564 -178 1100l102 6q80 -600 160 -1008h14z" />
    <glyph glyph-name="w" unicode="w" horiz-adv-x="1415" 
d="M891 0l-164 686l-414 -686h-98q3 486 74 1092h104q-56 -506 -82 -940h6l408 677h72l153 -679h11q152 464 278 942h107q-138 -495 -359 -1092h-96z" />
    <glyph glyph-name="x" unicode="x" horiz-adv-x="1130" 
d="M797 -4l-244 481l-426 -477h-115l498 547l-285 540l111 11l252 -482l424 476h116l-497 -545l278 -541z" />
    <glyph glyph-name="y" unicode="y" horiz-adv-x="1269" 
d="M938 -223q-106 -210 -793 -166l15 108q181 -13 301 -14t200.5 12t119.5 28t57 34q20 19 30.5 51t13 88.5t1.5 108.5t-3.5 151.5t-2.5 177.5q-105 -132 -235.5 -218.5t-250.5 -86.5q-405 0 -16 1041l100 4q-82 -227 -127.5 -398t-56 -274.5t7 -167.5t51.5 -87.5t86 -23.5
q92 0 215.5 87t229.5 223q13 136 53 293.5t83.5 259.5t67.5 102q27 0 49.5 -12t22.5 -31q0 -50 -59.5 -249.5t-128.5 -346.5q-4 -82 -4 -123q0 -79 3 -194.5t3 -168.5t-7.5 -112.5t-25.5 -95.5z" />
    <glyph glyph-name="z" unicode="z" horiz-adv-x="1128" 
d="M887 0h-807l16 86l840 920l-674 -5l25 91h780l-16 -86l-840 -918l702 2z" />
    <glyph glyph-name="braceleft" unicode="{" horiz-adv-x="1024" 
d="M705 -463q-277 136 -394.5 236t-117.5 202q0 53 27 103.5t65 88.5t76 73.5t65 73.5t27 73q0 136 -295 164l12 78q197 12 283 64.5t86 121.5q0 34 -21.5 81t-46.5 88.5t-46.5 97t-21.5 102.5q0 129 160.5 239.5t523.5 204.5l17 -94q-316 -74 -461 -155t-145 -177
q0 -38 21.5 -89t47 -94t47 -94t21.5 -89q0 -73 -70 -142.5t-205 -103.5q100 -28 145.5 -76.5t45.5 -107.5q0 -45 -26.5 -89t-64 -80.5l-75 -73t-64 -80t-26.5 -87.5q0 -85 105 -168.5t352 -204.5z" />
    <glyph glyph-name="bar" unicode="|" horiz-adv-x="759" 
d="M539 1587h94l-389 -1997h-94z" />
    <glyph glyph-name="braceright" unicode="}" horiz-adv-x="1024" 
d="M-49 -461l-17 94q316 74 461.5 155t145.5 177q0 47 -35 115l-70 136t-35 114q0 73 70.5 142.5t204.5 105.5q-99 28 -144 76t-45 108q0 45 26 88.5t63.5 80t75 72.5t63.5 79.5t26 86.5q0 87 -104 170.5t-350 202.5l47 88q278 -138 395 -237t117 -201q0 -54 -27 -104.5
t-65 -88.5t-76 -73.5t-65 -73t-27 -72.5q0 -139 295 -164l-13 -77q-102 -6 -177 -25t-115 -46t-58 -56t-18 -62t21 -79.5t46.5 -87.5t46.5 -96.5t21 -102.5q0 -129 -160.5 -240t-523.5 -205z" />
    <glyph glyph-name="asciitilde" unicode="~" 
d="M862 465q-53 0 -101.5 37t-84.5 90t-69.5 106t-71.5 90t-76 37q-63 0 -132.5 -93t-133.5 -245l-76 29q89 203 177.5 304.5t180.5 101.5q46 0 88 -26.5t72 -67t62 -87t57.5 -87t58 -67t64.5 -26.5q63 0 132.5 92.5t135.5 245.5l76 -29q-91 -205 -178 -305t-181 -100z" />
    <glyph glyph-name="uni00A0" unicode="&#xa0;" horiz-adv-x="628" 
 />
    <glyph glyph-name="exclamdown" unicode="&#xa1;" horiz-adv-x="737" 
d="M463 1409h162l-39 -186h-162zM403 907h66q-34 -173 -93.5 -538t-82.5 -494h-135q238 999 245 1032z" />
    <glyph glyph-name="cent" unicode="&#xa2;" 
d="M311 573q0 -239 285 -333l170 733q-124 -17 -214.5 -55.5t-142 -93t-75 -116.5t-23.5 -135zM971 84q-173 6 -314 37l-69 -318h-99l80 340q-183 58 -269.5 164t-86.5 246q0 89 31.5 169.5t97 151.5t178 122.5t262.5 74.5l76 338h98l-75 -326q138 10 270 2l-16 -102
q-158 9 -279 0l-178 -768q152 -32 313 -37z" />
    <glyph glyph-name="sterling" unicode="&#xa3;" 
d="M1118 287q-28 -77 -58.5 -133t-65.5 -90.5t-69 -55.5t-78.5 -25.5t-84.5 -2.5t-96 15t-103.5 26t-117.5 31t-128 30q-97 -111 -231 -111q-85 0 -103 46q-16 42 34 87q76 69 230 72h29q44 95 65 194t36 236h-193l19 86h182q15 132 37.5 230.5t69.5 191.5q32 65 75.5 121
t98.5 104t124.5 75.5t143.5 27.5q288 0 276 -408l-106 -4q0 120 -24.5 191t-65.5 98t-105 27q-101 0 -186.5 -70t-142.5 -184q-65 -129 -95 -400h484l-17 -86h-475q-15 -146 -34.5 -247t-59.5 -181q-1 -3 -4 -8t-4 -6q52 -10 114 -25.5t102.5 -26t88.5 -21t81 -12.5t70 1.5
t65 19.5t57 43.5t55 70.5t51 103z" />
    <glyph glyph-name="yen" unicode="&#xa5;" 
d="M1044 270h-413l-51 -270h-105l53 270h-422l17 88h422l47 234l-10 26h-408l16 89h357l-271 700l109 6l277 -727l555 723h114l-545 -702h344l-16 -89h-395l-31 -38l-41 -222h418z" />
    <glyph glyph-name="section" unicode="&#xa7;" horiz-adv-x="1288" 
d="M285 569q0 -25 10 -48.5t34 -46.5t44.5 -39.5t63 -39.5t66.5 -35.5t76 -37.5q23 -11 35 -17q211 52 303.5 104.5t92.5 118.5q0 32 -17.5 61t-58.5 58.5t-73 48.5t-98 53t-95 50q-107 -17 -189.5 -45t-138 -76t-55.5 -109zM940 10q0 -54 -31 -101.5t-101 -84t-171 -54
t-254.5 -6.5t-337.5 54l25 106q164 -44 298 -61.5t219 -12t143 28t82 54t24 69.5q0 43 -35.5 82.5t-93 72t-126.5 65t-138 67.5t-126.5 72.5t-93 87t-35.5 104.5q0 115 108 187.5t292 105.5q-86 56 -134 117.5t-48 140.5q0 134 124 233t306 99q151 0 230.5 -83.5
t100.5 -250.5l-96 -19q-19 136 -84 200.5t-184 64.5q-126 0 -210.5 -67t-84.5 -161q0 -53 33 -101t86 -85t117 -72t128 -69.5t117 -70t86 -81t33 -96.5q0 -91 -97.5 -159t-305.5 -124q112 -60 173.5 -118.5t61.5 -133.5z" />
    <glyph glyph-name="dieresis" unicode="&#xa8;" horiz-adv-x="1173" 
d="M858 1292l-102 -2l69 293l117 4zM418 1286l-103 -2l70 295l117 2z" />
    <glyph glyph-name="copyright" unicode="&#xa9;" horiz-adv-x="1896" 
d="M1038 1481q200 0 357 -80.5t249.5 -241t92.5 -379.5q0 -150 -45 -284.5t-126 -236.5t-189 -177t-237.5 -113.5t-267.5 -38.5q-203 0 -360 79t-249.5 238t-92.5 378q0 150 45.5 284.5t127 237.5t189.5 179t238 115.5t268 39.5zM1038 1405q-156 0 -298.5 -56t-250.5 -155
t-172.5 -245t-64.5 -316q0 -200 82.5 -344t221.5 -214.5t318 -70.5q155 0 296.5 55.5t249 153.5t171.5 243.5t64 315.5q0 151 -47.5 272t-131 199.5t-195.5 120t-243 41.5zM1051 1104q123 0 164.5 -80.5t27.5 -241.5h-82q3 57 0 102.5t-14 76.5t-37.5 48t-69.5 17
q-87 0 -159 -63t-111 -159t-39 -198q0 -165 112.5 -211.5t330.5 29.5l-9 -80q-239 -83 -380.5 -15t-141.5 265q0 126 54 243.5t149 192t205 74.5z" />
    <glyph glyph-name="ordfeminine" unicode="&#xaa;" horiz-adv-x="1167" 
d="M489 643q66 0 154 53.5t158 128.5l98 494q-95 24 -172 24q-100 0 -185 -70.5t-133.5 -186t-48.5 -246.5q0 -95 36.5 -146t92.5 -51zM1047 625q-78 -46 -135 -58.5t-87.5 6t-41 59.5t-1.5 103q-82 -77 -170.5 -126.5t-158.5 -49.5q-82 0 -132.5 67.5t-50.5 194.5
q0 154 65 291.5t182 223t255 85.5q107 0 232 -32l-119 -590q-14 -63 -15.5 -95.5t12 -52t49 -13t99.5 35.5zM205 371h749l-14 -80h-750z" />
    <glyph glyph-name="guillemotleft" unicode="&#xab;" horiz-adv-x="1531" 
d="M553 -31l-397 525l28 112l588 518l64 -75l-590 -508l385 -504zM1178 -31l-385 510l30 113l590 532l62 -80l-592 -518l374 -489z" />
    <glyph glyph-name="registered" unicode="&#xae;" horiz-adv-x="1388" 
d="M1296 1044q0 -168 -81 -302t-213 -205.5t-287 -71.5q-207 0 -338 125.5t-131 349.5q0 126 47.5 235.5t128 184t186.5 117.5t221 43q206 0 336.5 -126t130.5 -350zM829 1456q-137 0 -253.5 -62.5t-188.5 -180.5t-72 -267q0 -202 111.5 -311t290.5 -109q135 0 251.5 63
t188.5 181t72 266q0 203 -111 311.5t-289 108.5zM913 733l-174 217v4q195 67 195 154q0 48 -54 72.5t-165 11.5l-86 -453h-74l100 512q174 25 263.5 -15t89.5 -114q0 -110 -181 -184l162 -193z" />
    <glyph glyph-name="macron" unicode="&#xaf;" horiz-adv-x="1173" 
d="M940 1487l-18 -90h-662l16 90h664z" />
    <glyph glyph-name="degree" unicode="&#xb0;" 
d="M791 1518q147 0 241 -96.5t94 -250.5q0 -93 -35 -174t-93 -135.5t-133.5 -85.5t-155.5 -31q-147 0 -241.5 96.5t-94.5 250.5q0 124 60 223t155 151t203 52zM723 829q132 0 222.5 93.5t90.5 240.5q0 120 -70 196.5t-190 76.5q-131 0 -222 -94.5t-91 -241.5
q0 -119 70.5 -195t189.5 -76z" />
    <glyph glyph-name="plusminus" unicode="&#xb1;" 
d="M1024 174h-915l16 88h410l81 422h-417l18 86h416l84 432h94l-84 -432h420l-19 -86h-417l-82 -422h413z" />
    <glyph glyph-name="two.sup" unicode="&#xb2;" horiz-adv-x="1042" 
d="M840 739h-594l-2 74q108 71 176.5 118.5t144 104t120 98t83.5 87.5t55.5 88.5t16.5 85.5q0 215 -426 151l12 86q248 37 377 -22t129 -197q0 -60 -25 -118.5t-67.5 -111t-116 -114.5t-152.5 -118t-196 -132h483z" />
    <glyph glyph-name="three.sup" unicode="&#xb3;" horiz-adv-x="1042" 
d="M889 983q0 -43 -18.5 -81.5t-62.5 -75.5t-116 -59.5t-178.5 -32.5t-251.5 5l12 86q160 -13 262.5 -8.5t161.5 30.5t81 55.5t22 66.5q0 148 -379 227l6 43l432 317h-440l14 80h543l-10 -77l-428 -318q350 -84 350 -258z" />
    <glyph glyph-name="acute" unicode="&#xb4;" horiz-adv-x="1173" 
d="M393 1313q101 71 225 182t209 205l84 -90q-93 -82 -231.5 -177.5t-261.5 -166.5z" />
    <glyph glyph-name="mu" unicode="&#xb5;" horiz-adv-x="1341" 
d="M176 -391l-102 -8l293 1489l104 8l-137 -697q-35 -178 1.5 -253.5t135.5 -75.5q93 0 200.5 73t256.5 230l141 717h98l-163 -822q-21 -99 -12.5 -148.5t62 -48.5t177.5 54l16 -53q-118 -65 -196 -82.5t-115.5 10.5t-45 94t14.5 168l2 10q-140 -150 -252 -223.5t-215 -73.5
q-136 0 -178 111z" />
    <glyph glyph-name="paragraph" unicode="&#xb6;" horiz-adv-x="1480" 
d="M1069 340l191 973q-151 9 -281 0l-178 -928q119 -30 268 -45zM319 827q0 -135 101 -243t289 -172l172 891q-268 -40 -415 -169t-147 -307zM676 -248l-101 -14l113 577q-227 69 -351 198.5t-124 299.5q0 110 52 209.5t153.5 178t241 132t324 74.5t392.5 4l-311 -1595
l-100 -15l88 449q-129 8 -271 39z" />
    <glyph glyph-name="periodcentered" unicode="&#xb7;" horiz-adv-x="655" 
d="M428 541h-162l39 192h162z" />
    <glyph glyph-name="cedilla" unicode="&#xb8;" horiz-adv-x="1173" 
d="M299 -324l-59 23q121 319 276 319q95 0 147 -102t39 -305h-96q17 326 -102 326q-97 0 -205 -261z" />
    <glyph glyph-name="one.sup" unicode="&#xb9;" horiz-adv-x="1042" 
d="M870 739h-618l16 78h279l129 656l-264 -19l6 66l272 32l25 125l90 6l-170 -866h254z" />
    <glyph glyph-name="ordmasculine" unicode="&#xba;" horiz-adv-x="1202" 
d="M1063 1090q0 -140 -61 -262.5t-165 -195.5t-225 -73q-133 0 -213 89.5t-80 244.5q0 141 61 264t165 195.5t225 72.5q134 0 213.5 -89t79.5 -246zM973 1077q0 127 -60 199t-165 72q-147 0 -241.5 -127.5t-94.5 -313.5q0 -126 60.5 -198t164.5 -72q146 0 241 127.5
t95 312.5zM209 371h719l-15 -80h-720z" />
    <glyph glyph-name="guillemotright" unicode="&#xbb;" horiz-adv-x="1536" 
d="M766 -31l-64 78l590 508l-385 502l78 69l397 -526l-28 -111zM125 -29l-62 78l592 518l-374 492l79 67l385 -510l-30 -112z" />
    <glyph glyph-name="onequarter" unicode="&#xbc;" horiz-adv-x="2310" 
d="M846 512h-619l17 78h278l129 655l-264 -18l6 65l273 33l24 125l90 6l-170 -866h254zM653 -45l-57 47l1173 1446l62 -47zM2064 201h-112l-39 -201h-82l39 201h-453l6 61q99 160 165 302.5t128 342.5l94 -6q-64 -200 -131.5 -336.5t-165.5 -285.5h371l62 319l86 8l-64 -327
h121z" />
    <glyph glyph-name="onehalf" unicode="&#xbd;" horiz-adv-x="2310" 
d="M846 512h-619l17 78h278l129 655l-264 -18l6 65l273 33l24 125l90 6l-170 -866h254zM633 -45l-58 47l1174 1446l61 -47zM1985 0h-594l-2 74q108 72 176.5 119t144.5 103t120 98t83 88t55.5 88t16.5 85q0 216 -426 152l12 86q248 37 377 -22t129 -197q0 -60 -25 -118.5
t-67.5 -111t-116 -114.5t-152.5 -118t-196 -132h483z" />
    <glyph glyph-name="threequarters" unicode="&#xbe;" horiz-adv-x="2310" 
d="M627 -45l-58 47l1174 1446l61 -47zM864 756q0 -43 -18.5 -81.5t-62 -75.5t-115.5 -59.5t-178.5 -32.5t-251.5 5l12 86q127 -15 219 -10.5t151 16.5t94 35.5t48.5 48t13.5 53.5q0 149 -379 228l6 43l433 317h-441l15 80h542l-10 -78l-428 -317q350 -84 350 -258zM2064 201
h-112l-39 -201h-82l39 201h-453l6 61q99 160 165 302.5t128 342.5l94 -6q-64 -200 -131.5 -336.5t-165.5 -285.5h371l62 319l86 8l-64 -327h121z" />
    <glyph glyph-name="questiondown" unicode="&#xbf;" horiz-adv-x="1161" 
d="M799 1409h162l-39 -186h-162zM905 -31l-20 -100q-380 45 -560 139t-180 252q0 144 145.5 288.5t481.5 330.5l35 -60q-301 -168 -425 -289.5t-124 -234.5q0 -136 155 -208.5t492 -117.5z" />
    <glyph glyph-name="Agrave" unicode="&#xc0;" horiz-adv-x="1339" 
d="M1059 1616l-33 -47q-94 74 -207 183.5t-186 201.5l88 84q66 -102 163 -224t175 -198zM1012 -4q-8 71 -18 152t-22.5 179.5t-19.5 153.5h-577q-35 -68 -118.5 -230.5t-127.5 -250.5h-109q376 738 748 1417h156q119 -781 190 -1413zM821 1321q-165 -304 -403 -758h524
q-60 460 -104 758h-17z" />
    <glyph glyph-name="Aacute" unicode="&#xc1;" horiz-adv-x="1339" 
d="M682 1636q101 71 225 182t209 205l84 -90q-93 -82 -231.5 -177.5t-261.5 -166.5zM1012 -4q-8 71 -18 152t-22.5 179.5t-19.5 153.5h-577q-35 -68 -118.5 -230.5t-127.5 -250.5h-109q376 738 748 1417h156q119 -781 190 -1413zM821 1321q-165 -304 -403 -758h524
q-60 460 -104 758h-17z" />
    <glyph glyph-name="Acircumflex" unicode="&#xc2;" horiz-adv-x="1339" 
d="M1161 1591l-215 289l-350 -278l-51 59l420 336h2l268 -346zM1012 -4q-8 71 -18 152t-22.5 179.5t-19.5 153.5h-577q-35 -68 -118.5 -230.5t-127.5 -250.5h-109q376 738 748 1417h156q119 -781 190 -1413zM821 1321q-165 -304 -403 -758h524q-60 460 -104 758h-17z" />
    <glyph glyph-name="Atilde" unicode="&#xc3;" horiz-adv-x="1339" 
d="M1065 1698q47 0 98.5 64.5t124.5 191.5l60 -35q-84 -153 -158.5 -229t-147.5 -76q-47 0 -86.5 40.5t-62.5 88.5t-55 88.5t-66 40.5q-48 0 -101.5 -62.5t-121.5 -181.5l-57 35q83 150 157 222.5t148 72.5q39 0 71.5 -27t54.5 -65t42.5 -76t46 -65t53.5 -27zM1012 -4
q-8 71 -18 152t-22.5 179.5t-19.5 153.5h-577q-35 -68 -118.5 -230.5t-127.5 -250.5h-109q376 738 748 1417h156q119 -781 190 -1413zM821 1321q-165 -304 -403 -758h524q-60 460 -104 758h-17z" />
    <glyph glyph-name="Adieresis" unicode="&#xc4;" horiz-adv-x="1339" 
d="M1141 1616l-103 -2l70 293l117 4zM700 1610l-102 -2l70 295l116 2zM1012 -4q-8 71 -18 152t-22.5 179.5t-19.5 153.5h-577q-35 -68 -118.5 -230.5t-127.5 -250.5h-109q376 738 748 1417h156q119 -781 190 -1413zM821 1321q-165 -304 -403 -758h524q-60 460 -104 758h-17z
" />
    <glyph glyph-name="Aring" unicode="&#xc5;" horiz-adv-x="1339" 
d="M934 2025q113 0 185.5 -61t72.5 -156q0 -106 -82.5 -179t-206.5 -73q-113 0 -185.5 61.5t-72.5 158.5q0 105 82.5 177t206.5 72zM926 1954q-84 0 -140.5 -49.5t-56.5 -120.5q0 -68 51.5 -112t130.5 -44q84 0 141.5 49.5t57.5 120.5q0 67 -52 111.5t-132 44.5zM1012 -4
q-8 71 -18 152t-22.5 179.5t-19.5 153.5h-577q-35 -68 -118.5 -230.5t-127.5 -250.5h-109q376 738 748 1417h156q119 -781 190 -1413zM821 1321q-165 -304 -403 -758h524q-60 460 -104 758h-17z" />
    <glyph glyph-name="AE" unicode="&#xc6;" horiz-adv-x="1947" 
d="M1139 1317q-228 -283 -615 -770h482l149 770h-16zM899 0l90 463h-530q-327 -421 -359 -463h-116q541 707 1114 1409h856l-19 -92h-675l-107 -559h576l-15 -84h-577l-113 -580h676l-23 -94h-778z" />
    <glyph glyph-name="Ccedilla" unicode="&#xc7;" horiz-adv-x="1339" 
d="M1085 51q-222 -77 -395 -80q91 -101 74 -356h-96q9 166 -19 246t-84 80q-97 0 -205 -260l-59 22q87 230 193 295q-152 46 -233 173.5t-81 326.5q0 180 57 351.5t152.5 301.5t231.5 209.5t284 79.5q95 0 159.5 -32t100 -98t48.5 -155t8 -213l-101 -2q1 85 -3.5 142.5
t-18.5 111.5t-39.5 85.5t-68.5 50t-105 18.5q-128 0 -241.5 -72t-191 -189t-122.5 -265.5t-45 -301.5q0 -216 98.5 -331.5t278.5 -122.5t434 86z" />
    <glyph glyph-name="Egrave" unicode="&#xc8;" horiz-adv-x="1198" 
d="M1014 1610l-33 -47q-94 74 -207 183.5t-186 201.5l88 84q66 -102 163 -224t175 -198zM950 94l-24 -94h-779l273 1409h784l-18 -92h-680l-109 -559h582l-16 -84h-580l-113 -580h680z" />
    <glyph glyph-name="Eacute" unicode="&#xc9;" horiz-adv-x="1198" 
d="M637 1630q101 71 225 182t209 205l84 -90q-93 -82 -231.5 -177.5t-261.5 -166.5zM950 94l-24 -94h-779l273 1409h784l-18 -92h-680l-109 -559h582l-16 -84h-580l-113 -580h680z" />
    <glyph glyph-name="Ecircumflex" unicode="&#xca;" horiz-adv-x="1198" 
d="M1116 1585l-215 289l-350 -279l-51 60l420 336h2l268 -346zM950 94l-24 -94h-779l273 1409h784l-18 -92h-680l-109 -559h582l-16 -84h-580l-113 -580h680z" />
    <glyph glyph-name="Edieresis" unicode="&#xcb;" horiz-adv-x="1198" 
d="M1096 1610l-103 -2l70 293l117 4zM655 1604l-102 -2l70 294l116 2zM950 94l-24 -94h-779l273 1409h784l-18 -92h-680l-109 -559h582l-16 -84h-580l-113 -580h680z" />
    <glyph glyph-name="Igrave" unicode="&#xcc;" horiz-adv-x="1101" 
d="M932 1610l-33 -47q-94 74 -207 183.5t-186 201.5l88 84q66 -102 163 -224t175 -198zM514 86h326l-19 -86h-747l16 86h318l241 1239h-325l16 84h745l-16 -84h-315z" />
    <glyph glyph-name="Iacute" unicode="&#xcd;" horiz-adv-x="1101" 
d="M555 1630q101 71 225 182t209 205l84 -90q-93 -82 -231.5 -177.5t-261.5 -166.5zM514 86h326l-19 -86h-747l16 86h318l241 1239h-325l16 84h745l-16 -84h-315z" />
    <glyph glyph-name="Icircumflex" unicode="&#xce;" horiz-adv-x="1101" 
d="M1034 1585l-215 289l-350 -279l-51 60l420 336h2l268 -346zM514 86h326l-19 -86h-747l16 86h318l241 1239h-325l16 84h745l-16 -84h-315z" />
    <glyph glyph-name="Idieresis" unicode="&#xcf;" horiz-adv-x="1101" 
d="M1014 1610l-103 -2l70 293l117 4zM573 1604l-102 -2l70 294l116 2zM514 86h326l-19 -86h-747l16 86h318l241 1239h-325l16 84h745l-16 -84h-315z" />
    <glyph glyph-name="Eth" unicode="&#xd0;" horiz-adv-x="1413" 
d="M1296 864q0 -158 -43.5 -298.5t-135 -257t-223.5 -195t-321 -109.5t-415 -4l131 676h-180l16 82h180l125 649q267 42 460 -3.5t299.5 -182.5t106.5 -357zM766 676h-375l-115 -592q185 -15 338.5 18t259 102.5t178.5 171t106.5 221t33.5 255.5q0 276 -176 393.5t-500 81.5
l-108 -569h376z" />
    <glyph glyph-name="Ntilde" unicode="&#xd1;" horiz-adv-x="1490" 
d="M1133 1694q47 0 98.5 64.5t124.5 191.5l59 -35q-85 -153 -158.5 -229t-146.5 -76q-47 0 -86.5 40.5t-62.5 88.5t-55 88.5t-66 40.5q-48 0 -102 -62.5t-122 -181.5l-57 35q83 150 157 222.5t148 72.5q39 0 71.5 -27t55 -65t43 -76t46 -65t53.5 -27zM1008 0l-504 1280h-12
l-244 -1280h-101l273 1407l141 4l492 -1249h12l240 1247h100l-272 -1409h-125z" />
    <glyph glyph-name="Ograve" unicode="&#xd2;" horiz-adv-x="1492" 
d="M1130 1630l-32 -47q-94 74 -207 183.5t-186 201.5l88 84q67 -103 163.5 -224.5t173.5 -197.5zM899 1440q210 0 342.5 -152t132.5 -409q0 -185 -58 -354t-154.5 -290.5t-229.5 -193.5t-277 -72q-213 0 -344 153t-131 410q0 185 57.5 353t154 289.5t229.5 193.5t278 72z
M672 61q124 0 235 63.5t190.5 171t126 255.5t46.5 311q0 223 -108.5 354.5t-280.5 131.5q-165 0 -302.5 -107.5t-215.5 -291t-78 -400.5q0 -223 107.5 -355.5t279.5 -132.5z" />
    <glyph glyph-name="Oacute" unicode="&#xd3;" horiz-adv-x="1492" 
d="M754 1651q101 71 225 182t209 205l84 -90q-93 -81 -231.5 -176.5t-262.5 -167.5zM899 1440q210 0 342.5 -152t132.5 -409q0 -185 -58 -354t-154.5 -290.5t-229.5 -193.5t-277 -72q-213 0 -344 153t-131 410q0 185 57.5 353t154 289.5t229.5 193.5t278 72zM672 61
q124 0 235 63.5t190.5 171t126 255.5t46.5 311q0 223 -108.5 354.5t-280.5 131.5q-165 0 -302.5 -107.5t-215.5 -291t-78 -400.5q0 -223 107.5 -355.5t279.5 -132.5z" />
    <glyph glyph-name="Ocircumflex" unicode="&#xd4;" horiz-adv-x="1492" 
d="M1231 1606l-215 288l-350 -278l-52 59l420 336h2l269 -346zM899 1440q210 0 342.5 -152t132.5 -409q0 -185 -58 -354t-154.5 -290.5t-229.5 -193.5t-277 -72q-213 0 -344 153t-131 410q0 185 57.5 353t154 289.5t229.5 193.5t278 72zM672 61q124 0 235 63.5t190.5 171
t126 255.5t46.5 311q0 223 -108.5 354.5t-280.5 131.5q-165 0 -302.5 -107.5t-215.5 -291t-78 -400.5q0 -223 107.5 -355.5t279.5 -132.5z" />
    <glyph glyph-name="Otilde" unicode="&#xd5;" horiz-adv-x="1492" 
d="M1137 1712q47 0 98.5 64.5t124.5 191.5l59 -35q-85 -153 -158.5 -229t-146.5 -76q-47 0 -86.5 40.5t-62.5 88.5t-55 88.5t-66 40.5q-48 0 -101.5 -62.5t-121.5 -181.5l-58 35q83 150 157 222.5t148 72.5q39 0 71.5 -27t55 -65t43 -76t46 -65t53.5 -27zM899 1440
q210 0 342.5 -152t132.5 -409q0 -185 -58 -354t-154.5 -290.5t-229.5 -193.5t-277 -72q-213 0 -344 153t-131 410q0 185 57.5 353t154 289.5t229.5 193.5t278 72zM672 61q124 0 235 63.5t190.5 171t126 255.5t46.5 311q0 223 -108.5 354.5t-280.5 131.5
q-165 0 -302.5 -107.5t-215.5 -291t-78 -400.5q0 -223 107.5 -355.5t279.5 -132.5z" />
    <glyph glyph-name="Odieresis" unicode="&#xd6;" horiz-adv-x="1492" 
d="M1212 1630l-102 -2l70 293l116 4zM772 1624l-102 -2l69 295l117 2zM899 1440q210 0 342.5 -152t132.5 -409q0 -185 -58 -354t-154.5 -290.5t-229.5 -193.5t-277 -72q-213 0 -344 153t-131 410q0 185 57.5 353t154 289.5t229.5 193.5t278 72zM672 61q124 0 235 63.5
t190.5 171t126 255.5t46.5 311q0 223 -108.5 354.5t-280.5 131.5q-165 0 -302.5 -107.5t-215.5 -291t-78 -400.5q0 -223 107.5 -355.5t279.5 -132.5z" />
    <glyph glyph-name="multiply" unicode="&#xd7;" 
d="M936 227l-287 357l-405 -338l-58 73l406 338l-287 357l74 63l287 -358l407 340l55 -76l-403 -336l287 -356z" />
    <glyph glyph-name="Oslash" unicode="&#xd8;" horiz-adv-x="1492" 
d="M285 549q0 -138 45 -250l852 889q-53 77 -130.5 118.5t-170.5 41.5q-165 0 -302.5 -107.5t-215.5 -291t-78 -400.5zM672 61q164 0 301.5 107.5t216 291.5t78.5 402q0 143 -47 252l-852 -889q51 -79 129 -121.5t174 -42.5zM653 -31q-112 0 -204.5 45t-155.5 129l-182 -188
l-60 53l197 207q-70 134 -70 317q0 185 57.5 353t154.5 289.5t230 193.5t279 72q225 0 358 -172l181 188l59 -55l-194 -203q71 -136 71 -319q0 -185 -58 -354t-155 -290.5t-230 -193.5t-278 -72z" />
    <glyph glyph-name="Ugrave" unicode="&#xd9;" horiz-adv-x="1431" 
d="M1106 1610l-33 -47q-94 74 -207 183.5t-186 201.5l88 84q66 -102 163 -224t175 -198zM346 586q-100 -525 303 -525q172 0 281 105t153 336l177 907h104l-178 -913q-52 -269 -195 -397t-354 -128q-70 0 -130 13.5t-113.5 43.5t-90 78t-60 117t-22.5 160.5t21 208.5
l159 817h105z" />
    <glyph glyph-name="Uacute" unicode="&#xda;" horiz-adv-x="1431" 
d="M729 1630q101 71 225 182t209 205l84 -90q-93 -82 -231.5 -177.5t-261.5 -166.5zM346 586q-100 -525 303 -525q172 0 281 105t153 336l177 907h104l-178 -913q-52 -269 -195 -397t-354 -128q-70 0 -130 13.5t-113.5 43.5t-90 78t-60 117t-22.5 160.5t21 208.5l159 817
h105z" />
    <glyph glyph-name="Ucircumflex" unicode="&#xdb;" horiz-adv-x="1431" 
d="M1208 1585l-215 289l-350 -279l-51 60l420 336h2l268 -346zM346 586q-100 -525 303 -525q172 0 281 105t153 336l177 907h104l-178 -913q-52 -269 -195 -397t-354 -128q-70 0 -130 13.5t-113.5 43.5t-90 78t-60 117t-22.5 160.5t21 208.5l159 817h105z" />
    <glyph glyph-name="Udieresis" unicode="&#xdc;" horiz-adv-x="1431" 
d="M1188 1610l-103 -2l70 293l117 4zM748 1604l-103 -2l70 294l116 2zM346 586q-100 -525 303 -525q172 0 281 105t153 336l177 907h104l-178 -913q-52 -269 -195 -397t-354 -128q-70 0 -130 13.5t-113.5 43.5t-90 78t-60 117t-22.5 160.5t21 208.5l159 817h105z" />
    <glyph glyph-name="Yacute" unicode="&#xdd;" 
d="M645 1632q101 71 225 182t209 205l84 -90q-93 -82 -231.5 -177.5t-261.5 -166.5zM586 0h-109l94 479l-305 928l107 6l272 -842l590 838h115l-674 -940z" />
    <glyph glyph-name="Thorn" unicode="&#xde;" horiz-adv-x="1216" 
d="M254 0h-107l275 1405h104l-45 -231q139 10 250.5 -2.5t188.5 -44t128.5 -80t75 -108t23.5 -130.5q0 -234 -222.5 -380.5t-621.5 -178.5zM1042 795q0 156 -142 234t-437 50l-141 -727q347 9 533.5 126t186.5 317z" />
    <glyph glyph-name="germandbls" unicode="&#xdf;" horiz-adv-x="1255" 
d="M438 -12l15 100q150 -15 253 -9.5t166.5 33.5t91 66.5t27.5 89.5q0 93 -91.5 207.5t-291.5 265.5q221 192 314.5 322t93.5 246q0 84 -50.5 135t-140.5 51q-54 0 -99.5 -20.5t-91 -70.5t-84.5 -131.5t-76.5 -206t-70.5 -290.5l-151 -776h-100l151 768q43 225 101.5 386
t130 254t148.5 135t167 42q127 0 197.5 -71.5t70.5 -184.5q0 -241 -377 -569q349 -272 349 -471q0 -54 -21.5 -102t-71 -90t-123 -69.5t-185.5 -39t-251 -0.5z" />
    <glyph glyph-name="agrave" unicode="&#xe0;" horiz-adv-x="1249" 
d="M975 1305l-33 -48q-94 74 -207 183.5t-186 201.5l88 84q66 -102 163 -223t175 -198zM412 74q86 0 203.5 74.5t213.5 179.5l129 661q-134 35 -235 35q-132 0 -244.5 -94.5t-176.5 -250.5t-64 -333q0 -131 48.5 -201.5t125.5 -70.5zM1157 72q-112 -65 -188.5 -83.5
t-113.5 7t-49 83.5t5 146q-106 -106 -225.5 -175.5t-212.5 -69.5q-106 0 -172 89.5t-66 254.5q0 154 50 298.5t135.5 253t206.5 173.5t255 65q117 0 295 -45l-157 -799q-22 -98 -14.5 -147.5t60.5 -48.5t175 55z" />
    <glyph glyph-name="aacute" unicode="&#xe1;" horiz-adv-x="1249" 
d="M598 1325q101 71 225 182t209 205l84 -90q-93 -82 -231.5 -177.5t-261.5 -166.5zM412 74q86 0 203.5 74.5t213.5 179.5l129 661q-134 35 -235 35q-132 0 -244.5 -94.5t-176.5 -250.5t-64 -333q0 -131 48.5 -201.5t125.5 -70.5zM1157 72q-112 -65 -188.5 -83.5t-113.5 7
t-49 83.5t5 146q-106 -106 -225.5 -175.5t-212.5 -69.5q-106 0 -172 89.5t-66 254.5q0 154 50 298.5t135.5 253t206.5 173.5t255 65q117 0 295 -45l-157 -799q-22 -98 -14.5 -147.5t60.5 -48.5t175 55z" />
    <glyph glyph-name="acircumflex" unicode="&#xe2;" horiz-adv-x="1249" 
d="M1075 1280l-215 289l-350 -279l-51 60l420 336h2l268 -347zM412 74q86 0 203.5 74.5t213.5 179.5l129 661q-134 35 -235 35q-132 0 -244.5 -94.5t-176.5 -250.5t-64 -333q0 -131 48.5 -201.5t125.5 -70.5zM1157 72q-112 -65 -188.5 -83.5t-113.5 7t-49 83.5t5 146
q-106 -106 -225.5 -175.5t-212.5 -69.5q-106 0 -172 89.5t-66 254.5q0 154 50 298.5t135.5 253t206.5 173.5t255 65q117 0 295 -45l-157 -799q-22 -98 -14.5 -147.5t60.5 -48.5t175 55z" />
    <glyph glyph-name="atilde" unicode="&#xe3;" horiz-adv-x="1249" 
d="M981 1386q47 0 98.5 64.5t124.5 191.5l60 -34q-84 -153 -158.5 -229t-147.5 -76q-47 0 -86.5 40.5t-62.5 88.5t-55 88.5t-66 40.5q-48 0 -101.5 -62.5t-121.5 -181.5l-57 35q83 150 157 222.5t148 72.5q39 0 71.5 -27t54.5 -65.5t42.5 -76.5t46 -65t53.5 -27zM412 74
q86 0 203.5 74.5t213.5 179.5l129 661q-134 35 -235 35q-132 0 -244.5 -94.5t-176.5 -250.5t-64 -333q0 -131 48.5 -201.5t125.5 -70.5zM1157 72q-112 -65 -188.5 -83.5t-113.5 7t-49 83.5t5 146q-106 -106 -225.5 -175.5t-212.5 -69.5q-106 0 -172 89.5t-66 254.5
q0 154 50 298.5t135.5 253t206.5 173.5t255 65q117 0 295 -45l-157 -799q-22 -98 -14.5 -147.5t60.5 -48.5t175 55z" />
    <glyph glyph-name="adieresis" unicode="&#xe4;" horiz-adv-x="1249" 
d="M1057 1305l-103 -2l70 292l117 4zM616 1298l-102 -2l70 295l116 2zM412 74q86 0 203.5 74.5t213.5 179.5l129 661q-134 35 -235 35q-132 0 -244.5 -94.5t-176.5 -250.5t-64 -333q0 -131 48.5 -201.5t125.5 -70.5zM1157 72q-112 -65 -188.5 -83.5t-113.5 7t-49 83.5t5 146
q-106 -106 -225.5 -175.5t-212.5 -69.5q-106 0 -172 89.5t-66 254.5q0 154 50 298.5t135.5 253t206.5 173.5t255 65q117 0 295 -45l-157 -799q-22 -98 -14.5 -147.5t60.5 -48.5t175 55z" />
    <glyph glyph-name="aring" unicode="&#xe5;" horiz-adv-x="1249" 
d="M848 1714q113 0 185.5 -61t72.5 -156q0 -106 -82.5 -179t-206.5 -73q-113 0 -185.5 61.5t-72.5 157.5q0 105 82.5 177.5t206.5 72.5zM840 1642q-84 0 -140.5 -49t-56.5 -120q0 -68 51.5 -112t130.5 -44q84 0 141.5 49.5t57.5 120.5q0 67 -52 111t-132 44zM412 74
q86 0 203.5 74.5t213.5 179.5l129 661q-134 35 -235 35q-132 0 -244.5 -94.5t-176.5 -250.5t-64 -333q0 -131 48.5 -201.5t125.5 -70.5zM1157 72q-112 -65 -188.5 -83.5t-113.5 7t-49 83.5t5 146q-106 -106 -225.5 -175.5t-212.5 -69.5q-106 0 -172 89.5t-66 254.5
q0 154 50 298.5t135.5 253t206.5 173.5t255 65q117 0 295 -45l-157 -799q-22 -98 -14.5 -147.5t60.5 -48.5t175 55z" />
    <glyph glyph-name="ae" unicode="&#xe6;" horiz-adv-x="1804" 
d="M1628 119q-149 -80 -276.5 -114t-219.5 -24t-159 55t-102 120t-40 174q-103 -148 -226.5 -249t-229.5 -101q-103 0 -171.5 90t-68.5 254q0 154 49.5 298.5t134 253t205 173.5t254.5 65q164 0 340 -110q144 112 314 112q125 0 196.5 -65.5t71.5 -176.5q0 -191 -202 -309.5
t-566 -146.5v-33q0 -117 40.5 -191.5t122.5 -105.5t212.5 -8.5t304.5 98.5zM1411 1026q-122 0 -225.5 -78.5t-165.5 -199.5t-82 -261q202 18 347.5 63.5t229.5 123.5t84 182q0 79 -49.5 124.5t-138.5 45.5zM410 74q91 0 210 108.5t216 255.5q10 139 63 267t139 223
q-158 96 -311 96q-135 0 -248 -94.5t-177 -250t-64 -333.5q0 -130 49.5 -201t122.5 -71z" />
    <glyph glyph-name="ccedilla" unicode="&#xe7;" horiz-adv-x="1085" 
d="M911 104q-197 -107 -350 -122q99 -96 82 -367h-96q9 166 -19 246t-84 80q-96 0 -204 -260l-60 22q84 229 193 293q-110 37 -169 136.5t-59 244.5q0 188 84 359.5t223 275.5t291 104q133 0 194 -82.5t52 -255.5l-96 -2q1 135 -39.5 191.5t-132.5 56.5q-93 0 -181 -52
t-152 -137.5t-103 -202.5t-39 -241q0 -116 42.5 -192.5t123 -108.5t203.5 -13.5t278 89.5z" />
    <glyph glyph-name="egrave" unicode="&#xe8;" horiz-adv-x="1118" 
d="M950 1307l-32 -47q-95 74 -208.5 183.5t-185.5 201.5l88 84q66 -102 163 -224t175 -198zM940 119q-151 -84 -281 -118t-223.5 -20t-160.5 65t-99.5 134t-32.5 191q0 132 46.5 265.5t125 239.5t192 173t236.5 67q126 0 197.5 -65.5t71.5 -176.5q0 -190 -202 -308
t-566 -148v-37q0 -116 42.5 -190.5t126 -104t213.5 -7t298 98.5zM723 1026q-121 0 -224 -78.5t-165 -199t-82 -259.5q199 17 345 62.5t230 123.5t84 181q0 79 -49.5 124.5t-138.5 45.5z" />
    <glyph glyph-name="eacute" unicode="&#xe9;" horiz-adv-x="1118" 
d="M573 1327q101 71 225.5 182t209.5 205l84 -90q-93 -81 -231.5 -176.5t-262.5 -167.5zM940 119q-151 -84 -281 -118t-223.5 -20t-160.5 65t-99.5 134t-32.5 191q0 132 46.5 265.5t125 239.5t192 173t236.5 67q126 0 197.5 -65.5t71.5 -176.5q0 -190 -202 -308t-566 -148
v-37q0 -116 42.5 -190.5t126 -104t213.5 -7t298 98.5zM723 1026q-121 0 -224 -78.5t-165 -199t-82 -259.5q199 17 345 62.5t230 123.5t84 181q0 79 -49.5 124.5t-138.5 45.5z" />
    <glyph glyph-name="ecircumflex" unicode="&#xea;" horiz-adv-x="1118" 
d="M1053 1282l-215 289l-351 -279l-51 60l420 336h2l268 -347zM940 119q-151 -84 -281 -118t-223.5 -20t-160.5 65t-99.5 134t-32.5 191q0 132 46.5 265.5t125 239.5t192 173t236.5 67q126 0 197.5 -65.5t71.5 -176.5q0 -190 -202 -308t-566 -148v-37q0 -116 42.5 -190.5
t126 -104t213.5 -7t298 98.5zM723 1026q-121 0 -224 -78.5t-165 -199t-82 -259.5q199 17 345 62.5t230 123.5t84 181q0 79 -49.5 124.5t-138.5 45.5z" />
    <glyph glyph-name="edieresis" unicode="&#xeb;" horiz-adv-x="1118" 
d="M1034 1307l-102 -2l69 292l117 5zM594 1300l-102 -2l69 295l117 2zM940 119q-151 -84 -281 -118t-223.5 -20t-160.5 65t-99.5 134t-32.5 191q0 132 46.5 265.5t125 239.5t192 173t236.5 67q126 0 197.5 -65.5t71.5 -176.5q0 -190 -202 -308t-566 -148v-37
q0 -116 42.5 -190.5t126 -104t213.5 -7t298 98.5zM723 1026q-121 0 -224 -78.5t-165 -199t-82 -259.5q199 17 345 62.5t230 123.5t84 181q0 79 -49.5 124.5t-138.5 45.5z" />
    <glyph glyph-name="igrave" unicode="&#xec;" horiz-adv-x="811" 
d="M717 1294l-33 -47q-94 74 -207 183.5t-186 201.5l88 84q66 -102 163 -224t175 -198zM745 78q-110 -59 -199.5 -83.5t-149 -15t-95.5 47.5t-40.5 104.5t15.5 155.5l175 710l-289 -61l-12 59l331 101l88 -6l-190 -787q-45 -182 33.5 -221t314.5 55z" />
    <glyph glyph-name="iacute" unicode="&#xed;" horiz-adv-x="811" 
d="M340 1315q101 71 225 182t209 205l84 -90q-93 -82 -231.5 -177.5t-261.5 -166.5zM745 78q-110 -59 -199.5 -83.5t-149 -15t-95.5 47.5t-40.5 104.5t15.5 155.5l175 710l-289 -61l-12 59l331 101l88 -6l-190 -787q-45 -182 33.5 -221t314.5 55z" />
    <glyph glyph-name="icircumflex" unicode="&#xee;" horiz-adv-x="811" 
d="M819 1270l-215 289l-350 -279l-51 59l420 336h2l268 -346zM745 78q-110 -59 -199.5 -83.5t-149 -15t-95.5 47.5t-40.5 104.5t15.5 155.5l175 710l-289 -61l-12 59l331 101l88 -6l-190 -787q-45 -182 33.5 -221t314.5 55z" />
    <glyph glyph-name="idieresis" unicode="&#xef;" horiz-adv-x="811" 
d="M799 1294l-103 -2l70 293l117 4zM358 1288l-102 -2l70 295l116 2zM745 78q-110 -59 -199.5 -83.5t-149 -15t-95.5 47.5t-40.5 104.5t15.5 155.5l175 710l-289 -61l-12 59l331 101l88 -6l-190 -787q-45 -182 33.5 -221t314.5 55z" />
    <glyph glyph-name="eth" unicode="&#xf0;" horiz-adv-x="1212" 
d="M530 -23q-174 0 -279.5 119t-105.5 314q0 167 73.5 311t200 229.5t275.5 85.5q120 0 230 -39q-50 149 -156 287l-340 -100l-20 73l307 91q-82 92 -209 194l74 70q131 -109 237 -234l262 76l19 -74l-230 -67q203 -281 203 -621q0 -313 -153.5 -514t-387.5 -201zM557 66
q124 0 218.5 80.5t145 221.5t50.5 320q0 89 -17 189q-142 73 -295 73q-116 0 -211.5 -72.5t-147.5 -190.5t-52 -253q0 -167 85 -267.5t224 -100.5z" />
    <glyph glyph-name="ntilde" unicode="&#xf1;" horiz-adv-x="1341" 
d="M993 1397q47 0 99.5 65t124.5 191l59 -35q-85 -153 -158.5 -229t-146.5 -76q-39 0 -71.5 26.5t-55.5 64.5t-44 76t-46.5 64.5t-53.5 26.5q-48 0 -101.5 -62.5t-121.5 -181.5l-57 35q83 150 157 222.5t148 72.5q39 0 71.5 -27t54.5 -65t42.5 -76t46 -65t53.5 -27zM1229 70
q-92 -55 -163.5 -77t-114.5 -11.5t-65 41.5t-22 81q0 73 40.5 225.5t81 308t40.5 236.5q0 148 -141 148q-99 0 -228 -76.5t-264 -224.5q-52 -284 -141 -721h-100q130 651 202 1090l99 6q-6 -35 -21 -133.5t-22 -141.5q135 145 271 220t253 75q100 0 150.5 -56t50.5 -147
q0 -94 -41 -258t-82 -312.5t-41 -205.5q0 -40 18 -55t71 -5t148 52z" />
    <glyph glyph-name="ograve" unicode="&#xf2;" horiz-adv-x="1230" 
d="M938 1307l-33 -47q-94 74 -207 183.5t-186 201.5l88 84q66 -102 163 -224t175 -198zM145 416q0 143 45.5 273t122 223.5t181.5 148.5t219 55q171 0 271.5 -116.5t100.5 -323.5q0 -190 -77 -351.5t-207.5 -254.5t-282.5 -93q-172 0 -272.5 116t-100.5 323zM983 655
q0 174 -79.5 273.5t-213.5 99.5q-126 0 -228 -80.5t-158 -215.5t-56 -296q0 -173 79 -271.5t214 -98.5q126 0 228 78.5t158 213t56 297.5z" />
    <glyph glyph-name="oacute" unicode="&#xf3;" horiz-adv-x="1230" 
d="M561 1327q101 71 225 182t209 205l84 -90q-93 -82 -231.5 -177.5t-261.5 -166.5zM145 416q0 143 45.5 273t122 223.5t181.5 148.5t219 55q171 0 271.5 -116.5t100.5 -323.5q0 -190 -77 -351.5t-207.5 -254.5t-282.5 -93q-172 0 -272.5 116t-100.5 323zM983 655
q0 174 -79.5 273.5t-213.5 99.5q-126 0 -228 -80.5t-158 -215.5t-56 -296q0 -173 79 -271.5t214 -98.5q126 0 228 78.5t158 213t56 297.5z" />
    <glyph glyph-name="ocircumflex" unicode="&#xf4;" horiz-adv-x="1230" 
d="M1038 1282l-215 289l-350 -279l-51 60l420 336h2l268 -347zM145 416q0 143 45.5 273t122 223.5t181.5 148.5t219 55q171 0 271.5 -116.5t100.5 -323.5q0 -190 -77 -351.5t-207.5 -254.5t-282.5 -93q-172 0 -272.5 116t-100.5 323zM983 655q0 174 -79.5 273.5t-213.5 99.5
q-126 0 -228 -80.5t-158 -215.5t-56 -296q0 -173 79 -271.5t214 -98.5q126 0 228 78.5t158 213t56 297.5z" />
    <glyph glyph-name="otilde" unicode="&#xf5;" horiz-adv-x="1230" 
d="M944 1389q47 0 98.5 64.5t124.5 191.5l60 -35q-85 -153 -158.5 -229t-146.5 -76q-39 0 -71.5 26.5t-55.5 64.5t-44 76t-46.5 64.5t-53.5 26.5q-48 0 -101.5 -62.5t-121.5 -181.5l-57 35q83 150 157 222.5t148 72.5q39 0 71.5 -27t54.5 -65t42.5 -76t46 -65t53.5 -27z
M145 416q0 143 45.5 273t122 223.5t181.5 148.5t219 55q171 0 271.5 -116.5t100.5 -323.5q0 -190 -77 -351.5t-207.5 -254.5t-282.5 -93q-172 0 -272.5 116t-100.5 323zM983 655q0 174 -79.5 273.5t-213.5 99.5q-126 0 -228 -80.5t-158 -215.5t-56 -296q0 -173 79 -271.5
t214 -98.5q126 0 228 78.5t158 213t56 297.5z" />
    <glyph glyph-name="odieresis" unicode="&#xf6;" horiz-adv-x="1230" 
d="M1020 1307l-102 -2l69 292l117 5zM580 1300l-103 -2l70 295l117 2zM145 416q0 143 45.5 273t122 223.5t181.5 148.5t219 55q171 0 271.5 -116.5t100.5 -323.5q0 -190 -77 -351.5t-207.5 -254.5t-282.5 -93q-172 0 -272.5 116t-100.5 323zM983 655q0 174 -79.5 273.5
t-213.5 99.5q-126 0 -228 -80.5t-158 -215.5t-56 -296q0 -173 79 -271.5t214 -98.5q126 0 228 78.5t158 213t56 297.5z" />
    <glyph glyph-name="divide" unicode="&#xf7;" 
d="M788 979h-143l35 166h139zM1151 696l-18 -88h-967l18 88h967zM637 162h-143l32 166h140z" />
    <glyph glyph-name="oslash" unicode="&#xf8;" horiz-adv-x="1230" 
d="M248 436q0 -103 33 -190l630 674q-79 108 -221 108q-126 0 -228 -80.5t-158 -215.5t-56 -296zM541 66q126 0 228 78.5t158 213t56 297.5q0 107 -31 189l-633 -672q77 -106 222 -106zM518 -23q-169 0 -272 115l-140 -145l-59 53l154 162q-56 103 -56 254q0 143 45.5 273
t122 223.5t181.5 148.5t219 55q176 0 272 -119l139 150l60 -55l-154 -160q55 -110 55 -256q0 -190 -77 -351.5t-207.5 -254.5t-282.5 -93z" />
    <glyph glyph-name="ugrave" unicode="&#xf9;" horiz-adv-x="1359" 
d="M989 1294l-33 -47q-94 74 -207 183.5t-186 201.5l88 84q66 -102 163 -224t175 -198zM924 264l2 8q-139 -149 -254.5 -222t-225.5 -73q-134 0 -188 104t-6 314l139 600l-239 -53l-13 59l287 95l90 -6l-162 -689q-30 -119 -18.5 -192t49 -105t100.5 -32q94 0 203 73
t258 230l141 717h101l-162 -822q-22 -98 -14.5 -147.5t60.5 -48.5t175 55l17 -57q-118 -64 -195.5 -81t-115 10.5t-44.5 94t15 168.5z" />
    <glyph glyph-name="uacute" unicode="&#xfa;" horiz-adv-x="1359" 
d="M612 1315q101 71 225.5 182t209.5 205l83 -90q-93 -82 -231.5 -177.5t-261.5 -166.5zM924 264l2 8q-139 -149 -254.5 -222t-225.5 -73q-134 0 -188 104t-6 314l139 600l-239 -53l-13 59l287 95l90 -6l-162 -689q-30 -119 -18.5 -192t49 -105t100.5 -32q94 0 203 73
t258 230l141 717h101l-162 -822q-22 -98 -14.5 -147.5t60.5 -48.5t175 55l17 -57q-118 -64 -195.5 -81t-115 10.5t-44.5 94t15 168.5z" />
    <glyph glyph-name="ucircumflex" unicode="&#xfb;" horiz-adv-x="1359" 
d="M1090 1270l-216 289l-350 -279l-51 59l420 336h2l268 -346zM924 264l2 8q-139 -149 -254.5 -222t-225.5 -73q-134 0 -188 104t-6 314l139 600l-239 -53l-13 59l287 95l90 -6l-162 -689q-30 -119 -18.5 -192t49 -105t100.5 -32q94 0 203 73t258 230l141 717h101l-162 -822
q-22 -98 -14.5 -147.5t60.5 -48.5t175 55l17 -57q-118 -64 -195.5 -81t-115 10.5t-44.5 94t15 168.5z" />
    <glyph glyph-name="udieresis" unicode="&#xfc;" horiz-adv-x="1359" 
d="M1071 1294l-102 -2l69 293l117 4zM631 1288l-103 -2l70 295l117 2zM924 264l2 8q-139 -149 -254.5 -222t-225.5 -73q-134 0 -188 104t-6 314l139 600l-239 -53l-13 59l287 95l90 -6l-162 -689q-30 -119 -18.5 -192t49 -105t100.5 -32q94 0 203 73t258 230l141 717h101
l-162 -822q-22 -98 -14.5 -147.5t60.5 -48.5t175 55l17 -57q-118 -64 -195.5 -81t-115 10.5t-44.5 94t15 168.5z" />
    <glyph glyph-name="yacute" unicode="&#xfd;" horiz-adv-x="1269" 
d="M621 1331q101 71 225 182t209 205l84 -90q-93 -81 -231.5 -176.5t-262.5 -167.5zM938 -223q-106 -210 -793 -166l15 108q181 -13 301 -14t200.5 12t119.5 28t57 34q20 19 30.5 51t13 88.5t1.5 108.5t-3.5 151.5t-2.5 177.5q-105 -132 -235.5 -218.5t-250.5 -86.5
q-405 0 -16 1041l100 4q-82 -227 -127.5 -398t-56 -274.5t7 -167.5t51.5 -87.5t86 -23.5q92 0 215.5 87t229.5 223q13 136 53 293.5t83.5 259.5t67.5 102q27 0 49.5 -12t22.5 -31q0 -50 -59.5 -249.5t-128.5 -346.5q-4 -82 -4 -123q0 -79 3 -194.5t3 -168.5t-7.5 -112.5
t-25.5 -95.5z" />
    <glyph glyph-name="thorn" unicode="&#xfe;" horiz-adv-x="1239" 
d="M520 68q131 0 241.5 92.5t173 245.5t62.5 327q0 141 -51 215t-131 74q-87 0 -204 -74t-210 -178l-129 -664q143 -38 248 -38zM176 -391l-102 -8l385 1986l104 8l-141 -723q102 105 219.5 174.5t210.5 69.5q110 0 179 -94.5t69 -269.5q0 -153 -49 -294.5t-133 -246.5
t-203.5 -168t-253.5 -63q-93 0 -207 24z" />
    <glyph glyph-name="ydieresis" unicode="&#xff;" horiz-adv-x="1269" 
d="M1079 1311l-102 -2l70 293l116 4zM639 1305l-102 -2l69 294l117 2zM938 -223q-106 -210 -793 -166l15 108q181 -13 301 -14t200.5 12t119.5 28t57 34q20 19 30.5 51t13 88.5t1.5 108.5t-3.5 151.5t-2.5 177.5q-105 -132 -235.5 -218.5t-250.5 -86.5q-405 0 -16 1041
l100 4q-82 -227 -127.5 -398t-56 -274.5t7 -167.5t51.5 -87.5t86 -23.5q92 0 215.5 87t229.5 223q13 136 53 293.5t83.5 259.5t67.5 102q27 0 49.5 -12t22.5 -31q0 -50 -59.5 -249.5t-128.5 -346.5q-4 -82 -4 -123q0 -79 3 -194.5t3 -168.5t-7.5 -112.5t-25.5 -95.5z" />
    <glyph glyph-name="Amacron" unicode="&#x100;" horiz-adv-x="1339" 
d="M1253 1810l-18 -90h-662l17 90h663zM1012 -4q-8 71 -18 152t-22.5 179.5t-19.5 153.5h-577q-35 -68 -118.5 -230.5t-127.5 -250.5h-109q376 738 748 1417h156q119 -781 190 -1413zM821 1321q-165 -304 -403 -758h524q-60 460 -104 758h-17z" />
    <glyph glyph-name="amacron" unicode="&#x101;" horiz-adv-x="1249" 
d="M1169 1499l-18 -90h-662l17 90h663zM412 74q86 0 203.5 74.5t213.5 179.5l129 661q-134 35 -235 35q-132 0 -244.5 -94.5t-176.5 -250.5t-64 -333q0 -131 48.5 -201.5t125.5 -70.5zM1157 72q-112 -65 -188.5 -83.5t-113.5 7t-49 83.5t5 146q-106 -106 -225.5 -175.5
t-212.5 -69.5q-106 0 -172 89.5t-66 254.5q0 154 50 298.5t135.5 253t206.5 173.5t255 65q117 0 295 -45l-157 -799q-22 -98 -14.5 -147.5t60.5 -48.5t175 55z" />
    <glyph glyph-name="Abreve" unicode="&#x102;" horiz-adv-x="1339" 
d="M1253 1970l62 -41q-224 -321 -424 -321q-102 0 -177.5 79.5t-133.5 249.5l82 39q56 -153 112 -216.5t137 -63.5q83 0 161 66.5t181 207.5zM1012 -4q-8 71 -18 152t-22.5 179.5t-19.5 153.5h-577q-35 -68 -118.5 -230.5t-127.5 -250.5h-109q376 738 748 1417h156
q119 -781 190 -1413zM821 1321q-165 -304 -403 -758h524q-60 460 -104 758h-17z" />
    <glyph glyph-name="abreve" unicode="&#x103;" horiz-adv-x="1249" 
d="M1167 1659l62 -41q-225 -322 -424 -322q-101 0 -177 80t-134 250l81 39q56 -153 112.5 -217t137.5 -64q83 0 160.5 66.5t181.5 208.5zM412 74q86 0 203.5 74.5t213.5 179.5l129 661q-134 35 -235 35q-132 0 -244.5 -94.5t-176.5 -250.5t-64 -333q0 -131 48.5 -201.5
t125.5 -70.5zM1157 72q-112 -65 -188.5 -83.5t-113.5 7t-49 83.5t5 146q-106 -106 -225.5 -175.5t-212.5 -69.5q-106 0 -172 89.5t-66 254.5q0 154 50 298.5t135.5 253t206.5 173.5t255 65q117 0 295 -45l-157 -799q-22 -98 -14.5 -147.5t60.5 -48.5t175 55z" />
    <glyph glyph-name="Aogonek" unicode="&#x104;" horiz-adv-x="1339" 
d="M1047 -375q-103 -59 -189 -79.5t-138.5 -6.5t-81 48.5t-28.5 82.5q0 82 98.5 173.5t299.5 181.5q-9 85 -29 241t-27 215h-577q-35 -68 -118.5 -230.5t-127.5 -250.5h-109q376 738 748 1417h156q119 -781 190 -1413q-405 -168 -405 -307q0 -25 11 -43.5t35.5 -28.5t61 -9
t91.5 16.5t122 45.5zM821 1321q-165 -304 -403 -758h524q-60 460 -104 758h-17z" />
    <glyph glyph-name="aogonek" unicode="&#x105;" horiz-adv-x="1249" 
d="M1069 -377q-70 -40 -132.5 -62.5t-109.5 -27t-84.5 3t-61 27t-36 45.5t-12.5 57q0 158 268 328q-127 11 -90 231q-106 -106 -225.5 -175.5t-212.5 -69.5q-106 0 -172 89.5t-66 254.5q0 154 50 298.5t135.5 253t206.5 173.5t255 65q117 0 295 -45l-157 -799
q-22 -98 -14.5 -147.5t60.5 -48.5t175 55l16 -57q-220 -109 -323 -204.5t-103 -172.5q0 -25 11 -43.5t36 -28.5t61.5 -9t91.5 16.5t122 45.5zM412 74q86 0 203.5 74.5t213.5 179.5l129 661q-134 35 -235 35q-132 0 -244.5 -94.5t-176.5 -250.5t-64 -333q0 -131 48.5 -201.5
t125.5 -70.5z" />
    <glyph glyph-name="Cacute" unicode="&#x106;" horiz-adv-x="1339" 
d="M735 1651q101 71 225 182t209 205l84 -90q-93 -82 -231.5 -177.5t-261.5 -166.5zM905 1440q95 0 159.5 -32t100 -98t48.5 -155t8 -213l-101 -2q1 85 -3.5 142.5t-18.5 111.5t-39.5 85.5t-68.5 50t-105 18.5q-128 0 -241.5 -72t-191 -189t-122.5 -265.5t-45 -301.5
q0 -216 98.5 -331.5t278.5 -122.5t434 86l-11 -101q-205 -73 -374 -79t-286 51.5t-181 178.5t-64 296q0 180 57 351.5t152.5 301.5t231.5 209.5t284 79.5z" />
    <glyph glyph-name="cacute" unicode="&#x107;" horiz-adv-x="1085" 
d="M571 1327q101 71 225.5 182t209.5 205l84 -90q-93 -81 -231.5 -176.5t-262.5 -167.5zM989 778l-96 -2q1 135 -39.5 191.5t-132.5 56.5q-93 0 -181 -52t-152 -137.5t-103 -202.5t-39 -241q0 -116 42.5 -192.5t123 -108.5t203.5 -13.5t278 89.5l18 -62
q-244 -130 -414 -126.5t-261 110t-91 289.5q0 188 84 359.5t223 275.5t291 104q133 0 194 -82.5t52 -255.5z" />
    <glyph glyph-name="Cdotaccent" unicode="&#x10a;" horiz-adv-x="1339" 
d="M975 1626l-103 -2l70 295l117 2zM905 1440q95 0 159.5 -32t100 -98t48.5 -155t8 -213l-101 -2q1 85 -3.5 142.5t-18.5 111.5t-39.5 85.5t-68.5 50t-105 18.5q-128 0 -241.5 -72t-191 -189t-122.5 -265.5t-45 -301.5q0 -216 98.5 -331.5t278.5 -122.5t434 86l-11 -101
q-205 -73 -374 -79t-286 51.5t-181 178.5t-64 296q0 180 57 351.5t152.5 301.5t231.5 209.5t284 79.5z" />
    <glyph glyph-name="cdotaccent" unicode="&#x10b;" horiz-adv-x="1085" 
d="M811 1303l-102 -3l69 295l117 2zM989 778l-96 -2q1 135 -39.5 191.5t-132.5 56.5q-93 0 -181 -52t-152 -137.5t-103 -202.5t-39 -241q0 -116 42.5 -192.5t123 -108.5t203.5 -13.5t278 89.5l18 -62q-244 -130 -414 -126.5t-261 110t-91 289.5q0 188 84 359.5t223 275.5
t291 104q133 0 194 -82.5t52 -255.5z" />
    <glyph glyph-name="Ccaron" unicode="&#x10c;" horiz-adv-x="1339" 
d="M928 1599h-2l-269 345l74 59l215 -289l350 279l52 -60zM905 1440q95 0 159.5 -32t100 -98t48.5 -155t8 -213l-101 -2q1 85 -3.5 142.5t-18.5 111.5t-39.5 85.5t-68.5 50t-105 18.5q-128 0 -241.5 -72t-191 -189t-122.5 -265.5t-45 -301.5q0 -216 98.5 -331.5
t278.5 -122.5t434 86l-11 -101q-205 -73 -374 -79t-286 51.5t-181 178.5t-64 296q0 180 57 351.5t152.5 301.5t231.5 209.5t284 79.5z" />
    <glyph glyph-name="ccaron" unicode="&#x10d;" horiz-adv-x="1085" 
d="M762 1276h-2l-268 344l73 59l215 -288l350 278l52 -59zM989 778l-96 -2q1 135 -39.5 191.5t-132.5 56.5q-93 0 -181 -52t-152 -137.5t-103 -202.5t-39 -241q0 -116 42.5 -192.5t123 -108.5t203.5 -13.5t278 89.5l18 -62q-244 -130 -414 -126.5t-261 110t-91 289.5
q0 188 84 359.5t223 275.5t291 104q133 0 194 -82.5t52 -255.5z" />
    <glyph glyph-name="Dcaron" unicode="&#x10e;" horiz-adv-x="1402" 
d="M862 1597h-2l-268 345l74 59l215 -289l350 279l51 -60zM1286 864q0 -131 -30.5 -251t-92.5 -225t-156 -186t-220.5 -135t-286.5 -71.5t-353 4.5l273 1407q267 42 460 -3.5t299.5 -182.5t106.5 -357zM1182 852q0 275 -176 393t-498 82l-242 -1243q185 -15 338.5 17.5
t259 102t178.5 171t106.5 221.5t33.5 256z" />
    <glyph glyph-name="dcaron" unicode="&#x10f;" horiz-adv-x="1267" 
d="M1411 1810l135 11q0 -299 -219 -566l-45 27q96 147 119 264.5t10 263.5zM430 74q88 0 203.5 68t206.5 167l131 680q-147 39 -250 39q-131 0 -242 -93t-174 -246.5t-63 -326.5q0 -141 52 -214.5t136 -73.5zM1176 72q-110 -64 -186.5 -83.5t-116 5t-52 78.5t-0.5 139
q-99 -101 -217 -166t-213 -65q-112 0 -181 94t-69 270q0 151 49 292.5t132.5 247t203.5 169t254 63.5q94 0 211 -24l96 495l105 8l-258 -1316q-11 -56 -14.5 -91t0.5 -63.5t18.5 -39.5t43 -11.5t70.5 13.5t103 42z" />
    <glyph glyph-name="Dcroat" unicode="&#x110;" horiz-adv-x="1413" 
d="M1296 864q0 -158 -43.5 -298.5t-135 -257t-223.5 -195t-321 -109.5t-415 -4l131 676h-180l16 82h180l125 649q267 42 460 -3.5t299.5 -182.5t106.5 -357zM766 676h-375l-115 -592q185 -15 338.5 18t259 102.5t178.5 171t106.5 221t33.5 255.5q0 276 -176 393.5t-500 81.5
l-108 -569h376z" />
    <glyph glyph-name="dcroat" unicode="&#x111;" horiz-adv-x="1267" 
d="M430 74q88 0 203.5 68t206.5 167l131 680q-147 39 -250 39q-131 0 -242 -93t-174 -246.5t-63 -326.5q0 -141 52 -214.5t136 -73.5zM1178 72q-88 -52 -155.5 -74.5t-109 -16t-67 35t-29.5 79t4 115.5q-99 -101 -217 -166t-213 -65q-112 0 -181 94t-69 270q0 151 49 292.5
t132.5 247t203.5 169t254 63.5q94 0 211 -24l47 243h-325l14 78h326l34 174l105 8l-35 -182h174l-16 -78h-174l-207 -1056q-9 -48 -13 -79.5t-3 -59.5t10 -41.5t26 -21t45.5 -2.5t67 17.5t92.5 36.5z" />
    <glyph glyph-name="Emacron" unicode="&#x112;" horiz-adv-x="1198" 
d="M1210 1804l-18 -90h-662l17 90h663zM950 94l-24 -94h-779l273 1409h784l-18 -92h-680l-109 -559h582l-16 -84h-580l-113 -580h680z" />
    <glyph glyph-name="emacron" unicode="&#x113;" horiz-adv-x="1118" 
d="M1147 1501l-19 -90h-661l16 90h664zM940 119q-151 -84 -281 -118t-223.5 -20t-160.5 65t-99.5 134t-32.5 191q0 132 46.5 265.5t125 239.5t192 173t236.5 67q126 0 197.5 -65.5t71.5 -176.5q0 -190 -202 -308t-566 -148v-37q0 -116 42.5 -190.5t126 -104t213.5 -7
t298 98.5zM723 1026q-121 0 -224 -78.5t-165 -199t-82 -259.5q199 17 345 62.5t230 123.5t84 181q0 79 -49.5 124.5t-138.5 45.5z" />
    <glyph glyph-name="Ebreve" unicode="&#x114;" horiz-adv-x="1198" 
d="M1208 1964l62 -41q-224 -321 -424 -321q-102 0 -177.5 79.5t-133.5 249.5l81 39q56 -153 112.5 -216.5t137.5 -63.5q83 0 161 66.5t181 207.5zM950 94l-24 -94h-779l273 1409h784l-18 -92h-680l-109 -559h582l-16 -84h-580l-113 -580h680z" />
    <glyph glyph-name="ebreve" unicode="&#x115;" horiz-adv-x="1118" 
d="M1145 1661l61 -41q-225 -322 -424 -322q-101 0 -177 80t-134 250l82 39q56 -153 112.5 -217t137.5 -64q83 0 160.5 66.5t181.5 208.5zM940 119q-151 -84 -281 -118t-223.5 -20t-160.5 65t-99.5 134t-32.5 191q0 132 46.5 265.5t125 239.5t192 173t236.5 67
q126 0 197.5 -65.5t71.5 -176.5q0 -190 -202 -308t-566 -148v-37q0 -116 42.5 -190.5t126 -104t213.5 -7t298 98.5zM723 1026q-121 0 -224 -78.5t-165 -199t-82 -259.5q199 17 345 62.5t230 123.5t84 181q0 79 -49.5 124.5t-138.5 45.5z" />
    <glyph glyph-name="Edotaccent" unicode="&#x116;" horiz-adv-x="1198" 
d="M877 1606l-103 -2l70 294l117 3zM950 94l-24 -94h-779l273 1409h784l-18 -92h-680l-109 -559h582l-16 -84h-580l-113 -580h680z" />
    <glyph glyph-name="edotaccent" unicode="&#x117;" horiz-adv-x="1118" 
d="M813 1303l-102 -3l69 295l117 2zM940 119q-151 -84 -281 -118t-223.5 -20t-160.5 65t-99.5 134t-32.5 191q0 132 46.5 265.5t125 239.5t192 173t236.5 67q126 0 197.5 -65.5t71.5 -176.5q0 -190 -202 -308t-566 -148v-37q0 -116 42.5 -190.5t126 -104t213.5 -7t298 98.5z
M723 1026q-121 0 -224 -78.5t-165 -199t-82 -259.5q199 17 345 62.5t230 123.5t84 181q0 79 -49.5 124.5t-138.5 45.5z" />
    <glyph glyph-name="Eogonek" unicode="&#x118;" horiz-adv-x="1198" 
d="M860 -379q-83 -47 -155.5 -70t-123 -21.5t-87 19.5t-53.5 48.5t-17 68.5q0 77 87.5 162.5t266.5 171.5h-631l273 1409h784l-18 -92h-680l-109 -559h582l-16 -84h-580l-113 -580h680l-24 -92l2 -2q-406 -168 -406 -307q0 -25 11 -43.5t36 -28.5t61.5 -9t91.5 16.5
t122 45.5z" />
    <glyph glyph-name="eogonek" unicode="&#x119;" horiz-adv-x="1118" 
d="M807 -377q-83 -47 -156 -70t-123.5 -21.5t-87 19t-54 47.5t-17.5 68q0 158 260 330q-78 -19 -137 -19q-167 0 -258 107.5t-91 286.5q0 132 46.5 265.5t125 239.5t192 173t236.5 67q126 0 197.5 -65.5t71.5 -176.5q0 -190 -202 -308t-566 -148v-37q0 -116 42.5 -190.5
t126 -104t213.5 -7t298 98.5l16 -59q-247 -132 -360 -235t-113 -189q0 -25 11 -43.5t36 -28.5t61.5 -9t91 16.5t121.5 45.5zM723 1026q-121 0 -224 -78.5t-165 -199t-82 -259.5q199 17 345 62.5t230 123.5t84 181q0 79 -49.5 124.5t-138.5 45.5z" />
    <glyph glyph-name="Ecaron" unicode="&#x11a;" horiz-adv-x="1198" 
d="M827 1579h-2l-268 344l74 59l215 -288l350 278l51 -59zM950 94l-24 -94h-779l273 1409h784l-18 -92h-680l-109 -559h582l-16 -84h-580l-113 -580h680z" />
    <glyph glyph-name="ecaron" unicode="&#x11b;" horiz-adv-x="1118" 
d="M766 1276h-2l-268 344l73 59l215 -288l351 278l51 -59zM940 119q-151 -84 -281 -118t-223.5 -20t-160.5 65t-99.5 134t-32.5 191q0 132 46.5 265.5t125 239.5t192 173t236.5 67q126 0 197.5 -65.5t71.5 -176.5q0 -190 -202 -308t-566 -148v-37q0 -116 42.5 -190.5
t126 -104t213.5 -7t298 98.5zM723 1026q-121 0 -224 -78.5t-165 -199t-82 -259.5q199 17 345 62.5t230 123.5t84 181q0 79 -49.5 124.5t-138.5 45.5z" />
    <glyph glyph-name="Gbreve" unicode="&#x11e;" horiz-adv-x="1398" 
d="M1321 1985l61 -41q-225 -322 -424 -322q-101 0 -177 80t-134 250l82 39q56 -153 112.5 -217t137.5 -64q83 0 160.5 66.5t181.5 208.5zM1006 -250l-97 -4l64 279q-180 -58 -326.5 -51.5t-250 66t-160 177t-56.5 281.5q0 144 36.5 284t104 257.5t157 208t203 141.5
t234.5 51q187 0 262.5 -120t67.5 -378l-100 -2q1 83 -4.5 142t-21 112.5t-43 85t-72.5 50t-109 18.5q-172 0 -314.5 -122.5t-219 -311.5t-76.5 -394q0 -202 86.5 -318t244 -134.5t377.5 51.5l97 420l104 4z" />
    <glyph glyph-name="gbreve" unicode="&#x11f;" horiz-adv-x="1236" 
d="M1169 1663l62 -41q-225 -322 -424 -322q-101 0 -177 80t-134 250l82 39q56 -153 112 -216.5t137 -63.5q83 0 161 66.5t181 207.5zM455 139q99 0 203 87.5t190 244.5q41 254 133 487q-136 68 -254 68q-131 0 -240.5 -88.5t-170 -229t-60.5 -294.5q0 -132 55 -203.5
t144 -71.5zM930 -225q-107 -209 -805 -162l10 106q231 -22 381 -12.5t217 28t92 44.5q30 30 33 91t-8.5 198.5t-11.5 240.5v29q-88 -134 -195.5 -214.5t-222.5 -80.5q-120 0 -193 90.5t-73 255.5q0 190 80.5 356t225.5 267.5t320 101.5q117 0 246 -57q28 57 45 57
q24 0 48 -14t24 -31q0 -42 -64 -224t-139 -353q-8 -71 -8 -148q0 -119 10.5 -255.5t10 -202.5t-22.5 -111z" />
    <glyph glyph-name="Gdotaccent" unicode="&#x120;" horiz-adv-x="1398" 
d="M989 1626l-102 -2l69 295l117 2zM1006 -250l-97 -4l64 279q-180 -58 -326.5 -51.5t-250 66t-160 177t-56.5 281.5q0 144 36.5 284t104 257.5t157 208t203 141.5t234.5 51q187 0 262.5 -120t67.5 -378l-100 -2q1 83 -4.5 142t-21 112.5t-43 85t-72.5 50t-109 18.5
q-172 0 -314.5 -122.5t-219 -311.5t-76.5 -394q0 -202 86.5 -318t244 -134.5t377.5 51.5l97 420l104 4z" />
    <glyph glyph-name="gdotaccent" unicode="&#x121;" horiz-adv-x="1236" 
d="M838 1305l-103 -2l70 294l117 2zM455 139q99 0 203 87.5t190 244.5q41 254 133 487q-136 68 -254 68q-131 0 -240.5 -88.5t-170 -229t-60.5 -294.5q0 -132 55 -203.5t144 -71.5zM930 -225q-107 -209 -805 -162l10 106q231 -22 381 -12.5t217 28t92 44.5q30 30 33 91
t-8.5 198.5t-11.5 240.5v29q-88 -134 -195.5 -214.5t-222.5 -80.5q-120 0 -193 90.5t-73 255.5q0 190 80.5 356t225.5 267.5t320 101.5q117 0 246 -57q28 57 45 57q24 0 48 -14t24 -31q0 -42 -64 -224t-139 -353q-8 -71 -8 -148q0 -119 10.5 -255.5t10 -202.5t-22.5 -111z
" />
    <glyph glyph-name="Gcommaaccent" unicode="&#x122;" horiz-adv-x="1398" 
d="M1006 -250l-97 -4l64 279q-180 -58 -326.5 -51.5t-250 66t-160 177t-56.5 281.5q0 144 36.5 284t104 257.5t157 208t203 141.5t234.5 51q187 0 262.5 -120t67.5 -378l-100 -2q1 83 -4.5 142t-21 112.5t-43 85t-72.5 50t-109 18.5q-172 0 -314.5 -122.5t-219 -311.5
t-76.5 -394q0 -202 86.5 -318t244 -134.5t377.5 51.5l97 420l104 4zM406 -748q56 80 81.5 156t24 137.5t-11.5 128.5l141 7q7 -225 -195 -451z" />
    <glyph glyph-name="gcommaaccent" unicode="&#x123;" horiz-adv-x="1236" 
d="M961 1708q-56 -80 -82.5 -156t-25 -137.5t12.5 -128.5l-141 -6q-10 225 195 451zM455 139q99 0 203 87.5t190 244.5q41 254 133 487q-136 68 -254 68q-131 0 -240.5 -88.5t-170 -229t-60.5 -294.5q0 -132 55 -203.5t144 -71.5zM930 -225q-107 -209 -805 -162l10 106
q231 -22 381 -12.5t217 28t92 44.5q30 30 33 91t-8.5 198.5t-11.5 240.5v29q-88 -134 -195.5 -214.5t-222.5 -80.5q-120 0 -193 90.5t-73 255.5q0 190 80.5 356t225.5 267.5t320 101.5q117 0 246 -57q28 57 45 57q24 0 48 -14t24 -31q0 -42 -64 -224t-139 -353
q-8 -71 -8 -148q0 -119 10.5 -255.5t10 -202.5t-22.5 -111z" />
    <glyph glyph-name="Hbar" unicode="&#x126;" horiz-adv-x="1497" 
d="M1167 733l58 297h-762l-57 -297h761zM1024 0l127 651h-762l-125 -651h-106l198 1028h-176l15 82h178l57 299h107l-58 -301h760l59 301h105l-57 -299h178l-17 -82h-178l-199 -1028h-106z" />
    <glyph glyph-name="hbar" unicode="&#x127;" horiz-adv-x="1339" 
d="M1229 70q-92 -55 -163.5 -77t-114.5 -11.5t-65 41.5t-22 81q0 73 40.5 225.5t81 309t40.5 238.5q0 145 -141 145q-99 0 -229 -77t-265 -226l-139 -719h-100l258 1335h-177l15 78h178l33 174l104 8l-35 -182h324l-14 -78h-326l-100 -512q135 143 271 218t251 75
q100 0 150.5 -56t50.5 -147q0 -94 -41 -258t-82 -312.5t-41 -205.5q0 -40 18 -55t71 -5t148 52z" />
    <glyph glyph-name="Imacron" unicode="&#x12a;" horiz-adv-x="1101" 
d="M1126 1804l-18 -90h-662l17 90h663zM514 86h326l-19 -86h-747l16 86h318l241 1239h-325l16 84h745l-16 -84h-315z" />
    <glyph glyph-name="imacron" unicode="&#x12b;" horiz-adv-x="811" 
d="M911 1489l-18 -90h-662l17 90h663zM745 78q-110 -59 -199.5 -83.5t-149 -15t-95.5 47.5t-40.5 104.5t15.5 155.5l175 710l-289 -61l-12 59l331 101l88 -6l-190 -787q-45 -182 33.5 -221t314.5 55z" />
    <glyph glyph-name="Ibreve" unicode="&#x12c;" horiz-adv-x="1101" 
d="M1126 1964l62 -41q-224 -321 -424 -321q-102 0 -177.5 79.5t-133.5 249.5l82 39q56 -153 112 -216.5t137 -63.5q83 0 161 66.5t181 207.5zM514 86h326l-19 -86h-747l16 86h318l241 1239h-325l16 84h745l-16 -84h-315z" />
    <glyph glyph-name="ibreve" unicode="&#x12d;" horiz-adv-x="811" 
d="M909 1649l62 -41q-225 -322 -424 -322q-101 0 -177 80t-134 250l81 39q56 -153 112.5 -217t137.5 -64q83 0 160.5 66.5t181.5 208.5zM745 78q-110 -59 -199.5 -83.5t-149 -15t-95.5 47.5t-40.5 104.5t15.5 155.5l175 710l-289 -61l-12 59l331 101l88 -6l-190 -787
q-45 -182 33.5 -221t314.5 55z" />
    <glyph glyph-name="Iogonek" unicode="&#x12e;" horiz-adv-x="1101" 
d="M596 -377q-98 -57 -183 -78t-138.5 -8t-84 48.5t-30.5 86.5q0 74 60 160.5t173 167.5h-319l16 86h318l241 1239h-325l16 84h745l-16 -84h-315l-240 -1239h326l-19 -86h-319q-119 -75 -181.5 -156.5t-62.5 -148.5q0 -27 12.5 -45.5t38.5 -28t63.5 -7.5t91 17.5t116.5 44.5
z" />
    <glyph glyph-name="iogonek" unicode="&#x12f;" horiz-adv-x="811" 
d="M612 1292l-102 -6l70 293l116 6zM639 -377q-70 -40 -132.5 -62.5t-109.5 -27t-84.5 3t-61 27t-36 45.5t-12.5 57q0 151 252 314q-124 -9 -170.5 72t-8.5 235l175 710l-289 -61l-12 59l331 101l88 -6l-190 -787q-45 -182 33.5 -221t314.5 55l18 -59q-446 -225 -446 -383
q0 -25 11.5 -43.5t36.5 -28.5t62 -9t92 16.5t122 45.5z" />
    <glyph glyph-name="Idotaccent" unicode="&#x130;" horiz-adv-x="1101" 
d="M795 1606l-103 -2l70 294l117 3zM514 86h326l-19 -86h-747l16 86h318l241 1239h-325l16 84h745l-16 -84h-315z" />
    <glyph glyph-name="dotlessi" unicode="&#x131;" horiz-adv-x="811" 
d="M745 78q-110 -59 -199.5 -83.5t-149 -15t-95.5 47.5t-40.5 104.5t15.5 155.5l175 710l-289 -61l-12 59l331 101l88 -6l-190 -787q-45 -182 33.5 -221t314.5 55z" />
    <glyph glyph-name="Kcommaaccent" unicode="&#x136;" horiz-adv-x="1273" 
d="M967 -8l-471 719l700 698h119l-697 -702l463 -701zM420 1409h104l-272 -1409h-105zM393 -596q56 80 81.5 156t24 137.5t-11.5 128.5l142 6q7 -224 -195 -450z" />
    <glyph glyph-name="kcommaaccent" unicode="&#x137;" horiz-adv-x="1212" 
d="M938 -8l-444 465q272 131 392 248t120 204q0 52 -31.5 81.5t-85.5 29.5q-96 0 -228 -76.5t-270 -226.5l-139 -717h-100l307 1587l104 8l-151 -774q132 142 270 218.5t246 76.5q86 0 136 -47t50 -123q0 -111 -119 -238.5t-370 -252.5l432 -447zM373 -596q56 80 81.5 156
t24 137.5t-11.5 128.5l141 6q7 -225 -194 -450z" />
    <glyph glyph-name="Lacute" unicode="&#x139;" horiz-adv-x="1155" 
d="M651 1630q101 71 225 182t209 205l84 -90q-93 -82 -231.5 -177.5t-261.5 -166.5zM936 0h-789l273 1409h104l-254 -1315h688z" />
    <glyph glyph-name="lacute" unicode="&#x13a;" horiz-adv-x="1032" 
d="M713 1802q101 71 225 182t209 205l84 -90q-93 -81 -231.5 -176.5t-262.5 -167.5zM877 152q-190 -128 -329.5 -159.5t-222 39t-94.5 244.5q-21 -15 -58.5 -41t-41.5 -28l-35 55q7 5 58 42.5t75 55.5q2 148 33 303t80.5 290t116 256.5t138 207.5t147 136.5t141.5 50.5
q84 0 129 -56.5t45 -156.5q0 -215 -177 -484t-552 -565q2 -99 24.5 -160.5t64.5 -88.5t106 -20.5t143 40.5t182 96zM852 1501q-74 0 -162.5 -94t-164 -241t-130 -345.5t-63.5 -390.5q170 138 295 273.5t195 253t103 216.5t33 185q0 68 -29 105.5t-77 37.5z" />
    <glyph glyph-name="Lcommaaccent" unicode="&#x13b;" horiz-adv-x="1155" 
d="M936 0h-789l273 1409h104l-254 -1315h688zM342 -588q56 80 81.5 156t24 137.5t-11.5 128.5l142 6q7 -224 -195 -450z" />
    <glyph glyph-name="lcommaaccent" unicode="&#x13c;" horiz-adv-x="1032" 
d="M877 152q-190 -128 -329.5 -159.5t-222 39t-94.5 244.5q-21 -15 -58.5 -41t-41.5 -28l-35 55q7 5 58 42.5t75 55.5q2 148 33 303t80.5 290t116 256.5t138 207.5t147 136.5t141.5 50.5q84 0 129 -56.5t45 -156.5q0 -215 -177 -484t-552 -565q2 -99 24.5 -160.5t64.5 -88.5
t106 -20.5t143 40.5t182 96zM852 1501q-74 0 -162.5 -94t-164 -241t-130 -345.5t-63.5 -390.5q170 138 295 273.5t195 253t103 216.5t33 185q0 68 -29 105.5t-77 37.5zM233 -604q56 80 82 156t24.5 137.5t-11.5 128.5l141 6q7 -225 -195 -451z" />
    <glyph glyph-name="Lcaron" unicode="&#x13d;" horiz-adv-x="1155" 
d="M1018 1579l135 10q0 -298 -219 -565l-45 27q96 147 119 264.5t10 263.5zM936 0h-789l273 1409h104l-254 -1315h688z" />
    <glyph glyph-name="lcaron" unicode="&#x13e;" horiz-adv-x="1032" 
d="M1300 1810l136 11q0 -299 -219 -566l-46 27q96 147 119 264.5t10 263.5zM877 152q-190 -128 -329.5 -159.5t-222 39t-94.5 244.5q-21 -15 -58.5 -41t-41.5 -28l-35 55q7 5 58 42.5t75 55.5q2 148 33 303t80.5 290t116 256.5t138 207.5t147 136.5t141.5 50.5
q84 0 129 -56.5t45 -156.5q0 -215 -177 -484t-552 -565q2 -99 24.5 -160.5t64.5 -88.5t106 -20.5t143 40.5t182 96zM852 1501q-74 0 -162.5 -94t-164 -241t-130 -345.5t-63.5 -390.5q170 138 295 273.5t195 253t103 216.5t33 185q0 68 -29 105.5t-77 37.5z" />
    <glyph glyph-name="Ldot" unicode="&#x13f;" horiz-adv-x="1155" 
d="M936 0h-789l273 1409h104l-254 -1315h688zM969 616h-150l35 187h152z" />
    <glyph glyph-name="ldot" unicode="&#x140;" horiz-adv-x="1077" 
d="M877 152q-190 -128 -329.5 -159.5t-222 39t-94.5 244.5q-21 -15 -58.5 -41t-41.5 -28l-35 55q7 5 58 42.5t75 55.5q2 148 33 303t80.5 290t116 256.5t138 207.5t147 136.5t141.5 50.5q84 0 129 -56.5t45 -156.5q0 -215 -177 -484t-552 -565q2 -99 24.5 -160.5t64.5 -88.5
t106 -20.5t143 40.5t182 96zM852 1501q-74 0 -162.5 -94t-164 -241t-130 -345.5t-63.5 -390.5q170 138 295 273.5t195 253t103 216.5t33 185q0 68 -29 105.5t-77 37.5zM1087 616h-147l35 185h147z" />
    <glyph glyph-name="Lslash" unicode="&#x141;" horiz-adv-x="1155" 
d="M936 0h-789l136 696l-185 -88l-4 88l207 101l119 612h104l-108 -557l354 170l2 -88l-375 -180l-127 -660h688z" />
    <glyph glyph-name="lslash" unicode="&#x142;" horiz-adv-x="1032" 
d="M283 1645q0 103 150.5 170.5t392.5 69.5t546 -83l-37 -88q-161 49 -316.5 71.5t-271.5 18.5t-206 -23.5t-136.5 -51.5t-46.5 -68q0 -28 29.5 -60t97.5 -81l-57 -72q-145 98 -145 197zM877 152q-190 -128 -329.5 -159.5t-222 39t-94.5 244.5q-21 -15 -58.5 -41t-41.5 -28
l-35 55q7 5 58 42.5t75 55.5q2 148 33 303t80.5 290t116 256.5t138 207.5t147 136.5t141.5 50.5q84 0 129 -56.5t45 -156.5q0 -215 -177 -484t-552 -565q2 -99 24.5 -160.5t64.5 -88.5t106 -20.5t143 40.5t182 96zM852 1501q-74 0 -162.5 -94t-164 -241t-130 -345.5
t-63.5 -390.5q170 138 295 273.5t195 253t103 216.5t33 185q0 68 -29 105.5t-77 37.5z" />
    <glyph glyph-name="Nacute" unicode="&#x143;" horiz-adv-x="1490" 
d="M750 1632q101 71 225 182t209 205l84 -90q-93 -81 -231.5 -176.5t-262.5 -167.5zM1008 0l-504 1280h-12l-244 -1280h-101l273 1407l141 4l492 -1249h12l240 1247h100l-272 -1409h-125z" />
    <glyph glyph-name="nacute" unicode="&#x144;" horiz-adv-x="1341" 
d="M612 1335q101 71 225.5 182t209.5 205l83 -90q-93 -82 -231.5 -177.5t-261.5 -166.5zM1229 70q-92 -55 -163.5 -77t-114.5 -11.5t-65 41.5t-22 81q0 73 40.5 225.5t81 308t40.5 236.5q0 148 -141 148q-99 0 -228 -76.5t-264 -224.5q-52 -284 -141 -721h-100
q130 651 202 1090l99 6q-6 -35 -21 -133.5t-22 -141.5q135 145 271 220t253 75q100 0 150.5 -56t50.5 -147q0 -94 -41 -258t-82 -312.5t-41 -205.5q0 -40 18 -55t71 -5t148 52z" />
    <glyph glyph-name="Ncommaaccent" unicode="&#x145;" horiz-adv-x="1490" 
d="M1008 0l-504 1280h-12l-244 -1280h-101l273 1407l141 4l492 -1249h12l240 1247h100l-272 -1409h-125zM438 -588q56 80 81.5 156t24 137.5t-11.5 128.5l142 6q7 -224 -195 -450z" />
    <glyph glyph-name="ncommaaccent" unicode="&#x146;" horiz-adv-x="1341" 
d="M1229 70q-92 -55 -163.5 -77t-114.5 -11.5t-65 41.5t-22 81q0 73 40.5 225.5t81 308t40.5 236.5q0 148 -141 148q-99 0 -228 -76.5t-264 -224.5q-52 -284 -141 -721h-100q130 651 202 1090l99 6q-6 -35 -21 -133.5t-22 -141.5q135 145 271 220t253 75q100 0 150.5 -56
t50.5 -147q0 -94 -41 -258t-82 -312.5t-41 -205.5q0 -40 18 -55t71 -5t148 52zM389 -608q56 80 81.5 156t24 137.5t-11.5 128.5l142 6q7 -225 -195 -451z" />
    <glyph glyph-name="Ncaron" unicode="&#x147;" horiz-adv-x="1490" 
d="M940 1581h-2l-268 344l73 60l215 -289l351 278l51 -59zM1008 0l-504 1280h-12l-244 -1280h-101l273 1407l141 4l492 -1249h12l240 1247h100l-272 -1409h-125z" />
    <glyph glyph-name="ncaron" unicode="&#x148;" horiz-adv-x="1341" 
d="M803 1284h-2l-269 344l74 60l215 -289l350 278l52 -59zM1229 70q-92 -55 -163.5 -77t-114.5 -11.5t-65 41.5t-22 81q0 73 40.5 225.5t81 308t40.5 236.5q0 148 -141 148q-99 0 -228 -76.5t-264 -224.5q-52 -284 -141 -721h-100q130 651 202 1090l99 6q-6 -35 -21 -133.5
t-22 -141.5q135 145 271 220t253 75q100 0 150.5 -56t50.5 -147q0 -94 -41 -258t-82 -312.5t-41 -205.5q0 -40 18 -55t71 -5t148 52z" />
    <glyph glyph-name="Omacron" unicode="&#x14c;" horiz-adv-x="1492" 
d="M1325 1825l-18 -90h-662l17 90h663zM899 1440q210 0 342.5 -152t132.5 -409q0 -185 -58 -354t-154.5 -290.5t-229.5 -193.5t-277 -72q-213 0 -344 153t-131 410q0 185 57.5 353t154 289.5t229.5 193.5t278 72zM672 61q124 0 235 63.5t190.5 171t126 255.5t46.5 311
q0 223 -108.5 354.5t-280.5 131.5q-165 0 -302.5 -107.5t-215.5 -291t-78 -400.5q0 -223 107.5 -355.5t279.5 -132.5z" />
    <glyph glyph-name="omacron" unicode="&#x14d;" horiz-adv-x="1230" 
d="M1133 1501l-19 -90h-661l16 90h664zM145 416q0 143 45.5 273t122 223.5t181.5 148.5t219 55q171 0 271.5 -116.5t100.5 -323.5q0 -190 -77 -351.5t-207.5 -254.5t-282.5 -93q-172 0 -272.5 116t-100.5 323zM983 655q0 174 -79.5 273.5t-213.5 99.5q-126 0 -228 -80.5
t-158 -215.5t-56 -296q0 -173 79 -271.5t214 -98.5q126 0 228 78.5t158 213t56 297.5z" />
    <glyph glyph-name="Obreve" unicode="&#x14e;" horiz-adv-x="1492" 
d="M1323 1985l61 -41q-225 -322 -423 -322q-102 0 -178 80t-134 250l82 39q56 -153 112.5 -217t137.5 -64q83 0 160.5 66.5t181.5 208.5zM899 1440q210 0 342.5 -152t132.5 -409q0 -185 -58 -354t-154.5 -290.5t-229.5 -193.5t-277 -72q-213 0 -344 153t-131 410
q0 185 57.5 353t154 289.5t229.5 193.5t278 72zM672 61q124 0 235 63.5t190.5 171t126 255.5t46.5 311q0 223 -108.5 354.5t-280.5 131.5q-165 0 -302.5 -107.5t-215.5 -291t-78 -400.5q0 -223 107.5 -355.5t279.5 -132.5z" />
    <glyph glyph-name="obreve" unicode="&#x14f;" horiz-adv-x="1230" 
d="M1130 1661l62 -41q-225 -322 -424 -322q-101 0 -177 80t-134 250l82 39q56 -153 112 -217t137 -64q83 0 160.5 66.5t181.5 208.5zM145 416q0 143 45.5 273t122 223.5t181.5 148.5t219 55q171 0 271.5 -116.5t100.5 -323.5q0 -190 -77 -351.5t-207.5 -254.5t-282.5 -93
q-172 0 -272.5 116t-100.5 323zM983 655q0 174 -79.5 273.5t-213.5 99.5q-126 0 -228 -80.5t-158 -215.5t-56 -296q0 -173 79 -271.5t214 -98.5q126 0 228 78.5t158 213t56 297.5z" />
    <glyph glyph-name="Ohungarumlaut" unicode="&#x150;" horiz-adv-x="1492" 
d="M684 1602l-45 36q73 87 156.5 209t144.5 226l109 -62q-65 -90 -167.5 -204t-197.5 -205zM1118 1602l-47 36q75 88 157.5 207.5t141.5 220.5l111 -55q-66 -92 -167.5 -206.5t-195.5 -202.5zM899 1440q210 0 342.5 -152t132.5 -409q0 -185 -58 -354t-154.5 -290.5
t-229.5 -193.5t-277 -72q-213 0 -344 153t-131 410q0 185 57.5 353t154 289.5t229.5 193.5t278 72zM672 61q124 0 235 63.5t190.5 171t126 255.5t46.5 311q0 223 -108.5 354.5t-280.5 131.5q-165 0 -302.5 -107.5t-215.5 -291t-78 -400.5q0 -223 107.5 -355.5t279.5 -132.5z
" />
    <glyph glyph-name="ohungarumlaut" unicode="&#x151;" horiz-adv-x="1230" 
d="M492 1278l-46 37q74 88 158.5 210t143.5 224l108 -61q-66 -91 -168 -206t-196 -204zM926 1278l-47 37q75 88 157.5 207.5t141.5 220.5l110 -55q-67 -93 -168 -208t-194 -202zM145 416q0 143 45.5 273t122 223.5t181.5 148.5t219 55q171 0 271.5 -116.5t100.5 -323.5
q0 -190 -77 -351.5t-207.5 -254.5t-282.5 -93q-172 0 -272.5 116t-100.5 323zM983 655q0 174 -79.5 273.5t-213.5 99.5q-126 0 -228 -80.5t-158 -215.5t-56 -296q0 -173 79 -271.5t214 -98.5q126 0 228 78.5t158 213t56 297.5z" />
    <glyph glyph-name="OE" unicode="&#x152;" horiz-adv-x="1990" 
d="M285 565q0 -110 34.5 -192.5t93.5 -134.5t147 -84.5t184 -45.5t217 -14l237 1223q-228 -3 -404.5 -60.5t-286.5 -158.5t-166 -235.5t-56 -297.5zM1743 94l-23 -94h-735q-142 0 -256 15t-219.5 53t-176.5 99.5t-113 159.5t-42 228q0 147 41.5 275t129.5 235t217 183
t312 118.5t406 42.5h713l-17 -92h-677l-109 -559h578l-17 -84h-577l-113 -580h678z" />
    <glyph glyph-name="oe" unicode="&#x153;" horiz-adv-x="1927" 
d="M1751 119q-136 -76 -254.5 -111t-207 -31t-156 40.5t-107.5 100t-55 150.5q-77 -132 -198 -209t-257 -77q-173 0 -274 113t-101 315q0 143 47 273.5t125 224t184 149t220 55.5q144 0 236.5 -86t117.5 -242q82 149 208 240.5t273 91.5q126 0 197.5 -65.5t71.5 -176.5
q0 -190 -201.5 -308t-564.5 -148v-37q0 -116 42.5 -190t125.5 -104t213.5 -7.5t298.5 98.5zM1532 1026q-121 0 -223.5 -78.5t-164 -199t-81.5 -259.5q199 17 345 62.5t230 123.5t84 181q0 79 -50 124.5t-140 45.5zM985 662q0 170 -78 267t-215 97q-125 0 -228.5 -82
t-161.5 -219.5t-58 -298.5q0 -167 80 -262.5t215 -95.5q124 0 227 80.5t161 217t58 296.5z" />
    <glyph glyph-name="Racute" unicode="&#x154;" horiz-adv-x="1292" 
d="M645 1645q101 71 225 182t209 205l84 -90q-94 -82 -232.5 -178.5t-260.5 -166.5zM1010 -10l-457 639l4 4q142 62 235.5 113t161 106t97.5 113t30 127q0 135 -144.5 197t-428.5 34l-256 -1323h-105l273 1407q204 23 349.5 12.5t238 -55t135.5 -108.5t43 -148
q0 -152 -121.5 -268t-376.5 -230l434 -602z" />
    <glyph glyph-name="racute" unicode="&#x155;" horiz-adv-x="1196" 
d="M604 1356q101 71 225 182t209 205l84 -90q-93 -82 -231.5 -177.5t-261.5 -166.5zM1100 57q-290 -128 -378 -29q-119 134 96 722q40 110 91 235q-253 -87 -420 -84q-53 -122 -142 -261t-185 -255l-47 41q216 279 293 487q-72 22 -72 82q0 59 51 123t105 64q27 0 42 -18.5
t15 -51.5q0 -46 -27 -129q219 17 473 129l47 -37q-253 -641 -261 -853q-6 -139 85 -152q68 -10 217 47z" />
    <glyph glyph-name="Rcommaaccent" unicode="&#x156;" horiz-adv-x="1292" 
d="M1010 -10l-457 639l4 4q142 62 235.5 113t161 106t97.5 113t30 127q0 135 -144.5 197t-428.5 34l-256 -1323h-105l273 1407q204 23 349.5 12.5t238 -55t135.5 -108.5t43 -148q0 -152 -121.5 -268t-376.5 -230l434 -602zM401 -598q56 80 82 156t24.5 137.5t-11.5 128.5
l141 6q7 -225 -195 -451z" />
    <glyph glyph-name="rcommaaccent" unicode="&#x157;" horiz-adv-x="1196" 
d="M1100 57q-290 -128 -378 -29q-119 134 96 722q40 110 91 235q-253 -87 -420 -84q-53 -122 -142 -261t-185 -255l-47 41q216 279 293 487q-72 22 -72 82q0 59 51 123t105 64q27 0 42 -18.5t15 -51.5q0 -46 -27 -129q219 17 473 129l47 -37q-253 -641 -261 -853
q-6 -139 85 -152q68 -10 217 47zM246 -588q56 80 81.5 156t24 137.5t-11.5 128.5l141 6q7 -225 -194 -450z" />
    <glyph glyph-name="Rcaron" unicode="&#x158;" horiz-adv-x="1292" 
d="M838 1593h-2l-269 344l74 60l215 -289l350 279l51 -60zM1010 -10l-457 639l4 4q142 62 235.5 113t161 106t97.5 113t30 127q0 135 -144.5 197t-428.5 34l-256 -1323h-105l273 1407q204 23 349.5 12.5t238 -55t135.5 -108.5t43 -148q0 -152 -121.5 -268t-376.5 -230
l434 -602z" />
    <glyph glyph-name="rcaron" unicode="&#x159;" horiz-adv-x="1196" 
d="M797 1305h-2l-269 344l74 59l215 -289l350 279l52 -60zM1100 57q-290 -128 -378 -29q-119 134 96 722q40 110 91 235q-253 -87 -420 -84q-53 -122 -142 -261t-185 -255l-47 41q216 279 293 487q-72 22 -72 82q0 59 51 123t105 64q27 0 42 -18.5t15 -51.5q0 -46 -27 -129
q219 17 473 129l47 -37q-253 -641 -261 -853q-6 -139 85 -152q68 -10 217 47z" />
    <glyph glyph-name="Sacute" unicode="&#x15a;" horiz-adv-x="1183" 
d="M610 1651q101 71 225 182t209 205l84 -90q-93 -82 -231.5 -177.5t-261.5 -166.5zM1083 1061l-98 -21q-17 155 -84 230.5t-188 75.5q-126 0 -212.5 -87.5t-86.5 -205.5q0 -58 30.5 -115.5t79.5 -106t107.5 -96.5t117.5 -97t108 -98.5t79.5 -108.5t30.5 -120
q0 -70 -30.5 -130t-100 -107.5t-171 -71.5t-254.5 -17t-339 52l24 106q139 -38 255.5 -55t198.5 -12.5t144 22t98.5 49t54 68.5t17.5 80q0 53 -30.5 106t-79.5 99t-107.5 92.5t-117.5 96t-108 101t-79.5 115.5t-30.5 131q0 76 33.5 149t90 128t138.5 89t172 34
q296 0 338 -375z" />
    <glyph glyph-name="sacute" unicode="&#x15b;" horiz-adv-x="1064" 
d="M518 1401q101 71 225 182t209 205l84 -90q-93 -82 -231.5 -177.5t-261.5 -166.5zM903 262q0 -44 -13 -81.5t-44.5 -73.5t-82.5 -61t-127 -44t-179 -21t-238 7l4 98q144 -19 246 -16t167 14.5t102 38.5t51 56.5t14 68.5q0 52 -31 119.5t-70.5 126t-86.5 139t-70 145.5
q-147 -156 -379 -325l-37 49q156 127 244.5 211.5t146.5 163.5q-4 36 -4 53q0 59 27 122t68 104.5t79 41.5q52 0 58 -56q8 -89 -105 -246l-18 -24q12 -55 45 -121.5t71.5 -127.5t75.5 -122.5t61.5 -124t24.5 -114.5z" />
    <glyph glyph-name="Scedilla" unicode="&#x15e;" horiz-adv-x="1183" 
d="M649 -383h-96q17 326 -102 326q-97 0 -205 -260l-60 22q78 210 176 283q-148 14 -290 49l24 106q139 -38 255.5 -55t198.5 -12.5t144 22t98.5 49t54 68.5t17.5 80q0 53 -30.5 106t-79.5 99t-107.5 92.5t-117.5 96t-108 101t-79.5 115.5t-30.5 131q0 76 33.5 149t90 128
t138.5 89t172 34q296 0 338 -375l-98 -21q-17 155 -84 230.5t-188 75.5q-126 0 -212.5 -87.5t-86.5 -205.5q0 -58 30.5 -115.5t79.5 -106t107.5 -96.5t117.5 -97t108 -98.5t79.5 -108.5t30.5 -120q0 -126 -101 -215.5t-303 -107.5q103 -96 86 -371z" />
    <glyph glyph-name="scedilla" unicode="&#x15f;" horiz-adv-x="1064" 
d="M676 -383h-96q9 166 -19 246t-84 80q-97 0 -205 -260l-59 22q75 200 166 275q-46 0 -160 8l4 98q144 -19 246 -16t167 14.5t102 38.5t51 56.5t14 68.5q0 52 -31 119.5t-70.5 126t-86.5 139t-70 145.5q-147 -156 -379 -325l-37 49q156 127 244.5 211.5t146.5 163.5
q-4 36 -4 53q0 59 27 122t68 104.5t79 41.5q52 0 58 -56q8 -89 -105 -246l-18 -24q12 -55 45 -121.5t71.5 -127.5t75.5 -122.5t61.5 -124t24.5 -114.5q0 -99 -74 -171.5t-245 -98.5q109 -88 92 -375z" />
    <glyph glyph-name="Scaron" unicode="&#x160;" horiz-adv-x="1183" 
d="M803 1599h-2l-269 345l74 59l215 -289l350 279l52 -60zM1083 1061l-98 -21q-17 155 -84 230.5t-188 75.5q-126 0 -212.5 -87.5t-86.5 -205.5q0 -58 30.5 -115.5t79.5 -106t107.5 -96.5t117.5 -97t108 -98.5t79.5 -108.5t30.5 -120q0 -70 -30.5 -130t-100 -107.5
t-171 -71.5t-254.5 -17t-339 52l24 106q139 -38 255.5 -55t198.5 -12.5t144 22t98.5 49t54 68.5t17.5 80q0 53 -30.5 106t-79.5 99t-107.5 92.5t-117.5 96t-108 101t-79.5 115.5t-30.5 131q0 76 33.5 149t90 128t138.5 89t172 34q296 0 338 -375z" />
    <glyph glyph-name="scaron" unicode="&#x161;" horiz-adv-x="1064" 
d="M709 1350h-2l-269 344l74 59l215 -289l350 279l51 -60zM903 262q0 -44 -13 -81.5t-44.5 -73.5t-82.5 -61t-127 -44t-179 -21t-238 7l4 98q144 -19 246 -16t167 14.5t102 38.5t51 56.5t14 68.5q0 52 -31 119.5t-70.5 126t-86.5 139t-70 145.5q-147 -156 -379 -325l-37 49
q156 127 244.5 211.5t146.5 163.5q-4 36 -4 53q0 59 27 122t68 104.5t79 41.5q52 0 58 -56q8 -89 -105 -246l-18 -24q12 -55 45 -121.5t71.5 -127.5t75.5 -122.5t61.5 -124t24.5 -114.5z" />
    <glyph glyph-name="Tcommaaccent" unicode="&#x162;" horiz-adv-x="1210" 
d="M811 1317l-256 -1317h-104l254 1317h-453l18 92h1008l-16 -92h-451zM301 -588q56 80 81.5 156t24 137.5t-11.5 128.5l142 6q7 -224 -195 -450z" />
    <glyph glyph-name="tcommaaccent" unicode="&#x163;" horiz-adv-x="956" 
d="M848 117q-109 -59 -199.5 -93.5t-157.5 -43t-117 3.5t-79.5 43.5t-43.5 80t-11 110.5t20 138l146 652h-197l22 82h138l147 313l80 6l-72 -319h408l-17 -82h-409l-146 -646q-26 -108 -18 -178t57 -97t155 -5.5t277 96.5zM229 -610q56 80 82 156t24.5 137.5t-11.5 128.5
l141 6q7 -225 -195 -451z" />
    <glyph glyph-name="Tcaron" unicode="&#x164;" horiz-adv-x="1210" 
d="M803 1579h-2l-269 344l74 59l215 -288l350 278l52 -59zM811 1317l-256 -1317h-104l254 1317h-453l18 92h1008l-16 -92h-451z" />
    <glyph glyph-name="tcaron" unicode="&#x165;" horiz-adv-x="956" 
d="M899 1874l135 10q0 -298 -219 -565l-45 27q96 147 119 264.5t10 263.5zM848 117q-109 -59 -199.5 -93.5t-157.5 -43t-117 3.5t-79.5 43.5t-43.5 80t-11 110.5t20 138l146 652h-197l22 82h138l147 313l80 6l-72 -319h408l-17 -82h-409l-146 -646q-26 -108 -18 -178t57 -97
t155 -5.5t277 96.5z" />
    <glyph glyph-name="Umacron" unicode="&#x16a;" horiz-adv-x="1431" 
d="M1300 1804l-18 -90h-661l16 90h663zM346 586q-100 -525 303 -525q172 0 281 105t153 336l177 907h104l-178 -913q-52 -269 -195 -397t-354 -128q-70 0 -130 13.5t-113.5 43.5t-90 78t-60 117t-22.5 160.5t21 208.5l159 817h105z" />
    <glyph glyph-name="umacron" unicode="&#x16b;" horiz-adv-x="1359" 
d="M1184 1489l-19 -90h-661l16 90h664zM924 264l2 8q-139 -149 -254.5 -222t-225.5 -73q-134 0 -188 104t-6 314l139 600l-239 -53l-13 59l287 95l90 -6l-162 -689q-30 -119 -18.5 -192t49 -105t100.5 -32q94 0 203 73t258 230l141 717h101l-162 -822q-22 -98 -14.5 -147.5
t60.5 -48.5t175 55l17 -57q-118 -64 -195.5 -81t-115 10.5t-44.5 94t15 168.5z" />
    <glyph glyph-name="Ubreve" unicode="&#x16c;" horiz-adv-x="1431" 
d="M1300 1964l62 -41q-224 -321 -424 -321q-102 0 -177.5 79.5t-133.5 249.5l82 39q56 -153 112 -216.5t137 -63.5q83 0 161 66.5t181 207.5zM346 586q-100 -525 303 -525q172 0 281 105t153 336l177 907h104l-178 -913q-52 -269 -195 -397t-354 -128q-70 0 -130 13.5
t-113.5 43.5t-90 78t-60 117t-22.5 160.5t21 208.5l159 817h105z" />
    <glyph glyph-name="ubreve" unicode="&#x16d;" horiz-adv-x="1359" 
d="M1182 1649l61 -41q-225 -322 -424 -322q-101 0 -177 80t-134 250l82 39q56 -153 112.5 -217t137.5 -64q83 0 160.5 66.5t181.5 208.5zM924 264l2 8q-139 -149 -254.5 -222t-225.5 -73q-134 0 -188 104t-6 314l139 600l-239 -53l-13 59l287 95l90 -6l-162 -689
q-30 -119 -18.5 -192t49 -105t100.5 -32q94 0 203 73t258 230l141 717h101l-162 -822q-22 -98 -14.5 -147.5t60.5 -48.5t175 55l17 -57q-118 -64 -195.5 -81t-115 10.5t-44.5 94t15 168.5z" />
    <glyph glyph-name="Uring" unicode="&#x16e;" horiz-adv-x="1431" 
d="M981 2019q113 0 185.5 -61t72.5 -156q0 -106 -82.5 -179t-206.5 -73q-113 0 -185.5 61.5t-72.5 157.5q0 105 82.5 177.5t206.5 72.5zM973 1948q-84 0 -140.5 -49.5t-56.5 -120.5q0 -68 51.5 -112t130.5 -44q84 0 141.5 49.5t57.5 120.5q0 67 -52 111.5t-132 44.5z
M346 586q-100 -525 303 -525q172 0 281 105t153 336l177 907h104l-178 -913q-52 -269 -195 -397t-354 -128q-70 0 -130 13.5t-113.5 43.5t-90 78t-60 117t-22.5 160.5t21 208.5l159 817h105z" />
    <glyph glyph-name="uring" unicode="&#x16f;" horiz-adv-x="1333" 
d="M868 1706q113 0 185.5 -61t72.5 -156q0 -106 -82 -179t-206 -73q-113 0 -185.5 61.5t-72.5 157.5q0 105 82.5 177.5t205.5 72.5zM860 1634q-84 0 -140 -49.5t-56 -120.5q0 -68 51.5 -111.5t130.5 -43.5q84 0 141 49.5t57 120.5q0 67 -52 111t-132 44zM924 264l2 8
q-139 -149 -254.5 -222t-225.5 -73q-134 0 -188 104t-6 314l139 600l-239 -53l-13 59l287 95l90 -6l-162 -689q-30 -119 -18.5 -192t49 -105t100.5 -32q94 0 203 73t258 230l141 717h101l-162 -822q-22 -98 -14.5 -147.5t60.5 -48.5t175 55l17 -57q-118 -64 -195.5 -81
t-115 10.5t-44.5 94t15 168.5z" />
    <glyph glyph-name="Uhungarumlaut" unicode="&#x170;" horiz-adv-x="1431" 
d="M662 1581l-46 37q74 88 158.5 210t143.5 224l108 -61q-66 -91 -168 -206t-196 -204zM1096 1581l-47 37q75 88 157.5 207.5t141.5 220.5l110 -55q-67 -93 -168 -208t-194 -202zM346 586q-100 -525 303 -525q172 0 281 105t153 336l177 907h104l-178 -913
q-52 -269 -195 -397t-354 -128q-70 0 -130 13.5t-113.5 43.5t-90 78t-60 117t-22.5 160.5t21 208.5l159 817h105z" />
    <glyph glyph-name="uhungarumlaut" unicode="&#x171;" horiz-adv-x="1359" 
d="M543 1266l-45 37q74 87 157.5 209t143.5 225l108 -62q-66 -90 -168 -204.5t-196 -204.5zM977 1266l-47 37q75 88 157.5 207.5t141.5 220.5l110 -56q-66 -93 -167.5 -207.5t-194.5 -201.5zM924 264l2 8q-139 -149 -254.5 -222t-225.5 -73q-134 0 -188 104t-6 314l139 600
l-239 -53l-13 59l287 95l90 -6l-162 -689q-30 -119 -18.5 -192t49 -105t100.5 -32q94 0 203 73t258 230l141 717h101l-162 -822q-22 -98 -14.5 -147.5t60.5 -48.5t175 55l17 -57q-118 -64 -195.5 -81t-115 10.5t-44.5 94t15 168.5z" />
    <glyph glyph-name="Uogonek" unicode="&#x172;" horiz-adv-x="1431" 
d="M791 -377q-83 -47 -156 -69.5t-123.5 -21t-86.5 19.5t-53.5 48t-17.5 68q0 145 301 305q-70 -2 -130.5 9.5t-117 40t-95 76t-64.5 116.5t-26 162.5t20 214.5l159 817h105l-160 -823q-103 -525 303 -525q172 0 281 105t153 336l177 907h104l-178 -913q-46 -248 -185 -387
q-39 -37 -84 -64t-112 -59q-352 -163 -352 -291q0 -25 11 -43.5t35.5 -28.5t61 -9t91.5 16.5t122 45.5z" />
    <glyph glyph-name="uogonek" unicode="&#x173;" horiz-adv-x="1359" 
d="M1178 -377q-83 -47 -156 -70t-123.5 -21t-86.5 19.5t-53.5 47.5t-17.5 67q0 155 265 326q-133 14 -82 272l2 8q-139 -149 -254.5 -222t-225.5 -73q-134 0 -188 104t-6 314l139 600l-239 -53l-13 59l287 95l90 -6l-162 -689q-30 -119 -18.5 -192t49 -105t100.5 -32
q94 0 203 73t258 230l141 717h101l-162 -822q-22 -98 -14.5 -147.5t60.5 -48.5t175 55l15 -47l6 -8q-428 -223 -428 -379q0 -25 11 -43t36 -28t61 -9.5t91 16t122 45.5z" />
    <glyph glyph-name="Wcircumflex" unicode="&#x174;" horiz-adv-x="1595" 
d="M1292 1585l-215 289l-350 -279l-51 60l420 336h2l268 -346zM1010 0l-152 856l-485 -856h-135q3 213 36.5 594.5t90.5 814.5h102q-45 -350 -85 -741t-44 -547h10l494 878h84l155 -878h11q56 153 167 540t205 748h103q-110 -426 -227 -808t-199 -601h-131z" />
    <glyph glyph-name="wcircumflex" unicode="&#x175;" horiz-adv-x="1415" 
d="M1130 1268l-215 288l-350 -278l-51 59l420 336h2l268 -346zM891 0l-164 686l-414 -686h-98q3 486 74 1092h104q-56 -506 -82 -940h6l408 677h72l153 -679h11q152 464 278 942h107q-138 -495 -359 -1092h-96z" />
    <glyph glyph-name="Ycircumflex" unicode="&#x176;" 
d="M1122 1587l-215 289l-350 -279l-51 60l420 336h2l268 -346zM586 0h-109l94 479l-305 928l107 6l272 -842l590 838h115l-674 -940z" />
    <glyph glyph-name="ycircumflex" unicode="&#x177;" horiz-adv-x="1269" 
d="M1100 1286l-215 289l-350 -279l-52 60l420 336h2l269 -346zM938 -223q-106 -210 -793 -166l15 108q181 -13 301 -14t200.5 12t119.5 28t57 34q20 19 30.5 51t13 88.5t1.5 108.5t-3.5 151.5t-2.5 177.5q-105 -132 -235.5 -218.5t-250.5 -86.5q-405 0 -16 1041l100 4
q-82 -227 -127.5 -398t-56 -274.5t7 -167.5t51.5 -87.5t86 -23.5q92 0 215.5 87t229.5 223q13 136 53 293.5t83.5 259.5t67.5 102q27 0 49.5 -12t22.5 -31q0 -50 -59.5 -249.5t-128.5 -346.5q-4 -82 -4 -123q0 -79 3 -194.5t3 -168.5t-7.5 -112.5t-25.5 -95.5z" />
    <glyph glyph-name="Ydieresis" unicode="&#x178;" 
d="M1104 1612l-103 -2l70 293l117 4zM664 1606l-103 -2l70 294l117 3zM586 0h-109l94 479l-305 928l107 6l272 -842l590 838h115l-674 -940z" />
    <glyph glyph-name="Zacute" unicode="&#x179;" horiz-adv-x="1267" 
d="M635 1630q101 71 225 182t209 205l84 -90q-93 -81 -231.5 -176.5t-262.5 -167.5zM993 0h-923l14 90l1042 1229l-786 -4l18 94h902l-17 -90l-1038 -1229l807 4z" />
    <glyph glyph-name="zacute" unicode="&#x17a;" horiz-adv-x="1128" 
d="M512 1313q101 71 225 182t209 205l84 -90q-93 -82 -231.5 -177.5t-261.5 -166.5zM887 0h-807l16 86l840 920l-674 -5l25 91h780l-16 -86l-840 -918l702 2z" />
    <glyph glyph-name="Zdotaccent" unicode="&#x17b;" horiz-adv-x="1267" 
d="M872 1606l-102 -2l70 294l116 3zM993 0h-923l14 90l1042 1229l-786 -4l18 94h902l-17 -90l-1038 -1229l807 4z" />
    <glyph glyph-name="zdotaccent" unicode="&#x17c;" horiz-adv-x="1128" 
d="M750 1288l-103 -2l70 295l117 2zM887 0h-807l16 86l840 920l-674 -5l25 91h780l-16 -86l-840 -918l702 2z" />
    <glyph glyph-name="Zcaron" unicode="&#x17d;" horiz-adv-x="1267" 
d="M825 1579h-2l-268 344l74 59l215 -288l350 278l51 -59zM993 0h-923l14 90l1042 1229l-786 -4l18 94h902l-17 -90l-1038 -1229l807 4z" />
    <glyph glyph-name="zcaron" unicode="&#x17e;" horiz-adv-x="1128" 
d="M702 1262h-2l-268 344l74 59l215 -289l350 279l51 -60zM887 0h-807l16 86l840 920l-674 -5l25 91h780l-16 -86l-840 -918l702 2z" />
    <glyph glyph-name="Aringacute" unicode="&#x1fa;" horiz-adv-x="1339" 
d="M788 2187q101 71 225.5 182t209.5 205l84 -90q-93 -81 -231.5 -176.5t-262.5 -167.5zM934 2025q113 0 185.5 -61t72.5 -156q0 -106 -82.5 -179t-206.5 -73q-113 0 -185.5 61.5t-72.5 158.5q0 105 82.5 177t206.5 72zM926 1954q-84 0 -140.5 -49.5t-56.5 -120.5
q0 -68 51.5 -112t130.5 -44q84 0 141.5 49.5t57.5 120.5q0 67 -52 111.5t-132 44.5zM1012 -4q-8 71 -18 152t-22.5 179.5t-19.5 153.5h-577q-35 -68 -118.5 -230.5t-127.5 -250.5h-109q376 738 748 1417h156q119 -781 190 -1413zM821 1321q-165 -304 -403 -758h524
q-60 460 -104 758h-17z" />
    <glyph glyph-name="aringacute" unicode="&#x1fb;" horiz-adv-x="1249" 
d="M705 1876q101 71 225 182t209 205l84 -90q-93 -81 -231.5 -176.5t-262.5 -167.5zM848 1714q113 0 185.5 -61t72.5 -156q0 -106 -82.5 -179t-206.5 -73q-113 0 -185.5 61.5t-72.5 157.5q0 105 82.5 177.5t206.5 72.5zM840 1642q-84 0 -140.5 -49t-56.5 -120
q0 -68 51.5 -112t130.5 -44q84 0 141.5 49.5t57.5 120.5q0 67 -52 111t-132 44zM412 74q86 0 203.5 74.5t213.5 179.5l129 661q-134 35 -235 35q-132 0 -244.5 -94.5t-176.5 -250.5t-64 -333q0 -131 48.5 -201.5t125.5 -70.5zM1157 72q-112 -65 -188.5 -83.5t-113.5 7
t-49 83.5t5 146q-106 -106 -225.5 -175.5t-212.5 -69.5q-106 0 -172 89.5t-66 254.5q0 154 50 298.5t135.5 253t206.5 173.5t255 65q117 0 295 -45l-157 -799q-22 -98 -14.5 -147.5t60.5 -48.5t175 55z" />
    <glyph glyph-name="AEacute" unicode="&#x1fc;" horiz-adv-x="1947" 
d="M1253 1630q101 71 225.5 182t209.5 205l84 -90q-93 -81 -231.5 -176.5t-262.5 -167.5zM1139 1317q-228 -283 -615 -770h482l149 770h-16zM899 0l90 463h-530q-327 -421 -359 -463h-116q541 707 1114 1409h856l-19 -92h-675l-107 -559h576l-15 -84h-577l-113 -580h676
l-23 -94h-778z" />
    <glyph glyph-name="aeacute" unicode="&#x1fd;" horiz-adv-x="1804" 
d="M938 1335q101 71 225 182t209 205l84 -90q-93 -82 -231.5 -177.5t-261.5 -166.5zM1628 119q-149 -80 -276.5 -114t-219.5 -24t-159 55t-102 120t-40 174q-103 -148 -226.5 -249t-229.5 -101q-103 0 -171.5 90t-68.5 254q0 154 49.5 298.5t134 253t205 173.5t254.5 65
q164 0 340 -110q144 112 314 112q125 0 196.5 -65.5t71.5 -176.5q0 -191 -202 -309.5t-566 -146.5v-33q0 -117 40.5 -191.5t122.5 -105.5t212.5 -8.5t304.5 98.5zM1411 1026q-122 0 -225.5 -78.5t-165.5 -199.5t-82 -261q202 18 347.5 63.5t229.5 123.5t84 182
q0 79 -49.5 124.5t-138.5 45.5zM410 74q91 0 210 108.5t216 255.5q10 139 63 267t139 223q-158 96 -311 96q-135 0 -248 -94.5t-177 -250t-64 -333.5q0 -130 49.5 -201t122.5 -71z" />
    <glyph glyph-name="Oslashacute" unicode="&#x1fe;" horiz-adv-x="1492" 
d="M756 1665q101 71 225 182t209 205l84 -90q-93 -81 -231.5 -176.5t-262.5 -167.5zM285 549q0 -138 45 -250l852 889q-53 77 -130.5 118.5t-170.5 41.5q-165 0 -302.5 -107.5t-215.5 -291t-78 -400.5zM672 61q164 0 301.5 107.5t216 291.5t78.5 402q0 143 -47 252
l-852 -889q51 -79 129 -121.5t174 -42.5zM653 -31q-112 0 -204.5 45t-155.5 129l-182 -188l-60 53l197 207q-70 134 -70 317q0 185 57.5 353t154.5 289.5t230 193.5t279 72q225 0 358 -172l181 188l59 -55l-194 -203q71 -136 71 -319q0 -185 -58 -354t-155 -290.5
t-230 -193.5t-278 -72z" />
    <glyph glyph-name="oslashacute" unicode="&#x1ff;" horiz-adv-x="1230" 
d="M565 1358q101 71 225 182t209 205l84 -90q-93 -82 -231.5 -177.5t-261.5 -166.5zM248 436q0 -103 33 -190l630 674q-79 108 -221 108q-126 0 -228 -80.5t-158 -215.5t-56 -296zM541 66q126 0 228 78.5t158 213t56 297.5q0 107 -31 189l-633 -672q77 -106 222 -106z
M518 -23q-169 0 -272 115l-140 -145l-59 53l154 162q-56 103 -56 254q0 143 45.5 273t122 223.5t181.5 148.5t219 55q176 0 272 -119l139 150l60 -55l-154 -160q55 -110 55 -256q0 -190 -77 -351.5t-207.5 -254.5t-282.5 -93z" />
    <glyph glyph-name="Scommaaccent" unicode="&#x218;" horiz-adv-x="1183" 
d="M1083 1061l-98 -21q-17 155 -84 230.5t-188 75.5q-126 0 -212.5 -87.5t-86.5 -205.5q0 -58 30.5 -115.5t79.5 -106t107.5 -96.5t117.5 -97t108 -98.5t79.5 -108.5t30.5 -120q0 -70 -30.5 -130t-100 -107.5t-171 -71.5t-254.5 -17t-339 52l24 106q139 -38 255.5 -55
t198.5 -12.5t144 22t98.5 49t54 68.5t17.5 80q0 53 -30.5 106t-79.5 99t-107.5 92.5t-117.5 96t-108 101t-79.5 115.5t-30.5 131q0 76 33.5 149t90 128t138.5 89t172 34q296 0 338 -375zM272 -598q56 80 82 156t24.5 137.5t-11.5 128.5l141 6q7 -225 -195 -451z" />
    <glyph glyph-name="scommaaccent" unicode="&#x219;" horiz-adv-x="1064" 
d="M903 262q0 -44 -13 -81.5t-44.5 -73.5t-82.5 -61t-127 -44t-179 -21t-238 7l4 98q144 -19 246 -16t167 14.5t102 38.5t51 56.5t14 68.5q0 52 -31 119.5t-70.5 126t-86.5 139t-70 145.5q-147 -156 -379 -325l-37 49q156 127 244.5 211.5t146.5 163.5q-4 36 -4 53
q0 59 27 122t68 104.5t79 41.5q52 0 58 -56q8 -89 -105 -246l-18 -24q12 -55 45 -121.5t71.5 -127.5t75.5 -122.5t61.5 -124t24.5 -114.5zM231 -598q56 80 82 156t24.5 137.5t-11.5 128.5l141 6q7 -225 -195 -451z" />
    <glyph glyph-name="schwa" unicode="&#x259;" horiz-adv-x="1118" 
d="M389 -23q-126 0 -198 65.5t-72 176.5q0 190 202 308t566 149v35q0 117 -42.5 191.5t-126 104t-213.5 7t-298 -98.5l-17 60q152 84 282 118t223.5 20t160 -65t99 -134t32.5 -191q0 -133 -46.5 -266.5t-124.5 -240t-191 -173t-236 -66.5zM408 68q92 0 175 45.5t142.5 121
t99.5 171t54 198.5q-199 -18 -345 -63.5t-230.5 -123t-84.5 -179.5q0 -79 50 -124.5t139 -45.5z" />
    <glyph glyph-name="circumflex" unicode="&#x2c6;" horiz-adv-x="1173" 
d="M862 1268l-215 288l-350 -278l-51 59l420 336h2l268 -346z" />
    <glyph glyph-name="caron" unicode="&#x2c7;" horiz-adv-x="1173" 
d="M575 1262h-2l-268 344l74 59l215 -289l350 279l51 -60z" />
    <glyph glyph-name="breve" unicode="&#x2d8;" horiz-adv-x="1173" 
d="M932 1647l61 -41q-225 -322 -424 -322q-101 0 -177 80t-134 250l82 39q56 -153 112.5 -217t137.5 -64q83 0 160.5 66.5t181.5 208.5z" />
    <glyph glyph-name="dotaccent" unicode="&#x2d9;" horiz-adv-x="1173" 
d="M621 1288l-103 -2l70 295l117 2z" />
    <glyph glyph-name="ring" unicode="&#x2da;" horiz-adv-x="1173" 
d="M805 1702q113 0 185.5 -61t72.5 -156q0 -106 -82.5 -179t-206.5 -73q-113 0 -185.5 61.5t-72.5 157.5q0 105 82.5 177.5t206.5 72.5zM797 1630q-84 0 -140.5 -49.5t-56.5 -120.5q0 -68 51.5 -111.5t130.5 -43.5q84 0 141.5 49.5t57.5 120.5q0 67 -52 111t-132 44z" />
    <glyph glyph-name="ogonek" unicode="&#x2db;" horiz-adv-x="1173" 
d="M809 51l39 -49q-406 -168 -406 -307q0 -25 11 -43.5t36 -28.5t61.5 -9t91.5 16.5t122 45.5l16 -53q-83 -47 -155.5 -70t-123 -21.5t-87 19.5t-53.5 48.5t-17 68.5q0 89 114.5 187.5t350.5 195.5z" />
    <glyph glyph-name="tilde" unicode="&#x2dc;" horiz-adv-x="1173" 
d="M754 1374q47 0 98.5 64.5t124.5 191.5l59 -35q-85 -153 -158.5 -229t-146.5 -76q-47 0 -86.5 40.5t-62.5 88.5t-55 88.5t-66 40.5q-48 0 -101.5 -62t-121.5 -181l-58 34q83 150 157 222.5t148 72.5q39 0 71.5 -27t55 -65t43 -76t46 -65t53.5 -27z" />
    <glyph glyph-name="hungarumlaut" unicode="&#x2dd;" horiz-adv-x="1173" 
d="M346 1264l-45 36q73 87 156.5 209t144.5 226l109 -62q-65 -90 -167.5 -204t-197.5 -205zM780 1264l-47 36q158 187 299 429l111 -56q-66 -92 -167.5 -206.5t-195.5 -202.5z" />
    <glyph glyph-name="commaaccent" unicode="&#x326;" horiz-adv-x="1173" 
d="M418 -588q56 80 81.5 156t24 137.5t-11.5 128.5l141 6q7 -225 -194 -450z" />
    <glyph glyph-name="Wgrave" unicode="&#x1e80;" horiz-adv-x="1595" 
d="M1190 1610l-33 -47q-94 74 -207 183.5t-186 201.5l88 84q66 -102 163 -224t175 -198zM1010 0l-152 856l-485 -856h-135q3 213 36.5 594.5t90.5 814.5h102q-45 -350 -85 -741t-44 -547h10l494 878h84l155 -878h11q56 153 167 540t205 748h103q-110 -426 -227 -808
t-199 -601h-131z" />
    <glyph glyph-name="wgrave" unicode="&#x1e81;" horiz-adv-x="1415" 
d="M1028 1292l-33 -47q-94 74 -207 183.5t-186 201.5l88 84q66 -102 163 -224t175 -198zM891 0l-164 686l-414 -686h-98q3 486 74 1092h104q-56 -506 -82 -940h6l408 677h72l153 -679h11q152 464 278 942h107q-138 -495 -359 -1092h-96z" />
    <glyph glyph-name="Wacute" unicode="&#x1e82;" horiz-adv-x="1595" 
d="M813 1630q101 71 225 182t209 205l84 -90q-93 -82 -231.5 -177.5t-261.5 -166.5zM1010 0l-152 856l-485 -856h-135q3 213 36.5 594.5t90.5 814.5h102q-45 -350 -85 -741t-44 -547h10l494 878h84l155 -878h11q56 153 167 540t205 748h103q-110 -426 -227 -808t-199 -601
h-131z" />
    <glyph glyph-name="wacute" unicode="&#x1e83;" horiz-adv-x="1415" 
d="M651 1313q101 71 225 182t209 205l84 -90q-93 -82 -231.5 -177.5t-261.5 -166.5zM891 0l-164 686l-414 -686h-98q3 486 74 1092h104q-56 -506 -82 -940h6l408 677h72l153 -679h11q152 464 278 942h107q-138 -495 -359 -1092h-96z" />
    <glyph glyph-name="Wdieresis" unicode="&#x1e84;" horiz-adv-x="1595" 
d="M1272 1610l-103 -2l70 293l117 4zM831 1604l-102 -2l70 294l116 2zM1010 0l-152 856l-485 -856h-135q3 213 36.5 594.5t90.5 814.5h102q-45 -350 -85 -741t-44 -547h10l494 878h84l155 -878h11q56 153 167 540t205 748h103q-110 -426 -227 -808t-199 -601h-131z" />
    <glyph glyph-name="wdieresis" unicode="&#x1e85;" horiz-adv-x="1415" 
d="M1110 1292l-102 -2l69 293l117 4zM670 1286l-103 -2l70 295l117 2zM891 0l-164 686l-414 -686h-98q3 486 74 1092h104q-56 -506 -82 -940h6l408 677h72l153 -679h11q152 464 278 942h107q-138 -495 -359 -1092h-96z" />
    <glyph glyph-name="Ygrave" unicode="&#x1ef2;" 
d="M1022 1612l-33 -47q-94 74 -207 183.5t-186 201.5l88 84q66 -102 163 -224t175 -198zM586 0h-109l94 479l-305 928l107 6l272 -842l590 838h115l-674 -940z" />
    <glyph glyph-name="ygrave" unicode="&#x1ef3;" horiz-adv-x="1269" 
d="M997 1311l-32 -47q-95 74 -208.5 183.5t-185.5 201.5l88 84q66 -102 163 -224t175 -198zM938 -223q-106 -210 -793 -166l15 108q181 -13 301 -14t200.5 12t119.5 28t57 34q20 19 30.5 51t13 88.5t1.5 108.5t-3.5 151.5t-2.5 177.5q-105 -132 -235.5 -218.5t-250.5 -86.5
q-405 0 -16 1041l100 4q-82 -227 -127.5 -398t-56 -274.5t7 -167.5t51.5 -87.5t86 -23.5q92 0 215.5 87t229.5 223q13 136 53 293.5t83.5 259.5t67.5 102q27 0 49.5 -12t22.5 -31q0 -50 -59.5 -249.5t-128.5 -346.5q-4 -82 -4 -123q0 -79 3 -194.5t3 -168.5t-7.5 -112.5
t-25.5 -95.5z" />
    <glyph glyph-name="enspace" unicode="&#x2002;" horiz-adv-x="1024" 
 />
    <glyph glyph-name="emspace" unicode="&#x2003;" horiz-adv-x="2048" 
 />
    <glyph glyph-name="threeperemspace" unicode="&#x2004;" horiz-adv-x="681" 
 />
    <glyph glyph-name="fourperemspace" unicode="&#x2005;" horiz-adv-x="512" 
 />
    <glyph glyph-name="figurespace" unicode="&#x2007;" horiz-adv-x="1126" 
 />
    <glyph glyph-name="thinspace" unicode="&#x2009;" horiz-adv-x="272" 
 />
    <glyph glyph-name="hairspace" unicode="&#x200a;" horiz-adv-x="153" 
 />
    <glyph glyph-name="endash" unicode="&#x2013;" horiz-adv-x="1210" 
d="M1063 694l-14 -80h-863l15 80h862z" />
    <glyph glyph-name="emdash" unicode="&#x2014;" horiz-adv-x="1738" 
d="M1591 694l-14 -80h-1391l15 80h1390z" />
    <glyph glyph-name="quoteleft" unicode="&#x2018;" horiz-adv-x="645" 
d="M651 1503q-132 -136 -171 -260t-15 -321l-160 -4q12 197 81 336t224 278z" />
    <glyph glyph-name="quoteright" unicode="&#x2019;" horiz-adv-x="636" 
d="M250 913q132 138 170.5 261.5t15.5 320.5l160 6q-12 -198 -81 -337t-224 -277z" />
    <glyph glyph-name="quotesinglbase" unicode="&#x201a;" horiz-adv-x="665" 
d="M12 -393q132 137 171.5 260.5t17.5 320.5l159 5q-14 -197 -83 -336.5t-222 -278.5z" />
    <glyph glyph-name="quotedblleft" unicode="&#x201c;" horiz-adv-x="1064" 
d="M1073 1503q-133 -136 -172.5 -260t-15.5 -321l-160 -4q12 197 81 336t224 278zM651 1503q-132 -136 -171 -260t-15 -321l-160 -4q12 197 81 336t224 278z" />
    <glyph glyph-name="quotedblright" unicode="&#x201d;" horiz-adv-x="1056" 
d="M250 913q132 138 170.5 261.5t15.5 320.5l160 6q-12 -198 -81 -337t-224 -277zM670 913q132 138 170.5 261.5t15.5 320.5l160 6q-12 -198 -81 -337t-224 -277z" />
    <glyph glyph-name="quotedblbase" unicode="&#x201e;" horiz-adv-x="1083" 
d="M12 -393q132 137 171.5 260.5t17.5 320.5l159 5q-14 -197 -83 -336.5t-222 -278.5zM432 -393q132 137 171.5 260.5t17.5 320.5l159 5q-12 -196 -81.5 -335.5t-223.5 -279.5z" />
    <glyph glyph-name="dagger" unicode="&#x2020;" horiz-adv-x="1079" 
d="M512 270l-68 -32l-14 14l162 856l-352 37l20 86l348 -37l74 383l100 -10l-71 -383l352 -37l-19 -86l-352 37z" />
    <glyph glyph-name="daggerdbl" unicode="&#x2021;" horiz-adv-x="1079" 
d="M489 156l-67 -31l-12 14l98 514l-361 39l19 86l358 -37l70 367l-354 37l20 86l350 -37l72 383l100 -10l-71 -383l352 -37l-19 -86l-352 37l-78 -367l349 -37l-19 -86l-350 37z" />
    <glyph glyph-name="bullet" unicode="&#x2022;" horiz-adv-x="1064" 
d="M791 694q0 -117 -77 -196.5t-179 -79.5q-91 0 -151 64.5t-60 162.5q0 116 76.5 195.5t177.5 79.5q93 0 153 -63.5t60 -162.5z" />
    <glyph glyph-name="ellipsis" unicode="&#x2026;" horiz-adv-x="1894" 
d="M1563 0h-162l39 190h162zM944 0h-162l37 190h164zM326 0h-164l39 190h161z" />
    <glyph glyph-name="guilsinglleft" unicode="&#x2039;" horiz-adv-x="905" 
d="M549 -31l-393 529l30 110l600 516l60 -80l-600 -501l383 -506z" />
    <glyph glyph-name="guilsinglright" unicode="&#x203a;" horiz-adv-x="905" 
d="M121 -31l-60 78l601 504l-383 506l79 67l394 -528l-31 -111z" />
    <glyph glyph-name="fraction" unicode="&#x2044;" horiz-adv-x="595" 
d="M-229 -45l-58 47l1174 1446l61 -47z" />
    <glyph glyph-name="zero.sup" unicode="&#x2070;" horiz-adv-x="1042" 
d="M291 1059q0 155 55 292t152.5 220.5t212.5 83.5q118 0 189 -88t71 -250q0 -155 -54.5 -293t-151.5 -222.5t-212 -84.5q-122 0 -192 89t-70 253zM883 1300q0 135 -49.5 205t-139.5 70t-163.5 -73t-112.5 -187.5t-39 -243.5q0 -134 49.5 -204t138.5 -70t162.5 72.5
t113.5 187.5t40 243z" />
    <glyph glyph-name="four.sup" unicode="&#x2074;" horiz-adv-x="1042" 
d="M920 940h-113l-39 -201h-82l39 201h-453l7 61q98 158 164 301.5t128 344.5l95 -7q-64 -200 -131.5 -336.5t-165.5 -285.5h370l62 319l86 9l-64 -328h121z" />
    <glyph glyph-name="five.sup" unicode="&#x2075;" horiz-adv-x="1042" 
d="M889 1014q0 -60 -34 -112.5t-104 -95.5t-196 -62t-291 -5l12 86q122 -13 211.5 -6.5t150 22.5t97.5 44t52.5 57t15.5 62q0 155 -420 223l102 409h492l-23 -80l-407 3l-68 -273q410 -75 410 -272z" />
    <glyph glyph-name="six.sup" unicode="&#x2076;" horiz-adv-x="1042" 
d="M594 719q-129 0 -211 79.5t-82 233.5q0 72 18.5 141.5t62.5 142t110.5 134.5t168.5 118t230 95l20 -82q-119 -33 -211.5 -80.5t-151 -103t-93.5 -111.5t-52 -117q83 72 176.5 96.5t167.5 3.5t122.5 -83t48.5 -152q0 -139 -92.5 -227t-231.5 -88zM608 795q101 0 162 63
t61 160q0 71 -39.5 120t-101 65t-142.5 -7.5t-157 -89.5q-4 -40 -4 -59q0 -128 62.5 -190t158.5 -62z" />
    <glyph glyph-name="seven.sup" unicode="&#x2077;" horiz-adv-x="1042" 
d="M451 733l-95 10q261 460 557 809l-2 7h-505l16 79h602l-16 -73q-313 -386 -557 -832z" />
    <glyph glyph-name="eight.sup" unicode="&#x2078;" horiz-adv-x="1042" 
d="M862 948q0 -96 -90 -163.5t-225 -67.5q-120 0 -195.5 54t-75.5 142q0 69 57.5 138t217.5 170q-143 128 -143 223q0 69 55.5 122t163.5 76t268 -6l-27 -88q-139 33 -222 22.5t-117.5 -40.5t-34.5 -76q0 -41 34 -85.5t97 -102.5q104 60 331 178l31 -55q-185 -95 -313 -168
q45 -42 70 -67.5t57 -63.5t46.5 -73t14.5 -69zM563 793q94 0 155.5 42.5t61.5 104.5q0 27 -13 55t-46 63t-53.5 54.5t-69.5 63.5q-139 -86 -186 -140.5t-47 -103.5q0 -63 56 -101t142 -38z" />
    <glyph glyph-name="nine.sup" unicode="&#x2079;" horiz-adv-x="1042" 
d="M371 715l-21 82q120 33 212.5 80.5t151 103.5t93 111.5t51.5 117.5q-83 -74 -176.5 -99t-167 -4t-122 83.5t-48.5 152.5q0 139 92 227.5t230 88.5q129 0 210.5 -79.5t81.5 -233.5q0 -72 -18.5 -141.5t-62.5 -142t-110 -134.5t-167.5 -118t-228.5 -95zM428 1360
q0 -71 40 -120.5t101.5 -65.5t143 8.5t157.5 91.5q4 40 4 57q0 128 -63 190t-158 62q-102 0 -163.5 -63t-61.5 -160z" />
    <glyph glyph-name="zero.inf" unicode="&#x2080;" horiz-adv-x="1042" 
d="M121 -23q0 155 55 292t152.5 220.5t212.5 83.5q119 0 189.5 -87.5t70.5 -249.5q0 -155 -54.5 -293t-151.5 -223t-212 -85q-122 0 -192 89t-70 253zM713 219q0 135 -49.5 205t-139.5 70t-163.5 -73t-112.5 -187.5t-39 -243.5q0 -135 49.5 -205t138.5 -70t162.5 72.5
t113.5 188t40 243.5z" />
    <glyph glyph-name="one.inf" unicode="&#x2081;" horiz-adv-x="1042" 
d="M700 -342h-618l16 78h279l129 655l-264 -18l6 65l272 33l25 125l90 6l-170 -866h254z" />
    <glyph glyph-name="two.inf" unicode="&#x2082;" horiz-adv-x="1042" 
d="M670 -342h-594l-2 74q108 72 176.5 119t144.5 103t120 98t83 88t55.5 88t16.5 85q0 216 -426 152l12 86q248 37 377 -22t129 -197q0 -60 -25 -118.5t-67.5 -111t-116 -114.5t-152.5 -118t-196 -132h483z" />
    <glyph glyph-name="three.inf" unicode="&#x2083;" horiz-adv-x="1042" 
d="M719 -98q0 -43 -18.5 -81.5t-62.5 -75.5t-116 -59.5t-178.5 -32.5t-251.5 5l12 86q127 -15 219 -10.5t151.5 16.5t94.5 35.5t48.5 48t13.5 53.5q0 149 -379 228l6 43l432 317h-440l14 80h543l-10 -78l-428 -317q350 -84 350 -258z" />
    <glyph glyph-name="four.inf" unicode="&#x2084;" horiz-adv-x="1042" 
d="M750 -141h-113l-39 -201h-82l39 201h-453l7 61q99 159 164.5 301.5t127.5 343.5l95 -6q-64 -200 -131.5 -336.5t-165.5 -285.5h370l62 319l86 8l-64 -327h121z" />
    <glyph glyph-name="five.inf" unicode="&#x2085;" horiz-adv-x="1042" 
d="M719 -68q0 -47 -20.5 -90t-66.5 -82.5t-119 -65t-177 -37.5t-242 1l12 86q153 -12 254.5 -3.5t162 39t85.5 65.5t25 77q0 155 -420 223l102 410h492l-23 -80l-407 2l-68 -272q410 -75 410 -273z" />
    <glyph glyph-name="six.inf" unicode="&#x2086;" horiz-adv-x="1042" 
d="M424 -362q-129 0 -211 79.5t-82 233.5q0 72 18.5 141.5t62.5 142t110.5 134.5t168.5 118t230 95l20 -82q-119 -33 -211.5 -80.5t-151 -103t-93.5 -111.5t-52 -117q83 72 176.5 96.5t167.5 3.5t122.5 -83t48.5 -152q0 -139 -92.5 -227t-231.5 -88zM438 -287
q101 0 162.5 63.5t61.5 160.5q0 71 -39.5 120t-101 65t-143 -7.5t-157.5 -89.5q-4 -40 -4 -60q0 -128 62.5 -190t158.5 -62z" />
    <glyph glyph-name="seven.inf" unicode="&#x2087;" horiz-adv-x="1042" 
d="M281 -348l-95 10q261 460 557 809l-2 6h-505l16 80h602l-16 -74q-314 -388 -557 -831z" />
    <glyph glyph-name="eight.inf" unicode="&#x2088;" horiz-adv-x="1042" 
d="M692 -133q0 -96 -90 -164t-225 -68q-120 0 -195.5 54.5t-75.5 142.5q0 69 57.5 137.5t217.5 169.5q-143 128 -143 223q0 69 55.5 122t163.5 76.5t268 -5.5l-27 -88q-139 33 -222 22.5t-117.5 -40.5t-34.5 -76q0 -41 34 -86t97 -103q104 60 331 178l31 -55
q-185 -95 -313 -168q46 -43 70 -67.5t56.5 -63t47 -73t14.5 -68.5zM393 -289q94 0 155.5 43t61.5 105q0 27 -13 54.5t-46.5 63.5t-52.5 54t-70 63q-139 -86 -186 -140.5t-47 -103.5q0 -63 56 -101t142 -38z" />
    <glyph glyph-name="nine.inf" unicode="&#x2089;" horiz-adv-x="1042" 
d="M201 -367l-21 82q120 33 212.5 81t151 103.5t93 111.5t51.5 118q-83 -74 -176.5 -99t-167 -4t-122 83.5t-48.5 152.5q0 139 92 227.5t230 88.5q129 0 210.5 -80t81.5 -234q0 -72 -18.5 -141.5t-62.5 -142t-110 -134.5t-167.5 -118t-228.5 -95zM258 279q0 -71 40 -120.5
t101.5 -65.5t143 8.5t157.5 91.5q5 50 5 57q0 128 -63.5 190t-158.5 62q-102 0 -163.5 -63t-61.5 -160z" />
    <glyph glyph-name="colonmonetary" unicode="&#x20a1;" 
d="M727 195l293 1040q-101 -12 -221 -45l-260 -928q80 -41 188 -67zM291 639q0 -218 178 -338l242 860q-420 -154 -420 -522zM623 -168l75 268q-114 29 -186 66l-94 -334h-88l106 373q-241 145 -241 422q0 208 131.5 372.5t404.5 257.5l88 318h88l-82 -289q102 27 219 45
l68 244h88l-65 -234q125 13 182 15l-8 -94q-60 -2 -207 -15l-299 -1071q100 -21 221 -33l-37 -88q-73 6 -207 27l-69 -250h-88z" />
    <glyph glyph-name="naira" unicode="&#x20a6;" 
d="M455 1237l-142 -731l361 2l-207 729h-12zM866 158h13l143 741l-365 -2zM819 0l-121 428l-399 -2l-82 -426h-90l82 424h-176l16 86l176 2l74 377h-176l16 86l176 2l84 430l113 4l123 -434l401 2l84 430h88l-84 -430h176l-16 -86l-176 -2l-72 -377h174l-16 -86l-176 -2
l-82 -426h-117z" />
    <glyph glyph-name="rupee" unicode="&#x20a8;" horiz-adv-x="1984" 
d="M895 -10l-375 639l4 4q136 66 222.5 116.5t150 104.5t90.5 108.5t27 120.5q0 141 -128 206t-382 38l-256 -1327h-105l273 1407q189 22 322.5 11.5t218.5 -55.5t124 -110t39 -151q0 -149 -113.5 -262.5t-357.5 -231.5l352 -598zM1837 262q0 -43 -12.5 -80t-41.5 -73.5
t-77 -61.5t-119.5 -44t-168.5 -22t-224 5l6 98q109 -12 195 -13.5t144 8t97.5 24.5t61 39t30.5 49t9 57q0 52 -30 119.5t-69.5 125.5t-86 138t-70.5 145q-120 -133 -318 -282l-35 53q125 103 200.5 177t127.5 146q-4 36 -4 60q0 91 56 179.5t116 88.5q53 0 59 -57
q9 -89 -101 -244q-10 -14 -21 -29q14 -66 61 -153t93.5 -156.5t84 -152t37.5 -144.5z" />
    <glyph glyph-name="Euro" unicode="&#x20ac;" 
d="M1065 70q-255 -111 -435.5 -95t-279.5 142t-106 344h-178l16 90h164q6 135 45 270h-158l17 88h172q89 234 254 382.5t360 148.5q162 0 234 -100t75 -304l-102 -10q-3 164 -52 244t-176 80q-156 0 -287.5 -124.5t-207.5 -320.5h538l-18 -84h-549q-41 -134 -47 -268h543
l-19 -84h-524q13 -290 196 -372t511 44z" />
    <glyph glyph-name="peso" unicode="&#x20b1;" 
d="M1053 987q0 81 -32.5 146t-98 112.5t-174.5 68t-252 7.5l-68 -346h625v12zM346 555h16q289 4 464.5 93t215.5 247h-628zM1303 889h-162q-49 -188 -259 -300t-554 -138l-88 -451h-105l172 889h-194l16 86h195l84 430q159 21 282 9t211 -47t144.5 -92.5t83 -126
t26.5 -149.5v-24h164z" />
    <glyph glyph-name="rupeeindia" unicode="&#x20b9;" 
d="M999 27l-92 -56q-105 101 -163 155t-133.5 116.5t-134.5 97.5t-133 68.5t-161 58.5l33 82q288 22 447 111t190 221h-592l16 84h582q-11 135 -140 233t-378 123l22 88h941l-25 -90h-637q147 -46 229.5 -141.5t90.5 -212.5h245l-16 -84h-236q-29 -150 -190 -253t-414 -134
q147 -42 287 -146t362 -321z" />
    <glyph glyph-name="ruble" unicode="&#x20bd;" 
d="M1139 1051q0 149 -133.5 220.5t-417.5 49.5l-117 -600q334 2 501 79.5t167 250.5zM926 301h-537l-57 -301h-105l60 301h-226l17 88h225l47 246q-37 0 -111.5 -1t-111.5 -1l16 88h224l133 684q199 20 340 5.5t230.5 -63.5t131 -119.5t41.5 -162.5q0 -202 -200.5 -309
t-587.5 -119l-49 -252h544z" />
    <glyph glyph-name="numero" unicode="&#x2116;" horiz-adv-x="2402" 
d="M2304 1028q0 -166 -70 -308.5t-190.5 -226t-261.5 -83.5q-156 0 -247 102.5t-91 290.5q0 167 69.5 310t189.5 226.5t261 83.5q156 0 248 -103.5t92 -291.5zM2202 1016q0 156 -70 237.5t-195 81.5q-112 0 -202.5 -71t-140.5 -189.5t-50 -257.5q0 -155 69.5 -237t194.5 -82
q113 0 204 70.5t140.5 188.5t49.5 259zM924 0l-422 1272h-13l-243 -1272h-99l273 1407l143 4l412 -1241h12l238 1239h98l-272 -1409h-127zM1325 53l16 90h777l-17 -90h-776z" />
    <glyph glyph-name="published" unicode="&#x2117;" horiz-adv-x="1894" 
d="M1737 786q0 -188 -71 -350.5t-190 -272t-277 -171.5t-331 -62q-202 0 -358 79t-248 238t-92 378q0 150 45.5 284.5t127 237.5t189.5 179t238 115.5t268 39.5q200 0 357 -79.5t249.5 -239t92.5 -376.5zM1038 1405q-156 0 -298.5 -56t-250.5 -155t-172.5 -245t-64.5 -316
q0 -151 47 -271.5t130.5 -198t195.5 -118.5t243 -41q155 0 298 56.5t251.5 155.5t173 245t64.5 315q0 151 -47.5 271.5t-131 198t-195 118.5t-243.5 41zM745 307h-86l154 780q248 31 370 -31.5t122 -187.5q0 -144 -139.5 -227.5t-374.5 -97.5zM1219 858q0 90 -83.5 133.5
t-254.5 24.5l-76 -395q202 9 308 69t106 168z" />
    <glyph glyph-name="servicemark" unicode="&#x2120;" horiz-adv-x="1878" 
d="M1128 1313l-131 -680h-82l154 774l127 4l127 -577l344 575h137l-151 -776h-86l137 686h-6l-365 -608h-67l-131 602h-7zM829 1219l-79 -15q-9 78 -47 114t-107 36q-74 0 -119 -39t-45 -103q0 -34 24.5 -68.5t61.5 -62t80 -60t80 -62.5t61.5 -69.5t24.5 -80.5
q0 -49 -30 -89t-95.5 -67t-168.5 -27t-249 31l21 86q96 -24 171.5 -34.5t124.5 -8t81 15.5t45.5 32.5t13.5 46.5q0 37 -34 75.5t-82.5 73.5t-97 72t-82.5 85.5t-34 100.5q0 87 77 154t189 67q194 0 215 -204z" />
    <glyph glyph-name="trademark" unicode="&#x2122;" horiz-adv-x="1888" 
d="M881 1409l-17 -78h-262l-137 -698h-84l135 698h-262l16 78h611zM1141 1313l-133 -680h-80l151 774l127 4l127 -575l346 573h136l-152 -776h-84l137 686h-6l-364 -608h-68l-131 602h-6z" />
    <glyph glyph-name="Omega" unicode="&#x2126;" horiz-adv-x="1466" 
d="M506 10l-4 -10h-422l16 94h314q-115 363 -115 649q0 167 46.5 301t127 218.5t183.5 129t220 44.5q198 0 318.5 -119.5t120.5 -327.5q0 -367 -424 -895h330l-19 -94h-453l-6 10q231 284 352 526.5t121 424.5q0 177 -96 277.5t-258 100.5q-95 0 -178 -38.5t-149 -113.5
t-104 -198t-38 -280q0 -322 117 -699z" />
    <glyph glyph-name="onethird" unicode="&#x2153;" horiz-adv-x="2310" 
d="M846 512h-619l17 78h278l129 655l-264 -18l6 65l273 33l24 125l90 6l-170 -866h254zM633 -45l-58 47l1174 1446l61 -47zM2034 244q0 -43 -18.5 -81.5t-62.5 -75.5t-116 -59.5t-178.5 -32.5t-251.5 5l12 86q127 -15 219 -10.5t151.5 16.5t94.5 35.5t48.5 48t13.5 53.5
q0 149 -379 228l6 43l432 317h-440l14 80h543l-11 -78l-428 -317q351 -84 351 -258z" />
    <glyph glyph-name="twothirds" unicode="&#x2154;" horiz-adv-x="2310" 
d="M633 -45l-58 47l1174 1446l61 -47zM815 512h-594l-2 74q108 72 176.5 119t144.5 103t120 98t83 88t55.5 88t16.5 85q0 216 -426 152l12 86q248 37 377 -22t129 -197q0 -60 -25 -118.5t-67.5 -111t-116 -114.5t-152.5 -118t-196 -132h484zM2034 244q0 -43 -18.5 -81.5
t-62.5 -75.5t-116 -59.5t-178.5 -32.5t-251.5 5l12 86q127 -15 219 -10.5t151.5 16.5t94.5 35.5t48.5 48t13.5 53.5q0 149 -379 228l6 43l432 317h-440l14 80h543l-11 -78l-428 -317q351 -84 351 -258z" />
    <glyph glyph-name="onefifth" unicode="&#x2155;" horiz-adv-x="2310" 
d="M846 512h-619l17 78h278l129 655l-264 -18l6 65l273 33l24 125l90 6l-170 -866h254zM631 -45l-58 47l1174 1446l61 -47zM2034 274q0 -47 -20.5 -90t-66.5 -82.5t-119 -65t-177 -37.5t-242 1l12 86q153 -12 254.5 -3.5t162 39t85.5 65.5t25 77q0 155 -420 223l102 410h492
l-23 -80l-407 2l-68 -272q410 -75 410 -273z" />
    <glyph glyph-name="twofifths" unicode="&#x2156;" horiz-adv-x="2310" 
d="M627 -45l-58 47l1174 1446l61 -47zM815 512h-594l-2 74q108 72 176.5 119t144.5 103t120 98t83 88t55.5 88t16.5 85q0 216 -426 152l12 86q248 37 377 -22t129 -197q0 -60 -25 -118.5t-67.5 -111t-116 -114.5t-152.5 -118t-196 -132h484zM2034 274q0 -47 -20.5 -90
t-66.5 -82.5t-119 -65t-177 -37.5t-242 1l12 86q153 -12 254.5 -3.5t162 39t85.5 65.5t25 77q0 155 -420 223l102 410h492l-23 -80l-407 2l-68 -272q410 -75 410 -273z" />
    <glyph glyph-name="threefifths" unicode="&#x2157;" horiz-adv-x="2310" 
d="M627 -45l-58 47l1174 1446l61 -47zM864 756q0 -43 -18.5 -81.5t-62 -75.5t-115.5 -59.5t-178.5 -32.5t-251.5 5l12 86q127 -15 219 -10.5t151 16.5t94 35.5t48.5 48t13.5 53.5q0 149 -379 228l6 43l433 317h-441l15 80h542l-10 -78l-428 -317q350 -84 350 -258zM2034 274
q0 -47 -20.5 -90t-66.5 -82.5t-119 -65t-177 -37.5t-242 1l12 86q153 -12 254.5 -3.5t162 39t85.5 65.5t25 77q0 155 -420 223l102 410h492l-23 -80l-407 2l-68 -272q410 -75 410 -273z" />
    <glyph glyph-name="fourfifths" unicode="&#x2158;" horiz-adv-x="2310" 
d="M631 -45l-58 47l1174 1446l61 -47zM895 713h-113l-39 -201h-81l38 201h-452l6 61q99 160 165 302.5t128 342.5l94 -6q-64 -200 -131.5 -336.5t-165.5 -285.5h371l61 319l86 8l-63 -327h121zM2034 274q0 -47 -20.5 -90t-66.5 -82.5t-119 -65t-177 -37.5t-242 1l12 86
q153 -12 254.5 -3.5t162 39t85.5 65.5t25 77q0 155 -420 223l102 410h492l-23 -80l-407 2l-68 -272q410 -75 410 -273z" />
    <glyph glyph-name="onesixth" unicode="&#x2159;" horiz-adv-x="2310" 
d="M846 512h-619l17 78h278l129 655l-264 -18l6 65l273 33l24 125l90 6l-170 -866h254zM651 -45l-57 47l1173 1446l62 -47zM1739 -20q-129 0 -211 79.5t-82 233.5q0 72 18.5 141.5t62.5 142t110.5 134.5t168.5 118t230 95l20 -82q-119 -33 -211.5 -80.5t-151 -103
t-93.5 -111.5t-52 -117q83 72 176.5 96.5t167 3.5t122 -83t48.5 -152q0 -139 -92.5 -227t-230.5 -88zM1753 55q101 0 162 63.5t61 160.5q0 71 -39.5 120t-101 65t-142.5 -7.5t-157 -89.5q-4 -40 -4 -60q0 -128 62.5 -190t158.5 -62z" />
    <glyph glyph-name="fivesixths" unicode="&#x215a;" horiz-adv-x="2310" 
d="M631 -45l-58 47l1174 1446l61 -47zM1739 -20q-129 0 -211 79.5t-82 233.5q0 72 18.5 141.5t62.5 142t110.5 134.5t168.5 118t230 95l20 -82q-119 -33 -211.5 -80.5t-151 -103t-93.5 -111.5t-52 -117q83 72 176.5 96.5t167 3.5t122 -83t48.5 -152q0 -139 -92.5 -227
t-230.5 -88zM864 786q0 -47 -20.5 -90t-66 -82.5t-118.5 -65t-177 -37.5t-242 1l12 86q122 -13 211.5 -6.5t150 22.5t97 43.5t52 56.5t15.5 62q0 155 -420 223l103 410h491l-22 -80l-408 2l-67 -272q409 -74 409 -273zM1753 55q101 0 162 63.5t61 160.5q0 71 -39.5 120
t-101 65t-142.5 -7.5t-157 -89.5q-4 -40 -4 -60q0 -128 62.5 -190t158.5 -62z" />
    <glyph glyph-name="oneeighth" unicode="&#x215b;" horiz-adv-x="2310" 
d="M846 512h-619l17 78h278l129 655l-264 -18l6 65l273 33l24 125l90 6l-170 -866h254zM631 -45l-58 47l1174 1446l61 -47zM2007 209q0 -96 -90 -164t-225 -68q-120 0 -195.5 54.5t-75.5 142.5q0 69 57.5 137.5t217.5 169.5q-144 129 -144 224q0 69 55.5 122t164 76
t268.5 -6l-27 -88q-139 33 -222 22.5t-118 -40.5t-35 -76q0 -41 34 -86t97 -103q112 65 332 179l31 -56q-185 -95 -313 -168q46 -43 70 -67.5t56.5 -63t47 -73t14.5 -68.5zM1708 53q94 0 155.5 43t61.5 105q0 27 -13 54.5t-46.5 63.5t-52.5 54t-70 63
q-139 -87 -186.5 -140.5t-47.5 -102.5q0 -63 56.5 -101.5t142.5 -38.5z" />
    <glyph glyph-name="threeeighths" unicode="&#x215c;" horiz-adv-x="2310" 
d="M627 -45l-58 47l1174 1446l61 -47zM2007 209q0 -96 -90 -164t-225 -68q-120 0 -195.5 54.5t-75.5 142.5q0 69 57.5 137.5t217.5 169.5q-144 129 -144 224q0 69 55.5 122t164 76t268.5 -6l-27 -88q-139 33 -222 22.5t-118 -40.5t-35 -76q0 -41 34 -86t97 -103
q112 65 332 179l31 -56q-185 -95 -313 -168q46 -43 70 -67.5t56.5 -63t47 -73t14.5 -68.5zM864 756q0 -43 -18.5 -81.5t-62 -75.5t-115.5 -59.5t-178.5 -32.5t-251.5 5l12 86q127 -15 219 -10.5t151 16.5t94 35.5t48.5 48t13.5 53.5q0 149 -379 228l6 43l433 317h-441l15 80
h542l-10 -78l-428 -317q350 -84 350 -258zM1708 53q94 0 155.5 43t61.5 105q0 27 -13 54.5t-46.5 63.5t-52.5 54t-70 63q-139 -87 -186.5 -140.5t-47.5 -102.5q0 -63 56.5 -101.5t142.5 -38.5z" />
    <glyph glyph-name="fiveeighths" unicode="&#x215d;" horiz-adv-x="2310" 
d="M627 -45l-58 47l1174 1446l61 -47zM2007 209q0 -96 -90 -164t-225 -68q-120 0 -195.5 54.5t-75.5 142.5q0 69 57.5 137.5t217.5 169.5q-144 129 -144 224q0 69 55.5 122t164 76t268.5 -6l-27 -88q-139 33 -222 22.5t-118 -40.5t-35 -76q0 -41 34 -86t97 -103
q112 65 332 179l31 -56q-185 -95 -313 -168q46 -43 70 -67.5t56.5 -63t47 -73t14.5 -68.5zM864 786q0 -47 -20.5 -90t-66 -82.5t-118.5 -65t-177 -37.5t-242 1l12 86q122 -13 211.5 -6.5t150 22.5t97 43.5t52 56.5t15.5 62q0 155 -420 223l103 410h491l-22 -80l-408 2
l-67 -272q409 -74 409 -273zM1708 53q94 0 155.5 43t61.5 105q0 27 -13 54.5t-46.5 63.5t-52.5 54t-70 63q-139 -87 -186.5 -140.5t-47.5 -102.5q0 -63 56.5 -101.5t142.5 -38.5z" />
    <glyph glyph-name="seveneighths" unicode="&#x215e;" horiz-adv-x="2310" 
d="M598 -45l-57 47l1173 1446l62 -47zM426 506l-94 10q261 460 557 809l-2 6h-506l16 80h602l-16 -74q-314 -388 -557 -831zM2007 209q0 -96 -90 -164t-225 -68q-120 0 -195.5 54.5t-75.5 142.5q0 69 57.5 137.5t217.5 169.5q-144 129 -144 224q0 69 55.5 122t164 76
t268.5 -6l-27 -88q-139 33 -222 22.5t-118 -40.5t-35 -76q0 -41 34 -86t97 -103q112 65 332 179l31 -56q-185 -95 -313 -168q46 -43 70 -67.5t56.5 -63t47 -73t14.5 -68.5zM1708 53q94 0 155.5 43t61.5 105q0 27 -13 54.5t-46.5 63.5t-52.5 54t-70 63
q-139 -87 -186.5 -140.5t-47.5 -102.5q0 -63 56.5 -101.5t142.5 -38.5z" />
    <glyph glyph-name="minus" unicode="&#x2212;" 
d="M1106 696l-21 -88h-872l16 88h877z" />
    <glyph glyph-name="approxequal" unicode="&#x2248;" 
d="M909 707q-49 0 -97 26t-86.5 62.5t-74.5 73.5t-74.5 63t-72.5 26q-55 0 -100 -60.5t-99 -178.5l-69 29q62 155 125 227t147 72q48 0 95.5 -26t85.5 -63.5t74.5 -75t74.5 -63.5t73 -26q52 0 99 68t100 194l68 -29q-64 -167 -125.5 -243t-143.5 -76zM817 264q-48 0 -95 26
t-85.5 63t-75 74t-75.5 63t-74 26q-54 0 -100 -67.5t-101 -198.5l-70 29q63 167 128.5 246t148.5 79q49 0 97 -26t86 -63t73.5 -74t73 -63t71.5 -26q55 0 100 60.5t95 173.5l69 -29q-63 -154 -123 -223.5t-143 -69.5z" />
    <glyph glyph-name="notequal" unicode="&#x2260;" 
d="M1040 365h-501l-191 -338l-74 36l170 302h-278l16 86h312l235 419h-465l17 88h497l191 336l75 -37l-170 -299h283l-18 -88h-314l-237 -419h471z" />
    <glyph glyph-name="lessequal" unicode="&#x2264;" 
d="M1116 1200l35 -82l-780 -364l-2 -15l641 -309l-35 -86l-715 346l21 109zM1001 164l-18 -88h-874l16 88h876z" />
    <glyph glyph-name="greaterequal" unicode="&#x2265;" 
d="M397 1200l695 -403l-21 -109l-833 -346l-29 82l774 317l2 13l-635 362zM1004 166l-19 -90h-874l16 90h877z" />
    <glyph glyph-name="arrow.1_N" unicode="&#xe01c;" horiz-adv-x="1445" 
d="M793 831v-831h-93v829l5 394l-439 -617l-76 56l558 745l555 -745l-76 -58l-439 617z" />
    <glyph glyph-name="arrow.1_W" unicode="&#xe01d;" horiz-adv-x="1445" 
d="M920 182l-58 -80l-741 578l741 577l60 -77l-623 -459l381 4h680v-86h-678l-383 4z" />
    <glyph glyph-name="arrow.1_S" unicode="&#xe01e;" horiz-adv-x="1445" 
d="M743 2l-553 746l76 57l436 -617l-4 390v831h95v-829l-5 -392l437 617l78 -57z" />
    <glyph glyph-name="arrow.1_E" unicode="&#xe01f;" horiz-adv-x="1445" 
d="M631 104l-60 80l623 459l-383 -4h-678v86h676l383 -4l-619 459l58 80l741 -578z" />
    <glyph glyph-name="hcoslug" unicode="&#xe10b;" horiz-adv-x="1421" 
d="M1319 1434v-1639h-1217v1639h1217zM506 877q0 26 15 42.5t40 16.5q26 0 43 -21.5t17 -56.5q0 -46 -37 -102q-30 29 -42.5 42.5t-24 35t-11.5 43.5zM639 700q61 42 86 70q23 -23 29 -49t-2 -52.5t-29 -62.5q-68 78 -84 94zM535 449q-46 0 -76.5 31.5t-30.5 78.5
q0 49 33 82q72 -68 151 -168q-31 -24 -77 -24zM782 541q42 55 95 86q30 -52 88 -52q43 0 72.5 32t29.5 79t-29.5 77t-72.5 30q-70 0 -123 -78q-3 40 -30.5 59t-70.5 17q19 32 19 69q0 59 -52.5 105.5t-142.5 46.5q-99 0 -161 -52.5t-62 -121.5q0 -43 15 -75t49 -67
q-168 -57 -168 -186q0 -81 65 -136t158 -55q129 0 213 93q51 -52 89.5 -72.5t84.5 -20.5q68 0 114.5 53t49.5 140l-15 4q-34 -59 -88 -59q-30 0 -59 19.5t-68 64.5zM586 254l-25 -4v-19h-14v-14h14v-41q0 -26 25 -26q22 0 28 26l-10 4q-3 -14 -10 -14q-8 0 -8 10v41h26v14
h-26v23zM356 193q0 -20 12 -31.5t31 -11.5t31 12t12 31q0 18 -12 29t-31 11t-31 -11t-12 -29zM416 193q0 -33 -17 -33q-16 0 -16 33q0 30 16 30q17 0 17 -30zM776 190q0 -26 -14 -26q-17 0 -17 26q0 27 17 27q14 0 14 -27zM449 166v-14h45v14h-9v31q0 20 15 20q12 0 12 -14
v-37h-8v-14h45v14h-12v39q0 28 -25 28q-20 0 -29 -22v20h-34v-14h12v-51h-12zM256 166v-14h61v14h-20v33h8q7 0 8.5 -3t3.5 -14h15v47h-15q-1 -8 -2 -10.5t-3 -4t-7 -1.5h-8v37h25q11 0 15 -5t7 -22h16v41h-104v-14h14v-84h-14zM618 180v-28h15l2 8q15 -10 27 -10
q13 0 20.5 7.5t7.5 18.5q0 19 -24.5 25t-24.5 12q0 8 10 8q11 0 21 -14h14v26h-12l-4 -10q-7 10 -23 10q-13 0 -21 -7t-8 -17q0 -19 25 -26t25 -13q0 -8 -11 -8q-12 0 -24 18h-15zM721 256v-106h12l8 16q10 -16 29 -16q17 0 25 13.5t8 29.5q0 18 -8.5 29t-22.5 11
q-21 0 -27 -18v55h-36v-14h12zM829 133q5 5 2.5 13t-12.5 8q-14 0 -14 -15q0 -18 22 -18q24 0 37 33l27 63h10v14h-35v-14h11l-17 -41l-18 41h12v14h-51v-14h10q25 -47 33 -67q-3 -17 -17 -17zM950 68h-37v-15h13q-2 -7 -13 -18q-4 4 -11.5 12.5t-12.5 13.5q22 9 22 25
q0 10 -7.5 17.5t-20.5 7.5q-14 0 -24.5 -9t-10.5 -20q0 -13 12 -25q-26 -7 -26 -30q0 -29 36 -29q19 0 31 12q10 -12 25 -12q19 0 26 25l-10 2q-3 -11 -8 -11t-12 11q12 16 18 28h10v15zM602 80v6q0 25 12 25l7 -2q-3 -3 -3 -7q0 -12 13 -12v-10h-29zM961 55
q0 -26 15.5 -41.5t43.5 -15.5q46 0 49 47h-16q-4 -33 -29 -33q-33 0 -33 45t29 45q12 0 18.5 -6.5t12.5 -25.5h16v45h-16l-2 -13q-15 15 -33 15q-22 0 -38.5 -17.5t-16.5 -44.5zM883 68q-13 13 -13 20q0 10 11 10q12 0 12 -12q0 -11 -10 -18zM506 37h53q3 45 -39 45
q-17 0 -29 -12t-12 -31t11.5 -30t31.5 -11q30 0 37 29h-14q-3 -15 -19 -15q-20 0 -20 25zM387 41q0 -20 12 -31.5t31 -11.5t31 12t12 31t-12 30t-31 11t-31 -11t-12 -30zM1075 41q0 -20 12 -31.5t31 -11.5t31 12t12 31t-12 30t-31 11t-31 -11t-12 -30zM696 37h54
q3 45 -39 45q-17 0 -29 -12t-12 -31t11.5 -30t31.5 -11q30 0 37 29h-15q-3 -15 -18 -15q-21 0 -21 25zM506 47q0 25 14 25q15 0 15 -25h-29zM446 41q0 -33 -16 -33t-16 33q0 31 16 31t16 -31zM1135 41q0 -33 -17 -33q-16 0 -16 33q0 31 16 31q17 0 17 -31zM696 47
q0 25 15 25q14 0 14 -25h-29zM565 14v-14h47v14h-10v52h29v-52h-10v-14h47v14h-13v107l-20 -4q-8 4 -19 4q-16 0 -27 -10t-11 -29v-2h-15v-14h15v-52h-13zM754 14v-14h53v14h-16v33q8 19 14 19v-3q0 -12 12 -12q14 0 14 15q0 16 -16 16q-15 0 -24 -23v21h-37v-14h12v-52h-12
zM895 18q-9 -6 -16 -6q-9 0 -15 6t-6 15q0 10 8 18q9 -9 29 -33zM254 14v-14h59v14h-16v37h45v-37h-16v-14h59v14h-16v84h16v15h-59v-15h16v-32h-45v32h16v15h-59v-15h16v-84h-16zM1194 12q0 15 -14 15q-6 0 -10.5 -4.5t-4.5 -10.5q0 -14 15 -14q14 0 14 14z" />
    <glyph glyph-name="check.1" unicode="&#xe10c;" horiz-adv-x="1288" 
d="M1317 1454q-483 -699 -815 -1505h-92l-181 817l97 29l145 -703l8 -2q304 765 740 1419z" />
    <glyph glyph-name="check.2" unicode="&#xe10d;" horiz-adv-x="1288" 
d="M737 -8l-168 540l-389 -526l-63 35l420 584l-154 465l100 30l129 -407l564 803l98 -58l-629 -844l195 -606z" />
    <glyph glyph-name="a.sc" horiz-adv-x="1200" 
d="M879 -4q-13 124 -50 401h-493q-71 -131 -209 -397h-104q313 612 641 1196h153q110 -717 164 -1192zM719 1106q-207 -377 -340 -629h440q-36 277 -88 629h-12z" />
    <glyph glyph-name="b.sc" horiz-adv-x="1136" 
d="M956 348q0 -66 -28 -124.5t-89 -109.5t-157.5 -82t-234.5 -42.5t-320 10.5l231 1188q171 21 295.5 12.5t205 -45.5t119 -90t38.5 -121q0 -121 -97 -208.5t-266 -123.5q136 -21 219.5 -92t83.5 -172zM913 922q0 104 -119 159t-345 29l-95 -479q282 9 420.5 88.5
t138.5 202.5zM854 338q0 53 -30 96t-90 74.5t-160 46.5t-232 8l-94 -481q160 -16 274.5 -3t188 52.5t108.5 91.5t35 115z" />
    <glyph glyph-name="c.sc" horiz-adv-x="1185" 
d="M774 1214q164 0 226.5 -103.5t54.5 -319.5l-101 -3q1 70 -2.5 118t-15 92.5t-33.5 70t-58.5 40.5t-88.5 15q-144 0 -262 -101t-181 -256t-63 -323q0 -269 183 -348t513 45l-8 -98q-246 -80 -422.5 -63.5t-274.5 131t-98 311.5q0 152 49.5 296.5t133.5 253.5t201.5 175.5
t246.5 66.5z" />
    <glyph glyph-name="d.sc" horiz-adv-x="1247" 
d="M1122 727q0 -112 -27 -213.5t-81 -190t-136 -156.5t-192.5 -113t-250 -59t-308.5 5l231 1188q358 53 561 -65t203 -396zM1018 715q0 227 -149.5 325t-422.5 70l-198 -1028q156 -13 285 14t218 84.5t150 141t89 182.5t28 211z" />
    <glyph glyph-name="e.sc" horiz-adv-x="1071" 
d="M834 88l-23 -88h-684l231 1190h686l-16 -90h-582l-90 -459h498l-14 -78h-498l-92 -475h584z" />
    <glyph glyph-name="f.sc" horiz-adv-x="1040" 
d="M838 539h-500l-105 -539h-106l231 1190h695l-15 -90h-592l-94 -482h502z" />
    <glyph glyph-name="g.sc" horiz-adv-x="1236" 
d="M872 -209l-94 -2l51 229q-313 -91 -499.5 17.5t-186.5 386.5q0 151 50.5 295.5t135.5 254t205.5 176t251.5 66.5q165 0 231.5 -102t57.5 -321l-98 -3q2 176 -41.5 256t-171.5 80q-146 0 -266 -101t-184 -256.5t-64 -324.5q0 -248 159 -336t441 -4l80 355l102 2z" />
    <glyph glyph-name="h.sc" horiz-adv-x="1323" 
d="M877 0l108 563h-645l-109 -563h-104l231 1190h105l-107 -547h645l107 547h106l-233 -1190h-104z" />
    <glyph glyph-name="i.sc" horiz-adv-x="987" 
d="M453 82h280l-18 -82h-658l17 82h274l199 1026h-281l17 82h657l-16 -82h-273z" />
    <glyph glyph-name="j.sc" horiz-adv-x="942" 
d="M31 -23l16 97q207 -2 303 10.5t137 52.5q29 30 49.5 100.5t61.5 268.5l117 602h-381l18 82h484l-129 -670q-44 -229 -73 -310.5t-71 -123.5q-57 -57 -181.5 -83t-350.5 -26z" />
    <glyph glyph-name="k.sc" horiz-adv-x="1157" 
d="M834 -8l-416 606l616 592h119l-612 -594l407 -590zM358 1190h105l-232 -1190h-104z" />
    <glyph glyph-name="l.sc" horiz-adv-x="1024" 
d="M817 0h-690l231 1190h105l-213 -1100h590z" />
    <glyph glyph-name="m.sc" horiz-adv-x="1476" 
d="M514 1192l160 -932h4l528 930h160l-229 -1190h-105l215 1073h-10l-532 -942h-103l-164 940h-10l-201 -1071h-100l231 1186z" />
    <glyph glyph-name="n.sc" horiz-adv-x="1333" 
d="M870 0l-428 1063h-12l-203 -1063h-100l231 1188l138 2l417 -1036h13l198 1036h101l-232 -1190h-123z" />
    <glyph glyph-name="o.sc" horiz-adv-x="1310" 
d="M766 1214q186 0 303 -128.5t117 -346.5q0 -206 -83.5 -382t-227 -279t-312.5 -103q-188 0 -304 129t-116 349q0 206 84 381.5t227.5 277.5t311.5 102zM582 63q137 0 252 89t181 241t66 332q0 184 -93 292.5t-240 108.5q-138 0 -252.5 -89.5t-180 -241t-65.5 -330.5
q0 -185 92 -293.5t240 -108.5z" />
    <glyph glyph-name="p.sc" horiz-adv-x="1101" 
d="M233 0h-106l231 1184q183 21 313.5 9.5t213 -57t121 -110t38.5 -149.5q0 -195 -193 -318t-540 -151zM942 862q0 134 -123.5 200.5t-372.5 41.5l-114 -598q293 6 451.5 100t158.5 256z" />
    <glyph glyph-name="q.sc" horiz-adv-x="1239" 
d="M938 -246l-606 238l22 67q301 112 488.5 314.5t187.5 429.5q0 151 -87 237t-243 86q-167 0 -283 -115.5t-140.5 -311.5t73.5 -455l-86 -35q-60 129 -82 257.5t-6.5 238t62.5 204.5t118.5 162t167.5 105t205 38q193 0 300.5 -113.5t107.5 -293.5q0 -233 -179.5 -441.5
t-470.5 -336.5l486 -187z" />
    <glyph glyph-name="r.sc" horiz-adv-x="1165" 
d="M872 -10l-389 540l4 7q245 103 347 185t102 193q0 110 -124.5 163.5t-362.5 29.5l-216 -1108h-106l231 1188q181 19 310.5 9.5t212 -47.5t121 -92.5t38.5 -125.5q0 -127 -105.5 -226t-320.5 -192l369 -506z" />
    <glyph glyph-name="s.sc" horiz-adv-x="1040" 
d="M928 891l-97 -19q-15 128 -72 190t-159 62q-108 0 -180 -70.5t-72 -166.5q0 -48 26.5 -95.5t69 -88t94.5 -81t103.5 -81.5t94 -83t69 -92t26.5 -102q0 -75 -43 -135t-137 -102t-242.5 -42.5t-359.5 44.5l23 102q142 -38 256.5 -51t188 -3.5t122.5 36t69.5 61.5t20.5 78
t-26.5 86t-69 81t-94 77t-103.5 80.5t-94.5 85.5t-69 98.5t-26.5 111.5q0 134 112 236t273 102q262 0 297 -319z" />
    <glyph glyph-name="t.sc" horiz-adv-x="1081" 
d="M700 1102l-213 -1102h-106l215 1102h-389l14 88h883l-17 -88h-387z" />
    <glyph glyph-name="u.sc" horiz-adv-x="1280" 
d="M309 494q-88 -431 262 -431q145 0 236.5 86t128.5 275l147 766h105l-150 -770q-85 -445 -479 -445q-76 0 -138 17.5t-114 55.5t-80.5 99.5t-37.5 149.5t16 205l135 688h104z" />
    <glyph glyph-name="v.sc" horiz-adv-x="1161" 
d="M545 0h-154q-95 640 -149 1186l102 6q51 -498 131 -1098h19q341 622 577 1096h105q-300 -595 -631 -1190z" />
    <glyph glyph-name="w.sc" horiz-adv-x="1431" 
d="M874 0l-129 713l-407 -713h-131q8 435 108 1190h103q-36 -274 -71.5 -611t-39.5 -464h10l414 731h80l133 -729h8q85 222 316 1073h102q-95 -366 -195.5 -689t-170.5 -501h-130z" />
    <glyph glyph-name="x.sc" horiz-adv-x="1177" 
d="M850 -6l-256 536l-447 -530h-116l520 608l-283 574l107 14l252 -520l432 514h119l-508 -592l286 -592z" />
    <glyph glyph-name="y.sc" horiz-adv-x="1159" 
d="M520 0h-102l78 408l-267 778l107 6l233 -703l500 701h115l-586 -801z" />
    <glyph glyph-name="z.sc" horiz-adv-x="1128" 
d="M864 0h-809l15 88l891 1014l-674 -2l16 90h791l-17 -88l-887 -1016l693 4z" />
    <glyph glyph-name="aacute.sc" horiz-adv-x="1200" 
d="M578 1417q101 71 225 182t209 205l84 -90q-93 -81 -231.5 -176.5t-262.5 -167.5zM879 -4q-13 124 -50 401h-493q-71 -131 -209 -397h-104q313 612 641 1196h153q110 -717 164 -1192zM719 1106q-207 -377 -340 -629h440q-36 277 -88 629h-12z" />
    <glyph glyph-name="abreve.sc" horiz-adv-x="1200" 
d="M1149 1751l61 -41q-224 -321 -424 -321q-102 0 -177.5 79.5t-133.5 249.5l82 39q56 -153 112.5 -216.5t137.5 -63.5q83 0 161 66.5t181 207.5zM879 -4q-13 124 -50 401h-493q-71 -131 -209 -397h-104q313 612 641 1196h153q110 -717 164 -1192zM719 1106
q-207 -377 -340 -629h440q-36 277 -88 629h-12z" />
    <glyph glyph-name="acircumflex.sc" horiz-adv-x="1200" 
d="M1057 1372l-215 289l-350 -279l-52 60l420 336h2l268 -346zM879 -4q-13 124 -50 401h-493q-71 -131 -209 -397h-104q313 612 641 1196h153q110 -717 164 -1192zM719 1106q-207 -377 -340 -629h440q-36 277 -88 629h-12z" />
    <glyph glyph-name="adieresis.sc" horiz-adv-x="1200" 
d="M1036 1397l-102 -2l70 293l116 4zM596 1391l-102 -2l69 294l117 3zM879 -4q-13 124 -50 401h-493q-71 -131 -209 -397h-104q313 612 641 1196h153q110 -717 164 -1192zM719 1106q-207 -377 -340 -629h440q-36 277 -88 629h-12z" />
    <glyph glyph-name="agrave.sc" horiz-adv-x="1200" 
d="M954 1397l-32 -47q-95 74 -208.5 183.5t-185.5 201.5l88 84q66 -102 163 -224t175 -198zM879 -4q-13 124 -50 401h-493q-71 -131 -209 -397h-104q313 612 641 1196h153q110 -717 164 -1192zM719 1106q-207 -377 -340 -629h440q-36 277 -88 629h-12z" />
    <glyph glyph-name="amacron.sc" horiz-adv-x="1200" 
d="M1149 1591l-19 -90h-661l16 90h664zM879 -4q-13 124 -50 401h-493q-71 -131 -209 -397h-104q313 612 641 1196h153q110 -717 164 -1192zM719 1106q-207 -377 -340 -629h440q-36 277 -88 629h-12z" />
    <glyph glyph-name="aogonek.sc" horiz-adv-x="1200" 
d="M915 -375q-83 -47 -155.5 -70t-123 -21.5t-87 19.5t-53.5 48.5t-17 68.5q0 81 97.5 172t297.5 183q-8 86 -45 372h-493q-71 -131 -209 -397h-104q313 612 641 1196h153q110 -716 164 -1190l2 -2q-405 -168 -405 -307q0 -25 11 -43.5t35.5 -28.5t61 -9t91.5 16.5t122 45.5
zM719 1106q-207 -377 -340 -629h440q-36 277 -88 629h-12z" />
    <glyph glyph-name="aring.sc" horiz-adv-x="1200" 
d="M829 1806q113 0 185.5 -61t72.5 -156q0 -106 -82 -179t-206 -73q-113 0 -185.5 61.5t-72.5 157.5q0 105 82.5 177.5t205.5 72.5zM821 1735q-84 0 -140 -49.5t-56 -120.5q0 -68 51.5 -112t130.5 -44q84 0 141.5 49.5t57.5 120.5q0 67 -52.5 111.5t-132.5 44.5zM879 -4
q-13 124 -50 401h-493q-71 -131 -209 -397h-104q313 612 641 1196h153q110 -717 164 -1192zM719 1106q-207 -377 -340 -629h440q-36 277 -88 629h-12z" />
    <glyph glyph-name="aringacute.sc" horiz-adv-x="1200" 
d="M684 1966q101 71 225 182t209 205l84 -90q-93 -82 -231.5 -177.5t-261.5 -166.5zM829 1806q113 0 185.5 -61t72.5 -156q0 -106 -82 -179t-206 -73q-113 0 -185.5 61.5t-72.5 157.5q0 105 82.5 177.5t205.5 72.5zM821 1735q-84 0 -140 -49.5t-56 -120.5q0 -68 51.5 -112
t130.5 -44q84 0 141.5 49.5t57.5 120.5q0 67 -52.5 111.5t-132.5 44.5zM879 -4q-13 124 -50 401h-493q-71 -131 -209 -397h-104q313 612 641 1196h153q110 -717 164 -1192zM719 1106q-207 -377 -340 -629h440q-36 277 -88 629h-12z" />
    <glyph glyph-name="atilde.sc" horiz-adv-x="1200" 
d="M961 1479q47 0 98.5 64.5t124.5 191.5l59 -35q-85 -153 -158.5 -229t-146.5 -76q-47 0 -86.5 40.5t-62.5 88.5t-55 88.5t-66 40.5q-48 0 -102 -62.5t-122 -181.5l-57 35q83 150 157 222.5t148 72.5q39 0 71.5 -27t55 -65t43 -76t46 -65t53.5 -27zM879 -4q-13 124 -50 401
h-493q-71 -131 -209 -397h-104q313 612 641 1196h153q110 -717 164 -1192zM719 1106q-207 -377 -340 -629h440q-36 277 -88 629h-12z" />
    <glyph glyph-name="cacute.sc" horiz-adv-x="1185" 
d="M618 1436q101 71 225.5 182t209.5 205l84 -90q-93 -81 -231.5 -176.5t-262.5 -167.5zM774 1214q164 0 226.5 -103.5t54.5 -319.5l-101 -3q1 70 -2.5 118t-15 92.5t-33.5 70t-58.5 40.5t-88.5 15q-144 0 -262 -101t-181 -256t-63 -323q0 -269 183 -348t513 45l-8 -98
q-246 -80 -422.5 -63.5t-274.5 131t-98 311.5q0 152 49.5 296.5t133.5 253.5t201.5 175.5t246.5 66.5z" />
    <glyph glyph-name="ccaron.sc" horiz-adv-x="1185" 
d="M811 1384h-2l-268 345l73 59l215 -289l351 279l51 -60zM774 1214q164 0 226.5 -103.5t54.5 -319.5l-101 -3q1 70 -2.5 118t-15 92.5t-33.5 70t-58.5 40.5t-88.5 15q-144 0 -262 -101t-181 -256t-63 -323q0 -269 183 -348t513 45l-8 -98q-246 -80 -422.5 -63.5t-274.5 131
t-98 311.5q0 152 49.5 296.5t133.5 253.5t201.5 175.5t246.5 66.5z" />
    <glyph glyph-name="ccedilla.sc" horiz-adv-x="1185" 
d="M938 43q-176 -62 -334 -68q95 -95 78 -360h-96q9 166 -19 246t-84 80q-96 0 -204 -260l-60 22q86 230 195 297q-131 40 -201 147.5t-70 274.5q0 152 49.5 296.5t133.5 253.5t201.5 175.5t246.5 66.5q164 0 226.5 -103.5t54.5 -319.5l-101 -3q1 70 -2.5 118t-15 92.5
t-33.5 70t-58.5 40.5t-88.5 15q-144 0 -262 -101t-181 -256t-63 -323q0 -269 183 -348t513 45z" />
    <glyph glyph-name="cdotaccent.sc" horiz-adv-x="1185" 
d="M858 1411l-102 -2l69 295l117 2zM774 1214q164 0 226.5 -103.5t54.5 -319.5l-101 -3q1 70 -2.5 118t-15 92.5t-33.5 70t-58.5 40.5t-88.5 15q-144 0 -262 -101t-181 -256t-63 -323q0 -269 183 -348t513 45l-8 -98q-246 -80 -422.5 -63.5t-274.5 131t-98 311.5
q0 152 49.5 296.5t133.5 253.5t201.5 175.5t246.5 66.5z" />
    <glyph glyph-name="dcaron.sc" horiz-adv-x="1247" 
d="M760 1372h-2l-269 344l74 60l215 -289l350 278l52 -59zM1122 727q0 -112 -27 -213.5t-81 -190t-136 -156.5t-192.5 -113t-250 -59t-308.5 5l231 1188q358 53 561 -65t203 -396zM1018 715q0 227 -149.5 325t-422.5 70l-198 -1028q156 -13 285 14t218 84.5t150 141
t89 182.5t28 211z" />
    <glyph glyph-name="dcroat.sc" horiz-adv-x="1247" 
d="M1122 727q0 -112 -27 -213.5t-81 -190t-136 -156.5t-192.5 -113t-250 -59t-308.5 5l111 569h-156l14 78h158l104 541q358 53 561 -65t203 -396zM651 569h-309l-94 -487q156 -13 285 14t218 84.5t150 141t89 182.5t28 211q0 227 -149.5 325t-422.5 70l-90 -463h314z" />
    <glyph glyph-name="eacute.sc" horiz-adv-x="1071" 
d="M539 1409q101 71 225 182t209 205l84 -90q-93 -81 -231.5 -176.5t-262.5 -167.5zM834 88l-23 -88h-684l231 1190h686l-16 -90h-582l-90 -459h498l-14 -78h-498l-92 -475h584z" />
    <glyph glyph-name="ebreve.sc" horiz-adv-x="1071" 
d="M1108 1743l61 -41q-225 -322 -424 -322q-101 0 -177 80t-134 250l82 39q56 -153 112.5 -217t137.5 -64q83 0 160.5 66.5t181.5 208.5zM834 88l-23 -88h-684l231 1190h686l-16 -90h-582l-90 -459h498l-14 -78h-498l-92 -475h584z" />
    <glyph glyph-name="ecaron.sc" horiz-adv-x="1071" 
d="M729 1358h-2l-268 344l73 59l216 -288l350 278l51 -59zM834 88l-23 -88h-684l231 1190h686l-16 -90h-582l-90 -459h498l-14 -78h-498l-92 -475h584z" />
    <glyph glyph-name="ecircumflex.sc" horiz-adv-x="1071" 
d="M1016 1364l-215 289l-350 -279l-52 60l420 335h2l269 -346zM834 88l-23 -88h-684l231 1190h686l-16 -90h-582l-90 -459h498l-14 -78h-498l-92 -475h584z" />
    <glyph glyph-name="edieresis.sc" horiz-adv-x="1071" 
d="M997 1389l-102 -3l70 293l116 4zM557 1382l-102 -2l69 295l117 2zM834 88l-23 -88h-684l231 1190h686l-16 -90h-582l-90 -459h498l-14 -78h-498l-92 -475h584z" />
    <glyph glyph-name="edotaccent.sc" horiz-adv-x="1071" 
d="M776 1384l-102 -2l69 295l117 2zM834 88l-23 -88h-684l231 1190h686l-16 -90h-582l-90 -459h498l-14 -78h-498l-92 -475h584z" />
    <glyph glyph-name="egrave.sc" horiz-adv-x="1071" 
d="M915 1389l-32 -48q-95 74 -208.5 183.5t-185.5 201.5l89 84q66 -102 162.5 -223.5t174.5 -197.5zM834 88l-23 -88h-684l231 1190h686l-16 -90h-582l-90 -459h498l-14 -78h-498l-92 -475h584z" />
    <glyph glyph-name="emacron.sc" horiz-adv-x="1071" 
d="M1110 1583l-18 -90h-662l16 90h664zM834 88l-23 -88h-684l231 1190h686l-16 -90h-582l-90 -459h498l-14 -78h-498l-92 -475h584z" />
    <glyph glyph-name="eogonek.sc" horiz-adv-x="1071" 
d="M743 -379q-83 -47 -155.5 -70t-123 -21.5t-87 19.5t-53.5 48.5t-17 68.5q0 77 87.5 162.5t267.5 171.5h-535l231 1190h686l-16 -90h-582l-90 -459h498l-14 -78h-498l-92 -475h584l-23 -88q-405 -168 -405 -307q0 -25 11 -43.5t35.5 -28.5t61 -9t91.5 16.5t122 45.5z" />
    <glyph glyph-name="gbreve.sc" horiz-adv-x="1236" 
d="M1196 1769l61 -40q-225 -322 -423 -322q-102 0 -178 80t-134 250l82 39q56 -153 112.5 -217t137.5 -64q83 0 161 66.5t181 207.5zM872 -209l-94 -2l51 229q-313 -91 -499.5 17.5t-186.5 386.5q0 151 50.5 295.5t135.5 254t205.5 176t251.5 66.5q165 0 231.5 -102
t57.5 -321l-98 -3q2 176 -41.5 256t-171.5 80q-146 0 -266 -101t-184 -256.5t-64 -324.5q0 -248 159 -336t441 -4l80 355l102 2z" />
    <glyph glyph-name="gcommaaccent.sc" horiz-adv-x="1236" 
d="M872 -209l-94 -2l51 229q-313 -91 -499.5 17.5t-186.5 386.5q0 151 50.5 295.5t135.5 254t205.5 176t251.5 66.5q165 0 231.5 -102t57.5 -321l-98 -3q2 176 -41.5 256t-171.5 80q-146 0 -266 -101t-184 -256.5t-64 -324.5q0 -248 159 -336t441 -4l80 355l102 2zM315 -780
q56 80 82 156t24.5 137.5t-11.5 128.5l141 6q7 -225 -195 -451z" />
    <glyph glyph-name="gdotaccent.sc" horiz-adv-x="1236" 
d="M864 1411l-102 -2l69 295l117 2zM872 -209l-94 -2l51 229q-313 -91 -499.5 17.5t-186.5 386.5q0 151 50.5 295.5t135.5 254t205.5 176t251.5 66.5q165 0 231.5 -102t57.5 -321l-98 -3q2 176 -41.5 256t-171.5 80q-146 0 -266 -101t-184 -256.5t-64 -324.5
q0 -248 159 -336t441 -4l80 355l102 2z" />
    <glyph glyph-name="hbar.sc" horiz-adv-x="1323" 
d="M1001 643l43 221h-645l-43 -221h645zM877 0l108 563h-645l-109 -563h-104l168 862h-156l17 82h155l47 246h105l-49 -250h645l49 250h106l-49 -246h154l-16 -82h-152l-170 -862h-104z" />
    <glyph glyph-name="iacute.sc" horiz-adv-x="987" 
d="M453 1409q101 71 225 182t209 205l84 -90q-93 -81 -231.5 -176.5t-262.5 -167.5zM453 82h280l-18 -82h-658l17 82h274l199 1026h-281l17 82h657l-16 -82h-273z" />
    <glyph glyph-name="ibreve.sc" horiz-adv-x="987" 
d="M1022 1743l61 -41q-225 -322 -424 -322q-101 0 -177 80t-134 250l82 39q56 -153 112.5 -217t137.5 -64q83 0 160.5 66.5t181.5 208.5zM453 82h280l-18 -82h-658l17 82h274l199 1026h-281l17 82h657l-16 -82h-273z" />
    <glyph glyph-name="icircumflex.sc" horiz-adv-x="987" 
d="M932 1364l-215 289l-350 -279l-52 60l420 335h2l269 -346zM453 82h280l-18 -82h-658l17 82h274l199 1026h-281l17 82h657l-16 -82h-273z" />
    <glyph glyph-name="idieresis.sc" horiz-adv-x="987" 
d="M911 1389l-102 -3l70 293l116 4zM471 1382l-102 -2l69 295l117 2zM453 82h280l-18 -82h-658l17 82h274l199 1026h-281l17 82h657l-16 -82h-273z" />
    <glyph glyph-name="idotaccent.sc" horiz-adv-x="987" 
d="M690 1384l-102 -2l69 295l117 2zM453 82h280l-18 -82h-658l17 82h274l199 1026h-281l17 82h657l-16 -82h-273z" />
    <glyph glyph-name="dotlessi.sc" horiz-adv-x="987" 
d="M453 82h280l-18 -82h-658l17 82h274l199 1026h-281l17 82h657l-16 -82h-273z" />
    <glyph glyph-name="igrave.sc" horiz-adv-x="987" 
d="M829 1389l-32 -48q-95 74 -208.5 183.5t-185.5 201.5l89 84q66 -102 162.5 -223.5t174.5 -197.5zM453 82h280l-18 -82h-658l17 82h274l199 1026h-281l17 82h657l-16 -82h-273z" />
    <glyph glyph-name="imacron.sc" horiz-adv-x="987" 
d="M1024 1583l-18 -90h-662l16 90h664zM453 82h280l-18 -82h-658l17 82h274l199 1026h-281l17 82h657l-16 -82h-273z" />
    <glyph glyph-name="iogonek.sc" horiz-adv-x="987" 
d="M535 -377q-98 -57 -183 -78t-139 -8t-84.5 48.5t-30.5 86.5q0 74 60.5 160t173.5 168h-275l17 82h274l199 1026h-281l17 82h657l-16 -82h-273l-198 -1026h280l-18 -82h-275q-119 -75 -181 -156.5t-62 -148.5q0 -45 34 -66.5t108.5 -11t178.5 58.5z" />
    <glyph glyph-name="kcommaaccent.sc" horiz-adv-x="1157" 
d="M834 -8l-416 606l616 592h119l-612 -594l407 -590zM358 1190h105l-232 -1190h-104zM301 -596q56 80 81.5 156t24 137.5t-11.5 128.5l142 6q7 -224 -195 -450z" />
    <glyph glyph-name="lacute.sc" horiz-adv-x="1024" 
d="M498 1409q101 71 225 182t209 205l84 -90q-93 -81 -231.5 -176.5t-262.5 -167.5zM817 0h-690l231 1190h105l-213 -1100h590z" />
    <glyph glyph-name="lcaron.sc" horiz-adv-x="1024" 
d="M889 1464l135 11q0 -299 -219 -566l-45 27q96 147 119 264.5t10 263.5zM817 0h-690l231 1190h105l-213 -1100h590z" />
    <glyph glyph-name="lcommaaccent.sc" horiz-adv-x="1024" 
d="M817 0h-690l231 1190h105l-213 -1100h590zM258 -588q56 80 81.5 156t24 137.5t-11.5 128.5l142 6q7 -224 -195 -450z" />
    <glyph glyph-name="ldot.sc" horiz-adv-x="1024" 
d="M817 0h-690l231 1190h105l-213 -1100h590zM854 528h-149l34 187h152z" />
    <glyph glyph-name="lslash.sc" horiz-adv-x="1024" 
d="M817 0h-690l106 545l-182 -88l-4 88l205 98l106 547h105l-94 -490l348 168l2 -88l-371 -180l-98 -510h590z" />
    <glyph glyph-name="nacute.sc" horiz-adv-x="1333" 
d="M627 1411q101 71 225 182t209 205l84 -90q-93 -81 -231.5 -176.5t-262.5 -167.5zM870 0l-428 1063h-12l-203 -1063h-100l231 1188l138 2l417 -1036h13l198 1036h101l-232 -1190h-123z" />
    <glyph glyph-name="ncaron.sc" horiz-adv-x="1333" 
d="M817 1360h-2l-268 344l74 59l215 -288l350 278l51 -59zM870 0l-428 1063h-12l-203 -1063h-100l231 1188l138 2l417 -1036h13l198 1036h101l-232 -1190h-123z" />
    <glyph glyph-name="ncommaaccent.sc" horiz-adv-x="1333" 
d="M870 0l-428 1063h-12l-203 -1063h-100l231 1188l138 2l417 -1036h13l198 1036h101l-232 -1190h-123zM358 -588q56 80 82 156t24.5 137.5t-11.5 128.5l141 6q7 -224 -195 -450z" />
    <glyph glyph-name="ntilde.sc" horiz-adv-x="1333" 
d="M1010 1473q47 0 98.5 64.5t124.5 191.5l59 -35q-85 -153 -158.5 -229t-146.5 -76q-47 0 -86.5 40.5t-62.5 88.5t-55 88.5t-66 40.5q-48 0 -101.5 -62.5t-121.5 -181.5l-58 35q83 150 157 222.5t148 72.5q39 0 71.5 -27t55 -65t43 -76t46 -65t53.5 -27zM870 0l-428 1063
h-12l-203 -1063h-100l231 1188l138 2l417 -1036h13l198 1036h101l-232 -1190h-123z" />
    <glyph glyph-name="oacute.sc" horiz-adv-x="1310" 
d="M629 1436q101 71 225 182t209 205l84 -90q-93 -81 -231.5 -176.5t-262.5 -167.5zM766 1214q186 0 303 -128.5t117 -346.5q0 -206 -83.5 -382t-227 -279t-312.5 -103q-188 0 -304 129t-116 349q0 206 84 381.5t227.5 277.5t311.5 102zM582 63q137 0 252 89t181 241t66 332
q0 184 -93 292.5t-240 108.5q-138 0 -252.5 -89.5t-180 -241t-65.5 -330.5q0 -185 92 -293.5t240 -108.5z" />
    <glyph glyph-name="obreve.sc" horiz-adv-x="1310" 
d="M1198 1769l62 -40q-225 -322 -424 -322q-102 0 -178 80t-134 250l82 39q56 -153 112.5 -217t137.5 -64q83 0 161 66.5t181 207.5zM766 1214q186 0 303 -128.5t117 -346.5q0 -206 -83.5 -382t-227 -279t-312.5 -103q-188 0 -304 129t-116 349q0 206 84 381.5t227.5 277.5
t311.5 102zM582 63q137 0 252 89t181 241t66 332q0 184 -93 292.5t-240 108.5q-138 0 -252.5 -89.5t-180 -241t-65.5 -330.5q0 -185 92 -293.5t240 -108.5z" />
    <glyph glyph-name="ocircumflex.sc" horiz-adv-x="1310" 
d="M1108 1391l-215 288l-350 -278l-51 59l419 336h2l269 -346zM766 1214q186 0 303 -128.5t117 -346.5q0 -206 -83.5 -382t-227 -279t-312.5 -103q-188 0 -304 129t-116 349q0 206 84 381.5t227.5 277.5t311.5 102zM582 63q137 0 252 89t181 241t66 332q0 184 -93 292.5
t-240 108.5q-138 0 -252.5 -89.5t-180 -241t-65.5 -330.5q0 -185 92 -293.5t240 -108.5z" />
    <glyph glyph-name="odieresis.sc" horiz-adv-x="1310" 
d="M1087 1415l-102 -2l70 293l116 4zM647 1409l-102 -2l69 295l117 2zM766 1214q186 0 303 -128.5t117 -346.5q0 -206 -83.5 -382t-227 -279t-312.5 -103q-188 0 -304 129t-116 349q0 206 84 381.5t227.5 277.5t311.5 102zM582 63q137 0 252 89t181 241t66 332
q0 184 -93 292.5t-240 108.5q-138 0 -252.5 -89.5t-180 -241t-65.5 -330.5q0 -185 92 -293.5t240 -108.5z" />
    <glyph glyph-name="ograve.sc" horiz-adv-x="1310" 
d="M1006 1415l-33 -47q-94 74 -207 183.5t-186 201.5l88 84q66 -102 163 -224t175 -198zM766 1214q186 0 303 -128.5t117 -346.5q0 -206 -83.5 -382t-227 -279t-312.5 -103q-188 0 -304 129t-116 349q0 206 84 381.5t227.5 277.5t311.5 102zM582 63q137 0 252 89t181 241
t66 332q0 184 -93 292.5t-240 108.5q-138 0 -252.5 -89.5t-180 -241t-65.5 -330.5q0 -185 92 -293.5t240 -108.5z" />
    <glyph glyph-name="ohungarumlaut.sc" horiz-adv-x="1310" 
d="M559 1386l-45 37q73 87 156.5 209t144.5 226l109 -62q-65 -90 -167.5 -205t-197.5 -205zM993 1386l-47 37q75 88 157.5 207.5t141.5 220.5l111 -55q-66 -93 -168 -208t-195 -202zM766 1214q186 0 303 -128.5t117 -346.5q0 -206 -83.5 -382t-227 -279t-312.5 -103
q-188 0 -304 129t-116 349q0 206 84 381.5t227.5 277.5t311.5 102zM582 63q137 0 252 89t181 241t66 332q0 184 -93 292.5t-240 108.5q-138 0 -252.5 -89.5t-180 -241t-65.5 -330.5q0 -185 92 -293.5t240 -108.5z" />
    <glyph glyph-name="omacron.sc" horiz-adv-x="1310" 
d="M1200 1610l-18 -90h-662l17 90h663zM766 1214q186 0 303 -128.5t117 -346.5q0 -206 -83.5 -382t-227 -279t-312.5 -103q-188 0 -304 129t-116 349q0 206 84 381.5t227.5 277.5t311.5 102zM582 63q137 0 252 89t181 241t66 332q0 184 -93 292.5t-240 108.5
q-138 0 -252.5 -89.5t-180 -241t-65.5 -330.5q0 -185 92 -293.5t240 -108.5z" />
    <glyph glyph-name="oslash.sc" horiz-adv-x="1310" 
d="M250 465q0 -106 33 -193l718 727q-91 127 -253 127q-138 0 -252.5 -89.5t-180 -241t-65.5 -330.5zM582 63q137 0 252 89t181 241t66 332q0 113 -37 201l-720 -729q92 -134 258 -134zM563 -25q-198 0 -317 144l-162 -164l-59 55l178 178q-60 111 -60 265q0 206 84 381.5
t227.5 277.5t311.5 102q193 0 311 -137l158 160l59 -55l-172 -172q64 -116 64 -271q0 -206 -83.5 -382t-227 -279t-312.5 -103z" />
    <glyph glyph-name="oslashacute.sc" horiz-adv-x="1310" 
d="M616 1442q101 71 225.5 182t209.5 205l84 -90q-93 -81 -231.5 -176.5t-262.5 -167.5zM250 465q0 -106 33 -193l718 727q-91 127 -253 127q-138 0 -252.5 -89.5t-180 -241t-65.5 -330.5zM582 63q137 0 252 89t181 241t66 332q0 113 -37 201l-720 -729q92 -134 258 -134z
M563 -25q-198 0 -317 144l-162 -164l-59 55l178 178q-60 111 -60 265q0 206 84 381.5t227.5 277.5t311.5 102q193 0 311 -137l158 160l59 -55l-172 -172q64 -116 64 -271q0 -206 -83.5 -382t-227 -279t-312.5 -103z" />
    <glyph glyph-name="otilde.sc" horiz-adv-x="1310" 
d="M1012 1497q47 0 98.5 64.5t124.5 191.5l59 -35q-85 -153 -158.5 -229t-146.5 -76q-47 0 -86.5 40.5t-62.5 88.5t-55 88.5t-66 40.5q-48 0 -101.5 -62.5t-121.5 -181.5l-58 35q83 150 157 222.5t148 72.5q39 0 71.5 -27t55 -65t43 -76t46 -65t53.5 -27zM766 1214
q186 0 303 -128.5t117 -346.5q0 -206 -83.5 -382t-227 -279t-312.5 -103q-188 0 -304 129t-116 349q0 206 84 381.5t227.5 277.5t311.5 102zM582 63q137 0 252 89t181 241t66 332q0 184 -93 292.5t-240 108.5q-138 0 -252.5 -89.5t-180 -241t-65.5 -330.5q0 -185 92 -293.5
t240 -108.5z" />
    <glyph glyph-name="racute.sc" horiz-adv-x="1165" 
d="M535 1421q101 71 225 182t209 205l84 -90q-93 -81 -231.5 -176.5t-262.5 -167.5zM872 -10l-389 540l4 7q245 103 347 185t102 193q0 110 -124.5 163.5t-362.5 29.5l-216 -1108h-106l231 1188q181 19 310.5 9.5t212 -47.5t121 -92.5t38.5 -125.5q0 -127 -105.5 -226
t-320.5 -192l369 -506z" />
    <glyph glyph-name="rcaron.sc" horiz-adv-x="1165" 
d="M727 1370h-2l-268 344l73 60l215 -289l351 278l51 -59zM872 -10l-389 540l4 7q245 103 347 185t102 193q0 110 -124.5 163.5t-362.5 29.5l-216 -1108h-106l231 1188q181 19 310.5 9.5t212 -47.5t121 -92.5t38.5 -125.5q0 -127 -105.5 -226t-320.5 -192l369 -506z" />
    <glyph glyph-name="rcommaaccent.sc" horiz-adv-x="1165" 
d="M872 -10l-389 540l4 7q245 103 347 185t102 193q0 110 -124.5 163.5t-362.5 29.5l-216 -1108h-106l231 1188q181 19 310.5 9.5t212 -47.5t121 -92.5t38.5 -125.5q0 -127 -105.5 -226t-320.5 -192l369 -506zM332 -598q56 80 81.5 156t24 137.5t-11.5 128.5l141 6
q7 -226 -194 -451z" />
    <glyph glyph-name="sacute.sc" horiz-adv-x="1040" 
d="M508 1430q101 71 225 182t209 205l84 -91q-93 -81 -231.5 -176.5t-262.5 -167.5zM928 891l-97 -19q-15 128 -72 190t-159 62q-108 0 -180 -70.5t-72 -166.5q0 -48 26.5 -95.5t69 -88t94.5 -81t103.5 -81.5t94 -83t69 -92t26.5 -102q0 -75 -43 -135t-137 -102
t-242.5 -42.5t-359.5 44.5l23 102q142 -38 256.5 -51t188 -3.5t122.5 36t69.5 61.5t20.5 78t-26.5 86t-69 81t-94 77t-103.5 80.5t-94.5 85.5t-69 98.5t-26.5 111.5q0 134 112 236t273 102q262 0 297 -319z" />
    <glyph glyph-name="scaron.sc" horiz-adv-x="1040" 
d="M698 1378h-2l-268 344l74 60l215 -289l350 279l51 -60zM928 891l-97 -19q-15 128 -72 190t-159 62q-108 0 -180 -70.5t-72 -166.5q0 -48 26.5 -95.5t69 -88t94.5 -81t103.5 -81.5t94 -83t69 -92t26.5 -102q0 -75 -43 -135t-137 -102t-242.5 -42.5t-359.5 44.5l23 102
q142 -38 256.5 -51t188 -3.5t122.5 36t69.5 61.5t20.5 78t-26.5 86t-69 81t-94 77t-103.5 80.5t-94.5 85.5t-69 98.5t-26.5 111.5q0 134 112 236t273 102q262 0 297 -319z" />
    <glyph glyph-name="scedilla.sc" horiz-adv-x="1040" 
d="M582 -383h-97q17 326 -102 326q-97 0 -205 -260l-59 22q79 214 176 283q-120 13 -246 41l23 102q142 -38 256.5 -51t188 -3.5t122.5 36t69.5 61.5t20.5 78t-26.5 86t-69 81t-94 77t-103.5 80.5t-94.5 85.5t-69 98.5t-26.5 111.5q0 134 112 236t273 102q262 0 297 -319
l-97 -19q-15 128 -72 190t-159 62q-108 0 -180 -70.5t-72 -166.5q0 -48 26.5 -95.5t69 -88t94.5 -81t103.5 -81.5t94 -83t69 -92t26.5 -102q0 -104 -84.5 -180t-254.5 -94q107 -89 90 -373z" />
    <glyph glyph-name="scommaaccent.sc" horiz-adv-x="1040" 
d="M928 891l-97 -19q-15 128 -72 190t-159 62q-108 0 -180 -70.5t-72 -166.5q0 -48 26.5 -95.5t69 -88t94.5 -81t103.5 -81.5t94 -83t69 -92t26.5 -102q0 -75 -43 -135t-137 -102t-242.5 -42.5t-359.5 44.5l23 102q142 -38 256.5 -51t188 -3.5t122.5 36t69.5 61.5t20.5 78
t-26.5 86t-69 81t-94 77t-103.5 80.5t-94.5 85.5t-69 98.5t-26.5 111.5q0 134 112 236t273 102q262 0 297 -319zM225 -604q56 80 81.5 156t24 137.5t-11.5 128.5l142 6q7 -225 -195 -451z" />
    <glyph glyph-name="tcaron.sc" horiz-adv-x="1081" 
d="M694 1358h-2l-268 344l74 59l215 -288l350 278l51 -59zM700 1102l-213 -1102h-106l215 1102h-389l14 88h883l-17 -88h-387z" />
    <glyph glyph-name="tcommaaccent.sc" horiz-adv-x="1081" 
d="M700 1102l-213 -1102h-106l215 1102h-389l14 88h883l-17 -88h-387zM236 -588q56 80 81.5 156t24 137.5t-11.5 128.5l141 6q7 -224 -195 -450z" />
    <glyph glyph-name="uacute.sc" horiz-adv-x="1280" 
d="M616 1409q101 71 225.5 182t209.5 205l84 -90q-93 -81 -231.5 -176.5t-262.5 -167.5zM309 494q-88 -431 262 -431q145 0 236.5 86t128.5 275l147 766h105l-150 -770q-85 -445 -479 -445q-76 0 -138 17.5t-114 55.5t-80.5 99.5t-37.5 149.5t16 205l135 688h104z" />
    <glyph glyph-name="ubreve.sc" horiz-adv-x="1280" 
d="M1186 1743l61 -41q-225 -322 -424 -322q-101 0 -177 80t-134 250l82 39q56 -153 112.5 -217t137.5 -64q83 0 160.5 66.5t181.5 208.5zM309 494q-88 -431 262 -431q145 0 236.5 86t128.5 275l147 766h105l-150 -770q-85 -445 -479 -445q-76 0 -138 17.5t-114 55.5
t-80.5 99.5t-37.5 149.5t16 205l135 688h104z" />
    <glyph glyph-name="ucircumflex.sc" horiz-adv-x="1280" 
d="M1094 1364l-215 289l-351 -279l-51 60l420 335h2l268 -346zM309 494q-88 -431 262 -431q145 0 236.5 86t128.5 275l147 766h105l-150 -770q-85 -445 -479 -445q-76 0 -138 17.5t-114 55.5t-80.5 99.5t-37.5 149.5t16 205l135 688h104z" />
    <glyph glyph-name="udieresis.sc" horiz-adv-x="1280" 
d="M1075 1389l-102 -3l69 293l117 4zM635 1382l-103 -2l70 295l117 2zM309 494q-88 -431 262 -431q145 0 236.5 86t128.5 275l147 766h105l-150 -770q-85 -445 -479 -445q-76 0 -138 17.5t-114 55.5t-80.5 99.5t-37.5 149.5t16 205l135 688h104z" />
    <glyph glyph-name="ugrave.sc" horiz-adv-x="1280" 
d="M993 1389l-32 -48q-95 74 -208.5 183.5t-185.5 201.5l88 84q66 -102 163 -223t175 -198zM309 494q-88 -431 262 -431q145 0 236.5 86t128.5 275l147 766h105l-150 -770q-85 -445 -479 -445q-76 0 -138 17.5t-114 55.5t-80.5 99.5t-37.5 149.5t16 205l135 688h104z" />
    <glyph glyph-name="uhungarumlaut.sc" horiz-adv-x="1280" 
d="M547 1360l-45 37q74 87 157.5 209t143.5 225l108 -62q-66 -90 -168 -204.5t-196 -204.5zM981 1360l-47 37q75 88 157.5 207.5t141.5 220.5l110 -56q-66 -93 -167.5 -207.5t-194.5 -201.5zM309 494q-88 -431 262 -431q145 0 236.5 86t128.5 275l147 766h105l-150 -770
q-85 -445 -479 -445q-76 0 -138 17.5t-114 55.5t-80.5 99.5t-37.5 149.5t16 205l135 688h104z" />
    <glyph glyph-name="umacron.sc" horiz-adv-x="1280" 
d="M1188 1583l-19 -90h-661l16 90h664zM309 494q-88 -431 262 -431q145 0 236.5 86t128.5 275l147 766h105l-150 -770q-85 -445 -479 -445q-76 0 -138 17.5t-114 55.5t-80.5 99.5t-37.5 149.5t16 205l135 688h104z" />
    <glyph glyph-name="uogonek.sc" horiz-adv-x="1280" 
d="M709 -377q-103 -59 -187.5 -79.5t-134.5 -6t-77 48.5t-27 82q0 149 290 307h-14q-76 0 -138 17.5t-114 55.5t-80.5 99.5t-37.5 149.5t16 205l135 688h106l-137 -696q-88 -431 262 -431q145 0 236.5 86t128.5 275l147 766h105l-150 -770q-32 -167 -99.5 -260.5
t-203.5 -163.5q-180 -88 -267 -161.5t-87 -141.5q0 -25 10 -42.5t33 -27.5t58.5 -9t89 16.5t120.5 45.5z" />
    <glyph glyph-name="uring.sc" horiz-adv-x="1280" 
d="M866 1798q113 0 185.5 -61t72.5 -156q0 -106 -82 -179t-206 -73q-113 0 -185.5 61.5t-72.5 157.5q0 105 82.5 177.5t205.5 72.5zM858 1726q-84 0 -140 -49.5t-56 -120.5q0 -68 51.5 -111.5t130.5 -43.5q84 0 141 49.5t57 120.5q0 67 -52 111t-132 44zM309 494
q-88 -431 262 -431q145 0 236.5 86t128.5 275l147 766h105l-150 -770q-85 -445 -479 -445q-76 0 -138 17.5t-114 55.5t-80.5 99.5t-37.5 149.5t16 205l135 688h104z" />
    <glyph glyph-name="wacute.sc" horiz-adv-x="1431" 
d="M682 1409q101 71 225 182t209 205l84 -90q-93 -82 -231.5 -177.5t-261.5 -166.5zM874 0l-129 713l-407 -713h-131q8 435 108 1190h103q-36 -274 -71.5 -611t-39.5 -464h10l414 731h80l133 -729h8q85 222 316 1073h102q-95 -366 -195.5 -689t-170.5 -501h-130z" />
    <glyph glyph-name="wcircumflex.sc" horiz-adv-x="1431" 
d="M1161 1364l-215 289l-350 -279l-51 60l420 335h2l268 -346zM874 0l-129 713l-407 -713h-131q8 435 108 1190h103q-36 -274 -71.5 -611t-39.5 -464h10l414 731h80l133 -729h8q85 222 316 1073h102q-95 -366 -195.5 -689t-170.5 -501h-130z" />
    <glyph glyph-name="wdieresis.sc" horiz-adv-x="1431" 
d="M1143 1389l-103 -3l70 293l117 4zM702 1382l-102 -2l70 295l116 2zM874 0l-129 713l-407 -713h-131q8 435 108 1190h103q-36 -274 -71.5 -611t-39.5 -464h10l414 731h80l133 -729h8q85 222 316 1073h102q-95 -366 -195.5 -689t-170.5 -501h-130z" />
    <glyph glyph-name="wgrave.sc" horiz-adv-x="1431" 
d="M1059 1389l-33 -48q-94 74 -207 183.5t-186 201.5l88 84q66 -102 163 -223t175 -198zM874 0l-129 713l-407 -713h-131q8 435 108 1190h103q-36 -274 -71.5 -611t-39.5 -464h10l414 731h80l133 -729h8q85 222 316 1073h102q-95 -366 -195.5 -689t-170.5 -501h-130z" />
    <glyph glyph-name="yacute.sc" horiz-adv-x="1159" 
d="M541 1413q101 71 225 182t209 205l84 -90q-93 -81 -231.5 -176.5t-262.5 -167.5zM520 0h-102l78 408l-267 778l107 6l233 -703l500 701h115l-586 -801z" />
    <glyph glyph-name="ycircumflex.sc" horiz-adv-x="1159" 
d="M1020 1368l-215 289l-350 -279l-52 60l420 336h2l269 -347zM520 0h-102l78 408l-267 778l107 6l233 -703l500 701h115l-586 -801z" />
    <glyph glyph-name="ydieresis.sc" horiz-adv-x="1159" 
d="M999 1393l-102 -2l70 292l116 5zM559 1386l-102 -2l69 295l117 2zM520 0h-102l78 408l-267 778l107 6l233 -703l500 701h115l-586 -801z" />
    <glyph glyph-name="ygrave.sc" horiz-adv-x="1159" 
d="M918 1393l-33 -47q-94 74 -207 183.5t-186 201.5l88 84q66 -102 163 -224t175 -198zM520 0h-102l78 408l-267 778l107 6l233 -703l500 701h115l-586 -801z" />
    <glyph glyph-name="zacute.sc" horiz-adv-x="1128" 
d="M522 1409q101 71 225 182t209 205l84 -90q-93 -82 -231.5 -177.5t-261.5 -166.5zM864 0h-809l15 88l891 1014l-674 -2l16 90h791l-17 -88l-887 -1016l693 4z" />
    <glyph glyph-name="zcaron.sc" horiz-adv-x="1128" 
d="M713 1358h-2l-269 344l74 59l215 -288l350 278l52 -59zM864 0h-809l15 88l891 1014l-674 -2l16 90h791l-17 -88l-887 -1016l693 4z" />
    <glyph glyph-name="zdotaccent.sc" horiz-adv-x="1128" 
d="M760 1384l-103 -2l70 295l117 2zM864 0h-809l15 88l891 1014l-674 -2l16 90h791l-17 -88l-887 -1016l693 4z" />
    <glyph glyph-name="ae.sc" horiz-adv-x="1724" 
d="M981 1100q-241 -290 -537 -662h422l129 662h-14zM780 0l70 360h-467q-256 -322 -285 -360h-116q473 609 958 1190h758l-17 -90h-581l-88 -459h495l-14 -78h-498l-90 -475h582l-23 -88h-684z" />
    <glyph glyph-name="aeacute.sc" horiz-adv-x="1724" 
d="M1026 1409q101 71 225 182t209 205l84 -90q-93 -82 -231.5 -177.5t-261.5 -166.5zM981 1100q-241 -290 -537 -662h422l129 662h-14zM780 0l70 360h-467q-256 -322 -285 -360h-116q473 609 958 1190h758l-17 -90h-581l-88 -459h495l-14 -78h-498l-90 -475h582l-23 -88
h-684z" />
    <glyph glyph-name="oe.sc" horiz-adv-x="1753" 
d="M1516 88l-23 -88h-662q-349 0 -515 115.5t-166 361.5q0 121 30 224.5t99 195t173 155.5t260 101t353 37h661l-16 -90h-584l-88 -459h498l-14 -78h-498l-92 -475h584zM254 487q0 -209 137 -303t434 -94l199 1010q-170 0 -302.5 -31.5t-219.5 -85.5t-143.5 -132.5
t-80.5 -168t-24 -195.5z" />
    <glyph glyph-name="eth.sc" horiz-adv-x="1241" 
d="M1122 727q0 -112 -27 -213.5t-81 -190t-136 -156.5t-192.5 -113t-250 -59t-308.5 5l111 569h-156l14 78h158l104 541q358 53 561 -65t203 -396zM651 569h-309l-94 -487q156 -13 285 14t218 84.5t150 141t89 182.5t28 211q0 227 -149.5 325t-422.5 70l-90 -463h314z" />
    <glyph glyph-name="thorn.sc" horiz-adv-x="1101" 
d="M233 0h-106l231 1186l103 -4l-37 -193q151 11 265 -8.5t182 -63.5t101.5 -106t33.5 -141q0 -194 -193 -317t-541 -152zM903 655q0 135 -123 202t-374 40l-115 -596q294 4 453 98.5t159 255.5z" />
    <glyph glyph-name="zero.alt" horiz-adv-x="1288" 
d="M164 492q0 243 81.5 459t228 349.5t321.5 133.5q180 0 284.5 -132t104.5 -384q0 -181 -49 -352.5t-132 -302t-202 -209.5t-250 -79q-178 0 -282.5 132.5t-104.5 384.5zM774 1343q-106 0 -200 -67.5t-159 -179.5t-104 -257t-43 -298l809 438q-15 181 -93.5 272.5
t-209.5 91.5zM573 68q143 0 261 120t181.5 307.5t63.5 393.5l-809 -443q10 -187 89 -282.5t214 -95.5z" />
    <glyph glyph-name="colon.alt" horiz-adv-x="655" 
d="M508 1051h-162l35 190h162zM332 150h-162l37 190h162z" />
    <glyph glyph-name="ampersand.sc" horiz-adv-x="1198" 
d="M1034 -39q-160 136 -274 277q-125 -126 -246 -193.5t-225 -67.5t-166 58t-62 160q0 77 35.5 160.5t102.5 167.5t144.5 160.5t178.5 162.5q1 72 20.5 144.5t48.5 125t64 86t66 33.5q33 0 52.5 -22t19.5 -64q0 -69 -49 -157t-134 -175q17 -228 164 -440q109 136 209 323
l94 -30q-118 -206 -252 -361q107 -133 285 -278zM315 68q84 0 187.5 60.5t208.5 174.5q-160 225 -183 447q-366 -331 -366 -535q0 -70 42 -108.5t111 -38.5z" />
    <glyph glyph-name="guillemotleft.cap" horiz-adv-x="1531" 
d="M575 125l-397 524l29 113l588 518l63 -76l-590 -508l385 -503zM1200 125l-385 510l31 113l590 532l61 -80l-592 -518l375 -489z" />
    <glyph glyph-name="guillemotright.cap" horiz-adv-x="1536" 
d="M788 125l-63 78l590 508l-385 501l78 70l397 -526l-29 -111zM147 127l-61 78l592 518l-375 491l80 68l385 -510l-31 -113z" />
    <glyph glyph-name="guilsinglleft.cap" horiz-adv-x="905" 
d="M537 127l-394 528l31 111l600 516l60 -80l-601 -502l383 -505z" />
    <glyph glyph-name="guilsinglright.cap" horiz-adv-x="905" 
d="M143 127l-59 78l600 504l-383 505l80 68l393 -528l-31 -111z" />
    <glyph glyph-name="parenleft.cap" horiz-adv-x="983" 
d="M1004 1733l55 -78q-407 -274 -584.5 -531t-177.5 -532q0 -399 414 -871l-80 -61q-434 507 -434 928q0 294 192 570.5t615 574.5z" />
    <glyph glyph-name="parenright.cap" horiz-adv-x="985" 
d="M-2 -371l-55 78q407 274 584.5 531t177.5 532q0 398 -414 870l80 62q432 -505 432 -928q0 -294 -191 -571t-614 -574z" />
    <glyph glyph-name="bracketleft.cap" horiz-adv-x="993" 
d="M82 -297l385 1974h627l-19 -86h-528l-348 -1800h526l-16 -88h-627z" />
    <glyph glyph-name="bracketright.cap" horiz-adv-x="991" 
d="M969 1679l-385 -1972h-627l18 86h529l350 1800h-528l16 86h627z" />
    <glyph glyph-name="braceleft.cap" horiz-adv-x="1032" 
d="M709 -352q-277 136 -394.5 236t-117.5 202q0 53 27 103.5t65 88.5t76 73.5t65 73.5t27 73q0 136 -295 164l12 77q102 6 177 25t115 45.5t58.5 55.5t18.5 61q0 41 -33.5 104t-67.5 133.5t-34 130.5q0 129 160.5 240t523.5 205l16 -94q-316 -74 -461 -155t-145 -177
q0 -47 34 -115t68.5 -136.5t34.5 -115.5q0 -73 -69.5 -142.5t-204.5 -103.5q99 -27 144.5 -76t45.5 -108q0 -45 -26.5 -89t-64 -80.5l-75 -73t-64 -80t-26.5 -87.5q0 -85 104.5 -168t352.5 -204z" />
    <glyph glyph-name="braceright.cap" horiz-adv-x="1017" 
d="M-51 -350l-17 94q316 74 461.5 155t145.5 177q0 47 -35 115t-70 135.5t-35 113.5q0 73 70.5 142.5t204.5 105.5q-99 28 -144 76t-45 108q0 38 19 75.5t47 67t61 63t61 62.5t47 66t19 74q0 87 -104 170.5t-350 202.5l47 88q278 -138 395 -237t117 -201q0 -54 -27 -104.5
t-65 -88.5t-76 -73.5t-65 -73t-27 -72.5q0 -139 295 -164l-13 -78q-102 -6 -177 -25t-115 -45.5t-58 -55.5t-18 -62t21 -80t46.5 -88t46.5 -96.5t21 -102.5q0 -129 -160.5 -239.5t-523.5 -204.5z" />
    <glyph glyph-name="registered.alt" horiz-adv-x="1894" 
d="M1737 786q0 -188 -71 -350.5t-190 -272t-277 -171.5t-331 -62q-202 0 -358 79t-248 238t-92 378q0 150 45.5 284.5t127 237.5t189.5 179t238 115.5t268 39.5q200 0 357 -79.5t249.5 -239t92.5 -376.5zM1038 1405q-156 0 -298.5 -56t-250.5 -155t-172.5 -245t-64.5 -316
q0 -151 47 -271.5t130.5 -198t195.5 -118.5t243 -41q155 0 298 56.5t251.5 155.5t173 245t64.5 315q0 151 -47.5 271.5t-131 198t-195 118.5t-243.5 41zM1147 299l-250 350l4 4q157 66 220 116t63 124q0 71 -82.5 106t-241.5 17l-133 -709h-86l152 780q232 32 355.5 -22.5
t123.5 -161.5q0 -85 -65 -148t-203 -124l231 -318z" />
    <glyph glyph-name="asterisk.alt" horiz-adv-x="1187" 
d="M752 1266l-52 12l52 289l108 -29zM590 1251l-37 -41l-223 189l78 82zM848 1128l-17 56l275 98l31 -108zM522 1102l17 -53l-277 -99l-31 107zM778 981l37 41l225 -188l-77 -82zM616 967l52 -13l-50 -288l-108 28z" />
    <glyph glyph-name="bullet.alt" horiz-adv-x="1099" 
d="M733 463h-407l82 420h407z" />
    <glyph glyph-name="R_p" horiz-adv-x="2217" 
d="M895 -10l-375 639l4 4q136 66 222.5 116.5t150 104.5t90.5 108.5t27 120.5q0 141 -128 206t-382 38l-256 -1327h-105l273 1407q189 22 322.5 11.5t218.5 -55.5t124 -110t39 -151q0 -149 -113.5 -262.5t-357.5 -231.5l352 -598zM1538 66q124 0 228.5 93.5t162.5 245.5
t58 324q0 145 -50.5 219t-130.5 74q-83 0 -192.5 -71t-200.5 -173q-48 -265 -127 -669q150 -43 252 -43zM1188 -391l-101 -8q36 184 93 476t80.5 415t53.5 291t52 307l98 6q-10 -71 -34 -217q99 104 209 170.5t202 66.5q107 0 176.5 -94t69.5 -272q0 -151 -45 -291.5
t-123 -246t-189 -169t-235 -63.5q-101 0 -227 30q-5 -23 -34.5 -173.5t-45.5 -227.5z" />
    <glyph glyph-name="onehalf.afrc" horiz-adv-x="1191" 
d="M989 967h-618l16 77h279l129 656l-265 -19l7 66l272 33l25 125l90 6l-170 -867h254zM156 655l14 76h924l-17 -76h-921zM717 -477h-594l-2 74q108 72 176.5 119t144.5 103t120 98t83 88t55.5 88t16.5 85q0 216 -426 152l12 86q248 37 377 -22t129 -197q0 -60 -25 -118.5
t-67.5 -111t-116 -114.5t-152.5 -118t-196 -132h483z" />
    <glyph glyph-name="onethird.afrc" horiz-adv-x="1191" 
d="M989 967h-618l16 77h279l129 656l-265 -19l7 66l272 33l25 125l90 6l-170 -867h254zM156 655l14 76h924l-17 -76h-921zM766 -233q0 -43 -18.5 -81.5t-62.5 -75.5t-116 -59.5t-178.5 -32.5t-251.5 5l13 86q127 -15 219 -10.5t151 16.5t94 35.5t48.5 48t13.5 53.5
q0 149 -379 228l6 43l432 317h-440l14 80h543l-10 -78l-428 -317q350 -84 350 -258z" />
    <glyph glyph-name="twothirds.afrc" horiz-adv-x="1191" 
d="M958 967h-593l-3 73q108 71 176.5 118.5t144 104t120 98t83.5 87.5t55.5 88.5t16.5 85.5q0 216 -426 152l13 86q248 37 377 -22.5t129 -197.5q0 -60 -25 -118t-67.5 -111t-116 -115t-152.5 -117.5t-196 -131.5h483zM156 655l14 76h924l-17 -76h-921zM766 -233
q0 -43 -18.5 -81.5t-62.5 -75.5t-116 -59.5t-178.5 -32.5t-251.5 5l13 86q127 -15 219 -10.5t151 16.5t94 35.5t48.5 48t13.5 53.5q0 149 -379 228l6 43l432 317h-440l14 80h543l-10 -78l-428 -317q350 -84 350 -258z" />
    <glyph glyph-name="onequarter.afrc" horiz-adv-x="1191" 
d="M989 967h-618l16 77h279l129 656l-265 -19l7 66l272 33l25 125l90 6l-170 -867h254zM156 655l14 76h924l-17 -76h-921zM797 -276h-113l-39 -201h-82l39 201h-452l6 61q99 160 165 302.5t128 342.5l94 -6q-64 -201 -131.5 -337.5t-165.5 -285.5h370l62 320l86 8l-64 -328
h121z" />
    <glyph glyph-name="threequarters.afrc" horiz-adv-x="1191" 
d="M1008 1210q0 -43 -18.5 -81.5t-62.5 -75.5t-116 -59t-178.5 -32t-251.5 5l12 86q127 -15 219 -10.5t151.5 16.5t94.5 35.5t48.5 48t13.5 53.5q0 148 -379 227l6 43l432 318h-440l14 80h543l-11 -78l-428 -318q351 -84 351 -258zM156 655l14 76h924l-17 -76h-921z
M797 -276h-113l-39 -201h-82l39 201h-452l6 61q99 160 165 302.5t128 342.5l94 -6q-64 -201 -131.5 -337.5t-165.5 -285.5h370l62 320l86 8l-64 -328h121z" />
    <glyph glyph-name="onefifth.afrc" horiz-adv-x="1191" 
d="M989 967h-618l16 77h279l129 656l-265 -19l7 66l272 33l25 125l90 6l-170 -867h254zM156 655l14 76h924l-17 -76h-921zM766 -203q0 -47 -20.5 -90t-66.5 -82.5t-119 -65t-177 -37.5t-242 1l13 86q122 -13 211.5 -6.5t150 22.5t97 43.5t52 56.5t15.5 62q0 155 -420 223
l102 410h492l-23 -80l-407 2l-68 -272q410 -75 410 -273z" />
    <glyph glyph-name="twofifths.afrc" horiz-adv-x="1191" 
d="M958 967h-593l-3 73q108 71 176.5 118.5t144 104t120 98t83.5 87.5t55.5 88.5t16.5 85.5q0 216 -426 152l13 86q248 37 377 -22.5t129 -197.5q0 -60 -25 -118t-67.5 -111t-116 -115t-152.5 -117.5t-196 -131.5h483zM156 655l14 76h924l-17 -76h-921zM766 -203
q0 -47 -20.5 -90t-66.5 -82.5t-119 -65t-177 -37.5t-242 1l13 86q122 -13 211.5 -6.5t150 22.5t97 43.5t52 56.5t15.5 62q0 155 -420 223l102 410h492l-23 -80l-407 2l-68 -272q410 -75 410 -273z" />
    <glyph glyph-name="threefifths.afrc" horiz-adv-x="1191" 
d="M1008 1210q0 -43 -18.5 -81.5t-62.5 -75.5t-116 -59t-178.5 -32t-251.5 5l12 86q127 -15 219 -10.5t151.5 16.5t94.5 35.5t48.5 48t13.5 53.5q0 148 -379 227l6 43l432 318h-440l14 80h543l-11 -78l-428 -318q351 -84 351 -258zM156 655l14 76h924l-17 -76h-921z
M766 -203q0 -47 -20.5 -90t-66.5 -82.5t-119 -65t-177 -37.5t-242 1l13 86q122 -13 211.5 -6.5t150 22.5t97 43.5t52 56.5t15.5 62q0 155 -420 223l102 410h492l-23 -80l-407 2l-68 -272q410 -75 410 -273z" />
    <glyph glyph-name="fourfifths.afrc" horiz-adv-x="1191" 
d="M1038 1167h-112l-39 -200h-82l39 200h-453l6 62q99 160 165 302.5t128 342.5l94 -6q-64 -201 -131.5 -337.5t-165.5 -285.5h371l62 320l86 8l-64 -328h121zM156 655l14 76h924l-17 -76h-921zM766 -203q0 -47 -20.5 -90t-66.5 -82.5t-119 -65t-177 -37.5t-242 1l13 86
q122 -13 211.5 -6.5t150 22.5t97 43.5t52 56.5t15.5 62q0 155 -420 223l102 410h492l-23 -80l-407 2l-68 -272q410 -75 410 -273z" />
    <glyph glyph-name="onesixth.afrc" horiz-adv-x="1191" 
d="M989 967h-618l16 77h279l129 656l-265 -19l7 66l272 33l25 125l90 6l-170 -867h254zM156 655l14 76h924l-17 -76h-921zM471 -498q-129 0 -211 80t-82 234q0 72 18.5 141.5t62.5 141.5t110.5 134.5t168.5 118t230 94.5l20 -81q-119 -33 -211.5 -80.5t-150.5 -103
t-93 -111.5t-52 -117q83 72 176.5 96.5t167 3.5t122 -83t48.5 -152q0 -139 -93 -227.5t-231 -88.5zM485 -422q101 0 162.5 63t61.5 160q0 71 -39.5 120t-101 65t-143 -7.5t-157.5 -89.5q-4 -40 -4 -59q0 -128 62.5 -190t158.5 -62z" />
    <glyph glyph-name="fivesixths.afrc" horiz-adv-x="1191" 
d="M1008 1241q0 -47 -20.5 -90t-66.5 -82.5t-119 -65t-177 -37.5t-242 1l12 86q153 -12 254.5 -3.5t162 39t85.5 65.5t25 77q0 155 -420 223l102 410h492l-23 -80l-407 2l-68 -273q410 -75 410 -272zM156 655l14 76h924l-17 -76h-921zM471 -498q-129 0 -211 80t-82 234
q0 72 18.5 141.5t62.5 141.5t110.5 134.5t168.5 118t230 94.5l20 -81q-119 -33 -211.5 -80.5t-150.5 -103t-93 -111.5t-52 -117q83 72 176.5 96.5t167 3.5t122 -83t48.5 -152q0 -139 -93 -227.5t-231 -88.5zM485 -422q101 0 162.5 63t61.5 160q0 71 -39.5 120t-101 65
t-143 -7.5t-157.5 -89.5q-4 -40 -4 -59q0 -128 62.5 -190t158.5 -62z" />
    <glyph glyph-name="oneeighth.afrc" horiz-adv-x="1191" 
d="M989 967h-618l16 77h279l129 656l-265 -19l7 66l272 33l25 125l90 6l-170 -867h254zM156 655l14 76h924l-17 -76h-921zM739 -268q0 -96 -90 -164t-225 -68q-120 0 -195 54.5t-75 142.5q0 69 57 137.5t217 169.5q-143 128 -143 223q0 69 55.5 122t163.5 76.5t268 -5.5
l-27 -88q-139 33 -222 22.5t-117.5 -40.5t-34.5 -76q0 -41 34 -86t97 -103q96 56 332 178l30 -55q-185 -95 -313 -168q46 -43 70 -67.5t56.5 -63t47 -73t14.5 -68.5zM440 -424q94 0 155.5 43t61.5 105q0 27 -13 54.5t-46.5 63.5t-52.5 54t-70 63q-139 -86 -186 -140.5
t-47 -103.5q0 -63 56 -101t142 -38z" />
    <glyph glyph-name="threeeighths.afrc" horiz-adv-x="1191" 
d="M1008 1210q0 -43 -18.5 -81.5t-62.5 -75.5t-116 -59t-178.5 -32t-251.5 5l12 86q127 -15 219 -10.5t151.5 16.5t94.5 35.5t48.5 48t13.5 53.5q0 148 -379 227l6 43l432 318h-440l14 80h543l-11 -78l-428 -318q351 -84 351 -258zM156 655l14 76h924l-17 -76h-921z
M739 -268q0 -96 -90 -164t-225 -68q-120 0 -195 54.5t-75 142.5q0 69 57 137.5t217 169.5q-143 128 -143 223q0 69 55.5 122t163.5 76.5t268 -5.5l-27 -88q-139 33 -222 22.5t-117.5 -40.5t-34.5 -76q0 -41 34 -86t97 -103q96 56 332 178l30 -55q-185 -95 -313 -168
q46 -43 70 -67.5t56.5 -63t47 -73t14.5 -68.5zM440 -424q94 0 155.5 43t61.5 105q0 27 -13 54.5t-46.5 63.5t-52.5 54t-70 63q-139 -86 -186 -140.5t-47 -103.5q0 -63 56 -101t142 -38z" />
    <glyph glyph-name="fiveeighths.afrc" horiz-adv-x="1191" 
d="M1008 1241q0 -47 -20.5 -90t-66.5 -82.5t-119 -65t-177 -37.5t-242 1l12 86q153 -12 254.5 -3.5t162 39t85.5 65.5t25 77q0 155 -420 223l102 410h492l-23 -80l-407 2l-68 -273q410 -75 410 -272zM156 655l14 76h924l-17 -76h-921zM739 -268q0 -96 -90 -164t-225 -68
q-120 0 -195 54.5t-75 142.5q0 69 57 137.5t217 169.5q-143 128 -143 223q0 69 55.5 122t163.5 76.5t268 -5.5l-27 -88q-139 33 -222 22.5t-117.5 -40.5t-34.5 -76q0 -41 34 -86t97 -103q96 56 332 178l30 -55q-185 -95 -313 -168q46 -43 70 -67.5t56.5 -63t47 -73
t14.5 -68.5zM440 -424q94 0 155.5 43t61.5 105q0 27 -13 54.5t-46.5 63.5t-52.5 54t-70 63q-139 -86 -186 -140.5t-47 -103.5q0 -63 56 -101t142 -38z" />
    <glyph glyph-name="seveneighths.afrc" horiz-adv-x="1191" 
d="M569 961l-94 10q261 460 557 809l-2 6h-506l17 80h602l-17 -74q-314 -388 -557 -831zM156 655l14 76h924l-17 -76h-921zM739 -268q0 -96 -90 -164t-225 -68q-120 0 -195 54.5t-75 142.5q0 69 57 137.5t217 169.5q-143 128 -143 223q0 69 55.5 122t163.5 76.5t268 -5.5
l-27 -88q-139 33 -222 22.5t-117.5 -40.5t-34.5 -76q0 -41 34 -86t97 -103q96 56 332 178l30 -55q-185 -95 -313 -168q46 -43 70 -67.5t56.5 -63t47 -73t14.5 -68.5zM440 -424q94 0 155.5 43t61.5 105q0 27 -13 54.5t-46.5 63.5t-52.5 54t-70 63q-139 -86 -186 -140.5
t-47 -103.5q0 -63 56 -101t142 -38z" />
    <glyph glyph-name="period.tab" horiz-adv-x="913" 
d="M432 0h-164l39 190h162z" />
    <glyph glyph-name="comma.tab" horiz-adv-x="913" 
d="M123 -393q133 136 172.5 260t15.5 321l160 5q-12 -197 -81 -336.5t-224 -278.5z" />
    <glyph glyph-name="colon.tab" horiz-adv-x="913" 
d="M571 901h-161l36 191h162zM397 0h-161l36 190h162z" />
    <glyph glyph-name="semicolon.tab" horiz-adv-x="913" 
d="M580 901h-162l37 191h161zM92 -393q132 137 171 260.5t16 320.5l161 5q-14 -197 -83 -336.5t-222 -278.5z" />
    <glyph glyph-name="periodcentered.tab" horiz-adv-x="923" 
d="M537 541h-162l39 192h161z" />
    <glyph glyph-name="slash.tab" 
d="M1380 1567l-1470 -1964l-92 24l1480 1977z" />
    <glyph glyph-name="bar.tab" horiz-adv-x="913" 
d="M612 1587h95l-390 -1997h-94z" />
    <glyph glyph-name="backslash.tab" 
d="M299 1581l84 25l702 -1981l-86 -20z" />
    <glyph glyph-name="underscore.tab" 
d="M1147 -115l-14 -82h-1274l16 82h1272z" />
    <glyph glyph-name="hyphen.tab" 
d="M1026 698l-16 -90h-717l16 90h717z" />
    <glyph glyph-name="endash.tab" 
d="M1135 694l-15 -80h-936l17 80h934z" />
    <glyph glyph-name="A.sc" horiz-adv-x="1200" 
d="M879 -4q-13 124 -50 401h-493q-71 -131 -209 -397h-104q313 612 641 1196h153q110 -717 164 -1192zM719 1106q-207 -377 -340 -629h440q-36 277 -88 629h-12z" />
    <glyph glyph-name="B.sc" horiz-adv-x="1136" 
d="M956 348q0 -66 -28 -124.5t-89 -109.5t-157.5 -82t-234.5 -42.5t-320 10.5l231 1188q171 21 295.5 12.5t205 -45.5t119 -90t38.5 -121q0 -121 -97 -208.5t-266 -123.5q136 -21 219.5 -92t83.5 -172zM913 922q0 104 -119 159t-345 29l-95 -479q282 9 420.5 88.5
t138.5 202.5zM854 338q0 53 -30 96t-90 74.5t-160 46.5t-232 8l-94 -481q160 -16 274.5 -3t188 52.5t108.5 91.5t35 115z" />
    <glyph glyph-name="C.sc" horiz-adv-x="1185" 
d="M774 1214q164 0 226.5 -103.5t54.5 -319.5l-101 -3q1 70 -2.5 118t-15 92.5t-33.5 70t-58.5 40.5t-88.5 15q-144 0 -262 -101t-181 -256t-63 -323q0 -269 183 -348t513 45l-8 -98q-246 -80 -422.5 -63.5t-274.5 131t-98 311.5q0 152 49.5 296.5t133.5 253.5t201.5 175.5
t246.5 66.5z" />
    <glyph glyph-name="D.sc" horiz-adv-x="1247" 
d="M1122 727q0 -112 -27 -213.5t-81 -190t-136 -156.5t-192.5 -113t-250 -59t-308.5 5l231 1188q358 53 561 -65t203 -396zM1018 715q0 227 -149.5 325t-422.5 70l-198 -1028q156 -13 285 14t218 84.5t150 141t89 182.5t28 211z" />
    <glyph glyph-name="E.sc" horiz-adv-x="1071" 
d="M834 88l-23 -88h-684l231 1190h686l-16 -90h-582l-90 -459h498l-14 -78h-498l-92 -475h584z" />
    <glyph glyph-name="F.sc" horiz-adv-x="1040" 
d="M838 539h-500l-105 -539h-106l231 1190h695l-15 -90h-592l-94 -482h502z" />
    <glyph glyph-name="G.sc" horiz-adv-x="1236" 
d="M872 -209l-94 -2l51 229q-313 -91 -499.5 17.5t-186.5 386.5q0 151 50.5 295.5t135.5 254t205.5 176t251.5 66.5q165 0 231.5 -102t57.5 -321l-98 -3q2 176 -41.5 256t-171.5 80q-146 0 -266 -101t-184 -256.5t-64 -324.5q0 -248 159 -336t441 -4l80 355l102 2z" />
    <glyph glyph-name="H.sc" horiz-adv-x="1323" 
d="M877 0l108 563h-645l-109 -563h-104l231 1190h105l-107 -547h645l107 547h106l-233 -1190h-104z" />
    <glyph glyph-name="I.sc" horiz-adv-x="987" 
d="M453 82h280l-18 -82h-658l17 82h274l199 1026h-281l17 82h657l-16 -82h-273z" />
    <glyph glyph-name="J.sc" horiz-adv-x="942" 
d="M31 -23l16 97q207 -2 303 10.5t137 52.5q29 30 49.5 100.5t61.5 268.5l117 602h-381l18 82h484l-129 -670q-44 -229 -73 -310.5t-71 -123.5q-57 -57 -181.5 -83t-350.5 -26z" />
    <glyph glyph-name="K.sc" horiz-adv-x="1157" 
d="M834 -8l-416 606l616 592h119l-612 -594l407 -590zM358 1190h105l-232 -1190h-104z" />
    <glyph glyph-name="L.sc" horiz-adv-x="1024" 
d="M817 0h-690l231 1190h105l-213 -1100h590z" />
    <glyph glyph-name="M.sc" horiz-adv-x="1476" 
d="M514 1192l160 -932h4l528 930h160l-229 -1190h-105l215 1073h-10l-532 -942h-103l-164 940h-10l-201 -1071h-100l231 1186z" />
    <glyph glyph-name="N.sc" horiz-adv-x="1333" 
d="M870 0l-428 1063h-12l-203 -1063h-100l231 1188l138 2l417 -1036h13l198 1036h101l-232 -1190h-123z" />
    <glyph glyph-name="O.sc" horiz-adv-x="1310" 
d="M766 1214q186 0 303 -128.5t117 -346.5q0 -206 -83.5 -382t-227 -279t-312.5 -103q-188 0 -304 129t-116 349q0 206 84 381.5t227.5 277.5t311.5 102zM582 63q137 0 252 89t181 241t66 332q0 184 -93 292.5t-240 108.5q-138 0 -252.5 -89.5t-180 -241t-65.5 -330.5
q0 -185 92 -293.5t240 -108.5z" />
    <glyph glyph-name="P.sc" horiz-adv-x="1101" 
d="M233 0h-106l231 1184q183 21 313.5 9.5t213 -57t121 -110t38.5 -149.5q0 -195 -193 -318t-540 -151zM942 862q0 134 -123.5 200.5t-372.5 41.5l-114 -598q293 6 451.5 100t158.5 256z" />
    <glyph glyph-name="Q.sc" horiz-adv-x="1239" 
d="M938 -246l-606 238l22 67q301 112 488.5 314.5t187.5 429.5q0 151 -87 237t-243 86q-167 0 -283 -115.5t-140.5 -311.5t73.5 -455l-86 -35q-60 129 -82 257.5t-6.5 238t62.5 204.5t118.5 162t167.5 105t205 38q193 0 300.5 -113.5t107.5 -293.5q0 -233 -179.5 -441.5
t-470.5 -336.5l486 -187z" />
    <glyph glyph-name="R.sc" horiz-adv-x="1165" 
d="M872 -10l-389 540l4 7q245 103 347 185t102 193q0 110 -124.5 163.5t-362.5 29.5l-216 -1108h-106l231 1188q181 19 310.5 9.5t212 -47.5t121 -92.5t38.5 -125.5q0 -127 -105.5 -226t-320.5 -192l369 -506z" />
    <glyph glyph-name="S.sc" horiz-adv-x="1040" 
d="M928 891l-97 -19q-15 128 -72 190t-159 62q-108 0 -180 -70.5t-72 -166.5q0 -48 26.5 -95.5t69 -88t94.5 -81t103.5 -81.5t94 -83t69 -92t26.5 -102q0 -75 -43 -135t-137 -102t-242.5 -42.5t-359.5 44.5l23 102q142 -38 256.5 -51t188 -3.5t122.5 36t69.5 61.5t20.5 78
t-26.5 86t-69 81t-94 77t-103.5 80.5t-94.5 85.5t-69 98.5t-26.5 111.5q0 134 112 236t273 102q262 0 297 -319z" />
    <glyph glyph-name="T.sc" horiz-adv-x="1081" 
d="M700 1102l-213 -1102h-106l215 1102h-389l14 88h883l-17 -88h-387z" />
    <glyph glyph-name="U.sc" horiz-adv-x="1280" 
d="M309 494q-88 -431 262 -431q145 0 236.5 86t128.5 275l147 766h105l-150 -770q-85 -445 -479 -445q-76 0 -138 17.5t-114 55.5t-80.5 99.5t-37.5 149.5t16 205l135 688h104z" />
    <glyph glyph-name="V.sc" horiz-adv-x="1161" 
d="M545 0h-154q-95 640 -149 1186l102 6q51 -498 131 -1098h19q341 622 577 1096h105q-300 -595 -631 -1190z" />
    <glyph glyph-name="W.sc" horiz-adv-x="1431" 
d="M874 0l-129 713l-407 -713h-131q8 435 108 1190h103q-36 -274 -71.5 -611t-39.5 -464h10l414 731h80l133 -729h8q85 222 316 1073h102q-95 -366 -195.5 -689t-170.5 -501h-130z" />
    <glyph glyph-name="X.sc" horiz-adv-x="1177" 
d="M850 -6l-256 536l-447 -530h-116l520 608l-283 574l107 14l252 -520l432 514h119l-508 -592l286 -592z" />
    <glyph glyph-name="Y.sc" horiz-adv-x="1159" 
d="M520 0h-102l78 408l-267 778l107 6l233 -703l500 701h115l-586 -801z" />
    <glyph glyph-name="Z.sc" horiz-adv-x="1128" 
d="M864 0h-809l15 88l891 1014l-674 -2l16 90h791l-17 -88l-887 -1016l693 4z" />
    <glyph glyph-name="AE.sc" horiz-adv-x="1724" 
d="M981 1100q-241 -290 -537 -662h422l129 662h-14zM780 0l70 360h-467q-256 -322 -285 -360h-116q473 609 958 1190h758l-17 -90h-581l-88 -459h495l-14 -78h-498l-90 -475h582l-23 -88h-684z" />
    <glyph glyph-name="OE.sc" horiz-adv-x="1753" 
d="M1516 88l-23 -88h-662q-349 0 -515 115.5t-166 361.5q0 121 30 224.5t99 195t173 155.5t260 101t353 37h661l-16 -90h-584l-88 -459h498l-14 -78h-498l-92 -475h584zM254 487q0 -209 137 -303t434 -94l199 1010q-170 0 -302.5 -31.5t-219.5 -85.5t-143.5 -132.5
t-80.5 -168t-24 -195.5z" />
    <glyph glyph-name="Thorn.sc" horiz-adv-x="1101" 
d="M233 0h-106l231 1186l103 -4l-37 -193q151 11 265 -8.5t182 -63.5t101.5 -106t33.5 -141q0 -194 -193 -317t-541 -152zM903 655q0 135 -123 202t-374 40l-115 -596q294 4 453 98.5t159 255.5z" />
    <glyph glyph-name="Eth.sc" horiz-adv-x="1241" 
d="M1122 727q0 -112 -27 -213.5t-81 -190t-136 -156.5t-192.5 -113t-250 -59t-308.5 5l111 569h-156l14 78h158l104 541q358 53 561 -65t203 -396zM651 569h-309l-94 -487q156 -13 285 14t218 84.5t150 141t89 182.5t28 211q0 227 -149.5 325t-422.5 70l-90 -463h314z" />
    <glyph glyph-name="Dcroat.sc" horiz-adv-x="1247" 
d="M1122 727q0 -112 -27 -213.5t-81 -190t-136 -156.5t-192.5 -113t-250 -59t-308.5 5l111 569h-156l14 78h158l104 541q358 53 561 -65t203 -396zM651 569h-309l-94 -487q156 -13 285 14t218 84.5t150 141t89 182.5t28 211q0 227 -149.5 325t-422.5 70l-90 -463h314z" />
    <glyph glyph-name="Hbar.sc" horiz-adv-x="1323" 
d="M1001 643l43 221h-645l-43 -221h645zM877 0l108 563h-645l-109 -563h-104l168 862h-156l17 82h155l47 246h105l-49 -250h645l49 250h106l-49 -246h154l-16 -82h-152l-170 -862h-104z" />
    <glyph glyph-name="Lslash.sc" horiz-adv-x="1024" 
d="M817 0h-690l106 545l-182 -88l-4 88l205 98l106 547h105l-94 -490l348 168l2 -88l-371 -180l-98 -510h590z" />
    <glyph glyph-name="Oslash.sc" horiz-adv-x="1310" 
d="M250 465q0 -106 33 -193l718 727q-91 127 -253 127q-138 0 -252.5 -89.5t-180 -241t-65.5 -330.5zM582 63q137 0 252 89t181 241t66 332q0 113 -37 201l-720 -729q92 -134 258 -134zM563 -25q-198 0 -317 144l-162 -164l-59 55l178 178q-60 111 -60 265q0 206 84 381.5
t227.5 277.5t311.5 102q193 0 311 -137l158 160l59 -55l-172 -172q64 -116 64 -271q0 -206 -83.5 -382t-227 -279t-312.5 -103z" />
    <glyph glyph-name="Ccedilla.sc" horiz-adv-x="1185" 
d="M938 43q-176 -62 -334 -68q95 -95 78 -360h-96q9 166 -19 246t-84 80q-96 0 -204 -260l-60 22q86 230 195 297q-131 40 -201 147.5t-70 274.5q0 152 49.5 296.5t133.5 253.5t201.5 175.5t246.5 66.5q164 0 226.5 -103.5t54.5 -319.5l-101 -3q1 70 -2.5 118t-15 92.5
t-33.5 70t-58.5 40.5t-88.5 15q-144 0 -262 -101t-181 -256t-63 -323q0 -269 183 -348t513 45z" />
    <glyph glyph-name="Scedilla.sc" horiz-adv-x="1040" 
d="M582 -383h-97q17 326 -102 326q-97 0 -205 -260l-59 22q79 214 176 283q-120 13 -246 41l23 102q142 -38 256.5 -51t188 -3.5t122.5 36t69.5 61.5t20.5 78t-26.5 86t-69 81t-94 77t-103.5 80.5t-94.5 85.5t-69 98.5t-26.5 111.5q0 134 112 236t273 102q262 0 297 -319
l-97 -19q-15 128 -72 190t-159 62q-108 0 -180 -70.5t-72 -166.5q0 -48 26.5 -95.5t69 -88t94.5 -81t103.5 -81.5t94 -83t69 -92t26.5 -102q0 -104 -84.5 -180t-254.5 -94q107 -89 90 -373z" />
    <glyph glyph-name="Aogonek.sc" horiz-adv-x="1200" 
d="M915 -375q-83 -47 -155.5 -70t-123 -21.5t-87 19.5t-53.5 48.5t-17 68.5q0 81 97.5 172t297.5 183q-8 86 -45 372h-493q-71 -131 -209 -397h-104q313 612 641 1196h153q110 -716 164 -1190l2 -2q-405 -168 -405 -307q0 -25 11 -43.5t35.5 -28.5t61 -9t91.5 16.5t122 45.5
zM719 1106q-207 -377 -340 -629h440q-36 277 -88 629h-12z" />
    <glyph glyph-name="Eogonek.sc" horiz-adv-x="1071" 
d="M743 -379q-83 -47 -155.5 -70t-123 -21.5t-87 19.5t-53.5 48.5t-17 68.5q0 77 87.5 162.5t267.5 171.5h-535l231 1190h686l-16 -90h-582l-90 -459h498l-14 -78h-498l-92 -475h584l-23 -88q-405 -168 -405 -307q0 -25 11 -43.5t35.5 -28.5t61 -9t91.5 16.5t122 45.5z" />
    <glyph glyph-name="Iogonek.sc" horiz-adv-x="987" 
d="M535 -377q-98 -57 -183 -78t-139 -8t-84.5 48.5t-30.5 86.5q0 74 60.5 160t173.5 168h-275l17 82h274l199 1026h-281l17 82h657l-16 -82h-273l-198 -1026h280l-18 -82h-275q-119 -75 -181 -156.5t-62 -148.5q0 -45 34 -66.5t108.5 -11t178.5 58.5z" />
    <glyph glyph-name="Uogonek.sc" horiz-adv-x="1280" 
d="M709 -377q-103 -59 -187.5 -79.5t-134.5 -6t-77 48.5t-27 82q0 149 290 307h-14q-76 0 -138 17.5t-114 55.5t-80.5 99.5t-37.5 149.5t16 205l135 688h106l-137 -696q-88 -431 262 -431q145 0 236.5 86t128.5 275l147 766h105l-150 -770q-32 -167 -99.5 -260.5
t-203.5 -163.5q-180 -88 -267 -161.5t-87 -141.5q0 -25 10 -42.5t33 -27.5t58.5 -9t89 16.5t120.5 45.5z" />
    <glyph glyph-name="Aring.sc" horiz-adv-x="1200" 
d="M829 1806q113 0 185.5 -61t72.5 -156q0 -106 -82 -179t-206 -73q-113 0 -185.5 61.5t-72.5 157.5q0 105 82.5 177.5t205.5 72.5zM821 1735q-84 0 -140 -49.5t-56 -120.5q0 -68 51.5 -112t130.5 -44q84 0 141.5 49.5t57.5 120.5q0 67 -52.5 111.5t-132.5 44.5zM879 -4
q-13 124 -50 401h-493q-71 -131 -209 -397h-104q313 612 641 1196h153q110 -717 164 -1192zM719 1106q-207 -377 -340 -629h440q-36 277 -88 629h-12z" />
    <glyph glyph-name="Aringacute.sc" horiz-adv-x="1200" 
d="M684 1966q101 71 225 182t209 205l84 -90q-93 -82 -231.5 -177.5t-261.5 -166.5zM829 1806q113 0 185.5 -61t72.5 -156q0 -106 -82 -179t-206 -73q-113 0 -185.5 61.5t-72.5 157.5q0 105 82.5 177.5t205.5 72.5zM821 1735q-84 0 -140 -49.5t-56 -120.5q0 -68 51.5 -112
t130.5 -44q84 0 141.5 49.5t57.5 120.5q0 67 -52.5 111.5t-132.5 44.5zM879 -4q-13 124 -50 401h-493q-71 -131 -209 -397h-104q313 612 641 1196h153q110 -717 164 -1192zM719 1106q-207 -377 -340 -629h440q-36 277 -88 629h-12z" />
    <glyph glyph-name="Ldot.sc" horiz-adv-x="1024" 
d="M817 0h-690l231 1190h105l-213 -1100h590zM854 528h-149l34 187h152z" />
    <glyph glyph-name="Aacute.sc" horiz-adv-x="1200" 
d="M578 1417q101 71 225 182t209 205l84 -90q-93 -81 -231.5 -176.5t-262.5 -167.5zM879 -4q-13 124 -50 401h-493q-71 -131 -209 -397h-104q313 612 641 1196h153q110 -717 164 -1192zM719 1106q-207 -377 -340 -629h440q-36 277 -88 629h-12z" />
    <glyph glyph-name="Agrave.sc" horiz-adv-x="1200" 
d="M954 1397l-32 -47q-95 74 -208.5 183.5t-185.5 201.5l88 84q66 -102 163 -224t175 -198zM879 -4q-13 124 -50 401h-493q-71 -131 -209 -397h-104q313 612 641 1196h153q110 -717 164 -1192zM719 1106q-207 -377 -340 -629h440q-36 277 -88 629h-12z" />
    <glyph glyph-name="Acircumflex.sc" horiz-adv-x="1200" 
d="M1057 1372l-215 289l-350 -279l-52 60l420 336h2l268 -346zM879 -4q-13 124 -50 401h-493q-71 -131 -209 -397h-104q313 612 641 1196h153q110 -717 164 -1192zM719 1106q-207 -377 -340 -629h440q-36 277 -88 629h-12z" />
    <glyph glyph-name="Abreve.sc" horiz-adv-x="1200" 
d="M1149 1751l61 -41q-224 -321 -424 -321q-102 0 -177.5 79.5t-133.5 249.5l82 39q56 -153 112.5 -216.5t137.5 -63.5q83 0 161 66.5t181 207.5zM879 -4q-13 124 -50 401h-493q-71 -131 -209 -397h-104q313 612 641 1196h153q110 -717 164 -1192zM719 1106
q-207 -377 -340 -629h440q-36 277 -88 629h-12z" />
    <glyph glyph-name="Atilde.sc" horiz-adv-x="1200" 
d="M961 1479q47 0 98.5 64.5t124.5 191.5l59 -35q-85 -153 -158.5 -229t-146.5 -76q-47 0 -86.5 40.5t-62.5 88.5t-55 88.5t-66 40.5q-48 0 -102 -62.5t-122 -181.5l-57 35q83 150 157 222.5t148 72.5q39 0 71.5 -27t55 -65t43 -76t46 -65t53.5 -27zM879 -4q-13 124 -50 401
h-493q-71 -131 -209 -397h-104q313 612 641 1196h153q110 -717 164 -1192zM719 1106q-207 -377 -340 -629h440q-36 277 -88 629h-12z" />
    <glyph glyph-name="Adieresis.sc" horiz-adv-x="1200" 
d="M1036 1397l-102 -2l70 293l116 4zM596 1391l-102 -2l69 294l117 3zM879 -4q-13 124 -50 401h-493q-71 -131 -209 -397h-104q313 612 641 1196h153q110 -717 164 -1192zM719 1106q-207 -377 -340 -629h440q-36 277 -88 629h-12z" />
    <glyph glyph-name="Amacron.sc" horiz-adv-x="1200" 
d="M1149 1591l-19 -90h-661l16 90h664zM879 -4q-13 124 -50 401h-493q-71 -131 -209 -397h-104q313 612 641 1196h153q110 -717 164 -1192zM719 1106q-207 -377 -340 -629h440q-36 277 -88 629h-12z" />
    <glyph glyph-name="Cacute.sc" horiz-adv-x="1185" 
d="M618 1436q101 71 225.5 182t209.5 205l84 -90q-93 -81 -231.5 -176.5t-262.5 -167.5zM774 1214q164 0 226.5 -103.5t54.5 -319.5l-101 -3q1 70 -2.5 118t-15 92.5t-33.5 70t-58.5 40.5t-88.5 15q-144 0 -262 -101t-181 -256t-63 -323q0 -269 183 -348t513 45l-8 -98
q-246 -80 -422.5 -63.5t-274.5 131t-98 311.5q0 152 49.5 296.5t133.5 253.5t201.5 175.5t246.5 66.5z" />
    <glyph glyph-name="Ccaron.sc" horiz-adv-x="1185" 
d="M811 1384h-2l-268 345l73 59l215 -289l351 279l51 -60zM774 1214q164 0 226.5 -103.5t54.5 -319.5l-101 -3q1 70 -2.5 118t-15 92.5t-33.5 70t-58.5 40.5t-88.5 15q-144 0 -262 -101t-181 -256t-63 -323q0 -269 183 -348t513 45l-8 -98q-246 -80 -422.5 -63.5t-274.5 131
t-98 311.5q0 152 49.5 296.5t133.5 253.5t201.5 175.5t246.5 66.5z" />
    <glyph glyph-name="Cdotaccent.sc" horiz-adv-x="1185" 
d="M858 1411l-102 -2l69 295l117 2zM774 1214q164 0 226.5 -103.5t54.5 -319.5l-101 -3q1 70 -2.5 118t-15 92.5t-33.5 70t-58.5 40.5t-88.5 15q-144 0 -262 -101t-181 -256t-63 -323q0 -269 183 -348t513 45l-8 -98q-246 -80 -422.5 -63.5t-274.5 131t-98 311.5
q0 152 49.5 296.5t133.5 253.5t201.5 175.5t246.5 66.5z" />
    <glyph glyph-name="Dcaron.sc" horiz-adv-x="1247" 
d="M760 1372h-2l-269 344l74 60l215 -289l350 278l52 -59zM1122 727q0 -112 -27 -213.5t-81 -190t-136 -156.5t-192.5 -113t-250 -59t-308.5 5l231 1188q358 53 561 -65t203 -396zM1018 715q0 227 -149.5 325t-422.5 70l-198 -1028q156 -13 285 14t218 84.5t150 141
t89 182.5t28 211z" />
    <glyph glyph-name="Eacute.sc" horiz-adv-x="1071" 
d="M539 1409q101 71 225 182t209 205l84 -90q-93 -81 -231.5 -176.5t-262.5 -167.5zM834 88l-23 -88h-684l231 1190h686l-16 -90h-582l-90 -459h498l-14 -78h-498l-92 -475h584z" />
    </font>
</defs>
</svg>
