<?xml version="1.0" standalone="no"?>
<!DOCTYPE svg PUBLIC "-//W3C//DTD SVG 1.1//EN" "http://www.w3.org/Graphics/SVG/1.1/DTD/svg11.dtd" >
<svg xmlns="http://www.w3.org/2000/svg" xmlns:xlink="http://www.w3.org/1999/xlink" version="1.1">
<metadata>
Created by FontForge 20170731 at Sat May 29 02:57:31 2021
 By Aleksey,,,
Copyright (C) 2016 Hoefler &#38; Co. http://www.typography.com
</metadata>
<defs>
<font id="OperatorSSm-BoldItalic" horiz-adv-x="1103" >
  <font-face 
    font-family="Operator SSm Bold"
    font-weight="400"
    font-style="italic"
    font-stretch="normal"
    units-per-em="2048"
    panose-1="2 0 0 0 0 0 0 0 0 0"
    ascent="1638"
    descent="-410"
    x-height="1153"
    cap-height="1409"
    bbox="-301 -825 2351 2621"
    underline-thickness="253"
    underline-position="-496"
    slope="-11"
    unicode-range="U+0020-E10D"
  />
<missing-glyph horiz-adv-x="1024" 
d="M0 -410v2048h1024v-2048h-1024zM145 1536l367 -799l367 799h-734zM922 1384l-353 -770l353 -770v1540zM102 -156l353 770l-353 770v-1540zM512 492l-367 -799h734z" />
    <glyph glyph-name=".notdef" horiz-adv-x="1024" 
d="M0 -410v2048h1024v-2048h-1024zM145 1536l367 -799l367 799h-734zM922 1384l-353 -770l353 -770v1540zM102 -156l353 770l-353 770v-1540zM512 492l-367 -799h734z" />
    <glyph glyph-name=".null" horiz-adv-x="0" 
 />
    <glyph glyph-name="nonmarkingreturn" horiz-adv-x="682" 
 />
    <glyph glyph-name="space" unicode=" " horiz-adv-x="598" 
 />
    <glyph glyph-name="exclam" unicode="!" horiz-adv-x="806" 
d="M518 586h-217l90 956h414zM477 0h-379l70 354h379z" />
    <glyph glyph-name="quotedbl" unicode="&#x22;" horiz-adv-x="1294" 
d="M1014 840h-232l117 702h358l-18 -125zM510 840h-231l116 702h359l-19 -125z" />
    <glyph glyph-name="numbersign" unicode="#" horiz-adv-x="1277" 
d="M539 582l192 34l39 218l-192 -35zM428 -16l-221 -29l59 313l-196 -35l53 275l194 35l39 217l-190 -35l53 272l189 35l65 346l217 27l-61 -334l192 35l60 324l221 26l-58 -309l197 35l-51 -275l-197 -35l-41 -215l197 35l-53 -274l-195 -35l-65 -348l-218 -27l62 336
l-193 -35z" />
    <glyph glyph-name="dollar" unicode="$" horiz-adv-x="1271" 
d="M514 1018q0 -46 115 -129l57 190q-172 6 -172 -61zM807 397q0 50 -113 131l-57 -198q170 0 170 67zM541 -156h-285l74 242q-132 13 -260 35l59 282q193 -42 320 -59l88 295q-71 51 -117 88.5t-97.5 89.5t-77.5 104.5t-26 106.5q0 57 28.5 107.5t86.5 93.5t158.5 70.5
t232.5 31.5l66 232l286 -2l-82 -244q96 -12 209 -33l-57 -283q-173 44 -279 60l-88 -283q69 -50 119 -91t101 -93.5t77.5 -107.5t26.5 -109q0 -55 -27 -104t-84 -91.5t-157 -70t-234 -33.5z" />
    <glyph glyph-name="percent" unicode="%" horiz-adv-x="1816" 
d="M596 1438q104 0 174 -68t70 -184q0 -155 -101 -262t-233 -107q-105 0 -175.5 68t-70.5 184q0 77 28.5 146.5t75 117.5t107.5 76.5t125 28.5zM348 -25l-149 164l1308 1295l150 -162zM1257 -31q-104 0 -173.5 68t-69.5 184q0 153 101 260t233 107q105 0 175 -68t70 -184
q0 -153 -102 -260t-234 -107z" />
    <glyph glyph-name="ampersand" unicode="&#x26;" horiz-adv-x="1452" 
d="M1137 -47q-141 144 -228 252q-266 -225 -528 -225q-165 0 -256.5 89.5t-91.5 239.5q0 328 475 641q-12 62 -12 115q0 96 32 172.5t84 121.5t112.5 68t123.5 23q95 0 153 -46.5t58 -129.5q0 -80 -61.5 -180t-176.5 -197q53 -130 148 -272q88 117 174 272l266 -96
q-154 -231 -285 -379q109 -129 265 -285zM477 260q128 0 289 137q-118 174 -186 328q-238 -188 -238 -340q0 -63 36.5 -94t98.5 -31z" />
    <glyph glyph-name="quotesingle" unicode="'" horiz-adv-x="790" 
d="M526 840h-231l117 702h360l-20 -125z" />
    <glyph glyph-name="parenleft" unicode="(" horiz-adv-x="954" 
d="M877 1653l174 -201q-183 -143 -307.5 -272t-194.5 -249t-99.5 -229.5t-29.5 -230.5q0 -352 315 -782l-243 -164q-193 267 -283 494.5t-90 439.5q0 203 71.5 387.5t240 385.5t446.5 421z" />
    <glyph glyph-name="parenright" unicode=")" horiz-adv-x="954" 
d="M74 -475l-174 201q183 143 307.5 272t194.5 249.5t99 230t29 231.5q0 353 -315 780l244 164q193 -267 282.5 -494.5t89.5 -439.5q0 -203 -71 -387t-239.5 -385.5t-446.5 -421.5z" />
    <glyph glyph-name="asterisk" unicode="*" horiz-adv-x="1345" 
d="M844 451l-172 299l-303 -160l-131 166l227 250l-250 245l119 176l309 -143l152 313l206 -55l-30 -348l336 -43l14 -209l-340 -78l57 -336z" />
    <glyph glyph-name="plus" unicode="+" horiz-adv-x="1277" 
d="M1147 553h-365l-75 -385h-291l76 385h-367l53 272h367l73 383h291l-73 -383h366z" />
    <glyph glyph-name="comma" unicode="," horiz-adv-x="800" 
d="M16 -252q94 142 126.5 290.5t29.5 352.5l387 8q-1 -208 -105.5 -379.5t-308.5 -341.5z" />
    <glyph glyph-name="hyphen" unicode="-" horiz-adv-x="884" 
d="M799 827l-51 -276h-635l53 276h633z" />
    <glyph glyph-name="period" unicode="." horiz-adv-x="784" 
d="M481 0h-389l68 385h391z" />
    <glyph glyph-name="slash" unicode="/" horiz-adv-x="1075" 
d="M1030 1667l277 -82l-1227 -2019l-287 63z" />
    <glyph glyph-name="zero" unicode="0" horiz-adv-x="1277" 
d="M109 500q0 187 51.5 359t140.5 300t215.5 204.5t269.5 76.5q198 0 315.5 -136.5t117.5 -390.5q0 -250 -89 -466.5t-247 -347t-348 -130.5q-195 0 -310.5 137t-115.5 394zM416 539q0 -149 46 -224t132 -75q88 0 162.5 96.5t114.5 240.5t40 293q0 148 -47.5 224.5
t-132.5 76.5q-88 0 -162 -97t-113.5 -241.5t-39.5 -293.5z" />
    <glyph glyph-name="one" unicode="1" horiz-adv-x="1277" 
d="M1038 0h-944l53 268h345l139 717h-322l41 244l334 33l33 168l307 24l-231 -1186h321z" />
    <glyph glyph-name="two" unicode="2" horiz-adv-x="1277" 
d="M1026 0h-944l10 252q131 83 223 144t183.5 127t149.5 118t105 106t68 104t21 99q0 55 -27.5 92t-93 61.5t-174 24.5t-271.5 -20l50 295q404 64 623.5 -32.5t219.5 -330.5q0 -104 -42.5 -199t-134 -190t-206 -181.5t-286.5 -197.5h579z" />
    <glyph glyph-name="three" unicode="3" horiz-adv-x="1277" 
d="M1102 420q0 -71 -34.5 -138.5t-109 -129t-191.5 -101.5t-281.5 -57t-379.5 6l39 297q150 -21 267 -26.5t189 1.5t118.5 24.5t64 39t17.5 49.5q0 64 -121.5 131.5t-368.5 128.5l19 137l522 351h-549l53 276h865l-33 -274l-496 -338q211 -68 310.5 -164.5t99.5 -212.5z" />
    <glyph glyph-name="four" unicode="4" horiz-adv-x="1277" 
d="M1112 248h-117l-49 -248h-289l50 248h-633l16 217q123 222 212 439t181 523l336 -18q-102 -293 -200.5 -497t-223.5 -390l365 -2l80 412l293 22l-84 -434h141z" />
    <glyph glyph-name="five" unicode="5" horiz-adv-x="1277" 
d="M1116 483q0 -67 -24.5 -130t-76 -123.5t-132 -107.5t-193 -81t-258.5 -44t-328 3l39 297q157 -17 271.5 -14.5t191.5 14t123 35.5t65 51t19 59q0 53 -51.5 96t-176.5 82t-327 70l158 719h825l-82 -276l-514 2l-55 -244q526 -111 526 -408z" />
    <glyph glyph-name="six" unicode="6" horiz-adv-x="1277" 
d="M584 -33q-207 0 -330 127.5t-123 364.5q0 123 32.5 238.5t104 228t179 208t265.5 177t355 135.5l70 -275q-510 -115 -656 -411q97 64 195.5 90t181 11.5t147.5 -59t101.5 -123.5t36.5 -179q0 -153 -76.5 -276t-204 -190t-278.5 -67zM643 215q97 0 152 69.5t55 168.5
q0 67 -32 115t-86.5 69t-134 7t-167.5 -66q-2 -20 -2 -58q0 -159 61 -232t154 -73z" />
    <glyph glyph-name="seven" unicode="7" horiz-adv-x="1277" 
d="M496 -18l-320 32q317 591 727 1096l-2 14h-639l64 285h972l-57 -266q-368 -463 -745 -1161z" />
    <glyph glyph-name="eight" unicode="8" horiz-adv-x="1277" 
d="M1081 373q0 -169 -156 -285.5t-395 -116.5q-207 0 -326.5 89t-119.5 231q0 73 27.5 135.5t106 140t216.5 168.5q-168 161 -168 299q0 73 35.5 139.5t104 119t169 88.5t229.5 48.5t286 -2.5l-89 -299q-102 23 -179.5 33t-126 8t-79 -14.5t-42 -31t-11.5 -44.5
q0 -69 131 -186q175 98 449 235l98 -186q-157 -77 -383 -197q103 -96 163 -186.5t60 -185.5zM598 215q86 0 141.5 38t55.5 97q0 36 -30.5 79.5t-65.5 75.5t-101 87q-126 -82 -168.5 -134.5t-42.5 -99.5q0 -66 61 -104.5t150 -38.5z" />
    <glyph glyph-name="nine" unicode="9" horiz-adv-x="1277" 
d="M260 -37l-70 275q509 118 654 411q-96 -64 -194 -90t-180.5 -11.5t-147.5 59t-101.5 123.5t-36.5 179q0 153 76.5 276t204 190t278.5 67q207 0 330 -127.5t123 -364.5q0 -123 -32.5 -238.5t-104 -228t-179 -208t-265.5 -177t-355 -135.5zM477 956q0 -67 32 -114.5
t86.5 -68.5t134 -7.5t167.5 65.5q2 20 2 58q0 159 -61 233t-154 74q-98 0 -152.5 -70t-54.5 -170z" />
    <glyph glyph-name="colon" unicode=":" horiz-adv-x="788" 
d="M637 780h-391l71 373h392zM481 0h-391l74 373h391z" />
    <glyph glyph-name="semicolon" unicode=";" horiz-adv-x="788" 
d="M631 780h-389l71 373h392zM12 -252q94 137 128.5 279.5t37.5 341.5l385 6q-9 -196 -112.5 -362t-309.5 -332z" />
    <glyph glyph-name="less" unicode="&#x3c;" horiz-adv-x="1277" 
d="M899 74l-747 446l63 318l866 426l95 -273l-687 -307l-4 -27l570 -315z" />
    <glyph glyph-name="equal" unicode="=" horiz-adv-x="1277" 
d="M1225 1081l-54 -272h-968l53 272h969zM1128 582l-53 -271h-971l56 271h968z" />
    <glyph glyph-name="greater" unicode="&#x3e;" horiz-adv-x="1277" 
d="M238 90l-95 272l686 310l5 20l-570 318l158 270l745 -446l-63 -318z" />
    <glyph glyph-name="question" unicode="?" horiz-adv-x="1128" 
d="M281 1227l73 323q384 -41 568 -141.5t184 -265.5q0 -150 -148.5 -298t-488.5 -327l-107 162q211 123 292 193t81 141q0 85 -104 130.5t-350 82.5zM553 0h-375l70 344h373z" />
    <glyph glyph-name="at" unicode="@" horiz-adv-x="1712" 
d="M1272 -303q-200 -45 -367 -50.5t-291.5 26t-218 92.5t-151.5 153t-86.5 204t-28.5 247q0 155 37 306.5t103.5 283t163 243.5t211 191.5t252 124.5t282.5 45q278 0 388.5 -158.5t51.5 -462.5l-76 -385q-37 -186 -59 -405l-287 8l16 139q-198 -178 -342 -178
q-105 0 -171 81t-66 236q0 100 25.5 195t76.5 178t122.5 145.5t170.5 99t213 36.5q42 0 107 -7q6 120 -50.5 177t-187.5 57q-140 0 -269.5 -73t-225 -195.5t-152.5 -292.5t-57 -355q0 -129 30 -223.5t96 -161.5t170 -97.5t255 -26t348 48.5zM1020 385q40 0 101 32t120 81
l62 319q-122 33 -187 33q-49 0 -92.5 -52t-67.5 -129t-24 -153q0 -66 23.5 -98.5t64.5 -32.5z" />
    <glyph glyph-name="A" unicode="A" horiz-adv-x="1392" 
d="M887 -12q-2 56 -17 350h-430q-80 -185 -145 -338h-334q325 722 672 1409h457q74 -668 131 -1397zM797 1126q-215 -472 -248 -546h307q-8 117 -41 546h-18z" />
    <glyph glyph-name="B" unicode="B" horiz-adv-x="1331" 
d="M1194 444q0 -88 -38.5 -165t-122 -142.5t-214.5 -104t-316 -50.5t-427 20l270 1395q247 35 421.5 29t284.5 -52.5t161 -116t51 -161.5q0 -111 -75.5 -206.5t-213.5 -158.5q104 -35 161.5 -111t57.5 -176zM946 1010q0 80 -84.5 120t-236.5 25l-72 -375q193 18 293 81.5
t100 148.5zM879 438q0 92 -90.5 137.5t-270.5 28.5l-65 -350q201 -27 313.5 28t112.5 156z" />
    <glyph glyph-name="C" unicode="C" horiz-adv-x="1331" 
d="M891 1438q213 0 301 -138t80 -438l-309 -4q0 158 -31 222.5t-117 64.5q-109 0 -194 -88t-126.5 -212.5t-41.5 -254.5q0 -115 38.5 -187t121.5 -105.5t216.5 -23t321.5 65.5l-37 -287q-319 -101 -540 -75t-338 166.5t-117 377.5q0 177 62.5 345t166 293t247 201.5
t296.5 76.5z" />
    <glyph glyph-name="D" unicode="D" horiz-adv-x="1409" 
d="M1337 860q0 -130 -32 -248.5t-98.5 -225.5t-169 -188t-242.5 -136t-319 -70t-400 10l270 1399q482 75 736.5 -64.5t254.5 -476.5zM1012 823q0 347 -385 330l-172 -891q138 -7 246.5 35.5t175 121.5t101 181.5t34.5 222.5z" />
    <glyph glyph-name="E" unicode="E" horiz-adv-x="1218" 
d="M1020 276l-78 -276h-866l274 1409h875l-54 -274h-544l-60 -316h457l-45 -225h-455l-61 -318h557z" />
    <glyph glyph-name="F" unicode="F" horiz-adv-x="1179" 
d="M971 549h-455l-106 -549h-334l274 1409h875l-54 -279h-540l-66 -331h453z" />
    <glyph glyph-name="G" unicode="G" horiz-adv-x="1378" 
d="M1055 -242l-301 -4l55 240q-322 -58 -506 85t-184 441q0 176 63.5 345t168.5 294.5t249 202t297 76.5q217 0 308 -138.5t83 -437.5l-309 -4q-3 157 -36.5 222t-121.5 65q-109 0 -195.5 -88.5t-129.5 -216t-43 -260.5q0 -189 103 -270.5t316 -41.5l68 293l311 10z" />
    <glyph glyph-name="H" unicode="H" horiz-adv-x="1495" 
d="M860 0l113 580h-447l-112 -580h-338l274 1409h336l-111 -571h447l111 571h335l-272 -1409h-336z" />
    <glyph glyph-name="I" unicode="I" horiz-adv-x="1177" 
d="M690 260h289l-64 -260h-882l51 260h274l172 891h-276l51 258h883l-51 -258h-275z" />
    <glyph glyph-name="J" unicode="J" horiz-adv-x="1118" 
d="M776 111q-73 -73 -249.5 -106.5t-510.5 -27.5l47 297q261 -5 345.5 1.5t111.5 33.5q24 25 43 90t58 269l96 483h-371l53 258h703l-141 -715q-44 -231 -74 -346t-51 -156t-60 -81z" />
    <glyph glyph-name="K" unicode="K" horiz-adv-x="1376" 
d="M889 -20l-346 716l-135 -696h-332l274 1409h330l-135 -698l565 698h358l-577 -704l348 -685z" />
    <glyph glyph-name="L" unicode="L" horiz-adv-x="1140" 
d="M942 0h-866l274 1409h336l-219 -1128h530z" />
    <glyph glyph-name="M" unicode="M" horiz-adv-x="1726" 
d="M766 1419l96 -815h8l412 805h420l-272 -1409h-320l207 961h-17l-440 -855h-194l-107 857h-16l-164 -963h-303l272 1401z" />
    <glyph glyph-name="N" unicode="N" horiz-adv-x="1503" 
d="M870 0l-299 924h-18l-172 -924h-305l272 1403l361 12l284 -878h17l164 872h305l-275 -1409h-334z" />
    <glyph glyph-name="O" unicode="O" horiz-adv-x="1474" 
d="M893 1442q230 0 371 -154t141 -424q0 -180 -60 -345t-162.5 -286.5t-245.5 -193.5t-302 -72q-230 0 -372 154t-142 424q0 180 60.5 345t163 286.5t246 193.5t302.5 72zM698 254q112 0 198 86t128.5 216.5t42.5 277.5q0 158 -67.5 239.5t-172.5 81.5q-84 0 -155 -50
t-117 -132t-71 -184.5t-25 -210.5q0 -158 67.5 -241t171.5 -83z" />
    <glyph glyph-name="P" unicode="P" horiz-adv-x="1304" 
d="M406 0h-330l270 1401q202 31 357 25.5t266 -36.5t181.5 -88t104 -130.5t33.5 -163.5q0 -243 -213.5 -408.5t-595.5 -222.5zM967 952q0 109 -89.5 165t-248.5 36l-94 -485q103 -12 187 6t136.5 59t80.5 97t28 122z" />
    <glyph glyph-name="Q" unicode="Q" horiz-adv-x="1429" 
d="M1075 -358l-788 305l73 235q302 98 487 295.5t185 415.5q0 124 -64 195t-177 71q-185 0 -269 -196.5t-14 -554.5l-283 -113q-60 137 -75 279t11 267t89 236.5t152 191.5t208 126.5t250 46.5q125 0 224 -40t161.5 -110.5t95.5 -163.5t33 -202q0 -259 -179 -480t-474 -360
l461 -160z" />
    <glyph glyph-name="R" unicode="R" horiz-adv-x="1359" 
d="M862 -23l-289 664v2q204 88 289.5 170t85.5 176q0 93 -82 135t-241 25l-222 -1149h-327l270 1399q174 24 316 26.5t242.5 -15.5t174 -50.5t116.5 -80.5t63 -102.5t20 -119.5q0 -264 -344 -465l280 -569z" />
    <glyph glyph-name="S" unicode="S" horiz-adv-x="1175" 
d="M1155 1014l-278 -60q-26 106 -72 155.5t-117 49.5q-63 0 -104 -39t-41 -96q0 -39 27 -80.5t70.5 -80t95.5 -80t104.5 -87.5t96 -94t70.5 -107.5t27 -121.5q0 -63 -25 -121.5t-74.5 -111t-131 -90t-187 -57.5t-252 -13t-315.5 43l66 311q125 -36 225 -53.5t164.5 -18
t107 12t60.5 33.5t18 50q0 34 -26 70.5t-68 71.5t-93 73t-101.5 82.5t-92.5 92.5t-68 110t-26 129q0 87 40.5 168.5t109.5 143.5t169 99.5t211 37.5q184 0 280 -105t130 -317z" />
    <glyph glyph-name="T" unicode="T" horiz-adv-x="1241" 
d="M895 1128l-219 -1128h-336l219 1128h-371l56 281h1075l-53 -281h-371z" />
    <glyph glyph-name="U" unicode="U" horiz-adv-x="1464" 
d="M510 590q-16 -96 -12 -161t31 -104t63.5 -56t85.5 -17q215 0 266 266l172 891h334l-170 -874q-55 -279 -225.5 -421.5t-417.5 -142.5q-129 0 -224 37t-160 117.5t-80.5 207t15.5 306.5l150 770h332z" />
    <glyph glyph-name="V" unicode="V" horiz-adv-x="1306" 
d="M768 0h-461q-85 753 -110 1399l335 20q17 -615 56 -1097h26q259 559 476 1087h335q-326 -743 -657 -1409z" />
    <glyph glyph-name="W" unicode="W" horiz-adv-x="1589" 
d="M887 0l-96 584l-310 -584h-323q2 215 35 598t90 811h323l-137 -973h16l314 621h180l84 -619h10l242 971h313q-111 -436 -225 -817t-193 -592h-323z" />
    <glyph glyph-name="X" unicode="X" horiz-adv-x="1345" 
d="M829 -8l-186 479l-334 -471h-360l559 713l-291 690l354 14l187 -487l338 479h364l-565 -719l291 -682z" />
    <glyph glyph-name="Y" unicode="Y" horiz-adv-x="1329" 
d="M721 0h-334l94 485l-282 918l340 14l176 -641l393 633h346l-643 -954z" />
    <glyph glyph-name="Z" unicode="Z" horiz-adv-x="1236" 
d="M1006 0h-983l51 279l762 847l-594 -6l57 289h961l-48 -279l-755 -847l606 6z" />
    <glyph glyph-name="bracketleft" unicode="[" horiz-adv-x="948" 
d="M-8 -410l391 2012h678l-51 -254h-373l-291 -1504h373l-49 -254h-678z" />
    <glyph glyph-name="backslash" unicode="\" horiz-adv-x="1069" 
d="M440 1673l475 -2058l-280 -64l-473 2061z" />
    <glyph glyph-name="bracketright" unicode="]" horiz-adv-x="948" 
d="M965 1604l-392 -2012h-677l51 254h372l291 1504h-372l51 254h676z" />
    <glyph glyph-name="asciicircum" unicode="^" horiz-adv-x="1277" 
d="M944 311l-282 437l-361 -437l-197 168l580 676l55 6l459 -688z" />
    <glyph glyph-name="underscore" unicode="_" horiz-adv-x="1032" 
d="M905 -115l-51 -258h-1032l49 258h1034z" />
    <glyph glyph-name="grave" unicode="`" horiz-adv-x="1157" 
d="M954 1405l-59 -137q-128 36 -305.5 116.5t-306.5 159.5l174 258q117 -107 255 -218.5t242 -178.5z" />
    <glyph glyph-name="a" unicode="a" horiz-adv-x="1310" 
d="M498 272q45 0 112 33.5t138 89.5q73 380 94 484q-122 32 -187 32q-68 0 -128.5 -75t-95 -186t-34.5 -220q0 -79 27.5 -118.5t73.5 -39.5zM1251 109q-148 -80 -254 -112.5t-167 -17t-86.5 66t-20.5 138.5q-105 -97 -210 -156t-191 -59q-110 0 -179 92.5t-69 268.5
q0 126 33 249t98.5 231t155.5 190.5t213 130t262 47.5q172 0 362 -58l-154 -798q-12 -64 13.5 -72.5t167.5 18.5z" />
    <glyph glyph-name="b" unicode="b" horiz-adv-x="1288" 
d="M449 -29q-82 0 -186 21t-185 51l299 1538l317 23l-116 -603q211 185 364 185q116 0 192 -99t76 -286q0 -124 -32 -244t-97 -225.5t-155 -186t-213 -127.5t-264 -47zM629 236q68 0 130.5 76.5t98 187t35.5 215.5q0 89 -32.5 133.5t-86.5 44.5q-90 0 -244 -129l-94 -492
q112 -36 193 -36z" />
    <glyph glyph-name="c" unicode="c" horiz-adv-x="1148" 
d="M1085 733l-288 -4q5 97 -18.5 141.5t-86.5 44.5q-77 0 -143.5 -61t-104.5 -159.5t-38 -207.5q0 -70 14 -114.5t50 -77t102 -43t165.5 -5.5t245.5 27l23 -165q-137 -64 -256.5 -97.5t-211.5 -37.5t-168 15.5t-128 59.5t-87.5 96.5t-52 124.5t-16.5 146q0 151 56.5 293
t150.5 246.5t221.5 167.5t263.5 63q179 0 255 -106t52 -347z" />
    <glyph glyph-name="d" unicode="d" horiz-adv-x="1323" 
d="M514 268q94 0 246 131l96 484q-116 39 -194 39q-68 0 -131 -75.5t-98.5 -185.5t-35.5 -215q0 -85 31.5 -131.5t85.5 -46.5zM1264 109q-151 -80 -257 -112t-166.5 -17t-85.5 65t-20 137q-225 -211 -391 -211q-115 0 -189.5 99t-74.5 284q0 124 32 244.5t96.5 226.5
t152.5 186.5t208.5 127.5t257.5 47q28 0 86 -4l78 399l316 23l-250 -1282q-12 -64 12.5 -71.5t169.5 17.5z" />
    <glyph glyph-name="e" unicode="e" horiz-adv-x="1167" 
d="M1049 135q-163 -83 -303.5 -123.5t-244.5 -38.5t-184.5 33.5t-130 91.5t-75 136t-25.5 167q0 143 55.5 285.5t148 253t223 179.5t269.5 69q153 0 241.5 -82t88.5 -221q0 -197 -181.5 -315.5t-537.5 -147.5q7 -95 65.5 -135.5t190.5 -37.5t377 50zM692 928
q-99 0 -177 -96.5t-109 -235.5q407 31 407 217q0 53 -31.5 84t-89.5 31z" />
    <glyph glyph-name="f" unicode="f" horiz-adv-x="1206" 
d="M928 68q0 -100 -37 -189t-98 -151t-142 -98t-168 -36q-161 0 -256.5 139t-95.5 394q0 191 41 381l-106 35l47 211h131q83 237 210 430t280.5 307.5t301.5 114.5q101 0 157.5 -56.5t61 -148.5t-42 -214t-141.5 -247l-137 45q41 74 54 138t-8 104.5t-77 40.5
q-92 0 -191.5 -144.5t-170.5 -367.5l583 4l-47 -256l-358 10q209 -197 209 -446zM608 -158q56 0 85.5 45.5t29.5 116.5q0 111 -63 223t-193 209q-21 -158 -21 -272q0 -322 162 -322z" />
    <glyph glyph-name="g" unicode="g" horiz-adv-x="1273" 
d="M528 356q83 0 197 93q17 206 96 419q-113 58 -182 58q-65 0 -121.5 -65.5t-86.5 -158.5t-30 -182q0 -83 34.5 -123.5t92.5 -40.5zM1001 -125q-144 -292 -933 -264l30 301q272 -17 436.5 -6t200.5 47q9 9 12.5 28t2 51t-4 60.5t-8 76.5t-8.5 79q-195 -176 -367 -176
q-119 0 -195.5 88.5t-76.5 259.5q0 112 30.5 223t90.5 208t141 172t190 118t230 43q97 0 195 -45q46 55 82 55q64 0 136 -33t72 -71q0 -90 -74 -272.5t-182 -354.5q-1 -80 9 -177.5t18.5 -160t3.5 -131.5t-31 -119z" />
    <glyph glyph-name="h" unicode="h" horiz-adv-x="1388" 
d="M1321 109q-138 -74 -243.5 -107t-172 -25t-100 49t-33.5 113q0 91 65.5 332t65.5 313q0 47 -21.5 72t-74.5 25q-128 0 -285 -164l-139 -717h-311l305 1581l317 23l-123 -633q229 215 447 215q229 0 229 -234q0 -96 -34.5 -243t-69.5 -271t-35 -164q0 -16 5 -23t25.5 -8.5
t56 5t101.5 20.5z" />
    <glyph glyph-name="i" unicode="i" horiz-adv-x="856" 
d="M745 1329l-346 -16l76 321l369 17zM827 123q-109 -60 -202 -96t-164.5 -47t-126.5 -1.5t-90 40.5t-52.5 79.5t-16 115t21.5 148.5l94 396l-141 92l229 297l311 18l-168 -739q-7 -33 -11.5 -54t-5.5 -42.5t-0.5 -33.5t9 -23t17 -15t29.5 -6t39.5 -0.5t54.5 7t67.5 11.5
t85.5 17z" />
    <glyph glyph-name="j" unicode="j" horiz-adv-x="794" 
d="M788 1329l-348 -14l78 327l369 17zM-188 -391l24 301q172 -10 255 -5t110 32q23 22 28.5 99t23.5 271.5t62 415.5l-161 135l264 293l319 14q-79 -258 -125 -490.5t-58.5 -371t-22.5 -252t-31 -185t-70 -120.5q-77 -77 -223 -105.5t-395 -31.5z" />
    <glyph glyph-name="k" unicode="k" horiz-adv-x="1286" 
d="M838 -20l-312 460q205 129 293 224t88 157q0 76 -80 76q-124 0 -305 -184l-139 -713h-311l305 1581l317 23l-125 -641q116 109 232.5 166t220.5 57q110 0 170.5 -56.5t60.5 -152.5q0 -244 -376 -514l319 -443z" />
    <glyph glyph-name="l" unicode="l" horiz-adv-x="1067" 
d="M975 139q-157 -95 -289.5 -134.5t-230.5 -24.5t-164.5 81.5t-95.5 180.5l-78 -49l-72 124l127 82q-2 16 -2 50q0 191 41.5 372t112.5 321.5t162 247t194.5 163.5t204.5 57q114 0 181 -72.5t67 -202.5q0 -412 -633 -925q21 -149 124 -174t312 59zM778 1298
q-43 0 -89 -49.5t-86 -136t-69.5 -218t-37.5 -280.5q174 180 261 331.5t87 260.5q0 48 -18.5 70t-47.5 22z" />
    <glyph glyph-name="m" unicode="m" horiz-adv-x="1968" 
d="M1896 109q-138 -74 -243.5 -107t-171.5 -25t-99.5 49t-33.5 113q0 90 65.5 329.5t65.5 311.5q0 50 -18.5 75.5t-69.5 25.5q-106 0 -238 -129l-156 -752h-292l141 696q21 100 5 143.5t-77 43.5q-119 0 -239 -129l-150 -754h-313q69 356 93.5 485t55.5 313t53 347l314 18
l-25 -186q200 209 393 209q196 0 205 -225q221 225 436 225q226 0 226 -234q0 -96 -34.5 -243t-68.5 -271t-34 -164q0 -16 4.5 -23t25 -8.5t55.5 5t101 20.5z" />
    <glyph glyph-name="n" unicode="n" horiz-adv-x="1394" 
d="M1321 109q-137 -74 -242.5 -107t-171.5 -25t-99.5 49t-33.5 113q0 90 65.5 329.5t65.5 311.5q0 49 -21.5 75t-72.5 26q-123 0 -281 -152l-145 -729h-313q69 356 93.5 485t55.5 313t53 347l314 18l-27 -205q234 228 457 228q231 0 231 -234q0 -96 -34.5 -243t-69.5 -271
t-35 -164q0 -16 5 -23t25.5 -8.5t56 5t101.5 20.5z" />
    <glyph glyph-name="o" unicode="o" horiz-adv-x="1290" 
d="M90 449q0 145 55 282t145.5 237t211.5 160t248 60q205 0 327.5 -128t122.5 -353q0 -146 -55 -283t-145 -236.5t-211 -160t-248 -60.5q-206 0 -328.5 129t-122.5 353zM874 659q0 126 -48 196.5t-136 70.5q-82 0 -146 -64t-96 -161t-32 -205q0 -126 48 -196.5t136 -70.5
q81 0 145.5 64t96.5 161t32 205z" />
    <glyph glyph-name="p" unicode="p" horiz-adv-x="1290" 
d="M627 233q69 0 132 76t98.5 187t35.5 217q0 88 -32 133t-85 45q-93 0 -244 -123l-96 -498q115 -37 191 -37zM309 -377l-313 -22q33 177 93 490t85 448t55 310.5t45 295.5l312 18l-27 -178q100 92 200 146.5t185 54.5q114 0 190 -99.5t76 -285.5q0 -123 -32 -243.5
t-96.5 -226.5t-152.5 -187t-208.5 -128t-257.5 -47q-24 0 -86 4z" />
    <glyph glyph-name="q" unicode="q" horiz-adv-x="1282" 
d="M1198 -276q-170 -85 -285 -118t-178.5 -15t-82.5 82.5t3 174.5l60 310q-213 -187 -369 -187q-114 0 -190 99.5t-76 285.5q0 125 32.5 245.5t98 226t156 185.5t214 126.5t263.5 46.5q83 0 186 -21t182 -53l-227 -1175q-12 -63 13.5 -71t175.5 17zM512 266q91 0 248 125
l94 496q-115 37 -192 37q-68 0 -131 -76.5t-98.5 -187.5t-35.5 -216q0 -89 31.5 -133.5t83.5 -44.5z" />
    <glyph glyph-name="r" unicode="r" horiz-adv-x="1236" 
d="M1151 80q-216 -99 -351 -108.5t-189.5 74t-17 272.5t168.5 481q-126 -27 -197 -31q-129 -209 -395 -463l-111 119q203 227 283 358q-149 38 -149 152q0 106 103.5 202.5t227.5 96.5q68 0 109 -41.5t41 -114.5q0 -27 -2 -39q205 45 358 125l154 -67q-228 -538 -262 -710
q-26 -129 29 -156q40 -19 165 7q9 2 21 5z" />
    <glyph glyph-name="s" unicode="s" horiz-adv-x="1085" 
d="M997 362q0 -65 -23.5 -120t-81.5 -105.5t-148 -86t-232.5 -55.5t-325.5 -18l7 287q181 -10 289 -4.5t152 26t44 62.5q0 23 -10 48.5t-32.5 56.5t-42 55t-54.5 64.5t-54 64.5q-154 -98 -348 -197l-65 144q207 126 309 207q-41 80 -41 153q0 84 51 149.5t129 97.5t166 32
q61 0 106 -17t68 -51t21.5 -79.5t-37.5 -107.5t-105 -130q20 -29 77 -102.5t89 -120t62 -118t30 -135.5z" />
    <glyph glyph-name="t" unicode="t" horiz-adv-x="1017" 
d="M922 121q-104 -58 -196.5 -94.5t-166.5 -49.5t-136 -8t-106 29t-75 62.5t-45 91t-14 117t16 137.5l106 493h-192l57 246h121l215 317l242 17l-74 -334h342l-45 -246h-350l-105 -475q-14 -54 -10.5 -91.5t22.5 -60t67 -29t122.5 2.5t189.5 33z" />
    <glyph glyph-name="u" unicode="u" horiz-adv-x="1400" 
d="M1339 109q-149 -80 -255 -112t-168 -17.5t-89 67t-22 143.5q-209 -221 -410 -221q-140 0 -202 114t-17 335l72 338l-146 96l234 297l311 18l-153 -718q-20 -89 3.5 -133t80.5 -44q125 0 264 148l145 733h311l-163 -829q-12 -67 13 -75t167 19z" />
    <glyph glyph-name="v" unicode="v" horiz-adv-x="1206" 
d="M582 334q47 95 101.5 211.5t89 192.5t100 220t88.5 195h327q-269 -555 -596 -1161h-381q-101 672 -143 1151l319 22q35 -476 78 -831h17z" />
    <glyph glyph-name="w" unicode="w" horiz-adv-x="1445" 
d="M750 0l-62 461l-239 -461h-302q-9 167 14.5 490t67.5 663h322q-73 -494 -111 -772h11l249 463h174l62 -465h16q107 377 185 774h333q-75 -280 -168 -543.5t-243 -609.5h-309z" />
    <glyph glyph-name="x" unicode="x" horiz-adv-x="1218" 
d="M711 -4l-152 393l-283 -389h-333l469 580l-250 567l356 12l150 -395l282 389h336l-469 -580l252 -567z" />
    <glyph glyph-name="y" unicode="y" horiz-adv-x="1308" 
d="M1028 -119q-148 -296 -934 -268l43 303q269 -19 433.5 -9.5t199.5 44.5q21 21 21.5 95t-9.5 167q-3 30 -4 45q-221 -174 -428 -174q-435 0 -39 1063l310 10q-70 -198 -111.5 -343.5t-55.5 -230.5t-7 -135t26.5 -66.5t52.5 -16.5q112 0 246 106q5 137 35.5 271t72 228
t88 152t83.5 58q69 0 142 -26t73 -64q0 -101 -60.5 -290.5t-156.5 -353.5q1 -44 8.5 -142.5t10.5 -159.5t-6 -137.5t-34 -125.5z" />
    <glyph glyph-name="z" unicode="z" horiz-adv-x="1148" 
d="M926 0h-901l53 268l651 615l-536 -11l75 281h881l-51 -268l-649 -615l550 11z" />
    <glyph glyph-name="braceleft" unicode="{" horiz-adv-x="968" 
d="M621 -487q-300 145 -417.5 244t-117.5 216q0 60 25 112t61 88.5t72 68t61 63.5t25 62q0 98 -226 145l52 223q152 7 212 33.5t60 71.5q0 26 -18 66.5t-39.5 78.5t-39.5 91.5t-18 101.5q0 54 22 105.5t75 106t134 103.5t206.5 97t285.5 89l51 -258q-256 -55 -366.5 -106
t-110.5 -119q0 -32 27 -89t54.5 -120t27.5 -110q0 -78 -67 -147t-201 -105q184 -75 184 -209q0 -46 -24 -90t-58 -77.5t-68 -65.5t-58 -67.5t-24 -70.5q0 -67 86.5 -134t276.5 -157z" />
    <glyph glyph-name="bar" unicode="|" horiz-adv-x="720" 
d="M420 1640h297l-400 -2060h-299z" />
    <glyph glyph-name="braceright" unicode="}" horiz-adv-x="968" 
d="M-51 -485l-51 258q255 53 366 104.5t111 120.5q0 33 -27.5 89.5t-54.5 119t-27 108.5q0 78 67 147.5t204 106.5q-187 75 -187 209q0 46 24 89.5t58 77t68 65t58 67t24 70.5q0 68 -85.5 134.5t-277.5 158.5l146 241q300 -145 417 -244t117 -216q0 -50 -18 -96t-45 -77.5
t-59 -63t-59 -55t-45 -50.5t-18 -52q0 -98 226 -145l-52 -225q-104 -4 -165.5 -18.5t-84 -35.5t-22.5 -51q0 -31 28.5 -86t57.5 -122t29 -128q0 -54 -22 -105.5t-75 -106t-134 -103.5t-206.5 -97t-285.5 -89z" />
    <glyph glyph-name="asciitilde" unicode="~" horiz-adv-x="1277" 
d="M864 418q-52 0 -107.5 26t-101 63.5t-86 75t-76 63.5t-57.5 26q-35 0 -78.5 -62.5t-103.5 -187.5l-191 86q202 461 424 461q50 0 103.5 -26t97 -63.5t83 -75t74 -63.5t56.5 -26q32 0 75 62t107 188l189 -86q-102 -232 -198.5 -346.5t-209.5 -114.5z" />
    <glyph glyph-name="uni00A0" unicode="&#xa0;" horiz-adv-x="598" 
 />
    <glyph glyph-name="exclamdown" unicode="&#xa1;" horiz-adv-x="806" 
d="M379 1409h379l-70 -354h-377zM338 825h217l-90 -958h-414z" />
    <glyph glyph-name="cent" unicode="&#xa2;" horiz-adv-x="1277" 
d="M446 606q0 -124 140 -190l86 395q-126 -22 -176 -73.5t-50 -131.5zM991 47q-111 5 -248 23l-53 -258h-280l75 323q-170 63 -258 167.5t-88 242.5q0 67 18 132t60 132t105 123t160.5 101t217.5 69l60 307h280l-63 -281q106 0 199 -8l-58 -305q-140 10 -223 10l-100 -471
q115 -20 247 -28z" />
    <glyph glyph-name="sterling" unicode="&#xa3;" horiz-adv-x="1277" 
d="M1169 324q-35 -97 -63.5 -156t-71 -105.5t-90.5 -63.5t-125 -16.5t-170 21.5t-229 62q-107 -99 -244 -99q-127 0 -175 82q-41 69 -6 152q38 88 136 127q60 25 135 24q15 68 37 199h-168l47 225h152q31 212 92 334q69 139 204 234.5t296 95.5q178 0 255.5 -117t75.5 -352
l-296 -23q0 201 -105 201q-99 0 -162 -123q-40 -79 -61 -250h356l-39 -225h-344q-17 -140 -47 -240q153 -34 239 -36.5t139 22.5t107 88z" />
    <glyph glyph-name="yen" unicode="&#xa5;" horiz-adv-x="1277" 
d="M1096 281h-357l-51 -281h-315l57 281h-358l47 225h348l-37 129h-287l43 223h181l-154 545l319 14l158 -657l373 649h328l-363 -551h180l-43 -223h-282l-86 -129h344z" />
    <glyph glyph-name="section" unicode="&#xa7;" horiz-adv-x="1292" 
d="M410 582q0 -24 18.5 -46.5t53 -44t75 -41.5t91.5 -43q9 -4 14 -6q108 22 162.5 55t54.5 70q0 20 -13.5 39t-45.5 40t-58 35.5t-78.5 41t-79.5 41.5q-83 -22 -138.5 -59.5t-55.5 -81.5zM1010 72q0 -80 -53.5 -148.5t-169.5 -120t-298.5 -60t-441.5 31.5l66 286
q129 -30 227.5 -46.5t162.5 -20.5t104 2.5t56.5 20.5t16.5 36q0 29 -42.5 59.5t-105.5 57t-137.5 63t-137.5 75t-105.5 96.5t-42.5 124q0 107 91 185.5t236 117.5q-114 96 -114 211q0 72 39 142t106 125t165.5 89t209.5 34q90 0 156 -23t111.5 -71t73 -114.5t44.5 -160.5
l-275 -59q-26 95 -66 134.5t-106 39.5q-61 0 -97 -29t-36 -70q0 -32 29.5 -64.5t76.5 -61t104 -59t114.5 -65t104.5 -71.5t76.5 -86t29.5 -103q0 -181 -328 -272q156 -99 156 -225z" />
    <glyph glyph-name="dieresis" unicode="&#xa8;" horiz-adv-x="1157" 
d="M1016 1321l-328 -4l78 321l348 7zM532 1319l-327 -4l78 319l348 4z" />
    <glyph glyph-name="copyright" unicode="&#xa9;" horiz-adv-x="1875" 
d="M1042 1497q151 0 281 -49t225.5 -139t150 -228t54.5 -307q0 -194 -69 -357t-187 -272.5t-275.5 -170t-334.5 -60.5q-156 0 -288.5 46.5t-230 133t-153 220.5t-55.5 300q0 196 71.5 363.5t192 280t281 176t337.5 63.5zM1026 1303q-174 0 -322 -82t-238.5 -236t-90.5 -348
q0 -171 69 -291.5t187 -178.5t274 -58q130 0 245.5 45.5t202 127.5t137 204.5t50.5 267.5q0 129 -39.5 233.5t-108.5 173t-163 105.5t-203 37zM1028 1100q132 0 194 -88.5t54 -239.5l-211 -4q-2 40 -7.5 66t-22 46.5t-44.5 20.5q-64 0 -105.5 -73t-41.5 -162q0 -120 86 -148
t284 35l-22 -201q-277 -84 -426.5 -8.5t-149.5 283.5q0 122 54.5 231t150 175.5t207.5 66.5z" />
    <glyph glyph-name="ordfeminine" unicode="&#xaa;" horiz-adv-x="1099" 
d="M512 784q65 0 166 90q34 164 63 324q-77 25 -123 25q-47 0 -90 -51t-67.5 -125.5t-24.5 -147.5q0 -56 21 -85.5t55 -29.5zM1018 637q-131 -70 -213.5 -80.5t-116 28.5t-29.5 124q-170 -156 -292 -156q-82 0 -133.5 67t-51.5 195q0 92 24 181t72 167.5t113.5 138t155 94
t190.5 34.5q138 0 287 -44l-111 -581q-9 -44 6.5 -52.5t86.5 -2.5zM133 430h828l-43 -211h-828z" />
    <glyph glyph-name="guillemotleft" unicode="&#xab;" horiz-adv-x="1617" 
d="M471 -49l-385 471l66 315l534 477l197 -231l-518 -418l354 -411zM1165 -49l-372 483l73 316l545 460l193 -237l-531 -404l342 -422z" />
    <glyph glyph-name="registered" unicode="&#xae;" horiz-adv-x="1447" 
d="M1341 1038q0 -138 -52.5 -258t-140 -201t-203 -127t-240.5 -46q-229 0 -372 136.5t-143 379.5q0 140 52.5 260.5t140.5 202t203 128t239 46.5q229 0 372.5 -137.5t143.5 -383.5zM1178 1018q0 187 -98.5 288t-258.5 101q-125 0 -231.5 -58t-171 -167t-64.5 -246
q0 -182 99.5 -280.5t261.5 -98.5q92 0 176 33.5t147.5 93t101.5 146.5t38 188zM815 729l-74 184l-22 -2l-33 -174h-174l98 508q210 25 310 -14.5t100 -126.5q0 -93 -121 -152l98 -202z" />
    <glyph glyph-name="macron" unicode="&#xaf;" horiz-adv-x="1157" 
d="M1053 1618l-54 -275h-774l54 275h774z" />
    <glyph glyph-name="degree" unicode="&#xb0;" horiz-adv-x="1277" 
d="M772 1565q178 0 293 -114.5t115 -303.5q0 -145 -69.5 -260.5t-181 -176.5t-241.5 -61q-178 0 -292.5 114.5t-114.5 303.5q0 109 40.5 203.5t108 158t157 100t185.5 36.5zM721 887q89 0 148 65.5t59 169.5q0 90 -53 148.5t-134 58.5q-90 0 -149.5 -66t-59.5 -169
q0 -91 53 -149t136 -58z" />
    <glyph glyph-name="plusminus" unicode="&#xb1;" horiz-adv-x="1277" 
d="M1042 78h-995l53 268h351l63 324h-354l55 268h350l72 369h291l-72 -369h354l-55 -268h-350l-64 -324h355z" />
    <glyph glyph-name="two.sup" unicode="&#xb2;" horiz-adv-x="991" 
d="M856 739h-659l4 191q256 144 375.5 236.5t119.5 168.5q0 40 -33 62.5t-116.5 30t-224.5 -12.5l30 217q295 46 452 -16t157 -209q0 -118 -99 -224.5t-309 -234.5h346z" />
    <glyph glyph-name="three.sup" unicode="&#xb3;" horiz-adv-x="991" 
d="M905 1012q0 -62 -38.5 -117t-122.5 -99.5t-217 -60t-320 1.5l31 215q161 -20 255.5 -15t131.5 20.5t37 41.5q0 36 -82.5 73t-237.5 67l16 96l324 192h-346l43 209h602l-27 -202l-315 -193q266 -76 266 -229z" />
    <glyph glyph-name="acute" unicode="&#xb4;" horiz-adv-x="1157" 
d="M299 1415q110 63 263 174t259 207l185 -254q-125 -82 -318.5 -158.5t-337.5 -107.5z" />
    <glyph glyph-name="mu" unicode="&#xb5;" horiz-adv-x="1390" 
d="M309 -377l-315 -22l330 1548l315 18l-154 -721q-20 -89 6.5 -132.5t90.5 -43.5q113 0 252 148l149 735h309l-166 -829q-12 -70 13.5 -78t177.5 20l24 -155q-148 -79 -254.5 -111.5t-170.5 -18.5t-92.5 65t-26.5 140q-96 -108 -178 -161.5t-164 -53.5q-41 0 -80 17z" />
    <glyph glyph-name="paragraph" unicode="&#xb6;" horiz-adv-x="1601" 
d="M1092 428l135 696q-108 9 -199 9l-133 -687q88 -15 197 -18zM461 782q0 -85 54.5 -155t158.5 -117l119 600q-119 -25 -195.5 -77.5t-106.5 -114t-30 -136.5zM762 -240l-279 -26l99 506q-207 69 -317.5 195t-110.5 294q0 162 93.5 294t269.5 224t443.5 137.5t600.5 34.5
l-316 -1609l-280 -29l73 383q-93 3 -194 16z" />
    <glyph glyph-name="periodcentered" unicode="&#xb7;" horiz-adv-x="788" 
d="M571 444h-391l70 385h391z" />
    <glyph glyph-name="cedilla" unicode="&#xb8;" horiz-adv-x="1157" 
d="M358 -367l-151 52q75 192 162.5 284t193.5 92q131 0 209 -121.5t64 -351.5l-258 -4q7 136 -6.5 193t-49.5 57q-71 0 -164 -201z" />
    <glyph glyph-name="one.sup" unicode="&#xb9;" horiz-adv-x="991" 
d="M864 739h-669l38 205h234l78 385h-215l26 176l228 23l26 127l238 18l-148 -729h218z" />
    <glyph glyph-name="ordmasculine" unicode="&#xba;" horiz-adv-x="1116" 
d="M1063 1085q0 -139 -70 -262t-188 -196.5t-250 -73.5q-154 0 -244 91t-90 251q0 105 41.5 203.5t110.5 171t163 116.5t193 44q154 0 244 -91t90 -254zM809 1053q0 166 -137 166q-60 0 -106 -42t-68.5 -107t-22.5 -140q0 -166 137 -166q60 0 106 42t68.5 107t22.5 140z
M158 430h755l-41 -211h-755z" />
    <glyph glyph-name="guillemotright" unicode="&#xbb;" horiz-adv-x="1636" 
d="M952 -45l-196 233l518 416l-354 414l247 203l385 -471l-63 -318zM227 -39l-190 238l528 401l-342 422l250 199l375 -484l-74 -317z" />
    <glyph glyph-name="onequarter" unicode="&#xbc;" horiz-adv-x="2293" 
d="M741 -49l-157 117l1065 1378l155 -117zM836 512h-670l39 205h233l78 385h-215l27 176l227 22l27 127l237 19l-147 -729h217zM2099 152h-88l-29 -152h-221l29 152h-418l19 167q76 140 130 273.5t107 316.5l256 -12q-113 -329 -258 -543h205l47 242l223 14l-49 -256h102z
" />
    <glyph glyph-name="onehalf" unicode="&#xbd;" horiz-adv-x="2293" 
d="M836 512h-670l39 205h233l78 385h-215l27 176l227 22l27 127l237 19l-147 -729h217zM735 -49l-157 117l1064 1378l156 -117zM2032 0h-660l4 190q256 144 376 237t120 169q0 40 -33.5 62.5t-117 30t-224.5 -12.5l31 217q295 46 451.5 -16t156.5 -209q0 -118 -98.5 -224.5
t-308.5 -234.5h346z" />
    <glyph glyph-name="threequarters" unicode="&#xbe;" horiz-adv-x="2293" 
d="M709 -49l-158 117l1065 1378l156 -117zM877 784q0 -62 -39 -117t-123 -99.5t-216.5 -59.5t-320.5 2l31 215q161 -20 255.5 -15t131.5 20.5t37 41.5q0 36 -82 72.5t-238 66.5l17 97l323 192h-346l43 209h602l-26 -203l-316 -192q135 -39 201 -98t66 -132zM2099 152h-88
l-29 -152h-221l29 152h-418l19 167q76 140 130 273.5t107 316.5l256 -12q-113 -329 -258 -543h205l47 242l223 14l-49 -256h102z" />
    <glyph glyph-name="questiondown" unicode="&#xbf;" horiz-adv-x="1128" 
d="M635 1409h373l-68 -344h-375zM907 184l-73 -325q-385 41 -568.5 141.5t-183.5 265.5q0 150 148 298t487 327l108 -162q-211 -122 -292.5 -192.5t-81.5 -141.5q0 -85 105 -130t351 -81z" />
    <glyph glyph-name="Agrave" unicode="&#xc0;" horiz-adv-x="1392" 
d="M1149 1661l-59 -137q-128 36 -306 116.5t-307 159.5l174 258q116 -107 255 -218t243 -179zM887 -12q-2 56 -17 350h-430q-80 -185 -145 -338h-334q325 722 672 1409h457q74 -668 131 -1397zM797 1126q-215 -472 -248 -546h307q-8 117 -41 546h-18z" />
    <glyph glyph-name="Aacute" unicode="&#xc1;" horiz-adv-x="1392" 
d="M625 1671q110 63 263 174t259 207l184 -254q-125 -82 -318.5 -158.5t-336.5 -107.5zM887 -12q-2 56 -17 350h-430q-80 -185 -145 -338h-334q325 722 672 1409h457q74 -668 131 -1397zM797 1126q-215 -472 -248 -546h307q-8 117 -41 546h-18z" />
    <glyph glyph-name="Acircumflex" unicode="&#xc2;" horiz-adv-x="1392" 
d="M1122 1522l-198 215l-303 -207l-132 166l476 329h30l336 -337zM887 -12q-2 56 -17 350h-430q-80 -185 -145 -338h-334q325 722 672 1409h457q74 -668 131 -1397zM797 1126q-215 -472 -248 -546h307q-8 117 -41 546h-18z" />
    <glyph glyph-name="Atilde" unicode="&#xc3;" horiz-adv-x="1392" 
d="M1106 1798q50 0 156 164l145 -90q-82 -146 -175.5 -234t-180.5 -88q-47 0 -96 28.5t-81.5 62t-66 62t-53.5 28.5q-47 0 -152 -164l-147 90q82 145 175.5 233t180.5 88q39 0 77.5 -18.5t69 -45t57 -53t50.5 -45t41 -18.5zM887 -12q-2 56 -17 350h-430q-80 -185 -145 -338
h-334q325 722 672 1409h457q74 -668 131 -1397zM797 1126q-215 -472 -248 -546h307q-8 117 -41 546h-18z" />
    <glyph glyph-name="Adieresis" unicode="&#xc4;" horiz-adv-x="1392" 
d="M1280 1577l-328 -4l78 321l348 7zM797 1575l-328 -4l78 319l348 4zM887 -12q-2 56 -17 350h-430q-80 -185 -145 -338h-334q325 722 672 1409h457q74 -668 131 -1397zM797 1126q-215 -472 -248 -546h307q-8 117 -41 546h-18z" />
    <glyph glyph-name="Aring" unicode="&#xc5;" horiz-adv-x="1392" 
d="M961 2030q120 0 193 -66.5t73 -165.5q0 -115 -92 -197.5t-232 -82.5q-120 0 -192 67t-72 168q0 115 91 196t231 81zM887 -12q-2 56 -17 350h-430q-80 -185 -145 -338h-334q325 722 672 1409h457q74 -668 131 -1397zM797 1126q-215 -472 -248 -546h307q-8 117 -41 546h-18
z" />
    <glyph glyph-name="AE" unicode="&#xc6;" horiz-adv-x="1966" 
d="M1040 1135q-136 -200 -364 -543h280l107 543h-23zM840 0l69 350h-395q-47 -70 -133.5 -201.5t-97.5 -148.5h-355q496 744 975 1409h1069l-55 -274h-531l-61 -316h444l-45 -225h-444l-61 -318h546l-75 -276h-850z" />
    <glyph glyph-name="Ccedilla" unicode="&#xc7;" horiz-adv-x="1331" 
d="M877 -428l-259 -4q7 137 -6 193.5t-49 56.5q-71 0 -164 -201l-151 51q98 250 217 332q-169 50 -257.5 183.5t-88.5 338.5q0 177 62.5 345t166 293t247 201.5t296.5 76.5q213 0 301 -138t80 -438l-309 -4q0 158 -31 222.5t-117 64.5q-109 0 -194 -88t-126.5 -212.5
t-41.5 -254.5q0 -115 38.5 -187t121.5 -105.5t216.5 -23t321.5 65.5l-37 -287q-184 -60 -344 -76q124 -121 107 -405z" />
    <glyph glyph-name="Egrave" unicode="&#xc8;" horiz-adv-x="1218" 
d="M1071 1661l-59 -137q-128 36 -306 116.5t-307 159.5l174 258q116 -107 255 -218t243 -179zM1020 276l-78 -276h-866l274 1409h875l-54 -274h-544l-60 -316h457l-45 -225h-455l-61 -318h557z" />
    <glyph glyph-name="Eacute" unicode="&#xc9;" horiz-adv-x="1218" 
d="M547 1671q110 63 263 174t259 207l184 -254q-125 -82 -318.5 -158.5t-336.5 -107.5zM1020 276l-78 -276h-866l274 1409h875l-54 -274h-544l-60 -316h457l-45 -225h-455l-61 -318h557z" />
    <glyph glyph-name="Ecircumflex" unicode="&#xca;" horiz-adv-x="1218" 
d="M1044 1522l-198 215l-303 -207l-131 166l475 329h31l335 -337zM1020 276l-78 -276h-866l274 1409h875l-54 -274h-544l-60 -316h457l-45 -225h-455l-61 -318h557z" />
    <glyph glyph-name="Edieresis" unicode="&#xcb;" horiz-adv-x="1218" 
d="M1202 1577l-328 -4l78 321l348 7zM719 1575l-328 -4l78 319l348 4zM1020 276l-78 -276h-866l274 1409h875l-54 -274h-544l-60 -316h457l-45 -225h-455l-61 -318h557z" />
    <glyph glyph-name="Igrave" unicode="&#xcc;" horiz-adv-x="1177" 
d="M1042 1661l-59 -137q-128 36 -305.5 116.5t-306.5 159.5l174 258q117 -107 255 -218.5t242 -178.5zM690 260h289l-64 -260h-882l51 260h274l172 891h-276l51 258h883l-51 -258h-275z" />
    <glyph glyph-name="Iacute" unicode="&#xcd;" horiz-adv-x="1177" 
d="M518 1671q110 63 263 174t259 207l185 -254q-125 -82 -318.5 -158.5t-337.5 -107.5zM690 260h289l-64 -260h-882l51 260h274l172 891h-276l51 258h883l-51 -258h-275z" />
    <glyph glyph-name="Icircumflex" unicode="&#xce;" horiz-adv-x="1177" 
d="M1018 1522l-199 215l-303 -207l-131 166l475 329h31l336 -337zM690 260h289l-64 -260h-882l51 260h274l172 891h-276l51 258h883l-51 -258h-275z" />
    <glyph glyph-name="Idieresis" unicode="&#xcf;" horiz-adv-x="1177" 
d="M1174 1577l-328 -4l78 321l348 7zM690 1575l-328 -4l78 319l348 4zM690 260h289l-64 -260h-882l51 260h274l172 891h-276l51 258h883l-51 -258h-275z" />
    <glyph glyph-name="Eth" unicode="&#xd0;" horiz-adv-x="1456" 
d="M1380 860q0 -130 -32 -248.5t-98.5 -225.5t-169 -188t-242.5 -136t-319 -70t-400 10l114 596h-133l43 223h133l113 580q482 75 736.5 -64.5t254.5 -476.5zM809 598h-250l-65 -340q139 -8 248.5 34t177 121.5t102.5 184t35 225.5q0 351 -389 334l-66 -336h252z" />
    <glyph glyph-name="Ntilde" unicode="&#xd1;" horiz-adv-x="1503" 
d="M1174 1802q49 0 155 164l146 -90q-82 -146 -176 -234t-181 -88q-47 0 -96 28.5t-81.5 62t-66 62t-53.5 28.5q-46 0 -151 -164l-148 90q82 145 176 233t181 88q39 0 77.5 -18.5t69 -45t57 -53t50.5 -45t41 -18.5zM870 0l-299 924h-18l-172 -924h-305l272 1403l361 12
l284 -878h17l164 872h305l-275 -1409h-334z" />
    <glyph glyph-name="Ograve" unicode="&#xd2;" horiz-adv-x="1474" 
d="M1192 1690l-59 -138q-127 36 -305.5 117t-307.5 160l174 258q116 -107 255 -218t243 -179zM893 1442q230 0 371 -154t141 -424q0 -180 -60 -345t-162.5 -286.5t-245.5 -193.5t-302 -72q-230 0 -372 154t-142 424q0 180 60.5 345t163 286.5t246 193.5t302.5 72zM698 254
q112 0 198 86t128.5 216.5t42.5 277.5q0 158 -67.5 239.5t-172.5 81.5q-84 0 -155 -50t-117 -132t-71 -184.5t-25 -210.5q0 -158 67.5 -241t171.5 -83z" />
    <glyph glyph-name="Oacute" unicode="&#xd3;" horiz-adv-x="1474" 
d="M666 1700q110 63 263 174t259 207l184 -254q-125 -82 -318.5 -158.5t-336.5 -107.5zM893 1442q230 0 371 -154t141 -424q0 -180 -60 -345t-162.5 -286.5t-245.5 -193.5t-302 -72q-230 0 -372 154t-142 424q0 180 60.5 345t163 286.5t246 193.5t302.5 72zM698 254
q112 0 198 86t128.5 216.5t42.5 277.5q0 158 -67.5 239.5t-172.5 81.5q-84 0 -155 -50t-117 -132t-71 -184.5t-25 -210.5q0 -158 67.5 -241t171.5 -83z" />
    <glyph glyph-name="Ocircumflex" unicode="&#xd4;" horiz-adv-x="1474" 
d="M1165 1550l-198 215l-303 -206l-132 165l476 330h30l336 -338zM893 1442q230 0 371 -154t141 -424q0 -180 -60 -345t-162.5 -286.5t-245.5 -193.5t-302 -72q-230 0 -372 154t-142 424q0 180 60.5 345t163 286.5t246 193.5t302.5 72zM698 254q112 0 198 86t128.5 216.5
t42.5 277.5q0 158 -67.5 239.5t-172.5 81.5q-84 0 -155 -50t-117 -132t-71 -184.5t-25 -210.5q0 -158 67.5 -241t171.5 -83z" />
    <glyph glyph-name="Otilde" unicode="&#xd5;" horiz-adv-x="1474" 
d="M1149 1827q50 0 156 164l145 -90q-82 -146 -175.5 -234t-180.5 -88q-39 0 -78 18.5t-69.5 45t-57.5 53t-51 45t-41 18.5q-47 0 -152 -164l-147 91q82 145 175.5 233t180.5 88q39 0 77.5 -18.5t69 -45t57 -53t50.5 -45t41 -18.5zM893 1442q230 0 371 -154t141 -424
q0 -180 -60 -345t-162.5 -286.5t-245.5 -193.5t-302 -72q-230 0 -372 154t-142 424q0 180 60.5 345t163 286.5t246 193.5t302.5 72zM698 254q112 0 198 86t128.5 216.5t42.5 277.5q0 158 -67.5 239.5t-172.5 81.5q-84 0 -155 -50t-117 -132t-71 -184.5t-25 -210.5
q0 -158 67.5 -241t171.5 -83z" />
    <glyph glyph-name="Odieresis" unicode="&#xd6;" horiz-adv-x="1474" 
d="M1323 1606l-328 -4l78 321l348 6zM840 1604l-328 -5l78 320l348 4zM893 1442q230 0 371 -154t141 -424q0 -180 -60 -345t-162.5 -286.5t-245.5 -193.5t-302 -72q-230 0 -372 154t-142 424q0 180 60.5 345t163 286.5t246 193.5t302.5 72zM698 254q112 0 198 86
t128.5 216.5t42.5 277.5q0 158 -67.5 239.5t-172.5 81.5q-84 0 -155 -50t-117 -132t-71 -184.5t-25 -210.5q0 -158 67.5 -241t171.5 -83z" />
    <glyph glyph-name="multiply" unicode="&#xd7;" horiz-adv-x="1277" 
d="M885 170l-250 311l-363 -301l-174 215l363 303l-254 316l229 192l254 -317l361 301l174 -217l-361 -299l252 -314z" />
    <glyph glyph-name="Oslash" unicode="&#xd8;" horiz-adv-x="1474" 
d="M446 578q0 -18 5 -76l528 600q-59 59 -154 59q-115 0 -203.5 -86.5t-132 -217.5t-43.5 -279zM694 248q114 0 202 86.5t131.5 218.5t43.5 281q0 55 -8 94l-535 -611q66 -69 166 -69zM631 -33q-176 0 -305 94l-123 -141l-168 135l151 174q-67 134 -67 316q0 180 60 345
t162.5 286.5t245.5 193.5t302 72q172 0 293 -86l123 141l168 -137l-146 -166q74 -139 74 -330q0 -180 -60 -345t-162.5 -286.5t-245.5 -193.5t-302 -72z" />
    <glyph glyph-name="Ugrave" unicode="&#xd9;" horiz-adv-x="1464" 
d="M1178 1661l-60 -137q-128 36 -305.5 116.5t-306.5 159.5l174 258q116 -107 255 -218t243 -179zM510 590q-16 -96 -12 -161t31 -104t63.5 -56t85.5 -17q215 0 266 266l172 891h334l-170 -874q-55 -279 -225.5 -421.5t-417.5 -142.5q-129 0 -224 37t-160 117.5t-80.5 207
t15.5 306.5l150 770h332z" />
    <glyph glyph-name="Uacute" unicode="&#xda;" horiz-adv-x="1464" 
d="M651 1671q111 64 264 175t259 206l184 -254q-125 -82 -318.5 -158.5t-337.5 -107.5zM510 590q-16 -96 -12 -161t31 -104t63.5 -56t85.5 -17q215 0 266 266l172 891h334l-170 -874q-55 -279 -225.5 -421.5t-417.5 -142.5q-129 0 -224 37t-160 117.5t-80.5 207t15.5 306.5
l150 770h332z" />
    <glyph glyph-name="Ucircumflex" unicode="&#xdb;" horiz-adv-x="1464" 
d="M1151 1522l-199 215l-303 -207l-131 166l475 329h31l336 -337zM510 590q-16 -96 -12 -161t31 -104t63.5 -56t85.5 -17q215 0 266 266l172 891h334l-170 -874q-55 -279 -225.5 -421.5t-417.5 -142.5q-129 0 -224 37t-160 117.5t-80.5 207t15.5 306.5l150 770h332z" />
    <glyph glyph-name="Udieresis" unicode="&#xdc;" horiz-adv-x="1464" 
d="M1307 1577l-328 -4l78 321l348 7zM823 1575l-327 -4l77 319l349 4zM510 590q-16 -96 -12 -161t31 -104t63.5 -56t85.5 -17q215 0 266 266l172 891h334l-170 -874q-55 -279 -225.5 -421.5t-417.5 -142.5q-129 0 -224 37t-160 117.5t-80.5 207t15.5 306.5l150 770h332z" />
    <glyph glyph-name="Yacute" unicode="&#xdd;" horiz-adv-x="1329" 
d="M604 1679q110 63 263 174t259 207l185 -254q-125 -82 -318.5 -158.5t-337.5 -107.5zM721 0h-334l94 485l-282 918l340 14l176 -641l393 633h346l-643 -954z" />
    <glyph glyph-name="Thorn" unicode="&#xde;" horiz-adv-x="1310" 
d="M410 0h-330l272 1409h330l-33 -172q157 -1 275 -32t189.5 -88t106.5 -131.5t35 -166.5q0 -243 -213.5 -408.5t-595.5 -222.5zM934 764q0 109 -89.5 167.5t-246.5 41.5l-96 -496q203 -22 317.5 63.5t114.5 223.5z" />
    <glyph glyph-name="germandbls" unicode="&#xdf;" horiz-adv-x="1370" 
d="M547 -23l37 299q56 -4 92.5 -6t77 -3.5t65 -0.5t50 3.5t39 8t25.5 13.5t16.5 20t4.5 27q0 131 -342 391q189 186 263.5 292.5t74.5 199.5q0 53 -32 85.5t-93 32.5q-45 0 -79 -18.5t-69 -69.5t-66 -149t-60 -248l-164 -854h-315l164 831q41 211 106 363.5t151.5 243.5
t187.5 133.5t224 42.5q92 0 164.5 -26t116.5 -69.5t67 -98t23 -115.5q0 -126 -76.5 -247.5t-222.5 -256.5q289 -236 289 -441q0 -59 -22.5 -113.5t-76 -106t-134 -88.5t-205.5 -57.5t-281 -17.5z" />
    <glyph glyph-name="agrave" unicode="&#xe0;" horiz-adv-x="1310" 
d="M1067 1427l-59 -137q-127 36 -305.5 117t-307.5 160l174 258q117 -108 255.5 -219.5t242.5 -178.5zM498 272q45 0 112 33.5t138 89.5q73 380 94 484q-122 32 -187 32q-68 0 -128.5 -75t-95 -186t-34.5 -220q0 -79 27.5 -118.5t73.5 -39.5zM1251 109q-148 -80 -254 -112.5
t-167 -17t-86.5 66t-20.5 138.5q-105 -97 -210 -156t-191 -59q-110 0 -179 92.5t-69 268.5q0 126 33 249t98.5 231t155.5 190.5t213 130t262 47.5q172 0 362 -58l-154 -798q-12 -64 13.5 -72.5t167.5 18.5z" />
    <glyph glyph-name="aacute" unicode="&#xe1;" horiz-adv-x="1310" 
d="M543 1438q110 63 263 174t259 207l184 -254q-126 -82 -319 -159t-336 -108zM498 272q45 0 112 33.5t138 89.5q73 380 94 484q-122 32 -187 32q-68 0 -128.5 -75t-95 -186t-34.5 -220q0 -79 27.5 -118.5t73.5 -39.5zM1251 109q-148 -80 -254 -112.5t-167 -17t-86.5 66
t-20.5 138.5q-105 -97 -210 -156t-191 -59q-110 0 -179 92.5t-69 268.5q0 126 33 249t98.5 231t155.5 190.5t213 130t262 47.5q172 0 362 -58l-154 -798q-12 -64 13.5 -72.5t167.5 18.5z" />
    <glyph glyph-name="acircumflex" unicode="&#xe2;" horiz-adv-x="1310" 
d="M1040 1288l-198 215l-303 -207l-131 166l475 330h30l336 -338zM498 272q45 0 112 33.5t138 89.5q73 380 94 484q-122 32 -187 32q-68 0 -128.5 -75t-95 -186t-34.5 -220q0 -79 27.5 -118.5t73.5 -39.5zM1251 109q-148 -80 -254 -112.5t-167 -17t-86.5 66t-20.5 138.5
q-105 -97 -210 -156t-191 -59q-110 0 -179 92.5t-69 268.5q0 126 33 249t98.5 231t155.5 190.5t213 130t262 47.5q172 0 362 -58l-154 -798q-12 -64 13.5 -72.5t167.5 18.5z" />
    <glyph glyph-name="atilde" unicode="&#xe3;" horiz-adv-x="1310" 
d="M1024 1565q50 0 156 164l145 -91q-82 -146 -175.5 -233.5t-180.5 -87.5q-39 0 -78 18.5t-69.5 45t-57.5 53t-51 45t-41 18.5q-47 0 -152 -164l-147 90q82 146 175.5 234t180.5 88q39 0 77.5 -18.5t69 -45t57 -53t50.5 -45t41 -18.5zM498 272q45 0 112 33.5t138 89.5
q73 380 94 484q-122 32 -187 32q-68 0 -128.5 -75t-95 -186t-34.5 -220q0 -79 27.5 -118.5t73.5 -39.5zM1251 109q-148 -80 -254 -112.5t-167 -17t-86.5 66t-20.5 138.5q-105 -97 -210 -156t-191 -59q-110 0 -179 92.5t-69 268.5q0 126 33 249t98.5 231t155.5 190.5t213 130
t262 47.5q172 0 362 -58l-154 -798q-12 -64 13.5 -72.5t167.5 18.5z" />
    <glyph glyph-name="adieresis" unicode="&#xe4;" horiz-adv-x="1310" 
d="M1198 1343l-328 -4l78 322l348 6zM715 1341l-328 -4l78 320l348 4zM498 272q45 0 112 33.5t138 89.5q73 380 94 484q-122 32 -187 32q-68 0 -128.5 -75t-95 -186t-34.5 -220q0 -79 27.5 -118.5t73.5 -39.5zM1251 109q-148 -80 -254 -112.5t-167 -17t-86.5 66t-20.5 138.5
q-105 -97 -210 -156t-191 -59q-110 0 -179 92.5t-69 268.5q0 126 33 249t98.5 231t155.5 190.5t213 130t262 47.5q172 0 362 -58l-154 -798q-12 -64 13.5 -72.5t167.5 18.5z" />
    <glyph glyph-name="aring" unicode="&#xe5;" horiz-adv-x="1310" 
d="M879 1796q120 0 193 -66t73 -165q0 -115 -92 -198t-232 -83q-120 0 -192 67.5t-72 168.5q0 115 91 195.5t231 80.5zM498 272q45 0 112 33.5t138 89.5q73 380 94 484q-122 32 -187 32q-68 0 -128.5 -75t-95 -186t-34.5 -220q0 -79 27.5 -118.5t73.5 -39.5zM1251 109
q-148 -80 -254 -112.5t-167 -17t-86.5 66t-20.5 138.5q-105 -97 -210 -156t-191 -59q-110 0 -179 92.5t-69 268.5q0 126 33 249t98.5 231t155.5 190.5t213 130t262 47.5q172 0 362 -58l-154 -798q-12 -64 13.5 -72.5t167.5 18.5z" />
    <glyph glyph-name="ae" unicode="&#xe6;" horiz-adv-x="1822" 
d="M1348 928q-103 0 -182 -97.5t-107 -236.5q407 30 407 219q0 53 -31 84t-87 31zM496 272q90 0 243 160q9 246 125 436q-125 43 -211 43q-68 0 -128 -75t-94 -186t-34 -220q0 -79 27 -118.5t72 -39.5zM1704 135q-173 -81 -319 -120.5t-250.5 -38.5t-183 34t-125 88.5
t-68.5 132.5q-111 -119 -223 -190.5t-209 -71.5q-112 0 -182 92.5t-70 268.5q0 126 33 250t97.5 231t152.5 189.5t205 130t247 47.5q150 0 313 -66q143 76 316 76q152 0 240.5 -82t88.5 -221q0 -200 -179 -319t-539 -146q7 -94 57 -132t181 -36.5t392 47.5z" />
    <glyph glyph-name="ccedilla" unicode="&#xe7;" horiz-adv-x="1148" 
d="M754 -426l-258 -4q7 136 -6.5 193t-49.5 57q-71 0 -164 -201l-151 51q94 246 211 328q-124 44 -187 155.5t-63 262.5t56.5 293t150.5 246.5t221.5 167.5t263.5 63q179 0 255 -106t52 -347l-288 -4q5 97 -18.5 141.5t-86.5 44.5q-77 0 -143.5 -61t-104.5 -159.5
t-38 -207.5q0 -70 14 -114.5t50 -77t102 -43t165.5 -5.5t245.5 27l23 -165q-198 -94 -365 -123q130 -120 113 -412z" />
    <glyph glyph-name="egrave" unicode="&#xe8;" horiz-adv-x="1167" 
d="M1069 1436l-59 -138q-127 36 -305.5 117t-307.5 160l174 258q116 -107 255 -218t243 -179zM1049 135q-163 -83 -303.5 -123.5t-244.5 -38.5t-184.5 33.5t-130 91.5t-75 136t-25.5 167q0 143 55.5 285.5t148 253t223 179.5t269.5 69q153 0 241.5 -82t88.5 -221
q0 -197 -181.5 -315.5t-537.5 -147.5q7 -95 65.5 -135.5t190.5 -37.5t377 50zM692 928q-99 0 -177 -96.5t-109 -235.5q407 31 407 217q0 53 -31.5 84t-89.5 31z" />
    <glyph glyph-name="eacute" unicode="&#xe9;" horiz-adv-x="1167" 
d="M543 1446q110 63 263 174t259 207l184 -254q-125 -82 -318.5 -158.5t-336.5 -107.5zM1049 135q-163 -83 -303.5 -123.5t-244.5 -38.5t-184.5 33.5t-130 91.5t-75 136t-25.5 167q0 143 55.5 285.5t148 253t223 179.5t269.5 69q153 0 241.5 -82t88.5 -221
q0 -197 -181.5 -315.5t-537.5 -147.5q7 -95 65.5 -135.5t190.5 -37.5t377 50zM692 928q-99 0 -177 -96.5t-109 -235.5q407 31 407 217q0 53 -31.5 84t-89.5 31z" />
    <glyph glyph-name="ecircumflex" unicode="&#xea;" horiz-adv-x="1167" 
d="M1042 1296l-198 215l-303 -206l-131 165l475 330h30l336 -338zM1049 135q-163 -83 -303.5 -123.5t-244.5 -38.5t-184.5 33.5t-130 91.5t-75 136t-25.5 167q0 143 55.5 285.5t148 253t223 179.5t269.5 69q153 0 241.5 -82t88.5 -221q0 -197 -181.5 -315.5t-537.5 -147.5
q7 -95 65.5 -135.5t190.5 -37.5t377 50zM692 928q-99 0 -177 -96.5t-109 -235.5q407 31 407 217q0 53 -31.5 84t-89.5 31z" />
    <glyph glyph-name="edieresis" unicode="&#xeb;" horiz-adv-x="1167" 
d="M1198 1352l-328 -4l78 321l348 6zM715 1350l-328 -4l78 319l348 4zM1049 135q-163 -83 -303.5 -123.5t-244.5 -38.5t-184.5 33.5t-130 91.5t-75 136t-25.5 167q0 143 55.5 285.5t148 253t223 179.5t269.5 69q153 0 241.5 -82t88.5 -221q0 -197 -181.5 -315.5
t-537.5 -147.5q7 -95 65.5 -135.5t190.5 -37.5t377 50zM692 928q-99 0 -177 -96.5t-109 -235.5q407 31 407 217q0 53 -31.5 84t-89.5 31z" />
    <glyph glyph-name="igrave" unicode="&#xec;" horiz-adv-x="856" 
d="M827 1417l-59 -137q-128 36 -305.5 116.5t-306.5 159.5l174 259q118 -108 256 -219.5t241 -178.5zM827 123q-109 -60 -202 -96t-164.5 -47t-126.5 -1.5t-90 40.5t-52.5 79.5t-16 115t21.5 148.5l94 396l-141 92l229 297l311 18l-168 -739q-7 -33 -11.5 -54t-5.5 -42.5
t-0.5 -33.5t9 -23t17 -15t29.5 -6t39.5 -0.5t54.5 7t67.5 11.5t85.5 17z" />
    <glyph glyph-name="iacute" unicode="&#xed;" horiz-adv-x="856" 
d="M301 1427q110 63 263 174t259 207l185 -254q-125 -82 -318.5 -158.5t-337.5 -107.5zM827 123q-109 -60 -202 -96t-164.5 -47t-126.5 -1.5t-90 40.5t-52.5 79.5t-16 115t21.5 148.5l94 396l-141 92l229 297l311 18l-168 -739q-7 -33 -11.5 -54t-5.5 -42.5t-0.5 -33.5
t9 -23t17 -15t29.5 -6t39.5 -0.5t54.5 7t67.5 11.5t85.5 17z" />
    <glyph glyph-name="icircumflex" unicode="&#xee;" horiz-adv-x="856" 
d="M801 1278l-199 215l-303 -207l-131 166l475 330h31l336 -338zM827 123q-109 -60 -202 -96t-164.5 -47t-126.5 -1.5t-90 40.5t-52.5 79.5t-16 115t21.5 148.5l94 396l-141 92l229 297l311 18l-168 -739q-7 -33 -11.5 -54t-5.5 -42.5t-0.5 -33.5t9 -23t17 -15t29.5 -6
t39.5 -0.5t54.5 7t67.5 11.5t85.5 17z" />
    <glyph glyph-name="idieresis" unicode="&#xef;" horiz-adv-x="856" 
d="M956 1333l-327 -4l78 322l348 6zM473 1331l-328 -4l78 320l348 4zM827 123q-109 -60 -202 -96t-164.5 -47t-126.5 -1.5t-90 40.5t-52.5 79.5t-16 115t21.5 148.5l94 396l-141 92l229 297l311 18l-168 -739q-7 -33 -11.5 -54t-5.5 -42.5t-0.5 -33.5t9 -23t17 -15t29.5 -6
t39.5 -0.5t54.5 7t67.5 11.5t85.5 17z" />
    <glyph glyph-name="eth" unicode="&#xf0;" horiz-adv-x="1261" 
d="M530 -33q-203 0 -322.5 121t-119.5 322q0 126 51.5 245t138 207t206 141.5t249.5 53.5q33 0 51 -2q-36 74 -79 139l-297 -84l-50 176l220 62q-59 65 -136 133l244 147q108 -89 199 -194l252 69l45 -174l-181 -51q168 -266 168 -555q0 -217 -83.5 -390.5t-229 -269.5
t-326.5 -96zM588 231q124 0 198 131t74 326q0 45 -2 68q-122 43 -203 43q-109 0 -179 -100t-70 -234q0 -109 48.5 -171.5t133.5 -62.5z" />
    <glyph glyph-name="ntilde" unicode="&#xf1;" horiz-adv-x="1394" 
d="M1061 1575q50 0 156 164l145 -90q-82 -146 -175.5 -234t-180.5 -88q-39 0 -78 18.5t-69.5 45t-57.5 53t-51 45t-41 18.5q-47 0 -152 -164l-147 91q82 145 175.5 233t180.5 88q39 0 77.5 -18.5t69 -45t57 -53t50.5 -45t41 -18.5zM1321 109q-137 -74 -242.5 -107
t-171.5 -25t-99.5 49t-33.5 113q0 90 65.5 329.5t65.5 311.5q0 49 -21.5 75t-72.5 26q-123 0 -281 -152l-145 -729h-313q69 356 93.5 485t55.5 313t53 347l314 18l-27 -205q234 228 457 228q231 0 231 -234q0 -96 -34.5 -243t-69.5 -271t-35 -164q0 -16 5 -23t25.5 -8.5
t56 5t101.5 20.5z" />
    <glyph glyph-name="ograve" unicode="&#xf2;" horiz-adv-x="1290" 
d="M1051 1436l-60 -138q-127 36 -305 117t-307 160l174 258q116 -107 255 -218t243 -179zM90 449q0 145 55 282t145.5 237t211.5 160t248 60q205 0 327.5 -128t122.5 -353q0 -146 -55 -283t-145 -236.5t-211 -160t-248 -60.5q-206 0 -328.5 129t-122.5 353zM874 659
q0 126 -48 196.5t-136 70.5q-82 0 -146 -64t-96 -161t-32 -205q0 -126 48 -196.5t136 -70.5q81 0 145.5 64t96.5 161t32 205z" />
    <glyph glyph-name="oacute" unicode="&#xf3;" horiz-adv-x="1290" 
d="M526 1446q111 64 264 175t259 206l184 -254q-125 -82 -318.5 -158.5t-336.5 -107.5zM90 449q0 145 55 282t145.5 237t211.5 160t248 60q205 0 327.5 -128t122.5 -353q0 -146 -55 -283t-145 -236.5t-211 -160t-248 -60.5q-206 0 -328.5 129t-122.5 353zM874 659
q0 126 -48 196.5t-136 70.5q-82 0 -146 -64t-96 -161t-32 -205q0 -126 48 -196.5t136 -70.5q81 0 145.5 64t96.5 161t32 205z" />
    <glyph glyph-name="ocircumflex" unicode="&#xf4;" horiz-adv-x="1290" 
d="M1024 1296l-199 215l-303 -206l-131 165l475 330h31l336 -338zM90 449q0 145 55 282t145.5 237t211.5 160t248 60q205 0 327.5 -128t122.5 -353q0 -146 -55 -283t-145 -236.5t-211 -160t-248 -60.5q-206 0 -328.5 129t-122.5 353zM874 659q0 126 -48 196.5t-136 70.5
q-82 0 -146 -64t-96 -161t-32 -205q0 -126 48 -196.5t136 -70.5q81 0 145.5 64t96.5 161t32 205z" />
    <glyph glyph-name="otilde" unicode="&#xf5;" horiz-adv-x="1290" 
d="M1008 1573q49 0 155 164l146 -90q-82 -146 -176 -234t-181 -88q-39 0 -78 18.5t-69.5 45t-57.5 53t-51 45t-41 18.5q-46 0 -151 -164l-148 91q82 145 176 233t181 88q39 0 77.5 -18.5t69 -45t57 -53t50.5 -45t41 -18.5zM90 449q0 145 55 282t145.5 237t211.5 160t248 60
q205 0 327.5 -128t122.5 -353q0 -146 -55 -283t-145 -236.5t-211 -160t-248 -60.5q-206 0 -328.5 129t-122.5 353zM874 659q0 126 -48 196.5t-136 70.5q-82 0 -146 -64t-96 -161t-32 -205q0 -126 48 -196.5t136 -70.5q81 0 145.5 64t96.5 161t32 205z" />
    <glyph glyph-name="odieresis" unicode="&#xf6;" horiz-adv-x="1290" 
d="M1182 1352l-328 -4l78 321l348 6zM698 1350l-327 -4l78 319l348 4zM90 449q0 145 55 282t145.5 237t211.5 160t248 60q205 0 327.5 -128t122.5 -353q0 -146 -55 -283t-145 -236.5t-211 -160t-248 -60.5q-206 0 -328.5 129t-122.5 353zM874 659q0 126 -48 196.5t-136 70.5
q-82 0 -146 -64t-96 -161t-32 -205q0 -126 48 -196.5t136 -70.5q81 0 145.5 64t96.5 161t32 205z" />
    <glyph glyph-name="divide" unicode="&#xf7;" horiz-adv-x="1277" 
d="M877 952h-324l61 299h326zM1202 825l-53 -272h-1026l55 272h1024zM713 127h-324l64 297h323z" />
    <glyph glyph-name="oslash" unicode="&#xf8;" horiz-adv-x="1290" 
d="M410 498q0 -36 2 -52l395 439q-45 45 -117 45q-83 0 -148.5 -64.5t-98.5 -162t-33 -205.5zM598 225q83 0 149.5 64.5t100 163t33.5 206.5q0 34 -2 48l-396 -439q46 -43 115 -43zM541 -33q-146 0 -252 68l-103 -113l-159 129l120 135q-57 111 -57 263q0 145 55 282
t145.5 237t211.5 160t248 60q142 0 256 -68l100 113l162 -131l-123 -137q55 -113 55 -258q0 -146 -55 -283t-145 -236.5t-211 -160t-248 -60.5z" />
    <glyph glyph-name="ugrave" unicode="&#xf9;" horiz-adv-x="1400" 
d="M1094 1417l-60 -137q-128 36 -305.5 116.5t-306.5 159.5l174 259q117 -108 255.5 -219.5t242.5 -178.5zM1339 109q-149 -80 -255 -112t-168 -17.5t-89 67t-22 143.5q-209 -221 -410 -221q-140 0 -202 114t-17 335l72 338l-146 96l234 297l311 18l-153 -718
q-20 -89 3.5 -133t80.5 -44q125 0 264 148l145 733h311l-163 -829q-12 -67 13 -75t167 19z" />
    <glyph glyph-name="uacute" unicode="&#xfa;" horiz-adv-x="1400" 
d="M567 1427q111 64 264 175t259 206l184 -254q-125 -82 -318.5 -158.5t-337.5 -107.5zM1339 109q-149 -80 -255 -112t-168 -17.5t-89 67t-22 143.5q-209 -221 -410 -221q-140 0 -202 114t-17 335l72 338l-146 96l234 297l311 18l-153 -718q-20 -89 3.5 -133t80.5 -44
q125 0 264 148l145 733h311l-163 -829q-12 -67 13 -75t167 19z" />
    <glyph glyph-name="ucircumflex" unicode="&#xfb;" horiz-adv-x="1400" 
d="M1067 1278l-199 215l-303 -207l-131 166l475 330h31l336 -338zM1339 109q-149 -80 -255 -112t-168 -17.5t-89 67t-22 143.5q-209 -221 -410 -221q-140 0 -202 114t-17 335l72 338l-146 96l234 297l311 18l-153 -718q-20 -89 3.5 -133t80.5 -44q125 0 264 148l145 733h311
l-163 -829q-12 -67 13 -75t167 19z" />
    <glyph glyph-name="udieresis" unicode="&#xfc;" horiz-adv-x="1400" 
d="M1223 1333l-328 -4l78 322l348 6zM739 1331l-327 -4l77 320l349 4zM1339 109q-149 -80 -255 -112t-168 -17.5t-89 67t-22 143.5q-209 -221 -410 -221q-140 0 -202 114t-17 335l72 338l-146 96l234 297l311 18l-153 -718q-20 -89 3.5 -133t80.5 -44q125 0 264 148l145 733
h311l-163 -829q-12 -67 13 -75t167 19z" />
    <glyph glyph-name="yacute" unicode="&#xfd;" horiz-adv-x="1308" 
d="M561 1442q110 63 263 174t259 207l185 -254q-125 -82 -318.5 -158.5t-337.5 -107.5zM1028 -119q-148 -296 -934 -268l43 303q269 -19 433.5 -9.5t199.5 44.5q21 21 21.5 95t-9.5 167q-3 30 -4 45q-221 -174 -428 -174q-435 0 -39 1063l310 10q-70 -198 -111.5 -343.5
t-55.5 -230.5t-7 -135t26.5 -66.5t52.5 -16.5q112 0 246 106q5 137 35.5 271t72 228t88 152t83.5 58q69 0 142 -26t73 -64q0 -101 -60.5 -290.5t-156.5 -353.5q1 -44 8.5 -142.5t10.5 -159.5t-6 -137.5t-34 -125.5z" />
    <glyph glyph-name="thorn" unicode="&#xfe;" horiz-adv-x="1286" 
d="M625 236q69 0 132 76.5t98.5 187t35.5 215.5q0 89 -32.5 133.5t-86.5 44.5q-90 0 -244 -129l-96 -490q113 -38 193 -38zM305 -377l-315 -22l387 1980l315 23l-119 -603q211 185 367 185q116 0 192 -99.5t76 -285.5q0 -123 -32 -243.5t-96.5 -226t-153 -186t-209.5 -127.5
t-258 -47q-26 0 -84 4z" />
    <glyph glyph-name="ydieresis" unicode="&#xff;" horiz-adv-x="1308" 
d="M1219 1348l-328 -5l78 322l348 6zM735 1346l-327 -5l77 320l349 4zM1028 -119q-148 -296 -934 -268l43 303q269 -19 433.5 -9.5t199.5 44.5q21 21 21.5 95t-9.5 167q-3 30 -4 45q-221 -174 -428 -174q-435 0 -39 1063l310 10q-70 -198 -111.5 -343.5t-55.5 -230.5
t-7 -135t26.5 -66.5t52.5 -16.5q112 0 246 106q5 137 35.5 271t72 228t88 152t83.5 58q69 0 142 -26t73 -64q0 -101 -60.5 -290.5t-156.5 -353.5q1 -44 8.5 -142.5t10.5 -159.5t-6 -137.5t-34 -125.5z" />
    <glyph glyph-name="Amacron" unicode="&#x100;" horiz-adv-x="1392" 
d="M1337 1874l-53 -275h-774l53 275h774zM887 -12q-2 56 -17 350h-430q-80 -185 -145 -338h-334q325 722 672 1409h457q74 -668 131 -1397zM797 1126q-215 -472 -248 -546h307q-8 117 -41 546h-18z" />
    <glyph glyph-name="amacron" unicode="&#x101;" horiz-adv-x="1310" 
d="M1255 1640l-53 -274h-774l53 274h774zM498 272q45 0 112 33.5t138 89.5q73 380 94 484q-122 32 -187 32q-68 0 -128.5 -75t-95 -186t-34.5 -220q0 -79 27.5 -118.5t73.5 -39.5zM1251 109q-148 -80 -254 -112.5t-167 -17t-86.5 66t-20.5 138.5q-105 -97 -210 -156
t-191 -59q-110 0 -179 92.5t-69 268.5q0 126 33 249t98.5 231t155.5 190.5t213 130t262 47.5q172 0 362 -58l-154 -798q-12 -64 13.5 -72.5t167.5 18.5z" />
    <glyph glyph-name="Abreve" unicode="&#x102;" horiz-adv-x="1392" 
d="M1227 1991l168 -111q-121 -163 -252 -252.5t-256 -89.5q-124 0 -222 87.5t-155 252.5l227 129q45 -111 96 -162t119 -51q62 0 127 49t148 148zM887 -12q-2 56 -17 350h-430q-80 -185 -145 -338h-334q325 722 672 1409h457q74 -668 131 -1397zM797 1126
q-215 -472 -248 -546h307q-8 117 -41 546h-18z" />
    <glyph glyph-name="abreve" unicode="&#x103;" horiz-adv-x="1310" 
d="M1145 1757l168 -110q-121 -163 -252 -252.5t-256 -89.5q-124 0 -222 87.5t-155 252.5l227 129q45 -111 96 -162t119 -51q62 0 127.5 48.5t147.5 147.5zM498 272q45 0 112 33.5t138 89.5q73 380 94 484q-122 32 -187 32q-68 0 -128.5 -75t-95 -186t-34.5 -220
q0 -79 27.5 -118.5t73.5 -39.5zM1251 109q-148 -80 -254 -112.5t-167 -17t-86.5 66t-20.5 138.5q-105 -97 -210 -156t-191 -59q-110 0 -179 92.5t-69 268.5q0 126 33 249t98.5 231t155.5 190.5t213 130t262 47.5q172 0 362 -58l-154 -798q-12 -64 13.5 -72.5t167.5 18.5z
" />
    <glyph glyph-name="Aogonek" unicode="&#x104;" horiz-adv-x="1392" 
d="M1139 -383q-134 -66 -245 -87.5t-179 -1.5t-105 66.5t-37 112.5q0 87 75.5 173.5t236.5 160.5q-6 147 -15 297h-430q-80 -185 -145 -338h-334q325 722 672 1409h457q74 -668 131 -1397h-2l2 -2q-190 -41 -279.5 -96.5t-89.5 -108.5q0 -33 25.5 -50t86 -14.5t152.5 28.5z
M797 1126q-215 -472 -248 -546h307q-8 117 -41 546h-18z" />
    <glyph glyph-name="aogonek" unicode="&#x105;" horiz-adv-x="1310" 
d="M1110 -391q-132 -67 -242.5 -89t-179 -2t-106 65.5t-37.5 109.5q0 171 258 330q-84 36 -78 161q-236 -215 -403 -215q-110 0 -179 92.5t-69 268.5q0 126 33 249t98.5 231t155.5 190.5t213 130t262 47.5q172 0 362 -58l-154 -798q-12 -64 13.5 -72.5t167.5 18.5l26 -159
q-3 -1 -8 -3.5t-8 -3.5q-218 -88 -315 -166.5t-97 -138.5q0 -33 25.5 -50t86.5 -15t152 28zM498 272q45 0 112 33.5t138 89.5q73 380 94 484q-122 32 -187 32q-68 0 -128.5 -75t-95 -186t-34.5 -220q0 -79 27.5 -118.5t73.5 -39.5z" />
    <glyph glyph-name="Cacute" unicode="&#x106;" horiz-adv-x="1331" 
d="M643 1698q110 63 263 174t259 207l185 -254q-125 -82 -318.5 -158.5t-337.5 -107.5zM891 1438q213 0 301 -138t80 -438l-309 -4q0 158 -31 222.5t-117 64.5q-109 0 -194 -88t-126.5 -212.5t-41.5 -254.5q0 -115 38.5 -187t121.5 -105.5t216.5 -23t321.5 65.5l-37 -287
q-319 -101 -540 -75t-338 166.5t-117 377.5q0 177 62.5 345t166 293t247 201.5t296.5 76.5z" />
    <glyph glyph-name="cacute" unicode="&#x107;" horiz-adv-x="1148" 
d="M526 1444q111 64 264 175t259 206l184 -254q-125 -82 -318.5 -158.5t-336.5 -107.5zM1085 733l-288 -4q5 97 -18.5 141.5t-86.5 44.5q-77 0 -143.5 -61t-104.5 -159.5t-38 -207.5q0 -70 14 -114.5t50 -77t102 -43t165.5 -5.5t245.5 27l23 -165q-137 -64 -256.5 -97.5
t-211.5 -37.5t-168 15.5t-128 59.5t-87.5 96.5t-52 124.5t-16.5 146q0 151 56.5 293t150.5 246.5t221.5 167.5t263.5 63q179 0 255 -106t52 -347z" />
    <glyph glyph-name="Cdotaccent" unicode="&#x10a;" horiz-adv-x="1331" 
d="M1063 1599l-342 -2l78 322l362 4zM891 1438q213 0 301 -138t80 -438l-309 -4q0 158 -31 222.5t-117 64.5q-109 0 -194 -88t-126.5 -212.5t-41.5 -254.5q0 -115 38.5 -187t121.5 -105.5t216.5 -23t321.5 65.5l-37 -287q-319 -101 -540 -75t-338 166.5t-117 377.5
q0 177 62.5 345t166 293t247 201.5t296.5 76.5z" />
    <glyph glyph-name="cdotaccent" unicode="&#x10b;" horiz-adv-x="1148" 
d="M946 1346l-342 -3l78 322l362 4zM1085 733l-288 -4q5 97 -18.5 141.5t-86.5 44.5q-77 0 -143.5 -61t-104.5 -159.5t-38 -207.5q0 -70 14 -114.5t50 -77t102 -43t165.5 -5.5t245.5 27l23 -165q-137 -64 -256.5 -97.5t-211.5 -37.5t-168 15.5t-128 59.5t-87.5 96.5
t-52 124.5t-16.5 146q0 151 56.5 293t150.5 246.5t221.5 167.5t263.5 63q179 0 255 -106t52 -347z" />
    <glyph glyph-name="Ccaron" unicode="&#x10c;" horiz-adv-x="1331" 
d="M913 1542h-28l-336 338l207 166l198 -215l303 207l132 -164zM891 1438q213 0 301 -138t80 -438l-309 -4q0 158 -31 222.5t-117 64.5q-109 0 -194 -88t-126.5 -212.5t-41.5 -254.5q0 -115 38.5 -187t121.5 -105.5t216.5 -23t321.5 65.5l-37 -287q-319 -101 -540 -75
t-338 166.5t-117 377.5q0 177 62.5 345t166 293t247 201.5t296.5 76.5z" />
    <glyph glyph-name="ccaron" unicode="&#x10d;" horiz-adv-x="1148" 
d="M799 1288h-29l-336 338l207 166l199 -215l303 207l131 -164zM1085 733l-288 -4q5 97 -18.5 141.5t-86.5 44.5q-77 0 -143.5 -61t-104.5 -159.5t-38 -207.5q0 -70 14 -114.5t50 -77t102 -43t165.5 -5.5t245.5 27l23 -165q-137 -64 -256.5 -97.5t-211.5 -37.5t-168 15.5
t-128 59.5t-87.5 96.5t-52 124.5t-16.5 146q0 151 56.5 293t150.5 246.5t221.5 167.5t263.5 63q179 0 255 -106t52 -347z" />
    <glyph glyph-name="Dcaron" unicode="&#x10e;" horiz-adv-x="1409" 
d="M874 1532h-28l-336 338l207 166l198 -215l304 207l131 -164zM1337 860q0 -130 -32 -248.5t-98.5 -225.5t-169 -188t-242.5 -136t-319 -70t-400 10l270 1399q482 75 736.5 -64.5t254.5 -476.5zM1012 823q0 347 -385 330l-172 -891q138 -7 246.5 35.5t175 121.5t101 181.5
t34.5 222.5z" />
    <glyph glyph-name="dcaron" unicode="&#x10f;" horiz-adv-x="1323" 
d="M1450 1821l322 10q-28 -165 -94.5 -302.5t-174.5 -273.5l-133 43q67 242 80 523zM514 268q94 0 246 131l96 484q-116 39 -194 39q-68 0 -131 -75.5t-98.5 -185.5t-35.5 -215q0 -85 31.5 -131.5t85.5 -46.5zM1264 109q-151 -80 -257 -112t-166.5 -17t-85.5 65t-20 137
q-225 -211 -391 -211q-115 0 -189.5 99t-74.5 284q0 124 32 244.5t96.5 226.5t152.5 186.5t208.5 127.5t257.5 47q28 0 86 -4l78 399l316 23l-250 -1282q-12 -64 12.5 -71.5t169.5 17.5z" />
    <glyph glyph-name="Dcroat" unicode="&#x110;" horiz-adv-x="1456" 
d="M1380 860q0 -130 -32 -248.5t-98.5 -225.5t-169 -188t-242.5 -136t-319 -70t-400 10l114 596h-133l43 223h133l113 580q482 75 736.5 -64.5t254.5 -476.5zM809 598h-250l-65 -340q139 -8 248.5 34t177 121.5t102.5 184t35 225.5q0 351 -389 334l-66 -336h252z" />
    <glyph glyph-name="dcroat" unicode="&#x111;" horiz-adv-x="1323" 
d="M514 268q94 0 246 131l92 471q-113 39 -195 39q-68 0 -129.5 -72.5t-96 -179t-34.5 -211.5q0 -85 31.5 -131.5t85.5 -46.5zM1272 109q-151 -81 -258 -113t-168.5 -17t-87.5 65.5t-21 137.5q-229 -211 -393 -211q-115 0 -189.5 99t-74.5 284q0 124 31.5 243t95.5 222.5
t152 182t208.5 124t257.5 45.5q24 0 86 -4l21 109h-270l38 199h271l20 108l316 21l-25 -129h131l-39 -201h-131l-186 -952q-12 -64 13 -71.5t177 17.5z" />
    <glyph glyph-name="Emacron" unicode="&#x112;" horiz-adv-x="1218" 
d="M1260 1874l-54 -275h-774l53 275h775zM1020 276l-78 -276h-866l274 1409h875l-54 -274h-544l-60 -316h457l-45 -225h-455l-61 -318h557z" />
    <glyph glyph-name="emacron" unicode="&#x113;" horiz-adv-x="1167" 
d="M1255 1649l-53 -275h-774l53 275h774zM1049 135q-163 -83 -303.5 -123.5t-244.5 -38.5t-184.5 33.5t-130 91.5t-75 136t-25.5 167q0 143 55.5 285.5t148 253t223 179.5t269.5 69q153 0 241.5 -82t88.5 -221q0 -197 -181.5 -315.5t-537.5 -147.5q7 -95 65.5 -135.5
t190.5 -37.5t377 50zM692 928q-99 0 -177 -96.5t-109 -235.5q407 31 407 217q0 53 -31.5 84t-89.5 31z" />
    <glyph glyph-name="Ebreve" unicode="&#x114;" horiz-adv-x="1218" 
d="M1149 1991l168 -111q-121 -163 -252 -252.5t-256 -89.5q-124 0 -222 87.5t-155 252.5l227 129q45 -111 96 -162t119 -51q62 0 127 49t148 148zM1020 276l-78 -276h-866l274 1409h875l-54 -274h-544l-60 -316h457l-45 -225h-455l-61 -318h557z" />
    <glyph glyph-name="ebreve" unicode="&#x115;" horiz-adv-x="1167" 
d="M1147 1765l168 -110q-121 -163 -252 -252.5t-256 -89.5q-124 0 -222 87.5t-155 252.5l227 129q45 -111 96 -162t119 -51q62 0 127.5 48.5t147.5 147.5zM1049 135q-163 -83 -303.5 -123.5t-244.5 -38.5t-184.5 33.5t-130 91.5t-75 136t-25.5 167q0 143 55.5 285.5t148 253
t223 179.5t269.5 69q153 0 241.5 -82t88.5 -221q0 -197 -181.5 -315.5t-537.5 -147.5q7 -95 65.5 -135.5t190.5 -37.5t377 50zM692 928q-99 0 -177 -96.5t-109 -235.5q407 31 407 217q0 53 -31.5 84t-89.5 31z" />
    <glyph glyph-name="Edotaccent" unicode="&#x116;" horiz-adv-x="1218" 
d="M965 1573l-342 -2l77 321l363 4zM1020 276l-78 -276h-866l274 1409h875l-54 -274h-544l-60 -316h457l-45 -225h-455l-61 -318h557z" />
    <glyph glyph-name="edotaccent" unicode="&#x117;" horiz-adv-x="1167" 
d="M963 1348l-342 -2l77 321l363 4zM1049 135q-163 -83 -303.5 -123.5t-244.5 -38.5t-184.5 33.5t-130 91.5t-75 136t-25.5 167q0 143 55.5 285.5t148 253t223 179.5t269.5 69q153 0 241.5 -82t88.5 -221q0 -197 -181.5 -315.5t-537.5 -147.5q7 -95 65.5 -135.5t190.5 -37.5
t377 50zM692 928q-99 0 -177 -96.5t-109 -235.5q407 31 407 217q0 53 -31.5 84t-89.5 31z" />
    <glyph glyph-name="Eogonek" unicode="&#x118;" horiz-adv-x="1218" 
d="M860 -393q-108 -53 -201.5 -77.5t-159 -20t-112.5 29t-69.5 65.5t-22.5 93q0 78 60.5 156t189.5 147h-469l274 1409h875l-54 -274h-544l-60 -316h457l-45 -225h-455l-61 -318h557l-78 -276q-190 -41 -279.5 -96.5t-89.5 -108.5q0 -33 26 -50t87 -15t152 28z" />
    <glyph glyph-name="eogonek" unicode="&#x119;" horiz-adv-x="1167" 
d="M926 -391q-134 -66 -245 -87.5t-179 -2t-105 64.5t-37 109q0 145 203 284q-50 -4 -69 -4q-100 0 -179 33.5t-128.5 92t-75 135.5t-25.5 167q0 143 56 286t149 253t223.5 179t269.5 69q153 0 241.5 -82t88.5 -221q0 -197 -182 -315.5t-537 -147.5q7 -95 64.5 -135.5
t189 -37.5t377.5 50l25 -164q-226 -123 -319 -201.5t-93 -136.5q0 -33 25 -50t85.5 -15t151.5 28zM694 928q-101 0 -179 -96.5t-107 -235.5q405 31 405 217q0 53 -31.5 84t-87.5 31z" />
    <glyph glyph-name="Ecaron" unicode="&#x11a;" horiz-adv-x="1218" 
d="M817 1516h-29l-335 337l206 166l199 -215l303 207l131 -164zM1020 276l-78 -276h-866l274 1409h875l-54 -274h-544l-60 -316h457l-45 -225h-455l-61 -318h557z" />
    <glyph glyph-name="ecaron" unicode="&#x11b;" horiz-adv-x="1167" 
d="M815 1290h-29l-335 338l206 166l199 -215l303 207l131 -164zM1049 135q-163 -83 -303.5 -123.5t-244.5 -38.5t-184.5 33.5t-130 91.5t-75 136t-25.5 167q0 143 55.5 285.5t148 253t223 179.5t269.5 69q153 0 241.5 -82t88.5 -221q0 -197 -181.5 -315.5t-537.5 -147.5
q7 -95 65.5 -135.5t190.5 -37.5t377 50zM692 928q-99 0 -177 -96.5t-109 -235.5q407 31 407 217q0 53 -31.5 84t-89.5 31z" />
    <glyph glyph-name="Gbreve" unicode="&#x11e;" horiz-adv-x="1378" 
d="M1262 2017l168 -110q-121 -163 -252 -252.5t-256 -89.5q-124 0 -222 87.5t-155 252.5l227 129q45 -111 95.5 -162t119.5 -51q62 0 127.5 48.5t147.5 147.5zM1055 -242l-301 -4l55 240q-322 -58 -506 85t-184 441q0 176 63.5 345t168.5 294.5t249 202t297 76.5
q217 0 308 -138.5t83 -437.5l-309 -4q-3 157 -36.5 222t-121.5 65q-109 0 -195.5 -88.5t-129.5 -216t-43 -260.5q0 -189 103 -270.5t316 -41.5l68 293l311 10z" />
    <glyph glyph-name="gbreve" unicode="&#x11f;" horiz-adv-x="1273" 
d="M1165 1767l168 -110q-121 -163 -252 -252.5t-256 -89.5q-124 0 -221.5 87.5t-154.5 252.5l227 129q45 -111 95.5 -162t119.5 -51q62 0 126.5 48.5t147.5 147.5zM528 356q83 0 197 93q17 206 96 419q-113 58 -182 58q-65 0 -121.5 -65.5t-86.5 -158.5t-30 -182
q0 -83 34.5 -123.5t92.5 -40.5zM1001 -125q-144 -292 -933 -264l30 301q272 -17 436.5 -6t200.5 47q9 9 12.5 28t2 51t-4 60.5t-8 76.5t-8.5 79q-195 -176 -367 -176q-119 0 -195.5 88.5t-76.5 259.5q0 112 30.5 223t90.5 208t141 172t190 118t230 43q97 0 195 -45
q46 55 82 55q64 0 136 -33t72 -71q0 -90 -74 -272.5t-182 -354.5q-1 -80 9 -177.5t18.5 -160t3.5 -131.5t-31 -119z" />
    <glyph glyph-name="Gdotaccent" unicode="&#x120;" horiz-adv-x="1378" 
d="M1079 1599l-342 -2l78 322l363 4zM1055 -242l-301 -4l55 240q-322 -58 -506 85t-184 441q0 176 63.5 345t168.5 294.5t249 202t297 76.5q217 0 308 -138.5t83 -437.5l-309 -4q-3 157 -36.5 222t-121.5 65q-109 0 -195.5 -88.5t-129.5 -216t-43 -260.5q0 -189 103 -270.5
t316 -41.5l68 293l311 10z" />
    <glyph glyph-name="gdotaccent" unicode="&#x121;" horiz-adv-x="1273" 
d="M983 1350l-342 -2l78 321l362 4zM528 356q83 0 197 93q17 206 96 419q-113 58 -182 58q-65 0 -121.5 -65.5t-86.5 -158.5t-30 -182q0 -83 34.5 -123.5t92.5 -40.5zM1001 -125q-144 -292 -933 -264l30 301q272 -17 436.5 -6t200.5 47q9 9 12.5 28t2 51t-4 60.5t-8 76.5
t-8.5 79q-195 -176 -367 -176q-119 0 -195.5 88.5t-76.5 259.5q0 112 30.5 223t90.5 208t141 172t190 118t230 43q97 0 195 -45q46 55 82 55q64 0 136 -33t72 -71q0 -90 -74 -272.5t-182 -354.5q-1 -80 9 -177.5t18.5 -160t3.5 -131.5t-31 -119z" />
    <glyph glyph-name="Gcommaaccent" unicode="&#x122;" horiz-adv-x="1378" 
d="M1055 -242l-301 -4l55 240q-322 -58 -506 85t-184 441q0 176 63.5 345t168.5 294.5t249 202t297 76.5q217 0 308 -138.5t83 -437.5l-309 -4q-3 157 -36.5 222t-121.5 65q-109 0 -195.5 -88.5t-129.5 -216t-43 -260.5q0 -189 103 -270.5t316 -41.5l68 293l311 10z
M291 -768q42 103 62 223t14 230l378 4q-28 -155 -113.5 -291t-211.5 -223z" />
    <glyph glyph-name="gcommaaccent" unicode="&#x123;" horiz-adv-x="1273" 
d="M1090 1788q-41 -102 -60.5 -222.5t-13.5 -228.5l-379 -6q26 155 112 290.5t214 223.5zM528 356q83 0 197 93q17 206 96 419q-113 58 -182 58q-65 0 -121.5 -65.5t-86.5 -158.5t-30 -182q0 -83 34.5 -123.5t92.5 -40.5zM1001 -125q-144 -292 -933 -264l30 301
q272 -17 436.5 -6t200.5 47q9 9 12.5 28t2 51t-4 60.5t-8 76.5t-8.5 79q-195 -176 -367 -176q-119 0 -195.5 88.5t-76.5 259.5q0 112 30.5 223t90.5 208t141 172t190 118t230 43q97 0 195 -45q46 55 82 55q64 0 136 -33t72 -71q0 -90 -74 -272.5t-182 -354.5
q-1 -80 9 -177.5t18.5 -160t3.5 -131.5t-31 -119z" />
    <glyph glyph-name="Hbar" unicode="&#x126;" horiz-adv-x="1574" 
d="M1053 778l41 207h-447l-41 -207h447zM903 0l101 522h-447l-100 -522h-336l188 975h-137l45 223h135l41 211h336l-43 -223h447l43 223h335l-41 -211h138l-43 -223h-138l-188 -975h-336z" />
    <glyph glyph-name="hbar" unicode="&#x127;" horiz-adv-x="1388" 
d="M1321 109q-138 -74 -243.5 -107t-172 -25t-100 49t-33.5 113q0 89 64.5 327t64.5 308q0 47 -21.5 71.5t-74.5 24.5q-129 0 -285 -163l-137 -707h-311l247 1274h-133l39 201h133l21 108l315 21l-24 -129h268l-39 -199h-268l-62 -315q229 215 447 215q229 0 229 -234
q0 -95 -34.5 -239.5t-68.5 -267t-34 -161.5q0 -16 5 -23t25.5 -8.5t56 5t101.5 20.5z" />
    <glyph glyph-name="Imacron" unicode="&#x12a;" horiz-adv-x="1177" 
d="M1231 1874l-53 -275h-775l54 275h774zM690 260h289l-64 -260h-882l51 260h274l172 891h-276l51 258h883l-51 -258h-275z" />
    <glyph glyph-name="imacron" unicode="&#x12b;" horiz-adv-x="856" 
d="M1014 1630l-53 -274h-775l54 274h774zM827 123q-109 -60 -202 -96t-164.5 -47t-126.5 -1.5t-90 40.5t-52.5 79.5t-16 115t21.5 148.5l94 396l-141 92l229 297l311 18l-168 -739q-7 -33 -11.5 -54t-5.5 -42.5t-0.5 -33.5t9 -23t17 -15t29.5 -6t39.5 -0.5t54.5 7t67.5 11.5
t85.5 17z" />
    <glyph glyph-name="Ibreve" unicode="&#x12c;" horiz-adv-x="1177" 
d="M1120 1991l168 -111q-121 -163 -252 -252.5t-256 -89.5q-124 0 -222 87.5t-155 252.5l228 129q45 -111 96 -162t119 -51q62 0 126.5 48.5t147.5 148.5zM690 260h289l-64 -260h-882l51 260h274l172 891h-276l51 258h883l-51 -258h-275z" />
    <glyph glyph-name="ibreve" unicode="&#x12d;" horiz-adv-x="856" 
d="M905 1747l168 -111q-121 -163 -252 -252.5t-256 -89.5q-124 0 -222 87.5t-155 252.5l228 129q45 -111 95.5 -162t119.5 -51q62 0 126.5 48.5t147.5 148.5zM827 123q-109 -60 -202 -96t-164.5 -47t-126.5 -1.5t-90 40.5t-52.5 79.5t-16 115t21.5 148.5l94 396l-141 92
l229 297l311 18l-168 -739q-7 -33 -11.5 -54t-5.5 -42.5t-0.5 -33.5t9 -23t17 -15t29.5 -6t39.5 -0.5t54.5 7t67.5 11.5t85.5 17z" />
    <glyph glyph-name="Iogonek" unicode="&#x12e;" horiz-adv-x="1177" 
d="M688 -391q-108 -53 -201.5 -77.5t-159 -20t-112.5 29t-69.5 65.5t-22.5 93q0 164 209 301h-299l51 260h274l172 891h-276l51 258h883l-51 -258h-275l-172 -891h289l-64 -260h-251q-134 -45 -198.5 -98.5t-64.5 -104.5q0 -33 26 -50t87 -15t152 28z" />
    <glyph glyph-name="iogonek" unicode="&#x12f;" horiz-adv-x="856" 
d="M750 1352l-347 -17l76 322l367 16zM700 -391q-108 -53 -201.5 -77.5t-159 -20.5t-112.5 28t-69.5 63.5t-22.5 90.5q0 146 195 287q-105 22 -139 120.5t6 261.5l94 396l-141 92l229 297l311 18l-168 -739q-7 -33 -11.5 -54t-5.5 -42.5t-0.5 -33.5t9 -23t17 -15t29.5 -6
t39.5 -0.5t54.5 7t67.5 11.5t85.5 17l20 -164q-413 -204 -413 -326q0 -113 264 -37z" />
    <glyph glyph-name="Idotaccent" unicode="&#x130;" horiz-adv-x="1177" 
d="M938 1573l-342 -2l78 321l362 4zM690 260h289l-64 -260h-882l51 260h274l172 891h-276l51 258h883l-51 -258h-275z" />
    <glyph glyph-name="dotlessi" unicode="&#x131;" horiz-adv-x="856" 
d="M827 123q-109 -60 -202 -96t-164.5 -47t-126.5 -1.5t-90 40.5t-52.5 79.5t-16 115t21.5 148.5l94 396l-141 92l229 297l311 18l-168 -739q-7 -33 -11.5 -54t-5.5 -42.5t-0.5 -33.5t9 -23t17 -15t29.5 -6t39.5 -0.5t54.5 7t67.5 11.5t85.5 17z" />
    <glyph glyph-name="Kcommaaccent" unicode="&#x136;" horiz-adv-x="1376" 
d="M889 -20l-346 716l-135 -696h-332l274 1409h330l-135 -698l565 698h358l-577 -704l348 -685zM326 -621q88 215 75 453l379 4q-28 -155 -113.5 -291t-211.5 -223z" />
    <glyph glyph-name="kcommaaccent" unicode="&#x137;" horiz-adv-x="1286" 
d="M838 -20l-312 460q205 129 293 224t88 157q0 76 -80 76q-124 0 -305 -184l-139 -713h-311l305 1581l317 23l-125 -641q116 109 232.5 166t220.5 57q110 0 170.5 -56.5t60.5 -152.5q0 -244 -376 -514l319 -443zM295 -621q42 103 62 223t14 230l379 4q-28 -155 -113.5 -291
t-212.5 -223z" />
    <glyph glyph-name="Lacute" unicode="&#x139;" horiz-adv-x="1140" 
d="M535 1671q110 63 263 174t259 207l184 -254q-125 -82 -318.5 -158.5t-336.5 -107.5zM942 0h-866l274 1409h336l-219 -1128h530z" />
    <glyph glyph-name="lacute" unicode="&#x13a;" horiz-adv-x="1067" 
d="M696 1855q111 64 264 175t259 206l184 -254q-125 -82 -318.5 -158.5t-336.5 -107.5zM975 139q-157 -95 -289.5 -134.5t-230.5 -24.5t-164.5 81.5t-95.5 180.5l-78 -49l-72 124l127 82q-2 16 -2 50q0 191 41.5 372t112.5 321.5t162 247t194.5 163.5t204.5 57
q114 0 181 -72.5t67 -202.5q0 -412 -633 -925q21 -149 124 -174t312 59zM778 1298q-43 0 -89 -49.5t-86 -136t-69.5 -218t-37.5 -280.5q174 180 261 331.5t87 260.5q0 48 -18.5 70t-47.5 22z" />
    <glyph glyph-name="Lcommaaccent" unicode="&#x13b;" horiz-adv-x="1140" 
d="M942 0h-866l274 1409h336l-219 -1128h530zM205 -600q42 103 62 223t14 230l378 4q-28 -155 -113.5 -291t-211.5 -223z" />
    <glyph glyph-name="lcommaaccent" unicode="&#x13c;" horiz-adv-x="1067" 
d="M975 139q-157 -95 -289.5 -134.5t-230.5 -24.5t-164.5 81.5t-95.5 180.5l-78 -49l-72 124l127 82q-2 16 -2 50q0 191 41.5 372t112.5 321.5t162 247t194.5 163.5t204.5 57q114 0 181 -72.5t67 -202.5q0 -412 -633 -925q21 -149 124 -174t312 59zM778 1298
q-43 0 -89 -49.5t-86 -136t-69.5 -218t-37.5 -280.5q174 180 261 331.5t87 260.5q0 48 -18.5 70t-47.5 22zM168 -625q42 103 62 223t14 230l379 4q-28 -155 -113.5 -291t-212.5 -223z" />
    <glyph glyph-name="Lcaron" unicode="&#x13d;" horiz-adv-x="1140" 
d="M924 1556l321 11q-28 -166 -94.5 -303.5t-173.5 -272.5l-133 43q67 242 80 522zM942 0h-866l274 1409h336l-219 -1128h530z" />
    <glyph glyph-name="lcaron" unicode="&#x13e;" horiz-adv-x="1067" 
d="M1294 1821l322 10q-28 -166 -94.5 -303.5t-173.5 -272.5l-134 43q67 242 80 523zM975 139q-157 -95 -289.5 -134.5t-230.5 -24.5t-164.5 81.5t-95.5 180.5l-78 -49l-72 124l127 82q-2 16 -2 50q0 191 41.5 372t112.5 321.5t162 247t194.5 163.5t204.5 57q114 0 181 -72.5
t67 -202.5q0 -412 -633 -925q21 -149 124 -174t312 59zM778 1298q-43 0 -89 -49.5t-86 -136t-69.5 -218t-37.5 -280.5q174 180 261 331.5t87 260.5q0 48 -18.5 70t-47.5 22z" />
    <glyph glyph-name="Ldot" unicode="&#x13f;" horiz-adv-x="1140" 
d="M942 0h-866l274 1409h336l-219 -1128h530zM1063 561h-299l67 340h299z" />
    <glyph glyph-name="ldot" unicode="&#x140;" horiz-adv-x="1327" 
d="M975 139q-157 -95 -289.5 -134.5t-230.5 -24.5t-164.5 81.5t-95.5 180.5l-78 -49l-72 124l127 82q-2 16 -2 50q0 191 41.5 372t112.5 321.5t162 247t194.5 163.5t204.5 57q114 0 181 -72.5t67 -202.5q0 -412 -633 -925q21 -149 124 -174t312 59zM778 1298
q-43 0 -89 -49.5t-86 -136t-69.5 -218t-37.5 -280.5q174 180 261 331.5t87 260.5q0 48 -18.5 70t-47.5 22zM1300 524h-286l63 328h287z" />
    <glyph glyph-name="Lslash" unicode="&#x141;" horiz-adv-x="1146" 
d="M948 0h-866l106 549l-122 -57l-7 225l179 82l118 610h336l-86 -440l252 116l6 -227l-307 -141l-84 -436h531z" />
    <glyph glyph-name="lslash" unicode="&#x142;" horiz-adv-x="1067" 
d="M147 1618q0 122 95.5 206.5t261.5 121.5t402 23t505 -83l-104 -244q-156 46 -305 74t-263 35t-201.5 -0.5t-133.5 -29t-46 -52.5q0 -6 1.5 -11.5t5.5 -12t7.5 -11.5t11 -12.5l13 -13t16.5 -14.5t18 -14.5t20.5 -16.5t21.5 -17l-166 -198q-76 64 -118 128.5t-42 141.5z
M975 139q-157 -95 -289.5 -134.5t-230.5 -24.5t-164.5 81.5t-95.5 180.5l-78 -49l-72 124l127 82q-2 16 -2 50q0 191 41.5 372t112.5 321.5t162 247t194.5 163.5t204.5 57q114 0 181 -72.5t67 -202.5q0 -412 -633 -925q21 -149 124 -174t312 59zM778 1298q-43 0 -89 -49.5
t-86 -136t-69.5 -218t-37.5 -280.5q174 180 261 331.5t87 260.5q0 48 -18.5 70t-47.5 22z" />
    <glyph glyph-name="Nacute" unicode="&#x143;" horiz-adv-x="1503" 
d="M692 1675q110 63 263 174t259 207l185 -254q-125 -82 -318.5 -158.5t-337.5 -107.5zM870 0l-299 924h-18l-172 -924h-305l272 1403l361 12l284 -878h17l164 872h305l-275 -1409h-334z" />
    <glyph glyph-name="nacute" unicode="&#x144;" horiz-adv-x="1394" 
d="M578 1448q110 63 263 174t259 207l184 -254q-125 -82 -318.5 -158.5t-336.5 -107.5zM1321 109q-137 -74 -242.5 -107t-171.5 -25t-99.5 49t-33.5 113q0 90 65.5 329.5t65.5 311.5q0 49 -21.5 75t-72.5 26q-123 0 -281 -152l-145 -729h-313q69 356 93.5 485t55.5 313
t53 347l314 18l-27 -205q234 228 457 228q231 0 231 -234q0 -96 -34.5 -243t-69.5 -271t-35 -164q0 -16 5 -23t25.5 -8.5t56 5t101.5 20.5z" />
    <glyph glyph-name="Ncommaaccent" unicode="&#x145;" horiz-adv-x="1503" 
d="M870 0l-299 924h-18l-172 -924h-305l272 1403l361 12l284 -878h17l164 872h305l-275 -1409h-334zM360 -600q42 103 62 223t14 230l379 4q-28 -155 -113.5 -291t-212.5 -223z" />
    <glyph glyph-name="ncommaaccent" unicode="&#x146;" horiz-adv-x="1394" 
d="M1321 109q-137 -74 -242.5 -107t-171.5 -25t-99.5 49t-33.5 113q0 90 65.5 329.5t65.5 311.5q0 49 -21.5 75t-72.5 26q-123 0 -281 -152l-145 -729h-313q69 356 93.5 485t55.5 313t53 347l314 18l-27 -205q234 228 457 228q231 0 231 -234q0 -96 -34.5 -243t-69.5 -271
t-35 -164q0 -16 5 -23t25.5 -8.5t56 5t101.5 20.5zM313 -625q42 103 62 223t14 230l379 4q-28 -155 -113.5 -291t-212.5 -223z" />
    <glyph glyph-name="Ncaron" unicode="&#x147;" horiz-adv-x="1503" 
d="M963 1520h-29l-336 338l207 165l199 -215l303 207l131 -164zM870 0l-299 924h-18l-172 -924h-305l272 1403l361 12l284 -878h17l164 872h305l-275 -1409h-334z" />
    <glyph glyph-name="ncaron" unicode="&#x148;" horiz-adv-x="1394" 
d="M850 1292h-29l-336 338l207 166l199 -215l303 207l131 -164zM1321 109q-137 -74 -242.5 -107t-171.5 -25t-99.5 49t-33.5 113q0 90 65.5 329.5t65.5 311.5q0 49 -21.5 75t-72.5 26q-123 0 -281 -152l-145 -729h-313q69 356 93.5 485t55.5 313t53 347l314 18l-27 -205
q234 228 457 228q231 0 231 -234q0 -96 -34.5 -243t-69.5 -271t-35 -164q0 -16 5 -23t25.5 -8.5t56 5t101.5 20.5z" />
    <glyph glyph-name="Omacron" unicode="&#x14c;" horiz-adv-x="1474" 
d="M1378 1903l-53 -275h-774l53 275h774zM893 1442q230 0 371 -154t141 -424q0 -180 -60 -345t-162.5 -286.5t-245.5 -193.5t-302 -72q-230 0 -372 154t-142 424q0 180 60.5 345t163 286.5t246 193.5t302.5 72zM698 254q112 0 198 86t128.5 216.5t42.5 277.5
q0 158 -67.5 239.5t-172.5 81.5q-84 0 -155 -50t-117 -132t-71 -184.5t-25 -210.5q0 -158 67.5 -241t171.5 -83z" />
    <glyph glyph-name="omacron" unicode="&#x14d;" horiz-adv-x="1290" 
d="M1239 1649l-53 -275h-774l53 275h774zM90 449q0 145 55 282t145.5 237t211.5 160t248 60q205 0 327.5 -128t122.5 -353q0 -146 -55 -283t-145 -236.5t-211 -160t-248 -60.5q-206 0 -328.5 129t-122.5 353zM874 659q0 126 -48 196.5t-136 70.5q-82 0 -146 -64t-96 -161
t-32 -205q0 -126 48 -196.5t136 -70.5q81 0 145.5 64t96.5 161t32 205z" />
    <glyph glyph-name="Obreve" unicode="&#x14e;" horiz-adv-x="1474" 
d="M1270 2019l168 -110q-121 -163 -252 -252.5t-256 -89.5q-124 0 -222 87.5t-155 252.5l227 129q45 -111 95.5 -162t119.5 -51q62 0 127.5 48.5t147.5 147.5zM893 1442q230 0 371 -154t141 -424q0 -180 -60 -345t-162.5 -286.5t-245.5 -193.5t-302 -72q-230 0 -372 154
t-142 424q0 180 60.5 345t163 286.5t246 193.5t302.5 72zM698 254q112 0 198 86t128.5 216.5t42.5 277.5q0 158 -67.5 239.5t-172.5 81.5q-84 0 -155 -50t-117 -132t-71 -184.5t-25 -210.5q0 -158 67.5 -241t171.5 -83z" />
    <glyph glyph-name="obreve" unicode="&#x14f;" horiz-adv-x="1290" 
d="M1128 1765l168 -110q-121 -163 -252 -252.5t-256 -89.5q-124 0 -221.5 87.5t-154.5 252.5l227 129q45 -111 96 -162t119 -51q62 0 126.5 48.5t147.5 147.5zM90 449q0 145 55 282t145.5 237t211.5 160t248 60q205 0 327.5 -128t122.5 -353q0 -146 -55 -283t-145 -236.5
t-211 -160t-248 -60.5q-206 0 -328.5 129t-122.5 353zM874 659q0 126 -48 196.5t-136 70.5q-82 0 -146 -64t-96 -161t-32 -205q0 -126 48 -196.5t136 -70.5q81 0 145.5 64t96.5 161t32 205z" />
    <glyph glyph-name="Ohungarumlaut" unicode="&#x150;" horiz-adv-x="1474" 
d="M645 1567l-129 106q72 98 152.5 229t132.5 234l272 -160q-79 -97 -199 -212t-229 -197zM1112 1565l-131 108q148 199 270 441l281 -144q-77 -97 -193.5 -209.5t-226.5 -195.5zM893 1442q230 0 371 -154t141 -424q0 -180 -60 -345t-162.5 -286.5t-245.5 -193.5t-302 -72
q-230 0 -372 154t-142 424q0 180 60.5 345t163 286.5t246 193.5t302.5 72zM698 254q112 0 198 86t128.5 216.5t42.5 277.5q0 158 -67.5 239.5t-172.5 81.5q-84 0 -155 -50t-117 -132t-71 -184.5t-25 -210.5q0 -158 67.5 -241t171.5 -83z" />
    <glyph glyph-name="ohungarumlaut" unicode="&#x151;" horiz-adv-x="1290" 
d="M506 1313l-129 106q72 98 152.5 229t132.5 234l272 -160q-79 -97 -199 -212t-229 -197zM973 1311l-131 108q148 199 270 441l281 -144q-77 -97 -193.5 -209.5t-226.5 -195.5zM90 449q0 145 55 282t145.5 237t211.5 160t248 60q205 0 327.5 -128t122.5 -353
q0 -146 -55 -283t-145 -236.5t-211 -160t-248 -60.5q-206 0 -328.5 129t-122.5 353zM874 659q0 126 -48 196.5t-136 70.5q-82 0 -146 -64t-96 -161t-32 -205q0 -126 48 -196.5t136 -70.5q81 0 145.5 64t96.5 161t32 205z" />
    <glyph glyph-name="OE" unicode="&#x152;" horiz-adv-x="1902" 
d="M446 612q0 -161 91.5 -245.5t293.5 -90.5l164 859q-257 -4 -403 -148t-146 -375zM1704 276l-78 -276h-729q-377 0 -577.5 143.5t-200.5 440.5q0 139 41 261.5t128 226.5t214 178.5t308.5 116.5t401.5 42h697l-54 -274h-534l-61 -316h446l-45 -225h-444l-62 -318h549z" />
    <glyph glyph-name="oe" unicode="&#x153;" horiz-adv-x="1937" 
d="M874 664q0 127 -48 196.5t-136 69.5q-82 0 -146.5 -66.5t-96 -165.5t-31.5 -206q0 -127 48 -197t136 -70q81 0 145.5 67t96.5 166t32 206zM1462 928q-101 0 -179 -96.5t-107 -235.5q405 31 405 217q0 53 -31.5 84t-87.5 31zM1819 135q-178 -92 -326.5 -132t-255 -29
t-179.5 56t-116 122q-182 -185 -410 -185q-201 0 -321.5 129t-120.5 353q0 194 91.5 365.5t242 272.5t317.5 101q128 0 222 -54.5t145 -156.5q91 99 203.5 155t236.5 56q155 0 244.5 -82t89.5 -221q0 -197 -182 -315.5t-537 -147.5q7 -95 65 -135.5t189.5 -37.5t376.5 50z
" />
    <glyph glyph-name="Racute" unicode="&#x154;" horiz-adv-x="1359" 
d="M584 1688q111 64 263.5 174.5t258.5 205.5l184 -253q-126 -82 -319 -159t-336 -108zM862 -23l-289 664v2q204 88 289.5 170t85.5 176q0 93 -82 135t-241 25l-222 -1149h-327l270 1399q174 24 316 26.5t242.5 -15.5t174 -50.5t116.5 -80.5t63 -102.5t20 -119.5
q0 -264 -344 -465l280 -569z" />
    <glyph glyph-name="racute" unicode="&#x155;" horiz-adv-x="1236" 
d="M563 1454q110 63 263 174t259 207l185 -254q-125 -82 -318.5 -158.5t-337.5 -107.5zM1151 80q-216 -99 -351 -108.5t-189.5 74t-17 272.5t168.5 481q-126 -27 -197 -31q-129 -209 -395 -463l-111 119q203 227 283 358q-149 38 -149 152q0 106 103.5 202.5t227.5 96.5
q68 0 109 -41.5t41 -114.5q0 -27 -2 -39q205 45 358 125l154 -67q-228 -538 -262 -710q-26 -129 29 -156q40 -19 165 7q9 2 21 5z" />
    <glyph glyph-name="Rcommaaccent" unicode="&#x156;" horiz-adv-x="1359" 
d="M862 -23l-289 664v2q204 88 289.5 170t85.5 176q0 93 -82 135t-241 25l-222 -1149h-327l270 1399q174 24 316 26.5t242.5 -15.5t174 -50.5t116.5 -80.5t63 -102.5t20 -119.5q0 -264 -344 -465l280 -569zM307 -623q42 103 62 223t14 230l379 4q-28 -155 -113.5 -291
t-212.5 -223z" />
    <glyph glyph-name="rcommaaccent" unicode="&#x157;" horiz-adv-x="1236" 
d="M1151 80q-216 -99 -351 -108.5t-189.5 74t-17 272.5t168.5 481q-126 -27 -197 -31q-129 -209 -395 -463l-111 119q203 227 283 358q-149 38 -149 152q0 106 103.5 202.5t227.5 96.5q68 0 109 -41.5t41 -114.5q0 -27 -2 -39q205 45 358 125l154 -67q-228 -538 -262 -710
q-26 -129 29 -156q40 -19 165 7q9 2 21 5zM182 -606q42 103 62 222.5t14 229.5l379 4q-28 -155 -113.5 -291t-212.5 -223z" />
    <glyph glyph-name="Rcaron" unicode="&#x158;" horiz-adv-x="1359" 
d="M854 1532h-29l-336 338l207 166l199 -215l303 207l131 -164zM862 -23l-289 664v2q204 88 289.5 170t85.5 176q0 93 -82 135t-241 25l-222 -1149h-327l270 1399q174 24 316 26.5t242.5 -15.5t174 -50.5t116.5 -80.5t63 -102.5t20 -119.5q0 -264 -344 -465l280 -569z" />
    <glyph glyph-name="rcaron" unicode="&#x159;" horiz-adv-x="1236" 
d="M834 1296h-29l-336 338l207 166l198 -215l304 207l131 -164zM1151 80q-216 -99 -351 -108.5t-189.5 74t-17 272.5t168.5 481q-126 -27 -197 -31q-129 -209 -395 -463l-111 119q203 227 283 358q-149 38 -149 152q0 106 103.5 202.5t227.5 96.5q68 0 109 -41.5t41 -114.5
q0 -27 -2 -39q205 45 358 125l154 -67q-228 -538 -262 -710q-26 -129 29 -156q40 -19 165 7q9 2 21 5z" />
    <glyph glyph-name="Sacute" unicode="&#x15a;" horiz-adv-x="1175" 
d="M543 1696q110 63 263 174t259 207l184 -254q-126 -82 -319 -159t-336 -108zM1155 1014l-278 -60q-26 106 -72 155.5t-117 49.5q-63 0 -104 -39t-41 -96q0 -39 27 -80.5t70.5 -80t95.5 -80t104.5 -87.5t96 -94t70.5 -107.5t27 -121.5q0 -63 -25 -121.5t-74.5 -111
t-131 -90t-187 -57.5t-252 -13t-315.5 43l66 311q125 -36 225 -53.5t164.5 -18t107 12t60.5 33.5t18 50q0 34 -26 70.5t-68 71.5t-93 73t-101.5 82.5t-92.5 92.5t-68 110t-26 129q0 87 40.5 168.5t109.5 143.5t169 99.5t211 37.5q184 0 280 -105t130 -317z" />
    <glyph glyph-name="sacute" unicode="&#x15b;" horiz-adv-x="1085" 
d="M444 1454q111 64 264 175t259 206l184 -254q-125 -82 -318.5 -158.5t-336.5 -107.5zM997 362q0 -65 -23.5 -120t-81.5 -105.5t-148 -86t-232.5 -55.5t-325.5 -18l7 287q181 -10 289 -4.5t152 26t44 62.5q0 23 -10 48.5t-32.5 56.5t-42 55t-54.5 64.5t-54 64.5
q-154 -98 -348 -197l-65 144q207 126 309 207q-41 80 -41 153q0 84 51 149.5t129 97.5t166 32q61 0 106 -17t68 -51t21.5 -79.5t-37.5 -107.5t-105 -130q20 -29 77 -102.5t89 -120t62 -118t30 -135.5z" />
    <glyph glyph-name="Scedilla" unicode="&#x15e;" horiz-adv-x="1175" 
d="M481 -426q7 137 -6 193.5t-49 56.5q-71 0 -164 -201l-151 51q87 225 188 310q-116 12 -250 39l66 311q125 -36 225 -53.5t164.5 -18t107 12t60.5 33.5t18 50q0 34 -26 70.5t-68 71.5t-93 73t-101.5 82.5t-92.5 92.5t-68 110t-26 129q0 87 40.5 168.5t109.5 143.5
t169 99.5t211 37.5q184 0 280 -105t130 -317l-278 -60q-26 106 -72 155.5t-117 49.5q-63 0 -104 -39t-41 -96q0 -39 27 -80.5t70.5 -80t95.5 -80t104.5 -87.5t96 -94t70.5 -107.5t27 -121.5q0 -131 -104 -237t-307 -142q133 -117 116 -416z" />
    <glyph glyph-name="scedilla" unicode="&#x15f;" horiz-adv-x="1085" 
d="M532 -414q7 137 -6 193.5t-49 56.5q-71 0 -164 -201l-151 52q79 203 170 293q-67 -3 -146 -3l7 287q181 -10 289 -4.5t152 26t44 62.5q0 23 -10 48.5t-32.5 56.5t-42 55t-54.5 64.5t-54 64.5q-154 -98 -348 -197l-65 144q207 126 309 207q-41 80 -41 153q0 84 51 149.5
t129 97.5t166 32q61 0 106 -17t68 -51t21.5 -79.5t-37.5 -107.5t-105 -130q20 -29 77 -102.5t89 -120t62 -118t30 -135.5q0 -249 -346 -339q74 -49 112 -159.5t28 -273.5z" />
    <glyph glyph-name="Scaron" unicode="&#x160;" horiz-adv-x="1175" 
d="M813 1540h-29l-335 338l206 166l199 -215l303 207l131 -164zM1155 1014l-278 -60q-26 106 -72 155.5t-117 49.5q-63 0 -104 -39t-41 -96q0 -39 27 -80.5t70.5 -80t95.5 -80t104.5 -87.5t96 -94t70.5 -107.5t27 -121.5q0 -63 -25 -121.5t-74.5 -111t-131 -90t-187 -57.5
t-252 -13t-315.5 43l66 311q125 -36 225 -53.5t164.5 -18t107 12t60.5 33.5t18 50q0 34 -26 70.5t-68 71.5t-93 73t-101.5 82.5t-92.5 92.5t-68 110t-26 129q0 87 40.5 168.5t109.5 143.5t169 99.5t211 37.5q184 0 280 -105t130 -317z" />
    <glyph glyph-name="scaron" unicode="&#x161;" horiz-adv-x="1085" 
d="M717 1298h-29l-336 338l207 166l199 -215l303 207l131 -164zM997 362q0 -65 -23.5 -120t-81.5 -105.5t-148 -86t-232.5 -55.5t-325.5 -18l7 287q181 -10 289 -4.5t152 26t44 62.5q0 23 -10 48.5t-32.5 56.5t-42 55t-54.5 64.5t-54 64.5q-154 -98 -348 -197l-65 144
q207 126 309 207q-41 80 -41 153q0 84 51 149.5t129 97.5t166 32q61 0 106 -17t68 -51t21.5 -79.5t-37.5 -107.5t-105 -130q20 -29 77 -102.5t89 -120t62 -118t30 -135.5z" />
    <glyph glyph-name="Tcommaaccent" unicode="&#x162;" horiz-adv-x="1241" 
d="M895 1128l-219 -1128h-336l219 1128h-371l56 281h1075l-53 -281h-371zM211 -600q42 103 62 223t14 230l379 4q-28 -155 -113.5 -291t-212.5 -223z" />
    <glyph glyph-name="tcommaaccent" unicode="&#x163;" horiz-adv-x="1017" 
d="M922 121q-104 -58 -196.5 -94.5t-166.5 -49.5t-136 -8t-106 29t-75 62.5t-45 91t-14 117t16 137.5l106 493h-192l57 246h121l215 317l242 17l-74 -334h342l-45 -246h-350l-105 -475q-14 -54 -10.5 -91.5t22.5 -60t67 -29t122.5 2.5t189.5 33zM133 -635q42 103 62 223
t14 230l379 4q-28 -155 -113.5 -291t-212.5 -223z" />
    <glyph glyph-name="Tcaron" unicode="&#x164;" horiz-adv-x="1241" 
d="M813 1516h-29l-335 337l206 166l199 -215l303 207l131 -164zM895 1128l-219 -1128h-336l219 1128h-371l56 281h1075l-53 -281h-371z" />
    <glyph glyph-name="tcaron" unicode="&#x165;" horiz-adv-x="1017" 
d="M934 1876l321 10q-28 -165 -94 -302.5t-174 -272.5l-133 43q67 242 80 522zM922 121q-104 -58 -196.5 -94.5t-166.5 -49.5t-136 -8t-106 29t-75 62.5t-45 91t-14 117t16 137.5l106 493h-192l57 246h121l215 317l242 17l-74 -334h342l-45 -246h-350l-105 -475
q-14 -54 -10.5 -91.5t22.5 -60t67 -29t122.5 2.5t189.5 33z" />
    <glyph glyph-name="Umacron" unicode="&#x16a;" horiz-adv-x="1464" 
d="M1364 1874l-53 -275h-774l53 275h774zM510 590q-16 -96 -12 -161t31 -104t63.5 -56t85.5 -17q215 0 266 266l172 891h334l-170 -874q-55 -279 -225.5 -421.5t-417.5 -142.5q-129 0 -224 37t-160 117.5t-80.5 207t15.5 306.5l150 770h332z" />
    <glyph glyph-name="umacron" unicode="&#x16b;" horiz-adv-x="1400" 
d="M1280 1630l-53 -274h-774l53 274h774zM1339 109q-149 -80 -255 -112t-168 -17.5t-89 67t-22 143.5q-209 -221 -410 -221q-140 0 -202 114t-17 335l72 338l-146 96l234 297l311 18l-153 -718q-20 -89 3.5 -133t80.5 -44q125 0 264 148l145 733h311l-163 -829
q-12 -67 13 -75t167 19z" />
    <glyph glyph-name="Ubreve" unicode="&#x16c;" horiz-adv-x="1464" 
d="M1255 1991l168 -111q-121 -163 -252 -252.5t-256 -89.5q-124 0 -221.5 87.5t-154.5 252.5l227 129q45 -111 95.5 -162t119.5 -51q62 0 126.5 48.5t147.5 148.5zM510 590q-16 -96 -12 -161t31 -104t63.5 -56t85.5 -17q215 0 266 266l172 891h334l-170 -874
q-55 -279 -225.5 -421.5t-417.5 -142.5q-129 0 -224 37t-160 117.5t-80.5 207t15.5 306.5l150 770h332z" />
    <glyph glyph-name="ubreve" unicode="&#x16d;" horiz-adv-x="1400" 
d="M1169 1747l168 -111q-121 -163 -252 -252.5t-256 -89.5q-124 0 -221.5 87.5t-154.5 252.5l227 129q45 -111 95.5 -162t119.5 -51q62 0 126.5 48.5t147.5 148.5zM1339 109q-149 -80 -255 -112t-168 -17.5t-89 67t-22 143.5q-209 -221 -410 -221q-140 0 -202 114t-17 335
l72 338l-146 96l234 297l311 18l-153 -718q-20 -89 3.5 -133t80.5 -44q125 0 264 148l145 733h311l-163 -829q-12 -67 13 -75t167 19z" />
    <glyph glyph-name="Uring" unicode="&#x16e;" horiz-adv-x="1464" 
d="M987 2030q120 0 193 -66.5t73 -165.5q0 -115 -91.5 -197.5t-231.5 -82.5q-120 0 -192 67t-72 168q0 115 90.5 196t230.5 81zM510 590q-16 -96 -12 -161t31 -104t63.5 -56t85.5 -17q215 0 266 266l172 891h334l-170 -874q-55 -279 -225.5 -421.5t-417.5 -142.5
q-129 0 -224 37t-160 117.5t-80.5 207t15.5 306.5l150 770h332z" />
    <glyph glyph-name="uring" unicode="&#x16f;" horiz-adv-x="1400" 
d="M903 1786q120 0 193 -66.5t73 -165.5q0 -115 -91.5 -197.5t-231.5 -82.5q-120 0 -192 67t-72 168q0 115 90.5 196t230.5 81zM1339 109q-149 -80 -255 -112t-168 -17.5t-89 67t-22 143.5q-209 -221 -410 -221q-140 0 -202 114t-17 335l72 338l-146 96l234 297l311 18
l-153 -718q-20 -89 3.5 -133t80.5 -44q125 0 264 148l145 733h311l-163 -829q-12 -67 13 -75t167 19z" />
    <glyph glyph-name="Uhungarumlaut" unicode="&#x170;" horiz-adv-x="1464" 
d="M631 1538l-129 107q72 98 152 228.5t132 233.5l273 -159q-80 -97 -200 -212.5t-228 -197.5zM1098 1536l-131 109q150 201 270 440l281 -143q-77 -97 -193.5 -210t-226.5 -196zM510 590q-16 -96 -12 -161t31 -104t63.5 -56t85.5 -17q215 0 266 266l172 891h334l-170 -874
q-55 -279 -225.5 -421.5t-417.5 -142.5q-129 0 -224 37t-160 117.5t-80.5 207t15.5 306.5l150 770h332z" />
    <glyph glyph-name="uhungarumlaut" unicode="&#x171;" horiz-adv-x="1400" 
d="M547 1294l-129 107q72 97 152 228t132 235l273 -160q-80 -97 -200 -212.5t-228 -197.5zM1014 1292l-131 109q150 201 270 440l281 -143q-77 -97 -193.5 -210t-226.5 -196zM1339 109q-149 -80 -255 -112t-168 -17.5t-89 67t-22 143.5q-209 -221 -410 -221q-140 0 -202 114
t-17 335l72 338l-146 96l234 297l311 18l-153 -718q-20 -89 3.5 -133t80.5 -44q125 0 264 148l145 733h311l-163 -829q-12 -67 13 -75t167 19z" />
    <glyph glyph-name="Uogonek" unicode="&#x172;" horiz-adv-x="1464" 
d="M893 -391q-108 -53 -201.5 -77.5t-159 -20t-112.5 29t-69.5 65t-22.5 91.5q0 144 221 278q-223 26 -322 188.5t-39 475.5l148 770h334l-160 -819q-37 -179 13 -258.5t155 -79.5q215 0 266 266l172 891h334l-170 -874q-51 -248 -193 -390q-75 -73 -231 -149
q-19 -10 -53.5 -27.5t-53 -27t-45 -25t-41 -27.5t-29.5 -28t-21.5 -32.5t-6.5 -35.5q0 -24 15 -39t45.5 -21t82.5 0.5t121 26.5z" />
    <glyph glyph-name="uogonek" unicode="&#x173;" horiz-adv-x="1400" 
d="M1200 -389q-132 -67 -242.5 -89t-179 -2t-106 65.5t-37.5 109.5q0 167 246 321q-77 45 -74 177q-212 -224 -412 -224q-140 0 -202 114t-17 335l72 338l-146 96l234 297l311 18l-153 -718q-20 -89 3.5 -133t80.5 -44q125 0 264 148l145 733h311l-163 -829q-12 -67 13 -75
t167 19l24 -159q-11 -5 -36 -17t-39 -18q-190 -89 -270.5 -155.5t-80.5 -119.5q0 -33 26 -50t87 -15t152 28z" />
    <glyph glyph-name="Wcircumflex" unicode="&#x174;" horiz-adv-x="1589" 
d="M1225 1522l-199 215l-303 -207l-131 166l475 329h31l336 -337zM887 0l-96 584l-310 -584h-323q2 215 35 598t90 811h323l-137 -973h16l314 621h180l84 -619h10l242 971h313q-111 -436 -225 -817t-193 -592h-323z" />
    <glyph glyph-name="wcircumflex" unicode="&#x175;" horiz-adv-x="1445" 
d="M1110 1266l-199 215l-303 -207l-131 166l475 329h31l336 -337zM750 0l-62 461l-239 -461h-302q-9 167 14.5 490t67.5 663h322q-73 -494 -111 -772h11l249 463h174l62 -465h16q107 377 185 774h333q-75 -280 -168 -543.5t-243 -609.5h-309z" />
    <glyph glyph-name="Ycircumflex" unicode="&#x176;" horiz-adv-x="1329" 
d="M1102 1530l-199 215l-303 -207l-131 166l475 330h31l336 -338zM721 0h-334l94 485l-282 918l340 14l176 -641l393 633h346l-643 -954z" />
    <glyph glyph-name="ycircumflex" unicode="&#x177;" horiz-adv-x="1308" 
d="M1061 1292l-199 215l-303 -207l-131 166l475 330h31l336 -338zM1028 -119q-148 -296 -934 -268l43 303q269 -19 433.5 -9.5t199.5 44.5q21 21 21.5 95t-9.5 167q-3 30 -4 45q-221 -174 -428 -174q-435 0 -39 1063l310 10q-70 -198 -111.5 -343.5t-55.5 -230.5t-7 -135
t26.5 -66.5t52.5 -16.5q112 0 246 106q5 137 35.5 271t72 228t88 152t83.5 58q69 0 142 -26t73 -64q0 -101 -60.5 -290.5t-156.5 -353.5q1 -44 8.5 -142.5t10.5 -159.5t-6 -137.5t-34 -125.5z" />
    <glyph glyph-name="Ydieresis" unicode="&#x178;" horiz-adv-x="1329" 
d="M1260 1585l-328 -4l78 322l348 6zM776 1583l-327 -4l77 319l348 5zM721 0h-334l94 485l-282 918l340 14l176 -641l393 633h346l-643 -954z" />
    <glyph glyph-name="Zacute" unicode="&#x179;" horiz-adv-x="1236" 
d="M545 1671q110 63 263 174t259 207l184 -254q-125 -82 -318.5 -158.5t-336.5 -107.5zM1006 0h-983l51 279l762 847l-594 -6l57 289h961l-48 -279l-755 -847l606 6z" />
    <glyph glyph-name="zacute" unicode="&#x17a;" horiz-adv-x="1148" 
d="M465 1415q110 63 263 174t259 207l184 -254q-125 -82 -318.5 -158.5t-336.5 -107.5zM926 0h-901l53 268l651 615l-536 -11l75 281h881l-51 -268l-649 -615l550 11z" />
    <glyph glyph-name="Zdotaccent" unicode="&#x17b;" horiz-adv-x="1236" 
d="M965 1573l-342 -2l77 321l363 4zM1006 0h-983l51 279l762 847l-594 -6l57 289h961l-48 -279l-755 -847l606 6z" />
    <glyph glyph-name="zdotaccent" unicode="&#x17c;" horiz-adv-x="1148" 
d="M883 1317l-342 -2l77 321l363 4zM926 0h-901l53 268l651 615l-536 -11l75 281h881l-51 -268l-649 -615l550 11z" />
    <glyph glyph-name="Zcaron" unicode="&#x17d;" horiz-adv-x="1236" 
d="M817 1516h-29l-335 337l206 166l199 -215l303 207l131 -164zM1006 0h-983l51 279l762 847l-594 -6l57 289h961l-48 -279l-755 -847l606 6z" />
    <glyph glyph-name="zcaron" unicode="&#x17e;" horiz-adv-x="1148" 
d="M735 1260h-28l-336 337l207 166l198 -215l303 207l131 -164zM926 0h-901l53 268l651 615l-536 -11l75 281h881l-51 -268l-649 -615l550 11z" />
    <glyph glyph-name="Aringacute" unicode="&#x1fa;" horiz-adv-x="1392" 
d="M735 2241q111 64 263.5 174.5t258.5 205.5l185 -254q-125 -82 -318.5 -158.5t-337.5 -107.5zM961 2030q120 0 193 -66.5t73 -165.5q0 -115 -92 -197.5t-232 -82.5q-120 0 -192 67t-72 168q0 115 91 196t231 81zM887 -12q-2 56 -17 350h-430q-80 -185 -145 -338h-334
q325 722 672 1409h457q74 -668 131 -1397zM797 1126q-215 -472 -248 -546h307q-8 117 -41 546h-18z" />
    <glyph glyph-name="aringacute" unicode="&#x1fb;" horiz-adv-x="1310" 
d="M653 2007q111 64 264 175t259 206l184 -254q-125 -82 -318.5 -158.5t-336.5 -107.5zM879 1796q120 0 193 -66t73 -165q0 -115 -92 -198t-232 -83q-120 0 -192 67.5t-72 168.5q0 115 91 195.5t231 80.5zM498 272q45 0 112 33.5t138 89.5q73 380 94 484q-122 32 -187 32
q-68 0 -128.5 -75t-95 -186t-34.5 -220q0 -79 27.5 -118.5t73.5 -39.5zM1251 109q-148 -80 -254 -112.5t-167 -17t-86.5 66t-20.5 138.5q-105 -97 -210 -156t-191 -59q-110 0 -179 92.5t-69 268.5q0 126 33 249t98.5 231t155.5 190.5t213 130t262 47.5q172 0 362 -58
l-154 -798q-12 -64 13.5 -72.5t167.5 18.5z" />
    <glyph glyph-name="AEacute" unicode="&#x1fc;" horiz-adv-x="1966" 
d="M1094 1671q110 63 263 174t259 207l184 -254q-125 -82 -318.5 -158.5t-336.5 -107.5zM1040 1135q-136 -200 -364 -543h280l107 543h-23zM840 0l69 350h-395q-47 -70 -133.5 -201.5t-97.5 -148.5h-355q496 744 975 1409h1069l-55 -274h-531l-61 -316h444l-45 -225h-444
l-61 -318h546l-75 -276h-850z" />
    <glyph glyph-name="aeacute" unicode="&#x1fd;" horiz-adv-x="1822" 
d="M901 1450q110 63 263 174t259 207l185 -254q-125 -82 -318.5 -158.5t-337.5 -107.5zM1348 928q-103 0 -182 -97.5t-107 -236.5q407 30 407 219q0 53 -31 84t-87 31zM496 272q90 0 243 160q9 246 125 436q-125 43 -211 43q-68 0 -128 -75t-94 -186t-34 -220
q0 -79 27 -118.5t72 -39.5zM1704 135q-173 -81 -319 -120.5t-250.5 -38.5t-183 34t-125 88.5t-68.5 132.5q-111 -119 -223 -190.5t-209 -71.5q-112 0 -182 92.5t-70 268.5q0 126 33 250t97.5 231t152.5 189.5t205 130t247 47.5q150 0 313 -66q143 76 316 76q152 0 240.5 -82
t88.5 -221q0 -200 -179 -319t-539 -146q7 -94 57 -132t181 -36.5t392 47.5z" />
    <glyph glyph-name="Oslashacute" unicode="&#x1fe;" horiz-adv-x="1474" 
d="M666 1700q110 63 263 174t259 207l184 -254q-125 -82 -318.5 -158.5t-336.5 -107.5zM446 578q0 -18 5 -76l528 600q-59 59 -154 59q-115 0 -203.5 -86.5t-132 -217.5t-43.5 -279zM694 248q114 0 202 86.5t131.5 218.5t43.5 281q0 55 -8 94l-535 -611q66 -69 166 -69z
M631 -33q-176 0 -305 94l-123 -141l-168 135l151 174q-67 134 -67 316q0 180 60 345t162.5 286.5t245.5 193.5t302 72q172 0 293 -86l123 141l168 -137l-146 -166q74 -139 74 -330q0 -180 -60 -345t-162.5 -286.5t-245.5 -193.5t-302 -72z" />
    <glyph glyph-name="oslashacute" unicode="&#x1ff;" horiz-adv-x="1290" 
d="M526 1450q111 64 264 175t259 206l184 -254q-125 -82 -318.5 -158.5t-336.5 -107.5zM410 498q0 -36 2 -52l395 439q-45 45 -117 45q-83 0 -148.5 -64.5t-98.5 -162t-33 -205.5zM598 225q83 0 149.5 64.5t100 163t33.5 206.5q0 34 -2 48l-396 -439q46 -43 115 -43z
M541 -33q-146 0 -252 68l-103 -113l-159 129l120 135q-57 111 -57 263q0 145 55 282t145.5 237t211.5 160t248 60q142 0 256 -68l100 113l162 -131l-123 -137q55 -113 55 -258q0 -146 -55 -283t-145 -236.5t-211 -160t-248 -60.5z" />
    <glyph glyph-name="Scommaaccent" unicode="&#x218;" horiz-adv-x="1175" 
d="M1155 1014l-278 -60q-26 106 -72 155.5t-117 49.5q-63 0 -104 -39t-41 -96q0 -39 27 -80.5t70.5 -80t95.5 -80t104.5 -87.5t96 -94t70.5 -107.5t27 -121.5q0 -63 -25 -121.5t-74.5 -111t-131 -90t-187 -57.5t-252 -13t-315.5 43l66 311q125 -36 225 -53.5t164.5 -18
t107 12t60.5 33.5t18 50q0 34 -26 70.5t-68 71.5t-93 73t-101.5 82.5t-92.5 92.5t-68 110t-26 129q0 87 40.5 168.5t109.5 143.5t169 99.5t211 37.5q184 0 280 -105t130 -317zM166 -623q42 103 62 223t14 230l379 4q-28 -155 -113.5 -291t-212.5 -223z" />
    <glyph glyph-name="scommaaccent" unicode="&#x219;" horiz-adv-x="1085" 
d="M997 362q0 -65 -23.5 -120t-81.5 -105.5t-148 -86t-232.5 -55.5t-325.5 -18l7 287q181 -10 289 -4.5t152 26t44 62.5q0 23 -10 48.5t-32.5 56.5t-42 55t-54.5 64.5t-54 64.5q-154 -98 -348 -197l-65 144q207 126 309 207q-41 80 -41 153q0 84 51 149.5t129 97.5t166 32
q61 0 106 -17t68 -51t21.5 -79.5t-37.5 -107.5t-105 -130q20 -29 77 -102.5t89 -120t62 -118t30 -135.5zM133 -623q42 103 62 223t14 230l379 4q-28 -155 -113.5 -291t-212.5 -223z" />
    <glyph glyph-name="schwa" unicode="&#x259;" horiz-adv-x="1167" 
d="M399 -31q-153 0 -241 82t-88 221q0 197 181 315.5t537 147.5q-4 57 -25.5 93t-64 57t-116.5 23t-176 -10t-250 -40l-23 164q140 71 264 111t220 48t176 -8.5t135.5 -55t93.5 -94t56 -123.5t18 -146q0 -143 -56 -285t-149 -252t-223 -179t-269 -69zM489 229
q100 0 178 96.5t109 235.5q-407 -31 -407 -217q0 -53 31 -84t89 -31z" />
    <glyph glyph-name="circumflex" unicode="&#x2c6;" horiz-adv-x="1157" 
d="M856 1266l-199 215l-303 -207l-131 166l475 329h31l336 -337z" />
    <glyph glyph-name="caron" unicode="&#x2c7;" horiz-adv-x="1157" 
d="M627 1260h-29l-336 337l207 166l199 -215l303 207l131 -164z" />
    <glyph glyph-name="breve" unicode="&#x2d8;" horiz-adv-x="1157" 
d="M946 1735l168 -111q-121 -163 -252 -252.5t-256 -89.5q-124 0 -222 87.5t-155 252.5l228 129q45 -111 96 -162t119 -51q62 0 126.5 48.5t147.5 148.5z" />
    <glyph glyph-name="dotaccent" unicode="&#x2d9;" horiz-adv-x="1157" 
d="M754 1317l-342 -2l77 321l363 4z" />
    <glyph glyph-name="ring" unicode="&#x2da;" horiz-adv-x="1157" 
d="M684 1774q120 0 193 -66.5t73 -165.5q0 -115 -91.5 -197.5t-231.5 -82.5q-120 0 -192.5 67t-72.5 168q0 115 91 196t231 81z" />
    <glyph glyph-name="ogonek" unicode="&#x2db;" horiz-adv-x="1157" 
d="M764 123l86 -121q-190 -41 -279.5 -96.5t-89.5 -108.5q0 -33 25.5 -50t86.5 -15t152 28l23 -151q-108 -53 -201.5 -77.5t-159 -20t-112.5 29t-69.5 65.5t-22.5 93q0 117 134.5 228.5t426.5 195.5z" />
    <glyph glyph-name="tilde" unicode="&#x2dc;" horiz-adv-x="1157" 
d="M821 1542q50 0 156 164l145 -90q-82 -146 -175.5 -234t-180.5 -88q-47 0 -96 28.5t-81.5 62t-66 62t-53.5 28.5q-47 0 -152 -164l-147 90q82 145 175.5 233t180.5 88q39 0 77.5 -18.5t69 -45t57 -53t50.5 -45t41 -18.5z" />
    <glyph glyph-name="hungarumlaut" unicode="&#x2dd;" horiz-adv-x="1157" 
d="M422 1282l-129 107q73 99 153 229.5t132 232.5l272 -159q-80 -97 -200 -212.5t-228 -197.5zM889 1280l-131 109q150 201 270 440l281 -143q-77 -97 -193.5 -210t-226.5 -196z" />
    <glyph glyph-name="commaaccent" unicode="&#x326;" horiz-adv-x="1157" 
d="M289 -600q42 103 62 223t14 230l378 4q-28 -155 -113.5 -291t-211.5 -223z" />
    <glyph glyph-name="Wgrave" unicode="&#x1e80;" horiz-adv-x="1589" 
d="M1251 1661l-59 -137q-128 36 -305.5 116.5t-306.5 159.5l174 258q117 -107 255 -218.5t242 -178.5zM887 0l-96 584l-310 -584h-323q2 215 35 598t90 811h323l-137 -973h16l314 621h180l84 -619h10l242 971h313q-111 -436 -225 -817t-193 -592h-323z" />
    <glyph glyph-name="wgrave" unicode="&#x1e81;" horiz-adv-x="1445" 
d="M1135 1405l-60 -137q-128 36 -305.5 116.5t-306.5 159.5l174 258q116 -107 255 -218t243 -179zM750 0l-62 461l-239 -461h-302q-9 167 14.5 490t67.5 663h322q-73 -494 -111 -772h11l249 463h174l62 -465h16q107 377 185 774h333q-75 -280 -168 -543.5t-243 -609.5h-309z
" />
    <glyph glyph-name="Wacute" unicode="&#x1e82;" horiz-adv-x="1589" 
d="M725 1671q110 63 263 174t259 207l185 -254q-125 -82 -318.5 -158.5t-337.5 -107.5zM887 0l-96 584l-310 -584h-323q2 215 35 598t90 811h323l-137 -973h16l314 621h180l84 -619h10l242 971h313q-111 -436 -225 -817t-193 -592h-323z" />
    <glyph glyph-name="wacute" unicode="&#x1e83;" horiz-adv-x="1445" 
d="M610 1415q111 64 264 175t259 206l184 -254q-125 -82 -318.5 -158.5t-336.5 -107.5zM750 0l-62 461l-239 -461h-302q-9 167 14.5 490t67.5 663h322q-73 -494 -111 -772h11l249 463h174l62 -465h16q107 377 185 774h333q-75 -280 -168 -543.5t-243 -609.5h-309z" />
    <glyph glyph-name="Wdieresis" unicode="&#x1e84;" horiz-adv-x="1589" 
d="M1382 1577l-327 -4l78 321l348 7zM899 1575l-328 -4l78 319l348 4zM887 0l-96 584l-310 -584h-323q2 215 35 598t90 811h323l-137 -973h16l314 621h180l84 -619h10l242 971h313q-111 -436 -225 -817t-193 -592h-323z" />
    <glyph glyph-name="wdieresis" unicode="&#x1e85;" horiz-adv-x="1445" 
d="M1266 1321l-328 -4l78 321l348 7zM782 1319l-327 -4l77 319l349 4zM750 0l-62 461l-239 -461h-302q-9 167 14.5 490t67.5 663h322q-73 -494 -111 -772h11l249 463h174l62 -465h16q107 377 185 774h333q-75 -280 -168 -543.5t-243 -609.5h-309z" />
    <glyph glyph-name="Ygrave" unicode="&#x1ef2;" horiz-adv-x="1329" 
d="M1128 1669l-59 -137q-128 36 -305.5 116.5t-306.5 159.5l174 258q117 -107 255 -218.5t242 -178.5zM721 0h-334l94 485l-282 918l340 14l176 -641l393 633h346l-643 -954z" />
    <glyph glyph-name="ygrave" unicode="&#x1ef3;" horiz-adv-x="1308" 
d="M1087 1432l-59 -138q-127 36 -305 117t-307 160l174 258q117 -107 255 -218.5t242 -178.5zM1028 -119q-148 -296 -934 -268l43 303q269 -19 433.5 -9.5t199.5 44.5q21 21 21.5 95t-9.5 167q-3 30 -4 45q-221 -174 -428 -174q-435 0 -39 1063l310 10
q-70 -198 -111.5 -343.5t-55.5 -230.5t-7 -135t26.5 -66.5t52.5 -16.5q112 0 246 106q5 137 35.5 271t72 228t88 152t83.5 58q69 0 142 -26t73 -64q0 -101 -60.5 -290.5t-156.5 -353.5q1 -44 8.5 -142.5t10.5 -159.5t-6 -137.5t-34 -125.5z" />
    <glyph glyph-name="enspace" unicode="&#x2002;" horiz-adv-x="1024" 
 />
    <glyph glyph-name="emspace" unicode="&#x2003;" horiz-adv-x="2048" 
 />
    <glyph glyph-name="threeperemspace" unicode="&#x2004;" horiz-adv-x="681" 
 />
    <glyph glyph-name="fourperemspace" unicode="&#x2005;" horiz-adv-x="512" 
 />
    <glyph glyph-name="figurespace" unicode="&#x2007;" horiz-adv-x="1126" 
 />
    <glyph glyph-name="thinspace" unicode="&#x2009;" horiz-adv-x="272" 
 />
    <glyph glyph-name="hairspace" unicode="&#x200a;" horiz-adv-x="153" 
 />
    <glyph glyph-name="endash" unicode="&#x2013;" horiz-adv-x="1116" 
d="M1024 813l-47 -248h-860l47 248h860z" />
    <glyph glyph-name="emdash" unicode="&#x2014;" horiz-adv-x="1644" 
d="M1542 813l-47 -248h-1366l45 248h1368z" />
    <glyph glyph-name="quoteleft" unicode="&#x2018;" horiz-adv-x="745" 
d="M768 1495q-98 -144 -131 -291.5t-25 -347.5l-387 -8q4 211 108.5 386t305.5 337z" />
    <glyph glyph-name="quoteright" unicode="&#x2019;" horiz-adv-x="706" 
d="M207 891q97 143 129 289.5t26 349.5l388 8q-4 -211 -108.5 -386t-305.5 -337z" />
    <glyph glyph-name="quotesinglbase" unicode="&#x201a;" horiz-adv-x="804" 
d="M53 -248q98 144 131 291.5t25 347.5l387 8q-4 -211 -108.5 -386t-305.5 -337z" />
    <glyph glyph-name="quotedblleft" unicode="&#x201c;" horiz-adv-x="1290" 
d="M1309 1495q-88 -144 -118.5 -289.5t-25.5 -343.5l-379 -10q4 208 105.5 381t292.5 338zM764 1495q-97 -144 -131 -291.5t-29 -347.5l-379 -8q4 211 108.5 386t305.5 337z" />
    <glyph glyph-name="quotedblright" unicode="&#x201d;" horiz-adv-x="1253" 
d="M756 891q98 144 131.5 291.5t27.5 347.5l381 8q-4 -211 -108.5 -386t-304.5 -337zM211 891q88 144 119 289.5t26 343.5l379 10q-4 -208 -105 -381t-292 -338z" />
    <glyph glyph-name="quotedblbase" unicode="&#x201e;" horiz-adv-x="1347" 
d="M598 -248q98 144 132 292t28 347l381 8q-4 -211 -109 -386t-307 -337zM53 -248q88 145 119 291t25 342l381 10q-4 -208 -105.5 -381t-294.5 -338z" />
    <glyph glyph-name="dagger" unicode="&#x2020;" horiz-adv-x="1077" 
d="M588 317l-221 -77l-39 26l164 756l-291 31l65 260l281 -31l67 311l295 -28l-71 -314l278 -28l-65 -258l-279 28z" />
    <glyph glyph-name="daggerdbl" unicode="&#x2021;" horiz-adv-x="1083" 
d="M561 201l-219 -80l-39 29l94 434l-305 30l62 244l295 -31l47 213l-293 31l63 244l283 -31l65 307l295 -26l-73 -312l280 -30l-63 -242l-277 29l-57 -211l285 -31l-62 -242l-287 31z" />
    <glyph glyph-name="bullet" unicode="&#x2022;" horiz-adv-x="1144" 
d="M936 723q0 -89 -31.5 -165.5t-83.5 -128t-119.5 -81t-138.5 -29.5q-132 0 -222.5 90.5t-90.5 225.5q0 89 31 165t82.5 126.5t117.5 79t137 28.5q142 0 230 -87t88 -224z" />
    <glyph glyph-name="ellipsis" unicode="&#x2026;" horiz-adv-x="2244" 
d="M1948 0h-389l67 385h391zM1214 0h-391l70 385h391zM481 0h-391l68 385h391z" />
    <glyph glyph-name="guilsinglleft" unicode="&#x2039;" horiz-adv-x="913" 
d="M459 -49l-373 483l74 316l545 460l192 -237l-528 -404l342 -422z" />
    <glyph glyph-name="guilsinglright" unicode="&#x203a;" horiz-adv-x="919" 
d="M217 -47l-190 240l528 401l-342 422l250 196l375 -483l-74 -315z" />
    <glyph glyph-name="fraction" unicode="&#x2044;" horiz-adv-x="579" 
d="M-143 -49l-158 117l1065 1378l156 -117z" />
    <glyph glyph-name="zero.sup" unicode="&#x2070;" horiz-adv-x="991" 
d="M209 1077q0 153 64 287.5t173.5 214.5t235.5 80q141 0 225 -95.5t84 -265.5q0 -153 -64 -287t-173.5 -214t-235.5 -80q-140 0 -224.5 95.5t-84.5 264.5zM752 1280q0 172 -103 172q-86 0 -143 -111t-57 -247q0 -170 102 -170q58 0 105 54t71.5 135t24.5 167z" />
    <glyph glyph-name="four.sup" unicode="&#x2074;" horiz-adv-x="991" 
d="M924 891h-88l-29 -152h-221l28 152h-417l18 168q77 141 131 274.5t107 315.5l256 -13q-112 -327 -258 -542h204l47 241l224 15l-49 -256h102z" />
    <glyph glyph-name="five.sup" unicode="&#x2075;" horiz-adv-x="991" 
d="M915 1047q0 -69 -39 -128t-119.5 -106t-222.5 -69t-329 -9l26 219q447 -37 447 74q0 42 -86.5 74t-290.5 57l105 477h591l-59 -209l-354 3l-31 -127q362 -62 362 -256z" />
    <glyph glyph-name="six.sup" unicode="&#x2076;" horiz-adv-x="991" 
d="M551 717q-150 0 -239 81t-89 234q0 102 36.5 196t111.5 179.5t203.5 153.5t299.5 108l48 -201q-336 -62 -430 -243q82 49 163 60.5t142 -11.5t99 -78.5t38 -134.5q0 -151 -109.5 -247.5t-273.5 -96.5zM588 897q58 0 89.5 38t31.5 93q0 78 -69 102t-183 -30q-2 -12 -2 -35
q0 -86 38 -127t95 -41z" />
    <glyph glyph-name="seven.sup" unicode="&#x2077;" horiz-adv-x="991" 
d="M516 725l-260 25q198 346 479 667l-2 8h-434l51 215h682l-43 -208q-256 -311 -473 -707z" />
    <glyph glyph-name="eight.sup" unicode="&#x2078;" horiz-adv-x="991" 
d="M903 981q0 -112 -107 -188t-276 -76q-149 0 -232 59.5t-83 157.5q0 71 49.5 135t181.5 141q-108 97 -108 189q0 61 38.5 115t114 93t187 52t256.5 -6q-4 -9 -42.5 -115.5t-41.5 -112.5q-289 87 -289 -6q0 -23 20 -46t62 -58q127 59 299 131l63 -131q-17 -7 -235 -103
q143 -124 143 -231zM563 899q52 0 86.5 22t34.5 54q0 28 -31 59.5t-92 77.5q-75 -43 -102 -73.5t-27 -57.5q0 -37 37 -59.5t94 -22.5z" />
    <glyph glyph-name="nine.sup" unicode="&#x2079;" horiz-adv-x="991" 
d="M324 707l-48 200q336 62 431 244q-82 -49 -163 -61t-142.5 10.5t-99.5 79t-38 135.5q0 151 109 246.5t274 95.5q151 0 239.5 -80.5t88.5 -233.5q0 -102 -36.5 -196t-111.5 -179.5t-203.5 -153t-299.5 -107.5zM489 1346q0 -77 69 -101t183 31q2 10 2 35q0 84 -38.5 125
t-94.5 41q-59 0 -90 -37.5t-31 -93.5z" />
    <glyph glyph-name="zero.inf" unicode="&#x2080;" horiz-adv-x="991" 
d="M31 -4q0 153 64 287.5t173.5 214.5t235.5 80q141 0 225 -95.5t84 -265.5q0 -153 -64 -287.5t-173.5 -214.5t-235.5 -80q-140 0 -224.5 96t-84.5 265zM573 199q0 172 -102 172q-58 0 -105 -54.5t-71.5 -136t-24.5 -168.5q0 -170 103 -170q58 0 105 54t71 135t24 168z" />
    <glyph glyph-name="one.inf" unicode="&#x2081;" horiz-adv-x="991" 
d="M686 -342h-670l39 205h234l78 385h-215l26 176l228 22l26 127l238 19l-148 -729h217z" />
    <glyph glyph-name="two.inf" unicode="&#x2082;" horiz-adv-x="991" 
d="M678 -342h-660l5 190q255 144 375 237t120 169q0 40 -33.5 62.5t-117 30t-224.5 -12.5l31 217q295 46 451.5 -16t156.5 -209q0 -118 -98.5 -224.5t-308.5 -234.5h346z" />
    <glyph glyph-name="three.inf" unicode="&#x2083;" horiz-adv-x="991" 
d="M727 -70q0 -49 -24.5 -94t-77 -86t-134.5 -66t-197 -35t-265 7l30 215q161 -20 255.5 -15t131.5 20.5t37 41.5q0 36 -82 72.5t-237 66.5l16 97l324 192h-346l43 209h602l-27 -203l-315 -192q135 -39 200.5 -98t65.5 -132z" />
    <glyph glyph-name="four.inf" unicode="&#x2084;" horiz-adv-x="991" 
d="M745 -190h-88l-28 -152h-221l28 152h-418l19 167q76 140 130 273.5t107 316.5l256 -12q-113 -329 -258 -543h205l47 242l224 14l-50 -256h103z" />
    <glyph glyph-name="five.inf" unicode="&#x2085;" horiz-adv-x="991" 
d="M737 -35q0 -54 -23.5 -102.5t-77.5 -92t-134 -72.5t-202 -41.5t-273 -2.5l26 219q447 -37 447 74q0 42 -86.5 74t-290.5 57l104 477h592l-59 -209l-354 2l-31 -127q362 -62 362 -256z" />
    <glyph glyph-name="six.inf" unicode="&#x2086;" horiz-adv-x="991" 
d="M373 -365q-150 0 -239 81.5t-89 234.5q0 102 36.5 196t111.5 179.5t203.5 153.5t299.5 108l47 -201q-335 -62 -430 -244q82 49 163 60.5t142.5 -11t99.5 -78t38 -134.5q0 -151 -109.5 -248t-273.5 -97zM410 -184q58 0 89 38t31 93q0 78 -68.5 101.5t-182.5 -30.5
q-3 -18 -3 -34q0 -86 38.5 -127t95.5 -41z" />
    <glyph glyph-name="seven.inf" unicode="&#x2087;" horiz-adv-x="991" 
d="M338 -356l-260 24q200 349 479 668l-2 8h-434l51 215h682l-43 -209q-258 -313 -473 -706z" />
    <glyph glyph-name="eight.inf" unicode="&#x2088;" horiz-adv-x="991" 
d="M725 -100q0 -112 -107 -188.5t-276 -76.5q-149 0 -232 60t-83 158q0 71 49.5 135t181.5 141q-108 97 -108 188q0 61 38.5 115t114 93t186.5 52t256 -6q-4 -9 -42 -115t-41 -112q-289 87 -289 -6q0 -23 20.5 -47t61.5 -58q149 69 299 132l63 -132q-81 -34 -235 -102
q143 -124 143 -231zM385 -182q52 0 86.5 22t34.5 54q0 28 -31 59.5t-92 77.5q-75 -43 -102 -73.5t-27 -57.5q0 -37 37 -59.5t94 -22.5z" />
    <glyph glyph-name="nine.inf" unicode="&#x2089;" horiz-adv-x="991" 
d="M145 -375l-47 201q335 62 430 244q-82 -49 -163 -61.5t-142 10.5t-99 79t-38 135q0 151 109 246.5t274 95.5q151 0 239.5 -80t88.5 -233q0 -102 -36.5 -196t-112 -179.5t-204 -153.5t-299.5 -108zM311 264q0 -77 69 -100.5t183 31.5q2 10 2 34q0 84 -38.5 125t-94.5 41
q-59 0 -90 -37.5t-31 -93.5z" />
    <glyph glyph-name="colonmonetary" unicode="&#x20a1;" horiz-adv-x="1277" 
d="M741 377l181 678q-77 -12 -136 -27l-168 -618q56 -18 123 -33zM403 655q0 -99 58 -157l123 456q-181 -100 -181 -299zM575 -168l76 270q-36 8 -106 29l-80 -299h-215l106 375q-121 67 -181 163t-60 232q0 77 14.5 147t51 144.5t94 138t149.5 122t211 101.5l84 320h213
l-70 -258q44 9 119 20l61 238h213l-59 -215q74 4 113 6l-33 -289q-92 0 -168 -6l-195 -727q92 -14 172 -27l-118 -270q-46 4 -117 16l-59 -231h-216z" />
    <glyph glyph-name="naira" unicode="&#x20a6;" horiz-adv-x="1277" 
d="M494 920l-70 -369l166 2l-80 367h-16zM825 492h17l65 346l-153 -2zM711 0l-78 354l-246 -4l-65 -350h-244l63 332l-137 -2l49 252l137 2l39 194l-139 -2l49 250l137 2l74 375l285 12l78 -379l231 2l70 371h233l-71 -371l135 2l-49 -249l-136 -3l-36 -194l137 2l-49 -250
l-138 -2l-65 -344h-264z" />
    <glyph glyph-name="rupee" unicode="&#x20a8;" horiz-adv-x="1959" 
d="M770 -25l-287 666v2q198 91 280.5 178.5t82.5 184.5q0 184 -262 163l-230 -1169h-297l271 1401q186 28 324.5 22t233.5 -32t153.5 -76t84 -110t25.5 -136q0 -262 -346 -475l268 -561zM1886 350q0 -61 -18 -112.5t-68 -102.5t-129 -85.5t-210.5 -55t-303.5 -17.5l6 273
q169 -11 265 -5t131.5 26t35.5 63q0 24 -10 50t-31.5 57.5t-40 55.5t-52.5 65.5t-52 64.5q-79 -53 -188 -117l-70 133q84 54 168 123q-43 81 -43 160q0 131 100 211t230 80q58 0 101 -18t63.5 -54t17 -83.5t-40.5 -112t-107 -134.5q19 -28 74 -101t85.5 -118t58.5 -114.5
t28 -131.5z" />
    <glyph glyph-name="Euro" unicode="&#x20ac;" horiz-adv-x="1277" 
d="M1135 90q-167 -77 -306 -104t-237.5 -7.5t-170.5 76.5t-111.5 140.5t-53.5 191.5h-178l43 223h131q4 43 20 129h-131l43 224h160q96 216 264 347.5t363 131.5q153 0 237 -86.5t107 -274.5l-285 -47q-18 75 -47.5 108.5t-87.5 33.5q-81 0 -149 -65.5t-117 -174.5h477
l-49 -197h-490q-12 -61 -18 -123h477l-49 -196h-420q19 -96 76 -140t174 -46.5t303 42.5z" />
    <glyph glyph-name="peso" unicode="&#x20b1;" horiz-adv-x="1277" 
d="M932 1008q-26 89 -113 135t-223 31l-33 -166h369zM492 639h12q145 -18 247 24t150 128h-379zM1290 768h-112q-76 -160 -269 -267t-473 -147l-69 -354h-293l147 768h-135l51 256h133l74 379q220 29 380.5 15t268.5 -70.5t164 -137.5t66 -186h116z" />
    <glyph glyph-name="rupeeindia" unicode="&#x20b9;" horiz-adv-x="1277" 
d="M1049 145l-254 -190q-263 200 -379.5 264.5t-321.5 118.5l94 235q344 16 455 164h-448l41 215h440q-59 151 -410 187l68 270h923l-69 -276h-361q117 -67 146 -181h172l-41 -215h-154q-47 -92 -155.5 -162t-268.5 -106q94 -34 201 -102t322 -222z" />
    <glyph glyph-name="ruble" unicode="&#x20bd;" horiz-adv-x="1277" 
d="M991 1012q0 93 -77.5 136t-225.5 30l-74 -377q377 5 377 211zM907 223h-405l-43 -223h-307l43 223h-146l45 234h146l20 108h-141l45 236h141l117 602q229 28 393 17.5t269 -60t154.5 -123.5t49.5 -174q0 -71 -23.5 -133.5t-77.5 -120t-136 -102.5t-204 -78t-276 -49
l-26 -134h426z" />
    <glyph glyph-name="numero" unicode="&#x2116;" horiz-adv-x="2406" 
d="M2351 1020q0 -164 -81.5 -309t-217 -231.5t-287.5 -86.5q-172 0 -274 109t-102 299q0 123 48.5 238t128 199.5t187 135.5t221.5 51q171 0 274 -108t103 -297zM2058 979q0 203 -151 203q-69 0 -121.5 -49t-78.5 -126t-26 -167q0 -203 152 -203q102 0 163.5 102t61.5 240z
M752 0l-199 918h-18l-175 -918h-278l272 1403l359 12l176 -844h14l160 838h278l-274 -1409h-315zM1247 0l49 246h893l-47 -246h-895z" />
    <glyph glyph-name="published" unicode="&#x2117;" horiz-adv-x="1871" 
d="M1753 793q0 -157 -46 -296.5t-128 -244.5t-192 -182t-242 -116.5t-273 -39.5q-153 0 -282.5 46t-225.5 132.5t-150 220t-54 299.5q0 158 46 298t128.5 246t192.5 183.5t242 117.5t273 40q152 0 281.5 -46.5t225 -133.5t150 -221.5t54.5 -302.5zM1026 1303
q-174 0 -322 -82.5t-238.5 -237t-90.5 -348.5q0 -169 68 -289.5t182.5 -178.5t263.5 -58q130 0 248.5 48.5t207.5 133.5t142 210.5t53 270.5q0 129 -39 231t-109 167t-163 99t-203 34zM848 326h-227l145 747q281 34 426 -29t145 -200q0 -139 -128.5 -232.5t-331.5 -115.5
q-7 -39 -14 -80t-10.5 -63.5t-4.5 -26.5zM1106 813q0 44 -43.5 68.5t-116.5 13.5q-3 -16 -16 -88.5t-21 -116.5q93 -13 145 23.5t52 99.5z" />
    <glyph glyph-name="servicemark" unicode="&#x2120;" horiz-adv-x="2054" 
d="M1419 1413l58 -436h4l231 432h318l-166 -842h-236l113 516h-10l-244 -450h-158l-63 452h-13l-88 -518h-229l166 838zM897 1153l-205 -43q-30 123 -112 123q-35 0 -59.5 -16t-24.5 -41q0 -23 33 -53t80 -64t94.5 -72.5t80.5 -90t33 -105.5q0 -46 -22.5 -87t-71.5 -77
t-127 -55.5t-189.5 -21.5t-259.5 25l46 226q316 -76 359 -39q9 7 9 20q0 20 -32 48t-78 60t-92.5 69.5t-78.5 88.5t-32 105q0 106 106.5 190t257.5 84q247 0 285 -274z" />
    <glyph glyph-name="trademark" unicode="&#x2122;" horiz-adv-x="2082" 
d="M1010 1409l-43 -209h-240l-127 -633h-246l123 633h-241l43 209h731zM1448 1413l59 -436h4l232 432h317l-166 -842h-235l113 516h-11l-243 -450h-158l-64 452h-12l-88 -518h-229l166 838z" />
    <glyph glyph-name="Omega" unicode="&#x2126;" horiz-adv-x="1458" 
d="M565 14l-8 -14h-541l56 279h243q-82 254 -82 473q0 161 47.5 292.5t131.5 218t196.5 133t243.5 46.5q225 0 357 -128t132 -341q0 -150 -71 -331.5t-197 -362.5h217l-53 -279h-518l-6 14q153 290 233 515t80 362q0 123 -57 187.5t-154 64.5q-139 0 -221 -147t-82 -439
q0 -282 53 -543z" />
    <glyph glyph-name="onethird" unicode="&#x2153;" horiz-adv-x="2293" 
d="M737 -49l-157 117l1065 1378l155 -117zM836 512h-670l39 205h233l78 385h-215l27 176l227 22l27 127l237 19l-147 -729h217zM2081 272q0 -62 -39 -117t-123 -99.5t-216.5 -59.5t-320.5 2l31 215q161 -20 255.5 -15t131.5 20.5t37 41.5q0 36 -82 72.5t-237 66.5l16 97
l324 192h-347l43 209h603l-27 -203l-315 -192q135 -39 200.5 -98t65.5 -132z" />
    <glyph glyph-name="twothirds" unicode="&#x2154;" horiz-adv-x="2293" 
d="M735 -49l-157 117l1064 1378l156 -117zM827 512h-659l4 190q256 144 376 237t120 169q0 40 -33.5 62.5t-117 30t-224.5 -12.5l31 217q295 46 451.5 -16t156.5 -209q0 -118 -99 -224.5t-309 -234.5h346zM2081 272q0 -62 -39 -117t-123 -99.5t-216.5 -59.5t-320.5 2l31 215
q161 -20 255.5 -15t131.5 20.5t37 41.5q0 36 -82 72.5t-237 66.5l16 97l324 192h-347l43 209h603l-27 -203l-315 -192q135 -39 200.5 -98t65.5 -132z" />
    <glyph glyph-name="onefifth" unicode="&#x2155;" horiz-adv-x="2293" 
d="M725 -49l-158 117l1065 1378l156 -117zM836 512h-670l39 205h233l78 385h-215l27 176l227 22l27 127l237 19l-147 -729h217zM2091 307q0 -54 -23.5 -102.5t-77.5 -92t-134.5 -72.5t-202.5 -41.5t-273 -2.5l27 219q446 -37 446 74q0 42 -86 74t-290 57l104 477h592
l-59 -209l-355 2l-30 -127q362 -62 362 -256z" />
    <glyph glyph-name="twofifths" unicode="&#x2156;" horiz-adv-x="2293" 
d="M717 -49l-158 117l1065 1378l156 -117zM827 512h-659l4 190q256 144 376 237t120 169q0 40 -33.5 62.5t-117 30t-224.5 -12.5l31 217q295 46 451.5 -16t156.5 -209q0 -118 -99 -224.5t-309 -234.5h346zM2091 307q0 -54 -23.5 -102.5t-77.5 -92t-134.5 -72.5t-202.5 -41.5
t-273 -2.5l27 219q446 -37 446 74q0 42 -86 74t-290 57l104 477h592l-59 -209l-355 2l-30 -127q362 -62 362 -256z" />
    <glyph glyph-name="threefifths" unicode="&#x2157;" horiz-adv-x="2293" 
d="M713 -49l-158 117l1065 1378l156 -117zM877 784q0 -62 -39 -117t-123 -99.5t-216.5 -59.5t-320.5 2l31 215q161 -20 255.5 -15t131.5 20.5t37 41.5q0 36 -82 72.5t-238 66.5l17 97l323 192h-346l43 209h602l-26 -203l-316 -192q135 -39 201 -98t66 -132zM2091 307
q0 -54 -23.5 -102.5t-77.5 -92t-134.5 -72.5t-202.5 -41.5t-273 -2.5l27 219q446 -37 446 74q0 42 -86 74t-290 57l104 477h592l-59 -209l-355 2l-30 -127q362 -62 362 -256z" />
    <glyph glyph-name="fourfifths" unicode="&#x2158;" horiz-adv-x="2293" 
d="M727 -49l-158 117l1065 1378l156 -117zM895 664h-88l-29 -152h-221l29 152h-418l18 167q77 141 131 274.5t107 315.5l256 -12q-113 -329 -258 -543h205l47 242l223 14l-49 -256h102zM2091 307q0 -54 -23.5 -102.5t-77.5 -92t-134.5 -72.5t-202.5 -41.5t-273 -2.5l27 219
q446 -37 446 74q0 42 -86 74t-290 57l104 477h592l-59 -209l-355 2l-30 -127q362 -62 362 -256z" />
    <glyph glyph-name="onesixth" unicode="&#x2159;" horiz-adv-x="2293" 
d="M737 -49l-157 117l1065 1378l155 -117zM836 512h-670l39 205h233l78 385h-215l27 176l227 22l27 127l237 19l-147 -729h217zM1726 -23q-150 0 -238.5 81.5t-88.5 234.5q0 102 36.5 196t111.5 179.5t203.5 153.5t299.5 108l47 -201q-335 -62 -430 -244q82 49 163 60.5
t142 -11t99 -78t38 -134.5q0 -151 -109.5 -248t-273.5 -97zM1763 158q58 0 89.5 38t31.5 93q0 78 -69 101.5t-183 -30.5q-2 -12 -2 -34q0 -86 38 -127t95 -41z" />
    <glyph glyph-name="fivesixths" unicode="&#x215a;" horiz-adv-x="2293" 
d="M723 -49l-158 117l1065 1378l156 -117zM1726 -23q-150 0 -238.5 81.5t-88.5 234.5q0 102 36.5 196t111.5 179.5t203.5 153.5t299.5 108l47 -201q-335 -62 -430 -244q82 49 163 60.5t142 -11t99 -78t38 -134.5q0 -151 -109.5 -248t-273.5 -97zM887 819q0 -54 -23.5 -102.5
t-77.5 -92t-134.5 -72.5t-202.5 -41.5t-273 -2.5l27 219q446 -37 446 74q0 42 -86.5 74t-290.5 57l105 477h592l-60 -209l-354 2l-31 -127q363 -62 363 -256zM1763 158q58 0 89.5 38t31.5 93q0 78 -69 101.5t-183 -30.5q-2 -12 -2 -34q0 -86 38 -127t95 -41z" />
    <glyph glyph-name="oneeighth" unicode="&#x215b;" horiz-adv-x="2293" 
d="M723 -49l-158 117l1065 1378l156 -117zM836 512h-670l39 205h233l78 385h-215l27 176l227 22l27 127l237 19l-147 -729h217zM2079 242q0 -112 -107 -188.5t-276 -76.5q-149 0 -232.5 60t-83.5 158q0 71 50 135t182 141q-109 98 -109 188q0 61 38.5 115t114 93t187 52
t256.5 -6q-4 -9 -42.5 -115t-41.5 -112q-289 87 -289 -6q0 -23 20.5 -47t61.5 -58q149 69 299 132l64 -132q-110 -46 -236 -102q67 -58 105.5 -113.5t38.5 -117.5zM1739 160q52 0 86.5 22t34.5 54q0 28 -31 59.5t-92 77.5q-75 -43 -102 -73.5t-27 -57.5q0 -37 37 -59.5
t94 -22.5z" />
    <glyph glyph-name="threeeighths" unicode="&#x215c;" horiz-adv-x="2293" 
d="M713 -49l-158 117l1065 1378l156 -117zM2079 242q0 -112 -107 -188.5t-276 -76.5q-149 0 -232.5 60t-83.5 158q0 71 50 135t182 141q-109 98 -109 188q0 61 38.5 115t114 93t187 52t256.5 -6q-4 -9 -42.5 -115t-41.5 -112q-289 87 -289 -6q0 -23 20.5 -47t61.5 -58
q149 69 299 132l64 -132q-110 -46 -236 -102q67 -58 105.5 -113.5t38.5 -117.5zM877 784q0 -62 -39 -117t-123 -99.5t-216.5 -59.5t-320.5 2l31 215q161 -20 255.5 -15t131.5 20.5t37 41.5q0 36 -82 72.5t-238 66.5l17 97l323 192h-346l43 209h602l-26 -203l-316 -192
q135 -39 201 -98t66 -132zM1739 160q52 0 86.5 22t34.5 54q0 28 -31 59.5t-92 77.5q-75 -43 -102 -73.5t-27 -57.5q0 -37 37 -59.5t94 -22.5z" />
    <glyph glyph-name="fiveeighths" unicode="&#x215d;" horiz-adv-x="2293" 
d="M713 -49l-158 117l1065 1378l156 -117zM2079 242q0 -112 -107 -188.5t-276 -76.5q-149 0 -232.5 60t-83.5 158q0 71 50 135t182 141q-109 98 -109 188q0 61 38.5 115t114 93t187 52t256.5 -6q-4 -9 -42.5 -115t-41.5 -112q-289 87 -289 -6q0 -23 20.5 -47t61.5 -58
q149 69 299 132l64 -132q-110 -46 -236 -102q67 -58 105.5 -113.5t38.5 -117.5zM887 819q0 -54 -23.5 -102.5t-77.5 -92t-134.5 -72.5t-202.5 -41.5t-273 -2.5l27 219q446 -37 446 74q0 42 -86.5 74t-290.5 57l105 477h592l-60 -209l-354 2l-31 -127q363 -62 363 -256z
M1739 160q52 0 86.5 22t34.5 54q0 28 -31 59.5t-92 77.5q-75 -43 -102 -73.5t-27 -57.5q0 -37 37 -59.5t94 -22.5z" />
    <glyph glyph-name="seveneighths" unicode="&#x215e;" horiz-adv-x="2293" 
d="M690 -49l-158 117l1065 1378l156 -117zM487 498l-260 24q198 346 480 668l-2 8h-435l52 215h682l-43 -209q-261 -316 -474 -706zM2079 242q0 -112 -107 -188.5t-276 -76.5q-149 0 -232.5 60t-83.5 158q0 71 50 135t182 141q-109 98 -109 188q0 61 38.5 115t114 93t187 52
t256.5 -6q-4 -9 -42.5 -115t-41.5 -112q-289 87 -289 -6q0 -23 20.5 -47t61.5 -58q149 69 299 132l64 -132q-110 -46 -236 -102q67 -58 105.5 -113.5t38.5 -117.5zM1739 160q52 0 86.5 22t34.5 54q0 28 -31 59.5t-92 77.5q-75 -43 -102 -73.5t-27 -57.5q0 -37 37 -59.5
t94 -22.5z" />
    <glyph glyph-name="minus" unicode="&#x2212;" horiz-adv-x="1277" 
d="M1176 825l-56 -272h-968l53 272h971z" />
    <glyph glyph-name="approxequal" unicode="&#x2248;" horiz-adv-x="1277" 
d="M453 530q-33 0 -69.5 -48t-86.5 -146l-188 76q52 144 110 231l-57 25q70 177 158.5 268.5t203.5 91.5q59 0 117.5 -26.5t96.5 -58.5t78.5 -58.5t66.5 -26.5q30 0 61 42.5t76 131.5l194 -74q-57 -157 -110 -233l55 -23q-71 -176 -147 -259t-185 -83q-60 0 -120.5 26.5
t-100.5 58.5t-82.5 58.5t-70.5 26.5z" />
    <glyph glyph-name="notequal" unicode="&#x2260;" horiz-adv-x="1277" 
d="M1075 311h-481l-180 -325l-234 92l129 233h-205l56 271h299l127 227h-383l53 272h481l181 326l233 -96l-127 -230h201l-54 -272h-299l-127 -227h383z" />
    <glyph glyph-name="lessequal" unicode="&#x2264;" horiz-adv-x="1277" 
d="M1104 1337l92 -245l-639 -289l-2 -15l530 -219l-110 -260l-782 336l57 275zM1067 268l-53 -268h-969l53 268h969z" />
    <glyph glyph-name="greaterequal" unicode="&#x2265;" horiz-adv-x="1277" 
d="M436 1337l727 -417l-49 -275l-872 -336l-62 256l629 230l2 16l-524 274zM1067 268l-53 -268h-969l53 268h969z" />
    <glyph glyph-name="arrow.1_N" unicode="&#xe01c;" horiz-adv-x="1441" 
d="M883 727v-727h-277v727l8 168l-284 -408l-217 172l635 789l626 -789l-217 -172l-283 406z" />
    <glyph glyph-name="arrow.1_W" unicode="&#xe01d;" horiz-adv-x="1441" 
d="M1008 254l-181 -227l-757 651l757 649l181 -225l-404 -291l123 4h639v-266h-639l-127 6z" />
    <glyph glyph-name="arrow.1_S" unicode="&#xe01e;" horiz-adv-x="1441" 
d="M737 -39l-624 789l217 172l282 -404l-8 164v727h277v-727l-9 -168l285 408l217 -172z" />
    <glyph glyph-name="arrow.1_E" unicode="&#xe01f;" horiz-adv-x="1441" 
d="M659 37l-180 227l402 291l-121 -6h-639v266h639l125 -4l-406 297l180 227l756 -649z" />
    <glyph glyph-name="hcoslug" unicode="&#xe10b;" horiz-adv-x="1421" 
d="M1319 1434v-1639h-1217v1639h1217zM506 877q0 26 15 42.5t40 16.5q26 0 43 -21.5t17 -56.5q0 -46 -37 -102q-30 29 -42.5 42.5t-24 35t-11.5 43.5zM639 700q61 42 86 70q23 -23 29 -49t-2 -52.5t-29 -62.5q-68 78 -84 94zM535 449q-46 0 -76.5 31.5t-30.5 78.5
q0 49 33 82q72 -68 151 -168q-31 -24 -77 -24zM782 541q42 55 95 86q30 -52 88 -52q43 0 72.5 32t29.5 79t-29.5 77t-72.5 30q-70 0 -123 -78q-3 40 -30.5 59t-70.5 17q19 32 19 69q0 59 -52.5 105.5t-142.5 46.5q-99 0 -161 -52.5t-62 -121.5q0 -43 15 -75t49 -67
q-168 -57 -168 -186q0 -81 65 -136t158 -55q129 0 213 93q51 -52 89.5 -72.5t84.5 -20.5q68 0 114.5 53t49.5 140l-15 4q-34 -59 -88 -59q-30 0 -59 19.5t-68 64.5zM586 254l-25 -4v-19h-14v-14h14v-41q0 -26 25 -26q22 0 28 26l-10 4q-3 -14 -10 -14q-8 0 -8 10v41h26v14
h-26v23zM356 193q0 -20 12 -31.5t31 -11.5t31 12t12 31q0 18 -12 29t-31 11t-31 -11t-12 -29zM416 193q0 -33 -17 -33q-16 0 -16 33q0 30 16 30q17 0 17 -30zM776 190q0 -26 -14 -26q-17 0 -17 26q0 27 17 27q14 0 14 -27zM449 166v-14h45v14h-9v31q0 20 15 20q12 0 12 -14
v-37h-8v-14h45v14h-12v39q0 28 -25 28q-20 0 -29 -22v20h-34v-14h12v-51h-12zM256 166v-14h61v14h-20v33h8q7 0 8.5 -3t3.5 -14h15v47h-15q-1 -8 -2 -10.5t-3 -4t-7 -1.5h-8v37h25q11 0 15 -5t7 -22h16v41h-104v-14h14v-84h-14zM618 180v-28h15l2 8q15 -10 27 -10
q13 0 20.5 7.5t7.5 18.5q0 19 -24.5 25t-24.5 12q0 8 10 8q11 0 21 -14h14v26h-12l-4 -10q-7 10 -23 10q-13 0 -21 -7t-8 -17q0 -19 25 -26t25 -13q0 -8 -11 -8q-12 0 -24 18h-15zM721 256v-106h12l8 16q10 -16 29 -16q17 0 25 13.5t8 29.5q0 18 -8.5 29t-22.5 11
q-21 0 -27 -18v55h-36v-14h12zM829 133q5 5 2.5 13t-12.5 8q-14 0 -14 -15q0 -18 22 -18q24 0 37 33l27 63h10v14h-35v-14h11l-17 -41l-18 41h12v14h-51v-14h10q25 -47 33 -67q-3 -17 -17 -17zM950 68h-37v-15h13q-2 -7 -13 -18q-4 4 -11.5 12.5t-12.5 13.5q22 9 22 25
q0 10 -7.5 17.5t-20.5 7.5q-14 0 -24.5 -9t-10.5 -20q0 -13 12 -25q-26 -7 -26 -30q0 -29 36 -29q19 0 31 12q10 -12 25 -12q19 0 26 25l-10 2q-3 -11 -8 -11t-12 11q12 16 18 28h10v15zM602 80v6q0 25 12 25l7 -2q-3 -3 -3 -7q0 -12 13 -12v-10h-29zM961 55
q0 -26 15.5 -41.5t43.5 -15.5q46 0 49 47h-16q-4 -33 -29 -33q-33 0 -33 45t29 45q12 0 18.5 -6.5t12.5 -25.5h16v45h-16l-2 -13q-15 15 -33 15q-22 0 -38.5 -17.5t-16.5 -44.5zM883 68q-13 13 -13 20q0 10 11 10q12 0 12 -12q0 -11 -10 -18zM506 37h53q3 45 -39 45
q-17 0 -29 -12t-12 -31t11.5 -30t31.5 -11q30 0 37 29h-14q-3 -15 -19 -15q-20 0 -20 25zM387 41q0 -20 12 -31.5t31 -11.5t31 12t12 31t-12 30t-31 11t-31 -11t-12 -30zM1075 41q0 -20 12 -31.5t31 -11.5t31 12t12 31t-12 30t-31 11t-31 -11t-12 -30zM696 37h54
q3 45 -39 45q-17 0 -29 -12t-12 -31t11.5 -30t31.5 -11q30 0 37 29h-15q-3 -15 -18 -15q-21 0 -21 25zM506 47q0 25 14 25q15 0 15 -25h-29zM446 41q0 -33 -16 -33t-16 33q0 31 16 31t16 -31zM1135 41q0 -33 -17 -33q-16 0 -16 33q0 31 16 31q17 0 17 -31zM696 47
q0 25 15 25q14 0 14 -25h-29zM565 14v-14h47v14h-10v52h29v-52h-10v-14h47v14h-13v107l-20 -4q-8 4 -19 4q-16 0 -27 -10t-11 -29v-2h-15v-14h15v-52h-13zM754 14v-14h53v14h-16v33q8 19 14 19v-3q0 -12 12 -12q14 0 14 15q0 16 -16 16q-15 0 -24 -23v21h-37v-14h12v-52h-12
zM895 18q-9 -6 -16 -6q-9 0 -15 6t-6 15q0 10 8 18q9 -9 29 -33zM254 14v-14h59v14h-16v37h45v-37h-16v-14h59v14h-16v84h16v15h-59v-15h16v-32h-45v32h16v15h-59v-15h16v-84h-16zM1194 12q0 15 -14 15q-6 0 -10.5 -4.5t-4.5 -10.5q0 -14 15 -14q14 0 14 14z" />
    <glyph glyph-name="check.1" unicode="&#xe10c;" horiz-adv-x="1271" 
d="M1362 1432q-467 -705 -762 -1461l-281 4l-208 832l292 86l109 -512l14 -2q223 696 521 1180z" />
    <glyph glyph-name="check.2" unicode="&#xe10d;" horiz-adv-x="1271" 
d="M608 -18l-110 372l-285 -387l-201 86l385 557l-188 541l307 80l102 -348l426 684l293 -140l-614 -831l201 -576z" />
    <glyph glyph-name="a.sc" horiz-adv-x="1306" 
d="M801 -10q-6 144 -15 291h-372q-9 -21 -54.5 -124t-68.5 -157h-330q275 593 602 1223h438q86 -705 132 -1213zM723 954q-26 -54 -209 -452h258q-5 82 -35 452h-14z" />
    <glyph glyph-name="b.sc" horiz-adv-x="1239" 
d="M1100 379q0 -75 -34.5 -140t-110 -122t-197 -89.5t-295 -43t-402.5 17.5l234 1208q233 30 396.5 25.5t267 -45.5t151 -102t47.5 -144q0 -93 -67.5 -174t-192.5 -135q97 -32 150 -99.5t53 -156.5zM848 868q0 67 -73 100t-206 23l-59 -309q168 13 253 64t85 122zM795 383
q0 75 -79.5 113.5t-236.5 25.5l-57 -291q177 -22 275 23.5t98 128.5z" />
    <glyph glyph-name="c.sc" horiz-adv-x="1232" 
d="M797 1249q198 0 282.5 -122.5t75.5 -385.5l-297 -4q-3 132 -30 185t-101 53q-93 0 -166 -72.5t-108 -175t-35 -209.5q0 -96 35 -156.5t110.5 -88.5t197 -19.5t292.5 53.5l-33 -264q-299 -87 -505.5 -62t-314.5 147.5t-108 326.5q0 154 56.5 299.5t150.5 254t225 174.5
t273 66z" />
    <glyph glyph-name="d.sc" horiz-adv-x="1308" 
d="M1227 733q0 -112 -28.5 -213t-89 -193t-154 -161t-223 -116t-296.5 -59t-375 11l234 1210q450 66 691 -60t241 -419zM905 707q0 290 -334 278l-143 -745q119 -7 212.5 28.5t150 102t85.5 152t29 184.5z" />
    <glyph glyph-name="e.sc" horiz-adv-x="1138" 
d="M942 250l-72 -250h-809l236 1223h817l-47 -252h-494l-51 -256h412l-41 -205h-410l-51 -260h510z" />
    <glyph glyph-name="f.sc" horiz-adv-x="1099" 
d="M887 465h-410l-90 -465h-326l236 1223h815l-45 -258h-492l-53 -271h408z" />
    <glyph glyph-name="g.sc" horiz-adv-x="1286" 
d="M973 -205l-293 -2l47 201q-296 -45 -465.5 81t-169.5 382q0 153 57 298t152.5 253.5t227.5 174.5t274 66q202 0 289 -122t79 -386l-297 -4q-5 131 -34.5 184.5t-104.5 53.5q-72 0 -133.5 -42.5t-100 -110.5t-60 -150t-21.5 -164q0 -318 362 -268l60 252l301 8z" />
    <glyph glyph-name="h.sc" horiz-adv-x="1388" 
d="M778 0l94 494h-387l-96 -494h-328l236 1223h330l-95 -490h388l94 490h329l-237 -1223h-328z" />
    <glyph glyph-name="i.sc" horiz-adv-x="1089" 
d="M641 238h262l-59 -238h-826l48 238h249l148 747h-254l47 238h825l-45 -238h-250z" />
    <glyph glyph-name="j.sc" horiz-adv-x="1038" 
d="M713 98q-67 -66 -228.5 -94.5t-478.5 -21.5l45 270q232 -6 308 -0.5t100 29.5q23 21 39 73t51 230l78 401h-334l47 238h661l-122 -621q-38 -196 -65.5 -296.5t-46.5 -136.5t-54 -71z" />
    <glyph glyph-name="k.sc" horiz-adv-x="1288" 
d="M811 -16l-311 618l-117 -602h-324l238 1223h324l-117 -602l495 602h349l-510 -613l317 -594z" />
    <glyph glyph-name="l.sc" horiz-adv-x="1056" 
d="M868 0h-807l236 1223h330l-189 -965h480z" />
    <glyph glyph-name="m.sc" horiz-adv-x="1595" 
d="M694 1229l94 -678h7l356 672h395l-233 -1223h-309l174 801h-15l-379 -709l-176 -2l-104 711h-15l-133 -801h-295l234 1214z" />
    <glyph glyph-name="n.sc" horiz-adv-x="1394" 
d="M793 0l-277 768h-14l-144 -768h-297l234 1217l340 8l264 -736h14l138 734h297l-236 -1223h-319z" />
    <glyph glyph-name="o.sc" horiz-adv-x="1355" 
d="M791 1249q216 0 349.5 -136.5t133.5 -373.5q0 -153 -54 -293.5t-145.5 -245t-221.5 -167t-275 -62.5q-215 0 -349.5 137.5t-134.5 374.5q0 152 54 293t146 245t222 166t275 62zM635 236q73 0 133 41.5t97.5 110.5t58 154t20.5 175q0 134 -59 201t-150 67
q-96 0 -168.5 -71.5t-107.5 -179t-35 -230.5q0 -131 60 -199.5t151 -68.5z" />
    <glyph glyph-name="p.sc" horiz-adv-x="1224" 
d="M383 0h-324l236 1214q237 29 406 18t276 -63t157 -128.5t50 -178.5q0 -208 -194.5 -350t-545.5 -195zM868 815q0 92 -78 139.5t-217 32.5l-79 -409q178 -16 276 54.5t98 182.5z" />
    <glyph glyph-name="q.sc" horiz-adv-x="1308" 
d="M987 -311l-749 256l67 217q273 84 439.5 252.5t166.5 355.5q0 103 -56 159t-153 56q-163 0 -234 -163.5t-5 -461.5l-275 -104q-56 118 -71.5 241t7 231.5t79 205t138 165.5t191 109.5t232.5 40.5q117 0 209.5 -35.5t152 -97.5t90.5 -144.5t31 -178.5q0 -221 -161 -409
t-427 -308l420 -127z" />
    <glyph glyph-name="r.sc" horiz-adv-x="1267" 
d="M780 -20l-260 579v2q182 72 257 141t75 148q0 75 -72.5 110.5t-210.5 22.5l-190 -983h-320l236 1210q164 22 298.5 25t229.5 -13.5t164 -45.5t109.5 -71.5t59 -90.5t18.5 -105q0 -225 -310 -399l258 -490z" />
    <glyph glyph-name="s.sc" 
d="M1065 870l-268 -53q-26 91 -66.5 132.5t-101.5 41.5q-54 0 -86.5 -31.5t-32.5 -76.5q0 -31 24.5 -65.5t64 -67.5t87 -69t95 -76t87 -82.5t64 -94.5t24.5 -106q0 -55 -22.5 -105.5t-67.5 -97t-120.5 -79t-173 -50.5t-233.5 -12.5t-294 36.5l55 285q113 -29 203 -44
t148 -16t96.5 8.5t54.5 26.5t16 41q0 31 -32 67t-80 69.5t-104 78t-104 90t-80 108t-32 128.5q0 156 139.5 272.5t346.5 116.5q175 0 268 -93.5t125 -281.5z" />
    <glyph glyph-name="t.sc" horiz-adv-x="1153" 
d="M815 965l-186 -965h-328l186 965h-335l49 258h999l-49 -258h-336z" />
    <glyph glyph-name="u.sc" horiz-adv-x="1359" 
d="M473 508q-29 -147 14.5 -211t135.5 -64q185 0 227 218l149 772h324l-145 -760q-50 -243 -205.5 -366.5t-386.5 -123.5q-121 0 -211 32t-151 102t-77 180t11 266l127 670h325z" />
    <glyph glyph-name="v.sc" horiz-adv-x="1234" 
d="M723 0h-447q-79 628 -112 1212l330 19q16 -478 53 -928h24q207 436 410 920h326q-264 -595 -584 -1223z" />
    <glyph glyph-name="w.sc" horiz-adv-x="1497" 
d="M817 0l-90 485l-268 -485h-312q-2 189 24 521t75 702h313l-110 -820h12l272 525h170l78 -522h10l203 817h307q-212 -813 -368 -1223h-316z" />
    <glyph glyph-name="x.sc" horiz-adv-x="1259" 
d="M748 -8l-164 407l-287 -399h-350l502 618l-271 596l348 15l166 -414l293 408h352l-508 -625l271 -590z" />
    <glyph glyph-name="y.sc" horiz-adv-x="1245" 
d="M676 0h-326l80 414l-266 800l332 15l159 -545l340 539h338l-579 -832z" />
    <glyph glyph-name="z.sc" horiz-adv-x="1146" 
d="M926 0h-916l47 256l676 707l-534 -5l51 265h895l-43 -258l-670 -707l547 4z" />
    <glyph glyph-name="aacute.sc" horiz-adv-x="1306" 
d="M539 1483q110 63 263 174t259 207l184 -254q-126 -82 -319 -159t-336 -108zM801 -10q-6 144 -15 291h-372q-9 -21 -54.5 -124t-68.5 -157h-330q275 593 602 1223h438q86 -705 132 -1213zM723 954q-26 -54 -209 -452h258q-5 82 -35 452h-14z" />
    <glyph glyph-name="abreve.sc" horiz-adv-x="1306" 
d="M1143 1802l168 -110q-121 -163 -252 -252.5t-256 -89.5q-124 0 -222 87.5t-155 252.5l227 129q45 -111 96 -162t119 -51q62 0 127.5 48.5t147.5 147.5zM801 -10q-6 144 -15 291h-372q-9 -21 -54.5 -124t-68.5 -157h-330q275 593 602 1223h438q86 -705 132 -1213zM723 954
q-26 -54 -209 -452h258q-5 82 -35 452h-14z" />
    <glyph glyph-name="acircumflex.sc" horiz-adv-x="1306" 
d="M1038 1333l-198 215l-303 -207l-131 166l475 330h30l336 -338zM801 -10q-6 144 -15 291h-372q-9 -21 -54.5 -124t-68.5 -157h-330q275 593 602 1223h438q86 -705 132 -1213zM723 954q-26 -54 -209 -452h258q-5 82 -35 452h-14z" />
    <glyph glyph-name="adieresis.sc" horiz-adv-x="1306" 
d="M1194 1389l-328 -5l78 322l348 6zM711 1386l-328 -4l78 320l348 4zM801 -10q-6 144 -15 291h-372q-9 -21 -54.5 -124t-68.5 -157h-330q275 593 602 1223h438q86 -705 132 -1213zM723 954q-26 -54 -209 -452h258q-5 82 -35 452h-14z" />
    <glyph glyph-name="agrave.sc" horiz-adv-x="1306" 
d="M1065 1473l-59 -138q-127 36 -305.5 117t-307.5 160l174 258q116 -107 255 -218t243 -179zM801 -10q-6 144 -15 291h-372q-9 -21 -54.5 -124t-68.5 -157h-330q275 593 602 1223h438q86 -705 132 -1213zM723 954q-26 -54 -209 -452h258q-5 82 -35 452h-14z" />
    <glyph glyph-name="amacron.sc" horiz-adv-x="1306" 
d="M1251 1686l-53 -275h-774l53 275h774zM801 -10q-6 144 -15 291h-372q-9 -21 -54.5 -124t-68.5 -157h-330q275 593 602 1223h438q86 -705 132 -1213zM723 954q-26 -54 -209 -452h258q-5 82 -35 452h-14z" />
    <glyph glyph-name="aogonek.sc" horiz-adv-x="1306" 
d="M1051 -385q-134 -66 -245 -87.5t-179 -1.5t-105 66.5t-37 112.5q0 89 76 175t238 159q-2 40 -6.5 121t-6.5 121h-372q-9 -21 -54.5 -124t-68.5 -157h-330q275 593 602 1223h438q86 -705 132 -1213h-3l3 -2q-190 -41 -279.5 -96.5t-89.5 -108.5q0 -33 25.5 -50t86 -14.5
t152.5 28.5zM723 954q-26 -54 -209 -452h258q-5 82 -35 452h-14z" />
    <glyph glyph-name="aring.sc" horiz-adv-x="1306" 
d="M874 1841q120 0 193.5 -66t73.5 -165q0 -115 -92 -198t-232 -83q-120 0 -192 67.5t-72 168.5q0 115 90.5 195.5t230.5 80.5zM801 -10q-6 144 -15 291h-372q-9 -21 -54.5 -124t-68.5 -157h-330q275 593 602 1223h438q86 -705 132 -1213zM723 954q-26 -54 -209 -452h258
q-5 82 -35 452h-14z" />
    <glyph glyph-name="aringacute.sc" horiz-adv-x="1306" 
d="M649 2052q110 63 263 174t259 207l185 -254q-125 -82 -318.5 -158.5t-337.5 -107.5zM874 1841q120 0 193.5 -66t73.5 -165q0 -115 -92 -198t-232 -83q-120 0 -192 67.5t-72 168.5q0 115 90.5 195.5t230.5 80.5zM801 -10q-6 144 -15 291h-372q-9 -21 -54.5 -124
t-68.5 -157h-330q275 593 602 1223h438q86 -705 132 -1213zM723 954q-26 -54 -209 -452h258q-5 82 -35 452h-14z" />
    <glyph glyph-name="atilde.sc" horiz-adv-x="1306" 
d="M1020 1610q50 0 156 164l145 -91q-82 -146 -175.5 -233.5t-180.5 -87.5q-39 0 -78 18.5t-69.5 45t-57.5 53t-51 45t-41 18.5q-47 0 -152 -164l-147 90q82 146 175.5 234t180.5 88q39 0 77.5 -18.5t69 -45t57 -53t50.5 -45t41 -18.5zM801 -10q-6 144 -15 291h-372
q-9 -21 -54.5 -124t-68.5 -157h-330q275 593 602 1223h438q86 -705 132 -1213zM723 954q-26 -54 -209 -452h258q-5 82 -35 452h-14z" />
    <glyph glyph-name="cacute.sc" horiz-adv-x="1232" 
d="M563 1507q110 63 263 174t259 207l185 -254q-125 -82 -318.5 -158.5t-337.5 -107.5zM797 1249q198 0 282.5 -122.5t75.5 -385.5l-297 -4q-3 132 -30 185t-101 53q-93 0 -166 -72.5t-108 -175t-35 -209.5q0 -96 35 -156.5t110.5 -88.5t197 -19.5t292.5 53.5l-33 -264
q-299 -87 -505.5 -62t-314.5 147.5t-108 326.5q0 154 56.5 299.5t150.5 254t225 174.5t273 66z" />
    <glyph glyph-name="ccaron.sc" horiz-adv-x="1232" 
d="M836 1352h-29l-336 338l207 165l199 -215l303 207l131 -164zM797 1249q198 0 282.5 -122.5t75.5 -385.5l-297 -4q-3 132 -30 185t-101 53q-93 0 -166 -72.5t-108 -175t-35 -209.5q0 -96 35 -156.5t110.5 -88.5t197 -19.5t292.5 53.5l-33 -264q-299 -87 -505.5 -62
t-314.5 147.5t-108 326.5q0 154 56.5 299.5t150.5 254t225 174.5t273 66z" />
    <glyph glyph-name="ccedilla.sc" horiz-adv-x="1232" 
d="M807 -422l-258 -4q7 137 -6 193.5t-49 56.5q-71 0 -164 -201l-152 51q98 250 217 332q-148 47 -225.5 162.5t-77.5 286.5q0 154 56.5 299.5t150.5 254t225 174.5t273 66q198 0 282.5 -122.5t75.5 -385.5l-297 -4q-3 132 -30 185t-101 53q-93 0 -166 -72.5t-108 -175
t-35 -209.5q0 -96 35 -156.5t110.5 -88.5t197 -19.5t292.5 53.5l-33 -264q-165 -50 -315 -63q119 -123 102 -402z" />
    <glyph glyph-name="cdotaccent.sc" horiz-adv-x="1232" 
d="M983 1409l-342 -2l78 322l362 4zM797 1249q198 0 282.5 -122.5t75.5 -385.5l-297 -4q-3 132 -30 185t-101 53q-93 0 -166 -72.5t-108 -175t-35 -209.5q0 -96 35 -156.5t110.5 -88.5t197 -19.5t292.5 53.5l-33 -264q-299 -87 -505.5 -62t-314.5 147.5t-108 326.5
q0 154 56.5 299.5t150.5 254t225 174.5t273 66z" />
    <glyph glyph-name="dcaron.sc" horiz-adv-x="1308" 
d="M778 1341h-28l-336 338l207 166l198 -215l303 207l131 -164zM1227 733q0 -112 -28.5 -213t-89 -193t-154 -161t-223 -116t-296.5 -59t-375 11l234 1210q450 66 691 -60t241 -419zM905 707q0 290 -334 278l-143 -745q119 -7 212.5 28.5t150 102t85.5 152t29 184.5z" />
    <glyph glyph-name="dcroat.sc" horiz-adv-x="1308" 
d="M1227 733q0 -112 -28.5 -213t-89 -193t-154 -161t-223 -116t-296.5 -59t-375 11l99 512h-119l39 203h119l96 495q450 66 691 -60t241 -419zM678 514h-201l-53 -276q121 -8 215.5 27t152 102t86.5 153.5t29 186.5q0 294 -338 282l-53 -272h209z" />
    <glyph glyph-name="eacute.sc" horiz-adv-x="1138" 
d="M469 1483q110 63 263 174t259 207l185 -254q-125 -82 -319 -159t-337 -108zM942 250l-72 -250h-809l236 1223h817l-47 -252h-494l-51 -256h412l-41 -205h-410l-51 -260h510z" />
    <glyph glyph-name="ebreve.sc" horiz-adv-x="1138" 
d="M1071 1802l168 -110q-121 -163 -252 -252.5t-256 -89.5q-124 0 -222 87.5t-155 252.5l228 129q45 -111 95.5 -162t119.5 -51q62 0 126.5 48.5t147.5 147.5zM942 250l-72 -250h-809l236 1223h817l-47 -252h-494l-51 -256h412l-41 -205h-410l-51 -260h510z" />
    <glyph glyph-name="ecaron.sc" horiz-adv-x="1138" 
d="M739 1327h-28l-336 338l207 166l198 -215l303 207l131 -164zM942 250l-72 -250h-809l236 1223h817l-47 -252h-494l-51 -256h412l-41 -205h-410l-51 -260h510z" />
    <glyph glyph-name="ecircumflex.sc" horiz-adv-x="1138" 
d="M967 1333l-199 215l-303 -207l-131 166l475 330h31l336 -338zM942 250l-72 -250h-809l236 1223h817l-47 -252h-494l-51 -256h412l-41 -205h-410l-51 -260h510z" />
    <glyph glyph-name="edieresis.sc" horiz-adv-x="1138" 
d="M1124 1389l-327 -5l77 322l349 6zM641 1386l-328 -4l78 320l348 4zM942 250l-72 -250h-809l236 1223h817l-47 -252h-494l-51 -256h412l-41 -205h-410l-51 -260h510z" />
    <glyph glyph-name="edotaccent.sc" horiz-adv-x="1138" 
d="M887 1384l-342 -2l78 322l362 4zM942 250l-72 -250h-809l236 1223h817l-47 -252h-494l-51 -256h412l-41 -205h-410l-51 -260h510z" />
    <glyph glyph-name="egrave.sc" horiz-adv-x="1138" 
d="M993 1473l-59 -138q-127 36 -305 117t-307 160l174 258q117 -107 255 -218.5t242 -178.5zM942 250l-72 -250h-809l236 1223h817l-47 -252h-494l-51 -256h412l-41 -205h-410l-51 -260h510z" />
    <glyph glyph-name="emacron.sc" horiz-adv-x="1138" 
d="M1180 1686l-54 -275h-774l54 275h774zM942 250l-72 -250h-809l236 1223h817l-47 -252h-494l-51 -256h412l-41 -205h-410l-51 -260h510z" />
    <glyph glyph-name="eogonek.sc" horiz-adv-x="1138" 
d="M788 -393q-108 -53 -201.5 -77.5t-159 -20t-112.5 29t-69.5 65.5t-22.5 93q0 78 60.5 156t189.5 147h-412l236 1223h817l-47 -252h-494l-51 -256h412l-41 -205h-410l-51 -260h510l-72 -250q-190 -41 -279 -96.5t-89 -108.5q0 -33 25.5 -50t86.5 -15t152 28z" />
    <glyph glyph-name="gbreve.sc" horiz-adv-x="1286" 
d="M1171 1827l168 -111q-121 -163 -252 -252.5t-256 -89.5q-124 0 -221.5 87.5t-154.5 252.5l227 129q45 -111 95.5 -162t119.5 -51q62 0 126.5 48.5t147.5 148.5zM973 -205l-293 -2l47 201q-296 -45 -465.5 81t-169.5 382q0 153 57 298t152.5 253.5t227.5 174.5t274 66
q202 0 289 -122t79 -386l-297 -4q-5 131 -34.5 184.5t-104.5 53.5q-72 0 -133.5 -42.5t-100 -110.5t-60 -150t-21.5 -164q0 -318 362 -268l60 252l301 8z" />
    <glyph glyph-name="gcommaaccent.sc" horiz-adv-x="1286" 
d="M973 -205l-293 -2l47 201q-296 -45 -465.5 81t-169.5 382q0 153 57 298t152.5 253.5t227.5 174.5t274 66q202 0 289 -122t79 -386l-297 -4q-5 131 -34.5 184.5t-104.5 53.5q-72 0 -133.5 -42.5t-100 -110.5t-60 -150t-21.5 -164q0 -318 362 -268l60 252l301 8zM242 -735
q88 215 75 452l379 4q-28 -155 -113.5 -291t-211.5 -223z" />
    <glyph glyph-name="gdotaccent.sc" horiz-adv-x="1286" 
d="M987 1409l-342 -2l78 322l362 4zM973 -205l-293 -2l47 201q-296 -45 -465.5 81t-169.5 382q0 153 57 298t152.5 253.5t227.5 174.5t274 66q202 0 289 -122t79 -386l-297 -4q-5 131 -34.5 184.5t-104.5 53.5q-72 0 -133.5 -42.5t-100 -110.5t-60 -150t-21.5 -164
q0 -318 362 -268l60 252l301 8z" />
    <glyph glyph-name="hbar.sc" horiz-adv-x="1400" 
d="M922 715l24 133h-389l-25 -133h390zM782 0l92 473h-389l-92 -473h-327l161 838h-121l41 202h121l35 183h328l-37 -193h389l37 193h328l-35 -183h112l-41 -202h-110l-162 -838h-330z" />
    <glyph glyph-name="iacute.sc" horiz-adv-x="1089" 
d="M440 1483q111 64 264 175t259 206l184 -254q-126 -82 -319 -159t-336 -108zM641 238h262l-59 -238h-826l48 238h249l148 747h-254l47 238h825l-45 -238h-250z" />
    <glyph glyph-name="ibreve.sc" horiz-adv-x="1089" 
d="M1042 1802l168 -110q-121 -163 -252 -252.5t-256 -89.5q-124 0 -221.5 87.5t-154.5 252.5l227 129q45 -111 96 -162t119 -51q62 0 126.5 48.5t147.5 147.5zM641 238h262l-59 -238h-826l48 238h249l148 747h-254l47 238h825l-45 -238h-250z" />
    <glyph glyph-name="icircumflex.sc" horiz-adv-x="1089" 
d="M940 1333l-199 215l-303 -207l-131 166l475 330h31l336 -338zM641 238h262l-59 -238h-826l48 238h249l148 747h-254l47 238h825l-45 -238h-250z" />
    <glyph glyph-name="idieresis.sc" horiz-adv-x="1089" 
d="M1096 1389l-328 -5l78 322l348 6zM612 1386l-327 -4l77 320l349 4zM641 238h262l-59 -238h-826l48 238h249l148 747h-254l47 238h825l-45 -238h-250z" />
    <glyph glyph-name="idotaccent.sc" horiz-adv-x="1089" 
d="M860 1384l-342 -2l78 322l362 4zM641 238h262l-59 -238h-826l48 238h249l148 747h-254l47 238h825l-45 -238h-250z" />
    <glyph glyph-name="dotlessi.sc" horiz-adv-x="1089" 
d="M641 238h262l-59 -238h-826l48 238h249l148 747h-254l47 238h825l-45 -238h-250z" />
    <glyph glyph-name="igrave.sc" horiz-adv-x="1089" 
d="M967 1473l-60 -138q-127 36 -305 117t-307 160l174 258q116 -107 255 -218t243 -179zM641 238h262l-59 -238h-826l48 238h249l148 747h-254l47 238h825l-45 -238h-250z" />
    <glyph glyph-name="imacron.sc" horiz-adv-x="1089" 
d="M1153 1686l-53 -275h-774l53 275h774zM641 238h262l-59 -238h-826l48 238h249l148 747h-254l47 238h825l-45 -238h-250z" />
    <glyph glyph-name="iogonek.sc" horiz-adv-x="1089" 
d="M651 -391q-133 -66 -243.5 -87.5t-178.5 -1.5t-104.5 66.5t-36.5 112.5q0 164 209 301h-279l48 238h249l148 747h-254l47 238h825l-45 -238h-250l-145 -747h262l-59 -238h-215q-136 -44 -200 -97.5t-64 -105.5q0 -33 25.5 -50t86.5 -15t152 28z" />
    <glyph glyph-name="kcommaaccent.sc" horiz-adv-x="1288" 
d="M811 -16l-311 618l-117 -602h-324l238 1223h324l-117 -602l495 602h349l-510 -613l317 -594zM276 -616q42 103 62 222.5t14 229.5l379 4q-28 -155 -113.5 -291t-211.5 -223z" />
    <glyph glyph-name="lacute.sc" horiz-adv-x="1056" 
d="M457 1483q110 63 263 174t259 207l184 -254q-126 -82 -319 -159t-336 -108zM868 0h-807l236 1223h330l-189 -965h480z" />
    <glyph glyph-name="lcaron.sc" horiz-adv-x="1056" 
d="M834 1442l321 10q-28 -165 -94 -302.5t-174 -272.5l-133 43q67 242 80 522zM868 0h-807l236 1223h330l-189 -965h480z" />
    <glyph glyph-name="lcommaaccent.sc" horiz-adv-x="1056" 
d="M868 0h-807l236 1223h330l-189 -965h480zM162 -600q42 103 62 223t14 230l378 4q-28 -155 -113.5 -291t-211.5 -223z" />
    <glyph glyph-name="ldot.sc" horiz-adv-x="1056" 
d="M868 0h-807l236 1223h330l-189 -965h480zM985 557h-291l66 332h291z" />
    <glyph glyph-name="lslash.sc" horiz-adv-x="1056" 
d="M868 0h-807l89 453l-127 -58l-7 221l181 82l100 525h330l-70 -359l225 105l6 -221l-280 -130l-70 -360h480z" />
    <glyph glyph-name="nacute.sc" horiz-adv-x="1394" 
d="M588 1487q110 63 263 174t259 207l184 -254q-125 -82 -318.5 -158.5t-336.5 -107.5zM793 0l-277 768h-14l-144 -768h-297l234 1217l340 8l264 -736h14l138 734h297l-236 -1223h-319z" />
    <glyph glyph-name="ncaron.sc" horiz-adv-x="1394" 
d="M858 1331h-29l-335 338l206 166l199 -215l303 207l131 -164zM793 0l-277 768h-14l-144 -768h-297l234 1217l340 8l264 -736h14l138 734h297l-236 -1223h-319z" />
    <glyph glyph-name="ncommaaccent.sc" horiz-adv-x="1394" 
d="M793 0l-277 768h-14l-144 -768h-297l234 1217l340 8l264 -736h14l138 734h297l-236 -1223h-319zM293 -600q42 103 62 223t14 230l379 4q-28 -155 -113.5 -291t-212.5 -223z" />
    <glyph glyph-name="ntilde.sc" horiz-adv-x="1394" 
d="M1069 1614q50 0 156 164l145 -90q-82 -146 -175.5 -234t-180.5 -88q-39 0 -78 18.5t-69.5 45t-57.5 53t-51 45t-41 18.5q-47 0 -152 -164l-147 91q82 145 175.5 233t180.5 88q39 0 77.5 -18.5t69 -45t57 -53t50.5 -45t41 -18.5zM793 0l-277 768h-14l-144 -768h-297
l234 1217l340 8l264 -736h14l138 734h297l-236 -1223h-319z" />
    <glyph glyph-name="oacute.sc" horiz-adv-x="1355" 
d="M578 1507q110 63 263 174t259 207l184 -254q-125 -82 -318.5 -158.5t-336.5 -107.5zM791 1249q216 0 349.5 -136.5t133.5 -373.5q0 -153 -54 -293.5t-145.5 -245t-221.5 -167t-275 -62.5q-215 0 -349.5 137.5t-134.5 374.5q0 152 54 293t146 245t222 166t275 62zM635 236
q73 0 133 41.5t97.5 110.5t58 154t20.5 175q0 134 -59 201t-150 67q-96 0 -168.5 -71.5t-107.5 -179t-35 -230.5q0 -131 60 -199.5t151 -68.5z" />
    <glyph glyph-name="obreve.sc" horiz-adv-x="1355" 
d="M1180 1827l168 -111q-121 -163 -252 -252.5t-256 -89.5q-124 0 -222 87.5t-155 252.5l227 129q45 -111 95.5 -162t119.5 -51q62 0 127 49t148 148zM791 1249q216 0 349.5 -136.5t133.5 -373.5q0 -153 -54 -293.5t-145.5 -245t-221.5 -167t-275 -62.5q-215 0 -349.5 137.5
t-134.5 374.5q0 152 54 293t146 245t222 166t275 62zM635 236q73 0 133 41.5t97.5 110.5t58 154t20.5 175q0 134 -59 201t-150 67q-96 0 -168.5 -71.5t-107.5 -179t-35 -230.5q0 -131 60 -199.5t151 -68.5z" />
    <glyph glyph-name="ocircumflex.sc" horiz-adv-x="1355" 
d="M1075 1358l-198 215l-304 -207l-131 166l476 330h30l336 -338zM791 1249q216 0 349.5 -136.5t133.5 -373.5q0 -153 -54 -293.5t-145.5 -245t-221.5 -167t-275 -62.5q-215 0 -349.5 137.5t-134.5 374.5q0 152 54 293t146 245t222 166t275 62zM635 236q73 0 133 41.5
t97.5 110.5t58 154t20.5 175q0 134 -59 201t-150 67q-96 0 -168.5 -71.5t-107.5 -179t-35 -230.5q0 -131 60 -199.5t151 -68.5z" />
    <glyph glyph-name="odieresis.sc" horiz-adv-x="1355" 
d="M1233 1413l-328 -4l78 322l348 6zM750 1411l-328 -4l78 319l348 5zM791 1249q216 0 349.5 -136.5t133.5 -373.5q0 -153 -54 -293.5t-145.5 -245t-221.5 -167t-275 -62.5q-215 0 -349.5 137.5t-134.5 374.5q0 152 54 293t146 245t222 166t275 62zM635 236q73 0 133 41.5
t97.5 110.5t58 154t20.5 175q0 134 -59 201t-150 67q-96 0 -168.5 -71.5t-107.5 -179t-35 -230.5q0 -131 60 -199.5t151 -68.5z" />
    <glyph glyph-name="ograve.sc" horiz-adv-x="1355" 
d="M1102 1497l-60 -137q-128 36 -305.5 116.5t-306.5 159.5l174 258q116 -107 255 -218t243 -179zM791 1249q216 0 349.5 -136.5t133.5 -373.5q0 -153 -54 -293.5t-145.5 -245t-221.5 -167t-275 -62.5q-215 0 -349.5 137.5t-134.5 374.5q0 152 54 293t146 245t222 166
t275 62zM635 236q73 0 133 41.5t97.5 110.5t58 154t20.5 175q0 134 -59 201t-150 67q-96 0 -168.5 -71.5t-107.5 -179t-35 -230.5q0 -131 60 -199.5t151 -68.5z" />
    <glyph glyph-name="ohungarumlaut.sc" horiz-adv-x="1355" 
d="M557 1374l-129 107q72 98 152.5 229t132.5 234l272 -160q-80 -97 -200 -212.5t-228 -197.5zM1024 1372l-131 109q150 201 270 440l281 -143q-77 -97 -193.5 -210t-226.5 -196zM791 1249q216 0 349.5 -136.5t133.5 -373.5q0 -153 -54 -293.5t-145.5 -245t-221.5 -167
t-275 -62.5q-215 0 -349.5 137.5t-134.5 374.5q0 152 54 293t146 245t222 166t275 62zM635 236q73 0 133 41.5t97.5 110.5t58 154t20.5 175q0 134 -59 201t-150 67q-96 0 -168.5 -71.5t-107.5 -179t-35 -230.5q0 -131 60 -199.5t151 -68.5z" />
    <glyph glyph-name="omacron.sc" horiz-adv-x="1355" 
d="M1288 1710l-53 -274h-774l53 274h774zM791 1249q216 0 349.5 -136.5t133.5 -373.5q0 -153 -54 -293.5t-145.5 -245t-221.5 -167t-275 -62.5q-215 0 -349.5 137.5t-134.5 374.5q0 152 54 293t146 245t222 166t275 62zM635 236q73 0 133 41.5t97.5 110.5t58 154t20.5 175
q0 134 -59 201t-150 67q-96 0 -168.5 -71.5t-107.5 -179t-35 -230.5q0 -131 60 -199.5t151 -68.5z" />
    <glyph glyph-name="oslash.sc" horiz-adv-x="1353" 
d="M418 502q0 -31 2 -45l442 491q-55 43 -129 43q-98 0 -171.5 -73t-108.5 -182t-35 -234zM633 229q98 0 171 73.5t107.5 183.5t34.5 235q0 23 -4 59l-448 -497q57 -54 139 -54zM575 -29q-160 0 -276 78l-127 -139l-162 131l148 162q-66 120 -66 280q0 153 53.5 293.5
t145.5 244.5t222 166t275 62q152 0 269 -69l125 137l159 -133l-141 -154q72 -119 72 -291q0 -153 -54 -293.5t-146 -245t-222 -167t-275 -62.5z" />
    <glyph glyph-name="oslashacute.sc" horiz-adv-x="1353" 
d="M561 1511q110 63 263 174t259 207l185 -254q-125 -82 -318.5 -158.5t-337.5 -107.5zM418 502q0 -31 2 -45l442 491q-55 43 -129 43q-98 0 -171.5 -73t-108.5 -182t-35 -234zM633 229q98 0 171 73.5t107.5 183.5t34.5 235q0 23 -4 59l-448 -497q57 -54 139 -54zM575 -29
q-160 0 -276 78l-127 -139l-162 131l148 162q-66 120 -66 280q0 153 53.5 293.5t145.5 244.5t222 166t275 62q152 0 269 -69l125 137l159 -133l-141 -154q72 -119 72 -291q0 -153 -54 -293.5t-146 -245t-222 -167t-275 -62.5z" />
    <glyph glyph-name="otilde.sc" horiz-adv-x="1355" 
d="M1059 1634q49 0 155 164l146 -90q-82 -146 -175.5 -234t-180.5 -88q-47 0 -96 28.5t-81.5 62t-66 62t-53.5 28.5q-47 0 -152 -164l-147 90q82 146 175.5 234t180.5 88q47 0 95.5 -28.5t80.5 -62t65.5 -62t53.5 -28.5zM791 1249q216 0 349.5 -136.5t133.5 -373.5
q0 -153 -54 -293.5t-145.5 -245t-221.5 -167t-275 -62.5q-215 0 -349.5 137.5t-134.5 374.5q0 152 54 293t146 245t222 166t275 62zM635 236q73 0 133 41.5t97.5 110.5t58 154t20.5 175q0 134 -59 201t-150 67q-96 0 -168.5 -71.5t-107.5 -179t-35 -230.5q0 -131 60 -199.5
t151 -68.5z" />
    <glyph glyph-name="racute.sc" horiz-adv-x="1267" 
d="M518 1497q110 63 263 174t259 207l185 -254q-125 -82 -318.5 -158.5t-337.5 -107.5zM780 -20l-260 579v2q182 72 257 141t75 148q0 75 -72.5 110.5t-210.5 22.5l-190 -983h-320l236 1210q164 22 298.5 25t229.5 -13.5t164 -45.5t109.5 -71.5t59 -90.5t18.5 -105
q0 -225 -310 -399l258 -490z" />
    <glyph glyph-name="rcaron.sc" horiz-adv-x="1267" 
d="M788 1341h-28l-336 338l207 166l198 -215l304 207l131 -164zM780 -20l-260 579v2q182 72 257 141t75 148q0 75 -72.5 110.5t-210.5 22.5l-190 -983h-320l236 1210q164 22 298.5 25t229.5 -13.5t164 -45.5t109.5 -71.5t59 -90.5t18.5 -105q0 -225 -310 -399l258 -490z" />
    <glyph glyph-name="rcommaaccent.sc" horiz-adv-x="1267" 
d="M780 -20l-260 579v2q182 72 257 141t75 148q0 75 -72.5 110.5t-210.5 22.5l-190 -983h-320l236 1210q164 22 298.5 25t229.5 -13.5t164 -45.5t109.5 -71.5t59 -90.5t18.5 -105q0 -225 -310 -399l258 -490zM270 -621q42 103 62 223t14 230l379 4q-28 -155 -113.5 -291
t-212.5 -223z" />
    <glyph glyph-name="sacute.sc" 
d="M446 1505q111 64 264 175t259 206l184 -254q-125 -82 -318.5 -158.5t-336.5 -107.5zM1065 870l-268 -53q-26 91 -66.5 132.5t-101.5 41.5q-54 0 -86.5 -31.5t-32.5 -76.5q0 -31 24.5 -65.5t64 -67.5t87 -69t95 -76t87 -82.5t64 -94.5t24.5 -106q0 -55 -22.5 -105.5
t-67.5 -97t-120.5 -79t-173 -50.5t-233.5 -12.5t-294 36.5l55 285q113 -29 203 -44t148 -16t96.5 8.5t54.5 26.5t16 41q0 31 -32 67t-80 69.5t-104 78t-104 90t-80 108t-32 128.5q0 156 139.5 272.5t346.5 116.5q175 0 268 -93.5t125 -281.5z" />
    <glyph glyph-name="scaron.sc" 
d="M717 1350h-29l-336 338l207 165l199 -215l303 207l131 -164zM1065 870l-268 -53q-26 91 -66.5 132.5t-101.5 41.5q-54 0 -86.5 -31.5t-32.5 -76.5q0 -31 24.5 -65.5t64 -67.5t87 -69t95 -76t87 -82.5t64 -94.5t24.5 -106q0 -55 -22.5 -105.5t-67.5 -97t-120.5 -79
t-173 -50.5t-233.5 -12.5t-294 36.5l55 285q113 -29 203 -44t148 -16t96.5 8.5t54.5 26.5t16 41q0 31 -32 67t-80 69.5t-104 78t-104 90t-80 108t-32 128.5q0 156 139.5 272.5t346.5 116.5q175 0 268 -93.5t125 -281.5z" />
    <glyph glyph-name="scedilla.sc" 
d="M457 -426q7 136 -6.5 193t-49.5 57q-70 0 -163 -201l-152 51q87 223 186 308q-112 10 -227 32l55 285q113 -29 203 -44t148 -16t96.5 8.5t54.5 26.5t16 41q0 31 -32 67t-80 69.5t-104 78t-104 90t-80 108t-32 128.5q0 156 139.5 272.5t346.5 116.5q175 0 268 -93.5
t125 -281.5l-268 -53q-26 91 -66.5 132.5t-101.5 41.5q-54 0 -86.5 -31.5t-32.5 -76.5q0 -31 24.5 -65.5t64 -67.5t87 -69t95 -76t87 -82.5t64 -94.5t24.5 -106q0 -112 -90 -202.5t-270 -125.5q136 -116 119 -416z" />
    <glyph glyph-name="scommaaccent.sc" 
d="M1065 870l-268 -53q-26 91 -66.5 132.5t-101.5 41.5q-54 0 -86.5 -31.5t-32.5 -76.5q0 -31 24.5 -65.5t64 -67.5t87 -69t95 -76t87 -82.5t64 -94.5t24.5 -106q0 -55 -22.5 -105.5t-67.5 -97t-120.5 -79t-173 -50.5t-233.5 -12.5t-294 36.5l55 285q113 -29 203 -44
t148 -16t96.5 8.5t54.5 26.5t16 41q0 31 -32 67t-80 69.5t-104 78t-104 90t-80 108t-32 128.5q0 156 139.5 272.5t346.5 116.5q175 0 268 -93.5t125 -281.5zM106 -623q42 103 62 223t14 230l379 4q-28 -155 -113.5 -291t-211.5 -223z" />
    <glyph glyph-name="tcaron.sc" horiz-adv-x="1153" 
d="M733 1327h-28l-336 338l206 166l199 -215l303 207l131 -164zM815 965l-186 -965h-328l186 965h-335l49 258h999l-49 -258h-336z" />
    <glyph glyph-name="tcommaaccent.sc" horiz-adv-x="1153" 
d="M815 965l-186 -965h-328l186 965h-335l49 258h999l-49 -258h-336zM168 -600q42 103 62 223t14 230l379 4q-28 -155 -113.5 -291t-212.5 -223z" />
    <glyph glyph-name="uacute.sc" horiz-adv-x="1359" 
d="M567 1483q111 64 264 175t259 206l184 -254q-125 -82 -319 -159t-337 -108zM473 508q-29 -147 14.5 -211t135.5 -64q185 0 227 218l149 772h324l-145 -760q-50 -243 -205.5 -366.5t-386.5 -123.5q-121 0 -211 32t-151 102t-77 180t11 266l127 670h325z" />
    <glyph glyph-name="ubreve.sc" horiz-adv-x="1359" 
d="M1171 1802l168 -110q-121 -163 -252 -252.5t-256 -89.5q-124 0 -221.5 87.5t-154.5 252.5l227 129q45 -111 95.5 -162t119.5 -51q62 0 126.5 48.5t147.5 147.5zM473 508q-29 -147 14.5 -211t135.5 -64q185 0 227 218l149 772h324l-145 -760q-50 -243 -205.5 -366.5
t-386.5 -123.5q-121 0 -211 32t-151 102t-77 180t11 266l127 670h325z" />
    <glyph glyph-name="ucircumflex.sc" horiz-adv-x="1359" 
d="M1067 1333l-199 215l-303 -207l-131 166l475 330h31l336 -338zM473 508q-29 -147 14.5 -211t135.5 -64q185 0 227 218l149 772h324l-145 -760q-50 -243 -205.5 -366.5t-386.5 -123.5q-121 0 -211 32t-151 102t-77 180t11 266l127 670h325z" />
    <glyph glyph-name="udieresis.sc" horiz-adv-x="1359" 
d="M1225 1389l-328 -5l78 322l348 6zM741 1386l-327 -4l78 320l348 4zM473 508q-29 -147 14.5 -211t135.5 -64q185 0 227 218l149 772h324l-145 -760q-50 -243 -205.5 -366.5t-386.5 -123.5q-121 0 -211 32t-151 102t-77 180t11 266l127 670h325z" />
    <glyph glyph-name="ugrave.sc" horiz-adv-x="1359" 
d="M1094 1473l-60 -138q-127 36 -305 117t-307 160l174 258q116 -107 255 -218t243 -179zM473 508q-29 -147 14.5 -211t135.5 -64q185 0 227 218l149 772h324l-145 -760q-50 -243 -205.5 -366.5t-386.5 -123.5q-121 0 -211 32t-151 102t-77 180t11 266l127 670h325z" />
    <glyph glyph-name="uhungarumlaut.sc" horiz-adv-x="1359" 
d="M547 1350l-129 106q72 97 152 228t132 235l273 -160q-79 -97 -199 -212t-229 -197zM1014 1348l-131 108q150 201 270 440l281 -143q-77 -97 -193.5 -209.5t-226.5 -195.5zM473 508q-29 -147 14.5 -211t135.5 -64q185 0 227 218l149 772h324l-145 -760
q-50 -243 -205.5 -366.5t-386.5 -123.5q-121 0 -211 32t-151 102t-77 180t11 266l127 670h325z" />
    <glyph glyph-name="umacron.sc" horiz-adv-x="1359" 
d="M1280 1686l-53 -275h-774l53 275h774zM473 508q-29 -147 14.5 -211t135.5 -64q185 0 227 218l149 772h324l-145 -760q-50 -243 -205.5 -366.5t-386.5 -123.5q-121 0 -211 32t-151 102t-77 180t11 266l127 670h325z" />
    <glyph glyph-name="uogonek.sc" horiz-adv-x="1359" 
d="M848 -391q-108 -53 -201.5 -77.5t-159 -20t-112.5 29t-69.5 65t-22.5 91.5q0 146 217 280q-208 23 -301 163.5t-41 412.5l127 670h327l-139 -715q-29 -147 14.5 -211t135.5 -64q185 0 227 218l149 772h324l-145 -760q-32 -159 -109.5 -262t-202.5 -174
q-34 -19 -88.5 -46.5t-86 -44.5t-65.5 -40.5t-49.5 -48.5t-15.5 -54q0 -24 15 -39t45.5 -21t82.5 0.5t121 26.5z" />
    <glyph glyph-name="uring.sc" horiz-adv-x="1359" 
d="M903 1841q120 0 193 -66t73 -165q0 -115 -91.5 -198t-231.5 -83q-120 0 -192 67.5t-72 168.5q0 115 90.5 195.5t230.5 80.5zM473 508q-29 -147 14.5 -211t135.5 -64q185 0 227 218l149 772h324l-145 -760q-50 -243 -205.5 -366.5t-386.5 -123.5q-121 0 -211 32t-151 102
t-77 180t11 266l127 670h325z" />
    <glyph glyph-name="wacute.sc" horiz-adv-x="1497" 
d="M633 1483q110 63 263 174t259 207l184 -254q-126 -82 -319 -159t-336 -108zM817 0l-90 485l-268 -485h-312q-2 189 24 521t75 702h313l-110 -820h12l272 525h170l78 -522h10l203 817h307q-212 -813 -368 -1223h-316z" />
    <glyph glyph-name="wcircumflex.sc" horiz-adv-x="1497" 
d="M1130 1333l-198 215l-303 -207l-131 166l475 330h31l335 -338zM817 0l-90 485l-268 -485h-312q-2 189 24 521t75 702h313l-110 -820h12l272 525h170l78 -522h10l203 817h307q-212 -813 -368 -1223h-316z" />
    <glyph glyph-name="wdieresis.sc" horiz-adv-x="1497" 
d="M1288 1389l-327 -5l77 322l348 6zM805 1386l-328 -4l78 320l348 4zM817 0l-90 485l-268 -485h-312q-2 189 24 521t75 702h313l-110 -820h12l272 525h170l78 -522h10l203 817h307q-212 -813 -368 -1223h-316z" />
    <glyph glyph-name="wgrave.sc" horiz-adv-x="1497" 
d="M1157 1473l-59 -138q-127 36 -305.5 117t-307.5 160l174 258q116 -107 255 -218t243 -179zM817 0l-90 485l-268 -485h-312q-2 189 24 521t75 702h313l-110 -820h12l272 525h170l78 -522h10l203 817h307q-212 -813 -368 -1223h-316z" />
    <glyph glyph-name="yacute.sc" horiz-adv-x="1245" 
d="M520 1491q110 63 263 174t259 207l185 -254q-125 -82 -318.5 -158.5t-337.5 -107.5zM676 0h-326l80 414l-266 800l332 15l159 -545l340 539h338l-579 -832z" />
    <glyph glyph-name="ycircumflex.sc" horiz-adv-x="1245" 
d="M1020 1341l-199 215l-303 -206l-131 166l475 329h31l336 -338zM676 0h-326l80 414l-266 800l332 15l159 -545l340 539h338l-579 -832z" />
    <glyph glyph-name="ydieresis.sc" horiz-adv-x="1245" 
d="M1176 1397l-328 -4l78 321l348 6zM692 1395l-327 -4l77 319l349 4zM676 0h-326l80 414l-266 800l332 15l159 -545l340 539h338l-579 -832z" />
    <glyph glyph-name="ygrave.sc" horiz-adv-x="1245" 
d="M1044 1481l-59 -138q-127 36 -305 117t-307 160l174 258q117 -107 255 -218.5t242 -178.5zM676 0h-326l80 414l-266 800l332 15l159 -545l340 539h338l-579 -832z" />
    <glyph glyph-name="zacute.sc" horiz-adv-x="1146" 
d="M449 1483q110 63 263 174t259 207l184 -254q-126 -82 -319 -159t-336 -108zM926 0h-916l47 256l676 707l-534 -5l51 265h895l-43 -258l-670 -707l547 4z" />
    <glyph glyph-name="zcaron.sc" horiz-adv-x="1146" 
d="M719 1327h-29l-336 338l207 166l199 -215l303 207l131 -164zM926 0h-916l47 256l676 707l-534 -5l51 265h895l-43 -258l-670 -707l547 4z" />
    <glyph glyph-name="zdotaccent.sc" horiz-adv-x="1146" 
d="M866 1384l-342 -2l78 322l363 4zM926 0h-916l47 256l676 707l-534 -5l51 265h895l-43 -258l-670 -707l547 4z" />
    <glyph glyph-name="ae.sc" horiz-adv-x="1826" 
d="M926 971q-44 -64 -154 -220.5t-168 -242.5h252l88 463h-18zM758 0l55 285h-360q-27 -41 -91.5 -137.5t-97.5 -147.5h-346q424 638 858 1223h1028l-49 -252h-493l-50 -256h410l-41 -205h-407l-52 -260h508l-71 -250h-801z" />
    <glyph glyph-name="aeacute.sc" horiz-adv-x="1826" 
d="M889 1483q110 63 263 174t259 207l184 -254q-126 -82 -319 -159t-336 -108zM926 971q-44 -64 -154 -220.5t-168 -242.5h252l88 463h-18zM758 0l55 285h-360q-27 -41 -91.5 -137.5t-97.5 -147.5h-346q424 638 858 1223h1028l-49 -252h-493l-50 -256h410l-41 -205h-407
l-52 -260h508l-71 -250h-801z" />
    <glyph glyph-name="oe.sc" horiz-adv-x="1771" 
d="M1573 250l-70 -250h-712q-157 0 -281.5 29t-218.5 89.5t-144.5 161t-50.5 236.5q0 118 33.5 222t107 194t182 154t266 100.5t351.5 36.5h711l-47 -252h-494l-49 -256h410l-41 -205h-408l-51 -260h506zM418 539q0 -149 86 -216.5t252 -70.5l137 721q-126 -4 -220 -39.5
t-148.5 -96t-80.5 -135t-26 -163.5z" />
    <glyph glyph-name="eth.sc" horiz-adv-x="1316" 
d="M1227 733q0 -112 -28.5 -213t-89 -193t-154 -161t-223 -116t-296.5 -59t-375 11l99 512h-119l39 203h119l96 495q450 66 691 -60t241 -419zM678 514h-201l-53 -276q121 -8 215.5 27t152 102t86.5 153.5t29 186.5q0 294 -338 282l-53 -272h209z" />
    <glyph glyph-name="thorn.sc" horiz-adv-x="1222" 
d="M383 0h-324l238 1223h324l-29 -146q286 -6 424.5 -106.5t138.5 -268.5q0 -209 -195 -351t-546 -193zM840 655q0 92 -78.5 139.5t-218.5 32.5l-78 -409q91 -9 163.5 6.5t118 50t69.5 80.5t24 100z" />
    <glyph glyph-name="zero.alt" horiz-adv-x="1271" 
d="M104 500q0 250 87.5 465.5t244 345t346.5 129.5q198 0 315 -136.5t117 -390.5q0 -250 -89 -466.5t-247 -347t-348 -130.5q-195 0 -310.5 137t-115.5 394zM729 1186q-74 0 -139 -69.5t-107 -177.5t-61 -237l483 252q-10 114 -56.5 173t-119.5 59zM588 223q74 0 140 72
t108.5 183.5t60.5 242.5l-487 -252q9 -122 55 -184t123 -62z" />
    <glyph glyph-name="colon.alt" horiz-adv-x="788" 
d="M649 891h-391l74 373h391zM496 111h-392l72 372h391z" />
    <glyph glyph-name="ampersand.sc" horiz-adv-x="1353" 
d="M1032 -39q-119 112 -203 209q-239 -188 -477 -188q-157 0 -242 80t-85 212q0 283 424 543q-15 61 -15 115q0 81 29 145t77 102.5t104.5 58t115.5 19.5q94 0 151.5 -43t57.5 -118q0 -71 -55.5 -155.5t-161.5 -170.5q42 -95 131 -221q89 116 157 233l254 -88
q-125 -184 -258 -329q95 -106 246 -244zM438 238q114 0 250 108q-109 151 -166 270q-200 -150 -200 -272q0 -106 116 -106z" />
    <glyph glyph-name="guillemotleft.cap" horiz-adv-x="1617" 
d="M494 66l-385 471l65 315l535 477l196 -231l-518 -418l354 -412zM1188 66l-373 483l74 315l545 461l192 -238l-530 -403l342 -422z" />
    <glyph glyph-name="guillemotright.cap" horiz-adv-x="1636" 
d="M975 66l-197 233l518 416l-354 413l248 203l385 -471l-64 -317zM250 72l-191 237l529 402l-342 422l250 198l374 -483l-73 -318z" />
    <glyph glyph-name="guilsinglleft.cap" horiz-adv-x="913" 
d="M481 72l-372 483l73 315l545 461l193 -237l-529 -404l342 -422z" />
    <glyph glyph-name="guilsinglright.cap" horiz-adv-x="919" 
d="M240 70l-191 239l529 402l-342 422l249 196l375 -483l-74 -316z" />
    <glyph glyph-name="parenleft.cap" horiz-adv-x="954" 
d="M901 1778l174 -201q-183 -143 -307.5 -272t-194.5 -249t-99.5 -229.5t-29.5 -230.5q0 -351 316 -782l-244 -164q-193 267 -283 494.5t-90 439.5q0 203 71.5 387.5t240 385.5t446.5 421z" />
    <glyph glyph-name="parenright.cap" horiz-adv-x="954" 
d="M98 -350l-174 200q183 143 307.5 272t194.5 249.5t99.5 230.5t29.5 232q0 353 -315 780l243 164q193 -267 283 -494.5t90 -439.5q0 -203 -71.5 -387.5t-240 -385.5t-446.5 -421z" />
    <glyph glyph-name="bracketleft.cap" horiz-adv-x="948" 
d="M12 -307l391 2011h678l-51 -254h-373l-290 -1503h372l-49 -254h-678z" />
    <glyph glyph-name="bracketright.cap" horiz-adv-x="948" 
d="M983 1704l-391 -2011h-678l51 254h373l291 1503h-373l51 254h676z" />
    <glyph glyph-name="braceleft.cap" horiz-adv-x="968" 
d="M641 -379q-300 145 -417.5 244.5t-117.5 216.5q0 60 25 112t61 88t72 67.5t61 63.5t25 62q0 99 -225 146l51 223q152 7 212.5 33t60.5 71q0 26 -18 66.5t-39.5 78.5t-39.5 91.5t-18 101.5q0 69 37 133.5t117.5 130t225 127t343.5 111.5l51 -258q-256 -55 -366.5 -106
t-110.5 -119q0 -32 27 -89.5t54 -120.5t27 -110q0 -78 -67 -147t-201 -105q184 -75 184 -209q0 -46 -24 -89.5t-57.5 -77.5t-67.5 -65.5t-58 -67t-24 -70.5q0 -67 86 -134.5t276 -156.5z" />
    <glyph glyph-name="braceright.cap" horiz-adv-x="968" 
d="M-31 -379l-51 258q255 53 366 104.5t111 120.5q0 33 -27 90t-54 119.5t-27 108.5q0 78 67 147.5t203 106.5q-186 75 -186 209q0 46 24 89.5t57.5 77t67.5 65t58 66.5t24 70q0 68 -85.5 134.5t-276.5 158.5l145 242q300 -145 417.5 -244.5t117.5 -216.5q0 -60 -25 -112
t-61 -88.5t-72 -68t-61 -63.5t-25 -61q0 -100 225 -146l-51 -225q-104 -4 -165.5 -18.5t-84 -35t-22.5 -50.5q0 -31 28.5 -86t57 -122t28.5 -128q0 -69 -37 -133.5t-117.5 -130t-225 -127t-343.5 -111.5z" />
    <glyph glyph-name="registered.alt" horiz-adv-x="1871" 
d="M1753 793q0 -157 -46 -296.5t-128 -244.5t-192 -182t-242 -116.5t-273 -39.5q-153 0 -282.5 46t-225.5 132.5t-150 220t-54 299.5q0 158 46 298t128.5 246t192.5 183.5t242 117.5t273 40q152 0 281.5 -46.5t225 -133.5t150 -221.5t54.5 -302.5zM1026 1303
q-174 0 -322 -82.5t-238.5 -237t-90.5 -348.5q0 -169 68 -289.5t182.5 -178.5t263.5 -58q130 0 248.5 48.5t207.5 133.5t142 210.5t53 270.5q0 129 -39 231t-109 167t-163 99t-203 34zM1040 319l-139 343h-2q93 44 133.5 85t40.5 91q0 80 -141 65l-103 -571h-225l141 741
q153 22 259 18t171.5 -35t95 -74.5t29.5 -100.5q0 -144 -170 -254l140 -285z" />
    <glyph glyph-name="asterisk.alt" horiz-adv-x="1366" 
d="M891 1198l-154 37l25 373l274 -74zM676 1223l-109 -117l-309 207l201 203zM979 995l-49 158l338 164l73 -273zM547 1051l49 -156l-338 -166l-74 275zM850 823l111 119l311 -209l-201 -201zM635 850l153 -37l-22 -375l-277 74z" />
    <glyph glyph-name="bullet.alt" horiz-adv-x="1144" 
d="M840 373h-621l123 618h623z" />
    <glyph glyph-name="R_p" horiz-adv-x="2187" 
d="M770 -25l-287 666v2q198 91 280.5 178.5t82.5 184.5q0 184 -262 163l-230 -1169h-297l271 1401q186 28 324.5 22t233.5 -32t153.5 -76t84 -110t25.5 -136q0 -262 -346 -475l268 -561zM1585 219q69 0 132.5 80t99.5 196.5t36 227.5q0 91 -28.5 137.5t-75.5 46.5
q-74 0 -201 -123l-104 -536q95 -29 141 -29zM1321 -377l-285 -22q31 164 93 487t86 453t53.5 307t44.5 297l284 18l-24 -164q176 187 311 187q105 0 181.5 -100.5t76.5 -282.5q0 -123 -30 -244.5t-88 -227t-136.5 -186.5t-183.5 -127.5t-221 -46.5q-43 0 -92 9z" />
    <glyph glyph-name="onehalf.afrc" 
d="M967 967h-670l39 204h233l78 385h-215l27 177l227 22l27 127l237 19l-147 -730h217zM102 592l39 203h908l-39 -203h-908zM709 -477h-660l4 190q256 144 376 237t120 169q0 40 -33.5 62.5t-117 30t-224.5 -12.5l31 217q295 46 451.5 -16.5t156.5 -209.5q0 -118 -98.5 -224
t-308.5 -234h346z" />
    <glyph glyph-name="onethird.afrc" 
d="M967 967h-670l39 204h233l78 385h-215l27 177l227 22l27 127l237 19l-147 -730h217zM102 592l39 203h908l-39 -203h-908zM758 -205q0 -62 -39 -117t-123 -99.5t-217 -59.5t-320 2l31 215q161 -20 255.5 -15t131.5 20.5t37 41.5q0 36 -82 72.5t-237 66.5l16 96l324 193
h-347l43 209h603l-27 -203l-315 -192q135 -39 200.5 -98t65.5 -132z" />
    <glyph glyph-name="twothirds.afrc" 
d="M958 967h-659l4 190q256 144 376 237t120 169q0 40 -33.5 62.5t-117 29.5t-224.5 -13l31 218q295 46 451.5 -16.5t156.5 -209.5q0 -118 -99 -224t-309 -234h346zM102 592l39 203h908l-39 -203h-908zM758 -205q0 -62 -39 -117t-123 -99.5t-217 -59.5t-320 2l31 215
q161 -20 255.5 -15t131.5 20.5t37 41.5q0 36 -82 72.5t-237 66.5l16 96l324 193h-347l43 209h603l-27 -203l-315 -192q135 -39 200.5 -98t65.5 -132z" />
    <glyph glyph-name="onequarter.afrc" 
d="M967 967h-670l39 204h233l78 385h-215l27 177l227 22l27 127l237 19l-147 -730h217zM102 592l39 203h908l-39 -203h-908zM776 -326h-88l-29 -151h-221l29 151h-418l19 168q76 140 130 273.5t107 316.5l256 -12q-113 -329 -258 -543h205l47 242l223 14l-49 -256h102z" />
    <glyph glyph-name="threequarters.afrc" 
d="M1008 1239q0 -62 -39 -117t-123 -99.5t-217 -59.5t-320 2l31 215q161 -20 255.5 -15t131.5 20.5t37 41.5q0 36 -82 72.5t-238 66.5l17 96l323 193h-346l43 209h602l-26 -203l-316 -193q267 -76 267 -229zM102 592l39 203h908l-39 -203h-908zM776 -326h-88l-29 -151h-221
l29 151h-418l19 168q76 140 130 273.5t107 316.5l256 -12q-113 -329 -258 -543h205l47 242l223 14l-49 -256h102z" />
    <glyph glyph-name="onefifth.afrc" 
d="M967 967h-670l39 204h233l78 385h-215l27 177l227 22l27 127l237 19l-147 -730h217zM102 592l39 203h908l-39 -203h-908zM768 -170q0 -54 -23.5 -102.5t-77.5 -92t-134.5 -72.5t-202.5 -41.5t-273 -2.5l27 219q446 -37 446 74q0 42 -86 74t-290 57l104 477h592l-59 -209
l-355 2l-30 -127q362 -62 362 -256z" />
    <glyph glyph-name="twofifths.afrc" 
d="M958 967h-659l4 190q256 144 376 237t120 169q0 40 -33.5 62.5t-117 29.5t-224.5 -13l31 218q295 46 451.5 -16.5t156.5 -209.5q0 -118 -99 -224t-309 -234h346zM102 592l39 203h908l-39 -203h-908zM768 -170q0 -54 -23.5 -102.5t-77.5 -92t-134.5 -72.5t-202.5 -41.5
t-273 -2.5l27 219q446 -37 446 74q0 42 -86 74t-290 57l104 477h592l-59 -209l-355 2l-30 -127q362 -62 362 -256z" />
    <glyph glyph-name="threefifths.afrc" 
d="M1008 1239q0 -62 -39 -117t-123 -99.5t-217 -59.5t-320 2l31 215q161 -20 255.5 -15t131.5 20.5t37 41.5q0 36 -82 72.5t-238 66.5l17 96l323 193h-346l43 209h602l-26 -203l-316 -193q267 -76 267 -229zM102 592l39 203h908l-39 -203h-908zM768 -170q0 -54 -23.5 -102.5
t-77.5 -92t-134.5 -72.5t-202.5 -41.5t-273 -2.5l27 219q446 -37 446 74q0 42 -86 74t-290 57l104 477h592l-59 -209l-355 2l-30 -127q362 -62 362 -256z" />
    <glyph glyph-name="fourfifths.afrc" 
d="M1026 1118h-88l-29 -151h-221l29 151h-418l18 168q77 141 131 274.5t107 315.5l256 -12q-113 -329 -258 -543h205l47 242l223 14l-49 -256h102zM102 592l39 203h908l-39 -203h-908zM768 -170q0 -54 -23.5 -102.5t-77.5 -92t-134.5 -72.5t-202.5 -41.5t-273 -2.5l27 219
q446 -37 446 74q0 42 -86 74t-290 57l104 477h592l-59 -209l-355 2l-30 -127q362 -62 362 -256z" />
    <glyph glyph-name="onesixth.afrc" 
d="M967 967h-670l39 204h233l78 385h-215l27 177l227 22l27 127l237 19l-147 -730h217zM102 592l39 203h908l-39 -203h-908zM403 -500q-150 0 -238.5 81.5t-88.5 234.5q0 102 36.5 196t111.5 179.5t203.5 153.5t299.5 108l47 -201q-335 -62 -430 -244q82 49 163 60.5
t142 -11.5t99 -78.5t38 -134.5q0 -151 -109.5 -247.5t-273.5 -96.5zM440 -319q58 0 89.5 38t31.5 93q0 78 -69 101.5t-183 -30.5q-2 -12 -2 -35q0 -86 38 -126.5t95 -40.5z" />
    <glyph glyph-name="fivesixths.afrc" 
d="M1018 1274q0 -54 -23.5 -102.5t-77.5 -92t-134.5 -72.5t-202.5 -41.5t-273 -2.5l27 219q446 -37 446 73q0 42 -86.5 74t-290.5 57l105 478h592l-60 -209l-354 2l-31 -127q363 -62 363 -256zM102 592l39 203h908l-39 -203h-908zM403 -500q-150 0 -238.5 81.5t-88.5 234.5
q0 102 36.5 196t111.5 179.5t203.5 153.5t299.5 108l47 -201q-335 -62 -430 -244q82 49 163 60.5t142 -11.5t99 -78.5t38 -134.5q0 -151 -109.5 -247.5t-273.5 -96.5zM440 -319q58 0 89.5 38t31.5 93q0 78 -69 101.5t-183 -30.5q-2 -12 -2 -35q0 -86 38 -126.5t95 -40.5z
" />
    <glyph glyph-name="oneeighth.afrc" 
d="M967 967h-670l39 204h233l78 385h-215l27 177l227 22l27 127l237 19l-147 -730h217zM102 592l39 203h908l-39 -203h-908zM756 -236q0 -112 -107 -188t-276 -76q-149 0 -232.5 59.5t-83.5 157.5q0 71 50 135.5t182 141.5q-109 98 -109 188q0 61 38.5 115t114 93t187 52
t256.5 -6q-4 -9 -42.5 -115t-41.5 -112q-289 87 -289 -6q0 -23 20.5 -47t61.5 -58q127 59 299 131l64 -131q-110 -46 -236 -102q144 -125 144 -232zM416 -317q52 0 86.5 21.5t34.5 53.5q0 28 -31 60.5t-92 77.5q-75 -43 -102 -74t-27 -58q0 -37 37 -59t94 -22z" />
    <glyph glyph-name="threeeighths.afrc" 
d="M1008 1239q0 -62 -39 -117t-123 -99.5t-217 -59.5t-320 2l31 215q161 -20 255.5 -15t131.5 20.5t37 41.5q0 36 -82 72.5t-238 66.5l17 96l323 193h-346l43 209h602l-26 -203l-316 -193q267 -76 267 -229zM102 592l39 203h908l-39 -203h-908zM756 -236q0 -112 -107 -188
t-276 -76q-149 0 -232.5 59.5t-83.5 157.5q0 71 50 135.5t182 141.5q-109 98 -109 188q0 61 38.5 115t114 93t187 52t256.5 -6q-4 -9 -42.5 -115t-41.5 -112q-289 87 -289 -6q0 -23 20.5 -47t61.5 -58q127 59 299 131l64 -131q-110 -46 -236 -102q144 -125 144 -232z
M416 -317q52 0 86.5 21.5t34.5 53.5q0 28 -31 60.5t-92 77.5q-75 -43 -102 -74t-27 -58q0 -37 37 -59t94 -22z" />
    <glyph glyph-name="fiveeighths.afrc" 
d="M1018 1274q0 -54 -23.5 -102.5t-77.5 -92t-134.5 -72.5t-202.5 -41.5t-273 -2.5l27 219q446 -37 446 73q0 42 -86.5 74t-290.5 57l105 478h592l-60 -209l-354 2l-31 -127q363 -62 363 -256zM102 592l39 203h908l-39 -203h-908zM756 -236q0 -112 -107 -188t-276 -76
q-149 0 -232.5 59.5t-83.5 157.5q0 71 50 135.5t182 141.5q-109 98 -109 188q0 61 38.5 115t114 93t187 52t256.5 -6q-4 -9 -42.5 -115t-41.5 -112q-289 87 -289 -6q0 -23 20.5 -47t61.5 -58q127 59 299 131l64 -131q-110 -46 -236 -102q144 -125 144 -232zM416 -317
q52 0 86.5 21.5t34.5 53.5q0 28 -31 60.5t-92 77.5q-75 -43 -102 -74t-27 -58q0 -37 37 -59t94 -22z" />
    <glyph glyph-name="seveneighths.afrc" 
d="M618 952l-260 25q198 346 480 668l-2 8h-435l52 215h682l-43 -209q-259 -314 -474 -707zM102 592l39 203h908l-39 -203h-908zM756 -236q0 -112 -107 -188t-276 -76q-149 0 -232.5 59.5t-83.5 157.5q0 71 50 135.5t182 141.5q-109 98 -109 188q0 61 38.5 115t114 93
t187 52t256.5 -6q-4 -9 -42.5 -115t-41.5 -112q-289 87 -289 -6q0 -23 20.5 -47t61.5 -58q127 59 299 131l64 -131q-110 -46 -236 -102q144 -125 144 -232zM416 -317q52 0 86.5 21.5t34.5 53.5q0 28 -31 60.5t-92 77.5q-75 -43 -102 -74t-27 -58q0 -37 37 -59t94 -22z" />
    <glyph glyph-name="period.tab" horiz-adv-x="913" 
d="M528 0h-389l68 385h391z" />
    <glyph glyph-name="comma.tab" horiz-adv-x="913" 
d="M72 -252q94 142 126 290.5t29 352.5l387 8q-1 -208 -105 -379.5t-308 -341.5z" />
    <glyph glyph-name="colon.tab" horiz-adv-x="913" 
d="M680 780h-391l71 373h392zM524 0h-391l74 373h391z" />
    <glyph glyph-name="semicolon.tab" horiz-adv-x="913" 
d="M672 780h-389l71 373h391zM53 -252q94 137 128.5 279.5t37.5 341.5l385 6q-9 -196 -112.5 -362t-309.5 -332z" />
    <glyph glyph-name="periodcentered.tab" horiz-adv-x="907" 
d="M614 444h-391l70 385h391z" />
    <glyph glyph-name="slash.tab" horiz-adv-x="1277" 
d="M1403 1583l-1303 -2013l-286 72l1316 2029z" />
    <glyph glyph-name="bar.tab" horiz-adv-x="913" 
d="M518 1640h297l-401 -2060h-297z" />
    <glyph glyph-name="backslash.tab" horiz-adv-x="1277" 
d="M295 1610l285 67l491 -2056l-285 -61z" />
    <glyph glyph-name="underscore.tab" horiz-adv-x="1277" 
d="M1147 -115l-49 -258h-1272l49 258h1272z" />
    <glyph glyph-name="hyphen.tab" horiz-adv-x="1277" 
d="M1094 827l-54 -276h-807l52 276h809z" />
    <glyph glyph-name="endash.tab" horiz-adv-x="1277" 
d="M1186 813l-45 -248h-1002l45 248h1002z" />
    <glyph glyph-name="A.sc" horiz-adv-x="1306" 
d="M801 -10q-6 144 -15 291h-372q-9 -21 -54.5 -124t-68.5 -157h-330q275 593 602 1223h438q86 -705 132 -1213zM723 954q-26 -54 -209 -452h258q-5 82 -35 452h-14z" />
    <glyph glyph-name="B.sc" horiz-adv-x="1239" 
d="M1100 379q0 -75 -34.5 -140t-110 -122t-197 -89.5t-295 -43t-402.5 17.5l234 1208q233 30 396.5 25.5t267 -45.5t151 -102t47.5 -144q0 -93 -67.5 -174t-192.5 -135q97 -32 150 -99.5t53 -156.5zM848 868q0 67 -73 100t-206 23l-59 -309q168 13 253 64t85 122zM795 383
q0 75 -79.5 113.5t-236.5 25.5l-57 -291q177 -22 275 23.5t98 128.5z" />
    <glyph glyph-name="C.sc" horiz-adv-x="1232" 
d="M797 1249q198 0 282.5 -122.5t75.5 -385.5l-297 -4q-3 132 -30 185t-101 53q-93 0 -166 -72.5t-108 -175t-35 -209.5q0 -96 35 -156.5t110.5 -88.5t197 -19.5t292.5 53.5l-33 -264q-299 -87 -505.5 -62t-314.5 147.5t-108 326.5q0 154 56.5 299.5t150.5 254t225 174.5
t273 66z" />
    <glyph glyph-name="D.sc" horiz-adv-x="1308" 
d="M1227 733q0 -112 -28.5 -213t-89 -193t-154 -161t-223 -116t-296.5 -59t-375 11l234 1210q450 66 691 -60t241 -419zM905 707q0 290 -334 278l-143 -745q119 -7 212.5 28.5t150 102t85.5 152t29 184.5z" />
    <glyph glyph-name="E.sc" horiz-adv-x="1138" 
d="M942 250l-72 -250h-809l236 1223h817l-47 -252h-494l-51 -256h412l-41 -205h-410l-51 -260h510z" />
    <glyph glyph-name="F.sc" horiz-adv-x="1099" 
d="M887 465h-410l-90 -465h-326l236 1223h815l-45 -258h-492l-53 -271h408z" />
    <glyph glyph-name="G.sc" horiz-adv-x="1286" 
d="M973 -205l-293 -2l47 201q-296 -45 -465.5 81t-169.5 382q0 153 57 298t152.5 253.5t227.5 174.5t274 66q202 0 289 -122t79 -386l-297 -4q-5 131 -34.5 184.5t-104.5 53.5q-72 0 -133.5 -42.5t-100 -110.5t-60 -150t-21.5 -164q0 -318 362 -268l60 252l301 8z" />
    <glyph glyph-name="H.sc" horiz-adv-x="1388" 
d="M778 0l94 494h-387l-96 -494h-328l236 1223h330l-95 -490h388l94 490h329l-237 -1223h-328z" />
    <glyph glyph-name="I.sc" horiz-adv-x="1089" 
d="M641 238h262l-59 -238h-826l48 238h249l148 747h-254l47 238h825l-45 -238h-250z" />
    <glyph glyph-name="J.sc" horiz-adv-x="1038" 
d="M713 98q-67 -66 -228.5 -94.5t-478.5 -21.5l45 270q232 -6 308 -0.5t100 29.5q23 21 39 73t51 230l78 401h-334l47 238h661l-122 -621q-38 -196 -65.5 -296.5t-46.5 -136.5t-54 -71z" />
    <glyph glyph-name="K.sc" horiz-adv-x="1288" 
d="M811 -16l-311 618l-117 -602h-324l238 1223h324l-117 -602l495 602h349l-510 -613l317 -594z" />
    <glyph glyph-name="L.sc" horiz-adv-x="1056" 
d="M868 0h-807l236 1223h330l-189 -965h480z" />
    <glyph glyph-name="M.sc" horiz-adv-x="1595" 
d="M694 1229l94 -678h7l356 672h395l-233 -1223h-309l174 801h-15l-379 -709l-176 -2l-104 711h-15l-133 -801h-295l234 1214z" />
    <glyph glyph-name="N.sc" horiz-adv-x="1394" 
d="M793 0l-277 768h-14l-144 -768h-297l234 1217l340 8l264 -736h14l138 734h297l-236 -1223h-319z" />
    <glyph glyph-name="O.sc" horiz-adv-x="1355" 
d="M791 1249q216 0 349.5 -136.5t133.5 -373.5q0 -153 -54 -293.5t-145.5 -245t-221.5 -167t-275 -62.5q-215 0 -349.5 137.5t-134.5 374.5q0 152 54 293t146 245t222 166t275 62zM635 236q73 0 133 41.5t97.5 110.5t58 154t20.5 175q0 134 -59 201t-150 67
q-96 0 -168.5 -71.5t-107.5 -179t-35 -230.5q0 -131 60 -199.5t151 -68.5z" />
    <glyph glyph-name="P.sc" horiz-adv-x="1224" 
d="M383 0h-324l236 1214q237 29 406 18t276 -63t157 -128.5t50 -178.5q0 -208 -194.5 -350t-545.5 -195zM868 815q0 92 -78 139.5t-217 32.5l-79 -409q178 -16 276 54.5t98 182.5z" />
    <glyph glyph-name="Q.sc" horiz-adv-x="1308" 
d="M987 -311l-749 256l67 217q273 84 439.5 252.5t166.5 355.5q0 103 -56 159t-153 56q-163 0 -234 -163.5t-5 -461.5l-275 -104q-56 118 -71.5 241t7 231.5t79 205t138 165.5t191 109.5t232.5 40.5q117 0 209.5 -35.5t152 -97.5t90.5 -144.5t31 -178.5q0 -221 -161 -409
t-427 -308l420 -127z" />
    <glyph glyph-name="R.sc" horiz-adv-x="1267" 
d="M780 -20l-260 579v2q182 72 257 141t75 148q0 75 -72.5 110.5t-210.5 22.5l-190 -983h-320l236 1210q164 22 298.5 25t229.5 -13.5t164 -45.5t109.5 -71.5t59 -90.5t18.5 -105q0 -225 -310 -399l258 -490z" />
    <glyph glyph-name="S.sc" 
d="M1065 870l-268 -53q-26 91 -66.5 132.5t-101.5 41.5q-54 0 -86.5 -31.5t-32.5 -76.5q0 -31 24.5 -65.5t64 -67.5t87 -69t95 -76t87 -82.5t64 -94.5t24.5 -106q0 -55 -22.5 -105.5t-67.5 -97t-120.5 -79t-173 -50.5t-233.5 -12.5t-294 36.5l55 285q113 -29 203 -44
t148 -16t96.5 8.5t54.5 26.5t16 41q0 31 -32 67t-80 69.5t-104 78t-104 90t-80 108t-32 128.5q0 156 139.5 272.5t346.5 116.5q175 0 268 -93.5t125 -281.5z" />
    <glyph glyph-name="T.sc" horiz-adv-x="1153" 
d="M815 965l-186 -965h-328l186 965h-335l49 258h999l-49 -258h-336z" />
    <glyph glyph-name="U.sc" horiz-adv-x="1359" 
d="M473 508q-29 -147 14.5 -211t135.5 -64q185 0 227 218l149 772h324l-145 -760q-50 -243 -205.5 -366.5t-386.5 -123.5q-121 0 -211 32t-151 102t-77 180t11 266l127 670h325z" />
    <glyph glyph-name="V.sc" horiz-adv-x="1234" 
d="M723 0h-447q-79 628 -112 1212l330 19q16 -478 53 -928h24q207 436 410 920h326q-264 -595 -584 -1223z" />
    <glyph glyph-name="W.sc" horiz-adv-x="1497" 
d="M817 0l-90 485l-268 -485h-312q-2 189 24 521t75 702h313l-110 -820h12l272 525h170l78 -522h10l203 817h307q-212 -813 -368 -1223h-316z" />
    <glyph glyph-name="X.sc" horiz-adv-x="1259" 
d="M748 -8l-164 407l-287 -399h-350l502 618l-271 596l348 15l166 -414l293 408h352l-508 -625l271 -590z" />
    <glyph glyph-name="Y.sc" horiz-adv-x="1245" 
d="M676 0h-326l80 414l-266 800l332 15l159 -545l340 539h338l-579 -832z" />
    <glyph glyph-name="Z.sc" horiz-adv-x="1146" 
d="M926 0h-916l47 256l676 707l-534 -5l51 265h895l-43 -258l-670 -707l547 4z" />
    <glyph glyph-name="AE.sc" horiz-adv-x="1826" 
d="M926 971q-44 -64 -154 -220.5t-168 -242.5h252l88 463h-18zM758 0l55 285h-360q-27 -41 -91.5 -137.5t-97.5 -147.5h-346q424 638 858 1223h1028l-49 -252h-493l-50 -256h410l-41 -205h-407l-52 -260h508l-71 -250h-801z" />
    <glyph glyph-name="OE.sc" horiz-adv-x="1771" 
d="M1573 250l-70 -250h-712q-157 0 -281.5 29t-218.5 89.5t-144.5 161t-50.5 236.5q0 118 33.5 222t107 194t182 154t266 100.5t351.5 36.5h711l-47 -252h-494l-49 -256h410l-41 -205h-408l-51 -260h506zM418 539q0 -149 86 -216.5t252 -70.5l137 721q-126 -4 -220 -39.5
t-148.5 -96t-80.5 -135t-26 -163.5z" />
    <glyph glyph-name="Thorn.sc" horiz-adv-x="1222" 
d="M383 0h-324l238 1223h324l-29 -146q286 -6 424.5 -106.5t138.5 -268.5q0 -209 -195 -351t-546 -193zM840 655q0 92 -78.5 139.5t-218.5 32.5l-78 -409q91 -9 163.5 6.5t118 50t69.5 80.5t24 100z" />
    <glyph glyph-name="Eth.sc" horiz-adv-x="1316" 
d="M1227 733q0 -112 -28.5 -213t-89 -193t-154 -161t-223 -116t-296.5 -59t-375 11l99 512h-119l39 203h119l96 495q450 66 691 -60t241 -419zM678 514h-201l-53 -276q121 -8 215.5 27t152 102t86.5 153.5t29 186.5q0 294 -338 282l-53 -272h209z" />
    <glyph glyph-name="Dcroat.sc" horiz-adv-x="1308" 
d="M1227 733q0 -112 -28.5 -213t-89 -193t-154 -161t-223 -116t-296.5 -59t-375 11l99 512h-119l39 203h119l96 495q450 66 691 -60t241 -419zM678 514h-201l-53 -276q121 -8 215.5 27t152 102t86.5 153.5t29 186.5q0 294 -338 282l-53 -272h209z" />
    <glyph glyph-name="Hbar.sc" horiz-adv-x="1400" 
d="M922 715l24 133h-389l-25 -133h390zM782 0l92 473h-389l-92 -473h-327l161 838h-121l41 202h121l35 183h328l-37 -193h389l37 193h328l-35 -183h112l-41 -202h-110l-162 -838h-330z" />
    <glyph glyph-name="Lslash.sc" horiz-adv-x="1056" 
d="M868 0h-807l89 453l-127 -58l-7 221l181 82l100 525h330l-70 -359l225 105l6 -221l-280 -130l-70 -360h480z" />
    <glyph glyph-name="Oslash.sc" horiz-adv-x="1353" 
d="M418 502q0 -31 2 -45l442 491q-55 43 -129 43q-98 0 -171.5 -73t-108.5 -182t-35 -234zM633 229q98 0 171 73.5t107.5 183.5t34.5 235q0 23 -4 59l-448 -497q57 -54 139 -54zM575 -29q-160 0 -276 78l-127 -139l-162 131l148 162q-66 120 -66 280q0 153 53.5 293.5
t145.5 244.5t222 166t275 62q152 0 269 -69l125 137l159 -133l-141 -154q72 -119 72 -291q0 -153 -54 -293.5t-146 -245t-222 -167t-275 -62.5z" />
    <glyph glyph-name="Ccedilla.sc" horiz-adv-x="1232" 
d="M807 -422l-258 -4q7 137 -6 193.5t-49 56.5q-71 0 -164 -201l-152 51q98 250 217 332q-148 47 -225.5 162.5t-77.5 286.5q0 154 56.5 299.5t150.5 254t225 174.5t273 66q198 0 282.5 -122.5t75.5 -385.5l-297 -4q-3 132 -30 185t-101 53q-93 0 -166 -72.5t-108 -175
t-35 -209.5q0 -96 35 -156.5t110.5 -88.5t197 -19.5t292.5 53.5l-33 -264q-165 -50 -315 -63q119 -123 102 -402z" />
    <glyph glyph-name="Scedilla.sc" 
d="M457 -426q7 136 -6.5 193t-49.5 57q-70 0 -163 -201l-152 51q87 223 186 308q-112 10 -227 32l55 285q113 -29 203 -44t148 -16t96.5 8.5t54.5 26.5t16 41q0 31 -32 67t-80 69.5t-104 78t-104 90t-80 108t-32 128.5q0 156 139.5 272.5t346.5 116.5q175 0 268 -93.5
t125 -281.5l-268 -53q-26 91 -66.5 132.5t-101.5 41.5q-54 0 -86.5 -31.5t-32.5 -76.5q0 -31 24.5 -65.5t64 -67.5t87 -69t95 -76t87 -82.5t64 -94.5t24.5 -106q0 -112 -90 -202.5t-270 -125.5q136 -116 119 -416z" />
    <glyph glyph-name="Aogonek.sc" horiz-adv-x="1306" 
d="M1051 -385q-134 -66 -245 -87.5t-179 -1.5t-105 66.5t-37 112.5q0 89 76 175t238 159q-2 40 -6.5 121t-6.5 121h-372q-9 -21 -54.5 -124t-68.5 -157h-330q275 593 602 1223h438q86 -705 132 -1213h-3l3 -2q-190 -41 -279.5 -96.5t-89.5 -108.5q0 -33 25.5 -50t86 -14.5
t152.5 28.5zM723 954q-26 -54 -209 -452h258q-5 82 -35 452h-14z" />
    <glyph glyph-name="Eogonek.sc" horiz-adv-x="1138" 
d="M788 -393q-108 -53 -201.5 -77.5t-159 -20t-112.5 29t-69.5 65.5t-22.5 93q0 78 60.5 156t189.5 147h-412l236 1223h817l-47 -252h-494l-51 -256h412l-41 -205h-410l-51 -260h510l-72 -250q-190 -41 -279 -96.5t-89 -108.5q0 -33 25.5 -50t86.5 -15t152 28z" />
    <glyph glyph-name="Iogonek.sc" horiz-adv-x="1089" 
d="M651 -391q-133 -66 -243.5 -87.5t-178.5 -1.5t-104.5 66.5t-36.5 112.5q0 164 209 301h-279l48 238h249l148 747h-254l47 238h825l-45 -238h-250l-145 -747h262l-59 -238h-215q-136 -44 -200 -97.5t-64 -105.5q0 -33 25.5 -50t86.5 -15t152 28z" />
    <glyph glyph-name="Uogonek.sc" horiz-adv-x="1359" 
d="M848 -391q-108 -53 -201.5 -77.5t-159 -20t-112.5 29t-69.5 65t-22.5 91.5q0 146 217 280q-208 23 -301 163.5t-41 412.5l127 670h327l-139 -715q-29 -147 14.5 -211t135.5 -64q185 0 227 218l149 772h324l-145 -760q-32 -159 -109.5 -262t-202.5 -174
q-34 -19 -88.5 -46.5t-86 -44.5t-65.5 -40.5t-49.5 -48.5t-15.5 -54q0 -24 15 -39t45.5 -21t82.5 0.5t121 26.5z" />
    <glyph glyph-name="Aring.sc" horiz-adv-x="1306" 
d="M874 1841q120 0 193.5 -66t73.5 -165q0 -115 -92 -198t-232 -83q-120 0 -192 67.5t-72 168.5q0 115 90.5 195.5t230.5 80.5zM801 -10q-6 144 -15 291h-372q-9 -21 -54.5 -124t-68.5 -157h-330q275 593 602 1223h438q86 -705 132 -1213zM723 954q-26 -54 -209 -452h258
q-5 82 -35 452h-14z" />
    <glyph glyph-name="Aringacute.sc" horiz-adv-x="1306" 
d="M649 2052q110 63 263 174t259 207l185 -254q-125 -82 -318.5 -158.5t-337.5 -107.5zM874 1841q120 0 193.5 -66t73.5 -165q0 -115 -92 -198t-232 -83q-120 0 -192 67.5t-72 168.5q0 115 90.5 195.5t230.5 80.5zM801 -10q-6 144 -15 291h-372q-9 -21 -54.5 -124
t-68.5 -157h-330q275 593 602 1223h438q86 -705 132 -1213zM723 954q-26 -54 -209 -452h258q-5 82 -35 452h-14z" />
    <glyph glyph-name="Ldot.sc" horiz-adv-x="1056" 
d="M868 0h-807l236 1223h330l-189 -965h480zM985 557h-291l66 332h291z" />
    <glyph glyph-name="Aacute.sc" horiz-adv-x="1306" 
d="M539 1483q110 63 263 174t259 207l184 -254q-126 -82 -319 -159t-336 -108zM801 -10q-6 144 -15 291h-372q-9 -21 -54.5 -124t-68.5 -157h-330q275 593 602 1223h438q86 -705 132 -1213zM723 954q-26 -54 -209 -452h258q-5 82 -35 452h-14z" />
    <glyph glyph-name="Agrave.sc" horiz-adv-x="1306" 
d="M1065 1473l-59 -138q-127 36 -305.5 117t-307.5 160l174 258q116 -107 255 -218t243 -179zM801 -10q-6 144 -15 291h-372q-9 -21 -54.5 -124t-68.5 -157h-330q275 593 602 1223h438q86 -705 132 -1213zM723 954q-26 -54 -209 -452h258q-5 82 -35 452h-14z" />
    <glyph glyph-name="Acircumflex.sc" horiz-adv-x="1306" 
d="M1038 1333l-198 215l-303 -207l-131 166l475 330h30l336 -338zM801 -10q-6 144 -15 291h-372q-9 -21 -54.5 -124t-68.5 -157h-330q275 593 602 1223h438q86 -705 132 -1213zM723 954q-26 -54 -209 -452h258q-5 82 -35 452h-14z" />
    <glyph glyph-name="Abreve.sc" horiz-adv-x="1306" 
d="M1143 1802l168 -110q-121 -163 -252 -252.5t-256 -89.5q-124 0 -222 87.5t-155 252.5l227 129q45 -111 96 -162t119 -51q62 0 127.5 48.5t147.5 147.5zM801 -10q-6 144 -15 291h-372q-9 -21 -54.5 -124t-68.5 -157h-330q275 593 602 1223h438q86 -705 132 -1213zM723 954
q-26 -54 -209 -452h258q-5 82 -35 452h-14z" />
    <glyph glyph-name="Atilde.sc" horiz-adv-x="1306" 
d="M1020 1610q50 0 156 164l145 -91q-82 -146 -175.5 -233.5t-180.5 -87.5q-39 0 -78 18.5t-69.5 45t-57.5 53t-51 45t-41 18.5q-47 0 -152 -164l-147 90q82 146 175.5 234t180.5 88q39 0 77.5 -18.5t69 -45t57 -53t50.5 -45t41 -18.5zM801 -10q-6 144 -15 291h-372
q-9 -21 -54.5 -124t-68.5 -157h-330q275 593 602 1223h438q86 -705 132 -1213zM723 954q-26 -54 -209 -452h258q-5 82 -35 452h-14z" />
    <glyph glyph-name="Adieresis.sc" horiz-adv-x="1306" 
d="M1194 1389l-328 -5l78 322l348 6zM711 1386l-328 -4l78 320l348 4zM801 -10q-6 144 -15 291h-372q-9 -21 -54.5 -124t-68.5 -157h-330q275 593 602 1223h438q86 -705 132 -1213zM723 954q-26 -54 -209 -452h258q-5 82 -35 452h-14z" />
    <glyph glyph-name="Amacron.sc" horiz-adv-x="1306" 
d="M1251 1686l-53 -275h-774l53 275h774zM801 -10q-6 144 -15 291h-372q-9 -21 -54.5 -124t-68.5 -157h-330q275 593 602 1223h438q86 -705 132 -1213zM723 954q-26 -54 -209 -452h258q-5 82 -35 452h-14z" />
    <glyph glyph-name="Cacute.sc" horiz-adv-x="1232" 
d="M563 1507q110 63 263 174t259 207l185 -254q-125 -82 -318.5 -158.5t-337.5 -107.5zM797 1249q198 0 282.5 -122.5t75.5 -385.5l-297 -4q-3 132 -30 185t-101 53q-93 0 -166 -72.5t-108 -175t-35 -209.5q0 -96 35 -156.5t110.5 -88.5t197 -19.5t292.5 53.5l-33 -264
q-299 -87 -505.5 -62t-314.5 147.5t-108 326.5q0 154 56.5 299.5t150.5 254t225 174.5t273 66z" />
    <glyph glyph-name="Ccaron.sc" horiz-adv-x="1232" 
d="M836 1352h-29l-336 338l207 165l199 -215l303 207l131 -164zM797 1249q198 0 282.5 -122.5t75.5 -385.5l-297 -4q-3 132 -30 185t-101 53q-93 0 -166 -72.5t-108 -175t-35 -209.5q0 -96 35 -156.5t110.5 -88.5t197 -19.5t292.5 53.5l-33 -264q-299 -87 -505.5 -62
t-314.5 147.5t-108 326.5q0 154 56.5 299.5t150.5 254t225 174.5t273 66z" />
    <glyph glyph-name="Cdotaccent.sc" horiz-adv-x="1232" 
d="M983 1409l-342 -2l78 322l362 4zM797 1249q198 0 282.5 -122.5t75.5 -385.5l-297 -4q-3 132 -30 185t-101 53q-93 0 -166 -72.5t-108 -175t-35 -209.5q0 -96 35 -156.5t110.5 -88.5t197 -19.5t292.5 53.5l-33 -264q-299 -87 -505.5 -62t-314.5 147.5t-108 326.5
q0 154 56.5 299.5t150.5 254t225 174.5t273 66z" />
    <glyph glyph-name="Dcaron.sc" horiz-adv-x="1308" 
d="M778 1341h-28l-336 338l207 166l198 -215l303 207l131 -164zM1227 733q0 -112 -28.5 -213t-89 -193t-154 -161t-223 -116t-296.5 -59t-375 11l234 1210q450 66 691 -60t241 -419zM905 707q0 290 -334 278l-143 -745q119 -7 212.5 28.5t150 102t85.5 152t29 184.5z" />
    <glyph glyph-name="Eacute.sc" horiz-adv-x="1138" 
d="M469 1483q110 63 263 174t259 207l185 -254q-125 -82 -319 -159t-337 -108zM942 250l-72 -250h-809l236 1223h817l-47 -252h-494l-51 -256h412l-41 -205h-410l-51 -260h510z" />
    <glyph glyph-name="Egrave.sc" horiz-adv-x="1138" 
d="M993 1473l-59 -138q-127 36 -305 117t-307 160l174 258q117 -107 255 -218.5t242 -178.5zM942 250l-72 -250h-809l236 1223h817l-47 -252h-494l-51 -256h412l-41 -205h-410l-51 -260h510z" />
    <glyph glyph-name="Ecircumflex.sc" horiz-adv-x="1138" 
d="M967 1333l-199 215l-303 -207l-131 166l475 330h31l336 -338zM942 250l-72 -250h-809l236 1223h817l-47 -252h-494l-51 -256h412l-41 -205h-410l-51 -260h510z" />
    <glyph glyph-name="Ecaron.sc" horiz-adv-x="1138" 
d="M739 1327h-28l-336 338l207 166l198 -215l303 207l131 -164zM942 250l-72 -250h-809l236 1223h817l-47 -252h-494l-51 -256h412l-41 -205h-410l-51 -260h510z" />
    <glyph glyph-name="Ebreve.sc" horiz-adv-x="1138" 
d="M1071 1802l168 -110q-121 -163 -252 -252.5t-256 -89.5q-124 0 -222 87.5t-155 252.5l228 129q45 -111 95.5 -162t119.5 -51q62 0 126.5 48.5t147.5 147.5zM942 250l-72 -250h-809l236 1223h817l-47 -252h-494l-51 -256h412l-41 -205h-410l-51 -260h510z" />
    <glyph glyph-name="Emacron.sc" horiz-adv-x="1138" 
d="M1180 1686l-54 -275h-774l54 275h774zM942 250l-72 -250h-809l236 1223h817l-47 -252h-494l-51 -256h412l-41 -205h-410l-51 -260h510z" />
    <glyph glyph-name="Edieresis.sc" horiz-adv-x="1138" 
d="M1124 1389l-327 -5l77 322l349 6zM641 1386l-328 -4l78 320l348 4zM942 250l-72 -250h-809l236 1223h817l-47 -252h-494l-51 -256h412l-41 -205h-410l-51 -260h510z" />
    <glyph glyph-name="Edotaccent.sc" horiz-adv-x="1138" 
d="M887 1384l-342 -2l78 322l362 4zM942 250l-72 -250h-809l236 1223h817l-47 -252h-494l-51 -256h412l-41 -205h-410l-51 -260h510z" />
    <glyph glyph-name="Gbreve.sc" horiz-adv-x="1286" 
d="M1171 1827l168 -111q-121 -163 -252 -252.5t-256 -89.5q-124 0 -221.5 87.5t-154.5 252.5l227 129q45 -111 95.5 -162t119.5 -51q62 0 126.5 48.5t147.5 148.5zM973 -205l-293 -2l47 201q-296 -45 -465.5 81t-169.5 382q0 153 57 298t152.5 253.5t227.5 174.5t274 66
q202 0 289 -122t79 -386l-297 -4q-5 131 -34.5 184.5t-104.5 53.5q-72 0 -133.5 -42.5t-100 -110.5t-60 -150t-21.5 -164q0 -318 362 -268l60 252l301 8z" />
    <glyph glyph-name="Gdotaccent.sc" horiz-adv-x="1286" 
d="M987 1409l-342 -2l78 322l362 4zM973 -205l-293 -2l47 201q-296 -45 -465.5 81t-169.5 382q0 153 57 298t152.5 253.5t227.5 174.5t274 66q202 0 289 -122t79 -386l-297 -4q-5 131 -34.5 184.5t-104.5 53.5q-72 0 -133.5 -42.5t-100 -110.5t-60 -150t-21.5 -164
q0 -318 362 -268l60 252l301 8z" />
    <glyph glyph-name="Gcommaaccent.sc" horiz-adv-x="1286" 
d="M973 -205l-293 -2l47 201q-296 -45 -465.5 81t-169.5 382q0 153 57 298t152.5 253.5t227.5 174.5t274 66q202 0 289 -122t79 -386l-297 -4q-5 131 -34.5 184.5t-104.5 53.5q-72 0 -133.5 -42.5t-100 -110.5t-60 -150t-21.5 -164q0 -318 362 -268l60 252l301 8zM242 -735
q88 215 75 452l379 4q-28 -155 -113.5 -291t-211.5 -223z" />
    <glyph glyph-name="Iacute.sc" horiz-adv-x="1089" 
d="M440 1483q111 64 264 175t259 206l184 -254q-126 -82 -319 -159t-336 -108zM641 238h262l-59 -238h-826l48 238h249l148 747h-254l47 238h825l-45 -238h-250z" />
    <glyph glyph-name="Igrave.sc" horiz-adv-x="1089" 
d="M967 1473l-60 -138q-127 36 -305 117t-307 160l174 258q116 -107 255 -218t243 -179zM641 238h262l-59 -238h-826l48 238h249l148 747h-254l47 238h825l-45 -238h-250z" />
    <glyph glyph-name="Icircumflex.sc" horiz-adv-x="1089" 
d="M940 1333l-199 215l-303 -207l-131 166l475 330h31l336 -338zM641 238h262l-59 -238h-826l48 238h249l148 747h-254l47 238h825l-45 -238h-250z" />
    <glyph glyph-name="Ibreve.sc" horiz-adv-x="1089" 
d="M1042 1802l168 -110q-121 -163 -252 -252.5t-256 -89.5q-124 0 -221.5 87.5t-154.5 252.5l227 129q45 -111 96 -162t119 -51q62 0 126.5 48.5t147.5 147.5zM641 238h262l-59 -238h-826l48 238h249l148 747h-254l47 238h825l-45 -238h-250z" />
    <glyph glyph-name="Imacron.sc" horiz-adv-x="1089" 
d="M1153 1686l-53 -275h-774l53 275h774zM641 238h262l-59 -238h-826l48 238h249l148 747h-254l47 238h825l-45 -238h-250z" />
    <glyph glyph-name="Idieresis.sc" horiz-adv-x="1089" 
d="M1096 1389l-328 -5l78 322l348 6zM612 1386l-327 -4l77 320l349 4zM641 238h262l-59 -238h-826l48 238h249l148 747h-254l47 238h825l-45 -238h-250z" />
    <glyph glyph-name="Idotaccent.sc" horiz-adv-x="1089" 
d="M860 1384l-342 -2l78 322l362 4zM641 238h262l-59 -238h-826l48 238h249l148 747h-254l47 238h825l-45 -238h-250z" />
    <glyph glyph-name="Kcommaaccent.sc" horiz-adv-x="1288" 
d="M811 -16l-311 618l-117 -602h-324l238 1223h324l-117 -602l495 602h349l-510 -613l317 -594zM276 -616q42 103 62 222.5t14 229.5l379 4q-28 -155 -113.5 -291t-211.5 -223z" />
    <glyph glyph-name="Lacute.sc" horiz-adv-x="1056" 
d="M457 1483q110 63 263 174t259 207l184 -254q-126 -82 -319 -159t-336 -108zM868 0h-807l236 1223h330l-189 -965h480z" />
    <glyph glyph-name="Lcaron.sc" horiz-adv-x="1056" 
d="M834 1442l321 10q-28 -165 -94 -302.5t-174 -272.5l-133 43q67 242 80 522zM868 0h-807l236 1223h330l-189 -965h480z" />
    <glyph glyph-name="Lcommaaccent.sc" horiz-adv-x="1056" 
d="M868 0h-807l236 1223h330l-189 -965h480zM162 -600q42 103 62 223t14 230l378 4q-28 -155 -113.5 -291t-211.5 -223z" />
    <glyph glyph-name="Nacute.sc" horiz-adv-x="1394" 
d="M588 1487q110 63 263 174t259 207l184 -254q-125 -82 -318.5 -158.5t-336.5 -107.5zM793 0l-277 768h-14l-144 -768h-297l234 1217l340 8l264 -736h14l138 734h297l-236 -1223h-319z" />
    <glyph glyph-name="Ncaron.sc" horiz-adv-x="1394" 
d="M858 1331h-29l-335 338l206 166l199 -215l303 207l131 -164zM793 0l-277 768h-14l-144 -768h-297l234 1217l340 8l264 -736h14l138 734h297l-236 -1223h-319z" />
    <glyph glyph-name="Ntilde.sc" horiz-adv-x="1394" 
d="M1069 1614q50 0 156 164l145 -90q-82 -146 -175.5 -234t-180.5 -88q-39 0 -78 18.5t-69.5 45t-57.5 53t-51 45t-41 18.5q-47 0 -152 -164l-147 91q82 145 175.5 233t180.5 88q39 0 77.5 -18.5t69 -45t57 -53t50.5 -45t41 -18.5zM793 0l-277 768h-14l-144 -768h-297
l234 1217l340 8l264 -736h14l138 734h297l-236 -1223h-319z" />
    <glyph glyph-name="Ncommaaccent.sc" horiz-adv-x="1394" 
d="M793 0l-277 768h-14l-144 -768h-297l234 1217l340 8l264 -736h14l138 734h297l-236 -1223h-319zM293 -600q42 103 62 223t14 230l379 4q-28 -155 -113.5 -291t-212.5 -223z" />
    <glyph glyph-name="Oacute.sc" horiz-adv-x="1355" 
d="M578 1507q110 63 263 174t259 207l184 -254q-125 -82 -318.5 -158.5t-336.5 -107.5zM791 1249q216 0 349.5 -136.5t133.5 -373.5q0 -153 -54 -293.5t-145.5 -245t-221.5 -167t-275 -62.5q-215 0 -349.5 137.5t-134.5 374.5q0 152 54 293t146 245t222 166t275 62zM635 236
q73 0 133 41.5t97.5 110.5t58 154t20.5 175q0 134 -59 201t-150 67q-96 0 -168.5 -71.5t-107.5 -179t-35 -230.5q0 -131 60 -199.5t151 -68.5z" />
    </font>
</defs>
</svg>
