<?xml version="1.0" standalone="no"?>
<!DOCTYPE svg PUBLIC "-//W3C//DTD SVG 1.1//EN" "http://www.w3.org/Graphics/SVG/1.1/DTD/svg11.dtd" >
<svg xmlns="http://www.w3.org/2000/svg" xmlns:xlink="http://www.w3.org/1999/xlink" version="1.1">
<metadata>
Created by FontForge 20170731 at Sat May 29 02:57:55 2021
 By Aleksey,,,
Copyright (C) 2016 Hoefler &#38; Co. http://www.typography.com
</metadata>
<defs>
<font id="OperatorSSm-LightItalic" horiz-adv-x="1277" >
  <font-face 
    font-family="Operator SSm Light"
    font-weight="300"
    font-style="italic"
    font-stretch="normal"
    units-per-em="2048"
    panose-1="2 0 0 0 0 0 0 0 0 0"
    ascent="1638"
    descent="-410"
    x-height="1104"
    cap-height="1409"
    bbox="-295 -791 2306 2574"
    underline-thickness="116"
    underline-position="-290"
    slope="-11"
    unicode-range="U+0020-E10D"
  />
<missing-glyph horiz-adv-x="1024" 
d="M0 -410v2048h1024v-2048h-1024zM145 1536l367 -799l367 799h-734zM922 1384l-353 -770l353 -770v1540zM102 -156l353 770l-353 770v-1540zM512 492l-367 -799h734z" />
    <glyph glyph-name=".notdef" horiz-adv-x="1024" 
d="M0 -410v2048h1024v-2048h-1024zM145 1536l367 -799l367 799h-734zM922 1384l-353 -770l353 -770v1540zM102 -156l353 770l-353 770v-1540zM512 492l-367 -799h734z" />
    <glyph glyph-name=".null" horiz-adv-x="0" 
 />
    <glyph glyph-name="nonmarkingreturn" horiz-adv-x="682" 
 />
    <glyph glyph-name="space" unicode=" " horiz-adv-x="630" 
 />
    <glyph glyph-name="exclam" unicode="!" horiz-adv-x="751" 
d="M416 520h-97q25 124 82.5 522.5t73.5 491.5h193q-24 -103 -124.5 -498t-127.5 -516zM362 0h-208l45 219h207z" />
    <glyph glyph-name="quotedbl" unicode="&#x22;" horiz-adv-x="1298" 
d="M973 883h-103l113 635h191l-7 -68zM496 883h-101l111 635h190l-6 -68z" />
    <glyph glyph-name="numbersign" unicode="#" 
d="M473 522l299 49l82 340l-297 -49zM340 -27l-117 -14l99 406l-232 -39l29 137l235 39l84 342l-231 -39l29 137l235 39l102 418l117 14l-100 -412l299 50l98 405l117 12l-98 -399l233 39l-29 -137l-237 -39l-84 -342l235 39l-30 -137l-238 -39l-104 -424l-115 -13l100 416
l-297 -49z" />
    <glyph glyph-name="dollar" unicode="$" horiz-adv-x="1284" 
d="M459 1090q0 -56 50.5 -121t145.5 -150l121 406q-161 10 -239 -29t-78 -106zM899 324q0 56 -51.5 120t-151.5 154l-125 -420q163 -6 245.5 36t82.5 110zM1038 330q0 -54 -28 -101.5t-85 -87.5t-156.5 -63.5t-229.5 -22.5l-64 -241l-137 2l74 245q-126 8 -312 48l35 143
q182 -49 322 -64l149 490q-66 59 -107 99t-88 94.5t-69.5 105.5t-22.5 100q0 56 27.5 105t83.5 89t154 61t227 16l74 245h139l-84 -256q113 -12 258 -47l-27 -141q-133 39 -280 61l-146 -471q54 -49 87.5 -80.5t77 -79t68 -84t42.5 -81t18 -84.5z" />
    <glyph glyph-name="percent" unicode="%" horiz-adv-x="1830" 
d="M631 1438q99 0 165 -66.5t66 -179.5q0 -144 -93.5 -245t-215.5 -101q-99 0 -164 66t-65 180q0 143 93 244.5t214 101.5zM301 -14l-76 82l1364 1355l76 -82zM618 1333q-75 0 -130.5 -65.5t-55.5 -157.5q0 -73 38 -116.5t97 -43.5q75 0 131 66t56 160q0 72 -38.5 114.5
t-97.5 42.5zM1255 -31q-97 0 -163 66.5t-66 179.5q0 144 93.5 245t215.5 101q98 0 164 -66.5t66 -179.5q0 -143 -93.5 -244.5t-216.5 -101.5zM1321 457q-74 0 -129 -65.5t-55 -158.5q0 -73 38 -116t97 -43q73 0 128.5 65.5t55.5 159.5q0 72 -38.5 115t-96.5 43z" />
    <glyph glyph-name="ampersand" unicode="&#x26;" horiz-adv-x="1374" 
d="M1190 -43q-171 149 -307 322q-296 -299 -543 -299q-132 0 -205.5 72t-73.5 200q0 169 136.5 353.5t386.5 389.5v13q0 88 23.5 172.5t60 143.5t79.5 95.5t82 36.5q46 0 74.5 -30t28.5 -85q0 -80 -58 -183.5t-161 -203.5q29 -234 192 -471q121 156 228 357l135 -45
q-140 -238 -289 -410q126 -156 317 -322zM379 115q91 0 202.5 65t229.5 193q-171 243 -215 489q-391 -356 -391 -581q0 -78 47.5 -122t126.5 -44z" />
    <glyph glyph-name="quotesingle" unicode="'" horiz-adv-x="741" 
d="M473 883h-102l112 635h191l-6 -68z" />
    <glyph glyph-name="parenleft" unicode="(" horiz-adv-x="980" 
d="M971 1616l80 -107q-270 -185 -434.5 -361t-233 -337.5t-68.5 -339.5q0 -387 396 -846l-115 -86q-420 510 -420 928q0 295 187 569.5t608 579.5z" />
    <glyph glyph-name="parenright" unicode=")" horiz-adv-x="980" 
d="M10 -481l-78 106q270 185 434.5 361.5t233 338t68.5 339.5q0 383 -398 845l115 86q218 -264 320 -492t102 -435q0 -295 -187.5 -570t-609.5 -579z" />
    <glyph glyph-name="asterisk" unicode="*" horiz-adv-x="1200" 
d="M813 614l-166 320l-307 -180l-57 69l254 252l-273 240l51 76l318 -166l145 334l90 -25l-57 -356l358 -35l5 -90l-357 -56l80 -348z" />
    <glyph glyph-name="plus" unicode="+" 
d="M1130 596h-415l-84 -432h-137l84 432h-416l24 129h416l84 432h137l-84 -432h418z" />
    <glyph glyph-name="comma" unicode="," horiz-adv-x="702" 
d="M18 -362q121 133 159.5 262.5t23.5 324.5l202 6q-13 -196 -90 -341.5t-235 -288.5z" />
    <glyph glyph-name="hyphen" unicode="-" horiz-adv-x="919" 
d="M786 725l-22 -127h-614l24 127h612z" />
    <glyph glyph-name="period" unicode="." horiz-adv-x="681" 
d="M356 0h-209l43 229h207z" />
    <glyph glyph-name="slash" unicode="/" horiz-adv-x="1005" 
d="M1108 1614l123 -45l-1303 -1972l-131 30z" />
    <glyph glyph-name="zero" unicode="0" 
d="M147 494q0 183 49 354.5t133 301t204.5 208t254.5 78.5q183 0 289.5 -133t106.5 -385q0 -183 -49.5 -355t-133.5 -302t-204.5 -209t-253.5 -79q-182 0 -289 134.5t-107 386.5zM293 518q0 -206 73.5 -311t206.5 -105q100 0 188 68t148 179t94.5 253t34.5 289
q0 205 -73 310.5t-205 105.5q-100 0 -188.5 -68t-148.5 -179t-95 -253t-35 -289z" />
    <glyph glyph-name="one" unicode="1" 
d="M1016 0h-883l25 127h393l197 1018l-371 -19l18 111l379 47l35 174l145 12l-260 -1343h359z" />
    <glyph glyph-name="two" unicode="2" 
d="M1008 0h-899l-3 121q135 91 230 157t195 140t166.5 131.5t128 121t96 118.5t55 113t20.5 116q0 339 -641 242l25 141q369 58 565.5 -35t196.5 -315q0 -68 -19.5 -133.5t-53 -125.5t-92 -125.5t-121.5 -124t-156 -130.5t-182.5 -135.5t-213.5 -147.5h729z" />
    <glyph glyph-name="three" unicode="3" 
d="M1079 389q0 -56 -19.5 -107.5t-64.5 -102.5t-117 -89t-177.5 -66t-246 -33t-321.5 9l19 145q158 -17 284.5 -18.5t211 12t144 35t91.5 53.5t45.5 64t13.5 69q0 220 -569 351l10 75l649 492h-663l26 131h819l-14 -131l-641 -487q520 -133 520 -402z" />
    <glyph glyph-name="four" unicode="4" 
d="M1110 307h-164l-59 -307h-135l59 307h-682l4 99q151 250 253 477t198 542l157 -10q-100 -317 -206.5 -532.5t-258.5 -444.5l560 -2l96 502l141 12l-100 -514h180z" />
    <glyph glyph-name="five" unicode="5" 
d="M1077 438q0 -60 -22.5 -117.5t-70 -113t-122.5 -98t-180 -74t-242 -40t-309 4.5l21 145q183 -20 317 -11t224 32.5t144.5 65.5t77.5 86t23 96q0 244 -625 352l156 643h743l-38 -131h-601l-98 -412q602 -120 602 -428z" />
    <glyph glyph-name="six" unicode="6" 
d="M594 -25q-189 0 -306.5 121t-117.5 350q0 114 28.5 225t95.5 226.5t168.5 215.5t256.5 190t350 153l37 -137q-178 -52 -317 -126t-227.5 -158.5t-142 -169.5t-81.5 -177q84 75 176 117t175 50t158.5 -14t130.5 -70t87.5 -123t32.5 -167q0 -147 -68.5 -263.5t-183 -179.5
t-252.5 -63zM625 102q153 0 244.5 102t91.5 255q0 85 -36.5 150.5t-101 97.5t-144.5 34t-176.5 -40t-187.5 -123q-6 -47 -6 -91q0 -103 25.5 -179t70 -120t99.5 -65t121 -21z" />
    <glyph glyph-name="seven" unicode="7" 
d="M403 -12l-147 20q381 699 840 1260l-2 8h-752l27 133h913l-25 -117q-459 -571 -854 -1304z" />
    <glyph glyph-name="eight" unicode="8" 
d="M1030 336q0 -150 -140.5 -256.5t-348.5 -106.5q-181 0 -294.5 83t-113.5 216q0 53 17 100.5t61 105t126 125t206 149.5q-100 95 -155.5 177t-55.5 165q0 80 48.5 149.5t141.5 118.5t229 65.5t312 -8.5l-33 -145q-158 30 -264 31t-171 -27.5t-92.5 -67.5t-27.5 -90
q0 -63 50 -132.5t143 -156.5q232 143 499 289l60 -98q-297 -157 -477 -268q65 -61 104.5 -102.5t85.5 -98.5t68 -110.5t22 -106.5zM580 98q136 0 224.5 63.5t88.5 155.5q0 34 -16.5 72t-37.5 68t-63.5 74.5t-70 70t-82.5 74.5q-108 -70 -178 -126t-105 -99.5t-47 -75.5
t-12 -68q0 -97 84.5 -153t214.5 -56z" />
    <glyph glyph-name="nine" unicode="9" 
d="M262 -43l-37 137q143 42 261.5 98.5t201 118t145 133t99.5 139t59 140.5q-84 -74 -176 -116t-174.5 -49.5t-158 14.5t-130 70t-87 123t-32.5 167q0 147 68.5 263.5t183 179.5t252.5 63q189 0 306.5 -121t117.5 -350q0 -114 -28.5 -225t-95.5 -226.5t-168.5 -215.5
t-256.5 -190t-350 -153zM371 956q0 -71 26 -128.5t70.5 -94t107 -51t132.5 -5t150.5 49t156.5 107.5q6 50 6 92q0 199 -87.5 292t-225.5 93q-153 0 -244.5 -101.5t-91.5 -253.5z" />
    <glyph glyph-name="colon" unicode=":" horiz-adv-x="681" 
d="M512 874h-209l45 230h207zM342 0h-207l43 229h207z" />
    <glyph glyph-name="semicolon" unicode=";" horiz-adv-x="681" 
d="M516 874h-209l43 230h209zM6 -362q121 133 159 262.5t23 324.5l205 6q-13 -196 -90.5 -341t-236.5 -289z" />
    <glyph glyph-name="less" unicode="&#x3c;" 
d="M915 143l-704 439l31 159l864 428l45 -125l-782 -376l-4 -21l620 -379z" />
    <glyph glyph-name="equal" unicode="=" 
d="M1169 983l-26 -127h-891l24 127h893zM1073 483l-26 -127h-891l24 127h893z" />
    <glyph glyph-name="greater" unicode="&#x3e;" 
d="M211 154l-45 125l784 376l4 21l-622 377l69 127l707 -441l-33 -159z" />
    <glyph glyph-name="question" unicode="?" horiz-adv-x="1157" 
d="M330 1395l28 145q376 -43 557 -138.5t181 -256.5q0 -144 -146.5 -290.5t-480.5 -330.5l-49 84q283 160 397.5 270t114.5 214q0 65 -36.5 113t-116 83.5t-185.5 59.5t-264 47zM467 0h-207l43 219h209z" />
    <glyph glyph-name="at" unicode="@" horiz-adv-x="1681" 
d="M1235 -303q-162 -37 -300 -46.5t-246 7.5t-194.5 58t-147 102t-100.5 142.5t-58.5 176.5t-18.5 207q0 185 49.5 365t142 330.5t215 265.5t277.5 180t320 65q494 0 382 -563l-94 -465q-29 -134 -57 -379l-133 4l24 189q-94 -93 -198 -153t-187 -60q-97 0 -158 81.5
t-61 229.5q0 126 42 244t115.5 207.5t180.5 143.5t230 54q79 0 178 -18q25 184 -48 274.5t-257 90.5q-113 0 -221 -40t-198.5 -111.5t-167 -172t-129.5 -218t-82.5 -253.5t-29.5 -275q0 -141 30.5 -248t100.5 -185.5t178.5 -117t269 -36t367.5 50.5zM969 258q71 0 169.5 59
t178.5 142l94 467q-128 35 -221 35q-98 0 -180.5 -70.5t-129 -184t-46.5 -239.5q0 -102 37 -155.5t98 -53.5z" />
    <glyph glyph-name="A" unicode="A" horiz-adv-x="1353" 
d="M991 -6q-22 211 -51 463h-549q-168 -331 -229 -457h-152q352 708 733 1415h213q111 -747 183 -1409zM819 1278q-148 -275 -368 -705h475q-46 374 -90 705h-17z" />
    <glyph glyph-name="B" unicode="B" horiz-adv-x="1275" 
d="M1110 426q0 -78 -33.5 -149t-105.5 -134t-186.5 -102t-276 -53.5t-373.5 12.5l273 1405q203 27 348.5 18t239.5 -53t138 -107.5t44 -144.5q0 -131 -100.5 -235.5t-274.5 -155.5q138 -27 222.5 -108t84.5 -193zM1032 1083q0 114 -128.5 175t-368.5 36l-105 -540
q153 6 271 35t189 75t106.5 101.5t35.5 117.5zM963 408q0 124 -138 194.5t-413 52.5l-103 -532q169 -18 292.5 -2.5t203.5 59.5t119 102t39 126z" />
    <glyph glyph-name="C" unicode="C" horiz-adv-x="1335" 
d="M903 1440q190 0 263 -125.5t65 -388.5l-144 -2q1 81 -3.5 136.5t-18 105.5t-38 79t-64 45.5t-95.5 16.5q-120 0 -225.5 -68t-175.5 -177.5t-110 -247t-40 -277.5q0 -307 204.5 -397t584.5 50l-12 -139q-210 -73 -382.5 -78.5t-292.5 53t-185.5 181t-65.5 299.5
q0 239 98 454t268.5 347.5t368.5 132.5z" />
    <glyph glyph-name="D" unicode="D" horiz-adv-x="1402" 
d="M1296 864q0 -158 -44.5 -298.5t-139 -257t-229.5 -195t-327 -109.5t-421 -4l273 1407q416 65 652 -74t236 -469zM1147 846q0 250 -158 362.5t-457 83.5l-225 -1173q170 -11 310.5 21t237.5 98t163.5 161.5t97.5 207.5t31 239z" />
    <glyph glyph-name="E" unicode="E" horiz-adv-x="1202" 
d="M963 133l-37 -133h-791l273 1409h796l-24 -133h-650l-96 -504h555l-24 -117h-553l-101 -522h652z" />
    <glyph glyph-name="F" unicode="F" horiz-adv-x="1169" 
d="M963 629h-557l-123 -629h-148l273 1409h802l-24 -133h-656l-102 -531h557z" />
    <glyph glyph-name="G" unicode="G" horiz-adv-x="1392" 
d="M1014 -252l-140 -2l64 270q-350 -100 -560 32t-210 456q0 178 59.5 349.5t158.5 300t238 207.5t289 79q192 0 269 -124t71 -390l-143 -2q1 80 -4.5 136.5t-20 105.5t-40.5 78.5t-68 46t-100 16.5q-121 0 -227.5 -68t-178.5 -177.5t-113 -247t-41 -277.5
q0 -280 170 -381.5t480 -8.5l92 396l145 4z" />
    <glyph glyph-name="H" unicode="H" horiz-adv-x="1478" 
d="M981 0l127 655h-696l-127 -655h-150l273 1409h149l-123 -637h696l125 637h148l-273 -1409h-149z" />
    <glyph glyph-name="I" unicode="I" horiz-adv-x="1120" 
d="M551 123h317l-30 -123h-770l24 123h309l226 1163h-316l25 123h770l-25 -123h-305z" />
    <glyph glyph-name="J" unicode="J" horiz-adv-x="1058" 
d="M41 -27l22 144q249 -2 355 11t149 56q33 33 57.5 114.5t67.5 311.5l131 676h-426l27 123h573l-149 -772q-40 -204 -67.5 -309.5t-48.5 -149t-54 -76.5q-67 -67 -217.5 -98t-419.5 -31z" />
    <glyph glyph-name="K" unicode="K" horiz-adv-x="1292" 
d="M952 -12l-448 721l674 700h168l-670 -702l436 -695zM408 1409h149l-272 -1409h-150z" />
    <glyph glyph-name="L" unicode="L" horiz-adv-x="1148" 
d="M932 0h-797l273 1409h149l-246 -1276h650z" />
    <glyph glyph-name="M" unicode="M" horiz-adv-x="1679" 
d="M625 1415l163 -1071h7l583 1065h228l-275 -1409h-149l248 1233h-11l-602 -1098h-131l-172 1098h-12l-228 -1233h-139l273 1405z" />
    <glyph glyph-name="N" unicode="N" horiz-adv-x="1492" 
d="M977 0l-457 1217h-14l-232 -1217h-139l273 1405l192 8l442 -1173h15l221 1169h139l-272 -1409h-168z" />
    <glyph glyph-name="O" unicode="O" horiz-adv-x="1486" 
d="M899 1440q213 0 346 -151.5t133 -411.5q0 -246 -98.5 -455t-267 -331t-365.5 -122q-214 0 -346.5 153t-132.5 413q0 245 98.5 453.5t267 330t365.5 121.5zM680 100q155 0 281.5 103t197 275t70.5 374q0 213 -101.5 335t-259.5 122q-156 0 -283 -102.5t-197.5 -274
t-70.5 -373.5q0 -214 101 -336.5t262 -122.5z" />
    <glyph glyph-name="P" unicode="P" horiz-adv-x="1239" 
d="M285 0h-150l273 1403q214 26 366 13t249 -66.5t142 -129.5t45 -176q0 -237 -220 -387.5t-615 -187.5zM1063 1020q0 147 -133 220.5t-398 45.5l-129 -672q315 0 487.5 109.5t172.5 296.5z" />
    <glyph glyph-name="Q" unicode="Q" horiz-adv-x="1415" 
d="M1077 -307l-696 295l39 104q338 125 549 357t211 491q0 173 -96 273t-265 100q-184 0 -311 -126.5t-157.5 -349.5t71.5 -528l-125 -53q-69 150 -91.5 301.5t-1 280.5t80 241.5t144 191.5t197 124t234.5 45q221 0 346 -133.5t125 -345.5q0 -138 -54 -273t-151.5 -252
t-231.5 -217t-294 -174l537 -219z" />
    <glyph glyph-name="R" unicode="R" horiz-adv-x="1306" 
d="M979 -14l-420 643l2 4q267 118 379.5 216t112.5 222q0 126 -131.5 184.5t-386.5 32.5l-250 -1288h-150l273 1407q215 24 366 13.5t246 -57t138.5 -113t43.5 -152.5q0 -150 -116.5 -268.5t-342.5 -223.5l398 -594z" />
    <glyph glyph-name="S" unicode="S" horiz-adv-x="1181" 
d="M1096 1057l-138 -31q-20 145 -83 214t-173 69q-113 0 -188.5 -77t-75.5 -181q0 -55 30 -110t78 -101.5t106 -93t116.5 -94.5t106.5 -97t78 -108.5t30 -120.5q0 -90 -51.5 -164t-161.5 -125.5t-282.5 -54t-415.5 50.5l34 149q158 -45 285 -61t208 -6.5t135.5 37.5t77 66
t22.5 85q0 50 -30 99.5t-78 93.5t-106 89t-116.5 93.5t-106.5 99.5t-78 115t-30 131q0 105 59.5 199.5t165.5 153.5t231 59q158 0 242.5 -95.5t108.5 -283.5z" />
    <glyph glyph-name="T" unicode="T" horiz-adv-x="1216" 
d="M825 1278l-247 -1278h-150l248 1278h-434l24 131h1018l-24 -131h-435z" />
    <glyph glyph-name="U" unicode="U" horiz-adv-x="1439" 
d="M381 590q-93 -488 274 -488q159 0 259.5 96.5t142.5 307.5l174 903h149l-176 -903q-52 -270 -201.5 -402.5t-365.5 -132.5q-72 0 -133.5 14t-116 45.5t-91 81t-60 120t-22.5 163.5t22 211l155 803h150z" />
    <glyph glyph-name="V" unicode="V" horiz-adv-x="1288" 
d="M641 0h-219q-99 701 -160 1403l150 12q48 -579 135 -1278h20q371 702 641 1272h150q-293 -613 -717 -1409z" />
    <glyph glyph-name="W" unicode="W" horiz-adv-x="1589" 
d="M981 0l-141 793l-447 -793h-172q3 210 37 591t92 818h148q-38 -277 -85.5 -697.5t-50.5 -527.5h13l452 820h111l139 -820h10q39 106 153 518.5t190 706.5h143q-110 -426 -225.5 -808t-196.5 -601h-170z" />
    <glyph glyph-name="X" unicode="X" horiz-adv-x="1327" 
d="M952 -6l-278 600l-490 -594h-168l598 709l-327 694l157 14l281 -604l489 596h170l-600 -711l326 -692z" />
    <glyph glyph-name="Y" unicode="Y" horiz-adv-x="1290" 
d="M612 0h-149l94 483l-303 922l154 8l251 -799h5l546 795h162l-670 -944z" />
    <glyph glyph-name="Z" unicode="Z" horiz-adv-x="1251" 
d="M989 0h-930l23 129l981 1149l-746 -4l29 135h907l-22 -129l-977 -1149l762 4z" />
    <glyph glyph-name="bracketleft" unicode="[" horiz-adv-x="985" 
d="M47 -406l383 1975h637l-25 -123h-495l-336 -1729h498l-25 -123h-637z" />
    <glyph glyph-name="backslash" unicode="\" horiz-adv-x="1005" 
d="M301 1620l555 -1999l-121 -35l-555 1997z" />
    <glyph glyph-name="bracketright" unicode="]" horiz-adv-x="985" 
d="M950 1571l-383 -1972h-637l25 122h496l335 1727h-497l24 123h637z" />
    <glyph glyph-name="asciicircum" unicode="^" 
d="M1014 365l-318 544l-469 -551l-98 86l573 668l37 4l402 -670z" />
    <glyph glyph-name="underscore" unicode="_" horiz-adv-x="1019" 
d="M889 -115l-23 -116h-1009l22 116h1010z" />
    <glyph glyph-name="grave" unicode="`" horiz-adv-x="1169" 
d="M819 1317l-41 -66q-99 66 -227.5 170t-210.5 189l106 123q74 -100 182 -220.5t191 -195.5z" />
    <glyph glyph-name="a" unicode="a" horiz-adv-x="1257" 
d="M422 115q75 0 183.5 65t201.5 160l125 625q-130 36 -232 36q-117 0 -218.5 -92t-158.5 -239.5t-57 -309.5q0 -120 43.5 -182.5t112.5 -62.5zM1178 84q-98 -57 -172 -82.5t-120 -20.5t-73 33t-32 79.5t3 119.5q-106 -105 -220.5 -171.5t-205.5 -66.5q-105 0 -170 89.5
t-65 257.5q0 155 50.5 301t138 257t215 178.5t272.5 67.5q129 0 297 -43l-158 -807q-21 -84 -12.5 -124.5t58.5 -38.5t171 47z" />
    <glyph glyph-name="b" unicode="b" horiz-adv-x="1245" 
d="M449 -23q-134 0 -308 52l301 1556l146 12l-135 -700q103 103 213.5 168t201.5 65q111 0 180.5 -95t69.5 -273q0 -121 -31 -237.5t-91 -214.5t-140.5 -173t-185.5 -117.5t-221 -42.5zM547 98q116 0 216.5 91.5t157 237t56.5 304.5q0 129 -47 196.5t-121 67.5
q-79 0 -185 -66.5t-198 -164.5l-121 -625q143 -41 242 -41z" />
    <glyph glyph-name="c" unicode="c" horiz-adv-x="1095" 
d="M1006 772l-136 -2q1 124 -36 177.5t-123 53.5q-114 0 -215 -81.5t-160.5 -217.5t-59.5 -290q0 -461 631 -228l21 -78q-152 -81 -282 -112t-223 -13.5t-159.5 71.5t-98.5 139.5t-32 193.5q0 191 86.5 363.5t230 277t302.5 104.5q141 0 203.5 -85.5t50.5 -272.5z" />
    <glyph glyph-name="d" unicode="d" horiz-adv-x="1275" 
d="M440 113q80 0 186 62.5t193 156.5l123 635q-140 41 -242 41q-116 0 -216.5 -91t-157 -236t-56.5 -304q0 -127 47.5 -195.5t122.5 -68.5zM1194 84q-96 -56 -169.5 -81.5t-119.5 -21.5t-74 31t-33.5 77t1.5 116q-105 -102 -217 -166t-203 -64q-112 0 -182 96t-70 273
q0 152 50 294.5t137 251.5t214 174.5t271 65.5q73 0 174 -16l90 471l145 12l-256 -1314q-7 -36 -10 -59.5t-3 -46t4.5 -34.5t15.5 -21t28 -9.5t43 4t59.5 15.5t79.5 28z" />
    <glyph glyph-name="e" unicode="e" horiz-adv-x="1124" 
d="M963 125q-161 -88 -298.5 -124t-234 -21.5t-165 67.5t-101.5 136.5t-33 191.5q0 135 49 270.5t130.5 243t197.5 174.5t242 67q131 0 204.5 -67.5t73.5 -185.5q0 -195 -198.5 -313t-557.5 -146v-21q0 -147 68.5 -219.5t219.5 -68.5t384 92zM713 1004q-109 0 -202.5 -71.5
t-151 -181.5t-78.5 -239q282 24 444 108t162 224q0 73 -46 116.5t-128 43.5z" />
    <glyph glyph-name="f" unicode="f" horiz-adv-x="1148" 
d="M823 2q0 -177 -107 -293.5t-253 -116.5q-133 0 -216 123.5t-83 364.5q0 233 76 514l-78 39l22 80h92q81 240 201 440t265.5 323t281.5 123q69 0 115 -31.5t60 -88t0 -128.5t-66.5 -160.5t-137.5 -176.5l-51 43q51 64 82 124.5t39.5 108t-0.5 83.5t-38 55.5t-73 19.5
q-91 0 -193.5 -101.5t-192 -267.5t-154.5 -366l626 -2l-22 -119l-539 6q344 -300 344 -596zM518 -283q86 0 141.5 69t55.5 183q0 288 -348 578q-60 -246 -60 -451q0 -193 58 -286t153 -93z" />
    <glyph glyph-name="g" unicode="g" horiz-adv-x="1243" 
d="M467 186q87 0 176 69t172 198q29 239 129 481q-135 72 -244 72q-87 0 -165.5 -50t-132.5 -131t-85.5 -184t-31.5 -207q0 -120 50.5 -184t131.5 -64zM940 -197q-54 -108 -256.5 -160t-572.5 -30l18 151q216 -20 361.5 -12.5t217.5 24.5t97 42q26 26 27.5 85.5t-10.5 187
t-13 214.5q-88 -117 -191 -187.5t-210 -70.5q-120 0 -194.5 90.5t-74.5 255.5q0 141 48.5 274.5t132 235.5t204.5 163.5t258 61.5q117 0 230 -55q35 57 57 57q35 0 66.5 -18t31.5 -41q0 -57 -68 -239t-155 -349q-4 -78 -4 -104q-1 -95 6.5 -198.5t14 -162t3 -117
t-23.5 -98.5z" />
    <glyph glyph-name="h" unicode="h" horiz-adv-x="1351" 
d="M1253 80q-103 -59 -182.5 -83.5t-127.5 -15t-72.5 42.5t-24.5 87q0 74 39.5 222.5t79 298.5t39.5 228q0 133 -136 133q-92 0 -208.5 -70.5t-243.5 -209.5l-137 -713h-144l307 1585l146 12l-144 -743q129 136 260.5 206t247.5 70q105 0 156 -56.5t51 -149.5
q0 -95 -40 -256.5t-80 -305.5t-40 -198q0 -20 5.5 -32t19.5 -18t40 -3t67 15t100 34z" />
    <glyph glyph-name="i" unicode="i" horiz-adv-x="829" 
d="M645 1303l-153 -9l71 295l170 8zM778 92q-87 -48 -162.5 -76.5t-134 -36t-103.5 2t-73.5 36.5t-43 69t-13.5 98.5t18 125.5l162 658l-285 -43l-14 80l348 102l121 -4l-184 -766q-18 -75 -17.5 -121.5t19 -74.5t63 -31.5t111 10.5t168.5 49z" />
    <glyph glyph-name="j" unicode="j" horiz-adv-x="776" 
d="M694 1305l-153 -11l73 299l172 11zM-113 -393l13 149q205 -6 278 2.5t107 42.5q24 24 33.5 81.5t13.5 156.5t11.5 221t38.5 314t85 397l-295 -43l-16 80l358 100l131 -4q-70 -237 -110 -459.5t-50.5 -363.5t-18 -258.5t-25.5 -191.5t-60 -116q-58 -58 -169.5 -81.5
t-324.5 -26.5z" />
    <glyph glyph-name="k" unicode="k" horiz-adv-x="1222" 
d="M918 -12l-418 465q258 133 371.5 245.5t113.5 192.5q0 49 -28.5 75.5t-79.5 26.5q-90 0 -212 -73t-249 -209l-137 -711h-144l307 1585l146 12l-144 -745q129 135 260.5 206.5t239.5 71.5q91 0 144 -49.5t53 -128.5q0 -113 -112.5 -241t-350.5 -256l407 -443z" />
    <glyph glyph-name="l" unicode="l" horiz-adv-x="1032" 
d="M899 152q-295 -198 -473 -164.5t-201 297.5q-51 -34 -102 -70l-45 74q62 43 143 100q3 182 45 365.5t111 333t153 267.5t176.5 183.5t176.5 65.5q87 0 135.5 -59.5t48.5 -166.5q0 -216 -173.5 -472t-528.5 -535q3 -117 35 -182t96 -78.5t154 15.5t216 101zM825 1454
q-66 0 -142.5 -80t-142.5 -210t-114.5 -311.5t-58.5 -367.5q287 239 421 454t134 382q0 64 -27 98.5t-70 34.5z" />
    <glyph glyph-name="m" unicode="m" horiz-adv-x="1916" 
d="M1815 80q-103 -59 -182.5 -83.5t-128 -15t-73 42.5t-24.5 87q0 73 39.5 221t79 298.5t39.5 229.5q0 66 -28 99.5t-91 33.5q-165 0 -395 -262l-148 -731h-141l147 739q28 137 6.5 196.5t-100.5 59.5q-85 0 -185.5 -67.5t-207.5 -200.5q-19 -96 -80 -405.5t-63 -321.5h-144
q137 694 174 921q14 88 27 179l143 10q-18 -100 -39 -252q236 272 445 272q205 0 178 -274q121 136 239.5 205t223.5 69q100 0 147 -55.5t47 -148.5q0 -96 -40 -258t-79.5 -306t-39.5 -198q0 -17 3.5 -27.5t12.5 -18t25.5 -8t42 4t62 16t85.5 29.5z" />
    <glyph glyph-name="n" unicode="n" horiz-adv-x="1355" 
d="M1253 80q-103 -59 -182.5 -83.5t-127.5 -15t-72.5 42.5t-24.5 87q0 73 39.5 221t79 298t39.5 228q0 135 -134 135q-93 0 -208.5 -69t-241.5 -207q-51 -268 -141 -717h-144q137 694 174 921q14 88 27 179l143 10q-4 -23 -19 -121t-22 -141q130 139 263.5 210.5t250.5 71.5
q105 0 156 -56.5t51 -149.5q0 -95 -40 -256.5t-80 -305.5t-40 -198q0 -20 5.5 -32t19.5 -18t40 -3t67 15t100 34z" />
    <glyph glyph-name="o" unicode="o" horiz-adv-x="1236" 
d="M133 420q0 143 48 274.5t128 226.5t188.5 152t223.5 57q175 0 279 -118t104 -328q0 -143 -48 -274.5t-127.5 -226.5t-187.5 -151.5t-223 -56.5q-177 0 -281 118t-104 327zM958 651q0 167 -73 262t-199 95q-118 0 -211.5 -76.5t-143.5 -202.5t-50 -276q0 -167 72.5 -261
t199.5 -94q117 0 210.5 76t144 202t50.5 275z" />
    <glyph glyph-name="p" unicode="p" horiz-adv-x="1243" 
d="M545 96q116 0 216.5 91.5t157 237.5t56.5 306q0 128 -47 196t-121 68q-77 0 -183 -65t-196 -160q-13 -73 -123 -633q140 -41 240 -41zM203 -387l-144 -12q24 122 76 391.5t69.5 361t49 258t49 273t33.5 215.5l143 10q-2 -10 -15 -91t-20 -128q105 105 218.5 172t205.5 67
q110 0 180 -95.5t70 -272.5q0 -122 -31.5 -239t-91.5 -215.5t-141 -173.5t-186.5 -117t-221.5 -42q-78 0 -170 15q-40 -196 -73 -377z" />
    <glyph glyph-name="q" unicode="q" horiz-adv-x="1243" 
d="M1124 -301q-127 -68 -213 -92.5t-133 -6.5t-61 73.5t4 148.5l74 375q-103 -98 -214 -160t-200 -62q-112 0 -183 95.5t-71 273.5q0 153 50 295.5t137 251t214 174t271 65.5q146 0 309 -55l-238 -1214q-8 -40 -10.5 -62.5t3.5 -41t19.5 -23.5t44 -3t71 13t104.5 31z
M440 113q79 0 183.5 60t195.5 151l125 645q-137 41 -244 41q-116 0 -216.5 -91.5t-157 -237t-56.5 -304.5q0 -130 47 -197t123 -67z" />
    <glyph glyph-name="r" unicode="r" horiz-adv-x="1202" 
d="M1110 61q-317 -139 -410 -34q-118 132 88 688q38 105 89 227q-210 -70 -367 -70q-123 -258 -348 -514l-62 56q224 284 301 469q-96 23 -96 98q0 70 63.5 140.5t133.5 70.5q35 0 55.5 -23t20.5 -65q0 -41 -21 -113q218 23 447 127l61 -43q-240 -609 -259 -813
q-13 -142 67 -162q63 -16 221 39z" />
    <glyph glyph-name="s" unicode="s" horiz-adv-x="1067" 
d="M924 285q0 -55 -20.5 -101.5t-71.5 -88.5t-129.5 -69t-203.5 -38.5t-284 -1.5l8 137q169 -14 277 -13t170.5 24t86 53t23.5 75q0 46 -29 106t-67 111.5t-86.5 124.5t-75.5 131q-148 -144 -362 -291l-45 64q265 210 368 338q-10 45 -10 82q0 102 71.5 187t143.5 85
q66 0 77 -59q17 -88 -96 -240l-32 -41q15 -49 51 -110.5t75 -117.5t76 -114t61 -119t24 -114z" />
    <glyph glyph-name="t" unicode="t" horiz-adv-x="972" 
d="M870 119q-109 -62 -201.5 -97.5t-162.5 -44t-123.5 4t-86.5 46t-50 83.5t-16 114.5t18 141.5l139 618h-201l33 115h127l174 317l109 8l-74 -325h395l-20 -115h-400l-137 -610q-30 -132 -6 -201t134.5 -64.5t328.5 89.5z" />
    <glyph glyph-name="u" unicode="u" horiz-adv-x="1374" 
d="M1290 84q-128 -72 -214 -93t-128 5.5t-53.5 91.5t8.5 166q-129 -141 -241 -210t-220 -69q-133 0 -189 104.5t-9 315.5l129 574l-240 -45l-14 80l305 104l123 -4l-160 -698q-35 -151 -0.5 -223t121.5 -72q92 0 191 67t231 211l143 715h141l-163 -828q-11 -62 -13.5 -101.5
t20.5 -53.5t71 -4.5t139 43.5z" />
    <glyph glyph-name="v" unicode="v" horiz-adv-x="1148" 
d="M510 135q242 436 512 969h152q-286 -555 -609 -1114h-188q-112 612 -172 1110l145 10q63 -529 144 -975h16z" />
    <glyph glyph-name="w" unicode="w" horiz-adv-x="1415" 
d="M852 0l-139 631l-371 -631h-137q-3 201 15.5 499t53.5 605h150q-45 -394 -90 -909h10l371 632h100l129 -634h12q159 502 261 911h155q-141 -501 -383 -1104h-137z" />
    <glyph glyph-name="x" unicode="x" horiz-adv-x="1144" 
d="M778 -4l-227 459l-397 -455h-160l498 553l-283 547l162 10l233 -457l395 451h160l-495 -551l278 -547z" />
    <glyph glyph-name="y" unicode="y" horiz-adv-x="1273" 
d="M952 -193q-120 -235 -817 -194l23 151q216 -20 359 -12.5t212.5 25t95.5 43.5q16 16 25 45.5t10.5 81t0 97t-4.5 131t-4 147.5q-106 -117 -230 -191t-239 -74q-413 0 -21 1045l144 6q-80 -223 -125 -389t-56 -265t4 -159t45 -81t77 -21q82 0 191.5 68.5t211.5 184.5
q10 144 52.5 307t93 268t83.5 105q35 0 66 -17t31 -42q0 -66 -61.5 -260.5t-141.5 -347.5q-2 -23 -2 -72q0 -73 4.5 -179.5t6.5 -167t-5.5 -126.5t-28.5 -107z" />
    <glyph glyph-name="z" unicode="z" horiz-adv-x="1130" 
d="M891 0h-821l24 125l803 854l-649 -4l39 129h796l-22 -123l-805 -856l674 4z" />
    <glyph glyph-name="braceleft" unicode="{" horiz-adv-x="1009" 
d="M680 -471q-282 139 -399 239t-117 205q0 41 14 79.5t37 68.5t50.5 58t55 53t50.5 48t37 48.5t14 50.5q0 126 -279 162l23 108q346 21 346 164q0 31 -21 75.5t-45.5 84.5t-45.5 95t-21 103q0 282 696 463l23 -133q-306 -69 -445 -141t-139 -162q0 -34 21 -82t46.5 -89.5
t46.5 -92t21 -88.5q0 -73 -68.5 -144t-203.5 -108q186 -58 186 -191q0 -46 -26 -90t-63.5 -79.5t-75 -70.5t-63.5 -76t-26 -83q0 -81 102.5 -161.5t338.5 -194.5z" />
    <glyph glyph-name="bar" unicode="|" horiz-adv-x="747" 
d="M512 1593h135l-391 -2003h-133z" />
    <glyph glyph-name="braceright" unicode="}" horiz-adv-x="1009" 
d="M-53 -469l-23 133q305 68 443.5 141t138.5 162q0 34 -21 82t-45.5 89.5t-45.5 92t-21 88.5q0 75 68.5 145.5t203.5 106.5q-186 58 -186 191q0 46 26 90t63.5 79.5t75 70.5t63.5 76t26 83q0 81 -103 162t-338 195l70 118q282 -139 399 -239t117 -205q0 -56 -27 -107.5
t-65 -89t-76 -71t-65 -69.5t-27 -69q0 -125 281 -161l-23 -109q-187 -11 -267.5 -56t-80.5 -108q0 -31 21 -75.5t46.5 -84.5t46.5 -95t21 -103q0 -282 -696 -463z" />
    <glyph glyph-name="asciitilde" unicode="~" 
d="M868 455q-45 0 -89 25t-77 62t-68 81t-62.5 81t-59.5 62t-61 25q-106 0 -242 -318l-105 41q182 418 371 418q45 0 88.5 -25t76 -62t66.5 -81t61 -81t58 -62t60 -25q102 0 243 317l105 -41q-91 -210 -180 -313.5t-185 -103.5z" />
    <glyph glyph-name="uni00A0" unicode="&#xa0;" horiz-adv-x="630" 
 />
    <glyph glyph-name="exclamdown" unicode="&#xa1;" horiz-adv-x="751" 
d="M444 1409h207l-43 -219h-209zM389 891h96q-22 -117 -78 -510t-77 -506h-191q23 97 123 494.5t127 521.5z" />
    <glyph glyph-name="cent" unicode="&#xa2;" 
d="M334 582q0 -211 250 -306l151 660q-401 -58 -401 -354zM973 74q-160 6 -301 35l-68 -304h-141l80 338q-175 59 -261.5 163.5t-86.5 242.5q0 87 31 167t95.5 152.5t176.5 127t260 79.5l71 334h142l-74 -319q115 9 254 0l-27 -146q-165 10 -268 2l-160 -702
q133 -29 303 -37z" />
    <glyph glyph-name="sterling" unicode="&#xa3;" 
d="M1133 287q-31 -79 -64 -135t-67.5 -91.5t-76.5 -53t-84.5 -22.5t-99.5 2.5t-113.5 20.5t-132.5 32q-98 25 -153 38q-101 -107 -233 -107q-95 0 -120 55q-22 49 25 101q63 73 197 83q34 3 70 1q54 145 81 377h-186l25 123h174q15 126 36 219t66 180q70 140 190.5 236
t266.5 96q294 0 285 -420l-150 -6q0 160 -43.5 224.5t-130.5 64.5q-90 0 -166.5 -62t-126.5 -162q-60 -123 -86 -370h453l-21 -123h-446q-27 -269 -86 -398q43 -9 99 -21t90 -20t78 -16t71 -10t61.5 -1t57.5 9.5t50 23t48.5 38t44 56.5t43.5 77z" />
    <glyph glyph-name="yen" unicode="&#xa5;" 
d="M1055 276h-404l-51 -276h-145l55 276h-410l27 125h410l30 162l-22 62h-375l25 125h305l-238 655l154 8l252 -713l516 709h159l-491 -659h297l-25 -125h-364l-58 -78l-26 -146h405z" />
    <glyph glyph-name="section" unicode="&#xa7;" horiz-adv-x="1284" 
d="M313 571q0 -23 9.5 -44.5t32 -42.5t43.5 -37t60 -37t64.5 -33.5t72.5 -35.5q5 -2 8 -3.5l7 -3.5l8 -4q189 42 274 89.5t85 108.5q0 24 -14.5 48t-34 42t-56.5 41.5t-65 38.5t-78.5 41t-77.5 41q-91 -14 -164.5 -40.5t-123.5 -70.5t-50 -98zM954 27q0 -40 -16 -77
t-50.5 -70.5t-85.5 -59t-125.5 -41.5t-165 -19.5t-209 9t-253.5 41.5l37 149q157 -41 283 -59t206 -15t133 21.5t75 45.5t22 62q0 39 -34.5 75.5t-90 66.5t-123 61t-134.5 65.5t-122.5 72t-90 87.5t-34.5 107q0 112 102 186t271 107q-162 111 -162 245q0 138 129.5 243.5
t319.5 105.5q154 0 234.5 -85t105.5 -259l-136 -27q-20 127 -80 186.5t-167 59.5q-110 0 -183 -58.5t-73 -138.5q0 -49 32 -94t83 -80.5t112.5 -69.5t123.5 -68t113 -70.5t83 -83t32 -97.5q0 -92 -91.5 -159t-287.5 -120q104 -57 160.5 -114.5t56.5 -130.5z" />
    <glyph glyph-name="dieresis" unicode="&#xa8;" horiz-adv-x="1169" 
d="M883 1300l-154 -2l72 295l172 4zM438 1296l-153 -4l71 295l170 4z" />
    <glyph glyph-name="copyright" unicode="&#xa9;" horiz-adv-x="1892" 
d="M1040 1481q200 0 357 -81t249.5 -242t92.5 -380q0 -189 -69 -349.5t-186.5 -269t-273.5 -169t-329 -60.5q-152 0 -281 46t-224.5 132.5t-149.5 218.5t-54 296q0 189 70.5 351t189.5 272t277 172.5t331 62.5zM1036 1376q-149 0 -285 -54t-239 -148.5t-164 -235t-61 -303.5
q0 -145 45.5 -260t126 -188.5t189 -112.5t237.5 -39q149 0 283.5 52.5t236 146t161.5 232t60 300.5q0 192 -78.5 332t-210.5 209t-301 69zM1044 1102q126 0 173 -83t34 -239h-112q1 44 -0.5 73t-7.5 58.5t-18 46.5t-32.5 28t-50.5 11q-77 0 -139 -57t-94.5 -142t-32.5 -175
q0 -314 420 -166l-10 -111q-244 -84 -388.5 -13t-144.5 271q0 125 53 239.5t147 186.5t203 72z" />
    <glyph glyph-name="ordfeminine" unicode="&#xaa;" horiz-adv-x="1144" 
d="M489 676q57 0 135.5 48t145.5 118l90 450q-95 25 -164 25q-86 0 -161 -66.5t-117.5 -173t-42.5 -223.5q0 -87 32 -132.5t82 -45.5zM1034 631q-84 -48 -143.5 -63t-91.5 2t-44 56.5t-5 102.5q-80 -74 -166 -121t-154 -47q-80 0 -130 66.5t-50 189.5q0 115 39 225
t105.5 194t163.5 135.5t206 51.5q112 0 240 -32l-119 -594q-11 -53 -12 -80t11.5 -43t44.5 -11.5t89 25.5zM188 385h762l-20 -109h-764z" />
    <glyph glyph-name="guillemotleft" unicode="&#xab;" horiz-adv-x="1546" 
d="M530 -33l-387 504l37 170l568 502l92 -113l-576 -485l381 -479zM1165 -33l-374 498l43 170l571 506l90 -117l-582 -485l369 -476z" />
    <glyph glyph-name="registered" unicode="&#xae;" horiz-adv-x="1413" 
d="M1309 1040q0 -129 -48.5 -240.5t-130 -187.5t-189.5 -119.5t-226 -43.5q-213 0 -346 128.5t-133 356.5q0 129 48.5 241t130 188t189 119.5t225.5 43.5q213 0 346.5 -128t133.5 -358zM829 1442q-100 0 -191 -36.5t-160 -100.5t-109.5 -158.5t-40.5 -204.5
q0 -198 107.5 -304t281.5 -106q99 0 190 36t159.5 100t109.5 158.5t41 203.5q0 200 -107 306t-281 106zM889 731l-152 225l-2 5q174 58 174 135q0 87 -180 71l-82 -430h-100l98 512q184 23 275.5 -16.5t91.5 -116.5q0 -105 -164 -174l145 -197z" />
    <glyph glyph-name="macron" unicode="&#xaf;" horiz-adv-x="1169" 
d="M954 1513l-24 -129h-684l26 129h682z" />
    <glyph glyph-name="degree" unicode="&#xb0;" 
d="M784 1528q153 0 251 -99.5t98 -261.5q0 -128 -61 -229.5t-158.5 -155t-208.5 -53.5q-154 0 -252.5 99.5t-98.5 261.5q0 127 61 228.5t159 155.5t210 54zM721 846q122 0 205.5 86.5t83.5 222.5q0 112 -66.5 185t-177.5 73q-122 0 -204.5 -87.5t-82.5 -223.5
q0 -112 65.5 -184t176.5 -72z" />
    <glyph glyph-name="plusminus" unicode="&#xb1;" 
d="M1024 154h-926l25 127h393l78 397h-401l26 125h399l80 416h138l-82 -416h403l-27 -125h-401l-78 -397h400z" />
    <glyph glyph-name="two.sup" unicode="&#xb2;" horiz-adv-x="1028" 
d="M842 739h-606l-3 101q102 65 169 110t139 97t115.5 91.5t80.5 82.5t53.5 82.5t16.5 78.5q0 197 -416 136l19 114q256 39 391 -20.5t135 -200.5q0 -72 -32.5 -138.5t-104 -136t-158.5 -134t-223 -152.5h448z" />
    <glyph glyph-name="three.sup" unicode="&#xb3;" horiz-adv-x="1028" 
d="M889 991q0 -45 -20 -85t-65.5 -78t-119.5 -61.5t-182 -34t-252 4.5l14 117q122 -14 209.5 -11t144.5 13t90.5 30.5t46.5 42t13 46.5q0 131 -365 207l9 55l409 291h-422l23 108h553l-12 -108l-402 -287q328 -80 328 -250z" />
    <glyph glyph-name="acute" unicode="&#xb4;" horiz-adv-x="1169" 
d="M367 1335q101 70 232.5 182t217.5 203l109 -125q-93 -78 -242.5 -168t-284.5 -159z" />
    <glyph glyph-name="mu" unicode="&#xb5;" horiz-adv-x="1351" 
d="M203 -387l-144 -12l303 1501l146 10l-146 -706q-31 -158 4.5 -226.5t129.5 -68.5q87 0 184.5 67.5t230.5 212.5l142 713h139l-166 -828q-21 -85 -11 -126t61 -39t175 47l23 -74q-105 -59 -182.5 -84t-124 -17t-72 42.5t-25.5 95t15 139.5q-131 -144 -237 -214.5
t-204 -70.5q-112 0 -161 84z" />
    <glyph glyph-name="paragraph" unicode="&#xb6;" horiz-adv-x="1509" 
d="M1077 358l178 912q-133 9 -260 2l-172 -877q120 -28 254 -37zM348 815q0 -125 90 -224.5t260 -160.5l160 827q-249 -41 -379.5 -160.5t-130.5 -281.5zM698 -246l-139 -18l107 559q-223 68 -345 196t-122 297q0 116 54 218.5t160 184t252 137t340 78.5t414 7l-313 -1599
l-139 -19l86 434q-135 9 -256 33z" />
    <glyph glyph-name="periodcentered" unicode="&#xb7;" horiz-adv-x="681" 
d="M455 516h-207l43 229h207z" />
    <glyph glyph-name="cedilla" unicode="&#xb8;" horiz-adv-x="1169" 
d="M322 -326l-80 27q125 328 290 328q103 0 161 -105.5t44 -310.5l-133 -2q10 156 -14 229.5t-74 73.5q-48 0 -95 -61t-99 -179z" />
    <glyph glyph-name="one.sup" unicode="&#xb9;" horiz-adv-x="1028" 
d="M868 739h-628l20 109h266l115 588l-252 -15l12 90l263 33l24 127l125 8l-166 -831h248z" />
    <glyph glyph-name="ordmasculine" unicode="&#xba;" horiz-adv-x="1175" 
d="M1059 1092q0 -105 -38 -203t-100.5 -170t-148.5 -115t-178 -43q-136 0 -216.5 88.5t-80.5 243.5q0 140 63.5 263t171 196t230.5 73q135 0 216 -89t81 -244zM934 1069q0 118 -55 184t-152 66q-90 0 -160 -55.5t-107.5 -147t-37.5 -201.5q0 -117 55 -182t152 -65
q134 0 219.5 116.5t85.5 284.5zM199 385h719l-21 -109h-721z" />
    <glyph glyph-name="guillemotright" unicode="&#xbb;" horiz-adv-x="1554" 
d="M809 -31l-92 113l577 485l-381 480l113 98l389 -504l-39 -170zM152 -27l-91 115l584 485l-369 476l115 96l375 -498l-43 -168z" />
    <glyph glyph-name="onequarter" unicode="&#xbc;" horiz-adv-x="2306" 
d="M844 512h-629l21 109h266l114 587l-251 -14l12 90l262 33l25 127l124 8l-165 -831h247zM670 -45l-80 63l1157 1428l82 -64zM2073 188h-107l-37 -188h-114l36 188h-442l8 86q93 154 156.5 295t124.5 338l131 -6q-65 -195 -131 -330.5t-156 -273.5l330 -2l59 301l115 12
l-59 -313h116z" />
    <glyph glyph-name="onehalf" unicode="&#xbd;" horiz-adv-x="2306" 
d="M844 512h-629l21 109h266l114 587l-251 -14l12 90l262 33l25 127l124 8l-165 -831h247zM651 -45l-80 63l1158 1428l81 -64zM1995 0h-606l-3 100q122 79 199.5 131t156.5 112.5t121.5 106.5t69.5 96t27 97q0 196 -416 135l19 115q256 39 391 -20.5t135 -200.5
q0 -72 -32.5 -138.5t-104 -136t-158.5 -134t-223 -152.5h448z" />
    <glyph glyph-name="threequarters" unicode="&#xbe;" horiz-adv-x="2306" 
d="M639 -45l-80 63l1157 1428l82 -64zM864 764q0 -45 -20 -85t-65.5 -78t-119.5 -61.5t-182 -34t-252 4.5l15 117q122 -14 209 -11t144 13t90.5 30.5t46.5 42t13 46.5q0 130 -364 206l8 56l410 290h-422l22 109h553l-12 -109l-401 -286q327 -80 327 -250zM2073 188h-107
l-37 -188h-114l36 188h-442l8 86q93 154 156.5 295t124.5 338l131 -6q-65 -195 -131 -330.5t-156 -273.5l330 -2l59 301l115 12l-59 -313h116z" />
    <glyph glyph-name="questiondown" unicode="&#xbf;" horiz-adv-x="1157" 
d="M764 1409h207l-43 -219h-209zM901 14l-29 -145q-376 45 -556.5 140t-180.5 255q0 144 146.5 290.5t480.5 330.5l49 -84q-282 -158 -397 -268.5t-115 -215.5q0 -52 25 -93t71.5 -72.5t122 -56.5t167 -44t216.5 -37z" />
    <glyph glyph-name="Agrave" unicode="&#xc0;" horiz-adv-x="1353" 
d="M1077 1626l-41 -65q-100 67 -228.5 170.5t-209.5 187.5l107 123q74 -100 181.5 -221t190.5 -195zM991 -6q-22 211 -51 463h-549q-168 -331 -229 -457h-152q352 708 733 1415h213q111 -747 183 -1409zM819 1278q-148 -275 -368 -705h475q-46 374 -90 705h-17z" />
    <glyph glyph-name="Aacute" unicode="&#xc1;" horiz-adv-x="1353" 
d="M674 1645q101 70 232.5 182t217.5 203l109 -125q-94 -79 -243.5 -170t-282.5 -158zM991 -6q-22 211 -51 463h-549q-168 -331 -229 -457h-152q352 708 733 1415h213q111 -747 183 -1409zM819 1278q-148 -275 -368 -705h475q-46 374 -90 705h-17z" />
    <glyph glyph-name="Acircumflex" unicode="&#xc2;" horiz-adv-x="1353" 
d="M1151 1577l-209 266l-336 -256l-69 82l432 334h2l284 -342zM991 -6q-22 211 -51 463h-549q-168 -331 -229 -457h-152q352 708 733 1415h213q111 -747 183 -1409zM819 1278q-148 -275 -368 -705h475q-46 374 -90 705h-17z" />
    <glyph glyph-name="Atilde" unicode="&#xc3;" horiz-adv-x="1353" 
d="M1075 1718q39 0 87.5 59t117.5 175l76 -47q-169 -306 -314 -306q-38 0 -72 25t-58 60.5t-46 71t-46.5 60.5t-49.5 25q-40 0 -90 -57t-115 -166l-76 47q166 295 316 295q38 0 71.5 -25t57.5 -60.5t45.5 -71t46 -60.5t49.5 -25zM991 -6q-22 211 -51 463h-549
q-168 -331 -229 -457h-152q352 708 733 1415h213q111 -747 183 -1409zM819 1278q-148 -275 -368 -705h475q-46 374 -90 705h-17z" />
    <glyph glyph-name="Adieresis" unicode="&#xc4;" horiz-adv-x="1353" 
d="M1171 1610l-153 -2l72 295l172 4zM727 1606l-154 -4l72 294l170 5zM991 -6q-22 211 -51 463h-549q-168 -331 -229 -457h-152q352 708 733 1415h213q111 -747 183 -1409zM819 1278q-148 -275 -368 -705h475q-46 374 -90 705h-17z" />
    <glyph glyph-name="Aring" unicode="&#xc5;" horiz-adv-x="1353" 
d="M940 2017q112 0 183 -60.5t71 -154.5q0 -106 -83.5 -180t-209.5 -74q-110 0 -180 61.5t-70 155.5q0 106 82 179t207 73zM930 1921q-71 0 -118.5 -42t-47.5 -103q0 -56 42 -92.5t109 -36.5q70 0 118 42t48 101q0 57 -42.5 94t-108.5 37zM991 -6q-22 211 -51 463h-549
q-168 -331 -229 -457h-152q352 708 733 1415h213q111 -747 183 -1409zM819 1278q-148 -275 -368 -705h475q-46 374 -90 705h-17z" />
    <glyph glyph-name="AE" unicode="&#xc6;" horiz-adv-x="1959" 
d="M1128 1276q-384 -486 -561 -717h439l139 717h-17zM897 0l86 444h-506q-181 -236 -338 -444h-166q516 686 1100 1409h887l-25 -133h-641l-96 -504h547l-23 -117h-548l-101 -522h645l-37 -133h-784z" />
    <glyph glyph-name="Ccedilla" unicode="&#xc7;" horiz-adv-x="1335" 
d="M793 -389l-134 -2q10 156 -14 229.5t-74 73.5q-48 0 -95 -61t-99 -179l-80 27q87 229 195 299q-156 46 -240 176t-84 332q0 239 98 454t268.5 347.5t368.5 132.5q190 0 263 -125.5t65 -388.5l-144 -2q1 81 -3.5 136.5t-18 105.5t-38 79t-64 45.5t-95.5 16.5
q-120 0 -225.5 -68t-175.5 -177.5t-110 -247t-40 -277.5q0 -307 204.5 -397t584.5 50l-12 -139q-200 -70 -381 -80q97 -101 80 -360z" />
    <glyph glyph-name="Egrave" unicode="&#xc8;" horiz-adv-x="1202" 
d="M1022 1622l-41 -66q-99 66 -227.5 170t-210.5 189l106 123q74 -100 182 -220.5t191 -195.5zM963 133l-37 -133h-791l273 1409h796l-24 -133h-650l-96 -504h555l-24 -117h-553l-101 -522h652z" />
    <glyph glyph-name="Eacute" unicode="&#xc9;" horiz-adv-x="1202" 
d="M618 1640q102 70 234 182t217 203l109 -124q-94 -79 -243.5 -169.5t-283.5 -158.5zM963 133l-37 -133h-791l273 1409h796l-24 -133h-650l-96 -504h555l-24 -117h-553l-101 -522h652z" />
    <glyph glyph-name="Ecircumflex" unicode="&#xca;" horiz-adv-x="1202" 
d="M1096 1573l-209 266l-336 -256l-70 82l432 334h2l285 -342zM963 133l-37 -133h-791l273 1409h796l-24 -133h-650l-96 -504h555l-24 -117h-553l-101 -522h652z" />
    <glyph glyph-name="Edieresis" unicode="&#xcb;" horiz-adv-x="1202" 
d="M1116 1606l-153 -2l71 294l172 5zM672 1602l-154 -5l72 295l170 4zM963 133l-37 -133h-791l273 1409h796l-24 -133h-650l-96 -504h555l-24 -117h-553l-101 -522h652z" />
    <glyph glyph-name="Igrave" unicode="&#xcc;" horiz-adv-x="1120" 
d="M954 1622l-41 -66q-99 66 -227.5 170t-210.5 189l107 123q74 -100 181.5 -221t190.5 -195zM551 123h317l-30 -123h-770l24 123h309l226 1163h-316l25 123h770l-25 -123h-305z" />
    <glyph glyph-name="Iacute" unicode="&#xcd;" horiz-adv-x="1120" 
d="M551 1640q101 70 232.5 182t217.5 203l109 -124q-94 -79 -243.5 -170t-282.5 -158zM551 123h317l-30 -123h-770l24 123h309l226 1163h-316l25 123h770l-25 -123h-305z" />
    <glyph glyph-name="Icircumflex" unicode="&#xce;" horiz-adv-x="1120" 
d="M1028 1573l-209 266l-336 -256l-69 82l432 334h2l285 -342zM551 123h317l-30 -123h-770l24 123h309l226 1163h-316l25 123h770l-25 -123h-305z" />
    <glyph glyph-name="Idieresis" unicode="&#xcf;" horiz-adv-x="1120" 
d="M1049 1606l-154 -2l72 294l172 5zM604 1602l-153 -5l71 295l170 4zM551 123h317l-30 -123h-770l24 123h309l226 1163h-316l25 123h770l-25 -123h-305z" />
    <glyph glyph-name="Eth" unicode="&#xd0;" horiz-adv-x="1425" 
d="M1315 864q0 -131 -31.5 -251t-95 -225t-159.5 -186t-225 -135t-291 -71.5t-357 4.5l125 655h-168l24 119h168l121 633q276 43 474.5 -2.5t306.5 -183t108 -357.5zM782 655h-352l-102 -536q170 -11 310 21t237 98t163.5 161.5t97.5 207.5t31 239q0 250 -157.5 362.5
t-456.5 83.5l-100 -518h352z" />
    <glyph glyph-name="Ntilde" unicode="&#xd1;" horiz-adv-x="1492" 
d="M1143 1716q39 0 87.5 59t117.5 175l75 -47q-169 -306 -313 -306q-38 0 -72 25t-58 60.5t-46 71t-46.5 60.5t-49.5 25q-40 0 -90 -57t-115 -166l-76 47q166 295 315 295q38 0 72 -25t57.5 -60.5t45.5 -71t46.5 -60.5t49.5 -25zM977 0l-457 1217h-14l-232 -1217h-139
l273 1405l192 8l442 -1173h15l221 1169h139l-272 -1409h-168z" />
    <glyph glyph-name="Ograve" unicode="&#xd2;" horiz-adv-x="1486" 
d="M1141 1647l-41 -66q-100 67 -228.5 170.5t-209.5 187.5l106 123q73 -99 181 -219.5t192 -195.5zM899 1440q213 0 346 -151.5t133 -411.5q0 -246 -98.5 -455t-267 -331t-365.5 -122q-214 0 -346.5 153t-132.5 413q0 245 98.5 453.5t267 330t365.5 121.5zM680 100
q155 0 281.5 103t197 275t70.5 374q0 213 -101.5 335t-259.5 122q-156 0 -283 -102.5t-197.5 -274t-70.5 -373.5q0 -214 101 -336.5t262 -122.5z" />
    <glyph glyph-name="Oacute" unicode="&#xd3;" horiz-adv-x="1486" 
d="M735 1665q102 70 234 182t217 203l108 -125q-94 -79 -243.5 -170t-282.5 -158zM899 1440q213 0 346 -151.5t133 -411.5q0 -246 -98.5 -455t-267 -331t-365.5 -122q-214 0 -346.5 153t-132.5 413q0 245 98.5 453.5t267 330t365.5 121.5zM680 100q155 0 281.5 103t197 275
t70.5 374q0 213 -101.5 335t-259.5 122q-156 0 -283 -102.5t-197.5 -274t-70.5 -373.5q0 -214 101 -336.5t262 -122.5z" />
    <glyph glyph-name="Ocircumflex" unicode="&#xd4;" horiz-adv-x="1486" 
d="M1212 1597l-208 267l-336 -256l-70 82l432 333h2l285 -342zM899 1440q213 0 346 -151.5t133 -411.5q0 -246 -98.5 -455t-267 -331t-365.5 -122q-214 0 -346.5 153t-132.5 413q0 245 98.5 453.5t267 330t365.5 121.5zM680 100q155 0 281.5 103t197 275t70.5 374
q0 213 -101.5 335t-259.5 122q-156 0 -283 -102.5t-197.5 -274t-70.5 -373.5q0 -214 101 -336.5t262 -122.5z" />
    <glyph glyph-name="Otilde" unicode="&#xd5;" horiz-adv-x="1486" 
d="M1139 1739q39 0 87 58.5t117 174.5l76 -47q-169 -305 -313 -305q-38 0 -72 25t-58 60.5t-46 71t-46.5 60.5t-49.5 25q-40 0 -90 -57t-115 -167l-76 48q166 294 315 294q38 0 72 -25t57.5 -60t45.5 -70.5t46.5 -60.5t49.5 -25zM899 1440q213 0 346 -151.5t133 -411.5
q0 -246 -98.5 -455t-267 -331t-365.5 -122q-214 0 -346.5 153t-132.5 413q0 245 98.5 453.5t267 330t365.5 121.5zM680 100q155 0 281.5 103t197 275t70.5 374q0 213 -101.5 335t-259.5 122q-156 0 -283 -102.5t-197.5 -274t-70.5 -373.5q0 -214 101 -336.5t262 -122.5z" />
    <glyph glyph-name="Odieresis" unicode="&#xd6;" horiz-adv-x="1486" 
d="M1233 1630l-154 -2l72 295l172 4zM788 1626l-153 -4l72 295l170 4zM899 1440q213 0 346 -151.5t133 -411.5q0 -246 -98.5 -455t-267 -331t-365.5 -122q-214 0 -346.5 153t-132.5 413q0 245 98.5 453.5t267 330t365.5 121.5zM680 100q155 0 281.5 103t197 275t70.5 374
q0 213 -101.5 335t-259.5 122q-156 0 -283 -102.5t-197.5 -274t-70.5 -373.5q0 -214 101 -336.5t262 -122.5z" />
    <glyph glyph-name="multiply" unicode="&#xd7;" 
d="M926 217l-277 346l-395 -330l-84 107l393 328l-276 346l106 90l279 -346l393 327l84 -106l-393 -328l278 -344z" />
    <glyph glyph-name="Oslash" unicode="&#xd8;" horiz-adv-x="1486" 
d="M315 559q0 -124 35 -217l783 836q-101 131 -267 131q-156 0 -283 -102.5t-197.5 -274t-70.5 -373.5zM678 100q155 0 281.5 103t197 275t70.5 374q0 122 -37 223l-784 -837q103 -138 272 -138zM645 -31q-216 0 -348 154l-164 -178l-84 73l187 199q-70 134 -70 318
q0 245 98.5 453.5t267 330t365.5 121.5q213 0 342 -148l164 174l86 -73l-184 -195q71 -136 71 -321q0 -246 -98.5 -455t-267 -331t-365.5 -122z" />
    <glyph glyph-name="Ugrave" unicode="&#xd9;" horiz-adv-x="1439" 
d="M1118 1622l-41 -66q-99 66 -227.5 170t-210.5 189l106 123q74 -100 182 -220.5t191 -195.5zM381 590q-93 -488 274 -488q159 0 259.5 96.5t142.5 307.5l174 903h149l-176 -903q-52 -270 -201.5 -402.5t-365.5 -132.5q-72 0 -133.5 14t-116 45.5t-91 81t-60 120
t-22.5 163.5t22 211l155 803h150z" />
    <glyph glyph-name="Uacute" unicode="&#xda;" horiz-adv-x="1439" 
d="M715 1640q101 70 232.5 182t217.5 203l109 -124q-94 -79 -243.5 -170t-282.5 -158zM381 590q-93 -488 274 -488q159 0 259.5 96.5t142.5 307.5l174 903h149l-176 -903q-52 -270 -201.5 -402.5t-365.5 -132.5q-72 0 -133.5 14t-116 45.5t-91 81t-60 120t-22.5 163.5
t22 211l155 803h150z" />
    <glyph glyph-name="Ucircumflex" unicode="&#xdb;" horiz-adv-x="1439" 
d="M1192 1573l-209 266l-336 -256l-69 82l432 334h2l284 -342zM381 590q-93 -488 274 -488q159 0 259.5 96.5t142.5 307.5l174 903h149l-176 -903q-52 -270 -201.5 -402.5t-365.5 -132.5q-72 0 -133.5 14t-116 45.5t-91 81t-60 120t-22.5 163.5t22 211l155 803h150z" />
    <glyph glyph-name="Udieresis" unicode="&#xdc;" horiz-adv-x="1439" 
d="M1212 1606l-153 -2l71 294l173 5zM768 1602l-154 -5l72 295l170 4zM381 590q-93 -488 274 -488q159 0 259.5 96.5t142.5 307.5l174 903h149l-176 -903q-52 -270 -201.5 -402.5t-365.5 -132.5q-72 0 -133.5 14t-116 45.5t-91 81t-60 120t-22.5 163.5t22 211l155 803h150z
" />
    <glyph glyph-name="Yacute" unicode="&#xdd;" horiz-adv-x="1290" 
d="M641 1645q102 70 234 182t217 203l108 -125q-94 -79 -243.5 -170t-282.5 -158zM612 0h-149l94 483l-303 922l154 8l251 -799h5l546 795h162l-670 -944z" />
    <glyph glyph-name="Thorn" unicode="&#xde;" horiz-adv-x="1236" 
d="M287 0h-150l273 1407h149l-43 -221q169 11 296.5 -12.5t203.5 -76t113.5 -124t37.5 -162.5q0 -235 -220.5 -385.5t-614.5 -187.5zM1020 786q0 148 -132.5 224t-395.5 49l-132 -678q315 0 487.5 110t172.5 295z" />
    <glyph glyph-name="germandbls" unicode="&#xdf;" horiz-adv-x="1273" 
d="M461 -14l20 143q184 -21 295.5 -6t159 52.5t47.5 100.5q0 177 -383 461q220 197 309.5 321t89.5 234q0 77 -47 125.5t-131 48.5q-50 0 -91.5 -18.5t-83.5 -64t-78 -120.5t-70.5 -191.5t-65.5 -272.5l-153 -799h-144l156 788q43 221 103 379t134 249.5t155 133t177 41.5
q135 0 210 -74.5t75 -189.5q0 -125 -89.5 -261.5t-273.5 -295.5q340 -263 340 -467q0 -55 -21.5 -103.5t-71.5 -92t-124.5 -73t-188.5 -43t-255 -5.5z" />
    <glyph glyph-name="agrave" unicode="&#xe0;" horiz-adv-x="1257" 
d="M985 1331l-41 -65q-100 67 -228.5 170.5t-209.5 187.5l106 123q74 -100 182 -220.5t191 -195.5zM422 115q75 0 183.5 65t201.5 160l125 625q-130 36 -232 36q-117 0 -218.5 -92t-158.5 -239.5t-57 -309.5q0 -120 43.5 -182.5t112.5 -62.5zM1178 84q-98 -57 -172 -82.5
t-120 -20.5t-73 33t-32 79.5t3 119.5q-106 -105 -220.5 -171.5t-205.5 -66.5q-105 0 -170 89.5t-65 257.5q0 155 50.5 301t138 257t215 178.5t272.5 67.5q129 0 297 -43l-158 -807q-21 -84 -12.5 -124.5t58.5 -38.5t171 47z" />
    <glyph glyph-name="aacute" unicode="&#xe1;" horiz-adv-x="1257" 
d="M582 1350q101 70 232.5 182t217.5 203l109 -125q-94 -79 -243.5 -169.5t-283.5 -158.5zM422 115q75 0 183.5 65t201.5 160l125 625q-130 36 -232 36q-117 0 -218.5 -92t-158.5 -239.5t-57 -309.5q0 -120 43.5 -182.5t112.5 -62.5zM1178 84q-98 -57 -172 -82.5t-120 -20.5
t-73 33t-32 79.5t3 119.5q-106 -105 -220.5 -171.5t-205.5 -66.5q-105 0 -170 89.5t-65 257.5q0 155 50.5 301t138 257t215 178.5t272.5 67.5q129 0 297 -43l-158 -807q-21 -84 -12.5 -124.5t58.5 -38.5t171 47z" />
    <glyph glyph-name="acircumflex" unicode="&#xe2;" horiz-adv-x="1257" 
d="M1059 1282l-209 266l-336 -256l-70 82l433 334h2l284 -342zM422 115q75 0 183.5 65t201.5 160l125 625q-130 36 -232 36q-117 0 -218.5 -92t-158.5 -239.5t-57 -309.5q0 -120 43.5 -182.5t112.5 -62.5zM1178 84q-98 -57 -172 -82.5t-120 -20.5t-73 33t-32 79.5t3 119.5
q-106 -105 -220.5 -171.5t-205.5 -66.5q-105 0 -170 89.5t-65 257.5q0 155 50.5 301t138 257t215 178.5t272.5 67.5q129 0 297 -43l-158 -807q-21 -84 -12.5 -124.5t58.5 -38.5t171 47z" />
    <glyph glyph-name="atilde" unicode="&#xe3;" horiz-adv-x="1257" 
d="M983 1423q39 0 87.5 59t117.5 175l76 -47q-169 -305 -314 -305q-38 0 -72 25t-58 60t-46 70.5t-46.5 60.5t-49.5 25q-40 0 -90 -57t-115 -166l-76 47q166 295 316 295q38 0 71.5 -25t57.5 -60.5t45.5 -71t46 -60.5t49.5 -25zM422 115q75 0 183.5 65t201.5 160l125 625
q-130 36 -232 36q-117 0 -218.5 -92t-158.5 -239.5t-57 -309.5q0 -120 43.5 -182.5t112.5 -62.5zM1178 84q-98 -57 -172 -82.5t-120 -20.5t-73 33t-32 79.5t3 119.5q-106 -105 -220.5 -171.5t-205.5 -66.5q-105 0 -170 89.5t-65 257.5q0 155 50.5 301t138 257t215 178.5
t272.5 67.5q129 0 297 -43l-158 -807q-21 -84 -12.5 -124.5t58.5 -38.5t171 47z" />
    <glyph glyph-name="adieresis" unicode="&#xe4;" horiz-adv-x="1257" 
d="M1079 1315l-153 -2l71 295l172 4zM635 1311l-154 -4l72 295l170 4zM422 115q75 0 183.5 65t201.5 160l125 625q-130 36 -232 36q-117 0 -218.5 -92t-158.5 -239.5t-57 -309.5q0 -120 43.5 -182.5t112.5 -62.5zM1178 84q-98 -57 -172 -82.5t-120 -20.5t-73 33t-32 79.5
t3 119.5q-106 -105 -220.5 -171.5t-205.5 -66.5q-105 0 -170 89.5t-65 257.5q0 155 50.5 301t138 257t215 178.5t272.5 67.5q129 0 297 -43l-158 -807q-21 -84 -12.5 -124.5t58.5 -38.5t171 47z" />
    <glyph glyph-name="aring" unicode="&#xe5;" horiz-adv-x="1257" 
d="M848 1722q112 0 183 -60.5t71 -154.5q0 -106 -83.5 -180t-209.5 -74q-110 0 -180 61.5t-70 155.5q0 106 82 179t207 73zM838 1626q-71 0 -118.5 -42t-47.5 -103q0 -56 42 -92.5t109 -36.5q70 0 118 42t48 101q0 57 -42.5 94t-108.5 37zM422 115q75 0 183.5 65t201.5 160
l125 625q-130 36 -232 36q-117 0 -218.5 -92t-158.5 -239.5t-57 -309.5q0 -120 43.5 -182.5t112.5 -62.5zM1178 84q-98 -57 -172 -82.5t-120 -20.5t-73 33t-32 79.5t3 119.5q-106 -105 -220.5 -171.5t-205.5 -66.5q-105 0 -170 89.5t-65 257.5q0 155 50.5 301t138 257
t215 178.5t272.5 67.5q129 0 297 -43l-158 -807q-21 -84 -12.5 -124.5t58.5 -38.5t171 47z" />
    <glyph glyph-name="ae" unicode="&#xe6;" horiz-adv-x="1798" 
d="M1386 1004q-110 0 -204 -70.5t-151.5 -181.5t-76.5 -240q286 22 447.5 106t161.5 226q0 73 -47.5 116.5t-129.5 43.5zM420 115q81 0 187 91t200 224q9 141 58 268t130 224q-158 79 -295 79q-118 0 -219 -92t-158 -239.5t-57 -309.5q0 -119 43.5 -182t110.5 -63zM1638 125
q-156 -81 -288 -116.5t-226.5 -28.5t-163 48t-105.5 109.5t-46 159.5q-107 -140 -226.5 -231t-220.5 -91q-105 0 -172 90t-67 257q0 155 50 301t136.5 257t211.5 178.5t265 67.5q159 0 328 -94q145 98 311 98q130 0 203.5 -67.5t73.5 -185.5q0 -198 -196.5 -315t-559.5 -144
v-15q0 -149 62 -221.5t212 -70.5t398 90z" />
    <glyph glyph-name="ccedilla" unicode="&#xe7;" horiz-adv-x="1095" 
d="M664 -389l-134 -2q10 156 -14 229.5t-74 73.5q-48 0 -95 -61t-99 -179l-80 27q87 230 194 297q-112 39 -170.5 141.5t-58.5 247.5q0 191 86.5 363.5t230 277t302.5 104.5q141 0 203.5 -85.5t50.5 -272.5l-136 -2q1 124 -36 177.5t-123 53.5q-114 0 -215 -81.5
t-160.5 -217.5t-59.5 -290q0 -461 631 -228l21 -78q-194 -105 -353 -124q109 -105 89 -371z" />
    <glyph glyph-name="egrave" unicode="&#xe8;" horiz-adv-x="1124" 
d="M971 1337l-41 -65q-100 67 -228.5 170.5t-209.5 187.5l106 123q74 -100 182 -220.5t191 -195.5zM963 125q-161 -88 -298.5 -124t-234 -21.5t-165 67.5t-101.5 136.5t-33 191.5q0 135 49 270.5t130.5 243t197.5 174.5t242 67q131 0 204.5 -67.5t73.5 -185.5
q0 -195 -198.5 -313t-557.5 -146v-21q0 -147 68.5 -219.5t219.5 -68.5t384 92zM713 1004q-109 0 -202.5 -71.5t-151 -181.5t-78.5 -239q282 24 444 108t162 224q0 73 -46 116.5t-128 43.5z" />
    <glyph glyph-name="eacute" unicode="&#xe9;" horiz-adv-x="1124" 
d="M567 1356q102 70 234 182t217 203l108 -125q-94 -79 -243.5 -170t-282.5 -158zM963 125q-161 -88 -298.5 -124t-234 -21.5t-165 67.5t-101.5 136.5t-33 191.5q0 135 49 270.5t130.5 243t197.5 174.5t242 67q131 0 204.5 -67.5t73.5 -185.5q0 -195 -198.5 -313
t-557.5 -146v-21q0 -147 68.5 -219.5t219.5 -68.5t384 92zM713 1004q-109 0 -202.5 -71.5t-151 -181.5t-78.5 -239q282 24 444 108t162 224q0 73 -46 116.5t-128 43.5z" />
    <glyph glyph-name="ecircumflex" unicode="&#xea;" horiz-adv-x="1124" 
d="M1044 1288l-208 266l-336 -256l-70 82l432 334h2l285 -342zM963 125q-161 -88 -298.5 -124t-234 -21.5t-165 67.5t-101.5 136.5t-33 191.5q0 135 49 270.5t130.5 243t197.5 174.5t242 67q131 0 204.5 -67.5t73.5 -185.5q0 -195 -198.5 -313t-557.5 -146v-21
q0 -147 68.5 -219.5t219.5 -68.5t384 92zM713 1004q-109 0 -202.5 -71.5t-151 -181.5t-78.5 -239q282 24 444 108t162 224q0 73 -46 116.5t-128 43.5z" />
    <glyph glyph-name="edieresis" unicode="&#xeb;" horiz-adv-x="1124" 
d="M1065 1321l-154 -2l72 295l172 4zM621 1317l-154 -4l72 295l170 4zM963 125q-161 -88 -298.5 -124t-234 -21.5t-165 67.5t-101.5 136.5t-33 191.5q0 135 49 270.5t130.5 243t197.5 174.5t242 67q131 0 204.5 -67.5t73.5 -185.5q0 -195 -198.5 -313t-557.5 -146v-21
q0 -147 68.5 -219.5t219.5 -68.5t384 92zM713 1004q-109 0 -202.5 -71.5t-151 -181.5t-78.5 -239q282 24 444 108t162 224q0 73 -46 116.5t-128 43.5z" />
    <glyph glyph-name="igrave" unicode="&#xec;" horiz-adv-x="829" 
d="M741 1321l-41 -66q-99 66 -227.5 170t-210.5 189l107 123q74 -100 181.5 -221t190.5 -195zM778 92q-87 -48 -162.5 -76.5t-134 -36t-103.5 2t-73.5 36.5t-43 69t-13.5 98.5t18 125.5l162 658l-285 -43l-14 80l348 102l121 -4l-184 -766q-18 -75 -17.5 -121.5t19 -74.5
t63 -31.5t111 10.5t168.5 49z" />
    <glyph glyph-name="iacute" unicode="&#xed;" horiz-adv-x="829" 
d="M338 1339q101 70 232.5 182t217.5 203l109 -125q-94 -78 -243 -168.5t-283 -158.5zM778 92q-87 -48 -162.5 -76.5t-134 -36t-103.5 2t-73.5 36.5t-43 69t-13.5 98.5t18 125.5l162 658l-285 -43l-14 80l348 102l121 -4l-184 -766q-18 -75 -17.5 -121.5t19 -74.5t63 -31.5
t111 10.5t168.5 49z" />
    <glyph glyph-name="icircumflex" unicode="&#xee;" horiz-adv-x="829" 
d="M815 1272l-209 266l-336 -256l-69 82l432 334h2l285 -342zM778 92q-87 -48 -162.5 -76.5t-134 -36t-103.5 2t-73.5 36.5t-43 69t-13.5 98.5t18 125.5l162 658l-285 -43l-14 80l348 102l121 -4l-184 -766q-18 -75 -17.5 -121.5t19 -74.5t63 -31.5t111 10.5t168.5 49z" />
    <glyph glyph-name="idieresis" unicode="&#xef;" horiz-adv-x="829" 
d="M836 1305l-154 -2l72 294l172 5zM391 1300l-153 -4l71 295l170 4zM778 92q-87 -48 -162.5 -76.5t-134 -36t-103.5 2t-73.5 36.5t-43 69t-13.5 98.5t18 125.5l162 658l-285 -43l-14 80l348 102l121 -4l-184 -766q-18 -75 -17.5 -121.5t19 -74.5t63 -31.5t111 10.5
t168.5 49z" />
    <glyph glyph-name="eth" unicode="&#xf0;" horiz-adv-x="1218" 
d="M526 -25q-179 0 -286 118.5t-107 312.5q0 126 46.5 242.5t124 202t184.5 136.5t223 51q96 0 180 -24q-45 123 -137 243l-332 -98l-29 101l289 83q-93 100 -195 179l103 94q134 -111 235 -230l262 76l25 -100l-219 -64q194 -274 194 -600q0 -208 -72.5 -373.5t-201 -257.5
t-287.5 -92zM563 98q172 0 277.5 165.5t105.5 422.5q0 94 -14 168q-144 64 -275 64q-108 0 -196 -67.5t-135 -176.5t-47 -234q0 -156 77.5 -249t206.5 -93z" />
    <glyph glyph-name="ntilde" unicode="&#xf1;" horiz-adv-x="1355" 
d="M1010 1434q39 0 87 58.5t117 174.5l76 -47q-169 -305 -313 -305q-38 0 -72 25t-58 60t-46 70.5t-46.5 60.5t-49.5 25q-40 0 -90 -57t-115 -166l-76 47q166 295 315 295q38 0 72 -25t57.5 -60t45.5 -70.5t46.5 -60.5t49.5 -25zM1253 80q-103 -59 -182.5 -83.5t-127.5 -15
t-72.5 42.5t-24.5 87q0 73 39.5 221t79 298t39.5 228q0 135 -134 135q-93 0 -208.5 -69t-241.5 -207q-51 -268 -141 -717h-144q137 694 174 921q14 88 27 179l143 10q-4 -23 -19 -121t-22 -141q130 139 263.5 210.5t250.5 71.5q105 0 156 -56.5t51 -149.5q0 -95 -40 -256.5
t-80 -305.5t-40 -198q0 -20 5.5 -32t19.5 -18t40 -3t67 15t100 34z" />
    <glyph glyph-name="ograve" unicode="&#xf2;" horiz-adv-x="1236" 
d="M956 1337l-41 -65q-100 67 -228.5 170.5t-209.5 187.5l107 123q74 -100 181.5 -221t190.5 -195zM133 420q0 143 48 274.5t128 226.5t188.5 152t223.5 57q175 0 279 -118t104 -328q0 -143 -48 -274.5t-127.5 -226.5t-187.5 -151.5t-223 -56.5q-177 0 -281 118t-104 327z
M958 651q0 167 -73 262t-199 95q-118 0 -211.5 -76.5t-143.5 -202.5t-50 -276q0 -167 72.5 -261t199.5 -94q117 0 210.5 76t144 202t50.5 275z" />
    <glyph glyph-name="oacute" unicode="&#xf3;" horiz-adv-x="1236" 
d="M553 1356q102 70 234 182t217 203l108 -125q-94 -79 -243.5 -170t-282.5 -158zM133 420q0 143 48 274.5t128 226.5t188.5 152t223.5 57q175 0 279 -118t104 -328q0 -143 -48 -274.5t-127.5 -226.5t-187.5 -151.5t-223 -56.5q-177 0 -281 118t-104 327zM958 651
q0 167 -73 262t-199 95q-118 0 -211.5 -76.5t-143.5 -202.5t-50 -276q0 -167 72.5 -261t199.5 -94q117 0 210.5 76t144 202t50.5 275z" />
    <glyph glyph-name="ocircumflex" unicode="&#xf4;" horiz-adv-x="1236" 
d="M1030 1288l-209 266l-336 -256l-69 82l432 334h2l285 -342zM133 420q0 143 48 274.5t128 226.5t188.5 152t223.5 57q175 0 279 -118t104 -328q0 -143 -48 -274.5t-127.5 -226.5t-187.5 -151.5t-223 -56.5q-177 0 -281 118t-104 327zM958 651q0 167 -73 262t-199 95
q-118 0 -211.5 -76.5t-143.5 -202.5t-50 -276q0 -167 72.5 -261t199.5 -94q117 0 210.5 76t144 202t50.5 275z" />
    <glyph glyph-name="otilde" unicode="&#xf5;" horiz-adv-x="1236" 
d="M954 1430q40 0 88.5 59t116.5 174l76 -47q-169 -305 -313 -305q-38 0 -72 25t-58 60t-46.5 70.5t-47 60.5t-49.5 25q-40 0 -90 -57t-115 -166l-75 47q166 295 315 295q38 0 71.5 -25t57.5 -60t45.5 -70.5t46 -60.5t49.5 -25zM133 420q0 143 48 274.5t128 226.5t188.5 152
t223.5 57q175 0 279 -118t104 -328q0 -143 -48 -274.5t-127.5 -226.5t-187.5 -151.5t-223 -56.5q-177 0 -281 118t-104 327zM958 651q0 167 -73 262t-199 95q-118 0 -211.5 -76.5t-143.5 -202.5t-50 -276q0 -167 72.5 -261t199.5 -94q117 0 210.5 76t144 202t50.5 275z" />
    <glyph glyph-name="odieresis" unicode="&#xf6;" horiz-adv-x="1236" 
d="M1051 1321l-154 -2l72 295l172 4zM606 1317l-153 -4l71 295l170 4zM133 420q0 143 48 274.5t128 226.5t188.5 152t223.5 57q175 0 279 -118t104 -328q0 -143 -48 -274.5t-127.5 -226.5t-187.5 -151.5t-223 -56.5q-177 0 -281 118t-104 327zM958 651q0 167 -73 262
t-199 95q-118 0 -211.5 -76.5t-143.5 -202.5t-50 -276q0 -167 72.5 -261t199.5 -94q117 0 210.5 76t144 202t50.5 275z" />
    <glyph glyph-name="divide" unicode="&#xf7;" 
d="M805 965h-180l41 196h178zM1157 725l-27 -129h-968l24 129h971zM653 162h-180l39 194h178z" />
    <glyph glyph-name="oslash" unicode="&#xf8;" horiz-adv-x="1236" 
d="M281 453q0 -89 22 -160l580 622q-71 93 -197 93q-118 0 -211.5 -76.5t-143.5 -202.5t-50 -276zM553 98q117 0 210.5 76t144 202t50.5 275q0 89 -22 160l-580 -623q72 -90 197 -90zM518 -25q-166 0 -266 103l-129 -137l-82 71l145 156q-53 103 -53 252q0 143 48 274.5
t128 226.5t188.5 152t223.5 57q165 0 266 -104l129 139l82 -73l-147 -156q53 -103 53 -252q0 -143 -48 -274.5t-127.5 -226.5t-187.5 -151.5t-223 -56.5z" />
    <glyph glyph-name="ugrave" unicode="&#xf9;" horiz-adv-x="1374" 
d="M1014 1321l-41 -66q-99 66 -227.5 170t-210.5 189l106 123q74 -100 182 -220.5t191 -195.5zM1290 84q-128 -72 -214 -93t-128 5.5t-53.5 91.5t8.5 166q-129 -141 -241 -210t-220 -69q-133 0 -189 104.5t-9 315.5l129 574l-240 -45l-14 80l305 104l123 -4l-160 -698
q-35 -151 -0.5 -223t121.5 -72q92 0 191 67t231 211l143 715h141l-163 -828q-11 -62 -13.5 -101.5t20.5 -53.5t71 -4.5t139 43.5z" />
    <glyph glyph-name="uacute" unicode="&#xfa;" horiz-adv-x="1374" 
d="M610 1339q102 70 234 182t217 203l108 -125q-94 -78 -243 -168.5t-283 -158.5zM1290 84q-128 -72 -214 -93t-128 5.5t-53.5 91.5t8.5 166q-129 -141 -241 -210t-220 -69q-133 0 -189 104.5t-9 315.5l129 574l-240 -45l-14 80l305 104l123 -4l-160 -698
q-35 -151 -0.5 -223t121.5 -72q92 0 191 67t231 211l143 715h141l-163 -828q-11 -62 -13.5 -101.5t20.5 -53.5t71 -4.5t139 43.5z" />
    <glyph glyph-name="ucircumflex" unicode="&#xfb;" horiz-adv-x="1374" 
d="M1087 1272l-208 266l-336 -256l-70 82l432 334h2l285 -342zM1290 84q-128 -72 -214 -93t-128 5.5t-53.5 91.5t8.5 166q-129 -141 -241 -210t-220 -69q-133 0 -189 104.5t-9 315.5l129 574l-240 -45l-14 80l305 104l123 -4l-160 -698q-35 -151 -0.5 -223t121.5 -72
q92 0 191 67t231 211l143 715h141l-163 -828q-11 -62 -13.5 -101.5t20.5 -53.5t71 -4.5t139 43.5z" />
    <glyph glyph-name="udieresis" unicode="&#xfc;" horiz-adv-x="1374" 
d="M1108 1305l-154 -2l72 294l172 5zM664 1300l-154 -4l72 295l170 4zM1290 84q-128 -72 -214 -93t-128 5.5t-53.5 91.5t8.5 166q-129 -141 -241 -210t-220 -69q-133 0 -189 104.5t-9 315.5l129 574l-240 -45l-14 80l305 104l123 -4l-160 -698q-35 -151 -0.5 -223t121.5 -72
q92 0 191 67t231 211l143 715h141l-163 -828q-11 -62 -13.5 -101.5t20.5 -53.5t71 -4.5t139 43.5z" />
    <glyph glyph-name="yacute" unicode="&#xfd;" horiz-adv-x="1273" 
d="M610 1356q102 70 234 182t217 203l108 -125q-94 -79 -243.5 -170t-282.5 -158zM952 -193q-120 -235 -817 -194l23 151q216 -20 359 -12.5t212.5 25t95.5 43.5q16 16 25 45.5t10.5 81t0 97t-4.5 131t-4 147.5q-106 -117 -230 -191t-239 -74q-413 0 -21 1045l144 6
q-80 -223 -125 -389t-56 -265t4 -159t45 -81t77 -21q82 0 191.5 68.5t211.5 184.5q10 144 52.5 307t93 268t83.5 105q35 0 66 -17t31 -42q0 -66 -61.5 -260.5t-141.5 -347.5q-2 -23 -2 -72q0 -73 4.5 -179.5t6.5 -167t-5.5 -126.5t-28.5 -107z" />
    <glyph glyph-name="thorn" unicode="&#xfe;" horiz-adv-x="1243" 
d="M545 98q116 0 216.5 91.5t157 237t56.5 304.5q0 129 -47 196.5t-121 67.5q-78 0 -183.5 -66t-197.5 -163l-123 -627q151 -41 242 -41zM201 -387l-144 -12l385 1984l146 12l-137 -698q106 102 216.5 166.5t200.5 64.5q110 0 180 -95.5t70 -272.5q0 -122 -31.5 -239
t-91.5 -215t-141 -172.5t-186.5 -116.5t-221.5 -42q-72 0 -172 19z" />
    <glyph glyph-name="ydieresis" unicode="&#xff;" horiz-adv-x="1273" 
d="M1108 1321l-154 -2l72 295l172 4zM664 1317l-154 -4l72 295l170 4zM952 -193q-120 -235 -817 -194l23 151q216 -20 359 -12.5t212.5 25t95.5 43.5q16 16 25 45.5t10.5 81t0 97t-4.5 131t-4 147.5q-106 -117 -230 -191t-239 -74q-413 0 -21 1045l144 6q-80 -223 -125 -389
t-56 -265t4 -159t45 -81t77 -21q82 0 191.5 68.5t211.5 184.5q10 144 52.5 307t93 268t83.5 105q35 0 66 -17t31 -42q0 -66 -61.5 -260.5t-141.5 -347.5q-2 -23 -2 -72q0 -73 4.5 -179.5t6.5 -167t-5.5 -126.5t-28.5 -107z" />
    <glyph glyph-name="Amacron" unicode="&#x100;" horiz-adv-x="1353" 
d="M1272 1823l-25 -129h-684l27 129h682zM991 -6q-22 211 -51 463h-549q-168 -331 -229 -457h-152q352 708 733 1415h213q111 -747 183 -1409zM819 1278q-148 -275 -368 -705h475q-46 374 -90 705h-17z" />
    <glyph glyph-name="amacron" unicode="&#x101;" horiz-adv-x="1257" 
d="M1180 1528l-25 -129h-684l27 129h682zM422 115q75 0 183.5 65t201.5 160l125 625q-130 36 -232 36q-117 0 -218.5 -92t-158.5 -239.5t-57 -309.5q0 -120 43.5 -182.5t112.5 -62.5zM1178 84q-98 -57 -172 -82.5t-120 -20.5t-73 33t-32 79.5t3 119.5
q-106 -105 -220.5 -171.5t-205.5 -66.5q-105 0 -170 89.5t-65 257.5q0 155 50.5 301t138 257t215 178.5t272.5 67.5q129 0 297 -43l-158 -807q-21 -84 -12.5 -124.5t58.5 -38.5t171 47z" />
    <glyph glyph-name="Abreve" unicode="&#x102;" horiz-adv-x="1353" 
d="M1249 1974l86 -57q-235 -324 -444 -324q-210 0 -324 330l115 62q53 -145 108.5 -207t133.5 -62q77 0 149.5 61.5t175.5 196.5zM991 -6q-22 211 -51 463h-549q-168 -331 -229 -457h-152q352 708 733 1415h213q111 -747 183 -1409zM819 1278q-148 -275 -368 -705h475
q-46 374 -90 705h-17z" />
    <glyph glyph-name="abreve" unicode="&#x103;" horiz-adv-x="1257" 
d="M1157 1679l86 -57q-235 -324 -444 -324q-210 0 -324 330l115 62q53 -145 108 -207t133 -62q77 0 150 61.5t176 196.5zM422 115q75 0 183.5 65t201.5 160l125 625q-130 36 -232 36q-117 0 -218.5 -92t-158.5 -239.5t-57 -309.5q0 -120 43.5 -182.5t112.5 -62.5zM1178 84
q-98 -57 -172 -82.5t-120 -20.5t-73 33t-32 79.5t3 119.5q-106 -105 -220.5 -171.5t-205.5 -66.5q-105 0 -170 89.5t-65 257.5q0 155 50.5 301t138 257t215 178.5t272.5 67.5q129 0 297 -43l-158 -807q-21 -84 -12.5 -124.5t58.5 -38.5t171 47z" />
    <glyph glyph-name="Aogonek" unicode="&#x104;" horiz-adv-x="1353" 
d="M1073 -369q-110 -62 -201.5 -84t-148 -6.5t-87 52.5t-30.5 88q0 178 381 350q-5 53 -47 426h-549q-168 -331 -229 -457h-152q352 708 733 1415h213q111 -747 183 -1409q-202 -73 -299 -145.5t-97 -136.5q0 -24 10.5 -41.5t34.5 -27t59.5 -9.5t88 14t117.5 41zM819 1278
q-148 -275 -368 -705h475q-46 374 -90 705h-17z" />
    <glyph glyph-name="aogonek" unicode="&#x105;" horiz-adv-x="1257" 
d="M1077 -373q-89 -50 -166 -74t-131 -22.5t-93.5 20.5t-58 51t-18.5 72q0 158 262 328q-113 19 -88 211q-106 -105 -220.5 -171.5t-205.5 -66.5q-105 0 -170 89.5t-65 257.5q0 155 50.5 301t138 257t215 178.5t272.5 67.5q129 0 297 -43l-158 -807q-21 -84 -12.5 -124.5
t58.5 -38.5t171 47l23 -76q-222 -104 -326 -197.5t-104 -167.5q0 -24 10.5 -41.5t34.5 -27t59 -9t87.5 14.5t117.5 41zM422 115q75 0 183.5 65t201.5 160l125 625q-130 36 -232 36q-117 0 -218.5 -92t-158.5 -239.5t-57 -309.5q0 -120 43.5 -182.5t112.5 -62.5z" />
    <glyph glyph-name="Cacute" unicode="&#x106;" horiz-adv-x="1335" 
d="M717 1663q101 70 232.5 182t217.5 203l109 -125q-94 -79 -243.5 -170t-282.5 -158zM903 1440q190 0 263 -125.5t65 -388.5l-144 -2q1 81 -3.5 136.5t-18 105.5t-38 79t-64 45.5t-95.5 16.5q-120 0 -225.5 -68t-175.5 -177.5t-110 -247t-40 -277.5q0 -307 204.5 -397
t584.5 50l-12 -139q-210 -73 -382.5 -78.5t-292.5 53t-185.5 181t-65.5 299.5q0 239 98 454t268.5 347.5t368.5 132.5z" />
    <glyph glyph-name="cacute" unicode="&#x107;" horiz-adv-x="1095" 
d="M563 1354q102 70 234 182t217 203l108 -125q-94 -79 -243.5 -170t-282.5 -158zM1006 772l-136 -2q1 124 -36 177.5t-123 53.5q-114 0 -215 -81.5t-160.5 -217.5t-59.5 -290q0 -461 631 -228l21 -78q-152 -81 -282 -112t-223 -13.5t-159.5 71.5t-98.5 139.5t-32 193.5
q0 191 86.5 363.5t230 277t302.5 104.5q141 0 203.5 -85.5t50.5 -272.5z" />
    <glyph glyph-name="Cdotaccent" unicode="&#x10a;" horiz-adv-x="1335" 
d="M991 1624l-153 -2l71 295l172 2zM903 1440q190 0 263 -125.5t65 -388.5l-144 -2q1 81 -3.5 136.5t-18 105.5t-38 79t-64 45.5t-95.5 16.5q-120 0 -225.5 -68t-175.5 -177.5t-110 -247t-40 -277.5q0 -307 204.5 -397t584.5 50l-12 -139q-210 -73 -382.5 -78.5t-292.5 53
t-185.5 181t-65.5 299.5q0 239 98 454t268.5 347.5t368.5 132.5z" />
    <glyph glyph-name="cdotaccent" unicode="&#x10b;" horiz-adv-x="1095" 
d="M838 1315l-154 -2l72 295l172 2zM1006 772l-136 -2q1 124 -36 177.5t-123 53.5q-114 0 -215 -81.5t-160.5 -217.5t-59.5 -290q0 -461 631 -228l21 -78q-152 -81 -282 -112t-223 -13.5t-159.5 71.5t-98.5 139.5t-32 193.5q0 191 86.5 363.5t230 277t302.5 104.5
q141 0 203.5 -85.5t50.5 -272.5z" />
    <glyph glyph-name="Ccaron" unicode="&#x10c;" horiz-adv-x="1335" 
d="M922 1587h-2l-285 342l104 84l211 -266l334 258l70 -82zM903 1440q190 0 263 -125.5t65 -388.5l-144 -2q1 81 -3.5 136.5t-18 105.5t-38 79t-64 45.5t-95.5 16.5q-120 0 -225.5 -68t-175.5 -177.5t-110 -247t-40 -277.5q0 -307 204.5 -397t584.5 50l-12 -139
q-210 -73 -382.5 -78.5t-292.5 53t-185.5 181t-65.5 299.5q0 239 98 454t268.5 347.5t368.5 132.5z" />
    <glyph glyph-name="ccaron" unicode="&#x10d;" horiz-adv-x="1095" 
d="M768 1278h-2l-285 342l105 84l211 -266l333 258l70 -82zM1006 772l-136 -2q1 124 -36 177.5t-123 53.5q-114 0 -215 -81.5t-160.5 -217.5t-59.5 -290q0 -461 631 -228l21 -78q-152 -81 -282 -112t-223 -13.5t-159.5 71.5t-98.5 139.5t-32 193.5q0 191 86.5 363.5t230 277
t302.5 104.5q141 0 203.5 -85.5t50.5 -272.5z" />
    <glyph glyph-name="Dcaron" unicode="&#x10e;" horiz-adv-x="1402" 
d="M864 1583h-2l-284 342l104 84l211 -266l334 258l69 -82zM1296 864q0 -158 -44.5 -298.5t-139 -257t-229.5 -195t-327 -109.5t-421 -4l273 1407q416 65 652 -74t236 -469zM1147 846q0 250 -158 362.5t-457 83.5l-225 -1173q170 -11 310.5 21t237.5 98t163.5 161.5
t97.5 207.5t31 239z" />
    <glyph glyph-name="dcaron" unicode="&#x10f;" horiz-adv-x="1275" 
d="M1413 1812l176 11q-13 -304 -229 -570l-64 33q80 139 102 258.5t15 267.5zM440 113q80 0 186 62.5t193 156.5l123 635q-140 41 -242 41q-116 0 -216.5 -91t-157 -236t-56.5 -304q0 -127 47.5 -195.5t122.5 -68.5zM1194 84q-96 -56 -169.5 -81.5t-119.5 -21.5t-74 31
t-33.5 77t1.5 116q-105 -102 -217 -166t-203 -64q-112 0 -182 96t-70 273q0 152 50 294.5t137 251.5t214 174.5t271 65.5q73 0 174 -16l90 471l145 12l-256 -1314q-7 -36 -10 -59.5t-3 -46t4.5 -34.5t15.5 -21t28 -9.5t43 4t59.5 15.5t79.5 28z" />
    <glyph glyph-name="Dcroat" unicode="&#x110;" horiz-adv-x="1425" 
d="M1315 864q0 -131 -31.5 -251t-95 -225t-159.5 -186t-225 -135t-291 -71.5t-357 4.5l125 655h-168l24 119h168l121 633q276 43 474.5 -2.5t306.5 -183t108 -357.5zM782 655h-352l-102 -536q170 -11 310 21t237 98t163.5 161.5t97.5 207.5t31 239q0 250 -157.5 362.5
t-456.5 83.5l-100 -518h352z" />
    <glyph glyph-name="dcroat" unicode="&#x111;" horiz-adv-x="1275" 
d="M440 113q80 0 186 62.5t193 156.5l123 635q-140 41 -242 41q-116 0 -216.5 -91t-157 -236t-56.5 -304q0 -127 47.5 -195.5t122.5 -68.5zM1198 84q-96 -56 -169.5 -81.5t-119.5 -21.5t-75 31t-35.5 77t0.5 116q-102 -101 -215.5 -165.5t-204.5 -64.5q-112 0 -182 96
t-70 273q0 152 50 294.5t137 251.5t214 174.5t271 65.5q73 0 174 -16l39 207h-312l21 106h311l31 158l145 12l-32 -170h165l-22 -106h-164l-203 -1038q-9 -49 -12 -77t1.5 -52.5t18.5 -32.5t42.5 -8t69.5 12t104 35z" />
    <glyph glyph-name="Emacron" unicode="&#x112;" horiz-adv-x="1202" 
d="M1217 1819l-25 -129h-684l27 129h682zM963 133l-37 -133h-791l273 1409h796l-24 -133h-650l-96 -504h555l-24 -117h-553l-101 -522h652z" />
    <glyph glyph-name="emacron" unicode="&#x113;" horiz-adv-x="1124" 
d="M1165 1534l-24 -129h-684l26 129h682zM963 125q-161 -88 -298.5 -124t-234 -21.5t-165 67.5t-101.5 136.5t-33 191.5q0 135 49 270.5t130.5 243t197.5 174.5t242 67q131 0 204.5 -67.5t73.5 -185.5q0 -195 -198.5 -313t-557.5 -146v-21q0 -147 68.5 -219.5t219.5 -68.5
t384 92zM713 1004q-109 0 -202.5 -71.5t-151 -181.5t-78.5 -239q282 24 444 108t162 224q0 73 -46 116.5t-128 43.5z" />
    <glyph glyph-name="Ebreve" unicode="&#x114;" horiz-adv-x="1202" 
d="M1194 1970l86 -57q-235 -324 -444 -324q-210 0 -324 330l115 61q53 -145 108 -206.5t133 -61.5q77 0 150 61.5t176 196.5zM963 133l-37 -133h-791l273 1409h796l-24 -133h-650l-96 -504h555l-24 -117h-553l-101 -522h652z" />
    <glyph glyph-name="ebreve" unicode="&#x115;" horiz-adv-x="1124" 
d="M1143 1686l86 -58q-234 -323 -445 -323q-209 0 -323 329l114 62q53 -145 108.5 -207t133.5 -62q77 0 150 62t176 197zM963 125q-161 -88 -298.5 -124t-234 -21.5t-165 67.5t-101.5 136.5t-33 191.5q0 135 49 270.5t130.5 243t197.5 174.5t242 67q131 0 204.5 -67.5
t73.5 -185.5q0 -195 -198.5 -313t-557.5 -146v-21q0 -147 68.5 -219.5t219.5 -68.5t384 92zM713 1004q-109 0 -202.5 -71.5t-151 -181.5t-78.5 -239q282 24 444 108t162 224q0 73 -46 116.5t-128 43.5z" />
    <glyph glyph-name="Edotaccent" unicode="&#x116;" horiz-adv-x="1202" 
d="M893 1602l-154 -3l72 295l172 2zM963 133l-37 -133h-791l273 1409h796l-24 -133h-650l-96 -504h555l-24 -117h-553l-101 -522h652z" />
    <glyph glyph-name="edotaccent" unicode="&#x117;" horiz-adv-x="1124" 
d="M842 1317l-154 -2l72 295l172 2zM963 125q-161 -88 -298.5 -124t-234 -21.5t-165 67.5t-101.5 136.5t-33 191.5q0 135 49 270.5t130.5 243t197.5 174.5t242 67q131 0 204.5 -67.5t73.5 -185.5q0 -195 -198.5 -313t-557.5 -146v-21q0 -147 68.5 -219.5t219.5 -68.5t384 92
zM713 1004q-109 0 -202.5 -71.5t-151 -181.5t-78.5 -239q282 24 444 108t162 224q0 73 -46 116.5t-128 43.5z" />
    <glyph glyph-name="Eogonek" unicode="&#x118;" horiz-adv-x="1202" 
d="M860 -375q-110 -62 -201.5 -84t-148 -7t-87 52t-30.5 88q0 78 81 161t249 165h-588l273 1409h796l-24 -133h-650l-96 -504h555l-24 -117h-553l-101 -522h652l-37 -133q-201 -73 -298.5 -146t-97.5 -137q0 -24 10.5 -41.5t34.5 -27t59.5 -9t88 14.5t117.5 41z" />
    <glyph glyph-name="eogonek" unicode="&#x119;" horiz-adv-x="1124" 
d="M829 -373q-88 -50 -165.5 -74t-131.5 -22.5t-93 20.5t-58 51t-19 72q0 155 250 320q-76 -17 -125 -17q-170 0 -263 109.5t-93 288.5q0 135 49 270.5t130.5 243t197.5 174.5t242 67q131 0 204.5 -67.5t73.5 -185.5q0 -195 -198.5 -313t-557.5 -146v-21q0 -147 68.5 -219.5
t219.5 -68.5t384 92l19 -76q-245 -131 -354 -229t-109 -177q0 -24 10.5 -41.5t34.5 -27t59 -9t87.5 14.5t117.5 41zM713 1004q-109 0 -202.5 -71.5t-151 -181.5t-78.5 -239q282 24 444 108t162 224q0 73 -46 116.5t-128 43.5z" />
    <glyph glyph-name="Ecaron" unicode="&#x11a;" horiz-adv-x="1202" 
d="M823 1565h-2l-284 342l104 84l211 -267l334 258l69 -81zM963 133l-37 -133h-791l273 1409h796l-24 -133h-650l-96 -504h555l-24 -117h-553l-101 -522h652z" />
    <glyph glyph-name="ecaron" unicode="&#x11b;" horiz-adv-x="1124" 
d="M772 1280h-2l-285 342l105 84l211 -266l334 258l69 -82zM963 125q-161 -88 -298.5 -124t-234 -21.5t-165 67.5t-101.5 136.5t-33 191.5q0 135 49 270.5t130.5 243t197.5 174.5t242 67q131 0 204.5 -67.5t73.5 -185.5q0 -195 -198.5 -313t-557.5 -146v-21
q0 -147 68.5 -219.5t219.5 -68.5t384 92zM713 1004q-109 0 -202.5 -71.5t-151 -181.5t-78.5 -239q282 24 444 108t162 224q0 73 -46 116.5t-128 43.5z" />
    <glyph glyph-name="Gbreve" unicode="&#x11e;" horiz-adv-x="1392" 
d="M1309 1993l86 -58q-234 -323 -445 -323q-209 0 -323 330l114 61q52 -145 108 -206.5t134 -61.5q77 0 150 61.5t176 196.5zM1014 -252l-140 -2l64 270q-350 -100 -560 32t-210 456q0 178 59.5 349.5t158.5 300t238 207.5t289 79q192 0 269 -124t71 -390l-143 -2
q1 80 -4.5 136.5t-20 105.5t-40.5 78.5t-68 46t-100 16.5q-121 0 -227.5 -68t-178.5 -177.5t-113 -247t-41 -277.5q0 -280 170 -381.5t480 -8.5l92 396l145 4z" />
    <glyph glyph-name="gbreve" unicode="&#x11f;" horiz-adv-x="1243" 
d="M1167 1688l86 -58q-234 -323 -444 -323t-324 329l115 62q52 -145 108 -206.5t134 -61.5q77 0 149.5 61.5t175.5 196.5zM467 186q87 0 176 69t172 198q29 239 129 481q-135 72 -244 72q-87 0 -165.5 -50t-132.5 -131t-85.5 -184t-31.5 -207q0 -120 50.5 -184t131.5 -64z
M940 -197q-54 -108 -256.5 -160t-572.5 -30l18 151q216 -20 361.5 -12.5t217.5 24.5t97 42q26 26 27.5 85.5t-10.5 187t-13 214.5q-88 -117 -191 -187.5t-210 -70.5q-120 0 -194.5 90.5t-74.5 255.5q0 141 48.5 274.5t132 235.5t204.5 163.5t258 61.5q117 0 230 -55
q35 57 57 57q35 0 66.5 -18t31.5 -41q0 -57 -68 -239t-155 -349q-4 -78 -4 -104q-1 -95 6.5 -198.5t14 -162t3 -117t-23.5 -98.5z" />
    <glyph glyph-name="Gdotaccent" unicode="&#x120;" horiz-adv-x="1392" 
d="M1008 1624l-154 -2l72 295l172 2zM1014 -252l-140 -2l64 270q-350 -100 -560 32t-210 456q0 178 59.5 349.5t158.5 300t238 207.5t289 79q192 0 269 -124t71 -390l-143 -2q1 80 -4.5 136.5t-20 105.5t-40.5 78.5t-68 46t-100 16.5q-121 0 -227.5 -68t-178.5 -177.5
t-113 -247t-41 -277.5q0 -280 170 -381.5t480 -8.5l92 396l145 4z" />
    <glyph glyph-name="gdotaccent" unicode="&#x121;" horiz-adv-x="1243" 
d="M866 1319l-153 -2l71 295l172 2zM467 186q87 0 176 69t172 198q29 239 129 481q-135 72 -244 72q-87 0 -165.5 -50t-132.5 -131t-85.5 -184t-31.5 -207q0 -120 50.5 -184t131.5 -64zM940 -197q-54 -108 -256.5 -160t-572.5 -30l18 151q216 -20 361.5 -12.5t217.5 24.5
t97 42q26 26 27.5 85.5t-10.5 187t-13 214.5q-88 -117 -191 -187.5t-210 -70.5q-120 0 -194.5 90.5t-74.5 255.5q0 141 48.5 274.5t132 235.5t204.5 163.5t258 61.5q117 0 230 -55q35 57 57 57q35 0 66.5 -18t31.5 -41q0 -57 -68 -239t-155 -349q-4 -78 -4 -104
q-1 -95 6.5 -198.5t14 -162t3 -117t-23.5 -98.5z" />
    <glyph glyph-name="Gcommaaccent" unicode="&#x122;" horiz-adv-x="1392" 
d="M1014 -252l-140 -2l64 270q-350 -100 -560 32t-210 456q0 178 59.5 349.5t158.5 300t238 207.5t289 79q192 0 269 -124t71 -390l-143 -2q1 80 -4.5 136.5t-20 105.5t-40.5 78.5t-68 46t-100 16.5q-121 0 -227.5 -68t-178.5 -177.5t-113 -247t-41 -277.5
q0 -280 170 -381.5t480 -8.5l92 396l145 4zM383 -748q47 74 71 151t24.5 141t-7.5 130l193 7q-3 -114 -60.5 -234t-161.5 -223z" />
    <glyph glyph-name="gcommaaccent" unicode="&#x123;" horiz-adv-x="1243" 
d="M985 1722q-122 -194 -86 -422l-194 -6q5 116 62 235.5t161 223.5zM467 186q87 0 176 69t172 198q29 239 129 481q-135 72 -244 72q-87 0 -165.5 -50t-132.5 -131t-85.5 -184t-31.5 -207q0 -120 50.5 -184t131.5 -64zM940 -197q-54 -108 -256.5 -160t-572.5 -30l18 151
q216 -20 361.5 -12.5t217.5 24.5t97 42q26 26 27.5 85.5t-10.5 187t-13 214.5q-88 -117 -191 -187.5t-210 -70.5q-120 0 -194.5 90.5t-74.5 255.5q0 141 48.5 274.5t132 235.5t204.5 163.5t258 61.5q117 0 230 -55q35 57 57 57q35 0 66.5 -18t31.5 -41q0 -57 -68 -239
t-155 -349q-4 -78 -4 -104q-1 -95 6.5 -198.5t14 -162t3 -117t-23.5 -98.5z" />
    <glyph glyph-name="Hbar" unicode="&#x126;" horiz-adv-x="1519" 
d="M1147 743l53 275h-696l-53 -275h696zM1004 0l120 627h-696l-121 -627h-149l194 1012h-166l23 118h168l53 279h150l-56 -285h697l55 285h149l-53 -279h168l-22 -118h-170l-195 -1012h-149z" />
    <glyph glyph-name="hbar" unicode="&#x127;" horiz-adv-x="1351" 
d="M1253 80q-103 -59 -182.5 -83.5t-127.5 -15t-72.5 42.5t-24.5 87q0 74 39.5 222.5t79 298.5t39.5 228q0 133 -136 133q-92 0 -208.5 -70.5t-243.5 -209.5l-137 -713h-144l256 1321h-166l21 106h166l30 158l146 12l-33 -170h311l-20 -106h-311l-91 -467q129 136 260.5 206
t247.5 70q105 0 156 -56.5t51 -149.5q0 -95 -40 -256.5t-80 -305.5t-40 -198q0 -20 5.5 -32t19.5 -18t40 -3t67 15t100 34z" />
    <glyph glyph-name="Imacron" unicode="&#x12a;" horiz-adv-x="1120" 
d="M1149 1819l-25 -129h-684l27 129h682zM551 123h317l-30 -123h-770l24 123h309l226 1163h-316l25 123h770l-25 -123h-305z" />
    <glyph glyph-name="imacron" unicode="&#x12b;" horiz-adv-x="829" 
d="M936 1518l-25 -129h-684l27 129h682zM778 92q-87 -48 -162.5 -76.5t-134 -36t-103.5 2t-73.5 36.5t-43 69t-13.5 98.5t18 125.5l162 658l-285 -43l-14 80l348 102l121 -4l-184 -766q-18 -75 -17.5 -121.5t19 -74.5t63 -31.5t111 10.5t168.5 49z" />
    <glyph glyph-name="Ibreve" unicode="&#x12c;" horiz-adv-x="1120" 
d="M1124 1970l86 -57q-235 -324 -444 -324q-210 0 -324 330l115 61q52 -145 108 -206.5t134 -61.5q77 0 149.5 61.5t175.5 196.5zM551 123h317l-30 -123h-770l24 123h309l226 1163h-316l25 123h770l-25 -123h-305z" />
    <glyph glyph-name="ibreve" unicode="&#x12d;" horiz-adv-x="829" 
d="M913 1669l86 -57q-235 -324 -444 -324q-210 0 -324 330l115 61q52 -145 108 -206.5t134 -61.5q77 0 149.5 61.5t175.5 196.5zM778 92q-87 -48 -162.5 -76.5t-134 -36t-103.5 2t-73.5 36.5t-43 69t-13.5 98.5t18 125.5l162 658l-285 -43l-14 80l348 102l121 -4l-184 -766
q-18 -75 -17.5 -121.5t19 -74.5t63 -31.5t111 10.5t168.5 49z" />
    <glyph glyph-name="Iogonek" unicode="&#x12e;" horiz-adv-x="1120" 
d="M618 -373q-107 -61 -197.5 -83t-147.5 -7.5t-89 52t-32 92.5q0 74 58.5 156.5t172.5 162.5h-315l24 123h309l226 1163h-316l25 123h770l-25 -123h-305l-225 -1163h317l-30 -123h-301q-122 -68 -185 -142.5t-63 -138.5q0 -43 32 -63.5t103.5 -11.5t173.5 53z" />
    <glyph glyph-name="iogonek" unicode="&#x12f;" horiz-adv-x="829" 
d="M645 1303l-153 -9l71 295l170 8zM664 -373q-89 -50 -166 -74t-131 -22.5t-93.5 20.5t-58 51t-18.5 72q0 72 58.5 150t174.5 153q-118 1 -160 88.5t-4 245.5l162 658l-285 -43l-14 80l348 102l121 -4l-184 -766q-18 -75 -17.5 -121.5t19 -74.5t63 -31.5t111 10.5t168.5 49
l20 -78q-444 -223 -444 -373q0 -24 10.5 -41.5t34.5 -27t59 -9t87.5 14.5t117.5 41z" />
    <glyph glyph-name="Idotaccent" unicode="&#x130;" horiz-adv-x="1120" 
d="M825 1602l-153 -3l71 295l172 2zM551 123h317l-30 -123h-770l24 123h309l226 1163h-316l25 123h770l-25 -123h-305z" />
    <glyph glyph-name="dotlessi" unicode="&#x131;" horiz-adv-x="829" 
d="M778 92q-87 -48 -162.5 -76.5t-134 -36t-103.5 2t-73.5 36.5t-43 69t-13.5 98.5t18 125.5l162 658l-285 -43l-14 80l348 102l121 -4l-184 -766q-18 -75 -17.5 -121.5t19 -74.5t63 -31.5t111 10.5t168.5 49z" />
    <glyph glyph-name="Kcommaaccent" unicode="&#x136;" horiz-adv-x="1292" 
d="M952 -12l-448 721l674 700h168l-670 -702l436 -695zM408 1409h149l-272 -1409h-150zM379 -600q47 74 71 151t24.5 141t-7.5 130l192 6q-3 -115 -60 -235t-161 -222z" />
    <glyph glyph-name="kcommaaccent" unicode="&#x137;" horiz-adv-x="1222" 
d="M918 -12l-418 465q258 133 371.5 245.5t113.5 192.5q0 49 -28.5 75.5t-79.5 26.5q-90 0 -212 -73t-249 -209l-137 -711h-144l307 1585l146 12l-144 -745q129 135 260.5 206.5t239.5 71.5q91 0 144 -49.5t53 -128.5q0 -113 -112.5 -241t-350.5 -256l407 -443zM356 -600
q47 74 71 151t24.5 141t-7.5 130l193 6q-3 -115 -60 -235t-161 -222z" />
    <glyph glyph-name="Lacute" unicode="&#x139;" horiz-adv-x="1148" 
d="M629 1640q101 70 232.5 182t217.5 203l109 -124q-94 -79 -243.5 -170t-282.5 -158zM932 0h-797l273 1409h149l-246 -1276h650z" />
    <glyph glyph-name="lacute" unicode="&#x13a;" horiz-adv-x="1032" 
d="M707 1815q101 70 232.5 182t217.5 203l109 -125q-94 -79 -243.5 -169.5t-283.5 -158.5zM899 152q-295 -198 -473 -164.5t-201 297.5q-51 -34 -102 -70l-45 74q62 43 143 100q3 182 45 365.5t111 333t153 267.5t176.5 183.5t176.5 65.5q87 0 135.5 -59.5t48.5 -166.5
q0 -216 -173.5 -472t-528.5 -535q3 -117 35 -182t96 -78.5t154 15.5t216 101zM825 1454q-66 0 -142.5 -80t-142.5 -210t-114.5 -311.5t-58.5 -367.5q287 239 421 454t134 382q0 64 -27 98.5t-70 34.5z" />
    <glyph glyph-name="Lcommaaccent" unicode="&#x13b;" horiz-adv-x="1148" 
d="M932 0h-797l273 1409h149l-246 -1276h650zM313 -588q47 74 71 151t24.5 141t-7.5 130l193 6q-3 -115 -60 -234t-161 -222z" />
    <glyph glyph-name="lcommaaccent" unicode="&#x13c;" horiz-adv-x="1032" 
d="M899 152q-295 -198 -473 -164.5t-201 297.5q-51 -34 -102 -70l-45 74q62 43 143 100q3 182 45 365.5t111 333t153 267.5t176.5 183.5t176.5 65.5q87 0 135.5 -59.5t48.5 -166.5q0 -216 -173.5 -472t-528.5 -535q3 -117 35 -182t96 -78.5t154 15.5t216 101zM825 1454
q-66 0 -142.5 -80t-142.5 -210t-114.5 -311.5t-58.5 -367.5q287 239 421 454t134 382q0 64 -27 98.5t-70 34.5zM221 -606q47 74 71 151t24.5 141t-7.5 130l193 6q-3 -115 -60 -235t-161 -222z" />
    <glyph glyph-name="Lcaron" unicode="&#x13d;" horiz-adv-x="1148" 
d="M989 1583l176 10q-13 -303 -229 -569l-64 33q80 139 102 258.5t15 267.5zM932 0h-797l273 1409h149l-246 -1276h650z" />
    <glyph glyph-name="lcaron" unicode="&#x13e;" horiz-adv-x="1032" 
d="M1288 1812l176 11q-13 -304 -229 -570l-64 33q80 139 102 258.5t15 267.5zM899 152q-295 -198 -473 -164.5t-201 297.5q-51 -34 -102 -70l-45 74q62 43 143 100q3 182 45 365.5t111 333t153 267.5t176.5 183.5t176.5 65.5q87 0 135.5 -59.5t48.5 -166.5
q0 -216 -173.5 -472t-528.5 -535q3 -117 35 -182t96 -78.5t154 15.5t216 101zM825 1454q-66 0 -142.5 -80t-142.5 -210t-114.5 -311.5t-58.5 -367.5q287 239 421 454t134 382q0 64 -27 98.5t-70 34.5z" />
    <glyph glyph-name="Ldot" unicode="&#x13f;" horiz-adv-x="1148" 
d="M932 0h-797l273 1409h149l-246 -1276h650zM987 596h-184l43 221h184z" />
    <glyph glyph-name="ldot" unicode="&#x140;" horiz-adv-x="1122" 
d="M899 152q-295 -198 -473 -164.5t-201 297.5q-51 -34 -102 -70l-45 74q62 43 143 100q3 182 45 365.5t111 333t153 267.5t176.5 183.5t176.5 65.5q87 0 135.5 -59.5t48.5 -166.5q0 -216 -173.5 -472t-528.5 -535q3 -117 35 -182t96 -78.5t154 15.5t216 101zM825 1454
q-66 0 -142.5 -80t-142.5 -210t-114.5 -311.5t-58.5 -367.5q287 239 421 454t134 382q0 64 -27 98.5t-70 34.5zM1128 596h-180l43 215h178z" />
    <glyph glyph-name="Lslash" unicode="&#x141;" horiz-adv-x="1148" 
d="M932 0h-797l127 662l-168 -82l-4 120l199 97l119 612h149l-102 -532l329 157l4 -121l-360 -174l-117 -606h650z" />
    <glyph glyph-name="lslash" unicode="&#x142;" horiz-adv-x="1032" 
d="M256 1634q0 118 151.5 192.5t400.5 77.5t568 -83l-49 -121q-116 34 -229 56t-207 29.5t-179 6t-148.5 -13t-110.5 -29t-71 -39.5t-24 -47q0 -27 29 -57.5t94 -79.5l-82 -101q-143 102 -143 209zM899 152q-295 -198 -473 -164.5t-201 297.5q-51 -34 -102 -70l-45 74
q62 43 143 100q3 182 45 365.5t111 333t153 267.5t176.5 183.5t176.5 65.5q87 0 135.5 -59.5t48.5 -166.5q0 -216 -173.5 -472t-528.5 -535q3 -117 35 -182t96 -78.5t154 15.5t216 101zM825 1454q-66 0 -142.5 -80t-142.5 -210t-114.5 -311.5t-58.5 -367.5q287 239 421 454
t134 382q0 64 -27 98.5t-70 34.5z" />
    <glyph glyph-name="Nacute" unicode="&#x143;" horiz-adv-x="1492" 
d="M741 1642q101 69 233 182t218 204l108 -125q-94 -79 -243.5 -170t-282.5 -158zM977 0l-457 1217h-14l-232 -1217h-139l273 1405l192 8l442 -1173h15l221 1169h139l-272 -1409h-168z" />
    <glyph glyph-name="nacute" unicode="&#x144;" horiz-adv-x="1355" 
d="M606 1360q102 70 234 182t217 203l108 -125q-94 -79 -243.5 -170t-282.5 -158zM1253 80q-103 -59 -182.5 -83.5t-127.5 -15t-72.5 42.5t-24.5 87q0 73 39.5 221t79 298t39.5 228q0 135 -134 135q-93 0 -208.5 -69t-241.5 -207q-51 -268 -141 -717h-144q137 694 174 921
q14 88 27 179l143 10q-4 -23 -19 -121t-22 -141q130 139 263.5 210.5t250.5 71.5q105 0 156 -56.5t51 -149.5q0 -95 -40 -256.5t-80 -305.5t-40 -198q0 -20 5.5 -32t19.5 -18t40 -3t67 15t100 34z" />
    <glyph glyph-name="Ncommaaccent" unicode="&#x145;" horiz-adv-x="1492" 
d="M977 0l-457 1217h-14l-232 -1217h-139l273 1405l192 8l442 -1173h15l221 1169h139l-272 -1409h-168zM426 -588q47 74 71 151t24.5 141t-7.5 130l193 6q-3 -114 -60.5 -233.5t-161.5 -222.5z" />
    <glyph glyph-name="ncommaaccent" unicode="&#x146;" horiz-adv-x="1355" 
d="M1253 80q-103 -59 -182.5 -83.5t-127.5 -15t-72.5 42.5t-24.5 87q0 73 39.5 221t79 298t39.5 228q0 135 -134 135q-93 0 -208.5 -69t-241.5 -207q-51 -268 -141 -717h-144q137 694 174 921q14 88 27 179l143 10q-4 -23 -19 -121t-22 -141q130 139 263.5 210.5t250.5 71.5
q105 0 156 -56.5t51 -149.5q0 -95 -40 -256.5t-80 -305.5t-40 -198q0 -20 5.5 -32t19.5 -18t40 -3t67 15t100 34zM375 -608q47 74 71 151t24.5 141t-7.5 130l192 6q-3 -115 -60 -235t-161 -222z" />
    <glyph glyph-name="Ncaron" unicode="&#x147;" horiz-adv-x="1492" 
d="M946 1567h-2l-285 342l105 84l211 -267l334 259l69 -82zM977 0l-457 1217h-14l-232 -1217h-139l273 1405l192 8l442 -1173h15l221 1169h139l-272 -1409h-168z" />
    <glyph glyph-name="ncaron" unicode="&#x148;" horiz-adv-x="1355" 
d="M811 1284h-2l-285 342l105 84l211 -266l334 258l69 -82zM1253 80q-103 -59 -182.5 -83.5t-127.5 -15t-72.5 42.5t-24.5 87q0 73 39.5 221t79 298t39.5 228q0 135 -134 135q-93 0 -208.5 -69t-241.5 -207q-51 -268 -141 -717h-144q137 694 174 921q14 88 27 179l143 10
q-4 -23 -19 -121t-22 -141q130 139 263.5 210.5t250.5 71.5q105 0 156 -56.5t51 -149.5q0 -95 -40 -256.5t-80 -305.5t-40 -198q0 -20 5.5 -32t19.5 -18t40 -3t67 15t100 34z" />
    <glyph glyph-name="Omacron" unicode="&#x14c;" horiz-adv-x="1486" 
d="M1333 1843l-24 -129h-684l26 129h682zM899 1440q213 0 346 -151.5t133 -411.5q0 -246 -98.5 -455t-267 -331t-365.5 -122q-214 0 -346.5 153t-132.5 413q0 245 98.5 453.5t267 330t365.5 121.5zM680 100q155 0 281.5 103t197 275t70.5 374q0 213 -101.5 335t-259.5 122
q-156 0 -283 -102.5t-197.5 -274t-70.5 -373.5q0 -214 101 -336.5t262 -122.5z" />
    <glyph glyph-name="omacron" unicode="&#x14d;" horiz-adv-x="1236" 
d="M1151 1534l-25 -129h-684l27 129h682zM133 420q0 143 48 274.5t128 226.5t188.5 152t223.5 57q175 0 279 -118t104 -328q0 -143 -48 -274.5t-127.5 -226.5t-187.5 -151.5t-223 -56.5q-177 0 -281 118t-104 327zM958 651q0 167 -73 262t-199 95q-118 0 -211.5 -76.5
t-143.5 -202.5t-50 -276q0 -167 72.5 -261t199.5 -94q117 0 210.5 76t144 202t50.5 275z" />
    <glyph glyph-name="Obreve" unicode="&#x14e;" horiz-adv-x="1486" 
d="M1311 1995l86 -58q-234 -323 -445 -323q-209 0 -323 330l114 61q52 -145 108 -206.5t134 -61.5q77 0 150 61.5t176 196.5zM899 1440q213 0 346 -151.5t133 -411.5q0 -246 -98.5 -455t-267 -331t-365.5 -122q-214 0 -346.5 153t-132.5 413q0 245 98.5 453.5t267 330
t365.5 121.5zM680 100q155 0 281.5 103t197 275t70.5 374q0 213 -101.5 335t-259.5 122q-156 0 -283 -102.5t-197.5 -274t-70.5 -373.5q0 -214 101 -336.5t262 -122.5z" />
    <glyph glyph-name="obreve" unicode="&#x14f;" horiz-adv-x="1236" 
d="M1128 1686l86 -58q-234 -323 -444 -323t-324 329l115 62q53 -145 108.5 -207t133.5 -62q77 0 149.5 62t175.5 197zM133 420q0 143 48 274.5t128 226.5t188.5 152t223.5 57q175 0 279 -118t104 -328q0 -143 -48 -274.5t-127.5 -226.5t-187.5 -151.5t-223 -56.5
q-177 0 -281 118t-104 327zM958 651q0 167 -73 262t-199 95q-118 0 -211.5 -76.5t-143.5 -202.5t-50 -276q0 -167 72.5 -261t199.5 -94q117 0 210.5 76t144 202t50.5 275z" />
    <glyph glyph-name="Ohungarumlaut" unicode="&#x150;" horiz-adv-x="1486" 
d="M680 1599l-66 56q71 86 154 210t139 224l146 -80q-66 -90 -172 -206.5t-201 -203.5zM1114 1599l-67 54q144 175 288 428l150 -72q-66 -92 -170.5 -207.5t-200.5 -202.5zM899 1440q213 0 346 -151.5t133 -411.5q0 -246 -98.5 -455t-267 -331t-365.5 -122
q-214 0 -346.5 153t-132.5 413q0 245 98.5 453.5t267 330t365.5 121.5zM680 100q155 0 281.5 103t197 275t70.5 374q0 213 -101.5 335t-259.5 122q-156 0 -283 -102.5t-197.5 -274t-70.5 -373.5q0 -214 101 -336.5t262 -122.5z" />
    <glyph glyph-name="ohungarumlaut" unicode="&#x151;" horiz-adv-x="1236" 
d="M496 1290l-66 56q71 86 154 210t139 224l145 -80q-67 -90 -172.5 -206.5t-199.5 -203.5zM930 1290l-68 53q71 85 150.5 205t138.5 224l149 -72q-66 -92 -170.5 -208t-199.5 -202zM133 420q0 143 48 274.5t128 226.5t188.5 152t223.5 57q175 0 279 -118t104 -328
q0 -143 -48 -274.5t-127.5 -226.5t-187.5 -151.5t-223 -56.5q-177 0 -281 118t-104 327zM958 651q0 167 -73 262t-199 95q-118 0 -211.5 -76.5t-143.5 -202.5t-50 -276q0 -167 72.5 -261t199.5 -94q117 0 210.5 76t144 202t50.5 275z" />
    <glyph glyph-name="OE" unicode="&#x152;" horiz-adv-x="1968" 
d="M315 580q0 -124 44 -211.5t128.5 -138t193 -73t253.5 -24.5l219 1143q-207 -2 -368 -54.5t-263 -145.5t-154.5 -218.5t-52.5 -277.5zM1726 133l-34 -133h-729q-143 0 -259.5 17t-218.5 57.5t-171 104.5t-108.5 161.5t-39.5 224.5q0 145 42 271t130.5 232t218 181.5
t313 117.5t406.5 42h694l-24 -133h-643l-97 -504h547l-22 -117h-547l-103 -522h645z" />
    <glyph glyph-name="oe" unicode="&#x153;" horiz-adv-x="1918" 
d="M1759 125q-172 -95 -315 -129.5t-240.5 -11.5t-160 86t-87.5 163q-81 -119 -196.5 -187.5t-243.5 -68.5q-178 0 -281.5 116.5t-103.5 322.5q0 191 82.5 356t219 260.5t290.5 95.5q139 0 231 -76t123 -216q87 135 208 214.5t261 79.5q131 0 205 -67.5t74 -185.5
q0 -195 -198.5 -313t-557.5 -146v-21q0 -147 68 -219.5t218.5 -68.5t383.5 92zM961 655q0 164 -73.5 258.5t-199.5 94.5q-117 0 -212.5 -78.5t-147.5 -207t-52 -276.5q0 -163 74 -255.5t201 -92.5q116 0 211 77t147 204.5t52 275.5zM1507 1004q-109 0 -202 -71.5
t-150 -181.5t-78 -239q281 24 443.5 108t162.5 224q0 73 -46.5 116.5t-129.5 43.5z" />
    <glyph glyph-name="Racute" unicode="&#x154;" horiz-adv-x="1306" 
d="M635 1655q101 70 232.5 182t217.5 203l109 -125q-94 -79 -243.5 -170t-282.5 -158zM979 -14l-420 643l2 4q267 118 379.5 216t112.5 222q0 126 -131.5 184.5t-386.5 32.5l-250 -1288h-150l273 1407q215 24 366 13.5t246 -57t138.5 -113t43.5 -152.5q0 -150 -116.5 -268.5
t-342.5 -223.5l398 -594z" />
    <glyph glyph-name="racute" unicode="&#x155;" horiz-adv-x="1202" 
d="M596 1376q102 70 234 182t217 203l108 -125q-94 -78 -243 -168.5t-283 -158.5zM1110 61q-317 -139 -410 -34q-118 132 88 688q38 105 89 227q-210 -70 -367 -70q-123 -258 -348 -514l-62 56q224 284 301 469q-96 23 -96 98q0 70 63.5 140.5t133.5 70.5q35 0 55.5 -23
t20.5 -65q0 -41 -21 -113q218 23 447 127l61 -43q-240 -609 -259 -813q-13 -142 67 -162q63 -16 221 39z" />
    <glyph glyph-name="Rcommaaccent" unicode="&#x156;" horiz-adv-x="1306" 
d="M979 -14l-420 643l2 4q267 118 379.5 216t112.5 222q0 126 -131.5 184.5t-386.5 32.5l-250 -1288h-150l273 1407q215 24 366 13.5t246 -57t138.5 -113t43.5 -152.5q0 -150 -116.5 -268.5t-342.5 -223.5l398 -594zM383 -602q47 74 71 151t24.5 141t-7.5 130l193 6
q-3 -114 -60.5 -234t-161.5 -223z" />
    <glyph glyph-name="rcommaaccent" unicode="&#x157;" horiz-adv-x="1202" 
d="M1110 61q-317 -139 -410 -34q-118 132 88 688q38 105 89 227q-210 -70 -367 -70q-123 -258 -348 -514l-62 56q224 284 301 469q-96 23 -96 98q0 70 63.5 140.5t133.5 70.5q35 0 55.5 -23t20.5 -65q0 -41 -21 -113q218 23 447 127l61 -43q-240 -609 -259 -813
q-13 -142 67 -162q63 -16 221 39zM231 -588q47 74 71 151t24.5 141t-7.5 130l193 6q-3 -115 -60 -234t-161 -222z" />
    <glyph glyph-name="Rcaron" unicode="&#x158;" horiz-adv-x="1306" 
d="M840 1579h-2l-285 342l104 84l211 -266l334 258l70 -82zM979 -14l-420 643l2 4q267 118 379.5 216t112.5 222q0 126 -131.5 184.5t-386.5 32.5l-250 -1288h-150l273 1407q215 24 366 13.5t246 -57t138.5 -113t43.5 -152.5q0 -150 -116.5 -268.5t-342.5 -223.5l398 -594z
" />
    <glyph glyph-name="rcaron" unicode="&#x159;" horiz-adv-x="1202" 
d="M801 1300h-2l-285 342l104 84l211 -266l334 258l70 -82zM1110 61q-317 -139 -410 -34q-118 132 88 688q38 105 89 227q-210 -70 -367 -70q-123 -258 -348 -514l-62 56q224 284 301 469q-96 23 -96 98q0 70 63.5 140.5t133.5 70.5q35 0 55.5 -23t20.5 -65q0 -41 -21 -113
q218 23 447 127l61 -43q-240 -609 -259 -813q-13 -142 67 -162q63 -16 221 39z" />
    <glyph glyph-name="Sacute" unicode="&#x15a;" horiz-adv-x="1181" 
d="M598 1663q102 70 234 182t217 203l108 -125q-94 -79 -243.5 -170t-282.5 -158zM1096 1057l-138 -31q-20 145 -83 214t-173 69q-113 0 -188.5 -77t-75.5 -181q0 -55 30 -110t78 -101.5t106 -93t116.5 -94.5t106.5 -97t78 -108.5t30 -120.5q0 -90 -51.5 -164t-161.5 -125.5
t-282.5 -54t-415.5 50.5l34 149q158 -45 285 -61t208 -6.5t135.5 37.5t77 66t22.5 85q0 50 -30 99.5t-78 93.5t-106 89t-116.5 93.5t-106.5 99.5t-78 115t-30 131q0 105 59.5 199.5t165.5 153.5t231 59q158 0 242.5 -95.5t108.5 -283.5z" />
    <glyph glyph-name="sacute" unicode="&#x15b;" horiz-adv-x="1067" 
d="M504 1407q101 70 232.5 182t217.5 203l109 -125q-94 -79 -243.5 -170t-282.5 -158zM924 285q0 -55 -20.5 -101.5t-71.5 -88.5t-129.5 -69t-203.5 -38.5t-284 -1.5l8 137q169 -14 277 -13t170.5 24t86 53t23.5 75q0 46 -29 106t-67 111.5t-86.5 124.5t-75.5 131
q-148 -144 -362 -291l-45 64q265 210 368 338q-10 45 -10 82q0 102 71.5 187t143.5 85q66 0 77 -59q17 -88 -96 -240l-32 -41q15 -49 51 -110.5t75 -117.5t76 -114t61 -119t24 -114z" />
    <glyph glyph-name="Scedilla" unicode="&#x15e;" horiz-adv-x="1181" 
d="M539 -389q10 156 -14 229.5t-74 73.5q-89 0 -195 -240l-80 27q82 214 176 287q-136 10 -280 45l34 149q158 -45 285 -61t208 -6.5t135.5 37.5t77 66t22.5 85q0 50 -30 99.5t-78 93.5t-106 89t-116.5 93.5t-106.5 99.5t-78 115t-30 131q0 105 59.5 199.5t165.5 153.5
t231 59q158 0 242.5 -95.5t108.5 -283.5l-138 -31q-20 145 -83 214t-173 69q-113 0 -188.5 -77t-75.5 -181q0 -55 30 -110t78 -101.5t106 -93t116.5 -94.5t106.5 -97t78 -108.5t30 -120.5q0 -60 -24 -114.5t-72 -100.5t-127 -78.5t-182 -44.5q114 -96 94 -375z" />
    <glyph glyph-name="scedilla" unicode="&#x15f;" horiz-adv-x="1067" 
d="M571 -385q10 156 -14 229.5t-74 73.5q-48 0 -95 -61t-99 -179l-80 27q76 198 164 277q-63 -3 -158 4l8 137q169 -14 277 -13t170.5 24t86 53t23.5 75q0 46 -29 106t-67 111.5t-86.5 124.5t-75.5 131q-148 -144 -362 -291l-45 64q265 210 368 338q-10 45 -10 82
q0 102 71.5 187t143.5 85q66 0 77 -59q17 -88 -96 -240l-32 -41q15 -49 51 -110.5t75 -117.5t76 -114t61 -119t24 -114q0 -102 -76.5 -177.5t-247.5 -107.5q58 -42 86.5 -138.5t18.5 -244.5z" />
    <glyph glyph-name="Scaron" unicode="&#x160;" horiz-adv-x="1181" 
d="M803 1587h-2l-285 342l105 84l210 -266l334 258l70 -82zM1096 1057l-138 -31q-20 145 -83 214t-173 69q-113 0 -188.5 -77t-75.5 -181q0 -55 30 -110t78 -101.5t106 -93t116.5 -94.5t106.5 -97t78 -108.5t30 -120.5q0 -90 -51.5 -164t-161.5 -125.5t-282.5 -54
t-415.5 50.5l34 149q158 -45 285 -61t208 -6.5t135.5 37.5t77 66t22.5 85q0 50 -30 99.5t-78 93.5t-106 89t-116.5 93.5t-106.5 99.5t-78 115t-30 131q0 105 59.5 199.5t165.5 153.5t231 59q158 0 242.5 -95.5t108.5 -283.5z" />
    <glyph glyph-name="scaron" unicode="&#x161;" horiz-adv-x="1067" 
d="M709 1331h-2l-285 342l104 84l211 -266l334 258l70 -82zM924 285q0 -55 -20.5 -101.5t-71.5 -88.5t-129.5 -69t-203.5 -38.5t-284 -1.5l8 137q169 -14 277 -13t170.5 24t86 53t23.5 75q0 46 -29 106t-67 111.5t-86.5 124.5t-75.5 131q-148 -144 -362 -291l-45 64
q265 210 368 338q-10 45 -10 82q0 102 71.5 187t143.5 85q66 0 77 -59q17 -88 -96 -240l-32 -41q15 -49 51 -110.5t75 -117.5t76 -114t61 -119t24 -114z" />
    <glyph glyph-name="Tcommaaccent" unicode="&#x162;" horiz-adv-x="1216" 
d="M825 1278l-247 -1278h-150l248 1278h-434l24 131h1018l-24 -131h-435zM285 -588q47 74 71 151t24.5 141t-7.5 130l192 6q-3 -115 -60 -234t-161 -222z" />
    <glyph glyph-name="tcommaaccent" unicode="&#x163;" horiz-adv-x="972" 
d="M870 119q-109 -62 -201.5 -97.5t-162.5 -44t-123.5 4t-86.5 46t-50 83.5t-16 114.5t18 141.5l139 618h-201l33 115h127l174 317l109 8l-74 -325h395l-20 -115h-400l-137 -610q-30 -132 -6 -201t134.5 -64.5t328.5 89.5zM213 -614q47 74 71 150.5t24.5 140.5t-7.5 130
l193 7q-3 -114 -60.5 -234t-161.5 -223z" />
    <glyph glyph-name="Tcaron" unicode="&#x164;" horiz-adv-x="1216" 
d="M803 1565h-2l-285 342l105 84l210 -267l334 258l70 -81zM825 1278l-247 -1278h-150l248 1278h-434l24 131h1018l-24 -131h-435z" />
    <glyph glyph-name="tcaron" unicode="&#x165;" horiz-adv-x="972" 
d="M903 1878l176 10q-13 -303 -229 -569l-64 33q80 139 102 258.5t15 267.5zM870 119q-109 -62 -201.5 -97.5t-162.5 -44t-123.5 4t-86.5 46t-50 83.5t-16 114.5t18 141.5l139 618h-201l33 115h127l174 317l109 8l-74 -325h395l-20 -115h-400l-137 -610q-30 -132 -6 -201
t134.5 -64.5t328.5 89.5z" />
    <glyph glyph-name="Umacron" unicode="&#x16a;" horiz-adv-x="1439" 
d="M1311 1819l-25 -129h-684l27 129h682zM381 590q-93 -488 274 -488q159 0 259.5 96.5t142.5 307.5l174 903h149l-176 -903q-52 -270 -201.5 -402.5t-365.5 -132.5q-72 0 -133.5 14t-116 45.5t-91 81t-60 120t-22.5 163.5t22 211l155 803h150z" />
    <glyph glyph-name="umacron" unicode="&#x16b;" horiz-adv-x="1374" 
d="M1206 1518l-24 -129h-684l26 129h682zM1290 84q-128 -72 -214 -93t-128 5.5t-53.5 91.5t8.5 166q-129 -141 -241 -210t-220 -69q-133 0 -189 104.5t-9 315.5l129 574l-240 -45l-14 80l305 104l123 -4l-160 -698q-35 -151 -0.5 -223t121.5 -72q92 0 191 67t231 211
l143 715h141l-163 -828q-11 -62 -13.5 -101.5t20.5 -53.5t71 -4.5t139 43.5z" />
    <glyph glyph-name="Ubreve" unicode="&#x16c;" horiz-adv-x="1439" 
d="M1288 1970l86 -57q-235 -324 -444 -324q-210 0 -324 330l115 61q52 -145 108 -206.5t134 -61.5q77 0 149.5 61.5t175.5 196.5zM381 590q-93 -488 274 -488q159 0 259.5 96.5t142.5 307.5l174 903h149l-176 -903q-52 -270 -201.5 -402.5t-365.5 -132.5q-72 0 -133.5 14
t-116 45.5t-91 81t-60 120t-22.5 163.5t22 211l155 803h150z" />
    <glyph glyph-name="ubreve" unicode="&#x16d;" horiz-adv-x="1374" 
d="M1184 1669l86 -57q-235 -324 -445 -324q-209 0 -323 330l114 61q52 -145 108 -206.5t134 -61.5q77 0 150 61.5t176 196.5zM1290 84q-128 -72 -214 -93t-128 5.5t-53.5 91.5t8.5 166q-129 -141 -241 -210t-220 -69q-133 0 -189 104.5t-9 315.5l129 574l-240 -45l-14 80
l305 104l123 -4l-160 -698q-35 -151 -0.5 -223t121.5 -72q92 0 191 67t231 211l143 715h141l-163 -828q-11 -62 -13.5 -101.5t20.5 -53.5t71 -4.5t139 43.5z" />
    <glyph glyph-name="Uring" unicode="&#x16e;" horiz-adv-x="1439" 
d="M981 2013q112 0 183 -60.5t71 -154.5q0 -106 -83.5 -180t-209.5 -74q-110 0 -180 61.5t-70 155.5q0 106 82 179t207 73zM971 1917q-71 0 -118.5 -42t-47.5 -103q0 -56 42 -93t109 -37q70 0 118 42.5t48 101.5q0 57 -42.5 94t-108.5 37zM381 590q-93 -488 274 -488
q159 0 259.5 96.5t142.5 307.5l174 903h149l-176 -903q-52 -270 -201.5 -402.5t-365.5 -132.5q-72 0 -133.5 14t-116 45.5t-91 81t-60 120t-22.5 163.5t22 211l155 803h150z" />
    <glyph glyph-name="uring" unicode="&#x16f;" horiz-adv-x="1347" 
d="M874 1716q112 0 183 -60.5t71 -154.5q0 -106 -83 -180t-209 -74q-110 0 -180 61.5t-70 155.5q0 106 82 179t206 73zM864 1620q-71 0 -118.5 -42t-47.5 -103q0 -56 42.5 -92.5t109.5 -36.5q70 0 118 42t48 101q0 57 -43 94t-109 37zM1290 84q-128 -72 -214 -93t-128 5.5
t-53.5 91.5t8.5 166q-129 -141 -241 -210t-220 -69q-133 0 -189 104.5t-9 315.5l129 574l-240 -45l-14 80l305 104l123 -4l-160 -698q-35 -151 -0.5 -223t121.5 -72q92 0 191 67t231 211l143 715h141l-163 -828q-11 -62 -13.5 -101.5t20.5 -53.5t71 -4.5t139 43.5z" />
    <glyph glyph-name="Uhungarumlaut" unicode="&#x170;" horiz-adv-x="1439" 
d="M657 1575l-65 55q71 86 154 210t139 224l145 -79q-66 -90 -172 -206.5t-201 -203.5zM1092 1575l-68 53q148 179 289 428l149 -71q-66 -92 -170.5 -208t-199.5 -202zM381 590q-93 -488 274 -488q159 0 259.5 96.5t142.5 307.5l174 903h149l-176 -903
q-52 -270 -201.5 -402.5t-365.5 -132.5q-72 0 -133.5 14t-116 45.5t-91 81t-60 120t-22.5 163.5t22 211l155 803h150z" />
    <glyph glyph-name="uhungarumlaut" unicode="&#x171;" horiz-adv-x="1374" 
d="M553 1274l-66 55q71 86 154 210t139 224l146 -80q-66 -89 -171.5 -205t-201.5 -204zM987 1274l-67 53q144 175 288 428l150 -72q-65 -91 -170 -206.5t-201 -202.5zM1290 84q-128 -72 -214 -93t-128 5.5t-53.5 91.5t8.5 166q-129 -141 -241 -210t-220 -69
q-133 0 -189 104.5t-9 315.5l129 574l-240 -45l-14 80l305 104l123 -4l-160 -698q-35 -151 -0.5 -223t121.5 -72q92 0 191 67t231 211l143 715h141l-163 -828q-11 -62 -13.5 -101.5t20.5 -53.5t71 -4.5t139 43.5z" />
    <glyph glyph-name="Uogonek" unicode="&#x172;" horiz-adv-x="1439" 
d="M817 -373q-109 -62 -200.5 -84t-148 -7t-87.5 52t-31 88q0 71 67 143.5t214 153.5q-69 1 -128.5 15t-113.5 45t-90.5 80t-60.5 119t-23.5 163t21.5 211l155 803h150l-160 -819q-96 -488 274 -488q159 0 259.5 96.5t142.5 307.5l174 903h149l-176 -903q-49 -248 -188 -387
q-27 -27 -65 -53t-62 -39t-76 -39q-162 -77 -244 -142t-82 -129q0 -23 10.5 -40t34.5 -26.5t59.5 -9t88 14.5t117.5 41z" />
    <glyph glyph-name="uogonek" unicode="&#x173;" horiz-adv-x="1374" 
d="M1194 -373q-88 -50 -165 -73.5t-131.5 -22t-93.5 20t-58 50.5t-19 72q0 157 256 322q-121 28 -80 258q-129 -141 -241 -210t-220 -69q-133 0 -189 104.5t-9 315.5l129 574l-240 -45l-14 80l305 104l123 -4l-160 -698q-35 -151 -0.5 -223t121.5 -72q92 0 191 67t231 211
l143 715h141l-163 -828q-11 -62 -13.5 -101.5t20.5 -53.5t71 -4.5t139 43.5l20 -68l6 -8q-430 -217 -430 -365q0 -24 10.5 -41.5t34.5 -27t59.5 -9t88 14.5t117.5 41z" />
    <glyph glyph-name="Wcircumflex" unicode="&#x174;" horiz-adv-x="1589" 
d="M1272 1573l-209 266l-336 -256l-70 82l433 334h2l284 -342zM981 0l-141 793l-447 -793h-172q3 210 37 591t92 818h148q-38 -277 -85.5 -697.5t-50.5 -527.5h13l452 820h111l139 -820h10q39 106 153 518.5t190 706.5h143q-110 -426 -225.5 -808t-196.5 -601h-170z" />
    <glyph glyph-name="wcircumflex" unicode="&#x175;" horiz-adv-x="1415" 
d="M1120 1268l-209 266l-336 -256l-69 82l432 334h2l285 -342zM852 0l-139 631l-371 -631h-137q-3 201 15.5 499t53.5 605h150q-45 -394 -90 -909h10l371 632h100l129 -634h12q159 502 261 911h155q-141 -501 -383 -1104h-137z" />
    <glyph glyph-name="Ycircumflex" unicode="&#x176;" horiz-adv-x="1290" 
d="M1118 1577l-209 266l-336 -256l-69 82l432 334h2l285 -342zM612 0h-149l94 483l-303 922l154 8l251 -799h5l546 795h162l-670 -944z" />
    <glyph glyph-name="ycircumflex" unicode="&#x177;" horiz-adv-x="1273" 
d="M1087 1288l-208 266l-336 -256l-70 82l432 334h2l285 -342zM952 -193q-120 -235 -817 -194l23 151q216 -20 359 -12.5t212.5 25t95.5 43.5q16 16 25 45.5t10.5 81t0 97t-4.5 131t-4 147.5q-106 -117 -230 -191t-239 -74q-413 0 -21 1045l144 6q-80 -223 -125 -389
t-56 -265t4 -159t45 -81t77 -21q82 0 191.5 68.5t211.5 184.5q10 144 52.5 307t93 268t83.5 105q35 0 66 -17t31 -42q0 -66 -61.5 -260.5t-141.5 -347.5q-2 -23 -2 -72q0 -73 4.5 -179.5t6.5 -167t-5.5 -126.5t-28.5 -107z" />
    <glyph glyph-name="Ydieresis" unicode="&#x178;" horiz-adv-x="1290" 
d="M1139 1610l-154 -2l72 295l172 4zM694 1606l-153 -4l71 294l170 5zM612 0h-149l94 483l-303 922l154 8l251 -799h5l546 795h162l-670 -944z" />
    <glyph glyph-name="Zacute" unicode="&#x179;" horiz-adv-x="1251" 
d="M612 1640q102 70 234 182t217 203l108 -124q-94 -79 -243.5 -170t-282.5 -158zM989 0h-930l23 129l981 1149l-746 -4l29 135h907l-22 -129l-977 -1149l762 4z" />
    <glyph glyph-name="zacute" unicode="&#x17a;" horiz-adv-x="1130" 
d="M502 1335q101 70 232.5 182t217.5 203l109 -125q-94 -78 -243 -168.5t-283 -158.5zM891 0h-821l24 125l803 854l-649 -4l39 129h796l-22 -123l-805 -856l674 4z" />
    <glyph glyph-name="Zdotaccent" unicode="&#x17b;" horiz-adv-x="1251" 
d="M887 1602l-154 -3l72 295l172 2zM989 0h-930l23 129l981 1149l-746 -4l29 135h907l-22 -129l-977 -1149l762 4z" />
    <glyph glyph-name="zdotaccent" unicode="&#x17c;" horiz-adv-x="1130" 
d="M776 1296l-153 -2l71 295l172 2zM891 0h-821l24 125l803 854l-649 -4l39 129h796l-22 -123l-805 -856l674 4z" />
    <glyph glyph-name="Zcaron" unicode="&#x17d;" horiz-adv-x="1251" 
d="M817 1565h-2l-285 342l105 84l211 -267l334 258l69 -81zM989 0h-930l23 129l981 1149l-746 -4l29 135h907l-22 -129l-977 -1149l762 4z" />
    <glyph glyph-name="zcaron" unicode="&#x17e;" horiz-adv-x="1130" 
d="M707 1260h-2l-285 342l104 84l211 -267l334 258l70 -82zM891 0h-821l24 125l803 854l-649 -4l39 129h796l-22 -123l-805 -856l674 4z" />
    <glyph glyph-name="Aringacute" unicode="&#x1fa;" horiz-adv-x="1353" 
d="M780 2189q102 70 234 182t217 203l108 -125q-94 -78 -243 -168.5t-283 -158.5zM940 2017q112 0 183 -60.5t71 -154.5q0 -106 -83.5 -180t-209.5 -74q-110 0 -180 61.5t-70 155.5q0 106 82 179t207 73zM930 1921q-71 0 -118.5 -42t-47.5 -103q0 -56 42 -92.5t109 -36.5
q70 0 118 42t48 101q0 57 -42.5 94t-108.5 37zM991 -6q-22 211 -51 463h-549q-168 -331 -229 -457h-152q352 708 733 1415h213q111 -747 183 -1409zM819 1278q-148 -275 -368 -705h475q-46 374 -90 705h-17z" />
    <glyph glyph-name="aringacute" unicode="&#x1fb;" horiz-adv-x="1257" 
d="M686 1894q102 70 234 182t217 203l108 -125q-94 -78 -243 -168.5t-283 -158.5zM848 1722q112 0 183 -60.5t71 -154.5q0 -106 -83.5 -180t-209.5 -74q-110 0 -180 61.5t-70 155.5q0 106 82 179t207 73zM838 1626q-71 0 -118.5 -42t-47.5 -103q0 -56 42 -92.5t109 -36.5
q70 0 118 42t48 101q0 57 -42.5 94t-108.5 37zM422 115q75 0 183.5 65t201.5 160l125 625q-130 36 -232 36q-117 0 -218.5 -92t-158.5 -239.5t-57 -309.5q0 -120 43.5 -182.5t112.5 -62.5zM1178 84q-98 -57 -172 -82.5t-120 -20.5t-73 33t-32 79.5t3 119.5
q-106 -105 -220.5 -171.5t-205.5 -66.5q-105 0 -170 89.5t-65 257.5q0 155 50.5 301t138 257t215 178.5t272.5 67.5q129 0 297 -43l-158 -807q-21 -84 -12.5 -124.5t58.5 -38.5t171 47z" />
    <glyph glyph-name="AEacute" unicode="&#x1fc;" horiz-adv-x="1959" 
d="M1225 1640q101 70 232.5 182t217.5 203l109 -124q-94 -79 -243.5 -169.5t-283.5 -158.5zM1128 1276q-384 -486 -561 -717h439l139 717h-17zM897 0l86 444h-506q-181 -236 -338 -444h-166q516 686 1100 1409h887l-25 -133h-641l-96 -504h547l-23 -117h-548l-101 -522h645
l-37 -133h-784z" />
    <glyph glyph-name="aeacute" unicode="&#x1fd;" horiz-adv-x="1798" 
d="M932 1362q101 70 232.5 182t217.5 203l109 -125q-94 -79 -243.5 -170t-282.5 -158zM1386 1004q-110 0 -204 -70.5t-151.5 -181.5t-76.5 -240q286 22 447.5 106t161.5 226q0 73 -47.5 116.5t-129.5 43.5zM420 115q81 0 187 91t200 224q9 141 58 268t130 224
q-158 79 -295 79q-118 0 -219 -92t-158 -239.5t-57 -309.5q0 -119 43.5 -182t110.5 -63zM1638 125q-156 -81 -288 -116.5t-226.5 -28.5t-163 48t-105.5 109.5t-46 159.5q-107 -140 -226.5 -231t-220.5 -91q-105 0 -172 90t-67 257q0 155 50 301t136.5 257t211.5 178.5
t265 67.5q159 0 328 -94q145 98 311 98q130 0 203.5 -67.5t73.5 -185.5q0 -198 -196.5 -315t-559.5 -144v-15q0 -149 62 -221.5t212 -70.5t398 90z" />
    <glyph glyph-name="Oslashacute" unicode="&#x1fe;" horiz-adv-x="1486" 
d="M737 1675q102 70 234 182t217 203l108 -125q-94 -78 -243 -168.5t-283 -158.5zM315 559q0 -124 35 -217l783 836q-101 131 -267 131q-156 0 -283 -102.5t-197.5 -274t-70.5 -373.5zM678 100q155 0 281.5 103t197 275t70.5 374q0 122 -37 223l-784 -837q103 -138 272 -138
zM645 -31q-216 0 -348 154l-164 -178l-84 73l187 199q-70 134 -70 318q0 245 98.5 453.5t267 330t365.5 121.5q213 0 342 -148l164 174l86 -73l-184 -195q71 -136 71 -321q0 -246 -98.5 -455t-267 -331t-365.5 -122z" />
    <glyph glyph-name="oslashacute" unicode="&#x1ff;" horiz-adv-x="1236" 
d="M557 1376q102 70 234 182t217 203l108 -125q-94 -78 -243 -168.5t-283 -158.5zM281 453q0 -89 22 -160l580 622q-71 93 -197 93q-118 0 -211.5 -76.5t-143.5 -202.5t-50 -276zM553 98q117 0 210.5 76t144 202t50.5 275q0 89 -22 160l-580 -623q72 -90 197 -90zM518 -25
q-166 0 -266 103l-129 -137l-82 71l145 156q-53 103 -53 252q0 143 48 274.5t128 226.5t188.5 152t223.5 57q165 0 266 -104l129 139l82 -73l-147 -156q53 -103 53 -252q0 -143 -48 -274.5t-127.5 -226.5t-187.5 -151.5t-223 -56.5z" />
    <glyph glyph-name="Scommaaccent" unicode="&#x218;" horiz-adv-x="1181" 
d="M1096 1057l-138 -31q-20 145 -83 214t-173 69q-113 0 -188.5 -77t-75.5 -181q0 -55 30 -110t78 -101.5t106 -93t116.5 -94.5t106.5 -97t78 -108.5t30 -120.5q0 -90 -51.5 -164t-161.5 -125.5t-282.5 -54t-415.5 50.5l34 149q158 -45 285 -61t208 -6.5t135.5 37.5t77 66
t22.5 85q0 50 -30 99.5t-78 93.5t-106 89t-116.5 93.5t-106.5 99.5t-78 115t-30 131q0 105 59.5 199.5t165.5 153.5t231 59q158 0 242.5 -95.5t108.5 -283.5zM250 -602q47 74 71 151t24.5 141t-7.5 130l192 6q-3 -115 -60 -235t-161 -222z" />
    <glyph glyph-name="scommaaccent" unicode="&#x219;" horiz-adv-x="1067" 
d="M924 285q0 -55 -20.5 -101.5t-71.5 -88.5t-129.5 -69t-203.5 -38.5t-284 -1.5l8 137q169 -14 277 -13t170.5 24t86 53t23.5 75q0 46 -29 106t-67 111.5t-86.5 124.5t-75.5 131q-148 -144 -362 -291l-45 64q265 210 368 338q-10 45 -10 82q0 102 71.5 187t143.5 85
q66 0 77 -59q17 -88 -96 -240l-32 -41q15 -49 51 -110.5t75 -117.5t76 -114t61 -119t24 -114zM213 -602q47 74 71 151t24.5 141t-7.5 130l193 6q-3 -114 -60.5 -234t-161.5 -223z" />
    <glyph glyph-name="schwa" unicode="&#x259;" horiz-adv-x="1124" 
d="M387 -25q-130 0 -204 68t-74 186q0 195 198.5 313t556.5 146v21q0 147 -68 219.5t-218 68.5t-383 -92l-21 76q162 88 299 124t234 21.5t165.5 -67.5t101 -136.5t32.5 -191.5q0 -135 -49 -271t-130.5 -243t-197.5 -174.5t-242 -67.5zM426 102q109 0 202 71.5t150 181.5
t78 239q-281 -24 -443.5 -108t-162.5 -224q0 -73 47 -116.5t129 -43.5z" />
    <glyph glyph-name="circumflex" unicode="&#x2c6;" horiz-adv-x="1169" 
d="M850 1268l-209 266l-336 -256l-69 82l432 334h2l284 -342z" />
    <glyph glyph-name="caron" unicode="&#x2c7;" horiz-adv-x="1169" 
d="M580 1260h-2l-285 342l104 84l211 -267l334 258l70 -82z" />
    <glyph glyph-name="breve" unicode="&#x2d8;" horiz-adv-x="1169" 
d="M928 1665l86 -57q-235 -324 -445 -324q-209 0 -323 330l114 61q52 -145 108 -206.5t134 -61.5q77 0 150 61.5t176 196.5z" />
    <glyph glyph-name="dotaccent" unicode="&#x2d9;" horiz-adv-x="1169" 
d="M641 1296l-154 -2l72 295l172 2z" />
    <glyph glyph-name="ring" unicode="&#x2da;" horiz-adv-x="1169" 
d="M762 1708q112 0 183 -60.5t71 -154.5q0 -106 -83.5 -180t-209.5 -74q-110 0 -180 61.5t-70 155.5q0 106 82 179t207 73zM752 1612q-71 0 -118.5 -42.5t-47.5 -103.5q0 -56 42 -92.5t109 -36.5q70 0 118 42.5t48 101.5q0 57 -42.5 94t-108.5 37z" />
    <glyph glyph-name="ogonek" unicode="&#x2db;" horiz-adv-x="1169" 
d="M801 70l45 -68q-201 -73 -298 -146t-97 -137q0 -24 10.5 -41.5t34.5 -27t59 -9t87.5 14.5t117.5 41l20 -70q-110 -62 -201.5 -84t-148 -7t-87 52t-30.5 88q0 96 119.5 197t368.5 197z" />
    <glyph glyph-name="tilde" unicode="&#x2dc;" horiz-adv-x="1169" 
d="M760 1409q40 0 88.5 59t116.5 174l75 -47q-169 -305 -313 -305q-38 0 -72 25t-58 60.5t-46 71t-46.5 60.5t-49.5 25q-40 0 -90 -57t-115 -166l-76 47q166 295 315 295q38 0 72 -25t57.5 -60.5t45.5 -71t46.5 -60.5t49.5 -25z" />
    <glyph glyph-name="hungarumlaut" unicode="&#x2dd;" horiz-adv-x="1169" 
d="M367 1270l-66 55q71 86 154 210t139 224l145 -80q-66 -90 -171.5 -206t-200.5 -203zM801 1270l-68 53q148 179 289 428l149 -72q-66 -92 -170 -207t-200 -202z" />
    <glyph glyph-name="commaaccent" unicode="&#x326;" horiz-adv-x="1169" 
d="M399 -588q47 74 71 151t24.5 141t-7.5 130l193 6q-3 -115 -60 -234t-161 -222z" />
    <glyph glyph-name="Wgrave" unicode="&#x1e80;" horiz-adv-x="1589" 
d="M1198 1622l-41 -66q-99 66 -227.5 170t-210.5 189l106 123q74 -100 182 -220.5t191 -195.5zM981 0l-141 793l-447 -793h-172q3 210 37 591t92 818h148q-38 -277 -85.5 -697.5t-50.5 -527.5h13l452 820h111l139 -820h10q39 106 153 518.5t190 706.5h143
q-110 -426 -225.5 -808t-196.5 -601h-170z" />
    <glyph glyph-name="wgrave" unicode="&#x1e81;" horiz-adv-x="1415" 
d="M1049 1317l-41 -66q-100 67 -229 171t-210 188l107 123q74 -100 182 -220.5t191 -195.5zM852 0l-139 631l-371 -631h-137q-3 201 15.5 499t53.5 605h150q-45 -394 -90 -909h10l371 632h100l129 -634h12q159 502 261 911h155q-141 -501 -383 -1104h-137z" />
    <glyph glyph-name="Wacute" unicode="&#x1e82;" horiz-adv-x="1589" 
d="M795 1640q101 70 232.5 182t217.5 203l109 -124q-94 -79 -243.5 -169.5t-283.5 -158.5zM981 0l-141 793l-447 -793h-172q3 210 37 591t92 818h148q-38 -277 -85.5 -697.5t-50.5 -527.5h13l452 820h111l139 -820h10q39 106 153 518.5t190 706.5h143q-110 -426 -225.5 -808
t-196.5 -601h-170z" />
    <glyph glyph-name="wacute" unicode="&#x1e83;" horiz-adv-x="1415" 
d="M643 1335q102 70 234 182t217 203l108 -125q-94 -78 -243 -168.5t-283 -158.5zM852 0l-139 631l-371 -631h-137q-3 201 15.5 499t53.5 605h150q-45 -394 -90 -909h10l371 632h100l129 -634h12q159 502 261 911h155q-141 -501 -383 -1104h-137z" />
    <glyph glyph-name="Wdieresis" unicode="&#x1e84;" horiz-adv-x="1589" 
d="M1292 1606l-153 -2l71 294l172 5zM848 1602l-154 -5l72 295l170 4zM981 0l-141 793l-447 -793h-172q3 210 37 591t92 818h148q-38 -277 -85.5 -697.5t-50.5 -527.5h13l452 820h111l139 -820h10q39 106 153 518.5t190 706.5h143q-110 -426 -225.5 -808t-196.5 -601h-170z
" />
    <glyph glyph-name="wdieresis" unicode="&#x1e85;" horiz-adv-x="1415" 
d="M1141 1300l-154 -2l72 295l172 4zM696 1296l-153 -4l71 295l170 4zM852 0l-139 631l-371 -631h-137q-3 201 15.5 499t53.5 605h150q-45 -394 -90 -909h10l371 632h100l129 -634h12q159 502 261 911h155q-141 -501 -383 -1104h-137z" />
    <glyph glyph-name="Ygrave" unicode="&#x1ef2;" horiz-adv-x="1290" 
d="M1044 1626l-40 -65q-101 67 -229.5 170.5t-209.5 187.5l107 123q74 -100 181.5 -221t190.5 -195zM612 0h-149l94 483l-303 922l154 8l251 -799h5l546 795h162l-670 -944z" />
    <glyph glyph-name="ygrave" unicode="&#x1ef3;" horiz-adv-x="1273" 
d="M1014 1337l-41 -65q-100 67 -228.5 170.5t-209.5 187.5l106 123q74 -100 182 -220.5t191 -195.5zM952 -193q-120 -235 -817 -194l23 151q216 -20 359 -12.5t212.5 25t95.5 43.5q16 16 25 45.5t10.5 81t0 97t-4.5 131t-4 147.5q-106 -117 -230 -191t-239 -74
q-413 0 -21 1045l144 6q-80 -223 -125 -389t-56 -265t4 -159t45 -81t77 -21q82 0 191.5 68.5t211.5 184.5q10 144 52.5 307t93 268t83.5 105q35 0 66 -17t31 -42q0 -66 -61.5 -260.5t-141.5 -347.5q-2 -23 -2 -72q0 -73 4.5 -179.5t6.5 -167t-5.5 -126.5t-28.5 -107z" />
    <glyph glyph-name="enspace" unicode="&#x2002;" horiz-adv-x="1024" 
 />
    <glyph glyph-name="emspace" unicode="&#x2003;" horiz-adv-x="2048" 
 />
    <glyph glyph-name="threeperemspace" unicode="&#x2004;" horiz-adv-x="681" 
 />
    <glyph glyph-name="fourperemspace" unicode="&#x2005;" horiz-adv-x="512" 
 />
    <glyph glyph-name="figurespace" unicode="&#x2007;" horiz-adv-x="1126" 
 />
    <glyph glyph-name="thinspace" unicode="&#x2009;" horiz-adv-x="272" 
 />
    <glyph glyph-name="hairspace" unicode="&#x200a;" horiz-adv-x="153" 
 />
    <glyph glyph-name="endash" unicode="&#x2013;" horiz-adv-x="1187" 
d="M1051 719l-21 -115h-860l20 115h861z" />
    <glyph glyph-name="emdash" unicode="&#x2014;" horiz-adv-x="1714" 
d="M1577 719l-21 -115h-1386l20 115h1387z" />
    <glyph glyph-name="quoteleft" unicode="&#x2018;" horiz-adv-x="663" 
d="M674 1503q-121 -133 -159 -263t-23 -327l-203 -6q13 196 90 342t235 291z" />
    <glyph glyph-name="quoteright" unicode="&#x2019;" horiz-adv-x="645" 
d="M242 915q121 133 159 263t23 327l203 4q-13 -194 -90.5 -339.5t-235.5 -290.5z" />
    <glyph glyph-name="quotesinglbase" unicode="&#x201a;" horiz-adv-x="702" 
d="M31 -362q121 133 159 262.5t23 324.5l205 6q-13 -196 -90.5 -341.5t-237.5 -288.5z" />
    <glyph glyph-name="quotedblleft" unicode="&#x201c;" horiz-adv-x="1114" 
d="M1124 1503q-121 -133 -159 -263t-23 -327l-205 -6q13 196 90.5 342t235.5 291zM674 1503q-121 -133 -159 -263t-23 -327l-203 -6q13 196 90 342t235 291z" />
    <glyph glyph-name="quotedblright" unicode="&#x201d;" horiz-adv-x="1093" 
d="M242 915q121 133 159 263t23 327l203 4q-13 -194 -90.5 -339.5t-235.5 -290.5zM690 915q121 133 159 263t23 327l203 4q-12 -194 -89 -339t-236 -291z" />
    <glyph glyph-name="quotedblbase" unicode="&#x201e;" horiz-adv-x="1150" 
d="M31 -362q121 133 159 262.5t23 324.5l205 6q-13 -196 -90.5 -341.5t-237.5 -288.5zM479 -362q121 133 159.5 262.5t23.5 324.5l204 6q-13 -196 -90 -341.5t-235 -288.5z" />
    <glyph glyph-name="dagger" unicode="&#x2020;" horiz-adv-x="1075" 
d="M522 285l-96 -43l-20 18l167 834l-337 34l30 125l332 -34l74 364l141 -14l-76 -367l338 -35l-33 -123l-331 35z" />
    <glyph glyph-name="daggerdbl" unicode="&#x2021;" horiz-adv-x="1077" 
d="M500 172l-97 -43l-20 18l100 496l-348 37l31 123l342 -37l65 328l-340 36l33 123l332 -34l74 364l141 -14l-76 -365l338 -37l-33 -123l-331 35l-76 -325l334 -37l-31 -123l-332 35z" />
    <glyph glyph-name="bullet" unicode="&#x2022;" horiz-adv-x="1087" 
d="M825 702q0 -131 -84 -218t-196 -87q-99 0 -165.5 70.5t-66.5 175.5q0 130 83.5 215.5t195.5 85.5q103 0 168 -68t65 -174z" />
    <glyph glyph-name="ellipsis" unicode="&#x2026;" horiz-adv-x="1982" 
d="M1655 0h-207l43 229h207zM1006 0h-207l41 229h209zM356 0h-209l43 229h207z" />
    <glyph glyph-name="guilsinglleft" unicode="&#x2039;" horiz-adv-x="903" 
d="M524 -33l-381 510l41 170l580 494l90 -117l-588 -475l373 -486z" />
    <glyph glyph-name="guilsinglright" unicode="&#x203a;" horiz-adv-x="907" 
d="M145 -31l-90 115l588 475l-373 485l115 97l383 -510l-43 -168z" />
    <glyph glyph-name="fraction" unicode="&#x2044;" horiz-adv-x="591" 
d="M-215 -45l-80 63l1157 1428l82 -64z" />
    <glyph glyph-name="zero.sup" unicode="&#x2070;" horiz-adv-x="1028" 
d="M270 1065q0 115 34.5 223.5t92 189.5t138 130t167.5 49q125 0 200 -91t75 -255q0 -154 -58 -290.5t-158.5 -220t-217.5 -83.5q-126 0 -199.5 91.5t-73.5 256.5zM852 1292q0 125 -44 189.5t-126 64.5q-83 0 -150.5 -68.5t-103 -175t-35.5 -225.5q0 -125 43.5 -188.5
t126.5 -63.5q82 0 149.5 67.5t103.5 174t36 225.5z" />
    <glyph glyph-name="four.sup" unicode="&#x2074;" horiz-adv-x="1028" 
d="M920 928h-107l-37 -189h-114l36 189h-442l8 86q93 154 156.5 295t124.5 338l131 -7q-65 -195 -131 -330.5t-156 -273.5l330 -2l59 301l115 13l-59 -314h116z" />
    <glyph glyph-name="five.sup" unicode="&#x2075;" horiz-adv-x="1028" 
d="M895 1022q0 -49 -21.5 -93.5t-70.5 -84.5t-122 -67.5t-184 -39t-247 -0.5l16 117q147 -10 245 -3.5t156.5 33t82.5 57t24 67.5q0 139 -409 202l102 426h514l-33 -108h-393l-57 -236q397 -75 397 -270z" />
    <glyph glyph-name="six.sup" unicode="&#x2076;" horiz-adv-x="1028" 
d="M584 719q-134 0 -217.5 80t-83.5 233q0 94 32.5 183t101 174.5t188 157.5t280.5 118l26 -109q-404 -106 -489 -372q66 54 138.5 79t135.5 19t114 -34.5t80.5 -83t29.5 -124.5q0 -142 -96 -231.5t-240 -89.5zM602 819q92 0 146.5 57.5t54.5 143.5q0 63 -35 106.5t-90 58.5
t-129 -5t-146 -78q-2 -16 -2 -49q0 -119 57.5 -176.5t143.5 -57.5z" />
    <glyph glyph-name="seven.sup" unicode="&#x2077;" horiz-adv-x="1028" 
d="M463 729l-131 16q239 426 538 777l-2 6h-489l24 110h621l-23 -102q-295 -361 -538 -807z" />
    <glyph glyph-name="eight.sup" unicode="&#x2078;" horiz-adv-x="1028" 
d="M870 956q0 -100 -94 -169.5t-237 -69.5q-125 0 -202 55.5t-77 145.5q0 70 55 137.5t207 163.5q-64 60 -98.5 111t-34.5 104q0 113 137.5 179t370.5 29l-37 -120q-132 32 -211 24.5t-111 -33t-32 -65.5q0 -36 30.5 -76t88.5 -94q165 94 323 170l43 -74q-180 -86 -299 -155
q83 -74 130.5 -136.5t47.5 -126.5zM563 819q85 0 139 36.5t54 92.5q0 24 -12 49t-42 56t-49.5 49t-64.5 57q-124 -76 -166.5 -124t-42.5 -91q0 -57 52.5 -91t131.5 -34z" />
    <glyph glyph-name="nine.sup" unicode="&#x2079;" horiz-adv-x="1028" 
d="M360 713l-28 108q218 56 334.5 154t154.5 217q-82 -66 -172.5 -87t-160.5 0.5t-116 82.5t-46 149q0 143 95 232.5t238 89.5q134 0 218 -80.5t84 -232.5q0 -94 -32.5 -183.5t-101 -174.5t-188 -157t-279.5 -118zM440 1356q0 -62 35 -105.5t90 -59t129 4.5t146 78
q2 18 2 51q0 118 -57.5 176t-143.5 58q-93 0 -147 -57.5t-54 -145.5z" />
    <glyph glyph-name="zero.inf" unicode="&#x2080;" horiz-adv-x="1028" 
d="M98 -16q0 154 57.5 290t158 218.5t216.5 82.5q125 0 200 -91t75 -255q0 -154 -58 -290.5t-158.5 -220t-217.5 -83.5q-126 0 -199.5 92t-73.5 257zM680 211q0 125 -44 189.5t-126 64.5q-83 0 -150.5 -68.5t-103 -175t-35.5 -225.5q0 -125 43.5 -188.5t126.5 -63.5
q82 0 149.5 67.5t103.5 174t36 225.5z" />
    <glyph glyph-name="one.inf" unicode="&#x2081;" horiz-adv-x="1028" 
d="M696 -342h-628l20 109h266l115 587l-252 -14l12 90l263 33l24 127l125 8l-166 -831h248z" />
    <glyph glyph-name="two.inf" unicode="&#x2082;" horiz-adv-x="1028" 
d="M670 -342h-607l-2 100q122 79 199.5 131t156.5 112.5t121.5 106.5t69.5 96t27 97q0 196 -416 135l19 115q256 39 391 -20.5t135 -200.5q0 -72 -32.5 -138.5t-104 -136t-158.5 -134t-223 -152.5h448z" />
    <glyph glyph-name="three.inf" unicode="&#x2083;" horiz-adv-x="1028" 
d="M717 -90q0 -45 -20 -85t-65.5 -78t-119.5 -61.5t-182 -34t-252 4.5l14 117q122 -14 209.5 -11t144.5 13t90.5 30.5t46.5 42t13 46.5q0 130 -365 206l9 56l409 290h-422l23 109h553l-12 -109l-402 -286q328 -80 328 -250z" />
    <glyph glyph-name="four.inf" unicode="&#x2084;" horiz-adv-x="1028" 
d="M748 -154h-107l-37 -188h-115l37 188h-442l8 86q93 154 156.5 295t124.5 338l131 -6q-65 -195 -131 -330.5t-156 -273.5l330 -2l59 301l115 12l-59 -313h116z" />
    <glyph glyph-name="five.inf" unicode="&#x2085;" horiz-adv-x="1028" 
d="M723 -59q0 -49 -21.5 -93.5t-70.5 -84.5t-122 -67.5t-184 -39t-247 -0.5l16 117q147 -10 245 -3.5t156.5 32.5t82.5 56.5t24 67.5q0 140 -409 203l102 426h514l-33 -109h-393l-57 -235q397 -75 397 -270z" />
    <glyph glyph-name="six.inf" unicode="&#x2086;" horiz-adv-x="1028" 
d="M412 -362q-134 0 -217.5 80t-83.5 233q0 94 32.5 183t101 174.5t188 157.5t280.5 118l26 -109q-218 -57 -334.5 -155.5t-154.5 -217.5q82 67 173 88.5t161.5 0t117 -82.5t46.5 -149q0 -142 -96 -231.5t-240 -89.5zM430 -262q92 0 146.5 57.5t54.5 143.5q0 63 -35 106.5
t-90 58.5t-129 -5.5t-146 -78.5q-2 -16 -2 -49q0 -119 57.5 -176t143.5 -57z" />
    <glyph glyph-name="seven.inf" unicode="&#x2087;" horiz-adv-x="1028" 
d="M291 -352l-131 16q238 423 538 776l-2 6h-489l24 111h621l-23 -102q-295 -361 -538 -807z" />
    <glyph glyph-name="eight.inf" unicode="&#x2088;" horiz-adv-x="1028" 
d="M698 -125q0 -100 -94 -170t-237 -70q-125 0 -202 55.5t-77 145.5q0 70 55 137.5t207 163.5q-64 60 -98.5 111t-34.5 104q0 72 58.5 127.5t171.5 81.5t278 0l-37 -121q-132 32 -211 24.5t-111 -32.5t-32 -65q0 -36 30.5 -76t88.5 -94q165 94 323 170l43 -74
q-170 -81 -299 -156q84 -74 131 -136t47 -126zM391 -262q85 0 139 36.5t54 92.5q0 24 -12 49t-42 56t-49.5 49t-64.5 57q-124 -76 -166.5 -124t-42.5 -91q0 -57 52.5 -91t131.5 -34z" />
    <glyph glyph-name="nine.inf" unicode="&#x2089;" horiz-adv-x="1028" 
d="M188 -369l-28 109q218 56 334.5 154t154.5 217q-82 -66 -172.5 -87t-160.5 0.5t-116 82.5t-46 149q0 143 95 232.5t238 89.5q134 0 217.5 -81t83.5 -233q0 -94 -32.5 -183t-100.5 -174.5t-187.5 -157.5t-279.5 -118zM268 274q0 -62 35 -105.5t90 -58.5t129 5t146 78
q2 18 2 51q0 118 -57.5 175.5t-143.5 57.5q-93 0 -147 -57.5t-54 -145.5z" />
    <glyph glyph-name="colonmonetary" unicode="&#x20a1;" 
d="M725 231l268 967q-109 -15 -194 -39l-242 -870q65 -32 168 -58zM309 641q0 -193 154 -301l215 780q-369 -144 -369 -479zM608 -168l78 268q-77 18 -166 54l-90 -322h-123l107 373q-238 141 -238 411q0 100 29 190.5t90 175t165 155t245 118.5l86 320h122l-77 -281
q89 24 190 39l66 242h122l-63 -227q105 8 164 10l-12 -133q-91 -3 -197 -13l-279 -1003q108 -21 207 -31l-55 -125q-89 9 -180 25l-68 -246h-123z" />
    <glyph glyph-name="naira" unicode="&#x20a6;" 
d="M461 1167l-123 -647l311 4l-174 643h-14zM858 231h14l123 648l-309 -5zM793 0l-113 412l-365 -4l-77 -408h-123l78 406l-166 -3l24 123l166 2l66 334l-168 -2l24 125l166 2l82 418l156 8l112 -426l361 4l80 418h121l-80 -418l163 2l-24 -125l-164 -2l-65 -331l167 2
l-24 -125l-166 -2l-80 -410h-151z" />
    <glyph glyph-name="rupee" unicode="&#x20a8;" horiz-adv-x="1978" 
d="M879 -14l-365 643l2 4q255 120 359 216t104 216q0 131 -113 190t-340 35l-252 -1290h-145l270 1407q201 23 340 12.5t225.5 -57.5t125 -113.5t38.5 -154.5q0 -102 -54 -190.5t-147.5 -159.5t-238.5 -144l340 -582zM1849 285q0 -55 -18 -101t-64 -88t-118.5 -69.5
t-189 -39.5t-267.5 -3l8 137q124 -14 213 -11.5t146.5 11.5t90.5 31.5t45.5 48t12.5 61.5q0 58 -42.5 132.5t-110 170.5t-99.5 164q-110 -110 -274 -229l-43 67q196 161 278 267q-12 47 -12 94q0 102 69.5 187t141.5 85q68 0 80 -61q19 -89 -90 -240q-18 -25 -39 -51
q20 -57 70 -136.5t95 -142.5t81 -141.5t36 -142.5z" />
    <glyph glyph-name="Euro" unicode="&#x20ac;" 
d="M1085 78q-262 -120 -443.5 -104t-280 135.5t-111.5 326.5h-178l24 129h154q9 120 39 234h-150l25 127h168q94 228 259.5 371t358.5 143q157 0 230.5 -95.5t81.5 -291.5l-142 -19q-8 143 -52.5 210t-156.5 67q-139 0 -256 -110.5t-188 -285.5h528l-30 -116h-539
q-34 -131 -37 -232h531l-29 -118h-502q22 -252 188.5 -320t487.5 41z" />
    <glyph glyph-name="peso" unicode="&#x20b1;" 
d="M1032 983q-3 153 -134 241t-380 66l-59 -307h573zM379 575q264 -6 428.5 72.5t208.5 222.5h-580zM1300 860h-147q-57 -179 -265 -291t-538 -141l-84 -428h-145l168 860h-180l22 125h180l82 418q208 25 356 5.5t242.5 -81.5t138.5 -146t44 -188v-8h151z" />
    <glyph glyph-name="rupeeindia" unicode="&#x20b9;" 
d="M1008 47l-134 -80q-108 101 -166 153.5t-131.5 112t-130 92t-127.5 63.5t-157 56l49 119q268 18 415 95.5t181 193.5h-563l22 117h551q-16 119 -138 203.5t-360 109.5l33 127h934l-33 -129h-561q123 -44 192.5 -127t80.5 -184h223l-23 -117h-209q-36 -136 -185.5 -233.5
t-377.5 -129.5q133 -42 262.5 -138t352.5 -304z" />
    <glyph glyph-name="ruble" unicode="&#x20bd;" 
d="M1104 1040q0 138 -120.5 203.5t-371.5 44.5l-108 -549q303 2 451.5 74.5t148.5 226.5zM920 285h-504l-56 -285h-149l55 285h-203l23 123h205l39 208q-66 -2 -201 -2l25 125h200l129 664q206 22 351.5 9.5t238 -61.5t135.5 -119t43 -163q0 -197 -193 -310.5t-577 -135.5
l-43 -220h516z" />
    <glyph glyph-name="numero" unicode="&#x2116;" horiz-adv-x="2400" 
d="M2306 1026q0 -166 -73.5 -310.5t-198 -229.5t-267.5 -85q-157 0 -249.5 105t-92.5 293q0 166 73.5 310t198 229t267.5 85q156 0 249 -104.5t93 -292.5zM2163 1004q0 144 -62.5 219t-177.5 75q-103 0 -184.5 -66t-125.5 -174.5t-44 -236.5q0 -143 62.5 -219t176.5 -76
q103 0 185 65.5t126 174.5t44 238zM879 0l-361 1200h-16l-230 -1200h-135l273 1405l194 8l346 -1157h15l221 1153h135l-272 -1409h-170zM1300 39l25 125h803l-25 -125h-803z" />
    <glyph glyph-name="published" unicode="&#x2117;" horiz-adv-x="1888" 
d="M1739 788q0 -189 -70.5 -351.5t-189.5 -272.5t-276.5 -172t-330.5 -62q-150 0 -277.5 46t-222 132.5t-147.5 218.5t-53 296q0 189 70.5 351t189.5 272t277 172.5t331 62.5q149 0 276.5 -46t221.5 -132.5t147.5 -218.5t53.5 -296zM1036 1376q-119 0 -231 -34t-205.5 -99.5
t-163.5 -154.5t-109.5 -206t-39.5 -247q0 -145 45 -260t124.5 -188.5t185.5 -112.5t232 -39q149 0 285.5 54t240 148.5t165 235t61.5 303.5q0 145 -45 260t-125 188.5t-187 112.5t-233 39zM774 313h-121l152 770q253 32 380.5 -30.5t127.5 -190.5q0 -141 -137.5 -226.5
t-360.5 -103.5zM1190 848q0 78 -73.5 116.5t-217.5 20.5l-63 -344q172 1 263 55t91 152z" />
    <glyph glyph-name="servicemark" unicode="&#x2120;" horiz-adv-x="1927" 
d="M1157 1266l-121 -648h-112l153 789l172 4l111 -549l317 547h183l-154 -791h-119l133 652h-8l-338 -578h-94l-115 574h-8zM842 1204l-105 -20q-23 143 -147 143q-65 0 -105.5 -32.5t-40.5 -86.5q0 -31 24.5 -64t61.5 -60t80 -60.5t80 -64.5t61.5 -71.5t24.5 -82.5
q0 -51 -31 -93t-99 -72t-176 -30.5t-263 31.5l26 117q424 -108 424 30q0 29 -24.5 59.5t-61.5 57.5t-79.5 60t-79.5 64.5t-61.5 74t-24.5 86.5q0 92 84 163.5t204 71.5q203 0 228 -221z" />
    <glyph glyph-name="trademark" unicode="&#x2122;" horiz-adv-x="1941" 
d="M913 1409l-22 -106h-258l-133 -685h-117l133 685h-260l23 106h634zM1174 1266l-123 -648h-111l154 789l172 4l110 -547l318 545h182l-154 -791h-118l133 652h-8l-338 -578h-97l-112 574h-8z" />
    <glyph glyph-name="Omega" unicode="&#x2126;" horiz-adv-x="1462" 
d="M520 10l-6 -10h-446l24 133h297q-104 338 -104 610q0 168 47 302.5t127.5 219t184.5 129t222 44.5q202 0 325.5 -121.5t123.5 -329.5q0 -181 -100.5 -399.5t-282.5 -454.5h297l-25 -133h-465l-6 10q215 286 328 525t113 411q0 165 -89.5 258.5t-238.5 93.5
q-89 0 -165.5 -36.5t-136.5 -109t-94 -190.5t-34 -270q0 -318 104 -682z" />
    <glyph glyph-name="onethird" unicode="&#x2153;" horiz-adv-x="2306" 
d="M844 512h-629l21 109h266l114 587l-251 -14l12 90l262 33l25 127l124 8l-165 -831h247zM651 -45l-80 63l1158 1428l81 -64zM2042 252q0 -45 -20 -85t-65.5 -78t-119.5 -61.5t-182 -34t-252 4.5l14 117q122 -14 209.5 -11t144.5 13t90.5 30.5t46.5 42t13 46.5
q0 130 -365 206l9 56l409 290h-422l23 109h553l-12 -109l-402 -286q328 -80 328 -250z" />
    <glyph glyph-name="twothirds" unicode="&#x2154;" horiz-adv-x="2306" 
d="M651 -45l-80 63l1158 1428l81 -64zM817 512h-606l-2 100q122 78 199.5 131t156 113t121.5 106.5t69.5 96t26.5 96.5q0 195 -415 135l18 115q256 39 391 -20.5t135 -200.5q0 -72 -32.5 -138.5t-104 -136t-158.5 -134t-223 -152.5h449zM2042 252q0 -45 -20 -85t-65.5 -78
t-119.5 -61.5t-182 -34t-252 4.5l14 117q122 -14 209.5 -11t144.5 13t90.5 30.5t46.5 42t13 46.5q0 130 -365 206l9 56l409 290h-422l23 109h553l-12 -109l-402 -286q328 -80 328 -250z" />
    <glyph glyph-name="onefifth" unicode="&#x2155;" horiz-adv-x="2306" 
d="M844 512h-629l21 109h266l114 587l-251 -14l12 90l262 33l25 127l124 8l-165 -831h247zM647 -45l-80 63l1157 1428l82 -64zM2048 283q0 -49 -21.5 -93.5t-70.5 -84.5t-122 -67.5t-184 -39t-247 -0.5l16 117q147 -10 245 -3.5t156.5 32.5t82.5 56.5t24 67.5
q0 140 -409 203l102 426h514l-33 -109h-393l-57 -235q397 -75 397 -270z" />
    <glyph glyph-name="twofifths" unicode="&#x2156;" horiz-adv-x="2306" 
d="M641 -45l-80 63l1157 1428l82 -64zM817 512h-606l-2 100q122 78 199.5 131t156 113t121.5 106.5t69.5 96t26.5 96.5q0 195 -415 135l18 115q256 39 391 -20.5t135 -200.5q0 -72 -32.5 -138.5t-104 -136t-158.5 -134t-223 -152.5h449zM2048 283q0 -49 -21.5 -93.5
t-70.5 -84.5t-122 -67.5t-184 -39t-247 -0.5l16 117q147 -10 245 -3.5t156.5 32.5t82.5 56.5t24 67.5q0 140 -409 203l102 426h514l-33 -109h-393l-57 -235q397 -75 397 -270z" />
    <glyph glyph-name="threefifths" unicode="&#x2157;" horiz-adv-x="2306" 
d="M641 -45l-80 63l1157 1428l82 -64zM864 764q0 -45 -20 -85t-65.5 -78t-119.5 -61.5t-182 -34t-252 4.5l15 117q122 -14 209 -11t144 13t90.5 30.5t46.5 42t13 46.5q0 130 -364 206l8 56l410 290h-422l22 109h553l-12 -109l-401 -286q327 -80 327 -250zM2048 283
q0 -49 -21.5 -93.5t-70.5 -84.5t-122 -67.5t-184 -39t-247 -0.5l16 117q147 -10 245 -3.5t156.5 32.5t82.5 56.5t24 67.5q0 140 -409 203l102 426h514l-33 -109h-393l-57 -235q397 -75 397 -270z" />
    <glyph glyph-name="fourfifths" unicode="&#x2158;" horiz-adv-x="2306" 
d="M649 -45l-80 63l1157 1428l82 -64zM895 700h-107l-36 -188h-115l37 188h-443l9 86q93 153 156 294t124 339l131 -6q-65 -196 -130.5 -331.5t-155.5 -272.5l329 -2l60 301l114 12l-59 -313h117zM2048 283q0 -49 -21.5 -93.5t-70.5 -84.5t-122 -67.5t-184 -39t-247 -0.5
l16 117q147 -10 245 -3.5t156.5 32.5t82.5 56.5t24 67.5q0 140 -409 203l102 426h514l-33 -109h-393l-57 -235q397 -75 397 -270z" />
    <glyph glyph-name="onesixth" unicode="&#x2159;" horiz-adv-x="2306" 
d="M844 512h-629l21 109h266l114 587l-251 -14l12 90l262 33l25 127l124 8l-165 -831h247zM666 -45l-80 63l1157 1428l82 -64zM1737 -20q-134 0 -217.5 80t-83.5 233q0 94 32.5 183t101 174.5t188 157.5t280.5 118l26 -109q-218 -57 -334.5 -155.5t-154.5 -217.5
q82 67 173 88.5t161.5 0t117 -82.5t46.5 -149q0 -142 -96 -231.5t-240 -89.5zM1755 80q92 0 146.5 57.5t54.5 143.5q0 63 -35 106.5t-90 58.5t-129 -5.5t-146 -78.5q-2 -16 -2 -49q0 -119 57.5 -176t143.5 -57z" />
    <glyph glyph-name="fivesixths" unicode="&#x215a;" horiz-adv-x="2306" 
d="M647 -45l-80 63l1157 1428l82 -64zM1737 -20q-134 0 -217.5 80t-83.5 233q0 94 32.5 183t101 174.5t188 157.5t280.5 118l26 -109q-218 -57 -334.5 -155.5t-154.5 -217.5q82 67 173 88.5t161.5 0t117 -82.5t46.5 -149q0 -142 -96 -231.5t-240 -89.5zM870 795
q0 -49 -21.5 -93.5t-70.5 -84.5t-122 -67.5t-184 -39t-247 -0.5l17 117q147 -10 245 -3.5t156.5 32.5t82.5 56.5t24 67.5q0 140 -410 203l102 426h514l-32 -109h-394l-57 -235q397 -75 397 -270zM1755 80q92 0 146.5 57.5t54.5 143.5q0 63 -35 106.5t-90 58.5t-129 -5.5
t-146 -78.5q-2 -16 -2 -49q0 -119 57.5 -176t143.5 -57z" />
    <glyph glyph-name="oneeighth" unicode="&#x215b;" horiz-adv-x="2306" 
d="M844 512h-629l21 109h266l114 587l-251 -14l12 90l262 33l25 127l124 8l-165 -831h247zM647 -45l-80 63l1157 1428l82 -64zM2023 217q0 -100 -94 -170t-237 -70q-125 0 -202 55.5t-77 145.5q0 70 55 137.5t207 163.5q-64 60 -98.5 111t-34.5 104q0 72 58.5 127.5
t171.5 81.5t278 0l-37 -121q-132 32 -211 24.5t-111 -32.5t-32 -65q0 -36 30.5 -76t88.5 -94q165 94 323 170l43 -74q-170 -81 -299 -156q84 -74 131 -136t47 -126zM1716 80q85 0 139 36.5t54 92.5q0 24 -12 49t-42 56t-49.5 49t-64.5 57q-124 -76 -166.5 -124t-42.5 -91
q0 -57 52.5 -91t131.5 -34z" />
    <glyph glyph-name="threeeighths" unicode="&#x215c;" horiz-adv-x="2306" 
d="M641 -45l-80 63l1157 1428l82 -64zM2023 217q0 -100 -94 -170t-237 -70q-125 0 -202 55.5t-77 145.5q0 70 55 137.5t207 163.5q-64 60 -98.5 111t-34.5 104q0 72 58.5 127.5t171.5 81.5t278 0l-37 -121q-132 32 -211 24.5t-111 -32.5t-32 -65q0 -36 30.5 -76t88.5 -94
q165 94 323 170l43 -74q-170 -81 -299 -156q84 -74 131 -136t47 -126zM864 764q0 -45 -20 -85t-65.5 -78t-119.5 -61.5t-182 -34t-252 4.5l15 117q122 -14 209 -11t144 13t90.5 30.5t46.5 42t13 46.5q0 130 -364 206l8 56l410 290h-422l22 109h553l-12 -109l-401 -286
q327 -80 327 -250zM1716 80q85 0 139 36.5t54 92.5q0 24 -12 49t-42 56t-49.5 49t-64.5 57q-124 -76 -166.5 -124t-42.5 -91q0 -57 52.5 -91t131.5 -34z" />
    <glyph glyph-name="fiveeighths" unicode="&#x215d;" horiz-adv-x="2306" 
d="M641 -45l-80 63l1157 1428l82 -64zM2023 217q0 -100 -94 -170t-237 -70q-125 0 -202 55.5t-77 145.5q0 70 55 137.5t207 163.5q-64 60 -98.5 111t-34.5 104q0 72 58.5 127.5t171.5 81.5t278 0l-37 -121q-132 32 -211 24.5t-111 -32.5t-32 -65q0 -36 30.5 -76t88.5 -94
q165 94 323 170l43 -74q-170 -81 -299 -156q84 -74 131 -136t47 -126zM870 795q0 -49 -21.5 -93.5t-70.5 -84.5t-122 -67.5t-184 -39t-247 -0.5l17 117q147 -10 245 -3.5t156.5 32.5t82.5 56.5t24 67.5q0 140 -410 203l102 426h514l-32 -109h-394l-57 -235q397 -75 397 -270
zM1716 80q85 0 139 36.5t54 92.5q0 24 -12 49t-42 56t-49.5 49t-64.5 57q-124 -76 -166.5 -124t-42.5 -91q0 -57 52.5 -91t131.5 -34z" />
    <glyph glyph-name="seveneighths" unicode="&#x215e;" horiz-adv-x="2306" 
d="M614 -45l-79 63l1157 1428l82 -64zM438 502l-131 16q236 420 539 776l-2 6h-490l25 111h620l-22 -102q-298 -364 -539 -807zM2023 217q0 -100 -94 -170t-237 -70q-125 0 -202 55.5t-77 145.5q0 70 55 137.5t207 163.5q-64 60 -98.5 111t-34.5 104q0 72 58.5 127.5
t171.5 81.5t278 0l-37 -121q-132 32 -211 24.5t-111 -32.5t-32 -65q0 -36 30.5 -76t88.5 -94q165 94 323 170l43 -74q-170 -81 -299 -156q84 -74 131 -136t47 -126zM1716 80q85 0 139 36.5t54 92.5q0 24 -12 49t-42 56t-49.5 49t-64.5 57q-124 -76 -166.5 -124t-42.5 -91
q0 -57 52.5 -91t131.5 -34z" />
    <glyph glyph-name="minus" unicode="&#x2212;" 
d="M1118 725l-26 -129h-891l24 129h893z" />
    <glyph glyph-name="approxequal" unicode="&#x2248;" 
d="M907 709q-50 0 -99 24t-87 58.5t-73.5 69.5t-72 59t-67.5 24q-49 0 -90.5 -55t-93.5 -166l-99 39q65 159 134 234t161 75q49 0 97 -24t85.5 -58.5t72 -69.5t70 -59t66.5 -24q47 0 89.5 63t91.5 182l98 -39q-67 -177 -130.5 -255t-152.5 -78zM813 258q-49 0 -97 24
t-86 58.5t-74 69t-73 58.5t-69 24q-48 0 -91 -63.5t-98 -190.5l-96 38q65 175 135 258.5t162 83.5q50 0 98.5 -24t86 -58.5t72 -68.5t69.5 -58t65 -24q48 0 88 53t88 158l99 -39q-66 -159 -128 -229t-151 -70z" />
    <glyph glyph-name="notequal" unicode="&#x2260;" 
d="M1047 356h-496l-195 -340l-108 52l166 288h-258l24 127h305l213 373h-446l24 127h496l193 338l108 -51l-164 -287h260l-26 -127h-307l-213 -373h450z" />
    <glyph glyph-name="lessequal" unicode="&#x2264;" 
d="M1110 1227l47 -115l-749 -352l-2 -12l618 -289l-51 -123l-727 338l28 149zM1014 182l-27 -127h-891l25 127h893z" />
    <glyph glyph-name="greaterequal" unicode="&#x2265;" 
d="M408 1229l698 -408l-29 -147l-839 -340l-37 119l745 297l2 14l-612 344zM1014 184l-27 -129h-891l25 129h893z" />
    <glyph glyph-name="arrow.1_N" unicode="&#xe01c;" horiz-adv-x="1441" 
d="M811 823v-823h-133v821l6 330l-399 -571l-109 82l572 753l565 -753l-109 -84l-399 571z" />
    <glyph glyph-name="arrow.1_W" unicode="&#xe01d;" horiz-adv-x="1441" 
d="M938 201l-84 -113l-745 592l745 588l86 -111l-575 -418l305 4h688v-125h-686l-305 5z" />
    <glyph glyph-name="arrow.1_S" unicode="&#xe01e;" horiz-adv-x="1441" 
d="M741 -6l-565 756l107 81l401 -571l-6 326v823h131v-821l-6 -328l401 571l109 -81z" />
    <glyph glyph-name="arrow.1_E" unicode="&#xe01f;" horiz-adv-x="1441" 
d="M633 94l-84 111l571 418l-303 -5h-686v125h686l305 -4l-573 422l84 111l747 -588z" />
    <glyph glyph-name="hcoslug" unicode="&#xe10b;" horiz-adv-x="1421" 
d="M1319 1434v-1639h-1217v1639h1217zM506 877q0 26 15 42.5t40 16.5q26 0 43 -21.5t17 -56.5q0 -46 -37 -102q-30 29 -42.5 42.5t-24 35t-11.5 43.5zM639 700q61 42 86 70q23 -23 29 -49t-2 -52.5t-29 -62.5q-68 78 -84 94zM535 449q-46 0 -76.5 31.5t-30.5 78.5
q0 49 33 82q72 -68 151 -168q-31 -24 -77 -24zM782 541q42 55 95 86q30 -52 88 -52q43 0 72.5 32t29.5 79t-29.5 77t-72.5 30q-70 0 -123 -78q-3 40 -30.5 59t-70.5 17q19 32 19 69q0 59 -52.5 105.5t-142.5 46.5q-99 0 -161 -52.5t-62 -121.5q0 -43 15 -75t49 -67
q-168 -57 -168 -186q0 -81 65 -136t158 -55q129 0 213 93q51 -52 89.5 -72.5t84.5 -20.5q68 0 114.5 53t49.5 140l-15 4q-34 -59 -88 -59q-30 0 -59 19.5t-68 64.5zM586 254l-25 -4v-19h-14v-14h14v-41q0 -26 25 -26q22 0 28 26l-10 4q-3 -14 -10 -14q-8 0 -8 10v41h26v14
h-26v23zM356 193q0 -20 12 -31.5t31 -11.5t31 12t12 31q0 18 -12 29t-31 11t-31 -11t-12 -29zM416 193q0 -33 -17 -33q-16 0 -16 33q0 30 16 30q17 0 17 -30zM776 190q0 -26 -14 -26q-17 0 -17 26q0 27 17 27q14 0 14 -27zM449 166v-14h45v14h-9v31q0 20 15 20q12 0 12 -14
v-37h-8v-14h45v14h-12v39q0 28 -25 28q-20 0 -29 -22v20h-34v-14h12v-51h-12zM256 166v-14h61v14h-20v33h8q7 0 8.5 -3t3.5 -14h15v47h-15q-1 -8 -2 -10.5t-3 -4t-7 -1.5h-8v37h25q11 0 15 -5t7 -22h16v41h-104v-14h14v-84h-14zM618 180v-28h15l2 8q15 -10 27 -10
q13 0 20.5 7.5t7.5 18.5q0 19 -24.5 25t-24.5 12q0 8 10 8q11 0 21 -14h14v26h-12l-4 -10q-7 10 -23 10q-13 0 -21 -7t-8 -17q0 -19 25 -26t25 -13q0 -8 -11 -8q-12 0 -24 18h-15zM721 256v-106h12l8 16q10 -16 29 -16q17 0 25 13.5t8 29.5q0 18 -8.5 29t-22.5 11
q-21 0 -27 -18v55h-36v-14h12zM829 133q5 5 2.5 13t-12.5 8q-14 0 -14 -15q0 -18 22 -18q24 0 37 33l27 63h10v14h-35v-14h11l-17 -41l-18 41h12v14h-51v-14h10q25 -47 33 -67q-3 -17 -17 -17zM950 68h-37v-15h13q-2 -7 -13 -18q-4 4 -11.5 12.5t-12.5 13.5q22 9 22 25
q0 10 -7.5 17.5t-20.5 7.5q-14 0 -24.5 -9t-10.5 -20q0 -13 12 -25q-26 -7 -26 -30q0 -29 36 -29q19 0 31 12q10 -12 25 -12q19 0 26 25l-10 2q-3 -11 -8 -11t-12 11q12 16 18 28h10v15zM602 80v6q0 25 12 25l7 -2q-3 -3 -3 -7q0 -12 13 -12v-10h-29zM961 55
q0 -26 15.5 -41.5t43.5 -15.5q46 0 49 47h-16q-4 -33 -29 -33q-33 0 -33 45t29 45q12 0 18.5 -6.5t12.5 -25.5h16v45h-16l-2 -13q-15 15 -33 15q-22 0 -38.5 -17.5t-16.5 -44.5zM883 68q-13 13 -13 20q0 10 11 10q12 0 12 -12q0 -11 -10 -18zM506 37h53q3 45 -39 45
q-17 0 -29 -12t-12 -31t11.5 -30t31.5 -11q30 0 37 29h-14q-3 -15 -19 -15q-20 0 -20 25zM387 41q0 -20 12 -31.5t31 -11.5t31 12t12 31t-12 30t-31 11t-31 -11t-12 -30zM1075 41q0 -20 12 -31.5t31 -11.5t31 12t12 31t-12 30t-31 11t-31 -11t-12 -30zM696 37h54
q3 45 -39 45q-17 0 -29 -12t-12 -31t11.5 -30t31.5 -11q30 0 37 29h-15q-3 -15 -18 -15q-21 0 -21 25zM506 47q0 25 14 25q15 0 15 -25h-29zM446 41q0 -33 -16 -33t-16 33q0 31 16 31t16 -31zM1135 41q0 -33 -17 -33q-16 0 -16 33q0 31 16 31q17 0 17 -31zM696 47
q0 25 15 25q14 0 14 -25h-29zM565 14v-14h47v14h-10v52h29v-52h-10v-14h47v14h-13v107l-20 -4q-8 4 -19 4q-16 0 -27 -10t-11 -29v-2h-15v-14h15v-52h-13zM754 14v-14h53v14h-16v33q8 19 14 19v-3q0 -12 12 -12q14 0 14 15q0 16 -16 16q-15 0 -24 -23v21h-37v-14h12v-52h-12
zM895 18q-9 -6 -16 -6q-9 0 -15 6t-6 15q0 10 8 18q9 -9 29 -33zM254 14v-14h59v14h-16v37h45v-37h-16v-14h59v14h-16v84h16v15h-59v-15h16v-32h-45v32h16v15h-59v-15h16v-84h-16zM1194 12q0 15 -14 15q-6 0 -10.5 -4.5t-4.5 -10.5q0 -14 15 -14q14 0 14 14z" />
    <glyph glyph-name="check.1" unicode="&#xe10c;" horiz-adv-x="1284" 
d="M1325 1448q-484 -698 -805 -1495l-125 4l-196 811l139 47l141 -655h8q286 741 697 1362z" />
    <glyph glyph-name="check.2" unicode="&#xe10d;" horiz-adv-x="1284" 
d="M707 -12l-156 504l-369 -496l-92 51l414 578l-160 481l143 43l123 -399l537 778l137 -78l-625 -838l193 -600z" />
    <glyph glyph-name="a.sc" horiz-adv-x="1224" 
d="M868 -6q-5 46 -20 177.5t-23 203.5h-473q-66 -125 -192 -375h-150q321 633 635 1198h209q113 -762 162 -1192zM721 1071q-180 -331 -313 -588h403q-55 433 -78 588h-12z" />
    <glyph glyph-name="b.sc" horiz-adv-x="1157" 
d="M985 356q0 -68 -29.5 -128t-94 -112.5t-166 -84t-246 -43t-334.5 11.5l231 1190q183 24 314 15.5t215.5 -46t124.5 -93t40 -126.5q0 -112 -85 -197.5t-236 -126.5q121 -25 193.5 -94.5t72.5 -165.5zM897 909q0 96 -109.5 146t-312.5 28l-88 -444q255 11 382.5 85.5
t127.5 184.5zM840 344q0 105 -116.5 163t-352.5 44l-86 -438q271 -30 413 39t142 192z" />
    <glyph glyph-name="c.sc" horiz-adv-x="1193" 
d="M780 1219q169 0 235 -107.5t60 -333.5l-141 -2q2 170 -35.5 244t-150.5 74q-136 0 -244.5 -95.5t-164.5 -239t-56 -298.5q0 -256 174.5 -329.5t509.5 42.5l-13 -131q-254 -81 -436.5 -63.5t-283.5 134.5t-101 316q0 203 86 384.5t236.5 293t324.5 111.5z" />
    <glyph glyph-name="d.sc" horiz-adv-x="1259" 
d="M1141 729q0 -136 -39 -255t-122 -217.5t-202 -164t-290 -91t-375 -1.5l233 1190q374 56 584.5 -62t210.5 -399zM993 713q0 207 -132.5 299.5t-387.5 70.5l-188 -968q144 -10 263 16t200.5 80.5t137.5 133.5t81.5 171t25.5 197z" />
    <glyph glyph-name="e.sc" horiz-adv-x="1087" 
d="M852 123l-33 -123h-706l233 1194h709l-23 -125h-561l-80 -412h479l-22 -108h-477l-84 -426h565z" />
    <glyph glyph-name="f.sc" horiz-adv-x="1050" 
d="M846 524h-479l-103 -524h-149l231 1194h715l-23 -125h-567l-84 -434h481z" />
    <glyph glyph-name="g.sc" horiz-adv-x="1247" 
d="M891 -211l-135 -2l51 225q-308 -82 -491 30.5t-183 387.5q0 151 52 295t139 252.5t209.5 175t254.5 66.5q173 0 243 -106t65 -335l-142 -2q0 169 -40 243.5t-158 74.5q-103 0 -193.5 -56t-150.5 -146.5t-94.5 -204t-34.5 -228.5q0 -228 143.5 -313.5t409.5 -16.5l75 334
l142 4z" />
    <glyph glyph-name="h.sc" horiz-adv-x="1335" 
d="M854 0l107 547h-592l-107 -547h-149l233 1194h150l-105 -535h592l104 535h150l-233 -1194h-150z" />
    <glyph glyph-name="i.sc" horiz-adv-x="1009" 
d="M492 115h276l-29 -115h-688l21 115h270l188 964h-274l23 115h688l-21 -115h-268z" />
    <glyph glyph-name="j.sc" horiz-adv-x="966" 
d="M596 88q-58 -58 -192 -85t-377 -26l22 136q219 -3 310.5 7.5t127.5 47.5q28 28 47.5 93t59.5 261l111 557h-375l24 115h518l-127 -653q-34 -171 -58 -260.5t-42.5 -126t-48.5 -66.5z" />
    <glyph glyph-name="k.sc" horiz-adv-x="1181" 
d="M831 -10l-397 608l594 596h164l-590 -596l389 -588zM346 1194h150l-234 -1194h-149z" />
    <glyph glyph-name="l.sc" horiz-adv-x="1028" 
d="M823 0h-708l231 1194h150l-209 -1069h563z" />
    <glyph glyph-name="m.sc" horiz-adv-x="1511" 
d="M555 1198l145 -883h5l491 879h215l-231 -1194h-146l207 1020h-12l-502 -899l-123 -2l-151 901h-13l-186 -1020h-139l231 1190z" />
    <glyph glyph-name="n.sc" horiz-adv-x="1345" 
d="M852 0l-393 1008h-15l-190 -1008h-139l231 1190l184 6l381 -973h13l184 971h139l-231 -1194h-164z" />
    <glyph glyph-name="o.sc" horiz-adv-x="1316" 
d="M770 1219q191 0 310.5 -130t119.5 -352q0 -153 -50 -293.5t-135 -244t-203.5 -165t-248.5 -61.5q-192 0 -311 130.5t-119 353.5q0 153 50.5 294t135.5 243.5t203.5 163.5t247.5 61zM592 98q131 0 237 85t164 227t58 309q0 175 -87 276t-223 101q-131 0 -236.5 -85.5
t-163.5 -227.5t-58 -308q0 -176 86.5 -276.5t222.5 -100.5z" />
    <glyph glyph-name="p.sc" horiz-adv-x="1126" 
d="M264 0h-149l231 1188q194 23 331 11t225 -58.5t128.5 -113.5t40.5 -155q0 -198 -192 -324.5t-539 -158.5zM926 850q0 125 -114.5 188t-338.5 41l-108 -555q269 -1 415 87.5t146 238.5z" />
    <glyph glyph-name="q.sc" horiz-adv-x="1251" 
d="M942 -262l-627 248l35 100q292 103 474 296t182 411q0 141 -82 222t-226 81q-155 0 -260.5 -104t-130 -288t61.5 -436l-123 -49q-59 126 -79 253t-2.5 236t66.5 204.5t123 162.5t172.5 105.5t208.5 38.5q201 0 311.5 -116.5t110.5 -301.5q0 -228 -173.5 -430.5
t-457.5 -327.5l469 -182z" />
    <glyph glyph-name="r.sc" horiz-adv-x="1185" 
d="M852 -12l-360 547l2 4q230 97 325.5 177t95.5 183q0 104 -112.5 152.5t-331.5 27.5l-207 -1079h-149l231 1190q195 21 331.5 12t223 -49t125.5 -96.5t39 -130.5q0 -126 -100.5 -226t-292.5 -188l340 -500z" />
    <glyph glyph-name="s.sc" horiz-adv-x="1056" 
d="M956 889l-133 -27q-19 119 -72.5 175.5t-146.5 56.5q-96 0 -159.5 -61t-63.5 -146q0 -45 26.5 -90t68.5 -84t93 -78.5t102.5 -80.5t93.5 -83t68.5 -93t26.5 -104q0 -60 -27.5 -112.5t-90.5 -95t-154.5 -65t-229.5 -18.5t-305 40l33 141q114 -31 209.5 -45.5t162.5 -13
t117 13t79 34t43 49t14 58.5q0 40 -26.5 80.5t-68.5 77t-93 74.5t-102 79t-93 84.5t-68.5 97.5t-26.5 111q0 138 119 244t289 106q140 0 217 -82t98 -243z" />
    <glyph glyph-name="t.sc" horiz-adv-x="1095" 
d="M721 1069l-207 -1069h-147l206 1069h-376l22 125h901l-22 -125h-377z" />
    <glyph glyph-name="u.sc" horiz-adv-x="1296" 
d="M342 500q-79 -402 238 -402q136 0 220.5 79t117.5 253l147 764h149l-149 -764q-46 -233 -176.5 -344t-325.5 -111q-79 0 -143.5 18t-117.5 58t-82.5 103t-38 152.5t15.5 207.5l133 680h149z" />
    <glyph glyph-name="v.sc" horiz-adv-x="1175" 
d="M580 0h-213q-89 596 -144 1188l148 10q43 -490 116 -1063h21q312 578 543 1059h149q-314 -639 -620 -1194z" />
    <glyph glyph-name="w.sc" horiz-adv-x="1441" 
d="M860 0l-123 657l-372 -657h-170q3 183 31.5 507t76.5 687h146q-30 -216 -71 -574.5t-44 -445.5h12l381 682h102l121 -682h11q52 138 288 1020h142q-95 -368 -195 -691t-170 -503h-166z" />
    <glyph glyph-name="x.sc" horiz-adv-x="1189" 
d="M827 -6l-239 506l-412 -500h-166l518 608l-282 578l155 14l238 -495l401 489h168l-510 -596l285 -592z" />
    <glyph glyph-name="y.sc" horiz-adv-x="1177" 
d="M553 0h-147l79 414l-268 776l152 8l219 -668h4l463 664h159l-583 -803z" />
    <glyph glyph-name="z.sc" horiz-adv-x="1124" 
d="M870 0h-825l23 123l841 948l-645 -4l27 127h805l-21 -123l-837 -948l659 4z" />
    <glyph glyph-name="aacute.sc" horiz-adv-x="1224" 
d="M571 1430q102 70 234 182t217 203l108 -125q-94 -79 -243.5 -170t-282.5 -158zM868 -6q-5 46 -20 177.5t-23 203.5h-473q-66 -125 -192 -375h-150q321 633 635 1198h209q113 -762 162 -1192zM721 1071q-180 -331 -313 -588h403q-55 433 -78 588h-12z" />
    <glyph glyph-name="abreve.sc" horiz-adv-x="1224" 
d="M1147 1759l86 -57q-235 -324 -445 -324q-209 0 -323 330l115 61q53 -145 108 -206.5t133 -61.5q77 0 150 61.5t176 196.5zM868 -6q-5 46 -20 177.5t-23 203.5h-473q-66 -125 -192 -375h-150q321 633 635 1198h209q113 -762 162 -1192zM721 1071q-180 -331 -313 -588h403
q-55 433 -78 588h-12z" />
    <glyph glyph-name="acircumflex.sc" horiz-adv-x="1224" 
d="M1049 1362l-209 266l-336 -256l-70 82l432 334h2l285 -342zM868 -6q-5 46 -20 177.5t-23 203.5h-473q-66 -125 -192 -375h-150q321 633 635 1198h209q113 -762 162 -1192zM721 1071q-180 -331 -313 -588h403q-55 433 -78 588h-12z" />
    <glyph glyph-name="adieresis.sc" horiz-adv-x="1224" 
d="M1069 1395l-154 -2l72 295l172 4zM625 1391l-154 -5l72 295l170 5zM868 -6q-5 46 -20 177.5t-23 203.5h-473q-66 -125 -192 -375h-150q321 633 635 1198h209q113 -762 162 -1192zM721 1071q-180 -331 -313 -588h403q-55 433 -78 588h-12z" />
    <glyph glyph-name="agrave.sc" horiz-adv-x="1224" 
d="M975 1411l-41 -65q-100 67 -228.5 170.5t-209.5 187.5l106 123q74 -100 182 -220.5t191 -195.5zM868 -6q-5 46 -20 177.5t-23 203.5h-473q-66 -125 -192 -375h-150q321 633 635 1198h209q113 -762 162 -1192zM721 1071q-180 -331 -313 -588h403q-55 433 -78 588h-12z" />
    <glyph glyph-name="amacron.sc" horiz-adv-x="1224" 
d="M1169 1608l-24 -129h-684l26 129h682zM868 -6q-5 46 -20 177.5t-23 203.5h-473q-66 -125 -192 -375h-150q321 633 635 1198h209q113 -762 162 -1192zM721 1071q-180 -331 -313 -588h403q-55 433 -78 588h-12z" />
    <glyph glyph-name="aogonek.sc" horiz-adv-x="1224" 
d="M950 -369q-110 -62 -201.5 -84t-148 -6.5t-87 52.5t-30.5 88q0 178 381 350q-6 54 -19.5 169t-19.5 175h-473q-66 -125 -192 -375h-150q321 633 635 1198h209q113 -762 162 -1192q-201 -73 -298 -145.5t-97 -136.5q0 -24 10.5 -41.5t34.5 -27.5t59 -9.5t87.5 14.5
t117.5 41zM721 1071q-180 -331 -313 -588h403q-55 433 -78 588h-12z" />
    <glyph glyph-name="aring.sc" horiz-adv-x="1224" 
d="M838 1802q112 0 183 -60.5t71 -154.5q0 -106 -83.5 -180t-209.5 -74q-110 0 -180 61.5t-70 155.5q0 106 82 179t207 73zM827 1706q-71 0 -118 -42t-47 -103q0 -56 42 -92.5t109 -36.5q70 0 118 42t48 101q0 57 -43 94t-109 37zM868 -6q-5 46 -20 177.5t-23 203.5h-473
q-66 -125 -192 -375h-150q321 633 635 1198h209q113 -762 162 -1192zM721 1071q-180 -331 -313 -588h403q-55 433 -78 588h-12z" />
    <glyph glyph-name="aringacute.sc" horiz-adv-x="1224" 
d="M678 1972q101 70 232.5 182t217.5 203l109 -125q-94 -78 -243 -168.5t-283 -158.5zM838 1802q112 0 183 -60.5t71 -154.5q0 -106 -83.5 -180t-209.5 -74q-110 0 -180 61.5t-70 155.5q0 106 82 179t207 73zM827 1706q-71 0 -118 -42t-47 -103q0 -56 42 -92.5t109 -36.5
q70 0 118 42t48 101q0 57 -43 94t-109 37zM868 -6q-5 46 -20 177.5t-23 203.5h-473q-66 -125 -192 -375h-150q321 633 635 1198h209q113 -762 162 -1192zM721 1071q-180 -331 -313 -588h403q-55 433 -78 588h-12z" />
    <glyph glyph-name="atilde.sc" horiz-adv-x="1224" 
d="M973 1503q39 0 87.5 59t117.5 175l75 -47q-169 -306 -313 -306q-38 0 -72 25t-58 60.5t-46 71t-46.5 60.5t-49.5 25q-40 0 -90 -57t-115 -166l-76 47q166 295 315 295q38 0 72 -25t57.5 -60.5t45.5 -71t46.5 -60.5t49.5 -25zM868 -6q-5 46 -20 177.5t-23 203.5h-473
q-66 -125 -192 -375h-150q321 633 635 1198h209q113 -762 162 -1192zM721 1071q-180 -331 -313 -588h403q-55 433 -78 588h-12z" />
    <glyph glyph-name="cacute.sc" horiz-adv-x="1193" 
d="M608 1450q102 70 234 182t217 203l108 -125q-94 -79 -243.5 -170t-282.5 -158zM780 1219q169 0 235 -107.5t60 -333.5l-141 -2q2 170 -35.5 244t-150.5 74q-136 0 -244.5 -95.5t-164.5 -239t-56 -298.5q0 -256 174.5 -329.5t509.5 42.5l-13 -131q-254 -81 -436.5 -63.5
t-283.5 134.5t-101 316q0 203 86 384.5t236.5 293t324.5 111.5z" />
    <glyph glyph-name="ccaron.sc" horiz-adv-x="1193" 
d="M813 1374h-2l-285 342l105 84l211 -266l334 258l69 -82zM780 1219q169 0 235 -107.5t60 -333.5l-141 -2q2 170 -35.5 244t-150.5 74q-136 0 -244.5 -95.5t-164.5 -239t-56 -298.5q0 -256 174.5 -329.5t509.5 42.5l-13 -131q-254 -81 -436.5 -63.5t-283.5 134.5t-101 316
q0 203 86 384.5t236.5 293t324.5 111.5z" />
    <glyph glyph-name="ccedilla.sc" horiz-adv-x="1193" 
d="M711 -387l-133 -2q10 156 -14.5 229.5t-74.5 73.5q-48 0 -95 -61t-99 -179l-80 27q87 233 197 299q-135 43 -207 153t-72 277q0 203 86 384.5t236.5 293t324.5 111.5q169 0 235 -107.5t60 -333.5l-141 -2q2 170 -35.5 244t-150.5 74q-136 0 -244.5 -95.5t-164.5 -239
t-56 -298.5q0 -256 174.5 -329.5t509.5 42.5l-13 -131q-183 -60 -325 -66q99 -102 82 -364z" />
    <glyph glyph-name="cdotaccent.sc" horiz-adv-x="1193" 
d="M883 1411l-154 -2l72 295l172 2zM780 1219q169 0 235 -107.5t60 -333.5l-141 -2q2 170 -35.5 244t-150.5 74q-136 0 -244.5 -95.5t-164.5 -239t-56 -298.5q0 -256 174.5 -329.5t509.5 42.5l-13 -131q-254 -81 -436.5 -63.5t-283.5 134.5t-101 316q0 203 86 384.5
t236.5 293t324.5 111.5z" />
    <glyph glyph-name="dcaron.sc" horiz-adv-x="1259" 
d="M760 1362h-2l-285 342l105 84l210 -266l334 258l70 -82zM1141 729q0 -136 -39 -255t-122 -217.5t-202 -164t-290 -91t-375 -1.5l233 1190q374 56 584.5 -62t210.5 -399zM993 713q0 207 -132.5 299.5t-387.5 70.5l-188 -968q144 -10 263 16t200.5 80.5t137.5 133.5
t81.5 171t25.5 197z" />
    <glyph glyph-name="dcroat.sc" horiz-adv-x="1259" 
d="M1141 729q0 -136 -39 -255t-122 -217.5t-202 -164t-290 -91t-375 -1.5l108 553h-145l20 109h146l104 528q374 56 584.5 -62t210.5 -399zM655 553h-284l-86 -438q144 -10 263 16t200.5 80.5t137.5 133.5t81.5 171t25.5 197q0 207 -132.5 299.5t-387.5 70.5l-82 -421h291z
" />
    <glyph glyph-name="eacute.sc" horiz-adv-x="1087" 
d="M522 1423q102 70 234 182t217 203l108 -125q-94 -78 -243 -168.5t-283 -158.5zM852 123l-33 -123h-706l233 1194h709l-23 -125h-561l-80 -412h479l-22 -108h-477l-84 -426h565z" />
    <glyph glyph-name="ebreve.sc" horiz-adv-x="1087" 
d="M1098 1753l86 -57q-235 -324 -445 -324q-209 0 -323 330l114 61q52 -145 108 -206.5t134 -61.5q77 0 150 61.5t176 196.5zM852 123l-33 -123h-706l233 1194h709l-23 -125h-561l-80 -412h479l-22 -108h-477l-84 -426h565z" />
    <glyph glyph-name="ecaron.sc" horiz-adv-x="1087" 
d="M727 1348h-2l-285 342l105 84l211 -267l334 258l69 -82zM852 123l-33 -123h-706l233 1194h709l-23 -125h-561l-80 -412h479l-22 -108h-477l-84 -426h565z" />
    <glyph glyph-name="ecircumflex.sc" horiz-adv-x="1087" 
d="M999 1356l-208 266l-336 -256l-70 82l432 334h2l285 -342zM852 123l-33 -123h-706l233 1194h709l-23 -125h-561l-80 -412h479l-22 -108h-477l-84 -426h565z" />
    <glyph glyph-name="edieresis.sc" horiz-adv-x="1087" 
d="M1020 1389l-154 -3l72 295l172 5zM575 1384l-153 -4l72 295l170 4zM852 123l-33 -123h-706l233 1194h709l-23 -125h-561l-80 -412h479l-22 -108h-477l-84 -426h565z" />
    <glyph glyph-name="edotaccent.sc" horiz-adv-x="1087" 
d="M797 1384l-154 -2l72 295l172 2zM852 123l-33 -123h-706l233 1194h709l-23 -125h-561l-80 -412h479l-22 -108h-477l-84 -426h565z" />
    <glyph glyph-name="egrave.sc" horiz-adv-x="1087" 
d="M926 1405l-41 -66q-100 67 -229 171t-210 188l107 123q74 -100 182 -220.5t191 -195.5zM852 123l-33 -123h-706l233 1194h709l-23 -125h-561l-80 -412h479l-22 -108h-477l-84 -426h565z" />
    <glyph glyph-name="emacron.sc" horiz-adv-x="1087" 
d="M1120 1602l-24 -129h-684l26 129h682zM852 123l-33 -123h-706l233 1194h709l-23 -125h-561l-80 -412h479l-22 -108h-477l-84 -426h565z" />
    <glyph glyph-name="eogonek.sc" horiz-adv-x="1087" 
d="M754 -375q-110 -62 -201.5 -84t-148 -7t-87 52t-30.5 88q0 78 80.5 161t248.5 165h-503l233 1194h709l-23 -125h-561l-80 -412h479l-22 -108h-477l-84 -426h565l-33 -123q-201 -73 -298 -146t-97 -137q0 -24 10.5 -41.5t34.5 -27t59 -9t87.5 14.5t117.5 41z" />
    <glyph glyph-name="gbreve.sc" horiz-adv-x="1247" 
d="M1188 1780l86 -58q-234 -323 -445 -323q-209 0 -323 330l115 61q53 -145 108 -206.5t133 -61.5q77 0 150 61.5t176 196.5zM891 -211l-135 -2l51 225q-308 -82 -491 30.5t-183 387.5q0 151 52 295t139 252.5t209.5 175t254.5 66.5q173 0 243 -106t65 -335l-142 -2
q0 169 -40 243.5t-158 74.5q-103 0 -193.5 -56t-150.5 -146.5t-94.5 -204t-34.5 -228.5q0 -228 143.5 -313.5t409.5 -16.5l75 334l142 4z" />
    <glyph glyph-name="gcommaaccent.sc" horiz-adv-x="1247" 
d="M891 -211l-135 -2l51 225q-308 -82 -491 30.5t-183 387.5q0 151 52 295t139 252.5t209.5 175t254.5 66.5q173 0 243 -106t65 -335l-142 -2q0 169 -40 243.5t-158 74.5q-103 0 -193.5 -56t-150.5 -146.5t-94.5 -204t-34.5 -228.5q0 -228 143.5 -313.5t409.5 -16.5l75 334
l142 4zM301 -762q47 74 71 151t24.5 141t-7.5 130l193 6q-3 -114 -60.5 -234t-161.5 -223z" />
    <glyph glyph-name="gdotaccent.sc" horiz-adv-x="1247" 
d="M887 1411l-154 -2l72 295l172 2zM891 -211l-135 -2l51 225q-308 -82 -491 30.5t-183 387.5q0 151 52 295t139 252.5t209.5 175t254.5 66.5q173 0 243 -106t65 -335l-142 -2q0 169 -40 243.5t-158 74.5q-103 0 -193.5 -56t-150.5 -146.5t-94.5 -204t-34.5 -228.5
q0 -228 143.5 -313.5t409.5 -16.5l75 334l142 4z" />
    <glyph glyph-name="hbar.sc" horiz-adv-x="1335" 
d="M983 659l39 195h-592l-39 -195h592zM854 0l107 547h-592l-107 -547h-149l166 850h-146l23 115h145l45 229h150l-45 -236h591l45 236h150l-45 -229h141l-22 -115h-142l-165 -850h-150z" />
    <glyph glyph-name="iacute.sc" horiz-adv-x="1009" 
d="M453 1423q101 70 232.5 182t217.5 203l109 -125q-93 -78 -242.5 -168t-284.5 -159zM492 115h276l-29 -115h-688l21 115h270l188 964h-274l23 115h688l-21 -115h-268z" />
    <glyph glyph-name="ibreve.sc" horiz-adv-x="1009" 
d="M1026 1753l86 -57q-235 -324 -444 -324q-210 0 -324 330l115 61q53 -145 108 -206.5t133 -61.5q77 0 150 61.5t176 196.5zM492 115h276l-29 -115h-688l21 115h270l188 964h-274l23 115h688l-21 -115h-268z" />
    <glyph glyph-name="icircumflex.sc" horiz-adv-x="1009" 
d="M930 1356l-209 266l-336 -256l-70 82l433 334h2l284 -342zM492 115h276l-29 -115h-688l21 115h270l188 964h-274l23 115h688l-21 -115h-268z" />
    <glyph glyph-name="idieresis.sc" horiz-adv-x="1009" 
d="M948 1389l-153 -3l71 295l172 5zM504 1384l-154 -4l72 295l170 4zM492 115h276l-29 -115h-688l21 115h270l188 964h-274l23 115h688l-21 -115h-268z" />
    <glyph glyph-name="idotaccent.sc" horiz-adv-x="1009" 
d="M727 1384l-154 -2l72 295l172 2zM492 115h276l-29 -115h-688l21 115h270l188 964h-274l23 115h688l-21 -115h-268z" />
    <glyph glyph-name="dotlessi.sc" horiz-adv-x="1009" 
d="M492 115h276l-29 -115h-688l21 115h270l188 964h-274l23 115h688l-21 -115h-268z" />
    <glyph glyph-name="igrave.sc" horiz-adv-x="1009" 
d="M856 1405l-41 -66q-99 66 -227.5 170t-210.5 189l106 123q74 -100 182 -220.5t191 -195.5zM492 115h276l-29 -115h-688l21 115h270l188 964h-274l23 115h688l-21 -115h-268z" />
    <glyph glyph-name="imacron.sc" horiz-adv-x="1009" 
d="M1049 1602l-25 -129h-684l27 129h682zM492 115h276l-29 -115h-688l21 115h270l188 964h-274l23 115h688l-21 -115h-268z" />
    <glyph glyph-name="iogonek.sc" horiz-adv-x="1009" 
d="M561 -373q-107 -61 -197.5 -83t-148 -7.5t-89.5 52t-32 92.5q0 74 58.5 156.5t173.5 162.5h-275l21 115h270l188 964h-274l23 115h688l-21 -115h-268l-186 -964h276l-29 -115h-260q-122 -68 -186 -142.5t-64 -138.5q0 -26 12 -43.5t37 -26.5t61 -8t87 15t113 41z" />
    <glyph glyph-name="kcommaaccent.sc" horiz-adv-x="1181" 
d="M831 -10l-397 608l594 596h164l-590 -596l389 -588zM346 1194h150l-234 -1194h-149zM297 -598q47 74 71 151t24.5 141t-7.5 130l193 6q-3 -114 -60.5 -234t-161.5 -223z" />
    <glyph glyph-name="lacute.sc" horiz-adv-x="1028" 
d="M489 1423q102 70 234 182t217 203l109 -125q-93 -78 -242.5 -168t-284.5 -159zM823 0h-708l231 1194h150l-209 -1069h563z" />
    <glyph glyph-name="lcaron.sc" horiz-adv-x="1028" 
d="M868 1468l176 11q-13 -304 -229 -570l-63 33q80 139 101.5 258t14.5 268zM823 0h-708l231 1194h150l-209 -1069h563z" />
    <glyph glyph-name="lcommaaccent.sc" horiz-adv-x="1028" 
d="M823 0h-708l231 1194h150l-209 -1069h563zM238 -588q47 74 71 151t24.5 141t-7.5 130l192 6q-3 -115 -60 -234t-161 -222z" />
    <glyph glyph-name="ldot.sc" horiz-adv-x="1028" 
d="M823 0h-708l231 1194h150l-209 -1069h563zM879 532h-183l43 222h185z" />
    <glyph glyph-name="lslash.sc" horiz-adv-x="1028" 
d="M823 0h-708l100 520l-168 -82l-4 123l199 96l104 537h150l-90 -459l319 154l6 -121l-352 -170l-92 -473h563z" />
    <glyph glyph-name="nacute.sc" horiz-adv-x="1345" 
d="M618 1425q102 70 234 182t217 203l109 -124q-94 -79 -243.5 -169.5t-283.5 -158.5zM852 0l-393 1008h-15l-190 -1008h-139l231 1190l184 6l381 -973h13l184 971h139l-231 -1194h-164z" />
    <glyph glyph-name="ncaron.sc" horiz-adv-x="1345" 
d="M823 1350h-2l-284 342l104 84l211 -267l334 258l69 -81zM852 0l-393 1008h-15l-190 -1008h-139l231 1190l184 6l381 -973h13l184 971h139l-231 -1194h-164z" />
    <glyph glyph-name="ncommaaccent.sc" horiz-adv-x="1345" 
d="M852 0l-393 1008h-15l-190 -1008h-139l231 1190l184 6l381 -973h13l184 971h139l-231 -1194h-164zM346 -588q47 74 71 151t24.5 141t-7.5 130l193 6q-3 -115 -60 -234t-161 -222z" />
    <glyph glyph-name="ntilde.sc" horiz-adv-x="1345" 
d="M1020 1499q39 0 87.5 59t117.5 175l75 -47q-169 -306 -313 -306q-38 0 -72 25t-58 60.5t-46 71t-46.5 60.5t-49.5 25q-40 0 -90 -57t-115 -166l-76 47q166 295 316 295q38 0 71.5 -25t57.5 -60.5t45.5 -71t46 -60.5t49.5 -25zM852 0l-393 1008h-15l-190 -1008h-139
l231 1190l184 6l381 -973h13l184 971h139l-231 -1194h-164z" />
    <glyph glyph-name="oacute.sc" horiz-adv-x="1316" 
d="M618 1450q102 70 234 182t217 203l109 -125q-94 -79 -243.5 -169.5t-283.5 -158.5zM770 1219q191 0 310.5 -130t119.5 -352q0 -153 -50 -293.5t-135 -244t-203.5 -165t-248.5 -61.5q-192 0 -311 130.5t-119 353.5q0 153 50.5 294t135.5 243.5t203.5 163.5t247.5 61z
M592 98q131 0 237 85t164 227t58 309q0 175 -87 276t-223 101q-131 0 -236.5 -85.5t-163.5 -227.5t-58 -308q0 -176 86.5 -276.5t222.5 -100.5z" />
    <glyph glyph-name="obreve.sc" horiz-adv-x="1316" 
d="M1192 1780l86 -58q-234 -323 -444 -323t-324 330l115 61q53 -145 108 -206.5t133 -61.5q77 0 150 61.5t176 196.5zM770 1219q191 0 310.5 -130t119.5 -352q0 -153 -50 -293.5t-135 -244t-203.5 -165t-248.5 -61.5q-192 0 -311 130.5t-119 353.5q0 153 50.5 294
t135.5 243.5t203.5 163.5t247.5 61zM592 98q131 0 237 85t164 227t58 309q0 175 -87 276t-223 101q-131 0 -236.5 -85.5t-163.5 -227.5t-58 -308q0 -176 86.5 -276.5t222.5 -100.5z" />
    <glyph glyph-name="ocircumflex.sc" horiz-adv-x="1316" 
d="M1096 1382l-209 267l-336 -256l-70 82l432 333h2l285 -342zM770 1219q191 0 310.5 -130t119.5 -352q0 -153 -50 -293.5t-135 -244t-203.5 -165t-248.5 -61.5q-192 0 -311 130.5t-119 353.5q0 153 50.5 294t135.5 243.5t203.5 163.5t247.5 61zM592 98q131 0 237 85
t164 227t58 309q0 175 -87 276t-223 101q-131 0 -236.5 -85.5t-163.5 -227.5t-58 -308q0 -176 86.5 -276.5t222.5 -100.5z" />
    <glyph glyph-name="odieresis.sc" horiz-adv-x="1316" 
d="M1116 1415l-153 -2l71 295l172 4zM672 1411l-154 -4l72 295l170 4zM770 1219q191 0 310.5 -130t119.5 -352q0 -153 -50 -293.5t-135 -244t-203.5 -165t-248.5 -61.5q-192 0 -311 130.5t-119 353.5q0 153 50.5 294t135.5 243.5t203.5 163.5t247.5 61zM592 98q131 0 237 85
t164 227t58 309q0 175 -87 276t-223 101q-131 0 -236.5 -85.5t-163.5 -227.5t-58 -308q0 -176 86.5 -276.5t222.5 -100.5z" />
    <glyph glyph-name="ograve.sc" horiz-adv-x="1316" 
d="M1022 1432l-41 -66q-100 67 -228.5 170.5t-209.5 187.5l106 123q73 -99 181 -219.5t192 -195.5zM770 1219q191 0 310.5 -130t119.5 -352q0 -153 -50 -293.5t-135 -244t-203.5 -165t-248.5 -61.5q-192 0 -311 130.5t-119 353.5q0 153 50.5 294t135.5 243.5t203.5 163.5
t247.5 61zM592 98q131 0 237 85t164 227t58 309q0 175 -87 276t-223 101q-131 0 -236.5 -85.5t-163.5 -227.5t-58 -308q0 -176 86.5 -276.5t222.5 -100.5z" />
    <glyph glyph-name="ohungarumlaut.sc" horiz-adv-x="1316" 
d="M561 1384l-65 56q71 86 153 209.5t139 224.5l146 -80q-66 -90 -172 -206.5t-201 -203.5zM995 1384l-67 54q148 179 289 428l149 -72q-66 -92 -170.5 -207.5t-200.5 -202.5zM770 1219q191 0 310.5 -130t119.5 -352q0 -153 -50 -293.5t-135 -244t-203.5 -165t-248.5 -61.5
q-192 0 -311 130.5t-119 353.5q0 153 50.5 294t135.5 243.5t203.5 163.5t247.5 61zM592 98q131 0 237 85t164 227t58 309q0 175 -87 276t-223 101q-131 0 -236.5 -85.5t-163.5 -227.5t-58 -308q0 -176 86.5 -276.5t222.5 -100.5z" />
    <glyph glyph-name="omacron.sc" horiz-adv-x="1316" 
d="M1214 1628l-24 -129h-684l26 129h682zM770 1219q191 0 310.5 -130t119.5 -352q0 -153 -50 -293.5t-135 -244t-203.5 -165t-248.5 -61.5q-192 0 -311 130.5t-119 353.5q0 153 50.5 294t135.5 243.5t203.5 163.5t247.5 61zM592 98q131 0 237 85t164 227t58 309
q0 175 -87 276t-223 101q-131 0 -236.5 -85.5t-163.5 -227.5t-58 -308q0 -176 86.5 -276.5t222.5 -100.5z" />
    <glyph glyph-name="oslash.sc" horiz-adv-x="1316" 
d="M283 475q0 -93 24 -164l658 682q-83 103 -224 103q-131 0 -236.5 -85.5t-163.5 -227.5t-58 -308zM592 98q131 0 237 85t164 227t58 309q0 93 -29 172l-662 -682q88 -111 232 -111zM563 -27q-189 0 -307 127l-154 -157l-82 73l173 174q-60 114 -60 267t50.5 294
t135.5 243.5t203.5 163.5t247.5 61q182 0 299 -117l150 153l81 -73l-165 -168q65 -115 65 -277q0 -153 -50 -293.5t-135 -244t-203.5 -165t-248.5 -61.5z" />
    <glyph glyph-name="oslashacute.sc" horiz-adv-x="1316" 
d="M602 1454q102 70 234 182t217 203l108 -125q-94 -79 -243.5 -170t-282.5 -158zM283 475q0 -93 24 -164l658 682q-83 103 -224 103q-131 0 -236.5 -85.5t-163.5 -227.5t-58 -308zM592 98q131 0 237 85t164 227t58 309q0 93 -29 172l-662 -682q88 -111 232 -111zM563 -27
q-189 0 -307 127l-154 -157l-82 73l173 174q-60 114 -60 267t50.5 294t135.5 243.5t203.5 163.5t247.5 61q182 0 299 -117l150 153l81 -73l-165 -168q65 -115 65 -277q0 -153 -50 -293.5t-135 -244t-203.5 -165t-248.5 -61.5z" />
    <glyph glyph-name="otilde.sc" horiz-adv-x="1316" 
d="M1020 1524q40 0 88.5 59t116.5 174l75 -47q-169 -305 -313 -305q-38 0 -72 25t-58 60.5t-46 71t-46.5 60.5t-49.5 25q-40 0 -90 -57t-115 -167l-76 47q166 295 316 295q38 0 71.5 -25t57.5 -60t45.5 -70.5t46 -60.5t49.5 -25zM770 1219q191 0 310.5 -130t119.5 -352
q0 -153 -50 -293.5t-135 -244t-203.5 -165t-248.5 -61.5q-192 0 -311 130.5t-119 353.5q0 153 50.5 294t135.5 243.5t203.5 163.5t247.5 61zM592 98q131 0 237 85t164 227t58 309q0 175 -87 276t-223 101q-131 0 -236.5 -85.5t-163.5 -227.5t-58 -308q0 -176 86.5 -276.5
t222.5 -100.5z" />
    <glyph glyph-name="racute.sc" horiz-adv-x="1185" 
d="M535 1436q101 70 232.5 182t217.5 203l109 -125q-94 -79 -243.5 -169.5t-283.5 -158.5zM852 -12l-360 547l2 4q230 97 325.5 177t95.5 183q0 104 -112.5 152.5t-331.5 27.5l-207 -1079h-149l231 1190q195 21 331.5 12t223 -49t125.5 -96.5t39 -130.5q0 -126 -100.5 -226
t-292.5 -188l340 -500z" />
    <glyph glyph-name="rcaron.sc" horiz-adv-x="1185" 
d="M739 1360h-2l-284 342l104 84l211 -266l334 258l69 -82zM852 -12l-360 547l2 4q230 97 325.5 177t95.5 183q0 104 -112.5 152.5t-331.5 27.5l-207 -1079h-149l231 1190q195 21 331.5 12t223 -49t125.5 -96.5t39 -130.5q0 -126 -100.5 -226t-292.5 -188l340 -500z" />
    <glyph glyph-name="rcommaaccent.sc" horiz-adv-x="1185" 
d="M852 -12l-360 547l2 4q230 97 325.5 177t95.5 183q0 104 -112.5 152.5t-331.5 27.5l-207 -1079h-149l231 1190q195 21 331.5 12t223 -49t125.5 -96.5t39 -130.5q0 -126 -100.5 -226t-292.5 -188l340 -500zM322 -600q47 74 71 151t24.5 141t-7.5 130l192 6
q-3 -115 -60 -235t-161 -222z" />
    <glyph glyph-name="sacute.sc" horiz-adv-x="1056" 
d="M492 1446q101 70 232.5 182t217.5 203l109 -125q-94 -79 -243.5 -169.5t-283.5 -158.5zM956 889l-133 -27q-19 119 -72.5 175.5t-146.5 56.5q-96 0 -159.5 -61t-63.5 -146q0 -45 26.5 -90t68.5 -84t93 -78.5t102.5 -80.5t93.5 -83t68.5 -93t26.5 -104q0 -60 -27.5 -112.5
t-90.5 -95t-154.5 -65t-229.5 -18.5t-305 40l33 141q114 -31 209.5 -45.5t162.5 -13t117 13t79 34t43 49t14 58.5q0 40 -26.5 80.5t-68.5 77t-93 74.5t-102 79t-93 84.5t-68.5 97.5t-26.5 111q0 138 119 244t289 106q140 0 217 -82t98 -243z" />
    <glyph glyph-name="scaron.sc" horiz-adv-x="1056" 
d="M696 1370h-2l-284 342l104 84l211 -266l334 258l69 -82zM956 889l-133 -27q-19 119 -72.5 175.5t-146.5 56.5q-96 0 -159.5 -61t-63.5 -146q0 -45 26.5 -90t68.5 -84t93 -78.5t102.5 -80.5t93.5 -83t68.5 -93t26.5 -104q0 -60 -27.5 -112.5t-90.5 -95t-154.5 -65
t-229.5 -18.5t-305 40l33 141q114 -31 209.5 -45.5t162.5 -13t117 13t79 34t43 49t14 58.5q0 40 -26.5 80.5t-68.5 77t-93 74.5t-102 79t-93 84.5t-68.5 97.5t-26.5 111q0 138 119 244t289 106q140 0 217 -82t98 -243z" />
    <glyph glyph-name="scedilla.sc" horiz-adv-x="1056" 
d="M479 -389q10 156 -14 229.5t-74 73.5q-48 0 -95 -61t-99 -179l-80 27q81 211 176 285q-100 8 -240 37l33 141q114 -31 209.5 -45.5t162.5 -13t117 13t79 34t43 49t14 58.5q0 40 -26.5 80.5t-68.5 77t-93 74.5t-102 79t-93 84.5t-68.5 97.5t-26.5 111q0 138 119 244
t289 106q140 0 217 -82t98 -243l-133 -27q-19 119 -72.5 175.5t-146.5 56.5q-96 0 -159.5 -61t-63.5 -146q0 -45 26.5 -90t68.5 -84t93 -78.5t102.5 -80.5t93.5 -83t68.5 -93t26.5 -104q0 -104 -86 -183t-256 -101q114 -96 94 -377z" />
    <glyph glyph-name="scommaaccent.sc" horiz-adv-x="1056" 
d="M956 889l-133 -27q-19 119 -72.5 175.5t-146.5 56.5q-96 0 -159.5 -61t-63.5 -146q0 -45 26.5 -90t68.5 -84t93 -78.5t102.5 -80.5t93.5 -83t68.5 -93t26.5 -104q0 -60 -27.5 -112.5t-90.5 -95t-154.5 -65t-229.5 -18.5t-305 40l33 141q114 -31 209.5 -45.5t162.5 -13
t117 13t79 34t43 49t14 58.5q0 40 -26.5 80.5t-68.5 77t-93 74.5t-102 79t-93 84.5t-68.5 97.5t-26.5 111q0 138 119 244t289 106q140 0 217 -82t98 -243zM197 -606q47 74 71 151t24.5 141t-7.5 130l192 6q-3 -115 -60 -235t-161 -222z" />
    <glyph glyph-name="tcaron.sc" horiz-adv-x="1095" 
d="M700 1348h-2l-284 342l104 84l211 -267l334 258l70 -82zM721 1069l-207 -1069h-147l206 1069h-376l22 125h901l-22 -125h-377z" />
    <glyph glyph-name="tcommaaccent.sc" horiz-adv-x="1095" 
d="M721 1069l-207 -1069h-147l206 1069h-376l22 125h901l-22 -125h-377zM223 -588q47 74 71 151t24.5 141t-7.5 130l193 6q-3 -115 -60 -234t-161 -222z" />
    <glyph glyph-name="uacute.sc" horiz-adv-x="1296" 
d="M606 1423q102 70 234 182t217 203l108 -125q-94 -78 -243 -168.5t-283 -158.5zM342 500q-79 -402 238 -402q136 0 220.5 79t117.5 253l147 764h149l-149 -764q-46 -233 -176.5 -344t-325.5 -111q-79 0 -143.5 18t-117.5 58t-82.5 103t-38 152.5t15.5 207.5l133 680h149z
" />
    <glyph glyph-name="ubreve.sc" horiz-adv-x="1296" 
d="M1180 1753l86 -57q-235 -324 -445 -324q-209 0 -323 330l114 61q52 -145 108 -206.5t134 -61.5q77 0 150 61.5t176 196.5zM342 500q-79 -402 238 -402q136 0 220.5 79t117.5 253l147 764h149l-149 -764q-46 -233 -176.5 -344t-325.5 -111q-79 0 -143.5 18t-117.5 58
t-82.5 103t-38 152.5t15.5 207.5l133 680h149z" />
    <glyph glyph-name="ucircumflex.sc" horiz-adv-x="1296" 
d="M1083 1356l-209 266l-335 -256l-70 82l432 334h2l285 -342zM342 500q-79 -402 238 -402q136 0 220.5 79t117.5 253l147 764h149l-149 -764q-46 -233 -176.5 -344t-325.5 -111q-79 0 -143.5 18t-117.5 58t-82.5 103t-38 152.5t15.5 207.5l133 680h149z" />
    <glyph glyph-name="udieresis.sc" horiz-adv-x="1296" 
d="M1104 1389l-154 -3l72 295l172 5zM659 1384l-153 -4l72 295l170 4zM342 500q-79 -402 238 -402q136 0 220.5 79t117.5 253l147 764h149l-149 -764q-46 -233 -176.5 -344t-325.5 -111q-79 0 -143.5 18t-117.5 58t-82.5 103t-38 152.5t15.5 207.5l133 680h149z" />
    <glyph glyph-name="ugrave.sc" horiz-adv-x="1296" 
d="M1010 1405l-41 -66q-100 67 -229 171t-210 188l107 123q74 -100 182 -220.5t191 -195.5zM342 500q-79 -402 238 -402q136 0 220.5 79t117.5 253l147 764h149l-149 -764q-46 -233 -176.5 -344t-325.5 -111q-79 0 -143.5 18t-117.5 58t-82.5 103t-38 152.5t15.5 207.5
l133 680h149z" />
    <glyph glyph-name="uhungarumlaut.sc" horiz-adv-x="1296" 
d="M549 1358l-66 55q71 86 154 210t139 224l146 -80q-66 -89 -171.5 -205t-201.5 -204zM983 1358l-68 53q148 179 289 428l150 -72q-65 -91 -170 -206.5t-201 -202.5zM342 500q-79 -402 238 -402q136 0 220.5 79t117.5 253l147 764h149l-149 -764q-46 -233 -176.5 -344
t-325.5 -111q-79 0 -143.5 18t-117.5 58t-82.5 103t-38 152.5t15.5 207.5l133 680h149z" />
    <glyph glyph-name="umacron.sc" horiz-adv-x="1296" 
d="M1202 1602l-24 -129h-684l26 129h682zM342 500q-79 -402 238 -402q136 0 220.5 79t117.5 253l147 764h149l-149 -764q-46 -233 -176.5 -344t-325.5 -111q-79 0 -143.5 18t-117.5 58t-82.5 103t-38 152.5t15.5 207.5l133 680h149z" />
    <glyph glyph-name="uogonek.sc" horiz-adv-x="1296" 
d="M743 -373q-88 -50 -164.5 -74t-129 -22.5t-90.5 21t-56 51.5t-18 73q0 72 63 144.5t207 154.5q-98 2 -173 31t-129 93t-67.5 166t11.5 249l133 680h149l-137 -694q-79 -402 238 -402q136 0 220.5 79t117.5 253l147 764h149l-149 -764q-21 -112 -60 -191t-97.5 -134.5
t-147.5 -102.5q-174 -88 -256 -153t-82 -134q0 -24 9.5 -40.5t32 -25.5t57 -8t86 15t116.5 41z" />
    <glyph glyph-name="uring.sc" horiz-adv-x="1296" 
d="M872 1796q112 0 183 -60.5t71 -154.5q0 -106 -83 -180t-209 -74q-110 0 -180 61.5t-70 155.5q0 106 82 179t206 73zM862 1700q-71 0 -118.5 -42.5t-47.5 -103.5q0 -56 42.5 -92.5t109.5 -36.5q70 0 118 42.5t48 101.5q0 57 -43 94t-109 37zM342 500q-79 -402 238 -402
q136 0 220.5 79t117.5 253l147 764h149l-149 -764q-46 -233 -176.5 -344t-325.5 -111q-79 0 -143.5 18t-117.5 58t-82.5 103t-38 152.5t15.5 207.5l133 680h149z" />
    <glyph glyph-name="wacute.sc" horiz-adv-x="1441" 
d="M672 1423q101 70 232.5 182t217.5 203l109 -125q-94 -78 -243 -168.5t-283 -158.5zM860 0l-123 657l-372 -657h-170q3 183 31.5 507t76.5 687h146q-30 -216 -71 -574.5t-44 -445.5h12l381 682h102l121 -682h11q52 138 288 1020h142q-95 -368 -195 -691t-170 -503h-166z
" />
    <glyph glyph-name="wcircumflex.sc" horiz-adv-x="1441" 
d="M1149 1356l-209 266l-336 -256l-69 82l432 334h2l284 -342zM860 0l-123 657l-372 -657h-170q3 183 31.5 507t76.5 687h146q-30 -216 -71 -574.5t-44 -445.5h12l381 682h102l121 -682h11q52 138 288 1020h142q-95 -368 -195 -691t-170 -503h-166z" />
    <glyph glyph-name="wdieresis.sc" horiz-adv-x="1441" 
d="M1169 1389l-153 -3l71 295l173 5zM725 1384l-154 -4l72 295l170 4zM860 0l-123 657l-372 -657h-170q3 183 31.5 507t76.5 687h146q-30 -216 -71 -574.5t-44 -445.5h12l381 682h102l121 -682h11q52 138 288 1020h142q-95 -368 -195 -691t-170 -503h-166z" />
    <glyph glyph-name="wgrave.sc" horiz-adv-x="1441" 
d="M1075 1405l-41 -66q-99 66 -227.5 170t-210.5 189l106 123q74 -100 182 -220.5t191 -195.5zM860 0l-123 657l-372 -657h-170q3 183 31.5 507t76.5 687h146q-30 -216 -71 -574.5t-44 -445.5h12l381 682h102l121 -682h11q52 138 288 1020h142q-95 -368 -195 -691t-170 -503
h-166z" />
    <glyph glyph-name="yacute.sc" horiz-adv-x="1177" 
d="M539 1427q101 70 232.5 182t217.5 203l109 -124q-94 -79 -243.5 -169.5t-283.5 -158.5zM553 0h-147l79 414l-268 776l152 8l219 -668h4l463 664h159l-583 -803z" />
    <glyph glyph-name="ycircumflex.sc" horiz-adv-x="1177" 
d="M1016 1360l-209 266l-336 -256l-70 82l433 334h2l284 -342zM553 0h-147l79 414l-268 776l152 8l219 -668h4l463 664h159l-583 -803z" />
    <glyph glyph-name="ydieresis.sc" horiz-adv-x="1177" 
d="M1036 1393l-153 -2l71 295l172 4zM592 1389l-154 -5l72 295l170 4zM553 0h-147l79 414l-268 776l152 8l219 -668h4l463 664h159l-583 -803z" />
    <glyph glyph-name="ygrave.sc" horiz-adv-x="1177" 
d="M942 1409l-41 -66q-99 66 -227.5 170t-210.5 189l106 123q74 -100 182 -220.5t191 -195.5zM553 0h-147l79 414l-268 776l152 8l219 -668h4l463 664h159l-583 -803z" />
    <glyph glyph-name="zacute.sc" horiz-adv-x="1124" 
d="M502 1423q101 70 232.5 182t217.5 203l109 -125q-94 -78 -243 -168.5t-283 -158.5zM870 0h-825l23 123l841 948l-645 -4l27 127h805l-21 -123l-837 -948l659 4z" />
    <glyph glyph-name="zcaron.sc" horiz-adv-x="1124" 
d="M707 1348h-2l-285 342l104 84l211 -267l334 258l70 -82zM870 0h-825l23 123l841 948l-645 -4l27 127h805l-21 -123l-837 -948l659 4z" />
    <glyph glyph-name="zdotaccent.sc" horiz-adv-x="1124" 
d="M776 1384l-153 -2l71 295l172 2zM870 0h-825l23 123l841 948l-645 -4l27 127h805l-21 -123l-837 -948l659 4z" />
    <glyph glyph-name="ae.sc" horiz-adv-x="1755" 
d="M975 1069q-341 -422 -490 -612h385l121 612h-16zM782 0l68 348h-449q-106 -135 -270 -348h-164q490 643 948 1194h807l-22 -125h-561l-80 -412h479l-22 -108h-478l-82 -426h564l-33 -123h-705z" />
    <glyph glyph-name="aeacute.sc" horiz-adv-x="1755" 
d="M989 1423q102 70 234 182t217 203l108 -125q-94 -78 -243 -168.5t-283 -158.5zM975 1069q-341 -422 -490 -612h385l121 612h-16zM782 0l68 348h-449q-106 -135 -270 -348h-164q490 643 948 1194h807l-22 -125h-561l-80 -412h479l-22 -108h-478l-82 -426h564l-33 -123
h-705z" />
    <glyph glyph-name="oe.sc" horiz-adv-x="1757" 
d="M1524 123l-35 -123h-670q-337 0 -509.5 117t-172.5 368q0 120 31.5 224t102 194t176 154t261.5 100.5t351 36.5h667l-24 -125h-561l-80 -412h479l-20 -108h-480l-82 -426h566zM287 502q0 -198 128 -287.5t396 -89.5l184 946q-155 -1 -276.5 -30t-202 -80t-132.5 -123.5
t-74.5 -155t-22.5 -180.5z" />
    <glyph glyph-name="eth.sc" horiz-adv-x="1253" 
d="M1141 729q0 -136 -39 -255t-122 -217.5t-202 -164t-290 -91t-375 -1.5l108 553h-145l20 109h146l104 528q374 56 584.5 -62t210.5 -399zM655 553h-284l-86 -438q144 -10 263 16t200.5 80.5t137.5 133.5t81.5 171t25.5 197q0 207 -132.5 299.5t-387.5 70.5l-82 -421h291z
" />
    <glyph glyph-name="thorn.sc" horiz-adv-x="1126" 
d="M264 0h-149l231 1190l148 -2l-35 -180q292 13 433.5 -78t141.5 -254q0 -198 -192.5 -324.5t-540.5 -158.5zM889 653q0 125 -115 188.5t-340 41.5l-106 -555q269 -3 415 86t146 239z" />
    <glyph glyph-name="zero.alt" horiz-adv-x="1284" 
d="M152 494q0 183 49 354.5t133 301t204.5 208t254.5 78.5q183 0 289 -133t106 -385q0 -183 -49.5 -355t-133.5 -302t-204.5 -209t-253.5 -79q-182 0 -288.5 134.5t-106.5 386.5zM764 1307q-95 0 -179.5 -61t-144 -162.5t-97 -232.5t-44.5 -271l739 399q-15 162 -86 245
t-188 83zM578 102q96 0 181.5 63.5t145 167.5t96 238.5t41.5 276.5l-743 -397q12 -172 84.5 -260.5t194.5 -88.5z" />
    <glyph glyph-name="colon.alt" horiz-adv-x="681" 
d="M535 1014h-209l45 229h207zM365 139h-207l43 230h207z" />
    <glyph glyph-name="ampersand.sc" horiz-adv-x="1230" 
d="M1038 -39q-155 139 -260 264q-254 -245 -475 -245q-116 0 -183 62.5t-67 172.5q0 270 449 621v26q0 148 73.5 260.5t151.5 112.5q46 0 73 -26t27 -76q0 -71 -51.5 -159t-144.5 -175q29 -187 168 -381q94 116 192 299l131 -43q-129 -208 -252 -348q109 -130 277 -271z
M344 104q77 0 171.5 53t193.5 156q-148 205 -191 402q-323 -285 -323 -469q0 -69 40.5 -105.5t108.5 -36.5z" />
    <glyph glyph-name="guillemotleft.cap" horiz-adv-x="1546" 
d="M555 113l-387 503l37 170l567 502l92 -112l-575 -486l381 -479zM1190 113l-375 497l43 170l572 506l90 -117l-582 -485l369 -475z" />
    <glyph glyph-name="guillemotright.cap" horiz-adv-x="1554" 
d="M831 113l-92 112l578 486l-381 479l113 98l389 -504l-39 -170zM174 117l-90 114l584 486l-369 475l115 96l374 -497l-43 -168z" />
    <glyph glyph-name="guilsinglleft.cap" horiz-adv-x="903" 
d="M522 117l-381 510l41 170l580 493l90 -116l-588 -476l373 -485z" />
    <glyph glyph-name="guilsinglright.cap" horiz-adv-x="907" 
d="M168 117l-90 114l588 476l-373 485l115 96l383 -510l-43 -168z" />
    <glyph glyph-name="parenleft.cap" horiz-adv-x="978" 
d="M981 1737l80 -107q-270 -185 -434.5 -361t-232.5 -337.5t-68 -339.5q0 -388 395 -846l-115 -86q-420 510 -420 928q0 295 187 569.5t608 579.5z" />
    <glyph glyph-name="parenright.cap" horiz-adv-x="980" 
d="M20 -360l-77 106q270 185 434.5 361t232.5 337.5t68 339.5q0 385 -397 846l114 86q422 -512 422 -928q0 -295 -187.5 -569t-609.5 -579z" />
    <glyph glyph-name="bracketleft.cap" horiz-adv-x="985" 
d="M70 -295l383 1974h637l-25 -123h-496l-336 -1728h498l-24 -123h-637z" />
    <glyph glyph-name="bracketright.cap" horiz-adv-x="985" 
d="M971 1679l-383 -1972h-637l24 123h496l336 1726h-498l25 123h637z" />
    <glyph glyph-name="braceleft.cap" horiz-adv-x="1015" 
d="M690 -356q-282 139 -399 239t-117 205q0 41 14 79.5t37 68.5t50.5 58t55 53t50.5 48t37 48.5t14 50.5q0 125 -278 161l22 109q346 21 346 164q0 31 -21 75.5t-45.5 84.5t-45.5 95t-21 103q0 282 696 463l23 -133q-306 -69 -445 -141t-139 -162q0 -34 21 -82t46.5 -89.5
t46.5 -92t21 -88.5q0 -73 -68.5 -144t-203.5 -108q186 -58 186 -191q0 -46 -26 -90t-63.5 -79.5t-75 -70.5t-63.5 -76t-26 -83q0 -81 102.5 -162t338.5 -195z" />
    <glyph glyph-name="braceright.cap" horiz-adv-x="1005" 
d="M-49 -356l-23 133q305 68 443.5 141t138.5 162q0 34 -21 82t-45.5 89.5t-45.5 92t-21 88.5q0 75 68.5 145.5t203.5 106.5q-186 58 -186 190q0 39 19 77t47 67t61 61.5t61 60.5t47 63.5t19 70.5q0 81 -102.5 161.5t-338.5 194.5l70 119q282 -139 399 -239t117 -205
q0 -56 -27 -107.5t-65 -89t-76 -71t-65 -69.5t-27 -69q0 -126 281 -162l-23 -108q-187 -11 -267.5 -56t-80.5 -108q0 -31 21 -76t46.5 -85t46.5 -95t21 -103q0 -281 -696 -462z" />
    <glyph glyph-name="registered.alt" horiz-adv-x="1888" 
d="M1739 788q0 -189 -70.5 -351.5t-189.5 -272.5t-276.5 -172t-330.5 -62q-150 0 -277.5 46t-222 132.5t-147.5 218.5t-53 296q0 189 70.5 351t189.5 272t277 172.5t331 62.5q149 0 276.5 -46t221.5 -132.5t147.5 -218.5t53.5 -296zM1036 1376q-119 0 -231 -34t-205.5 -99.5
t-163.5 -154.5t-109.5 -206t-39.5 -247q0 -145 45 -260t124.5 -188.5t185.5 -112.5t232 -39q149 0 285.5 54t240 148.5t165 235t61.5 303.5q0 145 -45 260t-125 188.5t-187 112.5t-233 39zM1124 305l-221 344l2 4q139 61 195.5 109.5t56.5 116.5q0 63 -70.5 93.5
t-207.5 12.5l-123 -672h-119l149 768q240 36 366 -19.5t126 -164.5q0 -82 -58.5 -145.5t-181.5 -124.5l207 -305z" />
    <glyph glyph-name="asterisk.alt" horiz-adv-x="1226" 
d="M786 1243l-79 17l43 309l145 -35zM610 1237l-55 -61l-244 190l103 109zM881 1092l-27 79l287 117l45 -143zM528 1081l27 -80l-289 -116l-43 143zM799 936l55 63l246 -190l-103 -111zM623 930l79 -17l-40 -309l-148 35z" />
    <glyph glyph-name="bullet.alt" horiz-adv-x="1114" 
d="M758 444h-455l92 463h455z" />
    <glyph glyph-name="R_p" horiz-adv-x="2211" 
d="M879 -14l-365 643l2 4q255 120 359 216t104 216q0 131 -113 190t-340 35l-252 -1290h-145l270 1407q201 23 340 12.5t225.5 -57.5t125 -113.5t38.5 -154.5q0 -102 -54 -190.5t-147.5 -159.5t-238.5 -144l340 -582zM1554 96q110 0 204.5 92t148 237t53.5 302
q0 133 -45.5 201.5t-118.5 68.5q-72 0 -169 -63t-181 -156q-29 -165 -123 -639q140 -43 231 -43zM1221 -387l-142 -12q24 122 76 391.5t69.5 361t49 258t49 273t33.5 215.5l141 10q-16 -102 -33 -209q96 101 199 165t188 64q107 0 178.5 -95t71.5 -273q0 -152 -46 -295
t-125 -251.5t-194.5 -174.5t-246.5 -66q-68 0 -193 25q-14 -73 -39.5 -205t-35.5 -182z" />
    <glyph glyph-name="onehalf.afrc" horiz-adv-x="1167" 
d="M983 967h-629l21 108h266l115 588l-252 -14l12 90l262 33l25 126l125 9l-166 -832h248zM141 641l21 104h917l-20 -104h-918zM711 -477h-607l-2 100q122 79 199.5 131t156.5 112.5t121.5 106.5t69.5 96t27 97q0 196 -416 135l19 115q256 39 391 -20.5t135 -200.5
q0 -72 -32.5 -138.5t-104 -136.5t-158.5 -134.5t-223 -152.5h448z" />
    <glyph glyph-name="onethird.afrc" horiz-adv-x="1167" 
d="M983 967h-629l21 108h266l115 588l-252 -14l12 90l262 33l25 126l125 9l-166 -832h248zM141 641l21 104h917l-20 -104h-918zM758 -225q0 -45 -20 -85t-65.5 -78t-119.5 -61.5t-182 -34t-252 4.5l14 117q122 -14 209.5 -11t144.5 13t90.5 30.5t46.5 41.5t13 46
q0 131 -365 207l9 55l409 291h-422l23 109h553l-13 -109l-401 -286q328 -80 328 -250z" />
    <glyph glyph-name="twothirds.afrc" horiz-adv-x="1167" 
d="M956 967h-606l-2 100q122 79 199.5 131t156.5 112.5t121.5 106.5t69.5 96t27 97q0 196 -416 135l18 115q256 39 391.5 -21t135.5 -201q0 -72 -32.5 -138.5t-104.5 -136t-159 -134t-223 -152.5h449zM141 641l21 104h917l-20 -104h-918zM758 -225q0 -45 -20 -85t-65.5 -78
t-119.5 -61.5t-182 -34t-252 4.5l14 117q122 -14 209.5 -11t144.5 13t90.5 30.5t46.5 41.5t13 46q0 131 -365 207l9 55l409 291h-422l23 109h553l-13 -109l-401 -286q328 -80 328 -250z" />
    <glyph glyph-name="onequarter.afrc" horiz-adv-x="1167" 
d="M983 967h-629l21 108h266l115 588l-252 -14l12 90l262 33l25 126l125 9l-166 -832h248zM141 641l21 104h917l-20 -104h-918zM788 -289h-106l-37 -188h-115l37 188h-442l8 86q93 154 156.5 295t124.5 338l131 -6q-65 -195 -131 -330.5t-156 -273.5l330 -2l59 301l115 12
l-60 -313h117z" />
    <glyph glyph-name="threequarters.afrc" horiz-adv-x="1167" 
d="M1004 1219q0 -45 -20 -85t-65.5 -78t-119.5 -61.5t-182 -34t-252 4.5l14 116q122 -14 209.5 -11t144.5 13t90.5 30.5t46.5 42t13 46.5q0 131 -365 207l8 55l410 291h-422l23 109h553l-13 -109l-401 -287q328 -80 328 -249zM141 641l21 104h917l-20 -104h-918zM788 -289
h-106l-37 -188h-115l37 188h-442l8 86q93 154 156.5 295t124.5 338l131 -6q-65 -195 -131 -330.5t-156 -273.5l330 -2l59 301l115 12l-60 -313h117z" />
    <glyph glyph-name="onefifth.afrc" horiz-adv-x="1167" 
d="M983 967h-629l21 108h266l115 588l-252 -14l12 90l262 33l25 126l125 9l-166 -832h248zM141 641l21 104h917l-20 -104h-918zM764 -195q0 -49 -21.5 -93.5t-70.5 -84.5t-122 -67t-184 -38.5t-247 -0.5l16 117q147 -10 245 -3.5t156.5 32.5t82.5 56.5t24 67.5
q0 140 -410 203l103 426h514l-33 -109h-393l-57 -235q397 -75 397 -271z" />
    <glyph glyph-name="twofifths.afrc" horiz-adv-x="1167" 
d="M956 967h-606l-2 100q122 79 199.5 131t156.5 112.5t121.5 106.5t69.5 96t27 97q0 196 -416 135l18 115q256 39 391.5 -21t135.5 -201q0 -72 -32.5 -138.5t-104.5 -136t-159 -134t-223 -152.5h449zM141 641l21 104h917l-20 -104h-918zM764 -195q0 -49 -21.5 -93.5
t-70.5 -84.5t-122 -67t-184 -38.5t-247 -0.5l16 117q147 -10 245 -3.5t156.5 32.5t82.5 56.5t24 67.5q0 140 -410 203l103 426h514l-33 -109h-393l-57 -235q397 -75 397 -271z" />
    <glyph glyph-name="threefifths.afrc" horiz-adv-x="1167" 
d="M1004 1219q0 -45 -20 -85t-65.5 -78t-119.5 -61.5t-182 -34t-252 4.5l14 116q122 -14 209.5 -11t144.5 13t90.5 30.5t46.5 42t13 46.5q0 131 -365 207l8 55l410 291h-422l23 109h553l-13 -109l-401 -287q328 -80 328 -249zM141 641l21 104h917l-20 -104h-918zM764 -195
q0 -49 -21.5 -93.5t-70.5 -84.5t-122 -67t-184 -38.5t-247 -0.5l16 117q147 -10 245 -3.5t156.5 32.5t82.5 56.5t24 67.5q0 140 -410 203l103 426h514l-33 -109h-393l-57 -235q397 -75 397 -271z" />
    <glyph glyph-name="fourfifths.afrc" horiz-adv-x="1167" 
d="M1034 1155h-106l-37 -188h-115l37 188h-442l8 86q93 153 156 294t124 339l132 -6q-65 -195 -131 -330.5t-156 -273.5l330 -2l59 301l115 12l-60 -313h117zM141 641l21 104h917l-20 -104h-918zM764 -195q0 -49 -21.5 -93.5t-70.5 -84.5t-122 -67t-184 -38.5t-247 -0.5
l16 117q147 -10 245 -3.5t156.5 32.5t82.5 56.5t24 67.5q0 140 -410 203l103 426h514l-33 -109h-393l-57 -235q397 -75 397 -271z" />
    <glyph glyph-name="onesixth.afrc" horiz-adv-x="1167" 
d="M983 967h-629l21 108h266l115 588l-252 -14l12 90l262 33l25 126l125 9l-166 -832h248zM141 641l21 104h917l-20 -104h-918zM453 -498q-134 0 -217.5 80t-83.5 234q0 94 32.5 183t101 174.5t188 157.5t280.5 118l26 -109q-218 -57 -334.5 -155.5t-154.5 -217.5
q82 67 173 88.5t161.5 0t116.5 -82.5t46 -149q0 -143 -96 -232.5t-239 -89.5zM471 -397q93 0 147 57t54 143q0 63 -35 106.5t-90 58.5t-129 -5t-146 -78q-2 -16 -2 -49q0 -119 57.5 -176t143.5 -57z" />
    <glyph glyph-name="fivesixths.afrc" horiz-adv-x="1167" 
d="M1010 1249q0 -49 -21.5 -93.5t-70.5 -84.5t-122 -67t-184 -38.5t-247 -0.5l16 116q147 -10 245 -3.5t156.5 33t82.5 57t24 67.5q0 140 -410 203l103 426h514l-33 -109h-393l-58 -235q398 -75 398 -271zM141 641l21 104h917l-20 -104h-918zM453 -498q-134 0 -217.5 80
t-83.5 234q0 94 32.5 183t101 174.5t188 157.5t280.5 118l26 -109q-218 -57 -334.5 -155.5t-154.5 -217.5q82 67 173 88.5t161.5 0t116.5 -82.5t46 -149q0 -143 -96 -232.5t-239 -89.5zM471 -397q93 0 147 57t54 143q0 63 -35 106.5t-90 58.5t-129 -5t-146 -78
q-2 -16 -2 -49q0 -119 57.5 -176t143.5 -57z" />
    <glyph glyph-name="oneeighth.afrc" horiz-adv-x="1167" 
d="M983 967h-629l21 108h266l115 588l-252 -14l12 90l262 33l25 126l125 9l-166 -832h248zM141 641l21 104h917l-20 -104h-918zM739 -260q0 -100 -94 -170t-237 -70q-125 0 -202 55.5t-77 145.5q0 70 55 137.5t207 163.5q-64 60 -98.5 111t-34.5 104q0 72 58.5 127.5
t171.5 81.5t278 0l-37 -121q-132 32 -211 24.5t-111 -33t-32 -65.5q0 -36 30.5 -76t88.5 -94q165 94 323 170l43 -73q-170 -81 -299 -156q84 -74 131 -136t47 -126zM432 -397q85 0 139 36.5t54 92.5q0 24 -12 49t-42 56t-49.5 49t-64.5 57q-124 -76 -166.5 -124t-42.5 -91
q0 -57 52.5 -91t131.5 -34z" />
    <glyph glyph-name="threeeighths.afrc" horiz-adv-x="1167" 
d="M1004 1219q0 -45 -20 -85t-65.5 -78t-119.5 -61.5t-182 -34t-252 4.5l14 116q122 -14 209.5 -11t144.5 13t90.5 30.5t46.5 42t13 46.5q0 131 -365 207l8 55l410 291h-422l23 109h553l-13 -109l-401 -287q328 -80 328 -249zM141 641l21 104h917l-20 -104h-918zM739 -260
q0 -100 -94 -170t-237 -70q-125 0 -202 55.5t-77 145.5q0 70 55 137.5t207 163.5q-64 60 -98.5 111t-34.5 104q0 72 58.5 127.5t171.5 81.5t278 0l-37 -121q-132 32 -211 24.5t-111 -33t-32 -65.5q0 -36 30.5 -76t88.5 -94q165 94 323 170l43 -73q-170 -81 -299 -156
q84 -74 131 -136t47 -126zM432 -397q85 0 139 36.5t54 92.5q0 24 -12 49t-42 56t-49.5 49t-64.5 57q-124 -76 -166.5 -124t-42.5 -91q0 -57 52.5 -91t131.5 -34z" />
    <glyph glyph-name="fiveeighths.afrc" horiz-adv-x="1167" 
d="M1010 1249q0 -49 -21.5 -93.5t-70.5 -84.5t-122 -67t-184 -38.5t-247 -0.5l16 116q147 -10 245 -3.5t156.5 33t82.5 57t24 67.5q0 140 -410 203l103 426h514l-33 -109h-393l-58 -235q398 -75 398 -271zM141 641l21 104h917l-20 -104h-918zM739 -260q0 -100 -94 -170
t-237 -70q-125 0 -202 55.5t-77 145.5q0 70 55 137.5t207 163.5q-64 60 -98.5 111t-34.5 104q0 72 58.5 127.5t171.5 81.5t278 0l-37 -121q-132 32 -211 24.5t-111 -33t-32 -65.5q0 -36 30.5 -76t88.5 -94q165 94 323 170l43 -73q-170 -81 -299 -156q84 -74 131 -136
t47 -126zM432 -397q85 0 139 36.5t54 92.5q0 24 -12 49t-42 56t-49.5 49t-64.5 57q-124 -76 -166.5 -124t-42.5 -91q0 -57 52.5 -91t131.5 -34z" />
    <glyph glyph-name="seveneighths.afrc" horiz-adv-x="1167" 
d="M578 956l-132 17q236 420 539 776l-2 6h-489l24 111h621l-23 -103q-295 -361 -538 -807zM141 641l21 104h917l-20 -104h-918zM739 -260q0 -100 -94 -170t-237 -70q-125 0 -202 55.5t-77 145.5q0 70 55 137.5t207 163.5q-64 60 -98.5 111t-34.5 104q0 72 58.5 127.5
t171.5 81.5t278 0l-37 -121q-132 32 -211 24.5t-111 -33t-32 -65.5q0 -36 30.5 -76t88.5 -94q165 94 323 170l43 -73q-170 -81 -299 -156q84 -74 131 -136t47 -126zM432 -397q85 0 139 36.5t54 92.5q0 24 -12 49t-42 56t-49.5 49t-64.5 57q-124 -76 -166.5 -124t-42.5 -91
q0 -57 52.5 -91t131.5 -34z" />
    <glyph glyph-name="period.tab" horiz-adv-x="913" 
d="M449 0h-209l43 229h206z" />
    <glyph glyph-name="comma.tab" horiz-adv-x="913" 
d="M115 -362q121 133 159 262.5t23 324.5l203 6q-13 -196 -90.5 -341t-235.5 -289z" />
    <glyph glyph-name="colon.tab" horiz-adv-x="913" 
d="M594 874h-209l45 230h207zM424 0h-207l43 229h207z" />
    <glyph glyph-name="semicolon.tab" horiz-adv-x="913" 
d="M598 874h-209l43 230h209zM88 -362q121 133 159 262.5t23 324.5l205 6q-13 -195 -91 -340.5t-237 -289.5z" />
    <glyph glyph-name="periodcentered.tab" horiz-adv-x="919" 
d="M549 516h-207l43 229h207z" />
    <glyph glyph-name="slash.tab" 
d="M1378 1567l-1423 -1968l-135 30l1437 1983z" />
    <glyph glyph-name="bar.tab" horiz-adv-x="913" 
d="M592 1593h135l-391 -2003h-133z" />
    <glyph glyph-name="backslash.tab" 
d="M305 1585l125 33l643 -1993l-127 -31z" />
    <glyph glyph-name="underscore.tab" 
d="M1147 -115l-21 -116h-1273l22 116h1272z" />
    <glyph glyph-name="hyphen.tab" 
d="M1040 725l-22 -127h-739l22 127h739z" />
    <glyph glyph-name="endash.tab" 
d="M1143 719l-21 -115h-946l21 115h946z" />
    <glyph glyph-name="A.sc" horiz-adv-x="1224" 
d="M868 -6q-5 46 -20 177.5t-23 203.5h-473q-66 -125 -192 -375h-150q321 633 635 1198h209q113 -762 162 -1192zM721 1071q-180 -331 -313 -588h403q-55 433 -78 588h-12z" />
    <glyph glyph-name="B.sc" horiz-adv-x="1157" 
d="M985 356q0 -68 -29.5 -128t-94 -112.5t-166 -84t-246 -43t-334.5 11.5l231 1190q183 24 314 15.5t215.5 -46t124.5 -93t40 -126.5q0 -112 -85 -197.5t-236 -126.5q121 -25 193.5 -94.5t72.5 -165.5zM897 909q0 96 -109.5 146t-312.5 28l-88 -444q255 11 382.5 85.5
t127.5 184.5zM840 344q0 105 -116.5 163t-352.5 44l-86 -438q271 -30 413 39t142 192z" />
    <glyph glyph-name="C.sc" horiz-adv-x="1193" 
d="M780 1219q169 0 235 -107.5t60 -333.5l-141 -2q2 170 -35.5 244t-150.5 74q-136 0 -244.5 -95.5t-164.5 -239t-56 -298.5q0 -256 174.5 -329.5t509.5 42.5l-13 -131q-254 -81 -436.5 -63.5t-283.5 134.5t-101 316q0 203 86 384.5t236.5 293t324.5 111.5z" />
    <glyph glyph-name="D.sc" horiz-adv-x="1259" 
d="M1141 729q0 -136 -39 -255t-122 -217.5t-202 -164t-290 -91t-375 -1.5l233 1190q374 56 584.5 -62t210.5 -399zM993 713q0 207 -132.5 299.5t-387.5 70.5l-188 -968q144 -10 263 16t200.5 80.5t137.5 133.5t81.5 171t25.5 197z" />
    <glyph glyph-name="E.sc" horiz-adv-x="1087" 
d="M852 123l-33 -123h-706l233 1194h709l-23 -125h-561l-80 -412h479l-22 -108h-477l-84 -426h565z" />
    <glyph glyph-name="F.sc" horiz-adv-x="1050" 
d="M846 524h-479l-103 -524h-149l231 1194h715l-23 -125h-567l-84 -434h481z" />
    <glyph glyph-name="G.sc" horiz-adv-x="1247" 
d="M891 -211l-135 -2l51 225q-308 -82 -491 30.5t-183 387.5q0 151 52 295t139 252.5t209.5 175t254.5 66.5q173 0 243 -106t65 -335l-142 -2q0 169 -40 243.5t-158 74.5q-103 0 -193.5 -56t-150.5 -146.5t-94.5 -204t-34.5 -228.5q0 -228 143.5 -313.5t409.5 -16.5l75 334
l142 4z" />
    <glyph glyph-name="H.sc" horiz-adv-x="1335" 
d="M854 0l107 547h-592l-107 -547h-149l233 1194h150l-105 -535h592l104 535h150l-233 -1194h-150z" />
    <glyph glyph-name="I.sc" horiz-adv-x="1009" 
d="M492 115h276l-29 -115h-688l21 115h270l188 964h-274l23 115h688l-21 -115h-268z" />
    <glyph glyph-name="J.sc" horiz-adv-x="966" 
d="M596 88q-58 -58 -192 -85t-377 -26l22 136q219 -3 310.5 7.5t127.5 47.5q28 28 47.5 93t59.5 261l111 557h-375l24 115h518l-127 -653q-34 -171 -58 -260.5t-42.5 -126t-48.5 -66.5z" />
    <glyph glyph-name="K.sc" horiz-adv-x="1181" 
d="M831 -10l-397 608l594 596h164l-590 -596l389 -588zM346 1194h150l-234 -1194h-149z" />
    <glyph glyph-name="L.sc" horiz-adv-x="1028" 
d="M823 0h-708l231 1194h150l-209 -1069h563z" />
    <glyph glyph-name="M.sc" horiz-adv-x="1511" 
d="M555 1198l145 -883h5l491 879h215l-231 -1194h-146l207 1020h-12l-502 -899l-123 -2l-151 901h-13l-186 -1020h-139l231 1190z" />
    <glyph glyph-name="N.sc" horiz-adv-x="1345" 
d="M852 0l-393 1008h-15l-190 -1008h-139l231 1190l184 6l381 -973h13l184 971h139l-231 -1194h-164z" />
    <glyph glyph-name="O.sc" horiz-adv-x="1316" 
d="M770 1219q191 0 310.5 -130t119.5 -352q0 -153 -50 -293.5t-135 -244t-203.5 -165t-248.5 -61.5q-192 0 -311 130.5t-119 353.5q0 153 50.5 294t135.5 243.5t203.5 163.5t247.5 61zM592 98q131 0 237 85t164 227t58 309q0 175 -87 276t-223 101q-131 0 -236.5 -85.5
t-163.5 -227.5t-58 -308q0 -176 86.5 -276.5t222.5 -100.5z" />
    <glyph glyph-name="P.sc" horiz-adv-x="1126" 
d="M264 0h-149l231 1188q194 23 331 11t225 -58.5t128.5 -113.5t40.5 -155q0 -198 -192 -324.5t-539 -158.5zM926 850q0 125 -114.5 188t-338.5 41l-108 -555q269 -1 415 87.5t146 238.5z" />
    <glyph glyph-name="Q.sc" horiz-adv-x="1251" 
d="M942 -262l-627 248l35 100q292 103 474 296t182 411q0 141 -82 222t-226 81q-155 0 -260.5 -104t-130 -288t61.5 -436l-123 -49q-59 126 -79 253t-2.5 236t66.5 204.5t123 162.5t172.5 105.5t208.5 38.5q201 0 311.5 -116.5t110.5 -301.5q0 -228 -173.5 -430.5
t-457.5 -327.5l469 -182z" />
    <glyph glyph-name="R.sc" horiz-adv-x="1185" 
d="M852 -12l-360 547l2 4q230 97 325.5 177t95.5 183q0 104 -112.5 152.5t-331.5 27.5l-207 -1079h-149l231 1190q195 21 331.5 12t223 -49t125.5 -96.5t39 -130.5q0 -126 -100.5 -226t-292.5 -188l340 -500z" />
    <glyph glyph-name="S.sc" horiz-adv-x="1056" 
d="M956 889l-133 -27q-19 119 -72.5 175.5t-146.5 56.5q-96 0 -159.5 -61t-63.5 -146q0 -45 26.5 -90t68.5 -84t93 -78.5t102.5 -80.5t93.5 -83t68.5 -93t26.5 -104q0 -60 -27.5 -112.5t-90.5 -95t-154.5 -65t-229.5 -18.5t-305 40l33 141q114 -31 209.5 -45.5t162.5 -13
t117 13t79 34t43 49t14 58.5q0 40 -26.5 80.5t-68.5 77t-93 74.5t-102 79t-93 84.5t-68.5 97.5t-26.5 111q0 138 119 244t289 106q140 0 217 -82t98 -243z" />
    <glyph glyph-name="T.sc" horiz-adv-x="1095" 
d="M721 1069l-207 -1069h-147l206 1069h-376l22 125h901l-22 -125h-377z" />
    <glyph glyph-name="U.sc" horiz-adv-x="1296" 
d="M342 500q-79 -402 238 -402q136 0 220.5 79t117.5 253l147 764h149l-149 -764q-46 -233 -176.5 -344t-325.5 -111q-79 0 -143.5 18t-117.5 58t-82.5 103t-38 152.5t15.5 207.5l133 680h149z" />
    <glyph glyph-name="V.sc" horiz-adv-x="1175" 
d="M580 0h-213q-89 596 -144 1188l148 10q43 -490 116 -1063h21q312 578 543 1059h149q-314 -639 -620 -1194z" />
    <glyph glyph-name="W.sc" horiz-adv-x="1441" 
d="M860 0l-123 657l-372 -657h-170q3 183 31.5 507t76.5 687h146q-30 -216 -71 -574.5t-44 -445.5h12l381 682h102l121 -682h11q52 138 288 1020h142q-95 -368 -195 -691t-170 -503h-166z" />
    <glyph glyph-name="X.sc" horiz-adv-x="1189" 
d="M827 -6l-239 506l-412 -500h-166l518 608l-282 578l155 14l238 -495l401 489h168l-510 -596l285 -592z" />
    <glyph glyph-name="Y.sc" horiz-adv-x="1177" 
d="M553 0h-147l79 414l-268 776l152 8l219 -668h4l463 664h159l-583 -803z" />
    <glyph glyph-name="Z.sc" horiz-adv-x="1124" 
d="M870 0h-825l23 123l841 948l-645 -4l27 127h805l-21 -123l-837 -948l659 4z" />
    <glyph glyph-name="AE.sc" horiz-adv-x="1755" 
d="M975 1069q-341 -422 -490 -612h385l121 612h-16zM782 0l68 348h-449q-106 -135 -270 -348h-164q490 643 948 1194h807l-22 -125h-561l-80 -412h479l-22 -108h-478l-82 -426h564l-33 -123h-705z" />
    <glyph glyph-name="OE.sc" horiz-adv-x="1757" 
d="M1524 123l-35 -123h-670q-337 0 -509.5 117t-172.5 368q0 120 31.5 224t102 194t176 154t261.5 100.5t351 36.5h667l-24 -125h-561l-80 -412h479l-20 -108h-480l-82 -426h566zM287 502q0 -198 128 -287.5t396 -89.5l184 946q-155 -1 -276.5 -30t-202 -80t-132.5 -123.5
t-74.5 -155t-22.5 -180.5z" />
    <glyph glyph-name="Thorn.sc" horiz-adv-x="1126" 
d="M264 0h-149l231 1190l148 -2l-35 -180q292 13 433.5 -78t141.5 -254q0 -198 -192.5 -324.5t-540.5 -158.5zM889 653q0 125 -115 188.5t-340 41.5l-106 -555q269 -3 415 86t146 239z" />
    <glyph glyph-name="Eth.sc" horiz-adv-x="1253" 
d="M1141 729q0 -136 -39 -255t-122 -217.5t-202 -164t-290 -91t-375 -1.5l108 553h-145l20 109h146l104 528q374 56 584.5 -62t210.5 -399zM655 553h-284l-86 -438q144 -10 263 16t200.5 80.5t137.5 133.5t81.5 171t25.5 197q0 207 -132.5 299.5t-387.5 70.5l-82 -421h291z
" />
    <glyph glyph-name="Dcroat.sc" horiz-adv-x="1259" 
d="M1141 729q0 -136 -39 -255t-122 -217.5t-202 -164t-290 -91t-375 -1.5l108 553h-145l20 109h146l104 528q374 56 584.5 -62t210.5 -399zM655 553h-284l-86 -438q144 -10 263 16t200.5 80.5t137.5 133.5t81.5 171t25.5 197q0 207 -132.5 299.5t-387.5 70.5l-82 -421h291z
" />
    <glyph glyph-name="Hbar.sc" horiz-adv-x="1335" 
d="M983 659l39 195h-592l-39 -195h592zM854 0l107 547h-592l-107 -547h-149l166 850h-146l23 115h145l45 229h150l-45 -236h591l45 236h150l-45 -229h141l-22 -115h-142l-165 -850h-150z" />
    <glyph glyph-name="Lslash.sc" horiz-adv-x="1028" 
d="M823 0h-708l100 520l-168 -82l-4 123l199 96l104 537h150l-90 -459l319 154l6 -121l-352 -170l-92 -473h563z" />
    <glyph glyph-name="Oslash.sc" horiz-adv-x="1316" 
d="M283 475q0 -93 24 -164l658 682q-83 103 -224 103q-131 0 -236.5 -85.5t-163.5 -227.5t-58 -308zM592 98q131 0 237 85t164 227t58 309q0 93 -29 172l-662 -682q88 -111 232 -111zM563 -27q-189 0 -307 127l-154 -157l-82 73l173 174q-60 114 -60 267t50.5 294
t135.5 243.5t203.5 163.5t247.5 61q182 0 299 -117l150 153l81 -73l-165 -168q65 -115 65 -277q0 -153 -50 -293.5t-135 -244t-203.5 -165t-248.5 -61.5z" />
    <glyph glyph-name="Ccedilla.sc" horiz-adv-x="1193" 
d="M711 -387l-133 -2q10 156 -14.5 229.5t-74.5 73.5q-48 0 -95 -61t-99 -179l-80 27q87 233 197 299q-135 43 -207 153t-72 277q0 203 86 384.5t236.5 293t324.5 111.5q169 0 235 -107.5t60 -333.5l-141 -2q2 170 -35.5 244t-150.5 74q-136 0 -244.5 -95.5t-164.5 -239
t-56 -298.5q0 -256 174.5 -329.5t509.5 42.5l-13 -131q-183 -60 -325 -66q99 -102 82 -364z" />
    <glyph glyph-name="Scedilla.sc" horiz-adv-x="1056" 
d="M479 -389q10 156 -14 229.5t-74 73.5q-48 0 -95 -61t-99 -179l-80 27q81 211 176 285q-100 8 -240 37l33 141q114 -31 209.5 -45.5t162.5 -13t117 13t79 34t43 49t14 58.5q0 40 -26.5 80.5t-68.5 77t-93 74.5t-102 79t-93 84.5t-68.5 97.5t-26.5 111q0 138 119 244
t289 106q140 0 217 -82t98 -243l-133 -27q-19 119 -72.5 175.5t-146.5 56.5q-96 0 -159.5 -61t-63.5 -146q0 -45 26.5 -90t68.5 -84t93 -78.5t102.5 -80.5t93.5 -83t68.5 -93t26.5 -104q0 -104 -86 -183t-256 -101q114 -96 94 -377z" />
    <glyph glyph-name="Aogonek.sc" horiz-adv-x="1224" 
d="M950 -369q-110 -62 -201.5 -84t-148 -6.5t-87 52.5t-30.5 88q0 178 381 350q-6 54 -19.5 169t-19.5 175h-473q-66 -125 -192 -375h-150q321 633 635 1198h209q113 -762 162 -1192q-201 -73 -298 -145.5t-97 -136.5q0 -24 10.5 -41.5t34.5 -27.5t59 -9.5t87.5 14.5
t117.5 41zM721 1071q-180 -331 -313 -588h403q-55 433 -78 588h-12z" />
    <glyph glyph-name="Eogonek.sc" horiz-adv-x="1087" 
d="M754 -375q-110 -62 -201.5 -84t-148 -7t-87 52t-30.5 88q0 78 80.5 161t248.5 165h-503l233 1194h709l-23 -125h-561l-80 -412h479l-22 -108h-477l-84 -426h565l-33 -123q-201 -73 -298 -146t-97 -137q0 -24 10.5 -41.5t34.5 -27t59 -9t87.5 14.5t117.5 41z" />
    <glyph glyph-name="Iogonek.sc" horiz-adv-x="1009" 
d="M561 -373q-107 -61 -197.5 -83t-148 -7.5t-89.5 52t-32 92.5q0 74 58.5 156.5t173.5 162.5h-275l21 115h270l188 964h-274l23 115h688l-21 -115h-268l-186 -964h276l-29 -115h-260q-122 -68 -186 -142.5t-64 -138.5q0 -26 12 -43.5t37 -26.5t61 -8t87 15t113 41z" />
    <glyph glyph-name="Uogonek.sc" horiz-adv-x="1296" 
d="M743 -373q-88 -50 -164.5 -74t-129 -22.5t-90.5 21t-56 51.5t-18 73q0 72 63 144.5t207 154.5q-98 2 -173 31t-129 93t-67.5 166t11.5 249l133 680h149l-137 -694q-79 -402 238 -402q136 0 220.5 79t117.5 253l147 764h149l-149 -764q-21 -112 -60 -191t-97.5 -134.5
t-147.5 -102.5q-174 -88 -256 -153t-82 -134q0 -24 9.5 -40.5t32 -25.5t57 -8t86 15t116.5 41z" />
    <glyph glyph-name="Aring.sc" horiz-adv-x="1224" 
d="M838 1802q112 0 183 -60.5t71 -154.5q0 -106 -83.5 -180t-209.5 -74q-110 0 -180 61.5t-70 155.5q0 106 82 179t207 73zM827 1706q-71 0 -118 -42t-47 -103q0 -56 42 -92.5t109 -36.5q70 0 118 42t48 101q0 57 -43 94t-109 37zM868 -6q-5 46 -20 177.5t-23 203.5h-473
q-66 -125 -192 -375h-150q321 633 635 1198h209q113 -762 162 -1192zM721 1071q-180 -331 -313 -588h403q-55 433 -78 588h-12z" />
    <glyph glyph-name="Aringacute.sc" horiz-adv-x="1224" 
d="M678 1972q101 70 232.5 182t217.5 203l109 -125q-94 -78 -243 -168.5t-283 -158.5zM838 1802q112 0 183 -60.5t71 -154.5q0 -106 -83.5 -180t-209.5 -74q-110 0 -180 61.5t-70 155.5q0 106 82 179t207 73zM827 1706q-71 0 -118 -42t-47 -103q0 -56 42 -92.5t109 -36.5
q70 0 118 42t48 101q0 57 -43 94t-109 37zM868 -6q-5 46 -20 177.5t-23 203.5h-473q-66 -125 -192 -375h-150q321 633 635 1198h209q113 -762 162 -1192zM721 1071q-180 -331 -313 -588h403q-55 433 -78 588h-12z" />
    <glyph glyph-name="Ldot.sc" horiz-adv-x="1028" 
d="M823 0h-708l231 1194h150l-209 -1069h563zM879 532h-183l43 222h185z" />
    <glyph glyph-name="Aacute.sc" horiz-adv-x="1224" 
d="M571 1430q102 70 234 182t217 203l108 -125q-94 -79 -243.5 -170t-282.5 -158zM868 -6q-5 46 -20 177.5t-23 203.5h-473q-66 -125 -192 -375h-150q321 633 635 1198h209q113 -762 162 -1192zM721 1071q-180 -331 -313 -588h403q-55 433 -78 588h-12z" />
    <glyph glyph-name="Agrave.sc" horiz-adv-x="1224" 
d="M975 1411l-41 -65q-100 67 -228.5 170.5t-209.5 187.5l106 123q74 -100 182 -220.5t191 -195.5zM868 -6q-5 46 -20 177.5t-23 203.5h-473q-66 -125 -192 -375h-150q321 633 635 1198h209q113 -762 162 -1192zM721 1071q-180 -331 -313 -588h403q-55 433 -78 588h-12z" />
    <glyph glyph-name="Acircumflex.sc" horiz-adv-x="1224" 
d="M1049 1362l-209 266l-336 -256l-70 82l432 334h2l285 -342zM868 -6q-5 46 -20 177.5t-23 203.5h-473q-66 -125 -192 -375h-150q321 633 635 1198h209q113 -762 162 -1192zM721 1071q-180 -331 -313 -588h403q-55 433 -78 588h-12z" />
    <glyph glyph-name="Abreve.sc" horiz-adv-x="1224" 
d="M1147 1759l86 -57q-235 -324 -445 -324q-209 0 -323 330l115 61q53 -145 108 -206.5t133 -61.5q77 0 150 61.5t176 196.5zM868 -6q-5 46 -20 177.5t-23 203.5h-473q-66 -125 -192 -375h-150q321 633 635 1198h209q113 -762 162 -1192zM721 1071q-180 -331 -313 -588h403
q-55 433 -78 588h-12z" />
    <glyph glyph-name="Atilde.sc" horiz-adv-x="1224" 
d="M973 1503q39 0 87.5 59t117.5 175l75 -47q-169 -306 -313 -306q-38 0 -72 25t-58 60.5t-46 71t-46.5 60.5t-49.5 25q-40 0 -90 -57t-115 -166l-76 47q166 295 315 295q38 0 72 -25t57.5 -60.5t45.5 -71t46.5 -60.5t49.5 -25zM868 -6q-5 46 -20 177.5t-23 203.5h-473
q-66 -125 -192 -375h-150q321 633 635 1198h209q113 -762 162 -1192zM721 1071q-180 -331 -313 -588h403q-55 433 -78 588h-12z" />
    <glyph glyph-name="Adieresis.sc" horiz-adv-x="1224" 
d="M1069 1395l-154 -2l72 295l172 4zM625 1391l-154 -5l72 295l170 5zM868 -6q-5 46 -20 177.5t-23 203.5h-473q-66 -125 -192 -375h-150q321 633 635 1198h209q113 -762 162 -1192zM721 1071q-180 -331 -313 -588h403q-55 433 -78 588h-12z" />
    <glyph glyph-name="Amacron.sc" horiz-adv-x="1224" 
d="M1169 1608l-24 -129h-684l26 129h682zM868 -6q-5 46 -20 177.5t-23 203.5h-473q-66 -125 -192 -375h-150q321 633 635 1198h209q113 -762 162 -1192zM721 1071q-180 -331 -313 -588h403q-55 433 -78 588h-12z" />
    <glyph glyph-name="Cacute.sc" horiz-adv-x="1193" 
d="M608 1450q102 70 234 182t217 203l108 -125q-94 -79 -243.5 -170t-282.5 -158zM780 1219q169 0 235 -107.5t60 -333.5l-141 -2q2 170 -35.5 244t-150.5 74q-136 0 -244.5 -95.5t-164.5 -239t-56 -298.5q0 -256 174.5 -329.5t509.5 42.5l-13 -131q-254 -81 -436.5 -63.5
t-283.5 134.5t-101 316q0 203 86 384.5t236.5 293t324.5 111.5z" />
    <glyph glyph-name="Ccaron.sc" horiz-adv-x="1193" 
d="M813 1374h-2l-285 342l105 84l211 -266l334 258l69 -82zM780 1219q169 0 235 -107.5t60 -333.5l-141 -2q2 170 -35.5 244t-150.5 74q-136 0 -244.5 -95.5t-164.5 -239t-56 -298.5q0 -256 174.5 -329.5t509.5 42.5l-13 -131q-254 -81 -436.5 -63.5t-283.5 134.5t-101 316
q0 203 86 384.5t236.5 293t324.5 111.5z" />
    <glyph glyph-name="Cdotaccent.sc" horiz-adv-x="1193" 
d="M883 1411l-154 -2l72 295l172 2zM780 1219q169 0 235 -107.5t60 -333.5l-141 -2q2 170 -35.5 244t-150.5 74q-136 0 -244.5 -95.5t-164.5 -239t-56 -298.5q0 -256 174.5 -329.5t509.5 42.5l-13 -131q-254 -81 -436.5 -63.5t-283.5 134.5t-101 316q0 203 86 384.5
t236.5 293t324.5 111.5z" />
    <glyph glyph-name="Dcaron.sc" horiz-adv-x="1259" 
d="M760 1362h-2l-285 342l105 84l210 -266l334 258l70 -82zM1141 729q0 -136 -39 -255t-122 -217.5t-202 -164t-290 -91t-375 -1.5l233 1190q374 56 584.5 -62t210.5 -399zM993 713q0 207 -132.5 299.5t-387.5 70.5l-188 -968q144 -10 263 16t200.5 80.5t137.5 133.5
t81.5 171t25.5 197z" />
    <glyph glyph-name="Eacute.sc" horiz-adv-x="1087" 
d="M522 1423q102 70 234 182t217 203l108 -125q-94 -78 -243 -168.5t-283 -158.5zM852 123l-33 -123h-706l233 1194h709l-23 -125h-561l-80 -412h479l-22 -108h-477l-84 -426h565z" />
    <glyph glyph-name="Egrave.sc" horiz-adv-x="1087" 
d="M926 1405l-41 -66q-100 67 -229 171t-210 188l107 123q74 -100 182 -220.5t191 -195.5zM852 123l-33 -123h-706l233 1194h709l-23 -125h-561l-80 -412h479l-22 -108h-477l-84 -426h565z" />
    <glyph glyph-name="Ecircumflex.sc" horiz-adv-x="1087" 
d="M999 1356l-208 266l-336 -256l-70 82l432 334h2l285 -342zM852 123l-33 -123h-706l233 1194h709l-23 -125h-561l-80 -412h479l-22 -108h-477l-84 -426h565z" />
    <glyph glyph-name="Ecaron.sc" horiz-adv-x="1087" 
d="M727 1348h-2l-285 342l105 84l211 -267l334 258l69 -82zM852 123l-33 -123h-706l233 1194h709l-23 -125h-561l-80 -412h479l-22 -108h-477l-84 -426h565z" />
    <glyph glyph-name="Ebreve.sc" horiz-adv-x="1087" 
d="M1098 1753l86 -57q-235 -324 -445 -324q-209 0 -323 330l114 61q52 -145 108 -206.5t134 -61.5q77 0 150 61.5t176 196.5zM852 123l-33 -123h-706l233 1194h709l-23 -125h-561l-80 -412h479l-22 -108h-477l-84 -426h565z" />
    </font>
</defs>
</svg>
