<?xml version="1.0" standalone="no"?>
<!DOCTYPE svg PUBLIC "-//W3C//DTD SVG 1.1//EN" "http://www.w3.org/Graphics/SVG/1.1/DTD/svg11.dtd" >
<svg xmlns="http://www.w3.org/2000/svg" xmlns:xlink="http://www.w3.org/1999/xlink" version="1.1">
<metadata>
Created by FontForge 20170731 at Sat May 29 02:54:11 2021
 By Aleksey,,,
Copyright (C) 2016 Hoefler &#38; Co. http://www.typography.com
</metadata>
<defs>
<font id="OperatorMono-XLight" horiz-adv-x="1126" >
  <font-face 
    font-family="Operator Mono XLight"
    font-weight="275"
    font-stretch="normal"
    units-per-em="2048"
    panose-1="2 0 0 9 0 0 0 0 0 0"
    ascent="1638"
    descent="-410"
    x-height="983"
    cap-height="1270"
    bbox="-20 -575 1212.07 2329"
    underline-thickness="71"
    underline-position="-210"
    unicode-range="U+0020-E10D"
  />
<missing-glyph 
d="M10 -410v2048h1106v-2048h-1106zM168 1536l395 -799l395 799h-790zM1006 1384l-381 -770l381 -770v1540zM121 -156l381 770l-381 770v-1540zM563 492l-395 -799h790z" />
    <glyph glyph-name=".notdef" 
d="M10 -410v2048h1106v-2048h-1106zM168 1536l395 -799l395 799h-790zM1006 1384l-381 -770l381 -770v1540zM121 -156l381 770l-381 770v-1540zM563 492l-395 -799h790z" />
    <glyph glyph-name=".null" horiz-adv-x="0" 
 />
    <glyph glyph-name="nonmarkingreturn" horiz-adv-x="682" 
 />
    <glyph glyph-name="space" unicode=" " 
 />
    <glyph glyph-name="exclam" unicode="!" 
d="M602 451h-57q0 129 -2.5 281.5t-7.5 359t-7 290.5h115q-38 -807 -41 -931zM639 0h-158l4 174h158z" />
    <glyph glyph-name="quotedbl" unicode="&#x22;" 
d="M797 770h-56l-8 590h127l6 -64zM369 770h-56l-10 590h127l8 -64z" />
    <glyph glyph-name="numbersign" unicode="#" 
d="M696 469l33 336h-301l-33 -336h301zM649 0l39 389h-301l-39 -389h-74l39 389h-219l8 80h220l32 336h-219l8 80h219l39 385h74l-39 -385h301l39 385h74l-39 -385h221l-8 -80h-221l-33 -336h221l-8 -80h-221l-39 -389h-74z" />
    <glyph glyph-name="dollar" unicode="$" 
d="M309 973q0 -35 19 -69t58 -68t77.5 -60.5t97.5 -62.5l76 428q-169 -3 -248.5 -49.5t-79.5 -118.5zM856 322q0 68 -65 129t-187 135l-82 -463q167 9 250.5 64.5t83.5 134.5zM473 -184h-84l41 225q-112 0 -250 18l17 88q144 -24 254 -24l90 502q-58 34 -96 58t-84.5 59.5
t-74 66.5t-46.5 70t-19 79q0 107 107 181t323 84l39 229h84l-45 -229q94 0 211 -15l-8 -88q-125 18 -223 21l-86 -467q58 -35 96 -59.5t85 -61t74.5 -68.5t46.5 -72t19 -81q0 -110 -110 -191.5t-322 -95.5z" />
    <glyph glyph-name="percent" unicode="%" 
d="M309 1298q84 0 134.5 -72t50.5 -198q0 -131 -56 -209t-143 -78q-86 0 -136 71.5t-50 197.5q0 132 55.5 210t144.5 78zM897 1288l72 -35l-738 -1286l-71 39zM303 1219q-50 0 -78 -52t-28 -147q0 -96 27 -148.5t75 -52.5q50 0 78.5 52.5t28.5 148.5q0 95 -27.5 147
t-75.5 52zM819 -23q-86 0 -136 71.5t-50 197.5q0 132 56 210.5t145 78.5q84 0 134 -72.5t50 -198.5q0 -131 -56 -209t-143 -78zM823 55q50 0 78.5 52.5t28.5 148.5q0 95 -27.5 147t-75.5 52q-50 0 -78 -52t-28 -147q0 -96 27 -148.5t75 -52.5z" />
    <glyph glyph-name="ampersand" unicode="&#x26;" 
d="M1036 37l-69 -64q-79 95 -219 256q-84 -127 -181.5 -189.5t-197.5 -62.5q-126 0 -199.5 79.5t-73.5 199.5q0 108 70 210.5t207 188.5q-71 90 -103 157t-32 134q0 53 17 101.5t58.5 94.5t104.5 79t162.5 52t224.5 17l8 -88q-112 5 -199 -6t-141 -33.5t-89 -56t-48.5 -69
t-13.5 -76.5q0 -32 8.5 -63.5t33 -73t49 -76.5t76.5 -96t94.5 -108t122.5 -136q26 -28 39 -43q97 193 154 460l86 -10q-75 -308 -188 -508q45 -51 239 -270zM385 57q79 0 161 58t150 170q-41 47 -104.5 118t-105.5 119t-74 86q-112 -74 -169 -161.5t-57 -172.5
q0 -98 51.5 -157.5t147.5 -59.5z" />
    <glyph glyph-name="quotesingle" unicode="'" 
d="M596 739h-61l-11 621h142l8 -68z" />
    <glyph glyph-name="parenleft" unicode="(" 
d="M887 1473l61 -64q-319 -241 -463.5 -458t-144.5 -429q0 -209 142.5 -423t457.5 -453l-61 -64q-328 259 -478.5 488t-150.5 450q0 227 152.5 460t484.5 493z" />
    <glyph glyph-name="parenright" unicode=")" 
d="M240 -416l-62 64q319 241 463.5 458t144.5 429q0 207 -142.5 421t-457.5 453l62 66q328 -259 478.5 -488t150.5 -450q0 -227 -152.5 -460t-484.5 -493z" />
    <glyph glyph-name="asterisk" unicode="*" 
d="M758 641l-195 258l-235 -219l-43 35l188 262l-289 158l25 51l307 -99l64 322l57 -4l2 -326l326 37l14 -51l-313 -102l139 -293z" />
    <glyph glyph-name="plus" unicode="+" 
d="M989 549h-385v-406h-82v406h-387v78h387v405h82v-405h387z" />
    <glyph glyph-name="comma" unicode="," 
d="M416 -395q115 127 126 259t-71 308l154 12q44 -177 5 -323t-169 -275z" />
    <glyph glyph-name="hyphen" unicode="-" 
d="M887 627l-4 -78h-635v78h639z" />
    <glyph glyph-name="period" unicode="." 
d="M643 0h-162l8 176h162z" />
    <glyph glyph-name="slash" unicode="/" 
d="M1010 1452l75 -35l-960 -1775l-82 22z" />
    <glyph glyph-name="zero" unicode="0" 
d="M551 -23q-199 0 -309.5 170t-110.5 471q0 306 121.5 490t325.5 184q199 0 309 -169.5t110 -471.5q0 -305 -121.5 -489.5t-324.5 -184.5zM221 635q0 -75 6 -139l664 344q-30 180 -111 276t-211 96q-168 0 -258 -151.5t-90 -425.5zM561 57q168 0 256 151.5t88 426.5
q0 69 -6 131l-661 -344q30 -175 112 -270t211 -95z" />
    <glyph glyph-name="one" unicode="1" 
d="M971 0h-760v80h358v1001l-340 -24l-2 65l342 47v142l90 8v-1239h320z" />
    <glyph glyph-name="two" unicode="2" 
d="M979 0h-803l-8 78q124 107 203.5 177t164.5 151.5t134.5 140.5t92.5 123.5t61 122.5t18 116q0 68 -29.5 118.5t-99.5 91t-196.5 61t-309.5 20.5l8 86q164 2 289 -15.5t204.5 -48.5t130 -78t71 -100t20.5 -118q0 -78 -29 -156t-78.5 -152t-136 -163.5t-180 -173.5
t-232.5 -199h705v-82z" />
    <glyph glyph-name="three" unicode="3" 
d="M205 -20l-8 86q680 34 680 286q0 233 -574 295v49l535 492h-631v82h727l6 -80l-526 -483q547 -81 547 -345q0 -164 -182.5 -264t-573.5 -118z" />
    <glyph glyph-name="four" unicode="4" 
d="M1026 291h-158v-291h-86v291h-592q-2 168 37.5 439t108.5 556l100 -8q-61 -253 -112.5 -514t-61.5 -391h520v473l86 10v-483h168z" />
    <glyph glyph-name="five" unicode="5" 
d="M950 412q0 -172 -185 -285.5t-558 -146.5l-6 86q351 34 507 120.5t156 225.5q0 238 -637 276l41 582h641l-8 -82h-555l-31 -430q635 -51 635 -346z" />
    <glyph glyph-name="six" unicode="6" 
d="M565 -18q-182 0 -292.5 126.5t-110.5 358.5q0 544 602 848l39 -84q-485 -221 -543 -631q69 72 151.5 114.5t160.5 52t151.5 -10t128.5 -64.5t88 -119t33 -167q0 -126 -57 -224t-149.5 -149t-201.5 -51zM573 63q131 0 221.5 90.5t90.5 237.5q0 82 -28 145.5t-75 100
t-111 49.5t-133 0t-144 -55t-142 -109v-43q0 -201 88 -308.5t233 -107.5z" />
    <glyph glyph-name="seven" unicode="7" 
d="M434 -6l-94 10q207 608 553 1176l-4 6h-707l6 84h795v-76q-349 -597 -549 -1200z" />
    <glyph glyph-name="eight" unicode="8" 
d="M541 -23q-166 0 -270.5 80.5t-104.5 212.5q0 116 82.5 211.5t230.5 165.5q-66 37 -111 68.5t-89 73t-66.5 90.5t-22.5 104q0 58 26.5 112.5t75 98.5t123.5 71t165 27q156 0 258 -78.5t102 -205.5q0 -115 -78 -199.5t-227 -155.5q76 -41 123 -71t99.5 -74.5t78 -95
t25.5 -109.5q0 -139 -117 -232.5t-303 -93.5zM281 997q0 -50 22.5 -94t68.5 -83.5t90.5 -68t112.5 -65.5q135 61 205 134.5t70 168.5q0 100 -76 162.5t-207 62.5q-136 0 -211 -63t-75 -154zM559 55q140 0 225.5 65.5t85.5 166.5q0 24 -6.5 47t-15 41.5t-27.5 40t-32.5 36
t-42.5 35.5t-45 32t-52.5 32t-52 30t-55.5 31q-283 -126 -283 -317q0 -108 80.5 -174t220.5 -66z" />
    <glyph glyph-name="nine" unicode="9" 
d="M362 -45l-40 84q254 116 387 273.5t161 359.5q-69 -73 -151.5 -116t-160 -53t-151 9.5t-128.5 64.5t-88 119.5t-33 167.5q0 189 119 306.5t288 117.5q180 0 291 -127t111 -358q0 -544 -605 -848zM244 879q0 -83 28.5 -146.5t75.5 -100.5t111.5 -49.5t134 1t144.5 56
t141 110.5v41q0 201 -89 308t-235 107q-130 0 -220.5 -90t-90.5 -237z" />
    <glyph glyph-name="colon" unicode=":" 
d="M651 696h-159l2 178h159zM633 0h-160l6 176h162z" />
    <glyph glyph-name="semicolon" unicode=";" 
d="M653 696h-159l2 178h159zM430 -395q115 127 126 259t-71 308l154 12q44 -177 5 -323t-169 -275z" />
    <glyph glyph-name="less" unicode="&#x3c;" 
d="M862 1206l56 -63l-637 -545v-16l651 -559l-55 -62l-684 588v82z" />
    <glyph glyph-name="equal" unicode="=" 
d="M950 864l-2 -78h-772v78h774zM950 406l-2 -78h-772v78h774z" />
    <glyph glyph-name="greater" unicode="&#x3e;" 
d="M250 -39l-55 62l651 559v16l-637 545l55 63l670 -575v-82z" />
    <glyph glyph-name="question" unicode="?" 
d="M180 1303l10 83q221 -13 377.5 -43.5t244 -74t126.5 -93.5t39 -112q0 -45 -24 -89.5t-63.5 -83t-87 -77.5t-96.5 -80.5t-90.5 -83.5t-70.5 -94t-35 -106l-59 2q4 67 38.5 131.5t82.5 112t103.5 96t102.5 87.5t78 83.5t31 85.5q0 47 -34 86t-111 74t-219 59.5t-343 36.5z
M541 0h-150l2 174h152z" />
    <glyph glyph-name="at" unicode="@" 
d="M909 -311q-175 -23 -309.5 5t-222 96t-143 178.5t-78.5 242t-23 297.5q0 266 66.5 468t183 309.5t264.5 107.5q328 0 328 -482q0 -409 10 -764l-78 -8q-1 14 -4 42.5t-4 43.5q-48 -51 -94.5 -77.5t-106.5 -26.5q-106 0 -172.5 104.5t-66.5 284.5q0 237 116.5 363.5
t313.5 101.5q-15 340 -252 340q-190 0 -306 -210t-116 -587q0 -159 19 -279t66.5 -221.5t125 -161.5t199 -84.5t284.5 -4.5v-78zM721 199q88 0 170 86v604q-184 42 -265 -54t-81 -307q0 -160 45 -244.5t131 -84.5z" />
    <glyph glyph-name="A" unicode="A" 
d="M936 -4q-24 82 -69 231.5t-62 206.5h-488q-21 -71 -129 -434h-90q194 649 400 1276h131q198 -602 399 -1272zM553 1188q-39 -120 -213 -680h442q-117 379 -215 680h-14z" />
    <glyph glyph-name="B" unicode="B" 
d="M995 346q1 -92 -38 -162t-109 -112.5t-167 -66t-213.5 -23t-248.5 17.5v1270q228 26 390 8.5t251.5 -93t89.5 -204.5q0 -135 -82 -216.5t-215 -109.5q103 -12 177 -47t119 -101.5t46 -160.5zM311 1198v-518q292 -7 421.5 62t129.5 219q0 299 -551 237zM311 76
q131 -20 239.5 -14t187 34t122 89t43.5 151q0 68 -24.5 116t-70.5 79t-120.5 48t-164 22t-212.5 1v-526z" />
    <glyph glyph-name="C" unicode="C" 
d="M969 76l-8 -82q-187 -10 -329.5 15.5t-233.5 78t-148 135t-80 176.5t-23 211q0 108 24.5 200t82.5 176.5t148.5 146t229.5 101.5t318 48l6 -88q-145 -6 -258.5 -29t-191 -61.5t-130.5 -87t-82.5 -113t-41.5 -130.5t-12 -148q0 -111 19.5 -195t69 -156t131 -116.5
t209.5 -66.5t300 -15z" />
    <glyph glyph-name="D" unicode="D" 
d="M1008 662q0 -379 -211.5 -553.5t-597.5 -110.5v1274q285 43 465 -13.5t262 -203.5t82 -393zM915 641q0 329 -149.5 462.5t-474.5 92.5v-1120q304 -47 464 101.5t160 463.5z" />
    <glyph glyph-name="E" unicode="E" 
d="M985 82l-10 -82h-739v1270h743v-82h-651v-506h569v-74h-569v-526h657z" />
    <glyph glyph-name="F" unicode="F" 
d="M918 588h-574v-588h-92v1270h752v-82h-660v-526h574v-74z" />
    <glyph glyph-name="G" unicode="G" 
d="M956 10q-151 -29 -271 -29t-212.5 32t-158.5 85.5t-108.5 132t-62.5 170.5t-20 201q0 92 16.5 172t52.5 155.5t98 136t147.5 107.5t206 75t269.5 34l7 -88q-122 -4 -221.5 -22t-172 -46t-127.5 -68.5t-89.5 -86t-56 -103.5t-30 -116.5t-8.5 -128.5q0 -115 19 -205
t65.5 -164.5t120 -119.5t185.5 -62.5t259 -1.5q0 66 -1 255.5t-1 311.5h92q0 -78 -1 -227.5t-0.5 -237.5t3.5 -162z" />
    <glyph glyph-name="H" unicode="H" 
d="M846 0v608h-565v-608h-93v1270h93v-588h565v588h92v-1270h-92z" />
    <glyph glyph-name="I" unicode="I" 
d="M606 1194v-1118h348l-8 -76h-772v76h340v1118h-340v76h772v-76h-340z" />
    <glyph glyph-name="J" unicode="J" 
d="M281 1270h555v-881q0 -150 -56.5 -239.5t-197 -134t-381.5 -38.5v89q85 -1 153.5 -2t122.5 7.5t94.5 18.5t70 30.5t49 44t31.5 59t16.5 75t4.5 92.5v803h-462v76z" />
    <glyph glyph-name="K" unicode="K" 
d="M936 -8l-471 612h-154v-604h-92v1270h92v-594h160l438 594h101l-463 -629l491 -635z" />
    <glyph glyph-name="L" unicode="L" 
d="M1008 0h-752v1270h92v-1188h668z" />
    <glyph glyph-name="M" unicode="M" 
d="M825 1270h146v-1270h-92l2 1151h-9l-260 -967h-96l-268 967h-8l2 -1151h-88v1270h147q213 -781 260 -955h8z" />
    <glyph glyph-name="N" unicode="N" 
d="M827 0l-542 1153h-11l2 -1153h-88v1270h129l527 -1125h8l-2 1125h88v-1270h-111z" />
    <glyph glyph-name="O" unicode="O" 
d="M549 -31q-208 0 -325.5 170t-117.5 477q0 325 127.5 504.5t346.5 179.5q208 0 323.5 -168.5t116.5 -478.5q1 -324 -125.5 -504t-345.5 -180zM561 1221q-174 0 -268 -152t-94 -434q0 -285 93.5 -435.5t272.5 -150.5q173 0 268 152.5t95 433.5q0 284 -94.5 435t-272.5 151z
" />
    <glyph glyph-name="P" unicode="P" 
d="M322 0h-93v1266q371 63 574 -42t203 -335q0 -213 -179 -321t-505 -117v-451zM913 874q0 186 -149.5 273.5t-441.5 46.5v-655q290 -12 440.5 68t150.5 267z" />
    <glyph glyph-name="Q" unicode="Q" 
d="M924 -252l-441 170l21 53q-189 19 -293.5 187t-104.5 458q0 325 127.5 504.5t346.5 179.5q208 0 323.5 -168.5t116.5 -478.5q1 -306 -112 -484.5t-312 -197.5l-2 -4l360 -139zM561 1221q-174 0 -268 -152t-94 -434q0 -285 93.5 -435.5t272.5 -150.5q173 0 268 152.5
t95 433.5q0 284 -94.5 435t-272.5 151z" />
    <glyph glyph-name="R" unicode="R" 
d="M932 -20l-291 526l-332 -8v-498h-92v1266q158 29 279 25.5t206 -29t139 -75t78.5 -112t24.5 -141.5q0 -230 -225 -389l309 -545zM309 1194v-623l346 7q197 130 197 340q0 79 -30.5 138t-96 99.5t-168.5 50t-248 -11.5z" />
    <glyph glyph-name="S" unicode="S" 
d="M188 82q189 -15 320 -3t212 50t117.5 85t36.5 103q0 53 -37.5 102.5t-97.5 90t-132.5 79.5t-145.5 80t-133 84t-97.5 98t-37.5 116q0 53 22.5 101t75 91t131 72t199 42.5t270.5 4.5l6 -90q-143 11 -248.5 2.5t-175.5 -25.5t-112.5 -46.5t-60 -62t-17.5 -71.5
q0 -51 37.5 -99.5t98 -87.5t133 -78.5t145 -81t133 -85t98 -100.5t37.5 -119q0 -57 -27 -110.5t-87.5 -101.5t-149 -81.5t-221.5 -48t-294 -2.5z" />
    <glyph glyph-name="T" unicode="T" 
d="M610 1188v-1188h-92v1188h-428l8 82h938v-82h-426z" />
    <glyph glyph-name="U" unicode="U" 
d="M553 -31q-177 0 -276 109.5t-99 314.5v877h92v-858q0 -180 78 -270.5t219 -90.5q146 0 216.5 80.5t70.5 251.5v887h92v-879q0 -204 -103 -313t-290 -109z" />
    <glyph glyph-name="V" unicode="V" 
d="M633 -4h-139q-230 711 -392 1270l93 8q164 -573 362 -1194h18q199 626 361 1190h88q-182 -628 -391 -1274z" />
    <glyph glyph-name="W" unicode="W" 
d="M772 0l-207 748l-205 -748h-122q-63 457 -103 1270h94q11 -280 35.5 -634t42.5 -532h8q36 128 73 265t79 294t63 236h72q122 -459 217 -795h6q18 161 43.5 518t36.5 648h88q-40 -801 -104 -1270h-117z" />
    <glyph glyph-name="X" unicode="X" 
d="M924 -6l-361 575l-354 -569h-98l399 633l-399 631l98 12l360 -576l353 570h100l-401 -633l399 -631z" />
    <glyph glyph-name="Y" unicode="Y" 
d="M610 0h-92v422l-418 846l101 4l364 -752l367 750h96l-418 -846v-424z" />
    <glyph glyph-name="Z" unicode="Z" 
d="M975 0h-828v82l734 1106l-721 -2l10 84h805v-82l-729 -1106l737 2z" />
    <glyph glyph-name="bracketleft" unicode="[" 
d="M303 -365v1778h647v-78h-561v-1622h565l-8 -78h-643z" />
    <glyph glyph-name="backslash" unicode="\" 
d="M117 1452l966 -1788l-82 -22l-960 1775z" />
    <glyph glyph-name="bracketright" unicode="]" 
d="M180 -285h561v1620h-559v80h643v-1777h-643z" />
    <glyph glyph-name="asciicircum" unicode="^" 
d="M930 346l-375 524l-358 -524l-68 49l414 598l24 6l434 -602z" />
    <glyph glyph-name="underscore" unicode="_" 
d="M1053 -102v-74h-981v74h981z" />
    <glyph glyph-name="grave" unicode="`" 
d="M754 1163l-33 -41q-99 65 -220.5 160t-197.5 170l84 80q70 -87 177.5 -195.5t189.5 -173.5z" />
    <glyph glyph-name="a" unicode="a" 
d="M494 55q92 0 185 40t163 102q-4 148 -4 272q-592 62 -592 -219q0 -92 68 -143.5t180 -51.5zM858 -4q-7 60 -10 135q-172 -156 -385 -156q-137 0 -222 68.5t-85 185.5q0 167 174.5 257.5t505.5 62.5q-5 104 -36 170t-105.5 109t-186 62.5t-289.5 27.5l12 81
q207 -10 336.5 -37.5t212.5 -88t115.5 -151.5t32.5 -233q0 -245 10 -487z" />
    <glyph glyph-name="b" unicode="b" 
d="M492 -20q-147 0 -277 47v1400l90 9v-549q149 117 313 117t270.5 -130.5t106.5 -343.5q0 -124 -42 -229.5t-112 -174.5t-160.5 -107.5t-188.5 -38.5zM522 57q164 0 274.5 121.5t110.5 329.5q0 195 -89.5 306.5t-229.5 111.5q-149 0 -283 -105v-723q107 -41 217 -41z" />
    <glyph glyph-name="c" unicode="c" 
d="M182 477q0 82 23.5 153.5t78.5 137t138.5 113.5t211 79.5t288.5 38.5l6 -88q-154 -4 -269.5 -27.5t-188.5 -60t-118 -90t-62.5 -112t-17.5 -132.5q0 -84 18.5 -148.5t65 -119.5t122 -89t192.5 -50.5t274 -11.5l-12 -78q-169 -8 -299.5 12t-214.5 61t-138 105.5t-76 139
t-22 167.5z" />
    <glyph glyph-name="d" unicode="d" 
d="M543 55q139 0 280 113q-6 301 -6 727q-114 31 -188 31q-174 0 -291 -122.5t-117 -334.5q0 -197 89 -305.5t233 -108.5zM834 -4l-7 106q-144 -125 -313 -125q-167 0 -275 126.5t-108 340.5q0 130 44.5 237.5t120 177t172.5 107.5t204 38q74 0 145 -15v438l90 9v-465
q0 -623 15 -969z" />
    <glyph glyph-name="e" unicode="e" 
d="M913 -23q-219 6 -367 40t-233.5 100t-121 153t-35.5 211q0 145 59 266t161.5 190t225.5 69q193 0 292 -145.5t71 -373.5l-721 -20q2 -84 23.5 -145t69 -110t125.5 -80.5t192.5 -49.5t271.5 -23zM586 928q-148 0 -240.5 -106.5t-101.5 -289.5l639 19q6 172 -71 274.5
t-226 102.5z" />
    <glyph glyph-name="f" unicode="f" 
d="M969 70l-8 -70h-785v70h297v841h-309l10 72h299q1 104 28.5 180t92 135.5t176 93.5t272.5 42l9 -88q-128 -8 -212 -23t-140 -39.5t-85 -66.5t-40 -94t-11 -132v-8h424v-72h-424v-841h406z" />
    <glyph glyph-name="g" unicode="g" 
d="M266 -348l-10 86q127 9 216 22.5t155 37.5t105 54t62.5 78.5t31.5 103.5t8 136v4q-149 -113 -316 -113q-168 0 -275.5 114.5t-107.5 311.5q0 118 42.5 217t114 163.5t164 100.5t193.5 36q124 0 273 -46q2 -37 2 -778q0 -99 -18.5 -174t-63.5 -139.5t-119.5 -108
t-188.5 -71t-268 -35.5zM547 139q143 0 287 105v645q-119 37 -216 37q-168 0 -280.5 -111.5t-112.5 -304.5q0 -178 89 -274.5t233 -96.5z" />
    <glyph glyph-name="h" unicode="h" 
d="M608 926q-149 0 -309 -107v-819h-90v1427l90 9v-553q169 121 334 121q144 0 225.5 -83.5t81.5 -258.5v-662h-90v637q0 152 -61 220.5t-181 68.5z" />
    <glyph glyph-name="i" unicode="i" 
d="M635 1157h-88l8 266h96zM1042 0h-886v72h401v833l-395 17l8 61h477v-911h402z" />
    <glyph glyph-name="j" unicode="j" 
d="M723 1157h-86l6 266h92zM737 68q0 -146 -57.5 -232.5t-200 -134.5t-397.5 -59l2 88q122 6 208 16t150.5 27.5t103 40.5t62 59t31.5 77.5t8 102.5v852l-465 17l6 61h549v-915z" />
    <glyph glyph-name="k" unicode="k" 
d="M932 -8l-418 473l-184 -4v-461h-90v1427l90 9v-904l192 5q212 218 396 450l90 -8q-183 -235 -412 -475l432 -496z" />
    <glyph glyph-name="l" unicode="l" 
d="M946 0h-764v72h340v1276l-315 14l8 63h397v-1353h342z" />
    <glyph glyph-name="m" unicode="m" 
d="M410 926q-41 0 -93 -26.5t-98 -74.5q10 -287 10 -825h-90q0 632 -12 979l82 6l8 -96q46 50 105.5 82.5t119.5 32.5q118 0 158 -103q111 103 225 103q82 0 129 -54.5t47 -161.5v-788h-90v750q0 97 -25.5 136.5t-92.5 39.5q-41 0 -89 -20.5t-90 -57.5q4 -36 4 -57v-791h-90
v754q0 94 -26 133t-92 39z" />
    <glyph glyph-name="n" unicode="n" 
d="M608 926q-159 0 -319 -113q10 -283 10 -813h-90q0 632 -12 979l82 6l8 -111q168 130 346 130q144 0 225.5 -83.5t81.5 -258.5v-662h-90v637q0 152 -61.5 220.5t-180.5 68.5z" />
    <glyph glyph-name="o" unicode="o" 
d="M551 -27q-184 0 -302 137.5t-118 368.5q0 232 129.5 380.5t314.5 148.5q186 0 303 -137t117 -367q0 -234 -129 -382.5t-315 -148.5zM563 51q154 0 249 116t95 318q0 207 -95 326t-249 119q-152 0 -247 -116t-95 -316q0 -208 95 -327.5t247 -119.5z" />
    <glyph glyph-name="p" unicode="p" 
d="M522 55q165 0 275 121.5t110 331.5q0 195 -89.5 306.5t-229.5 111.5q-151 0 -289 -109q10 -492 10 -725q110 -37 213 -37zM309 -338l-90 -8v346q0 644 -12 979l82 6l8 -104q153 123 321 123q164 0 270.5 -130.5t106.5 -343.5q0 -126 -42 -231.5t-113 -175t-163 -108
t-194 -38.5q-89 0 -174 21v-336z" />
    <glyph glyph-name="q" unicode="q" 
d="M823 -344v444q-142 -123 -311 -123q-166 0 -273.5 126.5t-107.5 340.5q0 128 45 236t119.5 177.5t169.5 108t197 38.5q121 0 251 -50v-1290zM541 55q141 0 282 117v715q-101 39 -196 39q-174 0 -290 -122.5t-116 -336.5q0 -197 88.5 -304.5t231.5 -107.5z" />
    <glyph glyph-name="r" unicode="r" 
d="M881 0h-742v72h289q-2 96 -6.5 400t-7.5 433l-269 15l7 63h346q5 -85 8 -162q173 160 489 195l6 -94q-325 -28 -495 -166q8 -373 10 -684h373z" />
    <glyph glyph-name="s" unicode="s" 
d="M881 987l4 -86q-135 15 -231.5 10t-159 -18t-98.5 -37.5t-50 -49.5t-14 -54q0 -41 32 -77t83.5 -64t113.5 -55t124.5 -56.5t114 -62t83.5 -77t32 -96.5q0 -46 -21.5 -87.5t-71 -81t-129.5 -64t-198 -36.5t-276 1l4 86q142 -14 245.5 -8.5t172.5 20t109.5 41t57.5 54.5
t17 61q0 44 -32 82t-83.5 66t-113.5 55t-124.5 55t-114 59t-83.5 73.5t-32 92.5q0 43 19.5 83t65 78t119 61.5t182 34.5t253.5 -3z" />
    <glyph glyph-name="t" unicode="t" 
d="M944 61l-8 -79q-300 0 -422.5 72t-122.5 245v610h-207l13 74h194v283l90 8v-291h441v-74h-441v-596q0 -98 40.5 -149.5t138.5 -75.5t284 -27z" />
    <glyph glyph-name="u" unicode="u" 
d="M848 -2l-8 111q-176 -132 -344 -132q-142 0 -221.5 83t-79.5 259v660l90 8v-643q0 -153 59 -221t176 -68q156 0 318 115q-11 312 -11 813h91q0 -633 12 -979z" />
    <glyph glyph-name="v" unicode="v" 
d="M573 76q192 444 355 907h92q-174 -486 -393 -991h-125q-199 462 -389 989l92 4q172 -492 354 -909h14z" />
    <glyph glyph-name="w" unicode="w" 
d="M791 0l-226 629l-227 -629h-88q-64 405 -107 983h95q33 -504 71 -850h8q23 53 218 615h65q186 -533 221 -617h6q22 220 70 852h88q-42 -559 -102 -983h-92z" />
    <glyph glyph-name="x" unicode="x" 
d="M907 -4l-348 438l-346 -434h-96l393 487l-391 492l94 8l356 -438l342 434h101l-391 -489l383 -488z" />
    <glyph glyph-name="y" unicode="y" 
d="M143 -365l-10 89q105 17 166.5 36t108 54.5t73.5 78t64 121.5q-235 495 -434 967l92 4q107 -266 381 -860h10q106 246 334 858h86q-156 -427 -365 -922q-48 -114 -87 -181t-97 -119.5t-132 -79.5t-190 -46z" />
    <glyph glyph-name="z" unicode="z" 
d="M977 0h-813v78l700 825h-690l8 80h785v-78l-703 -825h719z" />
    <glyph glyph-name="braceleft" unicode="{" 
d="M952 -420q-342 110 -477 194t-135 193q0 44 20 87.5t49 77t57.5 64.5t48.5 63t20 60q0 68 -88 116t-265 57l2 69q361 26 361 150q0 28 -21.5 60t-52.5 63.5t-62.5 64.5t-53 75t-21.5 83q0 105 148 206.5t479 206.5l28 -81q-299 -87 -434 -163t-135 -155q0 -40 32.5 -87
t71 -83.5t71 -83t32.5 -84.5q0 -61 -60.5 -116t-185.5 -85q120 -28 178.5 -82t58.5 -118q0 -42 -29 -89t-64 -82.5t-64 -83t-29 -91.5q0 -87 126.5 -160t426.5 -166z" />
    <glyph glyph-name="bar" unicode="|" 
d="M526 1427l82 9v-1805h-82v1796z" />
    <glyph glyph-name="braceright" unicode="}" 
d="M172 -418l-31 84q296 85 432 162t136 154q0 33 -21 69.5t-51 69t-60.5 64.5t-51.5 67t-21 67q0 61 61.5 116t188.5 85q-123 28 -183.5 82.5t-60.5 118.5q0 42 29.5 89t64.5 82.5t64.5 83t29.5 91.5q0 89 -125.5 161t-427.5 165l33 80q341 -110 475.5 -194.5t134.5 -193.5
q0 -44 -20 -87t-48.5 -76.5t-57 -65t-48.5 -63.5t-20 -60q0 -68 87.5 -115.5t266.5 -56.5l-4 -67q-360 -26 -360 -152q0 -28 21.5 -60t53 -63t62.5 -64t52.5 -75t21.5 -84q0 -105 -147 -207t-476 -207z" />
    <glyph glyph-name="asciitilde" unicode="~" 
d="M768 418q-34 0 -69.5 18t-65.5 47t-59.5 63.5t-57.5 69.5t-54.5 64t-54.5 47t-53 18q-54 0 -99.5 -79t-94.5 -226l-70 27q61 185 124.5 274.5t145.5 89.5q47 0 95 -33.5t88 -81.5t77.5 -96.5t76.5 -82t73 -33.5q55 0 100.5 78t96.5 227l69 -27q-63 -188 -124.5 -276
t-143.5 -88z" />
    <glyph glyph-name="uni00A0" unicode="&#xa0;" 
 />
    <glyph glyph-name="exclamdown" unicode="&#xa1;" 
d="M487 1270h158l-2 -174h-158zM524 819h58q0 -129 16 -932h-115q37 806 41 932z" />
    <glyph glyph-name="cent" unicode="&#xa2;" 
d="M258 541q0 -119 69.5 -203t227.5 -129l84 672q-381 -55 -381 -340zM897 80q-168 6 -281 29l-34 -285h-82l39 301q-365 99 -365 403q0 77 24 143t76.5 125.5t147.5 102.5t225 64l39 307h82l-41 -297q104 9 227 6l-12 -86q-120 6 -229 -4l-86 -699q118 -24 280 -30z" />
    <glyph glyph-name="sterling" unicode="&#xa3;" 
d="M963 82v-82h-832v76l166 2l51 512h-203l9 78h202q13 116 30 196.5t47 152t72.5 117.5t107.5 82.5t150.5 56.5t203.5 30l8 -93q-83 -6 -144 -15t-113 -25.5t-87 -35.5t-64 -52.5t-47 -68.5t-32.5 -91t-23.5 -113t-18 -141h402l-6 -78h-404l-53 -512z" />
    <glyph glyph-name="yen" unicode="&#xa5;" 
d="M977 244h-367v-244h-92v244h-375l2 75h375v228l-6 10h-369v76h324l-369 635l101 4l366 -641l361 639h94l-367 -637h324v-76h-367l-4 -8v-230h371z" />
    <glyph glyph-name="section" unicode="&#xa7;" 
d="M238 578q0 -32 20.5 -62t51 -52t79 -46.5t91 -41.5t101.5 -41t97 -42q92 38 150.5 89t58.5 105q0 39 -25.5 72t-76 62t-97.5 50.5t-121.5 51.5t-115.5 49q-95 -38 -154 -88t-59 -106zM883 76q0 -45 -22.5 -87.5t-74.5 -82t-129 -68t-195 -44t-263 -11.5l8 84
q131 -3 234.5 6.5t168 28.5t107 46.5t59.5 56.5t17 61q0 40 -35 75.5t-91.5 63.5t-124.5 55.5t-135.5 57.5t-124 63t-91.5 79t-35 99q0 73 62.5 139t162.5 109q-139 82 -139 182q0 45 22 87.5t72.5 82t125.5 68t190.5 44t256.5 11.5l6 -84q-132 3 -235 -6.5t-167 -28.5
t-105.5 -46.5t-57.5 -56.5t-16 -61q0 -40 35 -75.5t91.5 -63.5t124 -55.5t135.5 -57t124.5 -62.5t91.5 -78.5t35 -98.5q0 -72 -63.5 -138.5t-164.5 -111.5q140 -80 140 -182z" />
    <glyph glyph-name="dieresis" unicode="&#xa8;" 
d="M834 1157h-91l-2 266h97zM389 1157h-90l-2 266h96z" />
    <glyph glyph-name="copyright" unicode="&#xa9;" 
d="M1026 643q0 -290 -129.5 -459.5t-327.5 -169.5q-204 0 -336.5 166t-132.5 447q0 184 65.5 328.5t175 222t241.5 77.5q195 0 319.5 -165.5t124.5 -446.5zM166 633q0 -253 116 -405t293 -152q166 0 276 153t110 408q0 251 -108 404t-275 153q-176 0 -294 -157t-118 -404z
M713 346l-8 -74q-93 -7 -159.5 16.5t-105 74t-56 117t-17.5 153.5q0 76 18 139t56 115.5t104 85t155 39.5l9 -78q-83 -4 -137.5 -26t-81.5 -64.5t-36.5 -89.5t-9.5 -117q0 -155 58.5 -227.5t210.5 -63.5z" />
    <glyph glyph-name="ordfeminine" unicode="&#xaa;" 
d="M502 571q74 0 147.5 30.5t130.5 76.5q-4 106 -4 201q-233 25 -345 -21.5t-112 -146.5q0 -69 50.5 -104.5t132.5 -35.5zM791 520q-1 14 -4.5 48t-4.5 50q-53 -48 -130.5 -81t-164.5 -33q-109 0 -178 51t-69 141q0 129 139 200.5t395 51.5q-10 142 -109 193t-362 63l8 76
q161 -8 261.5 -29t165.5 -66t90.5 -113t25.5 -175q0 -153 8 -371zM236 332h649v-70h-649v70z" />
    <glyph glyph-name="guillemotleft" unicode="&#xab;" 
d="M473 -29l-356 475l6 97l354 465l70 -60l-361 -452l361 -471zM946 -29l-356 475l6 97l354 465l70 -60l-361 -452l361 -471z" />
    <glyph glyph-name="registered" unicode="&#xae;" 
d="M1036 907q0 -214 -136 -350.5t-339 -136.5q-214 0 -341.5 123.5t-127.5 337.5q0 216 132 350t345 137q204 3 335.5 -123t131.5 -338zM977 901q0 196 -112 304t-296 108q-182 0 -298.5 -117.5t-116.5 -310.5q0 -192 113 -302t292 -110t298.5 115.5t119.5 312.5zM715 662
l-107 174l-129 -5v-167h-63v462q160 24 251 -12.5t91 -116.5q0 -73 -99 -141l119 -180zM479 1079v-196l146 2q71 50 71 104q0 51 -57.5 75t-159.5 15z" />
    <glyph glyph-name="macron" unicode="&#xaf;" 
d="M889 1337v-80h-651v80h651z" />
    <glyph glyph-name="degree" unicode="&#xb0;" 
d="M897 1028q0 -158 -102 -257t-244 -99q-139 0 -230.5 93t-91.5 247q0 158 102 257t244 99q139 0 230.5 -93t91.5 -247zM817 1030q3 114 -67 190t-183 76q-110 0 -183.5 -77t-74.5 -201q-3 -118 67.5 -196.5t182.5 -78.5q110 0 183.5 79t74.5 208z" />
    <glyph glyph-name="plusminus" unicode="&#xb1;" 
d="M967 160h-809v78h364v376h-370v80h370v387h82v-387h371l-2 -80h-369v-376h365z" />
    <glyph glyph-name="two.sup" unicode="&#xb2;" 
d="M862 666h-581l-9 67q105 76 172 127.5t131.5 107.5t100 98.5t57 86.5t21.5 86q0 43 -21.5 74.5t-72 56t-140 37.5t-219.5 14l6 70q524 5 524 -234q0 -60 -28 -119t-90 -124t-139 -127.5t-197 -149.5h485v-71z" />
    <glyph glyph-name="three.sup" unicode="&#xb3;" 
d="M301 645l-6 76q483 16 483 166q0 137 -405 178l2 43l364 293v4l-436 -2v72h528l7 -68l-367 -293q383 -52 383 -221q0 -105 -133.5 -171.5t-419.5 -76.5z" />
    <glyph glyph-name="acute" unicode="&#xb4;" 
d="M379 1182q86 64 192 171.5t172 194.5l88 -75q-75 -76 -196 -172t-223 -162z" />
    <glyph glyph-name="mu" unicode="&#xb5;" 
d="M285 -336l-90 -10v1325l90 8v-653q0 -145 59.5 -211t175.5 -66q157 0 318 111q-11 312 -11 815h91q0 -633 12 -979l-84 -6l-6 106q-165 -127 -334 -127q-161 0 -232 101z" />
    <glyph glyph-name="paragraph" unicode="&#xb6;" 
d="M852 311v885q-111 3 -215 -16v-844q105 -22 215 -25zM203 748q0 -136 91.5 -237.5t258.5 -154.5v803q-170 -52 -260 -160.5t-90 -250.5zM637 -223l-86 -13v504q-206 53 -323 174.5t-117 288.5q0 119 58 221.5t163 177.5t261.5 117t344.5 41v-1454l-86 -12v409
q-107 0 -215 19v-473z" />
    <glyph glyph-name="periodcentered" unicode="&#xb7;" 
d="M643 545h-160l6 176h160z" />
    <glyph glyph-name="cedilla" unicode="&#xb8;" 
d="M489 -2l33 57q252 -161 252 -280q0 -138 -328 -191l-10 78q137 23 197.5 50.5t60.5 66.5q0 85 -205 219z" />
    <glyph glyph-name="one.sup" unicode="&#xb9;" 
d="M879 666h-592v69h274v572l-262 -23l-2 57l264 39v125l78 6v-776h246z" />
    <glyph glyph-name="ordmasculine" unicode="&#xba;" 
d="M215 887q0 176 103 286.5t253 110.5q151 0 246.5 -103t95.5 -278q0 -178 -103.5 -288.5t-256.5 -110.5q-148 0 -243 103.5t-95 279.5zM561 573q124 0 198.5 84t74.5 234q0 154 -73.5 240t-197.5 86q-122 0 -195 -84.5t-73 -233.5q0 -155 72.5 -240.5t193.5 -85.5z
M893 262h-655v70h655v-70z" />
    <glyph glyph-name="guillemotright" unicode="&#xbb;" 
d="M651 -29l-69 60l360 452l-360 471l73 54l357 -476l-6 -96zM178 -29l-69 60l360 452l-360 471l73 54l357 -476l-7 -96z" />
    <glyph glyph-name="onequarter" unicode="&#xbc;" 
d="M879 870h-592v70h274v571l-262 -22l-2 57l264 39v125l78 6v-776h246zM129 590v67h868v-67h-868zM903 -250l-117 2l2 -182h-75l2 182l-426 -2q0 111 28 287t78 358l84 -8q-39 -132 -79 -312.5t-46 -254.5h361l-2 293l75 6l-2 -299h123z" />
    <glyph glyph-name="onehalf" unicode="&#xbd;" 
d="M879 870h-592v70h274v571l-262 -22l-2 57l264 39v125l78 6v-776h246zM129 590v67h868v-67h-868zM862 -430h-581l-9 68q132 96 209.5 157t146 126t97.5 117.5t29 104.5q0 43 -21.5 74.5t-72 56t-140 38t-219.5 14.5l6 69q119 1 210.5 -10t150.5 -31.5t96 -51t52 -64.5
t15 -76q0 -60 -28 -119t-90 -124t-139 -127.5t-197 -149.5h485v-72z" />
    <glyph glyph-name="threequarters" unicode="&#xbe;" 
d="M301 850l-6 76q483 16 483 166q0 137 -405 178l2 43l364 293v4l-436 -2v71h528l7 -67l-367 -293q383 -52 383 -221q0 -105 -133.5 -171.5t-419.5 -76.5zM129 590v67h868v-67h-868zM903 -250l-117 2l2 -182h-75l2 182l-426 -2q0 111 28 287t78 358l84 -8
q-39 -132 -79 -312.5t-46 -254.5h361l-2 293l75 6l-2 -299h123z" />
    <glyph glyph-name="questiondown" unicode="&#xbf;" 
d="M588 1270h149l-6 -174h-149zM946 -33l-10 -84q-786 48 -786 324q0 52 32.5 104t82 94t108.5 92t110.5 95.5t89.5 106t45 122.5l60 -2q-5 -67 -39.5 -131.5t-83 -112t-104 -96t-102.5 -87.5t-78 -83.5t-31 -85.5q0 -214 706 -256z" />
    <glyph glyph-name="Agrave" unicode="&#xc0;" 
d="M737 1450l-32 -41q-99 65 -220.5 160t-197.5 170l84 80q70 -87 177 -196t189 -173zM936 -4q-24 82 -69 231.5t-62 206.5h-488q-21 -71 -129 -434h-90q194 649 400 1276h131q198 -602 399 -1272zM553 1188q-39 -120 -213 -680h442q-117 379 -215 680h-14z" />
    <glyph glyph-name="Aacute" unicode="&#xc1;" 
d="M381 1468q85 64 191 171.5t173 195.5l89 -76q-74 -76 -195.5 -171.5t-224.5 -162.5zM936 -4q-24 82 -69 231.5t-62 206.5h-488q-21 -71 -129 -434h-90q194 649 400 1276h131q198 -602 399 -1272zM553 1188q-39 -120 -213 -680h442q-117 379 -215 680h-14z" />
    <glyph glyph-name="Acircumflex" unicode="&#xc2;" 
d="M846 1434l-287 260l-291 -258l-51 47l346 311h2l340 -303zM936 -4q-24 82 -69 231.5t-62 206.5h-488q-21 -71 -129 -434h-90q194 649 400 1276h131q198 -602 399 -1272zM553 1188q-39 -120 -213 -680h442q-117 379 -215 680h-14z" />
    <glyph glyph-name="Atilde" unicode="&#xc3;" 
d="M719 1444q-36 0 -71 25t-63 60.5t-54 71t-54.5 60.5t-54.5 25q-88 0 -182 -224l-60 25q112 278 250 278q36 0 71 -25t63 -60t54 -70.5t54.5 -60.5t54.5 -25q48 0 91.5 58t88.5 165l62 -25q-55 -135 -118.5 -206.5t-131.5 -71.5zM936 -4q-24 82 -69 231.5t-62 206.5h-488
q-21 -71 -129 -434h-90q194 649 400 1276h131q198 -602 399 -1272zM553 1188q-39 -120 -213 -680h442q-117 379 -215 680h-14z" />
    <glyph glyph-name="Adieresis" unicode="&#xc4;" 
d="M831 1444h-90l-2 266h97zM387 1444h-90l-2 266h96zM936 -4q-24 82 -69 231.5t-62 206.5h-488q-21 -71 -129 -434h-90q194 649 400 1276h131q198 -602 399 -1272zM553 1188q-39 -120 -213 -680h442q-117 379 -215 680h-14z" />
    <glyph glyph-name="Aring" unicode="&#xc5;" 
d="M559 1821q114 0 189 -60t75 -147q0 -95 -72.5 -155t-191.5 -60q-114 0 -189 60t-75 147q0 95 72.5 155t191.5 60zM559 1757q-88 0 -139 -40.5t-51 -106.5q0 -65 51.5 -106.5t138.5 -41.5q88 0 139.5 41t51.5 107q0 65 -52 106t-139 41zM936 -4q-24 82 -69 231.5
t-62 206.5h-488q-21 -71 -129 -434h-90q194 649 400 1276h131q198 -602 399 -1272zM553 1188q-39 -120 -213 -680h442q-117 379 -215 680h-14z" />
    <glyph glyph-name="AE" unicode="&#xc6;" 
d="M535 1188q-116 -322 -248 -701h260v701h-12zM547 0v414h-285q-55 -156 -141 -414h-96q249 719 452 1270h545v-82h-383v-506h334v-74h-334v-526h389l-10 -82h-471z" />
    <glyph glyph-name="Ccedilla" unicode="&#xc7;" 
d="M770 -225q0 -138 -328 -191l-10 78q137 23 197.5 50.5t60.5 66.5q0 85 -205 219l25 41q-101 34 -173 90.5t-112.5 132t-59 160.5t-18.5 188q0 108 24.5 200t82.5 176.5t148.5 146t229.5 101.5t318 48l6 -88q-145 -6 -258.5 -29t-191 -61.5t-130.5 -87t-82.5 -113
t-41.5 -130.5t-12 -148q0 -111 19.5 -195t69 -156t131 -116.5t209.5 -66.5t300 -15l-8 -82q-234 -12 -394 29q203 -140 203 -248z" />
    <glyph glyph-name="Egrave" unicode="&#xc8;" 
d="M793 1450l-33 -41q-99 65 -220.5 160t-197.5 170l84 80q70 -87 177.5 -195.5t189.5 -173.5zM985 82l-10 -82h-739v1270h743v-82h-651v-506h569v-74h-569v-526h657z" />
    <glyph glyph-name="Eacute" unicode="&#xc9;" 
d="M436 1468q86 64 192.5 172t172.5 195l88 -76q-74 -76 -195.5 -171.5t-224.5 -162.5zM985 82l-10 -82h-739v1270h743v-82h-651v-506h569v-74h-569v-526h657z" />
    <glyph glyph-name="Ecircumflex" unicode="&#xca;" 
d="M901 1434l-287 260l-290 -258l-52 47l346 311h3l340 -303zM985 82l-10 -82h-739v1270h743v-82h-651v-506h569v-74h-569v-526h657z" />
    <glyph glyph-name="Edieresis" unicode="&#xcb;" 
d="M887 1444h-90l-2 266h96zM442 1444h-90l-2 266h96zM985 82l-10 -82h-739v1270h743v-82h-651v-506h569v-74h-569v-526h657z" />
    <glyph glyph-name="Igrave" unicode="&#xcc;" 
d="M739 1450l-32 -41q-99 65 -220.5 160t-197.5 170l84 80q70 -87 177 -196t189 -173zM606 1194v-1118h348l-8 -76h-772v76h340v1118h-340v76h772v-76h-340z" />
    <glyph glyph-name="Iacute" unicode="&#xcd;" 
d="M385 1468q86 64 192.5 172t172.5 195l88 -76q-74 -76 -195.5 -171.5t-224.5 -162.5zM606 1194v-1118h348l-8 -76h-772v76h340v1118h-340v76h772v-76h-340z" />
    <glyph glyph-name="Icircumflex" unicode="&#xce;" 
d="M850 1434l-287 260l-291 -258l-51 47l346 311h2l340 -303zM606 1194v-1118h348l-8 -76h-772v76h340v1118h-340v76h772v-76h-340z" />
    <glyph glyph-name="Idieresis" unicode="&#xcf;" 
d="M836 1444h-91l-2 266h97zM391 1444h-90l-2 266h96zM606 1194v-1118h348l-8 -76h-772v76h340v1118h-340v76h772v-76h-340z" />
    <glyph glyph-name="Eth" unicode="&#xd0;" 
d="M1008 662q0 -379 -211.5 -553.5t-597.5 -110.5v612h-162v72h162v590q285 43 465 -13.5t262 -203.5t82 -393zM291 76q304 -47 464 101.5t160 463.5q0 329 -149.5 462.5t-474.5 92.5v-514h321l-4 -72h-317v-534z" />
    <glyph glyph-name="Ntilde" unicode="&#xd1;" 
d="M715 1444q-36 0 -71 25t-63 60.5t-54 71t-54.5 60.5t-54.5 25q-88 0 -182 -224l-60 25q112 278 250 278q36 0 71 -25t63 -60t54 -70.5t54.5 -60.5t54.5 -25q48 0 91.5 58t88.5 165l62 -25q-55 -135 -118.5 -206.5t-131.5 -71.5zM827 0l-542 1153h-11l2 -1153h-88v1270
h129l527 -1125h8l-2 1125h88v-1270h-111z" />
    <glyph glyph-name="Ograve" unicode="&#xd2;" 
d="M743 1464l-32 -41q-99 65 -220.5 160t-197.5 170l84 80q70 -87 177 -196t189 -173zM549 -31q-208 0 -325.5 170t-117.5 477q0 325 127.5 504.5t346.5 179.5q208 0 323.5 -168.5t116.5 -478.5q1 -324 -125.5 -504t-345.5 -180zM561 1221q-174 0 -268 -152t-94 -434
q0 -285 93.5 -435.5t272.5 -150.5q173 0 268 152.5t95 433.5q0 284 -94.5 435t-272.5 151z" />
    <glyph glyph-name="Oacute" unicode="&#xd3;" 
d="M387 1483q86 65 192.5 172t172.5 194l88 -75q-74 -76 -195.5 -171.5t-224.5 -162.5zM549 -31q-208 0 -325.5 170t-117.5 477q0 325 127.5 504.5t346.5 179.5q208 0 323.5 -168.5t116.5 -478.5q1 -324 -125.5 -504t-345.5 -180zM561 1221q-174 0 -268 -152t-94 -434
q0 -285 93.5 -435.5t272.5 -150.5q173 0 268 152.5t95 433.5q0 284 -94.5 435t-272.5 151z" />
    <glyph glyph-name="Ocircumflex" unicode="&#xd4;" 
d="M852 1448l-287 260l-291 -258l-51 47l346 311h2l340 -303zM549 -31q-208 0 -325.5 170t-117.5 477q0 325 127.5 504.5t346.5 179.5q208 0 323.5 -168.5t116.5 -478.5q1 -324 -125.5 -504t-345.5 -180zM561 1221q-174 0 -268 -152t-94 -434q0 -285 93.5 -435.5
t272.5 -150.5q173 0 268 152.5t95 433.5q0 284 -94.5 435t-272.5 151z" />
    <glyph glyph-name="Otilde" unicode="&#xd5;" 
d="M725 1458q-36 0 -71 25t-63 60.5t-54 71t-54.5 60.5t-54.5 25q-88 0 -182 -223l-60 24q113 279 250 279q36 0 71 -25t63 -60.5t54 -71t54.5 -60.5t54.5 -25q48 0 91.5 58t88.5 165l62 -24q-113 -279 -250 -279zM549 -31q-208 0 -325.5 170t-117.5 477q0 325 127.5 504.5
t346.5 179.5q208 0 323.5 -168.5t116.5 -478.5q1 -324 -125.5 -504t-345.5 -180zM561 1221q-174 0 -268 -152t-94 -434q0 -285 93.5 -435.5t272.5 -150.5q173 0 268 152.5t95 433.5q0 284 -94.5 435t-272.5 151z" />
    <glyph glyph-name="Odieresis" unicode="&#xd6;" 
d="M838 1458h-90l-3 266h97zM393 1458h-90l-2 266h96zM549 -31q-208 0 -325.5 170t-117.5 477q0 325 127.5 504.5t346.5 179.5q208 0 323.5 -168.5t116.5 -478.5q1 -324 -125.5 -504t-345.5 -180zM561 1221q-174 0 -268 -152t-94 -434q0 -285 93.5 -435.5t272.5 -150.5
q173 0 268 152.5t95 433.5q0 284 -94.5 435t-272.5 151z" />
    <glyph glyph-name="multiply" unicode="&#xd7;" 
d="M877 209l-316 321l-307 -313l-55 55l307 314l-316 321l58 58l315 -320l309 316l56 -60l-310 -313l316 -322z" />
    <glyph glyph-name="Oslash" unicode="&#xd8;" 
d="M199 635q0 -271 86 -422l512 905q-89 103 -236 103q-174 0 -268 -152t-94 -434zM565 49q173 0 268 152.5t95 433.5q0 272 -86 420l-514 -903q89 -103 237 -103zM549 -31q-156 0 -266 101l-70 -125l-63 35l83 147q-127 172 -127 489q0 325 127.5 504.5t346.5 179.5
q161 0 266 -102l72 127l63 -35l-86 -147q122 -169 125 -490q1 -324 -125.5 -504t-345.5 -180z" />
    <glyph glyph-name="Ugrave" unicode="&#xd9;" 
d="M737 1450l-32 -41q-99 65 -220.5 160t-197.5 170l84 80q70 -87 177 -196t189 -173zM553 -31q-177 0 -276 109.5t-99 314.5v877h92v-858q0 -180 78 -270.5t219 -90.5q146 0 216.5 80.5t70.5 251.5v887h92v-879q0 -204 -103 -313t-290 -109z" />
    <glyph glyph-name="Uacute" unicode="&#xda;" 
d="M383 1468q86 64 192.5 172t172.5 195l88 -76q-74 -76 -195.5 -171.5t-224.5 -162.5zM553 -31q-177 0 -276 109.5t-99 314.5v877h92v-858q0 -180 78 -270.5t219 -90.5q146 0 216.5 80.5t70.5 251.5v887h92v-879q0 -204 -103 -313t-290 -109z" />
    <glyph glyph-name="Ucircumflex" unicode="&#xdb;" 
d="M846 1434l-287 260l-291 -258l-51 47l346 311h2l340 -303zM553 -31q-177 0 -276 109.5t-99 314.5v877h92v-858q0 -180 78 -270.5t219 -90.5q146 0 216.5 80.5t70.5 251.5v887h92v-879q0 -204 -103 -313t-290 -109z" />
    <glyph glyph-name="Udieresis" unicode="&#xdc;" 
d="M831 1444h-90l-2 266h97zM387 1444h-90l-2 266h96zM553 -31q-177 0 -276 109.5t-99 314.5v877h92v-858q0 -180 78 -270.5t219 -90.5q146 0 216.5 80.5t70.5 251.5v887h92v-879q0 -204 -103 -313t-290 -109z" />
    <glyph glyph-name="Yacute" unicode="&#xdd;" 
d="M389 1470q86 64 192.5 172t172.5 195l88 -76q-74 -76 -195.5 -171.5t-224.5 -162.5zM610 0h-92v422l-418 846l101 4l364 -752l367 750h96l-418 -846v-424z" />
    <glyph glyph-name="Thorn" unicode="&#xde;" 
d="M324 0h-93v1270h93v-217q326 38 508 -67t182 -320q0 -107 -48 -188.5t-139 -134t-216.5 -80t-286.5 -32.5v-231zM922 651q0 183 -155 269.5t-443 46.5v-648q292 -11 445 68.5t153 263.5z" />
    <glyph glyph-name="germandbls" unicode="&#xdf;" 
d="M633 723q0 -37 29.5 -74.5t73.5 -67t95.5 -66.5t95.5 -71.5t73.5 -83t29.5 -100.5q0 -46 -16.5 -87.5t-54 -79t-92.5 -63t-139 -36.5t-187 -2l4 88q107 -12 182.5 -4t123.5 35t70.5 61.5t22.5 75.5q0 35 -22 69t-57 62.5t-77.5 57.5t-85.5 59.5t-78 62t-57 72t-22 84.5
q0 43 24.5 88.5t59.5 85.5t70.5 81t60 91t24.5 100q0 80 -55 136.5t-158 56.5q-135 0 -205.5 -99t-70.5 -280v-975h-88v952q0 217 101.5 349.5t283.5 132.5q137 0 209.5 -76.5t72.5 -181.5q0 -63 -25 -121.5t-60 -101.5t-70.5 -81t-60.5 -76.5t-25 -72.5z" />
    <glyph glyph-name="agrave" unicode="&#xe0;" 
d="M741 1163l-32 -41q-99 65 -220.5 160t-197.5 170l84 80q70 -87 177 -196t189 -173zM494 55q92 0 185 40t163 102q-4 148 -4 272q-592 62 -592 -219q0 -92 68 -143.5t180 -51.5zM858 -4q-7 60 -10 135q-172 -156 -385 -156q-137 0 -222 68.5t-85 185.5q0 167 174.5 257.5
t505.5 62.5q-5 104 -36 170t-105.5 109t-186 62.5t-289.5 27.5l12 81q207 -10 336.5 -37.5t212.5 -88t115.5 -151.5t32.5 -233q0 -245 10 -487z" />
    <glyph glyph-name="aacute" unicode="&#xe1;" 
d="M385 1182q86 65 192.5 172t172.5 194l88 -75q-74 -76 -195.5 -171.5t-224.5 -162.5zM494 55q92 0 185 40t163 102q-4 148 -4 272q-592 62 -592 -219q0 -92 68 -143.5t180 -51.5zM858 -4q-7 60 -10 135q-172 -156 -385 -156q-137 0 -222 68.5t-85 185.5q0 167 174.5 257.5
t505.5 62.5q-5 104 -36 170t-105.5 109t-186 62.5t-289.5 27.5l12 81q207 -10 336.5 -37.5t212.5 -88t115.5 -151.5t32.5 -233q0 -245 10 -487z" />
    <glyph glyph-name="acircumflex" unicode="&#xe2;" 
d="M850 1147l-287 260l-291 -258l-51 47l346 311h2l340 -303zM494 55q92 0 185 40t163 102q-4 148 -4 272q-592 62 -592 -219q0 -92 68 -143.5t180 -51.5zM858 -4q-7 60 -10 135q-172 -156 -385 -156q-137 0 -222 68.5t-85 185.5q0 167 174.5 257.5t505.5 62.5
q-5 104 -36 170t-105.5 109t-186 62.5t-289.5 27.5l12 81q207 -10 336.5 -37.5t212.5 -88t115.5 -151.5t32.5 -233q0 -245 10 -487z" />
    <glyph glyph-name="atilde" unicode="&#xe3;" 
d="M723 1157q-36 0 -71 25t-63 60.5t-54 71t-54.5 60.5t-54.5 25q-88 0 -182 -223l-60 24q113 279 250 279q36 0 71 -25t63 -60.5t54 -71t54.5 -60.5t54.5 -25q48 0 91.5 58t88.5 165l62 -24q-113 -279 -250 -279zM494 55q92 0 185 40t163 102q-4 148 -4 272
q-592 62 -592 -219q0 -92 68 -143.5t180 -51.5zM858 -4q-7 60 -10 135q-172 -156 -385 -156q-137 0 -222 68.5t-85 185.5q0 167 174.5 257.5t505.5 62.5q-5 104 -36 170t-105.5 109t-186 62.5t-289.5 27.5l12 81q207 -10 336.5 -37.5t212.5 -88t115.5 -151.5t32.5 -233
q0 -245 10 -487z" />
    <glyph glyph-name="adieresis" unicode="&#xe4;" 
d="M836 1157h-91l-2 266h97zM391 1157h-90l-2 266h96zM494 55q92 0 185 40t163 102q-4 148 -4 272q-592 62 -592 -219q0 -92 68 -143.5t180 -51.5zM858 -4q-7 60 -10 135q-172 -156 -385 -156q-137 0 -222 68.5t-85 185.5q0 167 174.5 257.5t505.5 62.5q-5 104 -36 170
t-105.5 109t-186 62.5t-289.5 27.5l12 81q207 -10 336.5 -37.5t212.5 -88t115.5 -151.5t32.5 -233q0 -245 10 -487z" />
    <glyph glyph-name="aring" unicode="&#xe5;" 
d="M563 1534q114 0 189 -60t75 -147q0 -95 -72.5 -155t-191.5 -60q-114 0 -189 60t-75 147q0 95 72.5 155t191.5 60zM563 1470q-88 0 -139 -40.5t-51 -106.5q0 -65 51.5 -106t138.5 -41q88 0 139.5 40.5t51.5 106.5q0 65 -52 106t-139 41zM494 55q92 0 185 40t163 102
q-4 148 -4 272q-592 62 -592 -219q0 -92 68 -143.5t180 -51.5zM858 -4q-7 60 -10 135q-172 -156 -385 -156q-137 0 -222 68.5t-85 185.5q0 167 174.5 257.5t505.5 62.5q-5 104 -36 170t-105.5 109t-186 62.5t-289.5 27.5l12 81q207 -10 336.5 -37.5t212.5 -88t115.5 -151.5
t32.5 -233q0 -245 10 -487z" />
    <glyph glyph-name="ae" unicode="&#xe6;" 
d="M997 -12q-170 7 -272 50t-154 126q-47 -75 -117.5 -125.5t-158.5 -50.5q-90 0 -148.5 63t-58.5 176q0 141 110 220t308 85q-2 110 -19.5 176t-62.5 109t-112.5 62t-180.5 28l10 82q184 -11 279 -57.5t131 -151.5q34 100 97.5 156.5t148.5 56.5q127 0 187.5 -135.5
t45.5 -378.5l-438 -12q1 -104 20 -174t65.5 -120.5t127.5 -75t203 -27.5zM778 913q-85 0 -133.5 -96.5t-52.5 -284.5l352 9q12 372 -166 372zM324 70q64 0 120 43t97 114q-35 92 -35 236q-164 -6 -246 -55t-82 -160q0 -89 40.5 -133.5t105.5 -44.5z" />
    <glyph glyph-name="ccedilla" unicode="&#xe7;" 
d="M797 -236q0 -137 -328 -190l-10 78q137 23 197.5 50.5t60.5 66.5q0 85 -205 219l20 37q-187 50 -268.5 165.5t-81.5 286.5q0 82 23.5 153.5t78.5 137t138.5 113.5t211 79.5t288.5 38.5l6 -88q-154 -4 -269.5 -27.5t-188.5 -60t-118 -90t-62.5 -112t-17.5 -132.5
q0 -84 18.5 -148.5t65 -119.5t122 -89t192.5 -50.5t274 -11.5l-12 -78q-192 -9 -334 16q199 -137 199 -244z" />
    <glyph glyph-name="egrave" unicode="&#xe8;" 
d="M762 1178l-33 -41q-100 65 -221 160t-197 169l84 80q69 -86 176.5 -194.5t190.5 -173.5zM913 -23q-219 6 -367 40t-233.5 100t-121 153t-35.5 211q0 145 59 266t161.5 190t225.5 69q193 0 292 -145.5t71 -373.5l-721 -20q2 -84 23.5 -145t69 -110t125.5 -80.5
t192.5 -49.5t271.5 -23zM586 928q-148 0 -240.5 -106.5t-101.5 -289.5l639 19q6 172 -71 274.5t-226 102.5z" />
    <glyph glyph-name="eacute" unicode="&#xe9;" 
d="M406 1196q85 64 191 171.5t173 195.5l88 -76q-74 -76 -195.5 -171.5t-224.5 -162.5zM913 -23q-219 6 -367 40t-233.5 100t-121 153t-35.5 211q0 145 59 266t161.5 190t225.5 69q193 0 292 -145.5t71 -373.5l-721 -20q2 -84 23.5 -145t69 -110t125.5 -80.5t192.5 -49.5
t271.5 -23zM586 928q-148 0 -240.5 -106.5t-101.5 -289.5l639 19q6 172 -71 274.5t-226 102.5z" />
    <glyph glyph-name="ecircumflex" unicode="&#xea;" 
d="M870 1161l-286 260l-291 -258l-51 47l346 312h2l340 -303zM913 -23q-219 6 -367 40t-233.5 100t-121 153t-35.5 211q0 145 59 266t161.5 190t225.5 69q193 0 292 -145.5t71 -373.5l-721 -20q2 -84 23.5 -145t69 -110t125.5 -80.5t192.5 -49.5t271.5 -23zM586 928
q-148 0 -240.5 -106.5t-101.5 -289.5l639 19q6 172 -71 274.5t-226 102.5z" />
    <glyph glyph-name="edieresis" unicode="&#xeb;" 
d="M856 1171h-90l-2 267h96zM412 1171h-90l-3 267h97zM913 -23q-219 6 -367 40t-233.5 100t-121 153t-35.5 211q0 145 59 266t161.5 190t225.5 69q193 0 292 -145.5t71 -373.5l-721 -20q2 -84 23.5 -145t69 -110t125.5 -80.5t192.5 -49.5t271.5 -23zM586 928
q-148 0 -240.5 -106.5t-101.5 -289.5l639 19q6 172 -71 274.5t-226 102.5z" />
    <glyph glyph-name="igrave" unicode="&#xec;" 
d="M778 1163l-33 -41q-99 64 -219.5 159.5t-197.5 170.5l84 80q70 -87 177 -196t189 -173zM1042 0h-886v72h401v833l-395 17l8 61h477v-911h402z" />
    <glyph glyph-name="iacute" unicode="&#xed;" 
d="M422 1182q86 64 192 171.5t172 194.5l88 -75q-75 -76 -196 -172t-223 -162zM1042 0h-886v72h401v833l-395 17l8 61h477v-911h402z" />
    <glyph glyph-name="icircumflex" unicode="&#xee;" 
d="M887 1147l-287 260l-291 -258l-51 47l346 311h2l340 -303zM1042 0h-886v72h401v833l-395 17l8 61h477v-911h402z" />
    <glyph glyph-name="idieresis" unicode="&#xef;" 
d="M872 1157h-90l-2 266h97zM428 1157h-90l-2 266h96zM1042 0h-886v72h401v833l-395 17l8 61h477v-911h402z" />
    <glyph glyph-name="eth" unicode="&#xf0;" 
d="M545 -23q-177 0 -295.5 129t-118.5 343q0 81 19.5 152t55 125t83.5 97t106 70t122 40t132 10.5t135 -19.5q-83 134 -215 252l-272 -158l-31 59l250 144q-113 88 -227 153l51 64q132 -77 250 -174l248 143l28 -61l-223 -129q346 -310 346 -725q0 -124 -35.5 -223.5
t-97 -162t-141.5 -96t-170 -33.5zM557 55q157 0 251.5 114.5t94.5 319.5q0 177 -65 330q-196 70 -333.5 37t-211.5 -139t-74 -260q0 -180 93 -291t245 -111z" />
    <glyph glyph-name="ntilde" unicode="&#xf1;" 
d="M725 1178q-36 0 -71 25t-63 60t-54 70.5t-54.5 60.5t-54.5 25q-88 0 -182 -223l-60 25q112 278 250 278q36 0 71 -25t63 -60.5t54 -71t54.5 -60.5t54.5 -25q48 0 91.5 58t88.5 166l62 -25q-55 -135 -118.5 -206.5t-131.5 -71.5zM608 926q-159 0 -319 -113
q10 -283 10 -813h-90q0 632 -12 979l82 6l8 -111q168 130 346 130q144 0 225.5 -83.5t81.5 -258.5v-662h-90v637q0 152 -61.5 220.5t-180.5 68.5z" />
    <glyph glyph-name="ograve" unicode="&#xf2;" 
d="M739 1169l-32 -41q-99 65 -220.5 160t-197.5 170l84 80q70 -87 177 -196t189 -173zM551 -27q-184 0 -302 137.5t-118 368.5q0 232 129.5 380.5t314.5 148.5q186 0 303 -137t117 -367q0 -234 -129 -382.5t-315 -148.5zM563 51q154 0 249 116t95 318q0 207 -95 326
t-249 119q-152 0 -247 -116t-95 -316q0 -208 95 -327.5t247 -119.5z" />
    <glyph glyph-name="oacute" unicode="&#xf3;" 
d="M383 1188q86 65 192.5 172t172.5 194l88 -75q-74 -76 -195.5 -171.5t-224.5 -162.5zM551 -27q-184 0 -302 137.5t-118 368.5q0 232 129.5 380.5t314.5 148.5q186 0 303 -137t117 -367q0 -234 -129 -382.5t-315 -148.5zM563 51q154 0 249 116t95 318q0 207 -95 326
t-249 119q-152 0 -247 -116t-95 -316q0 -208 95 -327.5t247 -119.5z" />
    <glyph glyph-name="ocircumflex" unicode="&#xf4;" 
d="M848 1153l-287 260l-291 -258l-51 47l346 311h2l340 -303zM551 -27q-184 0 -302 137.5t-118 368.5q0 232 129.5 380.5t314.5 148.5q186 0 303 -137t117 -367q0 -234 -129 -382.5t-315 -148.5zM563 51q154 0 249 116t95 318q0 207 -95 326t-249 119q-152 0 -247 -116
t-95 -316q0 -208 95 -327.5t247 -119.5z" />
    <glyph glyph-name="otilde" unicode="&#xf5;" 
d="M721 1163q-36 0 -71 25t-63 60.5t-54 71t-54.5 60.5t-54.5 25q-88 0 -182 -223l-60 24q113 279 250 279q36 0 71 -25t63 -60.5t54 -71t54.5 -60.5t54.5 -25q48 0 91.5 58t88.5 165l62 -24q-113 -279 -250 -279zM551 -27q-184 0 -302 137.5t-118 368.5q0 232 129.5 380.5
t314.5 148.5q186 0 303 -137t117 -367q0 -234 -129 -382.5t-315 -148.5zM563 51q154 0 249 116t95 318q0 207 -95 326t-249 119q-152 0 -247 -116t-95 -316q0 -208 95 -327.5t247 -119.5z" />
    <glyph glyph-name="odieresis" unicode="&#xf6;" 
d="M834 1163h-91l-2 267h97zM389 1163h-90l-2 267h96zM551 -27q-184 0 -302 137.5t-118 368.5q0 232 129.5 380.5t314.5 148.5q186 0 303 -137t117 -367q0 -234 -129 -382.5t-315 -148.5zM563 51q154 0 249 116t95 318q0 207 -95 326t-249 119q-152 0 -247 -116t-95 -316
q0 -208 95 -327.5t247 -119.5z" />
    <glyph glyph-name="divide" unicode="&#xf7;" 
d="M623 883h-123l2 147h123zM991 627l-2 -78h-854v78h856zM623 145h-123l2 148h123z" />
    <glyph glyph-name="oslash" unicode="&#xf8;" 
d="M221 498q0 -196 88 -318l463 672q-87 78 -209 78q-152 0 -247 -116t-95 -316zM563 51q154 0 249 116t95 318q0 195 -86 314l-463 -674q86 -74 205 -74zM551 -27q-135 0 -242 80l-80 -112l-59 41l86 120q-125 141 -125 377q0 232 129.5 380.5t314.5 148.5q144 0 248 -84
l78 112l60 -41l-87 -121q121 -137 121 -370q0 -234 -129 -382.5t-315 -148.5z" />
    <glyph glyph-name="ugrave" unicode="&#xf9;" 
d="M743 1167l-32 -41q-99 65 -220.5 160t-197.5 170l84 80q70 -87 177 -196t189 -173zM848 -2l-8 111q-176 -132 -344 -132q-142 0 -221.5 83t-79.5 259v660l90 8v-643q0 -153 59 -221t176 -68q156 0 318 115q-11 312 -11 813h91q0 -633 12 -979z" />
    <glyph glyph-name="uacute" unicode="&#xfa;" 
d="M387 1186q86 65 192.5 172t172.5 194l88 -75q-74 -76 -195.5 -171.5t-224.5 -162.5zM848 -2l-8 111q-176 -132 -344 -132q-142 0 -221.5 83t-79.5 259v660l90 8v-643q0 -153 59 -221t176 -68q156 0 318 115q-11 312 -11 813h91q0 -633 12 -979z" />
    <glyph glyph-name="ucircumflex" unicode="&#xfb;" 
d="M852 1151l-287 260l-291 -258l-51 47l346 311h2l340 -303zM848 -2l-8 111q-176 -132 -344 -132q-142 0 -221.5 83t-79.5 259v660l90 8v-643q0 -153 59 -221t176 -68q156 0 318 115q-11 312 -11 813h91q0 -633 12 -979z" />
    <glyph glyph-name="udieresis" unicode="&#xfc;" 
d="M838 1161h-90l-3 266h97zM393 1161h-90l-2 266h96zM848 -2l-8 111q-176 -132 -344 -132q-142 0 -221.5 83t-79.5 259v660l90 8v-643q0 -153 59 -221t176 -68q156 0 318 115q-11 312 -11 813h91q0 -633 12 -979z" />
    <glyph glyph-name="yacute" unicode="&#xfd;" 
d="M397 1184q86 65 192.5 172t172.5 194l88 -75q-74 -76 -195.5 -171.5t-224.5 -162.5zM143 -365l-10 89q105 17 166.5 36t108 54.5t73.5 78t64 121.5q-235 495 -434 967l92 4q107 -266 381 -860h10q106 246 334 858h86q-156 -427 -365 -922q-48 -114 -87 -181t-97 -119.5
t-132 -79.5t-190 -46z" />
    <glyph glyph-name="thorn" unicode="&#xfe;" 
d="M522 57q166 0 276.5 121t110.5 330q0 195 -89.5 306.5t-229.5 111.5q-147 0 -285 -105v-727q95 -37 217 -37zM305 -336l-88 -10v1773l88 9v-549q149 117 313 117t271.5 -130.5t107.5 -343.5q0 -100 -27.5 -189t-75.5 -154.5t-111.5 -113.5t-137.5 -72t-151 -24
q-89 0 -189 23v-336z" />
    <glyph glyph-name="ydieresis" unicode="&#xff;" 
d="M848 1159h-90l-2 266h96zM403 1159h-90l-2 266h97zM143 -365l-10 89q105 17 166.5 36t108 54.5t73.5 78t64 121.5q-235 495 -434 967l92 4q107 -266 381 -860h10q106 246 334 858h86q-156 -427 -365 -922q-48 -114 -87 -181t-97 -119.5t-132 -79.5t-190 -46z" />
    <glyph glyph-name="Amacron" unicode="&#x100;" 
d="M887 1624v-80h-651v80h651zM936 -4q-24 82 -69 231.5t-62 206.5h-488q-21 -71 -129 -434h-90q194 649 400 1276h131q198 -602 399 -1272zM553 1188q-39 -120 -213 -680h442q-117 379 -215 680h-14z" />
    <glyph glyph-name="amacron" unicode="&#x101;" 
d="M891 1337v-80h-651v80h651zM494 55q92 0 185 40t163 102q-4 148 -4 272q-592 62 -592 -219q0 -92 68 -143.5t180 -51.5zM858 -4q-7 60 -10 135q-172 -156 -385 -156q-137 0 -222 68.5t-85 185.5q0 167 174.5 257.5t505.5 62.5q-5 104 -36 170t-105.5 109t-186 62.5
t-289.5 27.5l12 81q207 -10 336.5 -37.5t212.5 -88t115.5 -151.5t32.5 -233q0 -245 10 -487z" />
    <glyph glyph-name="Abreve" unicode="&#x102;" 
d="M553 1444q-97 0 -183 71t-173 220l67 41q84 -139 150 -196.5t145 -57.5q84 0 154 58.5t157 186.5l60 -30q-183 -293 -377 -293zM936 -4q-24 82 -69 231.5t-62 206.5h-488q-21 -71 -129 -434h-90q194 649 400 1276h131q198 -602 399 -1272zM553 1188q-39 -120 -213 -680
h442q-117 379 -215 680h-14z" />
    <glyph glyph-name="abreve" unicode="&#x103;" 
d="M557 1157q-97 0 -183 71t-173 220l67 41q84 -139 150 -196.5t145 -57.5q83 0 153 58.5t158 187.5l60 -31q-183 -293 -377 -293zM494 55q92 0 185 40t163 102q-4 148 -4 272q-592 62 -592 -219q0 -92 68 -143.5t180 -51.5zM858 -4q-7 60 -10 135q-172 -156 -385 -156
q-137 0 -222 68.5t-85 185.5q0 167 174.5 257.5t505.5 62.5q-5 104 -36 170t-105.5 109t-186 62.5t-289.5 27.5l12 81q207 -10 336.5 -37.5t212.5 -88t115.5 -151.5t32.5 -233q0 -245 10 -487z" />
    <glyph glyph-name="Aogonek" unicode="&#x104;" 
d="M983 -416q-179 21 -254.5 61.5t-75.5 108.5q0 58 62.5 118.5t214.5 141.5q-77 265 -125 420h-488q-21 -71 -129 -434h-90q194 649 400 1276h131q198 -602 399 -1272q-163 -81 -228 -136t-65 -97q0 -40 60 -66t198 -43zM553 1188q-39 -120 -213 -680h442
q-117 379 -215 680h-14z" />
    <glyph glyph-name="aogonek" unicode="&#x105;" 
d="M893 -418q-179 21 -254.5 61.5t-75.5 108.5q0 60 66 122t227 146q-9 104 -12 175q-183 -220 -402 -220q-128 0 -207 68.5t-79 185.5q0 167 174.5 257.5t505.5 62.5q-5 104 -36 170t-105.5 109t-186 62.5t-289.5 27.5l12 81q207 -10 336.5 -37.5t212.5 -88t115.5 -151.5
t32.5 -233q0 -245 10 -487q-163 -81 -228 -136t-65 -97q0 -40 60 -66t198 -43zM473 55q98 0 195.5 58.5t171.5 148.5q-2 61 -2 207q-592 62 -592 -219q0 -92 62 -143.5t165 -51.5z" />
    <glyph glyph-name="Cacute" unicode="&#x106;" 
d="M465 1468q85 64 191 171.5t173 195.5l89 -76q-74 -76 -195.5 -171.5t-224.5 -162.5zM969 76l-8 -82q-187 -10 -329.5 15.5t-233.5 78t-148 135t-80 176.5t-23 211q0 108 24.5 200t82.5 176.5t148.5 146t229.5 101.5t318 48l6 -88q-145 -6 -258.5 -29t-191 -61.5
t-130.5 -87t-82.5 -113t-41.5 -130.5t-12 -148q0 -111 19.5 -195t69 -156t131 -116.5t209.5 -66.5t300 -15z" />
    <glyph glyph-name="cacute" unicode="&#x107;" 
d="M451 1182q86 64 192 171.5t172 194.5l88 -75q-74 -76 -195.5 -171.5t-224.5 -162.5zM182 477q0 82 23.5 153.5t78.5 137t138.5 113.5t211 79.5t288.5 38.5l6 -88q-154 -4 -269.5 -27.5t-188.5 -60t-118 -90t-62.5 -112t-17.5 -132.5q0 -84 18.5 -148.5t65 -119.5t122 -89
t192.5 -50.5t274 -11.5l-12 -78q-169 -8 -299.5 12t-214.5 61t-138 105.5t-76 139t-22 167.5z" />
    <glyph glyph-name="Cdotaccent" unicode="&#x10a;" 
d="M686 1444h-90l6 266h94zM969 76l-8 -82q-187 -10 -329.5 15.5t-233.5 78t-148 135t-80 176.5t-23 211q0 108 24.5 200t82.5 176.5t148.5 146t229.5 101.5t318 48l6 -88q-145 -6 -258.5 -29t-191 -61.5t-130.5 -87t-82.5 -113t-41.5 -130.5t-12 -148q0 -111 19.5 -195
t69 -156t131 -116.5t209.5 -66.5t300 -15z" />
    <glyph glyph-name="cdotaccent" unicode="&#x10b;" 
d="M672 1157h-90l6 266h94zM182 477q0 82 23.5 153.5t78.5 137t138.5 113.5t211 79.5t288.5 38.5l6 -88q-154 -4 -269.5 -27.5t-188.5 -60t-118 -90t-62.5 -112t-17.5 -132.5q0 -84 18.5 -148.5t65 -119.5t122 -89t192.5 -50.5t274 -11.5l-12 -78q-169 -8 -299.5 12
t-214.5 61t-138 105.5t-76 139t-22 167.5z" />
    <glyph glyph-name="Ccaron" unicode="&#x10c;" 
d="M655 1423h-2l-340 301l60 58l286 -260l291 260l51 -49zM969 76l-8 -82q-187 -10 -329.5 15.5t-233.5 78t-148 135t-80 176.5t-23 211q0 108 24.5 200t82.5 176.5t148.5 146t229.5 101.5t318 48l6 -88q-145 -6 -258.5 -29t-191 -61.5t-130.5 -87t-82.5 -113t-41.5 -130.5
t-12 -148q0 -111 19.5 -195t69 -156t131 -116.5t209.5 -66.5t300 -15z" />
    <glyph glyph-name="ccaron" unicode="&#x10d;" 
d="M641 1137h-2l-340 301l59 57l287 -260l291 260l51 -49zM182 477q0 82 23.5 153.5t78.5 137t138.5 113.5t211 79.5t288.5 38.5l6 -88q-154 -4 -269.5 -27.5t-188.5 -60t-118 -90t-62.5 -112t-17.5 -132.5q0 -84 18.5 -148.5t65 -119.5t122 -89t192.5 -50.5t274 -11.5
l-12 -78q-169 -8 -299.5 12t-214.5 61t-138 105.5t-76 139t-22 167.5z" />
    <glyph glyph-name="Dcaron" unicode="&#x10e;" 
d="M561 1438h-2l-340 301l60 57l286 -260l291 260l51 -49zM1008 662q0 -379 -211.5 -553.5t-597.5 -110.5v1274q285 43 465 -13.5t262 -203.5t82 -393zM915 641q0 329 -149.5 462.5t-474.5 92.5v-1120q304 -47 464 101.5t160 463.5z" />
    <glyph glyph-name="dcaron" unicode="&#x10f;" 
d="M1044 1153q38 71 56.5 135.5t17.5 125t-11.5 110t-31.5 110.5l119 4q66 -249 -109 -503zM543 55q139 0 280 113q-6 301 -6 727q-114 31 -188 31q-174 0 -291 -122.5t-117 -334.5q0 -197 89 -305.5t233 -108.5zM834 -4l-7 106q-144 -125 -313 -125q-167 0 -275 126.5
t-108 340.5q0 130 44.5 237.5t120 177t172.5 107.5t204 38q74 0 145 -15v438l90 9v-465q0 -623 15 -969z" />
    <glyph glyph-name="Dcroat" unicode="&#x110;" 
d="M1008 662q0 -379 -211.5 -553.5t-597.5 -110.5v612h-162v72h162v590q285 43 465 -13.5t262 -203.5t82 -393zM291 76q304 -47 464 101.5t160 463.5q0 329 -149.5 462.5t-474.5 92.5v-514h321l-4 -72h-317v-534z" />
    <glyph glyph-name="dcroat" unicode="&#x111;" 
d="M543 55q139 0 280 113q-6 301 -6 727q-114 31 -188 31q-174 0 -291 -122.5t-117 -334.5q0 -197 89 -305.5t233 -108.5zM834 -4l-7 106q-144 -125 -313 -125q-167 0 -275 126.5t-108 340.5q0 130 44.5 237.5t120 177t172.5 107.5t204 38q74 0 145 -15v215h-293v68h293v155
l90 9v-164h160v-68h-160v-233q0 -623 15 -969z" />
    <glyph glyph-name="Emacron" unicode="&#x112;" 
d="M942 1624v-80h-651v80h651zM985 82l-10 -82h-739v1270h743v-82h-651v-506h569v-74h-569v-526h657z" />
    <glyph glyph-name="emacron" unicode="&#x113;" 
d="M911 1352v-80h-651v80h651zM913 -23q-219 6 -367 40t-233.5 100t-121 153t-35.5 211q0 145 59 266t161.5 190t225.5 69q193 0 292 -145.5t71 -373.5l-721 -20q2 -84 23.5 -145t69 -110t125.5 -80.5t192.5 -49.5t271.5 -23zM586 928q-148 0 -240.5 -106.5t-101.5 -289.5
l639 19q6 172 -71 274.5t-226 102.5z" />
    <glyph glyph-name="Ebreve" unicode="&#x114;" 
d="M608 1444q-97 0 -183 71t-173 220l67 41q84 -139 150 -196.5t145 -57.5q84 0 154.5 58.5t157.5 186.5l59 -30q-183 -293 -377 -293zM985 82l-10 -82h-739v1270h743v-82h-651v-506h569v-74h-569v-526h657z" />
    <glyph glyph-name="ebreve" unicode="&#x115;" 
d="M578 1171q-97 0 -183.5 71t-173.5 220l68 41q84 -139 150 -196.5t145 -57.5q83 0 153 58.5t158 187.5l59 -31q-183 -293 -376 -293zM913 -23q-219 6 -367 40t-233.5 100t-121 153t-35.5 211q0 145 59 266t161.5 190t225.5 69q193 0 292 -145.5t71 -373.5l-721 -20
q2 -84 23.5 -145t69 -110t125.5 -80.5t192.5 -49.5t271.5 -23zM586 928q-148 0 -240.5 -106.5t-101.5 -289.5l639 19q6 172 -71 274.5t-226 102.5z" />
    <glyph glyph-name="Edotaccent" unicode="&#x116;" 
d="M657 1444h-90l6 266h95zM985 82l-10 -82h-739v1270h743v-82h-651v-506h569v-74h-569v-526h657z" />
    <glyph glyph-name="edotaccent" unicode="&#x117;" 
d="M627 1171h-90l6 267h94zM913 -23q-219 6 -367 40t-233.5 100t-121 153t-35.5 211q0 145 59 266t161.5 190t225.5 69q193 0 292 -145.5t71 -373.5l-721 -20q2 -84 23.5 -145t69 -110t125.5 -80.5t192.5 -49.5t271.5 -23zM586 928q-148 0 -240.5 -106.5t-101.5 -289.5
l639 19q6 172 -71 274.5t-226 102.5z" />
    <glyph glyph-name="Eogonek" unicode="&#x118;" 
d="M942 -342l-10 -78q-179 21 -254.5 61.5t-75.5 108.5q0 57 58.5 115.5t199.5 134.5h-624v1270h743v-82h-651v-506h569v-74h-569v-526h657l-10 -82q-161 -81 -226 -136t-65 -97q0 -40 60 -66t198 -43z" />
    <glyph glyph-name="eogonek" unicode="&#x119;" 
d="M868 -420q-177 21 -253 62.5t-76 107.5q0 58 61 114.5t205 123.5q-186 10 -313.5 46t-200.5 100t-104 147.5t-31 199.5q0 145 59 266t161.5 190t225.5 69q193 0 292 -145.5t71 -373.5l-721 -20q2 -84 23.5 -145t69 -110t125.5 -80.5t192.5 -49.5t271.5 -23l-13 -79
q-292 -121 -292 -211q0 -79 258 -111zM586 928q-148 0 -240.5 -106.5t-101.5 -289.5l639 19q6 172 -71 274.5t-226 102.5z" />
    <glyph glyph-name="Ecaron" unicode="&#x11a;" 
d="M627 1423h-2l-340 301l59 58l287 -260l291 260l51 -49zM985 82l-10 -82h-739v1270h743v-82h-651v-506h569v-74h-569v-526h657z" />
    <glyph glyph-name="ecaron" unicode="&#x11b;" 
d="M596 1151h-2l-340 301l59 57l287 -260l291 260l51 -49zM913 -23q-219 6 -367 40t-233.5 100t-121 153t-35.5 211q0 145 59 266t161.5 190t225.5 69q193 0 292 -145.5t71 -373.5l-721 -20q2 -84 23.5 -145t69 -110t125.5 -80.5t192.5 -49.5t271.5 -23zM586 928
q-148 0 -240.5 -106.5t-101.5 -289.5l639 19q6 172 -71 274.5t-226 102.5z" />
    <glyph glyph-name="Gbreve" unicode="&#x11e;" 
d="M586 1444q-97 0 -183.5 71t-173.5 220l68 41q84 -139 150 -196.5t145 -57.5q84 0 154 58.5t157 186.5l60 -30q-183 -293 -377 -293zM956 10q-151 -29 -271 -29t-212.5 32t-158.5 85.5t-108.5 132t-62.5 170.5t-20 201q0 92 16.5 172t52.5 155.5t98 136t147.5 107.5
t206 75t269.5 34l7 -88q-122 -4 -221.5 -22t-172 -46t-127.5 -68.5t-89.5 -86t-56 -103.5t-30 -116.5t-8.5 -128.5q0 -115 19 -205t65.5 -164.5t120 -119.5t185.5 -62.5t259 -1.5q0 66 -1 255.5t-1 311.5h92q0 -78 -1 -227.5t-0.5 -237.5t3.5 -162z" />
    <glyph glyph-name="gbreve" unicode="&#x11f;" 
d="M578 1169q-97 0 -183.5 71t-173.5 220l68 41q84 -139 150 -196.5t145 -57.5q83 0 153 58.5t158 187.5l59 -31q-183 -293 -376 -293zM266 -348l-10 86q127 9 216 22.5t155 37.5t105 54t62.5 78.5t31.5 103.5t8 136v4q-149 -113 -316 -113q-168 0 -275.5 114.5
t-107.5 311.5q0 118 42.5 217t114 163.5t164 100.5t193.5 36q124 0 273 -46q2 -37 2 -778q0 -99 -18.5 -174t-63.5 -139.5t-119.5 -108t-188.5 -71t-268 -35.5zM547 139q143 0 287 105v645q-119 37 -216 37q-168 0 -280.5 -111.5t-112.5 -304.5q0 -178 89 -274.5t233 -96.5z
" />
    <glyph glyph-name="Gdotaccent" unicode="&#x120;" 
d="M635 1444h-90l6 266h94zM956 10q-151 -29 -271 -29t-212.5 32t-158.5 85.5t-108.5 132t-62.5 170.5t-20 201q0 92 16.5 172t52.5 155.5t98 136t147.5 107.5t206 75t269.5 34l7 -88q-122 -4 -221.5 -22t-172 -46t-127.5 -68.5t-89.5 -86t-56 -103.5t-30 -116.5
t-8.5 -128.5q0 -115 19 -205t65.5 -164.5t120 -119.5t185.5 -62.5t259 -1.5q0 66 -1 255.5t-1 311.5h92q0 -78 -1 -227.5t-0.5 -237.5t3.5 -162z" />
    <glyph glyph-name="gdotaccent" unicode="&#x121;" 
d="M627 1169h-90l6 267h94zM266 -348l-10 86q127 9 216 22.5t155 37.5t105 54t62.5 78.5t31.5 103.5t8 136v4q-149 -113 -316 -113q-168 0 -275.5 114.5t-107.5 311.5q0 118 42.5 217t114 163.5t164 100.5t193.5 36q124 0 273 -46q2 -37 2 -778q0 -99 -18.5 -174
t-63.5 -139.5t-119.5 -108t-188.5 -71t-268 -35.5zM547 139q143 0 287 105v645q-119 37 -216 37q-168 0 -280.5 -111.5t-112.5 -304.5q0 -178 89 -274.5t233 -96.5z" />
    <glyph glyph-name="Gcommaaccent" unicode="&#x122;" 
d="M956 10q-151 -29 -271 -29t-212.5 32t-158.5 85.5t-108.5 132t-62.5 170.5t-20 201q0 92 16.5 172t52.5 155.5t98 136t147.5 107.5t206 75t269.5 34l7 -88q-122 -4 -221.5 -22t-172 -46t-127.5 -68.5t-89.5 -86t-56 -103.5t-30 -116.5t-8.5 -128.5q0 -115 19 -205
t65.5 -164.5t120 -119.5t185.5 -62.5t259 -1.5q0 66 -1 255.5t-1 311.5h92q0 -78 -1 -227.5t-0.5 -237.5t3.5 -162zM506 -553q41 73 52.5 143.5t1 124t-37.5 117.5q7 0 61 3t62 3q14 -62 13 -125.5t-28.5 -137t-80.5 -142.5z" />
    <glyph glyph-name="gcommaaccent" unicode="&#x123;" 
d="M662 1554q-41 -74 -52.5 -144t-1.5 -123.5t37 -117.5l-123 -6q-14 62 -13 125.5t28.5 137.5t80.5 143zM266 -348l-10 86q127 9 216 22.5t155 37.5t105 54t62.5 78.5t31.5 103.5t8 136v4q-149 -113 -316 -113q-168 0 -275.5 114.5t-107.5 311.5q0 118 42.5 217t114 163.5
t164 100.5t193.5 36q124 0 273 -46q2 -37 2 -778q0 -99 -18.5 -174t-63.5 -139.5t-119.5 -108t-188.5 -71t-268 -35.5zM547 139q143 0 287 105v645q-119 37 -216 37q-168 0 -280.5 -111.5t-112.5 -304.5q0 -178 89 -274.5t233 -96.5z" />
    <glyph glyph-name="Hbar" unicode="&#x126;" 
d="M846 662v268h-565v-268h565zM846 0v588h-565v-588h-93v928h-161v71h161v271h93v-273h565v273h92v-271h162v-71h-162v-928h-92z" />
    <glyph glyph-name="hbar" unicode="&#x127;" 
d="M608 926q-149 0 -309 -107v-819h-90v1204h-162v68h162v155l90 9v-164h291v-68h-291v-321q169 121 334 121q144 0 225.5 -83.5t81.5 -258.5v-662h-90v637q0 152 -61 220.5t-181 68.5z" />
    <glyph glyph-name="Imacron" unicode="&#x12a;" 
d="M891 1624v-80h-651v80h651zM606 1194v-1118h348l-8 -76h-772v76h340v1118h-340v76h772v-76h-340z" />
    <glyph glyph-name="imacron" unicode="&#x12b;" 
d="M928 1337v-80h-652v80h652zM1042 0h-886v72h401v833l-395 17l8 61h477v-911h402z" />
    <glyph glyph-name="Ibreve" unicode="&#x12c;" 
d="M557 1444q-97 0 -183 71t-173 220l67 41q84 -139 150 -196.5t145 -57.5q83 0 153.5 58.5t157.5 186.5l60 -30q-183 -293 -377 -293zM606 1194v-1118h348l-8 -76h-772v76h340v1118h-340v76h772v-76h-340z" />
    <glyph glyph-name="ibreve" unicode="&#x12d;" 
d="M594 1157q-97 0 -183 71t-173 220l67 41q84 -139 150 -196.5t145 -57.5q83 0 153 58.5t158 187.5l60 -31q-183 -293 -377 -293zM1042 0h-886v72h401v833l-395 17l8 61h477v-911h402z" />
    <glyph glyph-name="Iogonek" unicode="&#x12e;" 
d="M684 -342l-10 -78q-179 21 -254.5 63.5t-75.5 114.5q0 55 40 110t136 132h-346v76h340v1118h-340v76h772v-76h-340v-1118h348l-8 -76h-340q-100 -84 -140 -135t-40 -90q0 -45 60 -72.5t198 -44.5z" />
    <glyph glyph-name="iogonek" unicode="&#x12f;" 
d="M635 1157h-88l8 266h96zM719 -342l-10 -78q-179 21 -254.5 63.5t-75.5 114.5q0 55 40 110t136 132h-399v72h401v833l-395 17l8 61h477v-911h402l-7 -72h-401q-100 -84 -140 -135t-40 -90q0 -45 60 -72.5t198 -44.5z" />
    <glyph glyph-name="Idotaccent" unicode="&#x130;" 
d="M606 1444h-90l6 266h94zM606 1194v-1118h348l-8 -76h-772v76h340v1118h-340v76h772v-76h-340z" />
    <glyph glyph-name="dotlessi" unicode="&#x131;" 
d="M1042 0h-886v72h401v833l-395 17l8 61h477v-911h402z" />
    <glyph glyph-name="Kcommaaccent" unicode="&#x136;" 
d="M936 -8l-471 612h-154v-604h-92v1270h92v-594h160l438 594h101l-463 -629l491 -635zM473 -543q41 73 52.5 143.5t1 124t-37.5 117.5q7 0 61 3t62 3q14 -62 13 -125.5t-28.5 -137t-80.5 -142.5z" />
    <glyph glyph-name="kcommaaccent" unicode="&#x137;" 
d="M932 -8l-418 473l-184 -4v-461h-90v1427l90 9v-904l192 5q212 218 396 450l90 -8q-183 -235 -412 -475l432 -496zM518 -543q41 74 52.5 144t1.5 123.5t-37 117.5q7 0 60.5 3t61.5 3q14 -62 13 -125.5t-28.5 -137t-80.5 -142.5z" />
    <glyph glyph-name="Lacute" unicode="&#x139;" 
d="M455 1468q85 64 191 171.5t173 195.5l88 -76q-74 -76 -195.5 -171.5t-224.5 -162.5zM1008 0h-752v1270h92v-1188h668z" />
    <glyph glyph-name="lacute" unicode="&#x13a;" 
d="M389 1624q86 64 192.5 172t172.5 195l88 -76q-74 -76 -195.5 -171.5t-224.5 -162.5zM946 0h-764v72h340v1276l-315 14l8 63h397v-1353h342z" />
    <glyph glyph-name="Lcommaaccent" unicode="&#x13b;" 
d="M1008 0h-752v1270h92v-1188h668zM547 -535q41 73 52.5 143.5t1 124t-37.5 117.5q7 0 61 3.5t62 3.5q14 -62 13 -125.5t-28.5 -137.5t-80.5 -143z" />
    <glyph glyph-name="lcommaaccent" unicode="&#x13c;" 
d="M946 0h-764v72h340v1276l-315 14l8 63h397v-1353h342zM481 -535q41 74 52.5 144t1.5 123.5t-37 117.5q7 0 61 3.5t62 3.5q14 -62 12.5 -125.5t-29 -137.5t-80.5 -143z" />
    <glyph glyph-name="Lcaron" unicode="&#x13d;" 
d="M797 940q38 71 56.5 135.5t17 125t-12 110t-31.5 110.5l119 4q66 -250 -108 -503zM1008 0h-752v1270h92v-1188h668z" />
    <glyph glyph-name="lcaron" unicode="&#x13e;" 
d="M913 1153q38 71 56.5 135.5t17.5 125t-11.5 110t-31.5 110.5l119 4q66 -249 -109 -503zM946 0h-764v72h340v1276l-315 14l8 63h397v-1353h342z" />
    <glyph glyph-name="Ldot" unicode="&#x13f;" 
d="M1008 0h-752v1270h92v-1188h668zM932 557h-141l8 174h141z" />
    <glyph glyph-name="ldot" unicode="&#x140;" 
d="M946 0h-764v72h340v1276l-315 14l8 63h397v-1353h342zM1196 557h-141l8 174h141z" />
    <glyph glyph-name="Lslash" unicode="&#x141;" 
d="M1008 0h-752v645l-162 -86l-18 70l180 94v547h92v-498l338 178l19 -69l-357 -189v-610h668z" />
    <glyph glyph-name="lslash" unicode="&#x142;" 
d="M946 0h-764v72h340v608l-258 -137l-18 69l276 148v588l-315 14l8 63h397v-618l248 133l19 -70l-267 -141v-657h342z" />
    <glyph glyph-name="Nacute" unicode="&#x143;" 
d="M377 1468q85 64 191 171.5t173 195.5l88 -76q-75 -76 -196 -172t-223 -162zM827 0l-542 1153h-11l2 -1153h-88v1270h129l527 -1125h8l-2 1125h88v-1270h-111z" />
    <glyph glyph-name="nacute" unicode="&#x144;" 
d="M387 1202q86 64 192.5 172t172.5 195l88 -76q-74 -76 -195.5 -171.5t-224.5 -162.5zM608 926q-159 0 -319 -113q10 -283 10 -813h-90q0 632 -12 979l82 6l8 -111q168 130 346 130q144 0 225.5 -83.5t81.5 -258.5v-662h-90v637q0 152 -61.5 220.5t-180.5 68.5z" />
    <glyph glyph-name="Ncommaaccent" unicode="&#x145;" 
d="M827 0l-542 1153h-11l2 -1153h-88v1270h129l527 -1125h8l-2 1125h88v-1270h-111zM469 -535q41 73 52.5 143.5t1 124t-37.5 117.5q7 0 61 3.5t62 3.5q14 -62 13 -125.5t-28.5 -137.5t-80.5 -143z" />
    <glyph glyph-name="ncommaaccent" unicode="&#x146;" 
d="M608 926q-159 0 -319 -113q10 -283 10 -813h-90q0 632 -12 979l82 6l8 -111q168 130 346 130q144 0 225.5 -83.5t81.5 -258.5v-662h-90v637q0 152 -61.5 220.5t-180.5 68.5zM510 -535q41 73 52.5 143.5t1 124t-37.5 117.5q7 0 61 3.5t62 3.5q14 -62 13 -125.5
t-28.5 -137.5t-80.5 -143z" />
    <glyph glyph-name="Ncaron" unicode="&#x147;" 
d="M567 1423h-2l-340 301l60 58l286 -260l291 260l51 -49zM827 0l-542 1153h-11l2 -1153h-88v1270h129l527 -1125h8l-2 1125h88v-1270h-111z" />
    <glyph glyph-name="ncaron" unicode="&#x148;" 
d="M578 1157h-3l-339 301l59 58l287 -261l290 261l52 -50zM608 926q-159 0 -319 -113q10 -283 10 -813h-90q0 632 -12 979l82 6l8 -111q168 130 346 130q144 0 225.5 -83.5t81.5 -258.5v-662h-90v637q0 152 -61.5 220.5t-180.5 68.5z" />
    <glyph glyph-name="Omacron" unicode="&#x14c;" 
d="M893 1638v-79h-651v79h651zM549 -31q-208 0 -325.5 170t-117.5 477q0 325 127.5 504.5t346.5 179.5q208 0 323.5 -168.5t116.5 -478.5q1 -324 -125.5 -504t-345.5 -180zM561 1221q-174 0 -268 -152t-94 -434q0 -285 93.5 -435.5t272.5 -150.5q173 0 268 152.5t95 433.5
q0 284 -94.5 435t-272.5 151z" />
    <glyph glyph-name="omacron" unicode="&#x14d;" 
d="M889 1343v-79h-651v79h651zM551 -27q-184 0 -302 137.5t-118 368.5q0 232 129.5 380.5t314.5 148.5q186 0 303 -137t117 -367q0 -234 -129 -382.5t-315 -148.5zM563 51q154 0 249 116t95 318q0 207 -95 326t-249 119q-152 0 -247 -116t-95 -316q0 -208 95 -327.5
t247 -119.5z" />
    <glyph glyph-name="Obreve" unicode="&#x14e;" 
d="M559 1458q-97 0 -183 71t-173 220l67 41q84 -139 150 -196.5t145 -57.5q83 0 154 59t158 187l59 -31q-183 -293 -377 -293zM549 -31q-208 0 -325.5 170t-117.5 477q0 325 127.5 504.5t346.5 179.5q208 0 323.5 -168.5t116.5 -478.5q1 -324 -125.5 -504t-345.5 -180z
M561 1221q-174 0 -268 -152t-94 -434q0 -285 93.5 -435.5t272.5 -150.5q173 0 268 152.5t95 433.5q0 284 -94.5 435t-272.5 151z" />
    <glyph glyph-name="obreve" unicode="&#x14f;" 
d="M555 1163q-97 0 -183 71t-173 220l67 41q84 -139 150 -196.5t145 -57.5q83 0 153 58.5t158 187.5l60 -31q-183 -293 -377 -293zM551 -27q-184 0 -302 137.5t-118 368.5q0 232 129.5 380.5t314.5 148.5q186 0 303 -137t117 -367q0 -234 -129 -382.5t-315 -148.5zM563 51
q154 0 249 116t95 318q0 207 -95 326t-249 119q-152 0 -247 -116t-95 -316q0 -208 95 -327.5t247 -119.5z" />
    <glyph glyph-name="Ohungarumlaut" unicode="&#x150;" 
d="M295 1473q117 163 223 401l103 -51q-46 -81 -126 -189.5t-155 -193.5zM715 1470q58 80 120.5 194t100.5 206l106 -47q-51 -86 -130.5 -194.5t-151.5 -188.5zM549 -31q-208 0 -325.5 170t-117.5 477q0 325 127.5 504.5t346.5 179.5q208 0 323.5 -168.5t116.5 -478.5
q1 -324 -125.5 -504t-345.5 -180zM561 1221q-174 0 -268 -152t-94 -434q0 -285 93.5 -435.5t272.5 -150.5q173 0 268 152.5t95 433.5q0 284 -94.5 435t-272.5 151z" />
    <glyph glyph-name="ohungarumlaut" unicode="&#x151;" 
d="M291 1178q117 163 223 401l102 -51q-46 -81 -126 -190t-154 -193zM711 1176q58 80 120.5 194t100.5 205l106 -47q-51 -86 -130.5 -194.5t-151.5 -188.5zM551 -27q-184 0 -302 137.5t-118 368.5q0 232 129.5 380.5t314.5 148.5q186 0 303 -137t117 -367
q0 -234 -129 -382.5t-315 -148.5zM563 51q154 0 249 116t95 318q0 207 -95 326t-249 119q-152 0 -247 -116t-95 -316q0 -208 95 -327.5t247 -119.5z" />
    <glyph glyph-name="OE" unicode="&#x152;" 
d="M184 629q0 -282 92.5 -411t294.5 -134v1102q-196 -5 -291.5 -141.5t-95.5 -415.5zM1028 82l-8 -82h-410q-266 0 -392 150.5t-126 459.5q0 321 128.5 490.5t393.5 169.5h408v-82h-358v-506h311v-74h-311v-526h364z" />
    <glyph glyph-name="oe" unicode="&#x153;" 
d="M1004 -12q-173 7 -271.5 67.5t-140.5 175.5q-31 -117 -93.5 -180t-150.5 -63q-126 0 -195 121.5t-69 361.5q0 252 75.5 387t205.5 135q77 0 135 -52.5t90 -156.5q66 209 229 209q128 0 178.5 -130t34.5 -380l-403 -8q2 -107 20.5 -178.5t63.5 -123t119 -76.5t186 -31z
M797 920q-73 0 -118.5 -98t-49.5 -283l323 8q5 190 -29 281.5t-126 91.5zM373 66q84 0 130 108t46 311q0 204 -52.5 317t-138.5 113q-87 0 -135.5 -103t-48.5 -314q0 -223 49.5 -327.5t149.5 -104.5z" />
    <glyph glyph-name="Racute" unicode="&#x154;" 
d="M369 1489q86 64 192 171.5t172 194.5l88 -75q-74 -76 -195.5 -171.5t-224.5 -162.5zM932 -20l-291 526l-332 -8v-498h-92v1266q158 29 279 25.5t206 -29t139 -75t78.5 -112t24.5 -141.5q0 -230 -225 -389l309 -545zM309 1194v-623l346 7q197 130 197 340q0 79 -30.5 138
t-96 99.5t-168.5 50t-248 -11.5z" />
    <glyph glyph-name="racute" unicode="&#x155;" 
d="M430 1198q86 64 192.5 172t172.5 195l88 -76q-74 -76 -195.5 -171.5t-224.5 -162.5zM881 0h-742v72h289q-2 96 -6.5 400t-7.5 433l-269 15l7 63h346q5 -85 8 -162q173 160 489 195l6 -94q-325 -28 -495 -166q8 -373 10 -684h373z" />
    <glyph glyph-name="Rcommaaccent" unicode="&#x156;" 
d="M932 -20l-291 526l-332 -8v-498h-92v1266q158 29 279 25.5t206 -29t139 -75t78.5 -112t24.5 -141.5q0 -230 -225 -389l309 -545zM309 1194v-623l346 7q197 130 197 340q0 79 -30.5 138t-96 99.5t-168.5 50t-248 -11.5zM532 -555q41 74 52.5 144t1.5 123.5t-37 117.5
q7 0 61 3t62 3q14 -62 12.5 -125.5t-29 -137t-80.5 -142.5z" />
    <glyph glyph-name="rcommaaccent" unicode="&#x157;" 
d="M881 0h-742v72h289q-2 96 -6.5 400t-7.5 433l-269 15l7 63h346q5 -85 8 -162q173 160 489 195l6 -94q-325 -28 -495 -166q8 -373 10 -684h373zM440 -535q41 74 52.5 144t1.5 123.5t-37 117.5q7 0 61 3.5t62 3.5q14 -62 12.5 -125.5t-29 -137.5t-80.5 -143z" />
    <glyph glyph-name="Rcaron" unicode="&#x158;" 
d="M559 1444h-2l-340 301l59 57l287 -260l291 260l51 -49zM932 -20l-291 526l-332 -8v-498h-92v1266q158 29 279 25.5t206 -29t139 -75t78.5 -112t24.5 -141.5q0 -230 -225 -389l309 -545zM309 1194v-623l346 7q197 130 197 340q0 79 -30.5 138t-96 99.5t-168.5 50
t-248 -11.5z" />
    <glyph glyph-name="rcaron" unicode="&#x159;" 
d="M621 1153h-3l-339 301l59 57l287 -260l290 260l52 -49zM881 0h-742v72h289q-2 96 -6.5 400t-7.5 433l-269 15l7 63h346q5 -85 8 -162q173 160 489 195l6 -94q-325 -28 -495 -166q8 -373 10 -684h373z" />
    <glyph glyph-name="Sacute" unicode="&#x15a;" 
d="M430 1473q86 65 192.5 172t172.5 194l88 -76q-74 -76 -195 -171t-225 -162zM188 82q189 -15 320 -3t212 50t117.5 85t36.5 103q0 53 -37.5 102.5t-97.5 90t-132.5 79.5t-145.5 80t-133 84t-97.5 98t-37.5 116q0 53 22.5 101t75 91t131 72t199 42.5t270.5 4.5l6 -90
q-143 11 -248.5 2.5t-175.5 -25.5t-112.5 -46.5t-60 -62t-17.5 -71.5q0 -51 37.5 -99.5t98 -87.5t133 -78.5t145 -81t133 -85t98 -100.5t37.5 -119q0 -57 -27 -110.5t-87.5 -101.5t-149 -81.5t-221.5 -48t-294 -2.5z" />
    <glyph glyph-name="sacute" unicode="&#x15b;" 
d="M387 1186q86 65 192.5 172t172.5 194l88 -75q-74 -76 -195.5 -171.5t-224.5 -162.5zM881 987l4 -86q-135 15 -231.5 10t-159 -18t-98.5 -37.5t-50 -49.5t-14 -54q0 -41 32 -77t83.5 -64t113.5 -55t124.5 -56.5t114 -62t83.5 -77t32 -96.5q0 -46 -21.5 -87.5t-71 -81
t-129.5 -64t-198 -36.5t-276 1l4 86q142 -14 245.5 -8.5t172.5 20t109.5 41t57.5 54.5t17 61q0 44 -32 82t-83.5 66t-113.5 55t-124.5 55t-114 59t-83.5 73.5t-32 92.5q0 43 19.5 83t65 78t119 61.5t182 34.5t253.5 -3z" />
    <glyph glyph-name="Scedilla" unicode="&#x15e;" 
d="M387 -442l-10 77q137 23 197.5 50.5t60.5 66.5q0 85 -205 219l10 17q-122 -6 -254 2l2 92q189 -15 320 -3t212 50t117.5 85t36.5 103q0 53 -37.5 102.5t-97.5 90t-132.5 79.5t-145.5 80t-133 84t-97.5 98t-37.5 116q0 53 22.5 101t75 91t131 72t199 42.5t270.5 4.5l6 -90
q-143 11 -248.5 2.5t-175.5 -25.5t-112.5 -46.5t-60 -62t-17.5 -71.5q0 -51 37.5 -99.5t98 -87.5t133 -78.5t145 -81t133 -85t98 -100.5t37.5 -119q0 -55 -26.5 -107.5t-79.5 -99t-142.5 -81t-204.5 -50.5q203 -140 203 -248q0 -137 -328 -190z" />
    <glyph glyph-name="scedilla" unicode="&#x15f;" 
d="M395 -440l-10 78q138 23 198 50.5t60 65.5q0 85 -205 219l11 19q-94 -6 -230 4l4 86q142 -14 245.5 -8.5t172.5 20t109.5 41t57.5 54.5t17 61q0 44 -32 82t-83.5 66t-113.5 55t-124.5 55t-114 59t-83.5 73.5t-32 92.5q0 43 19.5 83t65 78t119 61.5t182 34.5t253.5 -3
l4 -86q-135 15 -231.5 10t-159 -18t-98.5 -37.5t-50 -49.5t-14 -54q0 -41 32 -77t83.5 -64t113.5 -55t124.5 -56.5t114 -62t83.5 -77t32 -96.5q0 -96 -95 -170t-300 -96q203 -140 203 -248q0 -137 -328 -190z" />
    <glyph glyph-name="Scaron" unicode="&#x160;" 
d="M621 1427h-3l-339 302l59 57l287 -260l290 260l52 -49zM188 82q189 -15 320 -3t212 50t117.5 85t36.5 103q0 53 -37.5 102.5t-97.5 90t-132.5 79.5t-145.5 80t-133 84t-97.5 98t-37.5 116q0 53 22.5 101t75 91t131 72t199 42.5t270.5 4.5l6 -90q-143 11 -248.5 2.5
t-175.5 -25.5t-112.5 -46.5t-60 -62t-17.5 -71.5q0 -51 37.5 -99.5t98 -87.5t133 -78.5t145 -81t133 -85t98 -100.5t37.5 -119q0 -57 -27 -110.5t-87.5 -101.5t-149 -81.5t-221.5 -48t-294 -2.5z" />
    <glyph glyph-name="scaron" unicode="&#x161;" 
d="M578 1141h-3l-339 301l59 57l287 -260l290 260l52 -49zM881 987l4 -86q-135 15 -231.5 10t-159 -18t-98.5 -37.5t-50 -49.5t-14 -54q0 -41 32 -77t83.5 -64t113.5 -55t124.5 -56.5t114 -62t83.5 -77t32 -96.5q0 -46 -21.5 -87.5t-71 -81t-129.5 -64t-198 -36.5t-276 1
l4 86q142 -14 245.5 -8.5t172.5 20t109.5 41t57.5 54.5t17 61q0 44 -32 82t-83.5 66t-113.5 55t-124.5 55t-114 59t-83.5 73.5t-32 92.5q0 43 19.5 83t65 78t119 61.5t182 34.5t253.5 -3z" />
    <glyph glyph-name="Tcommaaccent" unicode="&#x162;" 
d="M610 1188v-1188h-92v1188h-428l8 82h938v-82h-426zM473 -535q41 73 52.5 143.5t1 124t-37.5 117.5q7 0 61 3.5t62 3.5q14 -62 13 -125.5t-28.5 -137.5t-80.5 -143z" />
    <glyph glyph-name="tcommaaccent" unicode="&#x163;" 
d="M944 61l-8 -79q-300 0 -422.5 72t-122.5 245v610h-207l13 74h194v283l90 8v-291h441v-74h-441v-596q0 -98 40.5 -149.5t138.5 -75.5t284 -27zM547 -553q41 73 52.5 143.5t1 124t-37.5 117.5q7 0 61 3t62 3q14 -62 13 -125.5t-28.5 -137t-80.5 -142.5z" />
    <glyph glyph-name="Tcaron" unicode="&#x164;" 
d="M571 1423h-2l-340 301l60 58l286 -260l291 260l52 -49zM610 1188v-1188h-92v1188h-428l8 82h938v-82h-426z" />
    <glyph glyph-name="tcaron" unicode="&#x165;" 
d="M727 1206q38 71 56.5 136t17.5 125.5t-11.5 110t-31.5 110.5l119 4q66 -250 -109 -504zM944 61l-8 -79q-300 0 -422.5 72t-122.5 245v610h-207l13 74h194v283l90 8v-291h441v-74h-441v-596q0 -98 40.5 -149.5t138.5 -75.5t284 -27z" />
    <glyph glyph-name="Umacron" unicode="&#x16a;" 
d="M887 1624v-80h-651v80h651zM553 -31q-177 0 -276 109.5t-99 314.5v877h92v-858q0 -180 78 -270.5t219 -90.5q146 0 216.5 80.5t70.5 251.5v887h92v-879q0 -204 -103 -313t-290 -109z" />
    <glyph glyph-name="umacron" unicode="&#x16b;" 
d="M893 1341v-79h-651v79h651zM848 -2l-8 111q-176 -132 -344 -132q-142 0 -221.5 83t-79.5 259v660l90 8v-643q0 -153 59 -221t176 -68q156 0 318 115q-11 312 -11 813h91q0 -633 12 -979z" />
    <glyph glyph-name="Ubreve" unicode="&#x16c;" 
d="M553 1444q-97 0 -183 71t-173 220l67 41q84 -139 150 -196.5t145 -57.5q84 0 154 58.5t157 186.5l60 -30q-183 -293 -377 -293zM553 -31q-177 0 -276 109.5t-99 314.5v877h92v-858q0 -180 78 -270.5t219 -90.5q146 0 216.5 80.5t70.5 251.5v887h92v-879q0 -204 -103 -313
t-290 -109z" />
    <glyph glyph-name="ubreve" unicode="&#x16d;" 
d="M559 1161q-97 0 -183 71t-173 220l67 41q84 -139 150 -196.5t145 -57.5q83 0 154 59t158 187l59 -31q-183 -293 -377 -293zM848 -2l-8 111q-176 -132 -344 -132q-142 0 -221.5 83t-79.5 259v660l90 8v-643q0 -153 59 -221t176 -68q156 0 318 115q-11 312 -11 813h91
q0 -633 12 -979z" />
    <glyph glyph-name="Uring" unicode="&#x16e;" 
d="M559 1821q114 0 189 -60t75 -147q0 -95 -72.5 -155t-191.5 -60q-114 0 -189 60t-75 147q0 95 72.5 155t191.5 60zM559 1757q-88 0 -139 -40.5t-51 -106.5q0 -65 51.5 -106.5t138.5 -41.5q88 0 139.5 41t51.5 107q0 65 -52 106t-139 41zM553 -31q-177 0 -276 109.5
t-99 314.5v877h92v-858q0 -180 78 -270.5t219 -90.5q146 0 216.5 80.5t70.5 251.5v887h92v-879q0 -204 -103 -313t-290 -109z" />
    <glyph glyph-name="uring" unicode="&#x16f;" 
d="M565 1538q114 0 189 -60t75 -147q0 -95 -72.5 -155t-191.5 -60q-114 0 -189 60t-75 147q0 95 72.5 155t191.5 60zM565 1475q-88 0 -139 -41t-51 -107q0 -65 51.5 -106t138.5 -41q88 0 139.5 40.5t51.5 106.5q0 65 -52 106.5t-139 41.5zM848 -2l-8 111
q-176 -132 -344 -132q-142 0 -221.5 83t-79.5 259v660l90 8v-643q0 -153 59 -221t176 -68q156 0 318 115q-11 312 -11 813h91q0 -633 12 -979z" />
    <glyph glyph-name="Uhungarumlaut" unicode="&#x170;" 
d="M291 1458q56 78 118 192t105 210l102 -52q-46 -81 -126 -190t-154 -193zM711 1456q58 80 120.5 194t100.5 205l106 -47q-51 -86 -130.5 -194.5t-151.5 -188.5zM553 -31q-177 0 -276 109.5t-99 314.5v877h92v-858q0 -180 78 -270.5t219 -90.5q146 0 216.5 80.5t70.5 251.5
v887h92v-879q0 -204 -103 -313t-290 -109z" />
    <glyph glyph-name="uhungarumlaut" unicode="&#x171;" 
d="M295 1176q117 163 223 401l103 -51q-46 -81 -126 -189.5t-155 -193.5zM715 1174q58 80 120.5 194t100.5 205l106 -47q-51 -86 -130.5 -194.5t-151.5 -188.5zM848 -2l-8 111q-176 -132 -344 -132q-142 0 -221.5 83t-79.5 259v660l90 8v-643q0 -153 59 -221t176 -68
q156 0 318 115q-11 312 -11 813h91q0 -633 12 -979z" />
    <glyph glyph-name="Uogonek" unicode="&#x172;" 
d="M737 -420q-179 21 -254 61.5t-75 108.5q0 53 37.5 104t129.5 113q-193 1 -295 110.5t-102 315.5v877h92v-858q0 -180 78 -270.5t219 -90.5q146 0 216.5 80.5t70.5 251.5v887h92v-879q0 -142 -48 -230t-163 -155q-138 -83 -192 -139.5t-54 -99.5q0 -40 60.5 -66t198.5 -43
z" />
    <glyph glyph-name="uogonek" unicode="&#x173;" 
d="M885 -416q-179 21 -254.5 61.5t-75.5 108.5q0 60 65.5 120.5t225.5 145.5l-8 146q-71 -81 -162 -135t-191 -54q-137 0 -213.5 83t-76.5 259v660l90 8v-643q0 -153 57 -221t168 -68q157 0 326 176q-9 364 -9 752h91q0 -633 12 -979q-163 -81 -228 -136t-65 -97
q0 -40 60 -66t198 -43z" />
    <glyph glyph-name="Wcircumflex" unicode="&#x174;" 
d="M856 1434l-287 260l-290 -258l-52 47l346 311h2l340 -303zM772 0l-207 748l-205 -748h-122q-63 457 -103 1270h94q11 -280 35.5 -634t42.5 -532h8q36 128 73 265t79 294t63 236h72q122 -459 217 -795h6q18 161 43.5 518t36.5 648h88q-40 -801 -104 -1270h-117z" />
    <glyph glyph-name="wcircumflex" unicode="&#x175;" 
d="M850 1147l-287 260l-291 -258l-51 47l346 311h2l340 -303zM791 0l-226 629l-227 -629h-88q-64 405 -107 983h95q33 -504 71 -850h8q23 53 218 615h65q186 -533 221 -617h6q22 220 70 852h88q-42 -559 -102 -983h-92z" />
    <glyph glyph-name="Ycircumflex" unicode="&#x176;" 
d="M854 1436l-287 260l-291 -258l-51 47l346 311h2l340 -303zM610 0h-92v422l-418 846l101 4l364 -752l367 750h96l-418 -846v-424z" />
    <glyph glyph-name="ycircumflex" unicode="&#x177;" 
d="M862 1149l-287 260l-290 -258l-52 47l347 311h2l340 -303zM143 -365l-10 89q105 17 166.5 36t108 54.5t73.5 78t64 121.5q-235 495 -434 967l92 4q107 -266 381 -860h10q106 246 334 858h86q-156 -427 -365 -922q-48 -114 -87 -181t-97 -119.5t-132 -79.5t-190 -46z" />
    <glyph glyph-name="Ydieresis" unicode="&#x178;" 
d="M840 1446h-90l-2 266h96zM395 1446h-90l-2 266h96zM610 0h-92v422l-418 846l101 4l364 -752l367 750h96l-418 -846v-424z" />
    <glyph glyph-name="Zacute" unicode="&#x179;" 
d="M406 1468q85 64 191 171.5t173 195.5l88 -76q-74 -76 -195.5 -171.5t-224.5 -162.5zM975 0h-828v82l734 1106l-721 -2l10 84h805v-82l-729 -1106l737 2z" />
    <glyph glyph-name="zacute" unicode="&#x17a;" 
d="M418 1182q86 64 192 171.5t172 194.5l88 -75q-75 -76 -196 -172t-223 -162zM977 0h-813v78l700 825h-690l8 80h785v-78l-703 -825h719z" />
    <glyph glyph-name="Zdotaccent" unicode="&#x17b;" 
d="M627 1444h-90l6 266h94zM975 0h-828v82l734 1106l-721 -2l10 84h805v-82l-729 -1106l737 2z" />
    <glyph glyph-name="zdotaccent" unicode="&#x17c;" 
d="M639 1157h-90l6 266h94zM977 0h-813v78l700 825h-690l8 80h785v-78l-703 -825h719z" />
    <glyph glyph-name="Zcaron" unicode="&#x17d;" 
d="M596 1423h-2l-340 301l59 58l287 -260l291 260l51 -49zM975 0h-828v82l734 1106l-721 -2l10 84h805v-82l-729 -1106l737 2z" />
    <glyph glyph-name="zcaron" unicode="&#x17e;" 
d="M608 1137h-2l-340 301l60 57l286 -260l291 260l51 -49zM977 0h-813v78l700 825h-690l8 80h785v-78l-703 -825h719z" />
    <glyph glyph-name="Aringacute" unicode="&#x1fa;" 
d="M381 1962q85 64 191 171.5t173 195.5l89 -76q-74 -76 -195.5 -171.5t-224.5 -162.5zM559 1821q114 0 189 -60t75 -147q0 -95 -72.5 -155t-191.5 -60q-114 0 -189 60t-75 147q0 95 72.5 155t191.5 60zM559 1757q-88 0 -139 -40.5t-51 -106.5q0 -65 51.5 -106.5
t138.5 -41.5q88 0 139.5 41t51.5 107q0 65 -52 106t-139 41zM936 -4q-24 82 -69 231.5t-62 206.5h-488q-21 -71 -129 -434h-90q194 649 400 1276h131q198 -602 399 -1272zM553 1188q-39 -120 -213 -680h442q-117 379 -215 680h-14z" />
    <glyph glyph-name="aringacute" unicode="&#x1fb;" 
d="M385 1681q86 64 192.5 172t172.5 195l88 -76q-74 -76 -195.5 -171.5t-224.5 -162.5zM563 1534q114 0 189 -60t75 -147q0 -95 -72.5 -155t-191.5 -60q-114 0 -189 60t-75 147q0 95 72.5 155t191.5 60zM563 1470q-88 0 -139 -40.5t-51 -106.5q0 -65 51.5 -106t138.5 -41
q88 0 139.5 40.5t51.5 106.5q0 65 -52 106t-139 41zM494 55q92 0 185 40t163 102q-4 148 -4 272q-592 62 -592 -219q0 -92 68 -143.5t180 -51.5zM858 -4q-7 60 -10 135q-172 -156 -385 -156q-137 0 -222 68.5t-85 185.5q0 167 174.5 257.5t505.5 62.5q-5 104 -36 170
t-105.5 109t-186 62.5t-289.5 27.5l12 81q207 -10 336.5 -37.5t212.5 -88t115.5 -151.5t32.5 -233q0 -245 10 -487z" />
    <glyph glyph-name="AEacute" unicode="&#x1fc;" 
d="M469 1468q86 64 192.5 172t172.5 195l88 -76q-74 -76 -195.5 -171.5t-224.5 -162.5zM535 1188q-116 -322 -248 -701h260v701h-12zM547 0v414h-285q-55 -156 -141 -414h-96q249 719 452 1270h545v-82h-383v-506h334v-74h-334v-526h389l-10 -82h-471z" />
    <glyph glyph-name="aeacute" unicode="&#x1fd;" 
d="M381 1182q86 64 192 171.5t172 194.5l89 -75q-74 -76 -195.5 -171.5t-224.5 -162.5zM997 -12q-170 7 -272 50t-154 126q-47 -75 -117.5 -125.5t-158.5 -50.5q-90 0 -148.5 63t-58.5 176q0 141 110 220t308 85q-2 110 -19.5 176t-62.5 109t-112.5 62t-180.5 28l10 82
q184 -11 279 -57.5t131 -151.5q34 100 97.5 156.5t148.5 56.5q127 0 187.5 -135.5t45.5 -378.5l-438 -12q1 -104 20 -174t65.5 -120.5t127.5 -75t203 -27.5zM778 913q-85 0 -133.5 -96.5t-52.5 -284.5l352 9q12 372 -166 372zM324 70q64 0 120 43t97 114q-35 92 -35 236
q-164 -6 -246 -55t-82 -160q0 -89 40.5 -133.5t105.5 -44.5z" />
    <glyph glyph-name="Oslashacute" unicode="&#x1fe;" 
d="M383 1483q86 65 192.5 172t172.5 194l88 -75q-74 -76 -195.5 -171.5t-224.5 -162.5zM199 635q0 -271 86 -422l512 905q-89 103 -236 103q-174 0 -268 -152t-94 -434zM565 49q173 0 268 152.5t95 433.5q0 272 -86 420l-514 -903q89 -103 237 -103zM549 -31
q-156 0 -266 101l-70 -125l-63 35l83 147q-127 172 -127 489q0 325 127.5 504.5t346.5 179.5q161 0 266 -102l72 127l63 -35l-86 -147q122 -169 125 -490q1 -324 -125.5 -504t-345.5 -180z" />
    <glyph glyph-name="oslashacute" unicode="&#x1ff;" 
d="M383 1188q86 65 192.5 172t172.5 194l88 -75q-74 -76 -195.5 -171.5t-224.5 -162.5zM221 498q0 -196 88 -318l463 672q-87 78 -209 78q-152 0 -247 -116t-95 -316zM563 51q154 0 249 116t95 318q0 195 -86 314l-463 -674q86 -74 205 -74zM551 -27q-135 0 -242 80
l-80 -112l-59 41l86 120q-125 141 -125 377q0 232 129.5 380.5t314.5 148.5q144 0 248 -84l78 112l60 -41l-87 -121q121 -137 121 -370q0 -234 -129 -382.5t-315 -148.5z" />
    <glyph glyph-name="Scommaaccent" unicode="&#x218;" 
d="M188 82q189 -15 320 -3t212 50t117.5 85t36.5 103q0 53 -37.5 102.5t-97.5 90t-132.5 79.5t-145.5 80t-133 84t-97.5 98t-37.5 116q0 53 22.5 101t75 91t131 72t199 42.5t270.5 4.5l6 -90q-143 11 -248.5 2.5t-175.5 -25.5t-112.5 -46.5t-60 -62t-17.5 -71.5
q0 -51 37.5 -99.5t98 -87.5t133 -78.5t145 -81t133 -85t98 -100.5t37.5 -119q0 -57 -27 -110.5t-87.5 -101.5t-149 -81.5t-221.5 -48t-294 -2.5zM481 -561q41 74 52.5 144t1.5 123.5t-37 117.5q7 0 61 3t62 3q14 -62 12.5 -125.5t-29 -137t-80.5 -142.5z" />
    <glyph glyph-name="scommaaccent" unicode="&#x219;" 
d="M881 987l4 -86q-135 15 -231.5 10t-159 -18t-98.5 -37.5t-50 -49.5t-14 -54q0 -41 32 -77t83.5 -64t113.5 -55t124.5 -56.5t114 -62t83.5 -77t32 -96.5q0 -46 -21.5 -87.5t-71 -81t-129.5 -64t-198 -36.5t-276 1l4 86q142 -14 245.5 -8.5t172.5 20t109.5 41t57.5 54.5
t17 61q0 44 -32 82t-83.5 66t-113.5 55t-124.5 55t-114 59t-83.5 73.5t-32 92.5q0 43 19.5 83t65 78t119 61.5t182 34.5t253.5 -3zM459 -559q41 73 52.5 143.5t1 124t-37.5 117.5q7 0 61 3t62 3q14 -62 13 -125.5t-28.5 -137t-80.5 -142.5z" />
    <glyph glyph-name="schwa" unicode="&#x259;" 
d="M524 -23q-128 0 -217 67t-126 184.5t-19 267.5l721 20q-2 84 -23.5 145t-69 110t-125.5 80.5t-192.5 49.5t-271.5 23l12 82q176 -5 305.5 -28.5t216 -64t139.5 -102t75 -136t22 -173.5q0 -109 -35 -206.5t-94.5 -167t-142.5 -110.5t-175 -41zM541 55q148 0 240.5 106.5
t101.5 289.5l-639 -19q-6 -172 71 -274.5t226 -102.5z" />
    <glyph glyph-name="circumflex" unicode="&#x2c6;" 
d="M848 1147l-287 260l-291 -258l-51 47l346 311h2l340 -303z" />
    <glyph glyph-name="caron" unicode="&#x2c7;" 
d="M561 1137h-2l-340 301l60 57l286 -260l291 260l51 -49z" />
    <glyph glyph-name="breve" unicode="&#x2d8;" 
d="M555 1157q-97 0 -183 71t-173 220l67 41q84 -139 150 -196.5t145 -57.5q83 0 153 58.5t158 187.5l60 -31q-183 -293 -377 -293z" />
    <glyph glyph-name="dotaccent" unicode="&#x2d9;" 
d="M602 1157h-90l6 266h94z" />
    <glyph glyph-name="ring" unicode="&#x2da;" 
d="M582 1534q114 0 189 -60t75 -147q0 -95 -72.5 -155t-191.5 -60q-114 0 -189.5 60t-75.5 147q0 95 73 155t192 60zM582 1470q-88 0 -139.5 -40.5t-51.5 -106.5q0 -65 52 -106t139 -41q88 0 139 40.5t51 106.5q0 65 -51.5 106t-138.5 41z" />
    <glyph glyph-name="ogonek" unicode="&#x2db;" 
d="M731 45l29 -45q-161 -81 -226 -136t-65 -97q0 -40 60 -66t198 -43l-10 -78q-179 21 -254.5 61.5t-75.5 108.5q0 65 77.5 132.5t266.5 162.5z" />
    <glyph glyph-name="tilde" unicode="&#x2dc;" 
d="M709 1157q-36 0 -71 25t-63 60.5t-54 71t-54.5 60.5t-54.5 25q-89 0 -183 -223l-59 24q113 279 250 279q36 0 71 -25t63 -60.5t54 -71t54.5 -60.5t54.5 -25q48 0 91.5 58t88.5 165l61 -24q-113 -279 -249 -279z" />
    <glyph glyph-name="hungarumlaut" unicode="&#x2dd;" 
d="M276 1171q56 78 119 192.5t105 209.5l102 -51q-46 -81 -126 -190t-154 -193zM696 1169q58 81 121 195t101 205l106 -47q-51 -85 -131 -194t-152 -189z" />
    <glyph glyph-name="commaaccent" unicode="&#x326;" 
d="M461 -535q41 73 52.5 143.5t1 124t-37.5 117.5q7 0 61 3.5t62 3.5q14 -62 13 -125.5t-28.5 -137.5t-80.5 -143z" />
    <glyph glyph-name="Wgrave" unicode="&#x1e80;" 
d="M748 1450l-33 -41q-99 65 -220.5 160t-197.5 170l84 80q70 -87 177.5 -195.5t189.5 -173.5zM772 0l-207 748l-205 -748h-122q-63 457 -103 1270h94q11 -280 35.5 -634t42.5 -532h8q36 128 73 265t79 294t63 236h72q122 -459 217 -795h6q18 161 43.5 518t36.5 648h88
q-40 -801 -104 -1270h-117z" />
    <glyph glyph-name="wgrave" unicode="&#x1e81;" 
d="M739 1163l-32 -41q-99 65 -220.5 160t-197.5 170l84 80q70 -87 177 -196t189 -173zM791 0l-226 629l-227 -629h-88q-64 405 -107 983h95q33 -504 71 -850h8q23 53 218 615h65q186 -533 221 -617h6q22 220 70 852h88q-42 -559 -102 -983h-92z" />
    <glyph glyph-name="Wacute" unicode="&#x1e82;" 
d="M391 1468q86 64 192.5 172t172.5 195l88 -76q-74 -76 -195.5 -171.5t-224.5 -162.5zM772 0l-207 748l-205 -748h-122q-63 457 -103 1270h94q11 -280 35.5 -634t42.5 -532h8q36 128 73 265t79 294t63 236h72q122 -459 217 -795h6q18 161 43.5 518t36.5 648h88
q-40 -801 -104 -1270h-117z" />
    <glyph glyph-name="wacute" unicode="&#x1e83;" 
d="M385 1182q86 65 192.5 172t172.5 194l88 -75q-74 -76 -195.5 -171.5t-224.5 -162.5zM791 0l-226 629l-227 -629h-88q-64 405 -107 983h95q33 -504 71 -850h8q23 53 218 615h65q186 -533 221 -617h6q22 220 70 852h88q-42 -559 -102 -983h-92z" />
    <glyph glyph-name="Wdieresis" unicode="&#x1e84;" 
d="M842 1444h-90l-2 266h96zM397 1444h-90l-2 266h96zM772 0l-207 748l-205 -748h-122q-63 457 -103 1270h94q11 -280 35.5 -634t42.5 -532h8q36 128 73 265t79 294t63 236h72q122 -459 217 -795h6q18 161 43.5 518t36.5 648h88q-40 -801 -104 -1270h-117z" />
    <glyph glyph-name="wdieresis" unicode="&#x1e85;" 
d="M836 1157h-91l-2 266h97zM391 1157h-90l-2 266h96zM791 0l-226 629l-227 -629h-88q-64 405 -107 983h95q33 -504 71 -850h8q23 53 218 615h65q186 -533 221 -617h6q22 220 70 852h88q-42 -559 -102 -983h-92z" />
    <glyph glyph-name="Ygrave" unicode="&#x1ef2;" 
d="M745 1452l-32 -41q-99 65 -220.5 160t-197.5 170l84 80q70 -87 177 -196t189 -173zM610 0h-92v422l-418 846l101 4l364 -752l367 750h96l-418 -846v-424z" />
    <glyph glyph-name="ygrave" unicode="&#x1ef3;" 
d="M754 1165l-33 -41q-99 65 -220.5 160t-197.5 170l84 80q70 -87 177.5 -195.5t189.5 -173.5zM143 -365l-10 89q105 17 166.5 36t108 54.5t73.5 78t64 121.5q-235 495 -434 967l92 4q107 -266 381 -860h10q106 246 334 858h86q-156 -427 -365 -922q-48 -114 -87 -181
t-97 -119.5t-132 -79.5t-190 -46z" />
    <glyph glyph-name="endash" unicode="&#x2013;" 
d="M973 623l-6 -70h-805v70h811z" />
    <glyph glyph-name="emdash" unicode="&#x2014;" 
d="M1018 623l-8 -70h-895v70h903z" />
    <glyph glyph-name="quoteleft" unicode="&#x2018;" 
d="M696 1391q-111 -127 -123 -259t66 -309l-145 -16q-46 178 -9.5 325t164.5 277z" />
    <glyph glyph-name="quoteright" unicode="&#x2019;" 
d="M461 770q111 127 123 258.5t-66 308.5l146 17q46 -178 9.5 -325t-165.5 -277z" />
    <glyph glyph-name="quotesinglbase" unicode="&#x201a;" 
d="M455 -395q115 127 126 259t-71 308l154 12q44 -177 5 -323t-169 -275z" />
    <glyph glyph-name="quotedblleft" unicode="&#x201c;" 
d="M905 1391q-112 -127 -123 -259t70 -309l-150 -16q-46 178 -9 325t167 277zM492 1391q-111 -127 -123.5 -259t65.5 -309l-145 -16q-46 178 -9.5 325t164.5 277z" />
    <glyph glyph-name="quotedblright" unicode="&#x201d;" 
d="M252 770q112 127 123 258.5t-70 308.5l150 17q46 -178 9 -325t-167 -277zM666 770q111 127 123 258.5t-66 308.5l145 17q46 -178 9.5 -325t-164.5 -277z" />
    <glyph glyph-name="quotedblbase" unicode="&#x201e;" 
d="M246 -395q115 127 126 259t-71 308l154 12q44 -177 5 -323t-169 -275zM662 -395q115 127 126 259t-71 308l153 12q44 -177 5.5 -323t-168.5 -275z" />
    <glyph glyph-name="dagger" unicode="&#x2020;" 
d="M586 238l-54 -33l-14 12l2 778l-379 6l4 74l375 -6l2 350l92 -2l-2 -350l387 -6l-4 -74l-385 6z" />
    <glyph glyph-name="daggerdbl" unicode="&#x2021;" 
d="M588 135l-56 -33l-14 11l2 473l-391 6l4 74l387 -7v336l-379 6l4 74l375 -6l2 350l92 -2l-2 -350l387 -6l-4 -74l-383 6l-10 -336l385 -6l-4 -73l-383 6z" />
    <glyph glyph-name="bullet" unicode="&#x2022;" 
d="M793 612q0 -101 -64.5 -163t-163.5 -62q-100 0 -165.5 63t-65.5 160q0 100 65.5 162t163.5 62q100 0 165 -63.5t65 -158.5z" />
    <glyph glyph-name="ellipsis" unicode="&#x2026;" 
d="M1014 0h-162l8 176h162zM639 0h-162l8 176h162zM264 0h-162l9 176h161z" />
    <glyph glyph-name="guilsinglleft" unicode="&#x2039;" 
d="M793 -29l-521 475l7 97l524 469l59 -64l-516 -454l508 -461z" />
    <glyph glyph-name="guilsinglright" unicode="&#x203a;" 
d="M326 -29l-60 64l516 454l-508 461l62 62l520 -475l-6 -97z" />
    <glyph glyph-name="fraction" unicode="&#x2044;" 
d="M174 -328l-76 35l838 1829l76 -35z" />
    <glyph glyph-name="zero.sup" unicode="&#x2070;" 
d="M553 645q-145 0 -226 109.5t-81 302.5q0 195 88.5 314.5t238.5 119.5q146 0 227 -109.5t81 -302.5q0 -196 -89.5 -315t-238.5 -119zM565 1421q-118 0 -179.5 -91.5t-61.5 -258.5q0 -169 61.5 -262.5t175.5 -93.5q118 0 180 91.5t62 258.5q0 169 -61.5 262.5t-176.5 93.5z
" />
    <glyph glyph-name="four.sup" unicode="&#x2074;" 
d="M903 846l-117 2l2 -182h-75l2 182l-426 -2q0 111 28 287t78 358l84 -8q-38 -132 -78.5 -313t-46.5 -255h361l-2 293l75 6l-2 -299h123z" />
    <glyph glyph-name="five.sup" unicode="&#x2075;" 
d="M846 926q0 -111 -135 -184.5t-408 -96.5l-6 76q251 21 363 72.5t112 132.5q0 140 -455 166l29 383h473l-8 -72h-399l-21 -250q455 -35 455 -227z" />
    <glyph glyph-name="six.sup" unicode="&#x2076;" 
d="M563 647q-132 0 -212.5 83t-80.5 235q0 353 441 540l30 -67q-184 -75 -278 -170t-113 -219q73 68 164.5 93.5t167.5 8t128 -77.5t52 -149q0 -123 -87.5 -200t-211.5 -77zM573 717q89 0 151 54t62 142q0 73 -42.5 119.5t-106 57.5t-143.5 -13.5t-150 -83.5v-16
q0 -127 62 -193.5t167 -66.5z" />
    <glyph glyph-name="seven.sup" unicode="&#x2077;" 
d="M477 653l-80 11q137 364 391 733l-2 6h-501l6 72h577v-68q-249 -375 -391 -754z" />
    <glyph glyph-name="eight.sup" unicode="&#x2078;" 
d="M547 645q-123 0 -199 53.5t-76 139.5q0 144 220 235q-96 48 -149.5 97t-53.5 116q0 79 78.5 142t207.5 63q114 0 189.5 -52t75.5 -136q0 -134 -209 -226q106 -51 164.5 -100.5t58.5 -118.5q0 -89 -85.5 -151t-221.5 -62zM369 1296q0 -30 15.5 -56.5t48.5 -51t62 -41.5
t78 -41q191 77 191 182q0 61 -53.5 98t-145.5 37q-93 0 -144.5 -36.5t-51.5 -90.5zM559 711q98 0 156.5 39.5t58.5 99.5q0 25 -13.5 48.5t-31.5 40.5t-53 38t-59.5 33.5t-69.5 33.5q-95 -34 -146 -82t-51 -106q0 -64 56 -104.5t153 -40.5z" />
    <glyph glyph-name="nine.sup" unicode="&#x2079;" 
d="M416 631l-33 69q184 74 278 167.5t113 215.5q-74 -66 -164.5 -90t-166 -6.5t-126.5 77t-51 148.5q0 122 87 199.5t210 77.5q133 0 214 -83.5t81 -234.5q0 -352 -442 -540zM340 1221q0 -72 42.5 -118.5t106 -57.5t143 13t148.5 83v18q0 127 -61 193.5t-164 66.5
q-89 0 -152 -55t-63 -143z" />
    <glyph glyph-name="zero.inf" unicode="&#x2080;" 
d="M553 -328q-145 0 -226 109.5t-81 302.5q0 195 88.5 314.5t238.5 119.5q146 0 227 -109.5t81 -302.5q0 -196 -89.5 -315t-238.5 -119zM565 449q-118 0 -179.5 -92t-61.5 -259q0 -169 61.5 -262.5t175.5 -93.5q118 0 180 91.5t62 258.5q0 169 -61.5 263t-176.5 94z" />
    <glyph glyph-name="one.inf" unicode="&#x2081;" 
d="M879 -307h-592v69h274v572l-262 -23l-2 58l264 39v124l78 7v-777h246z" />
    <glyph glyph-name="two.inf" unicode="&#x2082;" 
d="M862 -307h-581l-9 67q105 76 172 127.5t131.5 107.5t100 98.5t57 86.5t21.5 86q0 43 -21.5 74.5t-72 56t-140 38t-219.5 14.5l6 69q119 1 210.5 -10t150.5 -31.5t96 -51t52 -64.5t15 -76q0 -116 -106.5 -231.5t-347.5 -289.5h485v-71z" />
    <glyph glyph-name="three.inf" unicode="&#x2083;" 
d="M301 -328l-6 76q483 16 483 166q0 137 -405 178l2 43l364 293v4l-436 -2v72h528l7 -68l-367 -293q383 -52 383 -221q0 -105 -133.5 -171.5t-419.5 -76.5z" />
    <glyph glyph-name="four.inf" unicode="&#x2084;" 
d="M903 -127l-117 2l2 -182h-75l2 182l-426 -2q0 111 28 287t78 358l84 -8q-39 -132 -79 -312.5t-46 -254.5h361l-2 293l75 6l-2 -299h123z" />
    <glyph glyph-name="five.inf" unicode="&#x2085;" 
d="M846 -47q0 -111 -135 -184.5t-408 -96.5l-6 76q251 21 363 72.5t112 132.5q0 140 -455 166l29 383h473l-8 -72h-399l-21 -250q455 -35 455 -227z" />
    <glyph glyph-name="six.inf" unicode="&#x2086;" 
d="M563 -326q-132 0 -212.5 83t-80.5 235q0 353 441 540l30 -67q-184 -75 -278 -170t-113 -219q73 68 164.5 93.5t167.5 8t128 -77.5t52 -149q0 -123 -87.5 -200t-211.5 -77zM573 -256q89 0 151 54.5t62 142.5q0 97 -69.5 145t-174 30.5t-198.5 -96.5v-16q0 -127 62 -193.5
t167 -66.5z" />
    <glyph glyph-name="seven.inf" unicode="&#x2087;" 
d="M477 -319l-80 10q137 364 391 733l-2 6h-501l6 72h577v-68q-250 -376 -391 -753z" />
    <glyph glyph-name="eight.inf" unicode="&#x2088;" 
d="M547 -328q-123 0 -199 53.5t-76 139.5q0 144 220 235q-96 48 -149.5 97t-53.5 116q0 79 78.5 142t207.5 63q114 0 189.5 -52t75.5 -136q0 -134 -209 -226q106 -51 164.5 -100.5t58.5 -118.5q0 -89 -85.5 -151t-221.5 -62zM369 324q0 -30 15.5 -57t48 -51t62.5 -41.5
t78 -41.5q191 77 191 182q0 61 -53.5 98.5t-145.5 37.5q-93 0 -144.5 -36.5t-51.5 -90.5zM559 -262q98 0 156.5 39.5t58.5 99.5q0 25 -13.5 48.5t-31.5 41t-52.5 38.5t-60 33.5t-69.5 33.5q-95 -34 -146 -82.5t-51 -106.5q0 -64 56 -104.5t153 -40.5z" />
    <glyph glyph-name="nine.inf" unicode="&#x2089;" 
d="M416 -342l-33 70q184 74 278 167.5t113 215.5q-74 -66 -164.5 -90t-166 -6.5t-126.5 77t-51 148.5q0 122 87 199t210 77q133 0 214 -83t81 -234q0 -353 -442 -541zM340 248q0 -72 42.5 -118.5t106 -57.5t143 13t148.5 83v18q0 127 -61 193.5t-164 66.5q-89 0 -152 -55
t-63 -143z" />
    <glyph glyph-name="colonmonetary" unicode="&#x20a1;" 
d="M690 164l86 950q-102 -14 -190 -43l-76 -854q65 -29 180 -53zM233 629q0 -132 50.5 -225.5t160.5 -155.5l70 796q-281 -119 -281 -415zM659 -152l21 234q-85 15 -178 47l-25 -281h-78l31 314q-278 134 -278 452q0 366 362 512l25 293h77l-22 -264q88 29 184 43l21 221h75
l-18 -211q84 10 158 13l6 -84q-85 -3 -176 -13l-86 -972q123 -18 223 -23l-16 -80q-111 6 -211 21l-19 -222h-76z" />
    <glyph glyph-name="naira" unicode="&#x20a6;" 
d="M289 1145v-291h139l-129 291h-10zM592 481l-131 299h-172v-299h303zM848 481l-2 299h-307l133 -299h176zM805 0l-180 408h-336v-408h-80v403h-156v78h156v299h-156v78h156v412h115l184 -416h338v416h80v-412h153v-78h-153v-299h153v-78h-153v-403h-121zM838 104h10v304
h-143z" />
    <glyph glyph-name="rupee" unicode="&#x20a8;" 
d="M551 -6l-162 514l-125 -8v-500h-88v1266q414 98 414 -332q0 -248 -121 -387l168 -539zM264 1198v-629l152 6q86 127 86 347q0 160 -56 229.5t-182 46.5zM1028 991l2 -84q-252 34 -252 -153q0 -53 28 -102t68 -88.5t79.5 -81.5t67.5 -99.5t28 -124.5q0 -55 -18.5 -104
t-58.5 -91t-113 -61.5t-171 -9.5l2 84q77 -10 132.5 0t85 36t42.5 58.5t13 73.5q0 47 -20 91t-50 76.5t-65.5 70.5t-65.5 73t-50 85t-20 105q0 50 18 95.5t55 85t105 58t158 7.5z" />
    <glyph glyph-name="Euro" unicode="&#x20ac;" 
d="M991 39l-14 -80q-302 40 -465.5 157t-214.5 310h-158v78h144q-9 58 -9 123q0 67 9 125h-144v77h156q44 187 200 304.5t466 177.5l18 -88q-196 -33 -320.5 -86.5t-189.5 -128.5t-90 -183h489l-4 -73h-497q-7 -65 -7 -117q0 -67 9 -129h497l-6 -74h-475q45 -159 188 -255
t418 -138z" />
    <glyph glyph-name="peso" unicode="&#x20b1;" 
d="M317 877h539q-9 178 -149.5 268t-389.5 51v-319zM317 496q245 -8 382.5 69t154.5 242h-537v-311zM1090 801h-150q-26 -186 -189 -284t-434 -107v-410h-90v801h-174v78h174v387q232 43 390.5 4t241 -140t85.5 -251h146v-78z" />
    <glyph glyph-name="rupeeindia" unicode="&#x20b9;" 
d="M963 23l-80 -48q-104 89 -165 139t-135 105.5t-132 87.5t-127 62t-148 53l21 72q238 24 359.5 103.5t137.5 199.5h-516v73h516q-16 124 -145.5 210.5t-374.5 111.5l8 78h828l-6 -78h-539q143 -41 226.5 -126.5t94.5 -195.5h218v-73h-218q-19 -130 -143 -222t-328 -124
q137 -39 277.5 -134.5t370.5 -293.5z" />
    <glyph glyph-name="ruble" unicode="&#x20bd;" 
d="M922 938q0 153 -141.5 220.5t-397.5 33.5v-545q282 3 410.5 67t128.5 224zM856 272h-473v-272h-92v272h-199v76h199v223h-199v76h199v619q343 54 533 -31.5t190 -286.5q0 -190 -158.5 -278.5t-472.5 -96.5v-227h481z" />
    <glyph glyph-name="numero" unicode="&#x2116;" 
d="M844 487q-87 0 -141 98t-54 285q0 191 62.5 298.5t156.5 107.5q88 0 141.5 -97.5t53.5 -283.5q0 -192 -62 -300t-157 -108zM463 0l-270 1077h-5l2 -1077h-79v1270h106l262 -1030h4l-2 1030l80 -2v-1270zM860 565q53 0 86 83.5t33 228.5q0 148 -36.5 234.5t-90.5 86.5
q-52 0 -84.5 -82.5t-32.5 -226.5q0 -150 35.5 -237t89.5 -87zM1049 287h-385v78h385v-78z" />
    <glyph glyph-name="published" unicode="&#x2117;" 
d="M1028 643q0 -145 -39.5 -265t-106 -199t-154 -122t-183.5 -43q-200 0 -323.5 162t-123.5 442q0 282 131.5 459.5t329.5 177.5q97 0 181.5 -40.5t149 -116.5t101.5 -193.5t37 -261.5zM164 623q0 -248 108 -397.5t275 -149.5q83 0 157.5 38.5t132.5 108.5t92 177.5
t34 236.5q0 128 -33 235t-89.5 176.5t-129.5 107.5t-154 38q-171 0 -282 -159.5t-111 -411.5zM500 274h-74v699q166 25 251 -32.5t85 -195.5q0 -125 -69.5 -187.5t-190.5 -70.5zM688 739q0 193 -186 172v-352q186 -16 186 180z" />
    <glyph glyph-name="servicemark" unicode="&#x2120;" 
d="M737 709l-131 489h-6l2 -590h-67v662h112l123 -463h4l115 463h112v-662h-69l2 590h-6l-125 -489h-66zM88 672q134 -3 193 28t59 76q0 32 -26.5 64t-64 60t-75 58t-64 68.5t-26.5 79.5q0 73 73 125t216 49l4 -70q-119 1 -170 -25.5t-51 -68.5q0 -32 26.5 -64t64 -60.5
t75 -58.5t64 -69t26.5 -82q0 -74 -81.5 -126.5t-242.5 -53.5v70z" />
    <glyph glyph-name="trademark" unicode="&#x2122;" 
d="M274 1202v-590h-71v590h-154l6 68h369v-68h-150zM737 709l-131 489h-6l2 -590h-67v662h112l123 -463h4l115 463h112v-662h-69l2 590h-6l-125 -489h-66z" />
    <glyph glyph-name="Omega" unicode="&#x2126;" 
d="M446 8l-4 -8h-346v76h244q-180 392 -180 700q0 240 107.5 380t301.5 140q192 0 296 -139t104 -379q0 -300 -183 -702h246v-76h-348l-2 8q197 436 197 762q0 208 -82 324t-234 116t-234.5 -116t-82.5 -322q0 -319 200 -764z" />
    <glyph glyph-name="onethird" unicode="&#x2153;" 
d="M879 870h-592v70h274v571l-262 -22l-2 57l264 39v125l78 6v-776h246zM129 590v67h868v-67h-868zM301 -451l-6 76q483 16 483 166q0 137 -405 178l2 43l364 293v4l-436 -2v72h528l7 -68l-367 -293q383 -52 383 -221q0 -105 -133.5 -171.5t-419.5 -76.5z" />
    <glyph glyph-name="twothirds" unicode="&#x2154;" 
d="M862 870h-581l-9 68q105 76 172 127.5t131.5 107.5t100 98.5t57 86.5t21.5 86q0 43 -21.5 74.5t-72 56t-140 37.5t-219.5 14l6 70q524 5 524 -234q0 -60 -28 -119t-90 -124t-139 -127.5t-197 -149.5h485v-72zM129 590v67h868v-67h-868zM301 -451l-6 76q483 16 483 166
q0 137 -405 178l2 43l364 293v4l-436 -2v72h528l7 -68l-367 -293q383 -52 383 -221q0 -105 -133.5 -171.5t-419.5 -76.5z" />
    <glyph glyph-name="onefifth" unicode="&#x2155;" 
d="M879 870h-592v70h274v571l-262 -22l-2 57l264 39v125l78 6v-776h246zM129 590v67h868v-67h-868zM846 -170q0 -111 -135 -184.5t-408 -96.5l-6 76q251 21 363 72.5t112 132.5q0 140 -455 166l29 383h473l-8 -72h-399l-21 -250q455 -35 455 -227z" />
    <glyph glyph-name="twofifths" unicode="&#x2156;" 
d="M862 870h-581l-9 68q105 76 172 127.5t131.5 107.5t100 98.5t57 86.5t21.5 86q0 43 -21.5 74.5t-72 56t-140 37.5t-219.5 14l6 70q524 5 524 -234q0 -60 -28 -119t-90 -124t-139 -127.5t-197 -149.5h485v-72zM129 590v67h868v-67h-868zM846 -170q0 -111 -135 -184.5
t-408 -96.5l-6 76q251 21 363 72.5t112 132.5q0 140 -455 166l29 383h473l-8 -72h-399l-21 -250q455 -35 455 -227z" />
    <glyph glyph-name="threefifths" unicode="&#x2157;" 
d="M301 850l-6 76q483 16 483 166q0 137 -405 178l2 43l364 293v4l-436 -2v71h528l7 -67l-367 -293q383 -52 383 -221q0 -105 -133.5 -171.5t-419.5 -76.5zM129 590v67h868v-67h-868zM846 -170q0 -111 -135 -184.5t-408 -96.5l-6 76q251 21 363 72.5t112 132.5
q0 140 -455 166l29 383h473l-8 -72h-399l-21 -250q455 -35 455 -227z" />
    <glyph glyph-name="fourfifths" unicode="&#x2158;" 
d="M903 1051l-117 2l2 -183h-75l2 183l-426 -2q0 111 28 287t78 358l84 -8q-38 -132 -78.5 -313t-46.5 -255h361l-2 293l75 6l-2 -299h123zM129 590v67h868v-67h-868zM846 -170q0 -111 -135 -184.5t-408 -96.5l-6 76q251 21 363 72.5t112 132.5q0 140 -455 166l29 383h473
l-8 -72h-399l-21 -250q455 -35 455 -227z" />
    <glyph glyph-name="onesixth" unicode="&#x2159;" 
d="M879 870h-592v70h274v571l-262 -22l-2 57l264 39v125l78 6v-776h246zM129 590v67h868v-67h-868zM563 -449q-132 0 -212.5 83t-80.5 235q0 173 110 310t331 231l30 -68q-184 -75 -278 -170t-113 -219q73 68 164.5 93.5t167.5 8t128 -77.5t52 -149q0 -123 -87.5 -200
t-211.5 -77zM573 -379q89 0 151 54.5t62 142.5q0 73 -42.5 119.5t-106 57.5t-143.5 -13.5t-150 -83.5v-17q0 -127 62 -193.5t167 -66.5z" />
    <glyph glyph-name="fivesixths" unicode="&#x215a;" 
d="M846 1130q0 -111 -135 -184t-408 -96l-6 76q251 21 363 72t112 132q0 140 -455 166l29 383h473l-8 -71h-399l-21 -250q455 -35 455 -228zM129 590v67h868v-67h-868zM563 -449q-132 0 -212.5 83t-80.5 235q0 173 110 310t331 231l30 -68q-184 -75 -278 -170t-113 -219
q73 68 164.5 93.5t167.5 8t128 -77.5t52 -149q0 -123 -87.5 -200t-211.5 -77zM573 -379q89 0 151 54.5t62 142.5q0 73 -42.5 119.5t-106 57.5t-143.5 -13.5t-150 -83.5v-17q0 -127 62 -193.5t167 -66.5z" />
    <glyph glyph-name="oneeighth" unicode="&#x215b;" 
d="M879 870h-592v70h274v571l-262 -22l-2 57l264 39v125l78 6v-776h246zM129 590v67h868v-67h-868zM547 -451q-123 0 -199 53.5t-76 139.5q0 144 220 235q-96 48 -149.5 97t-53.5 116q0 79 78.5 142t207.5 63q114 0 189.5 -52t75.5 -136q0 -72 -53.5 -126t-155.5 -99
q106 -51 164.5 -101t58.5 -119q0 -89 -85.5 -151t-221.5 -62zM369 201q0 -30 15.5 -57t48 -51t62.5 -41.5t78 -41.5q191 77 191 183q0 61 -53.5 98t-145.5 37q-93 0 -144.5 -36.5t-51.5 -90.5zM559 -385q98 0 156.5 39.5t58.5 99.5q0 25 -13.5 48.5t-31.5 41t-52.5 38.5
t-60 33.5t-69.5 33.5q-95 -34 -146 -82.5t-51 -106.5q0 -64 56 -104.5t153 -40.5z" />
    <glyph glyph-name="threeeighths" unicode="&#x215c;" 
d="M301 850l-6 76q483 16 483 166q0 137 -405 178l2 43l364 293v4l-436 -2v71h528l7 -67l-367 -293q383 -52 383 -221q0 -105 -133.5 -171.5t-419.5 -76.5zM129 590v67h868v-67h-868zM547 -451q-123 0 -199 53.5t-76 139.5q0 144 220 235q-96 48 -149.5 97t-53.5 116
q0 79 78.5 142t207.5 63q114 0 189.5 -52t75.5 -136q0 -72 -53.5 -126t-155.5 -99q106 -51 164.5 -101t58.5 -119q0 -89 -85.5 -151t-221.5 -62zM369 201q0 -30 15.5 -57t48 -51t62.5 -41.5t78 -41.5q191 77 191 183q0 61 -53.5 98t-145.5 37q-93 0 -144.5 -36.5
t-51.5 -90.5zM559 -385q98 0 156.5 39.5t58.5 99.5q0 25 -13.5 48.5t-31.5 41t-52.5 38.5t-60 33.5t-69.5 33.5q-95 -34 -146 -82.5t-51 -106.5q0 -64 56 -104.5t153 -40.5z" />
    <glyph glyph-name="fiveeighths" unicode="&#x215d;" 
d="M846 1130q0 -111 -135 -184t-408 -96l-6 76q251 21 363 72t112 132q0 140 -455 166l29 383h473l-8 -71h-399l-21 -250q455 -35 455 -228zM129 590v67h868v-67h-868zM547 -451q-123 0 -199 53.5t-76 139.5q0 144 220 235q-96 48 -149.5 97t-53.5 116q0 79 78.5 142
t207.5 63q114 0 189.5 -52t75.5 -136q0 -72 -53.5 -126t-155.5 -99q106 -51 164.5 -101t58.5 -119q0 -89 -85.5 -151t-221.5 -62zM369 201q0 -30 15.5 -57t48 -51t62.5 -41.5t78 -41.5q191 77 191 183q0 61 -53.5 98t-145.5 37q-93 0 -144.5 -36.5t-51.5 -90.5zM559 -385
q98 0 156.5 39.5t58.5 99.5q0 25 -13.5 48.5t-31.5 41t-52.5 38.5t-60 33.5t-69.5 33.5q-95 -34 -146 -82.5t-51 -106.5q0 -64 56 -104.5t153 -40.5z" />
    <glyph glyph-name="seveneighths" unicode="&#x215e;" 
d="M477 858l-80 10q138 367 391 734l-2 6h-501l6 71h577v-67q-249 -375 -391 -754zM129 590v67h868v-67h-868zM547 -451q-123 0 -199 53.5t-76 139.5q0 144 220 235q-96 48 -149.5 97t-53.5 116q0 79 78.5 142t207.5 63q114 0 189.5 -52t75.5 -136q0 -72 -53.5 -126
t-155.5 -99q106 -51 164.5 -101t58.5 -119q0 -89 -85.5 -151t-221.5 -62zM369 201q0 -30 15.5 -57t48 -51t62.5 -41.5t78 -41.5q191 77 191 183q0 61 -53.5 98t-145.5 37q-93 0 -144.5 -36.5t-51.5 -90.5zM559 -385q98 0 156.5 39.5t58.5 99.5q0 25 -13.5 48.5t-31.5 41
t-52.5 38.5t-60 33.5t-69.5 33.5q-95 -34 -146 -82.5t-51 -106.5q0 -64 56 -104.5t153 -40.5z" />
    <glyph glyph-name="minus" unicode="&#x2212;" 
d="M950 627l-2 -78h-772v78h774z" />
    <glyph glyph-name="approxequal" unicode="&#x2248;" 
d="M748 635q-45 0 -89 25.5t-79.5 62.5t-68.5 74t-68.5 62.5t-67.5 25.5q-49 0 -90 -61t-92 -181l-64 25q58 151 117.5 222t134.5 71q45 0 89 -25.5t79 -62.5t68 -74t67.5 -62.5t65.5 -25.5q49 0 90.5 60.5t89.5 176.5l63 -24q-59 -152 -115 -220.5t-130 -68.5zM748 217
q-45 0 -89 25.5t-79.5 62.5t-68.5 74t-68.5 62.5t-67.5 25.5q-49 0 -90 -61t-92 -181l-64 25q58 151 117.5 222t134.5 71q45 0 89 -25.5t79 -62.5t68 -74t67.5 -62.5t65.5 -25.5q49 0 90.5 60.5t89.5 176.5l63 -24q-59 -152 -115 -220.5t-130 -68.5z" />
    <glyph glyph-name="notequal" unicode="&#x2260;" 
d="M948 328h-446l-111 -299l-69 24l102 275h-248v78h277l141 380h-418v78h447l110 295l70 -24l-101 -271h248l-2 -78h-274l-144 -380h420z" />
    <glyph glyph-name="lessequal" unicode="&#x2264;" 
d="M283 702v-16l632 -362l-34 -72l-691 397l3 84l677 445l41 -68zM956 129v-80h-786v80h786z" />
    <glyph glyph-name="greaterequal" unicode="&#x2265;" 
d="M844 702l-629 408l41 68l678 -445l2 -84l-690 -397l-35 72l633 362v16zM170 129h786v-80h-786v80z" />
    <glyph glyph-name="hcoslug" unicode="&#xe10b;" 
d="M1024 1434v-1639h-922v1639h922zM410 606q0 20 11 32.5t30 12.5q20 0 32.5 -16t12.5 -43q0 -32 -29 -76q-31 29 -44 47.5t-13 42.5zM510 475q32 20 63 51q25 -28 23.5 -55.5t-25.5 -67.5q-40 51 -61 72zM430 285q-34 0 -57 24.5t-23 59.5q0 36 25 61q54 -50 114 -127
q-24 -18 -59 -18zM616 354q33 44 72 66q19 -39 66 -39q32 0 53.5 23.5t21.5 58.5q0 36 -21 58t-54 22q-53 0 -92 -58q-6 58 -76 58q14 20 14 51q0 44 -39.5 79.5t-105.5 35.5q-75 0 -121.5 -39.5t-46.5 -91.5q0 -33 10.5 -56.5t36.5 -50.5q-125 -41 -125 -139
q0 -61 48.5 -102.5t117.5 -41.5q96 0 160 70q38 -39 67.5 -54.5t63.5 -15.5q51 0 86 40t36 106l-10 2q-27 -45 -65 -45q-42 0 -97 63zM469 139l-18 -2v-14h-11v-10h11v-31q0 -21 18 -21q17 0 23 21l-9 2q-3 -10 -8 -10q-6 0 -6 8v31h20v10h-20v16zM297 94q0 -15 9.5 -24
t23.5 -9q13 0 22.5 9.5t9.5 23.5q0 13 -9 22t-23 9t-23.5 -9t-9.5 -22zM342 94q0 -24 -12 -24q-13 0 -13 24q0 23 13 23q12 0 12 -23zM612 92q0 -20 -10 -20q-12 0 -12 20q0 21 12 21q10 0 10 -21zM367 74v-11h32v11h-6v22q0 7 4 12t9 5q8 0 8 -13v-26h-6v-11h34v11h-10v28
q0 23 -18 23q-14 0 -21 -14v12h-26v-10h8v-39h-8zM221 74v-11h47v11h-14v24h6q6 0 7 -2t3 -10h11v35h-11q-6 -11 -10 -12h-6v28h16q9 0 12.5 -4t6.5 -16h10v30h-78v-10h12v-63h-12zM494 84v-21h10l2 7q9 -9 20 -9q21 0 21 19q0 13 -18.5 19.5t-18.5 9.5q0 6 8 6q9 0 17 -11
h10v21h-10l-3 -8q-5 8 -16 8q-10 0 -16 -6t-6 -13q0 -14 18 -19t18 -11t-8 -6t-18 14h-10zM571 141v-80h9l6 13q6 -13 22 -13q12 0 18.5 10.5t6.5 22.5q0 13 -7 22t-18 9q-14 0 -18 -14v41h-29v-11h10zM651 49q4 3 1.5 8.5t-9.5 5.5q-10 0 -10 -10q0 -14 18 -14q17 0 27 24
l20 50h9v10h-27v-10h8l-12 -31l-14 31h8v10h-37v-10h6q19 -38 25 -52q0 -12 -13 -12zM743 0h-28v-12h10q-5 -10 -10 -15q-3 3 -10 11t-9 10q17 10 17 20q0 8 -6 13.5t-15 5.5q-12 0 -19 -7t-7 -16q0 -10 10 -20q-21 -7 -21 -23q0 -20 25 -20q17 0 27 10q10 -10 18 -10
q14 0 18 18l-6 2q-3 -8 -6 -8q-2 0 -10 8q7 7 14 21h8v12zM481 8v8q0 17 8 17l7 -2q-2 -2 -2 -6q0 -9 10 -9v-8h-23zM752 -10q0 -43 43 -43q33 0 36 35h-12q-4 -25 -20 -25q-25 0 -25 35t21 35q14 0 22 -25h12v33h-12v-8q-10 10 -24 10q-18 0 -29.5 -12.5t-11.5 -34.5z
M692 -2q-10 10 -10 16q0 9 8 9q10 0 10 -11q0 -10 -8 -14zM553 -25h39q4 35 -29 35q-13 0 -22 -9t-9 -24q0 -14 9 -22t24 -8q23 0 27 22h-10q-3 -12 -15 -12q-14 0 -14 18zM410 -25h39q3 35 -29 35q-12 0 -21.5 -9t-9.5 -24q0 -14 9 -22t24 -8q23 0 27 22h-11
q-3 -12 -14 -12q-14 0 -14 18zM319 -20q0 -15 9.5 -24t23.5 -9t23.5 9.5t9.5 23.5q0 13 -9.5 21.5t-23.5 8.5t-23.5 -8.5t-9.5 -21.5zM836 -20q0 -15 9 -24t23 -9t23.5 9.5t9.5 23.5q0 13 -9.5 21.5t-23.5 8.5t-23 -8.5t-9 -21.5zM553 -16q0 18 10 18t10 -18h-20zM410 -16
q0 18 10 18t10 -18h-20zM365 -20q0 -25 -13 -25q-12 0 -12 25q0 22 12 22q13 0 13 -22zM881 -20q0 -25 -13 -25q-12 0 -12 25q0 22 12 22q13 0 13 -22zM455 -41v-10h34v10h-8v39h23v-39h-8v-10h34v10h-8v80l-16 -4q-8 4 -17 4q-10 0 -18 -7.5t-8 -21.5v-2h-10v-10h10v-39h-8
zM596 -41v-10h39v10h-12v25q1 5 4.5 9.5t5.5 4.5v-2q0 -8 10 -8t10 10q0 12 -12 12t-18 -14v12h-27v-10h8v-39h-8zM221 -41v-10h43v10h-10v29h33v-29h-11v-10h43v10h-12v64h12v10h-43v-10h11v-25h-33v25h10v10h-43v-10h12v-64h-12zM700 -37q-6 -6 -12 -6q-14 0 -14 14
q0 9 6 15q4 -4 11 -13t9 -10zM928 -41q0 12 -13 12q-12 0 -12 -12t12 -12q13 0 13 12z" />
    <glyph glyph-name="check.1" unicode="&#xe10c;" 
d="M1018 1352q-282 -632 -465 -1401l-82 -10l-297 712l80 37l252 -618h4q160 711 414 1314z" />
    <glyph glyph-name="check.2" unicode="&#xe10d;" 
d="M764 -6l-246 485l-256 -497l-59 24l268 541l-225 422l84 32l192 -372l365 762l92 -39l-410 -797l283 -541z" />
    <glyph glyph-name="NUL" horiz-adv-x="0" 
 />
    <glyph glyph-name="zero.alt" 
d="M551 -23q-199 0 -309.5 170t-110.5 471q0 306 121.5 490t325.5 184q199 0 309 -169.5t110 -471.5q0 -305 -121.5 -489.5t-324.5 -184.5zM569 1212q-168 0 -258 -151.5t-90 -425.5q0 -273 88 -425.5t252 -152.5q168 0 256 151.5t88 426.5q0 274 -86 425.5t-250 151.5z" />
    <glyph glyph-name="colon.alt" 
d="M651 895h-159l2 178h159zM645 197h-160l2 178h160z" />
    <glyph glyph-name="guillemotleft.cap" 
d="M473 115l-356 475l6 96l354 465l70 -59l-361 -453l361 -471zM946 115l-356 475l6 96l354 465l70 -59l-361 -453l361 -471z" />
    <glyph glyph-name="guillemotright.cap" 
d="M651 115l-69 59l360 453l-360 471l73 53l357 -475l-6 -96zM178 115l-69 59l360 453l-360 471l73 53l357 -475l-7 -96z" />
    <glyph glyph-name="guilsinglleft.cap" 
d="M793 115l-521 475l7 96l524 469l59 -63l-516 -455l508 -461z" />
    <glyph glyph-name="guilsinglright.cap" 
d="M326 115l-60 63l516 455l-508 461l62 61l520 -475l-6 -96z" />
    <glyph glyph-name="parenleft.cap" 
d="M887 1571l61 -64q-320 -241 -464 -457.5t-144 -428.5q0 -209 142.5 -423.5t457.5 -453.5l-61 -63q-328 259 -478.5 487.5t-150.5 449.5q0 227 152.5 460t484.5 493z" />
    <glyph glyph-name="parenright.cap" 
d="M240 -319l-62 63q319 241 463.5 458t144.5 429q0 207 -142.5 421t-457.5 453l62 66q328 -259 478.5 -488t150.5 -450q0 -227 -152.5 -459.5t-484.5 -492.5z" />
    <glyph glyph-name="bracketleft.cap" 
d="M303 -264v1777h647v-77h-561v-1622h565l-8 -78h-643z" />
    <glyph glyph-name="bracketright.cap" 
d="M180 -186h561v1620h-559v79h643v-1777h-643z" />
    <glyph glyph-name="braceleft.cap" 
d="M952 -319q-342 110 -477 194t-135 193q0 44 20 87.5t49 77t57.5 64.5t48.5 63t20 60q0 68 -88 115.5t-265 56.5l2 70q361 26 361 149q0 28 -21.5 60t-52.5 63.5t-62.5 64.5t-53 75t-21.5 83q0 105 148 207t479 207l28 -82q-299 -87 -434 -163t-135 -155q0 -33 21.5 -69
t52 -68.5t60.5 -64.5t51.5 -67.5t21.5 -67.5q0 -61 -60.5 -116t-185.5 -85q120 -28 178.5 -82.5t58.5 -118.5q0 -42 -29 -89t-64 -82.5t-64 -83t-29 -91.5q0 -87 126.5 -160t426.5 -166z" />
    <glyph glyph-name="braceright.cap" 
d="M172 -319l-31 83q296 85 432 162t136 154q0 33 -21 69.5t-51 69t-60.5 65t-51.5 67.5t-21 67q0 61 61.5 115.5t188.5 84.5q-123 28 -183.5 82.5t-60.5 118.5q0 42 29.5 89t64.5 82.5t64.5 83t29.5 91.5q0 89 -125.5 161t-427.5 165l33 80q341 -110 475.5 -194t134.5 -193
q0 -53 -30.5 -107t-66.5 -90.5t-66.5 -79.5t-30.5 -76q0 -68 87.5 -115.5t266.5 -56.5l-4 -67q-360 -26 -360 -152q0 -28 21.5 -60t53 -63t62.5 -64t52.5 -75t21.5 -84q0 -105 -146.5 -206.5t-476.5 -206.5z" />
    <glyph glyph-name="registered.alt" 
d="M1028 643q0 -145 -39.5 -265t-106 -199t-154 -122t-183.5 -43q-200 0 -323.5 162t-123.5 442q0 282 131.5 459.5t329.5 177.5q97 0 181.5 -40.5t149 -116.5t101.5 -193.5t37 -261.5zM164 623q0 -248 108 -397.5t275 -149.5q83 0 157.5 38.5t132.5 108.5t92 177.5
t34 236.5q0 128 -33 235t-89.5 176.5t-129.5 107.5t-154 38q-171 0 -282 -159.5t-111 -411.5zM688 268l-98 279l-105 -6v-262h-73v698q166 30 246.5 -20.5t80.5 -165.5q0 -123 -92 -211l121 -301zM485 918v-312l113 2q66 69 66 170q0 80 -46.5 117.5t-132.5 22.5z" />
    <glyph glyph-name="asterisk.alt" 
d="M606 1149l-45 6l6 262l99 -14zM465 1114l-29 -37l-223 137l61 78zM707 1042l-17 43l230 125l36 -92zM424 973l16 -43l-229 -123l-37 90zM666 903l30 37l222 -139l-60 -78zM524 868l45 -6l-6 -262l-98 12z" />
    <glyph glyph-name="bullet.alt" 
d="M741 418h-362l4 377h362z" />
    <glyph glyph-name="R_p" 
d="M481 -6l-162 514l-124 -8v-500h-89v1266q414 98 414 -332q0 -248 -121 -387l168 -539zM195 1198v-629l151 6q86 127 86 347q0 160 -55.5 229.5t-181.5 46.5zM825 53q82 0 118 106.5t36 340.5q0 428 -125 428q-61 0 -129 -90q6 -299 6 -766q39 -19 94 -19zM731 -336
l-86 -10v346q0 685 -8 977l78 6l6 -76q75 94 166 94q176 0 176 -458q0 -294 -67.5 -430t-198.5 -136q-24 0 -66 11v-324z" />
    <glyph glyph-name="fraction.afrc" 
d="M129 590v67h868v-67h-868z" />
    <glyph glyph-name="zero.num" 
d="M553 850q-145 0 -226 109.5t-81 302.5q0 195 88.5 314.5t238.5 119.5q146 0 227 -109.5t81 -302.5q0 -196 -89.5 -315t-238.5 -119zM565 1626q-118 0 -179.5 -91.5t-61.5 -258.5q0 -169 61.5 -262.5t175.5 -93.5q118 0 180 91.5t62 258.5q0 169 -61.5 262.5t-176.5 93.5z
" />
    <glyph glyph-name="one.num" 
d="M879 870h-592v70h274v571l-262 -22l-2 57l264 39v125l78 6v-776h246z" />
    <glyph glyph-name="two.num" 
d="M862 870h-581l-9 68q105 76 172 127.5t131.5 107.5t100 98.5t57 86.5t21.5 86q0 43 -21.5 74.5t-72 56t-140 37.5t-219.5 14l6 70q524 5 524 -234q0 -60 -28 -119t-90 -124t-139 -127.5t-197 -149.5h485v-72z" />
    <glyph glyph-name="three.num" 
d="M301 850l-6 76q483 16 483 166q0 137 -405 178l2 43l364 293v4l-436 -2v71h528l7 -67l-367 -293q383 -52 383 -221q0 -105 -133.5 -171.5t-419.5 -76.5z" />
    <glyph glyph-name="four.num" 
d="M903 1051l-117 2l2 -183h-75l2 183l-426 -2q0 111 28 287t78 358l84 -8q-38 -132 -78.5 -313t-46.5 -255h361l-2 293l75 6l-2 -299h123z" />
    <glyph glyph-name="five.num" 
d="M846 1130q0 -111 -135 -184t-408 -96l-6 76q251 21 363 72t112 132q0 140 -455 166l29 383h473l-8 -71h-399l-21 -250q455 -35 455 -228z" />
    <glyph glyph-name="six.num" 
d="M563 852q-133 0 -213 82.5t-80 234.5q0 173 110 310t331 231l30 -68q-184 -75 -278 -170t-113 -219q73 68 164.5 93.5t167.5 8t128 -77.5t52 -149q0 -123 -87.5 -199.5t-211.5 -76.5zM573 922q89 0 151 54t62 142q0 73 -42.5 119.5t-106 57.5t-143.5 -13.5t-150 -83.5
v-16q0 -127 62 -193.5t167 -66.5z" />
    <glyph glyph-name="seven.num" 
d="M477 858l-80 10q138 367 391 734l-2 6h-501l6 71h577v-67q-249 -375 -391 -754z" />
    <glyph glyph-name="eight.num" 
d="M547 850q-123 0 -199 53t-76 139q0 145 220 236q-96 48 -149.5 97t-53.5 116q0 79 78.5 142t207.5 63q114 0 189.5 -52.5t75.5 -136.5q0 -72 -53.5 -126t-155.5 -99q106 -51 164.5 -100.5t58.5 -118.5q0 -89 -85.5 -151t-221.5 -62zM369 1501q0 -30 15.5 -56.5t48.5 -51
t62 -41.5t78 -41q191 77 191 182q0 61 -53.5 98t-145.5 37q-93 0 -144.5 -36.5t-51.5 -90.5zM559 915q97 0 156 40t59 100q0 25 -13.5 48.5t-31.5 40.5t-53 38t-59.5 33.5t-69.5 33.5q-95 -34 -146 -82t-51 -106q0 -64 56.5 -105t152.5 -41z" />
    <glyph glyph-name="nine.num" 
d="M416 836l-33 69q184 74 278 167.5t113 215.5q-74 -66 -164.5 -90t-166 -6.5t-126.5 77t-51 148.5q0 122 87 199.5t210 77.5q133 0 214 -83.5t81 -234.5q0 -352 -442 -540zM340 1425q0 -58 27 -100t73.5 -60.5t102.5 -18t119 26.5t118 73v18q0 127 -61 193.5t-164 66.5
q-89 0 -152 -55.5t-63 -143.5z" />
    <glyph glyph-name="zero.den" 
d="M553 -451q-145 0 -226 109.5t-81 302.5q0 195 88.5 314.5t238.5 119.5q146 0 227 -109t81 -302q0 -196 -89.5 -315.5t-238.5 -119.5zM565 326q-118 0 -179.5 -92t-61.5 -259q0 -169 61.5 -262.5t175.5 -93.5q118 0 180 91.5t62 258.5q0 169 -61.5 263t-176.5 94z" />
    <glyph glyph-name="one.den" 
d="M879 -430h-592v70h274v571l-262 -23l-2 58l264 39v125l78 6v-776h246z" />
    <glyph glyph-name="two.den" 
d="M862 -430h-581l-9 68q132 96 209.5 157t146 126t97.5 117.5t29 104.5q0 43 -21.5 74.5t-72 56t-140 38t-219.5 14.5l6 69q119 1 210.5 -10t150.5 -31.5t96 -51t52 -64.5t15 -76q0 -60 -28 -119t-90 -124t-139 -127.5t-197 -149.5h485v-72z" />
    <glyph glyph-name="three.den" 
d="M301 -451l-6 76q483 16 483 166q0 137 -405 178l2 43l364 293v4l-436 -2v72h528l7 -68l-367 -293q383 -52 383 -221q0 -105 -133.5 -171.5t-419.5 -76.5z" />
    <glyph glyph-name="four.den" 
d="M903 -250l-117 2l2 -182h-75l2 182l-426 -2q0 111 28 287t78 358l84 -8q-39 -132 -79 -312.5t-46 -254.5h361l-2 293l75 6l-2 -299h123z" />
    <glyph glyph-name="five.den" 
d="M846 -170q0 -111 -135 -184.5t-408 -96.5l-6 76q251 21 363 72.5t112 132.5q0 140 -455 166l29 383h473l-8 -72h-399l-21 -250q455 -35 455 -227z" />
    <glyph glyph-name="six.den" 
d="M563 -449q-132 0 -212.5 83t-80.5 235q0 173 110 310t331 231l30 -68q-184 -75 -278 -170t-113 -219q73 68 164.5 93.5t167.5 8t128 -77.5t52 -149q0 -123 -87.5 -200t-211.5 -77zM573 -379q89 0 151 54.5t62 142.5q0 73 -42.5 119.5t-106 57.5t-143.5 -13.5t-150 -83.5
v-17q0 -127 62 -193.5t167 -66.5z" />
    <glyph glyph-name="seven.den" 
d="M477 -442l-80 10q137 364 391 733l-2 6h-501l6 72h577v-68q-250 -376 -391 -753z" />
    <glyph glyph-name="eight.den" 
d="M547 -451q-123 0 -199 53.5t-76 139.5q0 144 220 235q-96 48 -149.5 97t-53.5 116q0 79 78.5 142t207.5 63q114 0 189.5 -52t75.5 -136q0 -72 -53.5 -126t-155.5 -99q106 -51 164.5 -101t58.5 -119q0 -89 -85.5 -151t-221.5 -62zM369 201q0 -30 15.5 -57t48 -51
t62.5 -41.5t78 -41.5q191 77 191 183q0 61 -53.5 98t-145.5 37q-93 0 -144.5 -36.5t-51.5 -90.5zM559 -385q98 0 156.5 39.5t58.5 99.5q0 25 -13.5 48.5t-31.5 41t-52.5 38.5t-60 33.5t-69.5 33.5q-95 -34 -146 -82.5t-51 -106.5q0 -64 56 -104.5t153 -40.5z" />
    <glyph glyph-name="nine.den" 
d="M416 -465l-33 70q184 74 278 167.5t113 215.5q-74 -66 -164.5 -90t-166 -6.5t-126.5 77t-51 148.5q0 122 87 199t210 77q133 0 214 -83t81 -234q0 -353 -442 -541zM340 125q0 -72 42.5 -118.5t106 -57.5t143 13t148.5 83v18q0 127 -61 194t-164 67q-89 0 -152 -55.5
t-63 -143.5z" />
    <glyph glyph-name="zero.small" 
d="M553 -20q-146 0 -226.5 109t-80.5 302q0 195 88.5 314.5t238.5 119.5q146 0 227 -109t81 -302q0 -196 -89.5 -315t-238.5 -119zM565 756q-118 0 -179.5 -91.5t-61.5 -258.5q0 -169 61.5 -263t175.5 -94q118 0 180 91.5t62 258.5q0 169 -61.5 263t-176.5 94z" />
    <glyph glyph-name="one.small" 
d="M879 0h-592v70h274v571l-262 -23l-2 58l264 39v125l78 6v-776h246z" />
    <glyph glyph-name="two.small" 
d="M862 0h-581l-9 68q132 96 209.5 157t146 126t97.5 117.5t29 104.5q0 43 -21.5 74.5t-72 56t-140 38t-219.5 14.5l6 69q119 1 210.5 -10t150.5 -31.5t96 -51t52 -64.5t15 -76q0 -60 -28 -119t-90 -124t-139 -127.5t-197 -149.5h485v-72z" />
    <glyph glyph-name="three.small" 
d="M301 -20l-6 75q483 16 483 166q0 137 -405 178l2 43l364 293v4l-436 -2v72h528l7 -68l-367 -292q383 -52 383 -222q0 -105 -133.5 -171t-419.5 -76z" />
    <glyph glyph-name="four.small" 
d="M903 180l-117 2l2 -182h-75l2 182l-426 -2q0 111 28 287t78 358l84 -8q-39 -132 -79 -312.5t-46 -254.5h361l-2 293l75 6l-2 -299h123z" />
    <glyph glyph-name="five.small" 
d="M846 260q0 -111 -135 -184t-408 -96l-6 75q251 21 363 72.5t112 132.5q0 140 -455 166l29 383h473l-8 -72h-399l-21 -250q455 -35 455 -227z" />
    <glyph glyph-name="six.small" 
d="M563 -18q-133 0 -213 82.5t-80 234.5q0 173 110 310t331 231l30 -68q-184 -75 -278 -170t-113 -219q73 68 164.5 93.5t167.5 8t128 -77.5t52 -149q0 -123 -87.5 -199.5t-211.5 -76.5zM573 51q89 0 151 54.5t62 142.5q0 73 -42.5 119.5t-106 57.5t-143.5 -13.5t-150 -83.5
v-17q0 -127 62 -193.5t167 -66.5z" />
    <glyph glyph-name="seven.small" 
d="M477 -12l-80 10q137 364 391 733l-2 6h-501l6 72h577v-68q-250 -376 -391 -753z" />
    <glyph glyph-name="eight.small" 
d="M547 -20q-123 0 -199 53t-76 139q0 145 220 236q-96 48 -149.5 97t-53.5 116q0 79 78.5 141.5t207.5 62.5q114 0 189.5 -52t75.5 -136q0 -72 -53.5 -126t-155.5 -99q106 -51 164.5 -100.5t58.5 -118.5q0 -89 -85.5 -151t-221.5 -62zM369 631q0 -30 15.5 -57t48 -51
t62.5 -41.5t78 -41.5q191 77 191 183q0 61 -53.5 98t-145.5 37q-93 0 -144.5 -36.5t-51.5 -90.5zM559 45q98 0 156.5 39.5t58.5 99.5q0 25 -13.5 48.5t-31.5 41t-52.5 38.5t-60 33.5t-69.5 33.5q-95 -34 -146 -82.5t-51 -106.5q0 -64 56 -104.5t153 -40.5z" />
    <glyph glyph-name="nine.small" 
d="M416 -35l-33 70q184 74 278 167.5t113 215.5q-74 -66 -164.5 -90t-166 -6.5t-126.5 77t-51 148.5q0 122 87 199t210 77q133 0 214 -83t81 -234q0 -353 -442 -541zM340 555q0 -72 42.5 -118.5t106 -57.5t143 13t148.5 83v19q0 127 -61 193.5t-164 66.5q-89 0 -152 -55.5
t-63 -143.5z" />
    <glyph glyph-name="caron.alt" 
d="M438 1153q38 71 56.5 135.5t17.5 125t-11.5 110t-31.5 110.5l119 4q66 -249 -109 -503z" />
    <glyph glyph-name="commaaccent.rot" 
d="M645 1542q-41 -73 -52.5 -143.5t-1 -124t37.5 -117.5l-123 -6q-14 62 -13 125.5t28.5 137t80.5 142.5z" />
    <glyph glyph-name="underscore.alt" 
d="M1147 -102v-74h-1167v74h1167z" />
    </font>
</defs>
</svg>
