<?xml version="1.0" standalone="no"?>
<!DOCTYPE svg PUBLIC "-//W3C//DTD SVG 1.1//EN" "http://www.w3.org/Graphics/SVG/1.1/DTD/svg11.dtd" >
<svg xmlns="http://www.w3.org/2000/svg" xmlns:xlink="http://www.w3.org/1999/xlink" version="1.1">
<metadata>
Created by FontForge 20170731 at Sat May 29 02:54:12 2021
 By Aleksey,,,
Copyright (C) 2016 Hoefler &#38; Co. http://www.typography.com
</metadata>
<defs>
<font id="OperatorMono-MediumItalic" horiz-adv-x="1126" >
  <font-face 
    font-family="Operator Mono Medium"
    font-weight="350"
    font-style="italic"
    font-stretch="normal"
    units-per-em="2048"
    panose-1="2 0 0 9 0 0 0 0 0 0"
    ascent="1638"
    descent="-410"
    x-height="1018"
    cap-height="1270"
    bbox="-154 -745 1522 2329"
    underline-thickness="182"
    underline-position="-378"
    slope="-11"
    unicode-range="U+0020-E10D"
  />
<missing-glyph 
d="M16 -410l-30 2048h1106l30 -2048h-1106zM143 1536l408 -799l385 799h-793zM983 1384l-367 -770l392 -770zM123 -156l369 770l-394 770zM555 492l-383 -799h793z" />
    <glyph glyph-name=".notdef" 
d="M16 -410l-30 2048h1106l30 -2048h-1106zM143 1536l408 -799l385 799h-793zM983 1384l-367 -770l392 -770zM123 -156l369 770l-394 770zM555 492l-383 -799h793z" />
    <glyph glyph-name=".null" horiz-adv-x="0" 
 />
    <glyph glyph-name="nonmarkingreturn" horiz-adv-x="682" 
 />
    <glyph glyph-name="space" unicode=" " 
 />
    <glyph glyph-name="exclam" unicode="!" 
d="M629 502h-148q10 51 55 446t52 438h286q-8 -31 -121 -430.5t-124 -453.5zM586 0h-277l53 268h277z" />
    <glyph glyph-name="quotedbl" unicode="&#x22;" 
d="M885 776h-158l100 602h254l-10 -84zM444 776h-157l100 602h256l-12 -84z" />
    <glyph glyph-name="numbersign" unicode="#" 
d="M446 500l220 37l51 245l-219 -37zM336 -18l-156 -19l68 318l-191 -33l39 192l195 33l51 246l-188 -33l36 193l195 32l72 338l153 21l-71 -332l219 37l69 323l156 21l-68 -318l193 33l-39 -190l-195 -33l-53 -248l193 33l-39 -190l-195 -33l-73 -344l-154 -19l72 336
l-219 -39z" />
    <glyph glyph-name="dollar" unicode="$" 
d="M434 944q0 -34 34 -74t99 -94l78 254q-106 3 -158.5 -20.5t-52.5 -65.5zM752 330q0 34 -35 74t-103 98l-77 -262q107 -1 161 23t54 67zM451 -154h-197l65 222q-111 9 -253 36l43 199q168 -40 290 -55l103 342q-61 48 -102 84t-84.5 83.5t-66 95t-22.5 93.5
q0 41 15.5 77.5t50 70.5t85.5 58.5t127.5 39t170.5 14.5l63 215h199l-74 -227q110 -14 205 -35l-39 -196q-126 36 -252 53l-100 -328q64 -53 102.5 -87.5t85 -85t68.5 -98.5t22 -95q0 -107 -109.5 -182t-338.5 -81z" />
    <glyph glyph-name="percent" unicode="%" 
d="M449 1294q66 0 108.5 -54.5t42.5 -149.5q0 -133 -72.5 -232.5t-160.5 -99.5q-65 0 -108.5 55t-43.5 150q0 134 72 232.5t162 98.5zM1141 1188l-936 -1208l-117 100l936 1210zM784 -29q-65 0 -108 54t-43 147q0 133 71.5 235.5t159.5 102.5q67 0 109.5 -53.5t42.5 -147.5
q0 -132 -71.5 -235t-160.5 -103z" />
    <glyph glyph-name="ampersand" unicode="&#x26;" 
d="M895 -41q-101 112 -188 236q-226 -213 -426 -213q-121 0 -186.5 70t-65.5 192q0 298 397 618q-2 20 -2 58q0 167 84.5 279t185.5 112q68 0 110 -35t42 -96q0 -73 -53.5 -167.5t-149.5 -185.5q29 -149 119 -315q85 126 158 270l180 -63q-129 -218 -242 -357
q88 -126 219 -270zM348 176q118 0 268 154q-108 181 -153 344q-221 -218 -221 -377q0 -59 28 -90t78 -31z" />
    <glyph glyph-name="quotesingle" unicode="'" 
d="M664 776h-162l102 602h266l-8 -84z" />
    <glyph glyph-name="parenleft" unicode="(" 
d="M971 1473l119 -146q-187 -125 -315 -239.5t-202.5 -223.5t-106.5 -210t-32 -214q0 -169 86 -347.5t279 -391.5l-170 -123q-213 245 -310.5 455t-97.5 405q0 262 174.5 508.5t575.5 526.5z" />
    <glyph glyph-name="parenright" unicode=")" 
d="M137 -430l-119 145q186 124 314 238.5t202 223.5t106 210.5t32 214.5q0 169 -86 348t-279 391l172 123q214 -247 311 -456t97 -404q0 -262 -175 -507.5t-575 -526.5z" />
    <glyph glyph-name="asterisk" unicode="*" 
d="M733 475l-149 277l-277 -152l-88 111l215 225l-235 219l82 119l280 -137l133 288l142 -39l-39 -313l313 -37l6 -139l-313 -61l63 -308z" />
    <glyph glyph-name="plus" unicode="+" 
d="M1016 516h-350l-72 -366h-199l72 366h-354l39 186h350l71 367h199l-72 -367h355z" />
    <glyph glyph-name="comma" unicode="," 
d="M223 -279q103 130 136 259t20 311l280 8q-3 -187 -87.5 -334.5t-258.5 -292.5z" />
    <glyph glyph-name="hyphen" unicode="-" 
d="M903 705l-35 -191h-618l37 191h616z" />
    <glyph glyph-name="period" unicode="." 
d="M608 0h-284l53 289h285z" />
    <glyph glyph-name="slash" unicode="/" 
d="M1092 1487l182 -74l-1225 -1798l-196 57z" />
    <glyph glyph-name="zero" unicode="0" 
d="M109 449q0 223 76.5 416.5t213 311t301.5 117.5q169 0 268 -121.5t99 -349.5q0 -223 -77 -417.5t-214 -312.5t-301 -118q-170 0 -268 122t-98 352zM662 1114q-81 0 -152.5 -74.5t-116.5 -192t-61 -253.5l518 270q-10 123 -59 186.5t-129 63.5zM514 156q83 0 155 76.5
t116.5 195t60.5 256.5l-520 -268q18 -260 188 -260z" />
    <glyph glyph-name="one" unicode="1" 
d="M909 0h-815l37 184h324l149 772l-305 -6l27 158l313 35l31 153l215 19l-219 -1129h295z" />
    <glyph glyph-name="two" unicode="2" 
d="M901 0h-821v170q128 86 215 146t176.5 128t145 120.5t101.5 108.5t66.5 108t20.5 104q0 58 -27 98.5t-89 66t-163 26.5t-250 -19l31 205q349 56 535 -29.5t186 -290.5q0 -79 -28.5 -155t-78.5 -144.5t-134 -145t-177.5 -147t-226.5 -160.5h555z" />
    <glyph glyph-name="three" unicode="3" 
d="M971 362q0 -62 -29 -119t-92.5 -111t-165 -88t-247 -49t-337.5 5l27 207q146 -19 259 -21t182.5 9t114.5 33.5t62 48.5t17 57q0 154 -463 274l12 99l512 372h-528l37 191h751l-22 -185l-506 -370q416 -120 416 -353z" />
    <glyph glyph-name="four" unicode="4" 
d="M985 250h-121l-49 -250h-201l50 250h-580l8 143q120 209 205.5 410t169.5 481l231 -12q-92 -277 -182.5 -466.5t-210.5 -367.5h395l80 404l203 16l-82 -420h137z" />
    <glyph glyph-name="five" unicode="5" 
d="M975 418q0 -57 -20.5 -112t-65 -107.5t-114 -93t-167 -70t-224.5 -38.5t-286 3l25 207q187 -16 311 -10t198 36t105 67.5t31 84.5q0 58 -49 104t-166.5 88t-306.5 74l141 619h705l-56 -191h-493l-66 -288q498 -106 498 -373z" />
    <glyph glyph-name="six" unicode="6" 
d="M518 -25q-178 0 -284.5 111.5t-106.5 323.5q0 106 27.5 208t90 204.5t156 190.5t234 164.5t315.5 129.5l49 -191q-502 -136 -630 -463q89 69 181 100t170.5 21.5t141 -49t98 -113.5t35.5 -170q0 -205 -138 -336t-339 -131zM559 150q106 0 171 75t65 185q0 77 -37.5 130.5
t-99 72.5t-147 -4.5t-173.5 -90.5q-4 -46 -4 -63q0 -160 63 -232.5t162 -72.5z" />
    <glyph glyph-name="seven" unicode="7" 
d="M403 -12l-221 22q296 555 690 1053v10h-610l43 197h844l-39 -180q-393 -508 -707 -1102z" />
    <glyph glyph-name="eight" unicode="8" 
d="M938 315q0 -140 -133 -240t-334 -100q-175 0 -279 77.5t-104 203.5q0 98 72 191.5t268 222.5q-79 75 -123.5 146.5t-44.5 146.5q0 61 29.5 115.5t87.5 98.5t143 72.5t196 38t247 -5.5l-62 -209q-120 27 -208 31.5t-136 -10.5t-70 -40t-22 -61q0 -46 36.5 -97t104.5 -116
q178 105 420 232l66 -127q-266 -143 -377 -209q105 -99 164 -185t59 -176zM518 147q95 0 158 44t63 110q0 57 -50.5 117.5t-149.5 148.5q-143 -95 -192.5 -154.5t-49.5 -111.5q0 -72 63 -113t158 -41z" />
    <glyph glyph-name="nine" unicode="9" 
d="M225 -35l-49 191q142 38 254.5 91.5t186 116t120 126t72.5 133.5q-74 -59 -151.5 -91t-146.5 -36t-130 17t-105.5 63.5t-70 107.5t-25.5 145q0 205 139 336t338 131q178 0 285 -111t107 -323q0 -106 -27.5 -208t-90 -204.5t-156 -190.5t-234 -165t-316.5 -129zM381 862
q0 -62 24 -109.5t67.5 -72.5t100 -28.5t126.5 22.5t141 80q4 40 4 61q0 161 -63.5 234t-162.5 73q-106 0 -171.5 -75t-65.5 -185z" />
    <glyph glyph-name="colon" unicode=":" 
d="M737 657h-282l53 289h285zM602 0h-285l58 289h282z" />
    <glyph glyph-name="semicolon" unicode=";" 
d="M737 657h-282l53 289h285zM227 -279q102 128 136 256t26 310l281 4q-7 -181 -93 -327t-262 -292z" />
    <glyph glyph-name="less" unicode="&#x3c;" 
d="M965 1251l92 -172l-672 -444l-4 -21l510 -512l-152 -147l-573 596l33 186z" />
    <glyph glyph-name="equal" unicode="=" 
d="M1069 934l-37 -186h-844l39 186h842zM983 483l-39 -186h-844l39 186h844z" />
    <glyph glyph-name="greater" unicode="&#x3e;" 
d="M209 -45l-92 174l671 442l5 23l-512 510l151 147l576 -596l-35 -186z" />
    <glyph glyph-name="question" unicode="?" 
d="M276 1171l50 220q377 -38 557 -127t180 -238q0 -132 -144 -265.5t-468 -293.5l-70 117q240 125 335 204.5t95 157.5q0 95 -126 143.5t-409 81.5zM496 0h-275l53 264h275z" />
    <glyph glyph-name="at" unicode="@" 
d="M850 -297q-774 -142 -774 569q0 170 38 337t108.5 309t163.5 251.5t211 171.5t243 62q195 0 270.5 -137.5t22.5 -395.5l-78 -383q-36 -187 -60 -354l-184 2l12 107q-132 -125 -231 -125q-69 0 -110.5 65t-41.5 191q0 110 30.5 218.5t84.5 197t138.5 143.5t183.5 55
q37 0 81 -6q36 256 -151 256q-80 0 -161 -50.5t-150 -141.5t-123 -208t-84.5 -260t-30.5 -288q0 -108 20.5 -187.5t66 -137t118 -84.5t175.5 -31t239 24zM692 299q29 0 70 18.5t78 49.5l84 432q-64 24 -115 24q-41 0 -84.5 -65t-70.5 -159t-27 -177q0 -62 18 -92.5t47 -30.5
z" />
    <glyph glyph-name="A" unicode="A" 
d="M754 -8q-3 56 -9.5 175.5t-9.5 182.5h-381q-7 -17 -63 -149t-84 -201h-230q262 601 588 1272h314q62 -665 100 -1264zM676 1077q-227 -509 -248 -557h299q-6 116 -35 557h-16z" />
    <glyph glyph-name="B" unicode="B" 
d="M1010 393q0 -75 -31.5 -141t-100.5 -124.5t-178 -93.5t-263 -47t-357 15l244 1260q201 28 343.5 21.5t233 -47t132.5 -100.5t42 -139q0 -109 -76 -198t-213 -142q105 -29 164.5 -99t59.5 -165zM854 948q0 86 -86.5 128t-249.5 24l-78 -406q205 13 309.5 84t104.5 170z
M791 383q0 98 -93 147.5t-282 32.5l-76 -383q216 -29 333.5 32t117.5 171z" />
    <glyph glyph-name="C" unicode="C" 
d="M770 1296q177 0 246.5 -119t58.5 -372l-215 -4q5 162 -22.5 228.5t-114.5 66.5q-105 0 -193.5 -92t-136 -228.5t-47.5 -277.5q0 -233 148.5 -296t463.5 44l-22 -203q-393 -131 -605 -18t-212 438q0 160 51.5 312.5t138.5 267t208 184t253 69.5z" />
    <glyph glyph-name="D" unicode="D" 
d="M1081 793q0 -119 -24.5 -226.5t-77 -206t-133 -172.5t-193 -126t-257.5 -66.5t-326 6.5l243 1262q384 63 576 -56.5t192 -414.5zM854 770q0 358 -348 324l-176 -916q127 -8 229 37t165 128.5t96.5 193t33.5 233.5z" />
    <glyph glyph-name="E" unicode="E" 
d="M922 190l-52 -190h-772l246 1270h778l-37 -191h-550l-70 -358h467l-33 -166h-467l-72 -365h562z" />
    <glyph glyph-name="F" unicode="F" 
d="M915 522h-481l-102 -522h-228l246 1270h799l-35 -195h-573l-74 -377h483z" />
    <glyph glyph-name="G" unicode="G" 
d="M844 -219l-207 -4l51 223q-271 -64 -421 57t-150 392q0 219 85.5 414.5t233 314t318.5 118.5q175 0 246 -118.5t57 -372.5l-213 -4q3 159 -24 226t-109 67q-102 0 -187.5 -93t-131.5 -233t-46 -287q0 -398 387 -282l68 299l213 6z" />
    <glyph glyph-name="H" unicode="H" 
d="M672 0l106 553h-381l-106 -553h-232l246 1270h232l-105 -541h381l105 541h229l-246 -1270h-229z" />
    <glyph glyph-name="I" unicode="I" 
d="M604 180h295l-43 -180h-799l35 180h285l176 910h-289l35 180h799l-33 -180h-285z" />
    <glyph glyph-name="J" unicode="J" 
d="M745 106q-68 -68 -224.5 -100t-459.5 -29l35 207q259 -3 348.5 5.5t124.5 43.5q25 25 44 89t57 253l100 515h-401l37 180h628l-131 -670q-36 -184 -61.5 -282t-45.5 -139.5t-51 -72.5z" />
    <glyph glyph-name="K" unicode="K" 
d="M764 -14l-311 649l516 635h243l-516 -637l308 -619zM322 1270h225l-246 -1270h-227z" />
    <glyph glyph-name="L" unicode="L" 
d="M920 0h-811l245 1270h230l-207 -1075h581z" />
    <glyph glyph-name="M" unicode="M" 
d="M526 1276l56 -750h4l344 744h241l-243 -1270h-215l176 870h-8l-289 -618h-125l-45 618h-6l-156 -870h-209l244 1264z" />
    <glyph glyph-name="N" unicode="N" 
d="M707 0l-261 870h-10l-162 -870h-213l246 1266l219 8l242 -864h10l160 860h213l-246 -1270h-198z" />
    <glyph glyph-name="O" unicode="O" 
d="M709 1294q179 0 285 -120t106 -361q0 -162 -45 -314.5t-123.5 -268.5t-192.5 -186.5t-243 -70.5q-177 0 -283.5 120.5t-106.5 361.5q0 129 28.5 253.5t82.5 229.5t127 185t167.5 125.5t197.5 45.5zM522 170q98 0 177.5 94.5t121 239t41.5 301.5q0 148 -47.5 221.5
t-132.5 73.5q-97 0 -176 -95t-120.5 -239.5t-41.5 -300.5q0 -149 46.5 -222t131.5 -73z" />
    <glyph glyph-name="P" unicode="P" 
d="M311 0h-225l244 1264q210 27 359.5 15.5t244 -61.5t138.5 -123t44 -169q0 -221 -193.5 -365.5t-537.5 -181.5zM895 889q0 113 -96.5 168t-276.5 30l-98 -507q222 -12 346.5 75.5t124.5 233.5z" />
    <glyph glyph-name="Q" unicode="Q" 
d="M838 -301l-609 262l56 166q259 99 420 303.5t161 425.5q0 124 -52 186t-148 62q-114 0 -194 -98.5t-103 -269.5t24 -402l-196 -72q-45 126 -57 254.5t6.5 242t66 213.5t117 171.5t164.5 113t204 41.5q196 0 300 -118t104 -316q0 -244 -164 -461.5t-420 -347.5l412 -174z
" />
    <glyph glyph-name="R" unicode="R" 
d="M762 -16l-273 587v2q193 89 276 172.5t83 182.5q0 95 -86 137t-252 22l-209 -1087h-225l243 1264q169 25 296 20t215 -28t142.5 -67t78.5 -97t24 -119q0 -249 -332 -432l265 -525z" />
    <glyph glyph-name="S" unicode="S" 
d="M1069 932l-199 -39q-24 112 -77 161.5t-142 49.5q-84 0 -139 -49.5t-55 -120.5q0 -43 28 -86.5t72.5 -81.5t98.5 -77t108 -81.5t98.5 -86t72.5 -98.5t28 -112q0 -83 -50.5 -152.5t-159.5 -119.5t-281.5 -55t-416.5 41l45 221q135 -37 244 -53.5t179 -13.5t117 19.5t67 42
t20 58.5q0 37 -27.5 75t-71.5 73.5t-97.5 73.5t-107 80t-97.5 87t-71.5 102t-27.5 117q0 76 34.5 146t95 123.5t149 85.5t190.5 32q164 0 253.5 -91t119.5 -271z" />
    <glyph glyph-name="T" unicode="T" 
d="M788 1075l-208 -1075h-230l207 1075h-364l38 195h961l-39 -195h-365z" />
    <glyph glyph-name="U" unicode="U" 
d="M373 471q-24 -112 -9 -179.5t54.5 -95.5t105.5 -28q92 0 150 61t84 191l164 850h227l-164 -846q-89 -453 -489 -453q-211 0 -306 125.5t-43 386.5l154 787h225z" />
    <glyph glyph-name="V" unicode="V" 
d="M623 0h-318q-72 678 -100 1262l227 16q14 -419 64 -1071h18q300 647 477 1063h230q-275 -625 -598 -1270z" />
    <glyph glyph-name="W" unicode="W" 
d="M637 0l-35 606l-270 -606h-219q6 190 42.5 533.5t94.5 736.5h225l-41 -270q-42 -271 -71 -467.5t-31 -225.5h8l258 582h127l31 -582h8q11 36 227 963h221q-198 -813 -350 -1270h-225z" />
    <glyph glyph-name="X" unicode="X" 
d="M739 -6l-182 485l-338 -479h-246l490 649l-246 615l236 12l184 -488l338 482h248l-494 -652l246 -612z" />
    <glyph glyph-name="Y" unicode="Y" 
d="M584 0h-228l82 424l-241 842l235 8l164 -637l395 633h244l-571 -860z" />
    <glyph glyph-name="Z" unicode="Z" 
d="M905 0h-870l35 193l780 882l-600 -4l39 199h848l-31 -193l-772 -882l608 4z" />
    <glyph glyph-name="bracketleft" unicode="[" 
d="M113 -367l350 1794h649l-35 -176h-432l-278 -1444h432l-35 -174h-651z" />
    <glyph glyph-name="backslash" unicode="\" 
d="M377 1489l555 -1825l-184 -59l-553 1827z" />
    <glyph glyph-name="bracketright" unicode="]" 
d="M1006 1430l-351 -1795h-649l35 175h432l279 1443h-433l35 177h652z" />
    <glyph glyph-name="asciicircum" unicode="^" 
d="M866 303l-268 436l-371 -438l-137 117l522 606l43 6l387 -614z" />
    <glyph glyph-name="underscore" unicode="_" 
d="M965 -104l-33 -168h-1008l31 168h1010z" />
    <glyph glyph-name="grave" unicode="`" 
d="M840 1227l-49 -90q-108 43 -259.5 126t-255.5 156l136 174q92 -92 214 -196.5t214 -169.5z" />
    <glyph glyph-name="a" unicode="a" 
d="M414 182q51 0 123.5 41.5t142.5 106.5q49 239 96 493q-98 33 -174 33q-78 0 -148 -76.5t-110.5 -194.5t-40.5 -239q0 -83 31 -123.5t80 -40.5zM1057 84q-93 -56 -163 -82t-115.5 -25.5t-72.5 26.5t-36 70.5t-4 110.5q-97 -93 -193.5 -151t-175.5 -58q-96 0 -155.5 81.5
t-59.5 236.5q0 142 45.5 276.5t125.5 239t201.5 168t262.5 63.5q151 0 305 -45l-139 -721q-6 -32 -8.5 -49t0.5 -32.5t12.5 -20t29.5 -4.5t47.5 7t71.5 20z" />
    <glyph glyph-name="b" unicode="b" 
d="M410 -25q-142 0 -322 58l270 1394l220 17l-115 -588q204 193 354 193q101 0 163 -89t62 -255q0 -111 -28 -217.5t-83.5 -199t-130.5 -162.5t-176 -110.5t-214 -40.5zM520 162q79 0 150.5 72.5t113 185t41.5 229.5q0 97 -35 147t-88 50q-54 0 -126.5 -43t-143.5 -111
l-96 -497q103 -33 184 -33z" />
    <glyph glyph-name="c" unicode="c" 
d="M1024 672l-201 -2q0 102 -32 145t-107 43q-141 0 -242.5 -134t-101.5 -314q0 -91 29.5 -145t98.5 -79.5t181.5 -18t280.5 45.5l20 -115q-163 -76 -301 -104t-234 -10t-163 70.5t-99 132t-32 180.5q0 177 84.5 334t229.5 251.5t310 94.5q154 0 222.5 -89t56.5 -286z" />
    <glyph glyph-name="d" unicode="d" 
d="M422 182q52 0 122.5 40t135.5 104l98 505q-100 33 -176 33q-78 0 -148.5 -74t-111.5 -186.5t-41 -226.5q0 -97 33.5 -146t87.5 -49zM1067 88q-96 -55 -168 -81.5t-118.5 -27t-74 24t-36.5 67.5t-4 107q-93 -91 -187 -147t-172 -56q-98 0 -160.5 88t-62.5 252
q0 110 28 217t82.5 199.5t129 163.5t174.5 111.5t211 40.5q51 0 110 -9l76 389l219 17l-229 -1172q-5 -42 -7.5 -68t16 -34t52.5 -2t103 27z" />
    <glyph glyph-name="e" unicode="e" 
d="M983 119q-168 -85 -312 -119t-246 -18.5t-174.5 67.5t-107 133t-34.5 183q0 97 31 196t88.5 186t133.5 155t173 107.5t200 39.5q139 0 219 -68.5t80 -187.5q0 -177 -183 -283t-532 -131q3 -115 64.5 -166t199 -47t375.5 65zM678 868q-128 0 -223 -108.5t-125 -259.5
q238 19 367.5 80t129.5 165q0 55 -40.5 89t-108.5 34z" />
    <glyph glyph-name="f" unicode="f" 
d="M842 29q0 -112 -54 -203.5t-140.5 -141t-186.5 -49.5q-145 0 -232.5 123t-87.5 361q0 179 49 377l-88 32l33 138h107q77 214 192.5 389.5t256 282t274.5 106.5q71 0 118 -30t63.5 -84t6 -123.5t-55.5 -154t-120 -169.5l-94 39q59 80 78 147.5t-3.5 106t-78.5 38.5
q-112 0 -230.5 -156t-197.5 -392l575 2l-33 -179l-426 11q275 -228 275 -471zM541 -193q69 0 112 50t43 133q0 110 -75.5 226t-231.5 226q-33 -172 -33 -311q0 -171 51 -247.5t134 -76.5z" />
    <glyph glyph-name="g" unicode="g" 
d="M451 254q118 0 237 147q21 202 98 410q-102 55 -184 55q-79 0 -147 -68t-104 -167t-36 -199q0 -90 37 -134t99 -44zM877 -141q-123 -241 -801 -209l22 211q271 -18 413 -5t175 48q11 11 15.5 33.5t3.5 57t-4 69t-8 87t-7 93.5q-176 -187 -344 -187q-108 0 -176 80.5
t-68 233.5q0 126 43.5 247t119 215.5t186.5 152.5t237 58q106 0 199 -43q36 52 65 52q42 0 92 -24.5t50 -51.5q0 -67 -62 -228.5t-149 -316.5q-2 -20 -2 -57q0 -92 12.5 -210t12.5 -186.5t-25 -119.5z" />
    <glyph glyph-name="h" unicode="h" 
d="M1061 84q-98 -61 -176.5 -87t-127.5 -18t-74.5 42t-25.5 92q0 79 61.5 313t61.5 309q0 103 -88 103q-111 0 -276 -168l-129 -670h-215l276 1427l219 17l-116 -602q202 205 380 205q96 0 139.5 -55.5t43.5 -145.5q0 -87 -32 -224.5t-63.5 -255.5t-31.5 -159
q0 -25 10.5 -34.5t43 -4.5t97.5 27z" />
    <glyph glyph-name="i" unicode="i" 
d="M801 1186l-234 -10l66 278l254 12zM989 100q-134 -57 -242 -87.5t-184 -33.5t-128 16t-75.5 61t-26 102.5t20.5 140.5l146 535l-342 -29l-15 115l426 100h187l-178 -682q-9 -36 -13 -60t-1.5 -46t12 -33.5t30.5 -20t50.5 -9t75.5 4.5t102.5 15t134.5 26z" />
    <glyph glyph-name="j" unicode="j" 
d="M934 1186l-236 -10l70 284l252 13zM-14 -354l18 211q290 -8 367.5 -3t105.5 33q22 22 30 92.5t10.5 169t29 288.5t78.5 401l-383 -25l-17 113l459 96l203 -2q-66 -223 -104.5 -427.5t-48.5 -329.5t-17.5 -229t-25.5 -169.5t-58 -106.5q-64 -64 -194.5 -86.5t-452.5 -25.5
z" />
    <glyph glyph-name="k" unicode="k" 
d="M780 -14l-321 415q206 118 294.5 210.5t88.5 158.5q0 36 -23 56t-63 20q-133 0 -332 -205l-125 -641h-215l276 1427l220 17l-121 -623q221 226 424 226q93 0 144.5 -49t51.5 -132q0 -218 -374 -452l323 -400z" />
    <glyph glyph-name="l" unicode="l" 
d="M973 129q-290 -169 -477.5 -145t-239.5 237q-95 -57 -98 -59l-54 90q3 2 25 16.5t55.5 35.5t55.5 36q-2 18 -2 55q0 163 38.5 324t104 290t148.5 229t178 155t186 55q98 0 153.5 -60t55.5 -169q0 -195 -161.5 -422t-475.5 -457q23 -155 139 -176t334 76zM813 1233
q-54 0 -114.5 -59t-111.5 -157t-87 -240.5t-41 -295.5q222 187 331 354t109 289q0 53 -23.5 81t-62.5 28z" />
    <glyph glyph-name="m" unicode="m" 
d="M1071 41q-111 -46 -179 -56.5t-100 13t-32 82.5q0 65 64.5 349.5t64.5 342.5q0 59 -43 59q-56 0 -135 -73l-148 -758h-157l135 690q10 48 10.5 77t-10 46.5t-35.5 17.5q-62 0 -137 -75q-21 -109 -55 -285.5t-59 -305.5t-32 -165h-207q147 753 189 1012l196 12
q-1 -5 -3 -23.5t-5.5 -46.5t-5.5 -47q123 135 229 135q114 0 111 -153q144 153 266 153q121 0 121 -141q0 -78 -36 -239t-72.5 -306.5t-36.5 -185.5q0 -22 17.5 -25.5t64.5 9.5z" />
    <glyph glyph-name="n" unicode="n" 
d="M1061 84q-98 -61 -176.5 -87t-127.5 -18t-74.5 42t-25.5 92q0 78 61.5 311.5t61.5 310.5q0 103 -88 103q-109 0 -270 -158q-10 -52 -69 -346t-66 -334h-215q140 718 182 1014l215 12q-1 -5 -5.5 -36t-11 -74.5t-10.5 -77.5q206 209 389 209q96 0 139.5 -55.5t43.5 -145.5
q0 -87 -32 -224.5t-63.5 -255.5t-31.5 -159q0 -25 10.5 -34.5t43 -4.5t97.5 27z" />
    <glyph glyph-name="o" unicode="o" 
d="M94 393q0 175 71.5 325t199 240.5t282.5 90.5q178 0 282.5 -111.5t104.5 -308.5q0 -177 -71.5 -327t-199 -239.5t-282.5 -89.5q-180 0 -283.5 111t-103.5 309zM813 600q0 127 -52 196.5t-145 69.5q-86 0 -156 -63.5t-107.5 -164.5t-37.5 -216q0 -127 52 -196.5t145 -69.5
q86 0 156 63t107.5 164t37.5 217z" />
    <glyph glyph-name="p" unicode="p" 
d="M518 158q79 0 150 73.5t112 186t41 227.5q0 97 -33.5 146t-87.5 49t-129 -43t-143 -109q-21 -122 -94 -495q104 -35 184 -35zM229 -344l-215 -16q25 130 69 360t62.5 329.5t45.5 246t43.5 246t29.5 192.5l213 12q-8 -56 -28 -186q94 91 190.5 147.5t175.5 56.5
q99 0 162 -87t63 -250q0 -111 -28 -218t-83 -199.5t-130 -163t-175 -111t-212 -40.5q-54 0 -119 9q-16 -85 -38.5 -197.5t-25.5 -130.5z" />
    <glyph glyph-name="q" unicode="q" 
d="M1044 -260q-181 -93 -284 -107.5t-136 41t-10 181.5l58 301q-197 -181 -346 -181q-104 0 -171 88.5t-67 253.5q0 140 46 271t127.5 233t205.5 164t270 62q143 0 310 -60l-211 -1073q-5 -28 -6.5 -43t3.5 -28t16 -16.5t35.5 -2.5t56 7t83.5 19zM434 180q108 0 268 142
l97 509q-122 33 -189 33q-83 0 -154.5 -74t-111 -186t-39.5 -229q0 -96 36 -145.5t93 -49.5z" />
    <glyph glyph-name="r" unicode="r" 
d="M1038 66q-380 -170 -452 -6q-74 170 168 720q-137 -39 -260 -45q-120 -216 -340 -436l-80 82q195 227 266 364q-56 12 -87.5 41.5t-31.5 73.5q0 80 78 155t168 75q48 0 76 -30t28 -83q0 -29 -6 -59q210 34 371 114l104 -51q-215 -520 -240 -686q-18 -120 43 -140
q46 -15 181 23z" />
    <glyph glyph-name="s" unicode="s" 
d="M971 295q0 -54 -21 -100t-73.5 -88.5t-134 -70.5t-210.5 -42.5t-296 -9.5l4 198q198 -17 312 -6t157 36t43 71q0 41 -32.5 91t-98 124.5t-95.5 115.5q-149 -109 -340 -211l-49 101q231 151 320 231q-25 58 -25 113q0 101 81 173.5t179 72.5q43 0 73.5 -15t43.5 -44
t8.5 -68.5t-35 -92t-84.5 -110.5q23 -42 74.5 -107.5t92.5 -117t73.5 -119t32.5 -125.5z" />
    <glyph glyph-name="t" unicode="t" 
d="M950 106q-97 -50 -182.5 -82t-153.5 -43.5t-123.5 -7.5t-94.5 24.5t-66 53.5t-39 78.5t-11 101t15 119.5l111 494h-189l43 170h123l176 284l166 13l-66 -297h369l-33 -170h-374l-107 -482q-25 -98 -1 -148.5t123 -50.5t300 54z" />
    <glyph glyph-name="u" unicode="u" 
d="M1069 84q-114 -68 -194.5 -93t-126 -7.5t-62.5 66.5t-8 132q-188 -209 -352 -209q-120 0 -167 96t-7 281l73 342l-100 66l172 258l215 14l-141 -651q-45 -197 73 -197t265 176l129 662h213l-146 -746q-15 -57 -8 -83t39.5 -25t112.5 29z" />
    <glyph glyph-name="v" unicode="v" 
d="M520 223q139 255 410 797h225q-266 -523 -557 -1028h-268q-105 584 -156 1020l219 16q39 -359 111 -805h16z" />
    <glyph glyph-name="w" unicode="w" 
d="M633 0l-66 483l-252 -483h-204q15 407 102 1018h217q-35 -191 -123 -758h6l248 492h133l58 -494h10q136 620 164 760h227q-108 -415 -313 -1018h-207z" />
    <glyph glyph-name="x" unicode="x" 
d="M709 -4l-183 389l-317 -385h-234l447 510l-250 504l242 10l184 -389l317 385h234l-447 -510l250 -504z" />
    <glyph glyph-name="y" unicode="y" 
d="M879 -139q-124 -240 -783 -209l31 211q265 -18 399.5 -6t169.5 45q12 12 18 33t7 60.5t0 68t-5 93t-5 97.5q-88 -84 -190 -136t-197 -52q-382 0 -29 950l213 8q-67 -188 -105 -327t-49.5 -221.5t-2 -132t31 -66.5t57.5 -17q54 0 125.5 38.5t145.5 109.5q6 145 46 296
t90.5 243.5t88.5 92.5q50 0 100.5 -18.5t50.5 -48.5q0 -78 -55 -247t-135 -314v-13q0 -59 9 -189t4.5 -212t-31.5 -137z" />
    <glyph glyph-name="z" unicode="z" 
d="M881 0h-824l37 184l692 650l-565 -7l51 193h805l-37 -184l-690 -650l584 7z" />
    <glyph glyph-name="braceleft" unicode="{" 
d="M731 -432q-295 131 -413.5 222t-118.5 192q0 51 25 96.5t60.5 78t71.5 61.5t61 58.5t25 57.5q0 100 -254 137l33 156q307 15 307 116q0 25 -20.5 64t-45 74t-45 83.5t-20.5 92.5q0 271 693 436l40 -182q-277 -52 -400.5 -107.5t-123.5 -126.5q0 -33 31 -87.5t62.5 -113
t31.5 -100.5q0 -69 -63.5 -131.5t-194.5 -95.5q182 -61 182 -180q0 -42 -24 -81.5t-58.5 -70.5t-68.5 -61t-58 -64.5t-24 -68.5q0 -67 94 -134t307 -157z" />
    <glyph glyph-name="bar" unicode="|" 
d="M637 1454l209 6l-359 -1833h-206z" />
    <glyph glyph-name="braceright" unicode="}" 
d="M31 -432l-39 184q274 51 399 106.5t125 125.5q0 27 -19.5 67.5t-43 76t-43 79.5t-19.5 78q0 70 64 132.5t194 94.5q-184 63 -184 182q0 42 24 81.5t58.5 70.5t68.5 61t58 64.5t24 68.5q0 66 -93.5 133t-305.5 158l90 164q295 -130 414 -222t119 -192q0 -51 -25 -96.5
t-61 -78t-72 -61.5t-61 -58.5t-25 -57.5q0 -100 254 -137l-33 -156q-307 -15 -307 -117q0 -25 20.5 -63.5t45 -73.5t45 -83.5t20.5 -92.5q0 -271 -692 -438z" />
    <glyph glyph-name="asciitilde" unicode="~" 
d="M766 391q-47 0 -95 27t-86 66t-73 78t-67.5 66t-57.5 27q-73 0 -188 -254l-136 60q171 397 361 397q46 0 92.5 -27t83.5 -66t70.5 -78t65.5 -66t57 -27q71 0 190 254l135 -60q-89 -201 -172.5 -299t-179.5 -98z" />
    <glyph glyph-name="uni00A0" unicode="&#xa0;" 
 />
    <glyph glyph-name="exclamdown" unicode="&#xa1;" 
d="M569 1270h277l-53 -269h-277zM526 768h150q-11 -53 -57 -450.5t-52 -434.5h-286q8 31 121 431t124 454z" />
    <glyph glyph-name="cent" unicode="&#xa2;" 
d="M346 535q0 -148 172 -218l103 461q-150 -25 -212.5 -87.5t-62.5 -155.5zM872 53q-122 5 -243 25l-51 -250h-197l70 297q-155 56 -233.5 151t-78.5 220q0 61 16.5 119.5t54.5 117t95 106.5t144.5 86t195.5 58l57 287h195l-59 -269q108 4 198 -4l-39 -211q-133 10 -215 7
l-114 -519q114 -21 239 -26z" />
    <glyph glyph-name="sterling" unicode="&#xa3;" 
d="M1024 281q-25 -68 -48 -117t-53.5 -84.5t-57 -57t-71.5 -29t-82 -8t-103.5 12.5t-122 27t-150.5 41q-93 -93 -213 -93q-104 0 -138 66q-28 56 12 120q49 78 161 98q38 6 80 5q26 98 49 250h-158l33 162h145q28 208 88 327q62 125 176.5 211t251.5 86q150 0 217 -101.5
t64 -303.5l-207 -12q0 118 -31.5 166.5t-91.5 48.5q-59 0 -109.5 -42t-84.5 -110q-45 -90 -66 -270h358l-30 -162h-348q-17 -166 -58 -279q201 -44 267 -46q102 -3 164 56q33 31 65 83z" />
    <glyph glyph-name="yen" unicode="&#xa5;" 
d="M956 250h-335l-48 -250h-215l50 250h-340l30 162h342l13 55l-33 100h-291l31 160h211l-168 539l221 8l178 -619l389 615h230l-375 -543h205l-31 -160h-283l-80 -114l-8 -41h340z" />
    <glyph glyph-name="section" unicode="&#xa7;" 
d="M328 520q0 -25 17 -49t52 -46.5t69.5 -41t85.5 -43.5q11 -5 17 -8q242 56 242 143q0 18 -11 36.5t-26.5 33t-45 33t-52 30.5t-62.5 33.5t-63 34.5q-94 -20 -158.5 -61.5t-64.5 -94.5zM868 47q0 -54 -28.5 -102.5t-93 -89t-158 -62.5t-236 -19t-313.5 36l49 202
q123 -31 220 -46t158.5 -15.5t101.5 10.5t56.5 29t16.5 43q0 33 -38.5 65t-96.5 58t-125 60.5t-125 69t-96.5 86.5t-38.5 111q0 98 86 168t223 103q-117 95 -117 204q0 83 54.5 159t155 125t222.5 50q145 0 220.5 -80t99.5 -243l-191 -39q-19 97 -61 140.5t-115 43.5
q-71 0 -116 -37.5t-45 -91.5q0 -41 36 -80.5t89.5 -70t116 -67.5t116 -72t89.5 -84.5t36 -104.5q0 -87 -79 -147t-232 -101q159 -97 159 -211z" />
    <glyph glyph-name="dieresis" unicode="&#xa8;" 
d="M899 1182l-231 -2l67 274l252 6zM451 1178l-234 -2l68 276l252 2z" />
    <glyph glyph-name="copyright" unicode="&#xa9;" 
d="M653 1255q191 0 307.5 -130.5t116.5 -366.5q0 -212 -68 -381t-195.5 -266t-293.5 -97q-193 0 -314.5 133.5t-121.5 370.5q0 210 76 379.5t206 263.5t287 94zM637 1139q-178 0 -301 -172t-123 -428q0 -196 91.5 -302t234.5 -106q123 0 217 80t143 217t49 307
q0 198 -86 301t-225 103zM645 969q79 0 117.5 -60.5t32.5 -179.5l-121 -2q3 102 -53 102q-54 0 -91.5 -77.5t-37.5 -176.5q0 -96 54 -123t185 9l-22 -129q-175 -61 -268 1.5t-93 215.5q0 109 39 205.5t108 155.5t150 59z" />
    <glyph glyph-name="ordfeminine" unicode="&#xaa;" 
d="M506 659q37 0 89.5 31.5t102.5 79.5q24 128 70 352q-79 21 -117 21q-65 0 -122 -51t-89 -130.5t-32 -164.5q0 -66 28 -102t70 -36zM995 571q-87 -44 -150 -60t-100 -4t-52.5 45.5t-12.5 88.5q-157 -139 -270 -139q-81 0 -133 63.5t-52 179.5q0 138 59.5 260t173.5 200.5
t257 78.5q123 0 258 -33l-105 -530q-5 -31 -6 -50.5t11.5 -27.5t36.5 -6.5t71 12.5zM176 369h756l-29 -146h-753z" />
    <glyph glyph-name="guillemotleft" unicode="&#xab;" 
d="M330 -27l-262 428l45 224l415 430l138 -137l-422 -414l266 -416zM827 -27l-260 437l49 221l418 420l135 -142l-424 -403l261 -422z" />
    <glyph glyph-name="registered" unicode="&#xae;" 
d="M666 1391q211 0 333.5 -122t122.5 -331q0 -246 -144.5 -400.5t-373.5 -154.5q-209 0 -333 123t-124 332q0 245 145.5 399t373.5 154zM662 1282q-175 0 -286.5 -117t-111.5 -313q0 -169 94 -264.5t252 -95.5q174 0 285 117.5t111 314.5q0 169 -93 263.5t-251 94.5z
M698 655l-96 174l-31 -4l-30 -163h-123l90 458q174 23 256 -11t82 -105q0 -91 -129 -148l110 -186z" />
    <glyph glyph-name="macron" unicode="&#xaf;" 
d="M950 1411l-35 -182h-708l37 182h706z" />
    <glyph glyph-name="degree" unicode="&#xb0;" 
d="M688 1395q151 0 247.5 -97t96.5 -258q0 -123 -59.5 -221.5t-154.5 -150.5t-204 -52q-150 0 -246 97t-96 258q0 123 59 221.5t153.5 150.5t203.5 52zM637 782q94 0 156.5 67.5t62.5 174.5q0 90 -52 148.5t-136 58.5q-94 0 -156.5 -68.5t-62.5 -175.5q0 -90 52 -147.5
t136 -57.5z" />
    <glyph glyph-name="plusminus" unicode="&#xb1;" 
d="M922 100h-873l37 185h334l63 321h-338l37 185h336l70 354h200l-69 -354h338l-37 -185h-336l-63 -321h335z" />
    <glyph glyph-name="two.sup" unicode="&#xb2;" 
d="M883 672h-600v133q106 62 172.5 102.5t135.5 88t106 83.5t61 74t24 74q0 147 -372 98l22 152q261 39 400 -18t139 -189q0 -112 -103.5 -214.5t-328.5 -236.5h374z" />
    <glyph glyph-name="three.sup" unicode="&#xb3;" 
d="M926 909q0 -54 -33 -101t-108 -86t-195.5 -52.5t-294.5 0.5l20 153q170 -20 267 -10t133.5 31t36.5 53q0 42 -79.5 81.5t-244.5 70.5l10 71l348 215h-366l29 146h548l-18 -144l-336 -213q283 -68 283 -215z" />
    <glyph glyph-name="acute" unicode="&#xb4;" 
d="M303 1241q102 59 238 159t227 185l143 -172q-101 -72 -265.5 -147t-301.5 -121z" />
    <glyph glyph-name="mu" unicode="&#xb5;" 
d="M229 -344l-217 -16l267 1372l219 16l-129 -657q-19 -97 -1 -143t76 -46q118 0 265 176l129 662h213l-146 -746q-15 -57 -8 -83t39.5 -25t112.5 29l20 -111q-115 -68 -195.5 -93t-126 -7.5t-62.5 67.5t-7 133q-83 -103 -157.5 -152.5t-151.5 -49.5q-49 0 -84 14z" />
    <glyph glyph-name="paragraph" unicode="&#xb6;" 
d="M786 360l140 709q-86 9 -156 6l-135 -692q62 -17 151 -23zM344 700q0 -85 41.5 -153.5t120.5 -112.5l121 621q-143 -38 -213 -134t-70 -221zM520 -217l-182 -21l94 480q-144 60 -218.5 167t-74.5 250q0 144 67 262.5t192 202.5t317.5 125t431.5 27l-283 -1446l-186 -20
l72 366q-64 2 -150 17z" />
    <glyph glyph-name="periodcentered" unicode="&#xb7;" 
d="M702 477h-307l56 285h307z" />
    <glyph glyph-name="cedilla" unicode="&#xb8;" 
d="M328 -311l-113 37q67 162 145 239.5t172 77.5q116 0 186.5 -103.5t59.5 -297.5l-190 -4q14 249 -82 249q-81 0 -178 -198z" />
    <glyph glyph-name="one.sup" unicode="&#xb9;" 
d="M901 672h-622l28 143h240l82 410l-234 -6l23 131l241 26l25 121l172 14l-139 -694h219z" />
    <glyph glyph-name="ordmasculine" unicode="&#xba;" 
d="M1012 969q0 -123 -57 -230t-159.5 -172t-226.5 -65q-143 0 -227 85t-84 232q0 122 57 229t160 172.5t227 65.5q142 0 226 -85t84 -232zM440 838q0 -91 41 -143t113 -52q103 0 170 91t67 216q0 92 -41.5 143.5t-113.5 51.5q-103 0 -169.5 -91t-66.5 -216zM186 369h693
l-29 -146h-690z" />
    <glyph glyph-name="guillemotright" unicode="&#xbb;" 
d="M643 -25l-139 136l422 413l-267 416l181 117l264 -430l-47 -221zM135 -23l-135 142l424 401l-258 424l178 113l260 -436l-51 -224z" />
    <glyph glyph-name="onequarter" unicode="&#xbc;" 
d="M942 870h-623l29 144h240l82 409l-234 -6l23 131l241 27l25 121l172 14l-139 -694h219zM117 555l28 139h893l-28 -139h-893zM760 -279h-90l-31 -151h-158l29 151h-408l13 119q79 135 133 258t106 291l185 -8q-57 -166 -116 -284.5t-136 -231.5h252l47 241l162 13
l-52 -254h105z" />
    <glyph glyph-name="onehalf" unicode="&#xbd;" 
d="M942 870h-623l29 144h240l82 409l-234 -6l23 131l241 27l25 121l172 14l-139 -694h219zM117 555l28 139h893l-28 -139h-893zM694 -430h-600v133q106 62 172 102.5t135.5 88t107 83.5t61.5 74t24 74q0 147 -373 98l23 152q261 39 399.5 -18t138.5 -189
q0 -112 -103.5 -214.5t-328.5 -236.5h375z" />
    <glyph glyph-name="threequarters" unicode="&#xbe;" 
d="M967 1108q0 -54 -33 -101t-108 -86.5t-195.5 -53t-294.5 0.5l20 154q170 -20 267 -10t133.5 31t36.5 53q0 90 -324 151l10 72l348 215h-366l28 145h549l-18 -143l-336 -213q283 -68 283 -215zM117 555l28 139h893l-28 -139h-893zM760 -279h-90l-31 -151h-158l29 151h-408
l13 119q79 135 133 258t106 291l185 -8q-57 -166 -116 -284.5t-136 -231.5h252l47 241l162 13l-52 -254h105z" />
    <glyph glyph-name="questiondown" unicode="&#xbf;" 
d="M680 1270h274l-55 -264h-272zM897 98l-49 -219q-376 38 -555.5 127t-179.5 238q0 132 144 265.5t468 293.5l70 -117q-241 -126 -337 -205.5t-96 -156.5q0 -95 126.5 -144t408.5 -82z" />
    <glyph glyph-name="Agrave" unicode="&#xc0;" 
d="M1049 1479l-50 -90q-108 43 -259 126t-255 156l136 174q92 -92 214 -196.5t214 -169.5zM754 -8q-3 56 -9.5 175.5t-9.5 182.5h-381q-7 -17 -63 -149t-84 -201h-230q262 601 588 1272h314q62 -665 100 -1264zM676 1077q-227 -509 -248 -557h299q-6 116 -35 557h-16z" />
    <glyph glyph-name="Aacute" unicode="&#xc1;" 
d="M479 1493q102 59 238 159t227 185l143 -172q-101 -72 -265.5 -147t-301.5 -121zM754 -8q-3 56 -9.5 175.5t-9.5 182.5h-381q-7 -17 -63 -149t-84 -201h-230q262 601 588 1272h314q62 -665 100 -1264zM676 1077q-227 -509 -248 -557h299q-6 116 -35 557h-16z" />
    <glyph glyph-name="Acircumflex" unicode="&#xc2;" 
d="M999 1393l-200 217l-307 -209l-99 112l438 299h13l305 -305zM754 -8q-3 56 -9.5 175.5t-9.5 182.5h-381q-7 -17 -63 -149t-84 -201h-230q262 601 588 1272h314q62 -665 100 -1264zM676 1077q-227 -509 -248 -557h299q-6 116 -35 557h-16z" />
    <glyph glyph-name="Atilde" unicode="&#xc3;" 
d="M948 1583q56 0 172 176l107 -61q-79 -132 -161 -207.5t-161 -75.5q-46 0 -90 30t-72 65.5t-60 65.5t-56 30q-32 0 -73 -43.5t-97 -130.5l-109 61q76 130 159.5 204.5t162.5 74.5q37 0 72.5 -19.5t62.5 -47t51 -55.5t47.5 -47.5t44.5 -19.5zM754 -8q-3 56 -9.5 175.5
t-9.5 182.5h-381q-7 -17 -63 -149t-84 -201h-230q262 601 588 1272h314q62 -665 100 -1264zM676 1077q-227 -509 -248 -557h299q-6 116 -35 557h-16z" />
    <glyph glyph-name="Adieresis" unicode="&#xc4;" 
d="M1079 1434l-231 -2l67 274l252 6zM631 1430l-234 -3l68 277l252 2zM754 -8q-3 56 -9.5 175.5t-9.5 182.5h-381q-7 -17 -63 -149t-84 -201h-230q262 601 588 1272h314q62 -665 100 -1264zM676 1077q-227 -509 -248 -557h299q-6 116 -35 557h-16z" />
    <glyph glyph-name="Aring" unicode="&#xc5;" 
d="M807 1819q113 0 183.5 -59t70.5 -144q0 -97 -84 -166.5t-209 -69.5q-114 0 -185 59t-71 146q0 97 84 165.5t211 68.5zM754 -8q-3 56 -9.5 175.5t-9.5 182.5h-381q-7 -17 -63 -149t-84 -201h-230q262 601 588 1272h314q62 -665 100 -1264zM676 1077q-227 -509 -248 -557
h299q-6 116 -35 557h-16z" />
    <glyph glyph-name="AE" unicode="&#xc6;" 
d="M666 1083q-45 -97 -134.5 -288.5t-134.5 -288.5h176l113 577h-20zM475 0l68 342h-221q-30 -64 -86 -181.5t-76 -160.5h-221q291 591 634 1270h660l-37 -187h-317l-72 -366h258l-31 -156h-258l-74 -375h328l-47 -186h-508z" />
    <glyph glyph-name="Ccedilla" unicode="&#xc7;" 
d="M752 -381l-191 -4q14 250 -82 250q-81 0 -178 -199l-113 37q93 227 215 293q-139 41 -211.5 160.5t-72.5 306.5q0 160 51.5 312.5t138.5 267t208 184t253 69.5q177 0 246.5 -119t58.5 -372l-215 -4q5 162 -22.5 228.5t-114.5 66.5q-105 0 -193.5 -92t-136 -228.5
t-47.5 -277.5q0 -233 148.5 -296t463.5 44l-22 -203q-166 -56 -297 -68q127 -99 113 -356z" />
    <glyph glyph-name="Egrave" unicode="&#xc8;" 
d="M1063 1477l-49 -91q-107 43 -258 126t-256 157l135 174q92 -92 214 -196.5t214 -169.5zM922 190l-52 -190h-772l246 1270h778l-37 -191h-550l-70 -358h467l-33 -166h-467l-72 -365h562z" />
    <glyph glyph-name="Eacute" unicode="&#xc9;" 
d="M494 1491q102 59 237.5 159t226.5 185l144 -172q-101 -72 -265.5 -147t-301.5 -121zM922 190l-52 -190h-772l246 1270h778l-37 -191h-550l-70 -358h467l-33 -166h-467l-72 -365h562z" />
    <glyph glyph-name="Ecircumflex" unicode="&#xca;" 
d="M1012 1391l-201 217l-307 -209l-98 112l438 299h12l305 -305zM922 190l-52 -190h-772l246 1270h778l-37 -191h-550l-70 -358h467l-33 -166h-467l-72 -365h562z" />
    <glyph glyph-name="Edieresis" unicode="&#xcb;" 
d="M1092 1432l-232 -2l68 274l252 6zM643 1427l-233 -2l67 277l252 2zM922 190l-52 -190h-772l246 1270h778l-37 -191h-550l-70 -358h467l-33 -166h-467l-72 -365h562z" />
    <glyph glyph-name="Igrave" unicode="&#xcc;" 
d="M1030 1477l-49 -91q-107 43 -258 126t-256 157l135 174q92 -92 214 -196.5t214 -169.5zM604 180h295l-43 -180h-799l35 180h285l176 910h-289l35 180h799l-33 -180h-285z" />
    <glyph glyph-name="Iacute" unicode="&#xcd;" 
d="M461 1491q102 59 238 159t227 185l143 -172q-101 -72 -265.5 -147t-301.5 -121zM604 180h295l-43 -180h-799l35 180h285l176 910h-289l35 180h799l-33 -180h-285z" />
    <glyph glyph-name="Icircumflex" unicode="&#xce;" 
d="M979 1391l-201 217l-307 -209l-98 112l438 299h12l305 -305zM604 180h295l-43 -180h-799l35 180h285l176 910h-289l35 180h799l-33 -180h-285z" />
    <glyph glyph-name="Idieresis" unicode="&#xcf;" 
d="M1061 1432l-232 -2l68 274l252 6zM612 1427l-233 -2l67 277l252 2zM604 180h295l-43 -180h-799l35 180h285l176 910h-289l35 180h799l-33 -180h-285z" />
    <glyph glyph-name="Eth" unicode="&#xd0;" 
d="M1081 793q0 -119 -24.5 -226.5t-77 -206t-133 -172.5t-193 -126t-257.5 -66.5t-326 6.5l108 561h-129l31 158h129l104 543q384 63 576 -56.5t192 -414.5zM623 563h-220l-73 -385q127 -8 229 37t165 128.5t96.5 193t33.5 233.5q0 358 -348 324l-72 -373h230z" />
    <glyph glyph-name="Ntilde" unicode="&#xd1;" 
d="M954 1585q56 0 172 176l107 -61q-79 -132 -161 -207.5t-161 -75.5q-46 0 -90 30t-72 65.5t-60 65.5t-56 30q-32 0 -73 -43.5t-97 -130.5l-109 61q76 130 159.5 204.5t162.5 74.5q37 0 72.5 -19.5t62.5 -47t51 -55.5t47.5 -47.5t44.5 -19.5zM707 0l-261 870h-10l-162 -870
h-213l246 1266l219 8l242 -864h10l160 860h213l-246 -1270h-198z" />
    <glyph glyph-name="Ograve" unicode="&#xd2;" 
d="M1057 1505l-49 -90q-107 43 -258 126t-256 157l135 174q93 -93 214.5 -198t213.5 -169zM709 1294q179 0 285 -120t106 -361q0 -162 -45 -314.5t-123.5 -268.5t-192.5 -186.5t-243 -70.5q-177 0 -283.5 120.5t-106.5 361.5q0 129 28.5 253.5t82.5 229.5t127 185
t167.5 125.5t197.5 45.5zM522 170q98 0 177.5 94.5t121 239t41.5 301.5q0 148 -47.5 221.5t-132.5 73.5q-97 0 -176 -95t-120.5 -239.5t-41.5 -300.5q0 -149 46.5 -222t131.5 -73z" />
    <glyph glyph-name="Oacute" unicode="&#xd3;" 
d="M487 1520q102 59 238 159t227 185l144 -172q-102 -72 -267 -147.5t-301 -121.5zM709 1294q179 0 285 -120t106 -361q0 -162 -45 -314.5t-123.5 -268.5t-192.5 -186.5t-243 -70.5q-177 0 -283.5 120.5t-106.5 361.5q0 129 28.5 253.5t82.5 229.5t127 185t167.5 125.5
t197.5 45.5zM522 170q98 0 177.5 94.5t121 239t41.5 301.5q0 148 -47.5 221.5t-132.5 73.5q-97 0 -176 -95t-120.5 -239.5t-41.5 -300.5q0 -149 46.5 -222t131.5 -73z" />
    <glyph glyph-name="Ocircumflex" unicode="&#xd4;" 
d="M1006 1419l-201 217l-307 -209l-99 113l439 299h12l305 -305zM709 1294q179 0 285 -120t106 -361q0 -162 -45 -314.5t-123.5 -268.5t-192.5 -186.5t-243 -70.5q-177 0 -283.5 120.5t-106.5 361.5q0 129 28.5 253.5t82.5 229.5t127 185t167.5 125.5t197.5 45.5zM522 170
q98 0 177.5 94.5t121 239t41.5 301.5q0 148 -47.5 221.5t-132.5 73.5q-97 0 -176 -95t-120.5 -239.5t-41.5 -300.5q0 -149 46.5 -222t131.5 -73z" />
    <glyph glyph-name="Otilde" unicode="&#xd5;" 
d="M954 1610q56 0 172 176l107 -62q-168 -282 -322 -282q-37 0 -73 19.5t-62.5 47.5t-51 56t-48 47.5t-43.5 19.5q-32 0 -73 -43.5t-97 -130.5l-109 62q76 130 159 204t163 74q37 0 72.5 -19.5t62.5 -47t51 -55t47.5 -47t44.5 -19.5zM709 1294q179 0 285 -120t106 -361
q0 -162 -45 -314.5t-123.5 -268.5t-192.5 -186.5t-243 -70.5q-177 0 -283.5 120.5t-106.5 361.5q0 129 28.5 253.5t82.5 229.5t127 185t167.5 125.5t197.5 45.5zM522 170q98 0 177.5 94.5t121 239t41.5 301.5q0 148 -47.5 221.5t-132.5 73.5q-97 0 -176 -95t-120.5 -239.5
t-41.5 -300.5q0 -149 46.5 -222t131.5 -73z" />
    <glyph glyph-name="Odieresis" unicode="&#xd6;" 
d="M1085 1460l-231 -2l68 275l252 6zM637 1456l-234 -2l68 277l252 2zM709 1294q179 0 285 -120t106 -361q0 -162 -45 -314.5t-123.5 -268.5t-192.5 -186.5t-243 -70.5q-177 0 -283.5 120.5t-106.5 361.5q0 129 28.5 253.5t82.5 229.5t127 185t167.5 125.5t197.5 45.5z
M522 170q98 0 177.5 94.5t121 239t41.5 301.5q0 148 -47.5 221.5t-132.5 73.5q-97 0 -176 -95t-120.5 -239.5t-41.5 -300.5q0 -149 46.5 -222t131.5 -73z" />
    <glyph glyph-name="multiply" unicode="&#xd7;" 
d="M801 172l-238 295l-338 -283l-123 150l342 282l-239 297l160 134l237 -297l340 280l119 -149l-338 -281l238 -297z" />
    <glyph glyph-name="Oslash" unicode="&#xd8;" 
d="M346 471q0 -32 4 -78l461 635q-49 78 -137 78q-96 0 -172.5 -92t-116 -236t-39.5 -307zM532 164q95 0 171.5 92t116.5 236.5t40 306.5q0 36 -4 86l-465 -637q46 -84 141 -84zM504 -29q-142 0 -236 76l-100 -137l-129 84l129 178q-57 120 -57 301q0 161 44.5 311.5
t121.5 264t188 181.5t237 68q140 0 234 -73l98 135l129 -84l-129 -176q60 -120 60 -303q0 -162 -44.5 -312t-121 -264t-187.5 -182t-237 -68z" />
    <glyph glyph-name="Ugrave" unicode="&#xd9;" 
d="M1051 1477l-50 -91q-107 43 -258 126t-256 157l136 174q92 -92 214 -196.5t214 -169.5zM373 471q-24 -112 -9 -179.5t54.5 -95.5t105.5 -28q92 0 150 61t84 191l164 850h227l-164 -846q-89 -453 -489 -453q-211 0 -306 125.5t-43 386.5l154 787h225z" />
    <glyph glyph-name="Uacute" unicode="&#xda;" 
d="M481 1491q102 59 238 159t227 185l144 -172q-101 -72 -266 -147t-302 -121zM373 471q-24 -112 -9 -179.5t54.5 -95.5t105.5 -28q92 0 150 61t84 191l164 850h227l-164 -846q-89 -453 -489 -453q-211 0 -306 125.5t-43 386.5l154 787h225z" />
    <glyph glyph-name="Ucircumflex" unicode="&#xdb;" 
d="M999 1391l-200 217l-307 -209l-99 112l438 299h13l305 -305zM373 471q-24 -112 -9 -179.5t54.5 -95.5t105.5 -28q92 0 150 61t84 191l164 850h227l-164 -846q-89 -453 -489 -453q-211 0 -306 125.5t-43 386.5l154 787h225z" />
    <glyph glyph-name="Udieresis" unicode="&#xdc;" 
d="M1079 1432l-231 -2l67 274l252 6zM631 1427l-234 -2l68 277l252 2zM373 471q-24 -112 -9 -179.5t54.5 -95.5t105.5 -28q92 0 150 61t84 191l164 850h227l-164 -846q-89 -453 -489 -453q-211 0 -306 125.5t-43 386.5l154 787h225z" />
    <glyph glyph-name="Yacute" unicode="&#xdd;" 
d="M471 1495q102 59 238 159t227 185l143 -172q-101 -72 -265.5 -147t-301.5 -121zM584 0h-228l82 424l-241 842l235 8l164 -637l395 633h244l-571 -860z" />
    <glyph glyph-name="Thorn" unicode="&#xde;" 
d="M311 0h-225l248 1270h227l-35 -176q280 4 416.5 -93.5t136.5 -263.5q0 -222 -193 -366.5t-538 -182.5zM856 698q0 114 -95 169.5t-274 31.5l-100 -510q222 -10 345.5 77t123.5 232z" />
    <glyph glyph-name="germandbls" unicode="&#xdf;" 
d="M436 -16l23 198q189 -19 270.5 3.5t81.5 90.5q0 137 -281 383q170 181 238 282.5t68 188.5q0 60 -32 97t-91 37q-85 0 -146.5 -79.5t-91.5 -236.5l-184 -948h-219l182 936q46 236 183.5 372t334.5 136q141 0 215 -74.5t74 -185.5q0 -112 -69.5 -224.5t-207.5 -252.5
q250 -225 250 -406q0 -70 -31.5 -127.5t-99 -104t-187 -69.5t-280.5 -16z" />
    <glyph glyph-name="agrave" unicode="&#xe0;" 
d="M1040 1247l-49 -90q-107 43 -258 126t-256 157l135 174q93 -93 214.5 -198t213.5 -169zM414 182q51 0 123.5 41.5t142.5 106.5q49 239 96 493q-98 33 -174 33q-78 0 -148 -76.5t-110.5 -194.5t-40.5 -239q0 -83 31 -123.5t80 -40.5zM1057 84q-93 -56 -163 -82
t-115.5 -25.5t-72.5 26.5t-36 70.5t-4 110.5q-97 -93 -193.5 -151t-175.5 -58q-96 0 -155.5 81.5t-59.5 236.5q0 142 45.5 276.5t125.5 239t201.5 168t262.5 63.5q151 0 305 -45l-139 -721q-6 -32 -8.5 -49t0.5 -32.5t12.5 -20t29.5 -4.5t47.5 7t71.5 20z" />
    <glyph glyph-name="aacute" unicode="&#xe1;" 
d="M471 1262q102 59 238 159t227 185l143 -172q-102 -72 -267 -148t-300 -121zM414 182q51 0 123.5 41.5t142.5 106.5q49 239 96 493q-98 33 -174 33q-78 0 -148 -76.5t-110.5 -194.5t-40.5 -239q0 -83 31 -123.5t80 -40.5zM1057 84q-93 -56 -163 -82t-115.5 -25.5
t-72.5 26.5t-36 70.5t-4 110.5q-97 -93 -193.5 -151t-175.5 -58q-96 0 -155.5 81.5t-59.5 236.5q0 142 45.5 276.5t125.5 239t201.5 168t262.5 63.5q151 0 305 -45l-139 -721q-6 -32 -8.5 -49t0.5 -32.5t12.5 -20t29.5 -4.5t47.5 7t71.5 20z" />
    <glyph glyph-name="acircumflex" unicode="&#xe2;" 
d="M989 1161l-201 217l-307 -209l-98 113l438 299h13l305 -305zM414 182q51 0 123.5 41.5t142.5 106.5q49 239 96 493q-98 33 -174 33q-78 0 -148 -76.5t-110.5 -194.5t-40.5 -239q0 -83 31 -123.5t80 -40.5zM1057 84q-93 -56 -163 -82t-115.5 -25.5t-72.5 26.5t-36 70.5
t-4 110.5q-97 -93 -193.5 -151t-175.5 -58q-96 0 -155.5 81.5t-59.5 236.5q0 142 45.5 276.5t125.5 239t201.5 168t262.5 63.5q151 0 305 -45l-139 -721q-6 -32 -8.5 -49t0.5 -32.5t12.5 -20t29.5 -4.5t47.5 7t71.5 20z" />
    <glyph glyph-name="atilde" unicode="&#xe3;" 
d="M938 1352q56 0 172 176l107 -62q-168 -282 -322 -282q-37 0 -73 19.5t-63 47.5t-51 56t-48 47.5t-44 19.5q-32 0 -73 -43.5t-97 -130.5l-108 62q76 130 159 204t162 74q37 0 72.5 -19.5t62.5 -47t51 -55t48 -47t45 -19.5zM414 182q51 0 123.5 41.5t142.5 106.5
q49 239 96 493q-98 33 -174 33q-78 0 -148 -76.5t-110.5 -194.5t-40.5 -239q0 -83 31 -123.5t80 -40.5zM1057 84q-93 -56 -163 -82t-115.5 -25.5t-72.5 26.5t-36 70.5t-4 110.5q-97 -93 -193.5 -151t-175.5 -58q-96 0 -155.5 81.5t-59.5 236.5q0 142 45.5 276.5t125.5 239
t201.5 168t262.5 63.5q151 0 305 -45l-139 -721q-6 -32 -8.5 -49t0.5 -32.5t12.5 -20t29.5 -4.5t47.5 7t71.5 20z" />
    <glyph glyph-name="adieresis" unicode="&#xe4;" 
d="M1069 1202l-231 -2l67 275l252 6zM621 1198l-234 -2l68 277l252 2zM414 182q51 0 123.5 41.5t142.5 106.5q49 239 96 493q-98 33 -174 33q-78 0 -148 -76.5t-110.5 -194.5t-40.5 -239q0 -83 31 -123.5t80 -40.5zM1057 84q-93 -56 -163 -82t-115.5 -25.5t-72.5 26.5
t-36 70.5t-4 110.5q-97 -93 -193.5 -151t-175.5 -58q-96 0 -155.5 81.5t-59.5 236.5q0 142 45.5 276.5t125.5 239t201.5 168t262.5 63.5q151 0 305 -45l-139 -721q-6 -32 -8.5 -49t0.5 -32.5t12.5 -20t29.5 -4.5t47.5 7t71.5 20z" />
    <glyph glyph-name="aring" unicode="&#xe5;" 
d="M799 1587q113 0 183.5 -59t70.5 -144q0 -97 -83.5 -166t-209.5 -69q-114 0 -185 59t-71 146q0 97 84 165t211 68zM414 182q51 0 123.5 41.5t142.5 106.5q49 239 96 493q-98 33 -174 33q-78 0 -148 -76.5t-110.5 -194.5t-40.5 -239q0 -83 31 -123.5t80 -40.5zM1057 84
q-93 -56 -163 -82t-115.5 -25.5t-72.5 26.5t-36 70.5t-4 110.5q-97 -93 -193.5 -151t-175.5 -58q-96 0 -155.5 81.5t-59.5 236.5q0 142 45.5 276.5t125.5 239t201.5 168t262.5 63.5q151 0 305 -45l-139 -721q-6 -32 -8.5 -49t0.5 -32.5t12.5 -20t29.5 -4.5t47.5 7t71.5 20z
" />
    <glyph glyph-name="ae" unicode="&#xe6;" 
d="M1069 123q-124 -79 -224.5 -112.5t-169.5 -22t-114 53t-67 112.5q-149 -166 -283 -166q-168 0 -168 270q0 142 37.5 281.5t101.5 248.5t156.5 176.5t193.5 67.5q119 0 226 -61q90 69 196 69q97 0 152 -60t55 -159q0 -75 -28 -143t-84.5 -127t-150.5 -101.5t-216 -60.5
q-2 -18 -2 -51q0 -91 32.5 -131.5t113.5 -35.5t223 60zM897 862q-64 0 -119.5 -103.5t-81.5 -250.5q69 15 122 48t82 73.5t43.5 79t14.5 73.5q0 80 -61 80zM332 182q61 0 143 111v4q0 147 38 282t105 240q-58 41 -120 41q-61 0 -115.5 -82t-85.5 -204.5t-31 -245.5
q0 -146 66 -146z" />
    <glyph glyph-name="ccedilla" unicode="&#xe7;" 
d="M737 -381l-190 -4q14 250 -82 250q-81 0 -178 -199l-113 37q89 220 209 289q-129 31 -195.5 131t-66.5 244q0 177 84.5 334t229.5 251.5t310 94.5q154 0 222.5 -89t56.5 -286l-201 -2q0 102 -32 145t-107 43q-141 0 -242.5 -134t-101.5 -314q0 -91 29.5 -145t98.5 -79.5
t181.5 -18t280.5 45.5l20 -115q-195 -89 -340 -110q66 -43 101 -136.5t26 -232.5z" />
    <glyph glyph-name="egrave" unicode="&#xe8;" 
d="M1022 1255l-49 -90q-107 43 -258 126t-256 157l135 174q93 -93 214.5 -198t213.5 -169zM983 119q-168 -85 -312 -119t-246 -18.5t-174.5 67.5t-107 133t-34.5 183q0 97 31 196t88.5 186t133.5 155t173 107.5t200 39.5q139 0 219 -68.5t80 -187.5q0 -177 -183 -283
t-532 -131q3 -115 64.5 -166t199 -47t375.5 65zM678 868q-128 0 -223 -108.5t-125 -259.5q238 19 367.5 80t129.5 165q0 55 -40.5 89t-108.5 34z" />
    <glyph glyph-name="eacute" unicode="&#xe9;" 
d="M453 1270q102 59 238 159t227 185l143 -172q-101 -72 -265.5 -147t-301.5 -121zM983 119q-168 -85 -312 -119t-246 -18.5t-174.5 67.5t-107 133t-34.5 183q0 97 31 196t88.5 186t133.5 155t173 107.5t200 39.5q139 0 219 -68.5t80 -187.5q0 -177 -183 -283t-532 -131
q3 -115 64.5 -166t199 -47t375.5 65zM678 868q-128 0 -223 -108.5t-125 -259.5q238 19 367.5 80t129.5 165q0 55 -40.5 89t-108.5 34z" />
    <glyph glyph-name="ecircumflex" unicode="&#xea;" 
d="M971 1169l-201 217l-307 -208l-98 112l438 299h12l305 -305zM983 119q-168 -85 -312 -119t-246 -18.5t-174.5 67.5t-107 133t-34.5 183q0 97 31 196t88.5 186t133.5 155t173 107.5t200 39.5q139 0 219 -68.5t80 -187.5q0 -177 -183 -283t-532 -131q3 -115 64.5 -166
t199 -47t375.5 65zM678 868q-128 0 -223 -108.5t-125 -259.5q238 19 367.5 80t129.5 165q0 55 -40.5 89t-108.5 34z" />
    <glyph glyph-name="edieresis" unicode="&#xeb;" 
d="M1051 1210l-232 -2l68 275l252 6zM602 1206l-233 -2l67 277l252 2zM983 119q-168 -85 -312 -119t-246 -18.5t-174.5 67.5t-107 133t-34.5 183q0 97 31 196t88.5 186t133.5 155t173 107.5t200 39.5q139 0 219 -68.5t80 -187.5q0 -177 -183 -283t-532 -131
q3 -115 64.5 -166t199 -47t375.5 65zM678 868q-128 0 -223 -108.5t-125 -259.5q238 19 367.5 80t129.5 165q0 55 -40.5 89t-108.5 34z" />
    <glyph glyph-name="igrave" unicode="&#xec;" 
d="M983 1227l-49 -90q-108 43 -259 126t-255 156l135 174q92 -92 214 -196.5t214 -169.5zM989 100q-134 -57 -242 -87.5t-184 -33.5t-128 16t-75.5 61t-26 102.5t20.5 140.5l146 535l-342 -29l-15 115l426 100h187l-178 -682q-9 -36 -13 -60t-1.5 -46t12 -33.5t30.5 -20
t50.5 -9t75.5 4.5t102.5 15t134.5 26z" />
    <glyph glyph-name="iacute" unicode="&#xed;" 
d="M414 1241q102 59 238 159t227 185l143 -172q-101 -72 -265.5 -147t-301.5 -121zM989 100q-134 -57 -242 -87.5t-184 -33.5t-128 16t-75.5 61t-26 102.5t20.5 140.5l146 535l-342 -29l-15 115l426 100h187l-178 -682q-9 -36 -13 -60t-1.5 -46t12 -33.5t30.5 -20t50.5 -9
t75.5 4.5t102.5 15t134.5 26z" />
    <glyph glyph-name="icircumflex" unicode="&#xee;" 
d="M932 1141l-201 217l-307 -209l-98 113l438 299h12l305 -306zM989 100q-134 -57 -242 -87.5t-184 -33.5t-128 16t-75.5 61t-26 102.5t20.5 140.5l146 535l-342 -29l-15 115l426 100h187l-178 -682q-9 -36 -13 -60t-1.5 -46t12 -33.5t30.5 -20t50.5 -9t75.5 4.5t102.5 15
t134.5 26z" />
    <glyph glyph-name="idieresis" unicode="&#xef;" 
d="M1014 1182l-232 -2l68 274l252 6zM565 1178l-233 -2l67 276l252 2zM989 100q-134 -57 -242 -87.5t-184 -33.5t-128 16t-75.5 61t-26 102.5t20.5 140.5l146 535l-342 -29l-15 115l426 100h187l-178 -682q-9 -36 -13 -60t-1.5 -46t12 -33.5t30.5 -20t50.5 -9t75.5 4.5
t102.5 15t134.5 26z" />
    <glyph glyph-name="eth" unicode="&#xf0;" 
d="M485 -27q-178 0 -283.5 109.5t-105.5 288.5q0 114 43 219t117 183t178 124.5t219 46.5q56 0 105 -8q-39 85 -96 166l-287 -82l-37 127l231 65q-66 69 -149 140l172 110q115 -97 192 -190l232 65l31 -127l-179 -51q166 -241 166 -516q0 -297 -155.5 -483.5t-393.5 -186.5z
M526 150q132 0 212.5 133t80.5 335q0 52 -6 105q-118 49 -215 49q-79 0 -144.5 -51.5t-101 -133.5t-35.5 -175q0 -120 56 -191t153 -71z" />
    <glyph glyph-name="ntilde" unicode="&#xf1;" 
d="M887 1358q56 0 172 176l106 -61q-168 -283 -321 -283q-37 0 -73 19.5t-63 47.5t-51 56t-48 47.5t-44 19.5q-32 0 -73 -43.5t-97 -130.5l-108 62q76 130 159 204t162 74q37 0 72.5 -19.5t62.5 -47t51 -55t48 -47t45 -19.5zM1061 84q-98 -61 -176.5 -87t-127.5 -18
t-74.5 42t-25.5 92q0 78 61.5 311.5t61.5 310.5q0 103 -88 103q-109 0 -270 -158q-10 -52 -69 -346t-66 -334h-215q140 718 182 1014l215 12q-1 -5 -5.5 -36t-11 -74.5t-10.5 -77.5q206 209 389 209q96 0 139.5 -55.5t43.5 -145.5q0 -87 -32 -224.5t-63.5 -255.5t-31.5 -159
q0 -25 10.5 -34.5t43 -4.5t97.5 27z" />
    <glyph glyph-name="ograve" unicode="&#xf2;" 
d="M993 1255l-49 -90q-107 43 -258 126t-256 157l135 174q93 -93 214.5 -198t213.5 -169zM94 393q0 175 71.5 325t199 240.5t282.5 90.5q178 0 282.5 -111.5t104.5 -308.5q0 -177 -71.5 -327t-199 -239.5t-282.5 -89.5q-180 0 -283.5 111t-103.5 309zM813 600
q0 127 -52 196.5t-145 69.5q-86 0 -156 -63.5t-107.5 -164.5t-37.5 -216q0 -127 52 -196.5t145 -69.5q86 0 156 63t107.5 164t37.5 217z" />
    <glyph glyph-name="oacute" unicode="&#xf3;" 
d="M424 1270q102 59 238 159t227 185l143 -172q-101 -72 -265.5 -147t-301.5 -121zM94 393q0 175 71.5 325t199 240.5t282.5 90.5q178 0 282.5 -111.5t104.5 -308.5q0 -177 -71.5 -327t-199 -239.5t-282.5 -89.5q-180 0 -283.5 111t-103.5 309zM813 600q0 127 -52 196.5
t-145 69.5q-86 0 -156 -63.5t-107.5 -164.5t-37.5 -216q0 -127 52 -196.5t145 -69.5q86 0 156 63t107.5 164t37.5 217z" />
    <glyph glyph-name="ocircumflex" unicode="&#xf4;" 
d="M944 1169l-201 217l-307 -208l-98 112l438 299h12l306 -305zM94 393q0 175 71.5 325t199 240.5t282.5 90.5q178 0 282.5 -111.5t104.5 -308.5q0 -177 -71.5 -327t-199 -239.5t-282.5 -89.5q-180 0 -283.5 111t-103.5 309zM813 600q0 127 -52 196.5t-145 69.5
q-86 0 -156 -63.5t-107.5 -164.5t-37.5 -216q0 -127 52 -196.5t145 -69.5q86 0 156 63t107.5 164t37.5 217z" />
    <glyph glyph-name="otilde" unicode="&#xf5;" 
d="M893 1360q56 0 172 176l106 -61q-168 -283 -321 -283q-37 0 -73 19.5t-63 47.5t-51 56t-48 47.5t-44 19.5q-32 0 -73 -43.5t-97 -130.5l-108 62q76 130 159 204t162 74q37 0 72.5 -19.5t62.5 -47t51 -55t48 -47t45 -19.5zM94 393q0 175 71.5 325t199 240.5t282.5 90.5
q178 0 282.5 -111.5t104.5 -308.5q0 -177 -71.5 -327t-199 -239.5t-282.5 -89.5q-180 0 -283.5 111t-103.5 309zM813 600q0 127 -52 196.5t-145 69.5q-86 0 -156 -63.5t-107.5 -164.5t-37.5 -216q0 -127 52 -196.5t145 -69.5q86 0 156 63t107.5 164t37.5 217z" />
    <glyph glyph-name="odieresis" unicode="&#xf6;" 
d="M1024 1210l-231 -2l67 275l252 6zM575 1206l-233 -2l68 277l252 2zM94 393q0 175 71.5 325t199 240.5t282.5 90.5q178 0 282.5 -111.5t104.5 -308.5q0 -177 -71.5 -327t-199 -239.5t-282.5 -89.5q-180 0 -283.5 111t-103.5 309zM813 600q0 127 -52 196.5t-145 69.5
q-86 0 -156 -63.5t-107.5 -164.5t-37.5 -216q0 -127 52 -196.5t145 -69.5q86 0 156 63t107.5 164t37.5 217z" />
    <glyph glyph-name="divide" unicode="&#xf7;" 
d="M750 866h-236l47 228h236zM1055 702l-39 -186h-903l37 186h905zM606 127h-233l47 225h233z" />
    <glyph glyph-name="oslash" unicode="&#xf8;" 
d="M313 420q0 -50 9 -94l432 483q-49 61 -138 61q-87 0 -157.5 -64t-108 -166.5t-37.5 -219.5zM512 152q87 0 157.5 63.5t108 166t37.5 220.5q0 51 -8 84l-428 -479q49 -55 133 -55zM481 -27q-139 0 -237 70l-113 -123l-117 88l133 148q-53 95 -53 237q0 175 71.5 325
t199 240.5t282.5 90.5q144 0 242 -76l110 125l121 -88l-135 -152q49 -100 49 -229q0 -177 -71.5 -327t-199 -239.5t-282.5 -89.5z" />
    <glyph glyph-name="ugrave" unicode="&#xf9;" 
d="M1020 1237l-49 -90q-107 43 -258 126t-256 157l135 174q93 -93 214.5 -198t213.5 -169zM1069 84q-114 -68 -194.5 -93t-126 -7.5t-62.5 66.5t-8 132q-188 -209 -352 -209q-120 0 -167 96t-7 281l73 342l-100 66l172 258l215 14l-141 -651q-45 -197 73 -197t265 176
l129 662h213l-146 -746q-15 -57 -8 -83t39.5 -25t112.5 29z" />
    <glyph glyph-name="uacute" unicode="&#xfa;" 
d="M451 1251q102 59 237.5 159t226.5 185l144 -172q-101 -72 -265.5 -147t-301.5 -121zM1069 84q-114 -68 -194.5 -93t-126 -7.5t-62.5 66.5t-8 132q-188 -209 -352 -209q-120 0 -167 96t-7 281l73 342l-100 66l172 258l215 14l-141 -651q-45 -197 73 -197t265 176l129 662
h213l-146 -746q-15 -57 -8 -83t39.5 -25t112.5 29z" />
    <glyph glyph-name="ucircumflex" unicode="&#xfb;" 
d="M971 1151l-201 217l-307 -209l-98 113l438 299h12l305 -305zM1069 84q-114 -68 -194.5 -93t-126 -7.5t-62.5 66.5t-8 132q-188 -209 -352 -209q-120 0 -167 96t-7 281l73 342l-100 66l172 258l215 14l-141 -651q-45 -197 73 -197t265 176l129 662h213l-146 -746
q-15 -57 -8 -83t39.5 -25t112.5 29z" />
    <glyph glyph-name="udieresis" unicode="&#xfc;" 
d="M1051 1192l-232 -2l68 274l252 6zM602 1188l-233 -2l67 276l252 2zM1069 84q-114 -68 -194.5 -93t-126 -7.5t-62.5 66.5t-8 132q-188 -209 -352 -209q-120 0 -167 96t-7 281l73 342l-100 66l172 258l215 14l-141 -651q-45 -197 73 -197t265 176l129 662h213l-146 -746
q-15 -57 -8 -83t39.5 -25t112.5 29z" />
    <glyph glyph-name="yacute" unicode="&#xfd;" 
d="M438 1262q102 59 238 159t227 185l144 -172q-102 -72 -267 -147.5t-301 -121.5zM879 -139q-124 -240 -783 -209l31 211q265 -18 399.5 -6t169.5 45q12 12 18 33t7 60.5t0 68t-5 93t-5 97.5q-88 -84 -190 -136t-197 -52q-382 0 -29 950l213 8q-67 -188 -105 -327
t-49.5 -221.5t-2 -132t31 -66.5t57.5 -17q54 0 125.5 38.5t145.5 109.5q6 145 46 296t90.5 243.5t88.5 92.5q50 0 100.5 -18.5t50.5 -48.5q0 -78 -55 -247t-135 -314v-13q0 -59 9 -189t4.5 -212t-31.5 -137z" />
    <glyph glyph-name="thorn" unicode="&#xfe;" 
d="M518 158q79 0 150 73.5t112 186t41 227.5q0 97 -33.5 146t-87.5 49t-127.5 -42t-142.5 -108l-96 -497q104 -35 184 -35zM229 -344l-215 -16l346 1787l218 17l-115 -592q91 86 184 139t168 53q99 0 162 -87t63 -250q0 -111 -28 -218t-83 -199.5t-130 -163t-175 -111
t-212 -40.5q-54 0 -119 9z" />
    <glyph glyph-name="ydieresis" unicode="&#xff;" 
d="M1038 1202l-231 -2l67 275l252 6zM590 1198l-234 -2l68 277l252 2zM879 -139q-124 -240 -783 -209l31 211q265 -18 399.5 -6t169.5 45q12 12 18 33t7 60.5t0 68t-5 93t-5 97.5q-88 -84 -190 -136t-197 -52q-382 0 -29 950l213 8q-67 -188 -105 -327t-49.5 -221.5t-2 -132
t31 -66.5t57.5 -17q54 0 125.5 38.5t145.5 109.5q6 145 46 296t90.5 243.5t88.5 92.5q50 0 100.5 -18.5t50.5 -48.5q0 -78 -55 -247t-135 -314v-13q0 -59 9 -189t4.5 -212t-31.5 -137z" />
    <glyph glyph-name="Amacron" unicode="&#x100;" 
d="M1155 1663l-35 -182h-708l37 182h706zM754 -8q-3 56 -9.5 175.5t-9.5 182.5h-381q-7 -17 -63 -149t-84 -201h-230q262 601 588 1272h314q62 -665 100 -1264zM676 1077q-227 -509 -248 -557h299q-6 116 -35 557h-16z" />
    <glyph glyph-name="amacron" unicode="&#x101;" 
d="M1145 1432l-35 -183h-709l37 183h707zM414 182q51 0 123.5 41.5t142.5 106.5q49 239 96 493q-98 33 -174 33q-78 0 -148 -76.5t-110.5 -194.5t-40.5 -239q0 -83 31 -123.5t80 -40.5zM1057 84q-93 -56 -163 -82t-115.5 -25.5t-72.5 26.5t-36 70.5t-4 110.5
q-97 -93 -193.5 -151t-175.5 -58q-96 0 -155.5 81.5t-59.5 236.5q0 142 45.5 276.5t125.5 239t201.5 168t262.5 63.5q151 0 305 -45l-139 -721q-6 -32 -8.5 -49t0.5 -32.5t12.5 -20t29.5 -4.5t47.5 7t71.5 20z" />
    <glyph glyph-name="Abreve" unicode="&#x102;" 
d="M1085 1784l125 -76q-233 -301 -458 -301q-110 0 -198 76t-146 225l163 88q50 -115 102.5 -166t125.5 -51q66 0 131.5 49.5t154.5 155.5zM754 -8q-3 56 -9.5 175.5t-9.5 182.5h-381q-7 -17 -63 -149t-84 -201h-230q262 601 588 1272h314q62 -665 100 -1264zM676 1077
q-227 -509 -248 -557h299q-6 116 -35 557h-16z" />
    <glyph glyph-name="abreve" unicode="&#x103;" 
d="M1075 1552l125 -75q-233 -301 -459 -301q-110 0 -198 76t-146 225l164 88q50 -116 102 -166.5t125 -50.5q67 0 132.5 49.5t154.5 154.5zM414 182q51 0 123.5 41.5t142.5 106.5q49 239 96 493q-98 33 -174 33q-78 0 -148 -76.5t-110.5 -194.5t-40.5 -239q0 -83 31 -123.5
t80 -40.5zM1057 84q-93 -56 -163 -82t-115.5 -25.5t-72.5 26.5t-36 70.5t-4 110.5q-97 -93 -193.5 -151t-175.5 -58q-96 0 -155.5 81.5t-59.5 236.5q0 142 45.5 276.5t125.5 239t201.5 168t262.5 63.5q151 0 305 -45l-139 -721q-6 -32 -8.5 -49t0.5 -32.5t12.5 -20
t29.5 -4.5t47.5 7t71.5 20z" />
    <glyph glyph-name="Aogonek" unicode="&#x104;" 
d="M913 -344q-118 -58 -216 -77.5t-158.5 -3.5t-94 53.5t-34.5 90.5q-2 79 81.5 161t260.5 155q-3 54 -8.5 159.5t-8.5 155.5h-381q-7 -17 -63 -149t-84 -201h-230q262 601 588 1272h314q62 -665 100 -1264q-190 -52 -279.5 -111t-89.5 -114q0 -19 9.5 -33.5t31 -23t53.5 -9
t79 9t106 29.5zM676 1077q-227 -509 -248 -557h299q-6 116 -35 557h-16z" />
    <glyph glyph-name="aogonek" unicode="&#x105;" 
d="M952 -346q-117 -57 -214.5 -75.5t-158 -2.5t-93.5 53t-33 88q0 154 266 303q-62 34 -53 164q-97 -93 -193.5 -151t-175.5 -58q-96 0 -155.5 81.5t-59.5 236.5q0 142 45.5 276.5t125.5 239t201.5 168t262.5 63.5q151 0 305 -45l-139 -721q-6 -32 -8.5 -49t0.5 -32.5
t12.5 -20t29.5 -4.5t47.5 7t71.5 20l21 -111q-404 -165 -404 -299q0 -26 16 -42t48 -22t87.5 3t129.5 34zM414 182q51 0 123.5 41.5t142.5 106.5q49 239 96 493q-98 33 -174 33q-78 0 -148 -76.5t-110.5 -194.5t-40.5 -239q0 -83 31 -123.5t80 -40.5z" />
    <glyph glyph-name="Cacute" unicode="&#x106;" 
d="M502 1518q102 59 238 159t227 185l143 -172q-102 -72 -267 -148t-300 -121zM770 1296q177 0 246.5 -119t58.5 -372l-215 -4q5 162 -22.5 228.5t-114.5 66.5q-105 0 -193.5 -92t-136 -228.5t-47.5 -277.5q0 -233 148.5 -296t463.5 44l-22 -203q-393 -131 -605 -18
t-212 438q0 160 51.5 312.5t138.5 267t208 184t253 69.5z" />
    <glyph glyph-name="cacute" unicode="&#x107;" 
d="M446 1268q102 59 238 159t227 185l144 -172q-102 -72 -267 -147.5t-301 -121.5zM1024 672l-201 -2q0 102 -32 145t-107 43q-141 0 -242.5 -134t-101.5 -314q0 -91 29.5 -145t98.5 -79.5t181.5 -18t280.5 45.5l20 -115q-163 -76 -301 -104t-234 -10t-163 70.5t-99 132
t-32 180.5q0 177 84.5 334t229.5 251.5t310 94.5q154 0 222.5 -89t56.5 -286z" />
    <glyph glyph-name="Cdotaccent" unicode="&#x10a;" 
d="M879 1456l-238 -2l68 277l258 2zM770 1296q177 0 246.5 -119t58.5 -372l-215 -4q5 162 -22.5 228.5t-114.5 66.5q-105 0 -193.5 -92t-136 -228.5t-47.5 -277.5q0 -233 148.5 -296t463.5 44l-22 -203q-393 -131 -605 -18t-212 438q0 160 51.5 312.5t138.5 267t208 184
t253 69.5z" />
    <glyph glyph-name="cdotaccent" unicode="&#x10b;" 
d="M825 1206l-237 -2l67 277l258 2zM1024 672l-201 -2q0 102 -32 145t-107 43q-141 0 -242.5 -134t-101.5 -314q0 -91 29.5 -145t98.5 -79.5t181.5 -18t280.5 45.5l20 -115q-163 -76 -301 -104t-234 -10t-163 70.5t-99 132t-32 180.5q0 177 84.5 334t229.5 251.5t310 94.5
q154 0 222.5 -89t56.5 -286z" />
    <glyph glyph-name="Ccaron" unicode="&#x10c;" 
d="M768 1411h-14l-305 305l149 115l201 -215l307 207l98 -111zM770 1296q177 0 246.5 -119t58.5 -372l-215 -4q5 162 -22.5 228.5t-114.5 66.5q-105 0 -193.5 -92t-136 -228.5t-47.5 -277.5q0 -233 148.5 -296t463.5 44l-22 -203q-393 -131 -605 -18t-212 438
q0 160 51.5 312.5t138.5 267t208 184t253 69.5z" />
    <glyph glyph-name="ccaron" unicode="&#x10d;" 
d="M715 1161h-15l-305 305l150 115l200 -215l308 207l98 -111zM1024 672l-201 -2q0 102 -32 145t-107 43q-141 0 -242.5 -134t-101.5 -314q0 -91 29.5 -145t98.5 -79.5t181.5 -18t280.5 45.5l20 -115q-163 -76 -301 -104t-234 -10t-163 70.5t-99 132t-32 180.5
q0 177 84.5 334t229.5 251.5t310 94.5q154 0 222.5 -89t56.5 -286z" />
    <glyph glyph-name="Dcaron" unicode="&#x10e;" 
d="M743 1399h-14l-305 305l149 115l201 -215l307 206l99 -110zM1081 793q0 -119 -24.5 -226.5t-77 -206t-133 -172.5t-193 -126t-257.5 -66.5t-326 6.5l243 1262q384 63 576 -56.5t192 -414.5zM854 770q0 358 -348 324l-176 -916q127 -8 229 37t165 128.5t96.5 193
t33.5 233.5z" />
    <glyph glyph-name="dcaron" unicode="&#x10f;" 
d="M1280 1638l242 9q-15 -146 -72.5 -273.5t-165.5 -253.5l-94 37q56 122 74.5 234.5t15.5 246.5zM422 182q52 0 122.5 40t135.5 104l98 505q-100 33 -176 33q-78 0 -148.5 -74t-111.5 -186.5t-41 -226.5q0 -97 33.5 -146t87.5 -49zM1067 88q-96 -55 -168 -81.5t-118.5 -27
t-74 24t-36.5 67.5t-4 107q-93 -91 -187 -147t-172 -56q-98 0 -160.5 88t-62.5 252q0 110 28 217t82.5 199.5t129 163.5t174.5 111.5t211 40.5q51 0 110 -9l76 389l219 17l-229 -1172q-5 -42 -7.5 -68t16 -34t52.5 -2t103 27z" />
    <glyph glyph-name="Dcroat" unicode="&#x110;" 
d="M1081 793q0 -119 -24.5 -226.5t-77 -206t-133 -172.5t-193 -126t-257.5 -66.5t-326 6.5l108 561h-129l31 158h129l104 543q384 63 576 -56.5t192 -414.5zM623 563h-220l-73 -385q127 -8 229 37t165 128.5t96.5 193t33.5 233.5q0 358 -348 324l-72 -373h230z" />
    <glyph glyph-name="dcroat" unicode="&#x111;" 
d="M422 182q52 0 122.5 40t135.5 104l98 505q-100 33 -176 33q-78 0 -148.5 -74t-111.5 -186.5t-41 -226.5q0 -97 33.5 -146t87.5 -49zM1067 88q-96 -55 -168 -81.5t-118.5 -27t-74 24t-36.5 67.5t-4 107q-93 -91 -187 -147t-172 -56q-98 0 -160.5 88t-62.5 252
q0 110 28 217t82.5 199.5t129 163.5t174.5 111.5t211 40.5q51 0 110 -9l27 131h-262l26 140h262l23 118l219 17l-27 -135h130l-27 -142h-129l-176 -895q-5 -42 -7.5 -68t16 -34t52.5 -2t103 27z" />
    <glyph glyph-name="Emacron" unicode="&#x112;" 
d="M1167 1661l-34 -182h-709l37 182h706zM922 190l-52 -190h-772l246 1270h778l-37 -191h-550l-70 -358h467l-33 -166h-467l-72 -365h562z" />
    <glyph glyph-name="emacron" unicode="&#x113;" 
d="M1126 1440l-34 -183h-709l37 183h706zM983 119q-168 -85 -312 -119t-246 -18.5t-174.5 67.5t-107 133t-34.5 183q0 97 31 196t88.5 186t133.5 155t173 107.5t200 39.5q139 0 219 -68.5t80 -187.5q0 -177 -183 -283t-532 -131q3 -115 64.5 -166t199 -47t375.5 65zM678 868
q-128 0 -223 -108.5t-125 -259.5q238 19 367.5 80t129.5 165q0 55 -40.5 89t-108.5 34z" />
    <glyph glyph-name="Ebreve" unicode="&#x114;" 
d="M1098 1782l125 -76q-233 -301 -459 -301q-110 0 -198 76t-146 225l164 88q50 -116 102 -166.5t125 -50.5q66 0 132 50t155 155zM922 190l-52 -190h-772l246 1270h778l-37 -191h-550l-70 -358h467l-33 -166h-467l-72 -365h562z" />
    <glyph glyph-name="ebreve" unicode="&#x115;" 
d="M1057 1561l125 -76q-233 -301 -459 -301q-110 0 -198 76t-146 225l164 88q50 -116 102 -166.5t125 -50.5q66 0 132 50t155 155zM983 119q-168 -85 -312 -119t-246 -18.5t-174.5 67.5t-107 133t-34.5 183q0 97 31 196t88.5 186t133.5 155t173 107.5t200 39.5
q139 0 219 -68.5t80 -187.5q0 -177 -183 -283t-532 -131q3 -115 64.5 -166t199 -47t375.5 65zM678 868q-128 0 -223 -108.5t-125 -259.5q238 19 367.5 80t129.5 165q0 55 -40.5 89t-108.5 34z" />
    <glyph glyph-name="Edotaccent" unicode="&#x116;" 
d="M870 1430l-237 -3l67 277l258 2zM922 190l-52 -190h-772l246 1270h778l-37 -191h-550l-70 -358h467l-33 -166h-467l-72 -365h562z" />
    <glyph glyph-name="edotaccent" unicode="&#x117;" 
d="M829 1208l-237 -2l67 277l259 2zM983 119q-168 -85 -312 -119t-246 -18.5t-174.5 67.5t-107 133t-34.5 183q0 97 31 196t88.5 186t133.5 155t173 107.5t200 39.5q139 0 219 -68.5t80 -187.5q0 -177 -183 -283t-532 -131q3 -115 64.5 -166t199 -47t375.5 65zM678 868
q-128 0 -223 -108.5t-125 -259.5q238 19 367.5 80t129.5 165q0 55 -40.5 89t-108.5 34z" />
    <glyph glyph-name="Eogonek" unicode="&#x118;" 
d="M805 -346q-118 -58 -216 -77.5t-159 -3.5t-94 53.5t-33 90.5q0 71 68 144t211 139h-484l246 1270h778l-37 -191h-550l-70 -358h467l-33 -166h-467l-72 -365h562l-52 -190q-189 -51 -278.5 -107.5t-89.5 -109.5q0 -33 27 -51t92 -14t161 36z" />
    <glyph glyph-name="eogonek" unicode="&#x119;" 
d="M856 -344q-118 -58 -217 -77.5t-159.5 -3.5t-94 53.5t-33.5 90.5q0 137 211 263q-110 -12 -197.5 12t-143 76.5t-84.5 127.5t-29 167q0 97 31 196t88.5 186t133.5 155t173 107.5t200 39.5q139 0 219 -68.5t80 -187.5q0 -177 -183 -283t-532 -131q3 -115 64.5 -166
t199 -47t375.5 65l25 -112q-188 -89 -309 -177.5t-121 -158.5q0 -19 9.5 -33.5t31.5 -23t54 -9t79.5 9t106.5 29.5zM678 868q-128 0 -223 -108.5t-125 -259.5q238 19 367.5 80t129.5 165q0 55 -40.5 89t-108.5 34z" />
    <glyph glyph-name="Ecaron" unicode="&#x11a;" 
d="M760 1384h-15l-305 306l150 114l201 -215l307 207l98 -110zM922 190l-52 -190h-772l246 1270h778l-37 -191h-550l-70 -358h467l-33 -166h-467l-72 -365h562z" />
    <glyph glyph-name="ecaron" unicode="&#x11b;" 
d="M719 1163h-14l-306 305l150 115l201 -215l307 207l98 -111zM983 119q-168 -85 -312 -119t-246 -18.5t-174.5 67.5t-107 133t-34.5 183q0 97 31 196t88.5 186t133.5 155t173 107.5t200 39.5q139 0 219 -68.5t80 -187.5q0 -177 -183 -283t-532 -131q3 -115 64.5 -166
t199 -47t375.5 65zM678 868q-128 0 -223 -108.5t-125 -259.5q238 19 367.5 80t129.5 165q0 55 -40.5 89t-108.5 34z" />
    <glyph glyph-name="Gbreve" unicode="&#x11e;" 
d="M1096 1808l125 -75q-233 -301 -459 -301q-110 0 -198 76t-146 225l164 88q50 -116 102 -166.5t125 -50.5q67 0 132.5 49.5t154.5 154.5zM844 -219l-207 -4l51 223q-271 -64 -421 57t-150 392q0 219 85.5 414.5t233 314t318.5 118.5q175 0 246 -118.5t57 -372.5l-213 -4
q3 159 -24 226t-109 67q-102 0 -187.5 -93t-131.5 -233t-46 -287q0 -398 387 -282l68 299l213 6z" />
    <glyph glyph-name="gbreve" unicode="&#x11f;" 
d="M1063 1565l125 -76q-233 -301 -459 -301q-110 0 -198 76t-146 225l164 88q50 -116 102 -166.5t125 -50.5q66 0 132 50t155 155zM451 254q118 0 237 147q21 202 98 410q-102 55 -184 55q-79 0 -147 -68t-104 -167t-36 -199q0 -90 37 -134t99 -44zM877 -141
q-123 -241 -801 -209l22 211q271 -18 413 -5t175 48q11 11 15.5 33.5t3.5 57t-4 69t-8 87t-7 93.5q-176 -187 -344 -187q-108 0 -176 80.5t-68 233.5q0 126 43.5 247t119 215.5t186.5 152.5t237 58q106 0 199 -43q36 52 65 52q42 0 92 -24.5t50 -51.5q0 -67 -62 -228.5
t-149 -316.5q-2 -20 -2 -57q0 -92 12.5 -210t12.5 -186.5t-25 -119.5z" />
    <glyph glyph-name="Gdotaccent" unicode="&#x120;" 
d="M868 1456l-237 -2l67 277l258 2zM844 -219l-207 -4l51 223q-271 -64 -421 57t-150 392q0 219 85.5 414.5t233 314t318.5 118.5q175 0 246 -118.5t57 -372.5l-213 -4q3 159 -24 226t-109 67q-102 0 -187.5 -93t-131.5 -233t-46 -287q0 -398 387 -282l68 299l213 6z" />
    <glyph glyph-name="gdotaccent" unicode="&#x121;" 
d="M834 1212l-238 -2l68 277l258 2zM451 254q118 0 237 147q21 202 98 410q-102 55 -184 55q-79 0 -147 -68t-104 -167t-36 -199q0 -90 37 -134t99 -44zM877 -141q-123 -241 -801 -209l22 211q271 -18 413 -5t175 48q11 11 15.5 33.5t3.5 57t-4 69t-8 87t-7 93.5
q-176 -187 -344 -187q-108 0 -176 80.5t-68 233.5q0 126 43.5 247t119 215.5t186.5 152.5t237 58q106 0 199 -43q36 52 65 52q42 0 92 -24.5t50 -51.5q0 -67 -62 -228.5t-149 -316.5q-2 -20 -2 -57q0 -92 12.5 -210t12.5 -186.5t-25 -119.5z" />
    <glyph glyph-name="Gcommaaccent" unicode="&#x122;" 
d="M844 -219l-207 -4l51 223q-271 -64 -421 57t-150 392q0 219 85.5 414.5t233 314t318.5 118.5q175 0 246 -118.5t57 -372.5l-213 -4q3 159 -24 226t-109 67q-102 0 -187.5 -93t-131.5 -233t-46 -287q0 -398 387 -282l68 299l213 6zM213 -707q100 182 72 394l276 4
q-14 -121 -81.5 -235.5t-176.5 -200.5z" />
    <glyph glyph-name="gcommaaccent" unicode="&#x123;" 
d="M889 1593q-97 -176 -72 -393l-276 -4q14 122 81.5 236.5t178.5 199.5zM451 254q118 0 237 147q21 202 98 410q-102 55 -184 55q-79 0 -147 -68t-104 -167t-36 -199q0 -90 37 -134t99 -44zM877 -141q-123 -241 -801 -209l22 211q271 -18 413 -5t175 48q11 11 15.5 33.5
t3.5 57t-4 69t-8 87t-7 93.5q-176 -187 -344 -187q-108 0 -176 80.5t-68 233.5q0 126 43.5 247t119 215.5t186.5 152.5t237 58q106 0 199 -43q36 52 65 52q42 0 92 -24.5t50 -51.5q0 -67 -62 -228.5t-149 -316.5q-2 -20 -2 -57q0 -92 12.5 -210t12.5 -186.5t-25 -119.5z" />
    <glyph glyph-name="Hbar" unicode="&#x126;" 
d="M807 696l39 205h-381l-39 -205h381zM672 0l100 518h-381l-100 -518h-232l172 893h-131l31 158h131l43 219h232l-43 -226h380l44 226h229l-43 -219h131l-31 -158h-131l-172 -893h-229z" />
    <glyph glyph-name="hbar" unicode="&#x127;" 
d="M1061 84q-98 -61 -176.5 -87t-127.5 -18t-74.5 42t-25.5 92q0 79 61.5 311t61.5 307q0 103 -88 103q-110 0 -276 -172l-129 -662h-215l225 1167h-127l27 142h129l22 118l219 17l-26 -135h264l-29 -140h-262l-65 -335q200 206 382 206q96 0 139.5 -55t43.5 -145
q0 -86 -32 -222t-63.5 -253t-31.5 -158q0 -25 10.5 -34.5t43 -4.5t97.5 27z" />
    <glyph glyph-name="Imacron" unicode="&#x12a;" 
d="M1135 1661l-35 -182h-709l37 182h707zM604 180h295l-43 -180h-799l35 180h285l176 910h-289l35 180h799l-33 -180h-285z" />
    <glyph glyph-name="imacron" unicode="&#x12b;" 
d="M1087 1411l-34 -182h-709l37 182h706zM989 100q-134 -57 -242 -87.5t-184 -33.5t-128 16t-75.5 61t-26 102.5t20.5 140.5l146 535l-342 -29l-15 115l426 100h187l-178 -682q-9 -36 -13 -60t-1.5 -46t12 -33.5t30.5 -20t50.5 -9t75.5 4.5t102.5 15t134.5 26z" />
    <glyph glyph-name="Ibreve" unicode="&#x12c;" 
d="M1067 1782l125 -76q-233 -301 -459 -301q-110 0 -198 76t-146 225l164 88q50 -116 102 -166.5t125 -50.5q66 0 132 50t155 155zM604 180h295l-43 -180h-799l35 180h285l176 910h-289l35 180h799l-33 -180h-285z" />
    <glyph glyph-name="ibreve" unicode="&#x12d;" 
d="M1020 1532l125 -76q-233 -301 -459 -301q-110 0 -198 76t-146 225l164 88q50 -116 102 -166.5t125 -50.5q66 0 132 50t155 155zM989 100q-134 -57 -242 -87.5t-184 -33.5t-128 16t-75.5 61t-26 102.5t20.5 140.5l146 535l-342 -29l-15 115l426 100h187l-178 -682
q-9 -36 -13 -60t-1.5 -46t12 -33.5t30.5 -20t50.5 -9t75.5 4.5t102.5 15t134.5 26z" />
    <glyph glyph-name="Iogonek" unicode="&#x12e;" 
d="M651 -344q-118 -58 -217 -77.5t-160 -3t-94 54t-33 91.5q0 148 213 279h-303l35 180h285l176 910h-289l35 180h799l-33 -180h-285l-176 -910h295l-43 -180h-268q-123 -53 -181.5 -108.5t-58.5 -108.5q0 -19 9.5 -33.5t31.5 -23t54 -9t79.5 9t106.5 29.5z" />
    <glyph glyph-name="iogonek" unicode="&#x12f;" 
d="M801 1186l-234 -10l66 278l254 12zM842 -344q-118 -58 -217 -77.5t-159.5 -3.5t-94 53.5t-33.5 90.5q0 135 201 258q-272 0 -185 322l146 535l-342 -29l-15 115l426 100h187l-178 -682q-9 -36 -13 -60t-1.5 -46t12 -33.5t30.5 -20t50.5 -9t75.5 4.5t102.5 15t134.5 26
l20 -115q-250 -105 -350 -177t-100 -140q0 -33 26.5 -50.5t91 -13t160.5 36.5z" />
    <glyph glyph-name="Idotaccent" unicode="&#x130;" 
d="M838 1430l-238 -3l68 277l258 2zM604 180h295l-43 -180h-799l35 180h285l176 910h-289l35 180h799l-33 -180h-285z" />
    <glyph glyph-name="dotlessi" unicode="&#x131;" 
d="M989 100q-134 -57 -242 -87.5t-184 -33.5t-128 16t-75.5 61t-26 102.5t20.5 140.5l146 535l-342 -29l-15 115l426 100h187l-178 -682q-9 -36 -13 -60t-1.5 -46t12 -33.5t30.5 -20t50.5 -9t75.5 4.5t102.5 15t134.5 26z" />
    <glyph glyph-name="Kcommaaccent" unicode="&#x136;" 
d="M764 -14l-311 649l516 635h243l-516 -637l308 -619zM322 1270h225l-246 -1270h-227zM297 -549q100 182 72 393l276 4q-14 -121 -81.5 -235.5t-176.5 -200.5z" />
    <glyph glyph-name="kcommaaccent" unicode="&#x137;" 
d="M780 -14l-321 415q206 118 294.5 210.5t88.5 158.5q0 36 -23 56t-63 20q-133 0 -332 -205l-125 -641h-215l276 1427l220 17l-121 -623q221 226 424 226q93 0 144.5 -49t51.5 -132q0 -218 -374 -452l323 -400zM301 -549q100 182 72 393l276 4q-14 -121 -81.5 -235.5
t-176.5 -200.5z" />
    <glyph glyph-name="Lacute" unicode="&#x139;" 
d="M516 1491q102 59 238 159t227 185l143 -172q-101 -72 -265.5 -147t-301.5 -121zM920 0h-811l245 1270h230l-207 -1075h581z" />
    <glyph glyph-name="lacute" unicode="&#x13a;" 
d="M727 1655q102 59 238 159t227 185l143 -172q-101 -72 -265.5 -147t-301.5 -121zM973 129q-290 -169 -477.5 -145t-239.5 237q-95 -57 -98 -59l-54 90q3 2 25 16.5t55.5 35.5t55.5 36q-2 18 -2 55q0 163 38.5 324t104 290t148.5 229t178 155t186 55q98 0 153.5 -60
t55.5 -169q0 -195 -161.5 -422t-475.5 -457q23 -155 139 -176t334 76zM813 1233q-54 0 -114.5 -59t-111.5 -157t-87 -240.5t-41 -295.5q222 187 331 354t109 289q0 53 -23.5 81t-62.5 28z" />
    <glyph glyph-name="Lcommaaccent" unicode="&#x13b;" 
d="M920 0h-811l245 1270h230l-207 -1075h581zM276 -535q100 182 72 394l277 4q-14 -121 -81.5 -235.5t-176.5 -200.5z" />
    <glyph glyph-name="lcommaaccent" unicode="&#x13c;" 
d="M973 129q-290 -169 -477.5 -145t-239.5 237q-95 -57 -98 -59l-54 90q3 2 25 16.5t55.5 35.5t55.5 36q-2 18 -2 55q0 163 38.5 324t104 290t148.5 229t178 155t186 55q98 0 153.5 -60t55.5 -169q0 -195 -161.5 -422t-475.5 -457q23 -155 139 -176t334 76zM813 1233
q-54 0 -114.5 -59t-111.5 -157t-87 -240.5t-41 -295.5q222 187 331 354t109 289q0 53 -23.5 81t-62.5 28zM293 -553q100 182 72 393l276 4q-14 -121 -81.5 -235.5t-176.5 -200.5z" />
    <glyph glyph-name="Lcaron" unicode="&#x13d;" 
d="M948 1427l242 9q-15 -146 -72.5 -273.5t-165.5 -253.5l-94 37q56 122 74.5 234.5t15.5 246.5zM920 0h-811l245 1270h230l-207 -1075h581z" />
    <glyph glyph-name="lcaron" unicode="&#x13e;" 
d="M1264 1638l241 9q-15 -146 -72.5 -273.5t-164.5 -253.5l-94 37q56 122 74.5 234.5t15.5 246.5zM973 129q-290 -169 -477.5 -145t-239.5 237q-95 -57 -98 -59l-54 90q3 2 25 16.5t55.5 35.5t55.5 36q-2 18 -2 55q0 163 38.5 324t104 290t148.5 229t178 155t186 55
q98 0 153.5 -60t55.5 -169q0 -195 -161.5 -422t-475.5 -457q23 -155 139 -176t334 76zM813 1233q-54 0 -114.5 -59t-111.5 -157t-87 -240.5t-41 -295.5q222 187 331 354t109 289q0 53 -23.5 81t-62.5 28z" />
    <glyph glyph-name="Ldot" unicode="&#x13f;" 
d="M920 0h-811l245 1270h230l-207 -1075h581zM995 535h-227l66 260h225z" />
    <glyph glyph-name="ldot" unicode="&#x140;" 
d="M973 129q-290 -169 -477.5 -145t-239.5 237q-95 -57 -98 -59l-54 90q3 2 25 16.5t55.5 35.5t55.5 36q-2 18 -2 55q0 163 38.5 324t104 290t148.5 229t178 155t186 55q98 0 153.5 -60t55.5 -169q0 -195 -161.5 -422t-475.5 -457q23 -155 139 -176t334 76zM813 1233
q-54 0 -114.5 -59t-111.5 -157t-87 -240.5t-41 -295.5q222 187 331 354t109 289q0 53 -23.5 81t-62.5 28zM1214 522h-210l53 260h213z" />
    <glyph glyph-name="Lslash" unicode="&#x141;" 
d="M954 0h-811l111 571l-137 -63l-6 151l176 82l102 529h229l-79 -412l262 121l6 -152l-301 -139l-94 -493h581z" />
    <glyph glyph-name="lslash" unicode="&#x142;" 
d="M248 1466q0 128 147.5 204.5t395.5 79.5t571 -77l-70 -170q-149 42 -291 65.5t-249.5 26t-190 -8t-125.5 -33.5t-43 -52q0 -23 25 -48.5t82 -68.5l-115 -139q-137 108 -137 221zM973 129q-290 -169 -477.5 -145t-239.5 237q-95 -57 -98 -59l-54 90q3 2 25 16.5t55.5 35.5
t55.5 36q-2 18 -2 55q0 163 38.5 324t104 290t148.5 229t178 155t186 55q98 0 153.5 -60t55.5 -169q0 -195 -161.5 -422t-475.5 -457q23 -155 139 -176t334 76zM813 1233q-54 0 -114.5 -59t-111.5 -157t-87 -240.5t-41 -295.5q222 187 331 354t109 289q0 53 -23.5 81
t-62.5 28z" />
    <glyph glyph-name="Nacute" unicode="&#x143;" 
d="M485 1495q102 59 238 159t227 185l144 -172q-101 -72 -266 -147t-302 -121zM707 0l-261 870h-10l-162 -870h-213l246 1266l219 8l242 -864h10l160 860h213l-246 -1270h-198z" />
    <glyph glyph-name="nacute" unicode="&#x144;" 
d="M420 1268q102 59 238 159t227 185l143 -172q-102 -72 -267 -148t-300 -121zM1061 84q-98 -61 -176.5 -87t-127.5 -18t-74.5 42t-25.5 92q0 78 61.5 311.5t61.5 310.5q0 103 -88 103q-109 0 -270 -158q-10 -52 -69 -346t-66 -334h-215q140 718 182 1014l215 12
q-1 -5 -5.5 -36t-11 -74.5t-10.5 -77.5q206 209 389 209q96 0 139.5 -55.5t43.5 -145.5q0 -87 -32 -224.5t-63.5 -255.5t-31.5 -159q0 -25 10.5 -34.5t43 -4.5t97.5 27z" />
    <glyph glyph-name="Ncommaaccent" unicode="&#x145;" 
d="M707 0l-261 870h-10l-162 -870h-213l246 1266l219 8l242 -864h10l160 860h213l-246 -1270h-198zM246 -535q99 181 71 394l277 4q-14 -121 -81.5 -235.5t-176.5 -200.5z" />
    <glyph glyph-name="ncommaaccent" unicode="&#x146;" 
d="M1061 84q-98 -61 -176.5 -87t-127.5 -18t-74.5 42t-25.5 92q0 78 61.5 311.5t61.5 310.5q0 103 -88 103q-109 0 -270 -158q-10 -52 -69 -346t-66 -334h-215q140 718 182 1014l215 12q-1 -5 -5.5 -36t-11 -74.5t-10.5 -77.5q206 209 389 209q96 0 139.5 -55.5t43.5 -145.5
q0 -87 -32 -224.5t-63.5 -255.5t-31.5 -159q0 -25 10.5 -34.5t43 -4.5t97.5 27zM244 -557q99 180 71 393l277 4q-14 -121 -81.5 -235.5t-176.5 -200.5z" />
    <glyph glyph-name="Ncaron" unicode="&#x147;" 
d="M754 1389h-15l-305 305l150 114l200 -215l308 207l98 -110zM707 0l-261 870h-10l-162 -870h-213l246 1266l219 8l242 -864h10l160 860h213l-246 -1270h-198z" />
    <glyph glyph-name="ncaron" unicode="&#x148;" 
d="M686 1161h-14l-305 305l149 115l201 -215l307 207l98 -111zM1061 84q-98 -61 -176.5 -87t-127.5 -18t-74.5 42t-25.5 92q0 78 61.5 311.5t61.5 310.5q0 103 -88 103q-109 0 -270 -158q-10 -52 -69 -346t-66 -334h-215q140 718 182 1014l215 12q-1 -5 -5.5 -36t-11 -74.5
t-10.5 -77.5q206 209 389 209q96 0 139.5 -55.5t43.5 -145.5q0 -87 -32 -224.5t-63.5 -255.5t-31.5 -159q0 -25 10.5 -34.5t43 -4.5t97.5 27z" />
    <glyph glyph-name="Omacron" unicode="&#x14c;" 
d="M1161 1690l-35 -183h-708l37 183h706zM709 1294q179 0 285 -120t106 -361q0 -162 -45 -314.5t-123.5 -268.5t-192.5 -186.5t-243 -70.5q-177 0 -283.5 120.5t-106.5 361.5q0 129 28.5 253.5t82.5 229.5t127 185t167.5 125.5t197.5 45.5zM522 170q98 0 177.5 94.5t121 239
t41.5 301.5q0 148 -47.5 221.5t-132.5 73.5q-97 0 -176 -95t-120.5 -239.5t-41.5 -300.5q0 -149 46.5 -222t131.5 -73z" />
    <glyph glyph-name="omacron" unicode="&#x14d;" 
d="M1100 1440l-35 -183h-709l37 183h707zM94 393q0 175 71.5 325t199 240.5t282.5 90.5q178 0 282.5 -111.5t104.5 -308.5q0 -177 -71.5 -327t-199 -239.5t-282.5 -89.5q-180 0 -283.5 111t-103.5 309zM813 600q0 127 -52 196.5t-145 69.5q-86 0 -156 -63.5t-107.5 -164.5
t-37.5 -216q0 -127 52 -196.5t145 -69.5q86 0 156 63t107.5 164t37.5 217z" />
    <glyph glyph-name="Obreve" unicode="&#x14e;" 
d="M1092 1810l125 -75q-233 -301 -459 -301q-110 0 -198 76t-146 225l164 88q50 -116 102 -166.5t125 -50.5q67 0 132.5 49.5t154.5 154.5zM709 1294q179 0 285 -120t106 -361q0 -162 -45 -314.5t-123.5 -268.5t-192.5 -186.5t-243 -70.5q-177 0 -283.5 120.5t-106.5 361.5
q0 129 28.5 253.5t82.5 229.5t127 185t167.5 125.5t197.5 45.5zM522 170q98 0 177.5 94.5t121 239t41.5 301.5q0 148 -47.5 221.5t-132.5 73.5q-97 0 -176 -95t-120.5 -239.5t-41.5 -300.5q0 -149 46.5 -222t131.5 -73z" />
    <glyph glyph-name="obreve" unicode="&#x14f;" 
d="M1030 1561l125 -76q-233 -301 -459 -301q-110 0 -198 76t-146 225l164 88q50 -116 102 -166.5t125 -50.5q66 0 132 50t155 155zM94 393q0 175 71.5 325t199 240.5t282.5 90.5q178 0 282.5 -111.5t104.5 -308.5q0 -177 -71.5 -327t-199 -239.5t-282.5 -89.5
q-180 0 -283.5 111t-103.5 309zM813 600q0 127 -52 196.5t-145 69.5q-86 0 -156 -63.5t-107.5 -164.5t-37.5 -216q0 -127 52 -196.5t145 -69.5q86 0 156 63t107.5 164t37.5 217z" />
    <glyph glyph-name="Ohungarumlaut" unicode="&#x150;" 
d="M520 1430l-94 73q67 82 145 197.5t129 206.5l203 -111q-72 -86 -180 -190t-203 -176zM958 1427l-98 74q145 174 266 389l209 -96q-69 -86 -175 -189.5t-202 -177.5zM709 1294q179 0 285 -120t106 -361q0 -162 -45 -314.5t-123.5 -268.5t-192.5 -186.5t-243 -70.5
q-177 0 -283.5 120.5t-106.5 361.5q0 129 28.5 253.5t82.5 229.5t127 185t167.5 125.5t197.5 45.5zM522 170q98 0 177.5 94.5t121 239t41.5 301.5q0 148 -47.5 221.5t-132.5 73.5q-97 0 -176 -95t-120.5 -239.5t-41.5 -300.5q0 -149 46.5 -222t131.5 -73z" />
    <glyph glyph-name="ohungarumlaut" unicode="&#x151;" 
d="M459 1180l-94 73q67 82 145 197.5t129 206.5l203 -111q-72 -86 -180 -190t-203 -176zM897 1178l-98 73q145 174 266 389l209 -96q-68 -86 -174 -189t-203 -177zM94 393q0 175 71.5 325t199 240.5t282.5 90.5q178 0 282.5 -111.5t104.5 -308.5q0 -177 -71.5 -327
t-199 -239.5t-282.5 -89.5q-180 0 -283.5 111t-103.5 309zM813 600q0 127 -52 196.5t-145 69.5q-86 0 -156 -63.5t-107.5 -164.5t-37.5 -216q0 -127 52 -196.5t145 -69.5q86 0 156 63t107.5 164t37.5 217z" />
    <glyph glyph-name="OE" unicode="&#x152;" 
d="M315 440q0 -254 187 -254l172 897q-77 -3 -140.5 -52t-103 -121.5t-66.5 -161.5t-38 -166.5t-11 -141.5zM1024 186l-49 -186h-438q-105 0 -184.5 22t-140 71.5t-91.5 135t-31 205.5q0 73 10 148.5t34.5 158.5t61 158t94.5 143.5t129.5 118.5t170.5 79.5t215 29.5h420
l-35 -187h-320l-71 -366h260l-31 -156h-258l-72 -375h326z" />
    <glyph glyph-name="oe" unicode="&#x153;" 
d="M551 733q0 135 -72 135q-55 0 -108.5 -102.5t-84 -234.5t-30.5 -232q0 -71 20.5 -109t57.5 -38q44 0 85.5 63.5t69.5 155t45 190t17 172.5zM911 862q-62 0 -115.5 -104t-80.5 -250q124 27 189 106t65 166q0 82 -58 82zM1077 125q-112 -81 -203.5 -116t-154.5 -24
t-104 52.5t-62 112.5q-127 -170 -270 -170q-109 0 -171.5 86.5t-62.5 246.5q0 173 59.5 339.5t167 277t232.5 110.5q74 0 126 -44.5t77 -125.5q58 79 126.5 124.5t141.5 45.5q88 0 141.5 -59t53.5 -166q0 -160 -121 -279t-353 -153q-2 -16 -2 -51q0 -87 32.5 -126.5
t111 -35.5t211.5 57z" />
    <glyph glyph-name="Racute" unicode="&#x154;" 
d="M453 1505q102 59 238 159t227 185l143 -172q-101 -72 -265.5 -147t-301.5 -121zM762 -16l-273 587v2q193 89 276 172.5t83 182.5q0 95 -86 137t-252 22l-209 -1087h-225l243 1264q169 25 296 20t215 -28t142.5 -67t78.5 -97t24 -119q0 -249 -332 -432l265 -525z" />
    <glyph glyph-name="racute" unicode="&#x155;" 
d="M518 1280q102 59 238 159t227 185l143 -172q-101 -72 -265.5 -147t-301.5 -121zM1038 66q-380 -170 -452 -6q-74 170 168 720q-137 -39 -260 -45q-120 -216 -340 -436l-80 82q195 227 266 364q-56 12 -87.5 41.5t-31.5 73.5q0 80 78 155t168 75q48 0 76 -30t28 -83
q0 -29 -6 -59q210 34 371 114l104 -51q-215 -520 -240 -686q-18 -120 43 -140q46 -15 181 23z" />
    <glyph glyph-name="Rcommaaccent" unicode="&#x156;" 
d="M762 -16l-273 587v2q193 89 276 172.5t83 182.5q0 95 -86 137t-252 22l-209 -1087h-225l243 1264q169 25 296 20t215 -28t142.5 -67t78.5 -97t24 -119q0 -249 -332 -432l265 -525zM264 -551q100 182 72 393l276 4q-14 -121 -81.5 -235.5t-176.5 -200.5z" />
    <glyph glyph-name="rcommaaccent" unicode="&#x157;" 
d="M1038 66q-380 -170 -452 -6q-74 170 168 720q-137 -39 -260 -45q-120 -216 -340 -436l-80 82q195 227 266 364q-56 12 -87.5 41.5t-31.5 73.5q0 80 78 155t168 75q48 0 76 -30t28 -83q0 -29 -6 -59q210 34 371 114l104 -51q-215 -520 -240 -686q-18 -120 43 -140
q46 -15 181 23zM201 -522q99 180 71 393l277 4q-14 -121 -81.5 -235.5t-176.5 -200.5z" />
    <glyph glyph-name="Rcaron" unicode="&#x158;" 
d="M719 1399h-14l-306 305l150 115l201 -215l307 206l98 -110zM762 -16l-273 587v2q193 89 276 172.5t83 182.5q0 95 -86 137t-252 22l-209 -1087h-225l243 1264q169 25 296 20t215 -28t142.5 -67t78.5 -97t24 -119q0 -249 -332 -432l265 -525z" />
    <glyph glyph-name="rcaron" unicode="&#x159;" 
d="M741 1174h-14l-305 305l149 114l201 -215l307 207l99 -110zM1038 66q-380 -170 -452 -6q-74 170 168 720q-137 -39 -260 -45q-120 -216 -340 -436l-80 82q195 227 266 364q-56 12 -87.5 41.5t-31.5 73.5q0 80 78 155t168 75q48 0 76 -30t28 -83q0 -29 -6 -59
q210 34 371 114l104 -51q-215 -520 -240 -686q-18 -120 43 -140q46 -15 181 23z" />
    <glyph glyph-name="Sacute" unicode="&#x15a;" 
d="M502 1516q102 59 238 159t227 185l143 -172q-102 -72 -267 -148t-300 -121zM1069 932l-199 -39q-24 112 -77 161.5t-142 49.5q-84 0 -139 -49.5t-55 -120.5q0 -43 28 -86.5t72.5 -81.5t98.5 -77t108 -81.5t98.5 -86t72.5 -98.5t28 -112q0 -83 -50.5 -152.5t-159.5 -119.5
t-281.5 -55t-416.5 41l45 221q135 -37 244 -53.5t179 -13.5t117 19.5t67 42t20 58.5q0 37 -27.5 75t-71.5 73.5t-97.5 73.5t-107 80t-97.5 87t-71.5 102t-27.5 117q0 76 34.5 146t95 123.5t149 85.5t190.5 32q164 0 253.5 -91t119.5 -271z" />
    <glyph glyph-name="sacute" unicode="&#x15b;" 
d="M446 1315q102 59 238 159t227 185l144 -172q-101 -72 -266 -147t-302 -121zM971 295q0 -54 -21 -100t-73.5 -88.5t-134 -70.5t-210.5 -42.5t-296 -9.5l4 198q198 -17 312 -6t157 36t43 71q0 41 -32.5 91t-98 124.5t-95.5 115.5q-149 -109 -340 -211l-49 101
q231 151 320 231q-25 58 -25 113q0 101 81 173.5t179 72.5q43 0 73.5 -15t43.5 -44t8.5 -68.5t-35 -92t-84.5 -110.5q23 -42 74.5 -107.5t92.5 -117t73.5 -119t32.5 -125.5z" />
    <glyph glyph-name="Scedilla" unicode="&#x15e;" 
d="M502 -385q14 250 -82 250q-81 0 -178 -199l-113 37q88 215 199 283q-123 9 -273 39l45 221q135 -37 244 -53.5t179 -13.5t117 19.5t67 42t20 58.5q0 37 -27.5 75t-71.5 73.5t-97.5 73.5t-107 80t-97.5 87t-71.5 102t-27.5 117q0 76 34.5 146t95 123.5t149 85.5t190.5 32
q164 0 253.5 -91t119.5 -271l-199 -39q-24 112 -77 161.5t-142 49.5q-84 0 -139 -49.5t-55 -120.5q0 -43 28 -86.5t72.5 -81.5t98.5 -77t108 -81.5t98.5 -86t72.5 -98.5t28 -112q0 -117 -101 -206.5t-303 -114.5q69 -40 105.5 -134.5t27.5 -236.5z" />
    <glyph glyph-name="scedilla" unicode="&#x15f;" 
d="M559 -383q14 250 -82 250q-81 0 -178 -199l-113 37q84 204 191 279q-65 -3 -141 0l4 198q198 -17 312 -6t157 36t43 71q0 41 -32.5 91t-98 124.5t-95.5 115.5q-149 -109 -340 -211l-49 101q231 151 320 231q-25 58 -25 113q0 101 81 173.5t179 72.5q43 0 73.5 -15
t43.5 -44t8.5 -68.5t-35 -92t-84.5 -110.5q23 -42 74.5 -107.5t92.5 -117t73.5 -119t32.5 -125.5q0 -105 -87 -183t-284 -110q76 -37 117.5 -134t32.5 -247z" />
    <glyph glyph-name="Scaron" unicode="&#x160;" 
d="M770 1409h-14l-305 305l149 115l201 -215l307 207l98 -111zM1069 932l-199 -39q-24 112 -77 161.5t-142 49.5q-84 0 -139 -49.5t-55 -120.5q0 -43 28 -86.5t72.5 -81.5t98.5 -77t108 -81.5t98.5 -86t72.5 -98.5t28 -112q0 -83 -50.5 -152.5t-159.5 -119.5t-281.5 -55
t-416.5 41l45 221q135 -37 244 -53.5t179 -13.5t117 19.5t67 42t20 58.5q0 37 -27.5 75t-71.5 73.5t-97.5 73.5t-107 80t-97.5 87t-71.5 102t-27.5 117q0 76 34.5 146t95 123.5t149 85.5t190.5 32q164 0 253.5 -91t119.5 -271z" />
    <glyph glyph-name="scaron" unicode="&#x161;" 
d="M713 1208h-15l-305 305l150 115l200 -215l308 207l98 -111zM971 295q0 -54 -21 -100t-73.5 -88.5t-134 -70.5t-210.5 -42.5t-296 -9.5l4 198q198 -17 312 -6t157 36t43 71q0 41 -32.5 91t-98 124.5t-95.5 115.5q-149 -109 -340 -211l-49 101q231 151 320 231
q-25 58 -25 113q0 101 81 173.5t179 72.5q43 0 73.5 -15t43.5 -44t8.5 -68.5t-35 -92t-84.5 -110.5q23 -42 74.5 -107.5t92.5 -117t73.5 -119t32.5 -125.5z" />
    <glyph glyph-name="Tcommaaccent" unicode="&#x162;" 
d="M788 1075l-208 -1075h-230l207 1075h-364l38 195h961l-39 -195h-365zM227 -535q100 182 72 394l276 4q-14 -121 -81.5 -235.5t-176.5 -200.5z" />
    <glyph glyph-name="tcommaaccent" unicode="&#x163;" 
d="M950 106q-97 -50 -182.5 -82t-153.5 -43.5t-123.5 -7.5t-94.5 24.5t-66 53.5t-39 78.5t-11 101t15 119.5l111 494h-189l43 170h123l176 284l166 13l-66 -297h369l-33 -170h-374l-107 -482q-25 -98 -1 -148.5t123 -50.5t300 54zM248 -561q99 180 71 393l277 4
q-14 -121 -81.5 -235.5t-176.5 -200.5z" />
    <glyph glyph-name="Tcaron" unicode="&#x164;" 
d="M733 1384h-14l-305 306l149 114l201 -215l307 207l98 -110zM788 1075l-208 -1075h-230l207 1075h-364l38 195h961l-39 -195h-365z" />
    <glyph glyph-name="tcaron" unicode="&#x165;" 
d="M911 1706l242 8q-15 -146 -72.5 -272.5t-165.5 -253.5l-94 37q56 122 74.5 234.5t15.5 246.5zM950 106q-97 -50 -182.5 -82t-153.5 -43.5t-123.5 -7.5t-94.5 24.5t-66 53.5t-39 78.5t-11 101t15 119.5l111 494h-189l43 170h123l176 284l166 13l-66 -297h369l-33 -170
h-374l-107 -482q-25 -98 -1 -148.5t123 -50.5t300 54z" />
    <glyph glyph-name="Umacron" unicode="&#x16a;" 
d="M1155 1661l-35 -182h-708l37 182h706zM373 471q-24 -112 -9 -179.5t54.5 -95.5t105.5 -28q92 0 150 61t84 191l164 850h227l-164 -846q-89 -453 -489 -453q-211 0 -306 125.5t-43 386.5l154 787h225z" />
    <glyph glyph-name="umacron" unicode="&#x16b;" 
d="M1126 1421l-34 -182h-709l37 182h706zM1069 84q-114 -68 -194.5 -93t-126 -7.5t-62.5 66.5t-8 132q-188 -209 -352 -209q-120 0 -167 96t-7 281l73 342l-100 66l172 258l215 14l-141 -651q-45 -197 73 -197t265 176l129 662h213l-146 -746q-15 -57 -8 -83t39.5 -25
t112.5 29z" />
    <glyph glyph-name="Ubreve" unicode="&#x16c;" 
d="M1085 1782l125 -76q-233 -301 -458 -301q-110 0 -198 76t-146 225l163 88q50 -115 102.5 -166t125.5 -51q66 0 131.5 49.5t154.5 155.5zM373 471q-24 -112 -9 -179.5t54.5 -95.5t105.5 -28q92 0 150 61t84 191l164 850h227l-164 -846q-89 -453 -489 -453
q-211 0 -306 125.5t-43 386.5l154 787h225z" />
    <glyph glyph-name="ubreve" unicode="&#x16d;" 
d="M1057 1542l125 -76q-233 -301 -459 -301q-110 0 -198 76t-146 225l164 88q50 -116 102 -166.5t125 -50.5q66 0 132 50t155 155zM1069 84q-114 -68 -194.5 -93t-126 -7.5t-62.5 66.5t-8 132q-188 -209 -352 -209q-120 0 -167 96t-7 281l73 342l-100 66l172 258l215 14
l-141 -651q-45 -197 73 -197t265 176l129 662h213l-146 -746q-15 -57 -8 -83t39.5 -25t112.5 29z" />
    <glyph glyph-name="Uring" unicode="&#x16e;" 
d="M809 1817q113 0 183.5 -59t70.5 -144q0 -97 -84 -166.5t-209 -69.5q-114 0 -185 59t-71 146q0 97 84 165.5t211 68.5zM373 471q-24 -112 -9 -179.5t54.5 -95.5t105.5 -28q92 0 150 61t84 191l164 850h227l-164 -846q-89 -453 -489 -453q-211 0 -306 125.5t-43 386.5
l154 787h225z" />
    <glyph glyph-name="uring" unicode="&#x16f;" 
d="M778 1577q113 0 183.5 -59t70.5 -144q0 -97 -83.5 -166t-209.5 -69q-115 0 -185.5 58.5t-70.5 145.5q0 97 84 165.5t211 68.5zM1069 84q-114 -68 -194.5 -93t-126 -7.5t-62.5 66.5t-8 132q-188 -209 -352 -209q-120 0 -167 96t-7 281l73 342l-100 66l172 258l215 14
l-141 -651q-45 -197 73 -197t265 176l129 662h213l-146 -746q-15 -57 -8 -83t39.5 -25t112.5 29z" />
    <glyph glyph-name="Uhungarumlaut" unicode="&#x170;" 
d="M514 1401l-94 74q67 83 145 198t129 205l203 -111q-72 -86 -180 -190t-203 -176zM952 1399l-98 74q145 174 266 389l209 -97q-68 -86 -174 -189t-203 -177zM373 471q-24 -112 -9 -179.5t54.5 -95.5t105.5 -28q92 0 150 61t84 191l164 850h227l-164 -846
q-89 -453 -489 -453q-211 0 -306 125.5t-43 386.5l154 787h225z" />
    <glyph glyph-name="uhungarumlaut" unicode="&#x171;" 
d="M485 1161l-94 74q68 83 146.5 198.5t128.5 204.5l202 -110q-73 -86 -181 -190.5t-202 -176.5zM924 1159l-99 74q148 178 267 389l208 -96q-69 -87 -174.5 -190.5t-201.5 -176.5zM1069 84q-114 -68 -194.5 -93t-126 -7.5t-62.5 66.5t-8 132q-188 -209 -352 -209
q-120 0 -167 96t-7 281l73 342l-100 66l172 258l215 14l-141 -651q-45 -197 73 -197t265 176l129 662h213l-146 -746q-15 -57 -8 -83t39.5 -25t112.5 29z" />
    <glyph glyph-name="Uogonek" unicode="&#x172;" 
d="M719 -344q-118 -58 -216 -77.5t-159 -3.5t-94 53.5t-33 90.5q0 131 225 254q-185 16 -264.5 140.5t-30.5 369.5l154 787h225l-153 -799q-24 -112 -9 -179.5t54.5 -95.5t105.5 -28q92 0 150 61t84 191l164 850h227l-164 -846q-59 -297 -252 -397q-181 -92 -249 -143.5
t-68 -100.5q0 -19 9.5 -33.5t31 -23t53.5 -9t79.5 9t106.5 29.5z" />
    <glyph glyph-name="uogonek" unicode="&#x173;" 
d="M981 -344q-118 -58 -217 -77.5t-160 -3t-94 54t-33 91.5q0 74 64 150t198 147q-73 34 -61 166q-193 -211 -352 -211q-120 0 -167 96t-7 281l73 342l-100 66l172 258l215 14l-141 -651q-45 -197 73 -197t265 176l129 662h213l-146 -746q-15 -57 -8 -83t39.5 -25t112.5 29
l20 -111q-115 -49 -195 -93.5t-121 -81.5t-58 -67t-17 -59q0 -19 9.5 -33.5t31 -23t53.5 -9t79.5 9t106.5 29.5z" />
    <glyph glyph-name="Wcircumflex" unicode="&#x174;" 
d="M1004 1391l-201 217l-307 -209l-99 112l439 299h12l305 -305zM637 0l-35 606l-270 -606h-219q6 190 42.5 533.5t94.5 736.5h225l-41 -270q-42 -271 -71 -467.5t-31 -225.5h8l258 582h127l31 -582h8q11 36 227 963h221q-198 -813 -350 -1270h-225z" />
    <glyph glyph-name="wcircumflex" unicode="&#x175;" 
d="M956 1139l-200 217l-307 -209l-99 113l438 299h13l305 -306zM633 0l-66 483l-252 -483h-204q15 407 102 1018h217q-35 -191 -123 -758h6l248 492h133l58 -494h10q136 620 164 760h227q-108 -415 -313 -1018h-207z" />
    <glyph glyph-name="Ycircumflex" unicode="&#x176;" 
d="M991 1395l-200 217l-308 -209l-98 113l438 299h13l305 -306zM584 0h-228l82 424l-241 842l235 8l164 -637l395 633h244l-571 -860z" />
    <glyph glyph-name="ycircumflex" unicode="&#x177;" 
d="M956 1161l-200 217l-307 -209l-99 113l438 299h13l305 -305zM879 -139q-124 -240 -783 -209l31 211q265 -18 399.5 -6t169.5 45q12 12 18 33t7 60.5t0 68t-5 93t-5 97.5q-88 -84 -190 -136t-197 -52q-382 0 -29 950l213 8q-67 -188 -105 -327t-49.5 -221.5t-2 -132
t31 -66.5t57.5 -17q54 0 125.5 38.5t145.5 109.5q6 145 46 296t90.5 243.5t88.5 92.5q50 0 100.5 -18.5t50.5 -48.5q0 -78 -55 -247t-135 -314v-13q0 -59 9 -189t4.5 -212t-31.5 -137z" />
    <glyph glyph-name="Ydieresis" unicode="&#x178;" 
d="M1071 1436l-231 -2l67 274l252 6zM623 1432l-234 -2l68 276l252 2zM584 0h-228l82 424l-241 842l235 8l164 -637l395 633h244l-571 -860z" />
    <glyph glyph-name="Zacute" unicode="&#x179;" 
d="M471 1491q102 59 238 159t227 185l143 -172q-101 -72 -265.5 -147t-301.5 -121zM905 0h-870l35 193l780 882l-600 -4l39 199h848l-31 -193l-772 -882l608 4z" />
    <glyph glyph-name="zacute" unicode="&#x17a;" 
d="M430 1241q102 59 238 159t227 185l143 -172q-101 -72 -265.5 -147t-301.5 -121zM881 0h-824l37 184l692 650l-565 -7l51 193h805l-37 -184l-690 -650l584 7z" />
    <glyph glyph-name="Zdotaccent" unicode="&#x17b;" 
d="M848 1430l-238 -3l68 277l258 2zM905 0h-870l35 193l780 882l-600 -4l39 199h848l-31 -193l-772 -882l608 4z" />
    <glyph glyph-name="zdotaccent" unicode="&#x17c;" 
d="M807 1180l-238 -2l68 276l258 2zM881 0h-824l37 184l692 650l-565 -7l51 193h805l-37 -184l-690 -650l584 7z" />
    <glyph glyph-name="Zcaron" unicode="&#x17d;" 
d="M737 1384h-14l-305 306l149 114l201 -215l307 207l99 -110zM905 0h-870l35 193l780 882l-600 -4l39 199h848l-31 -193l-772 -882l608 4z" />
    <glyph glyph-name="zcaron" unicode="&#x17e;" 
d="M696 1135h-14l-305 305l149 114l201 -215l307 207l99 -110zM881 0h-824l37 184l692 650l-565 -7l51 193h805l-37 -184l-690 -650l584 7z" />
    <glyph glyph-name="Aringacute" unicode="&#x1fa;" 
d="M590 1985q102 59 238 159t227 185l143 -172q-102 -72 -267 -148t-300 -121zM807 1819q113 0 183.5 -59t70.5 -144q0 -97 -84 -166.5t-209 -69.5q-114 0 -185 59t-71 146q0 97 84 165.5t211 68.5zM754 -8q-3 56 -9.5 175.5t-9.5 182.5h-381q-7 -17 -63 -149t-84 -201h-230
q262 601 588 1272h314q62 -665 100 -1264zM676 1077q-227 -509 -248 -557h299q-6 116 -35 557h-16z" />
    <glyph glyph-name="aringacute" unicode="&#x1fb;" 
d="M582 1757q102 59 238 159t227 185l143 -172q-101 -72 -265.5 -147t-301.5 -121zM799 1587q113 0 183.5 -59t70.5 -144q0 -97 -83.5 -166t-209.5 -69q-114 0 -185 59t-71 146q0 97 84 165t211 68zM414 182q51 0 123.5 41.5t142.5 106.5q49 239 96 493q-98 33 -174 33
q-78 0 -148 -76.5t-110.5 -194.5t-40.5 -239q0 -83 31 -123.5t80 -40.5zM1057 84q-93 -56 -163 -82t-115.5 -25.5t-72.5 26.5t-36 70.5t-4 110.5q-97 -93 -193.5 -151t-175.5 -58q-96 0 -155.5 81.5t-59.5 236.5q0 142 45.5 276.5t125.5 239t201.5 168t262.5 63.5
q151 0 305 -45l-139 -721q-6 -32 -8.5 -49t0.5 -32.5t12.5 -20t29.5 -4.5t47.5 7t71.5 20z" />
    <glyph glyph-name="AEacute" unicode="&#x1fc;" 
d="M625 1491q102 59 238 159t227 185l143 -172q-101 -72 -265.5 -147t-301.5 -121zM666 1083q-45 -97 -134.5 -288.5t-134.5 -288.5h176l113 577h-20zM475 0l68 342h-221q-30 -64 -86 -181.5t-76 -160.5h-221q291 591 634 1270h660l-37 -187h-317l-72 -366h258l-31 -156
h-258l-74 -375h328l-47 -186h-508z" />
    <glyph glyph-name="aeacute" unicode="&#x1fd;" 
d="M467 1255q102 59 238 159t227 185l143 -172q-101 -72 -265.5 -147t-301.5 -121zM1069 123q-124 -79 -224.5 -112.5t-169.5 -22t-114 53t-67 112.5q-149 -166 -283 -166q-168 0 -168 270q0 142 37.5 281.5t101.5 248.5t156.5 176.5t193.5 67.5q119 0 226 -61q90 69 196 69
q97 0 152 -60t55 -159q0 -75 -28 -143t-84.5 -127t-150.5 -101.5t-216 -60.5q-2 -18 -2 -51q0 -91 32.5 -131.5t113.5 -35.5t223 60zM897 862q-64 0 -119.5 -103.5t-81.5 -250.5q69 15 122 48t82 73.5t43.5 79t14.5 73.5q0 80 -61 80zM332 182q61 0 143 111v4q0 147 38 282
t105 240q-58 41 -120 41q-61 0 -115.5 -82t-85.5 -204.5t-31 -245.5q0 -146 66 -146z" />
    <glyph glyph-name="Oslashacute" unicode="&#x1fe;" 
d="M487 1520q102 59 238 159t227 185l144 -172q-102 -72 -267 -147.5t-301 -121.5zM346 471q0 -32 4 -78l461 635q-49 78 -137 78q-96 0 -172.5 -92t-116 -236t-39.5 -307zM532 164q95 0 171.5 92t116.5 236.5t40 306.5q0 36 -4 86l-465 -637q46 -84 141 -84zM504 -29
q-142 0 -236 76l-100 -137l-129 84l129 178q-57 120 -57 301q0 161 44.5 311.5t121.5 264t188 181.5t237 68q140 0 234 -73l98 135l129 -84l-129 -176q60 -120 60 -303q0 -162 -44.5 -312t-121 -264t-187.5 -182t-237 -68z" />
    <glyph glyph-name="oslashacute" unicode="&#x1ff;" 
d="M424 1270q102 59 238 159t227 185l143 -172q-101 -72 -265.5 -147t-301.5 -121zM313 420q0 -50 9 -94l432 483q-49 61 -138 61q-87 0 -157.5 -64t-108 -166.5t-37.5 -219.5zM512 152q87 0 157.5 63.5t108 166t37.5 220.5q0 51 -8 84l-428 -479q49 -55 133 -55zM481 -27
q-139 0 -237 70l-113 -123l-117 88l133 148q-53 95 -53 237q0 175 71.5 325t199 240.5t282.5 90.5q144 0 242 -76l110 125l121 -88l-135 -152q49 -100 49 -229q0 -177 -71.5 -327t-199 -239.5t-282.5 -89.5z" />
    <glyph glyph-name="Scommaaccent" unicode="&#x218;" 
d="M1069 932l-199 -39q-24 112 -77 161.5t-142 49.5q-84 0 -139 -49.5t-55 -120.5q0 -43 28 -86.5t72.5 -81.5t98.5 -77t108 -81.5t98.5 -86t72.5 -98.5t28 -112q0 -83 -50.5 -152.5t-159.5 -119.5t-281.5 -55t-416.5 41l45 221q135 -37 244 -53.5t179 -13.5t117 19.5t67 42
t20 58.5q0 37 -27.5 75t-71.5 73.5t-97.5 73.5t-107 80t-97.5 87t-71.5 102t-27.5 117q0 76 34.5 146t95 123.5t149 85.5t190.5 32q164 0 253.5 -91t119.5 -271zM223 -553q100 182 72 393l276 4q-14 -121 -81.5 -235.5t-176.5 -200.5z" />
    <glyph glyph-name="scommaaccent" unicode="&#x219;" 
d="M971 295q0 -54 -21 -100t-73.5 -88.5t-134 -70.5t-210.5 -42.5t-296 -9.5l4 198q198 -17 312 -6t157 36t43 71q0 41 -32.5 91t-98 124.5t-95.5 115.5q-149 -109 -340 -211l-49 101q231 151 320 231q-25 58 -25 113q0 101 81 173.5t179 72.5q43 0 73.5 -15t43.5 -44
t8.5 -68.5t-35 -92t-84.5 -110.5q23 -42 74.5 -107.5t92.5 -117t73.5 -119t32.5 -125.5zM221 -555q100 182 72 393l276 4q-14 -121 -81.5 -235.5t-176.5 -200.5z" />
    <glyph glyph-name="schwa" unicode="&#x259;" 
d="M389 -27q-138 0 -218.5 69t-80.5 187q0 176 183.5 282t531.5 132q-3 115 -64.5 165.5t-199 46t-375.5 -66.5l-25 115q141 71 265.5 106.5t219 34.5t170 -28.5t124 -80.5t73.5 -124t25 -156q0 -121 -49 -244t-132 -219.5t-201.5 -157.5t-246.5 -61zM449 154
q127 0 221.5 108t124.5 258q-237 -18 -366.5 -78.5t-129.5 -165.5q0 -56 40.5 -89t109.5 -33z" />
    <glyph glyph-name="circumflex" unicode="&#x2c6;" 
d="M807 1141l-201 217l-307 -209l-98 113l438 299h12l305 -306z" />
    <glyph glyph-name="caron" unicode="&#x2c7;" 
d="M565 1135h-14l-305 305l149 114l201 -215l307 207l98 -110z" />
    <glyph glyph-name="breve" unicode="&#x2d8;" 
d="M883 1532l125 -76q-233 -301 -459 -301q-110 0 -198 76t-146 225l164 88q50 -116 102 -166.5t125 -50.5q66 0 132 50t155 155z" />
    <glyph glyph-name="dotaccent" unicode="&#x2d9;" 
d="M655 1180l-237 -2l67 276l258 2z" />
    <glyph glyph-name="ring" unicode="&#x2da;" 
d="M676 1567q113 0 183.5 -59t70.5 -144q0 -97 -84 -166.5t-209 -69.5q-114 0 -185 59t-71 146q0 97 84 165.5t211 68.5z" />
    <glyph glyph-name="ogonek" unicode="&#x2db;" 
d="M760 88l61 -86q-189 -51 -278.5 -107.5t-89.5 -109.5q0 -33 27 -51t92 -14t161 36l23 -100q-118 -58 -216 -77.5t-159 -3.5t-94 53.5t-33 90.5q0 96 122.5 191.5t383.5 177.5z" />
    <glyph glyph-name="tilde" unicode="&#x2dc;" 
d="M745 1331q57 0 173 176l106 -61q-79 -132 -161 -207.5t-161 -75.5q-46 0 -90 30t-72 65.5t-60 65.5t-56 30q-32 0 -73 -43.5t-97 -130.5l-109 61q76 130 159.5 204.5t162.5 74.5q37 0 72.5 -19.5t62.5 -47t51 -55.5t47.5 -47.5t44.5 -19.5z" />
    <glyph glyph-name="hungarumlaut" unicode="&#x2dd;" 
d="M362 1151l-94 74q68 83 146.5 198.5t128.5 204.5l202 -110q-73 -86 -181 -190.5t-202 -176.5zM801 1149l-99 74q148 178 267 389l209 -96q-69 -86 -175 -189.5t-202 -177.5z" />
    <glyph glyph-name="commaaccent" unicode="&#x326;" 
d="M344 -535q100 182 72 394l276 4q-14 -121 -81.5 -235.5t-176.5 -200.5z" />
    <glyph glyph-name="Wgrave" unicode="&#x1e80;" 
d="M1055 1477l-49 -91q-107 43 -258 126t-256 157l135 174q92 -92 214 -196.5t214 -169.5zM637 0l-35 606l-270 -606h-219q6 190 42.5 533.5t94.5 736.5h225l-41 -270q-42 -271 -71 -467.5t-31 -225.5h8l258 582h127l31 -582h8q11 36 227 963h221q-198 -813 -350 -1270h-225
z" />
    <glyph glyph-name="wgrave" unicode="&#x1e81;" 
d="M1008 1225l-50 -90q-108 43 -259 126t-255 156l136 174q92 -92 214 -196.5t214 -169.5zM633 0l-66 483l-252 -483h-204q15 407 102 1018h217q-35 -191 -123 -758h6l248 492h133l58 -494h10q136 620 164 760h227q-108 -415 -313 -1018h-207z" />
    <glyph glyph-name="Wacute" unicode="&#x1e82;" 
d="M485 1491q102 59 238 159t227 185l144 -172q-101 -72 -266 -147t-302 -121zM637 0l-35 606l-270 -606h-219q6 190 42.5 533.5t94.5 736.5h225l-41 -270q-42 -271 -71 -467.5t-31 -225.5h8l258 582h127l31 -582h8q11 36 227 963h221q-198 -813 -350 -1270h-225z" />
    <glyph glyph-name="wacute" unicode="&#x1e83;" 
d="M438 1239q102 59 238 159t227 185l144 -172q-101 -72 -266 -147t-302 -121zM633 0l-66 483l-252 -483h-204q15 407 102 1018h217q-35 -191 -123 -758h6l248 492h133l58 -494h10q136 620 164 760h227q-108 -415 -313 -1018h-207z" />
    <glyph glyph-name="Wdieresis" unicode="&#x1e84;" 
d="M1085 1432l-231 -2l68 274l252 6zM637 1427l-234 -2l68 277l252 2zM637 0l-35 606l-270 -606h-219q6 190 42.5 533.5t94.5 736.5h225l-41 -270q-42 -271 -71 -467.5t-31 -225.5h8l258 582h127l31 -582h8q11 36 227 963h221q-198 -813 -350 -1270h-225z" />
    <glyph glyph-name="wdieresis" unicode="&#x1e85;" 
d="M1036 1180l-231 -2l67 274l252 6zM588 1176l-234 -2l68 276l252 2zM633 0l-66 483l-252 -483h-204q15 407 102 1018h217q-35 -191 -123 -758h6l248 492h133l58 -494h10q136 620 164 760h227q-108 -415 -313 -1018h-207z" />
    <glyph glyph-name="Ygrave" unicode="&#x1ef2;" 
d="M1040 1481l-49 -90q-108 43 -259 126t-255 156l135 174q92 -92 214 -196.5t214 -169.5zM584 0h-228l82 424l-241 842l235 8l164 -637l395 633h244l-571 -860z" />
    <glyph glyph-name="ygrave" unicode="&#x1ef3;" 
d="M1008 1247l-50 -90q-107 43 -258 126t-256 157l136 174q93 -93 214.5 -198t213.5 -169zM879 -139q-124 -240 -783 -209l31 211q265 -18 399.5 -6t169.5 45q12 12 18 33t7 60.5t0 68t-5 93t-5 97.5q-88 -84 -190 -136t-197 -52q-382 0 -29 950l213 8q-67 -188 -105 -327
t-49.5 -221.5t-2 -132t31 -66.5t57.5 -17q54 0 125.5 38.5t145.5 109.5q6 145 46 296t90.5 243.5t88.5 92.5q50 0 100.5 -18.5t50.5 -48.5q0 -78 -55 -247t-135 -314v-13q0 -59 9 -189t4.5 -212t-31.5 -137z" />
    <glyph glyph-name="endash" unicode="&#x2013;" 
d="M1018 696l-33 -174h-838l33 174h838z" />
    <glyph glyph-name="emdash" unicode="&#x2014;" 
d="M1077 696l-33 -174h-913l33 174h913z" />
    <glyph glyph-name="quoteleft" unicode="&#x2018;" 
d="M895 1360q-103 -130 -135.5 -258t-18.5 -309l-282 -7q6 187 91 336t257 289z" />
    <glyph glyph-name="quoteright" unicode="&#x2019;" 
d="M438 801q103 129 135.5 257.5t18.5 309.5l282 8q-6 -189 -91 -337t-257 -289z" />
    <glyph glyph-name="quotesinglbase" unicode="&#x201a;" 
d="M250 -274q103 127 135 255t18 310l283 8q-6 -189 -91 -338t-257 -289z" />
    <glyph glyph-name="quotedblleft" unicode="&#x201c;" 
d="M1137 1360q-98 -131 -130 -258t-20 -305l-276 -9q6 186 89 333.5t249 289.5zM674 1360q-104 -130 -137.5 -258t-20.5 -309l-276 -7q6 187 91 336t257 289z" />
    <glyph glyph-name="quotedblright" unicode="&#x201d;" 
d="M674 801q103 129 136.5 257.5t20.5 309.5l277 8q-4 -188 -89.5 -336.5t-258.5 -289.5zM211 801q98 129 129.5 257t19.5 308l277 6q-6 -187 -89 -333.5t-251 -288.5z" />
    <glyph glyph-name="quotedblbase" unicode="&#x201e;" 
d="M479 -274q103 127 137 255t23 310l276 8q-6 -189 -91.5 -338t-258.5 -289zM18 -274q98 128 130 256t18 307l276 6q-4 -185 -87.5 -333t-250.5 -290z" />
    <glyph glyph-name="dagger" unicode="&#x2020;" 
d="M575 272l-151 -55l-29 21l152 714l-307 31l34 174l310 -31l65 306l211 -21l-67 -305l290 -29l-34 -174l-299 29z" />
    <glyph glyph-name="daggerdbl" unicode="&#x2021;" 
d="M553 168l-152 -55l-28 22l88 410l-303 28l35 177l305 -31l49 233l-307 31l34 174l310 -31l65 306l211 -21l-69 -305l292 -29l-34 -174l-301 29l-60 -234l313 -30l-34 -172l-322 30z" />
    <glyph glyph-name="bullet" unicode="&#x2022;" 
d="M852 645q0 -141 -90 -231t-211 -90q-105 0 -177.5 72.5t-72.5 181.5q0 140 89 229.5t208 89.5q112 0 183 -70.5t71 -181.5z" />
    <glyph glyph-name="ellipsis" unicode="&#x2026;" 
d="M975 0h-230l66 299h231zM600 0h-229l65 299h232zM225 0h-229l65 299h232z" />
    <glyph glyph-name="guilsinglleft" unicode="&#x2039;" 
d="M610 -45l-387 455l56 221l552 432l123 -170l-538 -389l354 -400z" />
    <glyph glyph-name="guilsinglright" unicode="&#x203a;" 
d="M285 -39l-125 172l538 387l-352 400l158 149l389 -453l-55 -223z" />
    <glyph glyph-name="fraction" unicode="&#x2044;" 
d="M70 -328l-174 92l1177 1786l172 -94z" />
    <glyph glyph-name="zero.sup" unicode="&#x2070;" 
d="M301 977q0 138 56.5 258t155.5 192t214 72q128 0 203.5 -86.5t75.5 -241.5q0 -136 -57 -256t-155 -192t-212 -72q-127 0 -204 86.5t-77 239.5zM834 1159q0 96 -35 146.5t-99 50.5q-65 0 -117.5 -55t-80 -138.5t-27.5 -173.5q0 -94 34.5 -143t96.5 -49q97 0 162.5 111
t65.5 251z" />
    <glyph glyph-name="four.sup" unicode="&#x2074;" 
d="M948 823h-90l-31 -151h-157l28 151h-407l12 119q79 136 133.5 259t106.5 290l184 -8q-57 -166 -116 -284.5t-136 -231.5h252l47 241l162 13l-51 -254h104z" />
    <glyph glyph-name="five.sup" unicode="&#x2075;" 
d="M934 938q0 -47 -21 -89t-70 -80t-121 -63t-182 -35.5t-245 -0.5l18 153q105 -10 182 -7t128.5 11t83 24.5t44.5 34t13 38.5q0 100 -375 149l94 408h525l-43 -146h-355l-39 -161q363 -60 363 -236z" />
    <glyph glyph-name="six.sup" unicode="&#x2076;" 
d="M614 651q-134 0 -216.5 74.5t-82.5 212.5q0 89 32.5 171t99.5 159t183.5 139t272.5 100l37 -141q-350 -71 -434 -274q104 70 209 73t171 -57t66 -160q0 -130 -97 -213.5t-241 -83.5zM641 782q70 0 110 42t40 104q0 60 -41.5 95t-114 30.5t-152.5 -54.5q-2 -12 -2 -36
q0 -91 46.5 -136t113.5 -45z" />
    <glyph glyph-name="seven.sup" unicode="&#x2077;" 
d="M543 662l-187 18q201 342 473 647l-2 8h-434l35 148h616l-30 -144q-257 -300 -471 -677z" />
    <glyph glyph-name="eight.sup" unicode="&#x2078;" 
d="M918 879q0 -97 -94.5 -162.5t-243.5 -65.5q-130 0 -206.5 52.5t-76.5 136.5q0 65 49 124t182 136q-116 101 -116 182q0 110 140.5 176.5t381.5 32.5l-60 -160q-67 17 -119.5 23.5t-86 4.5t-55.5 -11t-31 -22t-9 -30q0 -25 25 -53.5t72 -66.5q150 73 293 133l51 -95
q-169 -73 -250 -112q72 -60 113 -113t41 -110zM612 782q64 0 105 25.5t41 64.5q0 23 -21 51t-45.5 48.5t-70.5 56.5q-94 -53 -127 -87t-33 -64q0 -43 43 -69t108 -26z" />
    <glyph glyph-name="nine.sup" unicode="&#x2079;" 
d="M401 645l-36 141q349 72 432 273q-103 -68 -208 -71t-171 56t-66 158q0 130 97 213.5t241 83.5q134 0 216.5 -74.5t82.5 -212.5q0 -89 -32.5 -171t-99.5 -158t-183.5 -138t-272.5 -100zM514 1223q0 -60 41.5 -95t113.5 -30t152 55q2 12 2 37q0 91 -46 135.5t-113 44.5
q-71 0 -110.5 -42t-39.5 -105z" />
    <glyph glyph-name="zero.inf" unicode="&#x2080;" 
d="M137 -2q0 138 56.5 258t155.5 192t214 72q128 0 203.5 -86t75.5 -241q0 -136 -57 -256t-155 -192.5t-212 -72.5q-127 0 -204 86.5t-77 239.5zM670 180q0 96 -34.5 146.5t-98.5 50.5q-65 0 -118 -55t-80.5 -138.5t-27.5 -173.5q0 -94 34.5 -143t96.5 -49q97 0 162.5 111
t65.5 251z" />
    <glyph glyph-name="one.inf" unicode="&#x2081;" 
d="M737 -307h-622l28 143h240l82 410l-234 -6l23 131l242 26l24 121l172 14l-139 -694h219z" />
    <glyph glyph-name="two.inf" unicode="&#x2082;" 
d="M719 -307h-600v133q106 62 172.5 102.5t135.5 88t106 83.5t61 74t24 74q0 147 -372 98l22 152q261 39 400 -18t139 -189q0 -112 -103.5 -214.5t-328.5 -236.5h375z" />
    <glyph glyph-name="three.inf" unicode="&#x2083;" 
d="M762 -70q0 -54 -33 -101t-108 -86t-195.5 -52.5t-294.5 0.5l21 153q170 -20 267 -10t133 31t36 53q0 42 -79.5 81.5t-244.5 70.5l10 71l349 215h-367l29 146h549l-19 -144l-336 -213q283 -68 283 -215z" />
    <glyph glyph-name="four.inf" unicode="&#x2084;" 
d="M784 -156h-90l-30 -151h-158l29 151h-408l12 119q79 136 133.5 259t106.5 290l184 -8q-57 -166 -116 -284.5t-136 -231.5h252l47 241l162 13l-51 -254h104z" />
    <glyph glyph-name="five.inf" unicode="&#x2085;" 
d="M770 -41q0 -47 -21 -89t-70 -80t-121 -63t-182 -35.5t-245 -0.5l19 153q105 -10 182 -7t128.5 11t82.5 24.5t44 34t13 38.5q0 100 -375 149l94 408h525l-43 -146h-355l-38 -161q362 -59 362 -236z" />
    <glyph glyph-name="six.inf" unicode="&#x2086;" 
d="M451 -328q-134 0 -216.5 74.5t-82.5 212.5q0 70 19.5 136.5t64 132t111 121t167 102.5t225.5 77l37 -141q-350 -71 -434 -274q104 70 209 73t171 -57t66 -160q0 -131 -96.5 -214t-240.5 -83zM477 -197q70 0 110 42t40 104q0 60 -41.5 95t-114 30.5t-152.5 -54.5
q-2 -12 -2 -36q0 -92 46.5 -136.5t113.5 -44.5z" />
    <glyph glyph-name="seven.inf" unicode="&#x2087;" 
d="M379 -317l-186 18q201 342 473 647l-2 8h-435l35 148h617l-31 -144q-257 -300 -471 -677z" />
    <glyph glyph-name="eight.inf" unicode="&#x2088;" 
d="M754 -100q0 -97 -94.5 -162.5t-243.5 -65.5q-130 0 -206.5 52.5t-76.5 136.5q0 65 49 124t183 136q-117 102 -117 182q0 110 140.5 176.5t381.5 32.5l-59 -160q-67 17 -119.5 23.5t-86 4.5t-55.5 -11t-31 -22t-9 -30q0 -25 24.5 -53.5t71.5 -66.5q150 73 293 133l51 -94
q-151 -65 -250 -113q72 -60 113 -113t41 -110zM449 -197q64 0 104.5 26t40.5 65q0 23 -21.5 51t-44.5 47.5t-71 56.5q-94 -53 -127 -87t-33 -64q0 -43 43.5 -69t108.5 -26z" />
    <glyph glyph-name="nine.inf" unicode="&#x2089;" 
d="M238 -334l-37 141q349 72 432 273q-103 -68 -208 -71t-171 56t-66 158q0 130 97 213.5t241 83.5q134 0 216.5 -74.5t82.5 -212.5q0 -89 -32 -170.5t-99 -158t-183.5 -138.5t-272.5 -100zM350 244q0 -60 41.5 -95t113.5 -30t152 55q2 12 2 37q0 91 -46 135.5t-113 44.5
q-71 0 -110.5 -42t-39.5 -105z" />
    <glyph glyph-name="colonmonetary" unicode="&#x20a1;" 
d="M649 283l197 723q-55 -8 -148 -29l-176 -655q53 -20 127 -39zM317 586q0 -126 91 -199l145 539q-236 -108 -236 -340zM520 -152l70 244q-46 11 -121 35l-76 -279h-153l96 338q-217 123 -217 363q0 70 14.5 134.5t48.5 130.5t87 122t134.5 106.5t186.5 87.5l76 289h153
l-65 -241q64 15 135 24l57 217h154l-56 -198q58 3 123 6l-22 -199q-112 -4 -162 -8l-207 -764q115 -18 168 -25l-80 -186q-78 10 -133 18l-57 -215h-154z" />
    <glyph glyph-name="naira" unicode="&#x20a6;" 
d="M424 926l-84 -445l203 4l-107 441h-12zM743 340h15l82 434l-197 -2zM662 0l-84 342l-267 -4l-63 -338h-172l63 330l-135 -2l35 174l135 2l45 231l-135 -2l33 176h135l70 357l202 8l84 -359l258 3l66 352h166l-68 -352l133 2l-35 -177l-133 -2l-45 -231l135 2l-34 -174
l-133 -2l-66 -336h-190z" />
    <glyph glyph-name="rupee" unicode="&#x20a8;" 
d="M389 -12l-61 485l-27 -6l-94 -467h-166l246 1270q221 30 322.5 -32t101.5 -206q0 -126 -62.5 -249.5t-169.5 -221.5l86 -549zM1081 299q0 -53 -9.5 -96t-38.5 -88.5t-78 -75t-134 -46t-200 -11.5v188q69 -9 117 -8.5t77.5 7.5t45 24t21 37.5t5.5 52.5q0 28 -7.5 64
t-15.5 62t-24 74.5t-23 71.5q-42 -38 -131 -104l-49 73q91 82 149 146q-12 52 -12 108q0 129 62 220.5t155 91.5q41 0 68 -18t36 -52t1.5 -78.5t-38 -103t-81.5 -121.5q9 -32 40 -120.5t47.5 -159t16.5 -138.5z" />
    <glyph glyph-name="Euro" unicode="&#x20ac;" 
d="M987 76q-145 -66 -266.5 -88.5t-209 -3.5t-151 72t-98.5 132.5t-45 182.5h-160l33 159h125q9 84 27 160h-125l33 160h143q86 201 235 324.5t324 123.5q140 0 211.5 -82t83.5 -255l-197 -31q-11 96 -43.5 139t-105.5 43q-94 0 -174.5 -76.5t-134.5 -201.5h446l-35 -144
h-459q-19 -82 -22 -153h446l-34 -146h-408q22 -172 146.5 -215t394.5 31z" />
    <glyph glyph-name="peso" unicode="&#x20b1;" 
d="M866 897q-14 107 -109.5 165t-258.5 40l-41 -205h409zM389 551q176 -13 294 39.5t161 152.5h-418zM1151 729h-115q-61 -152 -240 -250.5t-448 -130.5l-67 -348h-203l141 729h-141l35 178h139l70 357q192 25 330.5 10t229.5 -68.5t135.5 -128.5t49.5 -170h119z" />
    <glyph glyph-name="rupeeindia" unicode="&#x20b9;" 
d="M911 88l-176 -123q-232 193 -342 261.5t-291 119.5l66 164q377 22 467 199h-449l31 155h436q-48 183 -399 219l45 187h831l-47 -191h-399q149 -70 176 -215h174l-28 -155h-158q-40 -101 -156.5 -176t-290.5 -107q101 -35 208 -107.5t302 -230.5z" />
    <glyph glyph-name="ruble" unicode="&#x20bd;" 
d="M924 924q0 101 -86.5 149t-259.5 33l-78 -410q218 3 321 60t103 168zM809 225h-401l-43 -225h-215l43 225h-154l31 166h155l27 139h-152l33 166h152l110 568q196 23 335.5 12t229 -55.5t131.5 -110t42 -152.5q0 -172 -163 -282t-501 -135l-31 -158h416z" />
    <glyph glyph-name="numero" unicode="&#x2116;" 
d="M1053 1282q168 0 168 -262q0 -149 -43.5 -287t-121 -225.5t-167.5 -87.5q-168 0 -168 262q0 149 43 287t120.5 225.5t168.5 87.5zM369 0l-50 766h-6l-131 -766h-180l248 1270h158l51 -695h4l121 695h180l-248 -1270h-147zM1055 182h-434l30 154h434z" />
    <glyph glyph-name="published" unicode="&#x2117;" 
d="M84 506q0 215 76 387t206 267t287 95q191 0 309.5 -128t118.5 -353q0 -164 -45 -306.5t-122.5 -241.5t-184.5 -155.5t-227 -56.5q-187 0 -302.5 131t-115.5 361zM213 528q0 -191 85 -294t220 -103q120 0 219.5 81t157 224.5t57.5 319.5q0 184 -88 283.5t-227 99.5
q-117 0 -214 -79t-153.5 -219.5t-56.5 -312.5zM475 313h-133l121 629q136 23 218.5 2.5t118.5 -65t36 -113.5q0 -105 -86 -175.5t-240 -92.5z" />
    <glyph glyph-name="servicemark" unicode="&#x2120;" 
d="M809 707l-33 344h-6l-88 -465h-131l133 682l147 4l41 -375h7l182 373h147l-133 -684h-133l90 465h-4l-168 -344h-51zM575 1106l-124 -25q-15 88 -70 88q-27 0 -45.5 -19t-18.5 -52q0 -30 19.5 -62t47.5 -61t55.5 -59.5t47 -69.5t19.5 -80q0 -48 -23 -86.5t-73.5 -66.5
t-130 -31t-193.5 22l27 141q249 -88 249 13q0 26 -19 54.5t-46 56t-54 57.5t-46 70.5t-19 84.5q0 88 62.5 148.5t160.5 60.5q146 0 174 -184z" />
    <glyph glyph-name="trademark" unicode="&#x2122;" 
d="M616 1270l-22 -117h-137l-111 -565h-129l109 565h-152l25 117h417zM831 1272l41 -375h7l182 373h147l-133 -684h-133l90 465h-4l-168 -344h-51l-33 344h-6l-88 -465h-131l133 682z" />
    <glyph glyph-name="Omega" unicode="&#x2126;" 
d="M401 14l-8 -14h-389l35 180h176q-47 225 -47 395q0 154 32 283.5t94.5 228.5t163.5 155t232 56q178 0 275.5 -108t97.5 -299q0 -300 -250 -711h166l-35 -180h-387l-2 14q147 291 216 493t69 349q0 120 -49 183t-140 63q-94 0 -160 -80.5t-96 -212t-30 -303.5
q0 -179 8.5 -280.5t27.5 -211.5z" />
    <glyph glyph-name="onethird" unicode="&#x2153;" 
d="M942 870h-623l29 144h240l82 409l-234 -6l23 131l241 27l25 121l172 14l-139 -694h219zM117 555l28 139h893l-28 -139h-893zM737 -193q0 -54 -33 -101t-108 -86t-195.5 -52.5t-294.5 0.5l21 153q170 -20 267 -10t133 31t36 53q0 42 -79.5 81.5t-243.5 70.5l10 71l348 215
h-367l29 146h549l-18 -143l-336 -213q282 -68 282 -216z" />
    <glyph glyph-name="twothirds" unicode="&#x2154;" 
d="M924 870h-600v134q107 62 172.5 102t135 88t106.5 83.5t61 73.5t24 74q0 148 -372 99l22 151q261 39 400 -18t139 -189q0 -112 -103.5 -214t-328.5 -236h374zM117 555l28 139h893l-28 -139h-893zM737 -193q0 -54 -33 -101t-108 -86t-195.5 -52.5t-294.5 0.5l21 153
q170 -20 267 -10t133 31t36 53q0 42 -79.5 81.5t-243.5 70.5l10 71l348 215h-367l29 146h549l-18 -143l-336 -213q282 -68 282 -216z" />
    <glyph glyph-name="onefifth" unicode="&#x2155;" 
d="M942 870h-623l29 144h240l82 409l-234 -6l23 131l241 27l25 121l172 14l-139 -694h219zM117 555l28 139h893l-28 -139h-893zM745 -164q0 -47 -21 -89t-70 -80t-121 -63t-182 -35.5t-245 -0.5l19 153q105 -10 182 -7t128.5 11t82.5 24.5t44 34t13 38.5q0 100 -374 149
l94 408h524l-43 -146h-354l-39 -161q362 -59 362 -236z" />
    <glyph glyph-name="twofifths" unicode="&#x2156;" 
d="M924 870h-600v134q107 62 172.5 102t135 88t106.5 83.5t61 73.5t24 74q0 148 -372 99l22 151q261 39 400 -18t139 -189q0 -112 -103.5 -214t-328.5 -236h374zM117 555l28 139h893l-28 -139h-893zM745 -164q0 -47 -21 -89t-70 -80t-121 -63t-182 -35.5t-245 -0.5l19 153
q105 -10 182 -7t128.5 11t82.5 24.5t44 34t13 38.5q0 100 -374 149l94 408h524l-43 -146h-354l-39 -161q362 -59 362 -236z" />
    <glyph glyph-name="threefifths" unicode="&#x2157;" 
d="M967 1108q0 -54 -33 -101t-108 -86.5t-195.5 -53t-294.5 0.5l20 154q170 -20 267 -10t133.5 31t36.5 53q0 90 -324 151l10 72l348 215h-366l28 145h549l-18 -143l-336 -213q283 -68 283 -215zM117 555l28 139h893l-28 -139h-893zM745 -164q0 -47 -21 -89t-70 -80
t-121 -63t-182 -35.5t-245 -0.5l19 153q105 -10 182 -7t128.5 11t82.5 24.5t44 34t13 38.5q0 100 -374 149l94 408h524l-43 -146h-354l-39 -161q362 -59 362 -236z" />
    <glyph glyph-name="fourfifths" unicode="&#x2158;" 
d="M989 1022h-90l-31 -152h-157l28 152h-407l12 119q79 136 133.5 259t106.5 290l184 -9q-57 -166 -116 -284.5t-136 -231.5h252l47 242l162 12l-51 -254h104zM117 555l28 139h893l-28 -139h-893zM745 -164q0 -47 -21 -89t-70 -80t-121 -63t-182 -35.5t-245 -0.5l19 153
q105 -10 182 -7t128.5 11t82.5 24.5t44 34t13 38.5q0 100 -374 149l94 408h524l-43 -146h-354l-39 -161q362 -59 362 -236z" />
    <glyph glyph-name="onesixth" unicode="&#x2159;" 
d="M942 870h-623l29 144h240l82 409l-234 -6l23 131l241 27l25 121l172 14l-139 -694h219zM117 555l28 139h893l-28 -139h-893zM426 -451q-134 0 -216.5 74.5t-82.5 212.5q0 70 19.5 136.5t64 132t111.5 121t167.5 103t225.5 77.5l37 -142q-351 -72 -435 -274
q104 70 209.5 73t171.5 -57t66 -160q0 -130 -97 -213.5t-241 -83.5zM453 -319q70 0 109.5 41.5t39.5 103.5q0 60 -41.5 95.5t-113.5 31t-152 -54.5q-2 -12 -2 -37q0 -91 46.5 -135.5t113.5 -44.5z" />
    <glyph glyph-name="fivesixths" unicode="&#x215a;" 
d="M975 1137q0 -47 -21 -89t-70 -80t-121 -63.5t-182 -36t-245 -0.5l18 154q173 -16 273.5 -1.5t139 39.5t38.5 62q0 101 -375 150l94 407h525l-43 -145h-355l-39 -162q363 -60 363 -235zM117 555l28 139h893l-28 -139h-893zM426 -451q-134 0 -216.5 74.5t-82.5 212.5
q0 70 19.5 136.5t64 132t111.5 121t167.5 103t225.5 77.5l37 -142q-351 -72 -435 -274q104 70 209.5 73t171.5 -57t66 -160q0 -130 -97 -213.5t-241 -83.5zM453 -319q70 0 109.5 41.5t39.5 103.5q0 60 -41.5 95.5t-113.5 31t-152 -54.5q-2 -12 -2 -37q0 -91 46.5 -135.5
t113.5 -44.5z" />
    <glyph glyph-name="oneeighth" unicode="&#x215b;" 
d="M942 870h-623l29 144h240l82 409l-234 -6l23 131l241 27l25 121l172 14l-139 -694h219zM117 555l28 139h893l-28 -139h-893zM729 -223q0 -97 -94.5 -162.5t-243.5 -65.5q-130 0 -206 52t-76 137q0 65 49 124t182 136q-117 102 -117 182q0 110 140.5 176.5t381.5 32.5
l-59 -160q-67 17 -119.5 23.5t-86 5t-55.5 -10.5t-31 -22t-9 -30q0 -43 96 -121q150 73 293 133l51 -94q-151 -65 -250 -113q72 -60 113 -113t41 -110zM424 -319q64 0 104.5 25.5t40.5 64.5q0 23 -21.5 51t-44.5 47.5t-71 56.5q-94 -53 -127 -87t-33 -64q0 -43 43.5 -68.5
t108.5 -25.5z" />
    <glyph glyph-name="threeeighths" unicode="&#x215c;" 
d="M967 1108q0 -54 -33 -101t-108 -86.5t-195.5 -53t-294.5 0.5l20 154q170 -20 267 -10t133.5 31t36.5 53q0 90 -324 151l10 72l348 215h-366l28 145h549l-18 -143l-336 -213q283 -68 283 -215zM117 555l28 139h893l-28 -139h-893zM729 -223q0 -97 -94.5 -162.5
t-243.5 -65.5q-130 0 -206 52t-76 137q0 65 49 124t182 136q-117 102 -117 182q0 110 140.5 176.5t381.5 32.5l-59 -160q-67 17 -119.5 23.5t-86 5t-55.5 -10.5t-31 -22t-9 -30q0 -43 96 -121q150 73 293 133l51 -94q-151 -65 -250 -113q72 -60 113 -113t41 -110zM424 -319
q64 0 104.5 25.5t40.5 64.5q0 23 -21.5 51t-44.5 47.5t-71 56.5q-94 -53 -127 -87t-33 -64q0 -43 43.5 -68.5t108.5 -25.5z" />
    <glyph glyph-name="fiveeighths" unicode="&#x215d;" 
d="M975 1137q0 -47 -21 -89t-70 -80t-121 -63.5t-182 -36t-245 -0.5l18 154q173 -16 273.5 -1.5t139 39.5t38.5 62q0 101 -375 150l94 407h525l-43 -145h-355l-39 -162q363 -60 363 -235zM117 555l28 139h893l-28 -139h-893zM729 -223q0 -97 -94.5 -162.5t-243.5 -65.5
q-130 0 -206 52t-76 137q0 65 49 124t182 136q-117 102 -117 182q0 110 140.5 176.5t381.5 32.5l-59 -160q-67 17 -119.5 23.5t-86 5t-55.5 -10.5t-31 -22t-9 -30q0 -43 96 -121q150 73 293 133l51 -94q-151 -65 -250 -113q72 -60 113 -113t41 -110zM424 -319
q64 0 104.5 25.5t40.5 64.5q0 23 -21.5 51t-44.5 47.5t-71 56.5q-94 -53 -127 -87t-33 -64q0 -43 43.5 -68.5t108.5 -25.5z" />
    <glyph glyph-name="seveneighths" unicode="&#x215e;" 
d="M584 860l-187 19q201 342 473 647l-2 8h-434l35 147h616l-30 -143q-255 -298 -471 -678zM117 555l28 139h893l-28 -139h-893zM729 -223q0 -97 -94.5 -162.5t-243.5 -65.5q-130 0 -206 52t-76 137q0 65 49 124t182 136q-117 102 -117 182q0 110 140.5 176.5t381.5 32.5
l-59 -160q-67 17 -119.5 23.5t-86 5t-55.5 -10.5t-31 -22t-9 -30q0 -43 96 -121q150 73 293 133l51 -94q-151 -65 -250 -113q72 -60 113 -113t41 -110zM424 -319q64 0 104.5 25.5t40.5 64.5q0 23 -21.5 51t-44.5 47.5t-71 56.5q-94 -53 -127 -87t-33 -64q0 -43 43.5 -68.5
t108.5 -25.5z" />
    <glyph glyph-name="minus" unicode="&#x2212;" 
d="M1024 702l-39 -186h-842l37 186h844z" />
    <glyph glyph-name="approxequal" unicode="&#x2248;" 
d="M768 645q-55 0 -105.5 31t-82 67.5t-68 67.5t-66.5 31q-35 0 -78 -49.5t-108 -151.5l-119 66q94 169 176 247t177 78q45 0 85.5 -20t69.5 -49t54 -58t51 -49t49 -20q35 0 74.5 45t101.5 143l121 -66q-94 -168 -167.5 -240.5t-164.5 -72.5zM680 195q-45 0 -86 20t-71 49
t-56.5 58t-54 49t-52.5 20q-35 0 -76 -47.5t-108 -150.5l-123 63q95 168 178 247t179 79q44 0 83.5 -20.5t68.5 -49t54.5 -57.5t51.5 -49.5t49 -20.5q35 0 74.5 45t101.5 143l121 -65q-96 -168 -169.5 -240.5t-164.5 -72.5z" />
    <glyph glyph-name="notequal" unicode="&#x2260;" 
d="M944 297h-442l-164 -295l-160 51l135 244h-213l39 186h279l147 265h-377l39 186h443l164 295l159 -51l-135 -244h211l-37 -186h-278l-148 -265h377z" />
    <glyph glyph-name="lessequal" unicode="&#x2264;" 
d="M438 752l-4 -15l510 -274l-106 -168l-654 360l35 170l785 420l57 -172zM926 203l-35 -189h-844l37 189h842z" />
    <glyph glyph-name="greaterequal" unicode="&#x2265;" 
d="M786 760l-493 323l117 162l620 -424l-29 -170l-792 -358l-41 178l616 274zM926 203l-35 -189h-844l37 189h842z" />
    <glyph glyph-name="hcoslug" unicode="&#xe10b;" 
d="M1024 1434v-1639h-922v1639h922zM410 606q0 20 11 32.5t30 12.5q20 0 32.5 -16t12.5 -43q0 -32 -29 -76q-31 29 -44 47.5t-13 42.5zM510 475q32 20 63 51q25 -28 23.5 -55.5t-25.5 -67.5q-40 51 -61 72zM430 285q-34 0 -57 24.5t-23 59.5q0 36 25 61q54 -50 114 -127
q-24 -18 -59 -18zM616 354q33 44 72 66q19 -39 66 -39q32 0 53.5 23.5t21.5 58.5q0 36 -21 58t-54 22q-53 0 -92 -58q-6 58 -76 58q14 20 14 51q0 44 -39.5 79.5t-105.5 35.5q-75 0 -121.5 -39.5t-46.5 -91.5q0 -33 10.5 -56.5t36.5 -50.5q-125 -41 -125 -139
q0 -61 48.5 -102.5t117.5 -41.5q96 0 160 70q38 -39 67.5 -54.5t63.5 -15.5q51 0 86 40t36 106l-10 2q-27 -45 -65 -45q-42 0 -97 63zM469 139l-18 -2v-14h-11v-10h11v-31q0 -21 18 -21q17 0 23 21l-9 2q-3 -10 -8 -10q-6 0 -6 8v31h20v10h-20v16zM297 94q0 -15 9.5 -24
t23.5 -9q13 0 22.5 9.5t9.5 23.5q0 13 -9 22t-23 9t-23.5 -9t-9.5 -22zM342 94q0 -24 -12 -24q-13 0 -13 24q0 23 13 23q12 0 12 -23zM612 92q0 -20 -10 -20q-12 0 -12 20q0 21 12 21q10 0 10 -21zM367 74v-11h32v11h-6v22q0 7 4 12t9 5q8 0 8 -13v-26h-6v-11h34v11h-10v28
q0 23 -18 23q-14 0 -21 -14v12h-26v-10h8v-39h-8zM221 74v-11h47v11h-14v24h6q6 0 7 -2t3 -10h11v35h-11q-6 -11 -10 -12h-6v28h16q9 0 12.5 -4t6.5 -16h10v30h-78v-10h12v-63h-12zM494 84v-21h10l2 7q9 -9 20 -9q21 0 21 19q0 13 -18.5 19.5t-18.5 9.5q0 6 8 6q9 0 17 -11
h10v21h-10l-3 -8q-5 8 -16 8q-10 0 -16 -6t-6 -13q0 -14 18 -19t18 -11t-8 -6t-18 14h-10zM571 141v-80h9l6 13q6 -13 22 -13q12 0 18.5 10.5t6.5 22.5q0 13 -7 22t-18 9q-14 0 -18 -14v41h-29v-11h10zM651 49q4 3 1.5 8.5t-9.5 5.5q-10 0 -10 -10q0 -14 18 -14q17 0 27 24
l20 50h9v10h-27v-10h8l-12 -31l-14 31h8v10h-37v-10h6q19 -38 25 -52q0 -12 -13 -12zM743 0h-28v-12h10q-5 -10 -10 -15q-3 3 -10 11t-9 10q17 10 17 20q0 8 -6 13.5t-15 5.5q-12 0 -19 -7t-7 -16q0 -10 10 -20q-21 -7 -21 -23q0 -20 25 -20q17 0 27 10q10 -10 18 -10
q14 0 18 18l-6 2q-3 -8 -6 -8q-2 0 -10 8q7 7 14 21h8v12zM481 8v8q0 17 8 17l7 -2q-2 -2 -2 -6q0 -9 10 -9v-8h-23zM752 -10q0 -43 43 -43q33 0 36 35h-12q-4 -25 -20 -25q-25 0 -25 35t21 35q14 0 22 -25h12v33h-12v-8q-10 10 -24 10q-18 0 -29.5 -12.5t-11.5 -34.5z
M692 -2q-10 10 -10 16q0 9 8 9q10 0 10 -11q0 -10 -8 -14zM553 -25h39q4 35 -29 35q-13 0 -22 -9t-9 -24q0 -14 9 -22t24 -8q23 0 27 22h-10q-3 -12 -15 -12q-14 0 -14 18zM410 -25h39q3 35 -29 35q-12 0 -21.5 -9t-9.5 -24q0 -14 9 -22t24 -8q23 0 27 22h-11
q-3 -12 -14 -12q-14 0 -14 18zM319 -20q0 -15 9.5 -24t23.5 -9t23.5 9.5t9.5 23.5q0 13 -9.5 21.5t-23.5 8.5t-23.5 -8.5t-9.5 -21.5zM836 -20q0 -15 9 -24t23 -9t23.5 9.5t9.5 23.5q0 13 -9.5 21.5t-23.5 8.5t-23 -8.5t-9 -21.5zM553 -16q0 18 10 18t10 -18h-20zM410 -16
q0 18 10 18t10 -18h-20zM365 -20q0 -25 -13 -25q-12 0 -12 25q0 22 12 22q13 0 13 -22zM881 -20q0 -25 -13 -25q-12 0 -12 25q0 22 12 22q13 0 13 -22zM455 -41v-10h34v10h-8v39h23v-39h-8v-10h34v10h-8v80l-16 -4q-8 4 -17 4q-10 0 -18 -7.5t-8 -21.5v-2h-10v-10h10v-39h-8
zM596 -41v-10h39v10h-12v25q1 5 4.5 9.5t5.5 4.5v-2q0 -8 10 -8t10 10q0 12 -12 12t-18 -14v12h-27v-10h8v-39h-8zM221 -41v-10h43v10h-10v29h33v-29h-11v-10h43v10h-12v64h12v10h-43v-10h11v-25h-33v25h10v10h-43v-10h12v-64h-12zM700 -37q-6 -6 -12 -6q-14 0 -14 14
q0 9 6 15q4 -4 11 -13t9 -10zM928 -41q0 12 -13 12q-12 0 -12 -12t12 -12q13 0 13 12z" />
    <glyph glyph-name="check.1" unicode="&#xe10c;" 
d="M1200 1296q-424 -632 -702 -1329l-193 2l-180 744l203 61l108 -522h13q227 652 538 1139z" />
    <glyph glyph-name="check.2" unicode="&#xe10d;" 
d="M578 -14l-119 389l-289 -391l-137 61l358 510l-160 463l211 55l101 -336l428 658l200 -99l-557 -751l181 -531z" />
    <glyph glyph-name="NUL" horiz-adv-x="0" 
 />
    <glyph glyph-name="zero.alt" 
d="M109 455q0 164 45.5 317.5t123 268.5t188 184t234.5 69q169 0 268 -122.5t99 -354.5q0 -220 -77 -413t-214 -311t-301 -118q-170 0 -268 123t-98 357zM322 469q0 -154 49.5 -230.5t138.5 -76.5q73 0 138 56.5t109.5 147t70.5 205t26 230.5q0 153 -49.5 230t-138.5 77
q-96 0 -176.5 -96t-124 -242t-43.5 -301z" />
    <glyph glyph-name="colon.alt" 
d="M768 817h-283l56 289h282zM635 160h-285l56 289h284z" />
    <glyph glyph-name="guillemotleft.cap" 
d="M354 102l-262 428l45 224l416 430l137 -137l-422 -414l267 -416zM852 102l-260 437l49 221l418 420l135 -142l-424 -403l260 -422z" />
    <glyph glyph-name="guillemotright.cap" 
d="M668 104l-140 136l422 413l-266 416l180 117l264 -430l-47 -221zM160 106l-135 142l424 401l-259 424l179 113l260 -436l-51 -224z" />
    <glyph glyph-name="guilsinglleft.cap" 
d="M635 84l-387 455l55 221l553 432l123 -170l-539 -389l355 -400z" />
    <glyph glyph-name="guilsinglright.cap" 
d="M309 90l-125 172l539 387l-352 400l157 149l390 -453l-56 -223z" />
    <glyph glyph-name="parenleft.cap" 
d="M991 1573l119 -146q-187 -125 -315 -239.5t-202 -223t-106 -209.5t-32 -214q0 -169 85.5 -348.5t278.5 -391.5l-170 -123q-213 244 -310 454.5t-97 406.5q0 262 174 508t575 526z" />
    <glyph glyph-name="parenright.cap" 
d="M158 -330l-119 146q186 124 314 238.5t202 223t105.5 210t31.5 214.5q0 169 -85.5 349t-278.5 391l172 123q213 -246 310 -455.5t97 -404.5q0 -262 -174.5 -508.5t-574.5 -526.5z" />
    <glyph glyph-name="bracketleft.cap" 
d="M133 -266l350 1794h650l-35 -176h-432l-279 -1444h432l-35 -174h-651z" />
    <glyph glyph-name="bracketright.cap" 
d="M1026 1530l-350 -1794h-649l34 174h433l278 1444h-432l35 176h651z" />
    <glyph glyph-name="braceleft.cap" 
d="M752 -332q-295 131 -414 222t-119 192q0 51 25 96.5t61 78t72 61.5t61 58.5t25 57.5q0 100 -254 137l33 156q307 15 307 117q0 25 -20.5 63.5t-45 73.5t-45 83.5t-20.5 92.5q0 272 692 436l41 -182q-278 -52 -401 -107t-123 -126q0 -33 31.5 -87.5t62.5 -113t31 -100.5
q0 -70 -63.5 -132.5t-194.5 -95.5q182 -61 182 -180q0 -42 -24 -81.5t-58.5 -70.5t-69 -61t-58.5 -64.5t-24 -68.5q0 -67 94.5 -134t307.5 -157z" />
    <glyph glyph-name="braceright.cap" 
d="M51 -332l-39 185q275 51 400 106.5t125 124.5q0 34 -31.5 88.5t-62.5 112.5t-31 100q0 70 64 132.5t194 94.5q-185 63 -185 183q0 42 24 81.5t58.5 70.5t69 61t58.5 64.5t24 68.5q0 66 -93.5 132.5t-306.5 158.5l91 163q295 -130 413.5 -221.5t118.5 -191.5
q0 -43 -18 -83t-45 -68t-59 -56t-59 -50t-45 -47t-18 -49q0 -100 254 -137l-32 -155q-308 -15 -308 -117q0 -25 20.5 -64t45 -74t45 -83.5t20.5 -92.5q0 -271 -692 -438z" />
    <glyph glyph-name="registered.alt" 
d="M84 506q0 215 76 387t206 267t287 95q190 0 309 -131.5t119 -355.5q0 -342 -161.5 -548t-417.5 -206q-187 0 -302.5 131t-115.5 361zM213 528q0 -191 85 -294t220 -103q193 0 313.5 168t120.5 446q0 185 -88.5 289.5t-226.5 104.5q-117 0 -214 -79t-153.5 -219.5
t-56.5 -312.5zM633 319l-92 252l-25 -4l-47 -239h-135l121 616q189 27 279.5 -15.5t90.5 -129.5q0 -55 -44 -108t-117 -93l116 -262z" />
    <glyph glyph-name="asterisk.alt" 
d="M737 1100l-106 24l31 310l194 -52zM561 1110l-76 -82l-252 180l142 144zM819 938l-35 111l285 127l53 -195zM463 963l35 -111l-285 -127l-53 195zM723 791l76 81l254 -180l-142 -143zM545 801l106 -27l-26 -309l-197 51z" />
    <glyph glyph-name="bullet.alt" 
d="M780 365h-493l100 493h492z" />
    <glyph glyph-name="R_p" 
d="M342 -12l-51 477l-27 -6l-92 -459h-168l248 1270q424 57 424 -238q0 -125 -63 -249t-169 -224l74 -547zM674 -342l-166 -16q242 1255 260 1370l154 12l-13 -86q85 106 160 106q50 0 75 -56.5t25 -180.5q0 -128 -28.5 -271t-76.5 -267t-121.5 -205.5t-154.5 -81.5
q-24 0 -51 6q-4 -19 -31.5 -165t-31.5 -165z" />
    <glyph glyph-name="f.lig" 
d="M842 59q0 -158 -113.5 -262t-267.5 -104q-145 0 -231.5 117t-86.5 344q0 164 45 342l-86 32l33 138h105q76 211 191 386t257 283.5t277 108.5q71 0 118 -30t63.5 -84t6 -123.5t-55.5 -154t-120 -169.5l-94 39q59 80 78 147.5t-3.5 106t-78.5 38.5q-76 0 -158 -74.5
t-152.5 -198t-122.5 -275.5l580 2l-33 -179l-422 11q271 -217 271 -441zM541 -135q70 0 112.5 44t42.5 118q0 100 -76 208t-233 211q-29 -151 -29 -278q0 -303 183 -303z" />
    <glyph glyph-name="l.ultra" 
d="M948 129q-341 -199 -538 -129t-197 395q0 163 38.5 324t104.5 290t149 229t178 155t185 55q98 0 153.5 -60t55.5 -169q0 -194 -159 -430t-469 -484q31 -129 146 -142t320 77zM791 1233q-58 0 -120.5 -63t-114.5 -167t-86 -254.5t-34 -310.5q220 203 329 382.5t109 303.5
q0 53 -23 81t-60 28z" />
    <glyph glyph-name="fraction.afrc" 
d="M117 555l28 139h893l-28 -139h-893z" />
    <glyph glyph-name="zero.num" 
d="M342 1176q0 138 56.5 258t155.5 192t214 72q128 0 203.5 -86.5t75.5 -241.5q0 -136 -57 -256t-155 -192t-212 -72q-127 0 -204 86.5t-77 239.5zM874 1358q0 96 -34.5 146t-98.5 50q-65 0 -117.5 -54.5t-80 -138t-27.5 -173.5q0 -94 34.5 -143.5t96.5 -49.5
q97 0 162 111.5t65 251.5z" />
    <glyph glyph-name="one.num" 
d="M942 870h-623l29 144h240l82 409l-234 -6l23 131l241 27l25 121l172 14l-139 -694h219z" />
    <glyph glyph-name="two.num" 
d="M924 870h-600v134q107 62 172.5 102t135 88t106.5 83.5t61 73.5t24 74q0 148 -372 99l22 151q261 39 400 -18t139 -189q0 -112 -103.5 -214t-328.5 -236h374z" />
    <glyph glyph-name="three.num" 
d="M967 1108q0 -54 -33 -101t-108 -86.5t-195.5 -53t-294.5 0.5l20 154q170 -20 267 -10t133.5 31t36.5 53q0 90 -324 151l10 72l348 215h-366l28 145h549l-18 -143l-336 -213q283 -68 283 -215z" />
    <glyph glyph-name="four.num" 
d="M989 1022h-90l-31 -152h-157l28 152h-407l12 119q79 136 133.5 259t106.5 290l184 -9q-57 -166 -116 -284.5t-136 -231.5h252l47 242l162 12l-51 -254h104z" />
    <glyph glyph-name="five.num" 
d="M975 1137q0 -47 -21 -89t-70 -80t-121 -63.5t-182 -36t-245 -0.5l18 154q173 -16 273.5 -1.5t139 39.5t38.5 62q0 101 -375 150l94 407h525l-43 -145h-355l-39 -162q363 -60 363 -235z" />
    <glyph glyph-name="six.num" 
d="M655 850q-134 0 -216.5 74.5t-82.5 212.5q0 89 32.5 171t99.5 159t183.5 139t272.5 100l37 -141q-350 -71 -434 -275q104 70 209 73t171 -56.5t66 -159.5q0 -130 -97 -213.5t-241 -83.5zM682 981q70 0 109.5 41.5t39.5 103.5q0 60 -41.5 95.5t-113.5 31t-152 -54.5
q-2 -12 -2 -37q0 -91 46.5 -135.5t113.5 -44.5z" />
    <glyph glyph-name="seven.num" 
d="M584 860l-187 19q201 342 473 647l-2 8h-434l35 147h616l-30 -143q-255 -298 -471 -678z" />
    <glyph glyph-name="eight.num" 
d="M958 1077q0 -97 -94 -162t-243 -65q-130 0 -206.5 52t-76.5 136q0 65 49 124t182 136q-116 101 -116 183q0 110 140.5 176.5t381.5 32.5l-60 -160q-67 17 -119.5 23.5t-86 4.5t-55.5 -11t-31 -22t-9 -30q0 -42 97 -121q150 73 293 133l51 -94q-151 -65 -250 -113
q72 -59 112.5 -112.5t40.5 -110.5zM653 981q64 0 105 25.5t41 64.5q0 23 -21 51t-45.5 48.5t-70.5 56.5q-93 -53 -126.5 -87.5t-33.5 -64.5q0 -43 43 -68.5t108 -25.5z" />
    <glyph glyph-name="nine.num" 
d="M442 844l-36 141q349 72 432 272q-103 -68 -208 -70.5t-171 56.5t-66 158q0 130 97 213.5t241 83.5q134 0 216.5 -74.5t82.5 -212.5q0 -89 -32.5 -171t-99.5 -158t-183.5 -138t-272.5 -100zM555 1421q0 -60 41.5 -94.5t113.5 -29.5t152 55q2 12 2 37q0 91 -46 135.5
t-113 44.5q-71 0 -110.5 -42.5t-39.5 -105.5z" />
    <glyph glyph-name="zero.den" 
d="M113 -125q0 138 56.5 258t155.5 192t214 72q128 0 203 -86t75 -241q0 -136 -57 -256t-155 -192.5t-212 -72.5q-127 0 -203.5 86.5t-76.5 239.5zM645 57q0 96 -34.5 146.5t-98.5 50.5q-65 0 -117.5 -55t-80 -138.5t-27.5 -173.5q0 -94 34.5 -143t96.5 -49q97 0 162 111
t65 251z" />
    <glyph glyph-name="one.den" 
d="M713 -430h-623l29 143h239l82 410l-233 -6l22 131l242 26l25 121l172 15l-140 -695h220z" />
    <glyph glyph-name="two.den" 
d="M694 -430h-600v133q106 62 172 102.5t135.5 88t107 83.5t61.5 74t24 74q0 147 -373 98l23 152q261 39 399.5 -18t138.5 -189q0 -112 -103.5 -214.5t-328.5 -236.5h375z" />
    <glyph glyph-name="three.den" 
d="M737 -193q0 -54 -33 -101t-108 -86t-195.5 -52.5t-294.5 0.5l21 153q170 -20 267 -10t133 31t36 53q0 42 -79.5 81.5t-243.5 70.5l10 71l348 215h-367l29 146h549l-18 -143l-336 -213q282 -68 282 -216z" />
    <glyph glyph-name="four.den" 
d="M760 -279h-90l-31 -151h-158l29 151h-408l13 119q79 135 133 258t106 291l185 -8q-57 -166 -116 -284.5t-136 -231.5h252l47 241l162 13l-52 -254h105z" />
    <glyph glyph-name="five.den" 
d="M745 -164q0 -47 -21 -89t-70 -80t-121 -63t-182 -35.5t-245 -0.5l19 153q105 -10 182 -7t128.5 11t82.5 24.5t44 34t13 38.5q0 100 -374 149l94 408h524l-43 -146h-354l-39 -161q362 -59 362 -236z" />
    <glyph glyph-name="six.den" 
d="M426 -451q-134 0 -216.5 74.5t-82.5 212.5q0 70 19.5 136.5t64 132t111.5 121t167.5 103t225.5 77.5l37 -142q-351 -72 -435 -274q104 70 209.5 73t171.5 -57t66 -160q0 -130 -97 -213.5t-241 -83.5zM453 -319q70 0 109.5 41.5t39.5 103.5q0 60 -41.5 95.5t-113.5 31
t-152 -54.5q-2 -12 -2 -37q0 -91 46.5 -135.5t113.5 -44.5z" />
    <glyph glyph-name="seven.den" 
d="M354 -440l-186 18q201 342 473 647l-2 8h-434l35 148h616l-31 -143q-255 -298 -471 -678z" />
    <glyph glyph-name="eight.den" 
d="M729 -223q0 -97 -94.5 -162.5t-243.5 -65.5q-130 0 -206 52t-76 137q0 65 49 124t182 136q-117 102 -117 182q0 110 140.5 176.5t381.5 32.5l-59 -160q-67 17 -119.5 23.5t-86 5t-55.5 -10.5t-31 -22t-9 -30q0 -43 96 -121q150 73 293 133l51 -94q-151 -65 -250 -113
q72 -60 113 -113t41 -110zM424 -319q64 0 104.5 25.5t40.5 64.5q0 23 -21.5 51t-44.5 47.5t-71 56.5q-94 -53 -127 -87t-33 -64q0 -43 43.5 -68.5t108.5 -25.5z" />
    <glyph glyph-name="nine.den" 
d="M213 -457l-37 142q349 72 432 272q-103 -68 -207.5 -71t-170.5 56t-66 158q0 130 97 213.5t241 83.5q134 0 216.5 -74t82.5 -212q0 -89 -32.5 -171t-99.5 -158.5t-183.5 -138.5t-272.5 -100zM326 121q0 -60 41.5 -95t113.5 -30t152 55q2 12 2 37q0 91 -46.5 135.5
t-113.5 44.5q-71 0 -110 -42t-39 -105z" />
    <glyph glyph-name="zero.small" 
d="M184 305q0 138 56.5 258t155.5 192t214 72q128 0 203.5 -86t75.5 -241q0 -136 -57 -256t-155 -192t-212 -72q-127 0 -204 86t-77 239zM717 487q0 96 -34.5 146.5t-98.5 50.5q-65 0 -118 -55t-80.5 -138.5t-27.5 -173.5q0 -94 34.5 -143t96.5 -49q97 0 162.5 111t65.5 251
z" />
    <glyph glyph-name="one.small" 
d="M784 0h-622l28 143h240l82 410l-233 -6l22 131l242 27l24 120l172 15l-139 -695h219z" />
    <glyph glyph-name="two.small" 
d="M766 0h-600v133q106 62 172 102.5t135.5 88t107 83.5t61.5 74t24 74q0 147 -373 98l22 152q261 39 400 -18t139 -189q0 -112 -103.5 -214.5t-328.5 -236.5h375z" />
    <glyph glyph-name="three.small" 
d="M809 238q0 -54 -33 -101t-108 -86.5t-195.5 -53t-294.5 0.5l21 154q170 -20 267 -10t133 30.5t36 52.5q0 42 -79.5 81.5t-244.5 70.5l11 72l348 215h-367l29 145h549l-19 -143l-336 -213q283 -68 283 -215z" />
    <glyph glyph-name="four.small" 
d="M831 152h-90l-30 -152h-158l29 152h-408l12 118q79 136 133.5 259t106.5 290l184 -8q-57 -166 -116 -284.5t-136 -231.5h252l47 242l162 12l-51 -254h104z" />
    <glyph glyph-name="five.small" 
d="M817 266q0 -47 -21 -89t-70 -80t-121 -63t-182 -35.5t-245 -0.5l19 154q173 -16 273 -1.5t138.5 39.5t38.5 62q0 100 -375 149l95 408h524l-43 -145h-354l-39 -162q362 -59 362 -236z" />
    <glyph glyph-name="six.small" 
d="M498 -20q-134 0 -216.5 74t-82.5 212q0 89 32 171t99 159t183.5 139.5t272.5 100.5l37 -142q-350 -71 -434 -274q104 70 209.5 73t171.5 -57t66 -160q0 -130 -97 -213t-241 -83zM524 111q71 0 110.5 41.5t39.5 103.5q0 60 -41.5 95.5t-113.5 31t-152 -54.5q-2 -12 -2 -37
q0 -91 46 -135.5t113 -44.5z" />
    <glyph glyph-name="seven.small" 
d="M426 -10l-186 18q201 342 473 647l-2 9h-435l35 147h617l-31 -143q-255 -298 -471 -678z" />
    <glyph glyph-name="eight.small" 
d="M801 207q0 -97 -94.5 -162t-243.5 -65q-130 0 -206.5 52t-76.5 136q0 65 49 124t183 136q-117 102 -117 182q0 110 140.5 176.5t381.5 32.5l-59 -160q-67 17 -119.5 23.5t-86 5t-55.5 -10.5t-31 -22t-9 -30q0 -43 96 -121q150 73 293 133l51 -94q-151 -65 -250 -113
q72 -60 113 -113t41 -110zM496 111q64 0 104.5 25.5t40.5 64.5q0 23 -21.5 51t-44.5 47.5t-71 56.5q-94 -53 -127 -87t-33 -64q0 -43 43.5 -68.5t108.5 -25.5z" />
    <glyph glyph-name="nine.small" 
d="M285 -27l-37 142q349 72 432 272q-103 -68 -207.5 -71t-170.5 56t-66 158q0 131 96.5 214t240.5 83q134 0 216.5 -74t82.5 -212q0 -70 -19.5 -136t-64 -131.5t-111 -121t-167 -102.5t-225.5 -77zM397 551q0 -60 41.5 -95t114 -30t152.5 55q2 12 2 37q0 91 -46.5 135.5
t-113.5 44.5q-71 0 -110.5 -42t-39.5 -105z" />
    <glyph glyph-name="caron.alt" 
d="M575 1638l242 9q-15 -146 -72.5 -273.5t-164.5 -253.5l-95 37q56 122 74.5 234.5t15.5 246.5z" />
    <glyph glyph-name="commaaccent.rot" 
d="M756 1561q-97 -176 -72 -394l-276 -4q14 122 81.5 236.5t178.5 199.5z" />
    <glyph glyph-name="underscore.alt" 
d="M1047 -104l-33 -168h-1168l33 168h1168z" />
    </font>
</defs>
</svg>
