<?xml version="1.0" standalone="no"?>
<!DOCTYPE svg PUBLIC "-//W3C//DTD SVG 1.1//EN" "http://www.w3.org/Graphics/SVG/1.1/DTD/svg11.dtd" >
<svg xmlns="http://www.w3.org/2000/svg" xmlns:xlink="http://www.w3.org/1999/xlink" version="1.1">
<metadata>
Created by FontForge 20170731 at Sat May 29 02:13:22 2021
 By Aleksey,,,
</metadata>
<defs>
<font id="OperatorMonoSSmLig-Light" horiz-adv-x="1280" >
  <font-face 
    font-family="Operator Mono SSm Lig"
    font-weight="300"
    font-stretch="normal"
    units-per-em="2048"
    panose-1="2 0 0 9 0 0 0 0 0 0"
    ascent="1638"
    descent="-410"
    x-height="1104"
    cap-height="1409"
    bbox="-3402 -647 1405.65 2593"
    underline-thickness="116"
    underline-position="-347"
    unicode-range="U+0021-E10D"
  />
<missing-glyph horiz-adv-x="1126" 
d="M10 -410v2048h1106v-2048h-1106zM168 1536l395 -799l395 799h-790zM1006 1384l-381 -770l381 -770v1540zM121 -156l381 770l-381 770v-1540zM563 492l-395 -799h790z" />
    <glyph glyph-name=".notdef" horiz-adv-x="1126" 
d="M10 -410v2048h1106v-2048h-1106zM168 1536l395 -799l395 799h-790zM1006 1384l-381 -770l381 -770v1540zM121 -156l381 770l-381 770v-1540zM563 492l-395 -799h790z" />
    <glyph glyph-name=".notdef" horiz-adv-x="1126" 
d="M10 -410v2048h1106v-2048h-1106zM168 1536l395 -799l395 799h-790zM1006 1384l-381 -770l381 -770v1540zM121 -156l381 770l-381 770v-1540zM563 492l-395 -799h790z" />
    <glyph glyph-name=".null" horiz-adv-x="0" 
 />
    <glyph glyph-name="nonmarkingreturn" horiz-adv-x="682" 
 />
    <glyph glyph-name="glyph3" horiz-adv-x="1126" 
d="M10 -410v2048h1106v-2048h-1106zM168 1536l395 -799l395 799h-790zM1006 1384l-381 -770l381 -770v1540zM121 -156l381 770l-381 770v-1540zM563 492l-395 -799h790z" />
    <glyph glyph-name="NUL" horiz-adv-x="0" 
 />
    <glyph glyph-name="A" unicode="A" 
d="M1020 -6q-80 285 -131 461h-504q-100 -352 -127 -455h-149q230 803 426 1415h210q196 -610 426 -1409zM629 1282q-47 -154 -211 -713h438q-80 279 -211 713h-16z" />
    <glyph glyph-name="B" unicode="B" 
d="M1130 393q1 -104 -43 -183.5t-123.5 -128t-190.5 -75.5t-245 -26t-286 20v1409q839 99 839 -324q0 -137 -79.5 -225t-213.5 -127q339 -58 342 -340zM391 1296v-530q294 -6 420.5 62.5t126.5 222.5q0 158 -144 216t-403 29zM391 117q592 -78 592 266q0 68 -24.5 117
t-70 80.5t-120 48.5t-164.5 22.5t-213 1.5v-536z" />
    <glyph glyph-name="C" unicode="C" 
d="M1098 123l-15 -131q-209 -13 -369 15.5t-262 87t-166 151t-90 198t-26 236.5q0 120 27.5 223t94 197.5t168 162t258.5 111t357 51.5l8 -143q-134 -3 -242 -20t-186.5 -43.5t-136.5 -67t-95 -86.5t-59.5 -106.5t-31 -121.5t-8.5 -137q0 -121 21 -211t74 -165t140.5 -120
t222 -66.5t316.5 -14.5z" />
    <glyph glyph-name="D" unicode="D" 
d="M1145 733q0 -420 -238 -613t-688 -122v1413q199 31 352 18.5t261.5 -59.5t178 -137t102 -212.5t32.5 -287.5zM993 707q0 344 -147.5 485t-476.5 100v-1171q312 -49 468 102.5t156 483.5z" />
    <glyph glyph-name="E" unicode="E" 
d="M1114 129l-14 -129h-836v1409h840v-129h-690v-508h600v-115h-600v-528h700z" />
    <glyph glyph-name="F" unicode="F" 
d="M1036 631h-606v-631h-151v1409h851v-129h-700v-530h606v-119z" />
    <glyph glyph-name="G" unicode="G" 
d="M1087 12q-201 -43 -355.5 -31.5t-266 63t-183 145t-105.5 212.5t-34 267q0 125 26.5 230t90.5 201t164 164t254.5 111.5t353.5 50.5l10 -143q-132 -2 -238 -18.5t-183.5 -44t-135 -69t-93.5 -89t-58 -108t-30.5 -122t-8.5 -135.5q0 -152 32.5 -263t106.5 -191.5
t202.5 -114.5t311.5 -18q-6 474 -6 598h143q0 -604 2 -695z" />
    <glyph glyph-name="H" unicode="H" 
d="M920 0v655h-562v-655h-151v1409h151v-635h562v635h151v-1409h-151z" />
    <glyph glyph-name="I" unicode="I" 
d="M713 1290v-1171h370l-12 -119h-870v119h362v1171h-362v119h872v-119h-360z" />
    <glyph glyph-name="J" unicode="J" 
d="M311 1409h650v-963q0 -173 -66.5 -275.5t-229 -152.5t-440.5 -43v138q94 -1 169 -3t134 6.5t103 18t75.5 31t51.5 45t32 60.5t16.5 78t4.5 97v842h-500v121z" />
    <glyph glyph-name="K" unicode="K" 
d="M1018 -12l-473 663h-158v-651h-149v1409h149v-637h168l434 637h160l-477 -690l510 -709z" />
    <glyph glyph-name="L" unicode="L" 
d="M1130 0h-845v1409h149v-1280h709z" />
    <glyph glyph-name="M" unicode="M" 
d="M915 1409h189v-1409h-146l7 1178h-11l-256 -951h-118l-265 951h-8l6 -1178h-139v1409h191q231 -839 272 -993h10z" />
    <glyph glyph-name="N" unicode="N" 
d="M918 0l-562 1178h-12l4 -1178h-139v1409h172l545 -1153h10l-6 1153h141v-1409h-153z" />
    <glyph glyph-name="O" unicode="O" 
d="M618 -35q-234 0 -363.5 186.5t-129.5 526.5q0 366 144 566t393 200q234 0 363 -185.5t130 -527.5q1 -364 -143.5 -565t-393.5 -201zM635 1317q-174 0 -266.5 -155.5t-92.5 -450.5q0 -303 93.5 -461t273.5 -158q174 0 266 156t92 452q0 301 -94 459t-272 158z" />
    <glyph glyph-name="P" unicode="P" 
d="M401 0h-149v1405q432 69 661.5 -47t229.5 -377q0 -122 -52 -215t-151 -153.5t-233 -94t-306 -43.5v-475zM995 954q0 195 -150.5 285.5t-443.5 50.5v-680q292 -18 443 65t151 279z" />
    <glyph glyph-name="Q" unicode="Q" 
d="M1034 -295l-502 184l29 80q-208 22 -322 206.5t-114 502.5q0 366 144 566t393 200q234 0 363 -185.5t130 -527.5q1 -328 -117.5 -525t-328.5 -233v-2l370 -141zM635 1317q-175 0 -267 -155t-92 -451q0 -303 93 -461t274 -158q175 0 266.5 156t91.5 452q0 301 -93 459
t-273 158z" />
    <glyph glyph-name="R" unicode="R" 
d="M1016 -23l-303 564l-326 -9v-532h-149v1405q186 32 326.5 27t238 -32.5t158.5 -83.5t88.5 -125.5t27.5 -158.5q0 -249 -243 -420l340 -608zM387 1290v-645l342 6q201 137 201 350q0 82 -31 144t-97 103.5t-168.5 51.5t-246.5 -10z" />
    <glyph glyph-name="S" unicode="S" 
d="M215 129q201 -15 340.5 -4t225.5 47.5t124.5 83.5t38.5 104q0 55 -40 107t-104 94t-142 84t-155.5 86t-141.5 91t-104 107.5t-40 127.5q0 61 26.5 116t87 105t150 84.5t225 50.5t302.5 6l10 -139q-649 42 -649 -199q0 -52 40 -102t104 -91.5t141.5 -83t155.5 -86.5
t142 -93t104 -110.5t40 -131.5q0 -65 -30 -125.5t-98 -115.5t-168 -93t-251.5 -55.5t-335.5 -5.5z" />
    <glyph glyph-name="T" unicode="T" 
d="M717 1280v-1280h-152v1280h-456l12 129h1046v-129h-450z" />
    <glyph glyph-name="U" unicode="U" 
d="M629 -35q-203 0 -316.5 125t-113.5 356v963h149v-946q0 -183 78 -275t219 -92q146 0 215.5 80.5t69.5 253.5v979h149v-958q0 -232 -118.5 -359t-331.5 -127z" />
    <glyph glyph-name="V" unicode="V" 
d="M748 -4h-218q-208 658 -417 1407l151 12q178 -652 369 -1282h20q187 618 367 1276h145q-215 -782 -417 -1413z" />
    <glyph glyph-name="W" unicode="W" 
d="M856 0l-217 784l-211 -784h-170q-65 465 -113 1409h150q10 -261 36 -674.5t40 -550.5h8q28 100 215 811h98q141 -528 221 -811h7q14 126 38 532.5t35 692.5h142q-20 -424 -52 -805.5t-61 -603.5h-166z" />
    <glyph glyph-name="X" unicode="X" 
d="M1004 -6l-369 606l-354 -600h-160l430 702l-430 701l162 14l366 -608l355 600h161l-430 -702l428 -701z" />
    <glyph glyph-name="Y" unicode="Y" 
d="M717 0h-152v467l-459 940l160 6l379 -799l375 795h156l-459 -938v-471z" />
    <glyph glyph-name="Z" unicode="Z" 
d="M1104 0h-932v129l774 1151l-764 -4l15 133h907v-129l-770 -1149l780 2z" />
    <glyph glyph-name="a" unicode="a" 
d="M571 92q91 0 183.5 37.5t165.5 97.5q-7 136 -7 283q-591 63 -591 -219q0 -94 67.5 -146.5t181.5 -52.5zM940 -6q-1 17 -6.5 70.5t-7.5 74.5q-180 -168 -410 -168q-153 0 -246.5 77.5t-93.5 209.5q0 88 45.5 160t133.5 123t231 73t325 9q-4 85 -27 143t-68 101
t-124.5 68.5t-185.5 39.5t-262 20l18 127q159 -6 275 -21t207 -44.5t149.5 -71.5t96.5 -106t53.5 -143t15.5 -187q0 -265 14 -545z" />
    <glyph glyph-name="b" unicode="b" 
d="M553 -25q-169 0 -317 56v1556l145 12v-598q157 127 332 127q182 0 298.5 -145t116.5 -385q0 -113 -31 -213t-85.5 -174t-127 -128t-157 -81t-174.5 -27zM602 100q168 0 275.5 122.5t107.5 340.5q0 208 -91.5 325.5t-236.5 117.5q-141 0 -276 -103v-762q115 -41 221 -41z
" />
    <glyph glyph-name="c" unicode="c" 
d="M205 535q0 94 26 175t87.5 155.5t156 128t239.5 87.5t330 39l11 -139q-170 -2 -295 -23.5t-203 -57.5t-125 -91t-64.5 -115t-17.5 -139q0 -93 20.5 -163t71 -127t132 -91.5t206.5 -50t293 -8.5l-18 -123q-193 -11 -341 10t-243.5 67t-156 119t-85 157.5t-24.5 189.5z" />
    <glyph glyph-name="d" unicode="d" 
d="M625 96q140 0 276 109q-8 414 -8 766q-112 33 -195 33q-175 0 -289 -124.5t-114 -344.5q0 -212 90 -325.5t240 -113.5zM918 -4l-9 117q-155 -140 -338 -140q-184 0 -302.5 142t-118.5 383q0 146 50 267t135 199t196 121t235 43q59 0 127 -10v469l147 12v-503
q0 -732 17 -1092z" />
    <glyph glyph-name="e" unicode="e" 
d="M1040 -25q-201 3 -350 28.5t-247.5 70.5t-158.5 115t-85 153.5t-25 194.5q0 164 68.5 300.5t186 214.5t257.5 78q146 0 247 -75.5t143 -210t22 -309.5l-781 -21q4 -87 29 -150t76.5 -112.5t137 -80.5t207 -48.5t290.5 -22.5zM659 1008q-149 0 -240 -105t-100 -293l642 17
q3 176 -74 278.5t-228 102.5z" />
    <glyph glyph-name="f" unicode="f" 
d="M1087 111l-12 -111h-872v111h317v864h-330l15 115h315q1 115 33 201.5t105 154.5t200.5 107t310.5 49l13 -144q-116 -6 -195.5 -16t-138.5 -29t-93.5 -42.5t-55 -63.5t-27 -85.5t-6.5 -113.5v-18h444v-115h-444v-864h421z" />
    <glyph glyph-name="g" unicode="g" 
d="M305 -391l-16 135q140 11 234 24.5t166 38.5t112.5 54.5t65.5 80.5t33 108t9 145q-152 -117 -331 -117q-186 0 -305 127.5t-119 345.5q0 131 47.5 240.5t128 182t186 112.5t221.5 40q148 0 316 -51q2 -66 2 -844q0 -116 -20.5 -204t-71.5 -164.5t-135.5 -128t-215 -84
t-307.5 -41.5zM629 197q138 0 280 94v674q-119 39 -223 39q-167 0 -277 -111.5t-110 -306.5q0 -188 91 -288.5t239 -100.5z" />
    <glyph glyph-name="h" unicode="h" 
d="M682 1004q-145 0 -307 -105v-899h-146v1587l146 12v-606q176 135 362 135q159 0 247.5 -93.5t88.5 -289.5v-745h-145v700q0 161 -62.5 232.5t-183.5 71.5z" />
    <glyph glyph-name="i" unicode="i" 
d="M748 1290h-148l10 301h156zM1178 0h-996v113h430v870l-428 18l13 103h561v-991h430z" />
    <glyph glyph-name="j" unicode="j" 
d="M842 1290h-146l9 301h151zM221 1104h635v-1010q0 -124 -35.5 -209.5t-121 -147.5t-229 -94.5t-357.5 -39.5l6 139q131 5 222 14t159 27t107.5 40t63.5 59.5t32 80t8 105.5v915l-500 18z" />
    <glyph glyph-name="k" unicode="k" 
d="M1016 -12l-426 520l-184 -6v-502h-146v1587l146 12v-987l192 6q215 238 399 490l148 -12q-224 -306 -426 -527l452 -557z" />
    <glyph glyph-name="l" unicode="l" 
d="M1077 0h-874v113h368v1351l-346 17l13 104h481v-1472h371z" />
    <glyph glyph-name="m" unicode="m" 
d="M471 1004q-42 0 -91.5 -26t-94.5 -73q10 -328 10 -905h-139q0 714 -15 1098l129 8l11 -105q51 57 114.5 92t128.5 35q132 0 172 -116q126 116 248 116q93 0 144 -61.5t51 -183.5v-883h-140v827q0 96 -26.5 136.5t-91.5 40.5q-88 0 -172 -78q2 -12 2 -39v-887h-123v831
q0 94 -26 133.5t-91 39.5z" />
    <glyph glyph-name="n" unicode="n" 
d="M682 1004q-156 0 -317 -111q10 -328 10 -893h-146q0 740 -14 1098l133 8l10 -125q186 147 379 147q159 0 247.5 -93.5t88.5 -289.5v-745h-145v700q0 160 -63 232t-183 72z" />
    <glyph glyph-name="o" unicode="o" 
d="M618 -31q-207 0 -337.5 152.5t-130.5 413.5q0 130 41 243t110 190t162 121t196 44q209 0 340 -152t131 -412q0 -133 -41 -246t-110.5 -190t-163 -120.5t-197.5 -43.5zM643 90q154 0 248 119t94 332q0 221 -95.5 345t-252.5 124q-153 0 -246.5 -118.5t-93.5 -328.5
q0 -223 94.5 -348t251.5 -125z" />
    <glyph glyph-name="p" unicode="p" 
d="M594 98q169 0 280 124t111 341q0 208 -91.5 325.5t-236.5 117.5q-140 0 -284 -107q11 -537 12 -762q107 -39 209 -39zM385 -375l-145 -12v385q0 737 -15 1100l133 8l11 -115q159 137 344 137q181 0 298 -145.5t117 -384.5q0 -143 -47.5 -262t-128.5 -197.5t-188 -122
t-225 -43.5q-77 0 -154 15v-363z" />
    <glyph glyph-name="q" unicode="q" 
d="M901 -385v491q-151 -133 -332 -133q-185 0 -302 142t-117 381q0 145 50.5 266.5t135 200t192 122t224.5 43.5q152 0 295 -57v-1444zM623 96q140 0 278 111v756q-101 38 -205 38q-175 0 -288 -124t-113 -345q0 -210 90 -323t238 -113z" />
    <glyph glyph-name="r" unicode="r" 
d="M997 0h-829v113h307q-2 99 -6.5 417t-7.5 453l-289 16l10 105h410q0 -2 5 -78t7 -106q191 182 524 223l7 -154q-333 -28 -527 -166q1 -89 10 -710h394z" />
    <glyph glyph-name="s" unicode="s" 
d="M1001 1110l7 -133q-180 14 -295.5 10t-182 -29.5t-92.5 -55t-26 -68.5q0 -41 35 -78t91.5 -66.5t124 -59.5t135.5 -63t124.5 -69.5t91.5 -86.5t35 -108q0 -54 -24 -101.5t-83.5 -91.5t-148.5 -73.5t-229 -41.5t-316 -1l6 131q190 -13 314.5 -7.5t198 33.5t103 61.5
t29.5 76.5q0 44 -35 82.5t-91 68t-123.5 58.5t-135.5 60.5t-124 66t-91 82.5t-35 104q0 52 23 98.5t76 90.5t138 71.5t209.5 40.5t290.5 -2z" />
    <glyph glyph-name="t" unicode="t" 
d="M1057 -20q-234 -1 -370 36t-195.5 116t-59.5 214v643h-231l16 115h215v311l146 12v-323h469v-115h-469v-620q0 -77 22 -125t80.5 -79.5t150 -44.5t240.5 -16z" />
    <glyph glyph-name="u" unicode="u" 
d="M932 -4l-10 127q-186 -150 -377 -150q-156 0 -244 93.5t-88 289.5v742l147 10v-707q0 -162 60.5 -232.5t179.5 -70.5q155 0 315 113q-10 328 -10 893h146q0 -740 14 -1098z" />
    <glyph glyph-name="v" unicode="v" 
d="M651 133q184 449 361 971h147q-183 -534 -424 -1112h-190q-226 545 -420 1108l147 8q195 -570 363 -975h16z" />
    <glyph glyph-name="w" unicode="w" 
d="M870 0l-231 655l-229 -655h-136q-72 461 -114 1104h145q26 -464 66 -911h10q8 27 108.5 315.5t106.5 310.5h96q10 -30 107 -306.5t114 -322.5h7q27 321 63 914h139q-44 -620 -112 -1104h-140z" />
    <glyph glyph-name="x" unicode="x" 
d="M987 -4l-354 469l-350 -465h-156l422 549l-420 549l158 10l362 -469l346 465h158l-418 -551l412 -547z" />
    <glyph glyph-name="y" unicode="y" 
d="M174 -403l-14 135q114 18 179.5 36.5t115.5 52.5t78.5 77.5t62.5 121.5h-4q-194 414 -469 1080l149 8q157 -401 392 -922h14q61 146 194 519.5t142 398.5h139q-172 -493 -379 -998q-37 -94 -68.5 -159t-70.5 -121t-80 -91t-98 -63.5t-124 -45t-159 -29.5z" />
    <glyph glyph-name="z" unicode="z" 
d="M1102 0h-914v125l740 852l-731 -2l12 129h885v-125l-742 -852l760 2z" />
    <glyph glyph-name="Aacute" unicode="&#xc1;" 
d="M418 1638q97 71 221.5 190.5t200.5 215.5l125 -117q-90 -85 -235.5 -186.5t-266.5 -169.5zM1020 -6q-80 285 -131 461h-504q-100 -352 -127 -455h-149q230 803 426 1415h210q196 -610 426 -1409zM629 1282q-47 -154 -211 -713h438q-80 279 -211 713h-16z" />
    <glyph glyph-name="aacute" unicode="&#xe1;" 
d="M418 1337q97 71 221.5 190.5t200.5 215.5l125 -117q-90 -85 -235.5 -186.5t-266.5 -169.5zM571 92q91 0 183.5 37.5t165.5 97.5q-7 136 -7 283q-591 63 -591 -219q0 -94 67.5 -146.5t181.5 -52.5zM940 -6q-1 17 -6.5 70.5t-7.5 74.5q-180 -168 -410 -168
q-153 0 -246.5 77.5t-93.5 209.5q0 88 45.5 160t133.5 123t231 73t325 9q-4 85 -27 143t-68 101t-124.5 68.5t-185.5 39.5t-262 20l18 127q159 -6 275 -21t207 -44.5t149.5 -71.5t96.5 -106t53.5 -143t15.5 -187q0 -265 14 -545z" />
    <glyph glyph-name="Abreve" unicode="&#x102;" 
d="M631 1589q-113 0 -213.5 80.5t-194.5 245.5l105 61q88 -146 158.5 -206t156.5 -60q88 0 163 62t165 196l90 -47q-204 -332 -430 -332zM1020 -6q-80 285 -131 461h-504q-100 -352 -127 -455h-149q230 803 426 1415h210q196 -610 426 -1409zM629 1282q-47 -154 -211 -713
h438q-80 279 -211 713h-16z" />
    <glyph glyph-name="abreve" unicode="&#x103;" 
d="M633 1288q-113 0 -213.5 80.5t-194.5 245.5l105 61q88 -146 158.5 -206t156.5 -60q88 0 163 62t165 196l90 -47q-204 -332 -430 -332zM571 92q91 0 183.5 37.5t165.5 97.5q-7 136 -7 283q-591 63 -591 -219q0 -94 67.5 -146.5t181.5 -52.5zM940 -6q-1 17 -6.5 70.5
t-7.5 74.5q-180 -168 -410 -168q-153 0 -246.5 77.5t-93.5 209.5q0 88 45.5 160t133.5 123t231 73t325 9q-4 85 -27 143t-68 101t-124.5 68.5t-185.5 39.5t-262 20l18 127q159 -6 275 -21t207 -44.5t149.5 -71.5t96.5 -106t53.5 -143t15.5 -187q0 -265 14 -545z" />
    <glyph glyph-name="Acircumflex" unicode="&#xc2;" 
d="M938 1579l-309 270l-310 -268l-75 72l391 346h6l391 -332zM1020 -6q-80 285 -131 461h-504q-100 -352 -127 -455h-149q230 803 426 1415h210q196 -610 426 -1409zM629 1282q-47 -154 -211 -713h438q-80 279 -211 713h-16z" />
    <glyph glyph-name="acircumflex" unicode="&#xe2;" 
d="M940 1278l-309 270l-309 -268l-76 72l391 346h6l391 -332zM571 92q91 0 183.5 37.5t165.5 97.5q-7 136 -7 283q-591 63 -591 -219q0 -94 67.5 -146.5t181.5 -52.5zM940 -6q-1 17 -6.5 70.5t-7.5 74.5q-180 -168 -410 -168q-153 0 -246.5 77.5t-93.5 209.5q0 88 45.5 160
t133.5 123t231 73t325 9q-4 85 -27 143t-68 101t-124.5 68.5t-185.5 39.5t-262 20l18 127q159 -6 275 -21t207 -44.5t149.5 -71.5t96.5 -106t53.5 -143t15.5 -187q0 -265 14 -545z" />
    <glyph glyph-name="Adieresis" unicode="&#xc4;" 
d="M963 1595h-148v301h152zM465 1595h-146l-2 301h154zM1020 -6q-80 285 -131 461h-504q-100 -352 -127 -455h-149q230 803 426 1415h210q196 -610 426 -1409zM629 1282q-47 -154 -211 -713h438q-80 279 -211 713h-16z" />
    <glyph glyph-name="adieresis" unicode="&#xe4;" 
d="M965 1294h-148v301h152zM467 1294h-145l-3 301h154zM571 92q91 0 183.5 37.5t165.5 97.5q-7 136 -7 283q-591 63 -591 -219q0 -94 67.5 -146.5t181.5 -52.5zM940 -6q-1 17 -6.5 70.5t-7.5 74.5q-180 -168 -410 -168q-153 0 -246.5 77.5t-93.5 209.5q0 88 45.5 160
t133.5 123t231 73t325 9q-4 85 -27 143t-68 101t-124.5 68.5t-185.5 39.5t-262 20l18 127q159 -6 275 -21t207 -44.5t149.5 -71.5t96.5 -106t53.5 -143t15.5 -187q0 -265 14 -545z" />
    <glyph glyph-name="Agrave" unicode="&#xc0;" 
d="M850 1620l-47 -64q-117 68 -261.5 169t-236.5 182l117 123q84 -95 210 -217t218 -193zM1020 -6q-80 285 -131 461h-504q-100 -352 -127 -455h-149q230 803 426 1415h210q196 -610 426 -1409zM629 1282q-47 -154 -211 -713h438q-80 279 -211 713h-16z" />
    <glyph glyph-name="agrave" unicode="&#xe0;" 
d="M852 1319l-47 -64q-117 68 -261.5 169t-236.5 182l117 123q84 -95 210 -217t218 -193zM571 92q91 0 183.5 37.5t165.5 97.5q-7 136 -7 283q-591 63 -591 -219q0 -94 67.5 -146.5t181.5 -52.5zM940 -6q-1 17 -6.5 70.5t-7.5 74.5q-180 -168 -410 -168q-153 0 -246.5 77.5
t-93.5 209.5q0 88 45.5 160t133.5 123t231 73t325 9q-4 85 -27 143t-68 101t-124.5 68.5t-185.5 39.5t-262 20l18 127q159 -6 275 -21t207 -44.5t149.5 -71.5t96.5 -106t53.5 -143t15.5 -187q0 -265 14 -545z" />
    <glyph glyph-name="Amacron" unicode="&#x100;" 
d="M1010 1817v-127h-744v127h744zM1020 -6q-80 285 -131 461h-504q-100 -352 -127 -455h-149q230 803 426 1415h210q196 -610 426 -1409zM629 1282q-47 -154 -211 -713h438q-80 279 -211 713h-16z" />
    <glyph glyph-name="amacron" unicode="&#x101;" 
d="M1012 1516v-127h-744v127h744zM571 92q91 0 183.5 37.5t165.5 97.5q-7 136 -7 283q-591 63 -591 -219q0 -94 67.5 -146.5t181.5 -52.5zM940 -6q-1 17 -6.5 70.5t-7.5 74.5q-180 -168 -410 -168q-153 0 -246.5 77.5t-93.5 209.5q0 88 45.5 160t133.5 123t231 73t325 9
q-4 85 -27 143t-68 101t-124.5 68.5t-185.5 39.5t-262 20l18 127q159 -6 275 -21t207 -44.5t149.5 -71.5t96.5 -106t53.5 -143t15.5 -187q0 -265 14 -545z" />
    <glyph glyph-name="Aogonek" unicode="&#x104;" 
d="M1120 -473q-211 20 -303 70t-92 131q0 66 67 133.5t222 150.5q-94 337 -125 443h-504q-100 -352 -127 -455h-149q230 803 426 1415h210q196 -610 426 -1409q-311 -148 -311 -244q0 -44 64.5 -71.5t210.5 -42.5zM629 1282q-47 -154 -211 -713h438q-80 279 -211 713h-16z
" />
    <glyph glyph-name="aogonek" unicode="&#x105;" 
d="M1022 -475q-211 20 -303 70t-92 131q0 69 71.5 138.5t239.5 158.5q-2 27 -8 93.5t-8 86.5q-82 -100 -189.5 -166t-234.5 -66q-143 0 -232.5 77.5t-89.5 209.5q0 88 45.5 160t133.5 123t231 73t325 9q-4 85 -27 143t-68 101t-124.5 68.5t-185.5 39.5t-262 20l18 127
q159 -6 275 -21t207 -44.5t149.5 -71.5t96.5 -106t53.5 -143t15.5 -187q0 -265 14 -545q-172 -84 -241.5 -142.5t-69.5 -103.5q0 -42 64 -69.5t210 -44.5zM553 92q95 0 192 55.5t173 143.5q-5 82 -5 219q-591 63 -591 -219q0 -94 62.5 -146.5t168.5 -52.5z" />
    <glyph glyph-name="Aring" unicode="&#xc5;" 
d="M635 2021q129 0 213 -67.5t84 -165.5q0 -107 -81.5 -175.5t-215.5 -68.5q-129 0 -213 68t-84 166q0 107 81.5 175t215.5 68zM635 1925q-85 0 -134.5 -39t-49.5 -102q0 -64 50 -104t134 -40q85 0 134.5 40t49.5 104q0 62 -50 101.5t-134 39.5zM1020 -6q-80 285 -131 461
h-504q-100 -352 -127 -455h-149q230 803 426 1415h210q196 -610 426 -1409zM629 1282q-47 -154 -211 -713h438q-80 279 -211 713h-16z" />
    <glyph glyph-name="aring" unicode="&#xe5;" 
d="M637 1720q129 0 213 -67.5t84 -165.5q0 -107 -81.5 -175.5t-215.5 -68.5q-129 0 -213 68t-84 166q0 107 81.5 175t215.5 68zM637 1624q-85 0 -134.5 -39t-49.5 -102q0 -64 50 -104t134 -40q85 0 134.5 40t49.5 104q0 62 -50 101.5t-134 39.5zM571 92q91 0 183.5 37.5
t165.5 97.5q-7 136 -7 283q-591 63 -591 -219q0 -94 67.5 -146.5t181.5 -52.5zM940 -6q-1 17 -6.5 70.5t-7.5 74.5q-180 -168 -410 -168q-153 0 -246.5 77.5t-93.5 209.5q0 88 45.5 160t133.5 123t231 73t325 9q-4 85 -27 143t-68 101t-124.5 68.5t-185.5 39.5t-262 20
l18 127q159 -6 275 -21t207 -44.5t149.5 -71.5t96.5 -106t53.5 -143t15.5 -187q0 -265 14 -545z" />
    <glyph glyph-name="Aringacute" unicode="&#x1fa;" 
d="M418 2187q97 71 221.5 190.5t200.5 215.5l125 -117q-90 -85 -235.5 -186.5t-266.5 -169.5zM635 2021q129 0 213 -67.5t84 -165.5q0 -107 -81.5 -175.5t-215.5 -68.5q-129 0 -213 68t-84 166q0 107 81.5 175t215.5 68zM635 1925q-85 0 -134.5 -39t-49.5 -102
q0 -64 50 -104t134 -40q85 0 134.5 40t49.5 104q0 62 -50 101.5t-134 39.5zM1020 -6q-80 285 -131 461h-504q-100 -352 -127 -455h-149q230 803 426 1415h210q196 -610 426 -1409zM629 1282q-47 -154 -211 -713h438q-80 279 -211 713h-16z" />
    <glyph glyph-name="aringacute" unicode="&#x1fb;" 
d="M418 1892q97 71 221.5 190.5t200.5 215.5l125 -117q-90 -85 -235.5 -186.5t-266.5 -169.5zM637 1720q129 0 213 -67.5t84 -165.5q0 -107 -81.5 -175.5t-215.5 -68.5q-129 0 -213 68t-84 166q0 107 81.5 175t215.5 68zM637 1624q-85 0 -134.5 -39t-49.5 -102
q0 -64 50 -104t134 -40q85 0 134.5 40t49.5 104q0 62 -50 101.5t-134 39.5zM571 92q91 0 183.5 37.5t165.5 97.5q-7 136 -7 283q-591 63 -591 -219q0 -94 67.5 -146.5t181.5 -52.5zM940 -6q-1 17 -6.5 70.5t-7.5 74.5q-180 -168 -410 -168q-153 0 -246.5 77.5t-93.5 209.5
q0 88 45.5 160t133.5 123t231 73t325 9q-4 85 -27 143t-68 101t-124.5 68.5t-185.5 39.5t-262 20l18 127q159 -6 275 -21t207 -44.5t149.5 -71.5t96.5 -106t53.5 -143t15.5 -187q0 -265 14 -545z" />
    <glyph glyph-name="Atilde" unicode="&#xc3;" 
d="M813 1591q-40 0 -80 25.5t-72 62t-62 73t-61.5 62t-58.5 25.5q-87 0 -188 -227l-86 37q61 150 135 231.5t154 81.5q41 0 81 -25.5t71.5 -62t61.5 -73t61 -62t58 -25.5q87 0 187 228l88 -37q-61 -150 -135 -232t-154 -82zM1020 -6q-80 285 -131 461h-504
q-100 -352 -127 -455h-149q230 803 426 1415h210q196 -610 426 -1409zM629 1282q-47 -154 -211 -713h438q-80 279 -211 713h-16z" />
    <glyph glyph-name="atilde" unicode="&#xe3;" 
d="M813 1290q-49 0 -99 39t-85 85t-76 85t-74 39q-87 0 -188 -227l-86 37q61 150 135 231.5t154 81.5q41 0 81 -25.5t71.5 -62t61.5 -73t61 -62t58 -25.5q47 0 92.5 58t94.5 169l88 -36q-61 -150 -135 -232t-154 -82zM571 92q91 0 183.5 37.5t165.5 97.5q-7 136 -7 283
q-591 63 -591 -219q0 -94 67.5 -146.5t181.5 -52.5zM940 -6q-1 17 -6.5 70.5t-7.5 74.5q-180 -168 -410 -168q-153 0 -246.5 77.5t-93.5 209.5q0 88 45.5 160t133.5 123t231 73t325 9q-4 85 -27 143t-68 101t-124.5 68.5t-185.5 39.5t-262 20l18 127q159 -6 275 -21
t207 -44.5t149.5 -71.5t96.5 -106t53.5 -143t15.5 -187q0 -265 14 -545z" />
    <glyph glyph-name="Cacute" unicode="&#x106;" 
d="M506 1638q97 71 221.5 190.5t200.5 215.5l125 -117q-90 -85 -235.5 -186.5t-266.5 -169.5zM1098 123l-15 -131q-209 -13 -369 15.5t-262 87t-166 151t-90 198t-26 236.5q0 120 27.5 223t94 197.5t168 162t258.5 111t357 51.5l8 -143q-134 -3 -242 -20t-186.5 -43.5
t-136.5 -67t-95 -86.5t-59.5 -106.5t-31 -121.5t-8.5 -137q0 -121 21 -211t74 -165t140.5 -120t222 -66.5t316.5 -14.5z" />
    <glyph glyph-name="cacute" unicode="&#x107;" 
d="M485 1333q97 71 221.5 190.5t200.5 215.5l125 -117q-90 -85 -235.5 -186.5t-266.5 -169.5zM205 535q0 94 26 175t87.5 155.5t156 128t239.5 87.5t330 39l11 -139q-170 -2 -295 -23.5t-203 -57.5t-125 -91t-64.5 -115t-17.5 -139q0 -93 20.5 -163t71 -127t132 -91.5
t206.5 -50t293 -8.5l-18 -123q-193 -11 -341 10t-243.5 67t-156 119t-85 157.5t-24.5 189.5z" />
    <glyph glyph-name="Ccaron" unicode="&#x10c;" 
d="M741 1567h-6l-389 329l92 89l310 -271l311 271l76 -74zM1098 123l-15 -131q-209 -13 -369 15.5t-262 87t-166 151t-90 198t-26 236.5q0 120 27.5 223t94 197.5t168 162t258.5 111t357 51.5l8 -143q-134 -3 -242 -20t-186.5 -43.5t-136.5 -67t-95 -86.5t-59.5 -106.5
t-31 -121.5t-8.5 -137q0 -121 21 -211t74 -165t140.5 -120t222 -66.5t316.5 -14.5z" />
    <glyph glyph-name="ccaron" unicode="&#x10d;" 
d="M721 1262h-6l-389 329l92 88l309 -270l311 270l76 -73zM205 535q0 94 26 175t87.5 155.5t156 128t239.5 87.5t330 39l11 -139q-170 -2 -295 -23.5t-203 -57.5t-125 -91t-64.5 -115t-17.5 -139q0 -93 20.5 -163t71 -127t132 -91.5t206.5 -50t293 -8.5l-18 -123
q-193 -11 -341 10t-243.5 67t-156 119t-85 157.5t-24.5 189.5z" />
    <glyph glyph-name="Ccedilla" unicode="&#xc7;" 
d="M889 -252q0 -82 -99 -139.5t-294 -85.5l-13 119q148 23 212.5 50.5t64.5 67.5q0 88 -221 222l32 61q-401 135 -401 637q0 120 27.5 223t94 197.5t168 162t258.5 111t357 51.5l8 -143q-134 -3 -242 -20t-186.5 -43.5t-136.5 -67t-95 -86.5t-59.5 -106.5t-31 -121.5
t-8.5 -137q0 -121 21 -211t74 -165t140.5 -120t222 -66.5t316.5 -14.5l-15 -131q-250 -15 -424 26q230 -143 230 -270z" />
    <glyph glyph-name="ccedilla" unicode="&#xe7;" 
d="M915 -262q0 -82 -99 -139.5t-294 -85.5l-12 118q147 23 211.5 51t64.5 68q0 87 -221 221l29 54q-209 56 -299 186.5t-90 323.5q0 94 26 175t87.5 155.5t156 128t239.5 87.5t330 39l11 -139q-170 -2 -295 -23.5t-203 -57.5t-125 -91t-64.5 -115t-17.5 -139
q0 -93 20.5 -163t71 -127t132 -91.5t206.5 -50t293 -8.5l-18 -123q-212 -12 -365 12q225 -140 225 -266z" />
    <glyph glyph-name="Cdotaccent" unicode="&#x10a;" 
d="M799 1595h-148l6 301h154zM1098 123l-15 -131q-209 -13 -369 15.5t-262 87t-166 151t-90 198t-26 236.5q0 120 27.5 223t94 197.5t168 162t258.5 111t357 51.5l8 -143q-134 -3 -242 -20t-186.5 -43.5t-136.5 -67t-95 -86.5t-59.5 -106.5t-31 -121.5t-8.5 -137
q0 -121 21 -211t74 -165t140.5 -120t222 -66.5t316.5 -14.5z" />
    <glyph glyph-name="cdotaccent" unicode="&#x10b;" 
d="M778 1290h-147l6 301h154zM205 535q0 94 26 175t87.5 155.5t156 128t239.5 87.5t330 39l11 -139q-170 -2 -295 -23.5t-203 -57.5t-125 -91t-64.5 -115t-17.5 -139q0 -93 20.5 -163t71 -127t132 -91.5t206.5 -50t293 -8.5l-18 -123q-193 -11 -341 10t-243.5 67t-156 119
t-85 157.5t-24.5 189.5z" />
    <glyph glyph-name="Dcaron" unicode="&#x10e;" 
d="M637 1583h-6l-389 330l92 88l309 -270l311 270l76 -74zM1145 733q0 -420 -238 -613t-688 -122v1413q199 31 352 18.5t261.5 -59.5t178 -137t102 -212.5t32.5 -287.5zM993 707q0 344 -147.5 485t-476.5 100v-1171q312 -49 468 102.5t156 483.5z" />
    <glyph glyph-name="dcaron" unicode="&#x10f;" 
d="M1192 1282q48 99 62 196.5t4.5 172t-37.5 168.5l172 4q56 -286 -136 -566zM625 96q140 0 276 109q-8 414 -8 766q-112 33 -195 33q-175 0 -289 -124.5t-114 -344.5q0 -212 90 -325.5t240 -113.5zM918 -4l-9 117q-155 -140 -338 -140q-184 0 -302.5 142t-118.5 383
q0 146 50 267t135 199t196 121t235 43q59 0 127 -10v469l147 12v-503q0 -732 17 -1092z" />
    <glyph glyph-name="Dcroat" unicode="&#x110;" 
d="M1145 733q0 -420 -238 -613t-688 -122v664h-168v108h168v641q199 31 352 18.5t261.5 -59.5t178 -137t102 -212.5t32.5 -287.5zM369 121q312 -49 468 102.5t156 483.5q0 344 -147.5 485t-476.5 100v-522h323l-6 -108h-317v-541z" />
    <glyph glyph-name="dcroat" unicode="&#x111;" 
d="M625 96q140 0 276 109q-8 414 -8 764q-109 32 -195 32q-175 0 -289 -123.5t-114 -342.5q0 -212 90 -325.5t240 -113.5zM918 -4l-9 117q-155 -140 -338 -140q-184 0 -302.5 142t-118.5 383q0 145 50 265t135 198t196 120.5t235 42.5q59 0 127 -10v211h-311v98h311v160
l147 12v-172h166v-98h-166v-229q0 -732 17 -1092z" />
    <glyph glyph-name="Eacute" unicode="&#xc9;" 
d="M471 1638q97 71 221.5 190.5t200.5 215.5l125 -117q-90 -85 -235.5 -186.5t-266.5 -169.5zM1114 129l-14 -129h-836v1409h840v-129h-690v-508h600v-115h-600v-528h700z" />
    <glyph glyph-name="eacute" unicode="&#xe9;" 
d="M442 1350q98 71 222 190t200 215l125 -117q-90 -85 -235.5 -186.5t-266.5 -169.5zM1040 -25q-201 3 -350 28.5t-247.5 70.5t-158.5 115t-85 153.5t-25 194.5q0 164 68.5 300.5t186 214.5t257.5 78q146 0 247 -75.5t143 -210t22 -309.5l-781 -21q4 -87 29 -150
t76.5 -112.5t137 -80.5t207 -48.5t290.5 -22.5zM659 1008q-149 0 -240 -105t-100 -293l642 17q3 176 -74 278.5t-228 102.5z" />
    <glyph glyph-name="Ebreve" unicode="&#x114;" 
d="M684 1589q-113 0 -213.5 80.5t-194.5 245.5l105 61q88 -146 158.5 -206t156.5 -60q88 0 163 62t165 196l90 -47q-204 -332 -430 -332zM1114 129l-14 -129h-836v1409h840v-129h-690v-508h600v-115h-600v-528h700z" />
    <glyph glyph-name="ebreve" unicode="&#x115;" 
d="M657 1300q-113 0 -213 80.5t-194 245.5l104 62q88 -146 159 -206.5t157 -60.5q88 0 162.5 62t164.5 196l90 -47q-204 -332 -430 -332zM1040 -25q-201 3 -350 28.5t-247.5 70.5t-158.5 115t-85 153.5t-25 194.5q0 164 68.5 300.5t186 214.5t257.5 78q146 0 247 -75.5
t143 -210t22 -309.5l-781 -21q4 -87 29 -150t76.5 -112.5t137 -80.5t207 -48.5t290.5 -22.5zM659 1008q-149 0 -240 -105t-100 -293l642 17q3 176 -74 278.5t-228 102.5z" />
    <glyph glyph-name="Ecaron" unicode="&#x11a;" 
d="M705 1567h-7l-389 329l92 89l310 -271l311 271l76 -74zM1114 129l-14 -129h-836v1409h840v-129h-690v-508h600v-115h-600v-528h700z" />
    <glyph glyph-name="ecaron" unicode="&#x11b;" 
d="M678 1278h-6l-389 330l92 88l309 -271l311 271l76 -74zM1040 -25q-201 3 -350 28.5t-247.5 70.5t-158.5 115t-85 153.5t-25 194.5q0 164 68.5 300.5t186 214.5t257.5 78q146 0 247 -75.5t143 -210t22 -309.5l-781 -21q4 -87 29 -150t76.5 -112.5t137 -80.5t207 -48.5
t290.5 -22.5zM659 1008q-149 0 -240 -105t-100 -293l642 17q3 176 -74 278.5t-228 102.5z" />
    <glyph glyph-name="Ecircumflex" unicode="&#xca;" 
d="M991 1579l-309 270l-309 -268l-76 72l391 346h6l391 -332zM1114 129l-14 -129h-836v1409h840v-129h-690v-508h600v-115h-600v-528h700z" />
    <glyph glyph-name="ecircumflex" unicode="&#xea;" 
d="M965 1290l-310 271l-309 -269l-76 72l392 346h6l391 -332zM1040 -25q-201 3 -350 28.5t-247.5 70.5t-158.5 115t-85 153.5t-25 194.5q0 164 68.5 300.5t186 214.5t257.5 78q146 0 247 -75.5t143 -210t22 -309.5l-781 -21q4 -87 29 -150t76.5 -112.5t137 -80.5t207 -48.5
t290.5 -22.5zM659 1008q-149 0 -240 -105t-100 -293l642 17q3 176 -74 278.5t-228 102.5z" />
    <glyph glyph-name="Edieresis" unicode="&#xcb;" 
d="M1016 1595h-148v301h152zM518 1595h-145l-2 301h153zM1114 129l-14 -129h-836v1409h840v-129h-690v-508h600v-115h-600v-528h700z" />
    <glyph glyph-name="edieresis" unicode="&#xeb;" 
d="M989 1307h-147v301h151zM492 1307h-146l-2 301h154zM1040 -25q-201 3 -350 28.5t-247.5 70.5t-158.5 115t-85 153.5t-25 194.5q0 164 68.5 300.5t186 214.5t257.5 78q146 0 247 -75.5t143 -210t22 -309.5l-781 -21q4 -87 29 -150t76.5 -112.5t137 -80.5t207 -48.5
t290.5 -22.5zM659 1008q-149 0 -240 -105t-100 -293l642 17q3 176 -74 278.5t-228 102.5z" />
    <glyph glyph-name="Edotaccent" unicode="&#x116;" 
d="M762 1595h-148l7 301h153zM1114 129l-14 -129h-836v1409h840v-129h-690v-508h600v-115h-600v-528h700z" />
    <glyph glyph-name="edotaccent" unicode="&#x117;" 
d="M735 1307h-147l6 301h154zM1040 -25q-201 3 -350 28.5t-247.5 70.5t-158.5 115t-85 153.5t-25 194.5q0 164 68.5 300.5t186 214.5t257.5 78q146 0 247 -75.5t143 -210t22 -309.5l-781 -21q4 -87 29 -150t76.5 -112.5t137 -80.5t207 -48.5t290.5 -22.5zM659 1008
q-149 0 -240 -105t-100 -293l642 17q3 176 -74 278.5t-228 102.5z" />
    <glyph glyph-name="Egrave" unicode="&#xc8;" 
d="M903 1620l-47 -64q-117 68 -261.5 169t-236.5 182l117 123q84 -95 210 -217t218 -193zM1114 129l-14 -129h-836v1409h840v-129h-690v-508h600v-115h-600v-528h700z" />
    <glyph glyph-name="egrave" unicode="&#xe8;" 
d="M877 1331l-48 -63q-117 69 -261 169t-236 181l117 123q84 -95 210 -217t218 -193zM1040 -25q-201 3 -350 28.5t-247.5 70.5t-158.5 115t-85 153.5t-25 194.5q0 164 68.5 300.5t186 214.5t257.5 78q146 0 247 -75.5t143 -210t22 -309.5l-781 -21q4 -87 29 -150
t76.5 -112.5t137 -80.5t207 -48.5t290.5 -22.5zM659 1008q-149 0 -240 -105t-100 -293l642 17q3 176 -74 278.5t-228 102.5z" />
    <glyph glyph-name="Emacron" unicode="&#x112;" 
d="M1063 1817v-127h-744v127h744zM1114 129l-14 -129h-836v1409h840v-129h-690v-508h600v-115h-600v-528h700z" />
    <glyph glyph-name="emacron" unicode="&#x113;" 
d="M1036 1528v-127h-743v127h743zM1040 -25q-201 3 -350 28.5t-247.5 70.5t-158.5 115t-85 153.5t-25 194.5q0 164 68.5 300.5t186 214.5t257.5 78q146 0 247 -75.5t143 -210t22 -309.5l-781 -21q4 -87 29 -150t76.5 -112.5t137 -80.5t207 -48.5t290.5 -22.5zM659 1008
q-149 0 -240 -105t-100 -293l642 17q3 176 -74 278.5t-228 102.5z" />
    <glyph glyph-name="Eogonek" unicode="&#x118;" 
d="M1065 -358l-14 -121q-211 20 -303.5 69.5t-92.5 130.5q0 65 64.5 132.5t212.5 146.5h-668v1409h840v-129h-690v-508h600v-115h-600v-528h700l-14 -129h-2q-170 -82 -238.5 -140.5t-68.5 -103.5q0 -44 64 -71.5t210 -42.5z" />
    <glyph glyph-name="eogonek" unicode="&#x119;" 
d="M987 -477q-395 37 -395 198q0 66 68.5 132.5t222.5 138.5q-160 6 -280.5 32.5t-202 71.5t-132 111t-72.5 146.5t-22 183.5q0 164 68.5 300.5t186 214.5t257.5 78q146 0 247 -75.5t143 -210t22 -309.5l-781 -21q4 -87 29 -150t76.5 -112.5t137 -80.5t207 -48.5
t290.5 -22.5l-17 -120q-313 -127 -313 -222q0 -42 65 -70.5t212 -45.5zM659 1008q-149 0 -240 -105t-100 -293l642 17q3 176 -74 278.5t-228 102.5z" />
    <glyph glyph-name="Gbreve" unicode="&#x11e;" 
d="M670 1589q-113 0 -213.5 80.5t-194.5 245.5l105 61q88 -146 158.5 -206t156.5 -60q88 0 163 62t165 196l90 -47q-204 -332 -430 -332zM1087 12q-201 -43 -355.5 -31.5t-266 63t-183 145t-105.5 212.5t-34 267q0 125 26.5 230t90.5 201t164 164t254.5 111.5t353.5 50.5
l10 -143q-132 -2 -238 -18.5t-183.5 -44t-135 -69t-93.5 -89t-58 -108t-30.5 -122t-8.5 -135.5q0 -152 32.5 -263t106.5 -191.5t202.5 -114.5t311.5 -18q-6 474 -6 598h143q0 -604 2 -695z" />
    <glyph glyph-name="gbreve" unicode="&#x11f;" 
d="M659 1298q-113 0 -213 80.5t-194 245.5l104 62q88 -146 159 -206.5t157 -60.5q88 0 162.5 62t164.5 196l91 -47q-204 -332 -431 -332zM305 -391l-16 135q140 11 234 24.5t166 38.5t112.5 54.5t65.5 80.5t33 108t9 145q-152 -117 -331 -117q-186 0 -305 127.5t-119 345.5
q0 131 47.5 240.5t128 182t186 112.5t221.5 40q148 0 316 -51q2 -66 2 -844q0 -116 -20.5 -204t-71.5 -164.5t-135.5 -128t-215 -84t-307.5 -41.5zM629 197q138 0 280 94v674q-119 39 -223 39q-167 0 -277 -111.5t-110 -306.5q0 -188 91 -288.5t239 -100.5z" />
    <glyph glyph-name="Gcommaaccent" unicode="&#x122;" 
d="M1087 12q-201 -43 -355.5 -31.5t-266 63t-183 145t-105.5 212.5t-34 267q0 125 26.5 230t90.5 201t164 164t254.5 111.5t353.5 50.5l10 -143q-132 -2 -238 -18.5t-183.5 -44t-135 -69t-93.5 -89t-58 -108t-30.5 -122t-8.5 -135.5q0 -152 32.5 -263t106.5 -191.5
t202.5 -114.5t311.5 -18q-6 474 -6 598h143q0 -604 2 -695zM559 -618q40 79 51.5 157.5t1 142t-38.5 134.5q6 0 93 4t94 4q21 -112 -10 -234t-119 -231z" />
    <glyph glyph-name="gcommaaccent" unicode="&#x123;" 
d="M772 1737q-40 -79 -52 -156.5t-2 -141t38 -134.5l-187 -9q-21 112 10 233.5t121 229.5zM305 -391l-16 135q140 11 234 24.5t166 38.5t112.5 54.5t65.5 80.5t33 108t9 145q-152 -117 -331 -117q-186 0 -305 127.5t-119 345.5q0 131 47.5 240.5t128 182t186 112.5t221.5 40
q148 0 316 -51q2 -66 2 -844q0 -116 -20.5 -204t-71.5 -164.5t-135.5 -128t-215 -84t-307.5 -41.5zM629 197q138 0 280 94v674q-119 39 -223 39q-167 0 -277 -111.5t-110 -306.5q0 -188 91 -288.5t239 -100.5z" />
    <glyph glyph-name="Gdotaccent" unicode="&#x120;" 
d="M748 1595h-148l6 301h154zM1087 12q-201 -43 -355.5 -31.5t-266 63t-183 145t-105.5 212.5t-34 267q0 125 26.5 230t90.5 201t164 164t254.5 111.5t353.5 50.5l10 -143q-132 -2 -238 -18.5t-183.5 -44t-135 -69t-93.5 -89t-58 -108t-30.5 -122t-8.5 -135.5
q0 -152 32.5 -263t106.5 -191.5t202.5 -114.5t311.5 -18q-6 474 -6 598h143q0 -604 2 -695z" />
    <glyph glyph-name="gdotaccent" unicode="&#x121;" 
d="M737 1305h-147l6 301h154zM305 -391l-16 135q140 11 234 24.5t166 38.5t112.5 54.5t65.5 80.5t33 108t9 145q-152 -117 -331 -117q-186 0 -305 127.5t-119 345.5q0 131 47.5 240.5t128 182t186 112.5t221.5 40q148 0 316 -51q2 -66 2 -844q0 -116 -20.5 -204
t-71.5 -164.5t-135.5 -128t-215 -84t-307.5 -41.5zM629 197q138 0 280 94v674q-119 39 -223 39q-167 0 -277 -111.5t-110 -306.5q0 -188 91 -288.5t239 -100.5z" />
    <glyph glyph-name="Hbar" unicode="&#x126;" 
d="M920 745v277h-562v-277h562zM920 0v629h-562v-629h-151v1018h-168v108h168v283h151v-287h562v287h151v-283h170v-108h-170v-1018h-151z" />
    <glyph glyph-name="hbar" unicode="&#x127;" 
d="M682 1004q-145 0 -307 -105v-899h-146v1325h-170v98h170v164l146 12v-176h309v-98h-309v-334q176 135 362 135q159 0 247.5 -93.5t88.5 -287.5v-745h-145v700q0 161 -62.5 232.5t-183.5 71.5z" />
    <glyph glyph-name="Iacute" unicode="&#xcd;" 
d="M422 1638q97 71 221.5 190.5t200.5 215.5l125 -117q-90 -85 -235.5 -186.5t-266.5 -169.5zM713 1290v-1171h370l-12 -119h-870v119h362v1171h-362v119h872v-119h-360z" />
    <glyph glyph-name="iacute" unicode="&#xed;" 
d="M465 1333q97 71 221.5 190.5t200.5 215.5l125 -117q-90 -85 -235.5 -186.5t-266.5 -169.5zM1178 0h-996v113h430v870l-428 18l13 103h561v-991h430z" />
    <glyph glyph-name="Ibreve" unicode="&#x12c;" 
d="M637 1589q-113 0 -213.5 80.5t-194.5 245.5l105 61q88 -146 158.5 -206t156.5 -60q88 0 163 62t165 196l90 -47q-204 -332 -430 -332zM713 1290v-1171h370l-12 -119h-870v119h362v1171h-362v119h872v-119h-360z" />
    <glyph glyph-name="ibreve" unicode="&#x12d;" 
d="M680 1284q-113 0 -213.5 80.5t-194.5 245.5l105 61q88 -146 158.5 -206t156.5 -60q88 0 163 62t165 196l90 -47q-204 -332 -430 -332zM1178 0h-996v113h430v870l-428 18l13 103h561v-991h430z" />
    <glyph glyph-name="Icircumflex" unicode="&#xce;" 
d="M944 1579l-309 270l-309 -268l-76 72l391 346h6l391 -332zM713 1290v-1171h370l-12 -119h-870v119h362v1171h-362v119h872v-119h-360z" />
    <glyph glyph-name="icircumflex" unicode="&#xee;" 
d="M985 1274l-309 270l-309 -268l-76 72l391 346h6l391 -332zM1178 0h-996v113h430v870l-428 18l13 103h561v-991h430z" />
    <glyph glyph-name="Idieresis" unicode="&#xcf;" 
d="M967 1595h-148v301h152zM469 1595h-145l-2 301h153zM713 1290v-1171h370l-12 -119h-870v119h362v1171h-362v119h872v-119h-360z" />
    <glyph glyph-name="idieresis" unicode="&#xef;" 
d="M1010 1290h-148v301h152zM512 1290h-145l-2 301h153zM1178 0h-996v113h430v870l-428 18l13 103h561v-991h430z" />
    <glyph glyph-name="Idotaccent" unicode="&#x130;" 
d="M715 1595h-148l6 301h154zM713 1290v-1171h370l-12 -119h-870v119h362v1171h-362v119h872v-119h-360z" />
    <glyph glyph-name="dotlessi" unicode="&#x131;" 
d="M1178 0h-996v113h430v870l-428 18l13 103h561v-991h430z" />
    <glyph glyph-name="Igrave" unicode="&#xcc;" 
d="M856 1620l-47 -64q-117 68 -261.5 169t-236.5 182l117 123q84 -95 210 -217t218 -193zM713 1290v-1171h370l-12 -119h-870v119h362v1171h-362v119h872v-119h-360z" />
    <glyph glyph-name="igrave" unicode="&#xec;" 
d="M899 1315l-47 -64q-117 68 -261.5 169t-236.5 182l117 122q83 -95 209.5 -216.5t218.5 -192.5zM1178 0h-996v113h430v870l-428 18l13 103h561v-991h430z" />
    <glyph glyph-name="Imacron" unicode="&#x12a;" 
d="M1014 1817v-127h-744v127h744zM713 1290v-1171h370l-12 -119h-870v119h362v1171h-362v119h872v-119h-360z" />
    <glyph glyph-name="imacron" unicode="&#x12b;" 
d="M1057 1511v-127h-744v127h744zM1178 0h-996v113h430v870l-428 18l13 103h561v-991h430z" />
    <glyph glyph-name="Iogonek" unicode="&#x12e;" 
d="M797 -356l-15 -121q-212 20 -303.5 71.5t-91.5 139.5q0 62 44.5 124.5t146.5 141.5h-377v119h362v1171h-362v119h872v-119h-360v-1171h370l-12 -119h-364q-101 -84 -143 -138.5t-42 -97.5q0 -46 63.5 -74.5t211.5 -45.5z" />
    <glyph glyph-name="iogonek" unicode="&#x12f;" 
d="M748 1290h-148l10 301h156zM827 -358l-14 -121q-212 20 -303.5 71.5t-91.5 137.5q0 63 46.5 127t151.5 143h-434v113h430v870l-428 18l13 103h561v-991h430l-10 -113h-428q-109 -85 -153 -140t-44 -98q0 -47 64 -76t210 -44z" />
    <glyph glyph-name="Kcommaaccent" unicode="&#x136;" 
d="M1018 -12l-473 663h-158v-651h-149v1409h149v-637h168l434 637h160l-477 -690l510 -709zM522 -610q40 80 52 158t1.5 141.5t-38.5 134.5q6 0 92.5 4t93.5 4q21 -112 -10 -234t-119 -231z" />
    <glyph glyph-name="kcommaaccent" unicode="&#x137;" 
d="M1016 -12l-426 520l-184 -6v-502h-146v1587l146 12v-987l192 6q215 238 399 490l148 -12q-224 -306 -426 -527l452 -557zM567 -610q40 80 52 158t1.5 141.5t-38.5 134.5q6 0 92.5 4t93.5 4q21 -112 -10 -234t-119 -231z" />
    <glyph glyph-name="Lacute" unicode="&#x139;" 
d="M489 1638q97 71 221.5 190.5t200.5 215.5l125 -117q-91 -85 -236 -187t-265 -169zM1130 0h-845v1409h149v-1280h709z" />
    <glyph glyph-name="lacute" unicode="&#x13a;" 
d="M426 1815q98 71 222 190t200 215l125 -117q-90 -85 -235.5 -186.5t-266.5 -169.5zM1077 0h-874v113h368v1351l-346 17l13 104h481v-1472h371z" />
    <glyph glyph-name="Lcaron" unicode="&#x13d;" 
d="M872 1047q48 99 62 196.5t4.5 171.5t-37.5 168l172 4q56 -287 -135 -565zM1130 0h-845v1409h149v-1280h709z" />
    <glyph glyph-name="lcaron" unicode="&#x13e;" 
d="M1014 1282q48 99 62 197t4 172t-38 168l172 4q57 -288 -135 -566zM1077 0h-874v113h368v1351l-346 17l13 104h481v-1472h371z" />
    <glyph glyph-name="Lcommaaccent" unicode="&#x13b;" 
d="M1130 0h-845v1409h149v-1280h709zM594 -598q40 79 51.5 157.5t1 142t-38.5 134.5q6 0 93 4t94 4q21 -112 -10 -234t-119 -231z" />
    <glyph glyph-name="lcommaaccent" unicode="&#x13c;" 
d="M1077 0h-874v113h368v1351l-346 17l13 104h481v-1472h371zM530 -598q40 80 52 158t1.5 141.5t-38.5 134.5q6 0 92.5 4t93.5 4q21 -112 -10 -234t-119 -231z" />
    <glyph glyph-name="Ldot" unicode="&#x13f;" 
d="M1130 0h-845v1409h149v-1280h709zM1071 610h-186l12 224h186z" />
    <glyph glyph-name="ldot" unicode="&#x140;" 
d="M1077 0h-874v113h368v1351l-346 17l13 104h481v-1472h371zM1356 610h-185l13 224h184z" />
    <glyph glyph-name="Lslash" unicode="&#x141;" 
d="M1130 0h-845v690l-168 -86l-25 105l193 100v600h149v-522l340 178l27 -107l-367 -190v-639h709z" />
    <glyph glyph-name="lslash" unicode="&#x142;" 
d="M1077 0h-874v113h368v618l-272 -143l-27 104l299 158v614l-346 17l13 104h481v-659l260 137l27 -105l-287 -149v-696h371z" />
    <glyph glyph-name="Nacute" unicode="&#x143;" 
d="M416 1638q97 71 221.5 190.5t200.5 215.5l125 -117q-90 -85 -235.5 -186.5t-266.5 -169.5zM918 0l-562 1178h-12l4 -1178h-139v1409h172l545 -1153h10l-6 1153h141v-1409h-153z" />
    <glyph glyph-name="nacute" unicode="&#x144;" 
d="M422 1358q98 71 222 190t200 215l125 -116q-91 -85 -236.5 -187.5t-265.5 -169.5zM682 1004q-156 0 -317 -111q10 -328 10 -893h-146q0 740 -14 1098l133 8l10 -125q186 147 379 147q159 0 247.5 -93.5t88.5 -289.5v-745h-145v700q0 160 -63 232t-183 72z" />
    <glyph glyph-name="Ncaron" unicode="&#x147;" 
d="M651 1567h-6l-389 329l92 89l309 -271l312 271l75 -74zM918 0l-562 1178h-12l4 -1178h-139v1409h172l545 -1153h10l-6 1153h141v-1409h-153z" />
    <glyph glyph-name="ncaron" unicode="&#x148;" 
d="M657 1286h-6l-389 330l92 88l310 -270l311 270l76 -74zM682 1004q-156 0 -317 -111q10 -328 10 -893h-146q0 740 -14 1098l133 8l10 -125q186 147 379 147q159 0 247.5 -93.5t88.5 -289.5v-745h-145v700q0 160 -63 232t-183 72z" />
    <glyph glyph-name="Ncommaaccent" unicode="&#x145;" 
d="M918 0l-562 1178h-12l4 -1178h-139v1409h172l545 -1153h10l-6 1153h141v-1409h-153zM520 -598q40 80 52 158t1.5 141.5t-38.5 134.5q6 0 92.5 4t93.5 4q21 -112 -10 -234t-119 -231z" />
    <glyph glyph-name="ncommaaccent" unicode="&#x146;" 
d="M682 1004q-156 0 -317 -111q10 -328 10 -893h-146q0 740 -14 1098l133 8l10 -125q186 147 379 147q159 0 247.5 -93.5t88.5 -289.5v-745h-145v700q0 160 -63 232t-183 72zM561 -598q40 79 51.5 157.5t1 142t-38.5 134.5q6 0 93 4t94 4q21 -112 -10 -234t-119 -231z" />
    <glyph glyph-name="Ntilde" unicode="&#xd1;" 
d="M811 1591q-40 0 -80 25.5t-72 62t-62 73t-61.5 62t-58.5 25.5q-87 0 -188 -227l-86 37q61 150 135 231.5t154 81.5q41 0 81 -25.5t71.5 -62t61.5 -73t61 -62t58 -25.5q87 0 187 228l88 -37q-61 -150 -135 -232t-154 -82zM918 0l-562 1178h-12l4 -1178h-139v1409h172
l545 -1153h10l-6 1153h141v-1409h-153z" />
    <glyph glyph-name="ntilde" unicode="&#xf1;" 
d="M817 1311q-40 0 -80 25.5t-72 62t-62 73t-61.5 62t-58.5 25.5q-47 0 -93 -59t-95 -169l-86 37q61 150 135 231.5t154 81.5q41 0 81 -25.5t71.5 -61.5t61.5 -72.5t61 -62t58 -25.5q47 0 92.5 58t94.5 169l88 -37q-61 -150 -135 -231.5t-154 -81.5zM682 1004
q-156 0 -317 -111q10 -328 10 -893h-146q0 740 -14 1098l133 8l10 -125q186 147 379 147q159 0 247.5 -93.5t88.5 -289.5v-745h-145v700q0 160 -63 232t-183 72z" />
    <glyph glyph-name="Oacute" unicode="&#xd3;" 
d="M426 1655q98 71 222 190t200 215l125 -116q-91 -85 -236.5 -187.5t-265.5 -169.5zM618 -35q-234 0 -363.5 186.5t-129.5 526.5q0 366 144 566t393 200q234 0 363 -185.5t130 -527.5q1 -364 -143.5 -565t-393.5 -201zM635 1317q-174 0 -266.5 -155.5t-92.5 -450.5
q0 -303 93.5 -461t273.5 -158q174 0 266 156t92 452q0 301 -94 459t-272 158z" />
    <glyph glyph-name="oacute" unicode="&#xf3;" 
d="M420 1341q97 71 221.5 190.5t200.5 215.5l125 -117q-90 -85 -235.5 -186.5t-266.5 -169.5zM618 -31q-207 0 -337.5 152.5t-130.5 413.5q0 130 41 243t110 190t162 121t196 44q209 0 340 -152t131 -412q0 -133 -41 -246t-110.5 -190t-163 -120.5t-197.5 -43.5zM643 90
q154 0 248 119t94 332q0 221 -95.5 345t-252.5 124q-153 0 -246.5 -118.5t-93.5 -328.5q0 -223 94.5 -348t251.5 -125z" />
    <glyph glyph-name="Obreve" unicode="&#x14e;" 
d="M639 1606q-114 0 -214 80t-194 245l105 62q89 -146 159.5 -206.5t155.5 -60.5q88 0 163 62.5t165 196.5l90 -48q-203 -331 -430 -331zM618 -35q-234 0 -363.5 186.5t-129.5 526.5q0 366 144 566t393 200q234 0 363 -185.5t130 -527.5q1 -364 -143.5 -565t-393.5 -201z
M635 1317q-174 0 -266.5 -155.5t-92.5 -450.5q0 -303 93.5 -461t273.5 -158q174 0 266 156t92 452q0 301 -94 459t-272 158z" />
    <glyph glyph-name="obreve" unicode="&#x14f;" 
d="M633 1292q-113 0 -213.5 80.5t-194.5 245.5l105 61q88 -146 158.5 -206t156.5 -60q88 0 163 62t165 196l90 -47q-204 -332 -430 -332zM618 -31q-207 0 -337.5 152.5t-130.5 413.5q0 130 41 243t110 190t162 121t196 44q209 0 340 -152t131 -412q0 -133 -41 -246
t-110.5 -190t-163 -120.5t-197.5 -43.5zM643 90q154 0 248 119t94 332q0 221 -95.5 345t-252.5 124q-153 0 -246.5 -118.5t-93.5 -328.5q0 -223 94.5 -348t251.5 -125z" />
    <glyph glyph-name="Ocircumflex" unicode="&#xd4;" 
d="M946 1595l-309 271l-309 -269l-76 72l391 346h6l391 -332zM618 -35q-234 0 -363.5 186.5t-129.5 526.5q0 366 144 566t393 200q234 0 363 -185.5t130 -527.5q1 -364 -143.5 -565t-393.5 -201zM635 1317q-174 0 -266.5 -155.5t-92.5 -450.5q0 -303 93.5 -461t273.5 -158
q174 0 266 156t92 452q0 301 -94 459t-272 158z" />
    <glyph glyph-name="ocircumflex" unicode="&#xf4;" 
d="M940 1282l-309 270l-309 -268l-76 72l391 346h6l391 -332zM618 -31q-207 0 -337.5 152.5t-130.5 413.5q0 130 41 243t110 190t162 121t196 44q209 0 340 -152t131 -412q0 -133 -41 -246t-110.5 -190t-163 -120.5t-197.5 -43.5zM643 90q154 0 248 119t94 332
q0 221 -95.5 345t-252.5 124q-153 0 -246.5 -118.5t-93.5 -328.5q0 -223 94.5 -348t251.5 -125z" />
    <glyph glyph-name="Odieresis" unicode="&#xd6;" 
d="M971 1612h-148v301h152zM473 1612h-145l-2 301h153zM618 -35q-234 0 -363.5 186.5t-129.5 526.5q0 366 144 566t393 200q234 0 363 -185.5t130 -527.5q1 -364 -143.5 -565t-393.5 -201zM635 1317q-174 0 -266.5 -155.5t-92.5 -450.5q0 -303 93.5 -461t273.5 -158
q174 0 266 156t92 452q0 301 -94 459t-272 158z" />
    <glyph glyph-name="odieresis" unicode="&#xf6;" 
d="M965 1298h-148v301h152zM467 1298h-145l-3 301h154zM618 -31q-207 0 -337.5 152.5t-130.5 413.5q0 130 41 243t110 190t162 121t196 44q209 0 340 -152t131 -412q0 -133 -41 -246t-110.5 -190t-163 -120.5t-197.5 -43.5zM643 90q154 0 248 119t94 332q0 221 -95.5 345
t-252.5 124q-153 0 -246.5 -118.5t-93.5 -328.5q0 -223 94.5 -348t251.5 -125z" />
    <glyph glyph-name="Ograve" unicode="&#xd2;" 
d="M858 1636l-47 -63q-118 69 -262 169t-236 181l117 123q84 -95 210 -217t218 -193zM618 -35q-234 0 -363.5 186.5t-129.5 526.5q0 366 144 566t393 200q234 0 363 -185.5t130 -527.5q1 -364 -143.5 -565t-393.5 -201zM635 1317q-174 0 -266.5 -155.5t-92.5 -450.5
q0 -303 93.5 -461t273.5 -158q174 0 266 156t92 452q0 301 -94 459t-272 158z" />
    <glyph glyph-name="ograve" unicode="&#xf2;" 
d="M854 1323l-47 -63q-118 69 -262 169t-236 181l117 123q84 -95 210 -217t218 -193zM618 -31q-207 0 -337.5 152.5t-130.5 413.5q0 130 41 243t110 190t162 121t196 44q209 0 340 -152t131 -412q0 -133 -41 -246t-110.5 -190t-163 -120.5t-197.5 -43.5zM643 90
q154 0 248 119t94 332q0 221 -95.5 345t-252.5 124q-153 0 -246.5 -118.5t-93.5 -328.5q0 -223 94.5 -348t251.5 -125z" />
    <glyph glyph-name="Ohungarumlaut" unicode="&#x150;" 
d="M324 1638q61 87 129 214.5t114 234.5l154 -72q-57 -95 -149 -215t-177 -209zM793 1636q65 92 132.5 217.5t108.5 225.5l158 -66q-57 -94 -149.5 -214t-178.5 -210zM618 -35q-234 0 -363.5 186.5t-129.5 526.5q0 366 144 566t393 200q234 0 363 -185.5t130 -527.5
q1 -364 -143.5 -565t-393.5 -201zM635 1317q-174 0 -266.5 -155.5t-92.5 -450.5q0 -303 93.5 -461t273.5 -158q174 0 266 156t92 452q0 301 -94 459t-272 158z" />
    <glyph glyph-name="ohungarumlaut" unicode="&#x151;" 
d="M317 1325q62 88 130 215.5t114 233.5l154 -72q-57 -95 -149 -215t-177 -209zM786 1323q65 93 133.5 218t108.5 224l158 -65q-57 -94 -149.5 -214t-178.5 -210zM618 -31q-207 0 -337.5 152.5t-130.5 413.5q0 130 41 243t110 190t162 121t196 44q209 0 340 -152t131 -412
q0 -133 -41 -246t-110.5 -190t-163 -120.5t-197.5 -43.5zM643 90q154 0 248 119t94 332q0 221 -95.5 345t-252.5 124q-153 0 -246.5 -118.5t-93.5 -328.5q0 -223 94.5 -348t251.5 -125z" />
    <glyph glyph-name="Omacron" unicode="&#x14c;" 
d="M1018 1833v-127h-744v127h744zM618 -35q-234 0 -363.5 186.5t-129.5 526.5q0 366 144 566t393 200q234 0 363 -185.5t130 -527.5q1 -364 -143.5 -565t-393.5 -201zM635 1317q-174 0 -266.5 -155.5t-92.5 -450.5q0 -303 93.5 -461t273.5 -158q174 0 266 156t92 452
q0 301 -94 459t-272 158z" />
    <glyph glyph-name="omacron" unicode="&#x14d;" 
d="M1012 1520v-127h-744v127h744zM618 -31q-207 0 -337.5 152.5t-130.5 413.5q0 130 41 243t110 190t162 121t196 44q209 0 340 -152t131 -412q0 -133 -41 -246t-110.5 -190t-163 -120.5t-197.5 -43.5zM643 90q154 0 248 119t94 332q0 221 -95.5 345t-252.5 124
q-153 0 -246.5 -118.5t-93.5 -328.5q0 -223 94.5 -348t251.5 -125z" />
    <glyph glyph-name="Oslash" unicode="&#xd8;" 
d="M274 711q0 -268 76 -426l520 929q-88 105 -235 105q-174 0 -267.5 -156.5t-93.5 -451.5zM643 92q174 0 267.5 156t93.5 452q0 266 -76 424l-518 -929q89 -103 233 -103zM618 -35q-159 0 -278 92l-70 -129l-98 52l90 161q-137 188 -137 537q0 366 144 566t393 200
q164 0 278 -94l74 133l96 -53l-92 -162q134 -184 137 -537q1 -364 -143.5 -565t-393.5 -201z" />
    <glyph glyph-name="oslash" unicode="&#xf8;" 
d="M295 563q0 -194 78 -321l477 692q-87 78 -213 78q-154 0 -248 -119t-94 -330zM643 90q154 0 249 119.5t95 331.5q0 190 -74 313l-477 -688q88 -76 207 -76zM618 -31q-144 0 -260 80l-84 -121l-90 60l97 135q-131 153 -131 412q0 130 41 243t110 190t162 121t196 44
q149 0 267 -82l84 120l90 -61l-96 -135q126 -151 126 -406q0 -133 -41 -246t-110.5 -190t-163 -120.5t-197.5 -43.5z" />
    <glyph glyph-name="Oslashacute" unicode="&#x1fe;" 
d="M420 1655q98 71 222 190t200 215l125 -116q-91 -85 -236.5 -187.5t-265.5 -169.5zM274 711q0 -268 76 -426l520 929q-88 105 -235 105q-174 0 -267.5 -156.5t-93.5 -451.5zM643 92q174 0 267.5 156t93.5 452q0 266 -76 424l-518 -929q89 -103 233 -103zM618 -35
q-159 0 -278 92l-70 -129l-98 52l90 161q-137 188 -137 537q0 366 144 566t393 200q164 0 278 -94l74 133l96 -53l-92 -162q134 -184 137 -537q1 -364 -143.5 -565t-393.5 -201z" />
    <glyph glyph-name="oslashacute" unicode="&#x1ff;" 
d="M420 1341q97 71 221.5 190.5t200.5 215.5l125 -117q-90 -85 -235.5 -186.5t-266.5 -169.5zM295 563q0 -194 78 -321l477 692q-87 78 -213 78q-154 0 -248 -119t-94 -330zM643 90q154 0 249 119.5t95 331.5q0 190 -74 313l-477 -688q88 -76 207 -76zM618 -31
q-144 0 -260 80l-84 -121l-90 60l97 135q-131 153 -131 412q0 130 41 243t110 190t162 121t196 44q149 0 267 -82l84 120l90 -61l-96 -135q126 -151 126 -406q0 -133 -41 -246t-110.5 -190t-163 -120.5t-197.5 -43.5z" />
    <glyph glyph-name="Otilde" unicode="&#xd5;" 
d="M821 1608q-40 0 -80 25.5t-72 62t-62 72.5t-61.5 61.5t-58.5 25.5q-87 0 -188 -227l-86 37q61 150 135 231.5t154 81.5q41 0 81 -25.5t72 -62t62 -72.5t61 -61.5t58 -25.5q47 0 92 58t94 169l88 -37q-61 -150 -135 -231.5t-154 -81.5zM618 -35q-234 0 -363.5 186.5
t-129.5 526.5q0 366 144 566t393 200q234 0 363 -185.5t130 -527.5q1 -364 -143.5 -565t-393.5 -201zM635 1317q-174 0 -266.5 -155.5t-92.5 -450.5q0 -303 93.5 -461t273.5 -158q174 0 266 156t92 452q0 301 -94 459t-272 158z" />
    <glyph glyph-name="otilde" unicode="&#xf5;" 
d="M815 1294q-49 0 -99 39t-85 85t-76 85t-74 39q-87 0 -188 -227l-86 37q61 150 135 231.5t154 81.5q41 0 81 -25.5t71.5 -62t61.5 -73t61 -62t58 -25.5q87 0 187 228l88 -37q-61 -150 -135 -232t-154 -82zM618 -31q-207 0 -337.5 152.5t-130.5 413.5q0 130 41 243t110 190
t162 121t196 44q209 0 340 -152t131 -412q0 -133 -41 -246t-110.5 -190t-163 -120.5t-197.5 -43.5zM643 90q154 0 248 119t94 332q0 221 -95.5 345t-252.5 124q-153 0 -246.5 -118.5t-93.5 -328.5q0 -223 94.5 -348t251.5 -125z" />
    <glyph glyph-name="Racute" unicode="&#x154;" 
d="M399 1659q98 71 222 190t200 215l125 -116q-91 -85 -236.5 -187.5t-265.5 -169.5zM1016 -23l-303 564l-326 -9v-532h-149v1405q186 32 326.5 27t238 -32.5t158.5 -83.5t88.5 -125.5t27.5 -158.5q0 -249 -243 -420l340 -608zM387 1290v-645l342 6q201 137 201 350
q0 82 -31 144t-97 103.5t-168.5 51.5t-246.5 -10z" />
    <glyph glyph-name="racute" unicode="&#x155;" 
d="M471 1352q98 71 222 190t200 215l125 -117q-90 -85 -235.5 -186.5t-266.5 -169.5zM997 0h-829v113h307q-2 99 -6.5 417t-7.5 453l-289 16l10 105h410q0 -2 5 -78t7 -106q191 182 524 223l7 -154q-333 -28 -527 -166q1 -89 10 -710h394z" />
    <glyph glyph-name="Rcaron" unicode="&#x158;" 
d="M635 1587h-6l-389 330l92 88l309 -270l311 270l76 -74zM1016 -23l-303 564l-326 -9v-532h-149v1405q186 32 326.5 27t238 -32.5t158.5 -83.5t88.5 -125.5t27.5 -158.5q0 -249 -243 -420l340 -608zM387 1290v-645l342 6q201 137 201 350q0 82 -31 144t-97 103.5
t-168.5 51.5t-246.5 -10z" />
    <glyph glyph-name="rcaron" unicode="&#x159;" 
d="M707 1280h-7l-389 330l92 88l310 -271l311 271l76 -74zM997 0h-829v113h307q-2 99 -6.5 417t-7.5 453l-289 16l10 105h410q0 -2 5 -78t7 -106q191 182 524 223l7 -154q-333 -28 -527 -166q1 -89 10 -710h394z" />
    <glyph glyph-name="Rcommaaccent" unicode="&#x156;" 
d="M1016 -23l-303 564l-326 -9v-532h-149v1405q186 32 326.5 27t238 -32.5t158.5 -83.5t88.5 -125.5t27.5 -158.5q0 -249 -243 -420l340 -608zM387 1290v-645l342 6q201 137 201 350q0 82 -31 144t-97 103.5t-168.5 51.5t-246.5 -10zM582 -621q40 79 51.5 158t1 142.5
t-38.5 134.5q6 0 92.5 4t93.5 4q21 -112 -10 -234t-119 -231z" />
    <glyph glyph-name="rcommaaccent" unicode="&#x157;" 
d="M997 0h-829v113h307q-2 99 -6.5 417t-7.5 453l-289 16l10 105h410q0 -2 5 -78t7 -106q191 182 524 223l7 -154q-333 -28 -527 -166q1 -89 10 -710h394zM485 -598q40 80 52 158t1.5 141.5t-38.5 134.5q6 0 92.5 4t93.5 4q21 -112 -10 -234t-119 -231z" />
    <glyph glyph-name="Sacute" unicode="&#x15a;" 
d="M465 1647q98 71 222 190t200 215l125 -117q-90 -85 -235.5 -186.5t-266.5 -169.5zM215 129q201 -15 340.5 -4t225.5 47.5t124.5 83.5t38.5 104q0 55 -40 107t-104 94t-142 84t-155.5 86t-141.5 91t-104 107.5t-40 127.5q0 61 26.5 116t87 105t150 84.5t225 50.5t302.5 6
l10 -139q-649 42 -649 -199q0 -52 40 -102t104 -91.5t141.5 -83t155.5 -86.5t142 -93t104 -110.5t40 -131.5q0 -65 -30 -125.5t-98 -115.5t-168 -93t-251.5 -55.5t-335.5 -5.5z" />
    <glyph glyph-name="sacute" unicode="&#x15b;" 
d="M426 1337q97 71 221.5 190.5t200.5 215.5l125 -117q-90 -85 -235.5 -186.5t-266.5 -169.5zM1001 1110l7 -133q-180 14 -295.5 10t-182 -29.5t-92.5 -55t-26 -68.5q0 -41 35 -78t91.5 -66.5t124 -59.5t135.5 -63t124.5 -69.5t91.5 -86.5t35 -108q0 -54 -24 -101.5
t-83.5 -91.5t-148.5 -73.5t-229 -41.5t-316 -1l6 131q190 -13 314.5 -7.5t198 33.5t103 61.5t29.5 76.5q0 44 -35 82.5t-91 68t-123.5 58.5t-135.5 60.5t-124 66t-91 82.5t-35 104q0 52 23 98.5t76 90.5t138 71.5t209.5 40.5t290.5 -2z" />
    <glyph glyph-name="Scaron" unicode="&#x160;" 
d="M700 1575h-6l-389 330l92 88l310 -271l311 271l76 -74zM215 129q201 -15 340.5 -4t225.5 47.5t124.5 83.5t38.5 104q0 55 -40 107t-104 94t-142 84t-155.5 86t-141.5 91t-104 107.5t-40 127.5q0 61 26.5 116t87 105t150 84.5t225 50.5t302.5 6l10 -139q-649 42 -649 -199
q0 -52 40 -102t104 -91.5t141.5 -83t155.5 -86.5t142 -93t104 -110.5t40 -131.5q0 -65 -30 -125.5t-98 -115.5t-168 -93t-251.5 -55.5t-335.5 -5.5z" />
    <glyph glyph-name="scaron" unicode="&#x161;" 
d="M662 1266h-7l-389 329l92 88l310 -270l311 270l76 -73zM1001 1110l7 -133q-180 14 -295.5 10t-182 -29.5t-92.5 -55t-26 -68.5q0 -41 35 -78t91.5 -66.5t124 -59.5t135.5 -63t124.5 -69.5t91.5 -86.5t35 -108q0 -54 -24 -101.5t-83.5 -91.5t-148.5 -73.5t-229 -41.5
t-316 -1l6 131q190 -13 314.5 -7.5t198 33.5t103 61.5t29.5 76.5q0 44 -35 82.5t-91 68t-123.5 58.5t-135.5 60.5t-124 66t-91 82.5t-35 104q0 52 23 98.5t76 90.5t138 71.5t209.5 40.5t290.5 -2z" />
    <glyph glyph-name="Scedilla" unicode="&#x15e;" 
d="M428 -502l-12 119q147 23 211.5 51t64.5 68q0 87 -221 221l16 31q-123 -9 -274 0l2 141q201 -15 340.5 -4t225.5 47.5t124.5 83.5t38.5 104q0 55 -40 107t-104 94t-142 84t-155.5 86t-141.5 91t-104 107.5t-40 127.5q0 61 26.5 116t87 105t150 84.5t225 50.5t302.5 6
l10 -139q-649 42 -649 -199q0 -52 40 -102t104 -91.5t141.5 -83t155.5 -86.5t142 -93t104 -110.5t40 -131.5q0 -63 -29.5 -122t-89 -112.5t-160 -93t-231.5 -57.5q235 -145 235 -274q0 -83 -99 -141t-294 -85z" />
    <glyph glyph-name="scedilla" unicode="&#x15f;" 
d="M446 -500l-12 119q147 23 212 51t65 68q0 86 -222 221l17 33q-123 -6 -258 2l6 131q190 -13 314.5 -7.5t198 33.5t103 61.5t29.5 76.5q0 44 -35 82.5t-91 68t-123.5 58.5t-135.5 60.5t-124 66t-91 82.5t-35 104q0 52 23 98.5t76 90.5t138 71.5t209.5 40.5t290.5 -2
l7 -133q-180 14 -295.5 10t-182 -29.5t-92.5 -55t-26 -68.5q0 -41 35 -78t91.5 -66.5t124 -59.5t135.5 -63t124.5 -69.5t91.5 -86.5t35 -108q0 -51 -24 -97.5t-74 -89t-139 -73.5t-208 -45q236 -143 236 -272q0 -83 -99.5 -141t-294.5 -85z" />
    <glyph glyph-name="Scommaaccent" unicode="&#x218;" 
d="M215 129q201 -15 340.5 -4t225.5 47.5t124.5 83.5t38.5 104q0 55 -40 107t-104 94t-142 84t-155.5 86t-141.5 91t-104 107.5t-40 127.5q0 61 26.5 116t87 105t150 84.5t225 50.5t302.5 6l10 -139q-649 42 -649 -199q0 -52 40 -102t104 -91.5t141.5 -83t155.5 -86.5
t142 -93t104 -110.5t40 -131.5q0 -65 -30 -125.5t-98 -115.5t-168 -93t-251.5 -55.5t-335.5 -5.5zM524 -625q40 80 52 158.5t1.5 142t-38.5 134.5q6 0 92.5 4t93.5 4q21 -112 -10 -234t-119 -231z" />
    <glyph glyph-name="scommaaccent" unicode="&#x219;" 
d="M1001 1110l7 -133q-180 14 -295.5 10t-182 -29.5t-92.5 -55t-26 -68.5q0 -41 35 -78t91.5 -66.5t124 -59.5t135.5 -63t124.5 -69.5t91.5 -86.5t35 -108q0 -54 -24 -101.5t-83.5 -91.5t-148.5 -73.5t-229 -41.5t-316 -1l6 131q190 -13 314.5 -7.5t198 33.5t103 61.5
t29.5 76.5q0 44 -35 82.5t-91 68t-123.5 58.5t-135.5 60.5t-124 66t-91 82.5t-35 104q0 52 23 98.5t76 90.5t138 71.5t209.5 40.5t290.5 -2zM508 -623q40 79 51.5 158t1 142.5t-38.5 134.5q6 0 93 4t94 4q21 -112 -10 -234t-119 -231z" />
    <glyph glyph-name="Tcaron" unicode="&#x164;" 
d="M651 1567h-6l-389 329l92 89l309 -271l312 271l75 -74zM717 1280v-1280h-152v1280h-456l12 129h1046v-129h-450z" />
    <glyph glyph-name="tcaron" unicode="&#x165;" 
d="M821 1343q48 99 62 196.5t4.5 172t-37.5 168.5l172 4q56 -287 -135 -565zM1057 -20q-234 -1 -370 36t-195.5 116t-59.5 214v643h-231l16 115h215v311l146 12v-323h469v-115h-469v-620q0 -77 22 -125t80.5 -79.5t150 -44.5t240.5 -16z" />
    <glyph glyph-name="Tcommaaccent" unicode="&#x162;" 
d="M717 1280v-1280h-152v1280h-456l12 129h1046v-129h-450zM520 -598q40 80 52 158t1.5 141.5t-38.5 134.5q6 0 92.5 4t93.5 4q21 -112 -10 -234t-119 -231z" />
    <glyph glyph-name="Tcommaaccent" unicode="&#x21a;" 
d="M717 1280v-1280h-152v1280h-456l12 129h1046v-129h-450zM520 -598q40 80 52 158t1.5 141.5t-38.5 134.5q6 0 92.5 4t93.5 4q21 -112 -10 -234t-119 -231z" />
    <glyph glyph-name="tcommaaccent" unicode="&#x163;" 
d="M1057 -20q-234 -1 -370 36t-195.5 116t-59.5 214v643h-231l16 115h215v311l146 12v-323h469v-115h-469v-620q0 -77 22 -125t80.5 -79.5t150 -44.5t240.5 -16zM604 -618q40 79 51.5 157.5t1 142t-38.5 134.5q6 0 93 4t94 4q21 -112 -10 -234t-119 -231z" />
    <glyph glyph-name="tcommaaccent" unicode="&#x21b;" 
d="M1057 -20q-234 -1 -370 36t-195.5 116t-59.5 214v643h-231l16 115h215v311l146 12v-323h469v-115h-469v-620q0 -77 22 -125t80.5 -79.5t150 -44.5t240.5 -16zM604 -618q40 79 51.5 157.5t1 142t-38.5 134.5q6 0 93 4t94 4q21 -112 -10 -234t-119 -231z" />
    <glyph glyph-name="Uacute" unicode="&#xda;" 
d="M420 1638q97 71 221.5 190.5t200.5 215.5l125 -117q-90 -85 -235.5 -186.5t-266.5 -169.5zM629 -35q-203 0 -316.5 125t-113.5 356v963h149v-946q0 -183 78 -275t219 -92q146 0 215.5 80.5t69.5 253.5v979h149v-958q0 -232 -118.5 -359t-331.5 -127z" />
    <glyph glyph-name="uacute" unicode="&#xfa;" 
d="M424 1339q97 71 221.5 190.5t200.5 215.5l125 -117q-90 -85 -235.5 -186.5t-266.5 -169.5zM932 -4l-10 127q-186 -150 -377 -150q-156 0 -244 93.5t-88 289.5v742l147 10v-707q0 -162 60.5 -232.5t179.5 -70.5q155 0 315 113q-10 328 -10 893h146q0 -740 14 -1098z" />
    <glyph glyph-name="Ubreve" unicode="&#x16c;" 
d="M633 1589q-113 0 -213.5 80.5t-194.5 245.5l105 61q88 -146 158.5 -206t156.5 -60q88 0 163 62t165 196l90 -47q-204 -332 -430 -332zM629 -35q-203 0 -316.5 125t-113.5 356v963h149v-946q0 -183 78 -275t219 -92q146 0 215.5 80.5t69.5 253.5v979h149v-958
q0 -232 -118.5 -359t-331.5 -127z" />
    <glyph glyph-name="ubreve" unicode="&#x16d;" 
d="M639 1290q-113 0 -213.5 80.5t-194.5 245.5l105 61q88 -146 158.5 -206t156.5 -60q88 0 163 62t165 196l90 -47q-204 -332 -430 -332zM932 -4l-10 127q-186 -150 -377 -150q-156 0 -244 93.5t-88 289.5v742l147 10v-707q0 -162 60.5 -232.5t179.5 -70.5q155 0 315 113
q-10 328 -10 893h146q0 -740 14 -1098z" />
    <glyph glyph-name="Ucircumflex" unicode="&#xdb;" 
d="M940 1579l-309 270l-309 -268l-76 72l391 346h6l391 -332zM629 -35q-203 0 -316.5 125t-113.5 356v963h149v-946q0 -183 78 -275t219 -92q146 0 215.5 80.5t69.5 253.5v979h149v-958q0 -232 -118.5 -359t-331.5 -127z" />
    <glyph glyph-name="ucircumflex" unicode="&#xfb;" 
d="M946 1280l-309 270l-309 -268l-76 72l391 346h6l391 -332zM932 -4l-10 127q-186 -150 -377 -150q-156 0 -244 93.5t-88 289.5v742l147 10v-707q0 -162 60.5 -232.5t179.5 -70.5q155 0 315 113q-10 328 -10 893h146q0 -740 14 -1098z" />
    <glyph glyph-name="Udieresis" unicode="&#xdc;" 
d="M965 1595h-148v301h152zM467 1595h-145l-3 301h154zM629 -35q-203 0 -316.5 125t-113.5 356v963h149v-946q0 -183 78 -275t219 -92q146 0 215.5 80.5t69.5 253.5v979h149v-958q0 -232 -118.5 -359t-331.5 -127z" />
    <glyph glyph-name="udieresis" unicode="&#xfc;" 
d="M969 1296h-148v301h152zM471 1296h-145l-2 301h153zM932 -4l-10 127q-186 -150 -377 -150q-156 0 -244 93.5t-88 289.5v742l147 10v-707q0 -162 60.5 -232.5t179.5 -70.5q155 0 315 113q-10 328 -10 893h146q0 -740 14 -1098z" />
    <glyph glyph-name="Ugrave" unicode="&#xd9;" 
d="M852 1620l-47 -64q-117 68 -261.5 169t-236.5 182l117 123q84 -95 210 -217t218 -193zM629 -35q-203 0 -316.5 125t-113.5 356v963h149v-946q0 -183 78 -275t219 -92q146 0 215.5 80.5t69.5 253.5v979h149v-958q0 -232 -118.5 -359t-331.5 -127z" />
    <glyph glyph-name="ugrave" unicode="&#xf9;" 
d="M858 1321l-47 -64q-117 68 -261.5 169t-236.5 182l117 123q84 -95 210 -217t218 -193zM932 -4l-10 127q-186 -150 -377 -150q-156 0 -244 93.5t-88 289.5v742l147 10v-707q0 -162 60.5 -232.5t179.5 -70.5q155 0 315 113q-10 328 -10 893h146q0 -740 14 -1098z" />
    <glyph glyph-name="Uhungarumlaut" unicode="&#x170;" 
d="M317 1622q62 88 130 215.5t114 233.5l154 -72q-57 -95 -149 -215t-177 -209zM786 1620q65 93 133.5 218t108.5 224l158 -65q-57 -94 -149.5 -214t-178.5 -210zM629 -35q-203 0 -316.5 125t-113.5 356v963h149v-946q0 -183 78 -275t219 -92q146 0 215.5 80.5t69.5 253.5
v979h149v-958q0 -232 -118.5 -359t-331.5 -127z" />
    <glyph glyph-name="uhungarumlaut" unicode="&#x171;" 
d="M324 1323q61 87 129 214.5t114 234.5l154 -72q-57 -95 -149 -215t-177 -209zM793 1321q65 92 133 217t108 225l158 -65q-57 -94 -149.5 -214t-178.5 -210zM932 -4l-10 127q-186 -150 -377 -150q-156 0 -244 93.5t-88 289.5v742l147 10v-707q0 -162 60.5 -232.5
t179.5 -70.5q155 0 315 113q-10 328 -10 893h146q0 -740 14 -1098z" />
    <glyph glyph-name="Umacron" unicode="&#x16a;" 
d="M1012 1817v-127h-744v127h744zM629 -35q-203 0 -316.5 125t-113.5 356v963h149v-946q0 -183 78 -275t219 -92q146 0 215.5 80.5t69.5 253.5v979h149v-958q0 -232 -118.5 -359t-331.5 -127z" />
    <glyph glyph-name="umacron" unicode="&#x16b;" 
d="M1016 1518v-127h-744v127h744zM932 -4l-10 127q-186 -150 -377 -150q-156 0 -244 93.5t-88 289.5v742l147 10v-707q0 -162 60.5 -232.5t179.5 -70.5q155 0 315 113q-10 328 -10 893h146q0 -740 14 -1098z" />
    <glyph glyph-name="Uogonek" unicode="&#x172;" 
d="M840 -479q-211 20 -303.5 69.5t-92.5 130.5q0 59 43 117t144 125q-209 6 -320.5 131t-111.5 352v963h149v-946q0 -183 78 -275t219 -92q146 0 215.5 80.5t69.5 253.5v979h149v-958q0 -160 -53 -260t-178 -177q-149 -94 -208.5 -152t-59.5 -104q0 -45 64 -73t210 -43z" />
    <glyph glyph-name="uogonek" unicode="&#x173;" 
d="M1016 -473q-211 20 -304.5 70t-93.5 131q0 69 72 138t240 157l-10 157q-184 -207 -383 -207q-153 0 -238.5 93t-85.5 290v742l147 10v-707q0 -161 58 -232t172 -71q87 0 165 45.5t158 130.5q-8 372 -8 830h146q0 -740 14 -1098q-311 -149 -311 -246q0 -42 64 -69.5
t212 -44.5z" />
    <glyph glyph-name="Uring" unicode="&#x16e;" 
d="M637 2021q129 0 213 -67.5t84 -165.5q0 -107 -81.5 -175.5t-215.5 -68.5q-129 0 -213 68t-84 166q0 107 81.5 175t215.5 68zM637 1925q-85 0 -134.5 -39t-49.5 -102q0 -64 50 -104t134 -40q85 0 134.5 40t49.5 104q0 62 -50 101.5t-134 39.5zM629 -35q-203 0 -316.5 125
t-113.5 356v963h149v-946q0 -183 78 -275t219 -92q146 0 215.5 80.5t69.5 253.5v979h149v-958q0 -232 -118.5 -359t-331.5 -127z" />
    <glyph glyph-name="uring" unicode="&#x16f;" 
d="M643 1722q129 0 213 -67.5t84 -165.5q0 -107 -81.5 -175.5t-215.5 -68.5q-129 0 -213 68t-84 166q0 107 81.5 175t215.5 68zM643 1626q-85 0 -134.5 -39t-49.5 -102q0 -64 50 -104t134 -40q85 0 134.5 40t49.5 104q0 62 -50 101.5t-134 39.5zM932 -4l-10 127
q-186 -150 -377 -150q-156 0 -244 93.5t-88 289.5v742l147 10v-707q0 -162 60.5 -232.5t179.5 -70.5q155 0 315 113q-10 328 -10 893h146q0 -740 14 -1098z" />
    <glyph glyph-name="Wacute" unicode="&#x1e82;" 
d="M428 1638q97 71 221.5 190.5t200.5 215.5l125 -117q-90 -85 -235.5 -186.5t-266.5 -169.5zM856 0l-217 784l-211 -784h-170q-65 465 -113 1409h150q10 -261 36 -674.5t40 -550.5h8q28 100 215 811h98q141 -528 221 -811h7q14 126 38 532.5t35 692.5h142
q-20 -424 -52 -805.5t-61 -603.5h-166z" />
    <glyph glyph-name="wacute" unicode="&#x1e83;" 
d="M420 1333q97 71 221.5 190.5t200.5 215.5l125 -117q-90 -85 -235.5 -186.5t-266.5 -169.5zM870 0l-231 655l-229 -655h-136q-72 461 -114 1104h145q26 -464 66 -911h10q8 27 108.5 315.5t106.5 310.5h96q10 -30 107 -306.5t114 -322.5h7q27 321 63 914h139
q-44 -620 -112 -1104h-140z" />
    <glyph glyph-name="Wcircumflex" unicode="&#x174;" 
d="M948 1579l-309 270l-309 -268l-76 72l391 346h6l391 -332zM856 0l-217 784l-211 -784h-170q-65 465 -113 1409h150q10 -261 36 -674.5t40 -550.5h8q28 100 215 811h98q141 -528 221 -811h7q14 126 38 532.5t35 692.5h142q-20 -424 -52 -805.5t-61 -603.5h-166z" />
    <glyph glyph-name="wcircumflex" unicode="&#x175;" 
d="M942 1274l-309 270l-309 -268l-76 72l391 346h6l391 -332zM870 0l-231 655l-229 -655h-136q-72 461 -114 1104h145q26 -464 66 -911h10q8 27 108.5 315.5t106.5 310.5h96q10 -30 107 -306.5t114 -322.5h7q27 321 63 914h139q-44 -620 -112 -1104h-140z" />
    <glyph glyph-name="Wdieresis" unicode="&#x1e84;" 
d="M973 1595h-148v301h152zM475 1595h-145l-2 301h153zM856 0l-217 784l-211 -784h-170q-65 465 -113 1409h150q10 -261 36 -674.5t40 -550.5h8q28 100 215 811h98q141 -528 221 -811h7q14 126 38 532.5t35 692.5h142q-20 -424 -52 -805.5t-61 -603.5h-166z" />
    <glyph glyph-name="wdieresis" unicode="&#x1e85;" 
d="M965 1290h-148v301h152zM467 1290h-145l-3 301h154zM870 0l-231 655l-229 -655h-136q-72 461 -114 1104h145q26 -464 66 -911h10q8 27 108.5 315.5t106.5 310.5h96q10 -30 107 -306.5t114 -322.5h7q27 321 63 914h139q-44 -620 -112 -1104h-140z" />
    <glyph glyph-name="Wgrave" unicode="&#x1e80;" 
d="M862 1620l-47 -64q-117 68 -261.5 169t-236.5 182l117 123q84 -95 210 -217t218 -193zM856 0l-217 784l-211 -784h-170q-65 465 -113 1409h150q10 -261 36 -674.5t40 -550.5h8q28 100 215 811h98q141 -528 221 -811h7q14 126 38 532.5t35 692.5h142q-20 -424 -52 -805.5
t-61 -603.5h-166z" />
    <glyph glyph-name="wgrave" unicode="&#x1e81;" 
d="M854 1315l-47 -64q-117 68 -261.5 169t-236.5 182l117 122q83 -95 209.5 -216.5t218.5 -192.5zM870 0l-231 655l-229 -655h-136q-72 461 -114 1104h145q26 -464 66 -911h10q8 27 108.5 315.5t106.5 310.5h96q10 -30 107 -306.5t114 -322.5h7q27 321 63 914h139
q-44 -620 -112 -1104h-140z" />
    <glyph glyph-name="Yacute" unicode="&#xdd;" 
d="M426 1642q97 71 221.5 190.5t200.5 215.5l125 -117q-90 -85 -235.5 -186.5t-266.5 -169.5zM717 0h-152v467l-459 940l160 6l379 -799l375 795h156l-459 -938v-471z" />
    <glyph glyph-name="yacute" unicode="&#xfd;" 
d="M434 1337q97 71 221.5 190.5t200.5 215.5l125 -117q-90 -85 -235.5 -186.5t-266.5 -169.5zM174 -403l-14 135q114 18 179.5 36.5t115.5 52.5t78.5 77.5t62.5 121.5h-4q-194 414 -469 1080l149 8q157 -401 392 -922h14q61 146 194 519.5t142 398.5h139
q-172 -493 -379 -998q-37 -94 -68.5 -159t-70.5 -121t-80 -91t-98 -63.5t-124 -45t-159 -29.5z" />
    <glyph glyph-name="Ycircumflex" unicode="&#x176;" 
d="M946 1583l-309 270l-309 -268l-76 72l391 346h6l391 -332zM717 0h-152v467l-459 940l160 6l379 -799l375 795h156l-459 -938v-471z" />
    <glyph glyph-name="ycircumflex" unicode="&#x177;" 
d="M956 1278l-309 270l-309 -268l-76 72l391 346h6l392 -332zM174 -403l-14 135q114 18 179.5 36.5t115.5 52.5t78.5 77.5t62.5 121.5h-4q-194 414 -469 1080l149 8q157 -401 392 -922h14q61 146 194 519.5t142 398.5h139q-172 -493 -379 -998q-37 -94 -68.5 -159
t-70.5 -121t-80 -91t-98 -63.5t-124 -45t-159 -29.5z" />
    <glyph glyph-name="Ydieresis" unicode="&#x178;" 
d="M971 1599h-148v302h152zM473 1599h-145l-2 302h153zM717 0h-152v467l-459 940l160 6l379 -799l375 795h156l-459 -938v-471z" />
    <glyph glyph-name="ydieresis" unicode="&#xff;" 
d="M981 1294h-147v301h151zM483 1294h-145l-2 301h153zM174 -403l-14 135q114 18 179.5 36.5t115.5 52.5t78.5 77.5t62.5 121.5h-4q-194 414 -469 1080l149 8q157 -401 392 -922h14q61 146 194 519.5t142 398.5h139q-172 -493 -379 -998q-37 -94 -68.5 -159t-70.5 -121
t-80 -91t-98 -63.5t-124 -45t-159 -29.5z" />
    <glyph glyph-name="Ygrave" unicode="&#x1ef2;" 
d="M860 1624l-47 -63q-118 69 -262 169t-236 181l117 123q84 -95 210 -217t218 -193zM717 0h-152v467l-459 940l160 6l379 -799l375 795h156l-459 -938v-471z" />
    <glyph glyph-name="ygrave" unicode="&#x1ef3;" 
d="M868 1319l-47 -64q-116 68 -260 169t-237 182l116 123q84 -95 210 -217t218 -193zM174 -403l-14 135q114 18 179.5 36.5t115.5 52.5t78.5 77.5t62.5 121.5h-4q-194 414 -469 1080l149 8q157 -401 392 -922h14q61 146 194 519.5t142 398.5h139q-172 -493 -379 -998
q-37 -94 -68.5 -159t-70.5 -121t-80 -91t-98 -63.5t-124 -45t-159 -29.5z" />
    <glyph glyph-name="Zacute" unicode="&#x179;" 
d="M446 1638q97 71 221.5 190.5t200.5 215.5l125 -117q-91 -85 -236 -187t-265 -169zM1104 0h-932v129l774 1151l-764 -4l15 133h907v-129l-770 -1149l780 2z" />
    <glyph glyph-name="zacute" unicode="&#x17a;" 
d="M449 1333q97 71 221 190t200 216l125 -117q-91 -85 -236 -187t-265 -169zM1102 0h-914v125l740 852l-731 -2l12 129h885v-125l-742 -852l760 2z" />
    <glyph glyph-name="Zcaron" unicode="&#x17d;" 
d="M680 1567h-6l-389 329l92 89l309 -271l311 271l76 -74zM1104 0h-932v129l774 1151l-764 -4l15 133h907v-129l-770 -1149l780 2z" />
    <glyph glyph-name="zcaron" unicode="&#x17e;" 
d="M684 1262h-6l-389 329l92 88l309 -270l311 270l76 -73zM1102 0h-914v125l740 852l-731 -2l12 129h885v-125l-742 -852l760 2z" />
    <glyph glyph-name="Zdotaccent" unicode="&#x17b;" 
d="M737 1595h-147l6 301h154zM1104 0h-932v129l774 1151l-764 -4l15 133h907v-129l-770 -1149l780 2z" />
    <glyph glyph-name="zdotaccent" unicode="&#x17c;" 
d="M739 1290h-147l6 301h154zM1102 0h-914v125l740 852l-731 -2l12 129h885v-125l-742 -852l760 2z" />
    <glyph glyph-name="AE" unicode="&#xc6;" 
d="M602 1280q-9 -28 -102.5 -306.5t-141.5 -424.5h256v731h-12zM614 0v434h-292q-82 -246 -142 -434h-147q211 642 479 1409h647v-129h-407v-508h350v-115h-350v-528h415l-12 -129h-541z" />
    <glyph glyph-name="ae" unicode="&#xe6;" 
d="M1135 -14q-199 4 -318.5 49t-179.5 133q-51 -79 -128 -130.5t-171 -51.5q-105 0 -171.5 72t-66.5 200q0 165 117.5 255.5t341.5 96.5q-2 74 -10 126t-27.5 93.5t-48 67.5t-76.5 44.5t-106.5 28t-143.5 15.5l15 127q207 -12 313 -57.5t150 -151.5q40 102 109.5 157.5
t162.5 55.5q149 0 220 -156t52 -434l-479 -12q1 -109 20 -179t70 -121t139.5 -74.5t227.5 -26.5zM872 993q-173 0 -182 -383l344 6q5 189 -34.5 283t-127.5 94zM387 109q122 0 209 143q-37 99 -37 258q-161 -3 -239 -54t-78 -163q0 -93 39.5 -138.5t105.5 -45.5z" />
    <glyph glyph-name="AEacute" unicode="&#x1fc;" 
d="M518 1638q97 71 221.5 190.5t200.5 215.5l125 -117q-90 -85 -235.5 -186.5t-266.5 -169.5zM602 1280q-9 -28 -102.5 -306.5t-141.5 -424.5h256v731h-12zM614 0v434h-292q-82 -246 -142 -434h-147q211 642 479 1409h647v-129h-407v-508h350v-115h-350v-528h415l-12 -129
h-541z" />
    <glyph glyph-name="aeacute" unicode="&#x1fd;" 
d="M418 1333q97 71 221.5 190.5t200.5 215.5l125 -117q-90 -85 -235.5 -186.5t-266.5 -169.5zM1135 -14q-199 4 -318.5 49t-179.5 133q-51 -79 -128 -130.5t-171 -51.5q-105 0 -171.5 72t-66.5 200q0 165 117.5 255.5t341.5 96.5q-2 74 -10 126t-27.5 93.5t-48 67.5
t-76.5 44.5t-106.5 28t-143.5 15.5l15 127q207 -12 313 -57.5t150 -151.5q40 102 109.5 157.5t162.5 55.5q149 0 220 -156t52 -434l-479 -12q1 -109 20 -179t70 -121t139.5 -74.5t227.5 -26.5zM872 993q-173 0 -182 -383l344 6q5 189 -34.5 283t-127.5 94zM387 109
q122 0 209 143q-37 99 -37 258q-161 -3 -239 -54t-78 -163q0 -93 39.5 -138.5t105.5 -45.5z" />
    <glyph glyph-name="OE" unicode="&#x152;" 
d="M256 705q0 -299 90.5 -435t290.5 -139v1147q-195 -3 -288 -141.5t-93 -431.5zM1165 129l-10 -129h-471q-297 0 -437.5 165.5t-140.5 512.5q0 355 145 543t437 188h469v-129h-383v-508h326v-115h-326v-528h391z" />
    <glyph glyph-name="oe" unicode="&#x153;" 
d="M1141 -14q-195 4 -307.5 63t-163.5 172q-40 -114 -109 -174.5t-160 -60.5q-144 0 -224.5 136t-80.5 404q0 281 90.5 435.5t243.5 154.5q167 0 240 -203q82 203 252 203q288 0 252 -586l-445 -10q2 -111 22 -183t69 -123.5t130 -75.5t207 -29zM893 997q-71 0 -114.5 -96
t-49.5 -287l315 11q3 190 -30 281t-121 91zM434 106q82 0 126 110.5t44 324.5q0 217 -50.5 335.5t-135.5 118.5q-83 0 -129.5 -106t-46.5 -326q0 -235 47.5 -346t144.5 -111z" />
    <glyph glyph-name="Eth" unicode="&#xd0;" 
d="M1145 733q0 -420 -238 -613t-688 -122v664h-168v108h168v641q199 31 352 18.5t261.5 -59.5t178 -137t102 -212.5t32.5 -287.5zM369 121q312 -49 468 102.5t156 483.5q0 344 -147.5 485t-476.5 100v-522h323l-6 -108h-317v-541z" />
    <glyph glyph-name="eth" unicode="&#xf0;" 
d="M616 -27q-199 0 -332.5 142.5t-133.5 380.5q0 86 20.5 162t57.5 135t88 107t112 78t130 49.5t141.5 19.5t146.5 -11q-79 125 -207 244l-299 -162l-41 88l262 142q-105 82 -233 159l88 97q151 -92 268 -191l268 143l37 -90l-227 -123q360 -338 360 -784q0 -141 -41 -254
t-111 -184.5t-160.5 -109.5t-193.5 -38zM637 94q158 0 252 119.5t94 335.5q0 179 -59 332q-204 70 -344 37.5t-213.5 -139.5t-73.5 -267q0 -188 95.5 -303t248.5 -115z" />
    <glyph glyph-name="Thorn" unicode="&#xde;" 
d="M403 0h-149v1409h149v-231q359 33 553.5 -82.5t194.5 -352.5q0 -120 -53 -211.5t-152.5 -151t-234.5 -93t-308 -43.5v-244zM1001 717q0 190 -154 278t-444 49v-663q294 -14 446 65.5t152 270.5z" />
    <glyph glyph-name="thorn" unicode="&#xfe;" 
d="M594 100q169 0 281 123.5t112 339.5q0 208 -92 325.5t-236 117.5q-141 0 -278 -101v-768q100 -37 213 -37zM381 -373l-145 -14v1974l145 12v-598q157 127 330 127q183 0 301 -145.5t118 -384.5q0 -142 -48 -261.5t-129 -198t-186 -122t-220 -43.5q-72 0 -166 17v-363z
" />
    <glyph glyph-name="schwa" unicode="&#x259;" 
d="M592 -27q-220 0 -330.5 164.5t-79.5 431.5l779 21q-7 145 -75.5 229.5t-227 129t-437.5 52.5l19 127q202 -3 350.5 -28.5t247 -70.5t158.5 -114.5t85 -153.5t25 -196q0 -123 -40.5 -233t-109.5 -188.5t-164 -124.5t-200 -46zM618 96q150 0 242 105t101 293l-644 -19
q-2 -174 75 -276.5t226 -102.5z" />
    <glyph glyph-name="germandbls" unicode="&#xdf;" 
d="M754 805q0 -45 43.5 -90.5t105 -86.5t123 -86.5t105 -108t43.5 -132.5q0 -53 -18 -100.5t-60.5 -90.5t-106 -73t-161 -43.5t-218.5 -5.5l6 135q208 -26 311 24.5t103 141.5q0 36 -23 70.5t-60 63.5t-81.5 59t-89 62.5t-81.5 67.5t-60 80.5t-23 95.5q0 48 25.5 97.5
t61.5 93.5t72 88.5t61.5 97.5t25.5 105q0 85 -55.5 144t-159.5 59q-137 0 -207.5 -99.5t-70.5 -288.5v-1085h-144v1053q0 244 120 395t333 151q83 0 148 -26t104.5 -69.5t59.5 -96t20 -109.5q0 -70 -26 -134.5t-63 -111.5t-74 -88t-63 -82t-26 -77z" />
    <glyph glyph-name="zero" unicode="0" 
d="M625 -27q-227 0 -351 188.5t-124 524.5q0 341 137 545.5t368 204.5q228 0 351.5 -187.5t123.5 -523.5q0 -341 -137 -546.5t-368 -205.5zM291 711q0 -47 4 -129l674 350q-30 184 -112.5 282.5t-213.5 98.5q-170 0 -261 -157.5t-91 -444.5zM639 96q171 0 259.5 157
t88.5 445q0 41 -4 119l-672 -350q33 -178 116.5 -274.5t211.5 -96.5z" />
    <glyph glyph-name="zero.alt" 
d="M625 -27q-227 0 -351 188.5t-124 524.5q0 341 137 545.5t368 204.5q228 0 351.5 -187.5t123.5 -523.5q0 -341 -137 -546.5t-368 -205.5zM643 1313q-170 0 -261 -157.5t-91 -444.5q0 -289 90 -452t258 -163q171 0 259.5 157t88.5 445q0 290 -88 452.5t-256 162.5z" />
    <glyph glyph-name="one" unicode="1" 
d="M1106 0h-873v125h394v1032l-369 -20l-2 104l371 47v160l141 12v-1335h350z" />
    <glyph glyph-name="two" unicode="2" 
d="M1104 0h-899l-12 121q111 92 188 158t158 140t133.5 130t102 117t77 112.5t43.5 105t16 105.5q0 57 -19 101.5t-66 82.5t-123 63t-193.5 39t-273.5 15l12 137q184 2 325 -18t231 -55t147.5 -88t80.5 -112t23 -132q0 -86 -31 -171t-83 -163.5t-144 -173t-189 -180
t-243 -205.5h739v-129z" />
    <glyph glyph-name="three" unicode="3" 
d="M236 -25l-11 136q196 11 337 35t225.5 61t123.5 83t39 105q0 237 -610 307v72l567 506h-667v129h813l10 -127l-555 -496q579 -88 579 -376q0 -89 -48.5 -162.5t-148.5 -131.5t-265.5 -94t-388.5 -47z" />
    <glyph glyph-name="four" unicode="4" 
d="M1155 305h-164v-305h-137v305h-641q-5 197 37 502t119 620l157 -12q-184 -781 -198 -981h526v508l137 16v-524h178z" />
    <glyph glyph-name="five" unicode="5" 
d="M1077 463q0 -196 -209 -325t-632 -163l-9 136q258 25 417.5 73t227.5 114.5t68 160.5q0 243 -682 289l45 661h731l-12 -129h-594l-31 -428q680 -64 680 -389z" />
    <glyph glyph-name="six" unicode="6" 
d="M641 -23q-208 0 -333.5 142t-125.5 401q0 606 684 940l62 -129q-275 -120 -416 -277t-176 -360q77 72 167 112.5t174 47.5t162.5 -16.5t137.5 -73.5t94 -130.5t35 -180.5q0 -142 -65 -252t-170 -167t-230 -57zM653 100q134 0 224 91.5t90 242.5q0 82 -27.5 146.5
t-73.5 102.5t-109.5 53t-133.5 4.5t-147.5 -48.5t-149.5 -102q-2 -18 -2 -53q0 -213 90.5 -325t238.5 -112z" />
    <glyph glyph-name="seven" unicode="7" 
d="M520 -10l-149 16q217 640 598 1262l-4 8h-758l10 133h897v-123q-372 -636 -594 -1296z" />
    <glyph glyph-name="eight" unicode="8" 
d="M614 -27q-189 0 -308.5 91t-119.5 241q0 126 86.5 230t241.5 180q-68 40 -116 74.5t-94 80t-69.5 98.5t-23.5 113q0 66 30 129t85 113.5t141.5 81.5t189.5 31q178 0 295 -89t117 -233q0 -126 -81 -218t-238 -167q62 -34 104.5 -60t91.5 -64t78.5 -74.5t49.5 -84.5
t20 -100q0 -160 -133 -266.5t-347 -106.5zM354 1102q0 -42 18 -81.5t43.5 -69.5t70.5 -63.5t82.5 -56.5t95.5 -55q266 128 266 309q0 103 -76.5 167.5t-210.5 64.5q-138 0 -213.5 -62.5t-75.5 -152.5zM637 92q142 0 227.5 65t85.5 167q0 31 -11 61.5t-26 54.5t-46 51.5
t-53.5 45.5t-67.5 45t-69.5 41.5t-76.5 42.5q-130 -62 -200 -145.5t-70 -180.5q0 -111 81 -179.5t226 -68.5z" />
    <glyph glyph-name="nine" unicode="9" 
d="M414 -49l-64 127q277 123 420 281t178 360q-78 -73 -167.5 -115t-174 -49.5t-163 16t-137 74t-93.5 131.5t-35 182q0 141 65 250.5t170 166.5t230 57q206 0 331.5 -141.5t125.5 -401.5q0 -606 -686 -938zM313 977q0 -99 38.5 -171.5t104.5 -105.5t147.5 -34t175 40
t179.5 119q3 24 3 47q0 213 -91.5 325t-242.5 112q-132 0 -223 -91.5t-91 -240.5z" />
    <glyph glyph-name="period" unicode="." 
d="M748 0h-230l10 231h230z" />
    <glyph glyph-name="comma" unicode="," 
d="M459 -412q119 135 131 293t-78 350l217 13q55 -197 5 -368t-199 -314z" />
    <glyph glyph-name="colon" unicode=":" 
d="M762 760h-227l2 233h229zM743 0h-229l8 231h230z" />
    <glyph glyph-name="colon.alt" 
d="M762 969h-227l2 233h229zM756 207h-228l2 233h228z" />
    <glyph glyph-name="semicolon" unicode=";" 
d="M766 760h-229l4 233h227zM473 -412q119 135 131.5 292.5t-76.5 348.5l217 15q112 -388 -196 -682z" />
    <glyph glyph-name="ellipsis" unicode="&#x2026;" 
d="M1151 0h-203l10 238h203zM735 0h-205l11 238h204zM319 0h-204l10 238h205z" />
    <glyph glyph-name="periodcentered" unicode="&#xb7;" 
d="M754 582h-230l6 233h230z" />
    <glyph glyph-name="ampersand" unicode="&#x26;" 
d="M1178 66l-115 -97q-90 113 -223 269q-90 -133 -196.5 -199t-217.5 -66q-148 0 -232.5 90t-84.5 226q0 252 305 444q-74 97 -108 169.5t-34 144.5q0 60 19 114.5t65 106.5t116.5 89t181 58.5t249.5 18.5l12 -138q-115 5 -204 -5.5t-144 -31.5t-90.5 -54t-49 -68.5
t-13.5 -77.5q0 -85 93 -212q61 -84 279 -331q36 -41 56 -63q97 209 151 465l129 -15q-78 -321 -202 -538q103 -117 258 -299zM455 96q80 0 160 57t151 169q-60 70 -157.5 181t-135.5 156q-110 -76 -165.5 -164t-55.5 -176q0 -100 52.5 -161.5t150.5 -61.5z" />
    <glyph glyph-name="exclam" unicode="!" 
d="M696 516h-94q0 144 -15.5 536t-17.5 484h187q-5 -103 -31 -490.5t-29 -529.5zM743 0h-219l4 225h222z" />
    <glyph glyph-name="exclamdown" unicode="&#xa1;" 
d="M535 1409h221l-4 -223h-220zM584 893h94q0 -145 15.5 -536.5t17.5 -483.5h-187q5 114 30.5 497.5t29.5 522.5z" />
    <glyph glyph-name="question" unicode="?" 
d="M211 1405l14 135q199 -11 352 -35.5t252 -57.5t162 -77t89 -90.5t26 -101.5q0 -50 -26 -99t-68.5 -91t-94 -84.5t-104.5 -86.5t-97.5 -90t-76 -102.5t-37.5 -116.5l-100 4q4 65 31 126.5t67 109.5t87.5 92.5t94.5 83.5t85.5 75t62.5 74t24 74q0 48 -34 86t-114.5 73
t-230 60.5t-364.5 38.5zM641 0h-213l4 223h213z" />
    <glyph glyph-name="questiondown" unicode="&#xbf;" 
d="M641 1409h211l-8 -223h-211zM1069 4l-16 -135q-199 11 -352 35.5t-251.5 57.5t-161.5 77t-88.5 90.5t-25.5 101.5q0 50 26 99t68.5 91t94 84.5t104.5 86.5t98 90t76.5 102.5t38.5 116.5l100 -4q-4 -65 -31.5 -126.5t-67.5 -109.5t-88 -92.5t-95 -83.5t-85.5 -75
t-62.5 -74t-24 -74q0 -31 14.5 -58t47 -53.5t89 -48.5t137 -41t196 -33.5t259.5 -23.5z" />
    <glyph glyph-name="quotedblleft" unicode="&#x201c;" 
d="M1036 1540q-111 -136 -121 -295t76 -348l-209 -18q-110 395 183 688zM567 1540q-111 -137 -123.5 -295.5t70.5 -347.5l-207 -18q-106 398 187 688z" />
    <glyph glyph-name="quotedblright" unicode="&#x201d;" 
d="M270 852q113 136 123 295t-76 348l209 18q109 -394 -182 -688zM741 852q112 136 124.5 295t-68.5 348l204 18q106 -399 -186 -688z" />
    <glyph glyph-name="quoteleft" unicode="&#x2018;" 
d="M809 1540q-116 -137 -129.5 -294.5t72.5 -348.5l-209 -18q-115 388 188 688z" />
    <glyph glyph-name="quoteright" unicode="&#x2019;" 
d="M504 852q115 137 127.5 294.5t-72.5 348.5l209 18q57 -200 8.5 -372t-196.5 -316z" />
    <glyph glyph-name="quotedblbase" unicode="&#x201e;" 
d="M264 -414q114 137 124 296t-77 349l213 13q53 -193 5.5 -366.5t-193.5 -315.5zM735 -412q115 136 126.5 295.5t-73.5 347.5l213 13q50 -193 1.5 -366.5t-195.5 -315.5z" />
    <glyph glyph-name="quotesinglbase" unicode="&#x201a;" 
d="M494 -412q119 136 130.5 294.5t-77.5 348.5l217 13q55 -195 5 -366.5t-200 -315.5z" />
    <glyph glyph-name="guillemotleft" unicode="&#xab;" 
d="M518 -35l-391 514l8 150l389 508l107 -93l-393 -487l391 -508zM1053 -35l-391 514l8 150l389 508l106 -93l-393 -489l391 -506z" />
    <glyph glyph-name="guillemotleft.cap" 
d="M518 117l-391 514l8 149l389 508l107 -92l-393 -487l391 -508zM1053 117l-391 514l8 149l389 508l106 -92l-393 -489l391 -506z" />
    <glyph glyph-name="guillemotright" unicode="&#xbb;" 
d="M758 -35l-109 90l393 490l-391 506l113 86l391 -516l-8 -148zM223 -35l-108 90l393 490l-391 506l112 86l392 -516l-9 -148z" />
    <glyph glyph-name="guillemotright.cap" 
d="M758 117l-109 90l393 489l-391 506l113 86l391 -516l-8 -147zM223 117l-108 90l393 489l-391 506l112 86l392 -516l-9 -147z" />
    <glyph glyph-name="guilsinglleft" unicode="&#x2039;" 
d="M872 -35l-565 514l10 150l568 510l96 -103l-555 -481l545 -489z" />
    <glyph glyph-name="guilsinglleft.cap" 
d="M872 117l-565 514l10 149l568 510l96 -102l-555 -481l545 -490z" />
    <glyph glyph-name="guilsinglright" unicode="&#x203a;" 
d="M397 -35l-96 103l555 483l-545 487l99 101l563 -514l-8 -150z" />
    <glyph glyph-name="guilsinglright.cap" 
d="M397 117l-96 102l555 483l-545 488l99 100l563 -514l-8 -149z" />
    <glyph glyph-name="hyphen" unicode="-" 
d="M1001 723l-8 -125h-706v125h714z" />
    <glyph glyph-name="endash" unicode="&#x2013;" 
d="M1102 715l-12 -111h-902v111h914z" />
    <glyph glyph-name="emdash" unicode="&#x2014;" 
d="M1147 715l-10 -111h-996v111h1006z" />
    <glyph glyph-name="underscore" unicode="_" 
d="M1186 -115v-116h-1094v116h1094z" />
    <glyph glyph-name="slash" unicode="/" 
d="M1112 1632l123 -57l-1057 -1991l-129 47z" />
    <glyph glyph-name="backslash" unicode="\" 
d="M166 1630l1067 -1997l-133 -39l-1059 1981z" />
    <glyph glyph-name="bar" unicode="|" 
d="M575 1593l136 13v-2018h-136v2005z" />
    <glyph glyph-name="parenleft" unicode="(" 
d="M975 1642l100 -96q-347 -265 -499 -498t-152 -464q0 -227 151.5 -459t491.5 -496l-100 -96q-361 292 -524.5 546t-163.5 501q0 252 166 510.5t530 551.5z" />
    <glyph glyph-name="parenleft.cap" 
d="M975 1751l100 -96q-347 -265 -499 -498.5t-152 -464.5q0 -227 151.5 -458.5t491.5 -495.5l-100 -96q-361 292 -524.5 545.5t-163.5 500.5q0 252 166 511t530 552z" />
    <glyph glyph-name="parenright" unicode=")" 
d="M303 -465l-98 96q346 266 498.5 499t152.5 462q0 227 -151.5 458.5t-491.5 495.5l100 99q360 -292 524 -546.5t164 -500.5q0 -252 -166.5 -511t-531.5 -552z" />
    <glyph glyph-name="parenright.cap" 
d="M303 -358l-98 96q346 266 498.5 498.5t152.5 461.5q0 227 -151.5 459t-491.5 496l100 98q360 -293 524 -546.5t164 -499.5q0 -252 -166.5 -511t-531.5 -552z" />
    <glyph glyph-name="bracketleft" unicode="[" 
d="M338 -406v1981h731v-121h-592v-1739h600l-14 -121h-725z" />
    <glyph glyph-name="bracketleft.cap" 
d="M338 -295v1981h731v-121h-592v-1739h600l-14 -121h-725z" />
    <glyph glyph-name="bracketright" unicode="]" 
d="M215 -283h592v1737h-592v123h729v-1980h-731z" />
    <glyph glyph-name="bracketright.cap" 
d="M215 -174h592v1737h-592v123h729v-1981h-731z" />
    <glyph glyph-name="braceleft" unicode="{" 
d="M1059 -471q-386 125 -536 218t-150 216q0 49 22 97t53.5 85.5t62.5 72t53 69.5t22 65q0 71 -93 120.5t-280 59.5l4 109q143 11 230 34.5t119 52.5t32 67q0 29 -24 63t-58 67.5t-67.5 70t-57.5 82.5t-24 93q0 80 66 154.5t224.5 155.5t411.5 161l45 -124
q-320 -92 -464 -170t-144 -160q0 -41 35 -91t76.5 -90t76.5 -91t35 -93q0 -69 -65.5 -130t-202.5 -97q134 -32 198 -92t64 -131q0 -39 -21 -80t-50.5 -76t-59.5 -69.5t-51 -74t-21 -77.5q0 -93 136 -170.5t454 -173.5z" />
    <glyph glyph-name="braceleft.cap" 
d="M1059 -360q-386 125 -536 218t-150 216q0 49 22 97t53.5 85.5t62.5 72t53 69.5t22 65q0 71 -93 120.5t-280 59.5l4 109q210 16 295.5 55t85.5 98q0 29 -24 63t-58 68t-67.5 70.5t-57.5 82.5t-24 93q0 80 66 154.5t224.5 155.5t411.5 161l45 -125q-320 -92 -464 -170
t-144 -160q0 -41 35 -91t76.5 -89.5t76.5 -90.5t35 -93q0 -69 -65.5 -130t-202.5 -97q134 -32 198 -92.5t64 -131.5q0 -39 -21 -80t-50.5 -76t-59.5 -69.5t-51 -74t-21 -77.5q0 -93 136 -170.5t454 -173.5z" />
    <glyph glyph-name="braceright" unicode="}" 
d="M217 -469l-49 127q317 90 462.5 169t145.5 159q0 34 -23 72.5t-55 73.5t-64.5 70t-55.5 74t-23 74q0 69 65.5 130.5t202.5 97.5q-134 32 -199 92.5t-65 130.5q0 39 21 80t51 76t60.5 69.5t51.5 74t21 77.5q0 94 -135 170.5t-455 173.5l49 123q386 -125 536 -218.5
t150 -216.5q0 -59 -33.5 -119t-73 -100t-73 -87t-33.5 -83q0 -71 93.5 -120.5t281.5 -59.5l-6 -106q-381 -30 -381 -156q0 -29 24 -63t58 -67.5t67.5 -70t57.5 -83t24 -93.5q0 -79 -65.5 -153.5t-223.5 -156t-409 -161.5z" />
    <glyph glyph-name="braceright.cap" 
d="M217 -360l-49 127q318 90 463 168.5t145 158.5q0 34 -23 73t-55 74t-64.5 70t-55.5 74t-23 74q0 69 65.5 130t202.5 97q-134 32 -199 92.5t-65 130.5q0 39 21 80t51 76t60.5 69.5t51.5 74t21 77.5q0 94 -135 170.5t-455 173.5l49 123q387 -125 536.5 -218t149.5 -216
q0 -59 -33.5 -119t-73 -100t-73 -87t-33.5 -83q0 -71 93.5 -120.5t281.5 -59.5l-6 -107q-381 -30 -381 -156q0 -29 24 -62.5t58 -67.5t67.5 -70t57.5 -82.5t24 -93.5q0 -79 -65.5 -153.5t-223.5 -156t-409 -161.5z" />
    <glyph glyph-name="at" unicode="@" 
d="M1030 -344q-128 -14 -234 -11t-192.5 31.5t-154 70.5t-118.5 106t-87 138t-58.5 166.5t-32.5 191t-10 212.5q0 222 45 407.5t124 312.5t189 197t238 70q373 0 373 -530q0 -410 12 -852l-123 -14q-1 9 -4 44t-4 54q-52 -58 -103 -87.5t-116 -29.5q-117 0 -190.5 116.5
t-73.5 313.5q0 264 127 402.5t342 121.5q-18 340 -254 340q-202 0 -328.5 -222t-126.5 -627q0 -84 5 -157t15.5 -143.5t28 -128t43 -111.5t59.5 -94.5t78 -75.5t98 -55.5t119.5 -35t143.5 -13t170 10.5v-119zM817 252q82 0 164 82v620q-64 12 -114 11t-87 -21t-63 -51
t-42 -78t-23 -102t-7 -123q0 -165 44 -251.5t128 -86.5z" />
    <glyph glyph-name="copyright" unicode="&#xa9;" 
d="M1161 715q0 -323 -145.5 -511t-368.5 -188q-114 0 -210.5 46.5t-167 132t-110.5 214.5t-40 287q0 153 42.5 284.5t115.5 221.5t172 140.5t210 50.5q221 0 361.5 -183t140.5 -495zM211 702q0 -277 124.5 -438.5t317.5 -161.5q183 0 298.5 162t115.5 443q0 274 -114.5 437
t-297.5 163q-192 0 -318 -167t-126 -438zM811 420l-12 -105q-84 -6 -149.5 10t-108.5 49t-71 83.5t-40 110.5t-12 134q0 82 20 149.5t63 123.5t118 91t176 42l10 -111q-70 -2 -120 -17t-80 -38.5t-47 -61t-22.5 -76.5t-5.5 -93q0 -78 13 -131t44 -92t86.5 -55.5t137.5 -12.5
z" />
    <glyph glyph-name="published" unicode="&#x2117;" 
d="M1163 715q0 -160 -44 -293.5t-119.5 -221t-174 -136t-207.5 -48.5q-226 0 -364.5 180t-138.5 492q0 313 147 509t371 196q110 0 206.5 -45.5t168.5 -130t113.5 -214t41.5 -288.5zM209 694q0 -271 115.5 -431.5t298.5 -160.5q90 0 171 41.5t143 117t98 191t36 255.5
q0 139 -35.5 254t-96 189.5t-140 115.5t-168.5 41q-187 0 -304.5 -169t-117.5 -444zM582 317h-105v750q391 58 391 -246q0 -133 -76 -202t-210 -82v-220zM766 811q0 191 -184 170q1 -35 1 -89.5t-0.5 -134t-0.5 -124.5q184 -19 184 178z" />
    <glyph glyph-name="registered.alt" 
d="M1163 715q0 -160 -44 -293.5t-119.5 -221t-174 -136t-207.5 -48.5q-226 0 -364.5 180t-138.5 492t147.5 508.5t370.5 196.5q110 0 206.5 -45.5t168.5 -130t113.5 -214t41.5 -288.5zM209 694q0 -271 115.5 -431.5t298.5 -160.5q90 0 171 41.5t143 117t98 191t36 255.5
q0 139 -35.5 254t-96 189.5t-140 115.5t-168.5 41q-186 0 -304 -169t-118 -444zM762 309l-96 287l-103 -6v-271h-102v754q198 35 290.5 -22.5t92.5 -180.5q0 -128 -99 -227l129 -319zM563 987v-307l115 2q61 67 61 168q0 79 -46.5 116.5t-129.5 20.5z" />
    <glyph glyph-name="registered" unicode="&#xae;" 
d="M1174 1006q0 -243 -153.5 -397t-383.5 -154q-241 0 -386 139.5t-145 380.5q0 245 149.5 396.5t389.5 154.5q231 5 380 -138t149 -382zM1087 997q0 214 -121 332.5t-321 118.5q-199 0 -324.5 -127.5t-125.5 -337.5q0 -212 121.5 -331.5t318.5 -119.5q198 0 325 124.5
t127 340.5zM793 731l-113 184l-123 -2v-178h-92v512q191 27 293 -14t102 -129q0 -85 -110 -154l137 -202zM557 1180v-199l143 4q70 46 70 105q0 50 -55.5 73.5t-157.5 16.5z" />
    <glyph glyph-name="servicemark" unicode="&#x2120;" 
d="M840 786l-135 494h-7l2 -612h-96v741h137l133 -481h7l125 481h137v-741h-101l2 612h-6l-129 -494h-69zM104 758q145 -4 211 26.5t66 79.5q0 28 -20.5 56t-51.5 51.5t-67.5 51.5t-67.5 55t-51.5 63.5t-20.5 75.5t19 74.5t57.5 66t106.5 47.5t155 14l4 -96q-241 5 -241 -94
q0 -28 20.5 -56.5t51.5 -52t67 -52t67 -56t51.5 -65t20.5 -77.5q0 -87 -94.5 -147.5t-282.5 -60.5v96z" />
    <glyph glyph-name="trademark" unicode="&#x2122;" 
d="M334 1317v-645h-98v645h-173l9 92h424v-92h-162zM840 786l-135 494h-7l2 -612h-96v741h137l133 -481h7l125 481h137v-741h-101l2 612h-6l-129 -494h-69z" />
    <glyph glyph-name="asterisk" unicode="*" 
d="M850 666l-215 278l-260 -235l-72 59l201 289l-314 178l41 86l336 -104l74 352l96 -8l8 -357l355 37l24 -88l-342 -117l148 -323z" />
    <glyph glyph-name="asterisk.alt" 
d="M702 1260l-71 12l6 307l143 -25zM532 1233l-45 -57l-262 159l92 113zM811 1126l-27 70l271 147l49 -137zM473 1071l25 -70l-269 -145l-51 135zM750 967l49 57l260 -162l-90 -112zM580 940l71 -12l-6 -307l-143 22z" />
    <glyph glyph-name="dagger" unicode="&#x2020;" 
d="M680 276l-88 -49l-23 17l2 846l-403 6l6 116l397 -6l2 373l144 -2l-4 -375l413 -6l-8 -117l-407 6z" />
    <glyph glyph-name="daggerdbl" unicode="&#x2021;" 
d="M682 162l-88 -49l-23 14v508l-417 6l6 115l411 -6l2 342l-405 6l6 114l399 -6v373l144 -2l-4 -375l413 -6l-8 -115l-407 6l-11 -339l412 -7l-6 -114l-410 6z" />
    <glyph glyph-name="bullet" unicode="&#x2022;" 
d="M915 680q0 -122 -78.5 -197t-197.5 -75t-198 76t-79 192q0 121 80 195.5t199 74.5q120 0 197 -74.5t77 -191.5z" />
    <glyph glyph-name="bullet.alt" 
d="M860 446h-446l4 457h446z" />
    <glyph glyph-name="asciicircum" unicode="^" 
d="M1026 369l-395 553l-379 -553l-105 77l467 666l35 8l490 -671z" />
    <glyph glyph-name="glyph313" unicode="~" 
d="M864 453q-51 0 -105.5 35.5t-99.5 86t-87.5 101t-85.5 86t-78 35.5q-54 0 -101.5 -83t-99.5 -239l-103 39q67 210 142.5 315t171.5 105q51 0 105 -35.5t98.5 -86t86.5 -101t84 -86t76 -35.5q55 0 102 81.5t101 239.5l103 -39q-69 -214 -141.5 -316.5t-168.5 -102.5z" />
    <glyph glyph-name="asciitilde" unicode="&#x223c;" 
d="M864 453q-51 0 -105.5 35.5t-99.5 86t-87.5 101t-85.5 86t-78 35.5q-54 0 -101.5 -83t-99.5 -239l-103 39q67 210 142.5 315t171.5 105q51 0 105 -35.5t98.5 -86t86.5 -101t84 -86t76 -35.5q55 0 102 81.5t101 239.5l103 -39q-69 -214 -141.5 -316.5t-168.5 -102.5z" />
    <glyph glyph-name="dollar" unicode="$" 
d="M387 1067q-1 -62 61 -120.5t181 -131.5l73 410q-162 -4 -237.5 -46.5t-77.5 -111.5zM926 367q1 64 -61 123.5t-181 132.5l-78 -441q160 9 240 59.5t80 125.5zM553 -197h-131l47 248q-123 3 -276 21l26 139q174 -28 287 -31l90 496q-69 41 -107 65.5t-93.5 66t-85 75
t-51.5 78t-21 88.5q1 57 28.5 107t82.5 91.5t149 68.5t217 34l43 256l133 -2l-49 -252q90 -3 227 -19l-14 -137q-145 21 -254 27l-84 -461q47 -29 77 -48t72 -48t68.5 -52t56.5 -53.5t46.5 -58t27.5 -60t10 -65.5q0 -122 -120.5 -211.5t-358.5 -108.5z" />
    <glyph glyph-name="sterling" unicode="&#xa3;" 
d="M1087 127v-127h-931v121l174 2l53 516h-211l10 117h213q13 125 32 213t53.5 166t83.5 128t123.5 89.5t172.5 61t232 32.5l10 -148q-119 -7 -197.5 -19t-141 -39.5t-98 -62t-62.5 -98.5t-40 -135.5t-26 -187.5h424l-9 -117h-428l-53 -516z" />
    <glyph glyph-name="Euro" unicode="&#x20ac;" 
d="M1116 78l-20 -125q-342 42 -524 167.5t-238 336.5h-172v114h149q-6 61 -6 127q0 60 6 119h-151v115h172q49 201 222.5 330t520.5 196l27 -141q-311 -49 -454.5 -139.5t-182.5 -253.5h522l-4 -107h-537q-4 -70 -4 -110q0 -73 9 -134h530l-6 -104h-502q32 -106 105 -181
t206 -128t332 -82z" />
    <glyph glyph-name="yen" unicode="&#xa5;" 
d="M1106 272h-395l2 -272h-148l2 272h-403l2 113h401l2 199l-22 39h-381v112h317l-370 672l157 6l375 -702l367 698h149l-368 -674h315v-112h-377l-22 -39l2 -199h397z" />
    <glyph glyph-name="cent" unicode="&#xa2;" 
d="M334 608q0 -121 69 -206t224 -134l88 680q-108 -16 -185 -48.5t-118.5 -79t-59.5 -98t-18 -114.5zM1018 84q-174 6 -297 29l-37 -308h-129l45 334q-403 111 -403 451q0 85 26.5 158.5t84 140t162.5 115t249 71.5l41 334h129l-43 -319q115 10 239 4l-18 -136
q-138 6 -246 0l-88 -716q145 -28 301 -33z" />
    <glyph glyph-name="colonmonetary" unicode="&#x20a1;" 
d="M776 219l88 981q-100 -16 -192 -43l-80 -883q63 -27 184 -55zM301 705q0 -135 49 -230.5t154 -157.5l71 805q-145 -65 -209.5 -169t-64.5 -248zM735 -168l25 260q-82 15 -180 47l-27 -307h-113l35 350q-305 147 -305 500q0 403 399 567l27 326h113l-25 -285q97 28 184 41
l21 244h110l-20 -229q76 9 164 12l8 -133q-93 -3 -195 -13l-88 -1009q123 -17 236 -25l-27 -125q-67 4 -211 21l-20 -242h-111z" />
    <glyph glyph-name="naira" unicode="&#x20a6;" 
d="M360 1184v-223h111l-98 223h-13zM362 545h293l-135 305h-160zM774 545h160v305h-295zM897 0l-192 434h-343v-434h-122v426h-166v121h166v299h-166v121h166v442h153l197 -448h344l-2 448h123v-442h162v-121h-162v-299h162v-121h-162v-426h-158zM924 205h12v229h-113z" />
    <glyph glyph-name="peso" unicode="&#x20b1;" 
d="M393 979h543q-18 179 -158 265.5t-385 49.5v-315zM393 565q500 -25 541 305h-541v-305zM1227 860h-160q-36 -198 -211.5 -305t-462.5 -125v-430h-139v860h-180v123h180v422q263 47 443.5 6.5t275.5 -150.5t102 -278h152v-123z" />
    <glyph glyph-name="R_p" 
d="M518 -8l-156 551l-118 -6v-537h-127v1405q107 27 187.5 20.5t136.5 -33.5t91 -81t50.5 -122t15.5 -157q0 -268 -127 -418l174 -602zM244 1300v-657l143 6q84 138 84 359q0 169 -53.5 242t-173.5 50zM934 94q81 0 114 108t33 353q0 232 -29 342.5t-94 110.5
q-56 0 -120 -74q8 -410 8 -819q38 -21 88 -21zM846 -373l-127 -14v385q0 781 -8 1098l114 8l6 -80q83 102 179 102q194 0 194 -516q0 -637 -297 -637q-16 0 -61 9v-355z" />
    <glyph glyph-name="rupee" unicode="&#x20a8;" 
d="M598 -8l-160 557l-119 -8v-541h-131v1405q110 27 192.5 20.5t139.5 -33.5t92.5 -81t51.5 -122t16 -157q0 -261 -131 -416l178 -604zM319 1296v-649l144 6q86 130 86 357q0 166 -54.5 237.5t-175.5 48.5zM1167 1116l4 -127q-266 34 -266 -149q0 -53 30 -106t72.5 -99
t84.5 -95t72 -114t30 -137q0 -62 -21.5 -117t-67 -101.5t-129 -69.5t-194.5 -13l-2 127q153 -17 218 30t65 134q0 57 -29.5 111.5t-71.5 101t-83.5 95t-71 112.5t-29.5 135q0 58 21.5 110t65.5 96.5t122 65.5t180 10z" />
    <glyph glyph-name="rupeeindia" unicode="&#x20b9;" 
d="M1094 47l-119 -78q-147 122 -226.5 184t-175.5 124.5t-179.5 98t-192.5 66.5l28 111q478 43 527 301h-547v111h547q-25 126 -160 211t-391 110l10 123h915l-8 -123h-526q132 -45 209.5 -129.5t91.5 -191.5h223v-111h-225q-25 -131 -152 -226t-337 -134
q139 -41 282 -137.5t406 -309.5z" />
    <glyph glyph-name="ruble" unicode="&#x20bd;" 
d="M1006 1030q0 155 -141 223t-402 39v-557q288 3 415.5 67.5t127.5 227.5zM961 287h-498v-287h-144v287h-204v114h204v220h-204v114h204v670q398 58 614 -36t216 -322q0 -209 -172.5 -309.5t-513.5 -112.5v-228h510z" />
    <glyph glyph-name="numbersign" unicode="#" 
d="M774 537l35 340h-305l-35 -340h305zM721 0l41 412h-305l-41 -412h-111l41 412h-231l12 125h231l35 340h-233l12 124h234l40 408h111l-41 -408h305l41 408h109l-41 -408h235l-12 -124h-235l-35 -340h237l-14 -125h-236l-41 -412h-108z" />
    <glyph glyph-name="numero" unicode="&#x2116;" 
d="M950 518q-101 0 -162 110.5t-61 321.5q0 219 72.5 343t183.5 124q102 0 162.5 -109.5t60.5 -320.5q0 -219 -72.5 -344t-183.5 -125zM514 0l-274 1092h-4l6 -1092h-123v1409h137l264 -1030h4l-6 1030l123 -2v-1409zM971 635q53 0 83.5 86.5t30.5 241.5q0 158 -35 249
t-89 91q-50 0 -80.5 -87t-30.5 -239q0 -161 33.5 -251.5t87.5 -90.5zM1188 283h-445v112h445v-112z" />
    <glyph glyph-name="paragraph" unicode="&#xb6;" 
d="M942 365v925q-125 3 -219 -14v-887q102 -21 219 -24zM270 825q0 -138 89.5 -244t252.5 -163l-2 831q-167 -53 -253.5 -165t-86.5 -259zM725 -246l-129 -16v547q-221 62 -344 197t-123 319q0 138 64.5 254t183 200.5t297.5 131t397 45.5v-1618l-129 -17v445
q-108 0 -217 16v-504z" />
    <glyph glyph-name="section" unicode="&#xa7;" 
d="M303 633q0 -37 25.5 -69.5t78 -61.5t100 -50t126.5 -52t123 -50q97 39 158 91.5t61 107.5q0 31 -20 59t-50 49.5t-79.5 45.5t-92 41l-105 42t-102.5 43q-100 -37 -161.5 -88.5t-61.5 -107.5zM1012 96q0 -52 -25.5 -101t-85 -96t-147.5 -80t-224 -51t-303 -12l9 129
q175 -6 303 8.5t195.5 45t98.5 65.5t31 76q0 40 -38 75.5t-99 64t-135 57.5t-148 61t-135 68t-99 86t-38 108q0 84 70 156.5t184 122.5q-160 92 -160 206q0 52 25 101t83 95.5t144 79.5t218 51t294 13l8 -129q-142 5 -253 -4.5t-179 -28.5t-112 -46.5t-61 -56t-17 -60.5
q0 -35 29.5 -67t78.5 -57t111 -51.5t127 -50.5t127 -55t111 -63.5t78.5 -77.5t29.5 -96q0 -83 -70.5 -156t-183.5 -123q158 -91 158 -207z" />
    <glyph glyph-name="ordfeminine" unicode="&#xaa;" 
d="M582 657q69 0 141 28t131 71q-6 165 -6 207q-451 45 -451 -166q0 -69 51 -104.5t134 -35.5zM868 575q-6 65 -10 103q-137 -119 -309 -119q-122 0 -198.5 57.5t-76.5 157.5q0 140 148 220.5t424 62.5q-5 58 -23.5 98t-53 68t-95.5 45t-139 26.5t-195 14.5l12 112
q184 -7 299.5 -30t189 -73.5t102 -126.5t28.5 -196q0 -113 10 -411zM268 381h738v-105h-738v105z" />
    <glyph glyph-name="ordmasculine" unicode="&#xba;" 
d="M244 981q0 195 119 319.5t290 124.5q169 0 276 -113t107 -306q0 -198 -119.5 -322.5t-293.5 -124.5q-168 0 -273.5 113t-105.5 309zM639 664q126 0 199 84t73 237q0 163 -73 250.5t-201 87.5q-124 0 -196 -85t-72 -237q0 -164 72 -250.5t198 -86.5zM1014 276h-746v105
h746v-105z" />
    <glyph glyph-name="degree" unicode="&#xb0;" 
d="M1026 1137q0 -121 -56.5 -216t-147.5 -144.5t-197 -49.5q-161 0 -266 107t-105 284q0 121 56 216t146.5 144.5t196.5 49.5q161 0 267 -107t106 -284zM903 1137q3 119 -70.5 198.5t-189.5 79.5q-115 0 -190 -80t-76 -209q-3 -124 70.5 -205t189.5 -81q114 0 189.5 81.5
t76.5 215.5z" />
    <glyph glyph-name="percent" unicode="%" 
d="M350 1442q94 0 150.5 -82t56.5 -225q0 -146 -63.5 -235t-159.5 -89q-95 0 -152 81t-57 222q0 148 63.5 238t161.5 90zM1010 1432l102 -56l-840 -1411l-104 60zM344 1325q-47 0 -73.5 -52.5t-26.5 -148.5q0 -95 25 -147.5t69 -52.5q47 0 73.5 53t26.5 151q0 95 -24.5 146
t-69.5 51zM930 -27q-95 0 -151 81t-56 222q0 148 63.5 238t161.5 90q93 0 149 -82t56 -223q0 -148 -63.5 -237t-159.5 -89zM936 86q47 0 73.5 54t26.5 151q0 95 -25 146.5t-71 51.5q-47 0 -73.5 -52.5t-26.5 -147.5q0 -97 25 -150t71 -53z" />
    <glyph glyph-name="quotedbl" unicode="&#x22;" 
d="M918 852h-95l-10 664h184l7 -80zM434 852h-96l-12 664h186l8 -80z" />
    <glyph glyph-name="quotesingle" unicode="'" 
d="M688 825h-100l-10 691h200l8 -82z" />
    <glyph glyph-name="plus" unicode="+" 
d="M1118 598h-413v-436h-132v436h-415v123h415v436h132v-436h415z" />
    <glyph glyph-name="minus" unicode="&#x2212;" 
d="M1079 721l-2 -123h-876v123h878z" />
    <glyph glyph-name="divide" unicode="&#xf7;" 
d="M725 973h-174l2 190h174zM1120 721l-2 -123h-960v123h962zM725 156h-174l2 190h174z" />
    <glyph glyph-name="equal" unicode="=" 
d="M1079 983l-2 -123h-876v123h878zM1079 477l-2 -125h-876v125h878z" />
    <glyph glyph-name="multiply" unicode="&#xd7;" 
d="M979 219l-342 348l-332 -338l-90 88l334 340l-342 349l92 92l340 -348l336 342l90 -93l-336 -340l342 -348z" />
    <glyph glyph-name="less" unicode="&#x3c;" 
d="M965 1356l84 -103l-695 -583v-21l707 -594l-86 -102l-756 643v127z" />
    <glyph glyph-name="greater" unicode="&#x3e;" 
d="M303 -47l-84 102l707 594v21l-693 581l86 105l744 -633v-127z" />
    <glyph glyph-name="plusminus" unicode="&#xb1;" 
d="M1096 158h-916v123h393v397h-397v127h397v416h132v-416h399l-2 -127h-397v-397h393z" />
    <glyph glyph-name="notequal" unicode="&#x2260;" 
d="M1077 352h-491l-121 -329l-113 36l109 293h-260v125h305l143 383h-448v123h493l121 328l111 -37l-107 -291h260l-2 -123h-303l-141 -383h446z" />
    <glyph glyph-name="lessequal" unicode="&#x2264;" 
d="M365 799v-19l677 -372l-51 -115l-778 428l4 123l760 487l61 -110zM1085 168v-125h-890v125h890z" />
    <glyph glyph-name="greaterequal" unicode="&#x2265;" 
d="M915 799l-675 422l63 110l760 -487l2 -123l-776 -428l-51 115l677 372v19zM195 168h890v-125h-890v125z" />
    <glyph glyph-name="approxequal" unicode="&#x2248;" 
d="M840 709q-49 0 -98 26.5t-88.5 64.5t-76 76t-74.5 64.5t-71 26.5q-51 0 -93.5 -63t-98.5 -191l-95 39q66 174 136.5 257t160.5 83q50 0 99 -27t87.5 -65t74.5 -76.5t72.5 -65.5t68.5 -27q49 0 91.5 62t94.5 184l94 -37q-65 -174 -130 -252.5t-154 -78.5zM840 233
q-49 0 -98 27t-88.5 65.5t-76 76.5t-74.5 65t-71 27q-35 0 -69.5 -36.5t-59.5 -85t-61 -132.5l-97 36q66 174 136.5 257t160.5 83q50 0 99 -27t87.5 -65t74.5 -76t72.5 -65t68.5 -27q27 0 51.5 17.5t48.5 55t42.5 76t45.5 99.5l92 -39q-66 -174 -130.5 -253t-153.5 -79z" />
    <glyph glyph-name="mu" unicode="&#xb5;" 
d="M358 -373l-145 -14v1485l147 10v-723q0 -150 60.5 -217.5t177.5 -67.5q155 0 317 109q-10 328 -10 895h146q0 -740 14 -1098l-133 -10l-10 125q-171 -148 -351 -148q-146 0 -223 86z" />
    <glyph glyph-name="Omega" unicode="&#x2126;" 
d="M524 10l-6 -10h-399v119h248q-185 416 -185 739q0 266 122.5 424t342.5 158q217 0 335 -156t118 -424q0 -322 -185 -741h246v-119h-399l-4 10q196 475 196 828q0 222 -81.5 344.5t-233.5 122.5t-234.5 -122t-82.5 -341q0 -344 202 -832z" />
    <glyph glyph-name="onehalf" unicode="&#xbd;" 
d="M993 967h-667v104h295v576l-279 -19l-4 90l283 37v139l118 11v-834h265zM156 641v102h966v-102h-966zM977 -477h-660l-12 98q142 99 226.5 163t158 131.5t104.5 122t31 107.5q0 60 -41 98.5t-151 63t-295 27.5l10 106q598 5 598 -264q0 -65 -30 -128t-95 -131
t-147.5 -134.5t-206.5 -153.5h510v-106z" />
    <glyph glyph-name="onethird" unicode="&#x2153;" 
d="M993 967h-667v104h295v576l-279 -19l-4 90l283 37v139l118 11v-834h265zM156 641v102h966v-102h-966zM342 -502l-10 113q522 16 522 162q0 136 -434 178l2 63l383 297v6l-461 -4v107h598l10 -98l-389 -299q408 -58 408 -244q0 -119 -151.5 -195t-477.5 -86z" />
    <glyph glyph-name="twothirds" unicode="&#x2154;" 
d="M977 967h-660l-12 98q142 99 226.5 163t158 131.5t104.5 122t31 107.5q0 60 -41 98.5t-151 63t-295 27.5l10 106q598 5 598 -264q0 -65 -30 -128t-95 -131t-147.5 -134.5t-206.5 -153.5h510v-106zM156 641v102h966v-102h-966zM342 -502l-10 113q522 16 522 162
q0 136 -434 178l2 63l383 297v6l-461 -4v107h598l10 -98l-389 -299q408 -58 408 -244q0 -119 -151.5 -195t-477.5 -86z" />
    <glyph glyph-name="onequarter" unicode="&#xbc;" 
d="M993 967h-667v104h295v576l-279 -19l-4 90l283 37v139l118 11v-834h265zM156 641v102h966v-102h-966zM1022 -287l-123 2l2 -192h-115l2 192l-466 -2q-2 131 28.5 328.5t85.5 396.5l129 -10q-38 -134 -87.5 -341.5t-53.5 -270.5h364l-2 311l115 8l-2 -319h131z" />
    <glyph glyph-name="threequarters" unicode="&#xbe;" 
d="M342 942l-10 113q522 16 522 162q0 136 -434 178l2 63l383 297v6l-461 -4v107h598l10 -99l-389 -299q408 -58 408 -243q0 -119 -151.5 -195t-477.5 -86zM156 641v102h966v-102h-966zM1022 -287l-123 2l2 -192h-115l2 192l-466 -2q-2 131 28.5 328.5t85.5 396.5l129 -10
q-38 -134 -87.5 -341.5t-53.5 -270.5h364l-2 311l115 8l-2 -319h131z" />
    <glyph glyph-name="onefifth" unicode="&#x2155;" 
d="M993 967h-667v104h295v576l-279 -19l-4 90l283 37v139l118 11v-834h265zM156 641v102h966v-102h-966zM965 -186q0 -126 -155 -209t-468 -107l-8 115q186 14 302 42t165 66t49 91q0 140 -494 170l33 438h547l-12 -107h-435l-20 -243q496 -41 496 -256z" />
    <glyph glyph-name="twofifths" unicode="&#x2156;" 
d="M977 967h-660l-12 98q142 99 226.5 163t158 131.5t104.5 122t31 107.5q0 60 -41 98.5t-151 63t-295 27.5l10 106q598 5 598 -264q0 -65 -30 -128t-95 -131t-147.5 -134.5t-206.5 -153.5h510v-106zM156 641v102h966v-102h-966zM965 -186q0 -126 -155 -209t-468 -107
l-8 115q186 14 302 42t165 66t49 91q0 140 -494 170l33 438h547l-12 -107h-435l-20 -243q496 -41 496 -256z" />
    <glyph glyph-name="threefifths" unicode="&#x2157;" 
d="M342 942l-10 113q522 16 522 162q0 136 -434 178l2 63l383 297v6l-461 -4v107h598l10 -99l-389 -299q408 -58 408 -243q0 -119 -151.5 -195t-477.5 -86zM156 641v102h966v-102h-966zM965 -186q0 -126 -155 -209t-468 -107l-8 115q186 14 302 42t165 66t49 91
q0 140 -494 170l33 438h547l-12 -107h-435l-20 -243q496 -41 496 -256z" />
    <glyph glyph-name="fourfifths" unicode="&#x2158;" 
d="M1022 1157l-123 2l2 -192h-115l2 192l-466 -2q-2 131 28.5 328.5t85.5 396.5l129 -10q-38 -134 -87.5 -341.5t-53.5 -270.5h364l-2 311l115 8l-2 -319h131zM156 641v102h966v-102h-966zM965 -186q0 -126 -155 -209t-468 -107l-8 115q186 14 302 42t165 66t49 91
q0 140 -494 170l33 438h547l-12 -107h-435l-20 -243q496 -41 496 -256z" />
    <glyph glyph-name="onesixth" unicode="&#x2159;" 
d="M993 967h-667v104h295v576l-279 -19l-4 90l283 37v139l118 11v-834h265zM156 641v102h966v-102h-966zM639 -498q-153 0 -245.5 94t-92.5 265q0 193 127 344.5t383 251.5l43 -103q-208 -81 -309 -174.5t-123 -220.5q81 72 181 97.5t183.5 6t140 -86t56.5 -164.5
q0 -136 -101 -223t-243 -87zM651 -397q92 0 154.5 54t62.5 142q0 97 -69 145.5t-175 34t-208 -89.5v-14q0 -132 64 -202t171 -70z" />
    <glyph glyph-name="fivesixths" unicode="&#x215a;" 
d="M965 1257q0 -126 -155 -208.5t-468 -106.5l-8 115q276 21 396 70t120 128q0 140 -494 170l33 439h547l-12 -107h-435l-20 -244q496 -41 496 -256zM156 641v102h966v-102h-966zM639 -498q-153 0 -245.5 94t-92.5 265q0 193 127 344.5t383 251.5l43 -103
q-208 -81 -309 -174.5t-123 -220.5q81 72 181 97.5t183.5 6t140 -86t56.5 -164.5q0 -136 -101 -223t-243 -87zM651 -397q92 0 154.5 54t62.5 142q0 97 -69 145.5t-175 34t-208 -89.5v-14q0 -132 64 -202t171 -70z" />
    <glyph glyph-name="oneeighth" unicode="&#x215b;" 
d="M993 967h-667v104h295v576l-279 -19l-4 90l283 37v139l118 11v-834h265zM156 641v102h966v-102h-966zM621 -500q-143 0 -230.5 60.5t-87.5 158.5q0 159 236 252q-101 52 -159 107.5t-58 128.5q0 90 90 161.5t241 71.5q131 0 218 -60t87 -155q0 -78 -56.5 -136
t-164.5 -105q54 -27 90.5 -48.5t73.5 -51.5t55.5 -65t18.5 -75q0 -102 -98 -173t-256 -71zM444 217q0 -57 54.5 -100.5t160.5 -96.5q185 76 185 185q0 63 -54 101t-149 38q-93 0 -145 -36.5t-52 -90.5zM635 -406q99 0 158 40t59 100q0 30 -18 57t-57 53.5t-71.5 44
t-91.5 45.5q-192 -75 -192 -190q0 -66 57 -108t156 -42z" />
    <glyph glyph-name="threeeighths" unicode="&#x215c;" 
d="M342 942l-10 113q522 16 522 162q0 136 -434 178l2 63l383 297v6l-461 -4v107h598l10 -99l-389 -299q408 -58 408 -243q0 -119 -151.5 -195t-477.5 -86zM156 641v102h966v-102h-966zM621 -500q-143 0 -230.5 60.5t-87.5 158.5q0 159 236 252q-101 52 -159 107.5
t-58 128.5q0 90 90 161.5t241 71.5q131 0 218 -60t87 -155q0 -78 -56.5 -136t-164.5 -105q54 -27 90.5 -48.5t73.5 -51.5t55.5 -65t18.5 -75q0 -102 -98 -173t-256 -71zM444 217q0 -57 54.5 -100.5t160.5 -96.5q185 76 185 185q0 63 -54 101t-149 38q-93 0 -145 -36.5
t-52 -90.5zM635 -406q99 0 158 40t59 100q0 30 -18 57t-57 53.5t-71.5 44t-91.5 45.5q-192 -75 -192 -190q0 -66 57 -108t156 -42z" />
    <glyph glyph-name="fiveeighths" unicode="&#x215d;" 
d="M965 1257q0 -126 -155 -208.5t-468 -106.5l-8 115q276 21 396 70t120 128q0 140 -494 170l33 439h547l-12 -107h-435l-20 -244q496 -41 496 -256zM156 641v102h966v-102h-966zM621 -500q-143 0 -230.5 60.5t-87.5 158.5q0 159 236 252q-101 52 -159 107.5t-58 128.5
q0 90 90 161.5t241 71.5q131 0 218 -60t87 -155q0 -78 -56.5 -136t-164.5 -105q54 -27 90.5 -48.5t73.5 -51.5t55.5 -65t18.5 -75q0 -102 -98 -173t-256 -71zM444 217q0 -57 54.5 -100.5t160.5 -96.5q185 76 185 185q0 63 -54 101t-149 38q-93 0 -145 -36.5t-52 -90.5z
M635 -406q99 0 158 40t59 100q0 30 -18 57t-57 53.5t-71.5 44t-91.5 45.5q-192 -75 -192 -190q0 -66 57 -108t156 -42z" />
    <glyph glyph-name="seveneighths" unicode="&#x215e;" 
d="M563 952l-125 15q146 384 426 782l-4 8h-541l11 107h657v-103q-273 -411 -424 -809zM156 641v102h966v-102h-966zM621 -500q-143 0 -230.5 60.5t-87.5 158.5q0 159 236 252q-101 52 -159 107.5t-58 128.5q0 90 90 161.5t241 71.5q131 0 218 -60t87 -155q0 -78 -56.5 -136
t-164.5 -105q54 -27 90.5 -48.5t73.5 -51.5t55.5 -65t18.5 -75q0 -102 -98 -173t-256 -71zM444 217q0 -57 54.5 -100.5t160.5 -96.5q185 76 185 185q0 63 -54 101t-149 38q-93 0 -145 -36.5t-52 -90.5zM635 -406q99 0 158 40t59 100q0 30 -18 57t-57 53.5t-71.5 44
t-91.5 45.5q-192 -75 -192 -190q0 -66 57 -108t156 -42z" />
    <glyph glyph-name="zero.sup" unicode="&#x2070;" 
d="M627 717q-168 0 -261.5 121t-93.5 336q0 217 103.5 350t275.5 133q168 0 261.5 -122t93.5 -335q0 -217 -104 -350t-275 -133zM639 1554q-121 0 -183.5 -94t-62.5 -266q0 -178 63.5 -276.5t182.5 -98.5q121 0 183.5 94.5t62.5 266.5q0 177 -63.5 275.5t-182.5 98.5z" />
    <glyph glyph-name="one.sup" unicode="&#xb9;" 
d="M993 739h-667v105h295v575l-279 -18l-4 90l283 37v139l118 10v-833h265z" />
    <glyph glyph-name="two.sup" unicode="&#xb2;" 
d="M977 739h-660l-12 99q142 99 226.5 163t158 131.5t104.5 122t31 107.5q0 60 -41 98.5t-151 62.5t-295 27l10 107q598 5 598 -264q0 -65 -30 -128t-95 -131t-147.5 -134.5t-206.5 -153.5h510v-107z" />
    <glyph glyph-name="three.sup" unicode="&#xb3;" 
d="M342 715l-10 112q522 16 522 162q0 136 -434 178l2 64l383 297v6l-461 -4v106h598l10 -98l-389 -299q408 -58 408 -244q0 -119 -151.5 -194.5t-477.5 -85.5z" />
    <glyph glyph-name="four.sup" unicode="&#x2074;" 
d="M1022 930l-123 2l2 -193h-115l2 193l-466 -2q-2 131 28.5 328.5t85.5 396.5l129 -10q-38 -133 -87.5 -341.5t-53.5 -271.5h364l-2 311l115 9l-2 -320h131z" />
    <glyph glyph-name="five.sup" unicode="&#x2075;" 
d="M965 1030q0 -126 -155 -208.5t-468 -106.5l-8 114q186 14 302 42t165 66t49 91q0 140 -494 170l33 438h547l-12 -106h-435l-20 -244q496 -41 496 -256z" />
    <glyph glyph-name="six.sup" unicode="&#x2076;" 
d="M639 719q-153 0 -245.5 93.5t-92.5 264.5q0 193 127 344.5t383 251.5l43 -102q-208 -81 -309 -174.5t-123 -220.5q81 72 181 97.5t183.5 5.5t140 -86.5t56.5 -164.5q0 -136 -101 -222.5t-243 -86.5zM651 819q92 0 154.5 54t62.5 143q0 97 -69 145.5t-175 34t-208 -89.5
v-14q0 -132 64.5 -202.5t170.5 -70.5z" />
    <glyph glyph-name="seven.sup" unicode="&#x2077;" 
d="M563 725l-125 14q147 386 426 783l-4 8h-541l11 106h657v-102q-273 -411 -424 -809z" />
    <glyph glyph-name="eight.sup" unicode="&#x2078;" 
d="M621 717q-143 0 -230.5 60.5t-87.5 158.5q0 159 236 252q-102 52 -159.5 107t-57.5 128q0 91 90 162.5t241 71.5q131 0 218 -60t87 -155q0 -78 -56.5 -136.5t-164.5 -105.5q54 -27 90 -48.5t73.5 -51.5t56 -64.5t18.5 -74.5q0 -102 -98 -173t-256 -71zM444 1434
q0 -57 54.5 -100.5t160.5 -96.5q185 76 185 184q0 63 -54 101.5t-149 38.5q-93 0 -145 -36.5t-52 -90.5zM635 811q99 0 158 39.5t59 99.5q0 24 -14 48t-33.5 42t-55 39.5t-62.5 35.5t-73 36q-192 -75 -192 -190q0 -66 57 -108t156 -42z" />
    <glyph glyph-name="nine.sup" unicode="&#x2079;" 
d="M467 700l-45 105q208 77 309 169.5t123 219.5q-81 -70 -180.5 -95t-182 -5t-138.5 85.5t-56 163.5q0 136 100 224t242 88q153 0 246.5 -94t93.5 -265q0 -396 -512 -596zM412 1354q0 -96 69 -144.5t175 -34t206 90.5v14q0 134 -64 203t-171 69q-91 0 -153 -54t-62 -144z
" />
    <glyph glyph-name="zero.inf" unicode="&#x2080;" 
d="M627 -365q-168 0 -261.5 121t-93.5 336q0 217 103.5 350t275.5 133q168 0 261.5 -121.5t93.5 -334.5q0 -217 -104 -350.5t-275 -133.5zM639 473q-121 0 -183.5 -94t-62.5 -266q0 -178 63.5 -276.5t182.5 -98.5q121 0 183.5 94t62.5 266q0 177 -63.5 276t-182.5 99z" />
    <glyph glyph-name="one.inf" unicode="&#x2081;" 
d="M993 -342h-667v104h295v576l-279 -19l-4 91l283 36v140l118 10v-834h265z" />
    <glyph glyph-name="two.inf" unicode="&#x2082;" 
d="M977 -342h-660l-12 98q142 99 226.5 163t157.5 131.5t104.5 122.5t31.5 108q0 60 -41 98.5t-151 62.5t-295 27l10 106q598 5 598 -264q0 -65 -30 -128t-95 -131t-147.5 -134.5t-206.5 -153.5h510v-106z" />
    <glyph glyph-name="three.inf" unicode="&#x2083;" 
d="M342 -367l-10 113q522 16 522 162q0 136 -434 178l2 64l383 296v7l-461 -4v106h598l10 -98l-389 -299q408 -58 408 -244q0 -119 -151.5 -195t-477.5 -86z" />
    <glyph glyph-name="four.inf" unicode="&#x2084;" 
d="M1022 -152l-123 2l2 -192h-115l2 192l-466 -2q-2 131 28.5 328.5t85.5 396.5l129 -10q-38 -134 -87.5 -341.5t-53.5 -270.5h364l-2 311l115 8l-2 -319h131z" />
    <glyph glyph-name="five.inf" unicode="&#x2085;" 
d="M965 -51q0 -126 -155 -209t-468 -107l-8 115q186 14 302 42t165 66t49 91q0 140 -494 170l33 438h547l-12 -106h-435l-20 -244q496 -41 496 -256z" />
    <glyph glyph-name="six.inf" unicode="&#x2086;" 
d="M639 -362q-153 0 -245.5 93.5t-92.5 264.5q0 193 127 344.5t383 251.5l43 -103q-208 -81 -309 -174.5t-123 -220.5q81 72 181 97.5t183.5 6t140 -86t56.5 -164.5q0 -136 -101 -222.5t-243 -86.5zM651 -262q92 0 154.5 54t62.5 142q0 97 -69 146t-175 34.5t-208 -89.5v-15
q0 -132 64 -202t171 -70z" />
    <glyph glyph-name="seven.inf" unicode="&#x2087;" 
d="M563 -356l-125 14q146 384 426 782l-4 9h-541l11 106h657v-102q-273 -411 -424 -809z" />
    <glyph glyph-name="eight.inf" unicode="&#x2088;" 
d="M621 -365q-142 0 -230 61t-88 159q0 158 236 251q-101 52 -159 107.5t-58 128.5q0 90 90 161.5t241 71.5q131 0 218 -60t87 -155q0 -78 -56.5 -136t-164.5 -105q54 -27 90.5 -48.5t73.5 -51.5t55.5 -65t18.5 -75q0 -102 -98 -173t-256 -71zM444 352q0 -30 16 -57t50 -52
t65.5 -43t83.5 -44q185 76 185 184q0 63 -54 101t-149 38q-93 0 -145 -36.5t-52 -90.5zM635 -270q99 0 158 39.5t59 99.5q0 24 -14 48t-33.5 42t-55 39.5t-62.5 35.5t-73 36q-192 -75 -192 -191q0 -66 57 -107.5t156 -41.5z" />
    <glyph glyph-name="nine.inf" unicode="&#x2089;" 
d="M467 -381l-45 105q208 77 309 169.5t123 219.5q-81 -70 -180.5 -95t-182 -5t-138.5 85.5t-56 163.5q0 136 100 223.5t242 87.5q153 0 246.5 -93.5t93.5 -264.5q0 -396 -512 -596zM412 272q0 -96 69 -144.5t175 -34t206 90.5v15q0 134 -64 203t-171 69q-91 0 -153 -54.5
t-62 -144.5z" />
    <glyph glyph-name="check.1" unicode="&#xe10c;" 
d="M1159 1497q-307 -705 -506 -1546l-131 -12l-334 792l127 57l265 -647h6q168 773 424 1405z" />
    <glyph glyph-name="check.2" unicode="&#xe10d;" 
d="M840 -12l-252 508l-269 -521l-96 35l289 590l-256 483l135 50l201 -404l383 823l145 -57l-450 -877l311 -598z" />
    <glyph glyph-name="hcoslug" unicode="&#xe10b;" 
d="M1100 1434v-1639h-922v1639h922zM485 606q0 20 11 32.5t30 12.5q20 0 32.5 -16t12.5 -43q0 -34 -28 -76q-22 21 -31.5 31.5t-18 26t-8.5 32.5zM586 475q32 20 63 51q25 -28 23.5 -55.5t-25.5 -67.5q-40 51 -61 72zM506 285q-34 0 -57 24.5t-23 59.5q0 36 25 61
q54 -50 114 -127q-24 -18 -59 -18zM692 354q33 44 72 66q19 -39 65 -39q32 0 54 23.5t22 58.5q0 36 -21.5 58t-54.5 22q-53 0 -92 -58q-6 58 -75 58q14 20 14 51q0 44 -40 79.5t-106 35.5q-75 0 -121.5 -39.5t-46.5 -91.5q0 -33 11 -56.5t37 -50.5q-125 -41 -125 -139
q0 -61 48.5 -102.5t117.5 -41.5q95 0 159 70q38 -39 67.5 -54.5t63.5 -15.5q51 0 86.5 40t36.5 106l-10 2q-27 -45 -66 -45q-41 0 -96 63zM545 139l-19 -2v-14h-10v-10h10v-31q0 -21 19 -21q16 0 22 21l-8 2q-3 -10 -8 -10q-6 0 -6 8v31h20v10h-20v16zM373 94q0 -15 9.5 -24
t23.5 -9q13 0 22.5 9.5t9.5 23.5q0 13 -9 22t-23 9t-23.5 -9t-9.5 -22zM418 94q0 -24 -12 -24q-13 0 -13 24q0 23 13 23q12 0 12 -23zM688 92q0 -20 -10 -20q-12 0 -12 20q0 21 12 21q10 0 10 -21zM442 74v-11h33v11h-6v22q0 17 12 17q8 0 8 -13v-26h-6v-11h35v11h-10v28
q0 23 -19 23q-13 0 -20 -14v12h-27v-10h9v-39h-9zM297 74v-11h47v11h-14v24h6q6 0 7 -2t3 -10h10v35h-10q-6 -11 -10 -12h-6v28h16q9 0 12.5 -4t6.5 -16h10v30h-78v-10h12v-63h-12zM569 84v-21h11l2 7q9 -9 20 -9q21 0 21 19q0 13 -18.5 19.5t-18.5 9.5q0 6 8 6t16 -11h11
v21h-11l-2 -8q-5 8 -16 8q-10 0 -16.5 -6t-6.5 -13q0 -14 18.5 -19t18.5 -11t-8 -6t-18 14h-11zM647 141v-80h8l7 13q6 -13 22 -13q12 0 18.5 10.5t6.5 22.5q0 13 -7 22t-18 9q-14 0 -18 -14v41h-29v-11h10zM727 49q4 3 1.5 8.5t-9.5 5.5q-10 0 -10 -10q0 -14 18 -14
q17 0 27 24l20 50h8v10h-26v-10h8l-12 -31l-15 31h8v10h-36v-10h6q18 -38 24 -52q0 -12 -12 -12zM819 0h-28v-12h10q-5 -10 -10 -15q-3 3 -10 11t-9 10q16 10 16 20q0 8 -5.5 13.5t-14.5 5.5q-12 0 -19.5 -7.5t-7.5 -15.5q0 -9 11 -20q-21 -7 -21 -23q0 -20 25 -20
q16 0 26 10q10 -10 19 -10q14 0 18 18l-6 2q-3 -8 -6 -8q-2 0 -10 8q7 7 14 21h8v12zM557 8v8q0 17 8 17l6 -2q-2 -2 -2 -6q0 -9 11 -9v-8h-23zM827 -10q0 -43 43 -43q34 0 37 35h-12q-4 -25 -21 -25q-24 0 -24 35t20 35q15 0 23 -25h12v33h-12v-8q-10 10 -25 10
q-18 0 -29.5 -12.5t-11.5 -34.5zM768 -2q-10 10 -10 16q0 9 8 9q10 0 10 -11q0 -10 -8 -14zM629 -25h39q4 35 -29 35q-13 0 -22 -9t-9 -24q0 -14 9 -22t24 -8q23 0 27 22h-11q-3 -12 -14 -12q-14 0 -14 18zM485 -25h39q4 35 -28 35q-12 0 -21.5 -9t-9.5 -24q0 -14 9 -22
t24 -8q22 0 26 22h-10q-3 -12 -14 -12q-15 0 -15 18zM395 -20q0 -15 9.5 -24t23.5 -9t23.5 9.5t9.5 23.5q0 13 -9.5 21.5t-23.5 8.5t-23.5 -8.5t-9.5 -21.5zM911 -20q0 -15 9.5 -24t23.5 -9t23.5 9.5t9.5 23.5q0 13 -9.5 21.5t-23.5 8.5t-23.5 -8.5t-9.5 -21.5zM629 -16
q0 18 10 18t10 -18h-20zM485 -16q0 18 11 18q10 0 10 -18h-21zM440 -20q0 -25 -12 -25t-12 25q0 22 12 22t12 -22zM956 -20q0 -25 -12 -25t-12 25q0 22 12 22t12 -22zM530 -41v-10h35v10h-8v39h23v-39h-9v-10h35v10h-8v80l-16 -4q-8 4 -17 4q-10 0 -18 -7.5t-8 -21.5v-2h-11
v-10h11v-39h-9zM672 -41v-10h39v10h-13v25q4 14 11 14v-2q0 -8 10 -8t10 10q0 12 -12 12q-13 0 -19 -14v12h-26v-10h8v-39h-8zM297 -41v-10h43v10h-10v29h32v-29h-10v-10h43v10h-12v64h12v10h-43v-10h10v-25h-32v25h10v10h-43v-10h12v-64h-12zM776 -37q-6 -6 -12 -6
q-14 0 -14 14q0 9 6 15q5 -4 12 -13t8 -10zM1004 -41q0 12 -13 12q-12 0 -12 -12t12 -12q13 0 13 12z" />
    <glyph glyph-name="fraction" unicode="&#x2044;" 
d="M229 -365l-123 54l926 2021l123 -53z" />
    <glyph glyph-name="fraction.afrc" 
d="M156 641v102h966v-102h-966z" />
    <glyph glyph-name="zero.num" 
d="M627 944q-168 0 -261.5 121t-93.5 336q0 217 103.5 350t275.5 133q168 0 261.5 -122t93.5 -335q0 -217 -104 -350t-275 -133zM639 1782q-121 0 -183.5 -94.5t-62.5 -266.5q0 -178 63.5 -276t182.5 -98q121 0 183.5 94t62.5 266q0 177 -63.5 276t-182.5 99z" />
    <glyph glyph-name="one.num" 
d="M993 967h-667v104h295v576l-279 -19l-4 90l283 37v139l118 11v-834h265z" />
    <glyph glyph-name="two.num" 
d="M977 967h-660l-12 98q142 99 226.5 163t158 131.5t104.5 122t31 107.5q0 60 -41 98.5t-151 63t-295 27.5l10 106q598 5 598 -264q0 -65 -30 -128t-95 -131t-147.5 -134.5t-206.5 -153.5h510v-106z" />
    <glyph glyph-name="three.num" 
d="M342 942l-10 113q522 16 522 162q0 136 -434 178l2 63l383 297v6l-461 -4v107h598l10 -99l-389 -299q408 -58 408 -243q0 -119 -151.5 -195t-477.5 -86z" />
    <glyph glyph-name="four.num" 
d="M1022 1157l-123 2l2 -192h-115l2 192l-466 -2q-2 131 28.5 328.5t85.5 396.5l129 -10q-38 -134 -87.5 -341.5t-53.5 -270.5h364l-2 311l115 8l-2 -319h131z" />
    <glyph glyph-name="five.num" 
d="M965 1257q0 -126 -155 -208.5t-468 -106.5l-8 115q276 21 396 70t120 128q0 140 -494 170l33 439h547l-12 -107h-435l-20 -244q496 -41 496 -256z" />
    <glyph glyph-name="six.num" 
d="M639 946q-153 0 -245.5 94t-92.5 265q0 193 127 344.5t383 251.5l43 -103q-208 -81 -309 -174.5t-123 -220.5q81 72 181 97.5t183.5 5.5t140 -86.5t56.5 -164.5q0 -136 -101 -222.5t-243 -86.5zM651 1047q92 0 154.5 54t62.5 142q0 97 -69 145.5t-175 34t-208 -89.5v-14
q0 -132 64 -202t171 -70z" />
    <glyph glyph-name="seven.num" 
d="M563 952l-125 15q146 384 426 782l-4 8h-541l11 107h657v-103q-273 -411 -424 -809z" />
    <glyph glyph-name="eight.num" 
d="M621 944q-143 0 -230.5 60.5t-87.5 158.5q0 159 236 252q-101 52 -159 107.5t-58 128.5q0 90 90 161.5t241 71.5q131 0 218 -60t87 -155q0 -78 -56.5 -136.5t-164.5 -105.5q54 -27 90 -48.5t73.5 -51.5t56 -64.5t18.5 -74.5q0 -102 -98 -173t-256 -71zM444 1661
q0 -57 54.5 -100.5t160.5 -96.5q185 76 185 185q0 63 -54 101t-149 38q-93 0 -145 -36.5t-52 -90.5zM635 1038q99 0 158 40t59 100q0 30 -18 57t-57 53.5t-71.5 44t-91.5 45.5q-192 -75 -192 -190q0 -66 57 -108t156 -42z" />
    <glyph glyph-name="nine.num" 
d="M467 928l-45 104q208 77 309 169.5t123 219.5q-81 -70 -180.5 -95t-182 -4.5t-138.5 86t-56 163.5q0 136 100 223.5t242 87.5q153 0 246.5 -93.5t93.5 -264.5q0 -396 -512 -596zM412 1581q0 -96 69 -144.5t175 -34t206 90.5v14q0 134 -64 203.5t-171 69.5
q-91 0 -153 -54.5t-62 -144.5z" />
    <glyph glyph-name="zero.den" 
d="M627 -500q-168 0 -261.5 121t-93.5 336q0 217 103.5 350t275.5 133q168 0 261.5 -121.5t93.5 -334.5q0 -217 -104 -350.5t-275 -133.5zM639 338q-121 0 -183.5 -94.5t-62.5 -266.5q0 -178 63.5 -276t182.5 -98q121 0 183.5 94t62.5 266q0 177 -63.5 276t-182.5 99z" />
    <glyph glyph-name="one.den" 
d="M993 -477h-667v104h295v576l-279 -19l-4 90l283 37v140l118 10v-834h265z" />
    <glyph glyph-name="two.den" 
d="M977 -477h-660l-12 98q142 99 226.5 163t158 131.5t104.5 122t31 107.5q0 60 -41 98.5t-151 63t-295 27.5l10 106q598 5 598 -264q0 -65 -30 -128t-95 -131t-147.5 -134.5t-206.5 -153.5h510v-106z" />
    <glyph glyph-name="three.den" 
d="M342 -502l-10 113q522 16 522 162q0 136 -434 178l2 63l383 297v6l-461 -4v107h598l10 -98l-389 -299q408 -58 408 -244q0 -119 -151.5 -195t-477.5 -86z" />
    <glyph glyph-name="four.den" 
d="M1022 -287l-123 2l2 -192h-115l2 192l-466 -2q-2 131 28.5 328.5t85.5 396.5l129 -10q-38 -134 -87.5 -341.5t-53.5 -270.5h364l-2 311l115 8l-2 -319h131z" />
    <glyph glyph-name="five.den" 
d="M965 -186q0 -126 -155 -209t-468 -107l-8 115q186 14 302 42t165 66t49 91q0 140 -494 170l33 438h547l-12 -107h-435l-20 -243q496 -41 496 -256z" />
    <glyph glyph-name="six.den" 
d="M639 -498q-153 0 -245.5 94t-92.5 265q0 193 127 344.5t383 251.5l43 -103q-208 -81 -309 -174.5t-123 -220.5q81 72 181 97.5t183.5 6t140 -86t56.5 -164.5q0 -136 -101 -223t-243 -87zM651 -397q92 0 154.5 54t62.5 142q0 97 -69 145.5t-175 34t-208 -89.5v-14
q0 -132 64 -202t171 -70z" />
    <glyph glyph-name="seven.den" 
d="M563 -492l-125 15q146 384 426 782l-4 8h-541l11 107h657v-103q-273 -411 -424 -809z" />
    <glyph glyph-name="eight.den" 
d="M621 -500q-143 0 -230.5 60.5t-87.5 158.5q0 159 236 252q-101 52 -159 107.5t-58 128.5q0 90 90 161.5t241 71.5q131 0 218 -60t87 -155q0 -78 -56.5 -136t-164.5 -105q54 -27 90.5 -48.5t73.5 -51.5t55.5 -65t18.5 -75q0 -102 -98 -173t-256 -71zM444 217
q0 -57 54.5 -100.5t160.5 -96.5q185 76 185 185q0 63 -54 101t-149 38q-93 0 -145 -36.5t-52 -90.5zM635 -406q99 0 158 40t59 100q0 30 -18 57t-57 53.5t-71.5 44t-91.5 45.5q-192 -75 -192 -190q0 -66 57 -108t156 -42z" />
    <glyph glyph-name="nine.den" 
d="M467 -516l-45 104q208 77 309 169.5t123 219.5q-81 -70 -180.5 -95t-182 -4.5t-138.5 86t-56 163.5q0 136 100 223.5t242 87.5q153 0 246.5 -93.5t93.5 -264.5q0 -396 -512 -596zM412 137q0 -96 69 -144.5t175 -34t206 90.5v14q0 134 -64 203.5t-171 69.5
q-91 0 -153 -54.5t-62 -144.5z" />
    <glyph glyph-name="zero.small" 
d="M627 -23q-168 0 -261.5 121t-93.5 336q0 217 103.5 350.5t275.5 133.5q168 0 261.5 -122t93.5 -335q0 -217 -104 -350.5t-275 -133.5zM639 815q-121 0 -183.5 -94t-62.5 -266q0 -178 63.5 -276.5t182.5 -98.5q121 0 183.5 94t62.5 266q0 177 -63.5 276t-182.5 99z" />
    <glyph glyph-name="one.small" 
d="M993 0h-667v104h295v576l-279 -18l-4 90l283 36v140l118 10v-834h265z" />
    <glyph glyph-name="two.small" 
d="M977 0h-660l-12 98q142 99 226.5 163t157.5 131.5t104.5 122.5t31.5 108q0 60 -41 98.5t-151 62.5t-295 27l10 107q598 5 598 -265q0 -65 -30 -128t-95 -131t-147.5 -134.5t-206.5 -153.5h510v-106z" />
    <glyph glyph-name="three.small" 
d="M342 -25l-10 113q522 16 522 162q0 136 -434 178l2 64l383 296v7l-461 -4v106h598l10 -98l-389 -299q408 -58 408 -244q0 -119 -151.5 -195t-477.5 -86z" />
    <glyph glyph-name="four.small" 
d="M1022 190l-123 3l2 -193h-115l2 193l-466 -3q-2 131 28.5 328.5t85.5 396.5l129 -10q-38 -134 -87.5 -341.5t-53.5 -270.5h364l-2 311l115 8l-2 -319h131z" />
    <glyph glyph-name="five.small" 
d="M965 291q0 -126 -155 -209t-468 -107l-8 115q186 14 302 42t165 66t49 91q0 140 -494 170l33 438h547l-12 -106h-435l-20 -244q496 -41 496 -256z" />
    <glyph glyph-name="six.small" 
d="M639 -20q-153 0 -245.5 93.5t-92.5 264.5q0 193 127 344.5t383 251.5l43 -103q-208 -81 -309 -174.5t-123 -220.5q81 72 181 97.5t183.5 6t140 -86t56.5 -164.5q0 -136 -101 -222.5t-243 -86.5zM651 80q92 0 154.5 54t62.5 142q0 97 -69 146t-175 34.5t-208 -89.5v-15
q0 -132 64 -202t171 -70z" />
    <glyph glyph-name="seven.small" 
d="M563 -14l-125 14q146 384 426 782l-4 9h-541l11 106h657v-102q-273 -411 -424 -809z" />
    <glyph glyph-name="eight.small" 
d="M621 -23q-142 0 -230 61t-88 159q0 159 236 252q-102 52 -159.5 107t-57.5 128q0 91 90 162.5t241 71.5q131 0 218 -60.5t87 -155.5q0 -78 -56.5 -136t-164.5 -105q54 -27 90.5 -48.5t73.5 -51.5t55.5 -65t18.5 -75q0 -102 -98 -173t-256 -71zM444 694q0 -30 16 -57
t50 -52t65.5 -43t83.5 -44q185 76 185 184q0 63 -54 101t-149 38q-93 0 -145 -36.5t-52 -90.5zM635 72q99 0 158 39.5t59 99.5q0 24 -14 48t-33.5 42t-55 39.5t-62.5 35.5t-73 36q-192 -75 -192 -191q0 -66 57 -107.5t156 -41.5z" />
    <glyph glyph-name="nine.small" 
d="M467 -39l-45 105q208 77 309 169.5t123 219.5q-81 -70 -180.5 -95t-182 -5t-138.5 85.5t-56 163.5q0 136 100 223.5t242 87.5q153 0 246.5 -93.5t93.5 -264.5q0 -396 -512 -596zM412 614q0 -96 69 -144.5t175 -34t206 90.5v15q0 134 -64 203t-171 69q-91 0 -153 -54.5
t-62 -144.5z" />
    <glyph glyph-name="acute" unicode="&#xb4;" 
d="M408 1333q97 71 221 190t200 216l125 -117q-91 -85 -236 -187t-265 -169z" />
    <glyph glyph-name="hungarumlaut" unicode="&#x2dd;" 
d="M311 1317q62 88 130.5 215.5t113.5 232.5l154 -71q-57 -95 -149 -215t-177 -209zM780 1315q65 93 133.5 218t108.5 224l158 -65q-57 -94 -149.5 -214t-178.5 -210z" />
    <glyph glyph-name="caron.alt" 
d="M487 1282q48 99 62 196.5t4.5 172t-37.5 168.5l172 4q57 -288 -135 -566z" />
    <glyph glyph-name="grave" unicode="`" 
d="M883 1315l-47 -64q-117 68 -261.5 169t-236.5 182l117 122q83 -95 209.5 -216.5t218.5 -192.5z" />
    <glyph glyph-name="circumflex" unicode="&#x2c6;" 
d="M940 1274l-309 270l-309 -268l-76 72l391 346h6l391 -332z" />
    <glyph glyph-name="caron" unicode="&#x2c7;" 
d="M641 1262h-6l-389 329l92 88l309 -270l311 270l76 -73z" />
    <glyph glyph-name="breve" unicode="&#x2d8;" 
d="M631 1284q-113 0 -213.5 80.5t-194.5 245.5l105 61q88 -146 158.5 -206t156.5 -60q88 0 163 62t165 196l90 -47q-204 -332 -430 -332z" />
    <glyph glyph-name="tilde" unicode="&#x2dc;" 
d="M801 1286q-49 0 -99 39t-85 85t-76 85t-74 39q-87 0 -188 -227l-86 36q62 150 135 232t153 82q41 0 81 -25.5t72 -62t62 -73t61 -62t58 -25.5q47 0 92 58t94 169l89 -37q-61 -150 -135 -231.5t-154 -81.5z" />
    <glyph glyph-name="macron" unicode="&#xaf;" 
d="M1012 1511v-127h-744v127h744z" />
    <glyph glyph-name="dieresis" unicode="&#xa8;" 
d="M965 1290h-148v301h152zM467 1290h-145l-3 301h154z" />
    <glyph glyph-name="dotaccent" unicode="&#x2d9;" 
d="M707 1290h-148l6 301h154z" />
    <glyph glyph-name="ring" unicode="&#x2da;" 
d="M659 1716q129 0 213 -67.5t84 -165.5q0 -107 -81.5 -175.5t-215.5 -68.5q-129 0 -213 68t-84 166q0 107 81.5 175t215.5 68zM659 1620q-85 0 -134.5 -39t-49.5 -102q0 -64 50 -104t134 -40q85 0 135 40t50 104q0 62 -50.5 101.5t-134.5 39.5z" />
    <glyph glyph-name="commaaccent.rot" 
d="M752 1722q-40 -79 -52.5 -156.5t-2.5 -141t38 -134.5l-186 -8q-21 112 10 233.5t121 229.5z" />
    <glyph glyph-name="commaaccent" unicode="&#x326;" 
d="M510 -598q40 79 51.5 157.5t1 142t-38.5 134.5q6 0 93 4t94 4q21 -112 -10 -234t-119 -231z" />
    <glyph glyph-name="cedilla" unicode="&#xb8;" 
d="M545 -16l43 82q307 -170 307 -316q0 -82 -99 -139.5t-294 -85.5l-13 119q148 23 212.5 50.5t64.5 67.5q0 88 -221 222z" />
    <glyph glyph-name="ogonek" unicode="&#x2db;" 
d="M823 63l41 -63q-170 -82 -238.5 -140.5t-68.5 -103.5q0 -44 64 -71.5t210 -42.5l-14 -121q-211 20 -303 69.5t-92 130.5q0 77 92 158t309 184z" />
    <glyph glyph-name="acute.cap" 
d="M408 1333q97 71 221 190t200 216l125 -117q-91 -85 -236 -187t-265 -169z" />
    <glyph glyph-name="hungarumlaut.cap" 
d="M311 1317q62 88 130.5 215.5t113.5 232.5l154 -71q-57 -95 -149 -215t-177 -209zM780 1315q65 93 133.5 218t108.5 224l158 -65q-57 -94 -149.5 -214t-178.5 -210z" />
    <glyph glyph-name="grave.cap" 
d="M883 1315l-47 -64q-117 68 -261.5 169t-236.5 182l117 122q83 -95 209.5 -216.5t218.5 -192.5z" />
    <glyph glyph-name="circumflex.cap" 
d="M940 1274l-309 270l-309 -268l-76 72l391 346h6l391 -332z" />
    <glyph glyph-name="caron.cap" 
d="M641 1262h-6l-389 329l92 88l309 -270l311 270l76 -73z" />
    <glyph glyph-name="breve.cap" 
d="M631 1284q-113 0 -213.5 80.5t-194.5 245.5l105 61q88 -146 158.5 -206t156.5 -60q88 0 163 62t165 196l90 -47q-204 -332 -430 -332z" />
    <glyph glyph-name="tilde.cap" 
d="M801 1286q-49 0 -99 39t-85 85t-76 85t-74 39q-87 0 -188 -227l-86 36q62 150 135 232t153 82q41 0 81 -25.5t72 -62t62 -73t61 -62t58 -25.5q47 0 92 58t94 169l89 -37q-61 -150 -135 -231.5t-154 -81.5z" />
    <glyph glyph-name="macron.cap" 
d="M1012 1511v-127h-744v127h744z" />
    <glyph glyph-name="dieresis.cap" 
d="M965 1290h-148v301h152zM467 1290h-145l-3 301h154z" />
    <glyph glyph-name="dotaccent.cap" 
d="M707 1290h-148l6 301h154z" />
    <glyph glyph-name="ring.cap" 
d="M659 1716q129 0 213 -67.5t84 -165.5q0 -107 -81.5 -175.5t-215.5 -68.5q-129 0 -213 68t-84 166q0 107 81.5 175t215.5 68zM659 1620q-85 0 -134.5 -39t-49.5 -102q0 -64 50 -104t134 -40q85 0 135 40t50 104q0 62 -50.5 101.5t-134.5 39.5z" />
    <glyph glyph-name="caron.alt.cap" 
d="M487 1282q48 99 62 196.5t4.5 172t-37.5 168.5l172 4q57 -288 -135 -566z" />
    <glyph glyph-name="cedilla.cap" 
d="M545 -16l43 82q307 -170 307 -316q0 -82 -99 -139.5t-294 -85.5l-13 119q148 23 212.5 50.5t64.5 67.5q0 88 -221 222z" />
    <glyph glyph-name="commaaccent.cap" 
d="M510 -598q40 79 51.5 157.5t1 142t-38.5 134.5q6 0 93 4t94 4q21 -112 -10 -234t-119 -231z" />
    <glyph glyph-name="ogonek.cap" 
d="M823 63l41 -63q-170 -82 -238.5 -140.5t-68.5 -103.5q0 -44 64 -71.5t210 -42.5l-14 -121q-211 20 -303 69.5t-92 130.5q0 77 92 158t309 184z" />
    <glyph glyph-name="underscore.alt" 
d="M1288 -115v-116h-1296v116h1296z" />
    <glyph glyph-name="less_exclam_hyphen_hyphen.liga" 
d="M-1872 516h-94q0 144 -15.5 536t-17.5 484h187q-5 -103 -31 -490.5t-29 -529.5zM-2656 1356l84 -103l-631 -530h1010l-9 -125h-1003l645 -543l-86 -102l-756 643v127zM-1638 598v125h2639l-8 -125h-2631zM-1825 0h-219l4 225h221z" />
    <glyph glyph-name="equal_equal_equal.liga" 
d="M1079 1237l-2 -123h-3436v123h3438zM1079 731l-2 -123h-3436v123h3438zM1079 225l-2 -125h-3436v125h3438z" />
    <glyph glyph-name="equal_equal_greater.liga" 
d="M233 1251l86 105l744 -633v-127l-760 -643l-84 102l354 297h-2932v125h3080l205 172v21l-228 190h-3057v123h2912z" />
    <glyph glyph-name="equal_less_less.liga" 
d="M332 1253l-694 -583v-21l706 -594l-86 -102l-469 399h-2148v125h2001l-140 119v127l162 137h-2023v123h2169l438 373zM354 670v-21l707 -594l-86 -102l-756 643v127l746 633l84 -103z" />
    <glyph glyph-name="exclam_equal_equal.liga" 
d="M1079 731l-2 -123h-1638l-203 -383h1843l-2 -125h-1906l-275 -516l-129 47l250 469h-1376v125h1441l203 383h-1644v123h1710l205 383h-1915v123h1978l211 395l123 -57l-180 -338h1306l-2 -123h-1368l-205 -383h1575z" />
    <glyph glyph-name="greater_equal_greater.liga" 
d="M233 1251l86 105l744 -633v-127l-760 -643l-84 102l354 297h-2359l-471 -399l-84 102l707 594v21l-693 581l86 105l439 -373h2355zM721 477l205 172v21l-228 190h-2357l162 -137v-127l-141 -119h2359z" />
    <glyph glyph-name="greater_greater_equal.liga" 
d="M-2241 1356l744 -633v-127l-760 -643l-84 102l707 594v21l-693 581zM-780 723v-127l-142 -119h2001l-2 -125h-2146l-471 -399l-84 102l706 594v21l-692 581l86 105l439 -373h2164l-2 -123h-2019z" />
    <glyph glyph-name="hyphen_hyphen_greater.liga" 
d="M233 1251l86 105l744 -633v-127l-760 -643l-84 102l645 543h-3137v125h3135z" />
    <glyph glyph-name="less_equal_equal.liga" 
d="M-2206 670v-21l205 -172h3080l-2 -125h-2930l354 -297l-86 -102l-756 643v127l746 633l84 -103l-322 -270h2912l-2 -123h-3055z" />
    <glyph glyph-name="less_equal_greater.liga" 
d="M233 1251l86 105l744 -633v-127l-760 -643l-84 102l354 297h-2426l354 -297l-86 -102l-756 643v127l746 633l84 -103l-322 -270h2386zM721 477l205 172v21l-228 190h-2676l-228 -190v-21l205 -172h2722z" />
    <glyph glyph-name="less_equal_less.liga" 
d="M1061 55l-86 -102l-469 399h-2359l354 -297l-86 -102l-756 643v127l746 633l84 -103l-322 -270h2359l439 373l84 -103l-695 -583v-21zM-2206 649l205 -172h2359l-139 119v127l162 137h-2359l-228 -190v-21z" />
    <glyph glyph-name="less_hyphen_greater.liga" 
d="M319 1356l744 -633v-127l-760 -643l-84 102l645 543h-3008l645 -543l-86 -102l-756 643v127l746 633l84 -103l-631 -530h3004l-629 528z" />
    <glyph glyph-name="less_hyphen_hyphen.liga" 
d="M-2142 723h3143l-8 -125h-3137l645 -543l-86 -102l-756 643v127l746 633l84 -103z" />
    <glyph glyph-name="ampersand_ampersand.liga" 
d="M920 365q103 -117 258 -299l-115 -97q-90 113 -223 269q-90 -133 -196.5 -199t-217.5 -66q-75 0 -144.5 19t-117 45.5t-93.5 65t-71.5 66t-52.5 59.5q-5 7 -8 10q-90 -133 -196.5 -199t-217.5 -66q-149 0 -233.5 90t-84.5 226q0 251 306 444q-74 97 -108 169.5t-34 144.5
q0 60 19 114.5t65 106.5t116.5 89t181 58.5t249.5 18.5l12 -138q-115 5 -204 -5.5t-144 -31.5t-90.5 -54t-49 -68.5t-13.5 -77.5q0 -85 93 -212q61 -84 279 -331q36 -41 56 -63q97 209 151 465l129 -15q-78 -318 -203 -538l93 -105q-2 10 -2 29q0 252 305 444
q-74 97 -108 169.5t-34 144.5q0 60 19 114.5t65 106.5t116.5 89t181 58.5t249.5 18.5l12 -138q-115 5 -204 -5.5t-144 -31.5t-90.5 -54t-49 -68.5t-13.5 -77.5q0 -85 93 -212q61 -84 279 -331q36 -41 56 -63q97 209 151 465l129 -15q-78 -321 -202 -538zM-446 96
q80 0 160 57t151 169q-60 70 -157.5 181t-135.5 156q-110 -76 -165.5 -164t-55.5 -176q0 -100 52.5 -161.5t150.5 -61.5zM455 96q80 0 160 57t151 169q-60 70 -157.5 181t-135.5 156q-110 -76 -165.5 -164t-55.5 -176q0 -100 52.5 -161.5t150.5 -61.5z" />
    <glyph glyph-name="bar_bar.liga" 
d="M-459 1593l135 13v-2018h-135v2005zM330 1593l135 13v-2018h-135v2005z" />
    <glyph glyph-name="bar_greater.liga" 
d="M-477 1593l135 13l1036 -883v-127l-1036 -1008h-135v2005zM-342 -227l899 876v21l-899 760v-1657z" />
    <glyph glyph-name="colon_equal.liga" 
d="M-530 805h-228l2 233h230zM750 983l-2 -123h-1082v123h1084zM-530 297h-228l2 233h230zM750 477l-2 -125h-1082v125h1084z" />
    <glyph glyph-name="equal_equal.liga" 
d="M1079 983l-2 -123h-2156v123h2158zM1079 477l-2 -125h-2156v125h2158z" />
    <glyph glyph-name="equal_greater.liga" 
d="M233 1251l86 105l744 -633v-127l-760 -643l-84 102l354 297h-1652v125h1800l205 172v21l-228 190h-1777v123h1632z" />
    <glyph glyph-name="exclam_equal.liga" 
d="M1077 860h-897l-205 -383h1104l-2 -125h-1167l-408 -768l-129 47l383 721h-835v125h901l205 383h-1106v123h1171l344 649l123 -57l-313 -592h833z" />
    <glyph glyph-name="greater_equal.liga" 
d="M-752 -47l-43 102l1448 594v21l-1433 581l45 105l1587 -633v-127zM852 403v-135l-1604 -643l-43 103z" />
    <glyph glyph-name="hyphen_greater.liga" 
d="M233 1251l86 105l744 -633v-127l-760 -643l-84 102l645 543h-1857v125h1855z" />
    <glyph glyph-name="hyphen_hyphen.liga" 
d="M-152 723l-8 -125h-706v125h714zM866 723l-8 -125h-706v125h714z" />
    <glyph glyph-name="less_bar.liga" 
d="M-705 723l1024 870l136 13v-2018h-136l-1024 1008v127zM-569 670v-21l888 -874v1644z" />
    <glyph glyph-name="less_equal.liga" 
d="M-514 649l1448 -594l-43 -102l-1604 643v127l1587 633l46 -105l-1434 -581v-21zM891 -375l-1604 643v135l1647 -675z" />
    <glyph glyph-name="less_hyphen.liga" 
d="M-862 723h1863l-8 -125h-1857l645 -543l-86 -102l-756 643v127l746 633l84 -103z" />
    <glyph glyph-name="less_slash.liga" 
d="M-242 74l828 1558l123 -57l-1057 -1991l-129 47l172 322l-756 643v127l746 633l84 -103l-695 -583v-21z" />
    <glyph glyph-name="plus_plus.liga" 
d="M545 1157v-436h416l-3 -123h-413v-436h-131v436h-830v-436h-131v436h-416v123h416v436h131v-436h830v436h131z" />
    <glyph glyph-name="question_question.liga" 
d="M-856 1405l14 135q199 -11 352 -35.5t252 -57.5t162 -77t89 -90.5t26 -101.5q0 -50 -26 -99t-68.5 -91t-94 -84.5t-104.5 -86.5t-97.5 -90t-76 -102.5t-37.5 -116.5l-100 4q4 65 31 126.5t67 109.5t87.5 92.5t94.5 83.5t85.5 75t62.5 74t24 74q0 48 -34 86t-114.5 73
t-230 60.5t-364.5 38.5zM4 1405l14 135q199 -11 352 -35.5t252 -57.5t162 -77t89 -90.5t26 -101.5q0 -50 -26 -99t-68.5 -91t-94 -84.5t-104.5 -86.5t-97.5 -90t-76 -102.5t-37.5 -116.5l-100 4q4 75 39.5 146t86 122.5t108 103t106 91.5t81 85.5t32.5 86.5q0 48 -34 86
t-114.5 73t-230.5 60.5t-365 38.5zM-426 0h-213l4 223h213zM434 0h-213l4 223h213z" />
    <glyph glyph-name="slash_greater.liga" 
d="M436 1575l-117 -219l744 -633v-127l-760 -643l-84 102l707 594v21l-672 563l-875 -1649l-129 47l1063 2001z" />
    <glyph glyph-name="underscore_underscore.liga" 
d="M1288 -115v-116h-2576v116h2576z" />
    <glyph glyph-name="uniE0A0" unicode="&#xe0a0;" 
d="M1049 1292v2q109 0 185.5 -76.5t76.5 -185.5q0 -71 -35.5 -131t-95.5 -94v-37q0 -96 -45.5 -192t-118.5 -168.5t-169 -118t-192 -45.5q-130 0 -200 -84q69 -75 69 -178q0 -109 -76.5 -186t-185.5 -77t-185.5 77t-76.5 186q0 71 35.5 131t95.5 94v858q-60 34 -95.5 94
t-35.5 131q0 109 76.5 185.5t185.5 76.5t185.5 -76.5t76.5 -185.5q0 -71 -35.5 -131t-95.5 -94v-621q110 60 262 60q98 0 180.5 82t82.5 180v37q-60 35 -96 94.5t-36 130.5q0 109 77 185.5t186 76.5zM262 1423q-54 0 -92.5 -38.5t-38.5 -92.5t38.5 -92.5t92.5 -38.5
t92.5 38.5t38.5 92.5t-38.5 92.5t-92.5 38.5zM1049 899q54 0 92.5 38.5t38.5 92.5t-38.5 92.5t-92.5 38.5t-92.5 -38.5t-38.5 -92.5t38.5 -92.5t92.5 -38.5zM262 -150q54 0 92.5 39t38.5 93t-38.5 92.5t-92.5 38.5t-92.5 -38.5t-38.5 -92.5t38.5 -93t92.5 -39z" />
    <glyph glyph-name="uniE0B0" unicode="&#xe0b0;" 
d="M-37 2056l1413 -1308l-1417 -1168z" />
    <glyph glyph-name="uniE0B2" unicode="&#xe0b2;" 
d="M1376 -420l-1417 1168l1413 1308z" />
  </font>
</defs>
</svg>
