<?xml version="1.0" standalone="no"?>
<!DOCTYPE svg PUBLIC "-//W3C//DTD SVG 1.1//EN" "http://www.w3.org/Graphics/SVG/1.1/DTD/svg11.dtd" >
<svg xmlns="http://www.w3.org/2000/svg" xmlns:xlink="http://www.w3.org/1999/xlink" version="1.1">
<metadata>
Created by FontForge 20170731 at Fri Jun 11 06:22:33 2021
 By Aleksey,,,
No Rights Reserved.
</metadata>
<defs>
<font id="Aileron-LightItalic" horiz-adv-x="1148" >
  <font-face 
    font-family="Aileron Light"
    font-weight="300"
    font-style="italic"
    font-stretch="normal"
    units-per-em="2048"
    panose-1="0 0 4 0 0 0 0 0 0 0"
    ascent="1577"
    descent="-471"
    x-height="1075"
    cap-height="1413"
    bbox="-354 -457 2333 1833"
    underline-thickness="102"
    underline-position="-307"
    slope="-10"
    unicode-range="U+0020-FB02"
  />
<missing-glyph horiz-adv-x="1161" 
d="M137 0v1434h1024v-1434h-1024zM649 809l348 522h-696zM711 717l348 -522v1044zM301 102h696l-348 523zM240 1239v-1044l348 522z" />
    <glyph glyph-name="fi" unicode="fi" horiz-adv-x="964" 
d="M911 1075l-188 -1075h-127l170 973h-401l-170 -973h-127l170 973h-97l19 102h96l8 51q10 61 29 123q39 141 155.5 218t303.5 77q52 0 114 -10l-20 -107q-361 45 -428 -184q-14 -49 -25 -106l-10 -62h528z" />
    <glyph glyph-name="fl" unicode="fl" horiz-adv-x="991" 
d="M745 160q0 -39 27 -55.5t86 -12.5l-16 -94q-33 -6 -103 -6q-63 0 -96 24.5t-33 87.5q0 42 27 179l201 1142q-50 19 -131 19q-121 0 -191.5 -55.5t-97.5 -145.5q-21 -72 -25 -106l-10 -62h221l-18 -102h-221l-172 -973h-127l172 973h-97l19 102h96l8 51q8 48 27 123
q39 140 150 217.5t288 77.5q161 0 250 -39l-215 -1218q-19 -109 -19 -127z" />
    <glyph glyph-name=".notdef" horiz-adv-x="1161" 
d="M137 0v1434h1024v-1434h-1024zM649 809l348 522h-696zM711 717l348 -522v1044zM301 102h696l-348 523zM240 1239v-1044l348 522z" />
    <glyph glyph-name=".null" horiz-adv-x="0" 
 />
    <glyph glyph-name="nonmarkingreturn" horiz-adv-x="682" 
 />
    <glyph glyph-name="space" unicode=" " horiz-adv-x="376" 
 />
    <glyph glyph-name="exclam" unicode="!" horiz-adv-x="452" 
d="M242 315h-115l192 1098h148zM160 166q36 0 59 -22t23 -56q0 -49 -35 -83t-82 -34q-36 0 -59 22t-23 56q0 49 35 83t82 34z" />
    <glyph glyph-name="quotedbl" unicode="&#x22;" horiz-adv-x="477" 
d="M195 997h-103l76 508h131zM436 997h-102l76 508h133z" />
    <glyph glyph-name="numbersign" unicode="#" 
d="M856 856l-117 -299h222l-15 -88h-241l-183 -469h-90l182 469h-202l-183 -469h-90l183 469h-201l16 88h219l117 299h-223l16 88h242l182 469h90l-182 -469h203l182 469h90l-182 -469h201l-17 -88h-219zM766 856h-203l-117 -299h203z" />
    <glyph glyph-name="dollar" unicode="$" 
d="M741 1333l-98 -561q177 -58 263.5 -153t86.5 -242q0 -173 -131 -286.5t-362 -119.5l-27 -155h-92l29 159q-96 9 -167 45.5t-112.5 92.5t-62.5 121.5t-23 142.5h133q18 -269 250 -299l102 579q-74 24 -129.5 53.5t-102 73t-71 104t-24.5 136.5t27.5 146.5t81.5 131
t146.5 98.5t211.5 42l26 155h92l-28 -159q108 -13 182.5 -69.5t108.5 -137.5t36 -184h-135q-3 122 -57.5 195.5t-153.5 90.5zM340 1038q0 -173 215 -245l96 546q-78 -4 -139 -31.5t-97.5 -70t-55.5 -93.5t-19 -106zM618 639l-100 -565q165 7 251.5 87t86.5 210
q0 103 -58 164.5t-180 103.5z" />
    <glyph glyph-name="percent" unicode="%" horiz-adv-x="1484" 
d="M446 791q-114 0 -181.5 73t-67.5 193q0 69 21.5 136t62 123.5t107.5 91t149 34.5q114 0 181.5 -73t67.5 -193q0 -70 -21 -136.5t-61.5 -123t-107.5 -91t-150 -34.5zM1419 1413l-1161 -1413h-139l1161 1413h139zM524 1350q-62 0 -108.5 -42.5t-69 -109.5t-22.5 -147
q0 -77 34.5 -122.5t100.5 -45.5q93 0 146.5 88t53.5 213q0 76 -34 121t-101 45zM1096 623q114 0 182 -73.5t68 -193.5q0 -69 -21.5 -136t-62 -123.5t-107.5 -91t-149 -34.5q-116 0 -183 73.5t-67 193.5q0 70 21 136.5t61.5 123t107.5 91t150 34.5zM1016 63q94 0 148.5 88.5
t54.5 213.5q0 76 -35 120.5t-101 44.5q-93 0 -147.5 -88t-54.5 -211q0 -77 34.5 -122.5t100.5 -45.5z" />
    <glyph glyph-name="ampersand" unicode="&#x26;" horiz-adv-x="1333" 
d="M1298 766l-20 -107h-207l-115 -649q-189 -39 -383 -39q-112 0 -197.5 15t-154 50t-105 98t-36.5 153q0 169 117 284.5t305 145.5q-108 24 -170 95t-62 189q0 127 74.5 228.5t202.5 157t284 55.5q128 0 242 -21l-18 -104q-113 22 -248 22q-174 0 -283.5 -91.5
t-109.5 -254.5q0 -62 21 -106t60 -68.5t82.5 -36t98.5 -14.5q39 -2 127 -2h162l45 260h127l-45 -260h206zM944 659h-162q-84 0 -125 -4q-207 -18 -319.5 -106.5t-112.5 -245.5q0 -123 92 -176t279 -53q133 0 250 20z" />
    <glyph glyph-name="quotesingle" unicode="'" horiz-adv-x="235" 
d="M195 997h-103l76 508h131z" />
    <glyph glyph-name="parenleft" unicode="(" horiz-adv-x="589" 
d="M403 -164h-90q-116 238 -116 574q0 187 45 390.5t144 417t239 379.5h90q-211 -271 -314.5 -581.5t-103.5 -603.5q0 -319 106 -576z" />
    <glyph glyph-name="parenright" unicode=")" horiz-adv-x="589" 
d="M248 1597h90q117 -240 117 -573q0 -187 -45 -390.5t-144 -417.5t-239 -380h-90q211 272 314 583t103 603q0 318 -106 575z" />
    <glyph glyph-name="asterisk" unicode="*" horiz-adv-x="1085" 
d="M582 596l340 121l12 -94l-340 -93l178 -290l-90 -58l-154 310l-266 -310l-67 58l278 290l-307 93l47 94l297 -121l53 377h99z" />
    <glyph glyph-name="plus" unicode="+" 
d="M983 604h-377l-76 -428h-90l76 428h-377l15 86h376l78 434h90l-77 -434h378z" />
    <glyph glyph-name="comma" unicode="," horiz-adv-x="395" 
d="M158 127l-224 -371h-118l204 391h140z" />
    <glyph glyph-name="hyphen" unicode="-" horiz-adv-x="561" 
d="M487 535h-430l17 88h430z" />
    <glyph glyph-name="period" unicode="." horiz-adv-x="395" 
d="M96 166q36 0 58 -23t22 -57q0 -50 -33 -82.5t-80 -32.5q-36 0 -58.5 23t-22.5 59q0 49 33.5 81t80.5 32z" />
    <glyph glyph-name="slash" unicode="/" horiz-adv-x="589" 
d="M-20 -61h-97l785 1536h96z" />
    <glyph glyph-name="zero" unicode="0" 
d="M682 1442q211 0 317.5 -139t106.5 -373q0 -82 -9.5 -169.5t-31.5 -182t-54.5 -181t-83 -165t-112.5 -136t-146.5 -91.5t-181.5 -34q-142 0 -239 67t-141 180.5t-44 266.5q0 82 9.5 168.5t31.5 181.5t54.5 181t82.5 164.5t112 136t146.5 91.5t182.5 34zM492 74
q76 0 142 34t113.5 89.5t85.5 130.5t62 154t40.5 162.5t23 153.5t6.5 130q0 192 -71.5 301.5t-217.5 109.5q-88 0 -162.5 -44.5t-124.5 -119t-87.5 -164t-58 -188t-30.5 -182t-10 -154.5q0 -192 72.5 -302.5t216.5 -110.5z" />
    <glyph glyph-name="one" unicode="1" 
d="M911 1413l-249 -1413h-127l225 1280l-432 -236l24 136l344 192q71 41 135 41h80z" />
    <glyph glyph-name="two" unicode="2" 
d="M217 106h744l-19 -106h-932l15 76l589 504q216 184 294.5 293t78.5 237q0 106 -61 167.5t-178 61.5q-147 0 -249.5 -86.5t-138.5 -251.5l-4 -20h-127l4 20q50 217 194.5 329t350.5 112q172 0 262 -90.5t90 -227.5q0 -146 -100.5 -283t-355.5 -349z" />
    <glyph glyph-name="three" unicode="3" 
d="M801 743q116 -30 177.5 -104t61.5 -190q0 -143 -78.5 -253.5t-207.5 -167.5t-285 -57q-200 0 -307 106t-90 320l2 21h127l-2 -21q-10 -154 69.5 -238.5t229.5 -84.5q170 0 284.5 97t114.5 257q0 238 -326 238h-34l20 106h35q100 0 189.5 39.5t148.5 118t59 178.5
q0 107 -64.5 169t-176.5 62q-144 0 -247.5 -79t-133.5 -228l-5 -20h-126l4 20q38 193 182.5 301.5t357.5 108.5q167 0 261 -85t94 -222q0 -140 -95.5 -248.5t-238.5 -143.5z" />
    <glyph glyph-name="four" unicode="4" 
d="M1063 377h-186l-68 -377h-127l68 377h-717l12 67l903 969h123l-176 -932h186zM768 481l143 758q-61 -80 -176 -207l-516 -551h549z" />
    <glyph glyph-name="five" unicode="5" 
d="M475 1305l-178 -555l96 92q114 71 266 71q184 0 281.5 -104t97.5 -274q0 -104 -31 -195t-86 -157.5t-128 -115t-158.5 -72.5t-175.5 -24q-182 0 -291.5 103t-95.5 297l2 20h127v-20q-6 -297 276 -297q112 0 205.5 50t153 152.5t59.5 239.5q0 139 -72 217t-200 78
q-227 0 -367 -215h-121l254 815h772l-20 -106h-666z" />
    <glyph glyph-name="six" unicode="6" 
d="M774 1442q180 0 273.5 -101.5t85.5 -271.5l-3 -20h-135v20q-3 270 -247 270q-67 0 -131.5 -23t-126.5 -73.5t-112.5 -125.5t-89.5 -186t-57 -247l105 133q146 131 334 131q123 0 212 -53.5t132 -141.5t43 -200q0 -163 -77 -297t-207.5 -209.5t-285.5 -75.5
q-189 0 -298 119.5t-109 351.5q0 222 54.5 411t148.5 317t221 200t270 72zM631 846q-80 0 -155 -32t-133 -89.5t-93 -144t-35 -187.5q0 -140 75.5 -229.5t207.5 -89.5q174 0 294.5 132t120.5 329q0 137 -72.5 224t-209.5 87z" />
    <glyph glyph-name="seven" unicode="7" 
d="M1223 1413l-11 -59l-960 -1354h-148l930 1307h-803l19 106h973z" />
    <glyph glyph-name="eight" unicode="8" 
d="M815 741q104 -31 164.5 -112t60.5 -189q0 -117 -49.5 -209.5t-132 -148t-181 -84.5t-204.5 -29q-89 0 -164.5 20.5t-134.5 61t-92 107t-33 153.5q0 159 105 275.5t262 156.5q-82 32 -131 102.5t-49 164.5q0 187 142.5 309.5t366.5 122.5q175 0 277 -87.5t102 -228.5
q0 -136 -88 -240.5t-221 -144.5zM727 1339q-158 0 -256 -93t-98 -230q0 -108 65.5 -170t190.5 -62q153 0 254.5 90.5t101.5 235.5q0 102 -66.5 165.5t-191.5 63.5zM494 72q174 0 289.5 98t115.5 260q0 111 -74.5 181.5t-222.5 70.5q-98 0 -177.5 -29t-130 -78.5
t-77.5 -113.5t-27 -135q0 -118 83.5 -186t220.5 -68z" />
    <glyph glyph-name="nine" unicode="9" 
d="M709 1442q187 0 297 -119.5t110 -349.5q0 -223 -54.5 -412t-149 -317.5t-221.5 -200.5t-271 -72q-179 0 -272 102t-85 271v21h136v-21q3 -270 250 -270q67 0 131 23t126 74t112.5 126t89.5 186.5t57 247.5l-107 -135q-143 -131 -332 -131q-124 0 -213 54t-131.5 142
t-42.5 199q0 163 77 297t207.5 209.5t285.5 75.5zM565 567q79 0 153.5 32t132.5 89t93 144t35 188q0 141 -75 230t-208 89q-174 0 -293.5 -131.5t-119.5 -326.5q0 -139 71.5 -226.5t210.5 -87.5z" />
    <glyph glyph-name="colon" unicode=":" horiz-adv-x="395" 
d="M262 1112q37 0 59.5 -23.5t22.5 -58.5q0 -49 -33.5 -80.5t-79.5 -31.5q-37 0 -59 22t-22 57q0 50 32.5 82.5t79.5 32.5zM96 166q36 0 58 -23t22 -57q0 -50 -33 -82.5t-80 -32.5q-36 0 -58.5 23t-22.5 59q0 49 33.5 81t80.5 32z" />
    <glyph glyph-name="semicolon" unicode=";" horiz-adv-x="395" 
d="M262 1112q37 0 59.5 -23.5t22.5 -58.5q0 -49 -33.5 -80.5t-79.5 -31.5q-37 0 -59 22t-22 57q0 50 32.5 82.5t79.5 32.5zM156 127l-222 -371h-118l204 391h138z" />
    <glyph glyph-name="less" unicode="&#x3c;" 
d="M1067 889l-784 -352l661 -351l-18 -102l-750 408l19 102l890 407z" />
    <glyph glyph-name="equal" unicode="=" 
d="M1026 801h-860l16 88h860zM956 406h-860l15 88h860z" />
    <glyph glyph-name="greater" unicode="&#x3e;" 
d="M981 594l-18 -102l-893 -408l18 113l786 350l-661 352l18 102z" />
    <glyph glyph-name="question" unicode="?" horiz-adv-x="1144" 
d="M743 1442q170 0 266.5 -86t96.5 -213q0 -120 -62.5 -223t-222.5 -250q-119 -110 -165.5 -179.5t-69.5 -175.5h-125q17 111 66.5 188t183.5 210q152 150 205 238t53 182q0 93 -66 149.5t-176 56.5q-141 0 -235.5 -84.5t-126.5 -242.5h-132q34 197 172.5 313.5t337.5 116.5
zM504 166q36 0 59 -22t23 -56q0 -49 -35 -83t-82 -34q-36 0 -59 22t-23 56q0 49 35 83t82 34z" />
    <glyph glyph-name="at" unicode="@" horiz-adv-x="1738" 
d="M1266 952l-119 -497q-14 -64 -14 -109q0 -102 108 -102q114 0 196.5 116t82.5 318q0 186 -76.5 322t-204.5 203t-291 67q-105 0 -210.5 -32.5t-200.5 -98t-168 -156t-116.5 -215.5t-43.5 -266q0 -151 48 -271.5t131.5 -197t191 -116.5t229.5 -40q296 0 532 170l39 -78
q-272 -182 -575 -182q-107 0 -207.5 27.5t-189 85.5t-154.5 140.5t-104.5 200t-38.5 257.5q0 157 48 296.5t131 241.5t190.5 176t229.5 111t246 37q294 0 478 -188t184 -488q0 -132 -35 -236t-93.5 -166.5t-129 -95t-146.5 -32.5q-85 0 -141.5 40t-64.5 125l-39 -79
q-97 -103 -221 -103q-39 0 -76 9.5t-74 33t-64 59t-44 92t-17 128.5q0 138 55 259t157 196t226 75q115 0 170 -65l27 -107l35 135h123zM1040 537l19 79q31 131 -11.5 202t-132.5 71q-129 0 -217 -125t-88 -293q0 -119 45 -176t121 -57q89 0 160.5 80.5t103.5 218.5z" />
    <glyph glyph-name="A" unicode="A" horiz-adv-x="1302" 
d="M956 518h-563l-276 -518h-148l772 1413h183l260 -1413h-137zM938 625l-121 686l-366 -686h487z" />
    <glyph glyph-name="B" unicode="B" horiz-adv-x="1273" 
d="M889 748q250 -62 250 -310q0 -78 -25.5 -145.5t-69 -115t-102 -84t-122.5 -57t-134 -28.5q-63 -8 -166 -8h-432l250 1413h393q106 0 174 -6q143 -17 221 -90t78 -193q0 -150 -83 -244t-232 -132zM446 1307l-92 -519h295q36 0 115 7q138 15 218.5 93.5t80.5 209.5
q0 99 -59.5 149t-161.5 58q-41 2 -119 2h-277zM655 109q67 5 127 28t109.5 63t78.5 103.5t29 142.5q0 101 -59 161.5t-174 70.5q-68 6 -109 6h-321l-103 -578h326q55 0 96 3z" />
    <glyph glyph-name="C" unicode="C" horiz-adv-x="1452" 
d="M911 1442q247 0 377 -130.5t121 -338.5l-2 -21h-127v21q0 366 -393 366q-126 0 -239.5 -57t-198 -157t-134 -244.5t-49.5 -311.5q0 -243 110.5 -369t299.5 -126q186 0 310 101t192 274l8 20h127l-6 -20q-34 -104 -90 -189t-136 -151t-189.5 -102t-240.5 -36
q-249 0 -388.5 156t-137.5 426q-1 191 60 357.5t166 282.5t250.5 182.5t309.5 66.5z" />
    <glyph glyph-name="D" unicode="D" horiz-adv-x="1425" 
d="M877 1407q103 -9 191 -49t157.5 -111t109 -182t39.5 -252q0 -116 -30.5 -227t-92 -210.5t-147.5 -177.5t-204.5 -129t-256.5 -63q-74 -6 -182 -6h-373l250 1413h373q105 0 166 -6zM655 115q114 14 210 59t163.5 111.5t114.5 151t69.5 178.5t22.5 194q0 224 -104.5 347.5
t-274.5 143.5q-53 7 -154 7h-256l-213 -1201h256q86 0 166 9z" />
    <glyph glyph-name="E" unicode="E" horiz-adv-x="1171" 
d="M446 1309l-96 -549h715l-18 -107h-717l-97 -549h791l-18 -104h-918l250 1413h897l-21 -104h-768z" />
    <glyph glyph-name="F" unicode="F" horiz-adv-x="1130" 
d="M446 1309l-96 -549h694l-18 -107h-696l-115 -653h-127l250 1413h897l-21 -104h-768z" />
    <glyph glyph-name="G" unicode="G" horiz-adv-x="1527" 
d="M936 1442q245 0 365.5 -129t111.5 -340l-2 -21h-127v21q0 186 -92 276t-281 90q-128 0 -245.5 -57t-206 -156.5t-141 -245t-52.5 -311.5q0 -230 109 -362.5t295 -132.5q85 0 169.5 31.5t158.5 90t128.5 152.5t75.5 209h-385l19 105h512l-117 -662h-115l51 293l-77 -129
q-86 -96 -201 -144.5t-246 -48.5q-246 0 -383 159.5t-137 422.5q0 187 64 352.5t173 283t259 185.5t317 68z" />
    <glyph glyph-name="H" unicode="H" horiz-adv-x="1406" 
d="M1419 1413l-250 -1413h-127l113 639h-827l-113 -639h-127l250 1413h127l-117 -665h828l116 665h127z" />
    <glyph glyph-name="I" unicode="I" horiz-adv-x="452" 
d="M215 0h-127l250 1413h127z" />
    <glyph glyph-name="J" unicode="J" horiz-adv-x="1028" 
d="M1063 1413l-154 -874q-14 -78 -37 -177q-20 -85 -56.5 -154t-93.5 -123t-140 -84t-187 -30q-189 0 -287.5 113t-68.5 313l10 76h127l-8 -76q-22 -164 45 -243.5t205 -79.5q257 0 332 297q6 24 16.5 81t15.5 83l154 878h127z" />
    <glyph glyph-name="K" unicode="K" horiz-adv-x="1214" 
d="M514 707l569 -707h-157l-508 637l-107 -90l-96 -547h-127l250 1413h127l-127 -721l858 721h160z" />
    <glyph glyph-name="L" unicode="L" horiz-adv-x="1138" 
d="M1024 104l-18 -104h-918l250 1413h127l-232 -1309h791z" />
    <glyph glyph-name="M" unicode="M" horiz-adv-x="1689" 
d="M1702 1413l-250 -1413h-127l231 1288l-706 -1288h-160l-248 1303l-227 -1303h-127l250 1413h209l248 -1286l698 1286h209z" />
    <glyph glyph-name="N" unicode="N" horiz-adv-x="1378" 
d="M1391 1413l-250 -1413h-195l-506 1296l-225 -1296h-127l250 1413h194l502 -1292l230 1292h127z" />
    <glyph glyph-name="O" unicode="O" horiz-adv-x="1527" 
d="M913 1442q173 0 302 -80.5t195.5 -219t66.5 -315.5q0 -126 -30.5 -248t-94.5 -232.5t-155 -193.5t-222 -132.5t-285 -49.5q-172 0 -301 80.5t-195.5 219t-66.5 315.5q0 126 30 248t94.5 232.5t155.5 193.5t221.5 132.5t284.5 49.5zM717 74q119 0 222 45t175.5 120
t124 172.5t76 203.5t24.5 212q0 233 -124.5 372.5t-325.5 139.5q-120 0 -223.5 -45t-175.5 -120t-123.5 -172.5t-76 -203.5t-24.5 -212q0 -232 124.5 -372t326.5 -140z" />
    <glyph glyph-name="P" unicode="P" horiz-adv-x="1142" 
d="M920 1405q137 -19 215.5 -101t78.5 -221q0 -104 -35 -190t-96 -144.5t-138.5 -94.5t-166.5 -48q-68 -8 -192 -8h-264l-107 -598h-127l250 1413h391q128 0 191 -8zM788 717q126 20 207.5 108t81.5 242q0 101 -50.5 157t-135.5 70q-65 11 -170 11h-275l-106 -598h274
q110 0 174 10z" />
    <glyph glyph-name="Q" unicode="Q" horiz-adv-x="1523" 
d="M1112 109q121 -16 229 -127l-86 -88q-91 68 -146 91t-122 23q-53 0 -151 -20q-67 -17 -138 -17q-140 0 -250 46t-180 128.5t-106.5 192.5t-36.5 240q0 123 29.5 244t93 233.5t152 198t217 137t278.5 51.5q139 0 248.5 -46t179.5 -128t106.5 -192t36.5 -240
q0 -215 -91 -412.5t-263 -314.5zM264 578q0 -227 123 -365.5t324 -138.5q119 0 222 46t174.5 122t122.5 175.5t75 206t24 212.5q0 228 -123 365.5t-323 137.5q-100 0 -189 -32t-155.5 -88t-119.5 -130t-86.5 -159.5t-51 -174.5t-17.5 -177z" />
    <glyph glyph-name="R" unicode="R" horiz-adv-x="1214" 
d="M1237 1106q0 -86 -30 -159.5t-80.5 -124t-114.5 -83t-135 -45.5q87 -17 120.5 -102t34.5 -299q3 -214 37 -293h-137q-23 116 -27 395q-2 110 -40.5 173t-133.5 69q-39 2 -113 2h-290l-113 -639h-127l250 1413h418q127 0 190 -8q138 -18 214.5 -94t76.5 -205zM784 750
q139 11 226.5 100t87.5 233q0 187 -201 215q-73 9 -160 9h-293l-98 -562h295q79 0 143 5z" />
    <glyph glyph-name="S" unicode="S" horiz-adv-x="1140" 
d="M727 1442q205 0 309.5 -114.5t93.5 -293.5h-133q6 143 -75.5 224t-223.5 81q-145 0 -244.5 -80t-99.5 -221q0 -98 69.5 -153.5t227.5 -96.5q198 -53 292.5 -142t94.5 -240q0 -195 -153 -315t-393 -120q-139 0 -244 47t-163 143t-50 228h135q0 -150 92 -232.5t252 -82.5
q166 0 274.5 84t108.5 225q0 113 -74.5 178t-242.5 109q-183 49 -275 125t-92 206q0 132 68.5 233.5t184.5 154.5t261 53z" />
    <glyph glyph-name="T" unicode="T" horiz-adv-x="1230" 
d="M1366 1309h-516l-232 -1309h-126l231 1309h-520l20 104h1161z" />
    <glyph glyph-name="U" unicode="U" horiz-adv-x="1335" 
d="M1348 1413l-160 -903q-11 -63 -27 -131q-100 -408 -565 -408q-209 0 -318.5 98t-109.5 273q0 84 18 176l158 895h127l-156 -887q-20 -117 -20 -180q0 -124 80 -198t239 -74q175 0 278.5 80.5t145.5 240.5q17 66 27 125l156 893h127z" />
    <glyph glyph-name="V" unicode="V" horiz-adv-x="1284" 
d="M655 0h-180l-260 1413h137l228 -1315l702 1315h145z" />
    <glyph glyph-name="W" unicode="W" horiz-adv-x="1851" 
d="M1997 1413l-639 -1413h-164l-117 1270l-588 -1270h-165l-117 1413h139l86 -1278l574 1258h180l117 -1260l555 1280h139z" />
    <glyph glyph-name="X" unicode="X" horiz-adv-x="1234" 
d="M739 717l389 -717h-153l-326 629l-543 -629h-149l633 721l-348 692h143l299 -602l526 602h150z" />
    <glyph glyph-name="Y" unicode="Y" horiz-adv-x="1163" 
d="M670 551l-97 -551h-127l99 559l-348 854h133l297 -739l547 739h151z" />
    <glyph glyph-name="Z" unicode="Z" horiz-adv-x="1169" 
d="M1245 1309l-1071 -1203h870l-18 -106h-1036l18 98l1075 1209h-804l18 106h967z" />
    <glyph glyph-name="bracketleft" unicode="[" horiz-adv-x="579" 
d="M342 1597h328l-17 -88h-235l-279 -1585h234l-15 -88h-327z" />
    <glyph glyph-name="backslash" unicode="\" horiz-adv-x="589" 
d="M494 -61h-97l-243 1536h96z" />
    <glyph glyph-name="bracketright" unicode="]" horiz-adv-x="579" 
d="M274 -164h-327l16 88h236l280 1585h-235l16 88h326z" />
    <glyph glyph-name="asciicircum" unicode="^" 
d="M829 440l-172 734l-434 -734h-110l499 822h111l213 -822h-107z" />
    <glyph glyph-name="underscore" unicode="_" horiz-adv-x="1024" 
d="M913 -172h-819l17 88h819z" />
    <glyph glyph-name="grave" unicode="`" horiz-adv-x="614" 
d="M338 1188h-86l-123 225h123z" />
    <glyph glyph-name="a" unicode="a" horiz-adv-x="1028" 
d="M629 1112q163 0 245 -71.5t82 -194.5q0 -41 -18 -160l-70 -383q-21 -126 -32 -303h-129l18 195l-72 -101q-117 -123 -321 -123q-124 0 -208.5 70.5t-84.5 202.5q0 115 60.5 199.5t167 130t242 62.5t294.5 5l6 41q18 98 18 147q0 181 -202 181q-267 0 -330 -248h-131
q34 161 158.5 255.5t306.5 94.5zM387 72q129 0 240 102t137 244l22 127q-175 18 -312.5 -9.5t-217.5 -99.5t-80 -180q0 -87 57.5 -135.5t153.5 -48.5z" />
    <glyph glyph-name="b" unicode="b" horiz-adv-x="1206" 
d="M758 1112q188 0 291.5 -123t103.5 -317q0 -104 -24 -203.5t-75 -190t-123 -158.5t-174 -108.5t-222 -40.5q-88 0 -160 30t-113 85l-45 115l-35 -201h-127l267 1505h127l-111 -620l94 116q129 111 326 111zM551 72q108 0 197.5 51t147 135.5t89 190t31.5 217.5
q0 156 -75.5 250t-217.5 94q-159 0 -278.5 -107t-161.5 -336l-15 -82q-10 -68 -8.5 -129t22 -113t54.5 -90t89 -59.5t126 -21.5z" />
    <glyph glyph-name="c" unicode="c" horiz-adv-x="1077" 
d="M664 1112q183 0 279.5 -103t96.5 -280h-133q-3 138 -70 210.5t-198 72.5q-129 0 -233 -79t-161 -215t-57 -302q0 -172 78 -258t203 -86t222.5 68t152.5 198h131q-150 -367 -526 -367q-178 0 -288 115.5t-110 325.5q0 133 41 257.5t116 223.5t193.5 159t262.5 60z" />
    <glyph glyph-name="d" unicode="d" horiz-adv-x="1202" 
d="M1225 1505l-267 -1505h-127l35 199l-92 -117q-126 -111 -325 -111q-188 0 -292 123.5t-104 317.5q0 103 24.5 202.5t75.5 190t122.5 158.5t174 108.5t222.5 40.5q89 0 160 -30.5t112 -86.5l43 -112l111 622h127zM924 516l14 82q20 114 -1 205t-93.5 149t-188.5 58
q-108 0 -197.5 -51t-147 -135t-89 -189t-31.5 -217q0 -156 75.5 -251t217.5 -95q76 0 143 24t127 74.5t105 138.5t66 207z" />
    <glyph glyph-name="e" unicode="e" horiz-adv-x="1091" 
d="M1014 504h-819q-7 -58 -7 -94q0 -170 79 -254t204 -84q118 0 218.5 70t152.5 200h131q-47 -125 -132 -210t-184 -123t-211 -38q-180 0 -287.5 113t-107.5 322q0 94 21.5 190.5t69.5 189.5t116 165t169.5 116.5t221.5 44.5q188 0 289.5 -112t101.5 -295q0 -112 -26 -201z
M629 1010q-87 0 -159.5 -34.5t-122 -94t-82 -128.5t-52.5 -149h692q6 53 6 94q0 156 -76 234t-206 78z" />
    <glyph glyph-name="f" unicode="f" horiz-adv-x="520" 
d="M580 1544q65 0 127 -10l-21 -107q-44 9 -80 9q-132 0 -172 -117q-19 -62 -28 -111l-23 -131h221l-18 -100h-221l-170 -977h-127l172 977h-99l19 100h96l20 115q14 75 29 129q33 110 105.5 166.5t169.5 56.5z" />
    <glyph glyph-name="g" unicode="g" horiz-adv-x="1202" 
d="M1151 1085l-143 -811q-31 -180 -47 -254q-45 -220 -189.5 -339t-380.5 -119q-187 0 -295.5 89.5t-101.5 256.5l2 24h129l-2 -24q-3 -120 73 -183t216 -63q170 0 278 91.5t144 260.5q5 31 15 82.5t15 77.5l4 27l-94 -119q-126 -111 -325 -111q-188 0 -292 123.5
t-104 317.5q0 103 24.5 202.5t75.5 190t122.5 158.5t174 108.5t222.5 40.5q89 0 160 -30.5t112 -86.5l45 -114l35 204h127zM483 72q76 0 143 24t127 74.5t105 138.5t66 207v-6l16 94l-2 -6q20 114 -1 205t-93.5 149t-188.5 58q-108 0 -197.5 -51t-147 -135t-89 -189
t-31.5 -217q0 -156 75.5 -251t217.5 -95z" />
    <glyph glyph-name="h" unicode="h" horiz-adv-x="1169" 
d="M739 1112q158 0 242 -76t84 -209q0 -75 -25 -221l-110 -606h-127l106 592q25 141 25 201q0 101 -57.5 158.5t-178.5 56.5q-150 -2 -265 -116t-157 -353l-94 -539h-127l267 1516h127l-113 -639l80 118q139 117 323 117z" />
    <glyph glyph-name="i" unicode="i" horiz-adv-x="425" 
d="M367 1403q31 0 51 -21t20 -51q0 -42 -29 -71t-71 -29q-32 0 -53 21t-21 51q0 42 30.5 71t72.5 29zM182 0h-127l191 1083h127z" />
    <glyph glyph-name="j" unicode="j" horiz-adv-x="376" 
d="M346 1403q33 0 53.5 -21t20.5 -51q0 -42 -29.5 -71t-71.5 -29q-32 0 -52.5 21t-20.5 51q0 42 29 71t71 29zM360 1083l-208 -1198q-11 -56 -29 -123q-52 -192 -254 -192q-53 0 -80 6l21 105q151 -24 190 102q8 23 25 100l208 1200h127z" />
    <glyph glyph-name="k" unicode="k" horiz-adv-x="1026" 
d="M475 571l438 -571h-155l-377 500l-129 -109l-70 -391h-127l267 1505h127l-173 -968l644 546h167z" />
    <glyph glyph-name="l" unicode="l" horiz-adv-x="452" 
d="M438 1505l-215 -1218q-16 -91 -16 -127q0 -46 25 -60t87 -8l-16 -94q-35 -6 -102 -6q-63 0 -97 24.5t-34 87.5q0 27 26 179l215 1222h127z" />
    <glyph glyph-name="m" unicode="m" horiz-adv-x="1716" 
d="M1339 1112q135 0 206 -73.5t71 -196.5q0 -67 -25 -203l-110 -639h-127l102 582q27 169 27 223q0 205 -201 205q-119 0 -217 -118t-135 -325l-99 -567h-126l102 582q27 156 27 223q0 205 -201 205q-119 0 -216.5 -118.5t-133.5 -324.5l-101 -567h-127l191 1083h127
l-33 -188l84 123q103 94 266 94q124 0 194 -61.5t81 -167.5l106 135q105 94 268 94z" />
    <glyph glyph-name="n" unicode="n" horiz-adv-x="1169" 
d="M739 1112q158 0 242 -76t84 -209q0 -75 -25 -221l-110 -606h-127l106 592q25 141 25 201q0 101 -57.5 158.5t-178.5 56.5q-72 -1 -136 -27.5t-121.5 -80t-100.5 -145.5t-64 -214v-2l-94 -539h-127l191 1083h127l-37 -206l80 118q139 117 323 117z" />
    <glyph glyph-name="o" unicode="o" horiz-adv-x="1175" 
d="M668 1112q114 0 202.5 -38t142 -104.5t80.5 -150.5t27 -182q0 -89 -22 -179.5t-70.5 -178.5t-118 -156t-173.5 -110t-228 -42q-115 0 -203.5 38t-142 104t-80.5 150.5t-27 182.5q0 73 16 148.5t47 150.5t82.5 141t117 116.5t156 80t194.5 29.5zM524 72q88 0 163.5 34
t128.5 90.5t91 129.5t56 152t18 157q0 169 -87.5 272t-242.5 103q-88 0 -164 -34t-128.5 -90.5t-90.5 -129.5t-55.5 -151t-17.5 -156q0 -170 87 -273.5t242 -103.5z" />
    <glyph glyph-name="p" unicode="p" horiz-adv-x="1206" 
d="M758 1112q188 0 291.5 -123t103.5 -317q0 -104 -24 -203.5t-75 -190t-123 -158.5t-174 -108.5t-222 -40.5q-88 0 -160 30t-113 85l-45 117l-106 -604h-127l264 1484h127l-35 -198l92 116q129 111 326 111zM551 72q108 0 197.5 51t147 135.5t89 190t31.5 217.5
q0 156 -75.5 250t-217.5 94q-159 0 -278.5 -107t-161.5 -336l-15 -82q-10 -68 -8.5 -129t22 -113t54.5 -90t89 -59.5t126 -21.5z" />
    <glyph glyph-name="q" unicode="q" horiz-adv-x="1202" 
d="M1151 1083l-264 -1484h-127l106 600l-92 -117q-126 -111 -325 -111q-188 0 -292 123.5t-104 317.5q0 103 24.5 202.5t75.5 190t122.5 158.5t174 108.5t222.5 40.5q89 0 160 -30.5t112 -86.5l45 -114l35 202h127zM924 516l14 82q20 114 -1 205t-93.5 149t-188.5 58
q-108 0 -197.5 -51t-147 -135t-89 -189t-31.5 -217q0 -156 75.5 -251t217.5 -95q76 0 143 24t127 74.5t105 138.5t66 207z" />
    <glyph glyph-name="r" unicode="r" horiz-adv-x="618" 
d="M641 1108q40 0 61 -8l-18 -101q-65 5 -123.5 -12t-112.5 -58.5t-95 -121t-62 -191.5l-2 -8l-107 -608h-127l193 1085h127l-35 -196l100 137q95 82 201 82z" />
    <glyph glyph-name="s" unicode="s" horiz-adv-x="927" 
d="M524 1112q169 0 258.5 -88.5t94.5 -243.5h-132q-18 230 -231 230q-119 0 -182.5 -60t-63.5 -145q0 -80 55 -127.5t160 -77.5q167 -48 245.5 -119.5t78.5 -195.5q0 -145 -112 -233.5t-296 -88.5q-193 0 -293.5 94.5t-105.5 249.5h131q16 -244 283 -244q113 0 184.5 58
t71.5 153q0 83 -57.5 133t-192.5 89q-65 19 -112.5 40.5t-90.5 55.5t-65.5 84.5t-22.5 116.5q0 135 106 227t289 92z" />
    <glyph glyph-name="t" unicode="t" horiz-adv-x="575" 
d="M373 977l-121 -680q-16 -82 -16 -125q0 -60 42.5 -77.5t137.5 -2.5l-17 -96q-70 -12 -116 -12q-89 0 -134 35t-45 110q0 56 21 166l121 682h-140l19 98h137l43 240h127l-43 -240h195l-17 -98h-194z" />
    <glyph glyph-name="u" unicode="u" horiz-adv-x="1159" 
d="M1106 1083l-188 -1083h-127l36 209l-82 -121q-74 -63 -151.5 -90t-171.5 -27q-158 0 -242 76t-84 209q0 81 27 221l108 606h127l-106 -591q-23 -132 -23 -203q0 -100 57 -158t177 -57q72 2 136.5 28.5t121.5 81t100 146.5t64 215l94 538h127z" />
    <glyph glyph-name="v" unicode="v" horiz-adv-x="995" 
d="M1085 1083l-608 -1083h-164l-225 1083h143l181 -981l528 981h145z" />
    <glyph glyph-name="w" unicode="w" horiz-adv-x="1523" 
d="M1614 1083l-537 -1083h-151l-99 958l-434 -958h-155l-150 1083h143l107 -956l428 954h164l98 -952l447 954h139z" />
    <glyph glyph-name="x" unicode="x" horiz-adv-x="944" 
d="M537 541l288 -541h-151l-230 451l-391 -451h-151l485 545l-268 538h147l213 -450l389 450h154z" />
    <glyph glyph-name="y" unicode="y" horiz-adv-x="995" 
d="M1085 1083l-608 -1083q-99 -176 -173 -268t-141 -127t-157 -35q-40 0 -78 6l17 107q29 -7 63 -7q82 0 147.5 52.5t141.5 189.5l25 43l-234 1122h143l181 -987l528 987h145z" />
    <glyph glyph-name="z" unicode="z" horiz-adv-x="962" 
d="M961 971l-830 -869h688l-18 -102h-844l16 98l832 873h-629l17 104h786z" />
    <glyph glyph-name="braceleft" unicode="{" horiz-adv-x="608" 
d="M739 1597l-16 -88h-29q-132 0 -174.5 -68.5t-42.5 -262.5q0 -97 -8.5 -167.5t-32 -137t-71 -106.5t-119.5 -52q69 -9 105 -51.5t36 -108.5q0 -95 -72 -295q-39 -106 -51 -152.5t-12 -84.5q0 -99 162 -99h28l-14 -88h-29q-117 0 -179 41t-62 139q0 42 13.5 92t57.5 173
q64 168 64 264q0 113 -139 127l16 90q126 12 170.5 98t44.5 297q-1 125 12.5 204t50 134.5t100 78.5t163.5 23h28z" />
    <glyph glyph-name="bar" unicode="|" horiz-adv-x="512" 
d="M127 -410h-92l360 2048h92z" />
    <glyph glyph-name="braceright" unicode="}" horiz-adv-x="608" 
d="M377 891q0 -115 139 -129l-14 -90q-127 -12 -172 -98.5t-45 -297.5q1 -125 -12.5 -204t-50 -134.5t-100 -78.5t-163.5 -23h-29l17 88h28q132 0 175 69.5t43 262.5q0 97 9 168t32.5 137t71 106t118.5 52q-69 9 -105 51.5t-36 108.5q0 97 71 297q40 108 52 153t12 82
q0 98 -162 98h-29l15 88h28q117 0 179.5 -41t62.5 -139q0 -41 -13.5 -89.5t-58.5 -172.5q-63 -168 -63 -264z" />
    <glyph glyph-name="asciitilde" unicode="~" horiz-adv-x="1204" 
d="M963 725h88q-46 -260 -256 -260q-55 0 -99 17.5t-133 70.5q-71 44 -113 62t-83 18q-60 0 -94 -43.5t-50 -128.5h-86q46 260 252 260q57 0 101 -17.5t133 -70.5q74 -45 114.5 -62.5t81.5 -17.5q61 0 94.5 43t49.5 129z" />
    <glyph glyph-name="exclamdown" unicode="&#xa1;" horiz-adv-x="452" 
d="M293 918q-38 0 -60 20.5t-22 54.5q0 50 34.5 84.5t82.5 34.5q36 0 58 -22t22 -56q0 -50 -34 -83t-81 -33zM211 768h113l-191 -1100h-147z" />
    <glyph glyph-name="cent" unicode="&#xa2;" 
d="M694 1010l-168 -936q111 11 196 78.5t136 185.5h131q-141 -344 -479 -365l-29 -157h-92l29 157q-161 14 -256.5 128.5t-95.5 310.5q0 123 36.5 240.5t104 215.5t174.5 163.5t237 78.5l29 160h92l-28 -158q169 -9 257.5 -111.5t88.5 -271.5h-133q-3 129 -60.5 200.5
t-169.5 80.5zM203 416q0 -154 63.5 -239t167.5 -101l166 932q-116 -17 -207 -101t-140.5 -212.5t-49.5 -278.5z" />
    <glyph glyph-name="sterling" unicode="&#xa3;" horiz-adv-x="1150" 
d="M465 514q0 -131 -59 -227.5t-201 -180.5h743l-18 -106h-942l16 94q69 21 125 54.5t93 73t61.5 86.5t35.5 94t11 96q0 75 -35 178h-170l16 88h123q-35 119 -35 244q0 80 29.5 155.5t84.5 138.5t144.5 101.5t200.5 38.5q82 0 146 -21t105 -57t69 -88.5t41.5 -109.5
t17.5 -126h-135q-8 149 -69.5 224t-196.5 75q-132 0 -215.5 -97t-83.5 -232q0 -69 10.5 -122t34.5 -124h460l-16 -88h-418q27 -100 27 -162z" />
    <glyph glyph-name="currency" unicode="&#xa4;" 
d="M1026 961l-145 -125q47 -80 47 -185q0 -72 -28 -144.5t-81 -129.5l88 -109l-73 -63l-91 108q-97 -65 -233 -65q-121 0 -205 84l-141 -119l-53 66l141 120q-47 80 -47 183q0 72 28 145t82 131l-90 111l74 61l92 -108q99 63 230 63q121 0 206 -82l146 123zM528 338
q92 0 163.5 48t105.5 116.5t34 140.5q0 115 -63.5 183.5t-163.5 68.5q-71 0 -130 -28t-96 -72.5t-57 -98t-20 -106.5q0 -113 63.5 -182.5t163.5 -69.5z" />
    <glyph glyph-name="yen" unicode="&#xa5;" 
d="M702 719h285l-16 -86h-334l-16 -23l-23 -121h348l-14 -88h-348l-72 -401h-127l72 401h-351l17 88h348l23 129l-7 15h-340l15 86h291l-279 694h150l256 -690l501 690h150z" />
    <glyph glyph-name="brokenbar" unicode="&#xa6;" horiz-adv-x="512" 
d="M326 717h-93l123 696h93zM141 -328h-92l123 697h92z" />
    <glyph glyph-name="section" unicode="&#xa7;" horiz-adv-x="1124" 
d="M1063 520q0 -115 -79.5 -202.5t-221.5 -120.5q94 -88 94 -222q0 -148 -121 -239.5t-305 -91.5q-157 0 -264 88t-123 262h133q14 -126 88 -188t185 -62q123 0 196.5 57.5t73.5 161.5q0 95 -67 154t-234 110q-74 24 -129.5 52.5t-104 69t-74.5 98t-26 128.5
q0 112 77.5 200.5t221.5 125.5q-84 84 -84 211q0 62 25 120t71.5 105.5t121.5 76t167 28.5q158 0 250 -89t110 -243h-133q-15 114 -77 172.5t-166 58.5q-106 0 -169 -63.5t-63 -163.5q0 -88 67.5 -143.5t194.5 -91.5q182 -51 273.5 -138t91.5 -221zM639 279
q130 8 208.5 70.5t78.5 160.5q0 95 -70.5 155t-226.5 107q-75 22 -131 51q-128 -12 -202.5 -74t-74.5 -161q0 -98 69 -156t195 -96q70 -20 154 -57z" />
    <glyph glyph-name="dieresis" unicode="&#xa8;" horiz-adv-x="614" 
d="M197 1366q28 0 44.5 -17.5t16.5 -45.5q0 -33 -27.5 -59.5t-60.5 -26.5q-27 0 -44 18t-17 45q0 33 27.5 59.5t60.5 26.5zM444 1366q28 0 46 -17.5t18 -45.5q0 -33 -28 -59.5t-62 -26.5q-27 0 -44.5 18t-17.5 45q0 33 27.5 59.5t60.5 26.5z" />
    <glyph glyph-name="copyright" unicode="&#xa9;" horiz-adv-x="1716" 
d="M858 1509q159 0 302 -61t245.5 -165t162.5 -249t60 -307t-60 -307t-162.5 -249t-245.5 -165t-302 -61t-301 61t-244.5 165t-162.5 249t-60 307t60 307t162.5 249t244.5 165t301 61zM858 1419q-139 0 -263.5 -54t-214 -146t-142 -220.5t-52.5 -271.5t52.5 -271.5t142 -220
t214 -145t263.5 -53.5t264 53.5t215 145t142.5 220t52.5 271.5t-52.5 271.5t-142.5 220.5t-215 146t-264 54zM868 1184q152 0 252.5 -84t126.5 -230h-135q-18 97 -78 153t-166 56q-129 0 -201.5 -97.5t-72.5 -252.5q0 -157 74.5 -254.5t195.5 -97.5q98 0 163 56t83 151h135
q-33 -147 -132.5 -229.5t-260.5 -82.5q-173 0 -285 125t-112 328q0 211 115 335t298 124z" />
    <glyph glyph-name="guillemotleft" unicode="&#xab;" horiz-adv-x="1038" 
d="M340 498l215 -330h-113l-221 340l340 340h131zM637 498l215 -330h-113l-221 340l340 340h131z" />
    <glyph glyph-name="logicalnot" unicode="&#xac;" 
d="M868 430h-90l43 254h-649l14 88h744z" />
    <glyph glyph-name="registered" unicode="&#xae;" horiz-adv-x="1050" 
d="M578 1565q180 0 286.5 -107.5t106.5 -271.5q0 -90 -33.5 -175t-94 -153.5t-156 -110.5t-210.5 -42q-182 0 -287.5 107t-105.5 273q0 89 33.5 173.5t94 153.5t156 111t210.5 42zM489 780q124 0 217.5 60t139 151t45.5 195q0 133 -88 218t-240 85q-93 0 -170.5 -34.5
t-127 -92t-76.5 -129.5t-27 -148q0 -134 88 -219.5t239 -85.5zM600 1348q52 -6 81.5 -35.5t29.5 -75.5q0 -42 -26.5 -72.5t-76.5 -42.5q50 -18 47 -75q-3 -62 15 -115h-88q-11 43 -11 96q0 30 -13 41.5t-42 11.5h-61l-25 -149h-80l74 418h125q35 0 51 -2zM553 1153
q34 3 53 21t19 49q0 50 -52 59q-12 2 -36 2h-48l-22 -133h47q25 0 39 2z" />
    <glyph glyph-name="macron" unicode="&#xaf;" horiz-adv-x="614" 
d="M506 1249h-414l17 82h413z" />
    <glyph glyph-name="degree" unicode="&#xb0;" horiz-adv-x="598" 
d="M465 1534q92 0 149.5 -56t57.5 -139q0 -114 -75 -189t-196 -75q-92 0 -148 55t-56 140q0 113 74 188.5t194 75.5zM455 1446q-69 0 -114.5 -45.5t-45.5 -124.5q0 -55 32 -85t85 -30q69 0 114 46t45 126q0 53 -31.5 83t-84.5 30z" />
    <glyph glyph-name="plusminus" unicode="&#xb1;" 
d="M1012 696l-15 -88h-379l-67 -391h-92l69 391h-376l16 88h375l69 387h90l-67 -387h377zM61 88h844l-14 -88h-846z" />
    <glyph glyph-name="acute" unicode="&#xb4;" horiz-adv-x="614" 
d="M319 1188h-86l166 225h123z" />
    <glyph glyph-name="paragraph" unicode="&#xb6;" horiz-adv-x="1110" 
d="M1118 1413l-291 -1638h-92l275 1550h-215l-275 -1550h-92l156 880h-47q-80 0 -115 2q-83 5 -144 53.5t-89.5 118.5t-28.5 152q0 54 14 110t45 112t76 100t112.5 73.5t147.5 34.5q37 2 117 2h446z" />
    <glyph glyph-name="periodcentered" unicode="&#xb7;" horiz-adv-x="362" 
d="M213 729q39 0 63.5 -23.5t24.5 -60.5q0 -52 -37.5 -88.5t-87.5 -36.5q-39 0 -63.5 23.5t-24.5 60.5q0 52 37.5 88.5t87.5 36.5z" />
    <glyph glyph-name="cedilla" unicode="&#xb8;" horiz-adv-x="614" 
d="M375 12l-74 -102q68 -10 105.5 -50.5t37.5 -99.5q0 -95 -72 -142.5t-188 -47.5q-62 0 -108 16l14 68q43 -14 105 -14q76 0 117.5 30.5t41.5 81.5q0 52 -46.5 77.5t-135.5 16.5l121 170z" />
    <glyph glyph-name="guillemotright" unicode="&#xbb;" horiz-adv-x="1038" 
d="M508 508l-340 -340h-129l350 352l-213 328h111zM805 508l-340 -340h-129l350 352l-213 328h111z" />
    <glyph glyph-name="questiondown" unicode="&#xbf;" horiz-adv-x="1069" 
d="M659 915q-36 0 -58.5 22t-22.5 56q0 49 34.5 83t81.5 34q36 0 59 -22t23 -56q0 -49 -35 -83t-82 -34zM420 -360q-170 0 -266.5 86.5t-96.5 212.5q0 121 62.5 224.5t222.5 248.5q119 110 166 179.5t70 174.5h124q-17 -110 -66.5 -187.5t-182.5 -209.5q-152 -150 -205 -238
t-53 -182q0 -93 65.5 -150t175.5 -57q141 0 236 85t127 243h131q-34 -196 -173 -313t-337 -117z" />
    <glyph glyph-name="Agrave" unicode="&#xc0;" horiz-adv-x="1302" 
d="M819 1507l-117 193h123l78 -193h-84zM956 518h-563l-276 -518h-148l772 1413h183l260 -1413h-137zM938 625l-121 686l-366 -686h487z" />
    <glyph glyph-name="Aacute" unicode="&#xc1;" horiz-adv-x="1302" 
d="M891 1507h-86l143 193h123zM956 518h-563l-276 -518h-148l772 1413h183l260 -1413h-137zM938 625l-121 686l-366 -686h487z" />
    <glyph glyph-name="Acircumflex" unicode="&#xc2;" horiz-adv-x="1302" 
d="M780 1507h-104l168 193h94l104 -193h-104l-57 133zM956 518h-563l-276 -518h-148l772 1413h183l260 -1413h-137zM938 625l-121 686l-366 -686h487z" />
    <glyph glyph-name="Atilde" unicode="&#xc3;" horiz-adv-x="1302" 
d="M764 1589q-33 0 -41 -41h-64q10 65 38.5 93t74.5 28q44 0 121 -27q65 -22 88 -22q33 0 41 41h63q-16 -121 -112 -121q-45 0 -121 27q-65 22 -88 22zM956 518h-563l-276 -518h-148l772 1413h183l260 -1413h-137zM938 625l-121 686l-366 -686h487z" />
    <glyph glyph-name="Adieresis" unicode="&#xc4;" horiz-adv-x="1302" 
d="M743 1530q-28 0 -45.5 17.5t-17.5 43.5q0 35 28 60.5t62 25.5q27 0 44 -17t17 -44q0 -33 -27.5 -59.5t-60.5 -26.5zM975 1530q-27 0 -44.5 17t-17.5 44q0 34 27.5 60t60.5 26q29 0 46.5 -17t17.5 -44q0 -33 -28 -59.5t-62 -26.5zM956 518h-563l-276 -518h-148l772 1413
h183l260 -1413h-137zM938 625l-121 686l-366 -686h487z" />
    <glyph glyph-name="Aring" unicode="&#xc5;" horiz-adv-x="1302" 
d="M856 1470q-67 0 -106 34.5t-39 90.5q0 78 55 125t131 47q67 0 107 -34t40 -88q0 -80 -56 -127.5t-132 -47.5zM893 1704q-44 0 -72 -28t-28 -74q0 -30 18 -49t49 -19q43 0 72 28.5t29 73.5q0 30 -18 49t-50 19zM956 518h-563l-276 -518h-148l772 1413h183l260 -1413h-137z
M938 625l-121 686l-366 -686h487z" />
    <glyph glyph-name="AE" unicode="&#xc6;" horiz-adv-x="1908" 
d="M1163 1309l-67 -549h706l-18 -107h-701l-67 -549h745l-18 -104h-864l63 518h-502l-405 -518h-160l1114 1413h983l-20 -104h-789zM1038 1284l-516 -659h434z" />
    <glyph glyph-name="Ccedilla" unicode="&#xc7;" horiz-adv-x="1452" 
d="M911 1442q247 0 377 -130.5t121 -338.5l-2 -21h-127v21q0 366 -393 366q-126 0 -239.5 -57t-198 -157t-134 -244.5t-49.5 -311.5q0 -243 110.5 -369t299.5 -126q186 0 310 101t192 274l8 20h127l-6 -20q-34 -104 -90 -189t-136 -151t-189.5 -102t-240.5 -36q-28 0 -82 4
l-47 -65q68 -10 106 -50.5t38 -99.5q0 -95 -72 -142.5t-188 -47.5q-63 0 -109 16l12 68q43 -14 105 -14q77 0 118 30.5t41 81.5q0 52 -46 77.5t-136 16.5l105 144q-179 46 -275.5 192.5t-95.5 370.5q-1 191 60 357.5t166 282.5t250.5 182.5t309.5 66.5z" />
    <glyph glyph-name="Egrave" unicode="&#xc8;" horiz-adv-x="1171" 
d="M768 1507l-117 193h123l78 -193h-84zM446 1309l-96 -549h715l-18 -107h-717l-97 -549h791l-18 -104h-918l250 1413h897l-21 -104h-768z" />
    <glyph glyph-name="Eacute" unicode="&#xc9;" horiz-adv-x="1171" 
d="M840 1507h-86l143 193h123zM446 1309l-96 -549h715l-18 -107h-717l-97 -549h791l-18 -104h-918l250 1413h897l-21 -104h-768z" />
    <glyph glyph-name="Ecircumflex" unicode="&#xca;" horiz-adv-x="1171" 
d="M729 1507h-104l168 193h94l104 -193h-104l-58 133zM446 1309l-96 -549h715l-18 -107h-717l-97 -549h791l-18 -104h-918l250 1413h897l-21 -104h-768z" />
    <glyph glyph-name="Edieresis" unicode="&#xcb;" horiz-adv-x="1171" 
d="M692 1530q-28 0 -45.5 17.5t-17.5 43.5q0 35 28 60.5t62 25.5q27 0 44 -17t17 -44q0 -33 -27.5 -59.5t-60.5 -26.5zM924 1530q-28 0 -45 17t-17 44q0 34 27.5 60t60.5 26q29 0 46.5 -17t17.5 -44q0 -33 -28 -59.5t-62 -26.5zM446 1309l-96 -549h715l-18 -107h-717
l-97 -549h791l-18 -104h-918l250 1413h897l-21 -104h-768z" />
    <glyph glyph-name="Igrave" unicode="&#xcc;" horiz-adv-x="452" 
d="M465 1507h-84l-117 193h123zM215 0h-127l250 1413h127z" />
    <glyph glyph-name="Iacute" unicode="&#xcd;" horiz-adv-x="452" 
d="M453 1507h-86l143 193h123zM215 0h-127l250 1413h127z" />
    <glyph glyph-name="Icircumflex" unicode="&#xce;" horiz-adv-x="452" 
d="M604 1507h-104l-58 133l-100 -133h-104l168 193h94zM338 1413h127l-250 -1413h-127z" />
    <glyph glyph-name="Idieresis" unicode="&#xcf;" horiz-adv-x="452" 
d="M332 1677q27 0 44 -17t17 -44q0 -33 -27.5 -59.5t-60.5 -26.5q-28 0 -45.5 17.5t-17.5 43.5q0 35 28 60.5t62 25.5zM563 1677q29 0 46.5 -17t17.5 -44q0 -33 -28 -59.5t-62 -26.5q-27 0 -44.5 17t-17.5 44q0 34 27.5 60t60.5 26zM215 0h-127l250 1413h127z" />
    <glyph glyph-name="Eth" unicode="&#xd0;" horiz-adv-x="1425" 
d="M877 1407q103 -9 191 -49t157.5 -111t109 -182t39.5 -252q0 -116 -30.5 -227t-92 -210.5t-147.5 -177.5t-204.5 -129t-256.5 -63q-74 -6 -182 -6h-373l113 639h-166l14 88h168l121 686h373q105 0 166 -6zM655 115q114 14 210 59t163.5 111.5t114.5 151t69.5 178.5
t22.5 194q0 224 -104.5 347.5t-274.5 143.5q-53 7 -154 7h-256l-102 -580h303l-14 -88h-305l-95 -533h256q86 0 166 9z" />
    <glyph glyph-name="Ntilde" unicode="&#xd1;" horiz-adv-x="1378" 
d="M788 1589q-32 0 -40 -41h-64q10 65 38.5 93t74.5 28q45 0 121 -27q65 -22 88 -22q33 0 41 41h63q-16 -121 -113 -121q-43 0 -120 27q-65 22 -89 22zM1391 1413l-250 -1413h-195l-506 1296l-225 -1296h-127l250 1413h194l502 -1292l230 1292h127z" />
    <glyph glyph-name="Ograve" unicode="&#xd2;" horiz-adv-x="1527" 
d="M895 1507l-117 193h123l78 -193h-84zM913 1442q173 0 302 -80.5t195.5 -219t66.5 -315.5q0 -126 -30.5 -248t-94.5 -232.5t-155 -193.5t-222 -132.5t-285 -49.5q-172 0 -301 80.5t-195.5 219t-66.5 315.5q0 126 30 248t94.5 232.5t155.5 193.5t221.5 132.5t284.5 49.5z
M717 74q119 0 222 45t175.5 120t124 172.5t76 203.5t24.5 212q0 233 -124.5 372.5t-325.5 139.5q-120 0 -223.5 -45t-175.5 -120t-123.5 -172.5t-76 -203.5t-24.5 -212q0 -232 124.5 -372t326.5 -140z" />
    <glyph glyph-name="Oacute" unicode="&#xd3;" horiz-adv-x="1527" 
d="M967 1507h-86l143 193h123zM913 1442q173 0 302 -80.5t195.5 -219t66.5 -315.5q0 -126 -30.5 -248t-94.5 -232.5t-155 -193.5t-222 -132.5t-285 -49.5q-172 0 -301 80.5t-195.5 219t-66.5 315.5q0 126 30 248t94.5 232.5t155.5 193.5t221.5 132.5t284.5 49.5zM717 74
q119 0 222 45t175.5 120t124 172.5t76 203.5t24.5 212q0 233 -124.5 372.5t-325.5 139.5q-120 0 -223.5 -45t-175.5 -120t-123.5 -172.5t-76 -203.5t-24.5 -212q0 -232 124.5 -372t326.5 -140z" />
    <glyph glyph-name="Ocircumflex" unicode="&#xd4;" horiz-adv-x="1527" 
d="M856 1507h-104l168 193h94l104 -193h-104l-58 133zM913 1442q173 0 302 -80.5t195.5 -219t66.5 -315.5q0 -126 -30.5 -248t-94.5 -232.5t-155 -193.5t-222 -132.5t-285 -49.5q-172 0 -301 80.5t-195.5 219t-66.5 315.5q0 126 30 248t94.5 232.5t155.5 193.5t221.5 132.5
t284.5 49.5zM717 74q119 0 222 45t175.5 120t124 172.5t76 203.5t24.5 212q0 233 -124.5 372.5t-325.5 139.5q-120 0 -223.5 -45t-175.5 -120t-123.5 -172.5t-76 -203.5t-24.5 -212q0 -232 124.5 -372t326.5 -140z" />
    <glyph glyph-name="Otilde" unicode="&#xd5;" horiz-adv-x="1527" 
d="M840 1589q-33 0 -41 -41h-64q10 65 38.5 93t74.5 28q44 0 121 -27q65 -22 88 -22q33 0 41 41h63q-16 -121 -112 -121q-45 0 -121 27q-65 22 -88 22zM913 1442q173 0 302 -80.5t195.5 -219t66.5 -315.5q0 -126 -30.5 -248t-94.5 -232.5t-155 -193.5t-222 -132.5
t-285 -49.5q-172 0 -301 80.5t-195.5 219t-66.5 315.5q0 126 30 248t94.5 232.5t155.5 193.5t221.5 132.5t284.5 49.5zM717 74q119 0 222 45t175.5 120t124 172.5t76 203.5t24.5 212q0 233 -124.5 372.5t-325.5 139.5q-120 0 -223.5 -45t-175.5 -120t-123.5 -172.5
t-76 -203.5t-24.5 -212q0 -232 124.5 -372t326.5 -140z" />
    <glyph glyph-name="Odieresis" unicode="&#xd6;" horiz-adv-x="1527" 
d="M819 1530q-28 0 -45.5 17.5t-17.5 43.5q0 35 28 60.5t62 25.5q27 0 44 -17t17 -44q0 -33 -27.5 -59.5t-60.5 -26.5zM1051 1530q-27 0 -44.5 17t-17.5 44q0 34 27.5 60t60.5 26q29 0 46.5 -17t17.5 -44q0 -33 -28 -59.5t-62 -26.5zM913 1442q173 0 302 -80.5t195.5 -219
t66.5 -315.5q0 -126 -30.5 -248t-94.5 -232.5t-155 -193.5t-222 -132.5t-285 -49.5q-172 0 -301 80.5t-195.5 219t-66.5 315.5q0 126 30 248t94.5 232.5t155.5 193.5t221.5 132.5t284.5 49.5zM717 74q119 0 222 45t175.5 120t124 172.5t76 203.5t24.5 212
q0 233 -124.5 372.5t-325.5 139.5q-120 0 -223.5 -45t-175.5 -120t-123.5 -172.5t-76 -203.5t-24.5 -212q0 -232 124.5 -372t326.5 -140z" />
    <glyph glyph-name="multiply" unicode="&#xd7;" 
d="M639 637l235 -287l-75 -63l-236 286l-344 -292l-63 75l344 293l-236 287l76 63l235 -286l345 293l63 -76z" />
    <glyph glyph-name="Oslash" unicode="&#xd8;" horiz-adv-x="1521" 
d="M1577 1313l-174 -150q78 -144 78 -336q0 -126 -30.5 -248t-94.5 -232.5t-155 -193.5t-222 -132.5t-285 -49.5q-145 0 -257.5 55.5t-186.5 157.5l-174 -149l-56 65l185 158q-74 139 -74 328q0 126 30.5 248t94.5 232.5t155 193.5t222 132.5t285 49.5q142 0 253 -53.5
t185 -151.5l168 141zM268 586q0 -137 43 -238l944 803q-59 90 -153 139t-211 49q-119 0 -222.5 -45t-175.5 -120t-124 -172.5t-76.5 -203.5t-24.5 -212zM1341 827q0 140 -47 246l-944 -805q59 -93 154 -143.5t215 -50.5t223 45t175 120t123.5 172.5t76 203.5t24.5 212z" />
    <glyph glyph-name="Ugrave" unicode="&#xd9;" horiz-adv-x="1335" 
d="M909 1507h-84l-116 193h122zM1348 1413l-160 -903q-11 -63 -27 -131q-100 -408 -565 -408q-209 0 -318.5 98t-109.5 273q0 84 18 176l158 895h127l-156 -887q-20 -117 -20 -180q0 -124 80 -198t239 -74q175 0 278.5 80.5t145.5 240.5q17 66 27 125l156 893h127z" />
    <glyph glyph-name="Uacute" unicode="&#xda;" horiz-adv-x="1335" 
d="M897 1507h-86l143 193h123zM1348 1413l-160 -903q-11 -63 -27 -131q-100 -408 -565 -408q-209 0 -318.5 98t-109.5 273q0 84 18 176l158 895h127l-156 -887q-20 -117 -20 -180q0 -124 80 -198t239 -74q175 0 278.5 80.5t145.5 240.5q17 66 27 125l156 893h127z" />
    <glyph glyph-name="Ucircumflex" unicode="&#xdb;" horiz-adv-x="1335" 
d="M786 1507h-104l168 193h94l105 -193h-105l-57 133zM1348 1413l-160 -903q-11 -63 -27 -131q-100 -408 -565 -408q-209 0 -318.5 98t-109.5 273q0 84 18 176l158 895h127l-156 -887q-20 -117 -20 -180q0 -124 80 -198t239 -74q175 0 278.5 80.5t145.5 240.5q17 66 27 125
l156 893h127z" />
    <glyph glyph-name="Udieresis" unicode="&#xdc;" horiz-adv-x="1335" 
d="M776 1677q28 0 45 -17.5t17 -43.5q0 -33 -27.5 -59.5t-60.5 -26.5q-28 0 -46 17.5t-18 43.5q0 35 28 60.5t62 25.5zM1008 1677q29 0 46 -17t17 -44q0 -33 -28 -59.5t-62 -26.5q-27 0 -44 17t-17 44q0 34 27.5 60t60.5 26zM1348 1413l-160 -903q-11 -63 -27 -131
q-100 -408 -565 -408q-209 0 -318.5 98t-109.5 273q0 84 18 176l158 895h127l-156 -887q-20 -117 -20 -180q0 -124 80 -198t239 -74q175 0 278.5 80.5t145.5 240.5q17 66 27 125l156 893h127z" />
    <glyph glyph-name="Yacute" unicode="&#xdd;" horiz-adv-x="1163" 
d="M811 1507h-86l143 193h123zM670 551l-97 -551h-127l99 559l-348 854h133l297 -739l547 739h151z" />
    <glyph glyph-name="Thorn" unicode="&#xde;" horiz-adv-x="1191" 
d="M889 1200q135 -18 214 -91.5t79 -201.5q0 -41 -8 -80q-20 -113 -81.5 -197t-147 -130t-189.5 -60q-68 -8 -195 -8h-270l-76 -432h-127l250 1413h127l-37 -203h270q112 0 191 -10zM1038 823q4 23 4 62q0 172 -192 207q-59 10 -170 10h-270l-99 -561h271q110 0 174 10
q108 16 183.5 82t98.5 190z" />
    <glyph glyph-name="germandbls" unicode="&#xdf;" horiz-adv-x="1138" 
d="M766 1544q172 0 268 -82.5t96 -218.5q0 -140 -96 -260q-112 -52 -156 -98t-44 -109q0 -44 19 -80.5t69 -89.5q71 -71 107 -137t36 -145q0 -62 -27 -120t-78 -106t-136.5 -77t-192.5 -29q-110 0 -205 22l18 105q111 -27 199 -27q74 0 131 21t89 55.5t47.5 72.5t15.5 78
q0 106 -111 222q-66 71 -91.5 119t-25.5 112q0 83 54 149t178 126q63 90 63 194q0 93 -62.5 147t-178.5 54q-316 0 -394 -438l-176 -1004h-127l174 991q17 93 40 168t65.5 149t98.5 124t141 81t192 31z" />
    <glyph glyph-name="agrave" unicode="&#xe0;" horiz-adv-x="1028" 
d="M625 1188l-123 225h123l86 -225h-86zM629 1112q163 0 245 -71.5t82 -194.5q0 -41 -18 -160l-70 -383q-21 -126 -32 -303h-129l18 195l-72 -101q-117 -123 -321 -123q-124 0 -208.5 70.5t-84.5 202.5q0 115 60.5 199.5t167 130t242 62.5t294.5 5l6 41q18 98 18 147
q0 181 -202 181q-267 0 -330 -248h-131q34 161 158.5 255.5t306.5 94.5zM387 72q129 0 240 102t137 244l22 127q-175 18 -312.5 -9.5t-217.5 -99.5t-80 -180q0 -87 57.5 -135.5t153.5 -48.5z" />
    <glyph glyph-name="aacute" unicode="&#xe1;" horiz-adv-x="1028" 
d="M692 1188h-86l166 225h123zM629 1112q163 0 245 -71.5t82 -194.5q0 -41 -18 -160l-70 -383q-21 -126 -32 -303h-129l18 195l-72 -101q-117 -123 -321 -123q-124 0 -208.5 70.5t-84.5 202.5q0 115 60.5 199.5t167 130t242 62.5t294.5 5l6 41q18 98 18 147q0 181 -202 181
q-267 0 -330 -248h-131q34 161 158.5 255.5t306.5 94.5zM387 72q129 0 240 102t137 244l22 127q-175 18 -312.5 -9.5t-217.5 -99.5t-80 -180q0 -87 57.5 -135.5t153.5 -48.5z" />
    <glyph glyph-name="acircumflex" unicode="&#xe2;" horiz-adv-x="1028" 
d="M578 1188h-99l176 225h95l94 -225h-101l-53 153zM629 1112q163 0 245 -71.5t82 -194.5q0 -41 -18 -160l-70 -383q-21 -126 -32 -303h-129l18 195l-72 -101q-117 -123 -321 -123q-124 0 -208.5 70.5t-84.5 202.5q0 115 60.5 199.5t167 130t242 62.5t294.5 5l6 41
q18 98 18 147q0 181 -202 181q-267 0 -330 -248h-131q34 161 158.5 255.5t306.5 94.5zM387 72q129 0 240 102t137 244l22 127q-175 18 -312.5 -9.5t-217.5 -99.5t-80 -180q0 -87 57.5 -135.5t153.5 -48.5z" />
    <glyph glyph-name="atilde" unicode="&#xe3;" horiz-adv-x="1028" 
d="M571 1292q-33 0 -41 -41h-63q10 66 38 94.5t75 28.5q46 0 120 -26q68 -23 88 -23q33 0 41 41h64q-16 -123 -113 -123q-44 0 -121 27q-65 22 -88 22zM629 1112q163 0 245 -71.5t82 -194.5q0 -41 -18 -160l-70 -383q-21 -126 -32 -303h-129l18 195l-72 -101
q-117 -123 -321 -123q-124 0 -208.5 70.5t-84.5 202.5q0 115 60.5 199.5t167 130t242 62.5t294.5 5l6 41q18 98 18 147q0 181 -202 181q-267 0 -330 -248h-131q34 161 158.5 255.5t306.5 94.5zM387 72q129 0 240 102t137 244l22 127q-175 18 -312.5 -9.5t-217.5 -99.5
t-80 -180q0 -87 57.5 -135.5t153.5 -48.5z" />
    <glyph glyph-name="adieresis" unicode="&#xe4;" horiz-adv-x="1028" 
d="M539 1217q-27 0 -44.5 18t-17.5 45q0 33 27.5 59.5t60.5 26.5q28 0 45 -17.5t17 -45.5q0 -33 -27.5 -59.5t-60.5 -26.5zM786 1217q-27 0 -44 18t-17 45q0 33 27.5 59.5t60.5 26.5q28 0 46 -17.5t18 -45.5q0 -33 -28.5 -59.5t-62.5 -26.5zM629 1112q163 0 245 -71.5
t82 -194.5q0 -41 -18 -160l-70 -383q-21 -126 -32 -303h-129l18 195l-72 -101q-117 -123 -321 -123q-124 0 -208.5 70.5t-84.5 202.5q0 115 60.5 199.5t167 130t242 62.5t294.5 5l6 41q18 98 18 147q0 181 -202 181q-267 0 -330 -248h-131q34 161 158.5 255.5t306.5 94.5z
M387 72q129 0 240 102t137 244l22 127q-175 18 -312.5 -9.5t-217.5 -99.5t-80 -180q0 -87 57.5 -135.5t153.5 -48.5z" />
    <glyph glyph-name="aring" unicode="&#xe5;" horiz-adv-x="1028" 
d="M655 1163q-63 0 -102 34t-39 91q0 78 58 131.5t139 53.5q62 0 100.5 -34t38.5 -91q0 -80 -57.5 -132.5t-137.5 -52.5zM698 1411q-43 0 -71.5 -33t-28.5 -82q0 -34 18 -52.5t50 -18.5q43 0 71.5 32t28.5 82q0 33 -18 52.5t-50 19.5zM629 1112q163 0 245 -71.5t82 -194.5
q0 -41 -18 -160l-70 -383q-21 -126 -32 -303h-129l18 195l-72 -101q-117 -123 -321 -123q-124 0 -208.5 70.5t-84.5 202.5q0 115 60.5 199.5t167 130t242 62.5t294.5 5l6 41q18 98 18 147q0 181 -202 181q-267 0 -330 -248h-131q34 161 158.5 255.5t306.5 94.5zM387 72
q129 0 240 102t137 244l22 127q-175 18 -312.5 -9.5t-217.5 -99.5t-80 -180q0 -87 57.5 -135.5t153.5 -48.5z" />
    <glyph glyph-name="ae" unicode="&#xe6;" horiz-adv-x="1841" 
d="M1761 504h-821q-8 -74 -8 -105q0 -165 77 -246t205 -81q118 0 220.5 70.5t154.5 199.5h131q-69 -181 -213.5 -276t-316.5 -95q-152 0 -245.5 72t-123.5 205l-71 -115q-89 -88 -181.5 -125t-220.5 -37q-136 0 -224.5 67.5t-88.5 186.5q0 183 178 282t549 99h69
q21 126 21 174q0 234 -227 234q-120 0 -206.5 -63t-117.5 -185h-131q34 158 162.5 253t308.5 95q294 0 332 -221q82 106 195.5 163.5t240.5 57.5q188 0 284.5 -111t96.5 -296q0 -103 -29 -203zM1389 1014q-150 0 -266.5 -106t-164.5 -304h695q5 58 6 115.5t-16 111t-46 94
t-82.5 65t-125.5 24.5zM395 72q148 0 263 102.5t145 269.5l10 60q-37 2 -108 2q-529 0 -529 -262q0 -80 58.5 -126t160.5 -46z" />
    <glyph glyph-name="ccedilla" unicode="&#xe7;" horiz-adv-x="1077" 
d="M469 72q125 0 222.5 68t152.5 198h131q-144 -355 -500 -367l-45 -61q68 -10 105.5 -50.5t37.5 -99.5q0 -95 -72 -142.5t-188 -47.5q-62 0 -108 16l14 68q43 -14 105 -14q76 0 117.5 30.5t41.5 81.5q0 52 -46.5 77.5t-135.5 16.5l90 129q-155 18 -247.5 131.5t-92.5 305.5
q0 133 41 257.5t116 223.5t193.5 159t262.5 60q183 0 279.5 -103t96.5 -280h-133q-3 138 -70 210.5t-198 72.5q-129 0 -233 -79t-161 -215t-57 -302q0 -172 78 -258t203 -86z" />
    <glyph glyph-name="egrave" unicode="&#xe8;" horiz-adv-x="1091" 
d="M635 1188l-123 225h123l86 -225h-86zM1014 504h-819q-7 -58 -7 -94q0 -170 79 -254t204 -84q118 0 218.5 70t152.5 200h131q-47 -125 -132 -210t-184 -123t-211 -38q-180 0 -287.5 113t-107.5 322q0 94 21.5 190.5t69.5 189.5t116 165t169.5 116.5t221.5 44.5
q188 0 289.5 -112t101.5 -295q0 -112 -26 -201zM629 1010q-87 0 -159.5 -34.5t-122 -94t-82 -128.5t-52.5 -149h692q6 53 6 94q0 156 -76 234t-206 78z" />
    <glyph glyph-name="eacute" unicode="&#xe9;" horiz-adv-x="1091" 
d="M702 1188h-86l166 225h123zM1014 504h-819q-7 -58 -7 -94q0 -170 79 -254t204 -84q118 0 218.5 70t152.5 200h131q-47 -125 -132 -210t-184 -123t-211 -38q-180 0 -287.5 113t-107.5 322q0 94 21.5 190.5t69.5 189.5t116 165t169.5 116.5t221.5 44.5q188 0 289.5 -112
t101.5 -295q0 -112 -26 -201zM629 1010q-87 0 -159.5 -34.5t-122 -94t-82 -128.5t-52.5 -149h692q6 53 6 94q0 156 -76 234t-206 78z" />
    <glyph glyph-name="ecircumflex" unicode="&#xea;" horiz-adv-x="1091" 
d="M588 1188h-99l177 225h94l94 -225h-100l-54 153zM1014 504h-819q-7 -58 -7 -94q0 -170 79 -254t204 -84q118 0 218.5 70t152.5 200h131q-47 -125 -132 -210t-184 -123t-211 -38q-180 0 -287.5 113t-107.5 322q0 94 21.5 190.5t69.5 189.5t116 165t169.5 116.5t221.5 44.5
q188 0 289.5 -112t101.5 -295q0 -112 -26 -201zM629 1010q-87 0 -159.5 -34.5t-122 -94t-82 -128.5t-52.5 -149h692q6 53 6 94q0 156 -76 234t-206 78z" />
    <glyph glyph-name="edieresis" unicode="&#xeb;" horiz-adv-x="1091" 
d="M549 1217q-27 0 -44.5 18t-17.5 45q0 33 27.5 59.5t60.5 26.5q28 0 45 -17.5t17 -45.5q0 -33 -27.5 -59.5t-60.5 -26.5zM797 1217q-27 0 -44.5 18t-17.5 45q0 33 27.5 59.5t60.5 26.5q28 0 46 -17.5t18 -45.5q0 -33 -28 -59.5t-62 -26.5zM1014 504h-819q-7 -58 -7 -94
q0 -170 79 -254t204 -84q118 0 218.5 70t152.5 200h131q-47 -125 -132 -210t-184 -123t-211 -38q-180 0 -287.5 113t-107.5 322q0 94 21.5 190.5t69.5 189.5t116 165t169.5 116.5t221.5 44.5q188 0 289.5 -112t101.5 -295q0 -112 -26 -201zM629 1010q-87 0 -159.5 -34.5
t-122 -94t-82 -128.5t-52.5 -149h692q6 53 6 94q0 156 -76 234t-206 78z" />
    <glyph glyph-name="igrave" unicode="&#xec;" horiz-adv-x="425" 
d="M381 1188h-86l-123 225h123zM182 0h-127l191 1083h127z" />
    <glyph glyph-name="iacute" unicode="&#xed;" horiz-adv-x="425" 
d="M362 1188h-86l166 225h123zM182 0h-127l191 1083h127z" />
    <glyph glyph-name="icircumflex" unicode="&#xee;" horiz-adv-x="425" 
d="M514 1188h-100l-54 153l-112 -153h-98l176 225h94zM246 1083h127l-191 -1083h-127z" />
    <glyph glyph-name="idieresis" unicode="&#xef;" horiz-adv-x="425" 
d="M236 1366q28 0 44.5 -17.5t16.5 -45.5q0 -33 -27.5 -59.5t-60.5 -26.5q-27 0 -44.5 18t-17.5 45q0 33 28 59.5t61 26.5zM483 1366q28 0 46 -17.5t18 -45.5q0 -33 -28 -59.5t-62 -26.5q-27 0 -44.5 18t-17.5 45q0 33 27.5 59.5t60.5 26.5zM182 0h-127l191 1083h127z" />
    <glyph glyph-name="eth" unicode="&#xf0;" horiz-adv-x="1177" 
d="M1112 1384l-141 -55q98 -167 98 -549q0 -126 -21.5 -241.5t-70 -220t-118.5 -181t-174 -121.5t-230 -45q-129 0 -222 61t-137.5 161t-44.5 225q0 87 21.5 180.5t69 186t115 165.5t167.5 118.5t217 45.5q144 0 240 -72l63 -112q-10 243 -84 358l-307 -119l-29 78l281 109
q-59 56 -162 94l90 76q116 -46 189 -125l161 61zM467 72q97 0 177 40t132 104.5t87.5 149t51 170t15.5 171.5q0 148 -83 227.5t-210 79.5q-90 0 -166.5 -38.5t-127.5 -100t-87 -140.5t-52 -159t-16 -156q0 -170 76 -259t203 -89z" />
    <glyph glyph-name="ntilde" unicode="&#xf1;" horiz-adv-x="1169" 
d="M618 1292q-32 0 -40 -41h-64q10 66 38 94.5t75 28.5t121 -26q68 -23 88 -23q33 0 41 41h63q-16 -123 -113 -123q-43 0 -120 27q-65 22 -89 22zM739 1112q158 0 242 -76t84 -209q0 -75 -25 -221l-110 -606h-127l106 592q25 141 25 201q0 101 -57.5 158.5t-178.5 56.5
q-72 -1 -136 -27.5t-121.5 -80t-100.5 -145.5t-64 -214v-2l-94 -539h-127l191 1083h127l-37 -206l80 118q139 117 323 117z" />
    <glyph glyph-name="ograve" unicode="&#xf2;" horiz-adv-x="1175" 
d="M668 1188l-123 225h123l86 -225h-86zM668 1112q114 0 202.5 -38t142 -104.5t80.5 -150.5t27 -182q0 -89 -22 -179.5t-70.5 -178.5t-118 -156t-173.5 -110t-228 -42q-115 0 -203.5 38t-142 104t-80.5 150.5t-27 182.5q0 73 16 148.5t47 150.5t82.5 141t117 116.5t156 80
t194.5 29.5zM524 72q88 0 163.5 34t128.5 90.5t91 129.5t56 152t18 157q0 169 -87.5 272t-242.5 103q-88 0 -164 -34t-128.5 -90.5t-90.5 -129.5t-55.5 -151t-17.5 -156q0 -170 87 -273.5t242 -103.5z" />
    <glyph glyph-name="oacute" unicode="&#xf3;" horiz-adv-x="1175" 
d="M735 1188h-86l166 225h123zM668 1112q114 0 202.5 -38t142 -104.5t80.5 -150.5t27 -182q0 -89 -22 -179.5t-70.5 -178.5t-118 -156t-173.5 -110t-228 -42q-115 0 -203.5 38t-142 104t-80.5 150.5t-27 182.5q0 73 16 148.5t47 150.5t82.5 141t117 116.5t156 80t194.5 29.5
zM524 72q88 0 163.5 34t128.5 90.5t91 129.5t56 152t18 157q0 169 -87.5 272t-242.5 103q-88 0 -164 -34t-128.5 -90.5t-90.5 -129.5t-55.5 -151t-17.5 -156q0 -170 87 -273.5t242 -103.5z" />
    <glyph glyph-name="ocircumflex" unicode="&#xf4;" horiz-adv-x="1175" 
d="M621 1188h-99l176 225h95l94 -225h-101l-53 153zM668 1112q114 0 202.5 -38t142 -104.5t80.5 -150.5t27 -182q0 -89 -22 -179.5t-70.5 -178.5t-118 -156t-173.5 -110t-228 -42q-115 0 -203.5 38t-142 104t-80.5 150.5t-27 182.5q0 73 16 148.5t47 150.5t82.5 141
t117 116.5t156 80t194.5 29.5zM524 72q88 0 163.5 34t128.5 90.5t91 129.5t56 152t18 157q0 169 -87.5 272t-242.5 103q-88 0 -164 -34t-128.5 -90.5t-90.5 -129.5t-55.5 -151t-17.5 -156q0 -170 87 -273.5t242 -103.5z" />
    <glyph glyph-name="otilde" unicode="&#xf5;" horiz-adv-x="1175" 
d="M614 1292q-33 0 -41 -41h-63q10 66 38 94.5t75 28.5q46 0 120 -26q68 -23 88 -23q33 0 41 41h64q-16 -123 -113 -123q-45 0 -121 27q-65 22 -88 22zM668 1112q114 0 202.5 -38t142 -104.5t80.5 -150.5t27 -182q0 -89 -22 -179.5t-70.5 -178.5t-118 -156t-173.5 -110
t-228 -42q-115 0 -203.5 38t-142 104t-80.5 150.5t-27 182.5q0 73 16 148.5t47 150.5t82.5 141t117 116.5t156 80t194.5 29.5zM524 72q88 0 163.5 34t128.5 90.5t91 129.5t56 152t18 157q0 169 -87.5 272t-242.5 103q-88 0 -164 -34t-128.5 -90.5t-90.5 -129.5t-55.5 -151
t-17.5 -156q0 -170 87 -273.5t242 -103.5z" />
    <glyph glyph-name="odieresis" unicode="&#xf6;" horiz-adv-x="1175" 
d="M582 1217q-27 0 -44.5 18t-17.5 45q0 33 27.5 59.5t60.5 26.5q28 0 45 -17.5t17 -45.5q0 -33 -27.5 -59.5t-60.5 -26.5zM829 1217q-27 0 -44 18t-17 45q0 33 27.5 59.5t60.5 26.5q28 0 46 -17.5t18 -45.5q0 -33 -28.5 -59.5t-62.5 -26.5zM668 1112q114 0 202.5 -38
t142 -104.5t80.5 -150.5t27 -182q0 -89 -22 -179.5t-70.5 -178.5t-118 -156t-173.5 -110t-228 -42q-115 0 -203.5 38t-142 104t-80.5 150.5t-27 182.5q0 73 16 148.5t47 150.5t82.5 141t117 116.5t156 80t194.5 29.5zM524 72q88 0 163.5 34t128.5 90.5t91 129.5t56 152
t18 157q0 169 -87.5 272t-242.5 103q-88 0 -164 -34t-128.5 -90.5t-90.5 -129.5t-55.5 -151t-17.5 -156q0 -170 87 -273.5t242 -103.5z" />
    <glyph glyph-name="divide" unicode="&#xf7;" 
d="M645 1065q35 0 56.5 -20.5t21.5 -53.5q0 -45 -33 -77.5t-78 -32.5q-35 0 -55 21t-20 54q0 45 32.5 77t75.5 32zM985 608h-846l17 88h843zM532 418q35 0 55.5 -21.5t20.5 -54.5q0 -45 -32.5 -77t-75.5 -32q-35 0 -56.5 20.5t-21.5 53.5q0 45 33 78t77 33z" />
    <glyph glyph-name="oslash" unicode="&#xf8;" horiz-adv-x="1273" 
d="M1288 1051l-196 -166q53 -106 53 -248q0 -89 -21.5 -179.5t-70.5 -178.5t-118 -156t-173.5 -110t-229.5 -42q-225 0 -346 144l-168 -144l-53 64l176 149q-59 109 -59 262q0 89 21.5 179t70 178.5t117.5 156.5t173 110t228 42q234 0 357 -156l186 158zM219 449
q0 -93 29 -175l698 594q-89 142 -270 142q-88 0 -163.5 -34t-128.5 -90.5t-91 -129.5t-56 -151t-18 -156zM1006 635q0 83 -25 156l-694 -590q87 -129 264 -129q109 0 198 51.5t143.5 134.5t84 180.5t29.5 196.5z" />
    <glyph glyph-name="ugrave" unicode="&#xf9;" horiz-adv-x="1159" 
d="M647 1188l-123 225h123l86 -225h-86zM1106 1083l-188 -1083h-127l36 209l-82 -121q-74 -63 -151.5 -90t-171.5 -27q-158 0 -242 76t-84 209q0 81 27 221l108 606h127l-106 -591q-23 -132 -23 -203q0 -100 57 -158t177 -57q72 2 136.5 28.5t121.5 81t100 146.5t64 215
l94 538h127z" />
    <glyph glyph-name="uacute" unicode="&#xfa;" horiz-adv-x="1159" 
d="M715 1188h-86l166 225h123zM1106 1083l-188 -1083h-127l36 209l-82 -121q-74 -63 -151.5 -90t-171.5 -27q-158 0 -242 76t-84 209q0 81 27 221l108 606h127l-106 -591q-23 -132 -23 -203q0 -100 57 -158t177 -57q72 2 136.5 28.5t121.5 81t100 146.5t64 215l94 538h127z
" />
    <glyph glyph-name="ucircumflex" unicode="&#xfb;" horiz-adv-x="1159" 
d="M600 1188h-98l176 225h94l94 -225h-100l-53 153zM1106 1083l-188 -1083h-127l36 209l-82 -121q-74 -63 -151.5 -90t-171.5 -27q-158 0 -242 76t-84 209q0 81 27 221l108 606h127l-106 -591q-23 -132 -23 -203q0 -100 57 -158t177 -57q72 2 136.5 28.5t121.5 81t100 146.5
t64 215l94 538h127z" />
    <glyph glyph-name="udieresis" unicode="&#xfc;" horiz-adv-x="1159" 
d="M563 1217q-27 0 -44 18t-17 45q0 33 27.5 59.5t60.5 26.5q28 0 44.5 -17.5t16.5 -45.5q0 -33 -27.5 -59.5t-60.5 -26.5zM811 1217q-27 0 -44 18t-17 45q0 33 27.5 59.5t60.5 26.5q28 0 45.5 -17.5t17.5 -45.5q0 -33 -28 -59.5t-62 -26.5zM1106 1083l-188 -1083h-127
l36 209l-82 -121q-74 -63 -151.5 -90t-171.5 -27q-158 0 -242 76t-84 209q0 81 27 221l108 606h127l-106 -591q-23 -132 -23 -203q0 -100 57 -158t177 -57q72 2 136.5 28.5t121.5 81t100 146.5t64 215l94 538h127z" />
    <glyph glyph-name="yacute" unicode="&#xfd;" horiz-adv-x="995" 
d="M633 1188h-86l166 225h123zM1085 1083l-608 -1083q-99 -176 -173 -268t-141 -127t-157 -35q-40 0 -78 6l17 107q29 -7 63 -7q82 0 147.5 52.5t141.5 189.5l25 43l-234 1122h143l181 -987l528 987h145z" />
    <glyph glyph-name="thorn" unicode="&#xfe;" horiz-adv-x="1206" 
d="M758 1112q188 0 291.5 -123t103.5 -317q0 -103 -23.5 -202t-74 -190t-122.5 -159.5t-177 -109t-230 -40.5q-83 0 -153 28.5t-111 80.5l-45 121l-106 -602h-127l340 1906h127l-111 -620l92 116q129 111 326 111zM543 72q113 0 205 51.5t149.5 136.5t88 190t30.5 216
q0 156 -75.5 250t-217.5 94q-159 0 -278.5 -107t-161.5 -336l-15 -82q-20 -115 1 -206.5t91.5 -149t182.5 -57.5z" />
    <glyph glyph-name="ydieresis" unicode="&#xff;" horiz-adv-x="995" 
d="M479 1217q-27 0 -44 18t-17 45q0 33 27.5 59.5t60.5 26.5q28 0 44.5 -17.5t16.5 -45.5q0 -33 -27.5 -59.5t-60.5 -26.5zM727 1217q-27 0 -44 18t-17 45q0 33 27.5 59.5t60.5 26.5q28 0 45.5 -17.5t17.5 -45.5q0 -33 -28 -59.5t-62 -26.5zM1085 1083l-608 -1083
q-99 -176 -173 -268t-141 -127t-157 -35q-40 0 -78 6l17 107q29 -7 63 -7q82 0 147.5 52.5t141.5 189.5l25 43l-234 1122h143l181 -987l528 987h145z" />
    <glyph glyph-name="Amacron" unicode="&#x100;" horiz-adv-x="1302" 
d="M1071 1563h-414l17 82h413zM956 518h-563l-276 -518h-148l772 1413h183l260 -1413h-137zM938 625l-121 686l-366 -686h487z" />
    <glyph glyph-name="amacron" unicode="&#x101;" horiz-adv-x="1028" 
d="M877 1249h-414l16 82h414zM629 1112q163 0 245 -71.5t82 -194.5q0 -41 -18 -160l-70 -383q-21 -126 -32 -303h-129l18 195l-72 -101q-117 -123 -321 -123q-124 0 -208.5 70.5t-84.5 202.5q0 115 60.5 199.5t167 130t242 62.5t294.5 5l6 41q18 98 18 147q0 181 -202 181
q-267 0 -330 -248h-131q34 161 158.5 255.5t306.5 94.5zM387 72q129 0 240 102t137 244l22 127q-175 18 -312.5 -9.5t-217.5 -99.5t-80 -180q0 -87 57.5 -135.5t153.5 -48.5z" />
    <glyph glyph-name="Abreve" unicode="&#x102;" horiz-adv-x="1302" 
d="M850 1479q-96 0 -135 60.5t-23 160.5h80q-17 -135 92 -135q113 0 146 135h82q-45 -221 -242 -221zM956 518h-563l-276 -518h-148l772 1413h183l260 -1413h-137zM938 625l-121 686l-366 -686h487z" />
    <glyph glyph-name="abreve" unicode="&#x103;" horiz-adv-x="1028" 
d="M653 1163q-198 0 -155 250h82q-10 -83 9 -123.5t81 -40.5q111 0 147 164h82q-48 -250 -246 -250zM629 1112q163 0 245 -71.5t82 -194.5q0 -41 -18 -160l-70 -383q-21 -126 -32 -303h-129l18 195l-72 -101q-117 -123 -321 -123q-124 0 -208.5 70.5t-84.5 202.5
q0 115 60.5 199.5t167 130t242 62.5t294.5 5l6 41q18 98 18 147q0 181 -202 181q-267 0 -330 -248h-131q34 161 158.5 255.5t306.5 94.5zM387 72q129 0 240 102t137 244l22 127q-175 18 -312.5 -9.5t-217.5 -99.5t-80 -180q0 -87 57.5 -135.5t153.5 -48.5z" />
    <glyph glyph-name="Aogonek" unicode="&#x104;" horiz-adv-x="1302" 
d="M1184 0h-41q-118 -37 -191 -120.5t-73 -166.5q0 -86 75 -86q66 0 129 49l-14 -75q-74 -58 -176 -58q-61 0 -102 34t-41 104q0 100 75 189.5t217 147.5l-86 500h-563l-276 -518h-148l772 1413h183zM938 625l-121 686l-366 -686h487z" />
    <glyph glyph-name="aogonek" unicode="&#x105;" horiz-adv-x="1028" 
d="M629 1112q163 0 245 -71.5t82 -194.5q0 -41 -18 -160l-70 -383q-21 -126 -32 -303h-29q-118 -37 -191 -120.5t-73 -166.5q0 -86 75 -86q67 0 130 49l-15 -75q-74 -58 -176 -58q-61 0 -102 34t-41 104q0 100 75.5 189.5t219.5 149.5l16 175l-72 -101q-117 -123 -321 -123
q-124 0 -208.5 70.5t-84.5 202.5q0 115 60.5 199.5t167 130t242 62.5t294.5 5l6 41q18 98 18 147q0 181 -202 181q-267 0 -330 -248h-131q34 161 158.5 255.5t306.5 94.5zM387 72q129 0 240 102t137 244l22 127q-175 18 -312.5 -9.5t-217.5 -99.5t-80 -180
q0 -87 57.5 -135.5t153.5 -48.5z" />
    <glyph glyph-name="Cacute" unicode="&#x106;" horiz-adv-x="1452" 
d="M954 1507h-86l144 193h123zM911 1442q247 0 377 -130.5t121 -338.5l-2 -21h-127v21q0 366 -393 366q-126 0 -239.5 -57t-198 -157t-134 -244.5t-49.5 -311.5q0 -243 110.5 -369t299.5 -126q186 0 310 101t192 274l8 20h127l-6 -20q-34 -104 -90 -189t-136 -151
t-189.5 -102t-240.5 -36q-249 0 -388.5 156t-137.5 426q-1 191 60 357.5t166 282.5t250.5 182.5t309.5 66.5z" />
    <glyph glyph-name="cacute" unicode="&#x107;" horiz-adv-x="1077" 
d="M698 1188h-86l166 225h123zM664 1112q183 0 279.5 -103t96.5 -280h-133q-3 138 -70 210.5t-198 72.5q-129 0 -233 -79t-161 -215t-57 -302q0 -172 78 -258t203 -86t222.5 68t152.5 198h131q-150 -367 -526 -367q-178 0 -288 115.5t-110 325.5q0 133 41 257.5t116 223.5
t193.5 159t262.5 60z" />
    <glyph glyph-name="Cdotaccent" unicode="&#x10a;" horiz-adv-x="1452" 
d="M950 1677q28 0 45 -17.5t17 -43.5q0 -33 -27.5 -59.5t-60.5 -26.5q-29 0 -46.5 17t-17.5 44q0 35 28 60.5t62 25.5zM911 1442q247 0 377 -130.5t121 -338.5l-2 -21h-127v21q0 366 -393 366q-126 0 -239.5 -57t-198 -157t-134 -244.5t-49.5 -311.5q0 -243 110.5 -369
t299.5 -126q186 0 310 101t192 274l8 20h127l-6 -20q-34 -104 -90 -189t-136 -151t-189.5 -102t-240.5 -36q-249 0 -388.5 156t-137.5 426q-1 191 60 357.5t166 282.5t250.5 182.5t309.5 66.5z" />
    <glyph glyph-name="cdotaccent" unicode="&#x10b;" horiz-adv-x="1077" 
d="M702 1403q32 0 52 -21t20 -51q0 -42 -29 -71t-71 -29q-32 0 -53 21t-21 51q0 42 30 71t72 29zM664 1112q183 0 279.5 -103t96.5 -280h-133q-3 138 -70 210.5t-198 72.5q-129 0 -233 -79t-161 -215t-57 -302q0 -172 78 -258t203 -86t222.5 68t152.5 198h131
q-150 -367 -526 -367q-178 0 -288 115.5t-110 325.5q0 133 41 257.5t116 223.5t193.5 159t262.5 60z" />
    <glyph glyph-name="Ccaron" unicode="&#x10c;" horiz-adv-x="1452" 
d="M874 1507l-102 193h102l58 -131l100 131h109l-170 -193h-97zM911 1442q247 0 377 -130.5t121 -338.5l-2 -21h-127v21q0 366 -393 366q-126 0 -239.5 -57t-198 -157t-134 -244.5t-49.5 -311.5q0 -243 110.5 -369t299.5 -126q186 0 310 101t192 274l8 20h127l-6 -20
q-34 -104 -90 -189t-136 -151t-189.5 -102t-240.5 -36q-249 0 -388.5 156t-137.5 426q-1 191 60 357.5t166 282.5t250.5 182.5t309.5 66.5z" />
    <glyph glyph-name="ccaron" unicode="&#x10d;" horiz-adv-x="1077" 
d="M621 1188l-95 225h99l55 -153l113 153h98l-176 -225h-94zM469 72q125 0 222.5 68t152.5 198h131q-150 -367 -526 -367q-178 0 -288 115.5t-110 325.5q0 133 41 257.5t116 223.5t193.5 159t262.5 60q183 0 279.5 -103t96.5 -280h-133q-3 138 -70 210.5t-198 72.5
q-129 0 -233 -79t-161 -215t-57 -302q0 -172 78 -258t203 -86z" />
    <glyph glyph-name="Dcaron" unicode="&#x10e;" horiz-adv-x="1425" 
d="M768 1507l-102 193h102l57 -131l101 131h108l-170 -193h-96zM877 1407q103 -9 191 -49t157.5 -111t109 -182t39.5 -252q0 -116 -30.5 -227t-92 -210.5t-147.5 -177.5t-204.5 -129t-256.5 -63q-74 -6 -182 -6h-373l250 1413h373q105 0 166 -6zM655 115q114 14 210 59
t163.5 111.5t114.5 151t69.5 178.5t22.5 194q0 224 -104.5 347.5t-274.5 143.5q-53 7 -154 7h-256l-213 -1201h256q86 0 166 9z" />
    <glyph glyph-name="dcaron" unicode="&#x10f;" horiz-adv-x="1202" 
d="M1098 1505h127l-267 -1505h-127l35 199l-92 -117q-126 -111 -325 -111q-188 0 -292 123.5t-104 317.5q0 103 24.5 202.5t75.5 190t122.5 158.5t174 108.5t222.5 40.5q89 0 160 -30.5t112 -86.5l43 -112zM1470 1505v-10l-149 -256h-74l113 266h110zM924 516l14 82
q20 114 -1 205t-93.5 149t-188.5 58q-108 0 -197.5 -51t-147 -135t-89 -189t-31.5 -217q0 -156 75.5 -251t217.5 -95q76 0 143 24t127 74.5t105 138.5t66 207z" />
    <glyph glyph-name="Dcroat" unicode="&#x110;" horiz-adv-x="1425" 
d="M877 1407q103 -9 191 -49t157.5 -111t109 -182t39.5 -252q0 -116 -30.5 -227t-92 -210.5t-147.5 -177.5t-204.5 -129t-256.5 -63q-74 -6 -182 -6h-373l113 639h-166l14 88h168l121 686h373q105 0 166 -6zM655 115q114 14 210 59t163.5 111.5t114.5 151t69.5 178.5
t22.5 194q0 224 -104.5 347.5t-274.5 143.5q-53 7 -154 7h-256l-102 -580h303l-14 -88h-305l-95 -533h256q86 0 166 9z" />
    <glyph glyph-name="dcroat" unicode="&#x111;" horiz-adv-x="1210" 
d="M1266 1233h-90l-218 -1233h-127l35 199l-92 -117q-126 -111 -325 -111q-188 0 -292 123.5t-104 317.5q0 103 24.5 202.5t75.5 190t122.5 158.5t174 108.5t222.5 40.5q89 0 160 -30.5t112 -86.5l43 -112l64 350h-238l14 88h238l33 184h127l-33 -184h90zM924 516l14 82
q20 114 -1 205t-93.5 149t-188.5 58q-108 0 -197.5 -51t-147 -135t-89 -189t-31.5 -217q0 -156 75.5 -251t217.5 -95q76 0 143 24t127 74.5t105 138.5t66 207z" />
    <glyph glyph-name="Emacron" unicode="&#x112;" horiz-adv-x="1171" 
d="M1020 1563h-414l17 82h413zM446 1309l-96 -549h715l-18 -107h-717l-97 -549h791l-18 -104h-918l250 1413h897l-21 -104h-768z" />
    <glyph glyph-name="emacron" unicode="&#x113;" horiz-adv-x="1091" 
d="M887 1249h-414l16 82h414zM1014 504h-819q-7 -58 -7 -94q0 -170 79 -254t204 -84q118 0 218.5 70t152.5 200h131q-47 -125 -132 -210t-184 -123t-211 -38q-180 0 -287.5 113t-107.5 322q0 94 21.5 190.5t69.5 189.5t116 165t169.5 116.5t221.5 44.5q188 0 289.5 -112
t101.5 -295q0 -112 -26 -201zM629 1010q-87 0 -159.5 -34.5t-122 -94t-82 -128.5t-52.5 -149h692q6 53 6 94q0 156 -76 234t-206 78z" />
    <glyph glyph-name="Edotaccent" unicode="&#x116;" horiz-adv-x="1171" 
d="M809 1530q-29 0 -46.5 17t-17.5 44q0 35 28 60.5t63 25.5q27 0 44 -17t17 -44q0 -33 -27.5 -59.5t-60.5 -26.5zM446 1309l-96 -549h715l-18 -107h-717l-97 -549h791l-18 -104h-918l250 1413h897l-21 -104h-768z" />
    <glyph glyph-name="edotaccent" unicode="&#x117;" horiz-adv-x="1091" 
d="M678 1231q-32 0 -53 21t-21 51q0 42 30.5 71t72.5 29q31 0 51 -21t20 -51q0 -42 -29 -71t-71 -29zM1014 504h-819q-7 -58 -7 -94q0 -170 79 -254t204 -84q118 0 218.5 70t152.5 200h131q-47 -125 -132 -210t-184 -123t-211 -38q-180 0 -287.5 113t-107.5 322
q0 94 21.5 190.5t69.5 189.5t116 165t169.5 116.5t221.5 44.5q188 0 289.5 -112t101.5 -295q0 -112 -26 -201zM629 1010q-87 0 -159.5 -34.5t-122 -94t-82 -128.5t-52.5 -149h692q6 53 6 94q0 156 -76 234t-206 78z" />
    <glyph glyph-name="Eogonek" unicode="&#x118;" horiz-adv-x="1171" 
d="M446 1309l-96 -549h715l-18 -107h-717l-97 -549h791l-16 -104q-118 -37 -191.5 -120.5t-73.5 -166.5q0 -86 76 -86q66 0 129 49l-14 -75q-74 -58 -176 -58q-61 0 -102.5 34t-41.5 104q0 91 64 175t186 144h-776l250 1413h897l-21 -104h-768z" />
    <glyph glyph-name="eogonek" unicode="&#x119;" horiz-adv-x="1091" 
d="M1014 504h-819q-7 -58 -7 -94q0 -170 79 -254t204 -84q118 0 218.5 70t152.5 200h131q-59 -155 -169.5 -245.5t-250.5 -114.5q-97 -44 -155 -120t-58 -149q0 -86 76 -86q66 0 129 49l-15 -75q-74 -58 -176 -58q-61 0 -102 34t-41 104q0 81 50.5 157t148.5 135
q-164 11 -261.5 123t-97.5 310q0 94 21.5 190.5t69.5 189.5t116 165t169.5 116.5t221.5 44.5q188 0 289.5 -112t101.5 -295q0 -112 -26 -201zM629 1010q-87 0 -159.5 -34.5t-122 -94t-82 -128.5t-52.5 -149h692q6 53 6 94q0 156 -76 234t-206 78z" />
    <glyph glyph-name="Ecaron" unicode="&#x11a;" horiz-adv-x="1171" 
d="M760 1507l-103 193h103l57 -131l101 131h108l-170 -193h-96zM446 1309l-96 -549h715l-18 -107h-717l-97 -549h791l-18 -104h-918l250 1413h897l-21 -104h-768z" />
    <glyph glyph-name="ecaron" unicode="&#x11b;" horiz-adv-x="1091" 
d="M625 1188l-95 225h99l55 -153l113 153h98l-176 -225h-94zM1014 504h-819q-7 -58 -7 -94q0 -170 79 -254t204 -84q118 0 218.5 70t152.5 200h131q-47 -125 -132 -210t-184 -123t-211 -38q-180 0 -287.5 113t-107.5 322q0 94 21.5 190.5t69.5 189.5t116 165t169.5 116.5
t221.5 44.5q188 0 289.5 -112t101.5 -295q0 -112 -26 -201zM629 1010q-87 0 -159.5 -34.5t-122 -94t-82 -128.5t-52.5 -149h692q6 53 6 94q0 156 -76 234t-206 78z" />
    <glyph glyph-name="Gbreve" unicode="&#x11e;" horiz-adv-x="1527" 
d="M1042 1479q-96 0 -134.5 60.5t-22.5 160.5h80q-17 -135 92 -135q112 0 145 135h82q-45 -221 -242 -221zM936 1442q245 0 365.5 -129t111.5 -340l-2 -21h-127v21q0 186 -92 276t-281 90q-128 0 -245.5 -57t-206 -156.5t-141 -245t-52.5 -311.5q0 -230 109 -362.5
t295 -132.5q85 0 169.5 31.5t158.5 90t128.5 152.5t75.5 209h-385l19 105h512l-117 -662h-115l51 293l-77 -129q-86 -96 -201 -144.5t-246 -48.5q-246 0 -383 159.5t-137 422.5q0 187 64 352.5t173 283t259 185.5t317 68z" />
    <glyph glyph-name="gbreve" unicode="&#x11f;" horiz-adv-x="1202" 
d="M715 1163q-199 0 -156 250h82q-10 -83 9 -123.5t81 -40.5q112 0 148 164h82q-48 -250 -246 -250zM1151 1085l-143 -811q-31 -180 -47 -254q-45 -220 -189.5 -339t-380.5 -119q-187 0 -295.5 89.5t-101.5 256.5l2 24h129l-2 -24q-3 -120 73 -183t216 -63q170 0 278 91.5
t144 260.5q5 31 15 82.5t15 77.5l4 27l-94 -119q-126 -111 -325 -111q-188 0 -292 123.5t-104 317.5q0 103 24.5 202.5t75.5 190t122.5 158.5t174 108.5t222.5 40.5q89 0 160 -30.5t112 -86.5l45 -114l35 204h127zM483 72q76 0 143 24t127 74.5t105 138.5t66 207v-6l16 94
l-2 -6q20 114 -1 205t-93.5 149t-188.5 58q-108 0 -197.5 -51t-147 -135t-89 -189t-31.5 -217q0 -156 75.5 -251t217.5 -95z" />
    <glyph glyph-name="Gdotaccent" unicode="&#x120;" horiz-adv-x="1527" 
d="M1053 1530q-29 0 -46.5 17t-17.5 44q0 35 28 60.5t62 25.5q27 0 44.5 -17.5t17.5 -43.5q0 -33 -27.5 -59.5t-60.5 -26.5zM936 1442q245 0 365.5 -129t111.5 -340l-2 -21h-127v21q0 186 -92 276t-281 90q-128 0 -245.5 -57t-206 -156.5t-141 -245t-52.5 -311.5
q0 -230 109 -362.5t295 -132.5q85 0 169.5 31.5t158.5 90t128.5 152.5t75.5 209h-385l19 105h512l-117 -662h-115l51 293l-77 -129q-86 -96 -201 -144.5t-246 -48.5q-246 0 -383 159.5t-137 422.5q0 187 64 352.5t173 283t259 185.5t317 68z" />
    <glyph glyph-name="gdotaccent" unicode="&#x121;" horiz-adv-x="1202" 
d="M729 1231q-32 0 -53 21t-21 51q0 42 30.5 71t72.5 29q31 0 51 -21t20 -51q0 -42 -29 -71t-71 -29zM1151 1085l-143 -811q-31 -180 -47 -254q-45 -220 -189.5 -339t-380.5 -119q-187 0 -295.5 89.5t-101.5 256.5l2 24h129l-2 -24q-3 -120 73 -183t216 -63q170 0 278 91.5
t144 260.5q5 31 15 82.5t15 77.5l4 27l-94 -119q-126 -111 -325 -111q-188 0 -292 123.5t-104 317.5q0 103 24.5 202.5t75.5 190t122.5 158.5t174 108.5t222.5 40.5q89 0 160 -30.5t112 -86.5l45 -114l35 204h127zM483 72q76 0 143 24t127 74.5t105 138.5t66 207v-6l16 94
l-2 -6q20 114 -1 205t-93.5 149t-188.5 58q-108 0 -197.5 -51t-147 -135t-89 -189t-31.5 -217q0 -156 75.5 -251t217.5 -95z" />
    <glyph glyph-name="Gcommaaccent" unicode="&#x122;" horiz-adv-x="1527" 
d="M936 1442q245 0 365.5 -129t111.5 -340l-2 -21h-127v21q0 186 -92 276t-281 90q-128 0 -245.5 -57t-206 -156.5t-141 -245t-52.5 -311.5q0 -230 109 -362.5t295 -132.5q85 0 169.5 31.5t158.5 90t128.5 152.5t75.5 209h-385l19 105h512l-117 -662h-115l51 293l-77 -129
q-86 -96 -201 -144.5t-246 -48.5q-246 0 -383 159.5t-137 422.5q0 187 64 352.5t173 283t259 185.5t317 68zM522 -104h111v-13l-150 -256h-73z" />
    <glyph glyph-name="gcommaaccent" unicode="&#x123;" horiz-adv-x="1202" 
d="M764 1190h-111v12l150 256h76zM1151 1085l-143 -811q-31 -180 -47 -254q-45 -220 -189.5 -339t-380.5 -119q-187 0 -295.5 89.5t-101.5 256.5l2 24h129l-2 -24q-3 -120 73 -183t216 -63q170 0 278 91.5t144 260.5q5 31 15 82.5t15 77.5l4 27l-94 -119
q-126 -111 -325 -111q-188 0 -292 123.5t-104 317.5q0 103 24.5 202.5t75.5 190t122.5 158.5t174 108.5t222.5 40.5q89 0 160 -30.5t112 -86.5l45 -114l35 204h127zM483 72q76 0 143 24t127 74.5t105 138.5t66 207v-6l16 94l-2 -6q20 114 -1 205t-93.5 149t-188.5 58
q-108 0 -197.5 -51t-147 -135t-89 -189t-31.5 -217q0 -156 75.5 -251t217.5 -95z" />
    <glyph glyph-name="Hbar" unicode="&#x126;" horiz-adv-x="1406" 
d="M1436 1042h-82l-185 -1042h-127l113 639h-827l-113 -639h-127l184 1042h-82l17 88h82l49 283h127l-49 -283h827l49 283h127l-49 -283h82zM1227 1042h-828l-51 -294h828z" />
    <glyph glyph-name="hbar" unicode="&#x127;" horiz-adv-x="1204" 
d="M774 1112q158 0 242 -76t84 -209q0 -84 -27 -221l-108 -606h-127l106 592q23 129 23 201q0 101 -57 158.5t-177 56.5q-152 -2 -266 -116t-156 -353l-94 -539h-127l217 1233h-119l17 88h117l34 195h127l-34 -195h210l-16 -88h-209l-63 -356l80 118q139 117 323 117z" />
    <glyph glyph-name="Imacron" unicode="&#x12a;" horiz-adv-x="452" 
d="M633 1563h-414l17 82h413zM215 0h-127l250 1413h127z" />
    <glyph glyph-name="imacron" unicode="&#x12b;" horiz-adv-x="425" 
d="M547 1249h-414l17 82h413zM182 0h-127l191 1083h127z" />
    <glyph glyph-name="Iogonek" unicode="&#x12e;" horiz-adv-x="452" 
d="M465 1413l-250 -1413h-31q-119 -37 -192.5 -120.5t-73.5 -166.5q0 -86 78 -86q66 0 129 49l-14 -75q-74 -58 -177 -58q-61 0 -102 34t-41 104q0 100 77.5 192t223.5 150l246 1390h127z" />
    <glyph glyph-name="iogonek" unicode="&#x12f;" horiz-adv-x="425" 
d="M367 1403q31 0 51 -21t20 -51q0 -42 -29 -71t-71 -29q-32 0 -53 21t-21 51q0 42 30.5 71t72.5 29zM246 1083h127l-191 -1083h-28q-119 -37 -193 -120.5t-74 -166.5q0 -86 78 -86q66 0 129 49l-14 -75q-74 -58 -176 -58q-61 0 -102.5 34t-41.5 104q0 100 77 190.5
t222 148.5z" />
    <glyph glyph-name="Idotaccent" unicode="&#x130;" horiz-adv-x="452" 
d="M449 1677q27 0 44 -17t17 -44q0 -33 -27.5 -59.5t-60.5 -26.5q-29 0 -46.5 17t-17.5 44q0 35 28 60.5t63 25.5zM215 0h-127l250 1413h127z" />
    <glyph glyph-name="dotlessi" unicode="&#x131;" horiz-adv-x="425" 
d="M182 0h-127l191 1083h127z" />
    <glyph glyph-name="IJ" unicode="&#x132;" horiz-adv-x="1480" 
d="M215 0h-127l250 1413h127zM1516 1413l-154 -874q-14 -78 -37 -177q-20 -85 -56.5 -154t-93.5 -123t-140 -84t-187 -30q-189 0 -287.5 113t-68.5 313l10 76h127l-8 -76q-22 -164 44.5 -243.5t204.5 -79.5q257 0 332 297q1 6 33 164l154 878h127z" />
    <glyph glyph-name="ij" unicode="&#x133;" horiz-adv-x="802" 
d="M367 1403q31 0 51 -21t20 -51q0 -42 -29 -71t-71 -29q-32 0 -53 21t-21 51q0 42 30.5 71t72.5 29zM772 1403q33 0 53.5 -21t20.5 -51q0 -42 -29.5 -71t-71.5 -29q-32 0 -52.5 21t-20.5 51q0 42 29 71t71 29zM182 0h-127l191 1083h127zM786 1083l-208 -1198
q-11 -56 -29 -123q-52 -192 -254 -192q-53 0 -80 6l21 105q153 -24 190 102q8 23 25 100l208 1200h127z" />
    <glyph glyph-name="Kcommaaccent" unicode="&#x136;" horiz-adv-x="1214" 
d="M514 707l569 -707h-157l-508 637l-107 -90l-96 -547h-127l250 1413h127l-127 -721l858 721h160zM481 -104h111v-13l-150 -256h-73z" />
    <glyph glyph-name="kcommaaccent" unicode="&#x137;" horiz-adv-x="1026" 
d="M475 571l438 -571h-155l-377 500l-129 -109l-70 -391h-127l267 1505h127l-173 -968l644 546h167zM371 -104h110v-13l-149 -256h-74z" />
    <glyph glyph-name="Lacute" unicode="&#x139;" horiz-adv-x="1138" 
d="M455 1507h-86l143 193h123zM1024 104l-18 -104h-918l250 1413h127l-232 -1309h791z" />
    <glyph glyph-name="lacute" unicode="&#x13a;" horiz-adv-x="452" 
d="M426 1608h-86l166 225h123zM438 1505l-215 -1218q-16 -91 -16 -127q0 -46 25 -60t87 -8l-16 -94q-35 -6 -102 -6q-63 0 -97 24.5t-34 87.5q0 27 26 179l215 1222h127z" />
    <glyph glyph-name="Lcommaaccent" unicode="&#x13b;" horiz-adv-x="1138" 
d="M1024 104l-18 -104h-918l250 1413h127l-232 -1309h791zM471 -104h111v-13l-150 -256h-74z" />
    <glyph glyph-name="lcommaaccent" unicode="&#x13c;" horiz-adv-x="452" 
d="M438 1505l-215 -1218q-16 -91 -16 -127q0 -46 25 -60t87 -8l-16 -94q-35 -6 -102 -6q-63 0 -97 24.5t-34 87.5q0 27 26 179l215 1222h127zM199 -117l-150 -256h-76l115 269h111v-13z" />
    <glyph glyph-name="Lcaron" unicode="&#x13d;" horiz-adv-x="1138" 
d="M1024 104l-18 -104h-918l250 1413h127l-232 -1309h791z" />
    <glyph glyph-name="lcaron" unicode="&#x13e;" horiz-adv-x="452" 
d="M438 1505l-215 -1218q-16 -91 -16 -127q0 -46 25 -60t87 -8l-16 -94q-35 -6 -102 -6q-63 0 -97 24.5t-34 87.5q0 27 26 179l215 1222h127z" />
    <glyph glyph-name="Ldot" unicode="&#x13f;" horiz-adv-x="1138" 
d="M1024 104l-18 -104h-918l250 1413h127l-232 -1309h791zM729 733q-33 0 -53.5 21t-20.5 51q0 42 29.5 71t71.5 29q32 0 52.5 -20.5t20.5 -50.5q0 -42 -29.5 -71.5t-70.5 -29.5z" />
    <glyph glyph-name="ldot" unicode="&#x140;" horiz-adv-x="579" 
d="M438 1505l-215 -1218q-16 -91 -16 -127q0 -46 25 -60t87 -8l-16 -94q-35 -6 -102 -6q-63 0 -97 24.5t-34 87.5q0 27 26 179l215 1222h127zM528 905q32 0 53 -20.5t21 -50.5q0 -42 -29 -71.5t-71 -29.5q-33 0 -53.5 21t-20.5 51q0 42 29 71t71 29z" />
    <glyph glyph-name="Lslash" unicode="&#x141;" horiz-adv-x="1245" 
d="M1133 104l-19 -104h-917l110 631l-289 -156l19 105l291 155l118 678h127l-106 -602l293 158l-19 -105l-292 -157l-107 -603h791z" />
    <glyph glyph-name="lslash" unicode="&#x142;" horiz-adv-x="522" 
d="M338 647l-64 -360q-18 -103 -18 -127q0 -46 25.5 -60t87.5 -8l-17 -94q-33 -6 -102 -6q-63 0 -96 24.5t-33 87.5q0 27 26 179l50 284l-142 -80l19 107l143 80l145 831h127l-133 -751l142 80l-19 -107z" />
    <glyph glyph-name="Nacute" unicode="&#x143;" horiz-adv-x="1378" 
d="M915 1507h-86l144 193h123zM1391 1413l-250 -1413h-195l-506 1296l-225 -1296h-127l250 1413h194l502 -1292l230 1292h127z" />
    <glyph glyph-name="nacute" unicode="&#x144;" horiz-adv-x="1169" 
d="M739 1188h-86l166 225h123zM739 1112q158 0 242 -76t84 -209q0 -75 -25 -221l-110 -606h-127l106 592q25 141 25 201q0 101 -57.5 158.5t-178.5 56.5q-72 -1 -136 -27.5t-121.5 -80t-100.5 -145.5t-64 -214v-2l-94 -539h-127l191 1083h127l-37 -206l80 118
q139 117 323 117z" />
    <glyph glyph-name="Ncommaaccent" unicode="&#x145;" horiz-adv-x="1378" 
d="M1391 1413l-250 -1413h-195l-506 1296l-225 -1296h-127l250 1413h194l502 -1292l230 1292h127zM553 -104h111v-13l-150 -256h-74z" />
    <glyph glyph-name="ncommaaccent" unicode="&#x146;" horiz-adv-x="1169" 
d="M739 1112q158 0 242 -76t84 -209q0 -75 -25 -221l-110 -606h-127l106 592q25 141 25 201q0 101 -57.5 158.5t-178.5 56.5q-72 -1 -136 -27.5t-121.5 -80t-100.5 -145.5t-64 -214v-2l-94 -539h-127l191 1083h127l-37 -206l80 118q139 117 323 117zM424 -104h111v-13
l-150 -256h-74z" />
    <glyph glyph-name="Ncaron" unicode="&#x147;" horiz-adv-x="1378" 
d="M836 1507l-103 193h103l57 -131l100 131h109l-170 -193h-96zM1391 1413l-250 -1413h-195l-506 1296l-225 -1296h-127l250 1413h194l502 -1292l230 1292h127z" />
    <glyph glyph-name="ncaron" unicode="&#x148;" horiz-adv-x="1169" 
d="M662 1188l-95 225h99l55 -153l113 153h98l-176 -225h-94zM739 1112q158 0 242 -76t84 -209q0 -75 -25 -221l-110 -606h-127l106 592q25 141 25 201q0 101 -57.5 158.5t-178.5 56.5q-72 -1 -136 -27.5t-121.5 -80t-100.5 -145.5t-64 -214v-2l-94 -539h-127l191 1083h127
l-37 -206l80 118q139 117 323 117z" />
    <glyph glyph-name="Eng" unicode="&#x14a;" horiz-adv-x="1380" 
d="M1391 1413l-273 -1550q-24 -130 -59.5 -195t-105.5 -94.5t-199 -30.5l18 107q97 0 145.5 41.5t65.5 138.5l21 115l-564 1335l-223 -1280h-127l248 1413h194l515 -1239l217 1239h127z" />
    <glyph glyph-name="eng" unicode="&#x14b;" horiz-adv-x="1169" 
d="M739 1112q158 0 242 -76t84 -209q0 -75 -25 -221l-116 -643q-4 -29 -23 -96q-16 -55 -39.5 -94t-51.5 -63.5t-67 -39t-81.5 -20t-100.5 -6.5l19 106q98 0 146 40.5t65 139.5l118 662q25 141 25 201q0 101 -57.5 158.5t-178.5 56.5q-72 -1 -136 -27.5t-121.5 -80
t-100.5 -145.5t-64 -214v-2l-94 -539h-127l191 1083h127l-37 -206l80 118q139 117 323 117z" />
    <glyph glyph-name="Omacron" unicode="&#x14c;" horiz-adv-x="1527" 
d="M1147 1563h-414l17 82h413zM913 1442q173 0 302 -80.5t195.5 -219t66.5 -315.5q0 -126 -30.5 -248t-94.5 -232.5t-155 -193.5t-222 -132.5t-285 -49.5q-172 0 -301 80.5t-195.5 219t-66.5 315.5q0 126 30 248t94.5 232.5t155.5 193.5t221.5 132.5t284.5 49.5zM717 74
q119 0 222 45t175.5 120t124 172.5t76 203.5t24.5 212q0 233 -124.5 372.5t-325.5 139.5q-120 0 -223.5 -45t-175.5 -120t-123.5 -172.5t-76 -203.5t-24.5 -212q0 -232 124.5 -372t326.5 -140z" />
    <glyph glyph-name="omacron" unicode="&#x14d;" horiz-adv-x="1175" 
d="M920 1249h-414l16 82h414zM668 1112q114 0 202.5 -38t142 -104.5t80.5 -150.5t27 -182q0 -89 -22 -179.5t-70.5 -178.5t-118 -156t-173.5 -110t-228 -42q-115 0 -203.5 38t-142 104t-80.5 150.5t-27 182.5q0 73 16 148.5t47 150.5t82.5 141t117 116.5t156 80t194.5 29.5z
M524 72q88 0 163.5 34t128.5 90.5t91 129.5t56 152t18 157q0 169 -87.5 272t-242.5 103q-88 0 -164 -34t-128.5 -90.5t-90.5 -129.5t-55.5 -151t-17.5 -156q0 -170 87 -273.5t242 -103.5z" />
    <glyph glyph-name="Ohungarumlaut" unicode="&#x150;" horiz-adv-x="1527" 
d="M844 1507h-86l141 193h125zM965 1507l141 193h125l-180 -193h-86zM913 1442q173 0 302 -80.5t195.5 -219t66.5 -315.5q0 -126 -30.5 -248t-94.5 -232.5t-155 -193.5t-222 -132.5t-285 -49.5q-172 0 -301 80.5t-195.5 219t-66.5 315.5q0 126 30 248t94.5 232.5
t155.5 193.5t221.5 132.5t284.5 49.5zM717 74q119 0 222 45t175.5 120t124 172.5t76 203.5t24.5 212q0 233 -124.5 372.5t-325.5 139.5q-120 0 -223.5 -45t-175.5 -120t-123.5 -172.5t-76 -203.5t-24.5 -212q0 -232 124.5 -372t326.5 -140z" />
    <glyph glyph-name="ohungarumlaut" unicode="&#x151;" horiz-adv-x="1175" 
d="M625 1188h-86l163 225h125zM772 1188l164 225h125l-203 -225h-86zM668 1112q114 0 202.5 -38t142 -104.5t80.5 -150.5t27 -182q0 -89 -22 -179.5t-70.5 -178.5t-118 -156t-173.5 -110t-228 -42q-115 0 -203.5 38t-142 104t-80.5 150.5t-27 182.5q0 73 16 148.5t47 150.5
t82.5 141t117 116.5t156 80t194.5 29.5zM524 72q88 0 163.5 34t128.5 90.5t91 129.5t56 152t18 157q0 169 -87.5 272t-242.5 103q-88 0 -164 -34t-128.5 -90.5t-90.5 -129.5t-55.5 -151t-17.5 -156q0 -170 87 -273.5t242 -103.5z" />
    <glyph glyph-name="OE" unicode="&#x152;" horiz-adv-x="2271" 
d="M1546 1309l-96 -549h715l-19 -107h-716l-97 -549h791l-21 -104h-915l59 334l-86 -154q-191 -209 -506 -209q-256 0 -393 157t-137 439q0 96 20.5 195t61 198t106.5 185.5t150.5 153t200.5 105t249 38.5q165 0 264 -49t166 -166l33 -158l62 344h895l-19 -104h-768zM686 74
q235 0 404 168t223 465q13 77 14 149.5t-10.5 145t-42.5 132.5t-78 106.5t-121 72.5t-168 26q-127 0 -235.5 -48.5t-182 -127t-125.5 -180t-76 -206t-24 -206.5q0 -234 113 -365.5t309 -131.5z" />
    <glyph glyph-name="oe" unicode="&#x153;" horiz-adv-x="2009" 
d="M1929 504h-819q-6 -53 -6 -98q0 -168 77 -251t201 -83q120 0 222 70.5t153 199.5h133q-48 -125 -134 -210t-185.5 -123t-210.5 -38q-138 0 -236.5 75t-130.5 226q-170 -301 -504 -301q-213 0 -325.5 125.5t-112.5 329.5q0 85 21.5 175t71 183t121 165.5t182 118.5
t243.5 46q165 0 268.5 -77t137.5 -224q86 149 211.5 225t273.5 76q185 0 281 -112t96 -297q0 -99 -29 -201zM508 72q103 0 190.5 46.5t146 124.5t94.5 174t46 199q8 112 -20 199.5t-102.5 143t-188.5 55.5q-98 0 -180.5 -38t-137.5 -98.5t-93.5 -137.5t-55.5 -154.5
t-17 -151.5q0 -168 86 -265t232 -97zM1559 1014q-146 0 -265 -107t-164 -303h693q8 70 8 96q0 157 -73 235.5t-199 78.5z" />
    <glyph glyph-name="Racute" unicode="&#x154;" horiz-adv-x="1214" 
d="M809 1507h-86l143 193h123zM1237 1106q0 -86 -30 -159.5t-80.5 -124t-114.5 -83t-135 -45.5q87 -17 120.5 -102t34.5 -299q3 -214 37 -293h-137q-23 116 -27 395q-2 110 -40.5 173t-133.5 69q-39 2 -113 2h-290l-113 -639h-127l250 1413h418q127 0 190 -8
q138 -18 214.5 -94t76.5 -205zM784 750q139 11 226.5 100t87.5 233q0 187 -201 215q-73 9 -160 9h-293l-98 -562h295q79 0 143 5z" />
    <glyph glyph-name="racute" unicode="&#x155;" horiz-adv-x="618" 
d="M463 1188h-86l166 225h123zM641 1108q40 0 61 -8l-18 -101q-65 5 -123.5 -12t-112.5 -58.5t-95 -121t-62 -191.5l-2 -8l-107 -608h-127l193 1085h127l-35 -196l100 137q95 82 201 82z" />
    <glyph glyph-name="Rcommaaccent" unicode="&#x156;" horiz-adv-x="1214" 
d="M1237 1106q0 -86 -30 -159.5t-80.5 -124t-114.5 -83t-135 -45.5q87 -17 120.5 -102t34.5 -299q3 -214 37 -293h-137q-23 116 -27 395q-2 110 -40.5 173t-133.5 69q-39 2 -113 2h-290l-113 -639h-127l250 1413h418q127 0 190 -8q138 -18 214.5 -94t76.5 -205zM784 750
q139 11 226.5 100t87.5 233q0 187 -201 215q-73 9 -160 9h-293l-98 -562h295q79 0 143 5zM428 -104h111v-13l-150 -256h-74z" />
    <glyph glyph-name="rcommaaccent" unicode="&#x157;" horiz-adv-x="618" 
d="M641 1108q40 0 61 -8l-18 -101q-65 5 -123.5 -12t-112.5 -58.5t-95 -121t-62 -191.5l-2 -8l-107 -608h-127l193 1085h127l-35 -196l100 137q95 82 201 82zM57 -104h111v-13l-150 -256h-75z" />
    <glyph glyph-name="Rcaron" unicode="&#x158;" horiz-adv-x="1214" 
d="M729 1507l-102 193h102l57 -131l101 131h108l-170 -193h-96zM1237 1106q0 -86 -30 -159.5t-80.5 -124t-114.5 -83t-135 -45.5q87 -17 120.5 -102t34.5 -299q3 -214 37 -293h-137q-23 116 -27 395q-2 110 -40.5 173t-133.5 69q-39 2 -113 2h-290l-113 -639h-127l250 1413
h418q127 0 190 -8q138 -18 214.5 -94t76.5 -205zM784 750q139 11 226.5 100t87.5 233q0 187 -201 215q-73 9 -160 9h-293l-98 -562h295q79 0 143 5z" />
    <glyph glyph-name="rcaron" unicode="&#x159;" horiz-adv-x="618" 
d="M385 1188l-94 225h98l55 -153l113 153h98l-176 -225h-94zM641 1108q40 0 61 -8l-18 -101q-65 5 -123.5 -12t-112.5 -58.5t-95 -121t-62 -191.5l-2 -8l-107 -608h-127l193 1085h127l-35 -196l100 137q95 82 201 82z" />
    <glyph glyph-name="Sacute" unicode="&#x15a;" horiz-adv-x="1140" 
d="M768 1507h-86l143 193h123zM727 1442q205 0 309.5 -114.5t93.5 -293.5h-133q6 143 -75.5 224t-223.5 81q-145 0 -244.5 -80t-99.5 -221q0 -98 69.5 -153.5t227.5 -96.5q198 -53 292.5 -142t94.5 -240q0 -195 -153 -315t-393 -120q-139 0 -244 47t-163 143t-50 228h135
q0 -150 92 -232.5t252 -82.5q166 0 274.5 84t108.5 225q0 113 -74.5 178t-242.5 109q-183 49 -275 125t-92 206q0 132 68.5 233.5t184.5 154.5t261 53z" />
    <glyph glyph-name="sacute" unicode="&#x15b;" horiz-adv-x="927" 
d="M598 1188h-86l166 225h123zM524 1112q169 0 258.5 -88.5t94.5 -243.5h-132q-18 230 -231 230q-119 0 -182.5 -60t-63.5 -145q0 -80 55 -127.5t160 -77.5q167 -48 245.5 -119.5t78.5 -195.5q0 -145 -112 -233.5t-296 -88.5q-193 0 -293.5 94.5t-105.5 249.5h131
q16 -244 283 -244q113 0 184.5 58t71.5 153q0 83 -57.5 133t-192.5 89q-65 19 -112.5 40.5t-90.5 55.5t-65.5 84.5t-22.5 116.5q0 135 106 227t289 92z" />
    <glyph glyph-name="Scedilla" unicode="&#x15e;" horiz-adv-x="1140" 
d="M1130 1034h-133q6 143 -75.5 224t-223.5 81q-145 0 -244.5 -80t-99.5 -221q0 -98 69.5 -153.5t227.5 -96.5q198 -53 292.5 -142t94.5 -240q0 -184 -138 -302.5t-359 -130.5l-45 -63q67 -10 105 -50.5t38 -99.5q0 -95 -72 -142.5t-188 -47.5q-63 0 -109 16l13 68
q43 -14 104 -14q77 0 118.5 30.5t41.5 81.5q0 52 -46 77.5t-136 16.5l90 125q-130 6 -226.5 55t-149 142.5t-44.5 220.5h135q0 -150 92 -232.5t252 -82.5q166 0 274.5 84t108.5 225q0 113 -74.5 178t-242.5 109q-183 49 -275 125t-92 206q0 132 68.5 233.5t184.5 154.5
t261 53q205 0 309.5 -114.5t93.5 -293.5z" />
    <glyph glyph-name="scedilla" unicode="&#x15f;" horiz-adv-x="927" 
d="M483 600q167 -48 245.5 -119.5t78.5 -195.5q0 -145 -112 -233.5t-296 -88.5h-10l-39 -53q68 -10 106 -50.5t38 -99.5q0 -95 -72.5 -142.5t-188.5 -47.5q-62 0 -108 16l14 68q43 -14 105 -14q76 0 117.5 30.5t41.5 81.5q0 52 -46.5 77.5t-135.5 16.5l88 123
q-150 22 -227 112.5t-82 225.5h131q16 -244 283 -244q113 0 184.5 58t71.5 153q0 83 -57.5 133t-192.5 89q-65 19 -112.5 40.5t-90.5 55.5t-65.5 84.5t-22.5 116.5q0 135 106 227t289 92q169 0 258.5 -88.5t94.5 -243.5h-132q-18 230 -231 230q-119 0 -182.5 -60t-63.5 -145
q0 -80 55 -127.5t160 -77.5z" />
    <glyph glyph-name="Scaron" unicode="&#x160;" horiz-adv-x="1140" 
d="M688 1507l-102 193h102l57 -131l101 131h108l-170 -193h-96zM1130 1034h-133q6 143 -75.5 224t-223.5 81q-145 0 -244.5 -80t-99.5 -221q0 -98 69.5 -153.5t227.5 -96.5q198 -53 292.5 -142t94.5 -240q0 -195 -153 -315t-393 -120q-139 0 -244 47t-163 143t-50 228h135
q0 -150 92 -232.5t252 -82.5q166 0 274.5 84t108.5 225q0 113 -74.5 178t-242.5 109q-183 49 -275 125t-92 206q0 132 68.5 233.5t184.5 154.5t261 53q205 0 309.5 -114.5t93.5 -293.5z" />
    <glyph glyph-name="scaron" unicode="&#x161;" horiz-adv-x="927" 
d="M520 1188l-94 225h98l56 -153l112 153h99l-177 -225h-94zM483 600q167 -48 245.5 -119.5t78.5 -195.5q0 -145 -112 -233.5t-296 -88.5q-193 0 -293.5 94.5t-105.5 249.5h131q16 -244 283 -244q113 0 184.5 58t71.5 153q0 83 -57.5 133t-192.5 89q-65 19 -112.5 40.5
t-90.5 55.5t-65.5 84.5t-22.5 116.5q0 135 106 227t289 92q169 0 258.5 -88.5t94.5 -243.5h-132q-18 230 -231 230q-119 0 -182.5 -60t-63.5 -145q0 -80 55 -127.5t160 -77.5z" />
    <glyph glyph-name="Tcedilla" unicode="&#x162;" horiz-adv-x="1230" 
d="M596 0l-66 -90q68 -10 106 -50.5t38 -99.5q0 -95 -72 -142.5t-188 -47.5q-63 0 -109 16l12 68q43 -14 105 -14q77 0 118.5 30.5t41.5 81.5q0 52 -46.5 77.5t-136.5 16.5l111 154h-18l231 1309h-520l20 104h1161l-18 -104h-516l-232 -1309h-22z" />
    <glyph glyph-name="tcedilla" unicode="&#x163;" horiz-adv-x="575" 
d="M373 977l-121 -680q-16 -82 -16 -125q0 -60 42.5 -77.5t137.5 -2.5l-17 -96q-70 -12 -116 -12h-15l-53 -74q68 -10 105.5 -50.5t37.5 -99.5q0 -95 -72 -142.5t-188 -47.5q-62 0 -108 16l14 68q43 -14 105 -14q76 0 117.5 30.5t41.5 81.5q0 52 -46.5 77.5t-135.5 16.5
l107 150q-89 28 -89 133q0 56 21 166l121 682h-140l19 98h137l43 240h127l-43 -240h195l-17 -98h-194z" />
    <glyph glyph-name="Tcaron" unicode="&#x164;" horiz-adv-x="1230" 
d="M776 1507l-102 193h102l58 -131l100 131h108l-170 -193h-96zM1366 1309h-516l-232 -1309h-126l231 1309h-520l20 104h1161z" />
    <glyph glyph-name="tcaron" unicode="&#x165;" horiz-adv-x="557" 
d="M711 1470v-10l-148 -256h-76l115 266h109zM389 1075h195l-17 -98h-194l-121 -680q-16 -82 -16 -125q0 -60 42.5 -77.5t137.5 -2.5l-17 -96q-70 -12 -116 -12q-89 0 -134 35t-45 110q0 56 21 166l121 682h-140l19 98h137l43 240h127z" />
    <glyph glyph-name="Tbar" unicode="&#x166;" horiz-adv-x="1257" 
d="M850 1309l-102 -582h266l-17 -88h-266l-113 -639h-126l112 639h-242l17 88h242l102 582h-520l20 104h1161l-18 -104h-516z" />
    <glyph glyph-name="tbar" unicode="&#x167;" horiz-adv-x="575" 
d="M373 977l-47 -262h155l-16 -82h-154l-59 -336q-16 -82 -16 -125q0 -60 42.5 -77.5t137.5 -2.5l-17 -96q-70 -12 -116 -12q-89 0 -134 35t-45 110q0 56 21 166l59 338h-133l17 82h131l47 262h-140l19 98h137l43 240h127l-43 -240h195l-17 -98h-194z" />
    <glyph glyph-name="Umacron" unicode="&#x16a;" horiz-adv-x="1335" 
d="M1077 1563h-413l16 82h414zM1348 1413l-160 -903q-11 -63 -27 -131q-100 -408 -565 -408q-209 0 -318.5 98t-109.5 273q0 84 18 176l158 895h127l-156 -887q-20 -117 -20 -180q0 -124 80 -198t239 -74q175 0 278.5 80.5t145.5 240.5q17 66 27 125l156 893h127z" />
    <glyph glyph-name="umacron" unicode="&#x16b;" horiz-adv-x="1159" 
d="M899 1249h-414l17 82h413zM1106 1083l-188 -1083h-127l36 209l-82 -121q-74 -63 -151.5 -90t-171.5 -27q-158 0 -242 76t-84 209q0 81 27 221l108 606h127l-106 -591q-23 -132 -23 -203q0 -100 57 -158t177 -57q72 2 136.5 28.5t121.5 81t100 146.5t64 215l94 538h127z
" />
    <glyph glyph-name="Uring" unicode="&#x16e;" horiz-adv-x="1335" 
d="M903 1767q67 0 107.5 -34t40.5 -88q0 -80 -56.5 -127.5t-132.5 -47.5q-67 0 -106 34.5t-39 90.5q0 78 55 125t131 47zM899 1704q-44 0 -72 -28t-28 -74q0 -30 18 -49t49 -19q43 0 72 28.5t29 73.5q0 30 -18 49t-50 19zM1348 1413l-160 -903q-11 -63 -27 -131
q-100 -408 -565 -408q-209 0 -318.5 98t-109.5 273q0 84 18 176l158 895h127l-156 -887q-20 -117 -20 -180q0 -124 80 -198t239 -74q175 0 278.5 80.5t145.5 240.5q17 66 27 125l156 893h127z" />
    <glyph glyph-name="uring" unicode="&#x16f;" horiz-adv-x="1159" 
d="M678 1163q-63 0 -102 34t-39 91q0 78 57.5 131.5t138.5 53.5q62 0 100.5 -34t38.5 -91q0 -80 -57 -132.5t-137 -52.5zM721 1411q-43 0 -71.5 -33t-28.5 -82q0 -34 17.5 -52.5t49.5 -18.5q43 0 71.5 32t28.5 82q0 33 -17.5 52.5t-49.5 19.5zM1106 1083l-188 -1083h-127
l36 209l-82 -121q-74 -63 -151.5 -90t-171.5 -27q-158 0 -242 76t-84 209q0 81 27 221l108 606h127l-106 -591q-23 -132 -23 -203q0 -100 57 -158t177 -57q72 2 136.5 28.5t121.5 81t100 146.5t64 215l94 538h127z" />
    <glyph glyph-name="Uhungarumlaut" unicode="&#x170;" horiz-adv-x="1335" 
d="M774 1507h-86l141 193h125zM981 1507h-86l141 193h125zM1348 1413l-160 -903q-11 -63 -27 -131q-100 -408 -565 -408q-209 0 -318.5 98t-109.5 273q0 84 18 176l158 895h127l-156 -887q-20 -117 -20 -180q0 -124 80 -198t239 -74q175 0 278.5 80.5t145.5 240.5
q17 66 27 125l156 893h127z" />
    <glyph glyph-name="uhungarumlaut" unicode="&#x171;" horiz-adv-x="1159" 
d="M604 1188h-86l164 225h125zM752 1188l163 225h125l-202 -225h-86zM1106 1083l-188 -1083h-127l36 209l-82 -121q-74 -63 -151.5 -90t-171.5 -27q-158 0 -242 76t-84 209q0 81 27 221l108 606h127l-106 -591q-23 -132 -23 -203q0 -100 57 -158t177 -57q72 2 136.5 28.5
t121.5 81t100 146.5t64 215l94 538h127z" />
    <glyph glyph-name="Uogonek" unicode="&#x172;" horiz-adv-x="1335" 
d="M1348 1413l-160 -903q-11 -63 -27 -131q-78 -324 -395 -391q-104 -41 -166.5 -119.5t-62.5 -155.5q0 -86 75 -86q66 0 129 49l-14 -75q-74 -58 -176 -58q-61 0 -102 34t-41 104q0 80 50 155.5t148 134.5h-10q-209 0 -318.5 98t-109.5 273q0 84 18 176l158 895h127
l-156 -887q-20 -117 -20 -180q0 -124 80 -198t239 -74q175 0 278.5 80.5t145.5 240.5q17 66 27 125l156 893h127z" />
    <glyph glyph-name="uogonek" unicode="&#x173;" horiz-adv-x="1159" 
d="M1106 1083l-188 -1083h-27q-118 -37 -191 -120.5t-73 -166.5q0 -86 75 -86q66 0 129 49l-14 -75q-74 -58 -176 -58q-61 0 -102 34t-41 104q0 100 76 190.5t221 148.5l32 189l-82 -121q-74 -63 -151.5 -90t-171.5 -27q-158 0 -242 76t-84 209q0 81 27 221l108 606h127
l-106 -591q-23 -132 -23 -203q0 -100 57 -158t177 -57q72 2 136.5 28.5t121.5 81t100 146.5t64 215l94 538h127z" />
    <glyph glyph-name="Wcircumflex" unicode="&#x174;" horiz-adv-x="1851" 
d="M1049 1507h-105l168 193h94l105 -193h-105l-57 133zM1997 1413l-639 -1413h-164l-117 1270l-588 -1270h-165l-117 1413h139l86 -1278l574 1258h180l117 -1260l555 1280h139z" />
    <glyph glyph-name="wcircumflex" unicode="&#x175;" horiz-adv-x="1523" 
d="M786 1188h-98l176 225h94l95 -225h-101l-53 153zM1614 1083l-537 -1083h-151l-99 958l-434 -958h-155l-150 1083h143l107 -956l428 954h164l98 -952l447 954h139z" />
    <glyph glyph-name="Ycircumflex" unicode="&#x176;" horiz-adv-x="1163" 
d="M700 1507h-104l168 193h94l105 -193h-105l-57 133zM670 551l-97 -551h-127l99 559l-348 854h133l297 -739l547 739h151z" />
    <glyph glyph-name="ycircumflex" unicode="&#x177;" horiz-adv-x="995" 
d="M518 1188h-98l176 225h94l94 -225h-100l-53 153zM1085 1083l-608 -1083q-99 -176 -173 -268t-141 -127t-157 -35q-40 0 -78 6l17 107q29 -7 63 -7q82 0 147.5 52.5t141.5 189.5l25 43l-234 1122h143l181 -987l528 987h145z" />
    <glyph glyph-name="Ydieresis" unicode="&#x178;" horiz-adv-x="1163" 
d="M664 1530q-28 0 -46 17.5t-18 43.5q0 35 28 60.5t62 25.5q28 0 45 -17.5t17 -43.5q0 -33 -27.5 -59.5t-60.5 -26.5zM895 1530q-27 0 -44 17t-17 44q0 34 27.5 60t60.5 26q29 0 46 -17t17 -44q0 -33 -28 -59.5t-62 -26.5zM670 551l-97 -551h-127l99 559l-348 854h133
l297 -739l547 739h151z" />
    <glyph glyph-name="Zacute" unicode="&#x179;" horiz-adv-x="1169" 
d="M807 1507h-86l143 193h123zM1245 1309l-1071 -1203h870l-18 -106h-1036l18 98l1075 1209h-804l18 106h967z" />
    <glyph glyph-name="zacute" unicode="&#x17a;" horiz-adv-x="962" 
d="M629 1188h-86l166 225h122zM961 971l-830 -869h688l-18 -102h-844l16 98l832 873h-629l17 104h786z" />
    <glyph glyph-name="Zdotaccent" unicode="&#x17b;" horiz-adv-x="1169" 
d="M776 1530q-29 0 -46 17t-17 44q0 35 28 60.5t62 25.5q27 0 44 -17t17 -44q0 -33 -27.5 -59.5t-60.5 -26.5zM1245 1309l-1071 -1203h870l-18 -106h-1036l18 98l1075 1209h-804l18 106h967z" />
    <glyph glyph-name="zdotaccent" unicode="&#x17c;" horiz-adv-x="962" 
d="M606 1231q-32 0 -53 21t-21 51q0 42 30.5 71t72.5 29q32 0 52 -21t20 -51q0 -42 -29.5 -71t-71.5 -29zM961 971l-830 -869h688l-18 -102h-844l16 98l832 873h-629l17 104h786z" />
    <glyph glyph-name="Zcaron" unicode="&#x17d;" horiz-adv-x="1169" 
d="M727 1507l-102 193h102l57 -131l101 131h108l-170 -193h-96zM1245 1309l-1071 -1203h870l-18 -106h-1036l18 98l1075 1209h-804l18 106h967z" />
    <glyph glyph-name="zcaron" unicode="&#x17e;" horiz-adv-x="962" 
d="M551 1188l-94 225h98l55 -153l113 153h98l-176 -225h-94zM961 971l-830 -869h688l-18 -102h-844l16 98l832 873h-629l17 104h786z" />
    <glyph glyph-name="Scommaaccent" unicode="&#x218;" horiz-adv-x="1140" 
d="M727 1442q205 0 309.5 -114.5t93.5 -293.5h-133q6 143 -75.5 224t-223.5 81q-145 0 -244.5 -80t-99.5 -221q0 -98 69.5 -153.5t227.5 -96.5q198 -53 292.5 -142t94.5 -240q0 -195 -153 -315t-393 -120q-139 0 -244 47t-163 143t-50 228h135q0 -150 92 -232.5t252 -82.5
q166 0 274.5 84t108.5 225q0 113 -74.5 178t-242.5 109q-183 49 -275 125t-92 206q0 132 68.5 233.5t184.5 154.5t261 53zM565 -117l-149 -256h-74l113 269h110v-13z" />
    <glyph glyph-name="scommaaccent" unicode="&#x219;" horiz-adv-x="927" 
d="M524 1112q169 0 258.5 -88.5t94.5 -243.5h-132q-18 230 -231 230q-119 0 -182.5 -60t-63.5 -145q0 -80 55 -127.5t160 -77.5q167 -48 245.5 -119.5t78.5 -195.5q0 -145 -112 -233.5t-296 -88.5q-193 0 -293.5 94.5t-105.5 249.5h131q16 -244 283 -244q113 0 184.5 58
t71.5 153q0 83 -57.5 133t-192.5 89q-65 19 -112.5 40.5t-90.5 55.5t-65.5 84.5t-22.5 116.5q0 135 106 227t289 92zM414 -117l-150 -256h-74l113 269h111v-13z" />
    <glyph glyph-name="uni021A" unicode="&#x21a;" horiz-adv-x="1230" 
d="M1366 1309h-516l-232 -1309h-126l231 1309h-520l20 104h1161zM489 -104h111v-13l-149 -256h-74z" />
    <glyph glyph-name="uni021B" unicode="&#x21b;" horiz-adv-x="575" 
d="M373 977l-121 -680q-16 -82 -16 -125q0 -60 42.5 -77.5t137.5 -2.5l-17 -96q-70 -12 -116 -12q-89 0 -134 35t-45 110q0 56 21 166l121 682h-140l19 98h137l43 240h127l-43 -240h195l-17 -98h-194zM168 -104h111v-13l-150 -256h-74z" />
    <glyph glyph-name="circumflex" unicode="&#x2c6;" horiz-adv-x="614" 
d="M371 1188l-54 153l-112 -153h-99l177 225h94l94 -225h-100z" />
    <glyph glyph-name="caron" unicode="&#x2c7;" horiz-adv-x="614" 
d="M512 1413l-176 -225h-94l-95 225h99l55 -153l113 153h98z" />
    <glyph glyph-name="breve" unicode="&#x2d8;" horiz-adv-x="614" 
d="M449 1413h81q-48 -250 -245 -250q-199 0 -156 250h82q-10 -83 9 -123.5t81 -40.5q112 0 148 164z" />
    <glyph glyph-name="dotaccent" unicode="&#x2d9;" horiz-adv-x="614" 
d="M326 1403q31 0 51 -21t20 -51q0 -42 -29 -71t-71 -29q-32 0 -53 21t-21 51q0 42 30.5 71t72.5 29z" />
    <glyph glyph-name="ring" unicode="&#x2da;" horiz-adv-x="614" 
d="M336 1473q62 0 100.5 -34t38.5 -91q0 -80 -57 -132.5t-137 -52.5q-63 0 -102.5 34t-39.5 91q0 78 58 131.5t139 53.5zM324 1411q-43 0 -72 -33t-29 -82q0 -34 18 -52.5t50 -18.5q43 0 71.5 32t28.5 82q0 33 -17.5 52.5t-49.5 19.5z" />
    <glyph glyph-name="ogonek" unicode="&#x2db;" horiz-adv-x="614" 
d="M350 25l86 -25q-118 -37 -191 -120.5t-73 -166.5q0 -86 76 -86q66 0 129 49l-15 -75q-74 -58 -176 -58q-61 0 -102 34t-41 104q0 102 79 194t228 150z" />
    <glyph glyph-name="tilde" unicode="&#x2dc;" horiz-adv-x="614" 
d="M207 1374q47 0 121 -26q68 -23 88 -23q33 0 41 41h63q-16 -123 -112 -123q-44 0 -121 27q-65 22 -88 22q-33 0 -41 -41h-64q10 66 38 94.5t75 28.5z" />
    <glyph glyph-name="hungarumlaut" unicode="&#x2dd;" horiz-adv-x="614" 
d="M209 1188h-86l164 225h125zM442 1188h-86l164 225h125z" />
    <glyph glyph-name="uni0326" unicode="&#x326;" horiz-adv-x="0" 
d="M399 -117l-149 -256h-74l113 269h110v-13z" />
    <glyph glyph-name="Wgrave" unicode="&#x1e80;" horiz-adv-x="1851" 
d="M1087 1507l-116 193h123l77 -193h-84zM1997 1413l-639 -1413h-164l-117 1270l-588 -1270h-165l-117 1413h139l86 -1278l574 1258h180l117 -1260l555 1280h139z" />
    <glyph glyph-name="wgrave" unicode="&#x1e81;" horiz-adv-x="1523" 
d="M834 1188l-123 225h123l86 -225h-86zM1614 1083l-537 -1083h-151l-99 958l-434 -958h-155l-150 1083h143l107 -956l428 954h164l98 -952l447 954h139z" />
    <glyph glyph-name="Wacute" unicode="&#x1e82;" horiz-adv-x="1851" 
d="M1159 1507h-86l144 193h122zM1997 1413l-639 -1413h-164l-117 1270l-588 -1270h-165l-117 1413h139l86 -1278l574 1258h180l117 -1260l555 1280h139z" />
    <glyph glyph-name="wacute" unicode="&#x1e83;" horiz-adv-x="1523" 
d="M901 1188h-86l166 225h123zM1614 1083l-537 -1083h-151l-99 958l-434 -958h-155l-150 1083h143l107 -956l428 954h164l98 -952l447 954h139z" />
    <glyph glyph-name="Wdieresis" unicode="&#x1e84;" horiz-adv-x="1851" 
d="M1012 1530q-28 0 -46 17.5t-18 43.5q0 35 28 60.5t62 25.5q28 0 45 -17.5t17 -43.5q0 -33 -27.5 -59.5t-60.5 -26.5zM1243 1530q-27 0 -44 17t-17 44q0 34 27.5 60t60.5 26q29 0 46 -17t17 -44q0 -33 -28 -59.5t-62 -26.5zM1997 1413l-639 -1413h-164l-117 1270
l-588 -1270h-165l-117 1413h139l86 -1278l574 1258h180l117 -1260l555 1280h139z" />
    <glyph glyph-name="wdieresis" unicode="&#x1e85;" horiz-adv-x="1523" 
d="M750 1217q-27 0 -44.5 18t-17.5 45q0 33 27.5 59.5t60.5 26.5q28 0 45 -17.5t17 -45.5q0 -33 -27.5 -59.5t-60.5 -26.5zM997 1217q-27 0 -44 18t-17 45q0 33 27.5 59.5t60.5 26.5q28 0 45.5 -17.5t17.5 -45.5q0 -33 -28 -59.5t-62 -26.5zM1614 1083l-537 -1083h-151
l-99 958l-434 -958h-155l-150 1083h143l107 -956l428 954h164l98 -952l447 954h139z" />
    <glyph glyph-name="Ygrave" unicode="&#x1ef2;" horiz-adv-x="1163" 
d="M739 1507l-116 193h122l78 -193h-84zM670 551l-97 -551h-127l99 559l-348 854h133l297 -739l547 739h151z" />
    <glyph glyph-name="ygrave" unicode="&#x1ef3;" horiz-adv-x="995" 
d="M565 1188l-123 225h123l86 -225h-86zM1085 1083l-608 -1083q-99 -176 -173 -268t-141 -127t-157 -35q-40 0 -78 6l17 107q29 -7 63 -7q82 0 147.5 52.5t141.5 189.5l25 43l-234 1122h143l181 -987l528 987h145z" />
    <glyph glyph-name="endash" unicode="&#x2013;" horiz-adv-x="1024" 
d="M872 553h-737l17 88h737z" />
    <glyph glyph-name="emdash" unicode="&#x2014;" horiz-adv-x="2048" 
d="M1896 553h-1761l17 88h1761z" />
    <glyph glyph-name="quoteleft" unicode="&#x2018;" horiz-adv-x="421" 
d="M197 997l233 451h119l-219 -469h-137z" />
    <glyph glyph-name="quoteright" unicode="&#x2019;" horiz-adv-x="421" 
d="M451 1430l-234 -451h-119l219 469h138z" />
    <glyph glyph-name="quotesinglbase" unicode="&#x201a;" horiz-adv-x="395" 
d="M158 127l-224 -371h-118l204 391h140z" />
    <glyph glyph-name="quotedblleft" unicode="&#x201c;" horiz-adv-x="708" 
d="M197 999l233 449h119l-219 -469h-135zM483 999l234 449h119l-220 -469h-135z" />
    <glyph glyph-name="quotedblright" unicode="&#x201d;" horiz-adv-x="708" 
d="M451 1430l-234 -451h-119l219 469h138zM737 1430l-233 -451h-119l219 469h137z" />
    <glyph glyph-name="quotedblbase" unicode="&#x201e;" horiz-adv-x="681" 
d="M158 127l-224 -371h-118l204 391h140zM444 127l-221 -371h-121l205 391h139z" />
    <glyph glyph-name="dagger" unicode="&#x2020;" horiz-adv-x="1177" 
d="M1038 788l-370 11l-183 -1127h-149l213 1127l-377 -11l23 117l372 -10l74 518h152l-109 -518l377 10z" />
    <glyph glyph-name="daggerdbl" unicode="&#x2021;" horiz-adv-x="1138" 
d="M668 799l-93 -514l377 10l-20 -117l-373 10l-74 -516h-149l106 516l-376 -10l20 117l373 -10l92 514l-379 -11l23 117l372 -10l74 518h152l-109 -518l377 10l-23 -117z" />
    <glyph glyph-name="bullet" unicode="&#x2022;" horiz-adv-x="600" 
d="M330 793q63 0 102 -39t39 -99q0 -81 -60.5 -139.5t-140.5 -58.5q-64 0 -102.5 38t-38.5 99q0 82 60 140.5t141 58.5z" />
    <glyph glyph-name="ellipsis" unicode="&#x2026;" horiz-adv-x="1060" 
d="M96 166q36 0 58 -23t22 -57q0 -50 -33 -82.5t-80 -32.5q-36 0 -58.5 23t-22.5 59q0 49 33.5 81t80.5 32zM428 166q37 0 59.5 -22.5t22.5 -57.5q0 -50 -33 -82.5t-80 -32.5q-38 0 -60 23t-22 59q0 49 33 81t80 32zM762 166q36 0 58 -23t22 -57q0 -50 -33 -82.5t-80 -32.5
q-36 0 -59 23t-23 59q0 48 34 80.5t81 32.5z" />
    <glyph glyph-name="perthousand" unicode="&#x2030;" horiz-adv-x="2146" 
d="M446 791q-114 0 -181.5 73t-67.5 193q0 69 21.5 136t62 123.5t107.5 91t149 34.5q114 0 181.5 -73t67.5 -193q0 -70 -21 -136.5t-61.5 -123t-107.5 -91t-150 -34.5zM1419 1413l-1161 -1413h-139l1161 1413h139zM524 1350q-62 0 -108.5 -42.5t-69 -109.5t-22.5 -147
q0 -77 34.5 -122.5t100.5 -45.5q93 0 146.5 88t53.5 213q0 76 -34 121t-101 45zM1096 623q114 0 182 -73.5t68 -193.5q0 -69 -21.5 -136t-62 -123.5t-107.5 -91t-149 -34.5q-116 0 -183 73.5t-67 193.5q0 70 21 136.5t61.5 123t107.5 91t150 34.5zM1757 623q114 0 182 -73.5
t68 -193.5q0 -69 -21.5 -136t-62 -123.5t-107.5 -91t-149 -34.5q-116 0 -183 73.5t-67 193.5q0 70 21 136.5t61.5 123t107.5 91t150 34.5zM1016 63q94 0 148.5 88.5t54.5 213.5q0 76 -35 120.5t-101 44.5q-93 0 -147.5 -88t-54.5 -211q0 -77 34.5 -122.5t100.5 -45.5z
M1677 63q94 0 148.5 88.5t54.5 213.5q0 76 -34.5 120.5t-100.5 44.5q-93 0 -147 -87.5t-54 -211.5q0 -78 33.5 -123t99.5 -45z" />
    <glyph glyph-name="guilsinglleft" unicode="&#x2039;" horiz-adv-x="741" 
d="M340 498l213 -330h-111l-221 340l340 340h129z" />
    <glyph glyph-name="guilsinglright" unicode="&#x203a;" horiz-adv-x="741" 
d="M508 508l-340 -340h-129l350 352l-213 328h111z" />
    <glyph glyph-name="fraction" unicode="&#x2044;" horiz-adv-x="534" 
d="M-215 0h-139l1161 1413h139z" />
    <glyph glyph-name="Euro" unicode="&#x20ac;" 
d="M834 1442q115 0 191 -31.5t128 -95.5l-76 -80q-88 104 -258 104q-82 0 -152.5 -26.5t-122.5 -70.5t-94 -106.5t-69.5 -130t-46.5 -145.5h643l-39 -86h-623q-13 -78 -16 -139h594l-33 -86h-565v-12q0 -248 91.5 -355.5t270.5 -107.5q157 0 310 84l-21 -111
q-148 -76 -317 -76q-87 0 -157 17t-130 56.5t-100.5 102.5t-63 158.5t-22.5 220.5v23h-166l37 86h133q6 70 18 139h-106l37 86h88q23 94 58 175t89.5 157.5t122.5 130.5t162.5 86.5t204.5 32.5z" />
    <glyph glyph-name="trademark" unicode="&#x2122;" horiz-adv-x="1087" 
d="M309 1284l-61 -350h-82l61 350h-157l12 68h399l-12 -68h-160zM987 1350l-74 -416h-79l61 323l-166 -317h-84l-53 315l-55 -321h-78l73 416h119l49 -340l170 340h117z" />
    <glyph glyph-name="partialdiff" unicode="&#x2202;" 
d="M668 1552q397 0 397 -536q0 -128 -14 -250t-42.5 -241t-77.5 -218t-113.5 -175t-155.5 -118.5t-199 -42.5q-171 0 -274 103t-103 282q0 120 32 229.5t94 199t164.5 143t231.5 53.5q118 0 196.5 -47.5t110.5 -128.5q13 99 13 209q0 213 -66.5 325.5t-220.5 112.5
q-93 0 -164 -25.5t-149 -83.5l-47 80q95 69 185.5 99t201.5 30zM477 72q158 0 267.5 164t152.5 432q-25 110 -104 161.5t-197 51.5q-119 0 -205 -75.5t-126 -191t-40 -254.5q0 -140 67.5 -214t184.5 -74z" />
    <glyph glyph-name="emptyset" unicode="&#x2205;" horiz-adv-x="1716" 
d="M1606 1411l-166 -166q188 -220 188 -518q0 -214 -102.5 -394t-279.5 -284t-388 -104q-148 0 -280.5 52t-237.5 148l-166 -165l-63 63l168 168q-91 105 -141 237t-50 279q0 161 60.5 306.5t163.5 249.5t245.5 165t300.5 61q148 0 280.5 -52t237.5 -148l166 166zM186 727
q0 -256 158 -451l965 965q-91 85 -207 131.5t-244 46.5q-137 0 -261.5 -54.5t-214.5 -147t-143 -220.5t-53 -270zM858 35q138 0 262.5 54t214.5 146.5t142.5 220.5t52.5 271q0 257 -158 449l-964 -963q191 -178 450 -178z" />
    <glyph glyph-name="product" unicode="&#x220f;" 
d="M1192 1307h-119l-272 -1532h-127l272 1532h-508l-272 -1532h-127l272 1532h-123l21 106h1003z" />
    <glyph glyph-name="summation" unicode="&#x2211;" 
d="M1149 1307h-764l389 -693l-704 -733h839l-20 -106h-985l18 102l705 739l-389 695l18 102h911z" />
    <glyph glyph-name="minus" unicode="&#x2212;" horiz-adv-x="1150" 
d="M983 608h-844l15 88h845z" />
    <glyph glyph-name="radical" unicode="&#x221a;" 
d="M1235 1597l-780 -1925h-119l-109 875h-137l16 88h207l101 -852l725 1814h96z" />
    <glyph glyph-name="infinity" unicode="&#x221e;" horiz-adv-x="2035" 
d="M1567 1114q198 0 305.5 -130.5t107.5 -344.5q0 -85 -20.5 -174.5t-67.5 -178.5t-113 -158.5t-166.5 -113t-219.5 -43.5q-163 0 -269 93.5t-141 277.5q-103 -190 -227 -280.5t-289 -90.5q-198 0 -305 130t-107 343q0 86 21 176t67.5 179t113 158.5t167 113t219.5 43.5
q162 0 267.5 -92t140.5 -274q101 186 226 276t290 90zM940 543q1 126 -22 219t-66 147t-98.5 79.5t-126.5 25.5q-82 0 -153.5 -36t-121.5 -95t-86 -133.5t-53.5 -151.5t-17.5 -149q0 -180 78.5 -278.5t211.5 -98.5q62 0 125 26.5t125 80.5t116 148t89 216zM1409 72
q82 0 153.5 36t121.5 95t86 133t53.5 151t17.5 148q0 181 -79 280t-212 99q-62 0 -125 -26.5t-125 -80.5t-116 -148t-88 -216q-3 -247 81 -359t232 -112z" />
    <glyph glyph-name="integral" unicode="&#x222b;" 
d="M817 1544q83 0 137 -49l-45 -80q-24 24 -46 32.5t-56 8.5q-99 0 -153 -100.5t-54 -284.5q0 -165 25 -450q28 -270 28 -463q0 -242 -81 -364t-236 -122q-81 0 -133 49l43 80q41 -41 104 -41q100 0 152.5 100.5t52.5 289.5q0 138 -25 448q-26 267 -26 467q0 234 81 356.5
t232 122.5z" />
    <glyph glyph-name="approxequal" unicode="&#x2248;" horiz-adv-x="1124" 
d="M403 899q54 0 96 -16.5t124 -63.5q66 -40 103.5 -55.5t80.5 -15.5q56 0 97.5 25t88.5 85l60 -51q-63 -78 -128 -116t-143 -38q-37 0 -72 10.5t-61.5 24t-85.5 47.5q-68 39 -105 54.5t-79 15.5q-54 0 -96 -25.5t-90 -85.5l-58 58q62 77 125.5 112t142.5 35zM342 557
q54 0 95.5 -17t125.5 -65q66 -38 104.5 -53.5t80.5 -15.5q56 0 96.5 25t89.5 85l57 -51q-63 -79 -126.5 -116.5t-141.5 -37.5q-54 0 -97 17t-122 63q-66 40 -104.5 56t-80.5 16q-56 0 -97.5 -25.5t-88.5 -85.5l-59 56q61 78 125.5 113.5t142.5 35.5z" />
    <glyph glyph-name="notequal" unicode="&#x2260;" 
d="M723 801l-236 -307h484l-15 -88h-534l-152 -199h-102l151 199h-223l15 88h274l236 307h-455l16 88h504l152 198h102l-152 -198h254l-16 -88h-303z" />
    <glyph glyph-name="lessequal" unicode="&#x2264;" 
d="M1044 901l-796 -299l692 -295l-18 -106l-783 354l19 102l907 353zM57 88h844l-14 -88h-846z" />
    <glyph glyph-name="greaterequal" unicode="&#x2265;" 
d="M1001 657l-18 -102l-907 -354l20 110l797 299l-692 295l18 105zM57 88h844l-14 -88h-846z" />
    <glyph glyph-name="lozenge" unicode="&#x25ca;" horiz-adv-x="1046" 
d="M915 707l-466 -707h-101l-217 707l467 706h100zM813 707l-182 612l-398 -612l181 -615z" />
    <glyph glyph-name="a.alt" horiz-adv-x="1202" 
d="M1147 1083l-189 -1083h-127l35 199l-92 -117q-126 -111 -325 -111q-188 0 -292 123.5t-104 317.5q0 103 24.5 202.5t75.5 190t122.5 158.5t174 108.5t222.5 40.5q89 0 160 -30.5t112 -86.5l43 -110l33 198h127zM938 598l2 8q18 113 -4.5 202.5t-94 145.5t-186.5 56
q-108 0 -197.5 -51t-147 -135t-89 -189t-31.5 -217q0 -156 75.5 -251t217.5 -95q76 0 143 24t127 74.5t105 138.5t66 207z" />
    <glyph glyph-name="braceleft.001" horiz-adv-x="608" 
d="M739 1597l-16 -88h-29q-132 0 -174.5 -68.5t-42.5 -262.5q0 -97 -8.5 -167.5t-32 -137t-71 -106.5t-119.5 -52q69 -9 105 -51.5t36 -108.5q0 -95 -72 -295q-39 -106 -51 -152.5t-12 -84.5q0 -99 162 -99h28l-14 -88h-29q-117 0 -179 41t-62 139q0 42 13.5 92t57.5 173
q64 168 64 264q0 113 -139 127l16 90q126 12 170.5 98t44.5 297q-1 125 12.5 204t50 134.5t100 78.5t163.5 23h28z" />
    </font>
</defs>
</svg>
