<?xml version="1.0" standalone="no"?>
<!DOCTYPE svg PUBLIC "-//W3C//DTD SVG 1.1//EN" "http://www.w3.org/Graphics/SVG/1.1/DTD/svg11.dtd" >
<svg xmlns="http://www.w3.org/2000/svg" xmlns:xlink="http://www.w3.org/1999/xlink" version="1.1">
<metadata>
Created by FontForge 20170731 at Sat Aug 29 16:30:21 2020
 By Aleksey,,,
Copyright 2020 The Arimo Project Authors (https://github.com/googlefonts/arimo)
</metadata>
<defs>
<font id="Arimo-Italic" horiz-adv-x="0" >
  <font-face 
    font-family="Arimo"
    font-weight="400"
    font-style="italic"
    font-stretch="normal"
    units-per-em="2048"
    panose-1="2 11 6 4 2 2 2 9 2 4"
    ascent="1638"
    descent="-410"
    x-height="1082"
    cap-height="1409"
    bbox="-1006 -797 5728 2136"
    underline-thickness="150"
    underline-position="-442"
    slope="-12"
    unicode-range="U+000D-FFFD"
  />
<missing-glyph horiz-adv-x="1536" 
d="M1330 1409v-1409h-1125v1409h1125zM281 76h973v1257h-973v-1257z" />
    <glyph glyph-name=".notdef" horiz-adv-x="1536" 
d="M1330 1409v-1409h-1125v1409h1125zM281 76h973v1257h-973v-1257z" />
    <glyph glyph-name=".null" 
 />
    <glyph glyph-name=".null" 
 />
    <glyph glyph-name="nonmarkingreturn" unicode="&#xd;" horiz-adv-x="569" 
 />
    <glyph glyph-name="space" unicode=" " horiz-adv-x="569" 
 />
    <glyph glyph-name="exclam" unicode="!" horiz-adv-x="569" 
d="M549 1409l-220 -1012h-148l172 1012h196zM311 201l-40 -201h-194l40 201h194z" />
    <glyph glyph-name="quotedbl" unicode="&#x22;" horiz-adv-x="727" 
d="M803 1409l-106 -443h-142l64 443h184zM434 1409l-106 -443h-141l63 443h184z" />
    <glyph glyph-name="numbersign" unicode="#" horiz-adv-x="1139" 
d="M350 408l-84 -408h-110l84 408h-201v108h225l78 369h-252v108h274l89 408h110l-88 -408h363l88 408h110l-88 -408h211v-108h-233l-78 -369h260v-108h-283l-88 -408h-110l86 408h-363zM375 516h362l78 369h-360z" />
    <glyph glyph-name="dollar" unicode="$" horiz-adv-x="1139" 
d="M1072 425q0 -185 -137.5 -290.5t-394.5 -113.5l-31 -161h-114l32 163q-201 14 -306.5 104t-132.5 249l163 37q25 -115 97.5 -174t206.5 -69l96 493q-149 41 -221 87q-73 45 -111 109.5t-38 158.5q0 112 65 195t181.5 127t263.5 45l25 131h114l-27 -137q156 -19 248.5 -94
t118.5 -198l-156 -45q-45 167 -238 194l-86 -441q196 -53 289 -145t93 -225zM363 1018q0 -67 45 -110t174 -83l81 415q-145 -5 -222.5 -62t-77.5 -160zM887 413q0 78 -50.5 128.5t-177.5 90.5l-90 -463q159 8 238.5 69.5t79.5 174.5z" />
    <glyph glyph-name="percent" unicode="%" horiz-adv-x="1821" 
d="M545 1421q125 0 192 -79t67 -229q0 -88 -16 -172q-13 -68 -36 -132.5t-57 -115.5q-110 -169 -289 -169q-124 0 -192 82.5t-68 234.5q0 146 47 290q95 290 352 290zM425 0h-165l1186 1409h167zM544 1313q-67 0 -110 -31t-75 -97q-21 -44 -38 -108.5t-27 -131t-10 -118.5
q0 -190 126 -190q85 0 140 67q33 41 57.5 108t38.5 140q19 101 19 179q0 182 -121 182zM1474 885q125 0 192 -79t67 -229q0 -86 -17 -177q-13 -67 -36 -130t-56 -113q-110 -169 -289 -169q-124 0 -192 82.5t-68 234.5q0 146 47 290q95 290 352 290zM1473 777q-67 0 -110 -31
t-75 -97q-21 -44 -38 -108.5t-27 -131t-10 -118.5q0 -190 126 -190q85 0 140 67q35 42 60 113.5t38 147.5q17 93 17 166q0 182 -121 182z" />
    <glyph glyph-name="ampersand" unicode="&#x26;" horiz-adv-x="1366" 
d="M1248 684q-70 -157 -142.5 -276.5t-148.5 -199.5q40 -38 90.5 -58.5t96.5 -20.5q61 0 112 16l-13 -135q-59 -22 -125 -22q-149 0 -271 122q-35 -25 -72 -46t-76 -36q-60 -24 -125 -36t-134 -12q-189 0 -298 100.5t-109 270.5q0 105 40 184t133.5 144t255.5 127
q-14 59 -21 117t-7 113q0 173 108.5 277t290.5 104q138 0 224.5 -72t86.5 -190q0 -116 -81.5 -202t-291.5 -169q-31 -13 -62 -25t-63 -25q38 -112 92.5 -216.5t125.5 -202.5q60 68 117 162t135 262zM592 1041q0 -80 19 -178q79 29 148 55t121 58q51 32 80.5 73t29.5 99
q0 65 -45.5 106.5t-118.5 41.5q-112 0 -173 -67.5t-61 -187.5zM452 111q82 0 157 25.5t144 75.5q-73 90 -140 212.5t-111 250.5q-168 -66 -233.5 -138.5t-65.5 -182.5q0 -111 68.5 -177t180.5 -66z" />
    <glyph glyph-name="quotesingle" unicode="'" horiz-adv-x="391" 
d="M449 1409l-106 -443h-141l63 443h184z" />
    <glyph glyph-name="parenleft" unicode="(" horiz-adv-x="682" 
d="M855 1484q-578 -509 -578 -1222q0 -389 207 -686h-174q-214 295 -214 702q0 372 150 679t435 527h174z" />
    <glyph glyph-name="parenright" unicode=")" horiz-adv-x="682" 
d="M-199 -424q578 509 578 1222q0 194 -51.5 366t-155.5 320h174q214 -295 214 -702q0 -372 -150 -679t-435 -527h-174z" />
    <glyph glyph-name="asterisk" unicode="*" horiz-adv-x="797" 
d="M755 762l-119 -72l-150 258l-156 -256l-119 72l189 248l-280 73l45 134l267 -107l-12 297h136l-13 -295l264 103l45 -132l-282 -73z" />
    <glyph glyph-name="plus" unicode="+" horiz-adv-x="1196" 
d="M701 608v-428h-147v428h-424v146h424v428h147v-428h424v-146h-424z" />
    <glyph glyph-name="comma" unicode="," horiz-adv-x="569" 
d="M299 51q-18 -95 -51 -170t-88 -143h-123q60 68 96 134t49 128h-88l42 219h195z" />
    <glyph glyph-name="hyphen" unicode="-" horiz-adv-x="682" 
d="M636 624l-31 -160h-500l31 160h500z" />
    <glyph glyph-name="hyphen" unicode="&#xad;" horiz-adv-x="682" 
d="M636 624l-31 -160h-500l31 160h500z" />
    <glyph glyph-name="period" unicode="." horiz-adv-x="569" 
d="M318 219l-43 -219h-195l43 219h195z" />
    <glyph glyph-name="slash" unicode="/" horiz-adv-x="569" 
d="M745 1484l-700 -1504h-161l703 1504h158z" />
    <glyph glyph-name="zero" unicode="0" horiz-adv-x="1139" 
d="M732 1430q183 0 286.5 -123t103.5 -343q0 -256 -78 -495q-78 -240 -221 -364.5t-347 -124.5q-181 0 -284 129t-103 356q0 120 20 244.5t58 239t91 204.5q80 136 197 206.5t277 70.5zM491 127q151 0 247 106q38 42 70.5 106.5t58 143t43.5 163.5t27.5 168.5t9.5 158.5
q0 155 -59.5 233t-167.5 78q-76 0 -137.5 -26.5t-108.5 -79.5q-48 -53 -86.5 -139.5t-66.5 -190t-42.5 -210.5t-14.5 -200q0 -155 59.5 -233t167.5 -78z" />
    <glyph glyph-name="one" unicode="1" horiz-adv-x="1139" 
d="M966 153l-30 -153h-883l30 153h359l208 1070l-361 -223l35 180l377 229h166l-244 -1256h343z" />
    <glyph glyph-name="two" unicode="2" horiz-adv-x="1139" 
d="M949 153l-29 -153h-932l24 127q55 93 123 166t142 133q50 40 100.5 74.5t100.5 66.5t98 62q71 45 133.5 90t109.5 96t74 111.5t27 136.5q0 98 -62.5 158.5t-168.5 60.5q-109 0 -190 -59.5t-118 -178.5l-170 37q54 170 178 259.5t311 89.5q122 0 214 -44.5t143.5 -124
t51.5 -183.5q0 -105 -51 -203q-34 -64 -89.5 -124t-145 -127t-227.5 -154q-147 -93 -237.5 -169t-136.5 -148h727z" />
    <glyph glyph-name="three" unicode="3" horiz-adv-x="1139" 
d="M566 795q183 0 273.5 73t90.5 213q0 93 -60.5 147t-161.5 54q-119 0 -204.5 -61t-119.5 -172l-178 14q58 186 191.5 276.5t320.5 90.5t295 -92t108 -252q0 -153 -96.5 -249.5t-271.5 -119.5l-1 -4q131 -26 204 -104.5t73 -201.5q0 -124 -60 -222q-61 -97 -175.5 -151
t-267.5 -54q-127 0 -226 44q-201 91 -252 314l164 48q30 -116 118 -186.5t211 -70.5q141 0 220.5 74.5t79.5 200.5q0 112 -75 173.5t-204 61.5h-124l30 156h98z" />
    <glyph glyph-name="four" unicode="4" horiz-adv-x="1139" 
d="M846 319l-62 -319h-180l62 319h-653l27 140l819 950h199l-184 -948h188l-28 -142h-188zM826 1157q-28 -34 -57 -67t-58 -67l-484 -562h467l104 546q8 38 14.5 75.5t13.5 74.5z" />
    <glyph glyph-name="five" unicode="5" horiz-adv-x="1139" 
d="M968 194q-67 -103 -184.5 -158.5t-278.5 -55.5q-185 0 -300 82.5t-159 246.5l163 43q31 -114 110 -169.5t196 -55.5q166 0 256 93.5t90 265.5q0 122 -69 194t-185 72q-163 0 -282 -101h-176l194 758h801l-29 -153h-637l-114 -447q50 42 122 66t155 24q184 0 297 -106.5
t113 -286.5q0 -184 -83 -312z" />
    <glyph glyph-name="six" unicode="6" horiz-adv-x="1139" 
d="M534 -20q-128 0 -222.5 61t-145.5 170t-51 253q0 242 84 477q83 236 228 362.5t334 126.5q150 0 246.5 -71.5t131.5 -207.5l-166 -36q-25 81 -82 125t-138 44q-164 0 -279 -146t-167 -412q60 90 151.5 137.5t204.5 47.5q115 0 201 -48t134.5 -133t48.5 -197
q0 -152 -66 -280q-67 -129 -184.5 -201t-262.5 -72zM288 421q0 -131 68 -213.5t182 -82.5q93 0 166 51.5t115 141.5t42 204q0 115 -59.5 182.5t-171.5 67.5q-93 0 -171 -42q-79 -43 -125 -121t-46 -188z" />
    <glyph glyph-name="seven" unicode="7" horiz-adv-x="1139" 
d="M435 0h-188q20 102 51.5 199t73.5 189t90.5 179.5t117 185.5t167 220t239.5 283h-774l29 153h961l-28 -146q-112 -131 -188.5 -224t-119.5 -148t-81 -108.5t-72 -105.5t-64.5 -104.5t-56.5 -105.5q-53 -106 -92.5 -222.5t-64.5 -244.5z" />
    <glyph glyph-name="eight" unicode="8" horiz-adv-x="1139" 
d="M704 1429q191 0 307 -91.5t116 -246.5q0 -140 -86.5 -238t-233.5 -120l-1 -4q110 -33 168.5 -110t58.5 -187q0 -208 -142 -330t-391 -122q-213 0 -329.5 101t-116.5 279q0 150 91 253.5t266 142.5v4q-91 38 -141 113.5t-50 178.5q0 177 130 277t354 100zM658 811
q134 0 208.5 71.5t74.5 204.5q0 98 -65.5 152.5t-192.5 54.5q-133 0 -208 -67t-75 -194q0 -103 68.5 -162.5t189.5 -59.5zM566 672q-156 0 -241.5 -83t-85.5 -233q0 -112 74 -175.5t206 -63.5q148 0 239.5 86t91.5 233q0 111 -76.5 173.5t-207.5 62.5z" />
    <glyph glyph-name="nine" unicode="9" horiz-adv-x="1139" 
d="M898 684q-67 -101 -151.5 -152t-187.5 -51q-119 0 -208 52q-90 51 -139 143t-49 205q0 152 66 279q66 126 185.5 198t267.5 72q131 0 223.5 -57.5t142 -163.5t49.5 -252q0 -103 -17 -214t-48 -215t-73 -188q-64 -126 -143 -205q-80 -81 -173 -118t-190 -37
q-154 0 -249.5 69t-133.5 208l158 45q24 -85 83 -131t150 -46q158 0 269.5 144.5t167.5 414.5zM925 1017q0 121 -69 194t-178 73q-148 0 -240 -108t-92 -297q0 -122 63 -189t171 -67q95 0 177 51q168 104 168 343z" />
    <glyph glyph-name="colon" unicode=":" horiz-adv-x="569" 
d="M487 1082l-41 -207h-195l41 207h195zM317 207l-41 -207h-195l41 207h195z" />
    <glyph glyph-name="semicolon" unicode=";" horiz-adv-x="569" 
d="M500 1082l-40 -207h-195l40 207h195zM300 51q-18 -95 -51 -170t-88 -143h-123q60 68 96 134t49 128h-88l40 207h195z" />
    <glyph glyph-name="semicolon" unicode="&#x37e;" horiz-adv-x="569" 
d="M500 1082l-40 -207h-195l40 207h195zM300 51q-18 -95 -51 -170t-88 -143h-123q60 68 96 134t49 128h-88l40 207h195z" />
    <glyph glyph-name="less" unicode="&#x3c;" horiz-adv-x="1196" 
d="M1126 307v-153l-995 417v205l995 418v-154l-858 -366z" />
    <glyph glyph-name="equal" unicode="=" horiz-adv-x="1196" 
d="M1125 1004v-148h-995v148h995zM1125 492v-148h-995v148h995z" />
    <glyph glyph-name="greater" unicode="&#x3e;" horiz-adv-x="1196" 
d="M1126 571l-995 -417v153l858 367l-858 366v154l995 -418v-205z" />
    <glyph glyph-name="question" unicode="?" horiz-adv-x="1139" 
d="M701 1430q132 0 229 -45.5t150 -126t53 -185.5q0 -97 -30.5 -165.5t-78.5 -118.5q-32 -34 -70.5 -61.5t-79 -51t-80.5 -47.5q-63 -35 -105 -66t-70 -61t-42.5 -60t-21.5 -65h-175q14 80 48 140q24 40 53 72.5t80.5 69.5t140.5 87q53 30 91 55.5t61 46.5q46 41 69 91
t23 113q0 98 -73 158t-189 60q-140 0 -231 -70t-129 -192l-165 40q63 195 199.5 288.5t342.5 93.5zM533 201l-39 -201h-195l39 201h195z" />
    <glyph glyph-name="at" unicode="@" horiz-adv-x="2079" 
d="M1935 755q0 -186 -57 -336q-58 -151 -160.5 -233t-229.5 -82q-101 0 -154 45.5t-53 130.5q1 17 1.5 35t1.5 35h-6q-66 -123 -163.5 -184.5t-210.5 -61.5q-157 0 -243.5 102t-86.5 283q0 163 65 305q65 141 180.5 224t256.5 83q218 0 301 -182h6l39 160h156l-116 -506
q-37 -161 -37 -253q0 -47 20.5 -70.5t60.5 -23.5q81 0 148 69q68 69 106.5 190t38.5 268q0 178 -77 318q-77 138 -222 212.5t-339 74.5q-241 0 -428 -107q-186 -107 -292 -308.5t-106 -451.5q0 -194 79 -340q78 -148 226.5 -227t346.5 -79q314 0 603 162l55 -112
q-145 -87 -314.5 -132.5t-343.5 -45.5q-240 0 -419 95q-180 95 -277 272t-97 407q0 279 125 509q125 229 345.5 356.5t494.5 127.5q241 0 416 -90q175 -91 267.5 -256t92.5 -383zM1329 747q0 102 -66 164.5t-176 62.5q-101 0 -179 -63q-79 -64 -124 -178t-45 -242
q0 -120 47.5 -188t146.5 -68q80 0 153 44t128 122q37 52 62.5 114t39 123t13.5 109z" />
    <glyph glyph-name="A" unicode="A" horiz-adv-x="1366" 
d="M347 412l-240 -412h-208l848 1409h217l292 -1409h-195l-75 412h-639zM830 1265q-7 -13 -16 -30t-21 -39l-362 -635h527l-102 553q-7 38 -13 76t-13 75z" />
    <glyph glyph-name="B" unicode="B" horiz-adv-x="1366" 
d="M1247 439q0 -213 -156 -326t-433 -113h-595l273 1409h510q209 0 329.5 -86.5t120.5 -235.5q0 -285 -339 -344q138 -23 214 -104.5t76 -199.5zM411 810h331q178 0 266.5 64.5t88.5 193.5q0 94 -67 141t-201 47h-331zM283 153h368q210 0 307.5 73.5t97.5 215.5
q0 107 -79.5 163t-228.5 56h-366z" />
    <glyph glyph-name="C" unicode="C" horiz-adv-x="1479" 
d="M1215 426l143 -89q-126 -188 -286 -272.5t-372 -84.5q-181 0 -314 73q-133 72 -203 206t-70 310q0 246 105 445t291.5 307.5t416.5 108.5q217 0 366.5 -90.5t197.5 -254.5l-180 -55q-36 112 -139.5 178t-254.5 66q-185 0 -324 -88q-140 -88 -215 -249t-75 -371
q0 -200 109 -315.5t302 -115.5q148 0 276 73.5t226 217.5z" />
    <glyph glyph-name="D" unicode="D" horiz-adv-x="1479" 
d="M744 1409q208 0 358 -74.5t230.5 -212.5t80.5 -331q0 -237 -103 -413q-103 -177 -296.5 -277.5t-438.5 -100.5h-512l273 1409h408zM283 153h284q196 0 344 78q149 77 228.5 222.5t79.5 339.5q0 219 -126 341t-353 122h-242z" />
    <glyph glyph-name="E" unicode="E" horiz-adv-x="1366" 
d="M1183 156l-30 -156h-1090l273 1409h1049l-30 -156h-858l-88 -452h798l-30 -154h-798l-95 -491h899z" />
    <glyph glyph-name="F" unicode="F" horiz-adv-x="1251" 
d="M364 571l-110 -571h-191l273 1409h1011l-30 -156h-820l-102 -524h796l-31 -158h-796z" />
    <glyph glyph-name="G" unicode="G" horiz-adv-x="1593" 
d="M742 -20q-305 0 -473 156t-168 437q0 250 105 446q105 197 297.5 304t440.5 107q222 0 364 -84t197 -248l-193 -54q-37 115 -134 172.5t-246 57.5q-191 0 -336 -86t-222 -244.5t-77 -366.5q0 -211 118 -326.5t333 -115.5q138 0 264 39.5t219 116.5l51 254h-421l32 160
h597l-100 -495q-140 -120 -298.5 -175t-349.5 -55z" />
    <glyph glyph-name="H" unicode="H" horiz-adv-x="1479" 
d="M381 653l-127 -653h-191l274 1409h191l-116 -596h767l116 596h186l-274 -1409h-186l127 653h-767z" />
    <glyph glyph-name="I" unicode="I" horiz-adv-x="569" 
d="M546 1409l-274 -1409h-191l274 1409h191z" />
    <glyph glyph-name="J" unicode="J" horiz-adv-x="1024" 
d="M381 -20q-159 0 -259.5 93t-126.5 270l168 33q23 -117 79 -179t156 -62q65 0 113 26q56 31 93.5 99.5t58.5 179.5l157 813h-291l30 156h481l-193 -986q-43 -224 -157 -333.5t-309 -109.5z" />
    <glyph glyph-name="K" unicode="K" horiz-adv-x="1366" 
d="M360 545l-106 -545h-191l273 1409h191l-136 -691l140 129l665 562h245l-750 -630l557 -779h-226l-472 674z" />
    <glyph glyph-name="L" unicode="L" horiz-adv-x="1139" 
d="M996 156l-30 -156h-903l273 1409h191l-243 -1253h712z" />
    <glyph glyph-name="M" unicode="M" horiz-adv-x="1706" 
d="M433 1041l-200 -1041h-170l273 1409h236l189 -977q4 -19 12 -70.5t20 -134.5q26 53 52 106.5t52 106.5l553 969h256l-273 -1409h-172l180 928q18 92 34.5 167t30.5 133q-30 -63 -56.5 -115t-48.5 -93t-40 -72l-548 -948h-124l-185 948q-3 14 -13.5 84.5t-27.5 195.5
q-4 -30 -11.5 -76.5t-18.5 -110.5z" />
    <glyph glyph-name="N" unicode="N" horiz-adv-x="1479" 
d="M414 943l-181 -943h-170l273 1409h212l534 -1215q13 95 24 166t21 118l181 931h172l-273 -1409h-220l-531 1210q-11 -85 -21.5 -152t-20.5 -115z" />
    <glyph glyph-name="O" unicode="O" horiz-adv-x="1593" 
d="M938 1430q185 0 319 -71t206.5 -201t72.5 -307q-4 -266 -112 -463q-107 -196 -293 -302t-422 -106q-201 0 -340 81q-125 71 -191.5 202t-66.5 310q0 240 106 440q105 200 294 308.5t427 108.5zM929 1276q-199 0 -339 -89q-93 -59 -157 -160t-97.5 -222t-33.5 -242
q0 -209 106.5 -318.5t309.5 -109.5q197 0 336 87q92 58 157 155.5t99.5 219.5t34.5 250q0 207 -108.5 318t-307.5 111z" />
    <glyph glyph-name="P" unicode="P" horiz-adv-x="1366" 
d="M852 1409q231 0 366 -104t135 -285q0 -146 -69 -252t-196.5 -162.5t-303.5 -56.5h-424l-106 -549h-191l273 1409h516zM390 700h387q191 0 286.5 78t95.5 233q0 119 -79 182t-233 63h-349z" />
    <glyph glyph-name="Q" unicode="Q" horiz-adv-x="1593" 
d="M928 1430q185 0 319 -71t206.5 -201t72.5 -307q-4 -241 -94 -428q-79 -165 -215 -273q-167 -132 -395 -162q17 -121 67 -176.5t149 -55.5q61 0 123 13l-18 -134q-75 -22 -169 -22q-151 0 -232 86t-104 284q-127 9 -226.5 53t-168.5 120q-142 154 -142 417q0 240 106 440
q105 200 294 308.5t427 108.5zM919 1276q-199 0 -339 -89q-93 -59 -157 -160t-97.5 -222t-33.5 -242q0 -209 106.5 -318.5t309.5 -109.5q197 0 336 87q92 58 157 155.5t99.5 219.5t34.5 250q0 207 -108.5 318t-307.5 111z" />
    <glyph glyph-name="R" unicode="R" horiz-adv-x="1479" 
d="M367 585l-113 -585h-191l273 1409h612q153 0 264 -54q97 -46 150.5 -127.5t53.5 -188.5q0 -188 -108 -298t-319 -139l268 -602h-206l-243 585h-441zM857 736q181 0 273 75.5t92 212.5q0 112 -74.5 172t-222.5 60h-427l-101 -520h460z" />
    <glyph glyph-name="S" unicode="S" horiz-adv-x="1366" 
d="M616 -20q-249 0 -386.5 88.5t-171.5 269.5l177 37q27 -129 120 -187t275 -58q219 0 320 65.5t101 200.5q0 67 -29 107.5t-99 73.5q-35 16 -95 36t-146 44q-168 46 -255 97q-85 50 -128.5 119.5t-43.5 167.5q0 122 69.5 209t197.5 133.5t302 46.5q220 0 353 -76t167 -222
l-173 -51q-33 105 -118.5 155t-229.5 50q-188 0 -282 -59t-94 -177q0 -60 26 -97.5t84 -66.5q29 -14 87 -33.5t145 -42.5q98 -27 168 -53t113 -51q86 -50 131 -121.5t45 -176.5q0 -206 -155 -317t-475 -111z" />
    <glyph glyph-name="T" unicode="T" horiz-adv-x="1251" 
d="M858 1253l-244 -1253h-190l244 1253h-484l30 156h1158l-30 -156h-484z" />
    <glyph glyph-name="U" unicode="U" horiz-adv-x="1479" 
d="M654 -20q-233 0 -367 120.5t-134 330.5q0 44 7.5 105.5t15.5 98.5l150 774h191l-162 -843q-17 -90 -17 -143q0 -136 87.5 -212t244.5 -76q192 0 307.5 101.5t153.5 304.5l168 868h190l-170 -879q-54 -273 -222 -411.5t-443 -138.5z" />
    <glyph glyph-name="V" unicode="V" horiz-adv-x="1366" 
d="M1525 1409l-848 -1409h-198l-302 1409h194l198 -992q9 -62 17.5 -124.5t17.5 -124.5q33 62 66.5 124.5t66.5 124.5l580 992h208z" />
    <glyph glyph-name="W" unicode="W" horiz-adv-x="1933" 
d="M961 895l-419 -895h-223l-142 1409h197l79 -895q6 -77 10 -164t6 -182q40 94 72.5 169.5t58.5 132.5l443 939h183l75 -877q7 -77 11.5 -168t5.5 -196q38 83 58.5 134t35.5 85l481 1022h201l-688 -1409h-223l-71 895q-7 137 -11 218t-5 106q-38 -100 -72 -181t-63 -143z
" />
    <glyph glyph-name="X" unicode="X" horiz-adv-x="1366" 
d="M999 0l-303 606l-524 -606h-211l654 746l-340 663h199l270 -551l475 551h211l-600 -676l368 -733h-199z" />
    <glyph glyph-name="Y" unicode="Y" horiz-adv-x="1366" 
d="M785 584l-113 -584h-190l115 584l-384 825h196l306 -674l560 674h214z" />
    <glyph glyph-name="Z" unicode="Z" horiz-adv-x="1251" 
d="M1112 156l-30 -156h-1122l27 143l1054 1110h-765l30 156h1002l-27 -139l-1054 -1114h885z" />
    <glyph glyph-name="bracketleft" unicode="[" horiz-adv-x="569" 
d="M392 -296l-25 -129h-406l370 1909h407l-25 -129h-233l-321 -1651h233z" />
    <glyph glyph-name="backslash" unicode="\" horiz-adv-x="569" 
d="M294 1484l178 -1504h-152l-174 1504h148z" />
    <glyph glyph-name="bracketright" unicode="]" horiz-adv-x="569" 
d="M608 1484l-371 -1909h-406l25 129h232l321 1651h-233l25 129h407z" />
    <glyph glyph-name="asciicircum" unicode="^" horiz-adv-x="961" 
d="M508 1306l-306 -633h-162l368 736h203l370 -736h-164z" />
    <glyph glyph-name="underscore" unicode="_" horiz-adv-x="1139" 
d="M1018 -174v-76h-1178v76h1178z" />
    <glyph glyph-name="grave" unicode="`" horiz-adv-x="682" 
d="M503 1221l-3 -20h-88l-282 278l5 29h207z" />
    <glyph glyph-name="a" unicode="a" horiz-adv-x="1139" 
d="M927 -10q-93 0 -135.5 38.5t-42.5 114.5q0 16 2 32t3 32h-6q-83 -126 -172 -176.5t-215 -50.5q-140 0 -227.5 84t-87.5 214q0 185 132.5 280t422.5 99l232 3q19 95 19 127q0 91 -53 134.5t-147 43.5q-119 0 -180 -42.5t-88 -129.5l-178 29q45 147 156.5 213.5t299.5 66.5
q171 0 270.5 -80t99.5 -215q0 -66 -19 -157l-74 -378q-11 -50 -11 -88q0 -37 20.5 -55t60.5 -18q29 0 60 7l-14 -112q-33 -8 -65 -12t-63 -4zM237 286q0 -75 48.5 -122t125.5 -47q97 0 175 42q78 41 129 108t67 144l27 125l-199 -4q-119 -3 -186.5 -21t-105.5 -47
q-37 -28 -59 -72t-22 -106z" />
    <glyph glyph-name="b" unicode="b" horiz-adv-x="1139" 
d="M744 1102q157 0 244.5 -94.5t87.5 -259.5q0 -101 -15 -199.5t-46 -193.5q-61 -190 -173 -282.5t-285 -92.5q-123 0 -200 52t-109 146h-3q-4 -21 -11.5 -55t-15.5 -64q-6 -24 -10.5 -40.5t-5.5 -18.5h-173q5 15 19.5 82t29.5 141l245 1261h180l-83 -423q-4 -23 -12.5 -58
t-21.5 -82h4q73 95 154 138t200 43zM692 963q-191 0 -289 -162q-29 -49 -50.5 -113.5t-35.5 -132.5q-19 -100 -19 -178q0 -125 63.5 -194.5t176.5 -69.5q124 0 196 76q36 38 64.5 101t48.5 138.5t30.5 151t10.5 136.5q0 123 -47 185t-149 62z" />
    <glyph glyph-name="c" unicode="c" horiz-adv-x="1024" 
d="M469 122q103 0 175 57.5t114 172.5l156 -49q-122 -323 -449 -323q-192 0 -295 109t-103 306q0 201 73 372q72 172 191.5 253.5t293.5 81.5q169 0 267.5 -85t108.5 -233l-177 -25q-6 97 -60 149.5t-145 52.5q-147 0 -227.5 -91.5t-120.5 -282.5q-10 -49 -15 -99.5
t-5 -98.5q0 -267 218 -267z" />
    <glyph glyph-name="d" unicode="d" horiz-adv-x="1139" 
d="M401 -21q-157 0 -244.5 94.5t-87.5 259.5q0 202 62 394q62 191 173 282.5t284 91.5q123 0 200.5 -52t109.5 -146h5q7 41 14 81.5t14 80.5l82 419h180l-245 -1261q-14 -70 -23.5 -126t-14.5 -97h-172q0 51 21 160h-5q-73 -95 -154 -138t-199 -43zM453 118q192 0 289 163
q33 54 56.5 128.5t36 152.5t12.5 142q0 125 -63.5 194.5t-176.5 69.5q-122 0 -193 -72q-47 -48 -82.5 -141t-55 -198.5t-19.5 -191.5q0 -123 47 -185t149 -62z" />
    <glyph glyph-name="e" unicode="e" horiz-adv-x="1139" 
d="M256 503q-6 -34 -9 -113q0 -133 66.5 -204t200.5 -71q97 0 176 48t123 131l138 -63q-73 -131 -185.5 -191t-272.5 -60q-201 0 -312.5 111.5t-111.5 313.5q0 199 71 361q71 159 200 247.5t290 88.5q205 0 319 -103t114 -291q0 -104 -24 -205h-783zM280 641h600l4 72
q0 124 -64.5 190t-185.5 66q-134 0 -225.5 -85.5t-128.5 -242.5z" />
    <glyph glyph-name="f" unicode="f" horiz-adv-x="569" 
d="M434 951l-185 -951h-180l185 951h-152l26 131h152l23 122q22 110 61 168q38 56 99.5 84t158.5 28q75 0 124 -12l-26 -137q-11 2 -22.5 3.5t-22.5 2.5t-23 1.5t-23 0.5q-64 0 -97 -32.5t-53 -131.5l-19 -97h211l-26 -131h-211z" />
    <glyph glyph-name="g" unicode="g" horiz-adv-x="1139" 
d="M397 -425q-169 0 -267.5 63t-125.5 189l163 42q34 -157 234 -157q142 0 220 73.5t110 241.5q8 44 17 87.5t17 86.5h-2q-61 -88 -109 -128q-48 -39 -107.5 -60t-136.5 -21q-153 0 -246.5 100.5t-93.5 266.5q0 89 17 189t48.5 193t74.5 161q65 102 158 150.5t220 48.5
q121 0 204.5 -57t107.5 -147h2q5 25 15 66.5t20 77t13 41.5h171l-19 -82l-30 -142l-161 -827q-48 -242 -172 -349t-342 -107zM259 373q0 -248 207 -248q108 0 196 79q88 78 136.5 215t48.5 285q0 125 -64 194.5t-176 69.5q-90 0 -150 -37t-101 -116q-27 -52 -49 -130.5
t-35 -161.5t-13 -150z" />
    <glyph glyph-name="h" unicode="h" horiz-adv-x="1139" 
d="M383 897q83 115 166.5 159.5t198.5 44.5q148 0 222.5 -73t74.5 -211q0 -32 -5 -73t-16 -91l-127 -653h-181l126 645q18 89 18 150q0 167 -179 167q-84 0 -155.5 -43.5t-122 -123t-72.5 -189.5l-118 -606h-179l288 1484h180l-75 -386q-9 -50 -21 -100.5t-26 -100.5h3z" />
    <glyph glyph-name="i" unicode="i" horiz-adv-x="455" 
d="M501 1484l-34 -172h-180l34 172h180zM423 1082l-211 -1082h-179l210 1082h180z" />
    <glyph glyph-name="j" unicode="j" horiz-adv-x="455" 
d="M502 1484l-33 -172h-180l33 172h180zM-100 -425q-53 0 -129 14l23 136q26 -4 46.5 -6t36.5 -2q59 0 89 42t47 134l231 1189h180l-237 -1216q-31 -158 -101 -224.5t-186 -66.5z" />
    <glyph glyph-name="k" unicode="k" horiz-adv-x="1024" 
d="M285 378l-72 -378h-179l288 1484h180l-179 -917l204 190l361 325h222l-530 -465l336 -617h-195l-268 502z" />
    <glyph glyph-name="l" unicode="l" horiz-adv-x="455" 
d="M501 1484l-289 -1484h-179l288 1484h180z" />
    <glyph glyph-name="m" unicode="m" horiz-adv-x="1706" 
d="M660 0l124 634q25 122 25 174q0 75 -38 114.5t-124 39.5q-116 0 -202.5 -99t-113.5 -259l-118 -604h-179l166 851q20 95 39 231h170q0 -7 -5 -41.5t-11.5 -75t-11.5 -68.5h3q73 114 146.5 159t175.5 45q248 0 277 -232q83 130 163.5 181t184.5 51q135 0 207.5 -73
t72.5 -211q0 -63 -21 -164l-127 -653h-178l124 634q25 122 25 174q0 75 -38 114.5t-124 39.5q-116 0 -202 -97.5t-114 -257.5l-118 -607h-178z" />
    <glyph glyph-name="n" unicode="n" horiz-adv-x="1139" 
d="M332 606l-118 -606h-180l166 851q10 47 19.5 105t19.5 126h170q0 -7 -5 -41.5t-11.5 -75t-11.5 -68.5h3q83 115 166.5 159.5t198.5 44.5q148 0 222.5 -73t74.5 -211q0 -32 -5 -73t-16 -91l-127 -653h-181l126 645q18 89 18 150q0 167 -179 167q-84 0 -155.5 -43.5
t-122 -123t-72.5 -189.5z" />
    <glyph glyph-name="o" unicode="o" horiz-adv-x="1139" 
d="M1074 683q0 -130 -40 -270t-114 -238q-75 -97 -183 -146t-246 -49q-196 0 -310 118t-114 321q5 207 74 362q70 158 194 239t307 81q210 0 321 -109.5t111 -308.5zM888 683q0 286 -248 286q-135 0 -216 -69q-54 -46 -92.5 -126.5t-59 -175t-20.5 -182.5q0 -148 64 -225.5
t186 -77.5q103 0 165.5 35t109.5 108q47 74 76.5 187.5t34.5 239.5z" />
    <glyph glyph-name="p" unicode="p" horiz-adv-x="1139" 
d="M554 -20q-123 0 -200.5 52t-109.5 146h-5q0 -5 -2 -21.5t-6 -43.5t-30 -161.5t-73 -376.5h-179l249 1286q5 24 9.5 48t8.5 48q5 32 9 63l8 62h167q0 -18 -3 -50.5t-7 -63.5t-7 -47h4q73 95 154 138t200 43q157 0 244.5 -94.5t87.5 -259.5q0 -204 -61 -393
q-61 -190 -173 -282.5t-285 -92.5zM689 963q-99 0 -169.5 -40.5t-119.5 -121.5q-32 -54 -56 -129t-36.5 -152.5t-12.5 -142.5q0 -125 63.5 -194.5t176.5 -69.5q124 0 196 76q36 38 64.5 101t48.5 138.5t30.5 151t10.5 136.5q0 123 -47 185t-149 62z" />
    <glyph glyph-name="q" unicode="q" horiz-adv-x="1139" 
d="M401 -21q-157 0 -244.5 94.5t-87.5 259.5q0 202 62 394q62 191 173 282.5t284 91.5q123 0 200.5 -52t109.5 -146h5q8 36 17.5 78t18.5 75t13 40h173q-11 -39 -27.5 -112.5t-37.5 -182.5q-59 -306 -119 -613t-119 -613h-180l85 439l32 146h-4q-73 -95 -154 -138t-200 -43z
M453 118q99 0 169.5 40.5t119.5 122.5q33 54 56.5 128.5t36 152.5t12.5 142q0 125 -63.5 194.5t-176.5 69.5q-122 0 -193 -72q-47 -48 -82.5 -141t-55 -198.5t-19.5 -191.5q0 -123 47 -185t149 -62z" />
    <glyph glyph-name="r" unicode="r" horiz-adv-x="682" 
d="M718 938q-42 13 -90 13q-70 0 -132 -50.5t-107 -137.5t-65 -199l-110 -564h-180l162 830q6 35 12.5 69.5t12.5 68.5q5 29 9.5 57.5t8.5 56.5h170l-27 -169l-8 -52h4q66 133 130 187t148 54q44 0 95 -14z" />
    <glyph glyph-name="s" unicode="s" horiz-adv-x="1024" 
d="M907 317q0 -162 -124 -249.5t-358 -87.5q-174 0 -276.5 58.5t-143.5 184.5l147 56q33 -88 102.5 -128t186.5 -40q291 0 291 190q0 62 -51 104q-52 41 -216 92q-129 43 -192 82q-64 40 -98 93.5t-34 124.5q0 145 116 223.5t327 78.5q177 0 276.5 -63.5t121.5 -191.5
l-163 -25q-22 79 -83 114t-164 35q-124 0 -190.5 -39.5t-66.5 -111.5q0 -42 21 -70.5t61 -51.5t182 -68q128 -40 192 -81q65 -41 100.5 -97t35.5 -132z" />
    <glyph glyph-name="t" unicode="t" horiz-adv-x="569" 
d="M275 -20q-85 0 -133.5 51t-48.5 135q0 55 15 130l126 655h-125l26 131h127l105 242h120l-47 -242h200l-26 -131h-200l-125 -645q-12 -60 -12 -95q0 -44 22.5 -66t67.5 -22q39 0 100 14l-19 -133q-99 -24 -173 -24z" />
    <glyph glyph-name="u" unicode="u" horiz-adv-x="1139" 
d="M748 185q-83 -115 -166.5 -159.5t-198.5 -44.5q-148 0 -222.5 73t-74.5 211q0 22 2.5 47t7 54.5t11.5 62.5l127 653h181l-126 -645q-18 -88 -18 -150q0 -167 179 -167q84 0 155.5 43.5t122.5 123.5t72 189l118 606h180l-166 -851q-10 -47 -19.5 -105t-19.5 -126h-170
q0 8 5 42t12 75t11 68h-3z" />
    <glyph glyph-name="v" unicode="v" horiz-adv-x="1024" 
d="M1122 1082l-615 -1082h-213l-182 1082h187l101 -704q3 -22 6 -50.5t6.5 -61.5t6.5 -72l4 -53l26 53q23 47 46 92.5t47 89.5l384 706h196z" />
    <glyph glyph-name="w" unicode="w" horiz-adv-x="1479" 
d="M762 803l-360 -803h-208l-92 1082h178l40 -735q2 -49 4 -98.5t3 -99.5q20 47 40.5 95t40.5 95l341 743h193l44 -743q3 -54 4.5 -101.5t1.5 -88.5q7 15 26.5 60t52.5 118l342 755h176l-521 -1082h-209l-37 698l-6 236q-15 -37 -28.5 -70t-25.5 -61z" />
    <glyph glyph-name="x" unicode="x" horiz-adv-x="1024" 
d="M497 444l-380 -444h-199l492 556l-264 526h189l193 -421l350 421h206l-469 -524l281 -558h-190z" />
    <glyph glyph-name="y" unicode="y" horiz-adv-x="1024" 
d="M16 -425q-70 0 -132 14l31 134q48 -8 77 -8q95 0 167.5 64t142.5 186l27 47l-217 1070h183l112 -598q8 -40 15 -84.5t13 -86t10 -72.5t4 -45q5 11 11.5 24.5t14.5 29.5l122 225l331 607h199l-626 -1082q-112 -195 -178 -270q-67 -78 -141 -116.5t-166 -38.5z" />
    <glyph glyph-name="z" unicode="z" horiz-adv-x="1024" 
d="M851 139l-25 -139h-838l23 137l742 806h-566l25 139h784l-24 -137l-742 -806h621z" />
    <glyph glyph-name="braceleft" unicode="{" horiz-adv-x="684" 
d="M366 -425q-111 0 -176.5 66.5t-65.5 183.5q0 64 10 117l56 287q9 44 9 77q0 83 -46.5 119.5t-131.5 40.5l25 127q216 7 261 236l70 362q28 143 103.5 218t217.5 75h135l-25 -129h-63q-89 0 -137.5 -47t-72.5 -168l-69 -356q-19 -95 -84.5 -162.5t-158.5 -89.5v-2
q69 -17 109.5 -67t40.5 -128q0 -27 -6 -59l-61 -319q-5 -24 -9 -67t-4 -61q0 -56 34.5 -90.5t111.5 -34.5h48l-25 -129h-96z" />
    <glyph glyph-name="bar" unicode="|" horiz-adv-x="532" 
d="M379 1484v-1938h-166v1938h166z" />
    <glyph glyph-name="braceright" unicode="}" horiz-adv-x="684" 
d="M308 1484q111 0 176.5 -66.5t65.5 -183.5q0 -64 -10 -117l-56 -287q-9 -43 -9 -77q0 -83 46.5 -119.5t131.5 -40.5l-25 -127q-216 -7 -261 -236l-70 -362q-28 -143 -103.5 -218t-217.5 -75h-135l25 129h63q89 0 137.5 47t72.5 168l69 356q19 95 84.5 162.5t158.5 89.5v2
q-69 17 -109.5 67t-40.5 128q0 28 6 59l61 319q5 24 9 68t4 60q0 56 -34.5 90.5t-111.5 34.5h-48l25 129h96z" />
    <glyph glyph-name="asciitilde" unicode="~" horiz-adv-x="1196" 
d="M874 553q-69 0 -141.5 22t-145.5 48q-129 45 -217 45q-67 0 -125 -20.5t-123 -67.5v143q111 84 263 84q51 0 109.5 -11.5t125.5 -34.5q98 -34 147.5 -49t74 -18.5t48.5 -3.5q129 0 244 92v-149q-60 -42 -117.5 -61t-142.5 -19z" />
    <glyph glyph-name="nbspace" unicode="&#xa0;" horiz-adv-x="569" 
 />
    <glyph glyph-name="exclamdown" unicode="&#xa1;" horiz-adv-x="682" 
d="M536 1083l-40 -201h-194l40 201h194zM284 686h148l-172 -1012h-196z" />
    <glyph glyph-name="cent" unicode="&#xa2;" horiz-adv-x="1139" 
d="M560 278q103 0 175 57.5t114 172.5l156 -49q-58 -154 -162 -234.5t-255 -88.5l-32 -167h-124l34 173q-149 22 -228.5 128.5t-79.5 280.5q0 120 29 239q19 76 47 144t65 120q65 94 158 145.5t226 57.5l28 152h124l-29 -158q131 -19 204.5 -101t81.5 -210l-177 -25
q-6 97 -60 149.5t-145 52.5q-127 0 -204 -67q-49 -43 -85 -122t-56 -171q-11 -52 -17 -106t-6 -106q0 -267 218 -267z" />
    <glyph glyph-name="sterling" unicode="&#xa3;" horiz-adv-x="1139" 
d="M1075 310q-37 -152 -137 -231t-250 -79h-700l29 154q97 46 155.5 124.5t82.5 202.5l28 144h-186l25 129h186l55 280q40 205 152.5 300.5t300.5 95.5q148 0 243.5 -62.5t118.5 -167.5l-164 -50q-20 64 -76 98t-129 34q-114 0 -177.5 -57.5t-87.5 -182.5l-56 -288h408
l-25 -129h-408l-27 -147q-20 -111 -82.5 -197t-151.5 -128h464q103 0 167.5 42.5t90.5 138.5z" />
    <glyph glyph-name="currency" unicode="&#xa4;" horiz-adv-x="1139" 
d="M165 684q0 138 78 252l-100 100l104 103l99 -101q113 82 254 82q136 0 251 -80l97 97l104 -105l-96 -96q80 -118 80 -252q0 -139 -82 -252l100 -100l-102 -105l-101 101q-114 -78 -251 -78q-142 0 -252 80l-105 -105l-102 105l102 102q-78 114 -78 252zM319 686
q0 -76 38 -139.5t101.5 -102t141.5 -38.5q76 0 139.5 37.5t102 101t38.5 141.5t-38 141.5t-101.5 101.5t-140.5 38q-78 0 -141.5 -38.5t-101.5 -102.5t-38 -140z" />
    <glyph glyph-name="yen" unicode="&#xa5;" horiz-adv-x="1139" 
d="M604 303l-59 -303h-178l59 303h-381l25 127h381l32 154h-383l24 125h320l-285 700h193l246 -647l500 647h205l-558 -700h321l-24 -125h-383l-30 -154h383l-25 -127h-383z" />
    <glyph glyph-name="brokenbar" unicode="&#xa6;" horiz-adv-x="532" 
d="M379 1485v-778h-166v778h166zM379 324v-779h-166v779h166z" />
    <glyph glyph-name="section" unicode="&#xa7;" horiz-adv-x="1139" 
d="M1010 673q0 -112 -68.5 -183t-205.5 -102q132 -82 132 -223q0 -162 -124 -249.5t-361 -87.5q-171 0 -274 58.5t-143 184.5l147 56q33 -88 102.5 -128t186.5 -40q143 0 217 48.5t74 141.5q0 32 -13.5 58.5t-39.5 48.5q-51 42 -213 92q-325 100 -325 325q0 223 276 284
q-134 86 -134 225q0 145 117 223.5t334 78.5q173 0 270.5 -63.5t119.5 -191.5l-163 -25q-20 74 -78.5 111.5t-155.5 37.5q-270 0 -270 -163q0 -54 54 -98q26 -22 78.5 -45t129.5 -48q182 -57 256 -136.5t74 -189.5zM276 688q0 -46 27 -84.5t88 -72.5q60 -33 159 -63
q132 5 208.5 55.5t76.5 138.5q0 51 -28.5 88.5t-82.5 66.5q-53 28 -191 69q-117 -6 -187 -60t-70 -138z" />
    <glyph glyph-name="dieresis" unicode="&#xa8;" horiz-adv-x="682" 
d="M729 1403l-35 -184h-173l35 184h173zM347 1403l-35 -184h-175l35 184h175z" />
    <glyph glyph-name="copyright" unicode="&#xa9;" horiz-adv-x="1509" 
d="M1509 707q0 -193 -96 -361q-97 -169 -265.5 -265.5t-361.5 -96.5q-196 0 -366 101q-169 101 -263 267t-94 355q0 194 97 361q97 168 265 265t361 97q194 0 363 -97q168 -97 264 -264.5t96 -361.5zM1417 707q0 169 -84 314q-85 146 -231.5 230t-315.5 84q-168 0 -314 -84
q-146 -85 -230 -231t-84 -313q0 -170 85 -315q84 -146 229 -230t314 -84q171 0 317 85q146 84 230 229.5t84 314.5zM797 279q-188 0 -292 113t-104 317q0 203 100 313.5t289 110.5q244 0 340 -209l-114 -33q-32 69 -90 103t-134 34q-127 0 -194.5 -80.5t-67.5 -238.5
q0 -155 71 -240.5t196 -85.5q156 0 233 156l115 -35q-62 -121 -146.5 -173t-201.5 -52z" />
    <glyph glyph-name="ordfeminine" unicode="&#xaa;" horiz-adv-x="758" 
d="M723 657q-66 0 -101.5 29.5t-35.5 78.5l4 40h-4q-66 -85 -131 -119.5t-144 -34.5q-101 0 -161.5 56t-60.5 151q0 125 91 188.5t273 65.5l179 4q18 90 18 113q0 102 -127 102q-76 0 -122 -33.5t-62 -101.5l-132 17q29 110 108.5 164.5t209.5 54.5q127 0 196.5 -53.5
t69.5 -145.5q0 -19 -2.5 -40t-7.5 -44l-53 -275q-3 -16 -4.5 -29t-1.5 -24q0 -55 48 -55q18 0 44 8l-15 -104q-36 -13 -76 -13zM243 865q0 -47 29 -75t80 -28q60 0 113 29t90.5 77t48.5 104l10 52l-139 -4q-123 -3 -177.5 -41.5t-54.5 -113.5z" />
    <glyph glyph-name="guillemotleft" unicode="&#xab;" horiz-adv-x="1139" 
d="M983 164l-5 -23h-160l-267 365l12 63l410 371h158l-6 -37l-410 -372zM505 163l-5 -22h-159l-265 365l12 63l408 371h157l-6 -38l-407 -372z" />
    <glyph glyph-name="logicalnot" unicode="&#xac;" horiz-adv-x="1196" 
d="M1095 754v-574h-145v428h-850v146h995z" />
    <glyph glyph-name="registered" unicode="&#xae;" horiz-adv-x="1509" 
d="M1509 707q0 -193 -96 -361q-97 -169 -265.5 -265.5t-361.5 -96.5q-196 0 -366 101q-169 101 -263 267t-94 355q0 194 97 361q97 168 265 265t361 97q194 0 363 -97q168 -97 264 -264.5t96 -361.5zM1417 707q0 169 -84 314q-85 146 -231.5 230t-315.5 84q-168 0 -314 -84
q-146 -85 -230 -231t-84 -313q0 -170 85 -315q84 -146 229 -230t314 -84q171 0 317 85q146 84 230 229.5t84 314.5zM627 625v-336h-127v831h307q142 0 217.5 -63t75.5 -174q0 -102 -52 -163.5t-137 -80.5l221 -350h-145l-199 336h-161zM973 881q0 69 -47.5 105t-128.5 36
h-170v-301h182q80 0 122 42.5t42 117.5z" />
    <glyph glyph-name="overscore" unicode="&#xaf;" horiz-adv-x="1131" 
d="M1148 1620v-117h-1165v117h1165z" />
    <glyph glyph-name="degree" unicode="&#xb0;" horiz-adv-x="819" 
d="M770 1145q0 -79 -39 -144t-104 -103t-144 -38q-78 0 -143.5 39t-104.5 103.5t-39 142.5t38.5 143t103.5 103.5t145 38.5t145 -38t103.5 -102.5t38.5 -144.5zM661 1145q0 76 -51.5 128t-126.5 52t-126.5 -53t-51.5 -127t52.5 -127t125.5 -53q74 0 126 52.5t52 127.5z" />
    <glyph glyph-name="plusminus" unicode="&#xb1;" horiz-adv-x="1124" 
d="M636 680v-395h-147v395h-424v145h424v394h147v-394h424v-145h-424zM1060 145v-145h-995v145h995z" />
    <glyph glyph-name="twosuperior" unicode="&#xb2;" horiz-adv-x="682" 
d="M30 563l18 103q29 47 69 88q26 26 53 49.5t69.5 52t111.5 69.5q134 78 172 111q41 34 62 71.5t21 84.5q0 51 -34 87t-99 36q-70 0 -120 -39t-64 -102l-125 15q29 114 109.5 173t206.5 59q119 0 190.5 -60t71.5 -155q0 -48 -17 -93q-14 -37 -39 -69.5t-58 -62.5
q-27 -23 -77 -56.5t-124 -76.5q-97 -56 -147.5 -94.5t-76.5 -77.5h448l-20 -113h-601z" />
    <glyph glyph-name="threesuperior" unicode="&#xb3;" horiz-adv-x="682" 
d="M332 1049h57q97 0 149 41.5t52 113.5q0 48 -33 79.5t-90 31.5q-68 0 -116.5 -35t-67.5 -100l-125 25q34 108 113.5 162t205.5 54q111 0 181 -56.5t70 -146.5q0 -89 -54.5 -145t-163.5 -78v-2q73 -13 118 -60.5t45 -115.5q0 -121 -89 -193.5t-234 -72.5q-261 0 -297 234
l129 16q9 -72 54.5 -109t119.5 -37q86 0 133.5 44.5t47.5 120.5q0 54 -44 87t-121 33h-61z" />
    <glyph glyph-name="acute" unicode="&#xb4;" horiz-adv-x="682" 
d="M643 1479l-374 -278h-94l3 20l253 287h217z" />
    <glyph glyph-name="mu1" unicode="&#xb5;" horiz-adv-x="1180" 
d="M253 -44l-74 -381h-180l293 1507h181l-134 -686q-5 -32 -8 -57t-3 -44q0 -176 162 -176q112 0 194.5 95t110.5 258l118 610h180l-157 -807q-9 -40 -9 -82q0 -72 57 -72q10 0 56 8l-22 -129q-74 -20 -123 -20q-67 0 -98.5 39t-36.5 113l-1 37h-2q-64 -94 -141.5 -141.5
t-167.5 -47.5q-62 0 -107 21t-68 58v0z" />
    <glyph glyph-name="paragraph" unicode="&#xb6;" horiz-adv-x="1100" 
d="M619 1307v-1571h-113v958q-168 0 -265 92.5t-97 262.5q0 169 98.5 264.5t271.5 95.5h563v-102h-129v-1571h-112v1571h-217z" />
    <glyph glyph-name="middot" unicode="&#xb7;" horiz-adv-x="682" 
d="M459 666l-43 -220h-195l43 220h195z" />
    <glyph glyph-name="cedilla" unicode="&#xb8;" horiz-adv-x="682" 
d="M318 -96q81 -5 121.5 -41t40.5 -95q0 -97 -75.5 -145t-227.5 -48q-25 0 -51.5 1.5t-54.5 5.5l21 91q48 -6 88 -6q91 0 128.5 22t37.5 67q0 72 -119 72q-22 0 -36.5 -0.5t-21.5 -1.5l101 174h107z" />
    <glyph glyph-name="onesuperior" unicode="&#xb9;" horiz-adv-x="682" 
d="M638 670l-21 -107h-556l20 107h211l118 609l-229 -138l26 131l237 137h123l-144 -739h215z" />
    <glyph glyph-name="ordmasculine" unicode="&#xba;" horiz-adv-x="748" 
d="M403 651q-145 0 -223.5 78.5t-78.5 220.5q0 62 13 128q34 177 135.5 265.5t270.5 88.5q145 0 223.5 -78.5t78.5 -220.5q0 -62 -13 -128q-34 -177 -135.5 -265.5t-270.5 -88.5zM513 1325q-94 0 -149 -47q-36 -32 -62 -90.5t-40 -125t-14 -124.5q0 -180 160 -180
q49 0 86.5 12.5t65.5 37.5q37 33 63 93.5t40.5 129t14.5 123.5q0 94 -43.5 132.5t-121.5 38.5z" />
    <glyph glyph-name="guillemotright" unicode="&#xbb;" horiz-adv-x="1139" 
d="M1049 506l-409 -365h-158l7 39l410 367l-264 372l4 21h156l266 -371zM571 506l-406 -365h-160l7 39l410 367l-264 372l4 21h158l263 -371z" />
    <glyph glyph-name="onequarter" unicode="&#xbc;" horiz-adv-x="1708" 
d="M673 670l-21 -107h-556l20 107h211l118 609l-229 -138l26 131l237 137h123l-144 -739h215zM1578 1409l-1151 -1409h-153l1150 1409h154zM1437 179l-35 -178h-131l35 178h-405l21 111l484 557h161l-108 -555h125l-22 -113h-125zM1412 714q-27 -34 -54 -67.5t-54 -67.5
l-245 -287h269l63 322z" />
    <glyph glyph-name="onehalf" unicode="&#xbd;" horiz-adv-x="1708" 
d="M624 670l-21 -107h-556l20 107h211l118 609l-229 -138l26 131l237 137h123l-144 -739h215zM1528 1409l-1151 -1409h-153l1150 1409h154zM937 1l18 103q29 47 69 88q26 26 53 49.5t69.5 52t111.5 69.5q134 78 172 111q41 34 62 71.5t21 84.5q0 51 -34 87t-99 36
q-70 0 -120 -39t-64 -102l-125 15q29 114 109.5 173t206.5 59q119 0 190.5 -60t71.5 -155q0 -48 -17 -93q-14 -37 -39 -69.5t-58 -62.5q-27 -23 -77 -56.5t-124 -76.5q-97 -56 -147.5 -94.5t-76.5 -77.5h448l-20 -113h-601z" />
    <glyph glyph-name="threequarters" unicode="&#xbe;" horiz-adv-x="1708" 
d="M415 1049h57q97 0 149 41.5t52 113.5q0 48 -33 79.5t-90 31.5q-68 0 -116.5 -35t-67.5 -100l-125 25q34 108 113.5 162t205.5 54q111 0 181 -56.5t70 -146.5q0 -89 -54.5 -145t-163.5 -78v-2q73 -13 118 -60.5t45 -115.5q0 -121 -89 -193.5t-234 -72.5q-261 0 -297 234
l129 16q9 -72 54.5 -109t119.5 -37q86 0 133.5 44.5t47.5 120.5q0 54 -44 87t-121 33h-61zM1578 1409l-1151 -1409h-153l1150 1409h154zM1437 179l-35 -178h-131l35 178h-405l21 111l484 557h161l-108 -555h125l-22 -113h-125zM1412 714q-27 -34 -54 -67.5t-54 -67.5
l-245 -287h269l63 322z" />
    <glyph glyph-name="questiondown" unicode="&#xbf;" horiz-adv-x="1251" 
d="M899 1083l-39 -201h-195l39 201h195zM497 -347q-131 0 -228.5 45.5t-150.5 126.5t-53 185q0 97 30.5 165.5t79.5 119.5q32 34 70 61.5t78.5 51.5t80.5 46q62 35 104 66t70 59q29 31 43.5 62t21.5 65h175q-14 -81 -48 -139q-23 -40 -52.5 -73t-80.5 -69.5t-141 -87.5
q-52 -29 -90 -54.5t-61 -45.5q-46 -42 -69.5 -91t-23.5 -115q0 -98 73 -158t189 -60q140 0 231 70t129 192l165 -40q-63 -195 -198.5 -288.5t-343.5 -93.5z" />
    <glyph glyph-name="Agrave" unicode="&#xc0;" horiz-adv-x="1366" 
d="M365 412l-240 -412h-208l848 1409h217l292 -1409h-195l-75 412h-639zM848 1265q-7 -13 -16 -30t-21 -39l-362 -635h527l-102 553q-7 38 -13 76t-13 75zM1035 1550l-3 -20h-89l-293 217l5 29h207z" />
    <glyph glyph-name="Aacute" unicode="&#xc1;" horiz-adv-x="1366" 
d="M365 412l-240 -412h-208l848 1409h217l292 -1409h-195l-75 412h-639zM848 1265q-7 -13 -16 -30t-21 -39l-362 -635h527l-102 553q-7 38 -13 76t-13 75zM1209 1747l-352 -217h-114l3 20l261 226h207z" />
    <glyph glyph-name="Acircumflex" unicode="&#xc2;" horiz-adv-x="1366" 
d="M365 412l-240 -412h-208l848 1409h217l292 -1409h-195l-75 412h-639zM848 1265q-7 -13 -16 -30t-21 -39l-362 -635h527l-102 553q-7 38 -13 76t-13 75zM904 1669l-259 -139h-113l4 20l280 240h204l177 -240l-4 -20h-95l-192 139h-2z" />
    <glyph glyph-name="Atilde" unicode="&#xc3;" horiz-adv-x="1366" 
d="M365 412l-240 -412h-208l848 1409h217l292 -1409h-195l-75 412h-639zM848 1265q-7 -13 -16 -30t-21 -39l-362 -635h527l-102 553q-7 38 -13 76t-13 75zM1037 1530q-53 0 -101.5 32t-92.5 64.5t-87 32.5q-46 0 -77 -29.5t-56 -99.5h-100q47 152 107.5 210t143.5 58
q55 0 103 -32.5t92 -64.5t85 -32q46 0 79 32.5t53 96.5h102q-34 -106 -67 -159q-32 -51 -77 -80t-107 -29z" />
    <glyph glyph-name="Adieresis" unicode="&#xc4;" horiz-adv-x="1366" 
d="M365 412l-240 -412h-208l848 1409h217l292 -1409h-195l-75 412h-639zM848 1265q-7 -13 -16 -30t-21 -39l-362 -635h527l-102 553q-7 38 -13 76t-13 75zM1198 1714l-35 -184h-173l35 184h173zM816 1714l-35 -184h-175l35 184h175z" />
    <glyph glyph-name="Aring" unicode="&#xc5;" horiz-adv-x="1366" 
d="M347 412l-240 -412h-208l848 1409h217l292 -1409h-195l-75 412h-639zM830 1265q-7 -13 -16 -30t-21 -39l-362 -635h527l-102 553q-7 38 -13 76t-13 75zM1100 1546q0 -66 -33 -121t-87.5 -88t-121.5 -33q-66 0 -121 33t-88 88t-33 121q0 68 33 122.5t88 86.5t121 32
t121 -32.5t88 -87t33 -121.5zM992 1546q0 58 -38 96t-96 38q-59 0 -97 -39.5t-38 -94.5t38 -96t97 -41q58 0 96 40t38 97z" />
    <glyph glyph-name="AE" unicode="&#xc6;" horiz-adv-x="2048" 
d="M401 412l-279 -412h-203l959 1409h1189l-30 -156h-739l-88 -452h679l-30 -154h-679l-95 -491h780l-31 -156h-971l81 412h-543zM500 561h473l136 701h-151l-136 -216z" />
    <glyph glyph-name="Ccedilla" unicode="&#xc7;" horiz-adv-x="1479" 
d="M1215 426l143 -89q-126 -188 -286 -272.5t-372 -84.5q-181 0 -314 73q-133 72 -203 206t-70 310q0 246 105 445t291.5 307.5t416.5 108.5q217 0 366.5 -90.5t197.5 -254.5l-180 -55q-36 112 -139.5 178t-254.5 66q-185 0 -324 -88q-140 -88 -215 -249t-75 -371
q0 -200 109 -315.5t302 -115.5q148 0 276 73.5t226 217.5zM708 -96q81 -5 121.5 -41t40.5 -95q0 -97 -75.5 -145t-227.5 -48q-25 0 -51.5 1.5t-54.5 5.5l21 91q48 -6 88 -6q91 0 128.5 22t37.5 67q0 72 -119 72q-22 0 -36.5 -0.5t-21.5 -1.5l101 174h107z" />
    <glyph glyph-name="Egrave" unicode="&#xc8;" horiz-adv-x="1366" 
d="M1183 156l-30 -156h-1090l273 1409h1049l-30 -156h-858l-88 -452h798l-30 -154h-798l-95 -491h899zM1029 1550l-3 -20h-89l-293 217l5 29h207z" />
    <glyph glyph-name="Eacute" unicode="&#xc9;" horiz-adv-x="1366" 
d="M1183 156l-30 -156h-1090l273 1409h1049l-30 -156h-858l-88 -452h798l-30 -154h-798l-95 -491h899zM1193 1747l-352 -217h-114l3 20l261 226h207z" />
    <glyph glyph-name="Ecircumflex" unicode="&#xca;" horiz-adv-x="1366" 
d="M1183 156l-30 -156h-1090l273 1409h1049l-30 -156h-858l-88 -452h798l-30 -154h-798l-95 -491h899zM913 1669l-259 -139h-113l4 20l280 240h204l177 -240l-4 -20h-95l-192 139h-2z" />
    <glyph glyph-name="Edieresis" unicode="&#xcb;" horiz-adv-x="1366" 
d="M1183 156l-30 -156h-1090l273 1409h1049l-30 -156h-858l-88 -452h798l-30 -154h-798l-95 -491h899zM1185 1714l-35 -184h-173l35 184h173zM803 1714l-35 -184h-175l35 184h175z" />
    <glyph glyph-name="Igrave" unicode="&#xcc;" horiz-adv-x="569" 
d="M546 1409l-274 -1409h-191l274 1409h191zM596 1550l-3 -20h-89l-293 217l5 29h207z" />
    <glyph glyph-name="Iacute" unicode="&#xcd;" horiz-adv-x="569" 
d="M546 1409l-274 -1409h-191l274 1409h191zM831 1747l-352 -217h-114l3 20l261 226h207z" />
    <glyph glyph-name="Icircumflex" unicode="&#xce;" horiz-adv-x="569" 
d="M546 1409l-274 -1409h-191l274 1409h191zM501 1669l-259 -139h-113l4 20l280 240h204l177 -240l-4 -20h-95l-192 139h-2z" />
    <glyph glyph-name="Idieresis" unicode="&#xcf;" horiz-adv-x="569" 
d="M546 1409l-274 -1409h-191l274 1409h191zM779 1714l-35 -184h-173l35 184h173zM397 1714l-35 -184h-175l35 184h175z" />
    <glyph glyph-name="Eth" unicode="&#xd0;" horiz-adv-x="1479" 
d="M764 1409q208 0 358 -74.5t230.5 -212.5t80.5 -331q0 -233 -98 -412q-99 -178 -289.5 -278.5t-433.5 -100.5h-549l125 647h-154l30 154h154l118 608h428zM283 153h304q196 0 344 78q149 77 228.5 222.5t79.5 339.5q0 219 -126 341t-353 122h-262l-89 -455h406l-30 -154
h-406z" />
    <glyph glyph-name="Ntilde" unicode="&#xd1;" horiz-adv-x="1479" 
d="M414 943l-181 -943h-170l273 1409h212l534 -1215q13 95 24 166t21 118l181 931h172l-273 -1409h-220l-531 1210q-11 -85 -21.5 -152t-20.5 -115zM1085 1530q-53 0 -101.5 32t-92.5 64.5t-87 32.5q-46 0 -77 -29.5t-56 -99.5h-100q47 152 107.5 210t143.5 58
q55 0 103 -32.5t92 -64.5t85 -32q46 0 79 32.5t53 96.5h102q-34 -106 -67 -159q-32 -51 -77 -80t-107 -29z" />
    <glyph glyph-name="Ograve" unicode="&#xd2;" horiz-adv-x="1593" 
d="M938 1430q185 0 319 -71t206.5 -201t72.5 -307q-4 -266 -112 -463q-107 -196 -293 -302t-422 -106q-201 0 -340 81q-125 71 -191.5 202t-66.5 310q0 240 106 440q105 200 294 308.5t427 108.5zM929 1276q-199 0 -339 -89q-93 -59 -157 -160t-97.5 -222t-33.5 -242
q0 -209 106.5 -318.5t309.5 -109.5q197 0 336 87q92 58 157 155.5t99.5 219.5t34.5 250q0 207 -108.5 318t-307.5 111zM1062 1550l-3 -20h-89l-293 217l5 29h207z" />
    <glyph glyph-name="Oacute" unicode="&#xd3;" horiz-adv-x="1593" 
d="M938 1430q185 0 319 -71t206.5 -201t72.5 -307q-4 -266 -112 -463q-107 -196 -293 -302t-422 -106q-201 0 -340 81q-125 71 -191.5 202t-66.5 310q0 240 106 440q105 200 294 308.5t427 108.5zM929 1276q-199 0 -339 -89q-93 -59 -157 -160t-97.5 -222t-33.5 -242
q0 -209 106.5 -318.5t309.5 -109.5q197 0 336 87q92 58 157 155.5t99.5 219.5t34.5 250q0 207 -108.5 318t-307.5 111zM1283 1747l-352 -217h-114l3 20l261 226h207z" />
    <glyph glyph-name="Ocircumflex" unicode="&#xd4;" horiz-adv-x="1593" 
d="M938 1430q185 0 319 -71t206.5 -201t72.5 -307q-4 -266 -112 -463q-107 -196 -293 -302t-422 -106q-201 0 -340 81q-125 71 -191.5 202t-66.5 310q0 240 106 440q105 200 294 308.5t427 108.5zM929 1276q-199 0 -339 -89q-93 -59 -157 -160t-97.5 -222t-33.5 -242
q0 -209 106.5 -318.5t309.5 -109.5q197 0 336 87q92 58 157 155.5t99.5 219.5t34.5 250q0 207 -108.5 318t-307.5 111zM972 1669l-259 -139h-113l4 20l280 240h204l177 -240l-4 -20h-95l-192 139h-2z" />
    <glyph glyph-name="Otilde" unicode="&#xd5;" horiz-adv-x="1593" 
d="M938 1430q185 0 319 -71t206.5 -201t72.5 -307q-4 -266 -112 -463q-107 -196 -293 -302t-422 -106q-201 0 -340 81q-125 71 -191.5 202t-66.5 310q0 240 106 440q105 200 294 308.5t427 108.5zM929 1276q-199 0 -339 -89q-93 -59 -157 -160t-97.5 -222t-33.5 -242
q0 -209 106.5 -318.5t309.5 -109.5q197 0 336 87q92 58 157 155.5t99.5 219.5t34.5 250q0 207 -108.5 318t-307.5 111zM1136 1530q-53 0 -101.5 32t-92.5 64.5t-87 32.5q-46 0 -77 -29.5t-56 -99.5h-100q47 152 107.5 210t143.5 58q55 0 103 -32.5t92 -64.5t85 -32
q46 0 79 32.5t53 96.5h102q-34 -106 -67 -159q-32 -51 -77 -80t-107 -29z" />
    <glyph glyph-name="Odieresis" unicode="&#xd6;" horiz-adv-x="1593" 
d="M938 1430q185 0 319 -71t206.5 -201t72.5 -307q-4 -266 -112 -463q-107 -196 -293 -302t-422 -106q-201 0 -340 81q-125 71 -191.5 202t-66.5 310q0 240 106 440q105 200 294 308.5t427 108.5zM929 1276q-199 0 -339 -89q-93 -59 -157 -160t-97.5 -222t-33.5 -242
q0 -209 106.5 -318.5t309.5 -109.5q197 0 336 87q92 58 157 155.5t99.5 219.5t34.5 250q0 207 -108.5 318t-307.5 111zM1256 1714l-35 -184h-173l35 184h173zM874 1714l-35 -184h-175l35 184h175z" />
    <glyph glyph-name="multiply" unicode="&#xd7;" horiz-adv-x="1196" 
d="M630 580l-356 -355l-102 105l354 354l-352 352l104 103l350 -353l350 351l105 -105l-350 -348l352 -352l-102 -105z" />
    <glyph glyph-name="Oslash" unicode="&#xd8;" horiz-adv-x="1593" 
d="M1423 1205q103 -145 103 -354q-4 -266 -112 -463q-107 -196 -293 -302t-422 -106q-253 0 -405 124l-161 -157h-189l260 254q-103 148 -103 372q0 240 106 440q105 200 294 308.5t427 108.5q249 0 404 -127l167 163h192zM919 1276q-199 0 -339 -89q-93 -59 -157 -160
t-97.5 -222t-33.5 -242q0 -138 46 -231l870 850q-109 94 -289 94zM1335 847q0 134 -46 227l-870 -848q104 -91 289 -91q197 0 336 87q92 58 157 155.5t99.5 219.5t34.5 250z" />
    <glyph glyph-name="Ugrave" unicode="&#xd9;" horiz-adv-x="1479" 
d="M654 -20q-233 0 -367 120.5t-134 330.5q0 44 7.5 105.5t15.5 98.5l150 774h191l-162 -843q-17 -90 -17 -143q0 -136 87.5 -212t244.5 -76q192 0 307.5 101.5t153.5 304.5l168 868h190l-170 -879q-54 -273 -222 -411.5t-443 -138.5zM1074 1550l-3 -20h-89l-293 217l5 29
h207z" />
    <glyph glyph-name="Uacute" unicode="&#xda;" horiz-adv-x="1479" 
d="M654 -20q-233 0 -367 120.5t-134 330.5q0 44 7.5 105.5t15.5 98.5l150 774h191l-162 -843q-17 -90 -17 -143q0 -136 87.5 -212t244.5 -76q192 0 307.5 101.5t153.5 304.5l168 868h190l-170 -879q-54 -273 -222 -411.5t-443 -138.5zM1242 1747l-352 -217h-114l3 20
l261 226h207z" />
    <glyph glyph-name="Ucircumflex" unicode="&#xdb;" horiz-adv-x="1479" 
d="M654 -20q-233 0 -367 120.5t-134 330.5q0 44 7.5 105.5t15.5 98.5l150 774h191l-162 -843q-17 -90 -17 -143q0 -136 87.5 -212t244.5 -76q192 0 307.5 101.5t153.5 304.5l168 868h190l-170 -879q-54 -273 -222 -411.5t-443 -138.5zM956 1669l-259 -139h-113l4 20l280 240
h204l177 -240l-4 -20h-95l-192 139h-2z" />
    <glyph glyph-name="Udieresis" unicode="&#xdc;" horiz-adv-x="1479" 
d="M654 -20q-233 0 -367 120.5t-134 330.5q0 44 7.5 105.5t15.5 98.5l150 774h191l-162 -843q-17 -90 -17 -143q0 -136 87.5 -212t244.5 -76q192 0 307.5 101.5t153.5 304.5l168 868h190l-170 -879q-54 -273 -222 -411.5t-443 -138.5zM1226 1714l-35 -184h-173l35 184h173z
M844 1714l-35 -184h-175l35 184h175z" />
    <glyph glyph-name="Yacute" unicode="&#xdd;" horiz-adv-x="1366" 
d="M785 584l-113 -584h-190l115 584l-384 825h196l306 -674l560 674h214zM1168 1747l-352 -217h-114l3 20l261 226h207z" />
    <glyph glyph-name="Thorn" unicode="&#xde;" horiz-adv-x="1366" 
d="M314 297l-60 -297h-191l274 1409h191l-49 -252h327q237 0 369 -102t132 -287q0 -146 -69 -252t-196.5 -162.5t-303.5 -56.5h-424zM344 448h387q191 0 286.5 78t95.5 233q0 119 -79 182t-233 63h-349z" />
    <glyph glyph-name="germandbls" unicode="&#xdf;" horiz-adv-x="1251" 
d="M1123 308q0 -159 -108 -248t-301 -89q-86 0 -167.5 16t-129.5 39l56 143q58 -27 119.5 -40.5t126.5 -13.5q110 0 169 49.5t59 140.5q0 56 -32 107.5t-106 116.5q-73 63 -106 116.5t-33 110.5q0 76 38.5 133t114.5 102q82 48 117 92.5t35 102.5q0 69 -60 113t-162 44
q-145 0 -227 -79.5t-114 -242.5l-198 -1021h-180l200 1027q47 237 177.5 347t350.5 110q177 0 283.5 -81t106.5 -207q0 -151 -155 -256q-97 -65 -125 -96q-30 -31 -30 -67q0 -41 31 -82q16 -22 43 -50.5t67 -65.5q140 -131 140 -271z" />
    <glyph glyph-name="agrave" unicode="&#xe0;" horiz-adv-x="1139" 
d="M933 -10q-93 0 -135.5 38.5t-42.5 114.5q0 16 2 32t3 32h-6q-83 -126 -172 -176.5t-215 -50.5q-140 0 -227.5 84t-87.5 214q0 185 132.5 280t422.5 99l232 3q19 95 19 127q0 91 -53 134.5t-147 43.5q-119 0 -180 -42.5t-88 -129.5l-178 29q45 147 156.5 213.5t299.5 66.5
q171 0 270.5 -80t99.5 -215q0 -66 -19 -157l-74 -378q-11 -50 -11 -88q0 -37 20.5 -55t60.5 -18q29 0 60 7l-14 -112q-33 -8 -65 -12t-63 -4zM243 286q0 -75 48.5 -122t125.5 -47q97 0 175 42q78 41 129 108t67 144l27 125l-199 -4q-119 -3 -186.5 -21t-105.5 -47
q-37 -28 -59 -72t-22 -106zM844 1221l-3 -20h-88l-282 278l5 29h207z" />
    <glyph glyph-name="aacute" unicode="&#xe1;" horiz-adv-x="1139" 
d="M933 -10q-93 0 -135.5 38.5t-42.5 114.5q0 16 2 32t3 32h-6q-83 -126 -172 -176.5t-215 -50.5q-140 0 -227.5 84t-87.5 214q0 185 132.5 280t422.5 99l232 3q19 95 19 127q0 91 -53 134.5t-147 43.5q-119 0 -180 -42.5t-88 -129.5l-178 29q45 147 156.5 213.5t299.5 66.5
q171 0 270.5 -80t99.5 -215q0 -66 -19 -157l-74 -378q-11 -50 -11 -88q0 -37 20.5 -55t60.5 -18q29 0 60 7l-14 -112q-33 -8 -65 -12t-63 -4zM243 286q0 -75 48.5 -122t125.5 -47q97 0 175 42q78 41 129 108t67 144l27 125l-199 -4q-119 -3 -186.5 -21t-105.5 -47
q-37 -28 -59 -72t-22 -106zM1008 1479l-374 -278h-94l3 20l253 287h217z" />
    <glyph glyph-name="acircumflex" unicode="&#xe2;" horiz-adv-x="1139" 
d="M933 -10q-93 0 -135.5 38.5t-42.5 114.5q0 16 2 32t3 32h-6q-83 -126 -172 -176.5t-215 -50.5q-140 0 -227.5 84t-87.5 214q0 185 132.5 280t422.5 99l232 3q19 95 19 127q0 91 -53 134.5t-147 43.5q-119 0 -180 -42.5t-88 -129.5l-178 29q45 147 156.5 213.5t299.5 66.5
q171 0 270.5 -80t99.5 -215q0 -66 -19 -157l-74 -378q-11 -50 -11 -88q0 -37 20.5 -55t60.5 -18q29 0 60 7l-14 -112q-33 -8 -65 -12t-63 -4zM243 286q0 -75 48.5 -122t125.5 -47q97 0 175 42q78 41 129 108t67 144l27 125l-199 -4q-119 -3 -186.5 -21t-105.5 -47
q-37 -28 -59 -72t-22 -106zM723 1370l-265 -169h-116l4 20l286 270h204l171 -270l-4 -20h-92l-186 169h-2z" />
    <glyph glyph-name="atilde" unicode="&#xe3;" horiz-adv-x="1139" 
d="M933 -10q-93 0 -135.5 38.5t-42.5 114.5q0 16 2 32t3 32h-6q-83 -126 -172 -176.5t-215 -50.5q-140 0 -227.5 84t-87.5 214q0 185 132.5 280t422.5 99l232 3q19 95 19 127q0 91 -53 134.5t-147 43.5q-119 0 -180 -42.5t-88 -129.5l-178 29q45 147 156.5 213.5t299.5 66.5
q171 0 270.5 -80t99.5 -215q0 -66 -19 -157l-74 -378q-11 -50 -11 -88q0 -37 20.5 -55t60.5 -18q29 0 60 7l-14 -112q-33 -8 -65 -12t-63 -4zM243 286q0 -75 48.5 -122t125.5 -47q97 0 175 42q78 41 129 108t67 144l27 125l-199 -4q-119 -3 -186.5 -21t-105.5 -47
q-37 -28 -59 -72t-22 -106zM843 1201q-53 0 -101.5 30t-93 59.5t-87.5 29.5q-50 0 -85.5 -30t-56.5 -89h-90q47 152 107.5 210t143.5 58q54 0 102.5 -29.5t93 -59.5t85.5 -30q50 0 85.5 30t55.5 89h92q-34 -106 -67 -159q-32 -51 -77 -80t-107 -29z" />
    <glyph glyph-name="adieresis" unicode="&#xe4;" horiz-adv-x="1139" 
d="M933 -10q-93 0 -135.5 38.5t-42.5 114.5q0 16 2 32t3 32h-6q-83 -126 -172 -176.5t-215 -50.5q-140 0 -227.5 84t-87.5 214q0 185 132.5 280t422.5 99l232 3q19 95 19 127q0 91 -53 134.5t-147 43.5q-119 0 -180 -42.5t-88 -129.5l-178 29q45 147 156.5 213.5t299.5 66.5
q171 0 270.5 -80t99.5 -215q0 -66 -19 -157l-74 -378q-11 -50 -11 -88q0 -37 20.5 -55t60.5 -18q29 0 60 7l-14 -112q-33 -8 -65 -12t-63 -4zM243 286q0 -75 48.5 -122t125.5 -47q97 0 175 42q78 41 129 108t67 144l27 125l-199 -4q-119 -3 -186.5 -21t-105.5 -47
q-37 -28 -59 -72t-22 -106zM995 1403l-35 -184h-173l35 184h173zM613 1403l-35 -184h-175l35 184h175z" />
    <glyph glyph-name="aring" unicode="&#xe5;" horiz-adv-x="1139" 
d="M933 -10q-93 0 -135.5 38.5t-42.5 114.5q0 16 2 32t3 32h-6q-83 -126 -172 -176.5t-215 -50.5q-140 0 -227.5 84t-87.5 214q0 185 132.5 280t422.5 99l232 3q19 95 19 127q0 91 -53 134.5t-147 43.5q-119 0 -180 -42.5t-88 -129.5l-178 29q45 147 156.5 213.5t299.5 66.5
q171 0 270.5 -80t99.5 -215q0 -66 -19 -157l-74 -378q-11 -50 -11 -88q0 -37 20.5 -55t60.5 -18q29 0 60 7l-14 -112q-33 -8 -65 -12t-63 -4zM243 286q0 -75 48.5 -122t125.5 -47q97 0 175 42q78 41 129 108t67 144l27 125l-199 -4q-119 -3 -186.5 -21t-105.5 -47
q-37 -28 -59 -72t-22 -106zM975 1410q0 -66 -33 -121t-87.5 -88t-121.5 -33q-66 0 -121 33t-88 88t-33 121q0 68 33 122.5t88 86.5t121 32t121 -32.5t88 -87t33 -121.5zM867 1410q0 58 -38 96t-96 38q-59 0 -97 -39.5t-38 -94.5t38 -96t97 -41q58 0 96 40t38 97z" />
    <glyph glyph-name="ae" unicode="&#xe6;" horiz-adv-x="1821" 
d="M989 503q-6 -34 -9 -113q0 -133 61.5 -204t182.5 -71q87 0 157.5 45.5t114.5 133.5l138 -63q-71 -132 -177 -191.5t-255 -59.5q-151 0 -246 70t-130 198q-90 -128 -202 -195q-63 -37 -132 -55t-145 -18q-95 0 -166 38q-72 38 -110.5 106.5t-38.5 153.5q0 185 135.5 279.5
t433.5 99.5l238 3q19 95 19 127q0 178 -208 178q-124 0 -187.5 -42t-92.5 -130l-178 29q47 147 162.5 213.5t310.5 66.5q221 0 325 -158q125 158 345 158q195 0 303 -104t108 -290q0 -48 -7.5 -109.5t-15.5 -95.5h-734zM1013 641h550l4 72q0 124 -59 190t-170 66
q-123 0 -207 -85t-118 -243zM223 286q0 -77 46.5 -123t124.5 -46q102 0 187 45q86 44 143 120.5t73 162.5l17 89l-206 -4q-149 -5 -227 -31q-158 -53 -158 -213z" />
    <glyph glyph-name="ccedilla" unicode="&#xe7;" horiz-adv-x="1024" 
d="M469 122q103 0 175 57.5t114 172.5l156 -49q-122 -323 -449 -323q-192 0 -295 109t-103 306q0 201 73 372q72 172 191.5 253.5t293.5 81.5q169 0 267.5 -85t108.5 -233l-177 -25q-6 97 -60 149.5t-145 52.5q-147 0 -227.5 -91.5t-120.5 -282.5q-10 -49 -15 -99.5
t-5 -98.5q0 -267 218 -267zM452 -96q81 -5 121.5 -41t40.5 -95q0 -97 -75.5 -145t-227.5 -48q-25 0 -51.5 1.5t-54.5 5.5l21 91q48 -6 88 -6q91 0 128.5 22t37.5 67q0 72 -119 72q-22 0 -36.5 -0.5t-21.5 -1.5l101 174h107z" />
    <glyph glyph-name="egrave" unicode="&#xe8;" horiz-adv-x="1139" 
d="M256 503q-6 -34 -9 -113q0 -133 66.5 -204t200.5 -71q97 0 176 48t123 131l138 -63q-73 -131 -185.5 -191t-272.5 -60q-201 0 -312.5 111.5t-111.5 313.5q0 199 71 361q71 159 200 247.5t290 88.5q205 0 319 -103t114 -291q0 -104 -24 -205h-783zM280 641h600l4 72
q0 124 -64.5 190t-185.5 66q-134 0 -225.5 -85.5t-128.5 -242.5zM801 1221l-3 -20h-88l-282 278l5 29h207z" />
    <glyph glyph-name="eacute" unicode="&#xe9;" horiz-adv-x="1139" 
d="M256 503q-6 -34 -9 -113q0 -133 66.5 -204t200.5 -71q97 0 176 48t123 131l138 -63q-73 -131 -185.5 -191t-272.5 -60q-201 0 -312.5 111.5t-111.5 313.5q0 199 71 361q71 159 200 247.5t290 88.5q205 0 319 -103t114 -291q0 -104 -24 -205h-783zM280 641h600l4 72
q0 124 -64.5 190t-185.5 66q-134 0 -225.5 -85.5t-128.5 -242.5zM1001 1479l-374 -278h-94l3 20l253 287h217z" />
    <glyph glyph-name="ecircumflex" unicode="&#xea;" horiz-adv-x="1139" 
d="M256 503q-6 -34 -9 -113q0 -133 66.5 -204t200.5 -71q97 0 176 48t123 131l138 -63q-73 -131 -185.5 -191t-272.5 -60q-201 0 -312.5 111.5t-111.5 313.5q0 199 71 361q71 159 200 247.5t290 88.5q205 0 319 -103t114 -291q0 -104 -24 -205h-783zM280 641h600l4 72
q0 124 -64.5 190t-185.5 66q-134 0 -225.5 -85.5t-128.5 -242.5zM716 1370l-265 -169h-116l4 20l286 270h204l171 -270l-4 -20h-92l-186 169h-2z" />
    <glyph glyph-name="edieresis" unicode="&#xeb;" horiz-adv-x="1139" 
d="M256 503q-6 -34 -9 -113q0 -133 66.5 -204t200.5 -71q97 0 176 48t123 131l138 -63q-73 -131 -185.5 -191t-272.5 -60q-201 0 -312.5 111.5t-111.5 313.5q0 199 71 361q71 159 200 247.5t290 88.5q205 0 319 -103t114 -291q0 -104 -24 -205h-783zM280 641h600l4 72
q0 124 -64.5 190t-185.5 66q-134 0 -225.5 -85.5t-128.5 -242.5zM970 1403l-35 -184h-173l35 184h173zM588 1403l-35 -184h-175l35 184h175z" />
    <glyph glyph-name="igrave" unicode="&#xec;" horiz-adv-x="569" 
d="M479 1082l-211 -1082h-179l210 1082h180zM499 1221l-3 -20h-88l-282 278l5 29h207z" />
    <glyph glyph-name="iacute" unicode="&#xed;" horiz-adv-x="569" 
d="M479 1082l-211 -1082h-179l210 1082h180zM730 1479l-374 -278h-94l3 20l253 287h217z" />
    <glyph glyph-name="icircumflex" unicode="&#xee;" horiz-adv-x="569" 
d="M479 1082l-211 -1082h-179l210 1082h180zM439 1370l-265 -169h-116l4 20l286 270h204l171 -270l-4 -20h-92l-186 169h-2z" />
    <glyph glyph-name="idieresis" unicode="&#xef;" horiz-adv-x="569" 
d="M479 1082l-211 -1082h-179l210 1082h180zM722 1403l-35 -184h-173l35 184h173zM340 1403l-35 -184h-175l35 184h175z" />
    <glyph glyph-name="eth" unicode="&#xf0;" horiz-adv-x="1139" 
d="M625 1328q-96 90 -195 156h176q38 -19 77 -44.5t79 -57.5l263 102l-19 -108l-169 -67q117 -139 167 -278t50 -303q0 -211 -64 -391q-64 -181 -184.5 -266.5t-314.5 -85.5q-199 0 -311.5 113t-112.5 305q0 159 65 298q65 137 182.5 207.5t290.5 70.5q79 0 151.5 -29.5
t107.5 -75.5q-19 113 -63.5 211t-102.5 164l-273 -113l21 120zM603 846q-119 0 -196 -56q-50 -37 -85 -104t-53 -145.5t-18 -152.5q0 -130 63 -200t180 -70q180 0 269 139q30 47 51.5 115t33 138.5t11.5 124.5t-32 104q-33 49 -92 78t-132 29z" />
    <glyph glyph-name="ntilde" unicode="&#xf1;" horiz-adv-x="1139" 
d="M332 606l-118 -606h-180l166 851q10 47 19.5 105t19.5 126h170q0 -7 -5 -41.5t-11.5 -75t-11.5 -68.5h3q83 115 166.5 159.5t198.5 44.5q148 0 222.5 -73t74.5 -211q0 -32 -5 -73t-16 -91l-127 -653h-181l126 645q18 89 18 150q0 167 -179 167q-84 0 -155.5 -43.5
t-122 -123t-72.5 -189.5zM844 1201q-53 0 -101.5 30t-93 59.5t-87.5 29.5q-50 0 -85.5 -30t-56.5 -89h-90q47 152 107.5 210t143.5 58q54 0 102.5 -29.5t93 -59.5t85.5 -30q50 0 85.5 30t55.5 89h92q-34 -106 -67 -159q-32 -51 -77 -80t-107 -29z" />
    <glyph glyph-name="ograve" unicode="&#xf2;" horiz-adv-x="1139" 
d="M1080 683q0 -130 -40 -270t-114 -238q-75 -97 -183 -146t-246 -49q-196 0 -310 118t-114 321q5 207 74 362q70 158 194 239t307 81q210 0 321 -109.5t111 -308.5zM894 683q0 286 -248 286q-135 0 -216 -69q-54 -46 -92.5 -126.5t-59 -175t-20.5 -182.5q0 -148 64 -225.5
t186 -77.5q103 0 165.5 35t109.5 108q47 74 76.5 187.5t34.5 239.5zM811 1221l-3 -20h-88l-282 278l5 29h207z" />
    <glyph glyph-name="oacute" unicode="&#xf3;" horiz-adv-x="1139" 
d="M1080 683q0 -130 -40 -270t-114 -238q-75 -97 -183 -146t-246 -49q-196 0 -310 118t-114 321q5 207 74 362q70 158 194 239t307 81q210 0 321 -109.5t111 -308.5zM894 683q0 286 -248 286q-135 0 -216 -69q-54 -46 -92.5 -126.5t-59 -175t-20.5 -182.5q0 -148 64 -225.5
t186 -77.5q103 0 165.5 35t109.5 108q47 74 76.5 187.5t34.5 239.5zM1001 1479l-374 -278h-94l3 20l253 287h217z" />
    <glyph glyph-name="ocircumflex" unicode="&#xf4;" horiz-adv-x="1139" 
d="M1080 683q0 -130 -40 -270t-114 -238q-75 -97 -183 -146t-246 -49q-196 0 -310 118t-114 321q5 207 74 362q70 158 194 239t307 81q210 0 321 -109.5t111 -308.5zM894 683q0 286 -248 286q-135 0 -216 -69q-54 -46 -92.5 -126.5t-59 -175t-20.5 -182.5q0 -148 64 -225.5
t186 -77.5q103 0 165.5 35t109.5 108q47 74 76.5 187.5t34.5 239.5zM725 1370l-265 -169h-116l4 20l286 270h204l171 -270l-4 -20h-92l-186 169h-2z" />
    <glyph glyph-name="otilde" unicode="&#xf5;" horiz-adv-x="1139" 
d="M1080 683q0 -130 -40 -270t-114 -238q-75 -97 -183 -146t-246 -49q-196 0 -310 118t-114 321q5 207 74 362q70 158 194 239t307 81q210 0 321 -109.5t111 -308.5zM894 683q0 286 -248 286q-135 0 -216 -69q-54 -46 -92.5 -126.5t-59 -175t-20.5 -182.5q0 -148 64 -225.5
t186 -77.5q103 0 165.5 35t109.5 108q47 74 76.5 187.5t34.5 239.5zM814 1201q-53 0 -101.5 30t-93 59.5t-87.5 29.5q-50 0 -85.5 -30t-56.5 -89h-90q47 152 107.5 210t143.5 58q54 0 102.5 -29.5t93 -59.5t85.5 -30q50 0 85.5 30t55.5 89h92q-34 -106 -67 -159
q-32 -51 -77 -80t-107 -29z" />
    <glyph glyph-name="odieresis" unicode="&#xf6;" horiz-adv-x="1139" 
d="M1080 683q0 -130 -40 -270t-114 -238q-75 -97 -183 -146t-246 -49q-196 0 -310 118t-114 321q5 207 74 362q70 158 194 239t307 81q210 0 321 -109.5t111 -308.5zM894 683q0 286 -248 286q-135 0 -216 -69q-54 -46 -92.5 -126.5t-59 -175t-20.5 -182.5q0 -148 64 -225.5
t186 -77.5q103 0 165.5 35t109.5 108q47 74 76.5 187.5t34.5 239.5zM982 1403l-35 -184h-173l35 184h173zM600 1403l-35 -184h-175l35 184h175z" />
    <glyph glyph-name="divide" unicode="&#xf7;" horiz-adv-x="1124" 
d="M663 1141v-183h-168v183h168zM1077 754v-146h-995v146h995zM663 406v-183h-168v183h168z" />
    <glyph glyph-name="oslash" unicode="&#xf8;" horiz-adv-x="1251" 
d="M201 145q-76 109 -76 274q5 207 74 362q70 158 194 239t307 81q163 0 267 -67l70 82h167l-146 -169q74 -104 74 -264q0 -104 -26 -216q-55 -241 -194 -361.5t-363 -120.5q-154 0 -258 71l-80 -94h-167zM310 416q0 -73 15 -127l540 627q-64 53 -167 53q-135 0 -216 -69
q-54 -46 -92.5 -126.5t-59 -175t-20.5 -182.5zM946 683q0 64 -14 117l-540 -627q62 -55 168 -55q137 0 214 67q77 66 121.5 201.5t50.5 296.5z" />
    <glyph glyph-name="ugrave" unicode="&#xf9;" horiz-adv-x="1139" 
d="M748 185q-83 -115 -166.5 -159.5t-198.5 -44.5q-148 0 -222.5 73t-74.5 211q0 22 2.5 47t7 54.5t11.5 62.5l127 653h181l-126 -645q-18 -88 -18 -150q0 -167 179 -167q84 0 155.5 43.5t122.5 123.5t72 189l118 606h180l-166 -851q-10 -47 -19.5 -105t-19.5 -126h-170
q0 8 5 42t12 75t11 68h-3zM825 1221l-3 -20h-88l-282 278l5 29h207z" />
    <glyph glyph-name="uacute" unicode="&#xfa;" horiz-adv-x="1139" 
d="M748 185q-83 -115 -166.5 -159.5t-198.5 -44.5q-148 0 -222.5 73t-74.5 211q0 22 2.5 47t7 54.5t11.5 62.5l127 653h181l-126 -645q-18 -88 -18 -150q0 -167 179 -167q84 0 155.5 43.5t122.5 123.5t72 189l118 606h180l-166 -851q-10 -47 -19.5 -105t-19.5 -126h-170
q0 8 5 42t12 75t11 68h-3zM1009 1479l-374 -278h-94l3 20l253 287h217z" />
    <glyph glyph-name="ucircumflex" unicode="&#xfb;" horiz-adv-x="1139" 
d="M748 185q-83 -115 -166.5 -159.5t-198.5 -44.5q-148 0 -222.5 73t-74.5 211q0 22 2.5 47t7 54.5t11.5 62.5l127 653h181l-126 -645q-18 -88 -18 -150q0 -167 179 -167q84 0 155.5 43.5t122.5 123.5t72 189l118 606h180l-166 -851q-10 -47 -19.5 -105t-19.5 -126h-170
q0 8 5 42t12 75t11 68h-3zM737 1370l-265 -169h-116l4 20l286 270h204l171 -270l-4 -20h-92l-186 169h-2z" />
    <glyph glyph-name="udieresis" unicode="&#xfc;" horiz-adv-x="1139" 
d="M748 185q-83 -115 -166.5 -159.5t-198.5 -44.5q-148 0 -222.5 73t-74.5 211q0 22 2.5 47t7 54.5t11.5 62.5l127 653h181l-126 -645q-18 -88 -18 -150q0 -167 179 -167q84 0 155.5 43.5t122.5 123.5t72 189l118 606h180l-166 -851q-10 -47 -19.5 -105t-19.5 -126h-170
q0 8 5 42t12 75t11 68h-3zM1002 1403l-35 -184h-173l35 184h173zM620 1403l-35 -184h-175l35 184h175z" />
    <glyph glyph-name="yacute" unicode="&#xfd;" horiz-adv-x="1024" 
d="M16 -425q-70 0 -132 14l31 134q48 -8 77 -8q95 0 167.5 64t142.5 186l27 47l-217 1070h183l112 -598q8 -40 15 -84.5t13 -86t10 -72.5t4 -45q5 11 11.5 24.5t14.5 29.5l122 225l331 607h199l-626 -1082q-112 -195 -178 -270q-67 -78 -141 -116.5t-166 -38.5zM971 1479
l-374 -278h-94l3 20l253 287h217z" />
    <glyph glyph-name="thorn" unicode="&#xfe;" horiz-adv-x="1139" 
d="M554 -20q-123 0 -200.5 52t-109.5 146h-5q-3 -25 -6.5 -50t-7.5 -51q-4 -19 -7.5 -39t-7.5 -40l-82 -423h-179l371 1909h180l-83 -423q-4 -23 -12.5 -58t-21.5 -82h4q73 95 154 138t200 43q157 0 244.5 -94.5t87.5 -259.5q0 -204 -61 -393q-61 -190 -173 -282.5
t-285 -92.5zM689 963q-191 0 -289 -162q-28 -46 -49 -108t-35 -127q-21 -99 -21 -189q0 -125 63.5 -194.5t176.5 -69.5q124 0 196 76q36 38 64.5 101t48.5 138.5t30.5 151t10.5 136.5q0 123 -47 185t-149 62z" />
    <glyph glyph-name="ydieresis" unicode="&#xff;" horiz-adv-x="1024" 
d="M16 -425q-70 0 -132 14l31 134q48 -8 77 -8q95 0 167.5 64t142.5 186l27 47l-217 1070h183l112 -598q8 -40 15 -84.5t13 -86t10 -72.5t4 -45q5 11 11.5 24.5t14.5 29.5l122 225l331 607h199l-626 -1082q-112 -195 -178 -270q-67 -78 -141 -116.5t-166 -38.5zM946 1403
l-35 -184h-173l35 184h173zM564 1403l-35 -184h-175l35 184h175z" />
    <glyph glyph-name="Amacron" unicode="&#x100;" horiz-adv-x="1366" 
d="M347 412l-240 -412h-208l848 1409h217l292 -1409h-195l-75 412h-639zM830 1265q-7 -13 -16 -30t-21 -39l-362 -635h527l-102 553q-7 38 -13 76t-13 75zM1153 1697l-26 -127h-550l26 127h550z" />
    <glyph glyph-name="amacron" unicode="&#x101;" horiz-adv-x="1139" 
d="M927 -10q-93 0 -135.5 38.5t-42.5 114.5q0 16 2 32t3 32h-6q-83 -126 -172 -176.5t-215 -50.5q-140 0 -227.5 84t-87.5 214q0 185 132.5 280t422.5 99l232 3q19 95 19 127q0 91 -53 134.5t-147 43.5q-119 0 -180 -42.5t-88 -129.5l-178 29q45 147 156.5 213.5t299.5 66.5
q171 0 270.5 -80t99.5 -215q0 -66 -19 -157l-74 -378q-11 -50 -11 -88q0 -37 20.5 -55t60.5 -18q29 0 60 7l-14 -112q-33 -8 -65 -12t-63 -4zM237 286q0 -75 48.5 -122t125.5 -47q97 0 175 42q78 41 129 108t67 144l27 125l-199 -4q-119 -3 -186.5 -21t-105.5 -47
q-37 -28 -59 -72t-22 -106zM985 1363l-26 -127h-550l26 127h550z" />
    <glyph glyph-name="Abreve" unicode="&#x102;" horiz-adv-x="1366" 
d="M347 412l-240 -412h-208l848 1409h217l292 -1409h-195l-75 412h-639zM830 1265q-7 -13 -16 -30t-21 -39l-362 -635h527l-102 553q-7 38 -13 76t-13 75zM871 1520q-133 0 -213.5 69t-82.5 180h116q3 -59 54.5 -86t134.5 -27q89 0 150 28.5t93 85.5h117
q-52 -122 -147.5 -186t-221.5 -64z" />
    <glyph glyph-name="abreve" unicode="&#x103;" horiz-adv-x="1139" 
d="M927 -10q-93 0 -135.5 38.5t-42.5 114.5q0 16 2 32t3 32h-6q-83 -126 -172 -176.5t-215 -50.5q-140 0 -227.5 84t-87.5 214q0 185 132.5 280t422.5 99l232 3q19 95 19 127q0 91 -53 134.5t-147 43.5q-119 0 -180 -42.5t-88 -129.5l-178 29q45 147 156.5 213.5t299.5 66.5
q171 0 270.5 -80t99.5 -215q0 -66 -19 -157l-74 -378q-11 -50 -11 -88q0 -37 20.5 -55t60.5 -18q29 0 60 7l-14 -112q-33 -8 -65 -12t-63 -4zM237 286q0 -75 48.5 -122t125.5 -47q97 0 175 42q78 41 129 108t67 144l27 125l-199 -4q-119 -3 -186.5 -21t-105.5 -47
q-37 -28 -59 -72t-22 -106zM689 1201q-130 0 -210 81.5t-86 214.5v13h116q3 -85 54.5 -124t134.5 -39q89 0 150 40.5t93 122.5h117q-51 -148 -146.5 -228.5t-222.5 -80.5z" />
    <glyph glyph-name="Aogonek" unicode="&#x104;" horiz-adv-x="1366" 
d="M347 412l-240 -412h-208l848 1409h217l292 -1409h-195l-75 412h-639zM830 1265q-7 -13 -16 -30t-21 -39l-362 -635h527l-102 553q-7 38 -13 76t-13 75zM1035 -427q-88 0 -133 47t-45 121q0 83 57 153.5t148 105.5h133q-93 -48 -143 -110.5t-50 -125.5q0 -34 20 -57.5
t58 -23.5q55 0 114 22l-15 -105q-67 -27 -144 -27z" />
    <glyph glyph-name="aogonek" unicode="&#x105;" horiz-adv-x="1139" 
d="M927 -10q-93 0 -135.5 38.5t-42.5 114.5q0 16 2 32t3 32h-6q-83 -126 -172 -176.5t-215 -50.5q-140 0 -227.5 84t-87.5 214q0 185 132.5 280t422.5 99l232 3q19 95 19 127q0 91 -53 134.5t-147 43.5q-119 0 -180 -42.5t-88 -129.5l-178 29q45 147 156.5 213.5t299.5 66.5
q171 0 270.5 -80t99.5 -215q0 -66 -19 -157l-74 -378q-11 -50 -11 -88q0 -37 20.5 -55t60.5 -18q29 0 60 7l-14 -112q-33 -8 -65 -12t-63 -4zM237 286q0 -75 48.5 -122t125.5 -47q97 0 175 42q78 41 129 108t67 144l27 125l-199 -4q-119 -3 -186.5 -21t-105.5 -47
q-37 -28 -59 -72t-22 -106zM802 -417q-88 0 -133 47t-45 121q0 83 57 153.5t148 105.5h133q-93 -48 -143 -110.5t-50 -125.5q0 -34 20 -57.5t58 -23.5q55 0 114 22l-15 -105q-67 -27 -144 -27z" />
    <glyph glyph-name="Cacute" unicode="&#x106;" horiz-adv-x="1479" 
d="M1215 426l143 -89q-126 -188 -286 -272.5t-372 -84.5q-181 0 -314 73q-133 72 -203 206t-70 310q0 246 105 445t291.5 307.5t416.5 108.5q217 0 366.5 -90.5t197.5 -254.5l-180 -55q-36 112 -139.5 178t-254.5 66q-185 0 -324 -88q-140 -88 -215 -249t-75 -371
q0 -200 109 -315.5t302 -115.5q148 0 276 73.5t226 217.5zM1329 1747l-352 -217h-114l3 20l261 226h207z" />
    <glyph glyph-name="cacute" unicode="&#x107;" horiz-adv-x="1024" 
d="M469 122q103 0 175 57.5t114 172.5l156 -49q-122 -323 -449 -323q-192 0 -295 109t-103 306q0 201 73 372q72 172 191.5 253.5t293.5 81.5q169 0 267.5 -85t108.5 -233l-177 -25q-6 97 -60 149.5t-145 52.5q-147 0 -227.5 -91.5t-120.5 -282.5q-10 -49 -15 -99.5
t-5 -98.5q0 -267 218 -267zM1002 1479l-374 -278h-94l3 20l253 287h217z" />
    <glyph glyph-name="Ccircumflex" unicode="&#x108;" horiz-adv-x="1479" 
d="M1215 426l143 -89q-126 -188 -286 -272.5t-372 -84.5q-181 0 -314 73q-133 72 -203 206t-70 310q0 246 105 445t291.5 307.5t416.5 108.5q217 0 366.5 -90.5t197.5 -254.5l-180 -55q-36 112 -139.5 178t-254.5 66q-185 0 -324 -88q-140 -88 -215 -249t-75 -371
q0 -200 109 -315.5t302 -115.5q148 0 276 73.5t226 217.5zM996 1669l-259 -139h-113l4 20l280 240h204l177 -240l-4 -20h-95l-192 139h-2z" />
    <glyph glyph-name="ccircumflex" unicode="&#x109;" horiz-adv-x="1024" 
d="M469 122q103 0 175 57.5t114 172.5l156 -49q-122 -323 -449 -323q-192 0 -295 109t-103 306q0 201 73 372q72 172 191.5 253.5t293.5 81.5q169 0 267.5 -85t108.5 -233l-177 -25q-6 97 -60 149.5t-145 52.5q-147 0 -227.5 -91.5t-120.5 -282.5q-10 -49 -15 -99.5
t-5 -98.5q0 -267 218 -267zM686 1370l-265 -169h-116l4 20l286 270h204l171 -270l-4 -20h-92l-186 169h-2z" />
    <glyph glyph-name="Cdotaccent" unicode="&#x10a;" horiz-adv-x="1479" 
d="M1215 426l143 -89q-126 -188 -286 -272.5t-372 -84.5q-181 0 -314 73q-133 72 -203 206t-70 310q0 246 105 445t291.5 307.5t416.5 108.5q217 0 366.5 -90.5t197.5 -254.5l-180 -55q-36 112 -139.5 178t-254.5 66q-185 0 -324 -88q-140 -88 -215 -249t-75 -371
q0 -200 109 -315.5t302 -115.5q148 0 276 73.5t226 217.5zM1081 1702l-34 -172h-180l34 172h180z" />
    <glyph glyph-name="cdotaccent" unicode="&#x10b;" horiz-adv-x="1024" 
d="M469 122q103 0 175 57.5t114 172.5l156 -49q-122 -323 -449 -323q-192 0 -295 109t-103 306q0 201 73 372q72 172 191.5 253.5t293.5 81.5q169 0 267.5 -85t108.5 -233l-177 -25q-6 97 -60 149.5t-145 52.5q-147 0 -227.5 -91.5t-120.5 -282.5q-10 -49 -15 -99.5
t-5 -98.5q0 -267 218 -267zM803 1484l-34 -172h-180l34 172h180z" />
    <glyph glyph-name="Ccaron" unicode="&#x10c;" horiz-adv-x="1479" 
d="M1215 426l143 -89q-126 -188 -286 -272.5t-372 -84.5q-181 0 -314 73q-133 72 -203 206t-70 310q0 246 105 445t291.5 307.5t416.5 108.5q217 0 366.5 -90.5t197.5 -254.5l-180 -55q-36 112 -139.5 178t-254.5 66q-185 0 -324 -88q-140 -88 -215 -249t-75 -371
q0 -200 109 -315.5t302 -115.5q148 0 276 73.5t226 217.5zM1327 1769l-271 -239h-204l-187 239l4 21h93l205 -139h2l246 139h116z" />
    <glyph glyph-name="ccaron" unicode="&#x10d;" horiz-adv-x="1024" 
d="M469 122q103 0 175 57.5t114 172.5l156 -49q-122 -323 -449 -323q-192 0 -295 109t-103 306q0 201 73 372q72 172 191.5 253.5t293.5 81.5q169 0 267.5 -85t108.5 -233l-177 -25q-6 97 -60 149.5t-145 52.5q-147 0 -227.5 -91.5t-120.5 -282.5q-10 -49 -15 -99.5
t-5 -98.5q0 -267 218 -267zM1012 1471l-277 -270h-204l-181 270l4 20h97l199 -169h2l252 169h112z" />
    <glyph glyph-name="Dcaron" unicode="&#x10e;" horiz-adv-x="1479" 
d="M744 1409q208 0 358 -74.5t230.5 -212.5t80.5 -331q0 -237 -103 -413q-103 -177 -296.5 -277.5t-438.5 -100.5h-512l273 1409h408zM283 153h284q196 0 344 78q149 77 228.5 222.5t79.5 339.5q0 219 -126 341t-353 122h-242zM1212 1769l-271 -239h-204l-187 239l4 21h93
l205 -139h2l246 139h116z" />
    <glyph glyph-name="dcaron" unicode="&#x10f;" horiz-adv-x="1280" 
d="M401 -21q-157 0 -244.5 94.5t-87.5 259.5q0 202 62 394q62 191 173 282.5t284 91.5q123 0 200.5 -52t109.5 -146h5q7 41 14 81.5t14 80.5l82 419h180l-245 -1261q-14 -70 -23.5 -126t-14.5 -97h-172q0 51 21 160h-5q-73 -95 -154 -138t-199 -43zM453 118q192 0 289 163
q33 54 56.5 128.5t36 152.5t12.5 142q0 125 -63.5 194.5t-176.5 69.5q-122 0 -193 -72q-47 -48 -82.5 -141t-55 -198.5t-19.5 -191.5q0 -123 47 -185t149 -62zM1459 1378q-17 -87 -50.5 -145.5t-82.5 -105.5h-117q114 101 131 190h-88l32 167h195z" />
    <glyph glyph-name="Dcroat" unicode="&#x110;" horiz-adv-x="1479" 
d="M764 1409q208 0 358 -74.5t230.5 -212.5t80.5 -331q0 -233 -98 -412q-99 -178 -289.5 -278.5t-433.5 -100.5h-549l125 647h-154l30 154h154l118 608h428zM283 153h304q196 0 344 78q149 77 228.5 222.5t79.5 339.5q0 219 -126 341t-353 122h-262l-89 -455h406l-30 -154
h-406z" />
    <glyph glyph-name="dcroat" unicode="&#x111;" horiz-adv-x="1139" 
d="M401 -21q-157 0 -244.5 94.5t-87.5 259.5q0 202 62 394q62 191 173 282.5t284 91.5q123 0 200.5 -52t109.5 -146h5q8 41 16 83t15 83l26 137h-300l25 131h300l29 147h180l-29 -147h132l-25 -131h-132l-192 -983q-14 -70 -23.5 -126t-14.5 -97h-172q0 51 21 160h-4
q-73 -95 -154 -138t-200 -43zM453 118q192 0 289 163q33 54 56.5 128.5t36 152.5t12.5 142q0 125 -63.5 194.5t-176.5 69.5q-122 0 -193 -72q-47 -48 -82.5 -141t-55 -198.5t-19.5 -191.5q0 -123 47 -185t149 -62z" />
    <glyph glyph-name="Emacron" unicode="&#x112;" horiz-adv-x="1366" 
d="M1183 156l-30 -156h-1090l273 1409h1049l-30 -156h-858l-88 -452h798l-30 -154h-798l-95 -491h899zM1184 1697l-26 -127h-550l26 127h550z" />
    <glyph glyph-name="emacron" unicode="&#x113;" horiz-adv-x="1139" 
d="M256 503q-6 -34 -9 -113q0 -133 66.5 -204t200.5 -71q97 0 176 48t123 131l138 -63q-73 -131 -185.5 -191t-272.5 -60q-201 0 -312.5 111.5t-111.5 313.5q0 199 71 361q71 159 200 247.5t290 88.5q205 0 319 -103t114 -291q0 -104 -24 -205h-783zM280 641h600l4 72
q0 124 -64.5 190t-185.5 66q-134 0 -225.5 -85.5t-128.5 -242.5zM977 1363l-26 -127h-550l26 127h550z" />
    <glyph glyph-name="Ebreve" unicode="&#x114;" horiz-adv-x="1366" 
d="M1183 156l-30 -156h-1090l273 1409h1049l-30 -156h-858l-88 -452h798l-30 -154h-798l-95 -491h899zM847 1520q-133 0 -213.5 69t-82.5 180h116q3 -59 54.5 -86t134.5 -27q89 0 150 28.5t93 85.5h117q-52 -122 -147.5 -186t-221.5 -64z" />
    <glyph glyph-name="ebreve" unicode="&#x115;" horiz-adv-x="1139" 
d="M256 503q-6 -34 -9 -113q0 -133 66.5 -204t200.5 -71q97 0 176 48t123 131l138 -63q-73 -131 -185.5 -191t-272.5 -60q-201 0 -312.5 111.5t-111.5 313.5q0 199 71 361q71 159 200 247.5t290 88.5q205 0 319 -103t114 -291q0 -104 -24 -205h-783zM280 641h600l4 72
q0 124 -64.5 190t-185.5 66q-134 0 -225.5 -85.5t-128.5 -242.5zM698 1201q-130 0 -210 81.5t-86 214.5v13h116q3 -85 54.5 -124t134.5 -39q89 0 150 40.5t93 122.5h117q-51 -148 -146.5 -228.5t-222.5 -80.5z" />
    <glyph glyph-name="Edotaccent" unicode="&#x116;" horiz-adv-x="1366" 
d="M1183 156l-30 -156h-1090l273 1409h1049l-30 -156h-858l-88 -452h798l-30 -154h-798l-95 -491h899zM995 1702l-34 -172h-180l34 172h180z" />
    <glyph glyph-name="edotaccent" unicode="&#x117;" horiz-adv-x="1139" 
d="M256 503q-6 -34 -9 -113q0 -133 66.5 -204t200.5 -71q97 0 176 48t123 131l138 -63q-73 -131 -185.5 -191t-272.5 -60q-201 0 -312.5 111.5t-111.5 313.5q0 199 71 361q71 159 200 247.5t290 88.5q205 0 319 -103t114 -291q0 -104 -24 -205h-783zM280 641h600l4 72
q0 124 -64.5 190t-185.5 66q-134 0 -225.5 -85.5t-128.5 -242.5zM818 1484l-34 -172h-180l34 172h180z" />
    <glyph glyph-name="Eogonek" unicode="&#x118;" horiz-adv-x="1366" 
d="M1183 156l-30 -156h-1090l273 1409h1049l-30 -156h-858l-88 -452h798l-30 -154h-798l-95 -491h899zM860 -427q-88 0 -133 47t-45 121q0 83 57 153.5t148 105.5h133q-93 -48 -143 -110.5t-50 -125.5q0 -34 20 -57.5t58 -23.5q55 0 114 22l-15 -105q-67 -27 -144 -27z" />
    <glyph glyph-name="eogonek" unicode="&#x119;" horiz-adv-x="1139" 
d="M256 503q-6 -34 -9 -113q0 -133 66.5 -204t200.5 -71q97 0 176 48t123 131l138 -63q-73 -131 -185.5 -191t-272.5 -60q-201 0 -312.5 111.5t-111.5 313.5q0 199 71 361q71 159 200 247.5t290 88.5q205 0 319 -103t114 -291q0 -104 -24 -205h-783zM280 641h600l4 72
q0 124 -64.5 190t-185.5 66q-134 0 -225.5 -85.5t-128.5 -242.5zM562 -407q-88 0 -133 47t-45 121q0 83 57 153.5t148 105.5h133q-93 -48 -143 -110.5t-50 -125.5q0 -34 20 -57.5t58 -23.5q55 0 114 22l-15 -105q-67 -27 -144 -27z" />
    <glyph glyph-name="Ecaron" unicode="&#x11a;" horiz-adv-x="1366" 
d="M1183 156l-30 -156h-1090l273 1409h1049l-30 -156h-858l-88 -452h798l-30 -154h-798l-95 -491h899zM1256 1769l-271 -239h-204l-187 239l4 21h93l205 -139h2l246 139h116z" />
    <glyph glyph-name="ecaron" unicode="&#x11b;" horiz-adv-x="1139" 
d="M256 503q-6 -34 -9 -113q0 -133 66.5 -204t200.5 -71q97 0 176 48t123 131l138 -63q-73 -131 -185.5 -191t-272.5 -60q-201 0 -312.5 111.5t-111.5 313.5q0 199 71 361q71 159 200 247.5t290 88.5q205 0 319 -103t114 -291q0 -104 -24 -205h-783zM280 641h600l4 72
q0 124 -64.5 190t-185.5 66q-134 0 -225.5 -85.5t-128.5 -242.5zM1055 1471l-277 -270h-204l-181 270l4 20h97l199 -169h2l252 169h112z" />
    <glyph glyph-name="Gcircumflex" unicode="&#x11c;" horiz-adv-x="1593" 
d="M742 -20q-305 0 -473 156t-168 437q0 250 105 446q105 197 297.5 304t440.5 107q222 0 364 -84t197 -248l-193 -54q-37 115 -134 172.5t-246 57.5q-191 0 -336 -86t-222 -244.5t-77 -366.5q0 -211 118 -326.5t333 -115.5q138 0 264 39.5t219 116.5l51 254h-421l32 160
h597l-100 -495q-140 -120 -298.5 -175t-349.5 -55zM998 1669l-259 -139h-113l4 20l280 240h204l177 -240l-4 -20h-95l-192 139h-2z" />
    <glyph glyph-name="gcircumflex" unicode="&#x11d;" horiz-adv-x="1139" 
d="M397 -425q-169 0 -267.5 63t-125.5 189l163 42q34 -157 234 -157q142 0 220 73.5t110 241.5q8 44 17 87.5t17 86.5h-2q-61 -88 -109 -128q-48 -39 -107.5 -60t-136.5 -21q-153 0 -246.5 100.5t-93.5 266.5q0 89 17 189t48.5 193t74.5 161q65 102 158 150.5t220 48.5
q121 0 204.5 -57t107.5 -147h2q5 25 15 66.5t20 77t13 41.5h171l-19 -82l-30 -142l-161 -827q-48 -242 -172 -349t-342 -107zM259 373q0 -248 207 -248q108 0 196 79q88 78 136.5 215t48.5 285q0 125 -64 194.5t-176 69.5q-90 0 -150 -37t-101 -116q-27 -52 -49 -130.5
t-35 -161.5t-13 -150zM696 1370l-265 -169h-116l4 20l286 270h204l171 -270l-4 -20h-92l-186 169h-2z" />
    <glyph glyph-name="Gbreve" unicode="&#x11e;" horiz-adv-x="1593" 
d="M742 -20q-305 0 -473 156t-168 437q0 250 105 446q105 197 297.5 304t440.5 107q222 0 364 -84t197 -248l-193 -54q-37 115 -134 172.5t-246 57.5q-191 0 -336 -86t-222 -244.5t-77 -366.5q0 -211 118 -326.5t333 -115.5q138 0 264 39.5t219 116.5l51 254h-421l32 160
h597l-100 -495q-140 -120 -298.5 -175t-349.5 -55zM956 1520q-133 0 -213.5 69t-82.5 180h116q3 -59 54.5 -86t134.5 -27q89 0 150 28.5t93 85.5h117q-52 -122 -147.5 -186t-221.5 -64z" />
    <glyph glyph-name="gbreve" unicode="&#x11f;" horiz-adv-x="1139" 
d="M397 -425q-169 0 -267.5 63t-125.5 189l163 42q34 -157 234 -157q142 0 220 73.5t110 241.5q8 44 17 87.5t17 86.5h-2q-61 -88 -109 -128q-48 -39 -107.5 -60t-136.5 -21q-153 0 -246.5 100.5t-93.5 266.5q0 89 17 189t48.5 193t74.5 161q65 102 158 150.5t220 48.5
q121 0 204.5 -57t107.5 -147h2q5 25 15 66.5t20 77t13 41.5h171l-19 -82l-30 -142l-161 -827q-48 -242 -172 -349t-342 -107zM259 373q0 -248 207 -248q108 0 196 79q88 78 136.5 215t48.5 285q0 125 -64 194.5t-176 69.5q-90 0 -150 -37t-101 -116q-27 -52 -49 -130.5
t-35 -161.5t-13 -150zM675 1201q-130 0 -210 81.5t-86 214.5v13h116q3 -85 54.5 -124t134.5 -39q89 0 150 40.5t93 122.5h117q-51 -148 -146.5 -228.5t-222.5 -80.5z" />
    <glyph glyph-name="Gdotaccent" unicode="&#x120;" horiz-adv-x="1593" 
d="M742 -20q-305 0 -473 156t-168 437q0 250 105 446q105 197 297.5 304t440.5 107q222 0 364 -84t197 -248l-193 -54q-37 115 -134 172.5t-246 57.5q-191 0 -336 -86t-222 -244.5t-77 -366.5q0 -211 118 -326.5t333 -115.5q138 0 264 39.5t219 116.5l51 254h-421l32 160
h597l-100 -495q-140 -120 -298.5 -175t-349.5 -55zM1083 1702l-34 -172h-180l34 172h180z" />
    <glyph glyph-name="gdotaccent" unicode="&#x121;" horiz-adv-x="1139" 
d="M397 -425q-169 0 -267.5 63t-125.5 189l163 42q34 -157 234 -157q142 0 220 73.5t110 241.5q8 44 17 87.5t17 86.5h-2q-61 -88 -109 -128q-48 -39 -107.5 -60t-136.5 -21q-153 0 -246.5 100.5t-93.5 266.5q0 89 17 189t48.5 193t74.5 161q65 102 158 150.5t220 48.5
q121 0 204.5 -57t107.5 -147h2q5 25 15 66.5t20 77t13 41.5h171l-19 -82l-30 -142l-161 -827q-48 -242 -172 -349t-342 -107zM259 373q0 -248 207 -248q108 0 196 79q88 78 136.5 215t48.5 285q0 125 -64 194.5t-176 69.5q-90 0 -150 -37t-101 -116q-27 -52 -49 -130.5
t-35 -161.5t-13 -150zM837 1484l-34 -172h-180l34 172h180z" />
    <glyph glyph-name="Gcommaaccent" unicode="&#x122;" horiz-adv-x="1593" 
d="M742 -20q-305 0 -473 156t-168 437q0 250 105 446q105 197 297.5 304t440.5 107q222 0 364 -84t197 -248l-193 -54q-37 115 -134 172.5t-246 57.5q-191 0 -336 -86t-222 -244.5t-77 -366.5q0 -211 118 -326.5t333 -115.5q138 0 264 39.5t219 116.5l51 254h-421l32 160
h597l-100 -495q-140 -120 -298.5 -175t-349.5 -55zM827 -204q-17 -87 -50.5 -145.5t-82.5 -105.5h-117q114 101 131 190h-88l32 167h195z" />
    <glyph glyph-name="gcommaaccent" unicode="&#x123;" horiz-adv-x="1139" 
d="M397 -425q-169 0 -267.5 63t-125.5 189l163 42q34 -157 234 -157q142 0 220 73.5t110 241.5q8 44 17 87.5t17 86.5h-2q-61 -88 -109 -128q-48 -39 -107.5 -60t-136.5 -21q-153 0 -246.5 100.5t-93.5 266.5q0 89 17 189t48.5 193t74.5 161q65 102 158 150.5t220 48.5
q121 0 204.5 -57t107.5 -147h2q5 25 15 66.5t20 77t13 41.5h171l-19 -82l-30 -142l-161 -827q-48 -242 -172 -349t-342 -107zM259 373q0 -248 207 -248q108 0 196 79q88 78 136.5 215t48.5 285q0 125 -64 194.5t-176 69.5q-90 0 -150 -37t-101 -116q-27 -52 -49 -130.5
t-35 -161.5t-13 -150zM807 1378l-32 -167h-195l20 106q17 87 50.5 145.5t82.5 105.5h117q-114 -101 -131 -190h88z" />
    <glyph glyph-name="Hcircumflex" unicode="&#x124;" horiz-adv-x="1479" 
d="M381 653l-127 -653h-191l274 1409h191l-116 -596h767l116 596h186l-274 -1409h-186l127 653h-767zM965 1669l-259 -139h-113l4 20l280 240h204l177 -240l-4 -20h-95l-192 139h-2z" />
    <glyph glyph-name="hcircumflex" unicode="&#x125;" horiz-adv-x="1139" 
d="M383 897q83 115 166.5 159.5t198.5 44.5q148 0 222.5 -73t74.5 -211q0 -32 -5 -73t-16 -91l-127 -653h-181l126 645q18 89 18 150q0 167 -179 167q-84 0 -155.5 -43.5t-122 -123t-72.5 -189.5l-118 -606h-179l288 1484h180l-75 -386q-9 -50 -21 -100.5t-26 -100.5h3z
M834 1748l-259 -139h-113l4 20l280 240h204l177 -240l-4 -20h-95l-192 139h-2z" />
    <glyph glyph-name="Hbar" unicode="&#x126;" horiz-adv-x="1479" 
d="M379 653l-126 -653h-191l199 1025h-154l30 154h154l44 230h191l-44 -230h767l44 230h186l-44 -230h153l-30 -154h-153l-199 -1025h-186l126 653h-767zM411 813h767l41 212h-767z" />
    <glyph glyph-name="hbar" unicode="&#x127;" horiz-adv-x="1139" 
d="M375 857q83 115 166.5 159.5t198.5 44.5q148 0 222.5 -73t74.5 -211q0 -32 -5 -73t-16 -91l-119 -613h-181l118 605q18 89 18 150q0 167 -179 167q-84 0 -155.5 -43.5t-122 -123t-72.5 -189.5l-110 -566h-179l234 1206h-131l25 131h131l29 147h180l-29 -147h301l-25 -131
h-301q-28 -154 -49.5 -241.5t-26.5 -107.5h3z" />
    <glyph glyph-name="Itilde" unicode="&#x128;" horiz-adv-x="569" 
d="M546 1409l-274 -1409h-191l274 1409h191zM637 1530q-53 0 -101.5 32t-92.5 64.5t-87 32.5q-46 0 -77 -29.5t-56 -99.5h-100q47 152 107.5 210t143.5 58q55 0 103 -32.5t92 -64.5t85 -32q46 0 79 32.5t53 96.5h102q-34 -106 -67 -159q-32 -51 -77 -80t-107 -29z" />
    <glyph glyph-name="itilde" unicode="&#x129;" horiz-adv-x="455" 
d="M424 1082l-211 -1082h-179l210 1082h180zM500 1201q-53 0 -101.5 30t-93 59.5t-87.5 29.5q-50 0 -85.5 -30t-56.5 -89h-90q47 152 107.5 210t143.5 58q54 0 102.5 -29.5t93 -59.5t85.5 -30q50 0 85.5 30t55.5 89h92q-34 -106 -67 -159q-32 -51 -77 -80t-107 -29z" />
    <glyph glyph-name="Imacron" unicode="&#x12a;" horiz-adv-x="569" 
d="M546 1409l-274 -1409h-191l274 1409h191zM770 1697l-26 -127h-550l26 127h550z" />
    <glyph glyph-name="imacron" unicode="&#x12b;" horiz-adv-x="455" 
d="M424 1082l-211 -1082h-179l210 1082h180zM656 1363l-26 -127h-550l26 127h550z" />
    <glyph glyph-name="Ibreve" unicode="&#x12c;" horiz-adv-x="569" 
d="M546 1409l-274 -1409h-191l274 1409h191zM464 1520q-133 0 -213.5 69t-82.5 180h116q3 -59 54.5 -86t134.5 -27q89 0 150 28.5t93 85.5h117q-52 -122 -147.5 -186t-221.5 -64z" />
    <glyph glyph-name="ibreve" unicode="&#x12d;" horiz-adv-x="455" 
d="M424 1082l-211 -1082h-179l210 1082h180zM358 1201q-130 0 -210 81.5t-86 214.5v13h116q3 -85 54.5 -124t134.5 -39q89 0 150 40.5t93 122.5h117q-51 -148 -146.5 -228.5t-222.5 -80.5z" />
    <glyph glyph-name="Iogonek" unicode="&#x12e;" horiz-adv-x="569" 
d="M546 1409l-274 -1409h-191l274 1409h191zM114 -427q-88 0 -133 47t-45 121q0 83 57 153.5t148 105.5h133q-93 -48 -143 -110.5t-50 -125.5q0 -34 20 -57.5t58 -23.5q55 0 114 22l-15 -105q-67 -27 -144 -27z" />
    <glyph glyph-name="iogonek" unicode="&#x12f;" horiz-adv-x="455" 
d="M501 1484l-34 -172h-180l34 172h180zM423 1082l-211 -1082h-179l210 1082h180zM53 -427q-88 0 -133 47t-45 121q0 83 57 153.5t148 105.5h133q-93 -48 -143 -110.5t-50 -125.5q0 -34 20 -57.5t58 -23.5q55 0 114 22l-15 -105q-67 -27 -144 -27z" />
    <glyph glyph-name="Idotaccent" unicode="&#x130;" horiz-adv-x="569" 
d="M546 1409l-274 -1409h-191l274 1409h191zM590 1702l-34 -172h-180l34 172h180z" />
    <glyph glyph-name="dotlessi" unicode="&#x131;" horiz-adv-x="569" 
d="M479 1082l-211 -1082h-179l210 1082h180z" />
    <glyph glyph-name="IJ" unicode="&#x132;" horiz-adv-x="1502" 
d="M546 1409l-274 -1409h-191l274 1409h191zM859 -20q-159 0 -259.5 93t-126.5 270l168 33q23 -117 79 -179t156 -62q65 0 113 26q56 31 93.5 99.5t58.5 179.5l157 813h-291l30 156h481l-193 -986q-43 -224 -157 -333.5t-309 -109.5z" />
    <glyph glyph-name="ij" unicode="&#x133;" horiz-adv-x="909" 
d="M501 1484l-34 -172h-180l34 172h180zM423 1082l-211 -1082h-179l210 1082h180zM956 1484l-33 -172h-180l33 172h180zM354 -425q-53 0 -129 14l23 136q26 -4 46.5 -6t36.5 -2q59 0 89 42t47 134l231 1189h180l-237 -1216q-31 -158 -101 -224.5t-186 -66.5z" />
    <glyph glyph-name="Jcircumflex" unicode="&#x134;" horiz-adv-x="1024" 
d="M381 -20q-159 0 -259.5 93t-126.5 270l168 33q23 -117 79 -179t156 -62q65 0 113 26q56 31 93.5 99.5t58.5 179.5l157 813h-291l30 156h481l-193 -986q-43 -224 -157 -333.5t-309 -109.5zM878 1669l-259 -139h-113l4 20l280 240h204l177 -240l-4 -20h-95l-192 139h-2z
" />
    <glyph glyph-name="jcircumflex" unicode="&#x135;" horiz-adv-x="455" 
d="M385 1370l-265 -169h-116l4 20l286 270h204l171 -270l-4 -20h-92l-186 169h-2zM-100 -425q-53 0 -129 14l23 136q26 -4 46.5 -6t36.5 -2q59 0 89 42t47 134l231 1189h180l-237 -1216q-31 -158 -101 -224.5t-186 -66.5z" />
    <glyph glyph-name="Kcommaaccent" unicode="&#x136;" horiz-adv-x="1366" 
d="M360 545l-106 -545h-191l273 1409h191l-136 -691l140 129l665 562h245l-750 -630l557 -779h-226l-472 674zM699 -204q-17 -87 -50.5 -145.5t-82.5 -105.5h-117q114 101 131 190h-88l32 167h195z" />
    <glyph glyph-name="kcommaaccent" unicode="&#x137;" horiz-adv-x="1024" 
d="M285 378l-72 -378h-179l288 1484h180l-179 -917l204 190l361 325h222l-530 -465l336 -617h-195l-268 502zM547 -204q-17 -87 -50.5 -145.5t-82.5 -105.5h-117q114 101 131 190h-88l32 167h195z" />
    <glyph glyph-name="kgreenlandic" unicode="&#x138;" horiz-adv-x="1024" 
d="M285 378l-72 -378h-179l210 1082h180l-101 -515l204 190l361 325h222l-530 -465l336 -617h-195l-268 502z" />
    <glyph glyph-name="Lacute" unicode="&#x139;" horiz-adv-x="1139" 
d="M996 156l-30 -156h-903l273 1409h191l-243 -1253h712zM907 1747l-352 -217h-114l3 20l261 226h207z" />
    <glyph glyph-name="lacute" unicode="&#x13a;" horiz-adv-x="455" 
d="M501 1484l-289 -1484h-179l288 1484h180zM775 1826l-352 -217h-114l3 20l261 226h207z" />
    <glyph glyph-name="Lcommaaccent" unicode="&#x13b;" horiz-adv-x="1139" 
d="M996 156l-30 -156h-903l273 1409h191l-243 -1253h712zM602 -204q-17 -87 -50.5 -145.5t-82.5 -105.5h-117q114 101 131 190h-88l32 167h195z" />
    <glyph glyph-name="lcommaaccent" unicode="&#x13c;" horiz-adv-x="455" 
d="M501 1484l-289 -1484h-179l288 1484h180zM182 -204q-17 -87 -50.5 -145.5t-82.5 -105.5h-117q114 101 131 190h-88l32 167h195z" />
    <glyph glyph-name="Lcaron" unicode="&#x13d;" horiz-adv-x="1139" 
d="M996 156l-30 -156h-903l273 1409h191l-243 -1253h712zM1031 1303q-17 -87 -50.5 -145.5t-82.5 -105.5h-117q114 101 131 190h-88l32 167h195z" />
    <glyph glyph-name="lcaron" unicode="&#x13e;" horiz-adv-x="576" 
d="M501 1484l-289 -1484h-179l288 1484h180zM770 1378q-17 -87 -50.5 -145.5t-82.5 -105.5h-117q114 101 131 190h-88l32 167h195z" />
    <glyph glyph-name="Ldot" unicode="&#x13f;" horiz-adv-x="1139" 
d="M996 156l-30 -156h-903l273 1409h191l-243 -1253h712zM891 858l-34 -172h-180l34 172h180z" />
    <glyph glyph-name="ldot" unicode="&#x140;" horiz-adv-x="819" 
d="M501 1484l-289 -1484h-179l288 1484h180zM757 858l-34 -172h-180l34 172h180z" />
    <glyph glyph-name="Lslash" unicode="&#x141;" horiz-adv-x="1139" 
d="M282 156h712l-31 -156h-903l105 538l-163 -85l29 158l165 85l138 713h191l-117 -603l306 148l-31 -157l-306 -149z" />
    <glyph glyph-name="lslash" unicode="&#x142;" horiz-adv-x="455" 
d="M337 646l-126 -646h-179l105 542l-135 -68l31 158l134 68l153 784h180l-132 -680l138 72l-31 -159z" />
    <glyph glyph-name="Nacute" unicode="&#x143;" horiz-adv-x="1479" 
d="M414 943l-181 -943h-170l273 1409h212l534 -1215q13 95 24 166t21 118l181 931h172l-273 -1409h-220l-531 1210q-11 -85 -21.5 -152t-20.5 -115zM1263 1747l-352 -217h-114l3 20l261 226h207z" />
    <glyph glyph-name="nacute" unicode="&#x144;" horiz-adv-x="1139" 
d="M336 606l-118 -606h-180l166 851q10 47 19.5 105t19.5 126h170q0 -7 -5 -41.5t-11.5 -75t-11.5 -68.5h3q83 115 166.5 159.5t198.5 44.5q148 0 222.5 -73t74.5 -211q0 -32 -5 -73t-16 -91l-127 -653h-181l126 645q18 89 18 150q0 167 -179 167q-84 0 -155.5 -43.5
t-122 -123t-72.5 -189.5zM1031 1479l-374 -278h-94l3 20l253 287h217z" />
    <glyph glyph-name="Ncommaaccent" unicode="&#x145;" horiz-adv-x="1479" 
d="M414 943l-181 -943h-170l273 1409h212l534 -1215q13 95 24 166t21 118l181 931h172l-273 -1409h-220l-531 1210q-11 -85 -21.5 -152t-20.5 -115zM707 -204q-17 -87 -50.5 -145.5t-82.5 -105.5h-117q114 101 131 190h-88l32 167h195z" />
    <glyph glyph-name="ncommaaccent" unicode="&#x146;" horiz-adv-x="1139" 
d="M336 606l-118 -606h-180l166 851q10 47 19.5 105t19.5 126h170q0 -7 -5 -41.5t-11.5 -75t-11.5 -68.5h3q83 115 166.5 159.5t198.5 44.5q148 0 222.5 -73t74.5 -211q0 -32 -5 -73t-16 -91l-127 -653h-181l126 645q18 89 18 150q0 167 -179 167q-84 0 -155.5 -43.5
t-122 -123t-72.5 -189.5zM547 -204q-17 -87 -50.5 -145.5t-82.5 -105.5h-117q114 101 131 190h-88l32 167h195z" />
    <glyph glyph-name="Ncaron" unicode="&#x147;" horiz-adv-x="1479" 
d="M414 943l-181 -943h-170l273 1409h212l534 -1215q13 95 24 166t21 118l181 931h172l-273 -1409h-220l-531 1210q-11 -85 -21.5 -152t-20.5 -115zM1298 1769l-271 -239h-204l-187 239l4 21h93l205 -139h2l246 139h116z" />
    <glyph glyph-name="ncaron" unicode="&#x148;" horiz-adv-x="1139" 
d="M336 606l-118 -606h-180l166 851q10 47 19.5 105t19.5 126h170q0 -7 -5 -41.5t-11.5 -75t-11.5 -68.5h3q83 115 166.5 159.5t198.5 44.5q148 0 222.5 -73t74.5 -211q0 -32 -5 -73t-16 -91l-127 -653h-181l126 645q18 89 18 150q0 167 -179 167q-84 0 -155.5 -43.5
t-122 -123t-72.5 -189.5zM1062 1471l-277 -270h-204l-181 270l4 20h97l199 -169h2l252 169h112z" />
    <glyph glyph-name="napostrophe" unicode="&#x149;" horiz-adv-x="1259" 
d="M452 606l-118 -606h-180l166 851q10 47 19.5 105t19.5 126h170q0 -7 -5 -41.5t-11.5 -75t-11.5 -68.5h3q83 115 166.5 159.5t198.5 44.5q148 0 222.5 -73t74.5 -211q0 -32 -5 -73t-16 -91l-127 -653h-181l126 645q18 89 18 150q0 167 -179 167q-84 0 -155.5 -43.5
t-122 -123t-72.5 -189.5zM313 1264q-18 -95 -51 -169.5t-88 -142.5h-123q120 138 145 260h-88l38 197h195z" />
    <glyph glyph-name="Eng" unicode="&#x14a;" horiz-adv-x="1481" 
d="M852 -20q-111 0 -189.5 43.5t-122.5 111.5l141 108q34 -48 81.5 -79t101.5 -31q72 0 119 35.5t80 113.5q32 78 69 264l73 378q14 73 14 124q0 113 -68.5 169.5t-205.5 56.5q-121 0 -232 -52q-113 -52 -189.5 -141t-96.5 -190l-173 -891h-191l212 1092l57 317h184
q-6 -46 -16.5 -108.5t-24.5 -142.5h4q198 271 518 271q411 0 411 -357q0 -74 -17 -168l-70 -362q-52 -265 -105 -366q-53 -100 -139.5 -148t-224.5 -48z" />
    <glyph glyph-name="eng" unicode="&#x14b;" horiz-adv-x="1139" 
d="M584 -425q-53 0 -129 14l23 136q26 -4 46.5 -6t36.5 -2q59 0 89 42t47 134l146 752q18 89 18 150q0 167 -179 167q-84 0 -155.5 -43.5t-122 -123t-72.5 -189.5l-118 -606h-180l166 851q10 47 19.5 105t19.5 126h170q0 -7 -5 -41.5t-11.5 -75t-11.5 -68.5h3
q83 115 166.5 159.5t198.5 44.5q148 0 222.5 -73t74.5 -211q0 -32 -5 -73t-16 -91l-154 -787q-31 -158 -101 -224.5t-186 -66.5z" />
    <glyph glyph-name="Omacron" unicode="&#x14c;" horiz-adv-x="1593" 
d="M938 1430q185 0 319 -71t206.5 -201t72.5 -307q-4 -266 -112 -463q-107 -196 -293 -302t-422 -106q-201 0 -340 81q-125 71 -191.5 202t-66.5 310q0 240 106 440q105 200 294 308.5t427 108.5zM929 1276q-199 0 -339 -89q-93 -59 -157 -160t-97.5 -222t-33.5 -242
q0 -209 106.5 -318.5t309.5 -109.5q197 0 336 87q92 58 157 155.5t99.5 219.5t34.5 250q0 207 -108.5 318t-307.5 111zM1253 1697l-26 -127h-550l26 127h550z" />
    <glyph glyph-name="omacron" unicode="&#x14d;" horiz-adv-x="1139" 
d="M1074 683q0 -130 -40 -270t-114 -238q-75 -97 -183 -146t-246 -49q-196 0 -310 118t-114 321q5 207 74 362q70 158 194 239t307 81q210 0 321 -109.5t111 -308.5zM888 683q0 286 -248 286q-135 0 -216 -69q-54 -46 -92.5 -126.5t-59 -175t-20.5 -182.5q0 -148 64 -225.5
t186 -77.5q103 0 165.5 35t109.5 108q47 74 76.5 187.5t34.5 239.5zM962 1363l-26 -127h-550l26 127h550z" />
    <glyph glyph-name="Obreve" unicode="&#x14e;" horiz-adv-x="1593" 
d="M938 1430q185 0 319 -71t206.5 -201t72.5 -307q-4 -266 -112 -463q-107 -196 -293 -302t-422 -106q-201 0 -340 81q-125 71 -191.5 202t-66.5 310q0 240 106 440q105 200 294 308.5t427 108.5zM929 1276q-199 0 -339 -89q-93 -59 -157 -160t-97.5 -222t-33.5 -242
q0 -209 106.5 -318.5t309.5 -109.5q197 0 336 87q92 58 157 155.5t99.5 219.5t34.5 250q0 207 -108.5 318t-307.5 111zM950 1520q-133 0 -213.5 69t-82.5 180h116q3 -59 54.5 -86t134.5 -27q89 0 150 28.5t93 85.5h117q-52 -122 -147.5 -186t-221.5 -64z" />
    <glyph glyph-name="obreve" unicode="&#x14f;" horiz-adv-x="1139" 
d="M1074 683q0 -130 -40 -270t-114 -238q-75 -97 -183 -146t-246 -49q-196 0 -310 118t-114 321q5 207 74 362q70 158 194 239t307 81q210 0 321 -109.5t111 -308.5zM888 683q0 286 -248 286q-135 0 -216 -69q-54 -46 -92.5 -126.5t-59 -175t-20.5 -182.5q0 -148 64 -225.5
t186 -77.5q103 0 165.5 35t109.5 108q47 74 76.5 187.5t34.5 239.5zM698 1201q-130 0 -210 81.5t-86 214.5v13h116q3 -85 54.5 -124t134.5 -39q89 0 150 40.5t93 122.5h117q-51 -148 -146.5 -228.5t-222.5 -80.5z" />
    <glyph glyph-name="Ohungarumlaut" unicode="&#x150;" horiz-adv-x="1593" 
d="M938 1430q185 0 319 -71t206.5 -201t72.5 -307q-4 -266 -112 -463q-107 -196 -293 -302t-422 -106q-201 0 -340 81q-125 71 -191.5 202t-66.5 310q0 240 106 440q105 200 294 308.5t427 108.5zM929 1276q-199 0 -339 -89q-93 -59 -157 -160t-97.5 -222t-33.5 -242
q0 -209 106.5 -318.5t309.5 -109.5q197 0 336 87q92 58 157 155.5t99.5 219.5t34.5 250q0 207 -108.5 318t-307.5 111zM1095 1748l-334 -218h-93l3 20l222 227h207zM1442 1748l-334 -218h-94l3 20l223 227h207z" />
    <glyph glyph-name="ohungarumlaut" unicode="&#x151;" horiz-adv-x="1139" 
d="M1074 683q0 -130 -40 -270t-114 -238q-75 -97 -183 -146t-246 -49q-196 0 -310 118t-114 321q5 207 74 362q70 158 194 239t307 81q210 0 321 -109.5t111 -308.5zM888 683q0 286 -248 286q-135 0 -216 -69q-54 -46 -92.5 -126.5t-59 -175t-20.5 -182.5q0 -148 64 -225.5
t186 -77.5q103 0 165.5 35t109.5 108q47 74 76.5 187.5t34.5 239.5zM811 1479l-364 -278h-93l3 20l252 287h207zM1158 1479l-364 -278h-94l3 20l253 287h207z" />
    <glyph glyph-name="OE" unicode="&#x152;" horiz-adv-x="2048" 
d="M893 0q-73 -10 -191 -10q-188 0 -322.5 70.5t-206.5 201.5t-72 311q0 123 27 233.5t80 207.5q107 194 294 300t423 106q44 0 91.5 -1.5t99.5 -4.5l78 -5h873l-30 -156h-710l-88 -452h650l-30 -154h-650l-95 -491h751l-30 -156h-942zM712 145q65 0 117.5 3t93.5 8
l213 1099q-42 5 -97.5 8t-123.5 3q-194 0 -334 -86q-93 -57 -157.5 -153.5t-98 -216t-33.5 -247.5q0 -203 109.5 -310.5t310.5 -107.5z" />
    <glyph glyph-name="oe" unicode="&#x153;" horiz-adv-x="1933" 
d="M1055 503q-11 -53 -11 -113q0 -133 66.5 -204t200.5 -71q96 0 173.5 47t122.5 132l138 -63q-74 -133 -186 -192t-269 -59q-268 0 -373 193q-73 -94 -179.5 -141t-246.5 -47q-199 0 -310.5 116t-111.5 318q5 204 74 361q69 158 193 239.5t306 81.5q140 0 236 -48t146 -144
q76 93 179 143t224 50q204 0 317 -103t113 -291q0 -104 -24 -205h-778zM888 683q0 286 -248 286q-136 0 -216 -70q-54 -47 -92 -128t-58 -174.5t-20 -180.5q0 -149 62 -223.5t186 -74.5q137 0 214 67q77 66 121.5 201.5t50.5 296.5zM1077 641h597l4 72q0 124 -62.5 190
t-184.5 66q-134 0 -225.5 -85.5t-128.5 -242.5z" />
    <glyph glyph-name="Racute" unicode="&#x154;" horiz-adv-x="1479" 
d="M367 585l-113 -585h-191l273 1409h612q153 0 264 -54q97 -46 150.5 -127.5t53.5 -188.5q0 -188 -108 -298t-319 -139l268 -602h-206l-243 585h-441zM857 736q181 0 273 75.5t92 212.5q0 112 -74.5 172t-222.5 60h-427l-101 -520h460zM1184 1747l-352 -217h-114l3 20
l261 226h207z" />
    <glyph glyph-name="racute" unicode="&#x155;" horiz-adv-x="682" 
d="M718 938q-42 13 -90 13q-70 0 -132 -50.5t-107 -137.5t-65 -199l-110 -564h-180l162 830q6 35 12.5 69.5t12.5 68.5q5 29 9.5 57.5t8.5 56.5h170l-27 -169l-8 -52h4q66 133 130 187t148 54q44 0 95 -14zM825 1479l-374 -278h-94l3 20l253 287h217z" />
    <glyph glyph-name="Rcommaaccent" unicode="&#x156;" horiz-adv-x="1479" 
d="M367 585l-113 -585h-191l273 1409h612q153 0 264 -54q97 -46 150.5 -127.5t53.5 -188.5q0 -188 -108 -298t-319 -139l268 -602h-206l-243 585h-441zM857 736q181 0 273 75.5t92 212.5q0 112 -74.5 172t-222.5 60h-427l-101 -520h460zM732 -204q-17 -87 -50.5 -145.5
t-82.5 -105.5h-117q114 101 131 190h-88l32 167h195z" />
    <glyph glyph-name="rcommaaccent" unicode="&#x157;" horiz-adv-x="682" 
d="M718 938q-42 13 -90 13q-70 0 -132 -50.5t-107 -137.5t-65 -199l-110 -564h-180l162 830q6 35 12.5 69.5t12.5 68.5q5 29 9.5 57.5t8.5 56.5h170l-27 -169l-8 -52h4q66 133 130 187t148 54q44 0 95 -14zM197 -204q-17 -87 -50.5 -145.5t-82.5 -105.5h-117
q114 101 131 190h-88l32 167h195z" />
    <glyph glyph-name="Rcaron" unicode="&#x158;" horiz-adv-x="1479" 
d="M367 585l-113 -585h-191l273 1409h612q153 0 264 -54q97 -46 150.5 -127.5t53.5 -188.5q0 -188 -108 -298t-319 -139l268 -602h-206l-243 585h-441zM857 736q181 0 273 75.5t92 212.5q0 112 -74.5 172t-222.5 60h-427l-101 -520h460zM1225 1769l-271 -239h-204l-187 239
l4 21h93l205 -139h2l246 139h116z" />
    <glyph glyph-name="rcaron" unicode="&#x159;" horiz-adv-x="682" 
d="M718 938q-42 13 -90 13q-70 0 -132 -50.5t-107 -137.5t-65 -199l-110 -564h-180l162 830q6 35 12.5 69.5t12.5 68.5q5 29 9.5 57.5t8.5 56.5h170l-27 -169l-8 -52h4q66 133 130 187t148 54q44 0 95 -14zM870 1471l-277 -270h-204l-181 270l4 20h97l199 -169h2l252 169
h112z" />
    <glyph glyph-name="Sacute" unicode="&#x15a;" horiz-adv-x="1366" 
d="M616 -20q-249 0 -386.5 88.5t-171.5 269.5l177 37q27 -129 120 -187t275 -58q219 0 320 65.5t101 200.5q0 67 -29 107.5t-99 73.5q-35 16 -95 36t-146 44q-168 46 -255 97q-85 50 -128.5 119.5t-43.5 167.5q0 122 69.5 209t197.5 133.5t302 46.5q220 0 353 -76t167 -222
l-173 -51q-33 105 -118.5 155t-229.5 50q-188 0 -282 -59t-94 -177q0 -60 26 -97.5t84 -66.5q29 -14 87 -33.5t145 -42.5q98 -27 168 -53t113 -51q86 -50 131 -121.5t45 -176.5q0 -206 -155 -317t-475 -111zM1169 1747l-352 -217h-114l3 20l261 226h207z" />
    <glyph glyph-name="sacute" unicode="&#x15b;" horiz-adv-x="1024" 
d="M907 317q0 -162 -124 -249.5t-358 -87.5q-174 0 -276.5 58.5t-143.5 184.5l147 56q33 -88 102.5 -128t186.5 -40q291 0 291 190q0 62 -51 104q-52 41 -216 92q-129 43 -192 82q-64 40 -98 93.5t-34 124.5q0 145 116 223.5t327 78.5q177 0 276.5 -63.5t121.5 -191.5
l-163 -25q-22 79 -83 114t-164 35q-124 0 -190.5 -39.5t-66.5 -111.5q0 -42 21 -70.5t61 -51.5t182 -68q128 -40 192 -81q65 -41 100.5 -97t35.5 -132zM956 1479l-374 -278h-94l3 20l253 287h217z" />
    <glyph glyph-name="Scircumflex" unicode="&#x15c;" horiz-adv-x="1366" 
d="M616 -20q-249 0 -386.5 88.5t-171.5 269.5l177 37q27 -129 120 -187t275 -58q219 0 320 65.5t101 200.5q0 67 -29 107.5t-99 73.5q-35 16 -95 36t-146 44q-168 46 -255 97q-85 50 -128.5 119.5t-43.5 167.5q0 122 69.5 209t197.5 133.5t302 46.5q220 0 353 -76t167 -222
l-173 -51q-33 105 -118.5 155t-229.5 50q-188 0 -282 -59t-94 -177q0 -60 26 -97.5t84 -66.5q29 -14 87 -33.5t145 -42.5q98 -27 168 -53t113 -51q86 -50 131 -121.5t45 -176.5q0 -206 -155 -317t-475 -111zM886 1669l-259 -139h-113l4 20l280 240h204l177 -240l-4 -20h-95
l-192 139h-2z" />
    <glyph glyph-name="scircumflex" unicode="&#x15d;" horiz-adv-x="1024" 
d="M907 317q0 -162 -124 -249.5t-358 -87.5q-174 0 -276.5 58.5t-143.5 184.5l147 56q33 -88 102.5 -128t186.5 -40q291 0 291 190q0 62 -51 104q-52 41 -216 92q-129 43 -192 82q-64 40 -98 93.5t-34 124.5q0 145 116 223.5t327 78.5q177 0 276.5 -63.5t121.5 -191.5
l-163 -25q-22 79 -83 114t-164 35q-124 0 -190.5 -39.5t-66.5 -111.5q0 -42 21 -70.5t61 -51.5t182 -68q128 -40 192 -81q65 -41 100.5 -97t35.5 -132zM653 1370l-265 -169h-116l4 20l286 270h204l171 -270l-4 -20h-92l-186 169h-2z" />
    <glyph glyph-name="Scedilla" unicode="&#x15e;" horiz-adv-x="1366" 
d="M616 -20q-249 0 -386.5 88.5t-171.5 269.5l177 37q27 -129 120 -187t275 -58q219 0 320 65.5t101 200.5q0 67 -29 107.5t-99 73.5q-35 16 -95 36t-146 44q-168 46 -255 97q-85 50 -128.5 119.5t-43.5 167.5q0 122 69.5 209t197.5 133.5t302 46.5q220 0 353 -76t167 -222
l-173 -51q-33 105 -118.5 155t-229.5 50q-188 0 -282 -59t-94 -177q0 -60 26 -97.5t84 -66.5q29 -14 87 -33.5t145 -42.5q98 -27 168 -53t113 -51q86 -50 131 -121.5t45 -176.5q0 -206 -155 -317t-475 -111zM634 -96q81 -5 121.5 -41t40.5 -95q0 -97 -75.5 -145t-227.5 -48
q-25 0 -51.5 1.5t-54.5 5.5l21 91q48 -6 88 -6q91 0 128.5 22t37.5 67q0 72 -119 72q-22 0 -36.5 -0.5t-21.5 -1.5l101 174h107z" />
    <glyph glyph-name="scedilla" unicode="&#x15f;" horiz-adv-x="1024" 
d="M907 317q0 -162 -124 -249.5t-358 -87.5q-174 0 -276.5 58.5t-143.5 184.5l147 56q33 -88 102.5 -128t186.5 -40q291 0 291 190q0 62 -51 104q-52 41 -216 92q-129 43 -192 82q-64 40 -98 93.5t-34 124.5q0 145 116 223.5t327 78.5q177 0 276.5 -63.5t121.5 -191.5
l-163 -25q-22 79 -83 114t-164 35q-124 0 -190.5 -39.5t-66.5 -111.5q0 -42 21 -70.5t61 -51.5t182 -68q128 -40 192 -81q65 -41 100.5 -97t35.5 -132zM461 -96q81 -5 121.5 -41t40.5 -95q0 -97 -75.5 -145t-227.5 -48q-25 0 -51.5 1.5t-54.5 5.5l21 91q48 -6 88 -6
q91 0 128.5 22t37.5 67q0 72 -119 72q-22 0 -36.5 -0.5t-21.5 -1.5l101 174h107z" />
    <glyph glyph-name="Scaron" unicode="&#x160;" horiz-adv-x="1366" 
d="M616 -20q-249 0 -386.5 88.5t-171.5 269.5l177 37q27 -129 120 -187t275 -58q219 0 320 65.5t101 200.5q0 67 -29 107.5t-99 73.5q-35 16 -95 36t-146 44q-168 46 -255 97q-85 50 -128.5 119.5t-43.5 167.5q0 122 69.5 209t197.5 133.5t302 46.5q220 0 353 -76t167 -222
l-173 -51q-33 105 -118.5 155t-229.5 50q-188 0 -282 -59t-94 -177q0 -60 26 -97.5t84 -66.5q29 -14 87 -33.5t145 -42.5q98 -27 168 -53t113 -51q86 -50 131 -121.5t45 -176.5q0 -206 -155 -317t-475 -111zM1218 1769l-271 -239h-204l-187 239l4 21h93l205 -139h2l246 139
h116z" />
    <glyph glyph-name="scaron" unicode="&#x161;" horiz-adv-x="1024" 
d="M907 317q0 -162 -124 -249.5t-358 -87.5q-174 0 -276.5 58.5t-143.5 184.5l147 56q33 -88 102.5 -128t186.5 -40q291 0 291 190q0 62 -51 104q-52 41 -216 92q-129 43 -192 82q-64 40 -98 93.5t-34 124.5q0 145 116 223.5t327 78.5q177 0 276.5 -63.5t121.5 -191.5
l-163 -25q-22 79 -83 114t-164 35q-124 0 -190.5 -39.5t-66.5 -111.5q0 -42 21 -70.5t61 -51.5t182 -68q128 -40 192 -81q65 -41 100.5 -97t35.5 -132zM990 1471l-277 -270h-204l-181 270l4 20h97l199 -169h2l252 169h112z" />
    <glyph glyph-name="Tcommaaccent" unicode="&#x162;" horiz-adv-x="1251" 
d="M858 1253l-244 -1253h-190l244 1253h-484l30 156h1158l-30 -156h-484zM519 -96q81 -5 121.5 -41t40.5 -95q0 -97 -75.5 -145t-227.5 -48q-25 0 -51.5 1.5t-54.5 5.5l21 91q48 -6 88 -6q91 0 128.5 22t37.5 67q0 72 -119 72q-22 0 -36.5 -0.5t-21.5 -1.5l101 174h107z" />
    <glyph glyph-name="tcommaaccent" unicode="&#x163;" horiz-adv-x="569" 
d="M275 -20q-85 0 -133.5 51t-48.5 135q0 55 15 130l126 655h-125l26 131h127l105 242h120l-47 -242h200l-26 -131h-200l-125 -645q-12 -60 -12 -95q0 -44 22.5 -66t67.5 -22q39 0 100 14l-19 -133q-99 -24 -173 -24zM261 -96q81 -5 121.5 -41t40.5 -95q0 -97 -75.5 -145
t-227.5 -48q-25 0 -51.5 1.5t-54.5 5.5l21 91q48 -6 88 -6q91 0 128.5 22t37.5 67q0 72 -119 72q-22 0 -36.5 -0.5t-21.5 -1.5l101 174h107z" />
    <glyph glyph-name="Tcaron" unicode="&#x164;" horiz-adv-x="1251" 
d="M858 1253l-244 -1253h-190l244 1253h-484l30 156h1158l-30 -156h-484zM1182 1769l-271 -239h-204l-187 239l4 21h93l205 -139h2l246 139h116z" />
    <glyph glyph-name="tcaron" unicode="&#x165;" horiz-adv-x="725" 
d="M275 -20q-85 0 -133.5 51t-48.5 135q0 55 15 130l126 655h-125l26 131h127l105 242h120l-47 -242h200l-26 -131h-200l-125 -645q-12 -60 -12 -95q0 -44 22.5 -66t67.5 -22q39 0 100 14l-19 -133q-99 -24 -173 -24zM918 1378q-17 -87 -50.5 -145.5t-82.5 -105.5h-117
q114 101 131 190h-88l32 167h195z" />
    <glyph glyph-name="Tbar" unicode="&#x166;" horiz-adv-x="1251" 
d="M740 647l-125 -647h-190l125 647h-279l30 154h279l88 452h-484l30 156h1158l-30 -156h-484l-88 -452h281l-30 -154h-281z" />
    <glyph glyph-name="tbar" unicode="&#x167;" horiz-adv-x="569" 
d="M277 211q0 -44 22.5 -66t67.5 -22q39 0 100 14l-19 -133q-99 -24 -173 -24q-85 0 -133.5 51t-48.5 135q0 55 15 130l42 220h-125l25 131h125l59 304h-125l26 131h127l105 242h120l-47 -242h200l-26 -131h-200l-59 -304h200l-25 -131h-201l-40 -210q-12 -60 -12 -95z" />
    <glyph glyph-name="Utilde" unicode="&#x168;" horiz-adv-x="1479" 
d="M654 -20q-233 0 -367 120.5t-134 330.5q0 44 7.5 105.5t15.5 98.5l150 774h191l-162 -843q-17 -90 -17 -143q0 -136 87.5 -212t244.5 -76q192 0 307.5 101.5t153.5 304.5l168 868h190l-170 -879q-54 -273 -222 -411.5t-443 -138.5zM1091 1530q-53 0 -101.5 32t-92.5 64.5
t-87 32.5q-46 0 -77 -29.5t-56 -99.5h-100q47 152 107.5 210t143.5 58q55 0 103 -32.5t92 -64.5t85 -32q46 0 79 32.5t53 96.5h102q-34 -106 -67 -159q-32 -51 -77 -80t-107 -29z" />
    <glyph glyph-name="utilde" unicode="&#x169;" horiz-adv-x="1139" 
d="M748 185q-83 -115 -166.5 -159.5t-198.5 -44.5q-148 0 -222.5 73t-74.5 211q0 22 2.5 47t7 54.5t11.5 62.5l127 653h181l-126 -645q-18 -88 -18 -150q0 -167 179 -167q84 0 155.5 43.5t122.5 123.5t72 189l118 606h180l-166 -851q-10 -47 -19.5 -105t-19.5 -126h-170
q0 8 5 42t12 75t11 68h-3zM838 1201q-53 0 -101.5 30t-93 59.5t-87.5 29.5q-50 0 -85.5 -30t-56.5 -89h-90q47 152 107.5 210t143.5 58q54 0 102.5 -29.5t93 -59.5t85.5 -30q50 0 85.5 30t55.5 89h92q-34 -106 -67 -159q-32 -51 -77 -80t-107 -29z" />
    <glyph glyph-name="Umacron" unicode="&#x16a;" horiz-adv-x="1479" 
d="M654 -20q-233 0 -367 120.5t-134 330.5q0 44 7.5 105.5t15.5 98.5l150 774h191l-162 -843q-17 -90 -17 -143q0 -136 87.5 -212t244.5 -76q192 0 307.5 101.5t153.5 304.5l168 868h190l-170 -879q-54 -273 -222 -411.5t-443 -138.5zM1222 1692l-26 -127h-550l26 127h550z
" />
    <glyph glyph-name="umacron" unicode="&#x16b;" horiz-adv-x="1139" 
d="M748 185q-83 -115 -166.5 -159.5t-198.5 -44.5q-148 0 -222.5 73t-74.5 211q0 22 2.5 47t7 54.5t11.5 62.5l127 653h181l-126 -645q-18 -88 -18 -150q0 -167 179 -167q84 0 155.5 43.5t122.5 123.5t72 189l118 606h180l-166 -851q-10 -47 -19.5 -105t-19.5 -126h-170
q0 8 5 42t12 75t11 68h-3zM984 1363l-26 -127h-550l26 127h550z" />
    <glyph glyph-name="Ubreve" unicode="&#x16c;" horiz-adv-x="1479" 
d="M654 -20q-233 0 -367 120.5t-134 330.5q0 44 7.5 105.5t15.5 98.5l150 774h191l-162 -843q-17 -90 -17 -143q0 -136 87.5 -212t244.5 -76q192 0 307.5 101.5t153.5 304.5l168 868h190l-170 -879q-54 -273 -222 -411.5t-443 -138.5zM913 1520q-133 0 -213.5 69t-82.5 180
h116q3 -59 54.5 -86t134.5 -27q89 0 150 28.5t93 85.5h117q-52 -122 -147.5 -186t-221.5 -64z" />
    <glyph glyph-name="ubreve" unicode="&#x16d;" horiz-adv-x="1139" 
d="M748 185q-83 -115 -166.5 -159.5t-198.5 -44.5q-148 0 -222.5 73t-74.5 211q0 22 2.5 47t7 54.5t11.5 62.5l127 653h181l-126 -645q-18 -88 -18 -150q0 -167 179 -167q84 0 155.5 43.5t122.5 123.5t72 189l118 606h180l-166 -851q-10 -47 -19.5 -105t-19.5 -126h-170
q0 8 5 42t12 75t11 68h-3zM682 1201q-130 0 -210 81.5t-86 214.5v13h116q3 -85 54.5 -124t134.5 -39q89 0 150 40.5t93 122.5h117q-51 -148 -146.5 -228.5t-222.5 -80.5z" />
    <glyph glyph-name="Uring" unicode="&#x16e;" horiz-adv-x="1479" 
d="M654 -20q-233 0 -367 120.5t-134 330.5q0 44 7.5 105.5t15.5 98.5l150 774h191l-162 -843q-17 -90 -17 -143q0 -136 87.5 -212t244.5 -76q192 0 307.5 101.5t153.5 304.5l168 868h190l-170 -879q-54 -273 -222 -411.5t-443 -138.5zM1162 1694q0 -66 -33 -121t-87.5 -88
t-121.5 -33q-66 0 -121 33t-88 88t-33 121q0 68 33 122.5t88 86.5t121 32t121 -32.5t88 -87t33 -121.5zM1054 1694q0 58 -38 96t-96 38q-59 0 -97 -39.5t-38 -94.5t38 -96t97 -41q58 0 96 40t38 97z" />
    <glyph glyph-name="uring" unicode="&#x16f;" horiz-adv-x="1139" 
d="M748 185q-83 -115 -166.5 -159.5t-198.5 -44.5q-148 0 -222.5 73t-74.5 211q0 22 2.5 47t7 54.5t11.5 62.5l127 653h181l-126 -645q-18 -88 -18 -150q0 -167 179 -167q84 0 155.5 43.5t122.5 123.5t72 189l118 606h180l-166 -851q-10 -47 -19.5 -105t-19.5 -126h-170
q0 8 5 42t12 75t11 68h-3zM931 1410q0 -66 -33 -121t-87.5 -88t-121.5 -33q-66 0 -121 33t-88 88t-33 121q0 68 33 122.5t88 86.5t121 32t121 -32.5t88 -87t33 -121.5zM823 1410q0 58 -38 96t-96 38q-59 0 -97 -39.5t-38 -94.5t38 -96t97 -41q58 0 96 40t38 97z" />
    <glyph glyph-name="Uhungarumlaut" unicode="&#x170;" horiz-adv-x="1479" 
d="M654 -20q-233 0 -367 120.5t-134 330.5q0 44 7.5 105.5t15.5 98.5l150 774h191l-162 -843q-17 -90 -17 -143q0 -136 87.5 -212t244.5 -76q192 0 307.5 101.5t153.5 304.5l168 868h190l-170 -879q-54 -273 -222 -411.5t-443 -138.5zM1043 1748l-334 -218h-93l3 20l222 227
h207zM1390 1748l-334 -218h-94l3 20l223 227h207z" />
    <glyph glyph-name="uhungarumlaut" unicode="&#x171;" horiz-adv-x="1139" 
d="M748 185q-83 -115 -166.5 -159.5t-198.5 -44.5q-148 0 -222.5 73t-74.5 211q0 22 2.5 47t7 54.5t11.5 62.5l127 653h181l-126 -645q-18 -88 -18 -150q0 -167 179 -167q84 0 155.5 43.5t122.5 123.5t72 189l118 606h180l-166 -851q-10 -47 -19.5 -105t-19.5 -126h-170
q0 8 5 42t12 75t11 68h-3zM833 1479l-364 -278h-93l3 20l252 287h207zM1180 1479l-364 -278h-94l3 20l253 287h207z" />
    <glyph glyph-name="Uogonek" unicode="&#x172;" horiz-adv-x="1479" 
d="M654 -20q-233 0 -367 120.5t-134 330.5q0 44 7.5 105.5t15.5 98.5l150 774h191l-162 -843q-17 -90 -17 -143q0 -136 87.5 -212t244.5 -76q192 0 307.5 101.5t153.5 304.5l168 868h190l-170 -879q-54 -273 -222 -411.5t-443 -138.5zM683 -427q-88 0 -133 47t-45 121
q0 83 57 153.5t148 105.5h133q-93 -48 -143 -110.5t-50 -125.5q0 -34 20 -57.5t58 -23.5q55 0 114 22l-15 -105q-67 -27 -144 -27z" />
    <glyph glyph-name="uogonek" unicode="&#x173;" horiz-adv-x="1139" 
d="M748 185q-83 -115 -166.5 -159.5t-198.5 -44.5q-148 0 -222.5 73t-74.5 211q0 22 2.5 47t7 54.5t11.5 62.5l127 653h181l-126 -645q-18 -88 -18 -150q0 -167 179 -167q84 0 155.5 43.5t122.5 123.5t72 189l118 606h180l-166 -851q-10 -47 -19.5 -105t-19.5 -126h-170
q0 8 5 42t12 75t11 68h-3zM697 -427q-88 0 -133 47t-45 121q0 83 57 153.5t148 105.5h133q-93 -48 -143 -110.5t-50 -125.5q0 -34 20 -57.5t58 -23.5q55 0 114 22l-15 -105q-67 -27 -144 -27z" />
    <glyph glyph-name="Wcircumflex" unicode="&#x174;" horiz-adv-x="1933" 
d="M961 895l-419 -895h-223l-142 1409h197l79 -895q6 -77 10 -164t6 -182q40 94 72.5 169.5t58.5 132.5l443 939h183l75 -877q7 -77 11.5 -168t5.5 -196q38 83 58.5 134t35.5 85l481 1022h201l-688 -1409h-223l-71 895q-7 137 -11 218t-5 106q-38 -100 -72 -181t-63 -143z
M1172 1669l-259 -139h-113l4 20l280 240h204l177 -240l-4 -20h-95l-192 139h-2z" />
    <glyph glyph-name="wcircumflex" unicode="&#x175;" horiz-adv-x="1479" 
d="M762 803l-360 -803h-208l-92 1082h178l40 -735q2 -49 4 -98.5t3 -99.5q20 47 40.5 95t40.5 95l341 743h193l44 -743q3 -54 4.5 -101.5t1.5 -88.5q7 15 26.5 60t52.5 118l342 755h176l-521 -1082h-209l-37 698l-6 236q-15 -37 -28.5 -70t-25.5 -61zM881 1370l-265 -169
h-116l4 20l286 270h204l171 -270l-4 -20h-92l-186 169h-2z" />
    <glyph glyph-name="Ycircumflex" unicode="&#x176;" horiz-adv-x="1366" 
d="M785 584l-113 -584h-190l115 584l-384 825h196l306 -674l560 674h214zM903 1669l-259 -139h-113l4 20l280 240h204l177 -240l-4 -20h-95l-192 139h-2z" />
    <glyph glyph-name="ycircumflex" unicode="&#x177;" horiz-adv-x="1024" 
d="M16 -425q-70 0 -132 14l31 134q48 -8 77 -8q95 0 167.5 64t142.5 186l27 47l-217 1070h183l112 -598q8 -40 15 -84.5t13 -86t10 -72.5t4 -45q5 11 11.5 24.5t14.5 29.5l122 225l331 607h199l-626 -1082q-112 -195 -178 -270q-67 -78 -141 -116.5t-166 -38.5zM676 1370
l-265 -169h-116l4 20l286 270h204l171 -270l-4 -20h-92l-186 169h-2z" />
    <glyph glyph-name="Ydieresis" unicode="&#x178;" horiz-adv-x="1366" 
d="M785 584l-113 -584h-190l115 584l-384 825h196l306 -674l560 674h214zM1159 1714l-35 -184h-173l35 184h173zM777 1714l-35 -184h-175l35 184h175z" />
    <glyph glyph-name="Zacute" unicode="&#x179;" horiz-adv-x="1251" 
d="M1112 156l-30 -156h-1122l27 143l1054 1110h-765l30 156h1002l-27 -139l-1054 -1114h885zM1150 1747l-352 -217h-114l3 20l261 226h207z" />
    <glyph glyph-name="zacute" unicode="&#x17a;" horiz-adv-x="1024" 
d="M851 139l-25 -139h-838l23 137l742 806h-566l25 139h784l-24 -137l-742 -806h621zM952 1479l-374 -278h-94l3 20l253 287h217z" />
    <glyph glyph-name="Zdotaccent" unicode="&#x17b;" horiz-adv-x="1251" 
d="M1112 156l-30 -156h-1122l27 143l1054 1110h-765l30 156h1002l-27 -139l-1054 -1114h885zM911 1702l-34 -172h-180l34 172h180z" />
    <glyph glyph-name="zdotaccent" unicode="&#x17c;" horiz-adv-x="1024" 
d="M851 139l-25 -139h-838l23 137l742 806h-566l25 139h784l-24 -137l-742 -806h621zM765 1484l-34 -172h-180l34 172h180z" />
    <glyph glyph-name="Zcaron" unicode="&#x17d;" horiz-adv-x="1251" 
d="M1112 156l-30 -156h-1122l27 143l1054 1110h-765l30 156h1002l-27 -139l-1054 -1114h885zM1170 1769l-271 -239h-204l-187 239l4 21h93l205 -139h2l246 139h116z" />
    <glyph glyph-name="zcaron" unicode="&#x17e;" horiz-adv-x="1024" 
d="M840 139l-25 -139h-838l23 137l742 806h-566l25 139h784l-24 -137l-742 -806h621zM998 1471l-277 -270h-204l-181 270l4 20h97l199 -169h2l252 169h112z" />
    <glyph glyph-name="longs" unicode="&#x17f;" horiz-adv-x="455" 
d="M33 0l234 1204q29 156 101 218t204 62q70 0 118 -12l-24 -137q-22 4 -43 6t-41 2q-39 0 -65 -14q-31 -17 -46 -52.5t-28 -97.5l-230 -1179h-180z" />
    <glyph glyph-name="uni0180" unicode="&#x180;" horiz-adv-x="1139" 
d="M167 1337h127l29 147h180l-29 -147h305l-25 -131h-306l-28 -145q-7 -31 -15 -66.5t-19 -73.5h4q73 95 154 138t200 43q157 0 244.5 -94.5t87.5 -259.5q0 -204 -61 -393q-61 -190 -173 -282.5t-285 -92.5q-123 0 -200 52t-109 146h-3q-2 -13 -13 -57.5t-30 -120.5h-173
q4 13 16.5 68.5t32.5 154.5l191 983h-127zM692 963q-99 0 -169.5 -40.5t-119.5 -121.5q-32 -54 -56 -129t-36.5 -152.5t-12.5 -142.5q0 -125 63.5 -194.5t176.5 -69.5q123 0 193 73q48 48 83 140.5t54.5 198t19.5 191.5q0 123 -47 185t-149 62z" />
    <glyph glyph-name="uni0181" unicode="&#x181;" horiz-adv-x="1496" 
d="M1377 439q0 -213 -156 -326t-433 -113h-595l245 1261h-16q-94 0 -140.5 -51t-46.5 -143q1 -13 2 -25t2 -25l-148 -17q-4 14 -6 29t-2 29q0 170 90.5 260.5t262.5 90.5h540q209 0 329.5 -86.5t120.5 -235.5q0 -285 -339 -344q138 -23 214 -104.5t76 -199.5zM541 810h331
q178 0 266.5 64.5t88.5 193.5q0 94 -67 141t-201 47h-331zM413 153h368q210 0 307.5 73.5t97.5 215.5q0 107 -79.5 163t-228.5 56h-366z" />
    <glyph glyph-name="uni0182" unicode="&#x182;" horiz-adv-x="1333" 
d="M336 1409h926l-30 -156h-735l-85 -440h324q228 0 355.5 -98t127.5 -278q0 -207 -147.5 -322t-406.5 -115h-603zM282 151h374q185 0 277 69t92 207q0 113 -75.5 173.5t-222.5 60.5h-345z" />
    <glyph glyph-name="uni0183" unicode="&#x183;" horiz-adv-x="1139" 
d="M744 1102q157 0 244.5 -94.5t87.5 -259.5q0 -204 -61 -393q-61 -190 -173 -282.5t-285 -92.5q-123 0 -200 52t-109 146h-3q-2 -13 -13 -57.5t-30 -120.5h-173q4 13 16.5 68.5t32.5 154.5l245 1261h744l-31 -159h-564q-16 -81 -28.5 -145.5t-21.5 -111.5
q-10 -48 -19 -84.5t-17 -62.5h4q73 95 154 138t200 43zM692 963q-191 0 -289 -162q-32 -54 -56 -129t-36.5 -152.5t-12.5 -142.5q0 -125 63.5 -194.5t176.5 -69.5q123 0 193 73q36 36 64.5 98.5t49.5 138t32 152.5t11 141q0 123 -47 185t-149 62z" />
    <glyph glyph-name="uni0184" unicode="&#x184;" horiz-adv-x="1333" 
d="M411 813h313q228 0 355.5 -98t127.5 -278q0 -207 -147.5 -322t-406.5 -115h-592l197 1011l-126 165l6 33l332 200h56zM281 151h363q185 0 277 69t92 207q0 113 -75.5 173.5t-222.5 60.5h-334z" />
    <glyph glyph-name="uni0185" unicode="&#x185;" horiz-adv-x="1139" 
d="M744 1102q172 0 259 -112q73 -91 73 -242q0 -56 -4.5 -111.5t-14.5 -109.5q-26 -151 -86 -278.5t-151 -192.5q-53 -38 -118.5 -57t-144.5 -19q-123 0 -200 52t-109 146h-3q-2 -13 -13 -57.5t-30 -120.5h-173q3 9 9 36.5t16.5 74t23.5 112.5l167 863l-93 180l7 33l293 185
h51q-11 -58 -23 -116.5t-23 -117.5q-9 -47 -18.5 -94.5t-18.5 -94.5q-7 -31 -15 -66.5t-19 -73.5h4q73 95 154 138t200 43zM692 963q-99 0 -169.5 -40.5t-119.5 -121.5q-29 -49 -51 -115.5t-36 -134.5q-18 -93 -18 -174q0 -125 63.5 -194.5t176.5 -69.5q61 0 109.5 18
t83.5 55q44 45 78 130.5t54 179.5q25 120 25 220q0 123 -47 185t-149 62z" />
    <glyph glyph-name="uni0186" unicode="&#x186;" horiz-adv-x="1479" 
d="M175 1073q126 188 286 272.5t372 84.5q182 0 315 -72q134 -73 203 -207t69 -310q0 -245 -105 -445q-105 -199 -291.5 -307.5t-416.5 -108.5q-217 0 -366.5 90.5t-197.5 254.5l180 55q36 -112 139.5 -178t254.5 -66q184 0 324 89t215 249t75 370q0 200 -109 315.5
t-302 115.5q-148 0 -276 -73.5t-226 -217.5z" />
    <glyph glyph-name="uni0187" unicode="&#x187;" horiz-adv-x="1479" 
d="M1358 336q-126 -188 -286 -272t-372 -84q-181 0 -314 73q-133 72 -203 206t-70 310q0 246 105 445t291.5 307.5t416.5 108.5q283 0 440 -148l8 39q31 148 111.5 221.5t205.5 73.5q64 0 119 -21l-29 -151q-45 18 -86 18q-68 0 -109 -43t-58 -135l-38 -199l-180 -55
q-37 112 -140 178t-254 66q-185 0 -324 -88q-140 -88 -215 -249t-75 -371q0 -200 109 -315.5t302 -115.5q148 0 276 73.5t226 217.5z" />
    <glyph glyph-name="uni0188" unicode="&#x188;" horiz-adv-x="1024" 
d="M469 122q100 0 171.5 55t117.5 175l156 -49q-122 -323 -449 -323q-193 0 -295.5 110t-102.5 305q0 201 73 372q72 172 191.5 253.5t293.5 81.5q164 0 261 -79q35 133 108.5 199.5t185.5 66.5q66 0 115 -21l-29 -151q-49 20 -79 20q-63 0 -99.5 -46.5t-55.5 -143.5
l-31 -163l-177 -25q-6 97 -60 149.5t-145 52.5q-127 0 -204 -67q-48 -42 -83 -117t-55 -164q-26 -112 -26 -224q0 -267 218 -267z" />
    <glyph glyph-name="uni0189" unicode="&#x189;" horiz-adv-x="1479" 
d="M764 1409q208 0 358 -74.5t230.5 -212.5t80.5 -331q0 -233 -98 -412q-99 -178 -289.5 -278.5t-433.5 -100.5h-549l125 647h-154l30 154h154l118 608h428zM283 153h304q196 0 344 78q149 77 228.5 222.5t79.5 339.5q0 219 -126 341t-353 122h-262l-89 -455h406l-30 -154
h-406z" />
    <glyph glyph-name="uni018A" unicode="&#x18a;" horiz-adv-x="1606" 
d="M871 1409q208 0 358 -74.5t230.5 -212.5t80.5 -331q0 -237 -103 -413q-103 -177 -296.5 -277.5t-438.5 -100.5h-512l244 1261h-15q-94 0 -140.5 -51t-46.5 -143q1 -13 2 -25t2 -25l-148 -17q-4 14 -6 29t-2 29q0 170 90.5 260.5t262.5 90.5h438zM410 153h284
q197 0 345 78q148 77 227.5 222.5t79.5 339.5q0 219 -126 341t-353 122h-242z" />
    <glyph glyph-name="uni018B" unicode="&#x18b;" horiz-adv-x="1333" 
d="M554 0q-169 0 -285 55q-96 46 -147 127.5t-51 193.5q0 186 121 299q71 68 181 103t252 35h403l86 440h-760l30 156h951l-274 -1409h-507zM998 662h-364q-184 0 -276.5 -69t-92.5 -207q0 -113 75.5 -173.5t222.5 -60.5h344z" />
    <glyph glyph-name="uni018C" unicode="&#x18c;" horiz-adv-x="1139" 
d="M401 -21q-157 0 -244.5 94.5t-87.5 259.5q0 202 62 394q62 191 173 282.5t284 91.5q123 0 200.5 -52t109.5 -146h5q7 41 14 81.5t14 80.5q12 65 25 130l26 130h-564l31 159h744l-245 -1261q-10 -55 -19 -111t-19 -112h-172q0 26 5.5 65.5t15.5 94.5h-5q-73 -95 -154 -138
t-199 -43zM453 118q192 0 289 163q33 54 56.5 128.5t36 152.5t12.5 142q0 125 -63.5 194.5t-176.5 69.5q-124 0 -196 -75q-48 -50 -82.5 -144t-53 -198t-18.5 -186q0 -123 47 -185t149 -62z" />
    <glyph glyph-name="uni018D" unicode="&#x18d;" horiz-adv-x="1138" 
d="M1074 683q0 -175 -65 -346q-66 -170 -188.5 -260t-301.5 -96l290 -274l-25 -132h-739l28 145h366l152 -8l-369 343q-80 74 -115 156q-21 47 -30.5 99t-9.5 109q0 185 68 350q68 164 194.5 248t312.5 84q210 0 321 -109.5t111 -308.5zM888 683q0 143 -62 214.5t-186 71.5
q-135 0 -216 -69q-54 -46 -92.5 -126.5t-59 -175t-20.5 -182.5q0 -148 64 -225.5t186 -77.5q104 0 167.5 36t111.5 114q32 52 56 126t37.5 152.5t13.5 141.5z" />
    <glyph glyph-name="uni018E" unicode="&#x18e;" horiz-adv-x="1366" 
d="M-30 0l33 156h919l104 491h-818l33 154h818l96 452h-878l33 156h1069l-299 -1409h-1110z" />
    <glyph glyph-name="uni018F" unicode="&#x18f;" horiz-adv-x="1593" 
d="M1316 810q1 22 1.5 36.5t0.5 21.5q0 190 -103.5 298t-287.5 108q-83 0 -157 -18q-97 -24 -176 -82t-145 -153l-168 60q119 179 281.5 264t374.5 85q177 0 303 -68.5t193.5 -196t67.5 -305.5q0 -254 -98 -456t-281 -313t-427 -111q-179 0 -306 65q-130 65 -198.5 191
t-68.5 304q0 122 37 270h1157zM703 126q226 0 377 136.5t212 389.5h-983q-9 -57 -9 -112q0 -201 104.5 -307.5t298.5 -106.5z" />
    <glyph glyph-name="uni018F" unicode="&#x4d8;" horiz-adv-x="1593" 
d="M1316 810q1 22 1.5 36.5t0.5 21.5q0 190 -103.5 298t-287.5 108q-83 0 -157 -18q-97 -24 -176 -82t-145 -153l-168 60q119 179 281.5 264t374.5 85q177 0 303 -68.5t193.5 -196t67.5 -305.5q0 -254 -98 -456t-281 -313t-427 -111q-179 0 -306 65q-130 65 -198.5 191
t-68.5 304q0 122 37 270h1157zM703 126q226 0 377 136.5t212 389.5h-983q-9 -57 -9 -112q0 -201 104.5 -307.5t298.5 -106.5z" />
    <glyph glyph-name="uni0190" unicode="&#x190;" horiz-adv-x="1257" 
d="M545 -20q-163 0 -277 57q-90 46 -139 124.5t-49 183.5q0 164 105.5 269t287.5 130q-108 28 -166.5 95.5t-58.5 169.5q0 129 70 227q65 92 184.5 142.5t277.5 50.5q200 0 314 -83.5t150 -257.5l-175 -51q-37 131 -108.5 184t-193.5 53q-149 0 -238.5 -75t-89.5 -202
q0 -99 79 -147t242 -48h61l-29 -148h-71q-223 0 -335 -74.5t-112 -223.5q0 -104 77 -163.5t211 -59.5q257 0 428 272l145 -87q-86 -132 -168 -200q-83 -69 -187.5 -103.5t-234.5 -34.5z" />
    <glyph glyph-name="uni0191" unicode="&#x191;" horiz-adv-x="1251" 
d="M229 -129q-28 -146 -111 -220.5t-233 -74.5q-65 0 -121 21l30 155q45 -18 86 -18q67 0 107.5 43t58.5 135l290 1497h1011l-30 -156h-820l-102 -524h796l-31 -158h-796z" />
    <glyph glyph-name="florin" unicode="&#x192;" horiz-adv-x="1139" 
d="M1028 1312q-25 8 -53 11.5t-57 3.5q-60 0 -92 -37t-51 -131l-26 -137h211l-25 -131h-213l-258 -1347h-180l258 1347h-152l27 131h151l29 152q31 153 105.5 216.5t207.5 63.5q77 0 149 -20z" />
    <glyph glyph-name="uni0193" unicode="&#x193;" horiz-adv-x="1593" 
d="M742 -20q-305 0 -473 156t-168 437q0 250 105 446q105 197 297.5 304t440.5 107q286 0 437 -138l6 29q28 143 109.5 219t207.5 76q64 0 119 -21l-29 -151q-45 18 -86 18q-68 0 -108.5 -43t-58.5 -135l-36 -186l-193 -54q-37 115 -134 172.5t-246 57.5q-191 0 -336 -86
t-222 -244.5t-77 -366.5q0 -211 118 -326.5t333 -115.5q141 0 269.5 41t213.5 115l51 254h-421l32 160h597l-100 -495q-140 -120 -298.5 -175t-349.5 -55z" />
    <glyph glyph-name="uni0194" unicode="&#x194;" horiz-adv-x="1017" 
d="M343 -425q-102 0 -162.5 58.5t-60.5 161.5q0 51 22.5 113t61.5 130q20 34 57 88.5t92 130.5l-304 1152h198l234 -997l620 997h206l-756 -1162q50 -157 64 -232q13 -69 13 -127q0 -86 -35 -162q-36 -76 -100.5 -113.5t-149.5 -37.5zM358 -275q50 0 78.5 47t28.5 132
q0 56 -8 112.5t-25 113.5l-36 -55q-52 -82 -81.5 -154t-29.5 -114q0 -39 19.5 -60.5t53.5 -21.5z" />
    <glyph glyph-name="uni0195" unicode="&#x195;" horiz-adv-x="1801" 
d="M1144 -20q-182 0 -275 77.5t-93 213.5q0 21 2.5 43.5t7.5 46.5l59 299q8 40 11.5 73.5t3.5 60.5q0 168 -178 168q-84 0 -156 -44t-122.5 -122.5t-71.5 -184.5l-119 -611h-179l288 1484h180l-75 -386q-10 -55 -21.5 -105t-24.5 -96h3q73 107 158.5 155.5t206.5 48.5
q146 0 221 -73t75 -208q0 -31 -3.5 -64.5t-11.5 -71.5l-57 -293q-13 -61 -13 -105q0 -82 44 -125.5t148 -43.5q122 0 187.5 60.5t96.5 216.5l134 688h181l-140 -717q-40 -205 -154.5 -295t-312.5 -90z" />
    <glyph glyph-name="uni0196" unicode="&#x196;" horiz-adv-x="455" 
d="M244 139q0 -38 12.5 -74t32.5 -65h-198q-28 40 -28 125q0 54 11 111l243 1248h180l-244 -1257q-4 -20 -6.5 -45t-2.5 -43z" />
    <glyph glyph-name="uni0197" unicode="&#x197;" horiz-adv-x="569" 
d="M392 672l-131 -672h-179l130 672h-164l27 141h165l130 671h180l-131 -671h170l-27 -141h-170z" />
    <glyph glyph-name="uni0198" unicode="&#x198;" horiz-adv-x="1366" 
d="M691 779l557 -779h-226l-472 674l-190 -129l-106 -545h-191l273 1409h191l-136 -691l141 129l487 414q27 23 54 44t53 41q104 79 227 79q35 0 67.5 -6t58.5 -15l-32 -159q-20 8 -41 13t-44 5q-43 0 -94 -20q-51 -21 -143 -99z" />
    <glyph glyph-name="uni0199" unicode="&#x199;" horiz-adv-x="1024" 
d="M285 378l-72 -378h-179l237 1221q25 132 104 204.5t200 72.5q70 0 125 -21l-29 -151q-48 20 -79 20q-63 0 -100 -48t-55 -145l-114 -586l204 190l361 325h222l-530 -465l336 -617h-195l-268 502z" />
    <glyph glyph-name="uni019A" unicode="&#x19a;" horiz-adv-x="455" 
d="M335 666l-129 -666h-179l129 666h-133l29 134h130l133 684h180l-134 -684h138l-29 -134h-135z" />
    <glyph glyph-name="uni019B" unicode="&#x19b;" horiz-adv-x="1008" 
d="M849 1271l-170 -58l220 -1213h-180l-93 577q-10 55 -16.5 108.5t-8.5 105.5q-4 -7 -3.5 -7.5t-6.5 -13.5t-33.5 -56.5t-84.5 -138.5l-370 -575h-195l648 980l-32 179l-207 -67l-23 118l203 69l-35 205h168l26 -148l170 58z" />
    <glyph glyph-name="uni019C" unicode="&#x19c;" horiz-adv-x="1733" 
d="M1041 -20q-86 0 -146 28q-44 20 -77 55.5t-55 84.5v0q-27 -28 -52.5 -50t-50.5 -40q-60 -43 -118.5 -60.5t-124.5 -17.5q-166 0 -253 84t-87 245q0 72 21 181l179 919h188l-179 -921q-18 -93 -18 -157q0 -103 43.5 -149.5t140.5 -46.5q121 0 190.5 77t99.5 228l188 969
h189l-185 -953q-16 -76 -16 -134q0 -95 41.5 -141t130.5 -46q124 0 201.5 81t108.5 242l185 951h189l-229 -1178q-10 -49 -18.5 -106.5t-16.5 -124.5h-168l19 146l-3 -4q-58 -76 -140 -119t-177 -43z" />
    <glyph glyph-name="uni019D" unicode="&#x19d;" horiz-adv-x="1479" 
d="M987 0l-531 1210q-17 -113 -27.5 -180t-14.5 -87l-205 -1072q-20 -102 -60.5 -167.5t-105 -96.5t-158.5 -31q-65 0 -121 21l30 155q45 -18 86 -18q67 0 107.5 43t58.5 135l290 1497h212l534 -1215q13 95 24 166t21 118l181 931h172l-273 -1409h-220z" />
    <glyph glyph-name="uni019E" unicode="&#x19e;" horiz-adv-x="1139" 
d="M1025 653l-210 -1078h-181l209 1070q18 89 18 150q0 167 -179 167q-84 0 -155.5 -43.5t-122 -123t-72.5 -189.5l-118 -606h-180l155 789q8 37 14 87.5t6 67.5q0 8 -1.5 39t-3.5 62t-4 37h166q5 -20 8.5 -47.5t5 -61.5t1.5 -76h3q83 115 166.5 159.5t198.5 44.5
q148 0 222.5 -73t74.5 -211q0 -32 -5 -73t-16 -91z" />
    <glyph glyph-name="uni019F" unicode="&#x19f;" horiz-adv-x="1593" 
d="M938 1430q182 0 319 -71q135 -72 207 -204t72 -304q0 -178 -57.5 -340t-168.5 -282q-111 -121 -265.5 -185t-335.5 -64q-208 0 -351 87q-120 73 -183.5 202t-63.5 304q0 240 106 440q105 200 294 308.5t427 108.5zM929 1276q-237 0 -386.5 -122.5t-209.5 -359.5h1010
l2 53q0 207 -108.5 318t-307.5 111zM718 135q480 0 601 499h-1014l-3 -71q0 -209 106.5 -318.5t309.5 -109.5z" />
    <glyph glyph-name="Ohorn" unicode="&#x1a0;" horiz-adv-x="1662" 
d="M938 1430q229 0 381 -109t198 -306q104 47 152 101t64 126h-88l35 167h195l-22 -106q-29 -137 -101 -222t-221 -148q2 -25 3.5 -45.5t1.5 -36.5q0 -178 -57.5 -340t-168.5 -282q-111 -121 -265.5 -185t-335.5 -64q-231 0 -381 107q-105 75 -161 198.5t-56 287.5
q0 240 106 440q105 200 294 308.5t427 108.5zM929 1276q-296 0 -458 -194q-53 -64 -91 -151t-58 -182.5t-20 -185.5q0 -209 106.5 -318.5t309.5 -109.5q197 0 336 87q92 58 157 155.5t99.5 219.5t34.5 250q0 207 -108.5 318t-307.5 111z" />
    <glyph glyph-name="ohorn" unicode="&#x1a1;" horiz-adv-x="1238" 
d="M491 -20q-196 0 -310 117t-114 322q0 185 68 350q68 164 194.5 248t312.5 84q188 0 298 -89.5t130 -254.5q1 -9 1.5 -18t1.5 -19q68 37 108.5 87t53.5 114h-88l35 167h195l-22 -106q-26 -126 -91 -210t-192 -142q-6 -122 -48 -251t-116 -219q-148 -180 -417 -180z
M888 683q0 286 -248 286q-135 0 -216 -69q-54 -46 -92.5 -126.5t-59 -175t-20.5 -182.5q0 -148 64 -225.5t186 -77.5q103 0 165.5 35t109.5 108q32 49 57 121.5t39.5 153t14.5 152.5z" />
    <glyph glyph-name="uni01A2" unicode="&#x1a2;" horiz-adv-x="1778" 
d="M709 -20q-284 0 -441 157.5t-157 435.5q0 240 106 440q105 200 294 308.5t427 108.5q86 0 170.5 -19.5t166.5 -57.5l465 70h43l-359 -1847h-180l320 1645l-226 2l-224 -1151q-74 -34 -140 -54.5t-130.5 -29t-134.5 -8.5zM1159 1228q-94 48 -230 48q-296 0 -458 -194
q-53 -64 -91 -151t-58 -182.5t-20 -185.5q0 -208 105.5 -318t308.5 -110q138 0 240 46z" />
    <glyph glyph-name="uni01A3" unicode="&#x1a3;" horiz-adv-x="1367" 
d="M491 -20q-196 0 -310 117t-114 322q0 185 68 350q68 164 194.5 248t312.5 84q83 0 158 -19t142 -57l350 68h43l-295 -1518h-175l261 1343h-189l-173 -880q-115 -58 -273 -58zM769 950q-60 19 -129 19q-135 0 -216 -69q-54 -46 -92.5 -126.5t-59 -175t-20.5 -182.5
q0 -148 64 -225.5t186 -77.5q59 0 108 11z" />
    <glyph glyph-name="uni01A4" unicode="&#x1a4;" horiz-adv-x="1496" 
d="M982 1409q231 0 366 -104t135 -285q0 -146 -69 -252t-196.5 -162.5t-303.5 -56.5h-424l-106 -549h-191l244 1261h-15q-94 0 -140.5 -51t-46.5 -143q1 -13 2 -25t2 -25l-148 -17q-4 14 -6 29t-2 29q0 170 90.5 260.5t262.5 90.5h546zM520 700h387q191 0 286.5 78t95.5 233
q0 119 -79 182t-233 63h-349z" />
    <glyph glyph-name="uni01A5" unicode="&#x1a5;" horiz-adv-x="1139" 
d="M554 -20q-123 0 -200.5 52t-109.5 146h-5q-4 -30 -8.5 -60t-9.5 -60q-22 -121 -46 -241.5t-47 -241.5h-179l319 1646q25 132 104 204.5t200 72.5q70 0 125 -21l-29 -151q-48 20 -79 20q-63 0 -99.5 -48t-55.5 -145l-45 -228h2q75 95 155.5 136t194.5 41
q157 0 244.5 -94.5t87.5 -259.5q0 -204 -61 -393q-61 -190 -173 -282.5t-285 -92.5zM689 963q-191 0 -289 -162q-32 -54 -56 -129t-36.5 -152.5t-12.5 -142.5q0 -125 63.5 -194.5t176.5 -69.5q123 0 193 73q48 48 83 140.5t54.5 198t19.5 191.5q0 123 -47 185t-149 62z" />
    <glyph glyph-name="uni01A6" unicode="&#x1a6;" horiz-adv-x="1366" 
d="M974 -319l-246 750h-391l-83 -431h-191l273 1409h187l-30 -154h375q171 0 290 -68q84 -48 131 -125.5t47 -176.5q0 -188 -108 -298t-319 -139l271 -767h-206zM777 582q181 0 273 75.5t92 212.5q0 112 -74.5 172t-222.5 60h-377l-101 -520h410z" />
    <glyph glyph-name="uni01A7" unicode="&#x1a7;" horiz-adv-x="1366" 
d="M1147 1095q0 93 -78 142t-222 49q-155 0 -256 -59.5t-157 -188.5l-180 33q60 130 140.5 209t195 114.5t273.5 35.5q220 0 344.5 -86.5t124.5 -243.5q0 -84 -24 -145.5t-66 -105.5q-45 -46 -114 -83q-46 -24 -102 -42.5t-144 -37t-230 -46.5q-90 -17 -157 -40.5
t-113 -54.5q-57 -38 -83 -88t-26 -113q0 -104 89 -159.5t242 -55.5q129 0 220 33q92 33 156 98.5t117 190.5l176 -47q-95 -229 -259.5 -326.5t-420.5 -97.5q-243 0 -376.5 94.5t-133.5 269.5q0 87 27 153t73 114q47 48 111 82.5t142 59.5q29 10 74.5 21t106.5 24l86 18
q103 20 174.5 39t111.5 36q80 33 119 82t39 122z" />
    <glyph glyph-name="uni01A8" unicode="&#x1a8;" horiz-adv-x="1024" 
d="M579 962q-111 0 -172 -34.5t-92 -115.5l-150 48q39 122 146 182.5t282 60.5q178 0 274.5 -71t96.5 -200q0 -81 -36 -137.5t-114 -100.5q-81 -45 -248 -94q-173 -50 -230 -78q-55 -28 -82 -62.5t-27 -85.5q0 -153 227 -153q122 0 190 37t99 121l147 -56
q-39 -121 -149 -182t-292 -61q-195 0 -300 73.5t-105 215.5q0 89 42 153q28 43 73 77t122 66t199 66l95 27q122 41 167 75.5t45 99.5q0 63 -54 96t-154 33z" />
    <glyph glyph-name="uni01A9" unicode="&#x1a9;" horiz-adv-x="1228" 
d="M1101 156l-31 -156h-1076l33 171l651 581l-423 505l29 152h999l-30 -156h-790l384 -457l-24 -115l-589 -525h867z" />
    <glyph glyph-name="uni01AA" unicode="&#x1aa;" horiz-adv-x="682" 
d="M176 1279q0 97 67.5 155.5t174.5 58.5q108 0 164.5 -53.5t56.5 -155.5q0 -40 -12 -103l-255 -1305q-5 -32 -5 -50q0 -93 95 -93q28 0 55 3t53 10l-30 -158q-66 -13 -134 -13q-103 0 -161.5 59t-58.5 164q0 40 9 88l247 1262q-46 -29 -107 -29q-74 0 -116.5 44t-42.5 116z
M384 1415q-54 0 -90.5 -38t-36.5 -93q0 -42 23 -64t65 -22q56 0 93.5 37t37.5 91q0 42 -24 65.5t-68 23.5z" />
    <glyph glyph-name="uni01AB" unicode="&#x1ab;" horiz-adv-x="569" 
d="M130 -425q-65 0 -115 21l29 153q48 -20 79 -20q63 0 94.5 46t48.5 144l10 61q-85 0 -134 51t-49 135q0 55 15 130l126 655h-125l26 131h127l105 242h120l-47 -242h200l-26 -131h-200l-125 -645q-12 -60 -12 -95q0 -44 22.5 -66t67.5 -22q39 0 100 14l-44 -294
q-20 -134 -93.5 -201t-199.5 -67z" />
    <glyph glyph-name="uni01AC" unicode="&#x1ac;" horiz-adv-x="1251" 
d="M858 1253l-244 -1253h-190l244 1253h-202q-184 0 -184 -186q1 -13 2 -25t2 -25l-148 -17q-8 30 -8 58q0 170 90.5 260.5t262.5 90.5h889l-30 -156h-484z" />
    <glyph glyph-name="uni01AD" unicode="&#x1ad;" horiz-adv-x="569" 
d="M275 -20q-85 0 -133.5 51t-48.5 135q0 55 15 130l126 655h-125l26 131h126l28 137q26 129 101.5 204t200.5 75q70 0 125 -21l-29 -151q-48 20 -79 20q-63 0 -99 -48.5t-56 -148.5l-13 -67h200l-26 -131h-200l-125 -645q-12 -60 -12 -95q0 -44 22.5 -66t67.5 -22
q39 0 100 14l-19 -133q-99 -24 -173 -24z" />
    <glyph glyph-name="uni01AE" unicode="&#x1ae;" horiz-adv-x="1251" 
d="M184 1253l30 156h1158l-30 -156h-484l-265 -1362q-8 -43 -8 -70q0 -87 81 -87q59 0 110 16l-31 -158q-73 -17 -135 -17q-108 0 -164.5 55.5t-56.5 154.5q0 38 12 98l267 1370h-484z" />
    <glyph glyph-name="Uhorn" unicode="&#x1af;" horiz-adv-x="1625" 
d="M654 -20q-232 0 -366.5 120t-134.5 331q0 86 23 204l150 774h191l-162 -843q-17 -90 -17 -143q0 -136 87.5 -212t244.5 -76q192 0 307.5 101.5t153.5 304.5l168 868h190l-78 -403q245 46 286 236h-88l35 167h195l-21 -101q-36 -177 -138 -270t-287 -123l-74 -385
q-51 -269 -219 -409.5t-446 -140.5z" />
    <glyph glyph-name="uhorn" unicode="&#x1b0;" horiz-adv-x="1298" 
d="M748 185q-83 -115 -166.5 -159.5t-198.5 -44.5q-148 0 -222.5 73t-74.5 211q0 32 5.5 73t15.5 91l127 653h181l-126 -645q-18 -88 -18 -150q0 -167 179 -167q84 0 155.5 43.5t122.5 123.5t72 189l118 606h180l-80 -410q100 27 169 89.5t89 153.5h-88l35 167h195l-21 -101
q-27 -130 -92 -221q-51 -69 -126.5 -114t-178.5 -67q-22 -115 -40 -207t-32 -160q-13 -68 -22 -121t-13 -91h-170q0 8 5 42t12 75t11 68h-3z" />
    <glyph glyph-name="uni01B1" unicode="&#x1b1;" horiz-adv-x="1558" 
d="M720 -21q-182 0 -317 67q-136 67 -209 192.5t-73 294.5q0 272 146.5 457.5t424.5 273.5q-82 -5 -136 -8t-79 -3h-254l30 156h589l-43 -224q-241 -77 -365 -238.5t-124 -392.5q0 -198 109.5 -309.5t307.5 -111.5q153 0 274 70q122 70 189.5 199.5t67.5 305.5
q0 163 -64.5 278.5t-207.5 198.5l45 224h547l-30 -156h-203q-26 0 -85 3t-151 8q162 -90 251 -240.5t89 -335.5q0 -206 -93 -368q-93 -163 -260.5 -252t-375.5 -89z" />
    <glyph glyph-name="uni01B2" unicode="&#x1b2;" horiz-adv-x="1479" 
d="M614 -20q-135 0 -243 53q-106 53 -164 152.5t-58 236.5q0 73 17 161l160 826h191l-165 -859q-13 -62 -13 -126q0 -141 77 -215t224 -74q126 0 230 78t180 229q38 76 69.5 169t55 186.5t36 172t12.5 125.5q0 83 -32 125t-97 42q-55 0 -105 -10l23 157q68 11 131 11
q135 0 203 -81.5t68 -230.5q0 -51 -12.5 -140t-37.5 -197t-62 -217.5t-87 -201.5q-99 -183 -252.5 -277.5t-348.5 -94.5z" />
    <glyph glyph-name="uni01B3" unicode="&#x1b3;" horiz-adv-x="1469" 
d="M1670 1325l-101 -133q-34 27 -67 46.5t-76 19.5q-38 0 -67 -16.5t-65 -60.5l-509 -597l-113 -584h-190l115 584l-384 825h196l306 -674l442 532q76 90 138.5 122t141.5 32q128 0 233 -96z" />
    <glyph glyph-name="uni01B4" unicode="&#x1b4;" horiz-adv-x="1024" 
d="M9 -425q-61 0 -125 14l31 134q38 -8 82 -8q86 0 158.5 60.5t147.5 191.5l26 45l-217 1070h183l112 -597q11 -63 18.5 -110t12.5 -80.5t7.5 -57t3.5 -40.5l60 115l509 937q63 117 133 174q43 35 93 52t111 17q62 0 117.5 -23t102.5 -70l-98 -128q-56 62 -125 62
q-48 0 -91.5 -34.5t-83.5 -102.5l-673 -1196q-65 -115 -121.5 -194t-109.5 -129q-61 -56 -124.5 -79t-139.5 -23z" />
    <glyph glyph-name="uni01B5" unicode="&#x1b5;" horiz-adv-x="1251" 
d="M1214 681h-491l-496 -525h885l-30 -156h-1122l27 143l511 538h-410l26 133h510l417 439h-765l30 156h1002l-27 -139l-432 -456h391z" />
    <glyph glyph-name="uni01B6" unicode="&#x1b6;" horiz-adv-x="1024" 
d="M883 139l-27 -139h-900l27 137l344 347h-279l26 133h383l323 326h-601l27 139h824l-27 -137l-326 -328h301l-26 -133h-406l-342 -345h679z" />
    <glyph glyph-name="uni01B7" unicode="&#x1b7;" horiz-adv-x="1251" 
d="M446 -426q-205 0 -338 91.5t-180 269.5l168 59q40 -131 118 -197q46 -38 104.5 -56t130.5 -18q105 0 194.5 40.5t155.5 121.5q65 80 96 182.5t31 201.5q0 170 -111.5 259.5t-324.5 89.5h-80l27 141l596 494h-785l31 156h1018l-32 -161l-602 -490q222 -25 337.5 -152
t115.5 -338q0 -142 -45.5 -272t-134.5 -226q-90 -96 -216 -146t-274 -50z" />
    <glyph glyph-name="uni01B8" unicode="&#x1b8;" horiz-adv-x="1251" 
d="M468 -426q-148 0 -257.5 58t-170 165t-60.5 253q0 196 85 350q85 155 242 247.5t361 110.5l-417 490l32 161h1018l-31 -156h-813l416 -494l-27 -141h-57q-191 0 -330 -69t-214 -196t-75 -301q0 -155 84.5 -242t227.5 -87q280 0 452 271l140 -83q-81 -124 -170 -198
t-195 -106.5t-241 -32.5z" />
    <glyph glyph-name="uni01B9" unicode="&#x1b9;" horiz-adv-x="1024" 
d="M879 -48q-57 -190 -188 -284.5t-337 -94.5q-126 0 -221 53t-146.5 149t-51.5 216q0 144 60.5 259t174 191t271.5 100l-298 365l34 177h883l-27 -141h-711l326 -394l-28 -137h-41q-131 0 -236 -52q-106 -52 -165 -147t-59 -215q0 -128 68 -205.5t178 -77.5q132 0 216 58.5
t132 191.5z" />
    <glyph glyph-name="uni01BA" unicode="&#x1ba;" horiz-adv-x="1024" 
d="M896 -101q-145 -325 -575 -325q-56 0 -107.5 8.5t-98.5 25.5q-93 33 -145.5 96t-52.5 147q0 66 25 117t70 90q22 19 52.5 36.5t69.5 33.5q80 32 251 71q70 15 120 28.5t79 24.5q59 23 90.5 52t31.5 71q0 51 -38 77q-31 21 -91 35.5t-151 15.5l-102 2l27 139l414 298h-606
l27 140h868l-23 -119l-465 -326q155 -15 236 -76.5t81 -163.5q0 -75 -32.5 -132.5t-97.5 -97.5q-28 -17 -62 -30.5t-72 -25.5q-43 -13 -91.5 -24.5t-100.5 -23.5q-59 -14 -119 -29t-107 -39q-43 -22 -70.5 -54.5t-27.5 -82.5q0 -66 61.5 -103.5t185.5 -37.5q137 0 232 50.5
t147 150.5z" />
    <glyph glyph-name="uni01BB" unicode="&#x1bb;" horiz-adv-x="1139" 
d="M949 153l-29 -153h-932l24 127q55 93 124 168q47 50 98.5 95.5t126.5 98.5t191 125h-414l27 136h584q91 74 131 149.5t40 163.5q0 98 -62.5 158.5t-168.5 60.5q-109 0 -190 -59.5t-118 -178.5l-170 37q54 170 178 259.5t311 89.5q122 0 214 -44.5t143.5 -124t51.5 -183.5
q0 -177 -143 -328h141l-27 -136h-270l-57 -39q-66 -45 -143.5 -94.5t-129.5 -85.5q-79 -55 -146.5 -114.5t-111.5 -127.5h727z" />
    <glyph glyph-name="uni01BC" unicode="&#x1bc;" horiz-adv-x="1045" 
d="M249 1409h842l-30 -156h-486l-59 -303h48q208 0 322 -103.5t114 -288.5q0 -161 -71 -298q-72 -137 -202.5 -208.5t-311.5 -71.5q-130 0 -222 45q-190 91 -198 320l181 21q9 -126 73 -184.5t177 -58.5q114 0 199 54q86 53 135.5 154.5t49.5 215.5q0 121 -77 184.5
t-222 63.5h-209l89 458h-172z" />
    <glyph glyph-name="uni01BD" unicode="&#x1bd;" horiz-adv-x="897" 
d="M364 113q121 0 194.5 64.5t73.5 179.5q0 100 -66 146.5t-196 46.5h-157l76 392h-172l27 140h780l-27 -140h-446l-49 -254h44q174 0 273 -81t99 -225q0 -158 -88 -261q-58 -67 -151.5 -104t-218.5 -37q-182 0 -276 85t-94 246l170 12q2 -96 58 -153t146 -57z" />
    <glyph glyph-name="uni01BE" unicode="&#x1be;" horiz-adv-x="1024" 
d="M899 335q0 -114 -53.5 -193.5t-158 -120.5t-258.5 -41q-199 0 -296.5 67t-110.5 207l161 30q12 -89 72.5 -128t180.5 -39q140 0 212 53.5t72 150.5q0 49 -32.5 79.5t-110.5 55.5q-183 56 -235 90q-53 33 -80.5 81.5t-27.5 117.5q0 8 0.5 17t1.5 17t8.5 51t22.5 121h-131
l26 131h132l67 347l194 78l-82 -425h185l-26 -131h-185l-21 -107q-10 -44 -10 -83q0 -51 35.5 -79.5t124.5 -52.5q68 -19 116.5 -37t79.5 -37q61 -37 94 -90.5t33 -129.5z" />
    <glyph glyph-name="uni01BF" unicode="&#x1bf;" horiz-adv-x="1139" 
d="M128 -425h-179l293 1508h166q-5 -42 -9.5 -85.5t-13.5 -88.5h4q63 97 156.5 145t205.5 48q160 0 245 -86t85 -253q0 -430 -452 -703q-103 -62 -217.5 -105.5t-225.5 -80.5zM889 749q0 214 -203 214q-143 0 -237 -106t-132 -311l-102 -525q255 90 393 195q137 105 209 244
t72 289z" />
    <glyph glyph-name="uni01C0" unicode="&#x1c0;" horiz-adv-x="532" 
d="M543 1484l-289 -1484h-179l288 1484h180z" />
    <glyph glyph-name="uni01C1" unicode="&#x1c1;" horiz-adv-x="846" 
d="M529 1484l-289 -1484h-165l289 1484h165zM852 1484l-289 -1484h-165l289 1484h165z" />
    <glyph glyph-name="uni01C2" unicode="&#x1c2;" horiz-adv-x="1196" 
d="M654 416l-81 -416h-174l81 416h-396l30 153h396l60 308h-396l29 153h396l89 454h174l-89 -454h398l-29 -153h-398l-60 -308h398l-30 -153h-398z" />
    <glyph glyph-name="uni01C3" unicode="&#x1c3;" horiz-adv-x="569" 
d="M549 1409l-220 -1012h-148l172 1012h196zM311 201l-40 -201h-194l40 201h194z" />
    <glyph glyph-name="uni01C4" unicode="&#x1c4;" horiz-adv-x="2730" 
d="M744 1409q208 0 358 -74.5t230.5 -212.5t80.5 -331q0 -237 -103 -413q-103 -177 -296.5 -277.5t-438.5 -100.5h-512l273 1409h408zM283 153h284q196 0 344 78q149 77 228.5 222.5t79.5 339.5q0 219 -126 341t-353 122h-242zM2591 156l-30 -156h-1122l27 143l1054 1110
h-765l30 156h1002l-27 -139l-1054 -1114h885zM2649 1769l-271 -239h-204l-187 239l4 21h93l205 -139h2l246 139h116z" />
    <glyph glyph-name="uni01C5" unicode="&#x1c5;" horiz-adv-x="2503" 
d="M744 1409q208 0 358 -74.5t230.5 -212.5t80.5 -331q0 -237 -103 -413q-103 -177 -296.5 -277.5t-438.5 -100.5h-512l273 1409h408zM283 153h284q196 0 344 78q149 77 228.5 222.5t79.5 339.5q0 219 -126 341t-353 122h-242zM2330 139l-25 -139h-838l23 137l742 806h-566
l25 139h784l-24 -137l-742 -806h621zM2489 1471l-277 -270h-204l-181 270l4 20h97l199 -169h2l252 169h112z" />
    <glyph glyph-name="uni01C6" unicode="&#x1c6;" horiz-adv-x="2163" 
d="M401 -21q-157 0 -244.5 94.5t-87.5 259.5q0 202 62 394q62 191 173 282.5t284 91.5q123 0 200.5 -52t109.5 -146h5q7 41 14 81.5t14 80.5l82 419h180l-245 -1261q-14 -70 -23.5 -126t-14.5 -97h-172q0 51 21 160h-5q-73 -95 -154 -138t-199 -43zM453 118q192 0 289 163
q33 54 56.5 128.5t36 152.5t12.5 142q0 125 -63.5 194.5t-176.5 69.5q-122 0 -193 -72q-47 -48 -82.5 -141t-55 -198.5t-19.5 -191.5q0 -123 47 -185t149 -62zM1990 139l-25 -139h-838l23 137l742 806h-566l25 139h784l-24 -137l-742 -806h621zM2149 1471l-277 -270h-204
l-181 270l4 20h97l199 -169h2l252 169h112z" />
    <glyph glyph-name="uni01C7" unicode="&#x1c7;" horiz-adv-x="2163" 
d="M996 156l-30 -156h-903l273 1409h191l-243 -1253h712zM1520 -20q-159 0 -259.5 93t-126.5 270l168 33q23 -117 79 -179t156 -62q65 0 113 26q56 31 93.5 99.5t58.5 179.5l157 813h-291l30 156h481l-193 -986q-43 -224 -157 -333.5t-309 -109.5z" />
    <glyph glyph-name="uni01C8" unicode="&#x1c8;" horiz-adv-x="1594" 
d="M996 156l-30 -156h-903l273 1409h191l-243 -1253h712zM1641 1484l-33 -172h-180l33 172h180zM1039 -425q-53 0 -129 14l23 136q26 -4 46.5 -6t36.5 -2q59 0 89 42t47 134l231 1189h180l-237 -1216q-31 -158 -101 -224.5t-186 -66.5z" />
    <glyph glyph-name="uni01C9" unicode="&#x1c9;" horiz-adv-x="910" 
d="M501 1484l-289 -1484h-179l288 1484h180zM957 1484l-33 -172h-180l33 172h180zM355 -425q-53 0 -129 14l23 136q26 -4 46.5 -6t36.5 -2q59 0 89 42t47 134l231 1189h180l-237 -1216q-31 -158 -101 -224.5t-186 -66.5z" />
    <glyph glyph-name="uni01CA" unicode="&#x1ca;" horiz-adv-x="2503" 
d="M414 943l-181 -943h-170l273 1409h212l534 -1215q13 95 24 166t21 118l181 931h172l-273 -1409h-220l-531 1210q-11 -85 -21.5 -152t-20.5 -115zM1860 -20q-159 0 -259.5 93t-126.5 270l168 33q23 -117 79 -179t156 -62q65 0 113 26q56 31 93.5 99.5t58.5 179.5l157 813
h-291l30 156h481l-193 -986q-43 -224 -157 -333.5t-309 -109.5z" />
    <glyph glyph-name="uni01CB" unicode="&#x1cb;" horiz-adv-x="1934" 
d="M414 943l-181 -943h-170l273 1409h212l534 -1215q13 95 24 166t21 118l181 931h172l-273 -1409h-220l-531 1210q-11 -85 -21.5 -152t-20.5 -115zM1981 1484l-33 -172h-180l33 172h180zM1379 -425q-53 0 -129 14l23 136q26 -4 46.5 -6t36.5 -2q59 0 89 42t47 134l231 1189
h180l-237 -1216q-31 -158 -101 -224.5t-186 -66.5z" />
    <glyph glyph-name="uni01CC" unicode="&#x1cc;" horiz-adv-x="1594" 
d="M332 606l-118 -606h-180l166 851q10 47 19.5 105t19.5 126h170q0 -7 -5 -41.5t-11.5 -75t-11.5 -68.5h3q83 115 166.5 159.5t198.5 44.5q148 0 222.5 -73t74.5 -211q0 -32 -5 -73t-16 -91l-127 -653h-181l126 645q18 89 18 150q0 167 -179 167q-84 0 -155.5 -43.5
t-122 -123t-72.5 -189.5zM1641 1484l-33 -172h-180l33 172h180zM1039 -425q-53 0 -129 14l23 136q26 -4 46.5 -6t36.5 -2q59 0 89 42t47 134l231 1189h180l-237 -1216q-31 -158 -101 -224.5t-186 -66.5z" />
    <glyph glyph-name="uni01CD" unicode="&#x1cd;" horiz-adv-x="1366" 
d="M347 412l-240 -412h-208l848 1409h217l292 -1409h-195l-75 412h-639zM830 1265q-7 -13 -16 -30t-21 -39l-362 -635h527l-102 553q-7 38 -13 76t-13 75zM1225 1769l-271 -239h-204l-187 239l4 21h93l205 -139h2l246 139h116z" />
    <glyph glyph-name="uni01CE" unicode="&#x1ce;" horiz-adv-x="1139" 
d="M927 -10q-93 0 -135.5 38.5t-42.5 114.5q0 16 2 32t3 32h-6q-83 -126 -172 -176.5t-215 -50.5q-140 0 -227.5 84t-87.5 214q0 185 132.5 280t422.5 99l232 3q19 95 19 127q0 91 -53 134.5t-147 43.5q-119 0 -180 -42.5t-88 -129.5l-178 29q45 147 156.5 213.5t299.5 66.5
q171 0 270.5 -80t99.5 -215q0 -66 -19 -157l-74 -378q-11 -50 -11 -88q0 -37 20.5 -55t60.5 -18q29 0 60 7l-14 -112q-33 -8 -65 -12t-63 -4zM237 286q0 -75 48.5 -122t125.5 -47q97 0 175 42q78 41 129 108t67 144l27 125l-199 -4q-119 -3 -186.5 -21t-105.5 -47
q-37 -28 -59 -72t-22 -106zM1056 1471l-277 -270h-204l-181 270l4 20h97l199 -169h2l252 169h112z" />
    <glyph glyph-name="uni01CF" unicode="&#x1cf;" horiz-adv-x="569" 
d="M546 1409l-274 -1409h-191l274 1409h191zM842 1769l-271 -239h-204l-187 239l4 21h93l205 -139h2l246 139h116z" />
    <glyph glyph-name="uni01D0" unicode="&#x1d0;" horiz-adv-x="455" 
d="M424 1082l-211 -1082h-179l210 1082h180zM730 1471l-277 -270h-204l-181 270l4 20h97l199 -169h2l252 169h112z" />
    <glyph glyph-name="uni01D1" unicode="&#x1d1;" horiz-adv-x="1593" 
d="M938 1430q185 0 319 -71t206.5 -201t72.5 -307q-4 -266 -112 -463q-107 -196 -293 -302t-422 -106q-201 0 -340 81q-125 71 -191.5 202t-66.5 310q0 240 106 440q105 200 294 308.5t427 108.5zM929 1276q-199 0 -339 -89q-93 -59 -157 -160t-97.5 -222t-33.5 -242
q0 -209 106.5 -318.5t309.5 -109.5q197 0 336 87q92 58 157 155.5t99.5 219.5t34.5 250q0 207 -108.5 318t-307.5 111zM1324 1769l-271 -239h-204l-187 239l4 21h93l205 -139h2l246 139h116z" />
    <glyph glyph-name="uni01D2" unicode="&#x1d2;" horiz-adv-x="1139" 
d="M1074 683q0 -130 -40 -270t-114 -238q-75 -97 -183 -146t-246 -49q-196 0 -310 118t-114 321q5 207 74 362q70 158 194 239t307 81q210 0 321 -109.5t111 -308.5zM888 683q0 286 -248 286q-135 0 -216 -69q-54 -46 -92.5 -126.5t-59 -175t-20.5 -182.5q0 -148 64 -225.5
t186 -77.5q103 0 165.5 35t109.5 108q47 74 76.5 187.5t34.5 239.5zM1048 1471l-277 -270h-204l-181 270l4 20h97l199 -169h2l252 169h112z" />
    <glyph glyph-name="uni01D3" unicode="&#x1d3;" horiz-adv-x="1479" 
d="M654 -20q-233 0 -367 120.5t-134 330.5q0 44 7.5 105.5t15.5 98.5l150 774h191l-162 -843q-17 -90 -17 -143q0 -136 87.5 -212t244.5 -76q192 0 307.5 101.5t153.5 304.5l168 868h190l-170 -879q-54 -273 -222 -411.5t-443 -138.5zM1272 1769l-271 -239h-204l-187 239
l4 21h93l205 -139h2l246 139h116z" />
    <glyph glyph-name="uni01D4" unicode="&#x1d4;" horiz-adv-x="1139" 
d="M748 185q-83 -115 -166.5 -159.5t-198.5 -44.5q-148 0 -222.5 73t-74.5 211q0 22 2.5 47t7 54.5t11.5 62.5l127 653h181l-126 -645q-18 -88 -18 -150q0 -167 179 -167q84 0 155.5 43.5t122.5 123.5t72 189l118 606h180l-166 -851q-10 -47 -19.5 -105t-19.5 -126h-170
q0 8 5 42t12 75t11 68h-3zM1063 1471l-277 -270h-204l-181 270l4 20h97l199 -169h2l252 169h112z" />
    <glyph glyph-name="uni01D5" unicode="&#x1d5;" horiz-adv-x="1479" 
d="M654 -20q-233 0 -367 120.5t-134 330.5q0 44 7.5 105.5t15.5 98.5l150 774h191l-162 -843q-17 -90 -17 -143q0 -136 87.5 -212t244.5 -76q192 0 307.5 101.5t153.5 304.5l168 868h190l-170 -879q-54 -273 -222 -411.5t-443 -138.5zM1258 1835l-25 -127h-548l25 127h548z
M1245 1642l-36 -184h-163l36 184h163zM812 1642l-36 -184h-163l36 184h163z" />
    <glyph glyph-name="uni01D6" unicode="&#x1d6;" horiz-adv-x="1139" 
d="M748 185q-83 -115 -166.5 -159.5t-198.5 -44.5q-148 0 -222.5 73t-74.5 211q0 22 2.5 47t7 54.5t11.5 62.5l127 653h181l-126 -645q-18 -88 -18 -150q0 -167 179 -167q84 0 155.5 43.5t122.5 123.5t72 189l118 606h180l-166 -851q-10 -47 -19.5 -105t-19.5 -126h-170
q0 8 5 42t12 75t11 68h-3zM1004 1403l-35 -184h-173l35 184h173zM622 1403l-35 -184h-175l35 184h175zM1050 1643l-26 -127h-550l26 127h550z" />
    <glyph glyph-name="uni01D7" unicode="&#x1d7;" horiz-adv-x="1479" 
d="M654 -20q-233 0 -367 120.5t-134 330.5q0 44 7.5 105.5t15.5 98.5l150 774h191l-162 -843q-17 -90 -17 -143q0 -136 87.5 -212t244.5 -76q192 0 307.5 101.5t153.5 304.5l168 868h190l-170 -879q-54 -273 -222 -411.5t-443 -138.5zM1265 1823l-294 -171h-129l1 10
l198 173h226zM1239 1632l-36 -184h-163l36 184h163zM806 1632l-36 -184h-163l36 184h163z" />
    <glyph glyph-name="uni01D8" unicode="&#x1d8;" horiz-adv-x="1139" 
d="M748 185q-83 -115 -166.5 -159.5t-198.5 -44.5q-148 0 -222.5 73t-74.5 211q0 22 2.5 47t7 54.5t11.5 62.5l127 653h181l-126 -645q-18 -88 -18 -150q0 -167 179 -167q84 0 155.5 43.5t122.5 123.5t72 189l118 606h180l-166 -851q-10 -47 -19.5 -105t-19.5 -126h-170
q0 8 5 42t12 75t11 68h-3zM993 1403l-35 -184h-173l35 184h173zM611 1403l-35 -184h-175l35 184h175zM1094 1718l-352 -217h-114l3 20l261 226h207z" />
    <glyph glyph-name="uni01D9" unicode="&#x1d9;" horiz-adv-x="1479" 
d="M654 -20q-233 0 -367 120.5t-134 330.5q0 44 7.5 105.5t15.5 98.5l150 774h191l-162 -843q-17 -90 -17 -143q0 -136 87.5 -212t244.5 -76q192 0 307.5 101.5t153.5 304.5l168 868h190l-170 -879q-54 -273 -222 -411.5t-443 -138.5zM1279 1825l-241 -173h-194l-176 171
l2 12h155l131 -97l170 97h155zM1234 1632l-36 -184h-163l36 184h163zM801 1632l-36 -184h-163l36 184h163z" />
    <glyph glyph-name="uni01DA" unicode="&#x1da;" horiz-adv-x="1139" 
d="M748 185q-83 -115 -166.5 -159.5t-198.5 -44.5q-148 0 -222.5 73t-74.5 211q0 22 2.5 47t7 54.5t11.5 62.5l127 653h181l-126 -645q-18 -88 -18 -150q0 -167 179 -167q84 0 155.5 43.5t122.5 123.5t72 189l118 606h180l-166 -851q-10 -47 -19.5 -105t-19.5 -126h-170
q0 8 5 42t12 75t11 68h-3zM1009 1403l-35 -184h-173l35 184h173zM627 1403l-35 -184h-175l35 184h175zM1116 1740l-271 -239h-204l-187 239l4 21h93l205 -139h2l246 139h116z" />
    <glyph glyph-name="uni01DB" unicode="&#x1db;" horiz-adv-x="1479" 
d="M654 -20q-233 0 -367 120.5t-134 330.5q0 44 7.5 105.5t15.5 98.5l150 774h191l-162 -843q-17 -90 -17 -143q0 -136 87.5 -212t244.5 -76q192 0 307.5 101.5t153.5 304.5l168 868h190l-170 -879q-54 -273 -222 -411.5t-443 -138.5zM1058 1662l-1 -10h-129l-228 171l2 12
h226zM815 1632l-36 -184h-163l36 184h163zM1248 1632l-36 -184h-163l36 184h163z" />
    <glyph glyph-name="uni01DC" unicode="&#x1dc;" horiz-adv-x="1139" 
d="M748 185q-83 -115 -166.5 -159.5t-198.5 -44.5q-148 0 -222.5 73t-74.5 211q0 22 2.5 47t7 54.5t11.5 62.5l127 653h181l-126 -645q-18 -88 -18 -150q0 -167 179 -167q84 0 155.5 43.5t122.5 123.5t72 189l118 606h180l-166 -851q-10 -47 -19.5 -105t-19.5 -126h-170
q0 8 5 42t12 75t11 68h-3zM990 1403l-35 -184h-173l35 184h173zM608 1403l-35 -184h-175l35 184h175zM812 1521l-3 -20h-89l-293 217l5 29h207z" />
    <glyph glyph-name="uni01DD" unicode="&#x1dd;" horiz-adv-x="1139" 
d="M872 579q9 56 9 113q0 133 -66.5 204t-200.5 71q-97 0 -176 -48t-123 -131l-138 63q73 131 185.5 191t272.5 60q201 0 312.5 -111.5t111.5 -313.5q0 -200 -71 -360t-200 -248.5t-290 -88.5q-205 0 -319 103t-114 291q0 105 24 205h783zM244 369q0 -124 64.5 -190
t185.5 -66q134 0 225.5 85.5t128.5 242.5h-600z" />
    <glyph glyph-name="uni01DE" unicode="&#x1de;" horiz-adv-x="1366" 
d="M347 412l-240 -412h-208l848 1409h217l292 -1409h-195l-75 412h-639zM830 1265q-7 -13 -16 -30t-21 -39l-362 -635h527l-102 553q-7 38 -13 76t-13 75zM1207 1857l-25 -127h-548l25 127h548zM1194 1664l-36 -184h-163l36 184h163zM761 1664l-36 -184h-163l36 184h163z
" />
    <glyph glyph-name="uni01DF" unicode="&#x1df;" horiz-adv-x="1139" 
d="M927 -10q-93 0 -135.5 38.5t-42.5 114.5q0 16 2 32t3 32h-6q-83 -126 -172 -176.5t-215 -50.5q-140 0 -227.5 84t-87.5 214q0 185 132.5 280t422.5 99l232 3q19 95 19 127q0 91 -53 134.5t-147 43.5q-119 0 -180 -42.5t-88 -129.5l-178 29q45 147 156.5 213.5t299.5 66.5
q171 0 270.5 -80t99.5 -215q0 -66 -19 -157l-74 -378q-11 -50 -11 -88q0 -37 20.5 -55t60.5 -18q29 0 60 7l-14 -112q-33 -8 -65 -12t-63 -4zM237 286q0 -75 48.5 -122t125.5 -47q97 0 175 42q78 41 129 108t67 144l27 125l-199 -4q-119 -3 -186.5 -21t-105.5 -47
q-37 -28 -59 -72t-22 -106zM1008 1403l-35 -184h-173l35 184h173zM626 1403l-35 -184h-175l35 184h175zM1055 1643l-26 -127h-550l26 127h550z" />
    <glyph glyph-name="uni01E0" unicode="&#x1e0;" horiz-adv-x="1366" 
d="M347 412l-240 -412h-208l848 1409h217l292 -1409h-195l-75 412h-639zM830 1265q-7 -13 -16 -30t-21 -39l-362 -635h527l-102 553q-7 38 -13 76t-13 75zM1210 1835l-25 -127h-548l25 127h548zM976 1652l-36 -184h-162l36 184h162z" />
    <glyph glyph-name="uni01E1" unicode="&#x1e1;" horiz-adv-x="1139" 
d="M927 -10q-93 0 -135.5 38.5t-42.5 114.5q0 16 2 32t3 32h-6q-83 -126 -172 -176.5t-215 -50.5q-140 0 -227.5 84t-87.5 214q0 185 132.5 280t422.5 99l232 3q19 95 19 127q0 91 -53 134.5t-147 43.5q-119 0 -180 -42.5t-88 -129.5l-178 29q45 147 156.5 213.5t299.5 66.5
q171 0 270.5 -80t99.5 -215q0 -66 -19 -157l-74 -378q-11 -50 -11 -88q0 -37 20.5 -55t60.5 -18q29 0 60 7l-14 -112q-33 -8 -65 -12t-63 -4zM237 286q0 -75 48.5 -122t125.5 -47q97 0 175 42q78 41 129 108t67 144l27 125l-199 -4q-119 -3 -186.5 -21t-105.5 -47
q-37 -28 -59 -72t-22 -106zM801 1404l-34 -172h-180l34 172h180zM1034 1643l-26 -127h-550l26 127h550z" />
    <glyph glyph-name="uni01E2" unicode="&#x1e2;" horiz-adv-x="2048" 
d="M401 412l-279 -412h-203l959 1409h1189l-30 -156h-739l-88 -452h679l-30 -154h-679l-95 -491h780l-31 -156h-971l81 412h-543zM500 561h473l136 701h-151l-136 -216zM1769 1699l-26 -127h-550l26 127h550z" />
    <glyph glyph-name="uni01E3" unicode="&#x1e3;" horiz-adv-x="1821" 
d="M989 503q-6 -34 -9 -113q0 -133 61.5 -204t182.5 -71q87 0 157.5 45.5t114.5 133.5l138 -63q-71 -132 -177 -191.5t-255 -59.5q-151 0 -246 70t-130 198q-90 -128 -202 -195q-63 -37 -132 -55t-145 -18q-95 0 -166 38q-72 38 -110.5 106.5t-38.5 153.5q0 185 135.5 279.5
t433.5 99.5l238 3q19 95 19 127q0 178 -208 178q-124 0 -187.5 -42t-92.5 -130l-178 29q47 147 162.5 213.5t310.5 66.5q221 0 325 -158q125 158 345 158q195 0 303 -104t108 -290q0 -48 -7.5 -109.5t-15.5 -95.5h-734zM1013 641h550l4 72q0 124 -59 190t-170 66
q-123 0 -207 -85t-118 -243zM223 286q0 -77 46.5 -123t124.5 -46q102 0 187 45q86 44 143 120.5t73 162.5l17 89l-206 -4q-149 -5 -227 -31q-158 -53 -158 -213zM1346 1363l-26 -127h-550l26 127h550z" />
    <glyph glyph-name="uni01E4" unicode="&#x1e4;" horiz-adv-x="1593" 
d="M1454 438h130l-25 -130h-131l-19 -98q-140 -120 -298.5 -175t-349.5 -55q-305 0 -473 156t-168 437q0 250 105 446q105 197 297.5 304t440.5 107q222 0 364.5 -84t196.5 -248l-193 -54q-37 115 -134 172.5t-246 57.5q-191 0 -336 -86t-222 -244.5t-77 -366.5
q0 -211 118 -326.5t333 -115.5q141 0 269.5 41t213.5 115l4 17h-419l25 130h419l26 130h-421l32 160h597z" />
    <glyph glyph-name="uni01E5" unicode="&#x1e5;" horiz-adv-x="1139" 
d="M879 -93q-56 -171 -174 -251.5t-308 -80.5q-168 0 -265.5 59.5t-124.5 177.5l165 37q35 -137 229 -137q115 0 186.5 46.5t110.5 148.5h-757l18 93h766q14 68 27.5 136t26.5 135h-2q-74 -110 -156 -159q-44 -26 -92.5 -38t-104.5 -12q-155 0 -251 95t-96 249
q0 84 17 177.5t48.5 180t74.5 149.5q65 95 157 141.5t214 46.5q119 0 201.5 -55t110.5 -149h2q5 25 15 66.5t20 77t13 41.5h171l-7 -30q-11 -44 -21.5 -92.5t-20.5 -101.5l-167 -858h66l-18 -93h-74zM266 422q0 -111 56 -169t158 -58q104 0 189 69q86 68 132 188.5t46 251.5
q0 125 -64 194.5t-176 69.5q-118 0 -188 -67q-47 -45 -81.5 -128.5t-53 -177.5t-18.5 -173z" />
    <glyph glyph-name="uni01E6" unicode="&#x1e6;" horiz-adv-x="1593" 
d="M742 -20q-305 0 -473 156t-168 437q0 250 105 446q105 197 297.5 304t440.5 107q222 0 364 -84t197 -248l-193 -54q-37 115 -134 172.5t-246 57.5q-191 0 -336 -86t-222 -244.5t-77 -366.5q0 -211 118 -326.5t333 -115.5q138 0 264 39.5t219 116.5l51 254h-421l32 160
h597l-100 -495q-140 -120 -298.5 -175t-349.5 -55zM1315 1769l-271 -239h-204l-187 239l4 21h93l205 -139h2l246 139h116z" />
    <glyph glyph-name="uni01E7" unicode="&#x1e7;" horiz-adv-x="1139" 
d="M397 -425q-169 0 -267.5 63t-125.5 189l163 42q34 -157 234 -157q142 0 220 73.5t110 241.5q8 44 17 87.5t17 86.5h-2q-61 -88 -109 -128q-48 -39 -107.5 -60t-136.5 -21q-153 0 -246.5 100.5t-93.5 266.5q0 89 17 189t48.5 193t74.5 161q65 102 158 150.5t220 48.5
q121 0 204.5 -57t107.5 -147h2q5 25 15 66.5t20 77t13 41.5h171l-19 -82l-30 -142l-161 -827q-48 -242 -172 -349t-342 -107zM259 373q0 -248 207 -248q108 0 196 79q88 78 136.5 215t48.5 285q0 125 -64 194.5t-176 69.5q-90 0 -150 -37t-101 -116q-27 -52 -49 -130.5
t-35 -161.5t-13 -150zM1004 1471l-277 -270h-204l-181 270l4 20h97l199 -169h2l252 169h112z" />
    <glyph glyph-name="uni01E8" unicode="&#x1e8;" horiz-adv-x="1366" 
d="M360 545l-106 -545h-191l273 1409h191l-136 -691l140 129l665 562h245l-750 -630l557 -779h-226l-472 674zM1225 1769l-271 -239h-204l-187 239l4 21h93l205 -139h2l246 139h116z" />
    <glyph glyph-name="uni01E9" unicode="&#x1e9;" horiz-adv-x="1024" 
d="M285 378l-72 -378h-179l288 1484h180l-179 -917l204 190l361 325h222l-530 -465l336 -617h-195l-268 502zM993 1789l-271 -239h-204l-187 239l4 21h93l205 -139h2l246 139h116z" />
    <glyph glyph-name="uni01EA" unicode="&#x1ea;" horiz-adv-x="1593" 
d="M938 1430q185 0 319 -71t206.5 -201t72.5 -307q-4 -266 -112 -463q-107 -196 -293 -302t-422 -106q-201 0 -340 81q-125 71 -191.5 202t-66.5 310q0 240 106 440q105 200 294 308.5t427 108.5zM929 1276q-199 0 -339 -89q-93 -59 -157 -160t-97.5 -222t-33.5 -242
q0 -209 106.5 -318.5t309.5 -109.5q197 0 336 87q92 58 157 155.5t99.5 219.5t34.5 250q0 207 -108.5 318t-307.5 111zM737 -427q-88 0 -133 47t-45 121q0 83 57 153.5t148 105.5h133q-93 -48 -143 -110.5t-50 -125.5q0 -34 20 -57.5t58 -23.5q55 0 114 22l-15 -105
q-67 -27 -144 -27z" />
    <glyph glyph-name="uni01EB" unicode="&#x1eb;" horiz-adv-x="1139" 
d="M1074 683q0 -130 -40 -270t-114 -238q-75 -97 -183 -146t-246 -49q-196 0 -310 118t-114 321q5 207 74 362q70 158 194 239t307 81q210 0 321 -109.5t111 -308.5zM888 683q0 286 -248 286q-135 0 -216 -69q-54 -46 -92.5 -126.5t-59 -175t-20.5 -182.5q0 -148 64 -225.5
t186 -77.5q103 0 165.5 35t109.5 108q47 74 76.5 187.5t34.5 239.5zM490 -427q-88 0 -133 47t-45 121q0 83 57 153.5t148 105.5h133q-93 -48 -143 -110.5t-50 -125.5q0 -34 20 -57.5t58 -23.5q55 0 114 22l-15 -105q-67 -27 -144 -27z" />
    <glyph glyph-name="uni01EC" unicode="&#x1ec;" horiz-adv-x="1593" 
d="M938 1430q185 0 319 -71t206.5 -201t72.5 -307q-4 -266 -112 -463q-107 -196 -293 -302t-422 -106q-201 0 -340 81q-125 71 -191.5 202t-66.5 310q0 240 106 440q105 200 294 308.5t427 108.5zM929 1276q-199 0 -339 -89q-93 -59 -157 -160t-97.5 -222t-33.5 -242
q0 -209 106.5 -318.5t309.5 -109.5q197 0 336 87q92 58 157 155.5t99.5 219.5t34.5 250q0 207 -108.5 318t-307.5 111zM726 -427q-88 0 -133 47t-45 121q0 83 57 153.5t148 105.5h133q-93 -48 -143 -110.5t-50 -125.5q0 -34 20 -57.5t58 -23.5q55 0 114 22l-15 -105
q-67 -27 -144 -27zM1289 1714l-26 -127h-550l26 127h550z" />
    <glyph glyph-name="uni01ED" unicode="&#x1ed;" horiz-adv-x="1139" 
d="M1074 683q0 -130 -40 -270t-114 -238q-75 -97 -183 -146t-246 -49q-196 0 -310 118t-114 321q5 207 74 362q70 158 194 239t307 81q210 0 321 -109.5t111 -308.5zM888 683q0 286 -248 286q-135 0 -216 -69q-54 -46 -92.5 -126.5t-59 -175t-20.5 -182.5q0 -148 64 -225.5
t186 -77.5q103 0 165.5 35t109.5 108q47 74 76.5 187.5t34.5 239.5zM494 -426q-88 0 -133 47t-45 121q0 83 57 153.5t148 105.5h133q-93 -48 -143 -110.5t-50 -125.5q0 -34 20 -57.5t58 -23.5q55 0 114 22l-15 -105q-67 -27 -144 -27zM1012 1363l-26 -127h-550l26 127h550z
" />
    <glyph glyph-name="uni01EE" unicode="&#x1ee;" horiz-adv-x="1251" 
d="M446 -426q-205 0 -338 91.5t-180 269.5l168 59q40 -131 118 -197q46 -38 104.5 -56t130.5 -18q105 0 194.5 40.5t155.5 121.5q65 80 96 182.5t31 201.5q0 170 -111.5 259.5t-324.5 89.5h-80l27 141l596 494h-785l31 156h1018l-32 -161l-602 -490q222 -25 337.5 -152
t115.5 -338q0 -142 -45.5 -272t-134.5 -226q-90 -96 -216 -146t-274 -50zM1128 1769l-271 -239h-204l-187 239l4 21h93l205 -139h2l246 139h116z" />
    <glyph glyph-name="uni01EF" unicode="&#x1ef;" horiz-adv-x="1024" 
d="M807 -140q-69 -136 -198 -210.5t-300 -74.5q-186 0 -291.5 76t-121.5 226l172 21q30 -182 248 -182q111 0 199 59q86 59 133.5 164.5t47.5 208.5q0 95 -50 162q-37 49 -97.5 75t-140.5 26h-82l28 144l460 386h-636l27 141h824l-34 -178l-443 -364q149 -21 236.5 -127.5
t87.5 -265.5q0 -152 -69 -287zM998 1471l-277 -270h-204l-181 270l4 20h97l199 -169h2l252 169h112z" />
    <glyph glyph-name="uni01F0" unicode="&#x1f0;" horiz-adv-x="455" 
d="M-100 -425q-53 0 -129 14l23 136q26 -4 46.5 -6t36.5 -2q59 0 88.5 42t47.5 134l231 1189h180l-237 -1216q-31 -158 -101 -224.5t-186 -66.5zM727 1471l-277 -270h-204l-181 270l4 20h97l199 -169h2l252 169h112z" />
    <glyph glyph-name="uni01F1" unicode="&#x1f1;" horiz-adv-x="2730" 
d="M744 1409q208 0 358 -74.5t230.5 -212.5t80.5 -331q0 -237 -103 -413q-103 -177 -296.5 -277.5t-438.5 -100.5h-512l273 1409h408zM283 153h284q196 0 344 78q149 77 228.5 222.5t79.5 339.5q0 219 -126 341t-353 122h-242zM2591 156l-30 -156h-1122l27 143l1054 1110
h-765l30 156h1002l-27 -139l-1054 -1114h885z" />
    <glyph glyph-name="uni01F2" unicode="&#x1f2;" horiz-adv-x="2503" 
d="M744 1409q208 0 358 -74.5t230.5 -212.5t80.5 -331q0 -237 -103 -413q-103 -177 -296.5 -277.5t-438.5 -100.5h-512l273 1409h408zM283 153h284q196 0 344 78q149 77 228.5 222.5t79.5 339.5q0 219 -126 341t-353 122h-242zM2330 139l-25 -139h-838l23 137l742 806h-566
l25 139h784l-24 -137l-742 -806h621z" />
    <glyph glyph-name="uni01F3" unicode="&#x1f3;" horiz-adv-x="2163" 
d="M401 -21q-157 0 -244.5 94.5t-87.5 259.5q0 202 62 394q62 191 173 282.5t284 91.5q123 0 200.5 -52t109.5 -146h5q7 41 14 81.5t14 80.5l82 419h180l-245 -1261q-14 -70 -23.5 -126t-14.5 -97h-172q0 51 21 160h-5q-73 -95 -154 -138t-199 -43zM453 118q192 0 289 163
q33 54 56.5 128.5t36 152.5t12.5 142q0 125 -63.5 194.5t-176.5 69.5q-122 0 -193 -72q-47 -48 -82.5 -141t-55 -198.5t-19.5 -191.5q0 -123 47 -185t149 -62zM1990 139l-25 -139h-838l23 137l742 806h-566l25 139h784l-24 -137l-742 -806h621z" />
    <glyph glyph-name="uni01F4" unicode="&#x1f4;" horiz-adv-x="1593" 
d="M742 -20q-305 0 -473 156t-168 437q0 250 105 446q105 197 297.5 304t440.5 107q222 0 364 -84t197 -248l-193 -54q-37 115 -134 172.5t-246 57.5q-191 0 -336 -86t-222 -244.5t-77 -366.5q0 -211 118 -326.5t333 -115.5q138 0 264 39.5t219 116.5l51 254h-421l32 160
h597l-100 -495q-140 -120 -298.5 -175t-349.5 -55zM1336 1747l-352 -217h-114l3 20l261 226h207z" />
    <glyph glyph-name="uni01F5" unicode="&#x1f5;" horiz-adv-x="1139" 
d="M397 -425q-169 0 -267.5 63t-125.5 189l163 42q34 -157 234 -157q142 0 220 73.5t110 241.5q8 44 17 87.5t17 86.5h-2q-61 -88 -109 -128q-48 -39 -107.5 -60t-136.5 -21q-153 0 -246.5 100.5t-93.5 266.5q0 89 17 189t48.5 193t74.5 161q65 102 158 150.5t220 48.5
q121 0 204.5 -57t107.5 -147h2q5 25 15 66.5t20 77t13 41.5h171l-19 -82l-30 -142l-161 -827q-48 -242 -172 -349t-342 -107zM259 373q0 -248 207 -248q108 0 196 79q88 78 136.5 215t48.5 285q0 125 -64 194.5t-176 69.5q-90 0 -150 -37t-101 -116q-27 -52 -49 -130.5
t-35 -161.5t-13 -150zM1015 1479l-374 -278h-94l3 20l253 287h217z" />
    <glyph glyph-name="uni01F6" unicode="&#x1f6;" horiz-adv-x="2118" 
d="M1273 295q0 -178 206 -178q126 0 196 63.5t100 213.5l133 688h181l-139 -717q-40 -203 -157.5 -294t-324.5 -91q-184 0 -283 80.5t-99 227.5q0 47 9 93q14 68 27 136l26 136h-767l-127 -653h-191l274 1409h191l-116 -596h767l116 596h186l-197 -1015q-11 -61 -11 -99z
" />
    <glyph glyph-name="uni01F7" unicode="&#x1f7;" horiz-adv-x="1265" 
d="M167 -425h-191l357 1834h184l-34 -170q85 95 183 143t208 48q186 0 286.5 -100t100.5 -283q0 -230 -138 -473q-92 -162 -233 -306.5t-313 -255t-358 -172.5zM1066 1038q0 112 -58 174.5t-176 62.5q-96 0 -182 -51t-147 -141t-81 -193l-170 -880q206 77 398 254
q129 118 222 253.5t143.5 270t50.5 250.5z" />
    <glyph glyph-name="uni01F8" unicode="&#x1f8;" horiz-adv-x="1479" 
d="M414 943l-181 -943h-170l273 1409h212l534 -1215q13 95 24 166t21 118l181 931h172l-273 -1409h-220l-531 1210q-11 -85 -21.5 -152t-20.5 -115zM1013 1550l-3 -20h-89l-293 217l5 29h207z" />
    <glyph glyph-name="uni01F9" unicode="&#x1f9;" horiz-adv-x="1139" 
d="M332 606l-118 -606h-180l166 851q10 47 19.5 105t19.5 126h170q0 -7 -5 -41.5t-11.5 -75t-11.5 -68.5h3q83 115 166.5 159.5t198.5 44.5q148 0 222.5 -73t74.5 -211q0 -32 -5 -73t-16 -91l-127 -653h-181l126 645q18 89 18 150q0 167 -179 167q-84 0 -155.5 -43.5
t-122 -123t-72.5 -189.5zM756 1221l-3 -20h-88l-282 278l5 29h207z" />
    <glyph glyph-name="Aringacute" unicode="&#x1fa;" horiz-adv-x="1366" 
d="M347 412l-240 -412h-208l848 1409h217l292 -1409h-195l-75 412h-639zM830 1265q-7 -13 -16 -30t-21 -39l-362 -635h527l-102 553q-7 38 -13 76t-13 75zM1098 1546q0 -66 -33 -121t-87.5 -88t-121.5 -33q-66 0 -121 33t-88 88t-33 121q0 68 33 122.5t88 86.5t121 32
t121 -32.5t88 -87t33 -121.5zM990 1546q0 58 -38 96t-96 38q-59 0 -97 -39.5t-38 -94.5t38 -96t97 -41q58 0 96 40t38 97zM1258 2048l-352 -217h-114l3 20l261 226h207z" />
    <glyph glyph-name="aringacute" unicode="&#x1fb;" horiz-adv-x="1139" 
d="M927 -10q-93 0 -135.5 38.5t-42.5 114.5q0 16 2 32t3 32h-6q-83 -126 -172 -176.5t-215 -50.5q-140 0 -227.5 84t-87.5 214q0 185 132.5 280t422.5 99l232 3q19 95 19 127q0 91 -53 134.5t-147 43.5q-119 0 -180 -42.5t-88 -129.5l-178 29q45 147 156.5 213.5t299.5 66.5
q171 0 270.5 -80t99.5 -215q0 -66 -19 -157l-74 -378q-11 -50 -11 -88q0 -37 20.5 -55t60.5 -18q29 0 60 7l-14 -112q-33 -8 -65 -12t-63 -4zM237 286q0 -75 48.5 -122t125.5 -47q97 0 175 42q78 41 129 108t67 144l27 125l-199 -4q-119 -3 -186.5 -21t-105.5 -47
q-37 -28 -59 -72t-22 -106zM961 1410q0 -66 -33 -121t-87.5 -88t-121.5 -33q-66 0 -121 33t-88 88t-33 121q0 68 33 122.5t88 86.5t121 32t121 -32.5t88 -87t33 -121.5zM853 1410q0 58 -38 96t-96 38q-59 0 -97 -39.5t-38 -94.5t38 -96t97 -41q58 0 96 40t38 97zM1151 1928
l-352 -217h-114l3 20l261 226h207z" />
    <glyph glyph-name="AEacute" unicode="&#x1fc;" horiz-adv-x="2048" 
d="M401 412l-279 -412h-203l959 1409h1189l-30 -156h-739l-88 -452h679l-30 -154h-679l-95 -491h780l-31 -156h-971l81 412h-543zM500 561h473l136 701h-151l-136 -216zM1730 1747l-352 -217h-114l3 20l261 226h207z" />
    <glyph glyph-name="aeacute" unicode="&#x1fd;" horiz-adv-x="1821" 
d="M989 503q-6 -34 -9 -113q0 -133 61.5 -204t182.5 -71q87 0 157.5 45.5t114.5 133.5l138 -63q-71 -132 -177 -191.5t-255 -59.5q-151 0 -246 70t-130 198q-90 -128 -202 -195q-63 -37 -132 -55t-145 -18q-95 0 -166 38q-72 38 -110.5 106.5t-38.5 153.5q0 185 135.5 279.5
t433.5 99.5l238 3q19 95 19 127q0 178 -208 178q-124 0 -187.5 -42t-92.5 -130l-178 29q47 147 162.5 213.5t310.5 66.5q221 0 325 -158q125 158 345 158q195 0 303 -104t108 -290q0 -48 -7.5 -109.5t-15.5 -95.5h-734zM1013 641h550l4 72q0 124 -59 190t-170 66
q-123 0 -207 -85t-118 -243zM223 286q0 -77 46.5 -123t124.5 -46q102 0 187 45q86 44 143 120.5t73 162.5l17 89l-206 -4q-149 -5 -227 -31q-158 -53 -158 -213zM1361 1479l-374 -278h-94l3 20l253 287h217z" />
    <glyph glyph-name="Oslashacute" unicode="&#x1fe;" horiz-adv-x="1593" 
d="M1423 1205q103 -145 103 -354q-4 -266 -112 -463q-107 -196 -293 -302t-422 -106q-253 0 -405 124l-161 -157h-189l260 254q-103 148 -103 372q0 240 106 440q105 200 294 308.5t427 108.5q249 0 404 -127l167 163h192zM919 1276q-199 0 -339 -89q-93 -59 -157 -160
t-97.5 -222t-33.5 -242q0 -138 46 -231l870 850q-109 94 -289 94zM1335 847q0 134 -46 227l-870 -848q104 -91 289 -91q197 0 336 87q92 58 157 155.5t99.5 219.5t34.5 250zM1321 1747l-352 -217h-114l3 20l261 226h207z" />
    <glyph glyph-name="oslashacute" unicode="&#x1ff;" horiz-adv-x="1251" 
d="M201 145q-76 109 -76 274q5 207 74 362q70 158 194 239t307 81q163 0 267 -67l70 82h167l-146 -169q74 -104 74 -264q0 -104 -26 -216q-55 -241 -194 -361.5t-363 -120.5q-154 0 -258 71l-80 -94h-167zM310 416q0 -73 15 -127l540 627q-64 53 -167 53q-135 0 -216 -69
q-54 -46 -92.5 -126.5t-59 -175t-20.5 -182.5zM946 683q0 64 -14 117l-540 -627q62 -55 168 -55q137 0 214 67q77 66 121.5 201.5t50.5 296.5zM1077 1479l-374 -278h-94l3 20l253 287h217z" />
    <glyph glyph-name="uni0200" unicode="&#x200;" horiz-adv-x="1366" 
d="M347 412l-240 -412h-208l848 1409h217l292 -1409h-195l-75 412h-639zM830 1265q-7 -13 -16 -30t-21 -39l-362 -635h527l-102 553q-7 38 -13 76t-13 75zM760 1550l-4 -20h-90l-247 250l4 29h203zM1091 1550l-4 -20h-90l-247 250l4 29h203z" />
    <glyph glyph-name="uni0201" unicode="&#x201;" horiz-adv-x="1139" 
d="M927 -10q-93 0 -135.5 38.5t-42.5 114.5q0 16 2 32t3 32h-6q-83 -126 -172 -176.5t-215 -50.5q-140 0 -227.5 84t-87.5 214q0 185 132.5 280t422.5 99l232 3q19 95 19 127q0 91 -53 134.5t-147 43.5q-119 0 -180 -42.5t-88 -129.5l-178 29q45 147 156.5 213.5t299.5 66.5
q171 0 270.5 -80t99.5 -215q0 -66 -19 -157l-74 -378q-11 -50 -11 -88q0 -37 20.5 -55t60.5 -18q29 0 60 7l-14 -112q-33 -8 -65 -12t-63 -4zM237 286q0 -75 48.5 -122t125.5 -47q97 0 175 42q78 41 129 108t67 144l27 125l-199 -4q-119 -3 -186.5 -21t-105.5 -47
q-37 -28 -59 -72t-22 -106zM623 1222l-4 -20h-90l-247 250l4 29h203zM954 1222l-4 -20h-90l-247 250l4 29h203z" />
    <glyph glyph-name="uni0202" unicode="&#x202;" horiz-adv-x="1366" 
d="M347 412l-240 -412h-208l848 1409h217l292 -1409h-195l-75 412h-639zM830 1265q-7 -13 -16 -30t-21 -39l-362 -635h527l-102 553q-7 38 -13 76t-13 75zM913 1790q114 0 178 -63.5t65 -176.5l-1 -20h-105q-2 61 -45 96.5t-116 35.5q-67 0 -126 -32.5t-87 -99.5h-104
q39 119 129.5 189.5t211.5 70.5z" />
    <glyph glyph-name="uni0203" unicode="&#x203;" horiz-adv-x="1139" 
d="M927 -10q-93 0 -135.5 38.5t-42.5 114.5q0 16 2 32t3 32h-6q-83 -126 -172 -176.5t-215 -50.5q-140 0 -227.5 84t-87.5 214q0 185 132.5 280t422.5 99l232 3q19 95 19 127q0 91 -53 134.5t-147 43.5q-119 0 -180 -42.5t-88 -129.5l-178 29q45 147 156.5 213.5t299.5 66.5
q171 0 270.5 -80t99.5 -215q0 -66 -19 -157l-74 -378q-11 -50 -11 -88q0 -37 20.5 -55t60.5 -18q29 0 60 7l-14 -112q-33 -8 -65 -12t-63 -4zM237 286q0 -75 48.5 -122t125.5 -47q97 0 175 42q78 41 129 108t67 144l27 125l-199 -4q-119 -3 -186.5 -21t-105.5 -47
q-37 -28 -59 -72t-22 -106zM738 1466q114 0 178 -63.5t65 -176.5l-1 -20h-105q-2 61 -45 96.5t-116 35.5q-67 0 -126 -32.5t-87 -99.5h-104q39 119 129.5 189.5t211.5 70.5z" />
    <glyph glyph-name="uni0204" unicode="&#x204;" horiz-adv-x="1366" 
d="M1183 156l-30 -156h-1090l273 1409h1049l-30 -156h-858l-88 -452h798l-30 -154h-798l-95 -491h899zM834 1551l-4 -20h-90l-247 250l4 29h203zM1165 1551l-4 -20h-90l-247 250l4 29h203z" />
    <glyph glyph-name="uni0205" unicode="&#x205;" horiz-adv-x="1139" 
d="M256 503q-6 -34 -9 -113q0 -133 66.5 -204t200.5 -71q97 0 176 48t123 131l138 -63q-73 -131 -185.5 -191t-272.5 -60q-201 0 -312.5 111.5t-111.5 313.5q0 199 71 361q71 159 200 247.5t290 88.5q205 0 319 -103t114 -291q0 -104 -24 -205h-783zM280 641h600l4 72
q0 124 -64.5 190t-185.5 66q-134 0 -225.5 -85.5t-128.5 -242.5zM601 1211l-4 -20h-90l-247 250l4 29h203zM932 1211l-4 -20h-90l-247 250l4 29h203z" />
    <glyph glyph-name="uni0206" unicode="&#x206;" horiz-adv-x="1366" 
d="M1183 156l-30 -156h-1090l273 1409h1049l-30 -156h-858l-88 -452h798l-30 -154h-798l-95 -491h899zM931 1790q114 0 178 -63.5t65 -176.5l-1 -20h-105q-2 61 -45 96.5t-116 35.5q-67 0 -126 -32.5t-87 -99.5h-104q39 119 129.5 189.5t211.5 70.5z" />
    <glyph glyph-name="uni0207" unicode="&#x207;" horiz-adv-x="1139" 
d="M256 503q-6 -34 -9 -113q0 -133 66.5 -204t200.5 -71q97 0 176 48t123 131l138 -63q-73 -131 -185.5 -191t-272.5 -60q-201 0 -312.5 111.5t-111.5 313.5q0 199 71 361q71 159 200 247.5t290 88.5q205 0 319 -103t114 -291q0 -104 -24 -205h-783zM280 641h600l4 72
q0 124 -64.5 190t-185.5 66q-134 0 -225.5 -85.5t-128.5 -242.5zM719 1466q114 0 178 -63.5t65 -176.5l-1 -20h-105q-2 61 -45 96.5t-116 35.5q-67 0 -126 -32.5t-87 -99.5h-104q39 119 129.5 189.5t211.5 70.5z" />
    <glyph glyph-name="uni0208" unicode="&#x208;" horiz-adv-x="569" 
d="M546 1409l-274 -1409h-191l274 1409h191zM400 1550l-4 -20h-90l-247 250l4 29h203zM731 1550l-4 -20h-90l-247 250l4 29h203z" />
    <glyph glyph-name="uni0209" unicode="&#x209;" horiz-adv-x="569" 
d="M479 1082l-211 -1082h-179l210 1082h180zM371 1211l-4 -20h-90l-247 250l4 29h203zM702 1211l-4 -20h-90l-247 250l4 29h203z" />
    <glyph glyph-name="uni020A" unicode="&#x20a;" horiz-adv-x="569" 
d="M546 1409l-274 -1409h-191l274 1409h191zM523 1790q114 0 178 -63.5t65 -176.5l-1 -20h-105q-2 61 -45 96.5t-116 35.5q-67 0 -126 -32.5t-87 -99.5h-104q39 119 129.5 189.5t211.5 70.5z" />
    <glyph glyph-name="uni020B" unicode="&#x20b;" horiz-adv-x="569" 
d="M479 1082l-211 -1082h-179l210 1082h180zM460 1466q114 0 178 -63.5t65 -176.5l-1 -20h-105q-2 61 -45 96.5t-116 35.5q-67 0 -126 -32.5t-87 -99.5h-104q39 119 129.5 189.5t211.5 70.5z" />
    <glyph glyph-name="uni020C" unicode="&#x20c;" horiz-adv-x="1593" 
d="M938 1430q185 0 319 -71t206.5 -201t72.5 -307q-4 -266 -112 -463q-107 -196 -293 -302t-422 -106q-201 0 -340 81q-125 71 -191.5 202t-66.5 310q0 240 106 440q105 200 294 308.5t427 108.5zM929 1276q-199 0 -339 -89q-93 -59 -157 -160t-97.5 -222t-33.5 -242
q0 -209 106.5 -318.5t309.5 -109.5q197 0 336 87q92 58 157 155.5t99.5 219.5t34.5 250q0 207 -108.5 318t-307.5 111zM869 1550l-4 -20h-90l-247 250l4 29h203zM1200 1550l-4 -20h-90l-247 250l4 29h203z" />
    <glyph glyph-name="uni020D" unicode="&#x20d;" horiz-adv-x="1139" 
d="M1074 683q0 -130 -40 -270t-114 -238q-75 -97 -183 -146t-246 -49q-196 0 -310 118t-114 321q5 207 74 362q70 158 194 239t307 81q210 0 321 -109.5t111 -308.5zM888 683q0 286 -248 286q-135 0 -216 -69q-54 -46 -92.5 -126.5t-59 -175t-20.5 -182.5q0 -148 64 -225.5
t186 -77.5q103 0 165.5 35t109.5 108q47 74 76.5 187.5t34.5 239.5zM601 1211l-4 -20h-90l-247 250l4 29h203zM932 1211l-4 -20h-90l-247 250l4 29h203z" />
    <glyph glyph-name="uni020E" unicode="&#x20e;" horiz-adv-x="1593" 
d="M938 1430q185 0 319 -71t206.5 -201t72.5 -307q-4 -266 -112 -463q-107 -196 -293 -302t-422 -106q-201 0 -340 81q-125 71 -191.5 202t-66.5 310q0 240 106 440q105 200 294 308.5t427 108.5zM929 1276q-199 0 -339 -89q-93 -59 -157 -160t-97.5 -222t-33.5 -242
q0 -209 106.5 -318.5t309.5 -109.5q197 0 336 87q92 58 157 155.5t99.5 219.5t34.5 250q0 207 -108.5 318t-307.5 111zM992 1790q114 0 178 -63.5t65 -176.5l-1 -20h-105q-2 61 -45 96.5t-116 35.5q-67 0 -126 -32.5t-87 -99.5h-104q39 119 129.5 189.5t211.5 70.5z" />
    <glyph glyph-name="uni020F" unicode="&#x20f;" horiz-adv-x="1139" 
d="M1074 683q0 -130 -40 -270t-114 -238q-75 -97 -183 -146t-246 -49q-196 0 -310 118t-114 321q5 207 74 362q70 158 194 239t307 81q210 0 321 -109.5t111 -308.5zM888 683q0 286 -248 286q-135 0 -216 -69q-54 -46 -92.5 -126.5t-59 -175t-20.5 -182.5q0 -148 64 -225.5
t186 -77.5q103 0 165.5 35t109.5 108q47 74 76.5 187.5t34.5 239.5zM709 1466q114 0 178 -63.5t65 -176.5l-1 -20h-105q-2 61 -45 96.5t-116 35.5q-67 0 -126 -32.5t-87 -99.5h-104q39 119 129.5 189.5t211.5 70.5z" />
    <glyph glyph-name="uni0210" unicode="&#x210;" horiz-adv-x="1479" 
d="M367 585l-113 -585h-191l273 1409h612q153 0 264 -54q97 -46 150.5 -127.5t53.5 -188.5q0 -188 -108 -298t-319 -139l268 -602h-206l-243 585h-441zM857 736q181 0 273 75.5t92 212.5q0 112 -74.5 172t-222.5 60h-427l-101 -520h460zM765 1550l-4 -20h-90l-247 250l4 29
h203zM1096 1550l-4 -20h-90l-247 250l4 29h203z" />
    <glyph glyph-name="uni0211" unicode="&#x211;" horiz-adv-x="682" 
d="M718 938q-42 13 -90 13q-70 0 -132 -50.5t-107 -137.5t-65 -199l-110 -564h-180l162 830q6 35 12.5 69.5t12.5 68.5q5 29 9.5 57.5t8.5 56.5h170l-27 -169l-8 -52h4q66 133 130 187t148 54q44 0 95 -14zM428 1211l-4 -20h-90l-247 250l4 29h203zM759 1211l-4 -20h-90
l-247 250l4 29h203z" />
    <glyph glyph-name="uni0212" unicode="&#x212;" horiz-adv-x="1479" 
d="M367 585l-113 -585h-191l273 1409h612q153 0 264 -54q97 -46 150.5 -127.5t53.5 -188.5q0 -188 -108 -298t-319 -139l268 -602h-206l-243 585h-441zM857 736q181 0 273 75.5t92 212.5q0 112 -74.5 172t-222.5 60h-427l-101 -520h460zM905 1791q114 0 178 -63.5t65 -176.5
l-1 -20h-105q-2 61 -45 96.5t-116 35.5q-67 0 -126 -32.5t-87 -99.5h-104q39 119 129.5 189.5t211.5 70.5z" />
    <glyph glyph-name="uni0213" unicode="&#x213;" horiz-adv-x="682" 
d="M718 938q-42 13 -90 13q-70 0 -132 -50.5t-107 -137.5t-65 -199l-110 -564h-180l162 830q6 35 12.5 69.5t12.5 68.5q5 29 9.5 57.5t8.5 56.5h170l-27 -169l-8 -52h4q66 133 130 187t148 54q44 0 95 -14zM567 1466q114 0 178 -63.5t65 -176.5l-1 -20h-105q-2 61 -45 96.5
t-116 35.5q-67 0 -126 -32.5t-87 -99.5h-104q39 119 129.5 189.5t211.5 70.5z" />
    <glyph glyph-name="uni0214" unicode="&#x214;" horiz-adv-x="1479" 
d="M654 -20q-233 0 -367 120.5t-134 330.5q0 44 7.5 105.5t15.5 98.5l150 774h191l-162 -843q-17 -90 -17 -143q0 -136 87.5 -212t244.5 -76q192 0 307.5 101.5t153.5 304.5l168 868h190l-170 -879q-54 -273 -222 -411.5t-443 -138.5zM841 1550l-4 -20h-90l-247 250l4 29
h203zM1172 1550l-4 -20h-90l-247 250l4 29h203z" />
    <glyph glyph-name="uni0215" unicode="&#x215;" horiz-adv-x="1139" 
d="M748 185q-83 -115 -166.5 -159.5t-198.5 -44.5q-148 0 -222.5 73t-74.5 211q0 22 2.5 47t7 54.5t11.5 62.5l127 653h181l-126 -645q-18 -88 -18 -150q0 -167 179 -167q84 0 155.5 43.5t122.5 123.5t72 189l118 606h180l-166 -851q-10 -47 -19.5 -105t-19.5 -126h-170
q0 8 5 42t12 75t11 68h-3zM616 1211l-4 -20h-90l-247 250l4 29h203zM947 1211l-4 -20h-90l-247 250l4 29h203z" />
    <glyph glyph-name="uni0216" unicode="&#x216;" horiz-adv-x="1479" 
d="M654 -20q-233 0 -367 120.5t-134 330.5q0 44 7.5 105.5t15.5 98.5l150 774h191l-162 -843q-17 -90 -17 -143q0 -136 87.5 -212t244.5 -76q192 0 307.5 101.5t153.5 304.5l168 868h190l-170 -879q-54 -273 -222 -411.5t-443 -138.5zM973 1790q114 0 178 -63.5t65 -176.5
l-1 -20h-105q-2 61 -45 96.5t-116 35.5q-67 0 -126 -32.5t-87 -99.5h-104q39 119 129.5 189.5t211.5 70.5z" />
    <glyph glyph-name="uni0217" unicode="&#x217;" horiz-adv-x="1139" 
d="M748 185q-83 -115 -166.5 -159.5t-198.5 -44.5q-148 0 -222.5 73t-74.5 211q0 22 2.5 47t7 54.5t11.5 62.5l127 653h181l-126 -645q-18 -88 -18 -150q0 -167 179 -167q84 0 155.5 43.5t122.5 123.5t72 189l118 606h180l-166 -851q-10 -47 -19.5 -105t-19.5 -126h-170
q0 8 5 42t12 75t11 68h-3zM726 1466q114 0 178 -63.5t65 -176.5l-1 -20h-105q-2 61 -45 96.5t-116 35.5q-67 0 -126 -32.5t-87 -99.5h-104q39 119 129.5 189.5t211.5 70.5z" />
    <glyph glyph-name="Scommaaccent" unicode="&#x218;" horiz-adv-x="1366" 
d="M616 -20q-249 0 -386.5 88.5t-171.5 269.5l177 37q27 -129 120 -187t275 -58q219 0 320 65.5t101 200.5q0 67 -29 107.5t-99 73.5q-35 16 -95 36t-146 44q-168 46 -255 97q-85 50 -128.5 119.5t-43.5 167.5q0 122 69.5 209t197.5 133.5t302 46.5q220 0 353 -76t167 -222
l-173 -51q-33 105 -118.5 155t-229.5 50q-188 0 -282 -59t-94 -177q0 -60 26 -97.5t84 -66.5q29 -14 87 -33.5t145 -42.5q98 -27 168 -53t113 -51q86 -50 131 -121.5t45 -176.5q0 -206 -155 -317t-475 -111zM713 -204q-17 -87 -50.5 -145.5t-82.5 -105.5h-117
q114 101 131 190h-88l32 167h195z" />
    <glyph glyph-name="scommaaccent" unicode="&#x219;" horiz-adv-x="1024" 
d="M907 317q0 -162 -124 -249.5t-358 -87.5q-174 0 -276.5 58.5t-143.5 184.5l147 56q33 -88 102.5 -128t186.5 -40q291 0 291 190q0 62 -51 104q-52 41 -216 92q-129 43 -192 82q-64 40 -98 93.5t-34 124.5q0 145 116 223.5t327 78.5q177 0 276.5 -63.5t121.5 -191.5
l-163 -25q-22 79 -83 114t-164 35q-124 0 -190.5 -39.5t-66.5 -111.5q0 -42 21 -70.5t61 -51.5t182 -68q128 -40 192 -81q65 -41 100.5 -97t35.5 -132zM527 -204q-17 -87 -50.5 -145.5t-82.5 -105.5h-117q114 101 131 190h-88l32 167h195z" />
    <glyph glyph-name="uni021A" unicode="&#x21a;" horiz-adv-x="1251" 
d="M858 1253l-244 -1253h-190l244 1253h-484l30 156h1158l-30 -156h-484zM578 -204q-17 -87 -50.5 -145.5t-82.5 -105.5h-117q114 101 131 190h-88l32 167h195z" />
    <glyph glyph-name="uni021B" unicode="&#x21b;" horiz-adv-x="569" 
d="M275 -20q-85 0 -133.5 51t-48.5 135q0 55 15 130l126 655h-125l26 131h127l105 242h120l-47 -242h200l-26 -131h-200l-125 -645q-12 -60 -12 -95q0 -44 22.5 -66t67.5 -22q39 0 100 14l-19 -133q-99 -24 -173 -24zM309 -204q-17 -87 -50.5 -145.5t-82.5 -105.5h-117
q114 101 131 190h-88l32 167h195z" />
    <glyph glyph-name="uni021C" unicode="&#x21c;" horiz-adv-x="1116" 
d="M373 653q185 49 296 102q108 53 172 126.5t64 173.5q0 97 -63.5 155.5t-172.5 58.5q-113 0 -197.5 -40t-169.5 -152l-134 89q115 146 234.5 205.5t286.5 59.5q123 0 214.5 -46.5t142 -128t50.5 -186.5q0 -118 -54 -207t-164 -161q60 -57 89.5 -132.5t29.5 -159.5
q0 -99 -27 -187t-82 -165q-72 -102 -191.5 -186.5t-306 -157.5t-461.5 -141l33 170q212 53 370 118.5t262 147.5q211 162 211 397q0 65 -20 120.5t-61 93.5q-79 -35 -174.5 -68t-208.5 -64z" />
    <glyph glyph-name="uni021D" unicode="&#x21d;" horiz-adv-x="894" 
d="M252 472q91 26 156 49.5t104 45.5q78 43 123 102.5t45 145.5q0 73 -46.5 113.5t-122.5 40.5q-84 0 -148 -47t-115 -147l-156 50q60 139 164.5 208t265.5 69q160 0 250.5 -74t90.5 -204q0 -112 -57 -194t-163 -146q51 -50 80.5 -117t29.5 -146q0 -183 -120 -319
q-97 -109 -278 -191t-451 -137l29 155q252 62 380 130q131 69 194 162.5t63 211.5q0 52 -16 96.5t-48 86.5q-62 -26 -133 -49.5t-150 -45.5z" />
    <glyph glyph-name="uni021E" unicode="&#x21e;" horiz-adv-x="1479" 
d="M381 653l-127 -653h-191l274 1409h191l-116 -596h767l116 596h186l-274 -1409h-186l127 653h-767zM1299 1769l-271 -239h-204l-187 239l4 21h93l205 -139h2l246 139h116z" />
    <glyph glyph-name="uni021F" unicode="&#x21f;" horiz-adv-x="1139" 
d="M383 897q83 115 166.5 159.5t198.5 44.5q148 0 222.5 -73t74.5 -211q0 -32 -5 -73t-16 -91l-127 -653h-181l126 645q18 89 18 150q0 167 -179 167q-84 0 -155.5 -43.5t-122 -123t-72.5 -189.5l-118 -606h-179l288 1484h180l-75 -386q-9 -50 -21 -100.5t-26 -100.5h3z
M1090 1789l-271 -239h-204l-187 239l4 21h93l205 -139h2l246 139h116z" />
    <glyph glyph-name="uni0220" unicode="&#x220;" horiz-adv-x="1370" 
d="M837 -425l264 1349q14 73 14 124q0 109 -54 167.5t-178 58.5q-95 0 -194 -54q-100 -54 -171 -143.5t-90 -185.5l-173 -891h-191l212 1092l57 317h183q-6 -46 -16.5 -108.5t-24.5 -142.5h4q90 137 207.5 204t252.5 67q175 0 270 -89t95 -268q0 -74 -17 -168l-260 -1329
h-190z" />
    <glyph glyph-name="uni0221" unicode="&#x221;" horiz-adv-x="1286" 
d="M401 -21q-157 0 -244.5 94.5t-87.5 259.5q0 202 62 394q62 191 173 282.5t284 91.5q123 0 200.5 -52t109.5 -146h5q7 41 14 81.5t14 80.5q20 105 41 209.5t41 209.5h180l-245 -1261l-30 -159q64 23 118 23q114 0 176 -62.5t62 -170.5q0 -131 -80.5 -205t-223.5 -74
q-105 0 -169.5 52.5t-84.5 141.5q-40 -37 -84 -81.5t-91 -94.5l-101 98q68 77 138 143.5t143 121.5l8 38l8 43q6 33 12.5 66t12.5 66h-3q-74 -101 -157 -145.5t-201 -44.5zM453 118q192 0 289 163q33 54 56.5 128.5t36 152.5t12.5 142q0 125 -63.5 194.5t-176.5 69.5
q-124 0 -196 -75q-48 -50 -82.5 -144t-53 -198t-18.5 -186q0 -123 47 -185t149 -62zM981 -281q57 0 95 32.5t38 93.5q0 45 -26 71t-70 26q-71 0 -141 -49l-5 -54q0 -55 29.5 -87.5t79.5 -32.5z" />
    <glyph glyph-name="uni0222" unicode="&#x222;" horiz-adv-x="1238" 
d="M820 1430q193 -6 297.5 -88t104.5 -228q0 -143 -93.5 -244t-244.5 -130l-1 -4q117 -23 182 -98t65 -191q0 -159 -90 -272q-74 -94 -203.5 -144.5t-302.5 -50.5q-223 0 -345 94.5t-122 258.5q0 160 99 268.5t276 136.5l1 4q-221 63 -221 229q0 153 135.5 237t375.5 84
l-25 -130q-152 -3 -227.5 -56t-75.5 -143q0 -75 70.5 -115t202.5 -40q117 0 196 40t120 108t41 152q0 81 -57.5 132t-183.5 56zM548 120q186 0 291 86t105 242q0 109 -74.5 166.5t-220.5 57.5q-118 0 -207 -40q-88 -40 -138.5 -113.5t-50.5 -170.5q0 -113 76 -170.5
t219 -57.5z" />
    <glyph glyph-name="uni0223" unicode="&#x223;" horiz-adv-x="1238" 
d="M688 874q92 0 162 38q68 38 108 113t40 163q0 122 -106 189l90 113q99 -52 148.5 -127.5t49.5 -173.5q0 -139 -82 -241t-227 -145l-1 -4q103 -28 160 -107t57 -191q0 -178 -85 -303q-70 -104 -193.5 -161t-288.5 -57q-200 0 -312 98t-112 268q0 119 47 218
q47 98 129.5 163.5t188.5 90.5l1 4q-91 37 -136 100t-45 153q0 142 84.5 245.5t253.5 169.5l64 -113q-110 -53 -165.5 -129t-55.5 -175q0 -95 60 -147t166 -52zM648 743q-109 0 -191 -52q-83 -52 -129.5 -143t-46.5 -197q0 -115 64.5 -172.5t193.5 -57.5q114 0 196 49
q83 48 127.5 134.5t44.5 197.5q0 110 -69.5 175.5t-189.5 65.5z" />
    <glyph glyph-name="uni0224" unicode="&#x224;" horiz-adv-x="1251" 
d="M1079 -59q0 -34 -6.5 -68.5t-19 -69t-32.5 -69.5l-143 45q40 74 40 128q0 93 -127 93h-831l27 143l1054 1110h-765l30 156h1002l-27 -139l-1054 -1114h606q115 0 180.5 -55.5t65.5 -159.5z" />
    <glyph glyph-name="uni0225" unicode="&#x225;" horiz-adv-x="1024" 
d="M916 -79q0 -60 -15 -103t-38 -84l-143 45q15 28 27.5 57t12.5 66q0 49 -31.5 73.5t-95.5 24.5h-677l27 137l797 806h-601l27 139h824l-27 -137l-799 -806h466q115 0 180.5 -57t65.5 -161z" />
    <glyph glyph-name="uni0226" unicode="&#x226;" horiz-adv-x="1366" 
d="M347 412l-240 -412h-208l848 1409h217l292 -1409h-195l-75 412h-639zM830 1265q-7 -13 -16 -30t-21 -39l-362 -635h527l-102 553q-7 38 -13 76t-13 75zM993 1702l-34 -172h-180l34 172h180z" />
    <glyph glyph-name="uni0227" unicode="&#x227;" horiz-adv-x="1139" 
d="M927 -10q-93 0 -135.5 38.5t-42.5 114.5q0 16 2 32t3 32h-6q-83 -126 -172 -176.5t-215 -50.5q-140 0 -227.5 84t-87.5 214q0 185 132.5 280t422.5 99l232 3q19 95 19 127q0 91 -53 134.5t-147 43.5q-119 0 -180 -42.5t-88 -129.5l-178 29q45 147 156.5 213.5t299.5 66.5
q171 0 270.5 -80t99.5 -215q0 -66 -19 -157l-74 -378q-11 -50 -11 -88q0 -37 20.5 -55t60.5 -18q29 0 60 7l-14 -112q-33 -8 -65 -12t-63 -4zM237 286q0 -75 48.5 -122t125.5 -47q97 0 175 42q78 41 129 108t67 144l27 125l-199 -4q-119 -3 -186.5 -21t-105.5 -47
q-37 -28 -59 -72t-22 -106zM817 1484l-34 -172h-180l34 172h180z" />
    <glyph glyph-name="uni0228" unicode="&#x228;" horiz-adv-x="1366" 
d="M1183 156l-30 -156h-1090l273 1409h1049l-30 -156h-858l-88 -452h798l-30 -154h-798l-95 -491h899zM645 -66q93 0 146 -38.5t53 -109.5q0 -99 -78 -154.5t-217 -55.5q-59 0 -109 6l20 96q48 -6 84 -6q86 0 126 27t40 77q0 64 -119 64h-19t-17 -1h-12t-9 -1l49 96h31h31z
" />
    <glyph glyph-name="uni0229" unicode="&#x229;" horiz-adv-x="1139" 
d="M256 503q-6 -34 -9 -113q0 -133 66.5 -204t200.5 -71q97 0 176 48t123 131l138 -63q-73 -131 -185.5 -191t-272.5 -60q-201 0 -312.5 111.5t-111.5 313.5q0 199 71 361q71 159 200 247.5t290 88.5q205 0 319 -103t114 -291q0 -104 -24 -205h-783zM280 641h600l4 72
q0 124 -64.5 190t-185.5 66q-134 0 -225.5 -85.5t-128.5 -242.5zM524 -96q81 -5 121.5 -41t40.5 -95q0 -97 -75.5 -145t-227.5 -48q-25 0 -51.5 1.5t-54.5 5.5l21 91q48 -6 88 -6q91 0 128.5 22t37.5 67q0 72 -119 72q-22 0 -36.5 -0.5t-21.5 -1.5l101 174h107z" />
    <glyph glyph-name="uni022A" unicode="&#x22a;" horiz-adv-x="1593" 
d="M938 1430q185 0 319 -71t206.5 -201t72.5 -307q-4 -266 -112 -463q-107 -196 -293 -302t-422 -106q-201 0 -340 81q-125 71 -191.5 202t-66.5 310q0 240 106 440q105 200 294 308.5t427 108.5zM929 1276q-199 0 -339 -89q-93 -59 -157 -160t-97.5 -222t-33.5 -242
q0 -209 106.5 -318.5t309.5 -109.5q197 0 336 87q92 58 157 155.5t99.5 219.5t34.5 250q0 207 -108.5 318t-307.5 111zM1325 1835l-25 -127h-548l25 127h548zM1312 1642l-36 -184h-163l36 184h163zM879 1642l-36 -184h-163l36 184h163z" />
    <glyph glyph-name="uni022B" unicode="&#x22b;" horiz-adv-x="1139" 
d="M1074 683q0 -130 -40 -270t-114 -238q-75 -97 -183 -146t-246 -49q-196 0 -310 118t-114 321q5 207 74 362q70 158 194 239t307 81q210 0 321 -109.5t111 -308.5zM888 683q0 286 -248 286q-135 0 -216 -69q-54 -46 -92.5 -126.5t-59 -175t-20.5 -182.5q0 -148 64 -225.5
t186 -77.5q103 0 165.5 35t109.5 108q47 74 76.5 187.5t34.5 239.5zM1007 1403l-35 -184h-173l35 184h173zM625 1403l-35 -184h-175l35 184h175zM1050 1643l-26 -127h-550l26 127h550z" />
    <glyph glyph-name="uni022C" unicode="&#x22c;" horiz-adv-x="1593" 
d="M938 1430q185 0 319 -71t206.5 -201t72.5 -307q-4 -266 -112 -463q-107 -196 -293 -302t-422 -106q-201 0 -340 81q-125 71 -191.5 202t-66.5 310q0 240 106 440q105 200 294 308.5t427 108.5zM929 1276q-199 0 -339 -89q-93 -59 -157 -160t-97.5 -222t-33.5 -242
q0 -209 106.5 -318.5t309.5 -109.5q197 0 336 87q92 58 157 155.5t99.5 219.5t34.5 250q0 207 -108.5 318t-307.5 111zM1311 1835l-24 -127h-548l24 127h548zM1094 1475q-32 0 -62 11t-59 24q-31 15 -60.5 27.5t-59.5 12.5q-45 0 -70.5 -17.5t-41.5 -57.5h-91q30 86 56 119
q28 35 70 55t104 20q46 0 87 -19t79 -37.5t74 -18.5q48 0 73 19t38 56h92q-28 -82 -56 -119q-28 -36 -69.5 -55.5t-103.5 -19.5z" />
    <glyph glyph-name="uni022D" unicode="&#x22d;" horiz-adv-x="1139" 
d="M1074 683q0 -130 -40 -270t-114 -238q-75 -97 -183 -146t-246 -49q-196 0 -310 118t-114 321q5 207 74 362q70 158 194 239t307 81q210 0 321 -109.5t111 -308.5zM888 683q0 286 -248 286q-135 0 -216 -69q-54 -46 -92.5 -126.5t-59 -175t-20.5 -182.5q0 -148 64 -225.5
t186 -77.5q103 0 165.5 35t109.5 108q47 74 76.5 187.5t34.5 239.5zM838 1201q-53 0 -101.5 30t-93 59.5t-87.5 29.5q-50 0 -85.5 -30t-56.5 -89h-90q47 152 107.5 210t143.5 58q54 0 102.5 -29.5t93 -59.5t85.5 -30q50 0 85.5 30t55.5 89h92q-34 -106 -67 -159
q-32 -51 -77 -80t-107 -29zM1050 1693l-26 -127h-550l26 127h550z" />
    <glyph glyph-name="uni022E" unicode="&#x22e;" horiz-adv-x="1593" 
d="M938 1430q185 0 319 -71t206.5 -201t72.5 -307q-4 -266 -112 -463q-107 -196 -293 -302t-422 -106q-201 0 -340 81q-125 71 -191.5 202t-66.5 310q0 240 106 440q105 200 294 308.5t427 108.5zM929 1276q-199 0 -339 -89q-93 -59 -157 -160t-97.5 -222t-33.5 -242
q0 -209 106.5 -318.5t309.5 -109.5q197 0 336 87q92 58 157 155.5t99.5 219.5t34.5 250q0 207 -108.5 318t-307.5 111zM1077 1764l-34 -172h-180l34 172h180z" />
    <glyph glyph-name="uni022F" unicode="&#x22f;" horiz-adv-x="1139" 
d="M1074 683q0 -130 -40 -270t-114 -238q-75 -97 -183 -146t-246 -49q-196 0 -310 118t-114 321q5 207 74 362q70 158 194 239t307 81q210 0 321 -109.5t111 -308.5zM888 683q0 286 -248 286q-135 0 -216 -69q-54 -46 -92.5 -126.5t-59 -175t-20.5 -182.5q0 -148 64 -225.5
t186 -77.5q103 0 165.5 35t109.5 108q47 74 76.5 187.5t34.5 239.5zM800 1484l-34 -172h-180l34 172h180z" />
    <glyph glyph-name="uni0230" unicode="&#x230;" horiz-adv-x="1593" 
d="M938 1430q185 0 319 -71t206.5 -201t72.5 -307q-4 -266 -112 -463q-107 -196 -293 -302t-422 -106q-201 0 -340 81q-125 71 -191.5 202t-66.5 310q0 240 106 440q105 200 294 308.5t427 108.5zM929 1276q-199 0 -339 -89q-93 -59 -157 -160t-97.5 -222t-33.5 -242
q0 -209 106.5 -318.5t309.5 -109.5q197 0 336 87q92 58 157 155.5t99.5 219.5t34.5 250q0 207 -108.5 318t-307.5 111zM1293 1835l-25 -127h-548l25 127h548zM1059 1652l-36 -184h-162l36 184h162z" />
    <glyph glyph-name="uni0231" unicode="&#x231;" horiz-adv-x="1139" 
d="M1074 683q0 -130 -40 -270t-114 -238q-75 -97 -183 -146t-246 -49q-196 0 -310 118t-114 321q5 207 74 362q70 158 194 239t307 81q210 0 321 -109.5t111 -308.5zM888 683q0 286 -248 286q-135 0 -216 -69q-54 -46 -92.5 -126.5t-59 -175t-20.5 -182.5q0 -148 64 -225.5
t186 -77.5q103 0 165.5 35t109.5 108q47 74 76.5 187.5t34.5 239.5zM830 1404l-34 -172h-180l34 172h180zM1050 1643l-26 -127h-550l26 127h550z" />
    <glyph glyph-name="uni0232" unicode="&#x232;" horiz-adv-x="1366" 
d="M785 584l-113 -584h-190l115 584l-384 825h196l306 -674l560 674h214zM1187 1697l-26 -127h-550l26 127h550z" />
    <glyph glyph-name="uni0233" unicode="&#x233;" horiz-adv-x="1024" 
d="M16 -425q-70 0 -132 14l31 134q48 -8 77 -8q95 0 167.5 64t142.5 186l27 47l-217 1070h183l112 -598q8 -40 15 -84.5t13 -86t10 -72.5t4 -45q5 11 11.5 24.5t14.5 29.5l122 225l331 607h199l-626 -1082q-112 -195 -178 -270q-67 -78 -141 -116.5t-166 -38.5zM937 1363
l-26 -127h-550l26 127h550z" />
    <glyph glyph-name="uni0234" unicode="&#x234;" horiz-adv-x="602" 
d="M577 -146q0 -131 -80.5 -205t-223.5 -74q-105 0 -169.5 52.5t-84.5 141.5q-40 -37 -84 -81.5t-91 -94.5l-101 98q68 77 138 143.5t143 121.5q2 13 5 25t5 25q2 12 4.5 23.5t4.5 23.5l278 1431h180l-277 -1419q57 22 115 22q114 0 176 -62.5t62 -170.5zM284 -281
q57 0 95 32.5t38 93.5q0 45 -26 71t-70 26q-71 0 -141 -49l-5 -54q0 -55 29.5 -87.5t79.5 -32.5z" />
    <glyph glyph-name="uni0235" unicode="&#x235;" horiz-adv-x="1288" 
d="M427 -309q69 79 139.5 145t141.5 121q2 11 4 21l4 20q2 11 4.5 22t4.5 22l118 603q18 89 18 150q0 167 -179 167q-84 0 -155.5 -43.5t-122 -123t-72.5 -189.5l-118 -606h-180l166 851q10 47 19.5 105t19.5 126h170q0 -7 -5 -41.5t-11.5 -75t-11.5 -68.5h3
q83 115 166.5 159.5t198.5 44.5q148 0 222.5 -73t74.5 -211q0 -21 -2.5 -46.5t-7 -54.5t-11.5 -63l-115 -588q57 22 113 22q114 0 176 -62.5t62 -170.5q0 -131 -80.5 -205t-223.5 -74q-105 0 -169.5 52.5t-84.5 141.5q-40 -37 -84 -81.5t-91 -94.5zM968 -281q57 0 95 32.5
t38 93.5q0 45 -26 71t-70 26q-71 0 -141 -49l-5 -54q0 -55 29.5 -87.5t79.5 -32.5z" />
    <glyph glyph-name="uni0236" unicode="&#x236;" horiz-adv-x="712" 
d="M-160 96q136 154 280 264q2 9 4 18.5t3 18.5q2 10 4 19.5t4 19.5l99 515h-125l26 131h127l105 242h120l-47 -242h200l-26 -131h-200l-92 -481q63 22 114 22q114 0 176 -62.5t62 -170.5q0 -132 -80 -205.5t-222 -73.5q-109 0 -173 48.5t-83 145.5q-40 -37 -84 -81.5
t-91 -94.5zM388 124q57 0 91.5 32.5t34.5 93.5q0 45 -26 71t-70 26q-62 0 -129 -46q-7 -31 -7 -57q0 -58 28.5 -89t77.5 -31z" />
    <glyph glyph-name="j.dotless" unicode="&#x237;" horiz-adv-x="455" 
d="M-100 -425q-53 0 -129 14l23 136q26 -4 46.5 -6t36.5 -2q59 0 88.5 42t47.5 134l231 1189h180l-237 -1216q-31 -158 -101 -224.5t-186 -66.5z" />
    <glyph glyph-name="uni0238" unicode="&#x238;" horiz-adv-x="1809" 
d="M1753 748q0 -101 -15 -199.5t-46 -193.5q-61 -190 -173 -282.5t-285 -92.5q-119 0 -195.5 49.5t-110.5 147.5h-3l-44 -177h-165l30 160h-5q-73 -95 -154 -138t-199 -43q-157 0 -244.5 94.5t-87.5 259.5q0 202 62 394q62 191 173 282.5t284 91.5q123 0 200.5 -52
t109.5 -146h5q7 41 14 81.5t14 80.5q20 105 41 209.5t41 209.5h180l-83 -423q-7 -31 -15 -66.5t-19 -73.5h4q73 95 154 138t200 43q157 0 244.5 -94.5t87.5 -259.5zM440 118q192 0 289 163q33 54 56.5 128.5t36 152.5t12.5 142q0 125 -63.5 194.5t-176.5 69.5
q-124 0 -196 -75q-48 -50 -82.5 -144t-53 -198t-18.5 -186q0 -123 47 -185t149 -62zM1369 963q-191 0 -289 -162q-32 -54 -56 -129t-36.5 -152.5t-12.5 -142.5q0 -125 63.5 -194.5t176.5 -69.5q123 0 193 73q36 36 64.5 98.5t49.5 138t32 152.5t11 141q0 123 -47 185
t-149 62z" />
    <glyph glyph-name="uni0239" unicode="&#x239;" horiz-adv-x="1804" 
d="M1416 1103q157 0 244.5 -94.5t87.5 -259.5q0 -206 -61 -395q-61 -191 -172.5 -282t-283.5 -91q-120 0 -196.5 49.5t-110.5 148.5h-5l-114 -604h-180l88 446q11 54 19.5 89t13.5 51h-4q-73 -95 -154 -138t-200 -43q-157 0 -244.5 94.5t-87.5 259.5q0 202 62 394
q62 191 173 282.5t284 91.5q119 0 195.5 -49.5t110.5 -147.5h3l44 177h165l-30 -160h5q75 98 154 139.5t194 41.5zM440 119q192 0 289 163q33 54 56.5 128.5t36 152.5t12.5 142q0 125 -63.5 194.5t-176.5 69.5q-124 0 -196 -75q-48 -50 -82.5 -144t-53 -198t-18.5 -186
q0 -123 47 -185t149 -62zM1364 964q-132 0 -215 -75q-56 -50 -95 -137t-59 -186.5t-20 -187.5q0 -130 63 -197t172 -67q123 0 193 73q48 48 83 140.5t54.5 198t19.5 191.5q0 123 -47 185t-149 62z" />
    <glyph glyph-name="uni023A" unicode="&#x23a;" horiz-adv-x="1366" 
d="M1050 991l206 -991h-195l-75 412h-399l-415 -519h-172l85 107h-186l848 1409h217l51 -246l280 351h174zM431 561h102l345 432q-12 68 -24 135.5t-24 136.5q-1 -4 -8.5 -18t-20.5 -38zM706 561h252l-47 255zM347 412l-182 -313l249 313h-67z" />
    <glyph glyph-name="uni023B" unicode="&#x23b;" horiz-adv-x="1479" 
d="M1348 1300q105 -87 142 -215l-180 -55q-23 70 -77 127l-764 -956q99 -66 244 -66q148 0 276 73.5t226 217.5l143 -89q-126 -188 -286 -272.5t-372 -84.5q-202 0 -339 86l-139 -173h-172l207 259q-72 79 -108 183t-36 234q0 246 105 445t291.5 307.5t416.5 108.5
q176 0 305 -58l114 142h174zM302 566q0 -158 71 -268l748 936q-87 40 -205 40q-185 0 -324 -88q-140 -88 -215 -249t-75 -371z" />
    <glyph glyph-name="uni023C" unicode="&#x23c;" horiz-adv-x="1024" 
d="M898 1013q93 -85 103 -229l-177 -25q-5 55 -23 94l-435 -711q46 -20 103 -20q100 0 171.5 55t117.5 175l156 -49q-122 -323 -449 -323q-104 0 -179 31l-266 -436h-155l310 509q-108 108 -108 311q0 201 73 372q72 172 191.5 253.5t293.5 81.5q84 0 157 -24l248 406h156z
M251 389q0 -87 22 -144l429 702q-39 14 -83 14q-127 0 -204 -67q-39 -34 -69.5 -89.5t-51.5 -125t-32 -144t-11 -146.5z" />
    <glyph glyph-name="uni023D" unicode="&#x23d;" horiz-adv-x="1139" 
d="M78 810h142l116 599h191l-116 -599h399l-31 -156h-399l-96 -498h712l-30 -156h-903l126 654h-142z" />
    <glyph glyph-name="uni023E" unicode="&#x23e;" horiz-adv-x="1251" 
d="M1306 1409h66l-30 -156h-161l-427 -534l-140 -719h-190l79 405l-410 -512h-172l637 798l110 562h-484l30 156h918l84 105h174zM858 1253l-48 -248l197 248h-149z" />
    <glyph glyph-name="uni023F" unicode="&#x23f;" horiz-adv-x="1024" 
d="M907 317q0 -163 -124 -250t-358 -87q-28 0 -57.5 2.5t-61.5 7.5l138 -188q28 -37 60 -56t69 -19q30 0 63 14.5t70 42.5l80 -112q-103 -98 -235 -98q-47 0 -83.5 12t-68.5 34q-16 11 -31.5 25.5t-29.5 31.5q-12 14 -42 55.5t-70 99.5t-82 121.5t-78.5 123t-59.5 102.5
l150 87q45 -90 106 -122.5t179 -32.5q291 0 291 190q0 79 -87 128q-46 25 -180 68q-129 43 -192 82q-64 40 -98 93.5t-34 124.5q0 145 116 223.5t327 78.5q177 0 276.5 -63.5t121.5 -191.5l-163 -25q-22 79 -83 114t-164 35q-124 0 -190.5 -39.5t-66.5 -111.5
q0 -42 21 -70.5t61 -51.5t182 -68q128 -40 192 -81q65 -41 100.5 -97t35.5 -132z" />
    <glyph glyph-name="uni0240" unicode="&#x240;" horiz-adv-x="1024" 
d="M203 138q53 -1 90 -15q38 -13 66.5 -38.5t74.5 -93.5q43 -66 76 -116t55 -84q44 -68 99 -64q52 0 125 68l84 -113q-115 -108 -236 -108q-69 0 -122.5 32.5t-111.5 124.5l-122 193q-29 45 -61 60.5t-107 15.5h-156l26 137l797 806h-601l27 139h824l-27 -137z" />
    <glyph glyph-name="uni0241" unicode="&#x241;" horiz-adv-x="1189" 
d="M344 0l104 536q50 -14 124 -14q121 0 221 59q98 59 151.5 166.5t53.5 247.5q0 137 -76.5 215.5t-212.5 78.5q-134 0 -230.5 -60.5t-142.5 -174.5l-170 29q65 173 204 260t351 87q228 0 347 -111.5t119 -323.5q0 -180 -71.5 -315.5t-203.5 -213.5t-314 -86l-74 -380h-180z
" />
    <glyph glyph-name="uni0242" unicode="&#x242;" horiz-adv-x="928" 
d="M502 314l-61 -314h-180l84 432q110 0 195 41q83 41 127 117.5t44 173.5t-52.5 147t-140.5 50q-193 0 -257 -196l-173 14q105 323 442 323q170 0 269.5 -89.5t99.5 -242.5q0 -155 -74 -264q-102 -150 -323 -192z" />
    <glyph glyph-name="uni0243" unicode="&#x243;" horiz-adv-x="1366" 
d="M1247 439q0 -213 -156 -326t-433 -113h-595l66 341h-135l26 133h135l181 935h510q209 0 329.5 -86.5t120.5 -235.5q0 -285 -339 -344q138 -23 214 -104.5t76 -199.5zM411 810h331q178 0 266.5 64.5t88.5 193.5q0 94 -67 141t-201 47h-331zM283 153h368q210 0 307.5 73.5
t97.5 215.5q0 107 -79.5 163t-228.5 56h-366l-37 -187h349l-26 -133h-349z" />
    <glyph glyph-name="uni0244" unicode="&#x244;" horiz-adv-x="1479" 
d="M1319 530q-52 -272 -221 -411t-444 -139q-232 0 -366.5 120t-134.5 331q0 83 27 225h-116l29 153h116l117 600h191l-115 -600h781l116 600h190l-116 -600h117l-29 -153h-118zM670 135q192 0 307.5 101.5t153.5 304.5l22 115h-781l-17 -90q-17 -90 -17 -143
q0 -136 87.5 -212t244.5 -76z" />
    <glyph glyph-name="uni0245" unicode="&#x245;" horiz-adv-x="1366" 
d="M695 993l-583 -992h-206l848 1409h198l301 -1409h-195l-195 992q-10 49 -18.5 111t-16.5 138q-33 -68 -66 -130.5t-67 -118.5z" />
    <glyph glyph-name="uni0246" unicode="&#x246;" horiz-adv-x="1366" 
d="M360 0l-149 -225h-158l149 225h-139l273 1409h802l97 145h159l-97 -145h88l-30 -156h-162l-300 -452h314l-30 -154h-387l-326 -491h719l-30 -156h-793zM409 801h325l301 452h-538zM284 156h22l326 491h-253z" />
    <glyph glyph-name="uni0247" unicode="&#x247;" horiz-adv-x="1139" 
d="M297 15l-278 -440h-155l322 511q-117 111 -117 319q0 199 71 361q71 159 200 247.5t290 88.5q100 0 181 -26l258 408h156l-296 -469q134 -104 134 -307q0 -104 -24 -205h-434l-228 -362q58 -26 137 -26q94 0 172 45t127 134l138 -63q-79 -136 -191 -193.5t-267 -57.5
q-109 0 -196 35zM280 641h257l198 314q-48 14 -101 14q-134 0 -225.5 -85.5t-128.5 -242.5zM884 713q0 102 -43 164l-149 -236h188zM247 390q0 -93 33 -156l170 269h-194q-9 -55 -9 -113z" />
    <glyph glyph-name="uni0248" unicode="&#x248;" horiz-adv-x="1024" 
d="M847 423q-45 -228 -159 -335.5t-307 -107.5q-159 0 -259.5 93t-126.5 270l168 33q23 -117 79 -179t156 -62q97 0 159 62q38 38 64 98t42 145l42 217h-261l29 152h261l86 444h-291l30 156h481l-118 -600h138l-29 -152h-138z" />
    <glyph glyph-name="uni0249" unicode="&#x249;" horiz-adv-x="455" 
d="M502 1484l-33 -172h-180l33 172h180zM-100 -425q-53 0 -129 14l23 136q26 -4 46.5 -6t36.5 -2q59 0 88.5 42t47.5 134l115 591h-112l26 133h112l90 465h180l-91 -465h112l-26 -133h-112l-120 -618q-31 -158 -101 -224.5t-186 -66.5z" />
    <glyph glyph-name="uni024A" unicode="&#x24a;" horiz-adv-x="1546" 
d="M1201 -173q0 -49 23 -69.5t67 -20.5q20 0 52.5 4.5t47.5 9.5l-31 -162q-31 -7 -66 -10.5t-73 -3.5q-106 0 -159.5 50.5t-53.5 151.5q0 20 3 48q2 14 13 75.5t33 170.5q-152 -91 -357 -91q-184 0 -317 71t-201.5 201t-68.5 303q0 258 107 458t303 308.5t450 108.5
q194 0 340 -77l161 56h31l-297 -1524q-7 -38 -7 -58zM714 133q240 0 376 103l182 941q-96 100 -329 100q-188 0 -334 -90q-97 -60 -166 -153.5t-105 -212t-36 -255.5q0 -202 111.5 -317.5t300.5 -115.5z" />
    <glyph glyph-name="uni024B" unicode="&#x24b;" horiz-adv-x="1139" 
d="M874 -173q0 -49 23 -69.5t67 -20.5q39 0 88 12l-32 -162q-25 -6 -56.5 -9t-69.5 -3q-94 0 -149.5 49.5t-55.5 143.5q0 62 16 139q8 40 21.5 103t32.5 150h-4q-73 -95 -154 -138t-200 -43q-157 0 -244.5 94.5t-87.5 259.5q0 202 62 394q62 191 173 282.5t284 91.5
q123 0 200.5 -52t109.5 -146h5q8 36 17.5 78t18.5 75t13 40h173q-11 -39 -27.5 -112.5t-37.5 -182.5l-179 -916q-7 -38 -7 -58zM453 118q192 0 289 163q33 54 56.5 128.5t36 152.5t12.5 142q0 125 -63.5 194.5t-176.5 69.5q-124 0 -196 -75q-48 -50 -82.5 -144t-53 -198
t-18.5 -186q0 -123 47 -185t149 -62z" />
    <glyph glyph-name="uni024C" unicode="&#x24c;" horiz-adv-x="1479" 
d="M1051 0l-243 585h-441l-113 -585h-191l114 585h-168l29 150h168l130 674h612q141 0 249 -48q103 -45 161 -128t58 -194q0 -188 -108 -298t-319 -139l268 -602h-206zM857 736q181 0 273 75.5t92 212.5q0 112 -74.5 172t-222.5 60h-427l-101 -520h460z" />
    <glyph glyph-name="uni024D" unicode="&#x24d;" horiz-adv-x="682" 
d="M718 938q-42 13 -90 13q-92 0 -169.5 -86.5t-119.5 -232.5h181l-29 -146h-182l-95 -486h-180l95 486h-123l29 146h122q21 106 37 189t26 143q7 40 12 69.5t7 48.5h170q-9 -55 -17.5 -110t-17.5 -111h4q66 133 130 187t148 54q37 0 95 -14z" />
    <glyph glyph-name="uni024E" unicode="&#x24e;" horiz-adv-x="1366" 
d="M785 584l-113 -584h-190l115 584l-209 449h-238l28 146h142l-107 230h196l104 -230h571l191 230h214l-197 -230h152l-28 -146h-248zM580 1033l135 -298l247 298h-382z" />
    <glyph glyph-name="uni024F" unicode="&#x24f;" horiz-adv-x="1024" 
d="M323 -270q-67 -78 -141 -116.5t-166 -38.5q-70 0 -132 14l31 134q48 -8 77 -8q86 0 157 55q38 30 75.5 78t77.5 117l27 47l-118 583h-163l29 146h104l-69 341h183l64 -341h383l186 341h199l-198 -341h111l-29 -146h-166l-344 -595q-112 -195 -178 -270zM449 196
q6 14 14 29.5t18 34.5t55 102.5t127 232.5h-277q29 -153 45 -252.5t18 -146.5z" />
    <glyph glyph-name="uni0250" unicode="&#x250;" horiz-adv-x="1139" 
d="M212 1092q93 0 135.5 -38.5t42.5 -114.5q-1 -16 -2 -32.5t-3 -31.5h6q83 126 172 176.5t215 50.5q140 0 227.5 -84t87.5 -214q0 -185 -132.5 -280t-422.5 -99l-232 -3q-19 -95 -19 -127q0 -91 53 -134.5t147 -43.5q119 0 180 42.5t88 129.5l178 -29
q-45 -147 -156.5 -213.5t-299.5 -66.5q-171 0 -270.5 80t-99.5 215q0 66 19 157l74 378q11 50 11 88q0 73 -81 73q-29 0 -60 -7l14 112q33 8 65 12t63 4zM357 671l-27 -125l199 4q119 3 187.5 22t105.5 47q38 29 59 72t21 105q0 75 -48.5 122t-125.5 47q-95 0 -174 -41
q-78 -41 -129.5 -109t-67.5 -144z" />
    <glyph glyph-name="uni0251" unicode="&#x251;" horiz-adv-x="1139" 
d="M69 333q0 113 16.5 219.5t50.5 198.5q57 155 168.5 252.5t283.5 97.5q123 0 200.5 -52t109.5 -146h5l33 179h179l-163 -837q-4 -25 -6.5 -47t-2.5 -41q0 -42 9.5 -82.5t32.5 -74.5h-194q-12 17 -21.5 49t-9.5 82v14q0 10 1 15h-5q-74 -96 -156 -138.5t-199 -42.5
q-156 0 -244 94.5t-88 259.5zM847 704q0 125 -64 194.5t-176 69.5q-71 0 -125.5 -31t-93.5 -83q-49 -63 -77.5 -148.5t-41 -174.5t-12.5 -166q0 -123 47 -185t149 -62q140 0 225 82q57 54 94.5 141.5t56 184.5t18.5 178z" />
    <glyph glyph-name="uni0252" unicode="&#x252;" horiz-adv-x="1139" 
d="M1076 748q0 -111 -16 -216t-49 -197q-57 -157 -168.5 -256t-285.5 -99q-123 0 -198.5 52t-107.5 146h-5l-35 -178h-176l165 849q5 25 7.5 47.5t2.5 42.5q0 46 -12.5 79t-32.5 64h194q14 -17 21.5 -51t7.5 -72v-19q0 -7 -2 -19h4q73 95 154.5 138t199.5 43
q156 0 244 -94.5t88 -259.5zM298 377q0 -126 64 -195t176 -69q67 0 118.5 27.5t89.5 73.5q54 63 85 150.5t44 180.5t13 171q0 123 -47 185t-149 62q-138 0 -224 -81q-57 -54 -94.5 -142t-56.5 -184.5t-19 -178.5z" />
    </font>
</defs>
</svg>
