<?xml version="1.0" standalone="no"?>
<!DOCTYPE svg PUBLIC "-//W3C//DTD SVG 1.1//EN" "http://www.w3.org/Graphics/SVG/1.1/DTD/svg11.dtd" >
<svg xmlns="http://www.w3.org/2000/svg" xmlns:xlink="http://www.w3.org/1999/xlink" version="1.1">
<metadata>
Created by FontForge 20170731 at Sat Aug 29 16:30:21 2020
 By Aleksey,,,
Copyright 2020 The Arimo Project Authors (https://github.com/googlefonts/arimo)
</metadata>
<defs>
<font id="Arimo-MediumItalic" horiz-adv-x="0" >
  <font-face 
    font-family="Arimo Medium"
    font-weight="500"
    font-style="italic"
    font-stretch="normal"
    units-per-em="2048"
    panose-1="2 11 6 4 2 2 2 9 2 4"
    ascent="1638"
    descent="-410"
    x-height="1082"
    cap-height="1409"
    bbox="-984 -797 5728 2136"
    underline-thickness="150"
    underline-position="-442"
    slope="-12"
    unicode-range="U+000D-FFFD"
  />
<missing-glyph horiz-adv-x="1536" 
d="M1330 1409v-1409h-1125v1409h1125zM281 76h973v1257h-973v-1257z" />
    <glyph glyph-name=".notdef" horiz-adv-x="1536" 
d="M1330 1409v-1409h-1125v1409h1125zM281 76h973v1257h-973v-1257z" />
    <glyph glyph-name=".null" 
 />
    <glyph glyph-name=".null" 
 />
    <glyph glyph-name="nonmarkingreturn" unicode="&#xd;" horiz-adv-x="569" 
 />
    <glyph glyph-name="space" unicode=" " horiz-adv-x="569" 
 />
    <glyph glyph-name="exclam" unicode="!" horiz-adv-x="607" 
d="M582 1409l-222 -1002h-175l168 1002h229zM347 224l-44 -224h-225l44 224h225z" />
    <glyph glyph-name="quotedbl" unicode="&#x22;" horiz-adv-x="808" 
d="M866 1409l-113 -466h-168l67 466h214zM477 1409l-112 -466h-167l66 466h213z" />
    <glyph glyph-name="numbersign" unicode="#" horiz-adv-x="1139" 
d="M358 399l-83 -399h-124l82 399h-185v122h212l76 356h-237v122h262l87 400h124l-86 -400h345l86 400h126l-87 -400h195v-122h-221l-75 -356h245v-122h-270l-86 -399h-126l84 399h-344zM386 521h344l75 356h-342z" />
    <glyph glyph-name="dollar" unicode="$" horiz-adv-x="1139" 
d="M1075 441q0 -194 -139 -302.5t-404 -117.5l-32 -165h-113l32 167q-193 9 -301 100.5t-130 249.5l196 38q19 -106 83.5 -160t184.5 -61l88 458q-150 40 -229 96q-70 46 -106 111t-36 153q0 116 64 201q64 86 183 132t269 47l24 129l113 -1l-27 -135q158 -12 253.5 -88.5
t117.5 -204.5l-191 -49q-40 164 -211 182l-79 -412q200 -52 295 -143t95 -225zM379 1014q0 -61 41 -100.5t157 -75.5l76 387q-130 -4 -202 -59.5t-72 -151.5zM861 413q0 78 -48 125t-165 81l-84 -429q144 5 220.5 62.5t76.5 160.5z" />
    <glyph glyph-name="percent" unicode="%" horiz-adv-x="1821" 
d="M545 1421q134 0 205 -79t71 -229q0 -85 -19 -174q-14 -68 -36.5 -130t-55.5 -111q-115 -174 -304 -174q-130 0 -200.5 83t-70.5 234q0 127 39 251q91 329 371 329zM445 0h-175l1152 1409h178zM544 1299q-58 0 -96.5 -26t-67.5 -80q-24 -42 -42.5 -109t-29 -136.5
t-10.5 -120.5q0 -174 112 -174q80 0 132 61q32 38 55.5 100.5t37.5 135.5q22 103 22 181q0 168 -113 168zM1467 884q134 0 205 -79t71 -229q0 -84 -20 -177q-13 -68 -36 -129t-55 -109q-115 -174 -303 -174q-130 0 -201 83t-71 234q0 127 39 251q92 329 371 329zM1467 762
q-58 0 -97 -26t-68 -80q-24 -42 -42.5 -109t-29 -136.5t-10.5 -120.5q0 -174 113 -174q81 0 133 63q33 39 56 103.5t37 138.5q20 98 20 173q0 168 -112 168z" />
    <glyph glyph-name="ampersand" unicode="&#x26;" horiz-adv-x="1404" 
d="M1275 682q-62 -140 -135 -257.5t-152 -198.5q40 -36 88.5 -55t97.5 -19q62 0 112 16l-22 -158q-61 -22 -129 -22q-158 0 -283 120q-35 -26 -70 -46t-69 -34q-58 -23 -124 -35.5t-141 -12.5q-193 0 -301.5 99t-108.5 273q0 104 42.5 185t136.5 147t249 124
q-14 55 -22 114.5t-8 113.5q0 173 110.5 277t298.5 104q145 0 232 -70.5t87 -189.5q0 -108 -69.5 -188.5t-237.5 -155.5q-35 -19 -80 -39t-101 -42q40 -115 89 -208t114 -182q62 69 119.5 162t126.5 242zM617 1041q0 -80 19 -167q77 28 139 52.5t105 51.5q50 32 78.5 72
t28.5 96q0 60 -41.5 97t-109.5 37q-103 0 -161 -63.5t-58 -175.5zM466 131q75 0 146 24.5t132 68.5q-70 88 -131 201.5t-103 234.5q-154 -62 -213.5 -132.5t-59.5 -171.5q0 -102 63 -163.5t166 -61.5z" />
    <glyph glyph-name="quotesingle" unicode="'" horiz-adv-x="423" 
d="M480 1409l-112 -466h-167l66 466h213z" />
    <glyph glyph-name="parenleft" unicode="(" horiz-adv-x="682" 
d="M861 1484q-560 -506 -560 -1216q0 -392 187 -692h-207q-192 301 -192 708q0 369 144 674.5t419 525.5h209z" />
    <glyph glyph-name="parenright" unicode=")" horiz-adv-x="682" 
d="M-193 -424q561 510 561 1226q0 186 -48 361t-140 321h204q197 -303 197 -698q0 -373 -145 -681.5t-419 -528.5h-210z" />
    <glyph glyph-name="asterisk" unicode="*" horiz-adv-x="797" 
d="M774 764l-140 -88l-149 256l-154 -255l-141 89l189 236l-270 69l53 155l258 -106l-14 289h162l-15 -288l255 103l52 -153l-271 -69z" />
    <glyph glyph-name="plus" unicode="+" horiz-adv-x="1196" 
d="M717 595v-421h-173v421h-416v172h416v421h173v-421h417v-172h-417z" />
    <glyph glyph-name="comma" unicode="," horiz-adv-x="569" 
d="M315 56q-20 -103 -56 -183.5t-97 -152.5h-144q66 71 107 142.5t55 137.5h-102l48 248h226z" />
    <glyph glyph-name="hyphen" unicode="-" horiz-adv-x="682" 
d="M632 634l-37 -188h-506l36 188h507z" />
    <glyph glyph-name="hyphen" unicode="&#xad;" horiz-adv-x="682" 
d="M632 634l-37 -188h-506l36 188h507z" />
    <glyph glyph-name="period" unicode="." horiz-adv-x="569" 
d="M343 248l-48 -248h-226l48 248h226z" />
    <glyph glyph-name="slash" unicode="/" horiz-adv-x="569" 
d="M746 1484l-661 -1511h-188l665 1511h184z" />
    <glyph glyph-name="zero" unicode="0" horiz-adv-x="1139" 
d="M729 1430q188 0 290 -121t102 -345q0 -208 -65 -430q-76 -274 -221.5 -414t-357.5 -140q-188 0 -288.5 125t-100.5 356q0 111 20 236t58 243.5t90 209.5q80 138 196.5 209t276.5 71zM493 152q140 0 227 106q35 43 65 109t53.5 145.5t40.5 163t25.5 160.5t8.5 138
q0 142 -52 213.5t-150 71.5q-79 0 -137.5 -33t-102.5 -103q-39 -53 -70.5 -138.5t-55.5 -184.5t-37 -196.5t-13 -173.5q0 -139 51.5 -208.5t146.5 -69.5z" />
    <glyph glyph-name="one" unicode="1" horiz-adv-x="1139" 
d="M987 179l-35 -179h-906l35 179h355l199 1020l-368 -220l39 201l383 229h201l-239 -1230h336z" />
    <glyph glyph-name="two" unicode="2" horiz-adv-x="1139" 
d="M965 179l-34 -179h-950l29 150q45 76 99.5 137.5t114.5 113.5q48 43 96.5 80t105.5 76.5t129 87.5q72 47 130.5 90.5t99.5 86.5q49 52 77 111t28 130q0 89 -55.5 141.5t-152.5 52.5q-102 0 -174 -54.5t-106 -165.5l-202 44q54 173 179 261t317 88q128 0 221 -42.5
t144 -121.5t51 -186q0 -102 -48 -197q-32 -62 -84 -120t-137.5 -123.5t-219.5 -151.5q-142 -92 -228.5 -165.5t-132.5 -143.5h703z" />
    <glyph glyph-name="three" unicode="3" horiz-adv-x="1139" 
d="M556 806q171 0 256 68t85 197q0 86 -53 136t-147 50q-111 0 -187.5 -56t-107.5 -161l-208 27q56 183 188 273t325 90q192 0 302 -91.5t110 -252.5q0 -154 -96.5 -250t-268.5 -116l-1 -4q132 -25 204 -103.5t72 -201.5q0 -124 -61 -223q-63 -99 -178.5 -153.5
t-268.5 -54.5q-130 0 -230 41q-212 88 -254 319l204 44q23 -107 99 -168t195 -61q129 0 201.5 68t72.5 185q0 106 -68.5 162.5t-190.5 56.5h-119l35 179h90z" />
    <glyph glyph-name="four" unicode="4" horiz-adv-x="1139" 
d="M855 308l-59 -308h-209l59 308h-649l32 162l785 939h256l-182 -936h188l-33 -165h-188zM817 1173q-26 -35 -55 -71.5t-60 -74.5l-464 -554h441l103 538q8 41 16.5 81.5t18.5 80.5z" />
    <glyph glyph-name="five" unicode="5" horiz-adv-x="1139" 
d="M977 208q-68 -110 -190.5 -169t-287.5 -59q-190 0 -306.5 84.5t-155.5 251.5l203 43q27 -107 95.5 -156.5t177.5 -49.5q153 0 236.5 88t83.5 245q0 116 -62.5 183.5t-169.5 67.5q-150 0 -255 -98h-209l197 770h816l-33 -179h-623l-105 -409q47 40 116.5 65t153.5 25
q178 0 287 -109t109 -292q0 -177 -78 -302z" />
    <glyph glyph-name="six" unicode="6" horiz-adv-x="1139" 
d="M534 -20q-132 0 -228 60.5t-147 171t-51 260.5q0 251 84 480q83 230 229.5 354t334.5 124q160 0 258.5 -75.5t128.5 -218.5l-200 -38q-21 79 -71.5 120t-126.5 41q-147 0 -252 -136t-153 -390q58 84 146 130.5t198 46.5q113 0 196.5 -47t130 -132t46.5 -198
q0 -152 -67 -280q-68 -128 -188 -200.5t-268 -72.5zM315 424q0 -123 61.5 -198.5t168.5 -75.5q86 0 152 46.5t103.5 129t37.5 188.5q0 109 -55.5 171.5t-157.5 62.5q-85 0 -156 -39q-71 -40 -112.5 -113t-41.5 -172z" />
    <glyph glyph-name="seven" unicode="7" horiz-adv-x="1139" 
d="M447 0h-224q25 129 68.5 244.5t103.5 223.5q43 85 93 166t114.5 169t151 192t201.5 235h-766l34 179h985l-34 -172q-88 -103 -152.5 -181t-106.5 -131t-79.5 -103.5t-70.5 -98.5q-37 -54 -70 -106.5t-61 -104.5q-69 -123 -114 -248t-73 -264z" />
    <glyph glyph-name="eight" unicode="8" horiz-adv-x="1139" 
d="M705 1429q194 0 309.5 -91.5t115.5 -246.5q0 -140 -86 -236.5t-233 -118.5l-1 -4q111 -33 169.5 -111t58.5 -189q0 -208 -144 -330t-396 -122q-216 0 -334.5 101t-118.5 279q0 149 92 250.5t266 139.5v4q-92 39 -141 116t-49 182q0 177 132.5 277t359.5 100zM655 821
q120 0 188 67.5t68 190.5q0 94 -58 144t-171 50q-121 0 -189 -63t-68 -181q0 -98 61 -153t169 -55zM564 661q-142 0 -220.5 -79t-78.5 -219q0 -106 67 -166t187 -60q135 0 218 81.5t83 220.5q0 105 -68.5 163.5t-187.5 58.5z" />
    <glyph glyph-name="nine" unicode="9" horiz-adv-x="1139" 
d="M871 674q-66 -93 -147 -139.5t-185 -46.5q-113 0 -200 51q-86 49 -133.5 140t-47.5 206q0 151 67 277q68 126 189.5 197t270.5 71q132 0 226.5 -57.5t145.5 -164t51 -251.5q0 -107 -18.5 -223t-53 -224.5t-81.5 -195.5q-62 -114 -138 -188q-77 -75 -167.5 -110.5
t-187.5 -35.5q-164 0 -264.5 74.5t-134.5 220.5l196 46q21 -83 75 -126.5t139 -43.5q144 0 245 133.5t153 389.5zM902 1014q0 110 -63 177.5t-161 67.5q-137 0 -220 -100t-83 -273q0 -110 58 -172t157 -62q92 0 167 49q145 96 145 313z" />
    <glyph glyph-name="colon" unicode=":" horiz-adv-x="607" 
d="M517 1066l-45 -232h-226l45 232h226zM355 232l-45 -232h-226l45 232h226z" />
    <glyph glyph-name="semicolon" unicode=";" horiz-adv-x="607" 
d="M526 1066l-45 -232h-226l45 232h226zM330 56q-20 -103 -56 -183.5t-98 -152.5h-143q66 71 107 142.5t55 137.5h-102l45 232h226z" />
    <glyph glyph-name="semicolon" unicode="&#x37e;" horiz-adv-x="607" 
d="M526 1066l-45 -232h-226l45 232h226zM330 56q-20 -103 -56 -183.5t-98 -152.5h-143q66 71 107 142.5t55 137.5h-102l45 232h226z" />
    <glyph glyph-name="less" unicode="&#x3c;" horiz-adv-x="1196" 
d="M1134 322v-178l-1005 409v244l1005 409v-179l-849 -352z" />
    <glyph glyph-name="equal" unicode="=" horiz-adv-x="1196" 
d="M1133 1024v-173h-1005v173h1005zM1133 499v-173h-1005v173h1005z" />
    <glyph glyph-name="greater" unicode="&#x3e;" horiz-adv-x="1196" 
d="M1134 553l-1005 -409v178l849 353l-849 352v179l1005 -409v-244z" />
    <glyph glyph-name="question" unicode="?" horiz-adv-x="1176" 
d="M716 1430q135 0 234.5 -44.5t153.5 -124.5t54 -187q0 -80 -23 -139t-62 -104q-29 -39 -67 -71t-86.5 -63t-109.5 -66q-55 -32 -92 -59t-60 -52q-28 -29 -43.5 -59t-22.5 -68h-206q14 79 47 139q23 39 51.5 71.5t78.5 69t135 86.5q58 34 98.5 62t65.5 52q39 38 58 81.5
t19 98.5q0 86 -64.5 140t-175.5 54q-131 0 -215 -62.5t-118 -176.5l-199 40q62 194 199.5 288t349.5 94zM572 224l-43 -224h-227l44 224h226z" />
    <glyph glyph-name="at" unicode="@" horiz-adv-x="2052" 
d="M1927 755q0 -185 -59 -335q-60 -150 -165.5 -233t-233.5 -83q-98 0 -150 45.5t-52 129.5q1 17 1.5 34.5t2.5 34.5h-6q-61 -117 -158.5 -180.5t-207.5 -63.5q-157 0 -243.5 102t-86.5 283q0 163 65 305t180 224.5t256 82.5q211 0 289 -179h6l39 157h156l-116 -506
q-37 -164 -37 -249q0 -48 21.5 -70.5t58.5 -22.5q80 0 149 69q70 69 110 188.5t40 264.5q0 177 -77 315q-77 137 -221.5 211t-337.5 74q-241 0 -427 -106q-185 -107 -290.5 -307t-105.5 -449q0 -194 80 -341q78 -148 225 -225.5t344 -77.5q307 0 598 159l57 -115
q-152 -90 -318.5 -134t-339.5 -44q-238 0 -417 96q-180 95 -278.5 273t-98.5 409q0 280 126 510q125 229 346.5 356t496.5 127q241 0 417 -90q176 -91 269 -256t93 -383zM1307 748q0 100 -63.5 161.5t-168.5 61.5q-99 0 -175 -62q-78 -64 -122 -178t-44 -240
q0 -118 48 -185.5t147 -67.5q76 0 145.5 43.5t122.5 122.5q35 52 59.5 115t37.5 123.5t13 105.5z" />
    <glyph glyph-name="A" unicode="A" horiz-adv-x="1404" 
d="M380 395l-225 -395h-236l827 1409h261l274 -1409h-227l-69 395h-605zM845 1241q-8 -20 -22 -49t-35 -68l-312 -556h483l-90 519q-8 48 -13.5 86.5t-10.5 67.5z" />
    <glyph glyph-name="B" unicode="B" horiz-adv-x="1404" 
d="M1287 436q0 -212 -156 -324t-445 -112h-632l273 1409h535q223 0 346.5 -85t123.5 -238q0 -283 -334 -345q137 -23 213 -104.5t76 -200.5zM439 820h318q177 0 260.5 58.5t83.5 179.5q0 89 -63.5 132.5t-197.5 43.5h-321zM313 175h355q209 0 301 66t92 199q0 102 -75.5 155
t-226.5 53h-354z" />
    <glyph glyph-name="C" unicode="C" horiz-adv-x="1479" 
d="M1193 440l171 -98q-119 -187 -281 -274.5t-379 -87.5q-185 0 -319 73q-135 72 -205.5 205.5t-70.5 310.5q0 248 105 447t292 306.5t420 107.5q222 0 370.5 -93t197.5 -268l-211 -60q-34 110 -130 175t-236 65q-194 0 -331 -103q-121 -85 -186 -234.5t-65 -343.5
q0 -191 101 -299.5t283 -108.5q143 0 263 70.5t211 209.5z" />
    <glyph glyph-name="D" unicode="D" horiz-adv-x="1479" 
d="M741 1409q212 0 363.5 -73t231.5 -209.5t80 -330.5q0 -236 -102 -414t-293.5 -280t-432.5 -102h-534l273 1409h414zM314 178h266q184 0 324 75q140 74 215 214t75 326q0 209 -119 323.5t-336 114.5h-220z" />
    <glyph glyph-name="E" unicode="E" horiz-adv-x="1366" 
d="M1198 180l-35 -180h-1109l273 1409h1069l-35 -180h-843l-82 -419h783l-35 -179h-782l-88 -451h884z" />
    <glyph glyph-name="F" unicode="F" horiz-adv-x="1251" 
d="M386 553l-107 -553h-225l273 1409h1003l-35 -180h-777l-96 -495h753l-35 -181h-754z" />
    <glyph glyph-name="G" unicode="G" horiz-adv-x="1593" 
d="M741 -20q-303 0 -471.5 157t-168.5 439q0 251 105 446q104 196 296.5 302t440.5 106q224 0 370 -90.5t200 -261.5l-222 -62q-35 115 -127 174t-234 59q-180 0 -317 -83q-137 -82 -209.5 -233.5t-72.5 -350.5q0 -200 110.5 -311t311.5 -111q128 0 246 35t204 101l50 246
h-395l34 176h603l-102 -520q-145 -115 -302.5 -166.5t-349.5 -51.5z" />
    <glyph glyph-name="H" unicode="H" horiz-adv-x="1479" 
d="M403 637l-124 -637h-225l274 1409h225l-113 -584h720l113 584h219l-274 -1409h-219l124 637h-720z" />
    <glyph glyph-name="I" unicode="I" horiz-adv-x="569" 
d="M565 1409l-274 -1409h-225l274 1409h225z" />
    <glyph glyph-name="J" unicode="J" horiz-adv-x="1062" 
d="M414 -20q-169 0 -274 94t-135 281l201 41q23 -115 77.5 -175.5t148.5 -60.5q61 0 105 26q50 28 83 88.5t53 165.5l152 788h-287l34 181h513l-193 -986q-44 -226 -160 -334.5t-318 -108.5z" />
    <glyph glyph-name="K" unicode="K" horiz-adv-x="1404" 
d="M383 536l-104 -536h-225l273 1409h226l-134 -674l146 131l644 543h286l-749 -625l526 -784h-259l-433 663z" />
    <glyph glyph-name="L" unicode="L" horiz-adv-x="1176" 
d="M1041 180l-35 -180h-952l273 1409h226l-239 -1229h727z" />
    <glyph glyph-name="M" unicode="M" horiz-adv-x="1706" 
d="M445 990l-190 -990h-201l273 1409h289l156 -914q4 -36 11.5 -93t17.5 -136q24 49 46.5 97t45.5 94l523 952h302l-273 -1409h-202l177 913q16 83 33.5 160t34.5 148q-40 -87 -70 -147.5t-51 -101t-37 -68.5l-502 -904h-153l-155 905q-7 58 -17 137t-23 179
q-8 -61 -16.5 -118.5t-18.5 -112.5z" />
    <glyph glyph-name="N" unicode="N" horiz-adv-x="1479" 
d="M433 926l-178 -926h-201l273 1409h258l482 -1190q14 97 24 162.5t20 111.5l178 916h202l-273 -1409h-265l-479 1184q-11 -84 -21 -148.5t-20 -109.5z" />
    <glyph glyph-name="O" unicode="O" horiz-adv-x="1593" 
d="M935 1430q188 0 324.5 -71t210.5 -200.5t74 -307.5q-3 -260 -110 -459q-107 -198 -294 -305t-425 -107q-198 0 -338 78q-131 71 -200.5 203.5t-69.5 311.5q0 239 106 440q105 201 293.5 309t428.5 108zM924 1250q-187 0 -318 -85q-87 -56 -147.5 -151.5t-92 -211.5
t-31.5 -233q0 -201 101 -304.5t290 -103.5q185 0 315 83q87 55 148 148t93.5 209.5t32.5 238.5q0 197 -101.5 303.5t-289.5 106.5z" />
    <glyph glyph-name="P" unicode="P" horiz-adv-x="1366" 
d="M851 1409q236 0 371.5 -106.5t135.5 -293.5q0 -147 -69 -254.5t-196 -165.5t-302 -58h-408l-104 -531h-225l273 1409h524zM417 708h354q179 0 268.5 71t89.5 219q0 113 -74 173t-216 60h-320z" />
    <glyph glyph-name="Q" unicode="Q" horiz-adv-x="1593" 
d="M928 1430q189 0 325 -71t210 -200.5t74 -307.5q-3 -195 -69 -353q-71 -200 -219 -329q-168 -146 -407 -180q18 -113 66.5 -164.5t143.5 -51.5q67 0 132 13l-27 -154q-73 -23 -169 -23q-166 0 -255.5 88.5t-112.5 288.5q-124 12 -220.5 58t-162.5 122q-136 153 -136 407
q0 239 106 440q105 201 293 309t428 108zM917 1250q-186 0 -318 -85q-87 -56 -147.5 -151.5t-92 -211.5t-31.5 -233q0 -201 101 -304.5t290 -103.5q185 0 316 83q86 55 147.5 148t93.5 209.5t32 238.5q0 197 -101.5 303.5t-289.5 106.5z" />
    <glyph glyph-name="R" unicode="R" horiz-adv-x="1479" 
d="M389 568l-109 -568h-226l273 1409h625q156 0 267 -52q103 -47 158 -132t55 -197q0 -180 -108 -292t-311 -140l270 -596h-246l-238 568h-410zM862 745q169 0 255 70t86 197q0 106 -70.5 162.5t-207.5 56.5h-406l-95 -486h438z" />
    <glyph glyph-name="S" unicode="S" horiz-adv-x="1366" 
d="M611 -20q-255 0 -393.5 90.5t-170.5 276.5l214 41q25 -123 111.5 -178.5t254.5 -55.5q203 0 299 60t96 183q0 58 -24 96t-81 67q-33 19 -93 40t-147 44q-173 47 -261 99q-86 51 -130.5 122.5t-44.5 174.5q0 120 70 207.5t198.5 135t301.5 47.5q226 0 363 -79.5
t170 -232.5l-211 -56q-29 100 -110.5 151t-217.5 51q-166 0 -252.5 -54.5t-86.5 -160.5q0 -56 26 -92t81 -63q28 -14 83 -32t138 -40q118 -33 190 -63t116 -63q73 -49 111 -117.5t38 -165.5q0 -209 -159 -321t-479 -112z" />
    <glyph glyph-name="T" unicode="T" horiz-adv-x="1251" 
d="M870 1229l-239 -1229h-225l239 1229h-474l35 180h1174l-35 -180h-475z" />
    <glyph glyph-name="U" unicode="U" horiz-adv-x="1479" 
d="M660 -20q-243 0 -380.5 119.5t-137.5 331.5q0 44 7.5 105.5t15.5 98.5l149 774h226l-159 -832q-18 -89 -18 -153q0 -125 83 -194.5t230 -69.5q183 0 288.5 93t142.5 288l168 868h225l-171 -879q-54 -276 -221 -413t-448 -137z" />
    <glyph glyph-name="V" unicode="V" horiz-adv-x="1366" 
d="M1520 1409l-823 -1409h-245l-277 1409h231l170 -963q9 -66 16.5 -130t14.5 -125q29 59 58 114.5t56 107.5l557 996h242z" />
    <glyph glyph-name="W" unicode="W" horiz-adv-x="1933" 
d="M963 889l-404 -889h-267l-124 1409h225l64 -868q6 -80 9 -166.5t4 -179.5q38 90 71 167.5t61 143.5l414 903h227l60 -870q6 -77 10 -163t5 -181q30 67 50.5 118t38.5 96l451 1000h231l-671 -1409h-266l-56 867q-5 117 -8 196.5t-4 121.5q-36 -94 -66 -167.5t-55 -128.5z
" />
    <glyph glyph-name="X" unicode="X" horiz-adv-x="1366" 
d="M975 0l-286 581l-501 -581h-245l653 743l-339 666h235l255 -524l451 524h245l-600 -676l367 -733h-235z" />
    <glyph glyph-name="Y" unicode="Y" horiz-adv-x="1366" 
d="M802 582l-113 -582h-224l114 582l-380 827h228l291 -651l531 651h250z" />
    <glyph glyph-name="Z" unicode="Z" horiz-adv-x="1251" 
d="M1117 181l-35 -181h-1125l32 165l1011 1063h-731l35 181h1006l-31 -161l-1013 -1067h851z" />
    <glyph glyph-name="bracketleft" unicode="[" horiz-adv-x="607" 
d="M436 -275l-29 -150h-451l370 1909h452l-29 -149h-247l-313 -1610h247z" />
    <glyph glyph-name="backslash" unicode="\" horiz-adv-x="569" 
d="M312 1484l180 -1511h-182l-176 1511h178z" />
    <glyph glyph-name="bracketright" unicode="]" horiz-adv-x="607" 
d="M651 1484l-371 -1909h-451l29 150h247l313 1610h-248l29 149h452z" />
    <glyph glyph-name="asciicircum" unicode="^" horiz-adv-x="1039" 
d="M551 1293l-312 -673h-184l376 789h242l378 -789h-186z" />
    <glyph glyph-name="underscore" unicode="_" horiz-adv-x="1139" 
d="M1031 -173v-77h-1178v77h1178z" />
    <glyph glyph-name="grave" unicode="`" horiz-adv-x="682" 
d="M585 1219l-4 -24h-108l-290 277l6 34h224z" />
    <glyph glyph-name="a" unicode="a" horiz-adv-x="1139" 
d="M915 -10q-95 0 -141.5 39.5t-46.5 113.5q0 17 2 33t3 31h-6q-83 -127 -169.5 -177t-210.5 -50q-140 0 -226 84t-86 214q0 185 131 280t419 99l219 3q19 95 19 128q0 82 -45.5 122t-129.5 40q-111 0 -167 -40.5t-80 -121.5l-206 29q41 146 155.5 215.5t305.5 69.5
q183 0 281.5 -77.5t98.5 -217.5q0 -56 -21 -157l-73 -370q-10 -49 -10 -82q0 -39 23 -55t58 -16q30 0 60 7l-14 -126q-36 -11 -71.5 -14.5t-71.5 -3.5zM257 299q0 -73 45.5 -117.5t119.5 -44.5q91 0 165 48q64 37 106.5 96.5t57.5 129.5l25 114l-186 -3q-99 -2 -160 -18
t-97 -43q-35 -26 -55.5 -66.5t-20.5 -95.5z" />
    <glyph glyph-name="b" unicode="b" horiz-adv-x="1176" 
d="M781 1102q158 0 246 -94.5t88 -259.5q0 -102 -15.5 -200t-46.5 -193q-61 -191 -173 -283t-286 -92q-123 0 -200.5 52t-109.5 146h-3q-5 -26 -12.5 -58t-14.5 -58q-5 -22 -10 -38.5t-7 -23.5h-206q5 15 19.5 82t29.5 141l245 1261h214l-83 -424q-5 -26 -13.5 -61.5
t-20.5 -80.5h4q68 92 151.5 138t203.5 46zM706 944q-170 0 -260 -138q-32 -47 -55 -112t-38 -139q-19 -99 -19 -170q0 -119 60 -185.5t167 -66.5q117 0 184 72q33 35 60 96t46.5 134t30 145t10.5 129q0 117 -43.5 176t-142.5 59z" />
    <glyph glyph-name="c" unicode="c" horiz-adv-x="1062" 
d="M491 139q97 0 163 56t104 167l195 -50q-117 -332 -470 -332q-201 0 -309 110t-108 308q0 200 75 370q74 172 197.5 253t304.5 81q176 0 279.5 -88.5t114.5 -243.5l-213 -25q-5 97 -55 148t-137 51q-134 0 -207.5 -85.5t-116.5 -275.5q-11 -52 -16 -99.5t-5 -88.5
q0 -256 204 -256z" />
    <glyph glyph-name="d" unicode="d" horiz-adv-x="1176" 
d="M398 -21q-156 0 -244.5 97t-88.5 264q0 199 63 387q63 189 175.5 281.5t281.5 92.5q125 0 203 -51t109 -147h5q5 34 11.5 74.5t15.5 87.5l83 419h212l-243 -1258q-12 -66 -21 -122.5t-14 -103.5h-208q0 55 19 160h-5q-72 -94 -153.5 -137.5t-200.5 -43.5zM474 136
q180 0 272 156q31 52 53 123.5t34 146t12 134.5q0 124 -58 188.5t-164 64.5q-115 0 -184 -71q-46 -48 -79.5 -135.5t-51.5 -186.5t-18 -182q0 -118 44.5 -178t139.5 -60z" />
    <glyph glyph-name="e" unicode="e" horiz-adv-x="1139" 
d="M290 494q-6 -34 -8 -105q0 -124 59.5 -190t179.5 -66q89 0 159.5 46t110.5 129l174 -66q-74 -141 -186 -201.5t-278 -60.5q-205 0 -319.5 113t-114.5 316q0 202 71 362q72 158 202 244.5t295 86.5q207 0 320.5 -104.5t113.5 -295.5q0 -102 -24 -208h-755zM317 648h544
l3 67q0 118 -59.5 178.5t-166.5 60.5q-121 0 -204 -79t-117 -227z" />
    <glyph glyph-name="f" unicode="f" horiz-adv-x="607" 
d="M465 931l-181 -931h-213l181 931h-154l30 151h154l22 119q22 109 64 168t109.5 87t169.5 28q74 0 135 -14l-30 -151q-9 1 -21 3t-24 3t-24.5 1.5t-22.5 0.5q-65 0 -97 -32t-50 -120l-18 -93h212l-30 -151h-212z" />
    <glyph glyph-name="g" unicode="g" horiz-adv-x="1176" 
d="M408 -425q-179 0 -280 65t-128 197l203 38q32 -147 219 -147q131 0 203.5 69t105.5 230q8 45 17 88.5t16 85.5h-2q-62 -88 -110 -128q-48 -39 -107.5 -60t-136.5 -21q-153 0 -246.5 100.5t-93.5 265.5q0 82 14 170.5t39.5 171.5t61.5 149q64 129 163.5 190.5t240.5 61.5
q120 0 204 -56.5t109 -148.5h2q5 23 15 65t20 78.5t13 42.5h203l-19 -82l-30 -144l-163 -832q-47 -239 -175 -344t-358 -105zM292 381q0 -232 196 -232q102 0 185 75q83 74 128.5 204t45.5 270q0 118 -60 184t-166 66q-86 0 -142 -35t-95 -112q-26 -50 -46.5 -126
t-33 -154.5t-12.5 -139.5z" />
    <glyph glyph-name="h" unicode="h" horiz-adv-x="1176" 
d="M417 897q81 111 166.5 157.5t201.5 46.5q149 0 224.5 -73t75.5 -211q0 -30 -5.5 -75.5t-15.5 -88.5l-127 -653h-214l124 628q20 102 20 155q0 155 -170 155q-78 0 -146.5 -41.5t-117 -116t-67.5 -174.5l-118 -606h-214l288 1484h213l-76 -392q-9 -49 -20.5 -97.5
t-24.5 -97.5h3z" />
    <glyph glyph-name="i" unicode="i" horiz-adv-x="493" 
d="M535 1484l-36 -184h-214l37 184h213zM457 1082l-211 -1082h-212l210 1082h213z" />
    <glyph glyph-name="j" unicode="j" horiz-adv-x="493" 
d="M536 1484l-35 -184h-214l35 184h214zM-85 -425q-67 0 -141 16l27 153q22 -3 41 -5t34 -2q62 0 92.5 39.5t47.5 132.5l228 1173h214l-237 -1214q-30 -153 -106 -223t-200 -70z" />
    <glyph glyph-name="k" unicode="k" horiz-adv-x="1062" 
d="M323 393l-76 -393h-213l288 1484h214l-175 -895l189 178l343 315h255l-511 -451l316 -631h-230l-241 500z" />
    <glyph glyph-name="l" unicode="l" horiz-adv-x="493" 
d="M535 1484l-289 -1484h-212l288 1484h213z" />
    <glyph glyph-name="m" unicode="m" horiz-adv-x="1744" 
d="M664 0l124 634q22 113 22 162q0 70 -35.5 106.5t-114.5 36.5q-106 0 -186.5 -91.5t-107.5 -243.5l-118 -604h-214l166 851q20 95 39 231h204q0 -7 -5 -41.5t-11.5 -75t-11.5 -68.5h3q75 115 148.5 159.5t175.5 44.5q250 0 279 -232q82 128 163 180t187 52q136 0 209 -73
t73 -211q0 -63 -21 -164l-128 -653h-211l123 632q23 111 23 164q-1 70 -36.5 106.5t-113.5 36.5q-108 0 -187.5 -91t-107.5 -241l-118 -607h-212z" />
    <glyph glyph-name="n" unicode="n" horiz-adv-x="1176" 
d="M366 606l-118 -606h-214l166 851q10 45 19.5 102.5t19.5 128.5h203q0 -7 -5 -42.5t-11 -76.5t-11 -66h3q80 111 166 157.5t202 46.5q149 0 224.5 -73t75.5 -211q0 -30 -6 -75.5t-15 -88.5l-127 -653h-214l123 628q21 102 21 155q0 155 -170 155q-78 0 -146.5 -41.5
t-117 -116t-68.5 -174.5z" />
    <glyph glyph-name="o" unicode="o" horiz-adv-x="1176" 
d="M1111 683q0 -121 -33.5 -245t-96.5 -216q-77 -119 -199 -180.5t-276 -61.5q-204 0 -322 118t-118 321q3 205 76 360q73 157 204.5 239.5t316.5 82.5q218 0 333 -109.5t115 -308.5zM889 676q0 273 -235 273q-127 0 -204 -66q-51 -44 -87.5 -121t-56 -167t-19.5 -174
q0 -142 60 -215t176 -73q88 0 144.5 28t98.5 86q53 68 85 182t38 247z" />
    <glyph glyph-name="p" unicode="p" horiz-adv-x="1176" 
d="M590 -20q-124 0 -201.5 52t-109.5 146h-4q-1 -14 -5 -40.5t-11 -65.5q-9 -52 -33 -176.5t-62 -320.5h-213l247 1277l10 50t9 50q5 33 9 65.5t8 64.5h203q0 -15 -3 -48t-7.5 -66t-8.5 -50h4q73 97 154.5 140.5t200.5 43.5q157 0 245 -94.5t88 -259.5q0 -203 -61 -393
q-61 -191 -173.5 -283t-285.5 -92zM702 944q-108 0 -180 -56t-116 -169q-23 -47 -40.5 -106t-26.5 -118.5t-9 -109.5q0 -119 60 -185.5t167 -66.5q117 0 184 72q34 36 61 96t46 132t28.5 144.5t9.5 131.5q0 117 -44 176t-140 59z" />
    <glyph glyph-name="q" unicode="q" horiz-adv-x="1176" 
d="M399 -21q-156 0 -244.5 95.5t-88.5 263.5q0 200 62 389q63 188 175.5 281t281.5 93q126 0 201 -49.5t110 -148.5h5q9 38 17.5 77t17.5 70t14 41h205q-9 -30 -22.5 -90t-30.5 -151q-43 -221 -105.5 -540.5t-142.5 -734.5h-214l85 437l34 149h-4q-74 -96 -156 -139
t-200 -43zM475 136q108 0 180 56.5t115 170.5q24 46 41 104.5t26 118.5t9 110q0 122 -57 187.5t-161 65.5q-119 0 -188 -70q-46 -46 -79.5 -134t-52 -188t-18.5 -185q0 -117 45 -176.5t140 -59.5z" />
    <glyph glyph-name="r" unicode="r" horiz-adv-x="720" 
d="M760 910q-51 13 -98 13q-74 0 -136 -46.5t-106 -130.5t-65 -199l-107 -547h-214l162 830q6 33 12 65.5t12 65.5q5 30 10 60.5t9 60.5h202l-25 -170l-8 -51h4q68 133 134.5 187t153.5 54q44 0 97 -14z" />
    <glyph glyph-name="s" unicode="s" horiz-adv-x="1062" 
d="M938 323q0 -166 -125.5 -254.5t-363.5 -88.5q-183 0 -290 62.5t-148 196.5l182 49q29 -83 94 -121t179 -38q268 0 268 172q0 59 -47 96q-49 37 -205 81q-126 37 -194 77q-72 42 -107.5 99t-35.5 134q0 150 119 230.5t338 80.5q186 0 286 -66t123 -200l-192 -26
q-21 75 -78 109t-154 34q-117 0 -178 -36.5t-61 -104.5q0 -39 20.5 -65.5t59.5 -46.5q39 -21 181 -62q130 -37 198 -81q65 -41 98 -98t33 -133z" />
    <glyph glyph-name="t" unicode="t" horiz-adv-x="607" 
d="M309 -19q-98 0 -153 53.5t-55 145.5q0 62 15 139l118 612h-133l30 151h139l115 246h139l-47 -246h200l-29 -151h-201l-118 -608q-12 -59 -12 -93q0 -45 23 -67t66 -22q37 0 103 14l-24 -150q-93 -24 -176 -24z" />
    <glyph glyph-name="u" unicode="u" horiz-adv-x="1176" 
d="M753 185q-80 -112 -166 -158t-201 -46q-150 0 -225 73t-75 211q0 20 2.5 47.5t7.5 58t11 58.5l127 653h213l-123 -628q-21 -101 -21 -155q0 -155 170 -155q79 0 147 41.5t117 116.5t68 174l118 606h214l-166 -851q-9 -45 -18.5 -102.5t-20.5 -128.5h-202q0 7 4.5 42.5
t11.5 77t10 65.5h-3z" />
    <glyph glyph-name="v" unicode="v" horiz-adv-x="1062" 
d="M1159 1082l-614 -1082h-254l-180 1082h221l91 -671q3 -20 6 -51.5t7 -68.5t6 -75l4 -53l25 52q23 51 47 99t48 95l361 673h232z" />
    <glyph glyph-name="w" unicode="w" horiz-adv-x="1517" 
d="M764 755l-341 -755h-238l-84 1082h205l31 -722q2 -44 3 -87.5t2 -88.5q20 48 39.5 96t40.5 95l325 707h229l44 -707q3 -52 4 -99.5t1 -91.5q10 21 27 62t44 101l325 735h206l-513 -1082h-238l-39 685l-6 234q-18 -48 -35 -89.5t-32 -74.5z" />
    <glyph glyph-name="x" unicode="x" horiz-adv-x="1062" 
d="M511 424l-363 -424h-233l498 558l-269 524h223l186 -396l332 396h240l-473 -524l285 -558h-225z" />
    <glyph glyph-name="y" unicode="y" horiz-adv-x="1062" 
d="M40 -425q-79 0 -146 15l34 155q45 -8 80 -8q89 0 157.5 58t134.5 174l27 47l-215 1066h219l98 -564q7 -37 13.5 -83t12.5 -91t10 -80t4 -50q5 11 10.5 23t12.5 26l128 247l307 572h232l-635 -1101q-111 -186 -177 -258q-67 -75 -141 -111.5t-166 -36.5z" />
    <glyph glyph-name="z" unicode="z" horiz-adv-x="1024" 
d="M863 161l-30 -161h-844l28 158l699 764h-524l30 160h779l-29 -158l-698 -763h589z" />
    <glyph glyph-name="braceleft" unicode="{" horiz-adv-x="722" 
d="M373 -425q-113 0 -179.5 64.5t-66.5 176.5q0 56 10 112l58 294q8 40 8 74q0 81 -47 118.5t-136 40.5l30 149q221 6 265 233l69 354q28 144 106.5 218.5t224.5 74.5h154l-29 -149h-67q-87 0 -133.5 -47t-69.5 -165l-66 -341q-19 -94 -86 -161.5t-162 -88.5v-3
q71 -17 112.5 -67.5t41.5 -127.5q0 -27 -5 -56l-63 -324q-4 -23 -7.5 -58t-3.5 -53q0 -55 34 -86.5t104 -31.5h58l-29 -150h-125z" />
    <glyph glyph-name="bar" unicode="|" horiz-adv-x="546" 
d="M404 1484v-1928h-198v1928h198z" />
    <glyph glyph-name="braceright" unicode="}" horiz-adv-x="722" 
d="M338 1484q114 0 180.5 -64.5t66.5 -176.5q0 -57 -10 -111l-58 -294q-8 -39 -8 -74q0 -81 46.5 -118.5t135.5 -41.5l-29 -148q-221 -6 -265 -234l-69 -353q-29 -146 -107.5 -220t-223.5 -74h-155l29 149h68q86 0 133 47t70 165l66 341q19 95 86 162t161 88l1 3
q-71 17 -113 67.5t-42 127.5q0 28 6 57l62 323q5 24 8.5 59.5t3.5 51.5q0 55 -34 87t-104 32h-59l29 149h125z" />
    <glyph glyph-name="asciitilde" unicode="~" horiz-adv-x="1196" 
d="M879 541q-71 0 -143.5 21.5t-146.5 47.5q-131 46 -218 46q-68 0 -126.5 -21t-123.5 -67v166q111 84 265 84q61 0 125.5 -15t133.5 -39q81 -28 126.5 -41.5t72.5 -17.5t52 -4q130 0 245 92v-172q-61 -43 -119 -61.5t-143 -18.5z" />
    <glyph glyph-name="nbspace" unicode="&#xa0;" horiz-adv-x="569" 
 />
    <glyph glyph-name="exclamdown" unicode="&#xa1;" horiz-adv-x="682" 
d="M553 1083l-44 -224h-225l44 224h225zM270 675h175l-167 -1001h-229z" />
    <glyph glyph-name="cent" unicode="&#xa2;" horiz-adv-x="1139" 
d="M556 295q97 0 163 55.5t104 166.5l195 -49q-56 -159 -164 -241t-267 -91l-32 -167h-137l33 173q-154 24 -237 131t-83 281q0 115 25 219q21 88 54 163t78 131q66 88 159 135.5t221 53.5l29 153h137l-30 -159q134 -20 211.5 -106t86.5 -219l-213 -24q-5 96 -55 147
t-137 51q-120 0 -192 -69q-43 -41 -76 -115t-54 -167q-12 -54 -17.5 -104t-5.5 -93q0 -256 204 -256z" />
    <glyph glyph-name="sterling" unicode="&#xa3;" horiz-adv-x="1139" 
d="M1085 328q-39 -161 -143.5 -244.5t-261.5 -83.5h-705l32 171q96 43 154 117.5t81 192.5l27 137h-186l27 143h184l53 273q40 206 151.5 301t302.5 95q158 0 256.5 -68t119.5 -185l-191 -50q-19 71 -70 106t-123 35q-102 0 -158.5 -54t-79.5 -172l-55 -281h368l-28 -143
h-367l-27 -140q-21 -106 -82 -186t-152 -120h446q100 0 163 43.5t88 141.5z" />
    <glyph glyph-name="currency" unicode="&#xa4;" horiz-adv-x="1139" 
d="M160 684q0 132 72 242l-111 111l121 120l110 -111q109 74 243 74q131 0 240 -73l110 110l122 -123l-110 -109q74 -112 74 -241q0 -132 -74 -240l111 -111l-121 -124l-111 113q-110 -72 -241 -72q-136 0 -242 72l-115 -115l-120 122l113 114q-71 109 -71 241zM338 686
q0 -70 34.5 -128t92.5 -93t130 -35q69 0 127 34.5t93.5 92.5t35.5 129t-35 129t-93 93t-128 35q-71 0 -129.5 -35t-93 -93.5t-34.5 -128.5z" />
    <glyph glyph-name="yen" unicode="&#xa5;" horiz-adv-x="1139" 
d="M618 281l-54 -281h-210l55 281h-366l26 133h366l32 157h-367l25 132h305l-264 706h223l215 -630l464 630h234l-540 -706h306l-25 -132h-368l-31 -157h368l-26 -133h-368z" />
    <glyph glyph-name="brokenbar" unicode="&#xa6;" horiz-adv-x="546" 
d="M404 1485v-768h-198v768h198zM404 324v-769h-198v769h198z" />
    <glyph glyph-name="section" unicode="&#xa7;" horiz-adv-x="1139" 
d="M1033 671q0 -112 -65 -183.5t-201 -106.5q132 -79 132 -224q0 -168 -128.5 -258t-373.5 -90q-187 0 -294 62t-140 196l180 50q26 -87 92 -125.5t179 -38.5q141 0 214 45.5t73 132.5q0 37 -17.5 65t-50.5 50q-49 35 -210 80q-323 91 -323 318q0 218 274 281
q-138 84 -138 230q0 151 119 230.5t348 79.5q183 0 284.5 -65.5t118.5 -195.5l-190 -25q-17 72 -75 107t-150 35q-256 0 -256 -153q0 -48 45 -87q27 -26 80.5 -48t133.5 -46q181 -52 260 -129.5t79 -186.5zM299 667q0 -44 26.5 -79.5t81.5 -65.5q54 -29 160 -59
q125 7 195.5 52.5t70.5 125.5q0 45 -23.5 79t-68.5 60q-53 32 -195 71q-113 -6 -180 -55t-67 -129z" />
    <glyph glyph-name="dieresis" unicode="&#xa8;" horiz-adv-x="682" 
d="M762 1408l-38 -196h-187l37 196h188zM362 1408l-38 -196h-188l38 196h188z" />
    <glyph glyph-name="copyright" unicode="&#xa9;" horiz-adv-x="1509" 
d="M1509 707q0 -193 -96 -361q-97 -169 -265.5 -265.5t-361.5 -96.5q-196 0 -366 101q-169 101 -263 267t-94 355q0 194 97 361q97 168 265 265t361 97q194 0 363 -97q168 -97 264 -264.5t96 -361.5zM1410 707q0 167 -83 311q-84 144 -229 227t-312 83q-165 0 -309 -82
t-228.5 -226.5t-84.5 -312.5t84 -312q83 -144 226.5 -227.5t311.5 -83.5t313 84q145 83 228 227.5t83 311.5zM797 281q-189 0 -293.5 112.5t-104.5 315.5t100.5 312t290.5 109q249 0 344 -216l-128 -35q-30 66 -85 100t-128 34q-121 0 -184.5 -77t-63.5 -227q0 -148 67 -230
t185 -82q150 0 221 152l130 -39q-61 -122 -146 -175.5t-205 -53.5z" />
    <glyph glyph-name="ordfeminine" unicode="&#xaa;" horiz-adv-x="758" 
d="M708 670q-66 0 -101.5 28.5t-35.5 76.5l4 40h-4q-62 -85 -123 -118t-139 -33q-97 0 -156 55t-59 148q0 122 88.5 185t271.5 65l161 4q16 83 16 104q0 95 -112 95q-70 0 -111 -30t-55 -90l-145 18q26 102 103.5 155.5t210.5 53.5q129 0 196.5 -51t67.5 -145q0 -18 -3 -39
t-8 -43l-52 -268q-3 -15 -4 -27.5t-2 -23.5q0 -51 49 -51q18 0 43 7l-13 -103q-35 -13 -88 -13zM261 881q0 -48 28 -74.5t75 -26.5q51 0 97 25.5t79 69t44 96.5l12 55l-125 -4q-108 -2 -159 -37.5t-51 -103.5z" />
    <glyph glyph-name="guillemotleft" unicode="&#xab;" horiz-adv-x="1139" 
d="M975 169l-5 -29h-184l-242 364l13 66l381 369h185l-6 -38l-383 -370zM504 168l-5 -28h-184l-240 364l12 66l380 369h184l-6 -39l-381 -370z" />
    <glyph glyph-name="logicalnot" unicode="&#xac;" horiz-adv-x="1196" 
d="M1097 767v-600h-171v428h-834v172h1005z" />
    <glyph glyph-name="registered" unicode="&#xae;" horiz-adv-x="1509" 
d="M1509 707q0 -193 -96 -361q-97 -169 -265.5 -265.5t-361.5 -96.5q-196 0 -366 101q-169 101 -263 267t-94 355q0 194 97 361q97 168 265 265t361 97q194 0 363 -97q168 -97 264 -264.5t96 -361.5zM1410 707q0 167 -83 311q-84 144 -229 227t-312 83q-165 0 -309 -82
t-228.5 -226.5t-84.5 -312.5t84 -312q83 -144 226.5 -227.5t311.5 -83.5t313 84q145 83 228 227.5t83 311.5zM637 620v-328h-144v825h315q146 0 221.5 -63.5t75.5 -174.5q0 -100 -50.5 -160.5t-133.5 -81.5l218 -345h-163l-192 328h-147zM960 877q0 65 -44 99t-121 34h-158
v-283h170q75 0 114 40t39 110z" />
    <glyph glyph-name="overscore" unicode="&#xaf;" horiz-adv-x="1131" 
d="M1148 1595v-109h-1165v109h1165z" />
    <glyph glyph-name="degree" unicode="&#xb0;" horiz-adv-x="819" 
d="M790 1133q0 -81 -40.5 -148.5t-108 -107t-149.5 -39.5t-149.5 40t-108 107t-40.5 149q0 81 40 148t107.5 106.5t150.5 39.5t150.5 -39.5t107.5 -106t40 -149.5zM665 1133q0 74 -50 125t-124 51q-73 0 -123 -51.5t-50 -124.5q0 -72 51 -124t123 -52q71 0 122 51.5
t51 124.5z" />
    <glyph glyph-name="plusminus" unicode="&#xb1;" horiz-adv-x="1124" 
d="M661 689v-377h-172v377h-417v171h417v376h172v-376h417v-171h-417zM1078 171v-171h-1006v171h1006z" />
    <glyph glyph-name="twosuperior" unicode="&#xb2;" horiz-adv-x="682" 
d="M44 607l20 109q28 46 69 87q25 25 53.5 48.5t69.5 50.5t102 63q108 62 145 93q42 33 62 68.5t20 78.5q0 44 -30 74.5t-85 30.5q-62 0 -104.5 -34t-56.5 -93l-137 22q29 109 106 163.5t202 54.5q117 0 187 -57t70 -149q0 -52 -20 -97q-18 -39 -47.5 -72.5t-67.5 -62.5
q-26 -19 -67 -46t-98 -59q-80 -46 -126.5 -80t-71.5 -70h415l-22 -123h-588z" />
    <glyph glyph-name="threesuperior" unicode="&#xb3;" horiz-adv-x="682" 
d="M335 1075h58q85 0 132.5 36t47.5 99q0 45 -29 73t-81 28q-60 0 -102 -31t-59 -90l-137 25q31 104 107.5 156t204.5 52q113 0 181.5 -52.5t68.5 -142.5q0 -83 -53 -137.5t-153 -71.5v-2q70 -13 113 -57.5t43 -110.5q0 -114 -88 -183t-233 -69q-256 0 -289 221l147 19
q8 -64 47.5 -97t104.5 -33q72 0 114.5 38.5t42.5 106.5q0 50 -38.5 79t-108.5 29h-63z" />
    <glyph glyph-name="acute" unicode="&#xb4;" horiz-adv-x="682" 
d="M688 1472l-375 -277h-111l4 24l251 287h237z" />
    <glyph glyph-name="mu1" unicode="&#xb5;" horiz-adv-x="1180" 
d="M271 -44l-74 -381h-213l292 1507h214l-128 -659q-5 -31 -8.5 -57.5t-3.5 -49.5q0 -172 150 -172q101 0 176 90t103 249l116 599h213l-153 -790q-9 -42 -9 -77q0 -71 54 -71q15 0 53 8l-20 -150q-84 -22 -145 -22q-74 0 -107.5 37t-37.5 112v38h-2q-57 -91 -126.5 -139
t-156.5 -48q-61 0 -103.5 22t-63.5 61h-2z" />
    <glyph glyph-name="paragraph" unicode="&#xb6;" horiz-adv-x="1113" 
d="M621 1293v-1557h-127v958q-169 0 -266 92.5t-97 262.5q0 169 98.5 264.5t272.5 95.5h585v-116h-130v-1557h-127v1557h-209z" />
    <glyph glyph-name="middot" unicode="&#xb7;" horiz-adv-x="682" 
d="M485 723l-49 -249h-226l49 249h226z" />
    <glyph glyph-name="cedilla" unicode="&#xb8;" horiz-adv-x="682" 
d="M339 -92q78 -3 119.5 -38t41.5 -96q0 -97 -78.5 -148t-238.5 -51q-25 0 -51.5 1.5t-54.5 5.5l23 99q45 -6 86 -6q88 0 125.5 20.5t37.5 64.5q0 69 -116 69q-19 0 -33 -0.5t-24 -1.5l100 173h119z" />
    <glyph glyph-name="onesuperior" unicode="&#xb9;" horiz-adv-x="682" 
d="M644 718l-21 -112h-550l21 112h202l109 562l-217 -128l25 128l226 130h140l-135 -692h200z" />
    <glyph glyph-name="ordmasculine" unicode="&#xba;" horiz-adv-x="748" 
d="M405 664q-144 0 -224 78.5t-80 217.5q0 63 14 127q33 166 136 253t267 87q148 0 227 -76.5t79 -214.5q0 -61 -12 -121q-32 -171 -136.5 -261t-270.5 -90zM509 1310q-88 0 -139 -47q-33 -30 -56 -81.5t-35 -111.5t-12 -116q0 -173 148 -173q49 0 83 12.5t59 36.5
q33 31 55.5 86.5t35 117.5t12.5 111q0 87 -39.5 126t-111.5 39z" />
    <glyph glyph-name="guillemotright" unicode="&#xbb;" horiz-adv-x="1139" 
d="M1052 506l-380 -366h-185l6 40l383 367l-238 365l4 27h181l242 -367zM581 506l-379 -366h-186l7 40l383 367l-239 365l4 27h183l239 -367z" />
    <glyph glyph-name="onequarter" unicode="&#xbc;" horiz-adv-x="1708" 
d="M667 718l-21 -112h-550l21 112h202l109 562l-217 -128l25 128l226 130h140l-135 -692h200zM1558 1409l-1130 -1409h-168l1129 1409h169zM1431 166l-32 -165h-148l32 165h-386l24 123l454 516h180l-100 -516h118l-24 -123h-118zM1384 670q-29 -37 -53.5 -67.5t-47.5 -58.5
l-223 -255h247l57 288z" />
    <glyph glyph-name="onehalf" unicode="&#xbd;" horiz-adv-x="1708" 
d="M635 718l-21 -112h-550l21 112h202l109 562l-217 -128l25 128l226 130h140l-135 -692h200zM1525 1409l-1130 -1409h-168l1129 1409h169zM941 1l20 109q28 46 69 87q25 25 53.5 48.5t69.5 50.5t102 63q108 62 145 93q42 33 62 68.5t20 78.5q0 44 -30 74.5t-85 30.5
q-62 0 -104.5 -34t-56.5 -93l-137 22q29 109 106 163.5t202 54.5q117 0 187 -57t70 -149q0 -52 -20 -97q-18 -39 -47.5 -72.5t-67.5 -62.5q-26 -19 -67 -46t-98 -59q-80 -46 -126.5 -80t-71.5 -70h415l-22 -123h-588z" />
    <glyph glyph-name="threequarters" unicode="&#xbe;" horiz-adv-x="1708" 
d="M395 1075h58q85 0 132.5 36t47.5 99q0 45 -29 73t-81 28q-60 0 -102 -31t-59 -90l-137 25q31 104 107.5 156t204.5 52q113 0 181.5 -52.5t68.5 -142.5q0 -83 -53 -137.5t-153 -71.5v-2q70 -13 113 -57.5t43 -110.5q0 -114 -88 -183t-233 -69q-256 0 -289 221l147 19
q8 -64 47.5 -97t104.5 -33q72 0 114.5 38.5t42.5 106.5q0 50 -38.5 79t-108.5 29h-63zM1558 1409l-1130 -1409h-168l1129 1409h169zM1431 166l-32 -165h-148l32 165h-386l24 123l454 516h180l-100 -516h118l-24 -123h-118zM1384 670q-29 -37 -53.5 -67.5t-47.5 -58.5
l-223 -255h247l57 288z" />
    <glyph glyph-name="questiondown" unicode="&#xbf;" horiz-adv-x="1251" 
d="M908 1083l-43 -224h-227l44 224h226zM495 -347q-135 0 -235 44.5t-154 125t-54 186.5q0 80 23.5 139t62.5 105q30 38 67.5 70.5t85.5 63.5t110 65q55 32 92 59.5t60 50.5q29 30 44 60.5t21 66.5h206q-14 -79 -47 -137q-22 -39 -51 -72t-78 -69.5t-136 -86.5
q-57 -34 -97.5 -62t-65.5 -51q-39 -38 -58.5 -81t-19.5 -100q0 -87 64.5 -140.5t175.5 -53.5q131 0 215 62.5t118 176.5l199 -40q-61 -194 -198.5 -288t-349.5 -94z" />
    <glyph glyph-name="Agrave" unicode="&#xc0;" horiz-adv-x="1404" 
d="M392 395l-225 -395h-236l827 1409h261l274 -1409h-227l-69 395h-605zM857 1241q-8 -20 -22 -49t-35 -68l-312 -556h483l-90 519q-8 48 -13.5 86.5t-10.5 67.5zM1056 1554l-4 -24h-106l-296 223l6 34h217z" />
    <glyph glyph-name="Aacute" unicode="&#xc1;" horiz-adv-x="1404" 
d="M392 395l-225 -395h-236l827 1409h261l274 -1409h-227l-69 395h-605zM857 1241q-8 -20 -22 -49t-35 -68l-312 -556h483l-90 519q-8 48 -13.5 86.5t-10.5 67.5zM1239 1753l-363 -223h-126l4 24l264 233h227z" />
    <glyph glyph-name="Acircumflex" unicode="&#xc2;" horiz-adv-x="1404" 
d="M392 395l-225 -395h-236l827 1409h261l274 -1409h-227l-69 395h-605zM857 1241q-8 -20 -22 -49t-35 -68l-312 -556h483l-90 519q-8 48 -13.5 86.5t-10.5 67.5zM922 1673l-253 -143h-132l5 23l290 252h212l184 -252l-5 -23h-113l-186 143h-2z" />
    <glyph glyph-name="Atilde" unicode="&#xc3;" horiz-adv-x="1404" 
d="M392 395l-225 -395h-236l827 1409h261l274 -1409h-227l-69 395h-605zM857 1241q-8 -20 -22 -49t-35 -68l-312 -556h483l-90 519q-8 48 -13.5 86.5t-10.5 67.5zM1047 1530q-53 0 -103 31.5t-95 63.5t-88 32q-45 0 -75 -28.5t-55 -98.5h-112q45 154 108.5 215t152.5 61
q56 0 105.5 -32t94.5 -63.5t86 -31.5q45 0 76.5 31t52.5 96h113q-34 -116 -75 -175q-34 -49 -79.5 -75t-106.5 -26z" />
    <glyph glyph-name="Adieresis" unicode="&#xc4;" horiz-adv-x="1404" 
d="M392 395l-225 -395h-236l827 1409h261l274 -1409h-227l-69 395h-605zM857 1241q-8 -20 -22 -49t-35 -68l-312 -556h483l-90 519q-8 48 -13.5 86.5t-10.5 67.5zM1232 1726l-38 -196h-187l37 196h188zM832 1726l-38 -196h-188l38 196h188z" />
    <glyph glyph-name="Aring" unicode="&#xc5;" horiz-adv-x="1404" 
d="M380 395l-225 -395h-236l827 1409h261l274 -1409h-227l-69 395h-605zM845 1241q-8 -20 -22 -49t-35 -68l-312 -556h483l-90 519q-8 48 -13.5 86.5t-10.5 67.5zM1127 1543q0 -67 -33.5 -123t-89 -89.5t-123.5 -33.5t-124 33.5t-89 89.5t-33 123q0 69 33.5 124.5t89 88.5
t123.5 33q67 0 123 -33.5t89.5 -89t33.5 -123.5zM1012 1543q0 56 -37.5 93.5t-93.5 37.5q-57 0 -94.5 -38t-37.5 -93t37.5 -94.5t94.5 -39.5q56 0 93.5 39t37.5 95z" />
    <glyph glyph-name="AE" unicode="&#xc6;" horiz-adv-x="2048" 
d="M420 395l-267 -395h-239l961 1409h1203l-35 -180h-727l-81 -419h665l-34 -177h-666l-87 -453h767l-35 -180h-991l78 395h-512zM534 568h431l130 671h-121l-136 -214z" />
    <glyph glyph-name="Ccedilla" unicode="&#xc7;" horiz-adv-x="1479" 
d="M1187 440l171 -98q-119 -187 -281 -274.5t-379 -87.5q-185 0 -319 73q-135 72 -205.5 205.5t-70.5 310.5q0 248 105 447t292 306.5t420 107.5q222 0 370.5 -93t197.5 -268l-211 -60q-34 110 -130 175t-236 65q-194 0 -331 -103q-121 -85 -186 -234.5t-65 -343.5
q0 -191 101 -299.5t283 -108.5q143 0 263 70.5t211 209.5zM715 -92q78 -3 119.5 -38t41.5 -96q0 -97 -78.5 -148t-238.5 -51q-25 0 -51.5 1.5t-54.5 5.5l23 99q45 -6 86 -6q88 0 125.5 20.5t37.5 64.5q0 69 -116 69q-19 0 -33 -0.5t-24 -1.5l100 173h119z" />
    <glyph glyph-name="Egrave" unicode="&#xc8;" horiz-adv-x="1366" 
d="M1198 180l-35 -180h-1109l273 1409h1069l-35 -180h-843l-82 -419h783l-35 -179h-782l-88 -451h884zM1021 1554l-4 -24h-106l-296 223l6 34h217z" />
    <glyph glyph-name="Eacute" unicode="&#xc9;" horiz-adv-x="1366" 
d="M1198 180l-35 -180h-1109l273 1409h1069l-35 -180h-843l-82 -419h783l-35 -179h-782l-88 -451h884zM1212 1753l-363 -223h-126l4 24l264 233h227z" />
    <glyph glyph-name="Ecircumflex" unicode="&#xca;" horiz-adv-x="1366" 
d="M1198 180l-35 -180h-1109l273 1409h1069l-35 -180h-843l-82 -419h783l-35 -179h-782l-88 -451h884zM916 1673l-253 -143h-132l5 23l290 252h212l184 -252l-5 -23h-113l-186 143h-2z" />
    <glyph glyph-name="Edieresis" unicode="&#xcb;" horiz-adv-x="1366" 
d="M1198 180l-35 -180h-1109l273 1409h1069l-35 -180h-843l-82 -419h783l-35 -179h-782l-88 -451h884zM1208 1726l-38 -196h-187l37 196h188zM808 1726l-38 -196h-188l38 196h188z" />
    <glyph glyph-name="Igrave" unicode="&#xcc;" horiz-adv-x="569" 
d="M565 1409l-274 -1409h-225l274 1409h225zM606 1554l-4 -24h-106l-296 223l6 34h217z" />
    <glyph glyph-name="Iacute" unicode="&#xcd;" horiz-adv-x="569" 
d="M565 1409l-274 -1409h-225l274 1409h225zM841 1753l-363 -223h-126l4 24l264 233h227z" />
    <glyph glyph-name="Icircumflex" unicode="&#xce;" horiz-adv-x="569" 
d="M565 1409l-274 -1409h-225l274 1409h225zM506 1673l-253 -143h-132l5 23l290 252h212l184 -252l-5 -23h-113l-186 143h-2z" />
    <glyph glyph-name="Idieresis" unicode="&#xcf;" horiz-adv-x="569" 
d="M565 1409l-274 -1409h-225l274 1409h225zM801 1726l-38 -196h-187l37 196h188zM401 1726l-38 -196h-188l38 196h188z" />
    <glyph glyph-name="Eth" unicode="&#xd0;" horiz-adv-x="1479" 
d="M754 1409q213 0 364 -73t231 -209.5t80 -330.5q0 -233 -98 -413q-99 -179 -289 -281t-429 -102h-559l122 629h-146l34 176h146l117 604h427zM314 178h279q184 0 324 75q140 74 215.5 214t75.5 326q0 209 -119.5 323.5t-336.5 114.5h-233l-84 -426h390l-35 -176h-389z" />
    <glyph glyph-name="Ntilde" unicode="&#xd1;" horiz-adv-x="1479" 
d="M433 926l-178 -926h-201l273 1409h258l482 -1190q14 97 24 162.5t20 111.5l178 916h202l-273 -1409h-265l-479 1184q-11 -84 -21 -148.5t-20 -109.5zM1090 1530q-53 0 -103 31.5t-95 63.5t-88 32q-45 0 -75 -28.5t-55 -98.5h-112q45 154 108.5 215t152.5 61
q56 0 105.5 -32t94.5 -63.5t86 -31.5q45 0 76.5 31t52.5 96h113q-34 -116 -75 -175q-34 -49 -79.5 -75t-106.5 -26z" />
    <glyph glyph-name="Ograve" unicode="&#xd2;" horiz-adv-x="1593" 
d="M935 1430q188 0 324.5 -71t210.5 -200.5t74 -307.5q-3 -260 -110 -459q-107 -198 -294 -305t-425 -107q-198 0 -338 78q-131 71 -200.5 203.5t-69.5 311.5q0 239 106 440q105 201 293.5 309t428.5 108zM924 1250q-187 0 -318 -85q-87 -56 -147.5 -151.5t-92 -211.5
t-31.5 -233q0 -201 101 -304.5t290 -103.5q185 0 315 83q87 55 148 148t93.5 209.5t32.5 238.5q0 197 -101.5 303.5t-289.5 106.5zM1086 1554l-4 -24h-106l-296 223l6 34h217z" />
    <glyph glyph-name="Oacute" unicode="&#xd3;" horiz-adv-x="1593" 
d="M935 1430q188 0 324.5 -71t210.5 -200.5t74 -307.5q-3 -260 -110 -459q-107 -198 -294 -305t-425 -107q-198 0 -338 78q-131 71 -200.5 203.5t-69.5 311.5q0 239 106 440q105 201 293.5 309t428.5 108zM924 1250q-187 0 -318 -85q-87 -56 -147.5 -151.5t-92 -211.5
t-31.5 -233q0 -201 101 -304.5t290 -103.5q185 0 315 83q87 55 148 148t93.5 209.5t32.5 238.5q0 197 -101.5 303.5t-289.5 106.5zM1319 1753l-363 -223h-126l4 24l264 233h227z" />
    <glyph glyph-name="Ocircumflex" unicode="&#xd4;" horiz-adv-x="1593" 
d="M935 1430q188 0 324.5 -71t210.5 -200.5t74 -307.5q-3 -260 -110 -459q-107 -198 -294 -305t-425 -107q-198 0 -338 78q-131 71 -200.5 203.5t-69.5 311.5q0 239 106 440q105 201 293.5 309t428.5 108zM924 1250q-187 0 -318 -85q-87 -56 -147.5 -151.5t-92 -211.5
t-31.5 -233q0 -201 101 -304.5t290 -103.5q185 0 315 83q87 55 148 148t93.5 209.5t32.5 238.5q0 197 -101.5 303.5t-289.5 106.5zM977 1673l-253 -143h-132l5 23l290 252h212l184 -252l-5 -23h-113l-186 143h-2z" />
    <glyph glyph-name="Otilde" unicode="&#xd5;" horiz-adv-x="1593" 
d="M935 1430q188 0 324.5 -71t210.5 -200.5t74 -307.5q-3 -260 -110 -459q-107 -198 -294 -305t-425 -107q-198 0 -338 78q-131 71 -200.5 203.5t-69.5 311.5q0 239 106 440q105 201 293.5 309t428.5 108zM924 1250q-187 0 -318 -85q-87 -56 -147.5 -151.5t-92 -211.5
t-31.5 -233q0 -201 101 -304.5t290 -103.5q185 0 315 83q87 55 148 148t93.5 209.5t32.5 238.5q0 197 -101.5 303.5t-289.5 106.5zM1136 1530q-53 0 -103 31.5t-95 63.5t-88 32q-45 0 -75 -28.5t-55 -98.5h-112q45 154 108.5 215t152.5 61q56 0 105.5 -32t94.5 -63.5
t86 -31.5q45 0 76.5 31t52.5 96h113q-34 -116 -75 -175q-34 -49 -79.5 -75t-106.5 -26z" />
    <glyph glyph-name="Odieresis" unicode="&#xd6;" horiz-adv-x="1593" 
d="M935 1430q188 0 324.5 -71t210.5 -200.5t74 -307.5q-3 -260 -110 -459q-107 -198 -294 -305t-425 -107q-198 0 -338 78q-131 71 -200.5 203.5t-69.5 311.5q0 239 106 440q105 201 293.5 309t428.5 108zM924 1250q-187 0 -318 -85q-87 -56 -147.5 -151.5t-92 -211.5
t-31.5 -233q0 -201 101 -304.5t290 -103.5q185 0 315 83q87 55 148 148t93.5 209.5t32.5 238.5q0 197 -101.5 303.5t-289.5 106.5zM1285 1726l-38 -196h-187l37 196h188zM885 1726l-38 -196h-188l38 196h188z" />
    <glyph glyph-name="multiply" unicode="&#xd7;" horiz-adv-x="1196" 
d="M633 562l-356 -356l-120 123l354 355l-352 352l122 121l351 -352l351 351l122 -123l-350 -350l352 -351l-121 -123z" />
    <glyph glyph-name="Oslash" unicode="&#xd8;" horiz-adv-x="1593" 
d="M1427 1212q110 -146 110 -361q-3 -260 -110 -459q-106 -198 -293 -305t-426 -107q-242 0 -393 113l-146 -146h-195l242 243q-115 151 -115 383q0 239 106 440q105 201 293 309t428 108q245 0 401 -119l155 155h196zM917 1250q-186 0 -318 -85q-87 -56 -147.5 -151.5
t-92 -211.5t-31.5 -233q0 -132 44 -221l813 816q-102 86 -268 86zM1308 840q0 123 -40 210l-809 -811q95 -78 260 -78q185 0 316 83q86 55 147.5 148t93.5 209.5t32 238.5z" />
    <glyph glyph-name="Ugrave" unicode="&#xd9;" horiz-adv-x="1479" 
d="M660 -20q-243 0 -380.5 119.5t-137.5 331.5q0 44 7.5 105.5t15.5 98.5l149 774h226l-159 -832q-18 -89 -18 -153q0 -125 83 -194.5t230 -69.5q183 0 288.5 93t142.5 288l168 868h225l-171 -879q-54 -276 -221 -413t-448 -137zM1073 1554l-4 -24h-106l-296 223l6 34h217z
" />
    <glyph glyph-name="Uacute" unicode="&#xda;" horiz-adv-x="1479" 
d="M660 -20q-243 0 -380.5 119.5t-137.5 331.5q0 44 7.5 105.5t15.5 98.5l149 774h226l-159 -832q-18 -89 -18 -153q0 -125 83 -194.5t230 -69.5q183 0 288.5 93t142.5 288l168 868h225l-171 -879q-54 -276 -221 -413t-448 -137zM1269 1753l-363 -223h-126l4 24l264 233h227
z" />
    <glyph glyph-name="Ucircumflex" unicode="&#xdb;" horiz-adv-x="1479" 
d="M660 -20q-243 0 -380.5 119.5t-137.5 331.5q0 44 7.5 105.5t15.5 98.5l149 774h226l-159 -832q-18 -89 -18 -153q0 -125 83 -194.5t230 -69.5q183 0 288.5 93t142.5 288l168 868h225l-171 -879q-54 -276 -221 -413t-448 -137zM957 1673l-253 -143h-132l5 23l290 252h212
l184 -252l-5 -23h-113l-186 143h-2z" />
    <glyph glyph-name="Udieresis" unicode="&#xdc;" horiz-adv-x="1479" 
d="M660 -20q-243 0 -380.5 119.5t-137.5 331.5q0 44 7.5 105.5t15.5 98.5l149 774h226l-159 -832q-18 -89 -18 -153q0 -125 83 -194.5t230 -69.5q183 0 288.5 93t142.5 288l168 868h225l-171 -879q-54 -276 -221 -413t-448 -137zM1248 1726l-38 -196h-187l37 196h188z
M848 1726l-38 -196h-188l38 196h188z" />
    <glyph glyph-name="Yacute" unicode="&#xdd;" horiz-adv-x="1366" 
d="M802 582l-113 -582h-224l114 582l-380 827h228l291 -651l531 651h250zM1196 1753l-363 -223h-126l4 24l264 233h227z" />
    <glyph glyph-name="Thorn" unicode="&#xde;" horiz-adv-x="1366" 
d="M337 288l-57 -288h-226l274 1409h226l-48 -243h300q240 0 373.5 -105.5t133.5 -294.5q0 -147 -69 -254.5t-196 -165.5t-302 -58h-409zM372 465h354q179 0 268.5 71t89.5 219q0 113 -74 173t-216 60h-320z" />
    <glyph glyph-name="germandbls" unicode="&#xdf;" horiz-adv-x="1251" 
d="M1133 320q0 -161 -109 -253.5t-298 -92.5q-91 0 -172.5 15.5t-132.5 40.5l60 157q64 -30 121 -42.5t117 -12.5q100 0 153.5 47t53.5 132q0 54 -31 101.5t-102 107.5q-70 57 -102 110t-32 113q0 74 37.5 130t113.5 105q81 52 115.5 98t34.5 104q0 64 -52 103t-143 39
q-136 0 -212.5 -74t-106.5 -227l-198 -1021h-214l200 1027q48 237 181.5 347t358.5 110q178 0 284 -79.5t106 -208.5q0 -156 -151 -261q-95 -66 -122 -96q-30 -32 -30 -68q0 -44 38 -87q15 -19 39.5 -43t58.5 -55q136 -118 136 -266z" />
    <glyph glyph-name="agrave" unicode="&#xe0;" horiz-adv-x="1139" 
d="M919 -10q-95 0 -141.5 39.5t-46.5 113.5q0 17 2 33t3 31h-6q-83 -127 -169.5 -177t-210.5 -50q-140 0 -226 84t-86 214q0 185 131 280t419 99l219 3q19 95 19 128q0 82 -45.5 122t-129.5 40q-111 0 -167 -40.5t-80 -121.5l-206 29q41 146 155.5 215.5t305.5 69.5
q183 0 281.5 -77.5t98.5 -217.5q0 -56 -21 -157l-73 -370q-10 -49 -10 -82q0 -39 23 -55t58 -16q30 0 60 7l-14 -126q-36 -11 -71.5 -14.5t-71.5 -3.5zM261 299q0 -73 45.5 -117.5t119.5 -44.5q91 0 165 48q64 37 106.5 96.5t57.5 129.5l25 114l-186 -3q-99 -2 -160 -18
t-97 -43q-35 -26 -55.5 -66.5t-20.5 -95.5zM847 1219l-4 -24h-108l-290 277l6 34h224z" />
    <glyph glyph-name="aacute" unicode="&#xe1;" horiz-adv-x="1139" 
d="M919 -10q-95 0 -141.5 39.5t-46.5 113.5q0 17 2 33t3 31h-6q-83 -127 -169.5 -177t-210.5 -50q-140 0 -226 84t-86 214q0 185 131 280t419 99l219 3q19 95 19 128q0 82 -45.5 122t-129.5 40q-111 0 -167 -40.5t-80 -121.5l-206 29q41 146 155.5 215.5t305.5 69.5
q183 0 281.5 -77.5t98.5 -217.5q0 -56 -21 -157l-73 -370q-10 -49 -10 -82q0 -39 23 -55t58 -16q30 0 60 7l-14 -126q-36 -11 -71.5 -14.5t-71.5 -3.5zM261 299q0 -73 45.5 -117.5t119.5 -44.5q91 0 165 48q64 37 106.5 96.5t57.5 129.5l25 114l-186 -3q-99 -2 -160 -18
t-97 -43q-35 -26 -55.5 -66.5t-20.5 -95.5zM1027 1472l-375 -277h-111l4 24l251 287h237z" />
    <glyph glyph-name="acircumflex" unicode="&#xe2;" horiz-adv-x="1139" 
d="M919 -10q-95 0 -141.5 39.5t-46.5 113.5q0 17 2 33t3 31h-6q-83 -127 -169.5 -177t-210.5 -50q-140 0 -226 84t-86 214q0 185 131 280t419 99l219 3q19 95 19 128q0 82 -45.5 122t-129.5 40q-111 0 -167 -40.5t-80 -121.5l-206 29q41 146 155.5 215.5t305.5 69.5
q183 0 281.5 -77.5t98.5 -217.5q0 -56 -21 -157l-73 -370q-10 -49 -10 -82q0 -39 23 -55t58 -16q30 0 60 7l-14 -126q-36 -11 -71.5 -14.5t-71.5 -3.5zM261 299q0 -73 45.5 -117.5t119.5 -44.5q91 0 165 48q64 37 106.5 96.5t57.5 129.5l25 114l-186 -3q-99 -2 -160 -18
t-97 -43q-35 -26 -55.5 -66.5t-20.5 -95.5zM724 1372l-260 -177h-133l4 23l297 286h213l176 -286l-4 -23h-111l-180 177h-2z" />
    <glyph glyph-name="atilde" unicode="&#xe3;" horiz-adv-x="1139" 
d="M919 -10q-95 0 -141.5 39.5t-46.5 113.5q0 17 2 33t3 31h-6q-83 -127 -169.5 -177t-210.5 -50q-140 0 -226 84t-86 214q0 185 131 280t419 99l219 3q19 95 19 128q0 82 -45.5 122t-129.5 40q-111 0 -167 -40.5t-80 -121.5l-206 29q41 146 155.5 215.5t305.5 69.5
q183 0 281.5 -77.5t98.5 -217.5q0 -56 -21 -157l-73 -370q-10 -49 -10 -82q0 -39 23 -55t58 -16q30 0 60 7l-14 -126q-36 -11 -71.5 -14.5t-71.5 -3.5zM261 299q0 -73 45.5 -117.5t119.5 -44.5q91 0 165 48q64 37 106.5 96.5t57.5 129.5l25 114l-186 -3q-99 -2 -160 -18
t-97 -43q-35 -26 -55.5 -66.5t-20.5 -95.5zM838 1195q-53 0 -103 30.5t-95.5 60t-88.5 29.5q-48 0 -80.5 -28.5t-55.5 -91.5h-105q44 154 107.5 215t153.5 61q55 0 104.5 -29.5t95.5 -60t86 -30.5q48 0 81 29.5t54 90.5h107q-32 -109 -70 -167q-34 -53 -81 -81t-110 -28z
" />
    <glyph glyph-name="adieresis" unicode="&#xe4;" horiz-adv-x="1139" 
d="M919 -10q-95 0 -141.5 39.5t-46.5 113.5q0 17 2 33t3 31h-6q-83 -127 -169.5 -177t-210.5 -50q-140 0 -226 84t-86 214q0 185 131 280t419 99l219 3q19 95 19 128q0 82 -45.5 122t-129.5 40q-111 0 -167 -40.5t-80 -121.5l-206 29q41 146 155.5 215.5t305.5 69.5
q183 0 281.5 -77.5t98.5 -217.5q0 -56 -21 -157l-73 -370q-10 -49 -10 -82q0 -39 23 -55t58 -16q30 0 60 7l-14 -126q-36 -11 -71.5 -14.5t-71.5 -3.5zM261 299q0 -73 45.5 -117.5t119.5 -44.5q91 0 165 48q64 37 106.5 96.5t57.5 129.5l25 114l-186 -3q-99 -2 -160 -18
t-97 -43q-35 -26 -55.5 -66.5t-20.5 -95.5zM1011 1408l-38 -196h-187l37 196h188zM611 1408l-38 -196h-188l38 196h188z" />
    <glyph glyph-name="aring" unicode="&#xe5;" horiz-adv-x="1139" 
d="M919 -10q-95 0 -141.5 39.5t-46.5 113.5q0 17 2 33t3 31h-6q-83 -127 -169.5 -177t-210.5 -50q-140 0 -226 84t-86 214q0 185 131 280t419 99l219 3q19 95 19 128q0 82 -45.5 122t-129.5 40q-111 0 -167 -40.5t-80 -121.5l-206 29q41 146 155.5 215.5t305.5 69.5
q183 0 281.5 -77.5t98.5 -217.5q0 -56 -21 -157l-73 -370q-10 -49 -10 -82q0 -39 23 -55t58 -16q30 0 60 7l-14 -126q-36 -11 -71.5 -14.5t-71.5 -3.5zM261 299q0 -73 45.5 -117.5t119.5 -44.5q91 0 165 48q64 37 106.5 96.5t57.5 129.5l25 114l-186 -3q-99 -2 -160 -18
t-97 -43q-35 -26 -55.5 -66.5t-20.5 -95.5zM971 1417q0 -67 -33.5 -123t-89 -89.5t-123.5 -33.5t-124 33.5t-89 89.5t-33 123q0 69 33.5 124.5t89 88.5t123.5 33q67 0 123 -33.5t89.5 -89t33.5 -123.5zM856 1417q0 56 -37.5 93.5t-93.5 37.5q-57 0 -94.5 -38t-37.5 -93
t37.5 -94.5t94.5 -39.5q56 0 93.5 39t37.5 95z" />
    <glyph glyph-name="ae" unicode="&#xe6;" horiz-adv-x="1821" 
d="M1002 494q-7 -34 -9 -105q0 -124 56.5 -190t167.5 -66q83 0 147.5 44t105.5 131l173 -66q-72 -141 -179.5 -201.5t-267.5 -60.5q-150 0 -246 65t-136 187q-77 -113 -172 -173q-63 -40 -133.5 -59.5t-160.5 -19.5q-103 0 -177 46q-66 39 -101 104.5t-35 147.5
q0 187 135.5 282t424.5 98l222 2q20 95 20 128q0 162 -181 162q-114 0 -171.5 -40.5t-82.5 -121.5l-207 29q43 146 160 215.5t313 69.5q216 0 316 -143q130 143 344 143q200 0 310 -105t110 -295q0 -48 -7 -107t-17 -101h-722zM1029 648h510l4 67q0 118 -56 178.5t-157 60.5
q-114 0 -191.5 -79t-109.5 -227zM262 299q0 -75 42.5 -118.5t116.5 -43.5q91 0 168 45q71 40 119 107t64 145l18 89l-191 -3q-133 -3 -205 -33q-132 -50 -132 -188z" />
    <glyph glyph-name="ccedilla" unicode="&#xe7;" horiz-adv-x="1062" 
d="M491 139q97 0 163 56t104 167l195 -50q-117 -332 -470 -332q-201 0 -309 110t-108 308q0 200 75 370q74 172 197.5 253t304.5 81q176 0 279.5 -88.5t114.5 -243.5l-213 -25q-5 97 -55 148t-137 51q-134 0 -207.5 -85.5t-116.5 -275.5q-11 -52 -16 -99.5t-5 -88.5
q0 -256 204 -256zM492 -92q78 -3 119.5 -38t41.5 -96q0 -97 -78.5 -148t-238.5 -51q-25 0 -51.5 1.5t-54.5 5.5l23 99q45 -6 86 -6q88 0 125.5 20.5t37.5 64.5q0 69 -116 69q-19 0 -33 -0.5t-24 -1.5l100 173h119z" />
    <glyph glyph-name="egrave" unicode="&#xe8;" horiz-adv-x="1139" 
d="M290 494q-6 -34 -8 -105q0 -124 59.5 -190t179.5 -66q89 0 159.5 46t110.5 129l174 -66q-74 -141 -186 -201.5t-278 -60.5q-205 0 -319.5 113t-114.5 316q0 202 71 362q72 158 202 244.5t295 86.5q207 0 320.5 -104.5t113.5 -295.5q0 -102 -24 -208h-755zM317 648h544
l3 67q0 118 -59.5 178.5t-166.5 60.5q-121 0 -204 -79t-117 -227zM823 1219l-4 -24h-108l-290 277l6 34h224z" />
    <glyph glyph-name="eacute" unicode="&#xe9;" horiz-adv-x="1139" 
d="M290 494q-6 -34 -8 -105q0 -124 59.5 -190t179.5 -66q89 0 159.5 46t110.5 129l174 -66q-74 -141 -186 -201.5t-278 -60.5q-205 0 -319.5 113t-114.5 316q0 202 71 362q72 158 202 244.5t295 86.5q207 0 320.5 -104.5t113.5 -295.5q0 -102 -24 -208h-755zM317 648h544
l3 67q0 118 -59.5 178.5t-166.5 60.5q-121 0 -204 -79t-117 -227zM1016 1472l-375 -277h-111l4 24l251 287h237z" />
    <glyph glyph-name="ecircumflex" unicode="&#xea;" horiz-adv-x="1139" 
d="M290 494q-6 -34 -8 -105q0 -124 59.5 -190t179.5 -66q89 0 159.5 46t110.5 129l174 -66q-74 -141 -186 -201.5t-278 -60.5q-205 0 -319.5 113t-114.5 316q0 202 71 362q72 158 202 244.5t295 86.5q207 0 320.5 -104.5t113.5 -295.5q0 -102 -24 -208h-755zM317 648h544
l3 67q0 118 -59.5 178.5t-166.5 60.5q-121 0 -204 -79t-117 -227zM719 1372l-260 -177h-133l4 23l297 286h213l176 -286l-4 -23h-111l-180 177h-2z" />
    <glyph glyph-name="edieresis" unicode="&#xeb;" horiz-adv-x="1139" 
d="M290 494q-6 -34 -8 -105q0 -124 59.5 -190t179.5 -66q89 0 159.5 46t110.5 129l174 -66q-74 -141 -186 -201.5t-278 -60.5q-205 0 -319.5 113t-114.5 316q0 202 71 362q72 158 202 244.5t295 86.5q207 0 320.5 -104.5t113.5 -295.5q0 -102 -24 -208h-755zM317 648h544
l3 67q0 118 -59.5 178.5t-166.5 60.5q-121 0 -204 -79t-117 -227zM998 1408l-38 -196h-187l37 196h188zM598 1408l-38 -196h-188l38 196h188z" />
    <glyph glyph-name="igrave" unicode="&#xec;" horiz-adv-x="569" 
d="M495 1082l-211 -1082h-213l210 1082h214zM519 1219l-4 -24h-108l-290 277l6 34h224z" />
    <glyph glyph-name="iacute" unicode="&#xed;" horiz-adv-x="569" 
d="M495 1082l-211 -1082h-213l210 1082h214zM747 1472l-375 -277h-111l4 24l251 287h237z" />
    <glyph glyph-name="icircumflex" unicode="&#xee;" horiz-adv-x="569" 
d="M495 1082l-211 -1082h-213l210 1082h214zM441 1372l-260 -177h-133l4 23l297 286h213l176 -286l-4 -23h-111l-180 177h-2z" />
    <glyph glyph-name="idieresis" unicode="&#xef;" horiz-adv-x="569" 
d="M495 1082l-211 -1082h-213l210 1082h214zM739 1408l-38 -196h-187l37 196h188zM339 1408l-38 -196h-188l38 196h188z" />
    <glyph glyph-name="eth" unicode="&#xf0;" horiz-adv-x="1176" 
d="M637 1320q-105 100 -204 164h215q37 -19 75 -44t76 -55l274 104l-24 -131l-161 -62q110 -134 157.5 -269.5t47.5 -298.5q0 -210 -63 -382q-66 -182 -196 -272.5t-331 -90.5q-206 0 -322.5 114t-116.5 308q0 174 76 313q68 127 188.5 194t291.5 67q73 0 143.5 -26
t106.5 -65q-18 99 -58 186t-95 152l-274 -112l25 139zM621 826q-110 0 -186 -55q-48 -35 -81.5 -96.5t-51 -135.5t-17.5 -149q0 -120 60 -187t169 -67q149 0 233 112q36 44 62 108.5t39.5 135.5t13.5 133q0 57 -31 105q-30 45 -84.5 70.5t-125.5 25.5z" />
    <glyph glyph-name="ntilde" unicode="&#xf1;" horiz-adv-x="1176" 
d="M366 606l-118 -606h-214l166 851q10 45 19.5 102.5t19.5 128.5h203q0 -7 -5 -42.5t-11 -76.5t-11 -66h3q80 111 166 157.5t202 46.5q149 0 224.5 -73t75.5 -211q0 -30 -6 -75.5t-15 -88.5l-127 -653h-214l123 628q21 102 21 155q0 155 -170 155q-78 0 -146.5 -41.5
t-117 -116t-68.5 -174.5zM869 1195q-53 0 -103 30.5t-95.5 60t-88.5 29.5q-48 0 -80.5 -28.5t-55.5 -91.5h-105q44 154 107.5 215t153.5 61q55 0 104.5 -29.5t95.5 -60t86 -30.5q48 0 81 29.5t54 90.5h107q-32 -109 -70 -167q-34 -53 -81 -81t-110 -28z" />
    <glyph glyph-name="ograve" unicode="&#xf2;" horiz-adv-x="1176" 
d="M1115 683q0 -121 -33.5 -245t-96.5 -216q-77 -119 -199 -180.5t-276 -61.5q-204 0 -322 118t-118 321q3 205 76 360q73 157 204.5 239.5t316.5 82.5q218 0 333 -109.5t115 -308.5zM893 676q0 273 -235 273q-127 0 -204 -66q-51 -44 -87.5 -121t-56 -167t-19.5 -174
q0 -142 60 -215t176 -73q88 0 144.5 28t98.5 86q53 68 85 182t38 247zM838 1219l-4 -24h-108l-290 277l6 34h224z" />
    <glyph glyph-name="oacute" unicode="&#xf3;" horiz-adv-x="1176" 
d="M1115 683q0 -121 -33.5 -245t-96.5 -216q-77 -119 -199 -180.5t-276 -61.5q-204 0 -322 118t-118 321q3 205 76 360q73 157 204.5 239.5t316.5 82.5q218 0 333 -109.5t115 -308.5zM893 676q0 273 -235 273q-127 0 -204 -66q-51 -44 -87.5 -121t-56 -167t-19.5 -174
q0 -142 60 -215t176 -73q88 0 144.5 28t98.5 86q53 68 85 182t38 247zM1048 1472l-375 -277h-111l4 24l251 287h237z" />
    <glyph glyph-name="ocircumflex" unicode="&#xf4;" horiz-adv-x="1176" 
d="M1115 683q0 -121 -33.5 -245t-96.5 -216q-77 -119 -199 -180.5t-276 -61.5q-204 0 -322 118t-118 321q3 205 76 360q73 157 204.5 239.5t316.5 82.5q218 0 333 -109.5t115 -308.5zM893 676q0 273 -235 273q-127 0 -204 -66q-51 -44 -87.5 -121t-56 -167t-19.5 -174
q0 -142 60 -215t176 -73q88 0 144.5 28t98.5 86q53 68 85 182t38 247zM743 1372l-260 -177h-133l4 23l297 286h213l176 -286l-4 -23h-111l-180 177h-2z" />
    <glyph glyph-name="otilde" unicode="&#xf5;" horiz-adv-x="1176" 
d="M1115 683q0 -121 -33.5 -245t-96.5 -216q-77 -119 -199 -180.5t-276 -61.5q-204 0 -322 118t-118 321q3 205 76 360q73 157 204.5 239.5t316.5 82.5q218 0 333 -109.5t115 -308.5zM893 676q0 273 -235 273q-127 0 -204 -66q-51 -44 -87.5 -121t-56 -167t-19.5 -174
q0 -142 60 -215t176 -73q88 0 144.5 28t98.5 86q53 68 85 182t38 247zM840 1195q-53 0 -103 30.5t-95.5 60t-88.5 29.5q-48 0 -80.5 -28.5t-55.5 -91.5h-105q44 154 107.5 215t153.5 61q55 0 104.5 -29.5t95.5 -60t86 -30.5q48 0 81 29.5t54 90.5h107q-32 -109 -70 -167
q-34 -53 -81 -81t-110 -28z" />
    <glyph glyph-name="odieresis" unicode="&#xf6;" horiz-adv-x="1176" 
d="M1115 683q0 -121 -33.5 -245t-96.5 -216q-77 -119 -199 -180.5t-276 -61.5q-204 0 -322 118t-118 321q3 205 76 360q73 157 204.5 239.5t316.5 82.5q218 0 333 -109.5t115 -308.5zM893 676q0 273 -235 273q-127 0 -204 -66q-51 -44 -87.5 -121t-56 -167t-19.5 -174
q0 -142 60 -215t176 -73q88 0 144.5 28t98.5 86q53 68 85 182t38 247zM1027 1408l-38 -196h-187l37 196h188zM627 1408l-38 -196h-188l38 196h188z" />
    <glyph glyph-name="divide" unicode="&#xf7;" horiz-adv-x="1124" 
d="M675 1159v-200h-191v200h191zM1083 767v-172h-1005v172h1005zM675 405v-200h-191v200h191z" />
    <glyph glyph-name="oslash" unicode="&#xf8;" horiz-adv-x="1251" 
d="M192 135q-88 111 -88 284q4 205 76 360q74 157 205.5 239.5t315.5 82.5q162 0 269 -63l67 78h174l-142 -165q81 -104 81 -268q0 -138 -45 -267q-64 -214 -206.5 -323.5t-354.5 -109.5q-149 0 -253 64l-73 -85h-175zM326 421q0 -64 13 -116l511 594q-59 50 -157 50
q-128 0 -204 -66q-51 -44 -87.5 -121t-56 -167t-19.5 -174zM928 676q0 54 -11 98l-508 -590q58 -48 153 -48q129 0 202 64q73 62 115 191t49 285z" />
    <glyph glyph-name="ugrave" unicode="&#xf9;" horiz-adv-x="1176" 
d="M753 185q-80 -112 -166 -158t-201 -46q-150 0 -225 73t-75 211q0 20 2.5 47.5t7.5 58t11 58.5l127 653h213l-123 -628q-21 -101 -21 -155q0 -155 170 -155q79 0 147 41.5t117 116.5t68 174l118 606h214l-166 -851q-9 -45 -18.5 -102.5t-20.5 -128.5h-202q0 7 4.5 42.5
t11.5 77t10 65.5h-3zM845 1219l-4 -24h-108l-290 277l6 34h224z" />
    <glyph glyph-name="uacute" unicode="&#xfa;" horiz-adv-x="1176" 
d="M753 185q-80 -112 -166 -158t-201 -46q-150 0 -225 73t-75 211q0 20 2.5 47.5t7.5 58t11 58.5l127 653h213l-123 -628q-21 -101 -21 -155q0 -155 170 -155q79 0 147 41.5t117 116.5t68 174l118 606h214l-166 -851q-9 -45 -18.5 -102.5t-20.5 -128.5h-202q0 7 4.5 42.5
t11.5 77t10 65.5h-3zM1048 1472l-375 -277h-111l4 24l251 287h237z" />
    <glyph glyph-name="ucircumflex" unicode="&#xfb;" horiz-adv-x="1176" 
d="M753 185q-80 -112 -166 -158t-201 -46q-150 0 -225 73t-75 211q0 20 2.5 47.5t7.5 58t11 58.5l127 653h213l-123 -628q-21 -101 -21 -155q0 -155 170 -155q79 0 147 41.5t117 116.5t68 174l118 606h214l-166 -851q-9 -45 -18.5 -102.5t-20.5 -128.5h-202q0 7 4.5 42.5
t11.5 77t10 65.5h-3zM754 1372l-260 -177h-133l4 23l297 286h213l176 -286l-4 -23h-111l-180 177h-2z" />
    <glyph glyph-name="udieresis" unicode="&#xfc;" horiz-adv-x="1176" 
d="M753 185q-80 -112 -166 -158t-201 -46q-150 0 -225 73t-75 211q0 20 2.5 47.5t7.5 58t11 58.5l127 653h213l-123 -628q-21 -101 -21 -155q0 -155 170 -155q79 0 147 41.5t117 116.5t68 174l118 606h214l-166 -851q-9 -45 -18.5 -102.5t-20.5 -128.5h-202q0 7 4.5 42.5
t11.5 77t10 65.5h-3zM1039 1408l-38 -196h-187l37 196h188zM639 1408l-38 -196h-188l38 196h188z" />
    <glyph glyph-name="yacute" unicode="&#xfd;" horiz-adv-x="1062" 
d="M40 -425q-79 0 -146 15l34 155q45 -8 80 -8q89 0 157.5 58t134.5 174l27 47l-215 1066h219l98 -564q7 -37 13.5 -83t12.5 -91t10 -80t4 -50q5 11 10.5 23t12.5 26l128 247l307 572h232l-635 -1101q-111 -186 -177 -258q-67 -75 -141 -111.5t-166 -36.5zM997 1472
l-375 -277h-111l4 24l251 287h237z" />
    <glyph glyph-name="thorn" unicode="&#xfe;" horiz-adv-x="1176" 
d="M590 -20q-124 0 -201.5 52t-109.5 146h-4q-3 -24 -6.5 -48t-7.5 -49q-4 -21 -8 -42.5t-8 -43.5l-82 -420h-212l370 1909h214l-83 -424q-6 -31 -14.5 -66.5t-19.5 -75.5h4q73 97 154.5 140.5t200.5 43.5q157 0 245 -94.5t88 -259.5q0 -203 -61 -393q-61 -191 -173.5 -283
t-285.5 -92zM702 944q-176 0 -268 -148q-28 -45 -49 -105.5t-35 -128.5q-20 -98 -20 -177q0 -119 60 -185.5t167 -66.5q117 0 184 72q34 36 61 96t46 132t28.5 144.5t9.5 131.5q0 117 -44 176t-140 59z" />
    <glyph glyph-name="ydieresis" unicode="&#xff;" horiz-adv-x="1062" 
d="M46 -425q-79 0 -146 15l34 155q45 -8 80 -8q89 0 157.5 58t134.5 174l27 47l-215 1066h219l98 -564q7 -37 13.5 -83t12.5 -91t10 -80t4 -50q5 11 10.5 23t12.5 26l128 247l307 572h232l-635 -1101q-111 -186 -177 -258q-67 -75 -141 -111.5t-166 -36.5zM986 1407
l-38 -196h-187l37 196h188zM586 1407l-38 -196h-188l38 196h188z" />
    <glyph glyph-name="Amacron" unicode="&#x100;" horiz-adv-x="1404" 
d="M380 395l-225 -395h-236l827 1409h261l274 -1409h-227l-69 395h-605zM845 1241q-8 -20 -22 -49t-35 -68l-312 -556h483l-90 519q-8 48 -13.5 86.5t-10.5 67.5zM1186 1700l-30 -141h-562l29 141h563z" />
    <glyph glyph-name="amacron" unicode="&#x101;" horiz-adv-x="1139" 
d="M915 -10q-95 0 -141.5 39.5t-46.5 113.5q0 17 2 33t3 31h-6q-83 -127 -169.5 -177t-210.5 -50q-140 0 -226 84t-86 214q0 185 131 280t419 99l219 3q19 95 19 128q0 82 -45.5 122t-129.5 40q-111 0 -167 -40.5t-80 -121.5l-206 29q41 146 155.5 215.5t305.5 69.5
q183 0 281.5 -77.5t98.5 -217.5q0 -56 -21 -157l-73 -370q-10 -49 -10 -82q0 -39 23 -55t58 -16q30 0 60 7l-14 -126q-36 -11 -71.5 -14.5t-71.5 -3.5zM257 299q0 -73 45.5 -117.5t119.5 -44.5q91 0 165 48q64 37 106.5 96.5t57.5 129.5l25 114l-186 -3q-99 -2 -160 -18
t-97 -43q-35 -26 -55.5 -66.5t-20.5 -95.5zM993 1366l-30 -141h-562l29 141h563z" />
    <glyph glyph-name="Abreve" unicode="&#x102;" horiz-adv-x="1404" 
d="M380 395l-225 -395h-236l827 1409h261l274 -1409h-227l-69 395h-605zM845 1241q-8 -20 -22 -49t-35 -68l-312 -556h483l-90 519q-8 48 -13.5 86.5t-10.5 67.5zM889 1520q-136 0 -218.5 73t-83.5 194h132q2 -64 51.5 -97t131.5 -33q85 0 143.5 31.5t88.5 99.5h133
q-49 -133 -145 -200.5t-233 -67.5z" />
    <glyph glyph-name="abreve" unicode="&#x103;" horiz-adv-x="1139" 
d="M915 -10q-95 0 -141.5 39.5t-46.5 113.5q0 17 2 33t3 31h-6q-83 -127 -169.5 -177t-210.5 -50q-140 0 -226 84t-86 214q0 185 131 280t419 99l219 3q19 95 19 128q0 82 -45.5 122t-129.5 40q-111 0 -167 -40.5t-80 -121.5l-206 29q41 146 155.5 215.5t305.5 69.5
q183 0 281.5 -77.5t98.5 -217.5q0 -56 -21 -157l-73 -370q-10 -49 -10 -82q0 -39 23 -55t58 -16q30 0 60 7l-14 -126q-36 -11 -71.5 -14.5t-71.5 -3.5zM257 299q0 -73 45.5 -117.5t119.5 -44.5q91 0 165 48q64 37 106.5 96.5t57.5 129.5l25 114l-186 -3q-99 -2 -160 -18
t-97 -43q-35 -26 -55.5 -66.5t-20.5 -95.5zM695 1195q-134 0 -216 80.5t-86 211.5l1 22h131q2 -82 51.5 -123t129.5 -41q85 0 145 41.5t89 122.5h133q-48 -154 -144 -234t-234 -80z" />
    <glyph glyph-name="Aogonek" unicode="&#x104;" horiz-adv-x="1404" 
d="M380 395l-225 -395h-236l827 1409h261l274 -1409h-227l-69 395h-605zM845 1241q-8 -20 -22 -49t-35 -68l-312 -556h483l-90 519q-8 48 -13.5 86.5t-10.5 67.5zM1055 -422q-89 0 -137 47t-48 124q0 80 53 149t143 109h144q-83 -44 -130.5 -107t-47.5 -124q0 -35 21 -57
t58 -22q52 0 110 22l-17 -112q-70 -29 -149 -29z" />
    <glyph glyph-name="aogonek" unicode="&#x105;" horiz-adv-x="1139" 
d="M915 -10q-95 0 -141.5 39.5t-46.5 113.5q0 17 2 33t3 31h-6q-83 -127 -169.5 -177t-210.5 -50q-140 0 -226 84t-86 214q0 185 131 280t419 99l219 3q19 95 19 128q0 82 -45.5 122t-129.5 40q-111 0 -167 -40.5t-80 -121.5l-206 29q41 146 155.5 215.5t305.5 69.5
q183 0 281.5 -77.5t98.5 -217.5q0 -56 -21 -157l-73 -370q-10 -49 -10 -82q0 -39 23 -55t58 -16q30 0 60 7l-14 -126q-36 -11 -71.5 -14.5t-71.5 -3.5zM257 299q0 -73 45.5 -117.5t119.5 -44.5q91 0 165 48q64 37 106.5 96.5t57.5 129.5l25 114l-186 -3q-99 -2 -160 -18
t-97 -43q-35 -26 -55.5 -66.5t-20.5 -95.5zM804 -419q-89 0 -137 47t-48 124q0 80 53 149t143 109h144q-83 -44 -130.5 -107t-47.5 -124q0 -35 21 -57t58 -22q52 0 110 22l-17 -112q-70 -29 -149 -29z" />
    <glyph glyph-name="Cacute" unicode="&#x106;" horiz-adv-x="1479" 
d="M1193 440l171 -98q-119 -187 -281 -274.5t-379 -87.5q-185 0 -319 73q-135 72 -205.5 205.5t-70.5 310.5q0 248 105 447t292 306.5t420 107.5q222 0 370.5 -93t197.5 -268l-211 -60q-34 110 -130 175t-236 65q-194 0 -331 -103q-121 -85 -186 -234.5t-65 -343.5
q0 -191 101 -299.5t283 -108.5q143 0 263 70.5t211 209.5zM1345 1753l-363 -223h-126l4 24l264 233h227z" />
    <glyph glyph-name="cacute" unicode="&#x107;" horiz-adv-x="1062" 
d="M491 139q97 0 163 56t104 167l195 -50q-117 -332 -470 -332q-201 0 -309 110t-108 308q0 200 75 370q74 172 197.5 253t304.5 81q176 0 279.5 -88.5t114.5 -243.5l-213 -25q-5 97 -55 148t-137 51q-134 0 -207.5 -85.5t-116.5 -275.5q-11 -52 -16 -99.5t-5 -88.5
q0 -256 204 -256zM1043 1472l-375 -277h-111l4 24l251 287h237z" />
    <glyph glyph-name="Ccircumflex" unicode="&#x108;" horiz-adv-x="1479" 
d="M1193 440l171 -98q-119 -187 -281 -274.5t-379 -87.5q-185 0 -319 73q-135 72 -205.5 205.5t-70.5 310.5q0 248 105 447t292 306.5t420 107.5q222 0 370.5 -93t197.5 -268l-211 -60q-34 110 -130 175t-236 65q-194 0 -331 -103q-121 -85 -186 -234.5t-65 -343.5
q0 -191 101 -299.5t283 -108.5q143 0 263 70.5t211 209.5zM1000 1673l-253 -143h-132l5 23l290 252h212l184 -252l-5 -23h-113l-186 143h-2z" />
    <glyph glyph-name="ccircumflex" unicode="&#x109;" horiz-adv-x="1062" 
d="M491 139q97 0 163 56t104 167l195 -50q-117 -332 -470 -332q-201 0 -309 110t-108 308q0 200 75 370q74 172 197.5 253t304.5 81q176 0 279.5 -88.5t114.5 -243.5l-213 -25q-5 97 -55 148t-137 51q-134 0 -207.5 -85.5t-116.5 -275.5q-11 -52 -16 -99.5t-5 -88.5
q0 -256 204 -256zM699 1372l-260 -177h-133l4 23l297 286h213l176 -286l-4 -23h-111l-180 177h-2z" />
    <glyph glyph-name="Cdotaccent" unicode="&#x10a;" horiz-adv-x="1479" 
d="M1193 440l171 -98q-119 -187 -281 -274.5t-379 -87.5q-185 0 -319 73q-135 72 -205.5 205.5t-70.5 310.5q0 248 105 447t292 306.5t420 107.5q222 0 370.5 -93t197.5 -268l-211 -60q-34 110 -130 175t-236 65q-194 0 -331 -103q-121 -85 -186 -234.5t-65 -343.5
q0 -191 101 -299.5t283 -108.5q143 0 263 70.5t211 209.5zM1087 1717l-36 -184h-214l36 184h214z" />
    <glyph glyph-name="cdotaccent" unicode="&#x10b;" horiz-adv-x="1062" 
d="M491 139q97 0 163 56t104 167l195 -50q-117 -332 -470 -332q-201 0 -309 110t-108 308q0 200 75 370q74 172 197.5 253t304.5 81q176 0 279.5 -88.5t114.5 -243.5l-213 -25q-5 97 -55 148t-137 51q-134 0 -207.5 -85.5t-116.5 -275.5q-11 -52 -16 -99.5t-5 -88.5
q0 -256 204 -256zM833 1484l-36 -184h-214l36 184h214z" />
    <glyph glyph-name="Ccaron" unicode="&#x10c;" horiz-adv-x="1479" 
d="M1193 440l171 -98q-119 -187 -281 -274.5t-379 -87.5q-185 0 -319 73q-135 72 -205.5 205.5t-70.5 310.5q0 248 105 447t292 306.5t420 107.5q222 0 370.5 -93t197.5 -268l-211 -60q-34 110 -130 175t-236 65q-194 0 -331 -103q-121 -85 -186 -234.5t-65 -343.5
q0 -191 101 -299.5t283 -108.5q143 0 263 70.5t211 209.5zM1336 1781l-282 -251h-212l-193 251l4 24h112l198 -143h2l242 143h133z" />
    <glyph glyph-name="ccaron" unicode="&#x10d;" horiz-adv-x="1062" 
d="M491 139q97 0 163 56t104 167l195 -50q-117 -332 -470 -332q-201 0 -309 110t-108 308q0 200 75 370q74 172 197.5 253t304.5 81q176 0 279.5 -88.5t114.5 -243.5l-213 -25q-5 97 -55 148t-137 51q-134 0 -207.5 -85.5t-116.5 -275.5q-11 -52 -16 -99.5t-5 -88.5
q0 -256 204 -256zM1047 1481l-289 -286h-212l-186 286l4 23h115l191 -177h2l248 177h131z" />
    <glyph glyph-name="Dcaron" unicode="&#x10e;" horiz-adv-x="1479" 
d="M741 1409q212 0 363.5 -73t231.5 -209.5t80 -330.5q0 -236 -102 -414t-293.5 -280t-432.5 -102h-534l273 1409h414zM314 178h266q184 0 324 75q140 74 215 214t75 326q0 209 -119 323.5t-336 114.5h-220zM1223 1781l-282 -251h-212l-193 251l4 24h112l198 -143h2l242 143
h133z" />
    <glyph glyph-name="dcaron" unicode="&#x10f;" horiz-adv-x="1358" 
d="M398 -21q-156 0 -244.5 97t-88.5 264q0 199 63 387q63 189 175.5 281.5t281.5 92.5q125 0 203 -51t109 -147h5q5 34 11.5 74.5t15.5 87.5l83 419h212l-243 -1258q-12 -66 -21 -122.5t-14 -103.5h-208q0 55 19 160h-5q-72 -94 -153.5 -137.5t-200.5 -43.5zM474 136
q180 0 272 156q31 52 53 123.5t34 146t12 134.5q0 124 -58 188.5t-164 64.5q-115 0 -184 -71q-46 -48 -79.5 -135.5t-51.5 -186.5t-18 -182q0 -118 44.5 -178t139.5 -60zM1518 1365q-17 -82 -49 -139.5t-88 -111.5h-123q114 101 131 190h-95l35 180h211z" />
    <glyph glyph-name="Dcroat" unicode="&#x110;" horiz-adv-x="1479" 
d="M754 1409q213 0 364 -73t231 -209.5t80 -330.5q0 -233 -98 -413q-99 -179 -289 -281t-429 -102h-559l122 629h-146l34 176h146l117 604h427zM314 178h279q184 0 324 75q140 74 215.5 214t75.5 326q0 209 -119.5 323.5t-336.5 114.5h-233l-84 -426h390l-35 -176h-389z" />
    <glyph glyph-name="dcroat" unicode="&#x111;" horiz-adv-x="1176" 
d="M398 -21q-156 0 -244.5 95.5t-88.5 260.5q0 196 63 383q62 186 174 278t280 92q125 0 203 -51t109 -145h6q6 35 13.5 78t16.5 94l26 132h-297l28 144h297l28 144h213l-29 -144h132l-27 -144h-132l-188 -970q-12 -66 -21 -122.5t-14 -103.5h-208q0 55 19 160h-4
q-72 -94 -153.5 -137.5t-201.5 -43.5zM474 136q163 0 251 130q37 50 63.5 123.5t40.5 153t14 145.5q0 122 -58 185.5t-164 63.5q-114 0 -183 -70q-45 -46 -78.5 -132.5t-51.5 -184.5t-18 -179q0 -117 44.5 -176t139.5 -59z" />
    <glyph glyph-name="Emacron" unicode="&#x112;" horiz-adv-x="1366" 
d="M1198 180l-35 -180h-1109l273 1409h1069l-35 -180h-843l-82 -419h783l-35 -179h-782l-88 -451h884zM1194 1700l-30 -141h-562l29 141h563z" />
    <glyph glyph-name="emacron" unicode="&#x113;" horiz-adv-x="1139" 
d="M290 494q-6 -34 -8 -105q0 -124 59.5 -190t179.5 -66q89 0 159.5 46t110.5 129l174 -66q-74 -141 -186 -201.5t-278 -60.5q-205 0 -319.5 113t-114.5 316q0 202 71 362q72 158 202 244.5t295 86.5q207 0 320.5 -104.5t113.5 -295.5q0 -102 -24 -208h-755zM317 648h544
l3 67q0 118 -59.5 178.5t-166.5 60.5q-121 0 -204 -79t-117 -227zM986 1366l-30 -141h-562l29 141h563z" />
    <glyph glyph-name="Ebreve" unicode="&#x114;" horiz-adv-x="1366" 
d="M1198 180l-35 -180h-1109l273 1409h1069l-35 -180h-843l-82 -419h783l-35 -179h-782l-88 -451h884zM857 1520q-136 0 -218.5 73t-83.5 194h132q2 -64 51.5 -97t131.5 -33q85 0 143.5 31.5t88.5 99.5h133q-49 -133 -145 -200.5t-233 -67.5z" />
    <glyph glyph-name="ebreve" unicode="&#x115;" horiz-adv-x="1139" 
d="M290 494q-6 -34 -8 -105q0 -124 59.5 -190t179.5 -66q89 0 159.5 46t110.5 129l174 -66q-74 -141 -186 -201.5t-278 -60.5q-205 0 -319.5 113t-114.5 316q0 202 71 362q72 158 202 244.5t295 86.5q207 0 320.5 -104.5t113.5 -295.5q0 -102 -24 -208h-755zM317 648h544
l3 67q0 118 -59.5 178.5t-166.5 60.5q-121 0 -204 -79t-117 -227zM697 1195q-134 0 -216 80.5t-86 211.5l1 22h131q2 -82 51.5 -123t129.5 -41q85 0 145 41.5t89 122.5h133q-48 -154 -144 -234t-234 -80z" />
    <glyph glyph-name="Edotaccent" unicode="&#x116;" horiz-adv-x="1366" 
d="M1198 180l-35 -180h-1109l273 1409h1069l-35 -180h-843l-82 -419h783l-35 -179h-782l-88 -451h884zM1015 1719l-36 -184h-214l36 184h214z" />
    <glyph glyph-name="edotaccent" unicode="&#x117;" horiz-adv-x="1139" 
d="M290 494q-6 -34 -8 -105q0 -124 59.5 -190t179.5 -66q89 0 159.5 46t110.5 129l174 -66q-74 -141 -186 -201.5t-278 -60.5q-205 0 -319.5 113t-114.5 316q0 202 71 362q72 158 202 244.5t295 86.5q207 0 320.5 -104.5t113.5 -295.5q0 -102 -24 -208h-755zM317 648h544
l3 67q0 118 -59.5 178.5t-166.5 60.5q-121 0 -204 -79t-117 -227zM836 1484l-36 -184h-214l36 184h214z" />
    <glyph glyph-name="Eogonek" unicode="&#x118;" horiz-adv-x="1366" 
d="M1198 180l-35 -180h-1109l273 1409h1069l-35 -180h-843l-82 -419h783l-35 -179h-782l-88 -451h884zM869 -426q-89 0 -137 47t-48 124q0 80 53 149t143 109h144q-83 -44 -130.5 -107t-47.5 -124q0 -35 21 -57t58 -22q52 0 110 22l-17 -112q-70 -29 -149 -29z" />
    <glyph glyph-name="eogonek" unicode="&#x119;" horiz-adv-x="1139" 
d="M290 494q-6 -34 -8 -105q0 -124 59.5 -190t179.5 -66q89 0 159.5 46t110.5 129l174 -66q-74 -141 -186 -201.5t-278 -60.5q-205 0 -319.5 113t-114.5 316q0 202 71 362q72 158 202 244.5t295 86.5q207 0 320.5 -104.5t113.5 -295.5q0 -102 -24 -208h-755zM317 648h544
l3 67q0 118 -59.5 178.5t-166.5 60.5q-121 0 -204 -79t-117 -227zM588 -406q-89 0 -137 47t-48 124q0 80 53 149t143 109h144q-83 -44 -130.5 -107t-47.5 -124q0 -35 21 -57t58 -22q52 0 110 22l-17 -112q-70 -29 -149 -29z" />
    <glyph glyph-name="Ecaron" unicode="&#x11a;" horiz-adv-x="1366" 
d="M1198 180l-35 -180h-1109l273 1409h1069l-35 -180h-843l-82 -419h783l-35 -179h-782l-88 -451h884zM1262 1781l-282 -251h-212l-193 251l4 24h112l198 -143h2l242 143h133z" />
    <glyph glyph-name="ecaron" unicode="&#x11b;" horiz-adv-x="1139" 
d="M290 494q-6 -34 -8 -105q0 -124 59.5 -190t179.5 -66q89 0 159.5 46t110.5 129l174 -66q-74 -141 -186 -201.5t-278 -60.5q-205 0 -319.5 113t-114.5 316q0 202 71 362q72 158 202 244.5t295 86.5q207 0 320.5 -104.5t113.5 -295.5q0 -102 -24 -208h-755zM317 648h544
l3 67q0 118 -59.5 178.5t-166.5 60.5q-121 0 -204 -79t-117 -227zM1070 1481l-289 -286h-212l-186 286l4 23h115l191 -177h2l248 177h131z" />
    <glyph glyph-name="Gcircumflex" unicode="&#x11c;" horiz-adv-x="1593" 
d="M741 -20q-303 0 -471.5 157t-168.5 439q0 251 105 446q104 196 296.5 302t440.5 106q224 0 370 -90.5t200 -261.5l-222 -62q-35 115 -127 174t-234 59q-180 0 -317 -83q-137 -82 -209.5 -233.5t-72.5 -350.5q0 -200 110.5 -311t311.5 -111q128 0 246 35t204 101l50 246
h-395l34 176h603l-102 -520q-145 -115 -302.5 -166.5t-349.5 -51.5zM998 1673l-253 -143h-132l5 23l290 252h212l184 -252l-5 -23h-113l-186 143h-2z" />
    <glyph glyph-name="gcircumflex" unicode="&#x11d;" horiz-adv-x="1176" 
d="M408 -425q-179 0 -280 65t-128 197l203 38q32 -147 219 -147q131 0 203.5 69t105.5 230q8 45 17 88.5t16 85.5h-2q-62 -88 -110 -128q-48 -39 -107.5 -60t-136.5 -21q-153 0 -246.5 100.5t-93.5 265.5q0 82 14 170.5t39.5 171.5t61.5 149q64 129 163.5 190.5t240.5 61.5
q120 0 204 -56.5t109 -148.5h2q5 23 15 65t20 78.5t13 42.5h203l-19 -82l-30 -144l-163 -832q-47 -239 -175 -344t-358 -105zM292 381q0 -232 196 -232q102 0 185 75q83 74 128.5 204t45.5 270q0 118 -60 184t-166 66q-86 0 -142 -35t-95 -112q-26 -50 -46.5 -126
t-33 -154.5t-12.5 -139.5zM716 1372l-260 -177h-133l4 23l297 286h213l176 -286l-4 -23h-111l-180 177h-2z" />
    <glyph glyph-name="Gbreve" unicode="&#x11e;" horiz-adv-x="1593" 
d="M741 -20q-303 0 -471.5 157t-168.5 439q0 251 105 446q104 196 296.5 302t440.5 106q224 0 370 -90.5t200 -261.5l-222 -62q-35 115 -127 174t-234 59q-180 0 -317 -83q-137 -82 -209.5 -233.5t-72.5 -350.5q0 -200 110.5 -311t311.5 -111q128 0 246 35t204 101l50 246
h-395l34 176h603l-102 -520q-145 -115 -302.5 -166.5t-349.5 -51.5zM965 1520q-136 0 -218.5 73t-83.5 194h132q2 -64 51.5 -97t131.5 -33q85 0 143.5 31.5t88.5 99.5h133q-49 -133 -145 -200.5t-233 -67.5z" />
    <glyph glyph-name="gbreve" unicode="&#x11f;" horiz-adv-x="1176" 
d="M408 -425q-179 0 -280 65t-128 197l203 38q32 -147 219 -147q131 0 203.5 69t105.5 230q8 45 17 88.5t16 85.5h-2q-62 -88 -110 -128q-48 -39 -107.5 -60t-136.5 -21q-153 0 -246.5 100.5t-93.5 265.5q0 82 14 170.5t39.5 171.5t61.5 149q64 129 163.5 190.5t240.5 61.5
q120 0 204 -56.5t109 -148.5h2q5 23 15 65t20 78.5t13 42.5h203l-19 -82l-30 -144l-163 -832q-47 -239 -175 -344t-358 -105zM292 381q0 -232 196 -232q102 0 185 75q83 74 128.5 204t45.5 270q0 118 -60 184t-166 66q-86 0 -142 -35t-95 -112q-26 -50 -46.5 -126
t-33 -154.5t-12.5 -139.5zM689 1195q-134 0 -216 80.5t-86 211.5l1 22h131q2 -82 51.5 -123t129.5 -41q85 0 145 41.5t89 122.5h133q-48 -154 -144 -234t-234 -80z" />
    <glyph glyph-name="Gdotaccent" unicode="&#x120;" horiz-adv-x="1593" 
d="M741 -20q-303 0 -471.5 157t-168.5 439q0 251 105 446q104 196 296.5 302t440.5 106q224 0 370 -90.5t200 -261.5l-222 -62q-35 115 -127 174t-234 59q-180 0 -317 -83q-137 -82 -209.5 -233.5t-72.5 -350.5q0 -200 110.5 -311t311.5 -111q128 0 246 35t204 101l50 246
h-395l34 176h603l-102 -520q-145 -115 -302.5 -166.5t-349.5 -51.5zM1100 1719l-36 -184h-214l36 184h214z" />
    <glyph glyph-name="gdotaccent" unicode="&#x121;" horiz-adv-x="1176" 
d="M408 -425q-179 0 -280 65t-128 197l203 38q32 -147 219 -147q131 0 203.5 69t105.5 230q8 45 17 88.5t16 85.5h-2q-62 -88 -110 -128q-48 -39 -107.5 -60t-136.5 -21q-153 0 -246.5 100.5t-93.5 265.5q0 82 14 170.5t39.5 171.5t61.5 149q64 129 163.5 190.5t240.5 61.5
q120 0 204 -56.5t109 -148.5h2q5 23 15 65t20 78.5t13 42.5h203l-19 -82l-30 -144l-163 -832q-47 -239 -175 -344t-358 -105zM292 381q0 -232 196 -232q102 0 185 75q83 74 128.5 204t45.5 270q0 118 -60 184t-166 66q-86 0 -142 -35t-95 -112q-26 -50 -46.5 -126
t-33 -154.5t-12.5 -139.5zM864 1484l-36 -184h-214l36 184h214z" />
    <glyph glyph-name="Gcommaaccent" unicode="&#x122;" horiz-adv-x="1593" 
d="M741 -20q-303 0 -471.5 157t-168.5 439q0 251 105 446q104 196 296.5 302t440.5 106q224 0 370 -90.5t200 -261.5l-222 -62q-35 115 -127 174t-234 59q-180 0 -317 -83q-137 -82 -209.5 -233.5t-72.5 -350.5q0 -200 110.5 -311t311.5 -111q128 0 246 35t204 101l50 246
h-395l34 176h603l-102 -520q-145 -115 -302.5 -166.5t-349.5 -51.5zM844 -204q-16 -81 -48.5 -139t-87.5 -112h-124q114 101 130 183h-95l35 181h212z" />
    <glyph glyph-name="gcommaaccent" unicode="&#x123;" horiz-adv-x="1176" 
d="M408 -425q-179 0 -280 65t-128 197l203 38q32 -147 219 -147q131 0 203.5 69t105.5 230q8 45 17 88.5t16 85.5h-2q-62 -88 -110 -128q-48 -39 -107.5 -60t-136.5 -21q-153 0 -246.5 100.5t-93.5 265.5q0 82 14 170.5t39.5 171.5t61.5 149q64 129 163.5 190.5t240.5 61.5
q120 0 204 -56.5t109 -148.5h2q5 23 15 65t20 78.5t13 42.5h203l-19 -82l-30 -144l-163 -832q-47 -239 -175 -344t-358 -105zM292 381q0 -232 196 -232q102 0 185 75q83 74 128.5 204t45.5 270q0 118 -60 184t-166 66q-86 0 -142 -35t-95 -112q-26 -50 -46.5 -126
t-33 -154.5t-12.5 -139.5zM827 1392l-35 -181h-212l23 120q17 87 50.5 145.5t82.5 105.5h127q-114 -101 -131 -190h95z" />
    <glyph glyph-name="Hcircumflex" unicode="&#x124;" horiz-adv-x="1479" 
d="M403 637l-124 -637h-225l274 1409h225l-113 -584h720l113 584h219l-274 -1409h-219l124 637h-720zM970 1673l-253 -143h-132l5 23l290 252h212l184 -252l-5 -23h-113l-186 143h-2z" />
    <glyph glyph-name="hcircumflex" unicode="&#x125;" horiz-adv-x="1176" 
d="M417 897q81 111 166.5 157.5t201.5 46.5q149 0 224.5 -73t75.5 -211q0 -30 -5.5 -75.5t-15.5 -88.5l-127 -653h-214l124 628q20 102 20 155q0 155 -170 155q-78 0 -146.5 -41.5t-117 -116t-67.5 -174.5l-118 -606h-214l288 1484h213l-76 -392q-9 -49 -20.5 -97.5
t-24.5 -97.5h3zM845 1752l-253 -143h-132l5 23l290 252h212l184 -252l-5 -23h-113l-186 143h-2z" />
    <glyph glyph-name="Hbar" unicode="&#x126;" horiz-adv-x="1479" 
d="M402 637l-123 -637h-226l200 1032h-143l31 159h143l42 218h226l-42 -218h720l42 218h219l-42 -218h143l-31 -159h-143l-201 -1032h-218l123 637h-720zM439 825h720l40 207h-720z" />
    <glyph glyph-name="hbar" unicode="&#x127;" horiz-adv-x="1176" 
d="M409 857q81 111 166.5 157.5t201.5 46.5q149 0 224.5 -73t75.5 -211q0 -30 -5.5 -75.5t-15.5 -88.5l-119 -613h-214l116 588q20 102 20 155q0 155 -170 155q-78 0 -146.5 -41.5t-117 -116t-67.5 -174.5l-110 -566h-214l232 1196h-133l27 144h133l29 144h213l-28 -144h305
l-28 -144h-305q-25 -133 -44.5 -218t-28.5 -121h3z" />
    <glyph glyph-name="Itilde" unicode="&#x128;" horiz-adv-x="569" 
d="M565 1409l-274 -1409h-225l274 1409h225zM633 1530q-53 0 -103 31.5t-95 63.5t-88 32q-45 0 -75 -28.5t-55 -98.5h-112q45 154 108.5 215t152.5 61q56 0 105.5 -32t94.5 -63.5t86 -31.5q45 0 76.5 31t52.5 96h113q-34 -116 -75 -175q-34 -49 -79.5 -75t-106.5 -26z" />
    <glyph glyph-name="itilde" unicode="&#x129;" horiz-adv-x="493" 
d="M458 1082l-211 -1082h-213l210 1082h214zM514 1195q-53 0 -103 30.5t-95.5 60t-88.5 29.5q-48 0 -80.5 -28.5t-55.5 -91.5h-105q44 154 107.5 215t153.5 61q55 0 104.5 -29.5t95.5 -60t86 -30.5q48 0 81 29.5t54 90.5h107q-32 -109 -70 -167q-34 -53 -81 -81t-110 -28z
" />
    <glyph glyph-name="Imacron" unicode="&#x12a;" horiz-adv-x="569" 
d="M565 1409l-274 -1409h-225l274 1409h225zM778 1700l-30 -141h-562l29 141h563z" />
    <glyph glyph-name="imacron" unicode="&#x12b;" horiz-adv-x="493" 
d="M458 1082l-211 -1082h-213l210 1082h214zM682 1366l-30 -141h-562l29 141h563z" />
    <glyph glyph-name="Ibreve" unicode="&#x12c;" horiz-adv-x="569" 
d="M565 1409l-274 -1409h-225l274 1409h225zM466 1520q-136 0 -218.5 73t-83.5 194h132q2 -64 51.5 -97t131.5 -33q85 0 143.5 31.5t88.5 99.5h133q-49 -133 -145 -200.5t-233 -67.5z" />
    <glyph glyph-name="ibreve" unicode="&#x12d;" horiz-adv-x="493" 
d="M458 1082l-211 -1082h-213l210 1082h214zM376 1195q-134 0 -216 80.5t-86 211.5l1 22h131q2 -82 51.5 -123t129.5 -41q85 0 145 41.5t89 122.5h133q-48 -154 -144 -234t-234 -80z" />
    <glyph glyph-name="Iogonek" unicode="&#x12e;" horiz-adv-x="569" 
d="M565 1409l-274 -1409h-225l274 1409h225zM135 -426q-89 0 -137 47t-48 124q0 80 53 149t143 109h144q-83 -44 -130.5 -107t-47.5 -124q0 -35 21 -57t58 -22q52 0 110 22l-17 -112q-70 -29 -149 -29z" />
    <glyph glyph-name="iogonek" unicode="&#x12f;" horiz-adv-x="493" 
d="M535 1484l-36 -184h-214l37 184h213zM457 1082l-211 -1082h-212l210 1082h213zM90 -426q-89 0 -137 47t-48 124q0 80 53 149t143 109h144q-83 -44 -130.5 -107t-47.5 -124q0 -35 21 -57t58 -22q52 0 110 22l-17 -112q-70 -29 -149 -29z" />
    <glyph glyph-name="Idotaccent" unicode="&#x130;" horiz-adv-x="569" 
d="M565 1409l-274 -1409h-225l274 1409h225zM614 1719l-36 -184h-214l36 184h214z" />
    <glyph glyph-name="dotlessi" unicode="&#x131;" horiz-adv-x="569" 
d="M495 1082l-211 -1082h-213l210 1082h214z" />
    <glyph glyph-name="IJ" unicode="&#x132;" horiz-adv-x="1535" 
d="M565 1409l-274 -1409h-225l274 1409h225zM887 -20q-169 0 -274 94t-135 281l201 41q23 -115 77.5 -175.5t148.5 -60.5q61 0 105 26q50 28 83 88.5t53 165.5l152 788h-287l34 181h513l-193 -986q-44 -226 -160 -334.5t-318 -108.5z" />
    <glyph glyph-name="ij" unicode="&#x133;" horiz-adv-x="986" 
d="M535 1484l-36 -184h-214l37 184h213zM457 1082l-211 -1082h-212l210 1082h213zM1028 1484l-35 -184h-214l35 184h214zM407 -425q-67 0 -141 16l27 153q22 -3 41 -5t34 -2q62 0 92.5 39.5t47.5 132.5l228 1173h214l-237 -1214q-30 -153 -106 -223t-200 -70z" />
    <glyph glyph-name="Jcircumflex" unicode="&#x134;" horiz-adv-x="1062" 
d="M414 -20q-169 0 -274 94t-135 281l201 41q23 -115 77.5 -175.5t148.5 -60.5q61 0 105 26q50 28 83 88.5t53 165.5l152 788h-287l34 181h513l-193 -986q-44 -226 -160 -334.5t-318 -108.5zM902 1673l-253 -143h-132l5 23l290 252h212l184 -252l-5 -23h-113l-186 143h-2z
" />
    <glyph glyph-name="jcircumflex" unicode="&#x135;" horiz-adv-x="493" 
d="M400 1372l-259 -177h-134l4 23l298 286h212l177 -286l-5 -23h-111l-179 177h-3zM-85 -425q-67 0 -141 16l27 153q22 -3 41 -4.5t34 -2.5q62 0 92.5 39.5t47.5 132.5l228 1173h214l-237 -1214q-30 -153 -106 -223t-200 -70z" />
    <glyph glyph-name="Kcommaaccent" unicode="&#x136;" horiz-adv-x="1404" 
d="M383 536l-104 -536h-225l273 1409h226l-134 -674l146 131l644 543h286l-749 -625l526 -784h-259l-433 663zM715 -204q-16 -81 -48.5 -139t-87.5 -112h-124q114 101 130 183h-95l35 181h212z" />
    <glyph glyph-name="kcommaaccent" unicode="&#x137;" horiz-adv-x="1062" 
d="M323 393l-76 -393h-213l288 1484h214l-175 -895l189 178l343 315h255l-511 -451l316 -631h-230l-241 500zM569 -204q-16 -81 -48.5 -139t-87.5 -112h-124q114 101 130 183h-95l35 181h212z" />
    <glyph glyph-name="kgreenlandic" unicode="&#x138;" horiz-adv-x="1062" 
d="M323 393l-76 -393h-213l210 1082h214l-97 -493l189 178l343 315h255l-511 -451l316 -631h-230l-241 500z" />
    <glyph glyph-name="Lacute" unicode="&#x139;" horiz-adv-x="1176" 
d="M1041 180l-35 -180h-952l273 1409h226l-239 -1229h727zM933 1753l-363 -223h-126l4 24l264 233h227z" />
    <glyph glyph-name="lacute" unicode="&#x13a;" horiz-adv-x="493" 
d="M535 1484l-289 -1484h-212l288 1484h213zM804 1832l-363 -223h-126l4 24l264 233h227z" />
    <glyph glyph-name="Lcommaaccent" unicode="&#x13b;" horiz-adv-x="1176" 
d="M1041 180l-35 -180h-952l273 1409h226l-239 -1229h727zM627 -204q-16 -81 -48.5 -139t-87.5 -112h-124q114 101 130 183h-95l35 181h212z" />
    <glyph glyph-name="lcommaaccent" unicode="&#x13c;" horiz-adv-x="493" 
d="M535 1484l-289 -1484h-212l288 1484h213zM209 -204q-16 -81 -48.5 -139t-87.5 -112h-124q114 101 130 183h-95l35 181h212z" />
    <glyph glyph-name="Lcaron" unicode="&#x13d;" horiz-adv-x="1176" 
d="M1041 180l-35 -180h-952l273 1409h226l-239 -1229h727zM1058 1290q-17 -82 -49 -139.5t-88 -111.5h-123q114 101 131 190h-95l35 180h211z" />
    <glyph glyph-name="lcaron" unicode="&#x13e;" horiz-adv-x="654" 
d="M535 1484l-289 -1484h-212l288 1484h213zM831 1365q-17 -82 -49 -139.5t-88 -111.5h-123q114 101 131 190h-95l35 180h211z" />
    <glyph glyph-name="Ldot" unicode="&#x13f;" horiz-adv-x="1176" 
d="M1041 180l-35 -180h-952l273 1409h226l-239 -1229h727zM941 858l-36 -184h-214l36 184h214z" />
    <glyph glyph-name="ldot" unicode="&#x140;" horiz-adv-x="873" 
d="M535 1484l-289 -1484h-212l288 1484h213zM817 858l-36 -184h-214l36 184h214z" />
    <glyph glyph-name="Lslash" unicode="&#x141;" horiz-adv-x="1176" 
d="M313 180h727l-36 -180h-952l101 519l-158 -78l34 181l159 78l138 709h225l-114 -589l316 148l-35 -179l-316 -149z" />
    <glyph glyph-name="lslash" unicode="&#x142;" horiz-adv-x="493" 
d="M376 670l-130 -670h-213l106 548l-136 -68l35 177l135 68l148 759h214l-124 -637l140 72l-35 -177z" />
    <glyph glyph-name="Nacute" unicode="&#x143;" horiz-adv-x="1479" 
d="M433 926l-178 -926h-201l273 1409h258l482 -1190q14 97 24 162.5t20 111.5l178 916h202l-273 -1409h-265l-479 1184q-11 -84 -21 -148.5t-20 -109.5zM1275 1753l-363 -223h-126l4 24l264 233h227z" />
    <glyph glyph-name="nacute" unicode="&#x144;" horiz-adv-x="1176" 
d="M369 606l-118 -606h-214l166 851q10 45 19.5 102.5t19.5 128.5h203q0 -7 -5 -42.5t-11 -76.5t-11 -66h3q80 111 166 157.5t202 46.5q149 0 224.5 -73t75.5 -211q0 -30 -6 -75.5t-15 -88.5l-127 -653h-214l123 628q21 102 21 155q0 155 -170 155q-78 0 -146.5 -41.5
t-117 -116t-68.5 -174.5zM1068 1472l-375 -277h-111l4 24l251 287h237z" />
    <glyph glyph-name="Ncommaaccent" unicode="&#x145;" horiz-adv-x="1479" 
d="M433 926l-178 -926h-201l273 1409h258l482 -1190q14 97 24 162.5t20 111.5l178 916h202l-273 -1409h-265l-479 1184q-11 -84 -21 -148.5t-20 -109.5zM722 -204q-16 -81 -48.5 -139t-87.5 -112h-124q114 101 130 183h-95l35 181h212z" />
    <glyph glyph-name="ncommaaccent" unicode="&#x146;" horiz-adv-x="1176" 
d="M369 606l-118 -606h-214l166 851q10 45 19.5 102.5t19.5 128.5h203q0 -7 -5 -42.5t-11 -76.5t-11 -66h3q80 111 166 157.5t202 46.5q149 0 224.5 -73t75.5 -211q0 -30 -6 -75.5t-15 -88.5l-127 -653h-214l123 628q21 102 21 155q0 155 -170 155q-78 0 -146.5 -41.5
t-117 -116t-68.5 -174.5zM574 -204q-16 -81 -48.5 -139t-87.5 -112h-124q114 101 130 183h-95l35 181h212z" />
    <glyph glyph-name="Ncaron" unicode="&#x147;" horiz-adv-x="1479" 
d="M433 926l-178 -926h-201l273 1409h258l482 -1190q14 97 24 162.5t20 111.5l178 916h202l-273 -1409h-265l-479 1184q-11 -84 -21 -148.5t-20 -109.5zM1312 1781l-282 -251h-212l-193 251l4 24h112l198 -143h2l242 143h133z" />
    <glyph glyph-name="ncaron" unicode="&#x148;" horiz-adv-x="1176" 
d="M369 606l-118 -606h-214l166 851q10 45 19.5 102.5t19.5 128.5h203q0 -7 -5 -42.5t-11 -76.5t-11 -66h3q80 111 166 157.5t202 46.5q149 0 224.5 -73t75.5 -211q0 -30 -6 -75.5t-15 -88.5l-127 -653h-214l123 628q21 102 21 155q0 155 -170 155q-78 0 -146.5 -41.5
t-117 -116t-68.5 -174.5zM1094 1481l-289 -286h-212l-186 286l4 23h115l191 -177h2l248 177h131z" />
    <glyph glyph-name="napostrophe" unicode="&#x149;" horiz-adv-x="1323" 
d="M513 606l-118 -606h-214l166 851q10 45 19.5 102.5t19.5 128.5h203q0 -7 -5 -42.5t-11 -76.5t-11 -66h3q80 111 166 157.5t202 46.5q149 0 224.5 -73t75.5 -211q0 -30 -6 -75.5t-15 -88.5l-127 -653h-214l123 628q21 102 21 155q0 155 -170 155q-78 0 -146.5 -41.5
t-117 -116t-68.5 -174.5zM334 1247q-20 -102 -56 -182t-98 -153h-143q134 147 161 279h-101l42 218h226z" />
    <glyph glyph-name="Eng" unicode="&#x14a;" horiz-adv-x="1481" 
d="M849 -20q-118 0 -202.5 48.5t-132.5 132.5l176 111q35 -52 79.5 -82.5t97.5 -30.5q62 0 104.5 29.5t71.5 92.5q36 75 74 267l67 348q18 88 18 142q0 104 -65 157.5t-197 53.5q-112 0 -217 -48q-107 -48 -179.5 -132t-90.5 -178l-174 -891h-225l212 1092l57 317h219
q-5 -42 -15.5 -104.5t-25.5 -146.5h4q196 271 512 271q407 0 407 -359q0 -72 -18 -171l-69 -357q-50 -258 -106 -361q-55 -104 -146.5 -152.5t-235.5 -48.5z" />
    <glyph glyph-name="eng" unicode="&#x14b;" horiz-adv-x="1176" 
d="M606 -425q-68 0 -142 16l28 153q22 -3 40.5 -4.5t33.5 -2.5q62 0 92.5 40t47.5 132l141 719q21 102 21 155q0 155 -170 155q-78 0 -146.5 -41.5t-117 -116t-68.5 -174.5l-118 -606h-214l166 851q10 45 19.5 102.5t19.5 128.5h203q0 -9 -5 -44.5t-11 -76t-11 -64.5h3
q80 111 166 157.5t202 46.5q149 0 224.5 -73t75.5 -211q0 -30 -6 -75.5t-15 -88.5l-153 -785q-29 -151 -105 -222t-201 -71z" />
    <glyph glyph-name="Omacron" unicode="&#x14c;" horiz-adv-x="1593" 
d="M935 1430q188 0 324.5 -71t210.5 -200.5t74 -307.5q-3 -260 -110 -459q-107 -198 -294 -305t-425 -107q-198 0 -338 78q-131 71 -200.5 203.5t-69.5 311.5q0 239 106 440q105 201 293.5 309t428.5 108zM924 1250q-187 0 -318 -85q-87 -56 -147.5 -151.5t-92 -211.5
t-31.5 -233q0 -201 101 -304.5t290 -103.5q185 0 315 83q87 55 148 148t93.5 209.5t32.5 238.5q0 197 -101.5 303.5t-289.5 106.5zM1258 1700l-30 -141h-562l29 141h563z" />
    <glyph glyph-name="omacron" unicode="&#x14d;" horiz-adv-x="1176" 
d="M1111 683q0 -121 -33.5 -245t-96.5 -216q-77 -119 -199 -180.5t-276 -61.5q-204 0 -322 118t-118 321q3 205 76 360q73 157 204.5 239.5t316.5 82.5q218 0 333 -109.5t115 -308.5zM889 676q0 273 -235 273q-127 0 -204 -66q-51 -44 -87.5 -121t-56 -167t-19.5 -174
q0 -142 60 -215t176 -73q88 0 144.5 28t98.5 86q53 68 85 182t38 247zM992 1366l-30 -141h-562l29 141h563z" />
    <glyph glyph-name="Obreve" unicode="&#x14e;" horiz-adv-x="1593" 
d="M935 1430q188 0 324.5 -71t210.5 -200.5t74 -307.5q-3 -260 -110 -459q-107 -198 -294 -305t-425 -107q-198 0 -338 78q-131 71 -200.5 203.5t-69.5 311.5q0 239 106 440q105 201 293.5 309t428.5 108zM924 1250q-187 0 -318 -85q-87 -56 -147.5 -151.5t-92 -211.5
t-31.5 -233q0 -201 101 -304.5t290 -103.5q185 0 315 83q87 55 148 148t93.5 209.5t32.5 238.5q0 197 -101.5 303.5t-289.5 106.5zM953 1520q-136 0 -218.5 73t-83.5 194h132q2 -64 51.5 -97t131.5 -33q85 0 143.5 31.5t88.5 99.5h133q-49 -133 -145 -200.5t-233 -67.5z" />
    <glyph glyph-name="obreve" unicode="&#x14f;" horiz-adv-x="1176" 
d="M1111 683q0 -121 -33.5 -245t-96.5 -216q-77 -119 -199 -180.5t-276 -61.5q-204 0 -322 118t-118 321q3 205 76 360q73 157 204.5 239.5t316.5 82.5q218 0 333 -109.5t115 -308.5zM889 676q0 273 -235 273q-127 0 -204 -66q-51 -44 -87.5 -121t-56 -167t-19.5 -174
q0 -142 60 -215t176 -73q88 0 144.5 28t98.5 86q53 68 85 182t38 247zM718 1195q-134 0 -216 80.5t-86 211.5l1 22h131q2 -82 51.5 -123t129.5 -41q85 0 145 41.5t89 122.5h133q-48 -154 -144 -234t-234 -80z" />
    <glyph glyph-name="Ohungarumlaut" unicode="&#x150;" horiz-adv-x="1593" 
d="M935 1430q188 0 324.5 -71t210.5 -200.5t74 -307.5q-3 -260 -110 -459q-107 -198 -294 -305t-425 -107q-198 0 -338 78q-131 71 -200.5 203.5t-69.5 311.5q0 239 106 440q105 201 293.5 309t428.5 108zM924 1250q-187 0 -318 -85q-87 -56 -147.5 -151.5t-92 -211.5
t-31.5 -233q0 -201 101 -304.5t290 -103.5q185 0 315 83q87 55 148 148t93.5 209.5t32.5 238.5q0 197 -101.5 303.5t-289.5 106.5zM1107 1754l-340 -224h-107l5 24l224 234h225zM1473 1754l-340 -224h-108l2 24l228 234h225z" />
    <glyph glyph-name="ohungarumlaut" unicode="&#x151;" horiz-adv-x="1176" 
d="M1111 683q0 -121 -33.5 -245t-96.5 -216q-77 -119 -199 -180.5t-276 -61.5q-204 0 -322 118t-118 321q3 205 76 360q73 157 204.5 239.5t316.5 82.5q218 0 333 -109.5t115 -308.5zM889 676q0 273 -235 273q-127 0 -204 -66q-51 -44 -87.5 -121t-56 -167t-19.5 -174
q0 -142 60 -215t176 -73q88 0 144.5 28t98.5 86q53 68 85 182t38 247zM837 1472l-367 -277h-110l5 24l254 287h225zM1203 1472l-366 -277h-112l6 24l254 287h225z" />
    <glyph glyph-name="OE" unicode="&#x152;" horiz-adv-x="2048" 
d="M901 0q-69 -10 -198 -10q-188 0 -323 70t-206.5 200.5t-71.5 312.5q0 139 37.5 265t110.5 230q110 169 287 260.5t396 91.5q43 0 86 -1.5t87 -4.5l73 -5h899l-35 -180h-696l-81 -419h635l-34 -177h-636l-87 -452h736l-35 -181h-944zM720 171q60 0 109.5 3.5t88.5 10.5
l202 1041q-38 7 -91.5 10.5t-105.5 3.5q-214 0 -353 -113q-78 -57 -131.5 -146t-81.5 -196.5t-28 -221.5q0 -190 101.5 -291t289.5 -101z" />
    <glyph glyph-name="oe" unicode="&#x153;" horiz-adv-x="1933" 
d="M1091 494q-10 -47 -10 -105q0 -124 60 -190t180 -66q88 0 157.5 45t110.5 130l174 -66q-75 -142 -186.5 -202t-276.5 -60q-261 0 -370 179q-72 -87 -179.5 -131.5t-246.5 -44.5q-205 0 -322 116.5t-117 319.5q4 203 76 359q73 157 204.5 240t315.5 83q135 0 228 -43
t150 -132q76 86 176.5 131t219.5 45q206 0 319 -104.5t113 -295.5q0 -102 -24 -208h-752zM887 676q0 273 -234 273q-129 0 -205 -67q-51 -44 -87 -121.5t-55 -167t-19 -172.5q0 -141 58.5 -213t176.5 -72q129 0 202 64t115 193t48 283zM1117 648h541l4 67q0 118 -58 178.5
t-166 60.5q-122 0 -204.5 -79t-116.5 -227z" />
    <glyph glyph-name="Racute" unicode="&#x154;" horiz-adv-x="1479" 
d="M389 568l-109 -568h-226l273 1409h625q156 0 267 -52q103 -47 158 -132t55 -197q0 -180 -108 -292t-311 -140l270 -596h-246l-238 568h-410zM862 745q169 0 255 70t86 197q0 106 -70.5 162.5t-207.5 56.5h-406l-95 -486h438zM1214 1753l-363 -223h-126l4 24l264 233h227z
" />
    <glyph glyph-name="racute" unicode="&#x155;" horiz-adv-x="720" 
d="M760 910q-51 13 -98 13q-74 0 -136 -46.5t-106 -130.5t-65 -199l-107 -547h-214l162 830q6 33 12 65.5t12 65.5q5 30 10 60.5t9 60.5h202l-25 -170l-8 -51h4q68 133 134.5 187t153.5 54q44 0 97 -14zM870 1472l-375 -277h-111l4 24l251 287h237z" />
    <glyph glyph-name="Rcommaaccent" unicode="&#x156;" horiz-adv-x="1479" 
d="M389 568l-109 -568h-226l273 1409h625q156 0 267 -52q103 -47 158 -132t55 -197q0 -180 -108 -292t-311 -140l270 -596h-246l-238 568h-410zM862 745q169 0 255 70t86 197q0 106 -70.5 162.5t-207.5 56.5h-406l-95 -486h438zM743 -204q-16 -81 -48.5 -139t-87.5 -112
h-124q114 101 130 183h-95l35 181h212z" />
    <glyph glyph-name="rcommaaccent" unicode="&#x157;" horiz-adv-x="720" 
d="M760 910q-51 13 -98 13q-74 0 -136 -46.5t-106 -130.5t-65 -199l-107 -547h-214l162 830q6 33 12 65.5t12 65.5q5 30 10 60.5t9 60.5h202l-25 -170l-8 -51h4q68 133 134.5 187t153.5 54q44 0 97 -14zM218 -204q-16 -81 -48.5 -139t-87.5 -112h-124q114 101 130 183h-95
l35 181h212z" />
    <glyph glyph-name="Rcaron" unicode="&#x158;" horiz-adv-x="1479" 
d="M389 568l-109 -568h-226l273 1409h625q156 0 267 -52q103 -47 158 -132t55 -197q0 -180 -108 -292t-311 -140l270 -596h-246l-238 568h-410zM862 745q169 0 255 70t86 197q0 106 -70.5 162.5t-207.5 56.5h-406l-95 -486h438zM1228 1781l-282 -251h-212l-193 251l4 24h112
l198 -143h2l242 143h133z" />
    <glyph glyph-name="rcaron" unicode="&#x159;" horiz-adv-x="720" 
d="M760 910q-51 13 -98 13q-74 0 -136 -46.5t-106 -130.5t-65 -199l-107 -547h-214l162 830q6 33 12 65.5t12 65.5q5 30 10 60.5t9 60.5h202l-25 -170l-8 -51h4q68 133 134.5 187t153.5 54q44 0 97 -14zM909 1481l-289 -286h-212l-186 286l4 23h115l191 -177h2l248 177h131z
" />
    <glyph glyph-name="Sacute" unicode="&#x15a;" horiz-adv-x="1366" 
d="M611 -20q-255 0 -393.5 90.5t-170.5 276.5l214 41q25 -123 111.5 -178.5t254.5 -55.5q203 0 299 60t96 183q0 58 -24 96t-81 67q-33 19 -93 40t-147 44q-173 47 -261 99q-86 51 -130.5 122.5t-44.5 174.5q0 120 70 207.5t198.5 135t301.5 47.5q226 0 363 -79.5
t170 -232.5l-211 -56q-29 100 -110.5 151t-217.5 51q-166 0 -252.5 -54.5t-86.5 -160.5q0 -56 26 -92t81 -63q28 -14 83 -32t138 -40q118 -33 190 -63t116 -63q73 -49 111 -117.5t38 -165.5q0 -209 -159 -321t-479 -112zM1195 1753l-363 -223h-126l4 24l264 233h227z" />
    <glyph glyph-name="sacute" unicode="&#x15b;" horiz-adv-x="1062" 
d="M938 323q0 -166 -125.5 -254.5t-363.5 -88.5q-183 0 -290 62.5t-148 196.5l182 49q29 -83 94 -121t179 -38q268 0 268 172q0 59 -47 96q-49 37 -205 81q-126 37 -194 77q-72 42 -107.5 99t-35.5 134q0 150 119 230.5t338 80.5q186 0 286 -66t123 -200l-192 -26
q-21 75 -78 109t-154 34q-117 0 -178 -36.5t-61 -104.5q0 -39 20.5 -65.5t59.5 -46.5q39 -21 181 -62q130 -37 198 -81q65 -41 98 -98t33 -133zM993 1472l-375 -277h-111l4 24l251 287h237z" />
    <glyph glyph-name="Scircumflex" unicode="&#x15c;" horiz-adv-x="1366" 
d="M611 -20q-255 0 -393.5 90.5t-170.5 276.5l214 41q25 -123 111.5 -178.5t254.5 -55.5q203 0 299 60t96 183q0 58 -24 96t-81 67q-33 19 -93 40t-147 44q-173 47 -261 99q-86 51 -130.5 122.5t-44.5 174.5q0 120 70 207.5t198.5 135t301.5 47.5q226 0 363 -79.5
t170 -232.5l-211 -56q-29 100 -110.5 151t-217.5 51q-166 0 -252.5 -54.5t-86.5 -160.5q0 -56 26 -92t81 -63q28 -14 83 -32t138 -40q118 -33 190 -63t116 -63q73 -49 111 -117.5t38 -165.5q0 -209 -159 -321t-479 -112zM882 1673l-253 -143h-132l5 23l290 252h212l184 -252
l-5 -23h-113l-186 143h-2z" />
    <glyph glyph-name="scircumflex" unicode="&#x15d;" horiz-adv-x="1062" 
d="M938 323q0 -166 -125.5 -254.5t-363.5 -88.5q-183 0 -290 62.5t-148 196.5l182 49q29 -83 94 -121t179 -38q268 0 268 172q0 59 -47 96q-49 37 -205 81q-126 37 -194 77q-72 42 -107.5 99t-35.5 134q0 150 119 230.5t338 80.5q186 0 286 -66t123 -200l-192 -26
q-21 75 -78 109t-154 34q-117 0 -178 -36.5t-61 -104.5q0 -39 20.5 -65.5t59.5 -46.5q39 -21 181 -62q130 -37 198 -81q65 -41 98 -98t33 -133zM666 1372l-260 -177h-133l4 23l297 286h213l176 -286l-4 -23h-111l-180 177h-2z" />
    <glyph glyph-name="Scedilla" unicode="&#x15e;" horiz-adv-x="1366" 
d="M611 -20q-255 0 -393.5 90.5t-170.5 276.5l214 41q25 -123 111.5 -178.5t254.5 -55.5q203 0 299 60t96 183q0 58 -24 96t-81 67q-33 19 -93 40t-147 44q-173 47 -261 99q-86 51 -130.5 122.5t-44.5 174.5q0 120 70 207.5t198.5 135t301.5 47.5q226 0 363 -79.5
t170 -232.5l-211 -56q-29 100 -110.5 151t-217.5 51q-166 0 -252.5 -54.5t-86.5 -160.5q0 -56 26 -92t81 -63q28 -14 83 -32t138 -40q118 -33 190 -63t116 -63q73 -49 111 -117.5t38 -165.5q0 -209 -159 -321t-479 -112zM640 -92q78 -3 119.5 -38t41.5 -96q0 -97 -78.5 -148
t-238.5 -51q-25 0 -51.5 1.5t-54.5 5.5l23 99q45 -6 86 -6q88 0 125.5 20.5t37.5 64.5q0 69 -116 69q-19 0 -33 -0.5t-24 -1.5l100 173h119z" />
    <glyph glyph-name="scedilla" unicode="&#x15f;" horiz-adv-x="1062" 
d="M938 323q0 -166 -125.5 -254.5t-363.5 -88.5q-183 0 -290 62.5t-148 196.5l182 49q29 -83 94 -121t179 -38q268 0 268 172q0 59 -47 96q-49 37 -205 81q-126 37 -194 77q-72 42 -107.5 99t-35.5 134q0 150 119 230.5t338 80.5q186 0 286 -66t123 -200l-192 -26
q-21 75 -78 109t-154 34q-117 0 -178 -36.5t-61 -104.5q0 -39 20.5 -65.5t59.5 -46.5q39 -21 181 -62q130 -37 198 -81q65 -41 98 -98t33 -133zM483 -92q78 -3 119.5 -38t41.5 -96q0 -97 -78.5 -148t-238.5 -51q-25 0 -51.5 1.5t-54.5 5.5l23 99q45 -6 86 -6
q88 0 125.5 20.5t37.5 64.5q0 69 -116 69q-19 0 -33 -0.5t-24 -1.5l100 173h119z" />
    <glyph glyph-name="Scaron" unicode="&#x160;" horiz-adv-x="1366" 
d="M611 -20q-255 0 -393.5 90.5t-170.5 276.5l214 41q25 -123 111.5 -178.5t254.5 -55.5q203 0 299 60t96 183q0 58 -24 96t-81 67q-33 19 -93 40t-147 44q-173 47 -261 99q-86 51 -130.5 122.5t-44.5 174.5q0 120 70 207.5t198.5 135t301.5 47.5q226 0 363 -79.5
t170 -232.5l-211 -56q-29 100 -110.5 151t-217.5 51q-166 0 -252.5 -54.5t-86.5 -160.5q0 -56 26 -92t81 -63q28 -14 83 -32t138 -40q118 -33 190 -63t116 -63q73 -49 111 -117.5t38 -165.5q0 -209 -159 -321t-479 -112zM1225 1781l-282 -251h-212l-193 251l4 24h112
l198 -143h2l242 143h133z" />
    <glyph glyph-name="scaron" unicode="&#x161;" horiz-adv-x="1062" 
d="M938 323q0 -166 -125.5 -254.5t-363.5 -88.5q-183 0 -290 62.5t-148 196.5l182 49q29 -83 94 -121t179 -38q268 0 268 172q0 59 -47 96q-49 37 -205 81q-126 37 -194 77q-72 42 -107.5 99t-35.5 134q0 150 119 230.5t338 80.5q186 0 286 -66t123 -200l-192 -26
q-21 75 -78 109t-154 34q-117 0 -178 -36.5t-61 -104.5q0 -39 20.5 -65.5t59.5 -46.5q39 -21 181 -62q130 -37 198 -81q65 -41 98 -98t33 -133zM1023 1481l-289 -286h-212l-186 286l4 23h115l191 -177h2l248 177h131z" />
    <glyph glyph-name="Tcommaaccent" unicode="&#x162;" horiz-adv-x="1251" 
d="M870 1229l-239 -1229h-225l239 1229h-474l35 180h1174l-35 -180h-475zM526 -92q78 -3 119.5 -38t41.5 -96q0 -97 -78.5 -148t-238.5 -51q-25 0 -51.5 1.5t-54.5 5.5l23 99q45 -6 86 -6q88 0 125.5 20.5t37.5 64.5q0 69 -116 69q-19 0 -33 -0.5t-24 -1.5l100 173h119z" />
    <glyph glyph-name="tcommaaccent" unicode="&#x163;" horiz-adv-x="607" 
d="M309 -19q-98 0 -153 53.5t-55 145.5q0 62 15 139l118 612h-133l30 151h139l115 246h139l-47 -246h200l-29 -151h-201l-118 -608q-12 -59 -12 -93q0 -45 23 -67t66 -22q37 0 103 14l-24 -150q-93 -24 -176 -24zM291 -92q78 -3 119.5 -38t41.5 -96q0 -97 -78.5 -148
t-238.5 -51q-25 0 -51.5 1.5t-54.5 5.5l23 99q45 -6 86 -6q88 0 125.5 20.5t37.5 64.5q0 69 -116 69q-19 0 -33 -0.5t-24 -1.5l100 173h119z" />
    <glyph glyph-name="Tcaron" unicode="&#x164;" horiz-adv-x="1251" 
d="M870 1229l-239 -1229h-225l239 1229h-474l35 180h1174l-35 -180h-475zM1194 1781l-282 -251h-212l-193 251l4 24h112l198 -143h2l242 143h133z" />
    <glyph glyph-name="tcaron" unicode="&#x165;" horiz-adv-x="810" 
d="M309 -19q-98 0 -153 53.5t-55 145.5q0 62 15 139l118 612h-133l30 151h139l115 246h139l-47 -246h200l-29 -151h-201l-118 -608q-12 -59 -12 -93q0 -45 23 -67t66 -22q37 0 103 14l-24 -150q-93 -24 -176 -24zM982 1365q-17 -82 -49 -139.5t-88 -111.5h-123
q114 101 131 190h-95l35 180h211z" />
    <glyph glyph-name="Tbar" unicode="&#x166;" horiz-adv-x="1251" 
d="M756 640l-124 -640h-225l124 640h-262l32 166h262l82 423h-474l35 180h1174l-35 -180h-475l-82 -423h263l-32 -166h-263z" />
    <glyph glyph-name="tbar" unicode="&#x167;" horiz-adv-x="607" 
d="M317 230q0 -45 23 -67t66 -22q37 0 103 14l-24 -150q-93 -24 -176 -24q-98 0 -153 53.5t-55 145.5q0 62 15 139l35 183h-126l29 150h126l54 279h-133l30 151h139l115 246h139l-47 -246h200l-29 -151h-201l-55 -279h195l-29 -150h-195l-34 -179q-12 -59 -12 -93z" />
    <glyph glyph-name="Utilde" unicode="&#x168;" horiz-adv-x="1479" 
d="M660 -20q-243 0 -380.5 119.5t-137.5 331.5q0 44 7.5 105.5t15.5 98.5l149 774h226l-159 -832q-18 -89 -18 -153q0 -125 83 -194.5t230 -69.5q183 0 288.5 93t142.5 288l168 868h225l-171 -879q-54 -276 -221 -413t-448 -137zM1085 1530q-53 0 -103 31.5t-95 63.5t-88 32
q-45 0 -75 -28.5t-55 -98.5h-112q45 154 108.5 215t152.5 61q56 0 105.5 -32t94.5 -63.5t86 -31.5q45 0 76.5 31t52.5 96h113q-34 -116 -75 -175q-34 -49 -79.5 -75t-106.5 -26z" />
    <glyph glyph-name="utilde" unicode="&#x169;" horiz-adv-x="1176" 
d="M753 185q-80 -112 -166 -158t-201 -46q-150 0 -225 73t-75 211q0 20 2.5 47.5t7.5 58t11 58.5l127 653h213l-123 -628q-21 -101 -21 -155q0 -155 170 -155q79 0 147 41.5t117 116.5t68 174l118 606h214l-166 -851q-9 -45 -18.5 -102.5t-20.5 -128.5h-202q0 7 4.5 42.5
t11.5 77t10 65.5h-3zM861 1195q-53 0 -103 30.5t-95.5 60t-88.5 29.5q-48 0 -80.5 -28.5t-55.5 -91.5h-105q44 154 107.5 215t153.5 61q55 0 104.5 -29.5t95.5 -60t86 -30.5q48 0 81 29.5t54 90.5h107q-32 -109 -70 -167q-34 -53 -81 -81t-110 -28z" />
    <glyph glyph-name="Umacron" unicode="&#x16a;" horiz-adv-x="1479" 
d="M660 -20q-243 0 -380.5 119.5t-137.5 331.5q0 44 7.5 105.5t15.5 98.5l149 774h226l-159 -832q-18 -89 -18 -153q0 -125 83 -194.5t230 -69.5q183 0 288.5 93t142.5 288l168 868h225l-171 -879q-54 -276 -221 -413t-448 -137zM1232 1695l-30 -141h-562l29 141h563z" />
    <glyph glyph-name="umacron" unicode="&#x16b;" horiz-adv-x="1176" 
d="M753 185q-80 -112 -166 -158t-201 -46q-150 0 -225 73t-75 211q0 20 2.5 47.5t7.5 58t11 58.5l127 653h213l-123 -628q-21 -101 -21 -155q0 -155 170 -155q79 0 147 41.5t117 116.5t68 174l118 606h214l-166 -851q-9 -45 -18.5 -102.5t-20.5 -128.5h-202q0 7 4.5 42.5
t11.5 77t10 65.5h-3zM1011 1366l-30 -141h-562l29 141h563z" />
    <glyph glyph-name="Ubreve" unicode="&#x16c;" horiz-adv-x="1479" 
d="M660 -20q-243 0 -380.5 119.5t-137.5 331.5q0 44 7.5 105.5t15.5 98.5l149 774h226l-159 -832q-18 -89 -18 -153q0 -125 83 -194.5t230 -69.5q183 0 288.5 93t142.5 288l168 868h225l-171 -879q-54 -276 -221 -413t-448 -137zM912 1520q-136 0 -218.5 73t-83.5 194h132
q2 -64 51.5 -97t131.5 -33q85 0 143.5 31.5t88.5 99.5h133q-49 -133 -145 -200.5t-233 -67.5z" />
    <glyph glyph-name="ubreve" unicode="&#x16d;" horiz-adv-x="1176" 
d="M753 185q-80 -112 -166 -158t-201 -46q-150 0 -225 73t-75 211q0 20 2.5 47.5t7.5 58t11 58.5l127 653h213l-123 -628q-21 -101 -21 -155q0 -155 170 -155q79 0 147 41.5t117 116.5t68 174l118 606h214l-166 -851q-9 -45 -18.5 -102.5t-20.5 -128.5h-202q0 7 4.5 42.5
t11.5 77t10 65.5h-3zM701 1195q-134 0 -216 80.5t-86 211.5l1 22h131q2 -82 51.5 -123t129.5 -41q85 0 145 41.5t89 122.5h133q-48 -154 -144 -234t-234 -80z" />
    <glyph glyph-name="Uring" unicode="&#x16e;" horiz-adv-x="1479" 
d="M660 -20q-243 0 -380.5 119.5t-137.5 331.5q0 44 7.5 105.5t15.5 98.5l149 774h226l-159 -832q-18 -89 -18 -153q0 -125 83 -194.5t230 -69.5q183 0 288.5 93t142.5 288l168 868h225l-171 -879q-54 -276 -221 -413t-448 -137zM1169 1704q0 -67 -33.5 -123t-89 -89.5
t-123.5 -33.5t-124 33.5t-89 89.5t-33 123q0 69 33.5 124.5t89 88.5t123.5 33q67 0 123 -33.5t89.5 -89t33.5 -123.5zM1054 1704q0 56 -37.5 93.5t-93.5 37.5q-57 0 -94.5 -38t-37.5 -93t37.5 -94.5t94.5 -39.5q56 0 93.5 39t37.5 95z" />
    <glyph glyph-name="uring" unicode="&#x16f;" horiz-adv-x="1176" 
d="M753 185q-80 -112 -166 -158t-201 -46q-150 0 -225 73t-75 211q0 20 2.5 47.5t7.5 58t11 58.5l127 653h213l-123 -628q-21 -101 -21 -155q0 -155 170 -155q79 0 147 41.5t117 116.5t68 174l118 606h214l-166 -851q-9 -45 -18.5 -102.5t-20.5 -128.5h-202q0 7 4.5 42.5
t11.5 77t10 65.5h-3zM949 1403q0 -67 -33.5 -123t-89 -89.5t-123.5 -33.5t-124 33.5t-89 89.5t-33 123q0 69 33.5 124.5t89 88.5t123.5 33q67 0 123 -33.5t89.5 -89t33.5 -123.5zM834 1403q0 56 -37.5 93.5t-93.5 37.5q-57 0 -94.5 -38t-37.5 -93t37.5 -94.5t94.5 -39.5
q56 0 93.5 39t37.5 95z" />
    <glyph glyph-name="Uhungarumlaut" unicode="&#x170;" horiz-adv-x="1479" 
d="M660 -20q-243 0 -380.5 119.5t-137.5 331.5q0 44 7.5 105.5t15.5 98.5l149 774h226l-159 -832q-18 -89 -18 -153q0 -125 83 -194.5t230 -69.5q183 0 288.5 93t142.5 288l168 868h225l-171 -879q-54 -276 -221 -413t-448 -137zM1049 1754l-340 -224h-107l5 24l224 234h225
zM1415 1754l-340 -224h-108l2 24l228 234h225z" />
    <glyph glyph-name="uhungarumlaut" unicode="&#x171;" horiz-adv-x="1176" 
d="M753 185q-80 -112 -166 -158t-201 -46q-150 0 -225 73t-75 211q0 20 2.5 47.5t7.5 58t11 58.5l127 653h213l-123 -628q-21 -101 -21 -155q0 -155 170 -155q79 0 147 41.5t117 116.5t68 174l118 606h214l-166 -851q-9 -45 -18.5 -102.5t-20.5 -128.5h-202q0 7 4.5 42.5
t11.5 77t10 65.5h-3zM864 1472l-367 -277h-110l5 24l254 287h225zM1230 1472l-366 -277h-112l6 24l254 287h225z" />
    <glyph glyph-name="Uogonek" unicode="&#x172;" horiz-adv-x="1479" 
d="M660 -20q-243 0 -380.5 119.5t-137.5 331.5q0 44 7.5 105.5t15.5 98.5l149 774h226l-159 -832q-18 -89 -18 -153q0 -125 83 -194.5t230 -69.5q183 0 288.5 93t142.5 288l168 868h225l-171 -879q-54 -276 -221 -413t-448 -137zM693 -426q-89 0 -137 47t-48 124
q0 80 53 149t143 109h144q-83 -44 -130.5 -107t-47.5 -124q0 -35 21 -57t58 -22q52 0 110 22l-17 -112q-70 -29 -149 -29z" />
    <glyph glyph-name="uogonek" unicode="&#x173;" horiz-adv-x="1176" 
d="M753 185q-80 -112 -166 -158t-201 -46q-150 0 -225 73t-75 211q0 20 2.5 47.5t7.5 58t11 58.5l127 653h213l-123 -628q-21 -101 -21 -155q0 -155 170 -155q79 0 147 41.5t117 116.5t68 174l118 606h214l-166 -851q-9 -45 -18.5 -102.5t-20.5 -128.5h-202q0 7 4.5 42.5
t11.5 77t10 65.5h-3zM725 -426q-89 0 -137 47t-48 124q0 80 53 149t143 109h144q-83 -44 -130.5 -107t-47.5 -124q0 -35 21 -57t58 -22q52 0 110 22l-17 -112q-70 -29 -149 -29z" />
    <glyph glyph-name="Wcircumflex" unicode="&#x174;" horiz-adv-x="1933" 
d="M963 889l-404 -889h-267l-124 1409h225l64 -868q6 -80 9 -166.5t4 -179.5q38 90 71 167.5t61 143.5l414 903h227l60 -870q6 -77 10 -163t5 -181q30 67 50.5 118t38.5 96l451 1000h231l-671 -1409h-266l-56 867q-5 117 -8 196.5t-4 121.5q-36 -94 -66 -167.5t-55 -128.5z
M1165 1673l-253 -143h-132l5 23l290 252h212l184 -252l-5 -23h-113l-186 143h-2z" />
    <glyph glyph-name="wcircumflex" unicode="&#x175;" horiz-adv-x="1517" 
d="M764 755l-341 -755h-238l-84 1082h205l31 -722q2 -44 3 -87.5t2 -88.5q20 48 39.5 96t40.5 95l325 707h229l44 -707q3 -52 4 -99.5t1 -91.5q10 21 27 62t44 101l325 735h206l-513 -1082h-238l-39 685l-6 234q-18 -48 -35 -89.5t-32 -74.5zM903 1372l-260 -177h-133l4 23
l297 286h213l176 -286l-4 -23h-111l-180 177h-2z" />
    <glyph glyph-name="Ycircumflex" unicode="&#x176;" horiz-adv-x="1366" 
d="M802 582l-113 -582h-224l114 582l-380 827h228l291 -651l531 651h250zM896 1673l-253 -143h-132l5 23l290 252h212l184 -252l-5 -23h-113l-186 143h-2z" />
    <glyph glyph-name="ycircumflex" unicode="&#x177;" horiz-adv-x="1062" 
d="M40 -425q-79 0 -146 15l34 155q45 -8 80 -8q89 0 157.5 58t134.5 174l27 47l-215 1066h219l98 -564q7 -37 13.5 -83t12.5 -91t10 -80t4 -50q5 11 10.5 23t12.5 26l128 247l307 572h232l-635 -1101q-111 -186 -177 -258q-67 -75 -141 -111.5t-166 -36.5zM686 1372
l-260 -177h-133l4 23l297 286h213l176 -286l-4 -23h-111l-180 177h-2z" />
    <glyph glyph-name="Ydieresis" unicode="&#x178;" horiz-adv-x="1366" 
d="M792 582l-113 -582h-224l114 582l-380 827h228l291 -651l531 651h250zM1168 1726l-38 -196h-187l37 196h188zM768 1726l-38 -196h-188l38 196h188z" />
    <glyph glyph-name="Zacute" unicode="&#x179;" horiz-adv-x="1251" 
d="M1117 181l-35 -181h-1125l32 165l1011 1063h-731l35 181h1006l-31 -161l-1013 -1067h851zM1166 1753l-363 -223h-126l4 24l264 233h227z" />
    <glyph glyph-name="zacute" unicode="&#x17a;" horiz-adv-x="1024" 
d="M863 161l-30 -161h-844l28 158l699 764h-524l30 160h779l-29 -158l-698 -763h589zM977 1472l-375 -277h-111l4 24l251 287h237z" />
    <glyph glyph-name="Zdotaccent" unicode="&#x17b;" horiz-adv-x="1251" 
d="M1117 181l-35 -181h-1125l32 165l1011 1063h-731l35 181h1006l-31 -161l-1013 -1067h851zM934 1717l-36 -184h-214l36 184h214z" />
    <glyph glyph-name="zdotaccent" unicode="&#x17c;" horiz-adv-x="1024" 
d="M863 161l-30 -161h-844l28 158l699 764h-524l30 160h779l-29 -158l-698 -763h589zM790 1484l-36 -184h-214l36 184h214z" />
    <glyph glyph-name="Zcaron" unicode="&#x17d;" horiz-adv-x="1251" 
d="M1117 181l-35 -181h-1125l32 165l1011 1063h-731l35 181h1006l-31 -161l-1013 -1067h851zM1182 1781l-282 -251h-212l-193 251l4 24h112l198 -143h2l242 143h133z" />
    <glyph glyph-name="zcaron" unicode="&#x17e;" horiz-adv-x="1024" 
d="M856 161l-30 -161h-844l28 158l699 764h-524l30 160h779l-29 -158l-698 -763h589zM1017 1481l-289 -286h-212l-186 286l4 23h115l191 -177h2l248 177h131z" />
    <glyph glyph-name="longs" unicode="&#x17f;" horiz-adv-x="493" 
d="M34 0l233 1201q30 156 109.5 219.5t224.5 63.5q70 0 130 -14l-28 -151q-18 3 -42.5 5.5t-45.5 2.5q-47 0 -75 -19q-26 -17 -39.5 -49t-24.5 -84l-229 -1175h-213z" />
    <glyph glyph-name="uni0180" unicode="&#x180;" horiz-adv-x="1176" 
d="M165 1340h132l28 144h214l-28 -144h284l-26 -144h-287l-29 -149q-7 -34 -15 -70t-18 -72h4q70 95 154.5 139.5t200.5 44.5q157 0 245 -94.5t88 -259.5q0 -210 -61 -392q-62 -183 -175 -273t-282 -90q-123 0 -200.5 52t-109.5 146h-3q-4 -24 -16.5 -71t-27.5 -107h-206
q4 13 16.5 68.5t32.5 154.5l189 973h-132zM704 931q-97 0 -162 -37t-110 -112q-30 -50 -52 -120t-34 -143t-12 -134q0 -119 60 -185.5t167 -66.5q119 0 189 78q43 46 74 127t48 176t17 181q0 119 -45 177.5t-140 58.5z" />
    <glyph glyph-name="uni0181" unicode="&#x181;" horiz-adv-x="1541" 
d="M1443 436q0 -212 -156 -324t-446 -112h-631l240 1239h-17q-87 0 -130.5 -46.5t-43.5 -131.5q1 -15 2.5 -31t4.5 -35l-174 -17q-3 16 -5 33t-2 35q0 179 92 271t272 92h569q223 0 346 -85t123 -238q0 -283 -334 -345q138 -23 214 -104.5t76 -200.5zM594 820h319
q177 0 260.5 58.5t83.5 179.5q0 89 -63.5 132.5t-197.5 43.5h-321zM469 175h354q210 0 302 66t92 199q0 102 -75.5 155t-226.5 53h-354z" />
    <glyph glyph-name="uni0182" unicode="&#x182;" horiz-adv-x="1372" 
d="M327 1409h970l-34 -180h-745l-78 -404h340q230 0 359.5 -100t129.5 -280q0 -211 -152 -328t-422 -117h-642zM313 177h380q171 0 258.5 64.5t87.5 190.5q0 105 -71 160.5t-215 55.5h-348z" />
    <glyph glyph-name="uni0183" unicode="&#x183;" horiz-adv-x="1176" 
d="M781 1102q158 0 246 -94.5t88 -259.5q0 -203 -62 -393q-61 -191 -173 -283t-286 -92q-123 0 -200.5 52t-109.5 146h-3q-4 -24 -16.5 -71t-27.5 -107h-206q4 11 14 57t27 128l253 1299h757l-33 -177h-545q-13 -69 -24 -125t-20 -99q-12 -57 -21.5 -98t-16.5 -67h4
q70 95 154.5 139.5t200.5 44.5zM706 944q-179 0 -272 -155q-30 -52 -53 -123.5t-35 -145.5t-12 -135q0 -119 60 -185.5t167 -66.5q116 0 182 70q33 34 60 94.5t47 133.5t31 146t11 132q0 117 -43.5 176t-142.5 59z" />
    <glyph glyph-name="uni0184" unicode="&#x184;" horiz-adv-x="1372" 
d="M439 825h333q230 0 359.5 -100t129.5 -280q0 -211 -152 -328t-422 -117h-634l196 1008l-124 178l6 34l359 189h62zM312 177h373q171 0 258.5 64.5t87.5 190.5q0 105 -71 160.5t-215 55.5h-341z" />
    <glyph glyph-name="uni0185" unicode="&#x185;" horiz-adv-x="1176" 
d="M781 1102q168 0 256 -107q78 -92 78 -247q0 -57 -5 -113t-15 -112q-27 -148 -81.5 -266.5t-135.5 -183.5q-57 -47 -127.5 -70t-156.5 -23q-123 0 -200.5 52t-109.5 146h-3q-4 -24 -16.5 -71t-27.5 -107h-206q4 11 10.5 41.5t17 77.5t21.5 104l168 867l-99 184l6 34
l326 176h58l-23.5 -117.5t-21.5 -112.5q-13 -63 -23.5 -115.5t-18.5 -96.5q-6 -27 -14 -62t-16 -62h4q68 92 152.5 138t202.5 46zM706 944q-83 0 -146 -32.5t-109 -99.5q-33 -46 -58 -113t-41 -147q-18 -92 -18 -167q0 -119 60.5 -185.5t166.5 -66.5q58 0 104 17t80 55
q40 43 71 122t52 176q24 113 24 206q0 117 -43.5 176t-142.5 59z" />
    <glyph glyph-name="uni0186" unicode="&#x186;" horiz-adv-x="1479" 
d="M157 1058q126 195 290.5 283.5t383.5 88.5q185 0 320 -71q136 -72 206.5 -203.5t70.5 -304.5q0 -250 -104 -451t-292 -310.5t-426 -109.5q-221 0 -371 95t-194 266l211 60q31 -110 130 -175t244 -65q174 0 304 87q131 86 201 242t70 359q0 187 -104.5 293.5t-289.5 106.5
q-142 0 -262.5 -71t-212.5 -212z" />
    <glyph glyph-name="uni0187" unicode="&#x187;" horiz-adv-x="1479" 
d="M1364 341q-119 -187 -281.5 -274t-378.5 -87q-185 0 -320 73q-134 72 -204.5 206t-70.5 310q0 248 105 447t292 306.5t420 107.5q264 0 417 -130l10 53q30 146 116 219.5t219 73.5q67 0 129 -19l-33 -169q-48 16 -86 16q-62 0 -101.5 -38.5t-56.5 -127.5l-46 -239
l-211 -60q-34 110 -130.5 175t-235.5 65q-174 0 -304 -82q-134 -82 -206 -237t-72 -362q0 -191 101 -299.5t283 -108.5q143 0 263 70.5t211 209.5z" />
    <glyph glyph-name="uni0188" unicode="&#x188;" horiz-adv-x="1062" 
d="M491 139q95 0 160.5 54t106.5 169l195 -50q-117 -332 -470 -332q-202 0 -309.5 111t-107.5 307q0 200 75 370q74 172 197.5 253t304.5 81q155 0 254 -70q32 135 112 202.5t202 67.5q68 0 126 -20l-33 -167q-51 17 -81 17q-59 0 -95.5 -41t-54.5 -133l-36 -188l-213 -25
q-5 97 -55 148t-137 51q-115 0 -185 -62q-45 -40 -78.5 -113t-56.5 -169q-25 -114 -25 -205q0 -256 204 -256z" />
    <glyph glyph-name="uni0189" unicode="&#x189;" horiz-adv-x="1479" 
d="M754 1409q213 0 364 -73t231 -209.5t80 -330.5q0 -233 -98 -413q-99 -179 -289 -281t-429 -102h-559l122 629h-146l34 176h146l117 604h427zM314 178h279q184 0 324 75q140 74 215.5 214t75.5 326q0 209 -119.5 323.5t-336.5 114.5h-233l-84 -426h390l-35 -176h-389z" />
    <glyph glyph-name="uni018A" unicode="&#x18a;" horiz-adv-x="1612" 
d="M883 1409q212 0 363.5 -73t231.5 -209.5t80 -330.5q0 -236 -102 -414t-293.5 -280t-432.5 -102h-523l240 1239h-16q-87 0 -130.5 -46.5t-43.5 -131.5q1 -15 2.5 -31t4.5 -35l-174 -17q-3 16 -5 33t-2 35q0 179 92 271t272 92h436zM466 178h256q184 0 324 75
q140 74 215 214t75 326q0 209 -119 323.5t-336 114.5h-210z" />
    <glyph glyph-name="uni018B" unicode="&#x18b;" horiz-adv-x="1344" 
d="M529 0q-159 0 -269 52q-98 46 -150 128.5t-52 193.5q0 172 105 283q72 81 188.5 123t268.5 42h405l80 407h-742l34 180h968l-274 -1409h-562zM991 649h-355q-173 0 -260.5 -66t-87.5 -195q0 -104 70 -159t207 -55h339z" />
    <glyph glyph-name="uni018C" unicode="&#x18c;" horiz-adv-x="1176" 
d="M398 -21q-156 0 -244.5 97t-88.5 264q0 199 63 387q63 189 175.5 281.5t281.5 92.5q124 0 202.5 -51.5t109.5 -146.5h5q5 33 10.5 67t11.5 69q10 52 23 119t30 149h-545l36 177h756l-243 -1258q-10 -56 -18 -112.5t-17 -113.5h-208q0 28 5 70.5t14 89.5h-5
q-72 -94 -153.5 -137.5t-200.5 -43.5zM474 136q180 0 271 156q32 52 54 123.5t34 146t12 134.5q0 124 -58 188.5t-164 64.5q-117 0 -186 -73q-47 -49 -79.5 -137t-50 -186.5t-17.5 -178.5q0 -118 44.5 -178t139.5 -60z" />
    <glyph glyph-name="uni018D" unicode="&#x18d;" horiz-adv-x="1175" 
d="M1117 681q0 -174 -65 -333q-65 -160 -188 -251t-300 -107l293 -267l-28 -148h-801l32 165h379l146 -6l-346 316q-80 74 -114 146q-26 49 -39.5 106.5t-13.5 124.5q0 186 73 347q73 159 207.5 243t323.5 84q213 0 327 -110t114 -310zM896 685q0 130 -60 197t-177 67
q-124 0 -202 -67q-52 -44 -88.5 -119t-55.5 -165t-19 -180q0 -137 59.5 -208t170.5 -71q86 0 143 29t102 91q38 48 66.5 119.5t44.5 152.5t16 154z" />
    <glyph glyph-name="uni018E" unicode="&#x18e;" horiz-adv-x="1366" 
d="M-13 0l36 180h884l92 445h-796l37 179h796l88 425h-870l37 180h1095l-290 -1409h-1109z" />
    <glyph glyph-name="uni018F" unicode="&#x18f;" horiz-adv-x="1572" 
d="M1264 823q1 19 1.5 33t0.5 24q0 169 -96.5 269t-261.5 100q-83 0 -152 -18q-84 -22 -151.5 -73.5t-130.5 -144.5l-198 64q108 182 265 267.5t375 85.5q178 0 306.5 -69.5t198 -199t69.5 -309.5q0 -250 -101 -451q-102 -200 -286.5 -310.5t-424.5 -110.5q-174 0 -299 68
q-127 67 -194.5 194.5t-67.5 299.5q0 132 41 281h1106zM702 153q201 0 338.5 126.5t193.5 359.5h-892q-8 -52 -8 -106q0 -182 96 -281t272 -99z" />
    <glyph glyph-name="uni018F" unicode="&#x4d8;" horiz-adv-x="1572" 
d="M1264 823q1 19 1.5 33t0.5 24q0 169 -96.5 269t-261.5 100q-83 0 -152 -18q-84 -22 -151.5 -73.5t-130.5 -144.5l-198 64q108 182 265 267.5t375 85.5q178 0 306.5 -69.5t198 -199t69.5 -309.5q0 -250 -101 -451q-102 -200 -286.5 -310.5t-424.5 -110.5q-174 0 -299 68
q-127 67 -194.5 194.5t-67.5 299.5q0 132 41 281h1106zM702 153q201 0 338.5 126.5t193.5 359.5h-892q-8 -52 -8 -106q0 -182 96 -281t272 -99z" />
    <glyph glyph-name="uni0190" unicode="&#x190;" horiz-adv-x="1277" 
d="M551 -20q-157 0 -271 54q-98 46 -151.5 126t-53.5 184q0 162 104 265.5t288 128.5q-107 29 -166 97t-59 169q0 128 70 227q67 95 189 146.5t280 51.5q206 0 326 -89t157 -269l-207 -54q-34 129 -103.5 182.5t-186.5 53.5q-139 0 -221.5 -68t-82.5 -187q0 -91 74.5 -139
t227.5 -48h60l-34 -174h-67q-215 0 -318 -66.5t-103 -204.5q0 -97 74 -152.5t202 -55.5q250 0 407 266l179 -102q-78 -128 -161 -198q-87 -74 -198.5 -109t-254.5 -35z" />
    <glyph glyph-name="uni0191" unicode="&#x191;" horiz-adv-x="1251" 
d="M257 -115q-31 -157 -117.5 -233t-247.5 -76q-68 0 -134 20l34 177q50 -16 88 -16q66 0 104.5 41.5t55.5 128.5l287 1482h1003l-35 -180h-777l-96 -495h753l-35 -181h-754z" />
    <glyph glyph-name="florin" unicode="&#x192;" horiz-adv-x="1139" 
d="M1034 1303q-21 6 -50 10t-56 4q-62 0 -93.5 -35.5t-48.5 -119.5l-22 -120h211l-29 -151h-213l-258 -1337h-213l258 1337h-154l30 151h154l26 139q31 154 112 218.5t227 64.5q75 0 151 -19z" />
    <glyph glyph-name="uni0193" unicode="&#x193;" horiz-adv-x="1593" 
d="M741 -20q-303 0 -471.5 157t-168.5 439q0 250 104 445q105 196 297.5 302.5t440.5 106.5q267 0 418 -126l10 49q28 143 114.5 218t219.5 75q67 0 129 -19l-32 -169q-49 16 -86 16q-63 0 -102 -38.5t-56 -127.5l-45 -230l-222 -62q-35 115 -127 174t-234 59
q-181 0 -317 -83q-137 -82 -209.5 -233.5t-72.5 -350.5q0 -200 110.5 -311t311.5 -111q130 0 250 36t200 100l50 246h-395l34 176h603l-102 -520q-142 -114 -300 -166t-352 -52z" />
    <glyph glyph-name="uni0194" unicode="&#x194;" horiz-adv-x="1102" 
d="M385 -425q-109 0 -174 61.5t-65 167.5q0 54 23.5 117t70.5 139q22 35 58 85t87 116l-293 1148h235l211 -953l580 953h239l-741 -1154q54 -164 69 -236q14 -69 14 -126q0 -92 -39 -167q-38 -75 -109 -113t-166 -38zM407 -256q51 0 78 43.5t27 116.5q0 59 -10 112t-26 102
l-37 -53q-49 -73 -76 -136.5t-27 -103.5q0 -37 19 -59t52 -22z" />
    <glyph glyph-name="uni0195" unicode="&#x195;" horiz-adv-x="1838" 
d="M1172 -20q-188 0 -286 79t-98 220q0 31 4 64t11 67l46 230q8 42 13 79t5 64q0 155 -169 155q-78 0 -147 -42t-117 -115.5t-68 -171.5l-118 -609h-214l288 1484h213l-76 -392q-10 -52 -21 -100.5t-23 -94.5h3q74 107 161 155.5t207 48.5q148 0 223.5 -73t75.5 -209
q0 -32 -4.5 -71t-14.5 -87l-45 -230q-17 -82 -17 -121q0 -84 42 -126t136 -42q113 0 176.5 61.5t92.5 208.5l131 670h214l-134 -687q-43 -218 -163 -316.5t-327 -98.5z" />
    <glyph glyph-name="uni0196" unicode="&#x196;" horiz-adv-x="493" 
d="M279 143q0 -40 11.5 -77t32.5 -66h-232q-28 43 -28 127q0 51 11 109l243 1248h214l-243 -1252q-5 -22 -7 -46t-2 -43z" />
    <glyph glyph-name="uni0197" unicode="&#x197;" horiz-adv-x="569" 
d="M407 657l-128 -657h-213l127 657h-157l33 167h157l128 660h214l-129 -660h166l-33 -167h-165z" />
    <glyph glyph-name="uni0198" unicode="&#x198;" horiz-adv-x="1404" 
d="M746 784l526 -784h-259l-433 663l-197 -127l-104 -536h-225l273 1409h225l-133 -674l157 139l447 380q37 31 70.5 56.5t65.5 46.5q102 70 221 70q38 0 71 -6t60 -15l-36 -179q-22 7 -44 11.5t-45 4.5q-44 0 -95 -22q-51 -23 -134 -93z" />
    <glyph glyph-name="uni0199" unicode="&#x199;" horiz-adv-x="1062" 
d="M323 393l-76 -393h-213l235 1208q26 139 109 212t218 73q75 0 137 -19l-33 -169q-50 17 -81 17q-59 0 -95.5 -42t-54.5 -133l-108 -558l199 187l333 306h255l-511 -451l316 -631h-230l-241 500z" />
    <glyph glyph-name="uni019A" unicode="&#x19a;" horiz-adv-x="493" 
d="M369 652l-127 -652h-212l126 652h-140l33 157h137l132 675h213l-132 -675h149l-33 -157h-146z" />
    <glyph glyph-name="uni019B" unicode="&#x19b;" horiz-adv-x="1052" 
d="M898 1278l-181 -65l224 -1213h-218l-88 555q-10 54 -17 107.5t-11 106.5q-8 -14 -12.5 -23t-14 -26.5t-32 -55t-66.5 -109.5l-343 -555h-229l638 998l-25 143l-239 -84l-29 136l238 86l-37 205h211l23 -131l179 65z" />
    <glyph glyph-name="uni019C" unicode="&#x19c;" horiz-adv-x="1777" 
d="M1034 -20q-82 0 -137 26q-46 21 -78 58t-55 96h-2q-30 -32 -57 -57t-53 -44q-58 -42 -118.5 -60.5t-130.5 -18.5q-161 0 -244.5 81t-83.5 237q0 67 18 161l185 950h224l-180 -925q-20 -102 -20 -159q0 -90 39 -130.5t123 -40.5q116 0 187 78.5t99 224.5l185 952h224
l-183 -946q-20 -96 -20 -147q0 -81 38.5 -121.5t116.5 -40.5q115 0 193 85t109 244l180 926h225l-226 -1162q-11 -56 -21 -117.5t-20 -129.5h-213l19 154l-3 -3q-59 -83 -139 -127t-181 -44z" />
    <glyph glyph-name="uni019D" unicode="&#x19d;" horiz-adv-x="1479" 
d="M953 0l-479 1184q-15 -103 -25 -167.5t-16 -90.5l-200 -1038q-22 -111 -64 -180.5t-109.5 -100.5t-168.5 -31q-67 0 -134 20l35 180q50 -16 88 -16q66 0 104.5 41.5t55.5 129.5l287 1478h258l482 -1190q11 86 22 154.5t22 119.5l178 916h202l-273 -1409h-265z" />
    <glyph glyph-name="uni019E" unicode="&#x19e;" horiz-adv-x="1176" 
d="M1068 669l-214 -1094h-214l207 1053q21 102 21 155q0 155 -170 155q-78 0 -146.5 -41.5t-117 -116t-68.5 -174.5l-118 -606h-214l159 810q7 30 12 71.5t7 61.5q1 12 1 40v57v42h200q3 -15 4 -46.5t0 -68t-2 -70.5h3q81 112 166.5 158t201.5 46q149 0 224.5 -73t75.5 -211
q0 -28 -4.5 -66.5t-13.5 -81.5z" />
    <glyph glyph-name="uni019F" unicode="&#x19f;" horiz-adv-x="1593" 
d="M935 1430q194 0 336 -77q132 -72 202.5 -201.5t70.5 -300.5q0 -160 -47 -305.5t-139 -258.5q-109 -149 -275 -228t-368 -79q-203 0 -346 82q-127 73 -194.5 203.5t-67.5 307.5q0 239 106 440q105 201 293.5 309t428.5 108zM924 1250q-218 0 -357 -112t-198 -330h945v48
q-3 190 -104.5 292t-285.5 102zM726 161q444 0 561 462h-950l-2 -54q0 -201 101 -304.5t290 -103.5z" />
    <glyph glyph-name="Ohorn" unicode="&#x1a0;" horiz-adv-x="1680" 
d="M935 1430q237 0 393.5 -113t199.5 -317q96 40 140.5 91t59.5 120h-101l40 198h226l-29 -141q-28 -139 -102 -225.5t-222 -143.5q2 -21 2.5 -39t0.5 -34q-2 -154 -49.5 -294t-137.5 -249q-109 -147 -274.5 -225t-366.5 -78q-218 0 -366 95q-117 74 -179.5 201.5
t-62.5 296.5q0 239 106 440q105 201 293.5 309t428.5 108zM924 1250q-251 0 -397 -155q-61 -59 -104 -145.5t-65.5 -185t-22.5 -195.5q0 -201 101 -304.5t290 -103.5q185 0 315 83q87 55 148 148t93.5 209.5t32.5 238.5q0 197 -101.5 303.5t-289.5 106.5z" />
    <glyph glyph-name="ohorn" unicode="&#x1a1;" horiz-adv-x="1284" 
d="M506 -20q-204 0 -322 117t-118 322q0 190 72 352q72 161 205 245.5t320 84.5q203 0 317.5 -96t127.5 -273q1 -9 1 -18.5t1 -20.5q69 31 108.5 78.5t52.5 116.5h-94l40 198h219l-29 -141q-28 -138 -99.5 -225t-204.5 -134q-13 -129 -65.5 -251t-138.5 -204
q-149 -151 -393 -151zM889 676q0 273 -235 273q-128 0 -205 -67q-51 -44 -87 -121t-55.5 -166.5t-19.5 -173.5q0 -142 60 -215t176 -73q88 0 144.5 28t98.5 86q36 45 63.5 115t43.5 151.5t16 162.5z" />
    <glyph glyph-name="uni01A2" unicode="&#x1a2;" horiz-adv-x="1802" 
d="M701 -20q-282 0 -437.5 155.5t-155.5 432.5q0 246 105 446q103 200 292 308t433 108q91 0 181.5 -20.5t167.5 -58.5l485 73h53l-360 -1848h-214l318 1632l-236 1l-221 -1140q-65 -31 -133 -51t-137.5 -29t-140.5 -9zM1120 1215q-82 37 -193 37q-249 0 -396 -157
q-62 -61 -105.5 -147.5t-66.5 -185.5t-23 -199q0 -198 98 -301t289 -103q112 0 199 35z" />
    <glyph glyph-name="uni01A3" unicode="&#x1a3;" horiz-adv-x="1412" 
d="M499 -20q-199 0 -314 117.5t-115 321.5q0 190 72 352q71 161 202.5 245.5t318.5 84.5q90 0 171.5 -21t143.5 -59l367 75h54l-296 -1521h-201l259 1329h-191l-166 -862q-131 -62 -305 -62zM775 933q-49 16 -118 16q-122 0 -200 -67q-52 -45 -89.5 -121t-57.5 -166.5
t-20 -179.5q0 -139 58 -210.5t171 -71.5q59 0 103 9z" />
    <glyph glyph-name="uni01A4" unicode="&#x1a4;" horiz-adv-x="1503" 
d="M996 1409q236 0 371.5 -106.5t135.5 -293.5q0 -147 -69.5 -254.5t-196.5 -165.5t-302 -58h-395l-103 -531h-226l240 1239h-18q-87 0 -130.5 -46.5t-43.5 -131.5q1 -15 2.5 -31t4.5 -35l-174 -17q-3 16 -5 33t-2 35q0 179 92 271t272 92h547zM574 708h342q178 0 268 71
t90 219q0 113 -74 173t-217 60h-307z" />
    <glyph glyph-name="uni01A5" unicode="&#x1a5;" horiz-adv-x="1176" 
d="M590 -20q-124 0 -201.5 52t-109.5 146h-4q-3 -25 -7 -50l-8 -50q-15 -86 -40 -212t-56 -291h-213l315 1633q26 139 109.5 212t219.5 73q72 0 143 -20l-33 -169q-55 18 -86 18q-62 0 -98.5 -43.5t-53.5 -131.5l-45 -226h3q74 98 156 139.5t196 41.5q157 0 245 -94.5
t88 -259.5q0 -203 -61 -393q-61 -191 -173.5 -283t-285.5 -92zM702 944q-180 0 -272 -155q-31 -52 -53.5 -123.5t-34.5 -145.5t-12 -135q0 -119 60 -185.5t167 -66.5q116 0 183 70q45 47 77.5 135.5t50.5 188.5t18 182q0 117 -44 176t-140 59z" />
    <glyph glyph-name="uni01A6" unicode="&#x1a6;" horiz-adv-x="1366" 
d="M971 -322l-268 729h-344l-79 -407h-226l272 1409h220l-31 -161h343q167 0 284 -62q94 -48 145 -130t51 -189q0 -180 -108 -292t-311 -140l298 -757h-246zM768 584q169 0 255 70t86 197q0 106 -71 162.5t-208 56.5h-342l-94 -486h374z" />
    <glyph glyph-name="uni01A7" unicode="&#x1a7;" horiz-adv-x="1366" 
d="M1121 1089q0 86 -71.5 130.5t-207.5 44.5q-145 0 -238 -55t-144 -171l-212 35q57 130 137.5 208.5t197 113.5t279.5 35q223 0 351 -88t128 -246q0 -85 -23.5 -147.5t-65.5 -107.5q-44 -46 -108 -82q-43 -23 -95.5 -41.5t-133.5 -37t-211 -45.5q-90 -18 -162 -40.5
t-124 -51.5q-59 -35 -89 -81.5t-30 -108.5q0 -100 82.5 -150t229.5 -50q133 0 224 37q78 31 133.5 88.5t99.5 160.5l214 -48q-90 -217 -259 -314t-431 -97q-246 0 -381.5 95.5t-135.5 268.5q0 98 32 171.5t95 125.5q45 41 106 71.5t134 52.5q26 9 63 18t85 19l107 23
q101 20 170 38t106 34q74 31 111 77t37 115z" />
    <glyph glyph-name="uni01A8" unicode="&#x1a8;" horiz-adv-x="1062" 
d="M599 947q-107 0 -165.5 -34t-87.5 -110l-182 41q44 130 157 194.5t298 64.5q184 0 283.5 -72t99.5 -207q0 -87 -40.5 -147.5t-123.5 -104.5q-85 -45 -287 -97q-155 -42 -210 -72q-46 -24 -68.5 -54.5t-22.5 -72.5q0 -140 218 -140q118 0 185 35.5t101 116.5l178 -49
q-47 -133 -161.5 -196t-311.5 -63q-199 0 -308.5 75t-109.5 214q0 96 43 163q29 45 75 79.5t125 66t206 62.5l105 26q114 34 158.5 66.5t44.5 92.5q0 62 -51 92t-148 30z" />
    <glyph glyph-name="uni01A9" unicode="&#x1a9;" horiz-adv-x="1222" 
d="M1092 180l-36 -180h-1076l39 198l616 556l-398 482l33 173h999l-34 -180h-759l355 -429l-25 -121l-552 -499h838z" />
    <glyph glyph-name="uni01AA" unicode="&#x1aa;" horiz-adv-x="700" 
d="M168 1272q0 102 69 160t184 58q119 0 181 -59.5t62 -168.5q0 -49 -12 -111l-246 -1256q-5 -30 -5 -50q0 -93 95 -93q25 0 56.5 3.5t54.5 9.5l-33 -176q-69 -14 -152 -14q-114 0 -176 58.5t-62 166.5q0 40 9 92l242 1237q-44 -23 -102 -23q-75 0 -120 45.5t-45 120.5z
M381 1400q-50 0 -82.5 -34t-32.5 -84q0 -42 23.5 -65t65.5 -23q52 0 85 33t33 83q0 42 -24 66t-68 24z" />
    <glyph glyph-name="uni01AB" unicode="&#x1ab;" horiz-adv-x="607" 
d="M142 -426q-69 0 -131 21l33 169q55 -18 88 -18q59 0 93 40.5t51 132.5l11 64q-87 5 -136.5 57t-49.5 140q0 62 15 139l118 612h-133l30 151h139l115 246h139l-47 -246h200l-29 -151h-201l-118 -608q-12 -59 -12 -93q0 -45 23 -67t66 -22q37 0 103 14l-49 -301
q-23 -137 -102.5 -208.5t-215.5 -71.5z" />
    <glyph glyph-name="uni01AC" unicode="&#x1ac;" horiz-adv-x="1251" 
d="M876 1229l-239 -1229h-225l239 1229h-195q-172 0 -172 -168q0 -17 2 -34.5t4 -35.5l-173 -17q-7 32 -7 72q0 179 91.5 271t272.5 92h906l-35 -180h-469z" />
    <glyph glyph-name="uni01AD" unicode="&#x1ad;" horiz-adv-x="607" 
d="M309 -19q-98 0 -153 53.5t-55 145.5q0 62 15 139l118 612h-133l30 151h133l25 124q27 138 108 212.5t220 74.5q72 0 143 -20l-33 -166q-55 19 -86 19q-62 0 -98 -44t-54 -135l-12 -65h200l-29 -151h-201l-118 -608q-12 -59 -12 -93q0 -45 23 -67t66 -22q37 0 103 14
l-24 -150q-93 -24 -176 -24z" />
    <glyph glyph-name="uni01AE" unicode="&#x1ae;" horiz-adv-x="1251" 
d="M171 1229l35 180h1174l-35 -180h-475l-256 -1316q-8 -39 -8 -67q0 -89 86 -89q49 0 106 15l-35 -179q-81 -18 -146 -18q-120 0 -181 58t-61 168q0 47 13 109l257 1319h-474z" />
    <glyph glyph-name="Uhorn" unicode="&#x1af;" horiz-adv-x="1635" 
d="M660 -20q-243 0 -380.5 119t-137.5 332q0 86 23 204l149 774h226l-159 -832q-18 -89 -18 -153q0 -125 83 -194.5t230 -69.5q183 0 288.5 93t142.5 288l168 868h225l-83 -426q247 41 284 228h-101l40 198h226l-28 -138q-36 -177 -142.5 -272.5t-299.5 -122.5l-67 -346
q-52 -273 -219 -411.5t-450 -138.5z" />
    <glyph glyph-name="uhorn" unicode="&#x1b0;" horiz-adv-x="1353" 
d="M753 185q-80 -111 -166 -157.5t-201 -46.5q-150 0 -225 73t-75 211q0 30 6 75.5t15 88.5l127 653h213l-123 -628q-21 -101 -21 -155q0 -155 170 -155q79 0 147.5 41.5t117 116.5t67.5 174l118 606h214l-83 -426q111 21 180 79t88 149h-101l40 198h219l-28 -138
q-26 -129 -90 -218q-54 -73 -133.5 -117.5t-195.5 -61.5q-21 -106 -37 -189t-29 -147q-12 -63 -20.5 -115t-14.5 -96h-202q0 7 4.5 42.5t11.5 77t10 65.5h-3z" />
    <glyph glyph-name="uni01B1" unicode="&#x1b1;" horiz-adv-x="1572" 
d="M712 -21q-179 0 -315 66q-137 67 -210.5 190t-73.5 285q0 260 141.5 440t421.5 280q-73 -5 -124 -8t-78 -3h-259l35 180h604l-48 -253q-228 -81 -346.5 -234.5t-118.5 -365.5q0 -189 101.5 -293t288.5 -104q148 0 265 67q118 67 183 190t65 285q0 157 -62.5 266.5
t-200.5 188.5l50 253h579l-34 -180h-225q-27 0 -82 3t-137 8q159 -86 247 -232t88 -323q0 -207 -96 -368q-96 -162 -269 -250t-390 -88z" />
    <glyph glyph-name="uni01B2" unicode="&#x1b2;" horiz-adv-x="1479" 
d="M613 -20q-148 0 -258 54q-103 51 -159 146t-56 227q0 73 17 158l164 844h225l-165 -859q-13 -62 -13 -123q0 -131 69 -199t202 -68q124 0 222 71.5t171 213.5q36 71 67 161t54.5 182t36 169t12.5 122q0 80 -32 121.5t-100 41.5q-53 0 -108 -11l29 178q78 14 166 14
q136 0 205 -80.5t69 -230.5q0 -58 -15 -152t-43 -204.5t-68 -220t-92 -197.5q-102 -177 -254 -267.5t-346 -90.5z" />
    <glyph glyph-name="uni01B3" unicode="&#x1b3;" horiz-adv-x="1468" 
d="M1662 1317l-116 -150q-32 28 -64 46t-72 18q-38 0 -67.5 -17.5t-64.5 -61.5l-476 -570l-113 -582h-224l114 582l-380 827h228l291 -651l404 500q75 92 141.5 129t149.5 37q140 0 249 -107z" />
    <glyph glyph-name="uni01B4" unicode="&#x1b4;" horiz-adv-x="1062" 
d="M35 -425q-72 0 -141 15l34 155q39 -8 83 -8q80 0 146.5 51.5t132.5 165.5l37 62l-215 1066h219l98 -564q8 -46 14.5 -93t12 -88t9 -73t4.5 -49l86 174l458 850q60 112 123 168q46 41 100 61.5t122 20.5q64 0 124 -21.5t108 -64.5l-109 -151q-54 53 -118 53
q-47 0 -86 -31.5t-76 -94.5l-675 -1198q-60 -105 -112.5 -177t-99.5 -117q-63 -60 -130 -86t-149 -26z" />
    <glyph glyph-name="uni01B5" unicode="&#x1b5;" horiz-adv-x="1251" 
d="M1207 666h-481l-460 -485h851l-35 -181h-1125l32 165l476 501h-377l30 154h494l388 408h-731l35 181h1006l-31 -161l-406 -428h364z" />
    <glyph glyph-name="uni01B6" unicode="&#x1b6;" horiz-adv-x="1024" 
d="M890 161l-32 -161h-899l31 158l308 314h-248l30 154h368l291 296h-561l31 160h819l-31 -158l-293 -298h268l-30 -154h-389l-305 -311h642z" />
    <glyph glyph-name="uni01B7" unicode="&#x1b7;" horiz-adv-x="1251" 
d="M443 -426q-207 0 -339 90.5t-182 268.5l199 76q40 -121 104 -180q43 -40 99 -59.5t130 -19.5q87 0 161.5 32t132.5 95q71 73 107.5 173t36.5 199q0 167 -102 252.5t-305 85.5h-96l32 171l561 470h-750l36 181h1028l-34 -176l-585 -482q216 -24 328.5 -147.5t112.5 -329.5
q0 -130 -37.5 -247.5t-111.5 -208.5q-90 -119 -225.5 -181.5t-300.5 -62.5z" />
    <glyph glyph-name="uni01B8" unicode="&#x1b8;" horiz-adv-x="1251" 
d="M485 -426q-153 0 -265 59.5t-173.5 169.5t-61.5 261q0 189 83 340q83 150 236.5 240.5t351.5 106.5l-404 482l35 176h1028l-35 -181h-770l386 -470l-32 -171h-81q-179 0 -307.5 -63t-197.5 -179.5t-69 -279.5q0 -149 79 -232t217 -83q260 0 418 262l170 -93
q-78 -124 -167 -200.5t-196.5 -110.5t-244.5 -34z" />
    <glyph glyph-name="uni01B9" unicode="&#x1b9;" horiz-adv-x="1042" 
d="M915 -47q-53 -187 -188.5 -283t-344.5 -96q-132 0 -232 53t-153.5 148.5t-53.5 217.5q0 146 60 259t174.5 186t277.5 96l-296 366l35 183h890l-32 -162h-662l306 -379l-31 -154h-61q-141 0 -241 -49q-99 -47 -151 -133.5t-52 -202.5q0 -123 63.5 -197.5t170.5 -74.5
q124 0 202.5 56t117.5 178z" />
    <glyph glyph-name="uni01BA" unicode="&#x1ba;" horiz-adv-x="1042" 
d="M895 -102q-143 -327 -569 -327q-59 0 -112 8.5t-101 25.5q-94 33 -147 96t-53 148q0 65 22.5 114.5t63.5 87.5q25 25 61 45.5t81 38.5q74 28 242 67q71 15 121 29t77 24q56 22 85.5 50t29.5 68q0 56 -62 80q-30 15 -86 25.5t-140 10.5l-102 2l28 140l394 290h-583l31 161
h880l-26 -134l-445 -315q161 -12 243.5 -72.5t82.5 -164.5q0 -74 -30 -130.5t-90 -96.5q-26 -18 -59.5 -33t-71.5 -29q-42 -14 -97 -28t-121 -29q-66 -16 -123 -30.5t-96 -33.5q-43 -21 -69.5 -50.5t-26.5 -74.5q0 -62 57.5 -96t170.5 -34q124 0 210.5 49t130.5 145z" />
    <glyph glyph-name="uni01BB" unicode="&#x1bb;" horiz-adv-x="1139" 
d="M965 179l-34 -179h-950l29 150q53 92 126 170q41 44 87 85.5t110 88t158 106.5h-370l31 155h558q95 75 137.5 149.5t42.5 158.5q0 89 -55.5 141.5t-152.5 52.5q-102 0 -174 -54.5t-106 -165.5l-202 44q54 173 179 261t317 88q128 0 221 -42.5t144 -121.5t51 -186
q0 -176 -141 -325h156l-29 -155h-308l-77 -52q-61 -42 -127.5 -86.5t-113.5 -79.5q-65 -48 -119.5 -98t-90.5 -105h703z" />
    <glyph glyph-name="uni01BC" unicode="&#x1bc;" horiz-adv-x="1076" 
d="M236 1409h889l-35 -180h-499l-57 -281h40q215 -2 329 -104t114 -287q0 -153 -62 -281q-68 -143 -201.5 -219.5t-321.5 -76.5q-142 0 -241 51q-177 90 -193 304l214 35q9 -112 69.5 -166t166.5 -54q112 0 192 56q71 48 111 134t40 186q0 126 -75.5 186t-236.5 60h-194
l91 457h-174z" />
    <glyph glyph-name="uni01BD" unicode="&#x1bd;" horiz-adv-x="937" 
d="M396 133q111 0 178.5 59t67.5 163q0 95 -63 138.5t-195 43.5h-174l79 384h-170l32 161h804l-32 -161h-444l-49 -231h42q186 -2 285.5 -81t99.5 -227q0 -143 -79 -243q-59 -75 -158.5 -117t-236.5 -42q-183 0 -283 83.5t-106 238.5l202 24q5 -91 57 -142t143 -51z" />
    <glyph glyph-name="uni01BE" unicode="&#x1be;" horiz-adv-x="1062" 
d="M948 340q0 -112 -57 -193t-166.5 -124t-265.5 -43q-204 0 -307 68t-122 211l192 33q15 -85 73 -122t175 -37q133 0 201 47t68 135q0 47 -36 77.5t-119 53.5q-188 51 -246 86q-59 34 -89.5 84.5t-30.5 122.5q0 11 1 24t3 26q2 12 8.5 47.5t17.5 94.5h-133l30 151h138
l90 316l188 52l-71 -368h199l-30 -151h-198l-17 -84q-10 -46 -10 -76q0 -49 39.5 -77t145.5 -55q69 -18 119 -36t81 -37q62 -37 95.5 -91.5t33.5 -134.5z" />
    <glyph glyph-name="uni01BF" unicode="&#x1bf;" horiz-adv-x="1181" 
d="M170 -425h-212l292 1508h199q-4 -39 -8.5 -81.5t-13.5 -89.5h4q65 95 158.5 143t206.5 48q159 0 245 -87t86 -254q0 -437 -448 -714q-101 -63 -217.5 -111t-238.5 -89zM901 743q0 202 -194 202q-132 0 -221 -99.5t-124 -283.5l-106 -543q242 92 380 204
q130 105 197.5 239t67.5 281z" />
    <glyph glyph-name="uni01C0" unicode="&#x1c0;" horiz-adv-x="546" 
d="M564 1484l-289 -1484h-212l288 1484h213z" />
    <glyph glyph-name="uni01C1" unicode="&#x1c1;" horiz-adv-x="904" 
d="M550 1484l-289 -1484h-190l289 1484h190zM909 1484l-289 -1484h-190l289 1484h190z" />
    <glyph glyph-name="uni01C2" unicode="&#x1c2;" horiz-adv-x="1196" 
d="M664 410l-80 -410h-197l80 410h-396l34 172h395l57 294h-395l33 172h395l86 436h197l-85 -436h397l-33 -172h-397l-57 -294h396l-33 -172h-397z" />
    <glyph glyph-name="uni01C3" unicode="&#x1c3;" horiz-adv-x="607" 
d="M582 1409l-222 -1002h-175l168 1002h229zM347 224l-44 -224h-225l44 224h225z" />
    <glyph glyph-name="uni01C4" unicode="&#x1c4;" horiz-adv-x="2730" 
d="M741 1409q212 0 363.5 -73t231.5 -209.5t80 -330.5q0 -236 -102 -414t-293.5 -280t-432.5 -102h-534l273 1409h414zM314 178h266q184 0 324 75q140 74 215 214t75 326q0 209 -119 323.5t-336 114.5h-220zM2591 181l-35 -181h-1125l32 165l1011 1063h-731l35 181h1006
l-31 -161l-1013 -1067h851zM2672 1781l-282 -251h-212l-193 251l4 24h112l198 -143h2l242 143h133z" />
    <glyph glyph-name="uni01C5" unicode="&#x1c5;" horiz-adv-x="2503" 
d="M741 1409q212 0 363.5 -73t231.5 -209.5t80 -330.5q0 -236 -102 -414t-293.5 -280t-432.5 -102h-534l273 1409h414zM314 178h266q184 0 324 75q140 74 215 214t75 326q0 209 -119 323.5t-336 114.5h-220zM2336 161l-30 -161h-844l28 158l699 764h-524l30 160h779
l-29 -158l-698 -763h589zM2503 1481l-289 -286h-212l-186 286l4 23h115l191 -177h2l248 177h131z" />
    <glyph glyph-name="uni01C6" unicode="&#x1c6;" horiz-adv-x="2200" 
d="M398 -21q-156 0 -244.5 97t-88.5 264q0 199 63 387q63 189 175.5 281.5t281.5 92.5q125 0 203 -51t109 -147h5q5 34 11.5 74.5t15.5 87.5l83 419h212l-243 -1258q-12 -66 -21 -122.5t-14 -103.5h-208q0 55 19 160h-5q-72 -94 -153.5 -137.5t-200.5 -43.5zM474 136
q180 0 272 156q31 52 53 123.5t34 146t12 134.5q0 124 -58 188.5t-164 64.5q-115 0 -184 -71q-46 -48 -79.5 -135.5t-51.5 -186.5t-18 -182q0 -118 44.5 -178t139.5 -60zM2039 161l-30 -161h-844l28 158l699 764h-524l30 160h779l-29 -158l-698 -763h589zM2205 1481
l-289 -286h-212l-186 286l4 23h115l191 -177h2l248 177h131z" />
    <glyph glyph-name="uni01C7" unicode="&#x1c7;" horiz-adv-x="2239" 
d="M1041 180l-35 -180h-952l273 1409h226l-239 -1229h727zM1585 -20q-169 0 -274 94t-135 281l201 41q23 -115 77.5 -175.5t148.5 -60.5q61 0 105 26q50 28 83 88.5t53 165.5l152 788h-287l34 181h513l-193 -986q-44 -226 -160 -334.5t-318 -108.5z" />
    <glyph glyph-name="uni01C8" unicode="&#x1c8;" horiz-adv-x="1669" 
d="M1041 180l-35 -180h-952l273 1409h226l-239 -1229h727zM1712 1484l-35 -184h-214l35 184h214zM1091 -425q-67 0 -141 16l27 153q22 -3 41 -5t34 -2q62 0 92.5 39.5t47.5 132.5l228 1173h214l-237 -1214q-30 -153 -106 -223t-200 -70z" />
    <glyph glyph-name="uni01C9" unicode="&#x1c9;" horiz-adv-x="986" 
d="M535 1484l-289 -1484h-212l288 1484h213zM1029 1484l-35 -184h-214l35 184h214zM408 -425q-67 0 -141 16l27 153q22 -3 41 -5t34 -2q62 0 92.5 39.5t47.5 132.5l228 1173h214l-237 -1214q-30 -153 -106 -223t-200 -70z" />
    <glyph glyph-name="uni01CA" unicode="&#x1ca;" horiz-adv-x="2541" 
d="M433 926l-178 -926h-201l273 1409h258l482 -1190q14 97 24 162.5t20 111.5l178 916h202l-273 -1409h-265l-479 1184q-11 -84 -21 -148.5t-20 -109.5zM1892 -20q-169 0 -274 94t-135 281l201 41q23 -115 77.5 -175.5t148.5 -60.5q61 0 105 26q50 28 83 88.5t53 165.5
l152 788h-287l34 181h513l-193 -986q-44 -226 -160 -334.5t-318 -108.5z" />
    <glyph glyph-name="uni01CB" unicode="&#x1cb;" horiz-adv-x="1972" 
d="M433 926l-178 -926h-201l273 1409h258l482 -1190q14 97 24 162.5t20 111.5l178 916h202l-273 -1409h-265l-479 1184q-11 -84 -21 -148.5t-20 -109.5zM2015 1484l-35 -184h-214l35 184h214zM1394 -425q-67 0 -141 16l27 153q22 -3 41 -5t34 -2q62 0 92.5 39.5t47.5 132.5
l228 1173h214l-237 -1214q-30 -153 -106 -223t-200 -70z" />
    <glyph glyph-name="uni01CC" unicode="&#x1cc;" horiz-adv-x="1669" 
d="M366 606l-118 -606h-214l166 851q10 45 19.5 102.5t19.5 128.5h203q0 -7 -5 -42.5t-11 -76.5t-11 -66h3q80 111 166 157.5t202 46.5q149 0 224.5 -73t75.5 -211q0 -30 -6 -75.5t-15 -88.5l-127 -653h-214l123 628q21 102 21 155q0 155 -170 155q-78 0 -146.5 -41.5
t-117 -116t-68.5 -174.5zM1712 1484l-35 -184h-214l35 184h214zM1091 -425q-67 0 -141 16l27 153q22 -3 41 -5t34 -2q62 0 92.5 39.5t47.5 132.5l228 1173h214l-237 -1214q-30 -153 -106 -223t-200 -70z" />
    <glyph glyph-name="uni01CD" unicode="&#x1cd;" horiz-adv-x="1404" 
d="M380 395l-225 -395h-236l827 1409h261l274 -1409h-227l-69 395h-605zM845 1241q-8 -20 -22 -49t-35 -68l-312 -556h483l-90 519q-8 48 -13.5 86.5t-10.5 67.5zM1265 1781l-282 -251h-212l-193 251l4 24h112l198 -143h2l242 143h133z" />
    <glyph glyph-name="uni01CE" unicode="&#x1ce;" horiz-adv-x="1139" 
d="M915 -10q-95 0 -141.5 39.5t-46.5 113.5q0 17 2 33t3 31h-6q-83 -127 -169.5 -177t-210.5 -50q-140 0 -226 84t-86 214q0 185 131 280t419 99l219 3q19 95 19 128q0 82 -45.5 122t-129.5 40q-111 0 -167 -40.5t-80 -121.5l-206 29q41 146 155.5 215.5t305.5 69.5
q183 0 281.5 -77.5t98.5 -217.5q0 -56 -21 -157l-73 -370q-10 -49 -10 -82q0 -39 23 -55t58 -16q30 0 60 7l-14 -126q-36 -11 -71.5 -14.5t-71.5 -3.5zM257 299q0 -73 45.5 -117.5t119.5 -44.5q91 0 165 48q64 37 106.5 96.5t57.5 129.5l25 114l-186 -3q-99 -2 -160 -18
t-97 -43q-35 -26 -55.5 -66.5t-20.5 -95.5zM1069 1481l-289 -286h-212l-186 286l4 23h115l191 -177h2l248 177h131z" />
    <glyph glyph-name="uni01CF" unicode="&#x1cf;" horiz-adv-x="569" 
d="M565 1409l-274 -1409h-225l274 1409h225zM857 1781l-282 -251h-212l-193 251l4 24h112l198 -143h2l242 143h133z" />
    <glyph glyph-name="uni01D0" unicode="&#x1d0;" horiz-adv-x="493" 
d="M458 1082l-211 -1082h-213l210 1082h214zM762 1481l-289 -286h-212l-186 286l4 23h115l191 -177h2l248 177h131z" />
    <glyph glyph-name="uni01D1" unicode="&#x1d1;" horiz-adv-x="1593" 
d="M935 1430q188 0 324.5 -71t210.5 -200.5t74 -307.5q-3 -260 -110 -459q-107 -198 -294 -305t-425 -107q-198 0 -338 78q-131 71 -200.5 203.5t-69.5 311.5q0 239 106 440q105 201 293.5 309t428.5 108zM924 1250q-187 0 -318 -85q-87 -56 -147.5 -151.5t-92 -211.5
t-31.5 -233q0 -201 101 -304.5t290 -103.5q185 0 315 83q87 55 148 148t93.5 209.5t32.5 238.5q0 197 -101.5 303.5t-289.5 106.5zM1345 1781l-282 -251h-212l-193 251l4 24h112l198 -143h2l242 143h133z" />
    <glyph glyph-name="uni01D2" unicode="&#x1d2;" horiz-adv-x="1176" 
d="M1111 683q0 -121 -33.5 -245t-96.5 -216q-77 -119 -199 -180.5t-276 -61.5q-204 0 -322 118t-118 321q3 205 76 360q73 157 204.5 239.5t316.5 82.5q218 0 333 -109.5t115 -308.5zM889 676q0 273 -235 273q-127 0 -204 -66q-51 -44 -87.5 -121t-56 -167t-19.5 -174
q0 -142 60 -215t176 -73q88 0 144.5 28t98.5 86q53 68 85 182t38 247zM1083 1481l-289 -286h-212l-186 286l4 23h115l191 -177h2l248 177h131z" />
    <glyph glyph-name="uni01D3" unicode="&#x1d3;" horiz-adv-x="1479" 
d="M660 -20q-243 0 -380.5 119.5t-137.5 331.5q0 44 7.5 105.5t15.5 98.5l149 774h226l-159 -832q-18 -89 -18 -153q0 -125 83 -194.5t230 -69.5q183 0 288.5 93t142.5 288l168 868h225l-171 -879q-54 -276 -221 -413t-448 -137zM1286 1781l-282 -251h-212l-193 251l4 24
h112l198 -143h2l242 143h133z" />
    <glyph glyph-name="uni01D4" unicode="&#x1d4;" horiz-adv-x="1176" 
d="M753 185q-80 -112 -166 -158t-201 -46q-150 0 -225 73t-75 211q0 20 2.5 47.5t7.5 58t11 58.5l127 653h213l-123 -628q-21 -101 -21 -155q0 -155 170 -155q79 0 147 41.5t117 116.5t68 174l118 606h214l-166 -851q-9 -45 -18.5 -102.5t-20.5 -128.5h-202q0 7 4.5 42.5
t11.5 77t10 65.5h-3zM1090 1481l-289 -286h-212l-186 286l4 23h115l191 -177h2l248 177h131z" />
    <glyph glyph-name="uni01D5" unicode="&#x1d5;" horiz-adv-x="1479" 
d="M660 -20q-243 0 -380.5 119.5t-137.5 331.5q0 44 7.5 105.5t15.5 98.5l149 774h226l-159 -832q-18 -89 -18 -153q0 -125 83 -194.5t230 -69.5q183 0 288.5 93t142.5 288l168 868h225l-171 -879q-54 -276 -221 -413t-448 -137zM1263 1835l-25 -131h-569l25 131h569z
M1226 1634l-34 -173h-162l34 173h162zM816 1634l-34 -173h-162l34 173h162z" />
    <glyph glyph-name="uni01D6" unicode="&#x1d6;" horiz-adv-x="1176" 
d="M753 185q-80 -112 -166 -158t-201 -46q-150 0 -225 73t-75 211q0 20 2.5 47.5t7.5 58t11 58.5l127 653h213l-123 -628q-21 -101 -21 -155q0 -155 170 -155q79 0 147 41.5t117 116.5t68 174l118 606h214l-166 -851q-9 -45 -18.5 -102.5t-20.5 -128.5h-202q0 7 4.5 42.5
t11.5 77t10 65.5h-3zM1040 1408l-38 -196h-187l37 196h188zM640 1408l-38 -196h-188l38 196h188zM1069 1653l-30 -141h-562l29 141h563z" />
    <glyph glyph-name="uni01D7" unicode="&#x1d7;" horiz-adv-x="1479" 
d="M660 -20q-243 0 -380.5 119.5t-137.5 331.5q0 44 7.5 105.5t15.5 98.5l149 774h226l-159 -832q-18 -89 -18 -153q0 -125 83 -194.5t230 -69.5q183 0 288.5 93t142.5 288l168 868h225l-171 -879q-54 -276 -221 -413t-448 -137zM1259 1822l-283 -165h-135l1 11l187 167h232
zM1225 1627l-33 -173h-162l33 173h162zM815 1627l-34 -173h-162l34 173h162z" />
    <glyph glyph-name="uni01D8" unicode="&#x1d8;" horiz-adv-x="1176" 
d="M753 185q-80 -112 -166 -158t-201 -46q-150 0 -225 73t-75 211q0 20 2.5 47.5t7.5 58t11 58.5l127 653h213l-123 -628q-21 -101 -21 -155q0 -155 170 -155q79 0 147 41.5t117 116.5t68 174l118 606h214l-166 -851q-9 -45 -18.5 -102.5t-20.5 -128.5h-202q0 7 4.5 42.5
t11.5 77t10 65.5h-3zM1033 1408l-38 -196h-187l37 196h188zM633 1408l-38 -196h-188l38 196h188zM1127 1724l-363 -223h-126l4 24l264 233h227z" />
    <glyph glyph-name="uni01D9" unicode="&#x1d9;" horiz-adv-x="1479" 
d="M660 -20q-243 0 -380.5 119.5t-137.5 331.5q0 44 7.5 105.5t15.5 98.5l149 774h226l-159 -832q-18 -89 -18 -153q0 -125 83 -194.5t230 -69.5q183 0 288.5 93t142.5 288l168 868h225l-171 -879q-54 -276 -221 -413t-448 -137zM1278 1825l-239 -163h-194l-178 161l2 12
h155l133 -87l168 87h155zM1221 1627l-34 -173h-162l34 173h162zM810 1627l-33 -173h-162l33 173h162z" />
    <glyph glyph-name="uni01DA" unicode="&#x1da;" horiz-adv-x="1176" 
d="M753 185q-80 -112 -166 -158t-201 -46q-150 0 -225 73t-75 211q0 20 2.5 47.5t7.5 58t11 58.5l127 653h213l-123 -628q-21 -101 -21 -155q0 -155 170 -155q79 0 147 41.5t117 116.5t68 174l118 606h214l-166 -851q-9 -45 -18.5 -102.5t-20.5 -128.5h-202q0 7 4.5 42.5
t11.5 77t10 65.5h-3zM1044 1408l-38 -196h-187l37 196h188zM644 1408l-38 -196h-188l38 196h188zM1145 1752l-282 -251h-212l-193 251l4 24h112l198 -143h2l242 143h133z" />
    <glyph glyph-name="uni01DB" unicode="&#x1db;" horiz-adv-x="1479" 
d="M660 -20q-243 0 -380.5 119.5t-137.5 331.5q0 44 7.5 105.5t15.5 98.5l149 774h226l-159 -832q-18 -89 -18 -153q0 -125 83 -194.5t230 -69.5q183 0 288.5 93t142.5 288l168 868h225l-171 -879q-54 -276 -221 -413t-448 -137zM1056 1668l-1 -11h-136l-219 165l2 13h232z
M820 1627l-34 -173h-162l34 173h162zM1230 1627l-33 -173h-162l33 173h162z" />
    <glyph glyph-name="uni01DC" unicode="&#x1dc;" horiz-adv-x="1176" 
d="M753 185q-80 -112 -166 -158t-201 -46q-150 0 -225 73t-75 211q0 20 2.5 47.5t7.5 58t11 58.5l127 653h213l-123 -628q-21 -101 -21 -155q0 -155 170 -155q79 0 147 41.5t117 116.5t68 174l118 606h214l-166 -851q-9 -45 -18.5 -102.5t-20.5 -128.5h-202q0 7 4.5 42.5
t11.5 77t10 65.5h-3zM1031 1408l-38 -196h-187l37 196h188zM631 1408l-38 -196h-188l38 196h188zM847 1525l-4 -24h-106l-296 223l6 34h217z" />
    <glyph glyph-name="uni01DD" unicode="&#x1dd;" horiz-adv-x="1139" 
d="M844 588q8 49 8 105q0 124 -60 190t-179 66q-89 0 -159.5 -46t-111.5 -129l-173 66q73 141 185 201.5t279 60.5q205 0 319.5 -113t114.5 -316t-72 -361q-71 -159 -201 -245.5t-296 -86.5q-206 0 -320 104.5t-114 295.5q0 103 24 208h756zM269 367q0 -118 59.5 -178.5
t167.5 -60.5q121 0 204 79t117 227h-544z" />
    <glyph glyph-name="uni01DE" unicode="&#x1de;" horiz-adv-x="1404" 
d="M380 395l-225 -395h-236l827 1409h261l274 -1409h-227l-69 395h-605zM845 1241q-8 -20 -22 -49t-35 -68l-312 -556h483l-90 519q-8 48 -13.5 86.5t-10.5 67.5zM1241 1850l-25 -131h-569l25 131h569zM1204 1649l-34 -173h-162l34 173h162zM794 1649l-34 -173h-162l34 173
h162z" />
    <glyph glyph-name="uni01DF" unicode="&#x1df;" horiz-adv-x="1139" 
d="M915 -10q-95 0 -141.5 39.5t-46.5 113.5q0 17 2 33t3 31h-6q-83 -127 -169.5 -177t-210.5 -50q-140 0 -226 84t-86 214q0 185 131 280t419 99l219 3q19 95 19 128q0 82 -45.5 122t-129.5 40q-111 0 -167 -40.5t-80 -121.5l-206 29q41 146 155.5 215.5t305.5 69.5
q183 0 281.5 -77.5t98.5 -217.5q0 -56 -21 -157l-73 -370q-10 -49 -10 -82q0 -39 23 -55t58 -16q30 0 60 7l-14 -126q-36 -11 -71.5 -14.5t-71.5 -3.5zM257 299q0 -73 45.5 -117.5t119.5 -44.5q91 0 165 48q64 37 106.5 96.5t57.5 129.5l25 114l-186 -3q-99 -2 -160 -18
t-97 -43q-35 -26 -55.5 -66.5t-20.5 -95.5zM1020 1408l-38 -196h-187l37 196h188zM620 1408l-38 -196h-188l38 196h188zM1050 1656l-30 -141h-562l29 141h563z" />
    <glyph glyph-name="uni01E0" unicode="&#x1e0;" horiz-adv-x="1404" 
d="M380 395l-225 -395h-236l827 1409h261l274 -1409h-227l-69 395h-605zM845 1241q-8 -20 -22 -49t-35 -68l-312 -556h483l-90 519q-8 48 -13.5 86.5t-10.5 67.5zM1243 1835l-26 -131h-569l26 131h569zM997 1641l-34 -174h-161l34 174h161z" />
    <glyph glyph-name="uni01E1" unicode="&#x1e1;" horiz-adv-x="1139" 
d="M915 -10q-95 0 -141.5 39.5t-46.5 113.5q0 17 2 33t3 31h-6q-83 -127 -169.5 -177t-210.5 -50q-140 0 -226 84t-86 214q0 185 131 280t419 99l219 3q19 95 19 128q0 82 -45.5 122t-129.5 40q-111 0 -167 -40.5t-80 -121.5l-206 29q41 146 155.5 215.5t305.5 69.5
q183 0 281.5 -77.5t98.5 -217.5q0 -56 -21 -157l-73 -370q-10 -49 -10 -82q0 -39 23 -55t58 -16q30 0 60 7l-14 -126q-36 -11 -71.5 -14.5t-71.5 -3.5zM257 299q0 -73 45.5 -117.5t119.5 -44.5q91 0 165 48q64 37 106.5 96.5t57.5 129.5l25 114l-186 -3q-99 -2 -160 -18
t-97 -43q-35 -26 -55.5 -66.5t-20.5 -95.5zM825 1418l-36 -184h-214l36 184h214zM1045 1663l-30 -141h-562l29 141h563z" />
    <glyph glyph-name="uni01E2" unicode="&#x1e2;" horiz-adv-x="2048" 
d="M420 395l-267 -395h-239l961 1409h1203l-35 -180h-727l-81 -419h665l-34 -177h-666l-87 -453h767l-35 -180h-991l78 395h-512zM534 568h431l130 671h-121l-136 -214zM1784 1702l-30 -141h-562l29 141h563z" />
    <glyph glyph-name="uni01E3" unicode="&#x1e3;" horiz-adv-x="1821" 
d="M1002 494q-7 -34 -9 -105q0 -124 56.5 -190t167.5 -66q83 0 147.5 44t105.5 131l173 -66q-72 -141 -179.5 -201.5t-267.5 -60.5q-150 0 -246 65t-136 187q-77 -113 -172 -173q-63 -40 -133.5 -59.5t-160.5 -19.5q-103 0 -177 46q-66 39 -101 104.5t-35 147.5
q0 187 135.5 282t424.5 98l222 2q20 95 20 128q0 162 -181 162q-114 0 -171.5 -40.5t-82.5 -121.5l-207 29q43 146 160 215.5t313 69.5q216 0 316 -143q130 143 344 143q200 0 310 -105t110 -295q0 -48 -7 -107t-17 -101h-722zM1029 648h510l4 67q0 118 -56 178.5t-157 60.5
q-114 0 -191.5 -79t-109.5 -227zM262 299q0 -75 42.5 -118.5t116.5 -43.5q91 0 168 45q71 40 119 107t64 145l18 89l-191 -3q-133 -3 -205 -33q-132 -50 -132 -188zM1335 1366l-30 -141h-562l29 141h563z" />
    <glyph glyph-name="uni01E4" unicode="&#x1e4;" horiz-adv-x="1593" 
d="M1455 453h132l-27 -136h-132l-22 -119q-142 -114 -300 -166t-352 -52q-303 0 -472 157t-169 439q0 250 105 445q105 196 297 302.5t441 106.5q224 0 370.5 -90.5t199.5 -261.5l-223 -62q-34 115 -126.5 174t-233.5 59q-181 0 -318 -83q-136 -82 -208.5 -233.5
t-72.5 -350.5q0 -200 110 -311t312 -111q130 0 248.5 35t201.5 97l5 25h-393l27 136h392l23 116h-395l34 176h603z" />
    <glyph glyph-name="uni01E5" unicode="&#x1e5;" horiz-adv-x="1176" 
d="M911 -93q-56 -171 -178 -251.5t-325 -80.5q-171 0 -270.5 58t-130.5 176l203 41q37 -122 212 -122q106 0 171.5 43t102.5 136h-736l18 93h746q11 51 25 119.5t30 154.5h-2q-69 -102 -140 -148q-45 -31 -97.5 -46t-116.5 -15q-155 0 -249.5 96.5t-94.5 253.5
q0 93 17.5 187.5t50.5 178t79 145.5q65 87 155 131t206 44q119 0 202 -55t111 -150h2q5 24 15 66t20 78t13 42h203l-7 -30q-11 -46 -21.5 -95t-20.5 -101l-167 -856h108l-18 -93h-116zM303 439q0 -107 51.5 -162t148.5 -55q106 0 183 62q78 61 119.5 174t41.5 240
q0 118 -60 184t-166 66q-109 0 -176 -61q-44 -41 -76 -115t-49 -161.5t-17 -171.5z" />
    <glyph glyph-name="uni01E6" unicode="&#x1e6;" horiz-adv-x="1593" 
d="M741 -20q-303 0 -471.5 157t-168.5 439q0 251 105 446q104 196 296.5 302t440.5 106q224 0 370 -90.5t200 -261.5l-222 -62q-35 115 -127 174t-234 59q-180 0 -317 -83q-137 -82 -209.5 -233.5t-72.5 -350.5q0 -200 110.5 -311t311.5 -111q128 0 246 35t204 101l50 246
h-395l34 176h603l-102 -520q-145 -115 -302.5 -166.5t-349.5 -51.5zM1336 1781l-282 -251h-212l-193 251l4 24h112l198 -143h2l242 143h133z" />
    <glyph glyph-name="uni01E7" unicode="&#x1e7;" horiz-adv-x="1176" 
d="M408 -425q-179 0 -280 65t-128 197l203 38q32 -147 219 -147q131 0 203.5 69t105.5 230q8 45 17 88.5t16 85.5h-2q-62 -88 -110 -128q-48 -39 -107.5 -60t-136.5 -21q-153 0 -246.5 100.5t-93.5 265.5q0 82 14 170.5t39.5 171.5t61.5 149q64 129 163.5 190.5t240.5 61.5
q120 0 204 -56.5t109 -148.5h2q5 23 15 65t20 78.5t13 42.5h203l-19 -82l-30 -144l-163 -832q-47 -239 -175 -344t-358 -105zM292 381q0 -232 196 -232q102 0 185 75q83 74 128.5 204t45.5 270q0 118 -60 184t-166 66q-86 0 -142 -35t-95 -112q-26 -50 -46.5 -126
t-33 -154.5t-12.5 -139.5zM1051 1481l-289 -286h-212l-186 286l4 23h115l191 -177h2l248 177h131z" />
    <glyph glyph-name="uni01E8" unicode="&#x1e8;" horiz-adv-x="1404" 
d="M383 536l-104 -536h-225l273 1409h226l-134 -674l146 131l644 543h286l-749 -625l526 -784h-259l-433 663zM1259 1781l-282 -251h-212l-193 251l4 24h112l198 -143h2l242 143h133z" />
    <glyph glyph-name="uni01E9" unicode="&#x1e9;" horiz-adv-x="1062" 
d="M323 393l-76 -393h-213l288 1484h214l-175 -895l189 178l343 315h255l-511 -451l316 -631h-230l-241 500zM1075 1794l-282 -251h-212l-193 251l4 24h112l198 -143h2l242 143h133z" />
    <glyph glyph-name="uni01EA" unicode="&#x1ea;" horiz-adv-x="1593" 
d="M935 1430q188 0 324.5 -71t210.5 -200.5t74 -307.5q-3 -260 -110 -459q-107 -198 -294 -305t-425 -107q-198 0 -338 78q-131 71 -200.5 203.5t-69.5 311.5q0 239 106 440q105 201 293.5 309t428.5 108zM924 1250q-187 0 -318 -85q-87 -56 -147.5 -151.5t-92 -211.5
t-31.5 -233q0 -201 101 -304.5t290 -103.5q185 0 315 83q87 55 148 148t93.5 209.5t32.5 238.5q0 197 -101.5 303.5t-289.5 106.5zM763 -426q-89 0 -137 47t-48 124q0 80 53 149t143 109h144q-83 -44 -130.5 -107t-47.5 -124q0 -35 21 -57t58 -22q52 0 110 22l-17 -112
q-70 -29 -149 -29z" />
    <glyph glyph-name="uni01EB" unicode="&#x1eb;" horiz-adv-x="1176" 
d="M1111 683q0 -121 -33.5 -245t-96.5 -216q-77 -119 -199 -180.5t-276 -61.5q-204 0 -322 118t-118 321q3 205 76 360q73 157 204.5 239.5t316.5 82.5q218 0 333 -109.5t115 -308.5zM889 676q0 273 -235 273q-127 0 -204 -66q-51 -44 -87.5 -121t-56 -167t-19.5 -174
q0 -142 60 -215t176 -73q88 0 144.5 28t98.5 86q53 68 85 182t38 247zM525 -426q-89 0 -137 47t-48 124q0 80 53 149t143 109h144q-83 -44 -130.5 -107t-47.5 -124q0 -35 21 -57t58 -22q52 0 110 22l-17 -112q-70 -29 -149 -29z" />
    <glyph glyph-name="uni01EC" unicode="&#x1ec;" horiz-adv-x="1593" 
d="M935 1430q188 0 324.5 -71t210.5 -200.5t74 -307.5q-3 -260 -110 -459q-107 -198 -294 -305t-425 -107q-198 0 -338 78q-131 71 -200.5 203.5t-69.5 311.5q0 239 106 440q105 201 293.5 309t428.5 108zM924 1250q-187 0 -318 -85q-87 -56 -147.5 -151.5t-92 -211.5
t-31.5 -233q0 -201 101 -304.5t290 -103.5q185 0 315 83q87 55 148 148t93.5 209.5t32.5 238.5q0 197 -101.5 303.5t-289.5 106.5zM756 -426q-89 0 -137 47t-48 124q0 80 53 149t143 109h144q-83 -44 -130.5 -107t-47.5 -124q0 -35 21 -57t58 -22q52 0 110 22l-17 -112
q-70 -29 -149 -29zM1283 1717l-30 -141h-562l29 141h563z" />
    <glyph glyph-name="uni01ED" unicode="&#x1ed;" horiz-adv-x="1176" 
d="M1111 683q0 -121 -33.5 -245t-96.5 -216q-77 -119 -199 -180.5t-276 -61.5q-204 0 -322 118t-118 321q3 205 76 360q73 157 204.5 239.5t316.5 82.5q218 0 333 -109.5t115 -308.5zM889 676q0 273 -235 273q-127 0 -204 -66q-51 -44 -87.5 -121t-56 -167t-19.5 -174
q0 -142 60 -215t176 -73q88 0 144.5 28t98.5 86q53 68 85 182t38 247zM528 -425q-89 0 -137 47t-48 124q0 80 53 149t143 109h144q-83 -44 -130.5 -107t-47.5 -124q0 -35 21 -57t58 -22q52 0 110 22l-17 -112q-70 -29 -149 -29zM1026 1366l-30 -141h-562l29 141h563z" />
    <glyph glyph-name="uni01EE" unicode="&#x1ee;" horiz-adv-x="1251" 
d="M443 -426q-207 0 -339 90.5t-182 268.5l199 76q40 -121 104 -180q43 -40 99 -59.5t130 -19.5q87 0 161.5 32t132.5 95q71 73 107.5 173t36.5 199q0 167 -102 252.5t-305 85.5h-96l32 171l561 470h-750l36 181h1028l-34 -176l-585 -482q216 -24 328.5 -147.5t112.5 -329.5
q0 -130 -37.5 -247.5t-111.5 -208.5q-90 -119 -225.5 -181.5t-300.5 -62.5zM1151 1781l-282 -251h-212l-193 251l4 24h112l198 -143h2l242 143h133z" />
    <glyph glyph-name="uni01EF" unicode="&#x1ef;" horiz-adv-x="1042" 
d="M831 -152q-69 -130 -197 -201.5t-296 -71.5q-196 0 -308 80t-133 239l205 28q29 -189 240 -189q107 0 188 59q73 52 113 144t40 188t-44 160q-35 52 -97.5 78t-156.5 26h-82l31 159l442 373h-613l31 162h850l-35 -184l-440 -364q154 -23 242.5 -132t88.5 -275
q0 -150 -69 -279zM1019 1481l-289 -286h-212l-186 286l4 23h115l191 -177h2l248 177h131z" />
    <glyph glyph-name="uni01F0" unicode="&#x1f0;" horiz-adv-x="493" 
d="M-85 -425q-67 0 -141 16l27 153q22 -3 41 -4.5t34 -2.5q62 0 92 39.5t48 132.5l228 1173h214l-237 -1214q-30 -153 -106 -223t-200 -70zM760 1481l-289 -286h-212l-186 286l4 23h115l191 -177h2l248 177h131z" />
    <glyph glyph-name="uni01F1" unicode="&#x1f1;" horiz-adv-x="2730" 
d="M741 1409q212 0 363.5 -73t231.5 -209.5t80 -330.5q0 -236 -102 -414t-293.5 -280t-432.5 -102h-534l273 1409h414zM314 178h266q184 0 324 75q140 74 215 214t75 326q0 209 -119 323.5t-336 114.5h-220zM2591 181l-35 -181h-1125l32 165l1011 1063h-731l35 181h1006
l-31 -161l-1013 -1067h851z" />
    <glyph glyph-name="uni01F2" unicode="&#x1f2;" horiz-adv-x="2503" 
d="M741 1409q212 0 363.5 -73t231.5 -209.5t80 -330.5q0 -236 -102 -414t-293.5 -280t-432.5 -102h-534l273 1409h414zM314 178h266q184 0 324 75q140 74 215 214t75 326q0 209 -119 323.5t-336 114.5h-220zM2342 161l-30 -161h-844l28 158l699 764h-524l30 160h779
l-29 -158l-698 -763h589z" />
    <glyph glyph-name="uni01F3" unicode="&#x1f3;" horiz-adv-x="2200" 
d="M398 -21q-156 0 -244.5 97t-88.5 264q0 199 63 387q63 189 175.5 281.5t281.5 92.5q125 0 203 -51t109 -147h5q5 34 11.5 74.5t15.5 87.5l83 419h212l-243 -1258q-12 -66 -21 -122.5t-14 -103.5h-208q0 55 19 160h-5q-72 -94 -153.5 -137.5t-200.5 -43.5zM474 136
q180 0 272 156q31 52 53 123.5t34 146t12 134.5q0 124 -58 188.5t-164 64.5q-115 0 -184 -71q-46 -48 -79.5 -135.5t-51.5 -186.5t-18 -182q0 -118 44.5 -178t139.5 -60zM2039 161l-30 -161h-844l28 158l699 764h-524l30 160h779l-29 -158l-698 -763h589z" />
    <glyph glyph-name="uni01F4" unicode="&#x1f4;" horiz-adv-x="1593" 
d="M741 -20q-303 0 -471.5 157t-168.5 439q0 251 105 446q104 196 296.5 302t440.5 106q224 0 370 -90.5t200 -261.5l-222 -62q-35 115 -127 174t-234 59q-180 0 -317 -83q-137 -82 -209.5 -233.5t-72.5 -350.5q0 -200 110.5 -311t311.5 -111q128 0 246 35t204 101l50 246
h-395l34 176h603l-102 -520q-145 -115 -302.5 -166.5t-349.5 -51.5zM1328 1753l-363 -223h-126l4 24l264 233h227z" />
    <glyph glyph-name="uni01F5" unicode="&#x1f5;" horiz-adv-x="1176" 
d="M408 -425q-179 0 -280 65t-128 197l203 38q32 -147 219 -147q131 0 203.5 69t105.5 230q8 45 17 88.5t16 85.5h-2q-62 -88 -110 -128q-48 -39 -107.5 -60t-136.5 -21q-153 0 -246.5 100.5t-93.5 265.5q0 82 14 170.5t39.5 171.5t61.5 149q64 129 163.5 190.5t240.5 61.5
q120 0 204 -56.5t109 -148.5h2q5 23 15 65t20 78.5t13 42.5h203l-19 -82l-30 -144l-163 -832q-47 -239 -175 -344t-358 -105zM292 381q0 -232 196 -232q102 0 185 75q83 74 128.5 204t45.5 270q0 118 -60 184t-166 66q-86 0 -142 -35t-95 -112q-26 -50 -46.5 -126
t-33 -154.5t-12.5 -139.5zM1023 1472l-375 -277h-111l4 24l251 287h237z" />
    <glyph glyph-name="uni01F6" unicode="&#x1f6;" horiz-adv-x="2119" 
d="M1288 313q0 -171 190 -171q117 0 182 62t93 208l130 670h214l-133 -687q-43 -218 -162.5 -316.5t-332.5 -98.5q-195 0 -298.5 82.5t-103.5 236.5q0 41 8 86q10 52 22 115t26 137h-720l-124 -637h-225l274 1409h225l-113 -584h720l113 584h219l-193 -997q-11 -61 -11 -99z
" />
    <glyph glyph-name="uni01F7" unicode="&#x1f7;" horiz-adv-x="1313" 
d="M194 -425h-224l356 1834h214l-34 -169q88 98 185.5 144t212.5 46q181 0 282 -105t101 -291q0 -234 -132 -471q-88 -158 -228.5 -301t-315.5 -254.5t-368 -178.5zM1058 1019q0 108 -55 169t-167 61q-94 0 -177 -47q-79 -47 -134.5 -128t-74.5 -177l-169 -870
q206 79 389 247q123 112 209.5 239.5t132.5 257.5t46 248z" />
    <glyph glyph-name="uni01F8" unicode="&#x1f8;" horiz-adv-x="1479" 
d="M433 926l-178 -926h-201l273 1409h258l482 -1190q14 97 24 162.5t20 111.5l178 916h202l-273 -1409h-265l-479 1184q-11 -84 -21 -148.5t-20 -109.5zM1037 1554l-4 -24h-106l-296 223l6 34h217z" />
    <glyph glyph-name="uni01F9" unicode="&#x1f9;" horiz-adv-x="1176" 
d="M366 606l-118 -606h-214l166 851q10 45 19.5 102.5t19.5 128.5h203q0 -7 -5 -42.5t-11 -76.5t-11 -66h3q80 111 166 157.5t202 46.5q149 0 224.5 -73t75.5 -211q0 -30 -6 -75.5t-15 -88.5l-127 -653h-214l123 628q21 102 21 155q0 155 -170 155q-78 0 -146.5 -41.5
t-117 -116t-68.5 -174.5zM820 1219l-4 -24h-108l-290 277l6 34h224z" />
    <glyph glyph-name="Aringacute" unicode="&#x1fa;" horiz-adv-x="1404" 
d="M380 395l-225 -395h-236l827 1409h261l274 -1409h-227l-69 395h-605zM845 1241q-8 -20 -22 -49t-35 -68l-312 -556h483l-90 519q-8 48 -13.5 86.5t-10.5 67.5zM1126 1543q0 -67 -33.5 -123t-89 -89.5t-123.5 -33.5t-124 33.5t-89 89.5t-33 123q0 69 33.5 124.5t89 88.5
t123.5 33q67 0 123 -33.5t89.5 -89t33.5 -123.5zM1011 1543q0 56 -37.5 93.5t-93.5 37.5q-57 0 -94.5 -38t-37.5 -93t37.5 -94.5t94.5 -39.5q56 0 93.5 39t37.5 95zM1302 2054l-363 -223h-126l4 24l264 233h227z" />
    <glyph glyph-name="aringacute" unicode="&#x1fb;" horiz-adv-x="1139" 
d="M915 -10q-95 0 -141.5 39.5t-46.5 113.5q0 17 2 33t3 31h-6q-83 -127 -169.5 -177t-210.5 -50q-140 0 -226 84t-86 214q0 185 131 280t419 99l219 3q19 95 19 128q0 82 -45.5 122t-129.5 40q-111 0 -167 -40.5t-80 -121.5l-206 29q41 146 155.5 215.5t305.5 69.5
q183 0 281.5 -77.5t98.5 -217.5q0 -56 -21 -157l-73 -370q-10 -49 -10 -82q0 -39 23 -55t58 -16q30 0 60 7l-14 -126q-36 -11 -71.5 -14.5t-71.5 -3.5zM257 299q0 -73 45.5 -117.5t119.5 -44.5q91 0 165 48q64 37 106.5 96.5t57.5 129.5l25 114l-186 -3q-99 -2 -160 -18
t-97 -43q-35 -26 -55.5 -66.5t-20.5 -95.5zM960 1403q0 -67 -33.5 -123t-89 -89.5t-123.5 -33.5t-124 33.5t-89 89.5t-33 123q0 69 33.5 124.5t89 88.5t123.5 33q67 0 123 -33.5t89.5 -89t33.5 -123.5zM845 1403q0 56 -37.5 93.5t-93.5 37.5q-57 0 -94.5 -38t-37.5 -93
t37.5 -94.5t94.5 -39.5q56 0 93.5 39t37.5 95zM1164 1928l-363 -223h-126l4 24l264 233h227z" />
    <glyph glyph-name="AEacute" unicode="&#x1fc;" horiz-adv-x="2048" 
d="M420 395l-267 -395h-239l961 1409h1203l-35 -180h-727l-81 -419h665l-34 -177h-666l-87 -453h767l-35 -180h-991l78 395h-512zM534 568h431l130 671h-121l-136 -214zM1756 1753l-363 -223h-126l4 24l264 233h227z" />
    <glyph glyph-name="aeacute" unicode="&#x1fd;" horiz-adv-x="1821" 
d="M1002 494q-7 -34 -9 -105q0 -124 56.5 -190t167.5 -66q83 0 147.5 44t105.5 131l173 -66q-72 -141 -179.5 -201.5t-267.5 -60.5q-150 0 -246 65t-136 187q-77 -113 -172 -173q-63 -40 -133.5 -59.5t-160.5 -19.5q-103 0 -177 46q-66 39 -101 104.5t-35 147.5
q0 187 135.5 282t424.5 98l222 2q20 95 20 128q0 162 -181 162q-114 0 -171.5 -40.5t-82.5 -121.5l-207 29q43 146 160 215.5t313 69.5q216 0 316 -143q130 143 344 143q200 0 310 -105t110 -295q0 -48 -7 -107t-17 -101h-722zM1029 648h510l4 67q0 118 -56 178.5t-157 60.5
q-114 0 -191.5 -79t-109.5 -227zM262 299q0 -75 42.5 -118.5t116.5 -43.5q91 0 168 45q71 40 119 107t64 145l18 89l-191 -3q-133 -3 -205 -33q-132 -50 -132 -188zM1381 1472l-375 -277h-111l4 24l251 287h237z" />
    <glyph glyph-name="Oslashacute" unicode="&#x1fe;" horiz-adv-x="1593" 
d="M1427 1212q110 -146 110 -361q-3 -260 -110 -459q-106 -198 -293 -305t-426 -107q-242 0 -393 113l-146 -146h-195l242 243q-115 151 -115 383q0 239 106 440q105 201 293 309t428 108q245 0 401 -119l155 155h196zM917 1250q-186 0 -318 -85q-87 -56 -147.5 -151.5
t-92 -211.5t-31.5 -233q0 -132 44 -221l813 816q-102 86 -268 86zM1308 840q0 123 -40 210l-809 -811q95 -78 260 -78q185 0 316 83q86 55 147.5 148t93.5 209.5t32 238.5zM1331 1753l-363 -223h-126l4 24l264 233h227z" />
    <glyph glyph-name="oslashacute" unicode="&#x1ff;" horiz-adv-x="1251" 
d="M192 135q-88 111 -88 284q4 205 76 360q74 157 205.5 239.5t315.5 82.5q162 0 269 -63l67 78h174l-142 -165q81 -104 81 -268q0 -138 -45 -267q-64 -214 -206.5 -323.5t-354.5 -109.5q-149 0 -253 64l-73 -85h-175zM326 421q0 -64 13 -116l511 594q-59 50 -157 50
q-128 0 -204 -66q-51 -44 -87.5 -121t-56 -167t-19.5 -174zM928 676q0 54 -11 98l-508 -590q58 -48 153 -48q129 0 202 64q73 62 115 191t49 285zM1099 1472l-375 -277h-111l4 24l251 287h237z" />
    <glyph glyph-name="uni0200" unicode="&#x200;" horiz-adv-x="1404" 
d="M380 395l-225 -395h-236l827 1409h261l274 -1409h-227l-69 395h-605zM845 1241q-8 -20 -22 -49t-35 -68l-312 -556h483l-90 519q-8 48 -13.5 86.5t-10.5 67.5zM789 1549l-6 -24h-109l-267 259l6 34h221zM1144 1549l-5 -24h-109l-267 259l6 34h220z" />
    <glyph glyph-name="uni0201" unicode="&#x201;" horiz-adv-x="1139" 
d="M915 -10q-95 0 -141.5 39.5t-46.5 113.5q0 17 2 33t3 31h-6q-83 -127 -169.5 -177t-210.5 -50q-140 0 -226 84t-86 214q0 185 131 280t419 99l219 3q19 95 19 128q0 82 -45.5 122t-129.5 40q-111 0 -167 -40.5t-80 -121.5l-206 29q41 146 155.5 215.5t305.5 69.5
q183 0 281.5 -77.5t98.5 -217.5q0 -56 -21 -157l-73 -370q-10 -49 -10 -82q0 -39 23 -55t58 -16q30 0 60 7l-14 -126q-36 -11 -71.5 -14.5t-71.5 -3.5zM257 299q0 -73 45.5 -117.5t119.5 -44.5q91 0 165 48q64 37 106.5 96.5t57.5 129.5l25 114l-186 -3q-99 -2 -160 -18
t-97 -43q-35 -26 -55.5 -66.5t-20.5 -95.5zM621 1219l-6 -24h-109l-267 259l6 34h221zM976 1219l-5 -24h-109l-267 259l6 34h220z" />
    <glyph glyph-name="uni0202" unicode="&#x202;" horiz-adv-x="1404" 
d="M380 395l-225 -395h-236l827 1409h261l274 -1409h-227l-69 395h-605zM845 1241q-8 -20 -22 -49t-35 -68l-312 -556h483l-90 519q-8 48 -13.5 86.5t-10.5 67.5zM933 1802q124 0 195 -67.5t71 -184.5l-1 -26h-124q-2 65 -45.5 102.5t-116.5 37.5q-72 0 -130 -35t-85 -105
h-124q40 133 133 205.5t227 72.5z" />
    <glyph glyph-name="uni0203" unicode="&#x203;" horiz-adv-x="1139" 
d="M915 -10q-95 0 -141.5 39.5t-46.5 113.5q0 17 2 33t3 31h-6q-83 -127 -169.5 -177t-210.5 -50q-140 0 -226 84t-86 214q0 185 131 280t419 99l219 3q19 95 19 128q0 82 -45.5 122t-129.5 40q-111 0 -167 -40.5t-80 -121.5l-206 29q41 146 155.5 215.5t305.5 69.5
q183 0 281.5 -77.5t98.5 -217.5q0 -56 -21 -157l-73 -370q-10 -49 -10 -82q0 -39 23 -55t58 -16q30 0 60 7l-14 -126q-36 -11 -71.5 -14.5t-71.5 -3.5zM257 299q0 -73 45.5 -117.5t119.5 -44.5q91 0 165 48q64 37 106.5 96.5t57.5 129.5l25 114l-186 -3q-99 -2 -160 -18
t-97 -43q-35 -26 -55.5 -66.5t-20.5 -95.5zM727 1476q124 0 195 -67.5t71 -184.5l-1 -26h-124q-2 65 -45.5 102.5t-116.5 37.5q-72 0 -130 -35t-85 -105h-124q40 133 133 205.5t227 72.5z" />
    <glyph glyph-name="uni0204" unicode="&#x204;" horiz-adv-x="1366" 
d="M1198 180l-35 -180h-1109l273 1409h1069l-35 -180h-843l-82 -419h783l-35 -179h-782l-88 -451h884zM825 1550l-6 -24h-109l-267 259l6 34h221zM1180 1550l-5 -24h-109l-267 259l6 34h220z" />
    <glyph glyph-name="uni0205" unicode="&#x205;" horiz-adv-x="1139" 
d="M290 494q-6 -34 -8 -105q0 -124 59.5 -190t179.5 -66q89 0 159.5 46t110.5 129l174 -66q-74 -141 -186 -201.5t-278 -60.5q-205 0 -319.5 113t-114.5 316q0 202 71 362q72 158 202 244.5t295 86.5q207 0 320.5 -104.5t113.5 -295.5q0 -102 -24 -208h-755zM317 648h544
l3 67q0 118 -59.5 178.5t-166.5 60.5q-121 0 -204 -79t-117 -227zM600 1212l-6 -24h-109l-267 259l6 34h221zM955 1212l-5 -24h-109l-267 259l6 34h220z" />
    <glyph glyph-name="uni0206" unicode="&#x206;" horiz-adv-x="1366" 
d="M1198 180l-35 -180h-1109l273 1409h1069l-35 -180h-843l-82 -419h783l-35 -179h-782l-88 -451h884zM926 1802q124 0 195 -67.5t71 -184.5l-1 -26h-124q-2 65 -45.5 102.5t-116.5 37.5q-72 0 -130 -35t-85 -105h-124q40 133 133 205.5t227 72.5z" />
    <glyph glyph-name="uni0207" unicode="&#x207;" horiz-adv-x="1139" 
d="M290 494q-6 -34 -8 -105q0 -124 59.5 -190t179.5 -66q89 0 159.5 46t110.5 129l174 -66q-74 -141 -186 -201.5t-278 -60.5q-205 0 -319.5 113t-114.5 316q0 202 71 362q72 158 202 244.5t295 86.5q207 0 320.5 -104.5t113.5 -295.5q0 -102 -24 -208h-755zM317 648h544
l3 67q0 118 -59.5 178.5t-166.5 60.5q-121 0 -204 -79t-117 -227zM711 1476q124 0 195 -67.5t71 -184.5l-1 -26h-124q-2 65 -45.5 102.5t-116.5 37.5q-72 0 -130 -35t-85 -105h-124q40 133 133 205.5t227 72.5z" />
    <glyph glyph-name="uni0208" unicode="&#x208;" horiz-adv-x="569" 
d="M565 1409l-274 -1409h-225l274 1409h225zM399 1549l-6 -24h-109l-267 259l6 34h221zM754 1549l-5 -24h-109l-267 259l6 34h220z" />
    <glyph glyph-name="uni0209" unicode="&#x209;" horiz-adv-x="569" 
d="M495 1082l-211 -1082h-213l210 1082h214zM363 1212l-6 -24h-109l-267 259l6 34h221zM718 1212l-5 -24h-109l-267 259l6 34h220z" />
    <glyph glyph-name="uni020A" unicode="&#x20a;" horiz-adv-x="569" 
d="M565 1409l-274 -1409h-225l274 1409h225zM526 1813q124 0 195 -67.5t71 -184.5l-1 -26h-124q-2 65 -45.5 102.5t-116.5 37.5q-72 0 -130 -35t-85 -105h-124q40 133 133 205.5t227 72.5z" />
    <glyph glyph-name="uni020B" unicode="&#x20b;" horiz-adv-x="569" 
d="M495 1082l-211 -1082h-213l210 1082h214zM456 1476q124 0 195 -67.5t71 -184.5l-1 -26h-124q-2 65 -45.5 102.5t-116.5 37.5q-72 0 -130 -35t-85 -105h-124q40 133 133 205.5t227 72.5z" />
    <glyph glyph-name="uni020C" unicode="&#x20c;" horiz-adv-x="1593" 
d="M935 1430q188 0 324.5 -71t210.5 -200.5t74 -307.5q-3 -260 -110 -459q-107 -198 -294 -305t-425 -107q-198 0 -338 78q-131 71 -200.5 203.5t-69.5 311.5q0 239 106 440q105 201 293.5 309t428.5 108zM924 1250q-187 0 -318 -85q-87 -56 -147.5 -151.5t-92 -211.5
t-31.5 -233q0 -201 101 -304.5t290 -103.5q185 0 315 83q87 55 148 148t93.5 209.5t32.5 238.5q0 197 -101.5 303.5t-289.5 106.5zM862 1549l-6 -24h-109l-267 259l6 34h221zM1217 1549l-5 -24h-109l-267 259l6 34h220z" />
    <glyph glyph-name="uni020D" unicode="&#x20d;" horiz-adv-x="1176" 
d="M1111 683q0 -121 -33.5 -245t-96.5 -216q-77 -119 -199 -180.5t-276 -61.5q-204 0 -322 118t-118 321q3 205 76 360q73 157 204.5 239.5t316.5 82.5q218 0 333 -109.5t115 -308.5zM889 676q0 273 -235 273q-127 0 -204 -66q-51 -44 -87.5 -121t-56 -167t-19.5 -174
q0 -142 60 -215t176 -73q88 0 144.5 28t98.5 86q53 68 85 182t38 247zM610 1212l-6 -24h-109l-267 259l6 34h221zM965 1212l-5 -24h-109l-267 259l6 34h220z" />
    <glyph glyph-name="uni020E" unicode="&#x20e;" horiz-adv-x="1593" 
d="M935 1430q188 0 324.5 -71t210.5 -200.5t74 -307.5q-3 -260 -110 -459q-107 -198 -294 -305t-425 -107q-198 0 -338 78q-131 71 -200.5 203.5t-69.5 311.5q0 239 106 440q105 201 293.5 309t428.5 108zM924 1250q-187 0 -318 -85q-87 -56 -147.5 -151.5t-92 -211.5
t-31.5 -233q0 -201 101 -304.5t290 -103.5q185 0 315 83q87 55 148 148t93.5 209.5t32.5 238.5q0 197 -101.5 303.5t-289.5 106.5zM987 1802q124 0 195 -67.5t71 -184.5l-1 -26h-124q-2 65 -45.5 102.5t-116.5 37.5q-72 0 -130 -35t-85 -105h-124q40 133 133 205.5t227 72.5
z" />
    <glyph glyph-name="uni020F" unicode="&#x20f;" horiz-adv-x="1176" 
d="M1111 683q0 -121 -33.5 -245t-96.5 -216q-77 -119 -199 -180.5t-276 -61.5q-204 0 -322 118t-118 321q3 205 76 360q73 157 204.5 239.5t316.5 82.5q218 0 333 -109.5t115 -308.5zM889 676q0 273 -235 273q-127 0 -204 -66q-51 -44 -87.5 -121t-56 -167t-19.5 -174
q0 -142 60 -215t176 -73q88 0 144.5 28t98.5 86q53 68 85 182t38 247zM727 1476q124 0 195 -67.5t71 -184.5l-1 -26h-124q-2 65 -45.5 102.5t-116.5 37.5q-72 0 -130 -35t-85 -105h-124q40 133 133 205.5t227 72.5z" />
    <glyph glyph-name="uni0210" unicode="&#x210;" horiz-adv-x="1479" 
d="M389 568l-109 -568h-226l273 1409h625q156 0 267 -52q103 -47 158 -132t55 -197q0 -180 -108 -292t-311 -140l270 -596h-246l-238 568h-410zM862 745q169 0 255 70t86 197q0 106 -70.5 162.5t-207.5 56.5h-406l-95 -486h438zM779 1549l-6 -24h-109l-267 259l6 34h221z
M1134 1549l-5 -24h-109l-267 259l6 34h220z" />
    <glyph glyph-name="uni0211" unicode="&#x211;" horiz-adv-x="720" 
d="M760 910q-51 13 -98 13q-74 0 -136 -46.5t-106 -130.5t-65 -199l-107 -547h-214l162 830q6 33 12 65.5t12 65.5q5 30 10 60.5t9 60.5h202l-25 -170l-8 -51h4q68 133 134.5 187t153.5 54q44 0 97 -14zM468 1212l-6 -24h-109l-267 259l6 34h221zM823 1212l-5 -24h-109
l-267 259l6 34h220z" />
    <glyph glyph-name="uni0212" unicode="&#x212;" horiz-adv-x="1479" 
d="M389 568l-109 -568h-226l273 1409h625q156 0 267 -52q103 -47 158 -132t55 -197q0 -180 -108 -292t-311 -140l270 -596h-246l-238 568h-410zM862 745q169 0 255 70t86 197q0 106 -70.5 162.5t-207.5 56.5h-406l-95 -486h438zM909 1803q124 0 195 -67.5t71 -184.5l-1 -26
h-124q-2 65 -45.5 102.5t-116.5 37.5q-72 0 -130 -35t-85 -105h-124q40 133 133 205.5t227 72.5z" />
    <glyph glyph-name="uni0213" unicode="&#x213;" horiz-adv-x="720" 
d="M760 910q-51 13 -98 13q-74 0 -136 -46.5t-106 -130.5t-65 -199l-107 -547h-214l162 830q6 33 12 65.5t12 65.5q5 30 10 60.5t9 60.5h202l-25 -170l-8 -51h4q68 133 134.5 187t153.5 54q44 0 97 -14zM584 1476q124 0 195 -67.5t71 -184.5l-1 -26h-124q-2 65 -45.5 102.5
t-116.5 37.5q-72 0 -130 -35t-85 -105h-124q40 133 133 205.5t227 72.5z" />
    <glyph glyph-name="uni0214" unicode="&#x214;" horiz-adv-x="1479" 
d="M660 -20q-243 0 -380.5 119.5t-137.5 331.5q0 44 7.5 105.5t15.5 98.5l149 774h226l-159 -832q-18 -89 -18 -153q0 -125 83 -194.5t230 -69.5q183 0 288.5 93t142.5 288l168 868h225l-171 -879q-54 -276 -221 -413t-448 -137zM843 1549l-6 -24h-109l-267 259l6 34h221z
M1198 1549l-5 -24h-109l-267 259l6 34h220z" />
    <glyph glyph-name="uni0215" unicode="&#x215;" horiz-adv-x="1176" 
d="M753 185q-80 -112 -166 -158t-201 -46q-150 0 -225 73t-75 211q0 20 2.5 47.5t7.5 58t11 58.5l127 653h213l-123 -628q-21 -101 -21 -155q0 -155 170 -155q79 0 147 41.5t117 116.5t68 174l118 606h214l-166 -851q-9 -45 -18.5 -102.5t-20.5 -128.5h-202q0 7 4.5 42.5
t11.5 77t10 65.5h-3zM634 1212l-6 -24h-109l-267 259l6 34h221zM989 1212l-5 -24h-109l-267 259l6 34h220z" />
    <glyph glyph-name="uni0216" unicode="&#x216;" horiz-adv-x="1479" 
d="M660 -20q-243 0 -380.5 119.5t-137.5 331.5q0 44 7.5 105.5t15.5 98.5l149 774h226l-159 -832q-18 -89 -18 -153q0 -125 83 -194.5t230 -69.5q183 0 288.5 93t142.5 288l168 868h225l-171 -879q-54 -276 -221 -413t-448 -137zM964 1802q124 0 195 -67.5t71 -184.5l-1 -26
h-124q-2 65 -45.5 102.5t-116.5 37.5q-72 0 -130 -35t-85 -105h-124q40 133 133 205.5t227 72.5z" />
    <glyph glyph-name="uni0217" unicode="&#x217;" horiz-adv-x="1176" 
d="M753 185q-80 -112 -166 -158t-201 -46q-150 0 -225 73t-75 211q0 20 2.5 47.5t7.5 58t11 58.5l127 653h213l-123 -628q-21 -101 -21 -155q0 -155 170 -155q79 0 147 41.5t117 116.5t68 174l118 606h214l-166 -851q-9 -45 -18.5 -102.5t-20.5 -128.5h-202q0 7 4.5 42.5
t11.5 77t10 65.5h-3zM741 1476q124 0 195 -67.5t71 -184.5l-1 -26h-124q-2 65 -45.5 102.5t-116.5 37.5q-72 0 -130 -35t-85 -105h-124q40 133 133 205.5t227 72.5z" />
    <glyph glyph-name="Scommaaccent" unicode="&#x218;" horiz-adv-x="1366" 
d="M611 -20q-255 0 -393.5 90.5t-170.5 276.5l214 41q25 -123 111.5 -178.5t254.5 -55.5q203 0 299 60t96 183q0 58 -24 96t-81 67q-33 19 -93 40t-147 44q-173 47 -261 99q-86 51 -130.5 122.5t-44.5 174.5q0 120 70 207.5t198.5 135t301.5 47.5q226 0 363 -79.5
t170 -232.5l-211 -56q-29 100 -110.5 151t-217.5 51q-166 0 -252.5 -54.5t-86.5 -160.5q0 -56 26 -92t81 -63q28 -14 83 -32t138 -40q118 -33 190 -63t116 -63q73 -49 111 -117.5t38 -165.5q0 -209 -159 -321t-479 -112zM715 -204q-16 -81 -48.5 -139t-87.5 -112h-124
q114 101 130 183h-95l35 181h212z" />
    <glyph glyph-name="scommaaccent" unicode="&#x219;" horiz-adv-x="1062" 
d="M938 323q0 -166 -125.5 -254.5t-363.5 -88.5q-183 0 -290 62.5t-148 196.5l182 49q29 -83 94 -121t179 -38q268 0 268 172q0 59 -47 96q-49 37 -205 81q-126 37 -194 77q-72 42 -107.5 99t-35.5 134q0 150 119 230.5t338 80.5q186 0 286 -66t123 -200l-192 -26
q-21 75 -78 109t-154 34q-117 0 -178 -36.5t-61 -104.5q0 -39 20.5 -65.5t59.5 -46.5q39 -21 181 -62q130 -37 198 -81q65 -41 98 -98t33 -133zM554 -204q-16 -81 -48.5 -139t-87.5 -112h-124q114 101 130 183h-95l35 181h212z" />
    <glyph glyph-name="uni021A" unicode="&#x21a;" horiz-adv-x="1251" 
d="M870 1229l-239 -1229h-225l239 1229h-474l35 180h1174l-35 -180h-475zM587 -204q-16 -81 -48.5 -139t-87.5 -112h-124q114 101 130 183h-95l35 181h212z" />
    <glyph glyph-name="uni021B" unicode="&#x21b;" horiz-adv-x="607" 
d="M309 -19q-98 0 -153 53.5t-55 145.5q0 62 15 139l118 612h-133l30 151h139l115 246h139l-47 -246h200l-29 -151h-201l-118 -608q-12 -59 -12 -93q0 -45 23 -67t66 -22q37 0 103 14l-24 -150q-93 -24 -176 -24zM349 -204q-16 -81 -48.5 -139t-87.5 -112h-124
q114 101 130 183h-95l35 181h212z" />
    <glyph glyph-name="uni021C" unicode="&#x21c;" horiz-adv-x="1138" 
d="M369 654q193 52 303 106q107 53 167 124.5t60 164.5q0 91 -60 143.5t-164 52.5q-106 0 -190 -39t-167 -143l-153 103q112 142 236 203.5t295 61.5q132 0 229 -46.5t149.5 -128.5t52.5 -189q0 -118 -55.5 -207.5t-166.5 -161.5q55 -55 85 -131t30 -164q0 -120 -41.5 -221
t-120.5 -184q-76 -89 -195 -163.5t-298.5 -139t-438.5 -122.5l37 193q190 45 333.5 100.5t242.5 123.5q256 161 256 407q0 62 -19 115t-54 87q-76 -36 -175 -70.5t-215 -66.5z" />
    <glyph glyph-name="uni021D" unicode="&#x21d;" horiz-adv-x="951" 
d="M265 476q99 26 170 52t113 53q69 40 107 94t38 129q0 69 -44 108.5t-118 39.5q-80 0 -144 -46t-112 -142l-177 56q57 140 168.5 211t281.5 71q167 0 262.5 -76.5t95.5 -210.5q0 -112 -56 -194.5t-158 -140.5q54 -48 85 -117t31 -150q0 -183 -115 -317
q-100 -116 -293.5 -197t-490.5 -127l33 176q260 54 389 117q133 64 196.5 153t63.5 205q0 53 -17 97t-47 81q-60 -25 -134.5 -49.5t-160.5 -46.5z" />
    <glyph glyph-name="uni021E" unicode="&#x21e;" horiz-adv-x="1479" 
d="M403 637l-124 -637h-225l274 1409h225l-113 -584h720l113 584h219l-274 -1409h-219l124 637h-720zM1309 1781l-282 -251h-212l-193 251l4 24h112l198 -143h2l242 143h133z" />
    <glyph glyph-name="uni021F" unicode="&#x21f;" horiz-adv-x="1176" 
d="M417 897q81 111 166.5 157.5t201.5 46.5q149 0 224.5 -73t75.5 -211q0 -30 -5.5 -75.5t-15.5 -88.5l-127 -653h-214l124 628q20 102 20 155q0 155 -170 155q-78 0 -146.5 -41.5t-117 -116t-67.5 -174.5l-118 -606h-214l288 1484h213l-76 -392q-9 -49 -20.5 -97.5
t-24.5 -97.5h3zM1149 1794l-282 -251h-212l-193 251l4 24h112l198 -143h2l242 143h133z" />
    <glyph glyph-name="uni0220" unicode="&#x220;" horiz-adv-x="1397" 
d="M834 -425l252 1292q20 95 20 157q0 111 -53.5 168t-173.5 57q-90 0 -182 -46q-81 -41 -143 -109t-88 -144l-185 -950h-224l213 1096l57 313h213q-6 -41 -15 -94t-21 -117h3q91 116 205.5 173.5t241.5 57.5q183 0 281 -90.5t98 -272.5q0 -78 -21 -185l-255 -1306h-223z
" />
    <glyph glyph-name="uni0221" unicode="&#x221;" horiz-adv-x="1397" 
d="M398 -21q-156 0 -244.5 97t-88.5 264q0 199 63 387q63 189 175.5 281.5t281.5 92.5q124 0 202.5 -51.5t109.5 -146.5h5q5 33 10.5 67t11.5 69q15 79 37 190t51 255h212l-244 -1263l-25 -141q86 42 170 42q122 0 190.5 -65t68.5 -177q0 -143 -92 -224t-252 -81
q-106 0 -181 46.5t-114 129.5q-38 -36 -78.5 -76.5t-83.5 -85.5l-114 116q54 61 118.5 122t140.5 121l4 36l6 39q4 37 9.5 73t11.5 70h-3q-73 -98 -156 -142.5t-202 -44.5zM474 136q180 0 271 156q32 52 54 123.5t34 146t12 134.5q0 124 -58 188.5t-164 64.5
q-117 0 -186 -73q-47 -49 -79.5 -137t-50 -186.5t-17.5 -178.5q0 -118 44.5 -178t139.5 -60zM1055 -264q62 0 102 32.5t40 91.5q0 45 -28.5 71t-74.5 26q-93 0 -172 -64l-2 -40q4 -52 41.5 -84.5t93.5 -32.5z" />
    <glyph glyph-name="uni0222" unicode="&#x222;" horiz-adv-x="1256" 
d="M837 1430q192 -7 294.5 -90.5t102.5 -231.5q0 -138 -87.5 -235t-237.5 -132l-1 -4q111 -23 173.5 -98t62.5 -190q0 -154 -85 -265q-74 -98 -208 -151t-313 -53q-228 0 -352 95.5t-124 266.5q0 155 95.5 260t268.5 136l1 4q-208 71 -208 239q0 159 135 246t377 87
l-28 -153q-137 -2 -202.5 -52t-65.5 -137q0 -74 66 -114t189 -40q121 0 196 45q64 37 97 97t33 136q0 78 -50 125.5t-158 52.5zM559 139q172 0 268 81t96 226q0 108 -68.5 162t-206.5 54q-110 0 -192 -38q-81 -38 -126.5 -107t-45.5 -158q0 -109 70.5 -164.5t204.5 -55.5z
" />
    <glyph glyph-name="uni0223" unicode="&#x223;" horiz-adv-x="1256" 
d="M698 872q93 0 163 39q65 37 102 106.5t37 153.5q0 124 -99 193l105 126q102 -54 155 -133.5t53 -180.5q0 -136 -79.5 -235.5t-228.5 -147.5l-1 -4q102 -28 158.5 -108.5t56.5 -191.5q0 -167 -82 -287q-73 -106 -203.5 -164t-302.5 -58q-214 0 -332 98t-118 271
q0 120 50 218q46 89 125.5 149.5t184.5 85.5l1 4q-88 38 -134.5 105.5t-46.5 158.5q0 146 89.5 251t262.5 169l69 -126q-101 -47 -154 -120t-53 -169q0 -97 58 -150t164 -53zM650 719q-105 0 -183 -46q-77 -47 -120 -128t-43 -178q0 -115 63.5 -171t190.5 -56q117 0 198 54
q71 44 109 120t38 173q0 109 -66 170.5t-187 61.5z" />
    <glyph glyph-name="uni0224" unicode="&#x224;" horiz-adv-x="1251" 
d="M1105 -37q0 -36 -7.5 -76.5t-21.5 -81t-34 -76.5l-176 42q45 81 45 139q0 90 -120 90h-834l32 165l1011 1063h-731l35 181h1006l-31 -161l-1013 -1067h586q121 0 187 -56.5t66 -161.5z" />
    <glyph glyph-name="uni0225" unicode="&#x225;" horiz-adv-x="1024" 
d="M935 -55q0 -64 -18 -119t-43 -98l-172 42q17 31 31 63t14 70q0 48 -30 72.5t-89 24.5h-669l31 158l749 764h-561l31 160h819l-31 -158l-749 -763h434q119 0 186 -56.5t67 -159.5z" />
    <glyph glyph-name="uni0226" unicode="&#x226;" horiz-adv-x="1404" 
d="M380 395l-225 -395h-236l827 1409h261l274 -1409h-227l-69 395h-605zM845 1241q-8 -20 -22 -49t-35 -68l-312 -556h483l-90 519q-8 48 -13.5 86.5t-10.5 67.5zM1034 1719l-36 -184h-214l36 184h214z" />
    <glyph glyph-name="uni0227" unicode="&#x227;" horiz-adv-x="1139" 
d="M915 -10q-95 0 -141.5 39.5t-46.5 113.5q0 17 2 33t3 31h-6q-83 -127 -169.5 -177t-210.5 -50q-140 0 -226 84t-86 214q0 185 131 280t419 99l219 3q19 95 19 128q0 82 -45.5 122t-129.5 40q-111 0 -167 -40.5t-80 -121.5l-206 29q41 146 155.5 215.5t305.5 69.5
q183 0 281.5 -77.5t98.5 -217.5q0 -56 -21 -157l-73 -370q-10 -49 -10 -82q0 -39 23 -55t58 -16q30 0 60 7l-14 -126q-36 -11 -71.5 -14.5t-71.5 -3.5zM257 299q0 -73 45.5 -117.5t119.5 -44.5q91 0 165 48q64 37 106.5 96.5t57.5 129.5l25 114l-186 -3q-99 -2 -160 -18
t-97 -43q-35 -26 -55.5 -66.5t-20.5 -95.5zM835 1484l-36 -184h-214l36 184h214z" />
    <glyph glyph-name="uni0228" unicode="&#x228;" horiz-adv-x="1366" 
d="M1198 180l-35 -180h-1109l273 1409h1069l-35 -180h-843l-82 -419h783l-35 -179h-782l-88 -451h884zM653 -64q89 0 139 -39.5t50 -108.5q0 -103 -80 -158t-232 -55q-55 0 -106 6l21 104q43 -7 84 -7q84 0 123 25q38 25 38 70q0 63 -113 63h-17h-16q-7 -1 -12 -1t-10 -1
l52 101q19 0 38.5 0.5t40.5 0.5z" />
    <glyph glyph-name="uni0229" unicode="&#x229;" horiz-adv-x="1139" 
d="M290 494q-6 -34 -8 -105q0 -124 59.5 -190t179.5 -66q89 0 159.5 46t110.5 129l174 -66q-74 -141 -186 -201.5t-278 -60.5q-205 0 -319.5 113t-114.5 316q0 202 71 362q72 158 202 244.5t295 86.5q207 0 320.5 -104.5t113.5 -295.5q0 -102 -24 -208h-755zM317 648h544
l3 67q0 118 -59.5 178.5t-166.5 60.5q-121 0 -204 -79t-117 -227zM534 -92q78 -3 119.5 -38t41.5 -96q0 -97 -78.5 -148t-238.5 -51q-25 0 -51.5 1.5t-54.5 5.5l23 99q45 -6 86 -6q88 0 125.5 20.5t37.5 64.5q0 69 -116 69q-19 0 -33 -0.5t-24 -1.5l100 173h119z" />
    <glyph glyph-name="uni022A" unicode="&#x22a;" horiz-adv-x="1593" 
d="M935 1430q188 0 324.5 -71t210.5 -200.5t74 -307.5q-3 -260 -110 -459q-107 -198 -294 -305t-425 -107q-198 0 -338 78q-131 71 -200.5 203.5t-69.5 311.5q0 239 106 440q105 201 293.5 309t428.5 108zM924 1250q-187 0 -318 -85q-87 -56 -147.5 -151.5t-92 -211.5
t-31.5 -233q0 -201 101 -304.5t290 -103.5q185 0 315 83q87 55 148 148t93.5 209.5t32.5 238.5q0 197 -101.5 303.5t-289.5 106.5zM1327 1835l-25 -131h-569l25 131h569zM1290 1634l-34 -173h-162l34 173h162zM880 1634l-34 -173h-162l34 173h162z" />
    <glyph glyph-name="uni022B" unicode="&#x22b;" horiz-adv-x="1176" 
d="M1111 683q0 -121 -33.5 -245t-96.5 -216q-77 -119 -199 -180.5t-276 -61.5q-204 0 -322 118t-118 321q3 205 76 360q73 157 204.5 239.5t316.5 82.5q218 0 333 -109.5t115 -308.5zM889 676q0 273 -235 273q-127 0 -204 -66q-51 -44 -87.5 -121t-56 -167t-19.5 -174
q0 -142 60 -215t176 -73q88 0 144.5 28t98.5 86q53 68 85 182t38 247zM1044 1408l-38 -196h-187l37 196h188zM644 1408l-38 -196h-188l38 196h188zM1072 1654l-30 -141h-562l29 141h563z" />
    <glyph glyph-name="uni022C" unicode="&#x22c;" horiz-adv-x="1593" 
d="M935 1430q188 0 324.5 -71t210.5 -200.5t74 -307.5q-3 -260 -110 -459q-107 -198 -294 -305t-425 -107q-198 0 -338 78q-131 71 -200.5 203.5t-69.5 311.5q0 239 106 440q105 201 293.5 309t428.5 108zM924 1250q-187 0 -318 -85q-87 -56 -147.5 -151.5t-92 -211.5
t-31.5 -233q0 -201 101 -304.5t290 -103.5q185 0 315 83q87 55 148 148t93.5 209.5t32.5 238.5q0 197 -101.5 303.5t-289.5 106.5zM1310 1835l-25 -131h-569l25 131h569zM1084 1470q-29 0 -60 10.5t-64 25.5q-35 17 -64.5 28t-55.5 11q-45 0 -70.5 -17.5t-41.5 -57.5h-91
q30 86 56 120q27 35 68.5 54.5t103.5 19.5q46 0 87.5 -19t80 -37.5t74.5 -18.5q48 0 73 19t38 56h92q-29 -85 -56 -121q-27 -35 -67.5 -54t-102.5 -19z" />
    <glyph glyph-name="uni022D" unicode="&#x22d;" horiz-adv-x="1176" 
d="M1111 683q0 -121 -33.5 -245t-96.5 -216q-77 -119 -199 -180.5t-276 -61.5q-204 0 -322 118t-118 321q3 205 76 360q73 157 204.5 239.5t316.5 82.5q218 0 333 -109.5t115 -308.5zM889 676q0 273 -235 273q-127 0 -204 -66q-51 -44 -87.5 -121t-56 -167t-19.5 -174
q0 -142 60 -215t176 -73q88 0 144.5 28t98.5 86q53 68 85 182t38 247zM856 1195q-53 0 -103 30.5t-95.5 60t-88.5 29.5q-48 0 -80.5 -28.5t-55.5 -91.5h-105q44 154 107.5 215t153.5 61q55 0 104.5 -29.5t95.5 -60t86 -30.5q48 0 81 29.5t54 90.5h107q-32 -109 -70 -167
q-34 -53 -81 -81t-110 -28zM1066 1703l-30 -141h-562l29 141h563z" />
    <glyph glyph-name="uni022E" unicode="&#x22e;" horiz-adv-x="1593" 
d="M935 1430q188 0 324.5 -71t210.5 -200.5t74 -307.5q-3 -260 -110 -459q-107 -198 -294 -305t-425 -107q-198 0 -338 78q-131 71 -200.5 203.5t-69.5 311.5q0 239 106 440q105 201 293.5 309t428.5 108zM924 1250q-187 0 -318 -85q-87 -56 -147.5 -151.5t-92 -211.5
t-31.5 -233q0 -201 101 -304.5t290 -103.5q185 0 315 83q87 55 148 148t93.5 209.5t32.5 238.5q0 197 -101.5 303.5t-289.5 106.5zM1094 1761l-36 -184h-214l36 184h214z" />
    <glyph glyph-name="uni022F" unicode="&#x22f;" horiz-adv-x="1176" 
d="M1111 683q0 -121 -33.5 -245t-96.5 -216q-77 -119 -199 -180.5t-276 -61.5q-204 0 -322 118t-118 321q3 205 76 360q73 157 204.5 239.5t316.5 82.5q218 0 333 -109.5t115 -308.5zM889 676q0 273 -235 273q-127 0 -204 -66q-51 -44 -87.5 -121t-56 -167t-19.5 -174
q0 -142 60 -215t176 -73q88 0 144.5 28t98.5 86q53 68 85 182t38 247zM839 1484l-36 -184h-214l36 184h214z" />
    <glyph glyph-name="uni0230" unicode="&#x230;" horiz-adv-x="1593" 
d="M935 1430q188 0 324.5 -71t210.5 -200.5t74 -307.5q-3 -260 -110 -459q-107 -198 -294 -305t-425 -107q-198 0 -338 78q-131 71 -200.5 203.5t-69.5 311.5q0 239 106 440q105 201 293.5 309t428.5 108zM924 1250q-187 0 -318 -85q-87 -56 -147.5 -151.5t-92 -211.5
t-31.5 -233q0 -201 101 -304.5t290 -103.5q185 0 315 83q87 55 148 148t93.5 209.5t32.5 238.5q0 197 -101.5 303.5t-289.5 106.5zM1303 1835l-26 -131h-569l26 131h569zM1057 1641l-34 -174h-161l34 174h161z" />
    <glyph glyph-name="uni0231" unicode="&#x231;" horiz-adv-x="1176" 
d="M1111 683q0 -121 -33.5 -245t-96.5 -216q-77 -119 -199 -180.5t-276 -61.5q-204 0 -322 118t-118 321q3 205 76 360q73 157 204.5 239.5t316.5 82.5q218 0 333 -109.5t115 -308.5zM889 676q0 273 -235 273q-127 0 -204 -66q-51 -44 -87.5 -121t-56 -167t-19.5 -174
q0 -142 60 -215t176 -73q88 0 144.5 28t98.5 86q53 68 85 182t38 247zM858 1412l-36 -184h-214l36 184h214zM1063 1655l-30 -141h-562l29 141h563z" />
    <glyph glyph-name="uni0232" unicode="&#x232;" horiz-adv-x="1366" 
d="M802 582l-113 -582h-224l114 582l-380 827h228l291 -651l531 651h250zM1182 1696l-30 -141h-562l29 141h563z" />
    <glyph glyph-name="uni0233" unicode="&#x233;" horiz-adv-x="1062" 
d="M40 -425q-79 0 -146 15l34 155q45 -8 80 -8q89 0 157.5 58t134.5 174l27 47l-215 1066h219l98 -564q7 -37 13.5 -83t12.5 -91t10 -80t4 -50q5 11 10.5 23t12.5 26l128 247l307 572h232l-635 -1101q-111 -186 -177 -258q-67 -75 -141 -111.5t-166 -36.5zM960 1366
l-30 -141h-562l29 141h563z" />
    <glyph glyph-name="uni0234" unicode="&#x234;" horiz-adv-x="710" 
d="M690 -120q0 -143 -92 -224t-252 -81q-106 0 -181 46.5t-114 129.5q-38 -36 -78.5 -76.5t-83.5 -85.5l-114 116q54 61 118.5 122t140.5 121q0 13 1.5 26t3.5 28q1 21 4 41.5t7 40.5l272 1400h213l-274 -1404q81 42 170 42q122 0 190.5 -65t68.5 -177zM361 -264
q62 0 102 32.5t40 91.5q0 45 -28.5 71t-74.5 26q-93 0 -172 -64l-2 -42q5 -52 42 -83.5t93 -31.5z" />
    <glyph glyph-name="uni0235" unicode="&#x235;" horiz-adv-x="1395" 
d="M466 -295q54 62 119 122.5t139 121.5q1 11 2 23t2 25q1 20 4 40t7 40l108 551q21 102 21 155q0 155 -170 155q-78 0 -146.5 -41.5t-117 -116t-68.5 -174.5l-118 -606h-214l166 851q10 45 19.5 102.5t19.5 128.5h203q0 -7 -5 -42.5t-11 -76.5t-11 -66h3q81 112 166.5 158
t201.5 46q149 0 224.5 -73t75.5 -211q0 -19 -3 -47t-7.5 -58t-10.5 -59l-112 -573q81 42 168 42q123 0 191.5 -65t68.5 -177q0 -143 -92 -224t-252 -81q-106 0 -181 46.5t-114 129.5q-38 -36 -79 -76.5t-84 -85.5zM1051 -264q63 0 103 32.5t40 91.5q0 45 -29 71t-75 26
q-93 0 -171 -64l-3 -40q4 -52 41.5 -84.5t93.5 -32.5z" />
    <glyph glyph-name="uni0236" unicode="&#x236;" horiz-adv-x="822" 
d="M-127 110q100 114 260 242q0 11 1 22t2 24q1 19 3.5 38t6.5 38l88 457h-133l30 151h139l115 246h139l-47 -246h200l-29 -151h-201l-86 -446q86 42 167 42q123 0 191.5 -65t68.5 -177q0 -143 -91.5 -224t-251.5 -81q-108 0 -183 44t-113 132q-38 -36 -79 -76.5t-84 -85.5z
M463 141q63 0 100.5 32.5t37.5 91.5q0 45 -29 71t-75 26q-87 0 -163 -62q-4 -28 0 -52q8 -50 42.5 -78.5t86.5 -28.5z" />
    <glyph glyph-name="j.dotless" unicode="&#x237;" horiz-adv-x="493" 
d="M-85 -425q-67 0 -141 16l27 153q22 -3 41 -4.5t34 -2.5q62 0 92 39.5t48 132.5l228 1173h214l-237 -1214q-30 -153 -106 -223t-200 -70z" />
    <glyph glyph-name="uni0238" unicode="&#x238;" horiz-adv-x="1857" 
d="M1797 748q0 -102 -15 -200t-46 -193q-62 -191 -174 -283t-285 -92q-121 0 -198 50.5t-111 146.5h-3l-42 -177h-197l25 160h-5q-72 -94 -153.5 -137.5t-200.5 -43.5q-156 0 -244.5 97t-88.5 264q0 199 63 387q63 189 175.5 281.5t281.5 92.5q124 0 202.5 -51.5
t109.5 -146.5h5q5 33 10.5 67t11.5 69q15 79 37 190t51 255h212l-83 -426q-7 -32 -14.5 -67.5t-16.5 -72.5h5q69 95 154 139.5t200 44.5q158 0 246 -94.5t88 -259.5zM468 136q180 0 271 156q32 52 54 123.5t34 146t12 134.5q0 124 -58 188.5t-164 64.5q-117 0 -186 -73
q-47 -49 -79.5 -137t-50 -186.5t-17.5 -178.5q0 -118 44.5 -178t139.5 -60zM1389 944q-180 0 -273 -155q-30 -52 -52.5 -123.5t-34.5 -145.5t-12 -135q0 -119 60 -185.5t167 -66.5q115 0 181 70q34 34 61 94.5t47 133.5t30.5 146t10.5 132q0 117 -43 176t-142 59z" />
    <glyph glyph-name="uni0239" unicode="&#x239;" horiz-adv-x="1852" 
d="M1457 1103q158 0 246 -94.5t88 -259.5q0 -205 -61 -395q-62 -191 -173.5 -282t-284.5 -91q-122 0 -199 50t-110 148h-5l-114 -604h-214l87 441q10 49 19 85.5t15 60.5h-4q-73 -95 -155 -138.5t-201 -43.5q-155 0 -244 95.5t-89 263.5q0 200 63 389q62 188 175 281t282 93
q122 0 197 -48t111 -150h4l42 178h197l-26 -163h4q74 100 155 142t195 42zM467 137q164 0 252 130q38 51 64.5 125t40.5 155t14 150q0 121 -57 186.5t-161 65.5q-120 0 -189 -71q-47 -48 -80 -136.5t-51 -187.5t-18 -181q0 -118 45 -177t140 -59zM1383 945q-141 0 -223 -97
q-47 -49 -79.5 -129t-49.5 -168.5t-17 -164.5q0 -123 59.5 -187.5t164.5 -64.5q116 0 182 70q46 47 78.5 135t50.5 188.5t18 181.5q0 118 -44 177t-140 59z" />
    <glyph glyph-name="uni023A" unicode="&#x23a;" horiz-adv-x="1404" 
d="M1083 1019l198 -1019h-227l-69 395h-380l-381 -494h-169l76 99h-212l827 1409h261l42 -214l241 309h169zM476 568h92l319 413q-13 79 -23.5 143.5t-18.5 116.5q-4 -14 -17 -41t-35 -67zM737 568h222l-41 233zM378 395l-160 -285l219 285h-59z" />
    <glyph glyph-name="uni023B" unicode="&#x23b;" horiz-adv-x="1479" 
d="M1339 1306q115 -91 155 -237l-211 -60q-22 71 -74 127l-709 -919q89 -57 219 -57q143 0 263 70.5t211 209.5l171 -98q-119 -187 -281.5 -274.5t-378.5 -87.5q-192 0 -326 76l-121 -155h-168l182 235q-82 80 -122 189.5t-40 243.5q0 248 105 447t292 306.5t420 107.5
q172 0 297 -55l100 129h170zM335 568q0 -154 68 -258l696 903q-78 36 -182 36q-181 0 -314 -88q-129 -84 -198.5 -237.5t-69.5 -355.5z" />
    <glyph glyph-name="uni023C" unicode="&#x23c;" horiz-adv-x="1062" 
d="M922 1014q103 -88 115 -244l-213 -25q-4 50 -19 86l-421 -666q45 -26 107 -26q95 0 160.5 54t106.5 169l195 -50q-117 -332 -470 -332q-112 0 -195 35l-279 -440h-157l325 512q-111 109 -111 311q0 200 75 370q74 172 197.5 253t304.5 81q86 0 162 -24l257 406h158z
M287 395q0 -69 15 -112l408 647q-36 14 -78 14q-119 0 -191 -68q-35 -33 -63.5 -89t-48.5 -124.5t-31 -138t-11 -129.5z" />
    <glyph glyph-name="uni023D" unicode="&#x23d;" horiz-adv-x="1176" 
d="M79 825h137l113 584h226l-113 -584h388l-34 -171h-388l-91 -474h726l-34 -180h-953l126 654h-136z" />
    <glyph glyph-name="uni023E" unicode="&#x23e;" horiz-adv-x="1251" 
d="M1309 1409h71l-35 -180h-175l-400 -514l-139 -715h-225l63 322l-331 -421h-169l556 712l120 616h-474l35 180h933l75 95h169zM870 1229l-43 -223l174 223h-131z" />
    <glyph glyph-name="uni023F" unicode="&#x23f;" horiz-adv-x="1062" 
d="M938 323q0 -167 -125.5 -255t-363.5 -88q-25 1 -50.5 3.5t-52.5 6.5l129 -163q40 -47 74 -64.5t69 -17.5q26 0 61 11t67 31l40 -142q-99 -71 -208 -71q-45 0 -82.5 11.5t-70.5 32.5q-21 13 -41 30.5t-39 37.5q-16 18 -49.5 62t-75 103t-84 121.5t-77.5 118t-55 92.5
l165 108q46 -87 115 -124.5t182 -37.5q268 0 268 172q0 70 -71 112q-44 26 -181 65q-131 38 -199 79q-69 42 -103.5 98.5t-34.5 132.5q0 150 119 230.5t338 80.5q186 0 286 -65.5t123 -200.5l-192 -26q-21 75 -78 109t-154 34q-117 0 -178 -36.5t-61 -104.5
q0 -39 20.5 -65.5t60.5 -47.5q40 -20 180 -61q131 -37 199 -82q64 -41 97 -97.5t33 -132.5z" />
    <glyph glyph-name="uni0240" unicode="&#x240;" horiz-adv-x="1024" 
d="M247 160q59 -2 107 -27q38 -17 70 -47.5t77 -93.5q43 -62 77 -107.5t59 -76.5q49 -60 104 -57q48 0 117 49l42 -148q-107 -78 -209 -78q-76 0 -138.5 39.5t-130.5 136.5l-101 152q-41 55 -81.5 76.5t-111.5 21.5h-168l30 158l749 764h-561l31 160h819l-31 -158z" />
    <glyph glyph-name="uni0241" unicode="&#x241;" horiz-adv-x="1233" 
d="M343 0l106 544q51 -14 118 -14q137 0 238 61q90 55 138 153t48 228q0 134 -77.5 211t-213.5 77q-126 0 -216.5 -59.5t-139.5 -177.5l-195 45q70 183 210.5 272.5t361.5 89.5q239 0 367.5 -118t128.5 -339q0 -178 -71 -311.5t-202 -211t-312 -86.5l-70 -364h-219z" />
    <glyph glyph-name="uni0242" unicode="&#x242;" horiz-adv-x="949" 
d="M516 314l-61 -314h-214l85 437q118 0 204 43q79 39 121 110.5t42 164.5q0 94 -50 143.5t-134 49.5q-181 0 -237 -178l-193 16q98 316 448 316q179 0 280.5 -91.5t101.5 -249.5q0 -144 -65 -247q-100 -161 -328 -200z" />
    <glyph glyph-name="uni0243" unicode="&#x243;" horiz-adv-x="1404" 
d="M1287 436q0 -212 -156 -324t-445 -112h-632l65 335h-129l30 154h129l178 920h535q223 0 346.5 -85t123.5 -238q0 -283 -334 -345q137 -23 213 -104.5t76 -200.5zM439 820h318q177 0 260.5 58.5t83.5 179.5q0 89 -63.5 132.5t-197.5 43.5h-321zM313 175h355q209 0 301 66
t92 199q0 102 -75.5 155t-226.5 53h-354l-31 -159h323l-30 -154h-323z" />
    <glyph glyph-name="uni0244" unicode="&#x244;" horiz-adv-x="1479" 
d="M1329 530q-53 -275 -220.5 -412.5t-448.5 -137.5q-243 0 -380.5 119t-137.5 332q0 80 28 231h-125l33 170h124l112 577h226l-110 -577h733l112 577h225l-112 -577h125l-32 -170h-126zM676 160q183 0 288.5 93t142.5 288l23 121h-733l-16 -85q-18 -89 -18 -153
q0 -125 83 -194.5t230 -69.5z" />
    <glyph glyph-name="uni0245" unicode="&#x245;" horiz-adv-x="1366" 
d="M692 957l-543 -956h-243l830 1409h232l282 -1409h-228l-169 956q-10 59 -17 122.5t-13 132.5q-33 -68 -65.5 -131.5t-65.5 -123.5z" />
    <glyph glyph-name="uni0246" unicode="&#x246;" horiz-adv-x="1366" 
d="M355 0l-124 -187h-161l124 187h-140l273 1409h812l86 128h162l-87 -128h96l-35 -180h-182l-281 -419h321l-35 -179h-406l-302 -451h722l-35 -180h-808zM436 810h301l281 419h-500zM320 207h14l283 424h-215z" />
    <glyph glyph-name="uni0247" unicode="&#x247;" horiz-adv-x="1139" 
d="M294 18l-288 -444h-157l334 517q-116 112 -116 318q0 202 71 362q72 158 202 244.5t295 86.5q104 0 185 -27l266 409h157l-305 -472q131 -105 131 -310q0 -102 -24 -208h-444l-212 -330q54 -31 132 -31q87 0 157 44t113 131l174 -66q-77 -143 -188.5 -202.5t-275.5 -59.5
q-117 0 -207 38zM317 648h228l187 291q-43 15 -94 15q-121 0 -204.5 -80t-116.5 -226zM864 715q0 84 -32 136l-130 -203h159zM282 389q0 -71 22 -114l140 219h-154q-8 -48 -8 -105z" />
    <glyph glyph-name="uni0248" unicode="&#x248;" horiz-adv-x="1062" 
d="M892 423q-45 -229 -161 -336t-317 -107q-170 0 -275 95.5t-134 279.5l201 41q23 -115 77.5 -175.5t148.5 -60.5q82 0 136 50q38 33 63 87.5t42 142.5l43 223h-259l33 169h259l76 396h-287l34 181h513l-114 -577h135l-32 -169h-135z" />
    <glyph glyph-name="uni0249" unicode="&#x249;" horiz-adv-x="493" 
d="M536 1484l-35 -184h-214l35 184h214zM-85 -425q-67 0 -141 16l27 153q22 -3 41 -4.5t34 -2.5q62 0 92 39.5t48 132.5l110 565h-117l31 157h117l87 451h214l-88 -451h117l-30 -157h-118l-118 -606q-30 -153 -106 -223t-200 -70z" />
    <glyph glyph-name="uni024A" unicode="&#x24a;" horiz-adv-x="1564" 
d="M1232 -147q0 -48 22.5 -69.5t67.5 -21.5q18 0 48 4t53 10l-36 -185q-33 -7 -75.5 -11.5t-80.5 -4.5q-115 0 -170.5 51.5t-55.5 157.5q0 34 8 82q3 18 12 67t25 130q-154 -83 -350 -83q-194 0 -332 80q-126 73 -192.5 201.5t-66.5 299.5q0 251 106 452q107 201 300 309
t443 108q208 0 359 -87l172 66h42l-292 -1496q-7 -37 -7 -60zM723 159q229 0 364 99l168 887q-103 105 -322 105q-179 0 -314 -85q-90 -56 -154 -147t-97 -205t-33 -242q0 -196 104 -304t284 -108z" />
    <glyph glyph-name="uni024B" unicode="&#x24b;" horiz-adv-x="1176" 
d="M913 -143q0 -50 23 -72.5t67 -22.5q36 0 92 12l-36 -184q-29 -7 -69 -11t-79 -4q-102 0 -160 55.5t-58 161.5q0 67 17 146q9 40 21 95.5t28 127.5h-4q-73 -95 -155 -138.5t-201 -43.5q-156 0 -244.5 95.5t-88.5 263.5q0 200 62 389q63 188 175.5 281t281.5 93
q126 0 201 -49.5t110 -148.5h5q7 34 16.5 74.5t19 73t13.5 40.5h205q-10 -33 -26 -106t-38 -186l-171 -880q-7 -40 -7 -62zM475 136q164 0 252 130q38 51 64.5 125.5t40.5 155t14 149.5q0 122 -57 187.5t-161 65.5q-120 0 -190 -72q-46 -47 -79.5 -135.5t-51 -188
t-17.5 -181.5q0 -118 45 -177t140 -59z" />
    <glyph glyph-name="uni024C" unicode="&#x24c;" horiz-adv-x="1479" 
d="M1042 0l-238 568h-410l-109 -568h-226l111 568h-175l34 177h175l128 664h625q148 0 257 -48q107 -47 165 -132.5t58 -200.5q0 -180 -108 -292t-311 -140l270 -596h-246zM867 745q169 0 255 70t86 197q0 106 -70.5 162.5t-207.5 56.5h-406l-95 -486h438z" />
    <glyph glyph-name="uni024D" unicode="&#x24d;" horiz-adv-x="720" 
d="M760 910q-51 13 -98 13q-99 0 -175.5 -82.5t-117.5 -229.5h171l-32 -165h-173l-87 -446h-214l87 446h-120l32 165h120q24 123 41 211.5t26 143.5q7 40 12 69.5t7 46.5h202q-9 -63 -17 -118.5t-16 -102.5h4q68 133 134.5 187t153.5 54q39 0 97 -14z" />
    <glyph glyph-name="uni024E" unicode="&#x24e;" horiz-adv-x="1366" 
d="M802 582l-113 -582h-224l114 582l-212 462h-240l31 165h134l-93 200h228l90 -200h568l164 200h250l-170 -200h142l-32 -165h-248zM590 1044l128 -286l232 286h-360z" />
    <glyph glyph-name="uni024F" unicode="&#x24f;" horiz-adv-x="1062" 
d="M347 -277q-67 -75 -141 -111.5t-166 -36.5q-79 0 -146 15l34 155q45 -8 80 -8q92 0 163 64q31 26 64 69t69 105l23 41l-115 572h-174l32 165h108l-66 329h219l57 -329h362l177 329h232l-190 -329h118l-32 -165h-181l-350 -607q-111 -186 -177 -258zM469 214q7 16 15.5 33
t18.5 36q16 33 55.5 109.5t104.5 195.5h-247q22 -129 35.5 -222t17.5 -152z" />
    <glyph glyph-name="uni0250" unicode="&#x250;" horiz-adv-x="1139" 
d="M225 1092q96 0 142 -39.5t46 -113.5q0 -17 -1.5 -33t-3.5 -31h6q84 127 170.5 177t209.5 50q140 0 226.5 -84t86.5 -214q0 -186 -132 -280.5t-419 -98.5l-218 -3q-20 -95 -20 -128q0 -82 46 -122t130 -40q111 0 167 40.5t79 121.5l207 -29q-42 -146 -156 -215.5
t-305 -69.5q-183 0 -281.5 77.5t-98.5 217.5q0 56 20 157l73 370q10 49 10 82q0 71 -80 71q-30 0 -61 -7l14 126q36 11 72 14.5t71 3.5zM390 671l-26 -114l187 3q100 2 162 19t97 44t54.5 66t19.5 94q0 73 -45.5 117.5t-119.5 44.5q-86 0 -158 -42q-66 -37 -110.5 -99
t-60.5 -133z" />
    <glyph glyph-name="uni0251" unicode="&#x251;" horiz-adv-x="1176" 
d="M66 340q0 106 16 207.5t49 193.5q59 165 172 262.5t283 97.5q124 0 202 -51.5t109 -146.5h5l37 179h208l-164 -843q-4 -22 -6 -45t-2 -41q0 -42 10 -81.5t32 -71.5h-229q-12 17 -21 49.5t-9 79.5v15q0 10 1 16h-5q-73 -95 -155 -138t-201 -43q-155 0 -243.5 97t-88.5 264
zM846 696q0 124 -58.5 188.5t-164.5 64.5q-66 0 -117 -27.5t-87 -74.5q-47 -60 -75.5 -143t-41 -170t-12.5 -160q0 -117 44 -177.5t140 -60.5q132 0 212 79q54 52 89.5 136.5t53 177t17.5 167.5z" />
    </font>
</defs>
</svg>
